G04 (created by PCBNEW (2013-07-07 BZR 4022)-stable) date 03/11/2014 14:59:00*
%MOIN*%
G04 Gerber Fmt 3.4, Leading zero omitted, Abs format*
%FSLAX34Y34*%
G01*
G70*
G90*
G04 APERTURE LIST*
%ADD10C,0.00393701*%
%ADD11R,0.04X0.01*%
%ADD12R,0.01X0.04*%
%ADD13R,0.0177X0.059*%
%ADD14R,0.055X0.035*%
%ADD15R,0.008X0.06*%
%ADD16R,0.035X0.055*%
%ADD17R,0.0472X0.0472*%
%ADD18R,0.08X0.144*%
%ADD19R,0.08X0.04*%
%ADD20R,0.0275591X0.0393701*%
%ADD21R,0.16X0.16*%
%ADD22R,0.1181X0.0787*%
%ADD23R,0.2165X0.1516*%
%ADD24R,0.09X0.042*%
%ADD25R,0.35X0.42*%
%ADD26R,0.065X0.12*%
%ADD27R,0.24X0.24*%
%ADD28R,0.0748X0.1732*%
%ADD29R,0.08X0.06*%
%ADD30R,0.0394X0.0315*%
%ADD31R,0.2165X0.0787*%
%ADD32R,0.02X0.05*%
%ADD33R,0.045X0.02*%
%ADD34R,0.02X0.045*%
%ADD35R,0.038X0.05*%
%ADD36R,0.0236X0.0551*%
%ADD37R,0.175X0.1*%
%ADD38R,0.03X0.06*%
%ADD39R,0.02X0.1*%
%ADD40R,0.0787402X0.11*%
%ADD41R,0.0669X0.0472*%
%ADD42R,0.0472X0.0629*%
%ADD43R,0.0472X0.0669*%
%ADD44R,0.0551X0.0236*%
%ADD45R,0.045X0.025*%
%ADD46R,0.025X0.045*%
%ADD47R,0.0511811X0.0748031*%
G04 APERTURE END LIST*
G54D10*
G54D11*
X87750Y-54274D03*
X87750Y-58994D03*
X87750Y-58794D03*
X87750Y-58604D03*
X87750Y-58404D03*
X87750Y-58204D03*
X87750Y-58014D03*
X87750Y-57814D03*
X87750Y-57614D03*
X87750Y-57424D03*
X87750Y-57224D03*
X87750Y-57024D03*
X87750Y-56824D03*
X87750Y-56634D03*
X87750Y-56434D03*
X87750Y-56234D03*
X87750Y-56044D03*
X87750Y-55844D03*
X87750Y-55644D03*
X87750Y-55454D03*
X87750Y-55254D03*
X87750Y-55054D03*
X87750Y-54864D03*
X87750Y-54664D03*
X87750Y-54464D03*
G54D12*
X87060Y-59684D03*
X82340Y-59684D03*
X82540Y-59684D03*
X82730Y-59684D03*
X82930Y-59684D03*
X83130Y-59684D03*
X83320Y-59684D03*
X83520Y-59684D03*
X83720Y-59684D03*
X83910Y-59684D03*
X84110Y-59684D03*
X84310Y-59684D03*
X84510Y-59684D03*
X84700Y-59684D03*
X84900Y-59684D03*
X85100Y-59684D03*
X85290Y-59684D03*
X85490Y-59684D03*
X85690Y-59684D03*
X85880Y-59684D03*
X86080Y-59684D03*
X86280Y-59684D03*
X86470Y-59684D03*
X86670Y-59684D03*
X86870Y-59684D03*
X87060Y-53584D03*
X86860Y-53584D03*
X86670Y-53584D03*
X86470Y-53584D03*
X86270Y-53584D03*
X86080Y-53584D03*
X85880Y-53584D03*
X85680Y-53584D03*
X85490Y-53584D03*
X85290Y-53584D03*
X85090Y-53584D03*
X84890Y-53584D03*
X84700Y-53584D03*
X84500Y-53584D03*
X84300Y-53584D03*
X84110Y-53584D03*
X83910Y-53584D03*
X83710Y-53584D03*
X83520Y-53584D03*
X83320Y-53584D03*
X83120Y-53584D03*
X82930Y-53584D03*
X82730Y-53584D03*
X82530Y-53584D03*
X82340Y-53584D03*
G54D11*
X81650Y-54274D03*
X81650Y-54474D03*
X81650Y-54664D03*
X81650Y-54864D03*
X81650Y-55064D03*
X81650Y-55254D03*
X81650Y-55454D03*
X81650Y-55654D03*
X81650Y-55844D03*
X81650Y-56044D03*
X81650Y-56244D03*
X81650Y-56444D03*
X81650Y-56634D03*
X81650Y-56834D03*
X81650Y-57034D03*
X81650Y-57224D03*
X81650Y-57424D03*
X81650Y-57624D03*
X81650Y-57814D03*
X81650Y-58014D03*
X81650Y-58214D03*
X81650Y-58404D03*
X81650Y-58604D03*
X81650Y-58804D03*
X81650Y-58994D03*
G54D13*
X69125Y-29059D03*
X69375Y-29059D03*
X69625Y-29059D03*
X69875Y-29059D03*
X70125Y-29059D03*
X70375Y-29059D03*
X70625Y-29059D03*
X70875Y-29059D03*
X70875Y-26941D03*
X70625Y-26941D03*
X70375Y-26941D03*
X70125Y-26941D03*
X69875Y-26941D03*
X69625Y-26941D03*
X69375Y-26941D03*
X69125Y-26941D03*
G54D14*
X78000Y-25875D03*
X78000Y-25125D03*
G54D15*
X78000Y-25000D03*
X78000Y-26000D03*
G54D14*
X61000Y-25875D03*
X61000Y-25125D03*
G54D15*
X61000Y-25000D03*
X61000Y-26000D03*
G54D14*
X59750Y-25875D03*
X59750Y-25125D03*
G54D15*
X59750Y-25000D03*
X59750Y-26000D03*
G54D14*
X58500Y-25875D03*
X58500Y-25125D03*
G54D15*
X58500Y-25000D03*
X58500Y-26000D03*
G54D14*
X57250Y-25875D03*
X57250Y-25125D03*
G54D15*
X57250Y-25000D03*
X57250Y-26000D03*
G54D14*
X54750Y-25875D03*
X54750Y-25125D03*
G54D15*
X54750Y-26000D03*
X54750Y-25000D03*
G54D14*
X56000Y-25875D03*
X56000Y-25125D03*
G54D15*
X56000Y-26000D03*
X56000Y-25000D03*
G54D14*
X87000Y-28375D03*
X87000Y-27625D03*
G54D15*
X87000Y-28500D03*
X87000Y-27500D03*
G54D14*
X75500Y-25875D03*
X75500Y-25125D03*
X77500Y-28375D03*
X77500Y-27625D03*
X76750Y-25875D03*
X76750Y-25125D03*
X78750Y-28375D03*
X78750Y-27625D03*
X80750Y-28375D03*
X80750Y-27625D03*
X80000Y-25875D03*
X80000Y-25125D03*
X82000Y-28375D03*
X82000Y-27625D03*
X81250Y-25875D03*
X81250Y-25125D03*
X83250Y-28375D03*
X83250Y-27625D03*
X82500Y-25875D03*
X82500Y-25125D03*
X84500Y-28375D03*
X84500Y-27625D03*
X83750Y-25875D03*
X83750Y-25125D03*
X85750Y-28375D03*
X85750Y-27625D03*
X85000Y-25875D03*
X85000Y-25125D03*
X76250Y-28375D03*
X76250Y-27625D03*
X86250Y-25875D03*
X86250Y-25125D03*
X88250Y-28375D03*
X88250Y-27625D03*
X87500Y-25875D03*
X87500Y-25125D03*
X89500Y-28375D03*
X89500Y-27625D03*
X88750Y-25875D03*
X88750Y-25125D03*
X90500Y-28375D03*
X90500Y-27625D03*
X90000Y-25875D03*
X90000Y-25125D03*
X92000Y-28375D03*
X92000Y-27625D03*
X91250Y-25875D03*
X91250Y-25125D03*
X93500Y-25875D03*
X93500Y-25125D03*
X92500Y-25875D03*
X92500Y-25125D03*
X95750Y-25375D03*
X95750Y-24625D03*
X94500Y-25875D03*
X94500Y-25125D03*
X96750Y-24375D03*
X96750Y-23625D03*
G54D16*
X97275Y-21500D03*
X96525Y-21500D03*
G54D14*
X65500Y-28375D03*
X65500Y-27625D03*
X56750Y-28375D03*
X56750Y-27625D03*
X58000Y-28375D03*
X58000Y-27625D03*
X59250Y-28375D03*
X59250Y-27625D03*
X60500Y-28375D03*
X60500Y-27625D03*
X61750Y-28375D03*
X61750Y-27625D03*
X63000Y-28375D03*
X63000Y-27625D03*
X62250Y-25875D03*
X62250Y-25125D03*
X64250Y-28375D03*
X64250Y-27625D03*
X63500Y-25875D03*
X63500Y-25125D03*
X55500Y-28375D03*
X55500Y-27625D03*
X64750Y-25875D03*
X64750Y-25125D03*
X66750Y-28375D03*
X66750Y-27625D03*
X66000Y-25875D03*
X66000Y-25125D03*
X68000Y-28375D03*
X68000Y-27625D03*
X67250Y-25875D03*
X67250Y-25125D03*
X72500Y-28375D03*
X72500Y-27625D03*
X72500Y-26075D03*
X72500Y-25325D03*
X90350Y-63934D03*
X90350Y-63184D03*
G54D16*
X84975Y-51734D03*
X85725Y-51734D03*
X84375Y-51734D03*
X83625Y-51734D03*
G54D14*
X84425Y-64984D03*
X84425Y-64234D03*
G54D16*
X77875Y-53534D03*
X78625Y-53534D03*
X77875Y-54184D03*
X78625Y-54184D03*
G54D14*
X79200Y-52109D03*
X79200Y-52859D03*
X79900Y-52109D03*
X79900Y-52859D03*
X87650Y-49759D03*
X87650Y-49009D03*
G54D16*
X78475Y-50084D03*
X77725Y-50084D03*
X83725Y-48184D03*
X84475Y-48184D03*
G54D14*
X81100Y-60459D03*
X81100Y-59709D03*
G54D16*
X88525Y-59934D03*
X87775Y-59934D03*
X90175Y-54284D03*
X89425Y-54284D03*
G54D14*
X80350Y-60259D03*
X80350Y-61009D03*
X93100Y-53059D03*
X93100Y-52309D03*
G54D16*
X88400Y-60959D03*
X89150Y-60959D03*
X86775Y-48384D03*
X87525Y-48384D03*
X87525Y-47534D03*
X86775Y-47534D03*
G54D17*
X85137Y-48184D03*
X85963Y-48184D03*
G54D16*
X78425Y-50834D03*
X77675Y-50834D03*
X85100Y-62759D03*
X85850Y-62759D03*
G54D14*
X85200Y-64209D03*
X85200Y-63459D03*
G54D16*
X85175Y-64934D03*
X85925Y-64934D03*
G54D14*
X92125Y-55759D03*
X92125Y-56509D03*
X76450Y-54525D03*
X76450Y-55275D03*
X78200Y-72259D03*
X78200Y-71509D03*
X79400Y-72259D03*
X79400Y-71509D03*
X80600Y-72259D03*
X80600Y-71509D03*
X81800Y-72259D03*
X81800Y-71509D03*
G54D16*
X79925Y-53534D03*
X79175Y-53534D03*
G54D14*
X85800Y-47359D03*
X85800Y-46609D03*
G54D16*
X80925Y-74700D03*
X81675Y-74700D03*
X93125Y-49184D03*
X92375Y-49184D03*
G54D18*
X91300Y-47584D03*
G54D19*
X88700Y-47584D03*
X88700Y-48484D03*
X88700Y-46684D03*
G54D14*
X79750Y-76575D03*
X79750Y-75825D03*
X79750Y-77325D03*
X79750Y-78075D03*
X91700Y-52759D03*
X91700Y-52009D03*
X88200Y-51359D03*
X88200Y-50609D03*
G54D20*
X82974Y-73777D03*
X82600Y-73777D03*
X82225Y-73777D03*
X82225Y-74722D03*
X82600Y-74722D03*
X82974Y-74722D03*
G54D21*
X101000Y-35500D03*
G54D17*
X80590Y-72871D03*
X80590Y-73697D03*
X78190Y-72871D03*
X78190Y-73697D03*
X79390Y-72871D03*
X79390Y-73697D03*
X81450Y-72887D03*
X81450Y-73713D03*
X80413Y-74700D03*
X79587Y-74700D03*
X93377Y-48324D03*
X94203Y-48324D03*
G54D16*
X84125Y-74200D03*
X84875Y-74200D03*
X86775Y-46624D03*
X87525Y-46624D03*
X92515Y-51324D03*
X93265Y-51324D03*
X92375Y-50504D03*
X93125Y-50504D03*
X69625Y-26000D03*
X68875Y-26000D03*
X71125Y-26000D03*
X70375Y-26000D03*
X69625Y-25250D03*
X68875Y-25250D03*
X71125Y-25250D03*
X70375Y-25250D03*
X68875Y-30250D03*
X69625Y-30250D03*
X70375Y-30250D03*
X71125Y-30250D03*
G54D22*
X50056Y-36491D03*
X50056Y-34129D03*
G54D10*
G36*
X49360Y-40590D02*
X48525Y-39755D01*
X49081Y-39199D01*
X49916Y-40034D01*
X49360Y-40590D01*
X49360Y-40590D01*
G37*
G36*
X51030Y-38920D02*
X50195Y-38085D01*
X50751Y-37529D01*
X51586Y-38364D01*
X51030Y-38920D01*
X51030Y-38920D01*
G37*
G54D23*
X46556Y-29851D03*
X46556Y-33769D03*
G54D10*
G36*
X47211Y-35373D02*
X48742Y-36904D01*
X47670Y-37976D01*
X46139Y-36445D01*
X47211Y-35373D01*
X47211Y-35373D01*
G37*
G36*
X44441Y-38143D02*
X45972Y-39674D01*
X44900Y-40746D01*
X43369Y-39215D01*
X44441Y-38143D01*
X44441Y-38143D01*
G37*
G54D16*
X50681Y-40310D03*
X51431Y-40310D03*
G54D17*
X52143Y-40310D03*
X52969Y-40310D03*
G54D24*
X50056Y-30470D03*
G54D25*
X53506Y-31810D03*
G54D24*
X50056Y-31810D03*
X50056Y-31140D03*
X50056Y-32480D03*
X50056Y-33150D03*
G54D26*
X52406Y-38560D03*
G54D27*
X53306Y-36060D03*
G54D26*
X54206Y-38560D03*
G54D28*
X51750Y-25732D03*
X51750Y-22307D03*
G54D16*
X49681Y-29560D03*
X50431Y-29560D03*
G54D29*
X49556Y-28210D03*
X49556Y-26910D03*
G54D30*
X46873Y-28060D03*
X47739Y-27685D03*
X47739Y-28435D03*
G54D29*
X62000Y-38150D03*
X62000Y-36850D03*
G54D16*
X67875Y-42250D03*
X67125Y-42250D03*
X65625Y-42250D03*
X66375Y-42250D03*
G54D31*
X64150Y-44250D03*
X67850Y-44250D03*
G54D32*
X67750Y-36350D03*
X67250Y-36350D03*
X66750Y-36350D03*
X66250Y-36350D03*
X65750Y-36350D03*
X65250Y-36350D03*
X64750Y-36350D03*
X64250Y-36350D03*
X63750Y-36350D03*
X63250Y-36350D03*
X63250Y-40150D03*
X63750Y-40150D03*
X64250Y-40150D03*
X64750Y-40150D03*
X65250Y-40150D03*
X65750Y-40150D03*
X66250Y-40150D03*
X66750Y-40150D03*
X67250Y-40150D03*
X67750Y-40150D03*
G54D14*
X88250Y-76325D03*
X88250Y-77075D03*
G54D16*
X88625Y-71950D03*
X89375Y-71950D03*
X89375Y-72700D03*
X88625Y-72700D03*
G54D14*
X90250Y-72075D03*
X90250Y-72825D03*
X88250Y-77825D03*
X88250Y-78575D03*
G54D16*
X89925Y-74700D03*
X89175Y-74700D03*
X100625Y-60750D03*
X99875Y-60750D03*
X99875Y-61500D03*
X100625Y-61500D03*
G54D17*
X88663Y-74700D03*
X87837Y-74700D03*
G54D14*
X83000Y-33125D03*
X83000Y-33875D03*
G54D16*
X83625Y-32500D03*
X84375Y-32500D03*
G54D14*
X73500Y-32375D03*
X73500Y-33125D03*
X74500Y-34875D03*
X74500Y-35625D03*
G54D16*
X95625Y-34000D03*
X96375Y-34000D03*
X92375Y-34250D03*
X91625Y-34250D03*
X96375Y-33250D03*
X95625Y-33250D03*
X93875Y-34250D03*
X93125Y-34250D03*
G54D14*
X73500Y-30875D03*
X73500Y-31625D03*
X74500Y-33375D03*
X74500Y-34125D03*
G54D16*
X82125Y-32500D03*
X82875Y-32500D03*
G54D14*
X82250Y-33875D03*
X82250Y-33125D03*
G54D33*
X92450Y-33500D03*
X94550Y-33500D03*
X92450Y-33000D03*
X92450Y-32500D03*
X92450Y-32000D03*
X94550Y-33000D03*
X94550Y-32500D03*
X94550Y-32000D03*
X91450Y-31000D03*
X93550Y-31000D03*
X91450Y-30500D03*
X91450Y-30000D03*
X91450Y-29500D03*
X93550Y-30500D03*
X93550Y-30000D03*
X93550Y-29500D03*
X77000Y-30050D03*
X74900Y-30050D03*
X77000Y-30550D03*
X77000Y-31050D03*
X77000Y-31550D03*
X74900Y-30550D03*
X74900Y-31050D03*
X74900Y-31550D03*
X78150Y-31550D03*
X80250Y-31550D03*
X78150Y-31050D03*
X78150Y-30550D03*
X78150Y-30050D03*
X80250Y-31050D03*
X80250Y-30550D03*
X80250Y-30050D03*
X78750Y-33950D03*
X80850Y-33950D03*
X78750Y-33450D03*
X78750Y-32950D03*
X78750Y-32450D03*
X80850Y-33450D03*
X80850Y-32950D03*
X80850Y-32450D03*
X77850Y-32450D03*
X75750Y-32450D03*
X77850Y-32950D03*
X77850Y-33450D03*
X77850Y-33950D03*
X75750Y-32950D03*
X75750Y-33450D03*
X75750Y-33950D03*
G54D34*
X97000Y-25450D03*
X97000Y-27550D03*
X97500Y-25450D03*
X98000Y-25450D03*
X98500Y-25450D03*
X97500Y-27550D03*
X98000Y-27550D03*
X98500Y-27550D03*
G54D33*
X97500Y-23900D03*
X99600Y-23900D03*
X97500Y-23400D03*
X97500Y-22900D03*
X97500Y-22400D03*
X99600Y-23400D03*
X99600Y-22900D03*
X99600Y-22400D03*
X99450Y-27500D03*
X101550Y-27500D03*
X99450Y-27000D03*
X99450Y-26500D03*
X99450Y-26000D03*
X101550Y-27000D03*
X101550Y-26500D03*
X101550Y-26000D03*
G54D34*
X97750Y-28450D03*
X97750Y-30550D03*
X98250Y-28450D03*
X98750Y-28450D03*
X99250Y-28450D03*
X98250Y-30550D03*
X98750Y-30550D03*
X99250Y-30550D03*
G54D33*
X94450Y-31000D03*
X96550Y-31000D03*
X94450Y-30500D03*
X94450Y-30000D03*
X94450Y-29500D03*
X96550Y-30500D03*
X96550Y-30000D03*
X96550Y-29500D03*
X93200Y-28750D03*
X95300Y-28750D03*
X93200Y-28250D03*
X93200Y-27750D03*
X93200Y-27250D03*
X95300Y-28250D03*
X95300Y-27750D03*
X95300Y-27250D03*
G54D16*
X99075Y-20950D03*
X98325Y-20950D03*
G54D14*
X101750Y-28325D03*
X101750Y-29075D03*
G54D16*
X100675Y-28350D03*
X99925Y-28350D03*
X100875Y-30000D03*
X100125Y-30000D03*
X98125Y-31500D03*
X97375Y-31500D03*
X96375Y-31750D03*
X95625Y-31750D03*
G54D35*
X82640Y-30610D03*
X81350Y-30610D03*
G54D14*
X83600Y-29625D03*
X83600Y-30375D03*
G54D16*
X97375Y-32250D03*
X98125Y-32250D03*
X95625Y-32500D03*
X96375Y-32500D03*
X99925Y-29100D03*
X100675Y-29100D03*
X100125Y-30750D03*
X100875Y-30750D03*
G54D14*
X101750Y-29625D03*
X101750Y-30375D03*
G54D16*
X98325Y-21650D03*
X99075Y-21650D03*
G54D17*
X83613Y-31400D03*
X82787Y-31400D03*
G54D16*
X99625Y-46600D03*
X100375Y-46600D03*
X100375Y-45850D03*
X99625Y-45850D03*
G54D14*
X98500Y-44375D03*
X98500Y-45125D03*
G54D36*
X99250Y-42950D03*
X99250Y-45050D03*
X99750Y-42950D03*
X100250Y-42950D03*
X100750Y-42950D03*
X99750Y-45050D03*
X100250Y-45050D03*
X100750Y-45050D03*
G54D14*
X99000Y-41125D03*
X99000Y-41875D03*
G54D37*
X59000Y-38755D03*
G54D38*
X59750Y-37780D03*
X59250Y-37780D03*
X58750Y-37780D03*
X58250Y-37780D03*
X59750Y-39730D03*
X59250Y-39730D03*
X58750Y-39730D03*
X58250Y-39730D03*
G54D37*
X60850Y-33605D03*
G54D38*
X61600Y-32630D03*
X61100Y-32630D03*
X60600Y-32630D03*
X60100Y-32630D03*
X61600Y-34580D03*
X61100Y-34580D03*
X60600Y-34580D03*
X60100Y-34580D03*
G54D37*
X57150Y-33605D03*
G54D38*
X57900Y-32630D03*
X57400Y-32630D03*
X56900Y-32630D03*
X56400Y-32630D03*
X57900Y-34580D03*
X57400Y-34580D03*
X56900Y-34580D03*
X56400Y-34580D03*
G54D16*
X60875Y-36555D03*
X60125Y-36555D03*
G54D14*
X59400Y-35880D03*
X59400Y-36630D03*
G54D16*
X59400Y-31505D03*
X60150Y-31505D03*
X57850Y-31530D03*
X58600Y-31530D03*
G54D14*
X58500Y-30055D03*
X58500Y-30805D03*
X59500Y-33980D03*
X59500Y-33230D03*
X57150Y-30030D03*
X57150Y-30780D03*
G54D16*
X56475Y-31505D03*
X57225Y-31505D03*
G54D14*
X58600Y-35880D03*
X58600Y-36630D03*
G54D16*
X57125Y-36505D03*
X57875Y-36505D03*
G54D14*
X58500Y-33980D03*
X58500Y-33230D03*
X60150Y-30030D03*
X60150Y-30780D03*
X60400Y-39130D03*
X60400Y-38380D03*
X61500Y-30030D03*
X61500Y-30780D03*
G54D16*
X60825Y-31505D03*
X61575Y-31505D03*
G54D17*
X60913Y-35805D03*
X60087Y-35805D03*
X59475Y-30768D03*
X59475Y-29942D03*
X57825Y-30818D03*
X57825Y-29992D03*
X56500Y-30818D03*
X56500Y-29992D03*
X60850Y-30818D03*
X60850Y-29992D03*
X57087Y-35805D03*
X57913Y-35805D03*
G54D14*
X74500Y-25875D03*
X74500Y-25125D03*
X75000Y-28375D03*
X75000Y-27625D03*
X73500Y-25875D03*
X73500Y-25125D03*
X73750Y-28375D03*
X73750Y-27625D03*
G54D39*
X82120Y-75800D03*
X82435Y-75800D03*
X82750Y-75800D03*
X83064Y-75800D03*
X83379Y-75800D03*
G54D40*
X80978Y-78081D03*
X84521Y-78081D03*
X80978Y-75915D03*
X84521Y-75915D03*
G54D39*
X90370Y-75800D03*
X90685Y-75800D03*
X91000Y-75800D03*
X91314Y-75800D03*
X91629Y-75800D03*
G54D40*
X89228Y-78081D03*
X92771Y-78081D03*
X89228Y-75915D03*
X92771Y-75915D03*
G54D41*
X101959Y-65957D03*
X101959Y-65366D03*
X101959Y-64776D03*
X101959Y-66547D03*
X101959Y-67138D03*
X101959Y-67728D03*
X101959Y-68319D03*
X101959Y-68909D03*
X101959Y-69500D03*
X101959Y-70091D03*
X101959Y-70681D03*
X101959Y-71272D03*
X101959Y-71862D03*
G54D42*
X101467Y-64108D03*
G54D43*
X100875Y-64126D03*
X100285Y-64126D03*
X99695Y-64126D03*
X99105Y-64126D03*
X98515Y-64126D03*
X97925Y-64126D03*
G54D42*
X97335Y-64107D03*
G54D41*
X96841Y-64776D03*
X96841Y-65366D03*
X96841Y-65958D03*
X96841Y-66547D03*
X96841Y-67138D03*
X96841Y-67728D03*
X96841Y-68319D03*
X96841Y-68909D03*
X96841Y-69500D03*
X96841Y-70091D03*
X96841Y-70681D03*
X96841Y-71272D03*
X96841Y-71862D03*
G54D44*
X70300Y-74750D03*
X68200Y-74750D03*
X70300Y-75250D03*
X70300Y-75750D03*
X70300Y-76250D03*
X68200Y-75250D03*
X68200Y-75750D03*
X68200Y-76250D03*
G54D14*
X67250Y-75125D03*
X67250Y-75875D03*
G54D45*
X67250Y-75200D03*
X67250Y-75800D03*
G54D44*
X70300Y-67250D03*
X68200Y-67250D03*
X70300Y-67750D03*
X70300Y-68250D03*
X70300Y-68750D03*
X68200Y-67750D03*
X68200Y-68250D03*
X68200Y-68750D03*
G54D14*
X67250Y-67625D03*
X67250Y-68375D03*
G54D45*
X67250Y-67700D03*
X67250Y-68300D03*
G54D44*
X63050Y-60250D03*
X60950Y-60250D03*
X63050Y-60750D03*
X63050Y-61250D03*
X63050Y-61750D03*
X60950Y-60750D03*
X60950Y-61250D03*
X60950Y-61750D03*
G54D14*
X60000Y-60625D03*
X60000Y-61375D03*
G54D45*
X60000Y-60700D03*
X60000Y-61300D03*
G54D36*
X54000Y-56800D03*
X54000Y-54700D03*
X53500Y-56800D03*
X53000Y-56800D03*
X52500Y-56800D03*
X53500Y-54700D03*
X53000Y-54700D03*
X52500Y-54700D03*
G54D16*
X53625Y-53750D03*
X52875Y-53750D03*
G54D46*
X53550Y-53750D03*
X52950Y-53750D03*
G54D47*
X89317Y-50779D03*
X91482Y-50779D03*
X91482Y-49520D03*
X89317Y-49520D03*
G54D21*
X44750Y-43000D03*
G54D15*
X86750Y-73500D03*
G54D14*
X86750Y-74375D03*
X86750Y-73625D03*
G54D15*
X86750Y-74500D03*
G54D14*
X68750Y-37625D03*
X68750Y-36875D03*
X67750Y-34125D03*
X67750Y-34875D03*
X62000Y-42625D03*
X62000Y-41875D03*
X69000Y-34125D03*
X69000Y-34875D03*
G54D16*
X67875Y-41250D03*
X67125Y-41250D03*
G54D14*
X62000Y-40375D03*
X62000Y-39625D03*
G54D16*
X65625Y-33500D03*
X66375Y-33500D03*
X63125Y-30500D03*
X63875Y-30500D03*
X66375Y-30500D03*
X65625Y-30500D03*
X62125Y-44000D03*
X61375Y-44000D03*
X60625Y-42750D03*
X59875Y-42750D03*
X63875Y-33500D03*
X63125Y-33500D03*
X63625Y-42000D03*
X64375Y-42000D03*
G54D14*
X91750Y-71375D03*
X91750Y-72125D03*
X91750Y-72875D03*
X91750Y-73625D03*
G54D16*
X65625Y-35000D03*
X66375Y-35000D03*
X63875Y-35000D03*
X63125Y-35000D03*
X63125Y-32000D03*
X63875Y-32000D03*
X66375Y-32000D03*
X65625Y-32000D03*
M02*
