M48
;DRILL file {Pcbnew (2013-07-07 BZR 4022)-stable} date 28/12/2014 00:49:21
;FORMAT={-:-/ absolute / inch / decimal}
FMAT,2
INCH,TZ
T1C0.032
T2C0.047
T3C0.052
%
G90
G05
M72
T1
X8.125Y-6.675
X8.125Y-6.825
X8.125Y-6.9
X8.525Y-6.9
T2
X8.125Y-6.15
X8.125Y-6.25
X8.125Y-6.35
X8.125Y-6.45
X8.175Y-6.2
X8.175Y-6.3
X8.175Y-6.4
X8.225Y-6.15
X8.225Y-6.25
X8.225Y-6.35
X8.225Y-6.45
X8.275Y-6.2
X8.275Y-6.3
X8.275Y-6.4
X8.325Y-6.15
X8.325Y-6.25
X8.325Y-6.35
X8.325Y-6.45
X8.375Y-6.2
X8.375Y-6.3
X8.375Y-6.4
X8.425Y-6.15
X8.425Y-6.25
X8.425Y-6.35
X8.425Y-6.45
X8.475Y-6.2
X8.475Y-6.3
X8.475Y-6.4
X8.475Y-6.75
X8.525Y-6.15
X8.525Y-6.25
X8.525Y-6.35
X8.525Y-6.45
X8.525Y-6.7
X8.525Y-6.8
X8.575Y-6.2
X8.575Y-6.3
X8.575Y-6.4
X8.575Y-6.75
X8.575Y-6.85
X8.625Y-6.15
X8.625Y-6.25
X8.625Y-6.35
X8.625Y-6.45
X8.625Y-6.7
X8.625Y-6.9
X8.675Y-6.3
X8.675Y-6.4
X8.675Y-6.75
X8.725Y-6.35
X8.775Y-6.4
X8.775Y-6.75
T3
X8.75Y-6.471
X8.75Y-6.668
T0
M30
