G04 (created by PCBNEW (2013-07-07 BZR 4022)-stable) date 28/12/2014 00:49:19*
%MOIN*%
G04 Gerber Fmt 3.4, Leading zero omitted, Abs format*
%FSLAX34Y34*%
G01*
G70*
G90*
G04 APERTURE LIST*
%ADD10C,0.00590551*%
%ADD11C,0.011811*%
G04 APERTURE END LIST*
G54D10*
G54D11*
X81323Y-70929D02*
X81379Y-70929D01*
X81436Y-70958D01*
X81464Y-70986D01*
X81492Y-71042D01*
X81520Y-71154D01*
X81520Y-71295D01*
X81492Y-71408D01*
X81464Y-71464D01*
X81436Y-71492D01*
X81379Y-71520D01*
X81323Y-71520D01*
X81267Y-71492D01*
X81239Y-71464D01*
X81211Y-71408D01*
X81183Y-71295D01*
X81183Y-71154D01*
X81211Y-71042D01*
X81239Y-70986D01*
X81267Y-70958D01*
X81323Y-70929D01*
X81773Y-71464D02*
X81801Y-71492D01*
X81773Y-71520D01*
X81745Y-71492D01*
X81773Y-71464D01*
X81773Y-71520D01*
X82307Y-71126D02*
X82307Y-71520D01*
X82167Y-70901D02*
X82026Y-71323D01*
X82392Y-71323D01*
X82729Y-70929D02*
X82785Y-70929D01*
X82842Y-70958D01*
X82870Y-70986D01*
X82898Y-71042D01*
X82926Y-71154D01*
X82926Y-71295D01*
X82898Y-71408D01*
X82870Y-71464D01*
X82842Y-71492D01*
X82785Y-71520D01*
X82729Y-71520D01*
X82673Y-71492D01*
X82645Y-71464D01*
X82617Y-71408D01*
X82589Y-71295D01*
X82589Y-71154D01*
X82617Y-71042D01*
X82645Y-70986D01*
X82673Y-70958D01*
X82729Y-70929D01*
X83292Y-70929D02*
X83348Y-70929D01*
X83404Y-70958D01*
X83432Y-70986D01*
X83460Y-71042D01*
X83489Y-71154D01*
X83489Y-71295D01*
X83460Y-71408D01*
X83432Y-71464D01*
X83404Y-71492D01*
X83348Y-71520D01*
X83292Y-71520D01*
X83235Y-71492D01*
X83207Y-71464D01*
X83179Y-71408D01*
X83151Y-71295D01*
X83151Y-71154D01*
X83179Y-71042D01*
X83207Y-70986D01*
X83235Y-70958D01*
X83292Y-70929D01*
X83854Y-70929D02*
X83910Y-70929D01*
X83967Y-70958D01*
X83995Y-70986D01*
X84023Y-71042D01*
X84051Y-71154D01*
X84051Y-71295D01*
X84023Y-71408D01*
X83995Y-71464D01*
X83967Y-71492D01*
X83910Y-71520D01*
X83854Y-71520D01*
X83798Y-71492D01*
X83770Y-71464D01*
X83742Y-71408D01*
X83714Y-71295D01*
X83714Y-71154D01*
X83742Y-71042D01*
X83770Y-70986D01*
X83798Y-70958D01*
X83854Y-70929D01*
X84754Y-71520D02*
X84754Y-71126D01*
X84754Y-70929D02*
X84726Y-70958D01*
X84754Y-70986D01*
X84782Y-70958D01*
X84754Y-70929D01*
X84754Y-70986D01*
X85035Y-71126D02*
X85035Y-71520D01*
X85035Y-71183D02*
X85063Y-71154D01*
X85120Y-71126D01*
X85204Y-71126D01*
X85260Y-71154D01*
X85288Y-71211D01*
X85288Y-71520D01*
X81250Y-70749D02*
X85250Y-70749D01*
X81250Y-69500D02*
X81250Y-71812D01*
X85250Y-69500D02*
X85250Y-71812D01*
X85250Y-70749D02*
X84806Y-70980D01*
X85250Y-70749D02*
X84806Y-70519D01*
X81250Y-70749D02*
X81693Y-70980D01*
X81250Y-70749D02*
X81693Y-70519D01*
X76673Y-67696D02*
X76645Y-67668D01*
X76616Y-67612D01*
X76616Y-67471D01*
X76645Y-67415D01*
X76673Y-67387D01*
X76729Y-67359D01*
X76785Y-67359D01*
X76870Y-67387D01*
X77207Y-67724D01*
X77207Y-67359D01*
X77207Y-66796D02*
X77207Y-67134D01*
X77207Y-66965D02*
X76616Y-66965D01*
X76701Y-67021D01*
X76757Y-67077D01*
X76785Y-67134D01*
X77151Y-66543D02*
X77179Y-66515D01*
X77207Y-66543D01*
X77179Y-66571D01*
X77151Y-66543D01*
X77207Y-66543D01*
X76616Y-65981D02*
X76616Y-66262D01*
X76898Y-66290D01*
X76870Y-66262D01*
X76841Y-66206D01*
X76841Y-66065D01*
X76870Y-66009D01*
X76898Y-65981D01*
X76954Y-65953D01*
X77095Y-65953D01*
X77151Y-65981D01*
X77179Y-66009D01*
X77207Y-66065D01*
X77207Y-66206D01*
X77179Y-66262D01*
X77151Y-66290D01*
X77207Y-65671D02*
X77207Y-65559D01*
X77179Y-65503D01*
X77151Y-65474D01*
X77066Y-65418D01*
X76954Y-65390D01*
X76729Y-65390D01*
X76673Y-65418D01*
X76645Y-65446D01*
X76616Y-65503D01*
X76616Y-65615D01*
X76645Y-65671D01*
X76673Y-65699D01*
X76729Y-65728D01*
X76870Y-65728D01*
X76926Y-65699D01*
X76954Y-65671D01*
X76982Y-65615D01*
X76982Y-65503D01*
X76954Y-65446D01*
X76926Y-65418D01*
X76870Y-65390D01*
X76616Y-65025D02*
X76616Y-64968D01*
X76645Y-64912D01*
X76673Y-64884D01*
X76729Y-64856D01*
X76841Y-64828D01*
X76982Y-64828D01*
X77095Y-64856D01*
X77151Y-64884D01*
X77179Y-64912D01*
X77207Y-64968D01*
X77207Y-65025D01*
X77179Y-65081D01*
X77151Y-65109D01*
X77095Y-65137D01*
X76982Y-65165D01*
X76841Y-65165D01*
X76729Y-65137D01*
X76673Y-65109D01*
X76645Y-65081D01*
X76616Y-65025D01*
X77207Y-64125D02*
X76813Y-64125D01*
X76870Y-64125D02*
X76841Y-64097D01*
X76813Y-64040D01*
X76813Y-63956D01*
X76841Y-63900D01*
X76898Y-63872D01*
X77207Y-63872D01*
X76898Y-63872D02*
X76841Y-63843D01*
X76813Y-63787D01*
X76813Y-63703D01*
X76841Y-63647D01*
X76898Y-63618D01*
X77207Y-63618D01*
X77207Y-63337D02*
X76813Y-63337D01*
X76870Y-63337D02*
X76841Y-63309D01*
X76813Y-63253D01*
X76813Y-63169D01*
X76841Y-63112D01*
X76898Y-63084D01*
X77207Y-63084D01*
X76898Y-63084D02*
X76841Y-63056D01*
X76813Y-63000D01*
X76813Y-62915D01*
X76841Y-62859D01*
X76898Y-62831D01*
X77207Y-62831D01*
X77500Y-69500D02*
X77500Y-61000D01*
X80500Y-69500D02*
X76437Y-69500D01*
X80500Y-61000D02*
X76437Y-61000D01*
X77500Y-61000D02*
X77730Y-61443D01*
X77500Y-61000D02*
X77269Y-61443D01*
X77500Y-69500D02*
X77730Y-69056D01*
X77500Y-69500D02*
X77269Y-69056D01*
X82515Y-58207D02*
X82178Y-58207D01*
X82347Y-58207D02*
X82347Y-57616D01*
X82290Y-57701D01*
X82234Y-57757D01*
X82178Y-57785D01*
X82797Y-58207D02*
X82909Y-58207D01*
X82965Y-58179D01*
X82993Y-58151D01*
X83050Y-58066D01*
X83078Y-57954D01*
X83078Y-57729D01*
X83050Y-57673D01*
X83022Y-57645D01*
X82965Y-57616D01*
X82853Y-57616D01*
X82797Y-57645D01*
X82768Y-57673D01*
X82740Y-57729D01*
X82740Y-57870D01*
X82768Y-57926D01*
X82797Y-57954D01*
X82853Y-57982D01*
X82965Y-57982D01*
X83022Y-57954D01*
X83050Y-57926D01*
X83078Y-57870D01*
X83331Y-58151D02*
X83359Y-58179D01*
X83331Y-58207D01*
X83303Y-58179D01*
X83331Y-58151D01*
X83331Y-58207D01*
X83865Y-57616D02*
X83753Y-57616D01*
X83696Y-57645D01*
X83668Y-57673D01*
X83612Y-57757D01*
X83584Y-57870D01*
X83584Y-58095D01*
X83612Y-58151D01*
X83640Y-58179D01*
X83696Y-58207D01*
X83809Y-58207D01*
X83865Y-58179D01*
X83893Y-58151D01*
X83921Y-58095D01*
X83921Y-57954D01*
X83893Y-57898D01*
X83865Y-57870D01*
X83809Y-57841D01*
X83696Y-57841D01*
X83640Y-57870D01*
X83612Y-57898D01*
X83584Y-57954D01*
X84259Y-57870D02*
X84203Y-57841D01*
X84175Y-57813D01*
X84146Y-57757D01*
X84146Y-57729D01*
X84175Y-57673D01*
X84203Y-57645D01*
X84259Y-57616D01*
X84371Y-57616D01*
X84428Y-57645D01*
X84456Y-57673D01*
X84484Y-57729D01*
X84484Y-57757D01*
X84456Y-57813D01*
X84428Y-57841D01*
X84371Y-57870D01*
X84259Y-57870D01*
X84203Y-57898D01*
X84175Y-57926D01*
X84146Y-57982D01*
X84146Y-58095D01*
X84175Y-58151D01*
X84203Y-58179D01*
X84259Y-58207D01*
X84371Y-58207D01*
X84428Y-58179D01*
X84456Y-58151D01*
X84484Y-58095D01*
X84484Y-57982D01*
X84456Y-57926D01*
X84428Y-57898D01*
X84371Y-57870D01*
X85018Y-57616D02*
X84737Y-57616D01*
X84709Y-57898D01*
X84737Y-57870D01*
X84793Y-57841D01*
X84934Y-57841D01*
X84990Y-57870D01*
X85018Y-57898D01*
X85046Y-57954D01*
X85046Y-58095D01*
X85018Y-58151D01*
X84990Y-58179D01*
X84934Y-58207D01*
X84793Y-58207D01*
X84737Y-58179D01*
X84709Y-58151D01*
X85749Y-58207D02*
X85749Y-57813D01*
X85749Y-57870D02*
X85777Y-57841D01*
X85834Y-57813D01*
X85918Y-57813D01*
X85974Y-57841D01*
X86002Y-57898D01*
X86002Y-58207D01*
X86002Y-57898D02*
X86031Y-57841D01*
X86087Y-57813D01*
X86171Y-57813D01*
X86227Y-57841D01*
X86256Y-57898D01*
X86256Y-58207D01*
X86537Y-58207D02*
X86537Y-57813D01*
X86537Y-57870D02*
X86565Y-57841D01*
X86621Y-57813D01*
X86705Y-57813D01*
X86762Y-57841D01*
X86790Y-57898D01*
X86790Y-58207D01*
X86790Y-57898D02*
X86818Y-57841D01*
X86874Y-57813D01*
X86959Y-57813D01*
X87015Y-57841D01*
X87043Y-57898D01*
X87043Y-58207D01*
X80750Y-58500D02*
X88500Y-58500D01*
X80750Y-60750D02*
X80750Y-57437D01*
X88500Y-60750D02*
X88500Y-57437D01*
X88500Y-58500D02*
X88056Y-58730D01*
X88500Y-58500D02*
X88056Y-58269D01*
X80750Y-58500D02*
X81193Y-58730D01*
X80750Y-58500D02*
X81193Y-58269D01*
X82698Y-58866D02*
X82754Y-58866D01*
X82811Y-58895D01*
X82839Y-58923D01*
X82867Y-58979D01*
X82895Y-59091D01*
X82895Y-59232D01*
X82867Y-59345D01*
X82839Y-59401D01*
X82811Y-59429D01*
X82754Y-59457D01*
X82698Y-59457D01*
X82642Y-59429D01*
X82614Y-59401D01*
X82586Y-59345D01*
X82558Y-59232D01*
X82558Y-59091D01*
X82586Y-58979D01*
X82614Y-58923D01*
X82642Y-58895D01*
X82698Y-58866D01*
X83148Y-59401D02*
X83176Y-59429D01*
X83148Y-59457D01*
X83120Y-59429D01*
X83148Y-59401D01*
X83148Y-59457D01*
X83373Y-58866D02*
X83767Y-58866D01*
X83514Y-59457D01*
X83936Y-58866D02*
X84329Y-58866D01*
X84076Y-59457D01*
X84835Y-58866D02*
X84554Y-58866D01*
X84526Y-59148D01*
X84554Y-59120D01*
X84610Y-59091D01*
X84751Y-59091D01*
X84807Y-59120D01*
X84835Y-59148D01*
X84864Y-59204D01*
X84864Y-59345D01*
X84835Y-59401D01*
X84807Y-59429D01*
X84751Y-59457D01*
X84610Y-59457D01*
X84554Y-59429D01*
X84526Y-59401D01*
X85229Y-58866D02*
X85285Y-58866D01*
X85342Y-58895D01*
X85370Y-58923D01*
X85398Y-58979D01*
X85426Y-59091D01*
X85426Y-59232D01*
X85398Y-59345D01*
X85370Y-59401D01*
X85342Y-59429D01*
X85285Y-59457D01*
X85229Y-59457D01*
X85173Y-59429D01*
X85145Y-59401D01*
X85117Y-59345D01*
X85089Y-59232D01*
X85089Y-59091D01*
X85117Y-58979D01*
X85145Y-58923D01*
X85173Y-58895D01*
X85229Y-58866D01*
X86129Y-59457D02*
X86129Y-59063D01*
X86129Y-58866D02*
X86101Y-58895D01*
X86129Y-58923D01*
X86157Y-58895D01*
X86129Y-58866D01*
X86129Y-58923D01*
X86410Y-59063D02*
X86410Y-59457D01*
X86410Y-59120D02*
X86438Y-59091D01*
X86495Y-59063D01*
X86579Y-59063D01*
X86635Y-59091D01*
X86663Y-59148D01*
X86663Y-59457D01*
X80750Y-59750D02*
X88500Y-59750D01*
X80750Y-60750D02*
X80750Y-58687D01*
X88500Y-60750D02*
X88500Y-58687D01*
X88500Y-59750D02*
X88056Y-59980D01*
X88500Y-59750D02*
X88056Y-59519D01*
X80750Y-59750D02*
X81193Y-59980D01*
X80750Y-59750D02*
X81193Y-59519D01*
X78116Y-67176D02*
X78116Y-67120D01*
X78145Y-67063D01*
X78173Y-67035D01*
X78229Y-67007D01*
X78341Y-66979D01*
X78482Y-66979D01*
X78595Y-67007D01*
X78651Y-67035D01*
X78679Y-67063D01*
X78707Y-67120D01*
X78707Y-67176D01*
X78679Y-67232D01*
X78651Y-67260D01*
X78595Y-67288D01*
X78482Y-67316D01*
X78341Y-67316D01*
X78229Y-67288D01*
X78173Y-67260D01*
X78145Y-67232D01*
X78116Y-67176D01*
X78651Y-66726D02*
X78679Y-66698D01*
X78707Y-66726D01*
X78679Y-66754D01*
X78651Y-66726D01*
X78707Y-66726D01*
X78370Y-66360D02*
X78341Y-66417D01*
X78313Y-66445D01*
X78257Y-66473D01*
X78229Y-66473D01*
X78173Y-66445D01*
X78145Y-66417D01*
X78116Y-66360D01*
X78116Y-66248D01*
X78145Y-66192D01*
X78173Y-66163D01*
X78229Y-66135D01*
X78257Y-66135D01*
X78313Y-66163D01*
X78341Y-66192D01*
X78370Y-66248D01*
X78370Y-66360D01*
X78398Y-66417D01*
X78426Y-66445D01*
X78482Y-66473D01*
X78595Y-66473D01*
X78651Y-66445D01*
X78679Y-66417D01*
X78707Y-66360D01*
X78707Y-66248D01*
X78679Y-66192D01*
X78651Y-66163D01*
X78595Y-66135D01*
X78482Y-66135D01*
X78426Y-66163D01*
X78398Y-66192D01*
X78370Y-66248D01*
X78116Y-65601D02*
X78116Y-65882D01*
X78398Y-65910D01*
X78370Y-65882D01*
X78341Y-65826D01*
X78341Y-65685D01*
X78370Y-65629D01*
X78398Y-65601D01*
X78454Y-65573D01*
X78595Y-65573D01*
X78651Y-65601D01*
X78679Y-65629D01*
X78707Y-65685D01*
X78707Y-65826D01*
X78679Y-65882D01*
X78651Y-65910D01*
X78116Y-65207D02*
X78116Y-65151D01*
X78145Y-65095D01*
X78173Y-65067D01*
X78229Y-65039D01*
X78341Y-65010D01*
X78482Y-65010D01*
X78595Y-65039D01*
X78651Y-65067D01*
X78679Y-65095D01*
X78707Y-65151D01*
X78707Y-65207D01*
X78679Y-65264D01*
X78651Y-65292D01*
X78595Y-65320D01*
X78482Y-65348D01*
X78341Y-65348D01*
X78229Y-65320D01*
X78173Y-65292D01*
X78145Y-65264D01*
X78116Y-65207D01*
X78116Y-64645D02*
X78116Y-64589D01*
X78145Y-64532D01*
X78173Y-64504D01*
X78229Y-64476D01*
X78341Y-64448D01*
X78482Y-64448D01*
X78595Y-64476D01*
X78651Y-64504D01*
X78679Y-64532D01*
X78707Y-64589D01*
X78707Y-64645D01*
X78679Y-64701D01*
X78651Y-64729D01*
X78595Y-64757D01*
X78482Y-64785D01*
X78341Y-64785D01*
X78229Y-64757D01*
X78173Y-64729D01*
X78145Y-64701D01*
X78116Y-64645D01*
X78707Y-63745D02*
X78313Y-63745D01*
X78116Y-63745D02*
X78145Y-63773D01*
X78173Y-63745D01*
X78145Y-63717D01*
X78116Y-63745D01*
X78173Y-63745D01*
X78313Y-63464D02*
X78707Y-63464D01*
X78370Y-63464D02*
X78341Y-63436D01*
X78313Y-63379D01*
X78313Y-63295D01*
X78341Y-63239D01*
X78398Y-63211D01*
X78707Y-63211D01*
X79000Y-69500D02*
X79000Y-61000D01*
X80500Y-69500D02*
X77937Y-69500D01*
X80500Y-61000D02*
X77937Y-61000D01*
X79000Y-61000D02*
X79230Y-61443D01*
X79000Y-61000D02*
X78769Y-61443D01*
X79000Y-69500D02*
X79230Y-69056D01*
X79000Y-69500D02*
X78769Y-69056D01*
M02*
