G04 (created by PCBNEW (2013-07-07 BZR 4022)-stable) date 28/12/2014 00:49:19*
%MOIN*%
G04 Gerber Fmt 3.4, Leading zero omitted, Abs format*
%FSLAX34Y34*%
G01*
G70*
G90*
G04 APERTURE LIST*
%ADD10C,0.00590551*%
%ADD11C,0.06*%
%ADD12O,0.156X0.078*%
%ADD13R,0.055X0.055*%
%ADD14C,0.0607*%
%ADD15C,0.012*%
%ADD16C,0.01*%
G04 APERTURE END LIST*
G54D10*
G54D11*
X81250Y-66750D03*
X81250Y-68250D03*
G54D12*
X87500Y-64710D03*
X87500Y-66680D03*
G54D13*
X85250Y-69000D03*
X81250Y-69000D03*
G54D14*
X86250Y-69000D03*
X85750Y-68500D03*
X85250Y-68000D03*
X84750Y-67500D03*
X85250Y-67000D03*
X85750Y-67500D03*
X86250Y-67000D03*
X86750Y-67500D03*
X87750Y-67500D03*
X81250Y-61500D03*
X82250Y-61500D03*
X83250Y-61500D03*
X84250Y-61500D03*
X85250Y-61500D03*
X86250Y-61500D03*
X85750Y-62000D03*
X86250Y-62500D03*
X84750Y-62000D03*
X83750Y-62000D03*
X82750Y-62000D03*
X81750Y-62000D03*
X81250Y-62500D03*
X82250Y-62500D03*
X83250Y-62500D03*
X84250Y-62500D03*
X85250Y-62500D03*
X86750Y-63000D03*
X87250Y-63500D03*
X87750Y-64000D03*
X86750Y-64000D03*
X86250Y-63500D03*
X85750Y-63000D03*
X85250Y-63500D03*
X84750Y-63000D03*
X84250Y-63500D03*
X83750Y-63000D03*
X83250Y-63500D03*
X82750Y-63000D03*
X82250Y-63500D03*
X81750Y-63000D03*
X81250Y-63500D03*
X81250Y-64500D03*
X81750Y-64000D03*
X82250Y-64500D03*
X82750Y-64000D03*
X83250Y-64500D03*
X83750Y-64000D03*
X84250Y-64500D03*
X84750Y-64000D03*
X85250Y-64500D03*
X85750Y-64000D03*
X86250Y-64500D03*
G54D15*
X87500Y-66680D02*
X86570Y-66680D01*
X85750Y-68500D02*
X86250Y-69000D01*
X84750Y-67500D02*
X85250Y-68000D01*
X85750Y-67500D02*
X85250Y-67000D01*
X86570Y-66680D02*
X86250Y-67000D01*
X85750Y-62000D02*
X86250Y-61500D01*
X82250Y-61500D02*
X81250Y-61500D01*
X84250Y-61500D02*
X83250Y-61500D01*
X86250Y-61500D02*
X85250Y-61500D01*
X85750Y-62000D02*
X86250Y-62500D01*
X86750Y-63000D02*
X86250Y-62500D01*
X84750Y-62000D02*
X85750Y-62000D01*
X82750Y-62000D02*
X83750Y-62000D01*
X81250Y-62500D02*
X81750Y-62000D01*
X83250Y-62500D02*
X82250Y-62500D01*
X85250Y-62500D02*
X84250Y-62500D01*
X87250Y-63500D02*
X86750Y-63000D01*
X86750Y-64000D02*
X87250Y-63500D01*
X85750Y-63000D02*
X86250Y-63500D01*
X84750Y-63000D02*
X85250Y-63500D01*
X83750Y-63000D02*
X84250Y-63500D01*
X82750Y-63000D02*
X83250Y-63500D01*
X81750Y-63000D02*
X82250Y-63500D01*
X81250Y-64500D02*
X81250Y-63500D01*
X82250Y-64500D02*
X81750Y-64000D01*
X83250Y-64500D02*
X82750Y-64000D01*
X84250Y-64500D02*
X83750Y-64000D01*
X85250Y-64500D02*
X84750Y-64000D01*
X86250Y-64500D02*
X85750Y-64000D01*
G54D10*
G36*
X88330Y-64378D02*
X88266Y-64305D01*
X88266Y-62032D01*
X88266Y-62000D01*
X88266Y-61967D01*
X88266Y-61966D01*
X88266Y-61966D01*
X88220Y-61737D01*
X88195Y-61675D01*
X88194Y-61675D01*
X88065Y-61482D01*
X88065Y-61481D01*
X88018Y-61434D01*
X87823Y-61304D01*
X87762Y-61279D01*
X87761Y-61279D01*
X87533Y-61233D01*
X87532Y-61233D01*
X87466Y-61233D01*
X87237Y-61279D01*
X87175Y-61304D01*
X87175Y-61305D01*
X86982Y-61434D01*
X86981Y-61434D01*
X86934Y-61481D01*
X86804Y-61676D01*
X86779Y-61737D01*
X86779Y-61738D01*
X86733Y-61966D01*
X86733Y-61966D01*
X86733Y-61967D01*
X86733Y-62000D01*
X86733Y-62032D01*
X86733Y-62033D01*
X86733Y-62033D01*
X86779Y-62261D01*
X86779Y-62262D01*
X86804Y-62323D01*
X86934Y-62518D01*
X86981Y-62565D01*
X86982Y-62565D01*
X87175Y-62694D01*
X87175Y-62695D01*
X87237Y-62720D01*
X87466Y-62766D01*
X87532Y-62766D01*
X87533Y-62766D01*
X87761Y-62720D01*
X87762Y-62720D01*
X87823Y-62695D01*
X88018Y-62565D01*
X88065Y-62518D01*
X88065Y-62517D01*
X88194Y-62324D01*
X88195Y-62324D01*
X88220Y-62262D01*
X88266Y-62033D01*
X88266Y-62033D01*
X88266Y-62032D01*
X88266Y-64305D01*
X88235Y-64268D01*
X88040Y-64170D01*
X87650Y-64170D01*
X87650Y-64560D01*
X87657Y-64560D01*
X87657Y-64860D01*
X87650Y-64860D01*
X87650Y-64867D01*
X87350Y-64867D01*
X87350Y-64860D01*
X87350Y-64560D01*
X87350Y-64170D01*
X86960Y-64170D01*
X86764Y-64268D01*
X86622Y-64434D01*
X86621Y-64480D01*
X86630Y-64560D01*
X87350Y-64560D01*
X87350Y-64860D01*
X86630Y-64860D01*
X86621Y-64939D01*
X86621Y-64950D01*
X80919Y-64950D01*
X80919Y-61169D01*
X88330Y-61169D01*
X88330Y-64378D01*
X88330Y-64378D01*
G37*
G54D16*
X88330Y-64378D02*
X88266Y-64305D01*
X88266Y-62032D01*
X88266Y-62000D01*
X88266Y-61967D01*
X88266Y-61966D01*
X88266Y-61966D01*
X88220Y-61737D01*
X88195Y-61675D01*
X88194Y-61675D01*
X88065Y-61482D01*
X88065Y-61481D01*
X88018Y-61434D01*
X87823Y-61304D01*
X87762Y-61279D01*
X87761Y-61279D01*
X87533Y-61233D01*
X87532Y-61233D01*
X87466Y-61233D01*
X87237Y-61279D01*
X87175Y-61304D01*
X87175Y-61305D01*
X86982Y-61434D01*
X86981Y-61434D01*
X86934Y-61481D01*
X86804Y-61676D01*
X86779Y-61737D01*
X86779Y-61738D01*
X86733Y-61966D01*
X86733Y-61966D01*
X86733Y-61967D01*
X86733Y-62000D01*
X86733Y-62032D01*
X86733Y-62033D01*
X86733Y-62033D01*
X86779Y-62261D01*
X86779Y-62262D01*
X86804Y-62323D01*
X86934Y-62518D01*
X86981Y-62565D01*
X86982Y-62565D01*
X87175Y-62694D01*
X87175Y-62695D01*
X87237Y-62720D01*
X87466Y-62766D01*
X87532Y-62766D01*
X87533Y-62766D01*
X87761Y-62720D01*
X87762Y-62720D01*
X87823Y-62695D01*
X88018Y-62565D01*
X88065Y-62518D01*
X88065Y-62517D01*
X88194Y-62324D01*
X88195Y-62324D01*
X88220Y-62262D01*
X88266Y-62033D01*
X88266Y-62033D01*
X88266Y-62032D01*
X88266Y-64305D01*
X88235Y-64268D01*
X88040Y-64170D01*
X87650Y-64170D01*
X87650Y-64560D01*
X87657Y-64560D01*
X87657Y-64860D01*
X87650Y-64860D01*
X87650Y-64867D01*
X87350Y-64867D01*
X87350Y-64860D01*
X87350Y-64560D01*
X87350Y-64170D01*
X86960Y-64170D01*
X86764Y-64268D01*
X86622Y-64434D01*
X86621Y-64480D01*
X86630Y-64560D01*
X87350Y-64560D01*
X87350Y-64860D01*
X86630Y-64860D01*
X86621Y-64939D01*
X86621Y-64950D01*
X80919Y-64950D01*
X80919Y-61169D01*
X88330Y-61169D01*
X88330Y-64378D01*
G54D10*
G36*
X88330Y-69330D02*
X87996Y-69330D01*
X88018Y-69315D01*
X88065Y-69268D01*
X88065Y-69267D01*
X88194Y-69074D01*
X88195Y-69074D01*
X88220Y-69012D01*
X88266Y-68783D01*
X88266Y-68783D01*
X88266Y-68782D01*
X88266Y-68750D01*
X88266Y-68717D01*
X88266Y-68716D01*
X88266Y-68716D01*
X88220Y-68487D01*
X88195Y-68425D01*
X88194Y-68425D01*
X88065Y-68232D01*
X88065Y-68231D01*
X88018Y-68184D01*
X87823Y-68054D01*
X87762Y-68029D01*
X87761Y-68029D01*
X87533Y-67983D01*
X87532Y-67983D01*
X87466Y-67983D01*
X87350Y-68006D01*
X87350Y-67220D01*
X87350Y-66830D01*
X86630Y-66830D01*
X86621Y-66909D01*
X86622Y-66955D01*
X86764Y-67121D01*
X86960Y-67220D01*
X87350Y-67220D01*
X87350Y-68006D01*
X87237Y-68029D01*
X87175Y-68054D01*
X87175Y-68055D01*
X86982Y-68184D01*
X86981Y-68184D01*
X86934Y-68231D01*
X86804Y-68426D01*
X86779Y-68487D01*
X86779Y-68488D01*
X86733Y-68716D01*
X86733Y-68716D01*
X86733Y-68717D01*
X86733Y-68750D01*
X86733Y-68782D01*
X86733Y-68783D01*
X86733Y-68783D01*
X86779Y-69011D01*
X86779Y-69012D01*
X86804Y-69073D01*
X86934Y-69268D01*
X86981Y-69315D01*
X86982Y-69315D01*
X87003Y-69330D01*
X85664Y-69330D01*
X85674Y-69304D01*
X85675Y-69245D01*
X85675Y-68754D01*
X85674Y-68695D01*
X85652Y-68639D01*
X85609Y-68597D01*
X85554Y-68574D01*
X85425Y-68575D01*
X85387Y-68612D01*
X85387Y-68862D01*
X85637Y-68862D01*
X85675Y-68825D01*
X85675Y-68754D01*
X85675Y-69245D01*
X85675Y-69175D01*
X85637Y-69137D01*
X85387Y-69137D01*
X85387Y-69157D01*
X85112Y-69157D01*
X85112Y-69137D01*
X85112Y-68862D01*
X85112Y-68612D01*
X85075Y-68575D01*
X84945Y-68574D01*
X84890Y-68597D01*
X84847Y-68639D01*
X84825Y-68695D01*
X84824Y-68754D01*
X84825Y-68825D01*
X84862Y-68862D01*
X85112Y-68862D01*
X85112Y-69137D01*
X84862Y-69137D01*
X84825Y-69175D01*
X84824Y-69245D01*
X84825Y-69304D01*
X84835Y-69330D01*
X83800Y-69330D01*
X83800Y-66804D01*
X83819Y-66704D01*
X83873Y-66623D01*
X83954Y-66569D01*
X84054Y-66550D01*
X87657Y-66550D01*
X87657Y-66830D01*
X87650Y-66830D01*
X87650Y-67220D01*
X88040Y-67220D01*
X88235Y-67121D01*
X88330Y-67011D01*
X88330Y-69330D01*
X88330Y-69330D01*
G37*
G54D16*
X88330Y-69330D02*
X87996Y-69330D01*
X88018Y-69315D01*
X88065Y-69268D01*
X88065Y-69267D01*
X88194Y-69074D01*
X88195Y-69074D01*
X88220Y-69012D01*
X88266Y-68783D01*
X88266Y-68783D01*
X88266Y-68782D01*
X88266Y-68750D01*
X88266Y-68717D01*
X88266Y-68716D01*
X88266Y-68716D01*
X88220Y-68487D01*
X88195Y-68425D01*
X88194Y-68425D01*
X88065Y-68232D01*
X88065Y-68231D01*
X88018Y-68184D01*
X87823Y-68054D01*
X87762Y-68029D01*
X87761Y-68029D01*
X87533Y-67983D01*
X87532Y-67983D01*
X87466Y-67983D01*
X87350Y-68006D01*
X87350Y-67220D01*
X87350Y-66830D01*
X86630Y-66830D01*
X86621Y-66909D01*
X86622Y-66955D01*
X86764Y-67121D01*
X86960Y-67220D01*
X87350Y-67220D01*
X87350Y-68006D01*
X87237Y-68029D01*
X87175Y-68054D01*
X87175Y-68055D01*
X86982Y-68184D01*
X86981Y-68184D01*
X86934Y-68231D01*
X86804Y-68426D01*
X86779Y-68487D01*
X86779Y-68488D01*
X86733Y-68716D01*
X86733Y-68716D01*
X86733Y-68717D01*
X86733Y-68750D01*
X86733Y-68782D01*
X86733Y-68783D01*
X86733Y-68783D01*
X86779Y-69011D01*
X86779Y-69012D01*
X86804Y-69073D01*
X86934Y-69268D01*
X86981Y-69315D01*
X86982Y-69315D01*
X87003Y-69330D01*
X85664Y-69330D01*
X85674Y-69304D01*
X85675Y-69245D01*
X85675Y-68754D01*
X85674Y-68695D01*
X85652Y-68639D01*
X85609Y-68597D01*
X85554Y-68574D01*
X85425Y-68575D01*
X85387Y-68612D01*
X85387Y-68862D01*
X85637Y-68862D01*
X85675Y-68825D01*
X85675Y-68754D01*
X85675Y-69245D01*
X85675Y-69175D01*
X85637Y-69137D01*
X85387Y-69137D01*
X85387Y-69157D01*
X85112Y-69157D01*
X85112Y-69137D01*
X85112Y-68862D01*
X85112Y-68612D01*
X85075Y-68575D01*
X84945Y-68574D01*
X84890Y-68597D01*
X84847Y-68639D01*
X84825Y-68695D01*
X84824Y-68754D01*
X84825Y-68825D01*
X84862Y-68862D01*
X85112Y-68862D01*
X85112Y-69137D01*
X84862Y-69137D01*
X84825Y-69175D01*
X84824Y-69245D01*
X84825Y-69304D01*
X84835Y-69330D01*
X83800Y-69330D01*
X83800Y-66804D01*
X83819Y-66704D01*
X83873Y-66623D01*
X83954Y-66569D01*
X84054Y-66550D01*
X87657Y-66550D01*
X87657Y-66830D01*
X87650Y-66830D01*
X87650Y-67220D01*
X88040Y-67220D01*
X88235Y-67121D01*
X88330Y-67011D01*
X88330Y-69330D01*
M02*
