G04 (created by PCBNEW (2013-07-07 BZR 4022)-stable) date 05/01/2015 10:26:05*
%MOIN*%
G04 Gerber Fmt 3.4, Leading zero omitted, Abs format*
%FSLAX34Y34*%
G01*
G70*
G90*
G04 APERTURE LIST*
%ADD10C,0.00590551*%
%ADD11C,0.005*%
%ADD12C,0.0039*%
%ADD13C,0.012*%
%ADD14C,0.0047*%
%ADD15C,0.0043*%
%ADD16C,0.008*%
G04 APERTURE END LIST*
G54D10*
G54D11*
X94000Y-57500D02*
X94000Y-57420D01*
X94750Y-56900D02*
X94750Y-58700D01*
X94750Y-58700D02*
X94500Y-58700D01*
X93250Y-58060D02*
X94750Y-58060D01*
X93250Y-58190D02*
X94750Y-58190D01*
X93500Y-56900D02*
X93250Y-56900D01*
X93250Y-56900D02*
X93250Y-58700D01*
X93250Y-58700D02*
X93500Y-58700D01*
X94500Y-56900D02*
X94750Y-56900D01*
X94000Y-57750D02*
X94187Y-57500D01*
X94187Y-57500D02*
X94000Y-57500D01*
X94000Y-57500D02*
X93813Y-57500D01*
X93813Y-57500D02*
X94000Y-57750D01*
X94000Y-57750D02*
X94125Y-57750D01*
X94125Y-57750D02*
X94187Y-57688D01*
X94000Y-57750D02*
X93875Y-57750D01*
X93875Y-57750D02*
X93813Y-57812D01*
X94000Y-57750D02*
X94000Y-58187D01*
X94000Y-60800D02*
X94000Y-60880D01*
X93250Y-61400D02*
X93250Y-59600D01*
X93250Y-59600D02*
X93500Y-59600D01*
X94750Y-60240D02*
X93250Y-60240D01*
X94750Y-60110D02*
X93250Y-60110D01*
X94500Y-61400D02*
X94750Y-61400D01*
X94750Y-61400D02*
X94750Y-59600D01*
X94750Y-59600D02*
X94500Y-59600D01*
X93500Y-61400D02*
X93250Y-61400D01*
X94000Y-60550D02*
X93813Y-60800D01*
X93813Y-60800D02*
X94000Y-60800D01*
X94000Y-60800D02*
X94187Y-60800D01*
X94187Y-60800D02*
X94000Y-60550D01*
X94000Y-60550D02*
X93875Y-60550D01*
X93875Y-60550D02*
X93813Y-60612D01*
X94000Y-60550D02*
X94125Y-60550D01*
X94125Y-60550D02*
X94187Y-60488D01*
X94000Y-60550D02*
X94000Y-60113D01*
X90000Y-56050D02*
X89920Y-56050D01*
X89400Y-55300D02*
X91200Y-55300D01*
X91200Y-55300D02*
X91200Y-55550D01*
X90560Y-56800D02*
X90560Y-55300D01*
X90690Y-56800D02*
X90690Y-55300D01*
X89400Y-56550D02*
X89400Y-56800D01*
X89400Y-56800D02*
X91200Y-56800D01*
X91200Y-56800D02*
X91200Y-56550D01*
X89400Y-55550D02*
X89400Y-55300D01*
X90250Y-56050D02*
X90000Y-55863D01*
X90000Y-55863D02*
X90000Y-56050D01*
X90000Y-56050D02*
X90000Y-56237D01*
X90000Y-56237D02*
X90250Y-56050D01*
X90250Y-56050D02*
X90250Y-55925D01*
X90250Y-55925D02*
X90188Y-55863D01*
X90250Y-56050D02*
X90250Y-56175D01*
X90250Y-56175D02*
X90312Y-56237D01*
X90250Y-56050D02*
X90687Y-56050D01*
G54D12*
X85900Y-56800D02*
G75*
G03X85900Y-56800I-50J0D01*
G74*
G01*
X86300Y-56800D02*
X85900Y-56800D01*
X85900Y-56800D02*
X85900Y-56200D01*
X85900Y-56200D02*
X86300Y-56200D01*
X86700Y-56200D02*
X87100Y-56200D01*
X87100Y-56200D02*
X87100Y-56800D01*
X87100Y-56800D02*
X86700Y-56800D01*
X87100Y-59650D02*
G75*
G03X87100Y-59650I-50J0D01*
G74*
G01*
X87050Y-59200D02*
X87050Y-59600D01*
X87050Y-59600D02*
X86450Y-59600D01*
X86450Y-59600D02*
X86450Y-59200D01*
X86450Y-58800D02*
X86450Y-58400D01*
X86450Y-58400D02*
X87050Y-58400D01*
X87050Y-58400D02*
X87050Y-58800D01*
X85150Y-58800D02*
G75*
G03X85150Y-58800I-50J0D01*
G74*
G01*
X85550Y-58800D02*
X85150Y-58800D01*
X85150Y-58800D02*
X85150Y-58200D01*
X85150Y-58200D02*
X85550Y-58200D01*
X85950Y-58200D02*
X86350Y-58200D01*
X86350Y-58200D02*
X86350Y-58800D01*
X86350Y-58800D02*
X85950Y-58800D01*
X87500Y-60350D02*
G75*
G03X87500Y-60350I-50J0D01*
G74*
G01*
X87450Y-60800D02*
X87450Y-60400D01*
X87450Y-60400D02*
X88050Y-60400D01*
X88050Y-60400D02*
X88050Y-60800D01*
X88050Y-61200D02*
X88050Y-61600D01*
X88050Y-61600D02*
X87450Y-61600D01*
X87450Y-61600D02*
X87450Y-61200D01*
X86500Y-59850D02*
G75*
G03X86500Y-59850I-50J0D01*
G74*
G01*
X86450Y-60300D02*
X86450Y-59900D01*
X86450Y-59900D02*
X87050Y-59900D01*
X87050Y-59900D02*
X87050Y-60300D01*
X87050Y-60700D02*
X87050Y-61100D01*
X87050Y-61100D02*
X86450Y-61100D01*
X86450Y-61100D02*
X86450Y-60700D01*
X87500Y-58850D02*
G75*
G03X87500Y-58850I-50J0D01*
G74*
G01*
X87450Y-59300D02*
X87450Y-58900D01*
X87450Y-58900D02*
X88050Y-58900D01*
X88050Y-58900D02*
X88050Y-59300D01*
X88050Y-59700D02*
X88050Y-60100D01*
X88050Y-60100D02*
X87450Y-60100D01*
X87450Y-60100D02*
X87450Y-59700D01*
X88100Y-58650D02*
G75*
G03X88100Y-58650I-50J0D01*
G74*
G01*
X88050Y-58200D02*
X88050Y-58600D01*
X88050Y-58600D02*
X87450Y-58600D01*
X87450Y-58600D02*
X87450Y-58200D01*
X87450Y-57800D02*
X87450Y-57400D01*
X87450Y-57400D02*
X88050Y-57400D01*
X88050Y-57400D02*
X88050Y-57800D01*
G54D13*
X95000Y-60000D02*
X96000Y-60000D01*
X96000Y-60000D02*
X96000Y-62000D01*
X96000Y-62000D02*
X95000Y-62000D01*
X95000Y-62000D02*
X95000Y-60000D01*
X95000Y-56000D02*
X96000Y-56000D01*
X96000Y-56000D02*
X96000Y-58000D01*
X96000Y-58000D02*
X95000Y-58000D01*
X95000Y-58000D02*
X95000Y-56000D01*
G54D14*
X94111Y-59230D02*
X94111Y-59030D01*
X94159Y-59030D01*
X94188Y-59040D01*
X94207Y-59059D01*
X94216Y-59078D01*
X94226Y-59116D01*
X94226Y-59145D01*
X94216Y-59183D01*
X94207Y-59202D01*
X94188Y-59221D01*
X94159Y-59230D01*
X94111Y-59230D01*
X94416Y-59230D02*
X94302Y-59230D01*
X94359Y-59230D02*
X94359Y-59030D01*
X94340Y-59059D01*
X94321Y-59078D01*
X94302Y-59088D01*
X94540Y-59030D02*
X94559Y-59030D01*
X94578Y-59040D01*
X94588Y-59050D01*
X94597Y-59069D01*
X94607Y-59107D01*
X94607Y-59154D01*
X94597Y-59192D01*
X94588Y-59211D01*
X94578Y-59221D01*
X94559Y-59230D01*
X94540Y-59230D01*
X94521Y-59221D01*
X94511Y-59211D01*
X94502Y-59192D01*
X94492Y-59154D01*
X94492Y-59107D01*
X94502Y-59069D01*
X94511Y-59050D01*
X94521Y-59040D01*
X94540Y-59030D01*
X94683Y-59050D02*
X94692Y-59040D01*
X94711Y-59030D01*
X94759Y-59030D01*
X94778Y-59040D01*
X94788Y-59050D01*
X94797Y-59069D01*
X94797Y-59088D01*
X94788Y-59116D01*
X94673Y-59230D01*
X94797Y-59230D01*
X93261Y-59230D02*
X93261Y-59030D01*
X93309Y-59030D01*
X93338Y-59040D01*
X93357Y-59059D01*
X93366Y-59078D01*
X93376Y-59116D01*
X93376Y-59145D01*
X93366Y-59183D01*
X93357Y-59202D01*
X93338Y-59221D01*
X93309Y-59230D01*
X93261Y-59230D01*
X93566Y-59230D02*
X93452Y-59230D01*
X93509Y-59230D02*
X93509Y-59030D01*
X93490Y-59059D01*
X93471Y-59078D01*
X93452Y-59088D01*
X93690Y-59030D02*
X93709Y-59030D01*
X93728Y-59040D01*
X93738Y-59050D01*
X93747Y-59069D01*
X93757Y-59107D01*
X93757Y-59154D01*
X93747Y-59192D01*
X93738Y-59211D01*
X93728Y-59221D01*
X93709Y-59230D01*
X93690Y-59230D01*
X93671Y-59221D01*
X93661Y-59211D01*
X93652Y-59192D01*
X93642Y-59154D01*
X93642Y-59107D01*
X93652Y-59069D01*
X93661Y-59050D01*
X93671Y-59040D01*
X93690Y-59030D01*
X93823Y-59030D02*
X93947Y-59030D01*
X93880Y-59107D01*
X93909Y-59107D01*
X93928Y-59116D01*
X93938Y-59126D01*
X93947Y-59145D01*
X93947Y-59192D01*
X93938Y-59211D01*
X93928Y-59221D01*
X93909Y-59230D01*
X93852Y-59230D01*
X93833Y-59221D01*
X93823Y-59211D01*
X88361Y-55780D02*
X88361Y-55580D01*
X88409Y-55580D01*
X88438Y-55590D01*
X88457Y-55609D01*
X88466Y-55628D01*
X88476Y-55666D01*
X88476Y-55695D01*
X88466Y-55733D01*
X88457Y-55752D01*
X88438Y-55771D01*
X88409Y-55780D01*
X88361Y-55780D01*
X88666Y-55780D02*
X88552Y-55780D01*
X88609Y-55780D02*
X88609Y-55580D01*
X88590Y-55609D01*
X88571Y-55628D01*
X88552Y-55638D01*
X88790Y-55580D02*
X88809Y-55580D01*
X88828Y-55590D01*
X88838Y-55600D01*
X88847Y-55619D01*
X88857Y-55657D01*
X88857Y-55704D01*
X88847Y-55742D01*
X88838Y-55761D01*
X88828Y-55771D01*
X88809Y-55780D01*
X88790Y-55780D01*
X88771Y-55771D01*
X88761Y-55761D01*
X88752Y-55742D01*
X88742Y-55704D01*
X88742Y-55657D01*
X88752Y-55619D01*
X88761Y-55600D01*
X88771Y-55590D01*
X88790Y-55580D01*
X89047Y-55780D02*
X88933Y-55780D01*
X88990Y-55780D02*
X88990Y-55580D01*
X88971Y-55609D01*
X88952Y-55628D01*
X88933Y-55638D01*
G54D11*
X89157Y-56630D02*
X89157Y-56792D01*
X89166Y-56811D01*
X89176Y-56821D01*
X89195Y-56830D01*
X89233Y-56830D01*
X89252Y-56821D01*
X89261Y-56811D01*
X89271Y-56792D01*
X89271Y-56630D01*
X89471Y-56830D02*
X89357Y-56830D01*
X89414Y-56830D02*
X89414Y-56630D01*
X89395Y-56659D01*
X89376Y-56678D01*
X89357Y-56688D01*
X89595Y-56630D02*
X89614Y-56630D01*
X89633Y-56640D01*
X89642Y-56650D01*
X89652Y-56669D01*
X89661Y-56707D01*
X89661Y-56754D01*
X89652Y-56792D01*
X89642Y-56811D01*
X89633Y-56821D01*
X89614Y-56830D01*
X89595Y-56830D01*
X89576Y-56821D01*
X89566Y-56811D01*
X89557Y-56792D01*
X89547Y-56754D01*
X89547Y-56707D01*
X89557Y-56669D01*
X89566Y-56650D01*
X89576Y-56640D01*
X89595Y-56630D01*
X89852Y-56830D02*
X89738Y-56830D01*
X89795Y-56830D02*
X89795Y-56630D01*
X89776Y-56659D01*
X89757Y-56678D01*
X89738Y-56688D01*
G54D15*
X86579Y-56720D02*
X86485Y-56786D01*
X86579Y-56833D02*
X86382Y-56833D01*
X86382Y-56757D01*
X86392Y-56739D01*
X86401Y-56729D01*
X86420Y-56720D01*
X86448Y-56720D01*
X86467Y-56729D01*
X86476Y-56739D01*
X86485Y-56757D01*
X86485Y-56833D01*
X86579Y-56532D02*
X86579Y-56645D01*
X86579Y-56589D02*
X86382Y-56589D01*
X86410Y-56607D01*
X86429Y-56626D01*
X86439Y-56645D01*
X86382Y-56410D02*
X86382Y-56392D01*
X86392Y-56373D01*
X86401Y-56363D01*
X86420Y-56354D01*
X86457Y-56345D01*
X86504Y-56345D01*
X86542Y-56354D01*
X86560Y-56363D01*
X86570Y-56373D01*
X86579Y-56392D01*
X86579Y-56410D01*
X86570Y-56429D01*
X86560Y-56439D01*
X86542Y-56448D01*
X86504Y-56457D01*
X86457Y-56457D01*
X86420Y-56448D01*
X86401Y-56439D01*
X86392Y-56429D01*
X86382Y-56410D01*
X86579Y-56157D02*
X86579Y-56270D01*
X86579Y-56213D02*
X86382Y-56213D01*
X86410Y-56232D01*
X86429Y-56251D01*
X86439Y-56270D01*
X86529Y-59079D02*
X86463Y-58985D01*
X86416Y-59079D02*
X86416Y-58882D01*
X86492Y-58882D01*
X86510Y-58892D01*
X86520Y-58901D01*
X86529Y-58920D01*
X86529Y-58948D01*
X86520Y-58967D01*
X86510Y-58976D01*
X86492Y-58985D01*
X86416Y-58985D01*
X86717Y-59079D02*
X86604Y-59079D01*
X86660Y-59079D02*
X86660Y-58882D01*
X86642Y-58910D01*
X86623Y-58929D01*
X86604Y-58939D01*
X86839Y-58882D02*
X86857Y-58882D01*
X86876Y-58892D01*
X86886Y-58901D01*
X86895Y-58920D01*
X86904Y-58957D01*
X86904Y-59004D01*
X86895Y-59042D01*
X86886Y-59060D01*
X86876Y-59070D01*
X86857Y-59079D01*
X86839Y-59079D01*
X86820Y-59070D01*
X86810Y-59060D01*
X86801Y-59042D01*
X86792Y-59004D01*
X86792Y-58957D01*
X86801Y-58920D01*
X86810Y-58901D01*
X86820Y-58892D01*
X86839Y-58882D01*
X86970Y-58882D02*
X87092Y-58882D01*
X87026Y-58957D01*
X87054Y-58957D01*
X87073Y-58967D01*
X87083Y-58976D01*
X87092Y-58995D01*
X87092Y-59042D01*
X87083Y-59060D01*
X87073Y-59070D01*
X87054Y-59079D01*
X86998Y-59079D01*
X86979Y-59070D01*
X86970Y-59060D01*
X85829Y-58720D02*
X85735Y-58786D01*
X85829Y-58833D02*
X85632Y-58833D01*
X85632Y-58757D01*
X85642Y-58739D01*
X85651Y-58729D01*
X85670Y-58720D01*
X85698Y-58720D01*
X85717Y-58729D01*
X85726Y-58739D01*
X85735Y-58757D01*
X85735Y-58833D01*
X85829Y-58532D02*
X85829Y-58645D01*
X85829Y-58589D02*
X85632Y-58589D01*
X85660Y-58607D01*
X85679Y-58626D01*
X85689Y-58645D01*
X85632Y-58410D02*
X85632Y-58392D01*
X85642Y-58373D01*
X85651Y-58363D01*
X85670Y-58354D01*
X85707Y-58345D01*
X85754Y-58345D01*
X85792Y-58354D01*
X85810Y-58363D01*
X85820Y-58373D01*
X85829Y-58392D01*
X85829Y-58410D01*
X85820Y-58429D01*
X85810Y-58439D01*
X85792Y-58448D01*
X85754Y-58457D01*
X85707Y-58457D01*
X85670Y-58448D01*
X85651Y-58439D01*
X85642Y-58429D01*
X85632Y-58410D01*
X85651Y-58270D02*
X85642Y-58260D01*
X85632Y-58242D01*
X85632Y-58195D01*
X85642Y-58176D01*
X85651Y-58166D01*
X85670Y-58157D01*
X85689Y-58157D01*
X85717Y-58166D01*
X85829Y-58279D01*
X85829Y-58157D01*
X87529Y-61079D02*
X87463Y-60985D01*
X87416Y-61079D02*
X87416Y-60882D01*
X87492Y-60882D01*
X87510Y-60892D01*
X87520Y-60901D01*
X87529Y-60920D01*
X87529Y-60948D01*
X87520Y-60967D01*
X87510Y-60976D01*
X87492Y-60985D01*
X87416Y-60985D01*
X87717Y-61079D02*
X87604Y-61079D01*
X87660Y-61079D02*
X87660Y-60882D01*
X87642Y-60910D01*
X87623Y-60929D01*
X87604Y-60939D01*
X87839Y-60882D02*
X87857Y-60882D01*
X87876Y-60892D01*
X87886Y-60901D01*
X87895Y-60920D01*
X87904Y-60957D01*
X87904Y-61004D01*
X87895Y-61042D01*
X87886Y-61060D01*
X87876Y-61070D01*
X87857Y-61079D01*
X87839Y-61079D01*
X87820Y-61070D01*
X87810Y-61060D01*
X87801Y-61042D01*
X87792Y-61004D01*
X87792Y-60957D01*
X87801Y-60920D01*
X87810Y-60901D01*
X87820Y-60892D01*
X87839Y-60882D01*
X88017Y-60967D02*
X87998Y-60957D01*
X87989Y-60948D01*
X87979Y-60929D01*
X87979Y-60920D01*
X87989Y-60901D01*
X87998Y-60892D01*
X88017Y-60882D01*
X88054Y-60882D01*
X88073Y-60892D01*
X88083Y-60901D01*
X88092Y-60920D01*
X88092Y-60929D01*
X88083Y-60948D01*
X88073Y-60957D01*
X88054Y-60967D01*
X88017Y-60967D01*
X87998Y-60976D01*
X87989Y-60985D01*
X87979Y-61004D01*
X87979Y-61042D01*
X87989Y-61060D01*
X87998Y-61070D01*
X88017Y-61079D01*
X88054Y-61079D01*
X88073Y-61070D01*
X88083Y-61060D01*
X88092Y-61042D01*
X88092Y-61004D01*
X88083Y-60985D01*
X88073Y-60976D01*
X88054Y-60967D01*
X86529Y-60579D02*
X86463Y-60485D01*
X86416Y-60579D02*
X86416Y-60382D01*
X86492Y-60382D01*
X86510Y-60392D01*
X86520Y-60401D01*
X86529Y-60420D01*
X86529Y-60448D01*
X86520Y-60467D01*
X86510Y-60476D01*
X86492Y-60485D01*
X86416Y-60485D01*
X86717Y-60579D02*
X86604Y-60579D01*
X86660Y-60579D02*
X86660Y-60382D01*
X86642Y-60410D01*
X86623Y-60429D01*
X86604Y-60439D01*
X86904Y-60579D02*
X86792Y-60579D01*
X86848Y-60579D02*
X86848Y-60382D01*
X86829Y-60410D01*
X86810Y-60429D01*
X86792Y-60439D01*
X87026Y-60382D02*
X87045Y-60382D01*
X87064Y-60392D01*
X87073Y-60401D01*
X87083Y-60420D01*
X87092Y-60457D01*
X87092Y-60504D01*
X87083Y-60542D01*
X87073Y-60560D01*
X87064Y-60570D01*
X87045Y-60579D01*
X87026Y-60579D01*
X87007Y-60570D01*
X86998Y-60560D01*
X86989Y-60542D01*
X86979Y-60504D01*
X86979Y-60457D01*
X86989Y-60420D01*
X86998Y-60401D01*
X87007Y-60392D01*
X87026Y-60382D01*
X87529Y-59579D02*
X87463Y-59485D01*
X87416Y-59579D02*
X87416Y-59382D01*
X87492Y-59382D01*
X87510Y-59392D01*
X87520Y-59401D01*
X87529Y-59420D01*
X87529Y-59448D01*
X87520Y-59467D01*
X87510Y-59476D01*
X87492Y-59485D01*
X87416Y-59485D01*
X87717Y-59579D02*
X87604Y-59579D01*
X87660Y-59579D02*
X87660Y-59382D01*
X87642Y-59410D01*
X87623Y-59429D01*
X87604Y-59439D01*
X87839Y-59382D02*
X87857Y-59382D01*
X87876Y-59392D01*
X87886Y-59401D01*
X87895Y-59420D01*
X87904Y-59457D01*
X87904Y-59504D01*
X87895Y-59542D01*
X87886Y-59560D01*
X87876Y-59570D01*
X87857Y-59579D01*
X87839Y-59579D01*
X87820Y-59570D01*
X87810Y-59560D01*
X87801Y-59542D01*
X87792Y-59504D01*
X87792Y-59457D01*
X87801Y-59420D01*
X87810Y-59401D01*
X87820Y-59392D01*
X87839Y-59382D01*
X87998Y-59579D02*
X88036Y-59579D01*
X88054Y-59570D01*
X88064Y-59560D01*
X88083Y-59532D01*
X88092Y-59495D01*
X88092Y-59420D01*
X88083Y-59401D01*
X88073Y-59392D01*
X88054Y-59382D01*
X88017Y-59382D01*
X87998Y-59392D01*
X87989Y-59401D01*
X87979Y-59420D01*
X87979Y-59467D01*
X87989Y-59485D01*
X87998Y-59495D01*
X88017Y-59504D01*
X88054Y-59504D01*
X88073Y-59495D01*
X88083Y-59485D01*
X88092Y-59467D01*
X87529Y-58079D02*
X87463Y-57985D01*
X87416Y-58079D02*
X87416Y-57882D01*
X87492Y-57882D01*
X87510Y-57892D01*
X87520Y-57901D01*
X87529Y-57920D01*
X87529Y-57948D01*
X87520Y-57967D01*
X87510Y-57976D01*
X87492Y-57985D01*
X87416Y-57985D01*
X87717Y-58079D02*
X87604Y-58079D01*
X87660Y-58079D02*
X87660Y-57882D01*
X87642Y-57910D01*
X87623Y-57929D01*
X87604Y-57939D01*
X87839Y-57882D02*
X87857Y-57882D01*
X87876Y-57892D01*
X87886Y-57901D01*
X87895Y-57920D01*
X87904Y-57957D01*
X87904Y-58004D01*
X87895Y-58042D01*
X87886Y-58060D01*
X87876Y-58070D01*
X87857Y-58079D01*
X87839Y-58079D01*
X87820Y-58070D01*
X87810Y-58060D01*
X87801Y-58042D01*
X87792Y-58004D01*
X87792Y-57957D01*
X87801Y-57920D01*
X87810Y-57901D01*
X87820Y-57892D01*
X87839Y-57882D01*
X88073Y-57882D02*
X88036Y-57882D01*
X88017Y-57892D01*
X88007Y-57901D01*
X87989Y-57929D01*
X87979Y-57967D01*
X87979Y-58042D01*
X87989Y-58060D01*
X87998Y-58070D01*
X88017Y-58079D01*
X88054Y-58079D01*
X88073Y-58070D01*
X88083Y-58060D01*
X88092Y-58042D01*
X88092Y-57995D01*
X88083Y-57976D01*
X88073Y-57967D01*
X88054Y-57957D01*
X88017Y-57957D01*
X87998Y-57967D01*
X87989Y-57976D01*
X87979Y-57995D01*
G54D16*
X95861Y-59826D02*
X95461Y-59826D01*
X95461Y-59673D01*
X95480Y-59635D01*
X95500Y-59616D01*
X95538Y-59597D01*
X95595Y-59597D01*
X95633Y-59616D01*
X95652Y-59635D01*
X95671Y-59673D01*
X95671Y-59826D01*
X95861Y-59216D02*
X95861Y-59445D01*
X95861Y-59330D02*
X95461Y-59330D01*
X95519Y-59369D01*
X95557Y-59407D01*
X95576Y-59445D01*
X95461Y-58969D02*
X95461Y-58930D01*
X95480Y-58892D01*
X95500Y-58873D01*
X95538Y-58854D01*
X95614Y-58835D01*
X95709Y-58835D01*
X95785Y-58854D01*
X95823Y-58873D01*
X95842Y-58892D01*
X95861Y-58930D01*
X95861Y-58969D01*
X95842Y-59007D01*
X95823Y-59026D01*
X95785Y-59045D01*
X95709Y-59064D01*
X95614Y-59064D01*
X95538Y-59045D01*
X95500Y-59026D01*
X95480Y-59007D01*
X95461Y-58969D01*
X95633Y-58607D02*
X95614Y-58645D01*
X95595Y-58664D01*
X95557Y-58683D01*
X95538Y-58683D01*
X95500Y-58664D01*
X95480Y-58645D01*
X95461Y-58607D01*
X95461Y-58530D01*
X95480Y-58492D01*
X95500Y-58473D01*
X95538Y-58454D01*
X95557Y-58454D01*
X95595Y-58473D01*
X95614Y-58492D01*
X95633Y-58530D01*
X95633Y-58607D01*
X95652Y-58645D01*
X95671Y-58664D01*
X95709Y-58683D01*
X95785Y-58683D01*
X95823Y-58664D01*
X95842Y-58645D01*
X95861Y-58607D01*
X95861Y-58530D01*
X95842Y-58492D01*
X95823Y-58473D01*
X95785Y-58454D01*
X95709Y-58454D01*
X95671Y-58473D01*
X95652Y-58492D01*
X95633Y-58530D01*
X95311Y-59476D02*
X94911Y-59476D01*
X94911Y-59323D01*
X94930Y-59285D01*
X94950Y-59266D01*
X94988Y-59247D01*
X95045Y-59247D01*
X95083Y-59266D01*
X95102Y-59285D01*
X95121Y-59323D01*
X95121Y-59476D01*
X95311Y-58866D02*
X95311Y-59095D01*
X95311Y-58980D02*
X94911Y-58980D01*
X94969Y-59019D01*
X95007Y-59057D01*
X95026Y-59095D01*
X94911Y-58619D02*
X94911Y-58580D01*
X94930Y-58542D01*
X94950Y-58523D01*
X94988Y-58504D01*
X95064Y-58485D01*
X95159Y-58485D01*
X95235Y-58504D01*
X95273Y-58523D01*
X95292Y-58542D01*
X95311Y-58580D01*
X95311Y-58619D01*
X95292Y-58657D01*
X95273Y-58676D01*
X95235Y-58695D01*
X95159Y-58714D01*
X95064Y-58714D01*
X94988Y-58695D01*
X94950Y-58676D01*
X94930Y-58657D01*
X94911Y-58619D01*
X94911Y-58352D02*
X94911Y-58085D01*
X95311Y-58257D01*
M02*
