G04 (created by PCBNEW (2013-07-07 BZR 4022)-stable) date 08/12/2013 20:44:26*
%MOIN*%
G04 Gerber Fmt 3.4, Leading zero omitted, Abs format*
%FSLAX34Y34*%
G01*
G70*
G90*
G04 APERTURE LIST*
%ADD10C,0.00590551*%
%ADD11C,0.11811*%
%ADD12R,0.06X0.06*%
%ADD13C,0.06*%
%ADD14R,0.055X0.055*%
%ADD15C,0.055*%
%ADD16C,0.035*%
%ADD17C,0.01*%
G04 APERTURE END LIST*
G54D10*
G54D11*
X36500Y-66750D03*
X64500Y-48000D03*
X36500Y-48000D03*
G54D12*
X64000Y-58250D03*
G54D13*
X65000Y-58250D03*
X64000Y-59250D03*
X65000Y-59250D03*
X64000Y-60250D03*
X65000Y-60250D03*
X64000Y-61250D03*
X65000Y-61250D03*
X64000Y-62250D03*
X65000Y-62250D03*
X64000Y-63250D03*
X65000Y-63250D03*
X64000Y-64250D03*
X65000Y-64250D03*
X64000Y-65250D03*
X65000Y-65250D03*
X64000Y-66250D03*
X65000Y-66250D03*
X64000Y-67250D03*
X65000Y-67250D03*
G54D12*
X51500Y-54500D03*
G54D13*
X52500Y-54500D03*
X53500Y-54500D03*
G54D12*
X36250Y-50250D03*
G54D13*
X36250Y-51250D03*
X36250Y-52250D03*
X36250Y-53250D03*
X36250Y-54250D03*
X36250Y-55250D03*
G54D12*
X62500Y-64400D03*
X64000Y-55750D03*
X36250Y-59000D03*
G54D13*
X36250Y-60000D03*
X36250Y-61000D03*
X36250Y-62000D03*
X36250Y-63000D03*
X36250Y-64000D03*
G54D14*
X52500Y-52750D03*
G54D15*
X53500Y-52750D03*
G54D14*
X55000Y-47500D03*
G54D15*
X56000Y-47500D03*
G54D12*
X51000Y-47500D03*
G54D13*
X52000Y-47500D03*
X53000Y-47500D03*
G54D10*
G36*
X63742Y-50353D02*
X63353Y-50742D01*
X62964Y-50353D01*
X63353Y-49964D01*
X63742Y-50353D01*
X63742Y-50353D01*
G37*
G54D15*
X62646Y-49646D03*
G54D10*
G36*
X62992Y-51103D02*
X62603Y-51492D01*
X62214Y-51103D01*
X62603Y-50714D01*
X62992Y-51103D01*
X62992Y-51103D01*
G37*
G54D15*
X61896Y-50396D03*
G54D16*
X61428Y-65768D03*
X60500Y-67000D03*
X44700Y-53350D03*
X47250Y-51550D03*
X55250Y-52500D03*
X58750Y-50800D03*
X61350Y-49500D03*
X58350Y-47500D03*
X49700Y-49950D03*
X44700Y-49900D03*
X47200Y-48050D03*
X38300Y-50450D03*
X40150Y-47650D03*
X42850Y-49500D03*
X51500Y-51500D03*
X50350Y-62900D03*
X43100Y-63500D03*
X54000Y-64072D03*
X43599Y-56443D03*
X42522Y-66563D03*
X58250Y-54263D03*
X51500Y-58477D03*
X49750Y-56727D03*
X38823Y-57861D03*
X47250Y-61773D03*
X49750Y-52314D03*
X60750Y-52074D03*
X37572Y-53399D03*
X58250Y-57517D03*
X60750Y-62070D03*
X40187Y-64611D03*
X37574Y-65616D03*
X43233Y-60068D03*
X44019Y-66560D03*
X47250Y-58521D03*
X49750Y-60225D03*
X50812Y-64139D03*
X58250Y-63774D03*
X58250Y-60766D03*
X60750Y-59978D03*
X38250Y-58523D03*
X39500Y-54941D03*
X39782Y-51433D03*
X60864Y-56737D03*
X53750Y-50835D03*
X39500Y-60515D03*
X42766Y-52936D03*
X44022Y-63312D03*
X37573Y-62264D03*
X53610Y-57821D03*
X37564Y-55633D03*
X47250Y-55023D03*
X47250Y-65273D03*
X49750Y-66726D03*
X51500Y-48500D03*
X54700Y-52300D03*
X54800Y-50500D03*
X50400Y-56850D03*
X49700Y-57550D03*
X50650Y-49700D03*
X50400Y-50500D03*
X51900Y-55450D03*
X55950Y-59100D03*
X55850Y-57500D03*
G54D17*
X61428Y-65768D02*
X61428Y-66071D01*
X61428Y-66071D02*
X60500Y-67000D01*
X44700Y-49900D02*
X44700Y-49850D01*
X52000Y-47500D02*
X52000Y-48000D01*
X52000Y-48000D02*
X51500Y-48500D01*
X54700Y-50600D02*
X54700Y-52300D01*
X54800Y-50500D02*
X54700Y-50600D01*
X49700Y-57550D02*
X50400Y-56850D01*
X50650Y-50250D02*
X50650Y-49700D01*
X50400Y-50500D02*
X50650Y-50250D01*
X51500Y-54500D02*
X51500Y-55050D01*
X51500Y-55050D02*
X51900Y-55450D01*
X55950Y-57600D02*
X55950Y-59100D01*
X55850Y-57500D02*
X55950Y-57600D01*
G54D10*
G36*
X65330Y-66943D02*
X65255Y-66868D01*
X65089Y-66800D01*
X64910Y-66799D01*
X64745Y-66868D01*
X64618Y-66994D01*
X64550Y-67160D01*
X64549Y-67339D01*
X64618Y-67504D01*
X64693Y-67580D01*
X64306Y-67580D01*
X64381Y-67505D01*
X64449Y-67339D01*
X64450Y-67160D01*
X64450Y-66160D01*
X64450Y-65160D01*
X64450Y-64160D01*
X64450Y-63160D01*
X64450Y-62160D01*
X64450Y-61160D01*
X64381Y-60995D01*
X64255Y-60868D01*
X64089Y-60800D01*
X64013Y-60800D01*
X64136Y-60793D01*
X64287Y-60731D01*
X64315Y-60635D01*
X64000Y-60320D01*
X63929Y-60391D01*
X63929Y-60250D01*
X63614Y-59934D01*
X63518Y-59962D01*
X63445Y-60168D01*
X63456Y-60386D01*
X63518Y-60537D01*
X63614Y-60565D01*
X63929Y-60250D01*
X63929Y-60391D01*
X63684Y-60635D01*
X63712Y-60731D01*
X63907Y-60801D01*
X63745Y-60868D01*
X63618Y-60994D01*
X63550Y-61160D01*
X63549Y-61339D01*
X63618Y-61504D01*
X63744Y-61631D01*
X63910Y-61699D01*
X64089Y-61700D01*
X64254Y-61631D01*
X64381Y-61505D01*
X64449Y-61339D01*
X64450Y-61160D01*
X64450Y-62160D01*
X64381Y-61995D01*
X64255Y-61868D01*
X64089Y-61800D01*
X63910Y-61799D01*
X63745Y-61868D01*
X63618Y-61994D01*
X63550Y-62160D01*
X63549Y-62339D01*
X63618Y-62504D01*
X63744Y-62631D01*
X63910Y-62699D01*
X64089Y-62700D01*
X64254Y-62631D01*
X64381Y-62505D01*
X64449Y-62339D01*
X64450Y-62160D01*
X64450Y-63160D01*
X64381Y-62995D01*
X64255Y-62868D01*
X64089Y-62800D01*
X63910Y-62799D01*
X63745Y-62868D01*
X63618Y-62994D01*
X63550Y-63160D01*
X63549Y-63339D01*
X63618Y-63504D01*
X63744Y-63631D01*
X63910Y-63699D01*
X64089Y-63700D01*
X64254Y-63631D01*
X64381Y-63505D01*
X64449Y-63339D01*
X64450Y-63160D01*
X64450Y-64160D01*
X64381Y-63995D01*
X64255Y-63868D01*
X64089Y-63800D01*
X63910Y-63799D01*
X63745Y-63868D01*
X63618Y-63994D01*
X63550Y-64160D01*
X63549Y-64339D01*
X63618Y-64504D01*
X63744Y-64631D01*
X63910Y-64699D01*
X64089Y-64700D01*
X64254Y-64631D01*
X64381Y-64505D01*
X64449Y-64339D01*
X64450Y-64160D01*
X64450Y-65160D01*
X64381Y-64995D01*
X64255Y-64868D01*
X64089Y-64800D01*
X63910Y-64799D01*
X63745Y-64868D01*
X63618Y-64994D01*
X63550Y-65160D01*
X63549Y-65339D01*
X63618Y-65504D01*
X63744Y-65631D01*
X63910Y-65699D01*
X64089Y-65700D01*
X64254Y-65631D01*
X64381Y-65505D01*
X64449Y-65339D01*
X64450Y-65160D01*
X64450Y-66160D01*
X64381Y-65995D01*
X64255Y-65868D01*
X64089Y-65800D01*
X63910Y-65799D01*
X63745Y-65868D01*
X63618Y-65994D01*
X63550Y-66160D01*
X63549Y-66339D01*
X63618Y-66504D01*
X63744Y-66631D01*
X63910Y-66699D01*
X64089Y-66700D01*
X64254Y-66631D01*
X64381Y-66505D01*
X64449Y-66339D01*
X64450Y-66160D01*
X64450Y-67160D01*
X64381Y-66995D01*
X64255Y-66868D01*
X64089Y-66800D01*
X63910Y-66799D01*
X63745Y-66868D01*
X63618Y-66994D01*
X63550Y-67160D01*
X63549Y-67339D01*
X63618Y-67504D01*
X63693Y-67580D01*
X63142Y-67580D01*
X63142Y-51073D01*
X63119Y-51018D01*
X63077Y-50976D01*
X62688Y-50587D01*
X62633Y-50564D01*
X62573Y-50564D01*
X62518Y-50587D01*
X62476Y-50629D01*
X62321Y-50784D01*
X62321Y-50312D01*
X62256Y-50156D01*
X62137Y-50036D01*
X61981Y-49971D01*
X61812Y-49971D01*
X61656Y-50035D01*
X61536Y-50155D01*
X61471Y-50311D01*
X61471Y-50480D01*
X61535Y-50636D01*
X61655Y-50756D01*
X61811Y-50821D01*
X61980Y-50821D01*
X62136Y-50756D01*
X62256Y-50637D01*
X62321Y-50481D01*
X62321Y-50312D01*
X62321Y-50784D01*
X62087Y-51018D01*
X62064Y-51073D01*
X62064Y-51133D01*
X62087Y-51188D01*
X62129Y-51230D01*
X62518Y-51619D01*
X62573Y-51642D01*
X62633Y-51642D01*
X62688Y-51619D01*
X62730Y-51577D01*
X63119Y-51188D01*
X63142Y-51133D01*
X63142Y-51073D01*
X63142Y-67580D01*
X62950Y-67580D01*
X62950Y-64670D01*
X62950Y-64070D01*
X62927Y-64015D01*
X62885Y-63972D01*
X62829Y-63950D01*
X62770Y-63949D01*
X62170Y-63949D01*
X62115Y-63972D01*
X62072Y-64014D01*
X62050Y-64070D01*
X62049Y-64129D01*
X62049Y-64729D01*
X62072Y-64784D01*
X62114Y-64827D01*
X62170Y-64849D01*
X62229Y-64850D01*
X62829Y-64850D01*
X62884Y-64827D01*
X62927Y-64785D01*
X62949Y-64729D01*
X62950Y-64670D01*
X62950Y-67580D01*
X56529Y-67580D01*
X56297Y-67580D01*
X56297Y-47867D01*
X56000Y-47570D01*
X55702Y-47867D01*
X55727Y-47960D01*
X55924Y-48029D01*
X56132Y-48018D01*
X56272Y-47960D01*
X56297Y-47867D01*
X56297Y-67580D01*
X56275Y-67580D01*
X56275Y-59035D01*
X56225Y-58916D01*
X56150Y-58840D01*
X56150Y-57625D01*
X56174Y-57564D01*
X56175Y-57435D01*
X56125Y-57316D01*
X56034Y-57224D01*
X55914Y-57175D01*
X55785Y-57174D01*
X55666Y-57224D01*
X55574Y-57315D01*
X55525Y-57435D01*
X55524Y-57564D01*
X55574Y-57683D01*
X55665Y-57775D01*
X55750Y-57810D01*
X55750Y-58840D01*
X55674Y-58915D01*
X55625Y-59035D01*
X55624Y-59164D01*
X55674Y-59283D01*
X55765Y-59375D01*
X55885Y-59424D01*
X56014Y-59425D01*
X56133Y-59375D01*
X56225Y-59284D01*
X56274Y-59164D01*
X56275Y-59035D01*
X56275Y-67580D01*
X55125Y-67580D01*
X55125Y-50435D01*
X55075Y-50316D01*
X54984Y-50224D01*
X54950Y-50210D01*
X54950Y-47962D01*
X54950Y-47550D01*
X54537Y-47550D01*
X54475Y-47612D01*
X54474Y-47725D01*
X54475Y-47824D01*
X54513Y-47916D01*
X54583Y-47987D01*
X54675Y-48025D01*
X54887Y-48025D01*
X54950Y-47962D01*
X54950Y-50210D01*
X54864Y-50175D01*
X54735Y-50174D01*
X54616Y-50224D01*
X54524Y-50315D01*
X54475Y-50435D01*
X54474Y-50564D01*
X54500Y-50625D01*
X54500Y-52040D01*
X54424Y-52115D01*
X54375Y-52235D01*
X54374Y-52364D01*
X54424Y-52483D01*
X54515Y-52575D01*
X54635Y-52624D01*
X54764Y-52625D01*
X54883Y-52575D01*
X54975Y-52484D01*
X55024Y-52364D01*
X55025Y-52235D01*
X54975Y-52116D01*
X54900Y-52040D01*
X54900Y-50810D01*
X54983Y-50775D01*
X55075Y-50684D01*
X55124Y-50564D01*
X55125Y-50435D01*
X55125Y-67580D01*
X54029Y-67580D01*
X54029Y-52825D01*
X54018Y-52617D01*
X53960Y-52477D01*
X53867Y-52452D01*
X53797Y-52523D01*
X53797Y-52382D01*
X53772Y-52289D01*
X53575Y-52220D01*
X53367Y-52231D01*
X53227Y-52289D01*
X53202Y-52382D01*
X53500Y-52679D01*
X53797Y-52382D01*
X53797Y-52523D01*
X53570Y-52750D01*
X53867Y-53047D01*
X53960Y-53022D01*
X54029Y-52825D01*
X54029Y-67580D01*
X53950Y-67580D01*
X53950Y-54410D01*
X53881Y-54245D01*
X53797Y-54160D01*
X53797Y-53117D01*
X53500Y-52820D01*
X53429Y-52891D01*
X53429Y-52750D01*
X53132Y-52452D01*
X53039Y-52477D01*
X53025Y-52518D01*
X53024Y-52425D01*
X52986Y-52333D01*
X52916Y-52262D01*
X52824Y-52224D01*
X52612Y-52225D01*
X52550Y-52287D01*
X52550Y-52700D01*
X52557Y-52700D01*
X52557Y-52800D01*
X52550Y-52800D01*
X52550Y-53212D01*
X52612Y-53275D01*
X52824Y-53275D01*
X52916Y-53237D01*
X52986Y-53166D01*
X53024Y-53074D01*
X53025Y-52987D01*
X53039Y-53022D01*
X53132Y-53047D01*
X53429Y-52750D01*
X53429Y-52891D01*
X53202Y-53117D01*
X53227Y-53210D01*
X53424Y-53279D01*
X53632Y-53268D01*
X53772Y-53210D01*
X53797Y-53117D01*
X53797Y-54160D01*
X53755Y-54118D01*
X53589Y-54050D01*
X53410Y-54049D01*
X53245Y-54118D01*
X53118Y-54244D01*
X53050Y-54410D01*
X53049Y-54589D01*
X53118Y-54754D01*
X53244Y-54881D01*
X53410Y-54949D01*
X53589Y-54950D01*
X53754Y-54881D01*
X53881Y-54755D01*
X53949Y-54589D01*
X53950Y-54410D01*
X53950Y-67580D01*
X52950Y-67580D01*
X52950Y-54410D01*
X52881Y-54245D01*
X52755Y-54118D01*
X52589Y-54050D01*
X52450Y-54049D01*
X52450Y-53212D01*
X52450Y-52800D01*
X52450Y-52700D01*
X52450Y-52287D01*
X52387Y-52225D01*
X52175Y-52224D01*
X52083Y-52262D01*
X52013Y-52333D01*
X51975Y-52425D01*
X51974Y-52524D01*
X51975Y-52637D01*
X52037Y-52700D01*
X52450Y-52700D01*
X52450Y-52800D01*
X52037Y-52800D01*
X51975Y-52862D01*
X51974Y-52975D01*
X51975Y-53074D01*
X52013Y-53166D01*
X52083Y-53237D01*
X52175Y-53275D01*
X52387Y-53275D01*
X52450Y-53212D01*
X52450Y-54049D01*
X52410Y-54049D01*
X52245Y-54118D01*
X52118Y-54244D01*
X52050Y-54410D01*
X52049Y-54589D01*
X52118Y-54754D01*
X52244Y-54881D01*
X52410Y-54949D01*
X52589Y-54950D01*
X52754Y-54881D01*
X52881Y-54755D01*
X52949Y-54589D01*
X52950Y-54410D01*
X52950Y-67580D01*
X52225Y-67580D01*
X52225Y-55385D01*
X52175Y-55266D01*
X52084Y-55174D01*
X51964Y-55125D01*
X51857Y-55124D01*
X51700Y-54967D01*
X51700Y-54950D01*
X51829Y-54950D01*
X51884Y-54927D01*
X51927Y-54885D01*
X51949Y-54829D01*
X51950Y-54770D01*
X51950Y-54170D01*
X51927Y-54115D01*
X51885Y-54072D01*
X51829Y-54050D01*
X51770Y-54049D01*
X51170Y-54049D01*
X51115Y-54072D01*
X51072Y-54114D01*
X51050Y-54170D01*
X51049Y-54229D01*
X51049Y-54829D01*
X51072Y-54884D01*
X51114Y-54927D01*
X51170Y-54949D01*
X51229Y-54950D01*
X51300Y-54950D01*
X51300Y-55050D01*
X51315Y-55126D01*
X51358Y-55191D01*
X51575Y-55407D01*
X51574Y-55514D01*
X51624Y-55633D01*
X51715Y-55725D01*
X51835Y-55774D01*
X51964Y-55775D01*
X52083Y-55725D01*
X52175Y-55634D01*
X52224Y-55514D01*
X52225Y-55385D01*
X52225Y-67580D01*
X50975Y-67580D01*
X50975Y-49635D01*
X50925Y-49516D01*
X50834Y-49424D01*
X50714Y-49375D01*
X50585Y-49374D01*
X50466Y-49424D01*
X50374Y-49515D01*
X50325Y-49635D01*
X50324Y-49764D01*
X50374Y-49883D01*
X50450Y-49959D01*
X50450Y-50167D01*
X50442Y-50175D01*
X50335Y-50174D01*
X50216Y-50224D01*
X50124Y-50315D01*
X50075Y-50435D01*
X50074Y-50564D01*
X50124Y-50683D01*
X50215Y-50775D01*
X50335Y-50824D01*
X50464Y-50825D01*
X50583Y-50775D01*
X50675Y-50684D01*
X50724Y-50564D01*
X50725Y-50457D01*
X50791Y-50391D01*
X50791Y-50391D01*
X50820Y-50348D01*
X50834Y-50326D01*
X50834Y-50326D01*
X50849Y-50250D01*
X50850Y-50250D01*
X50850Y-49959D01*
X50925Y-49884D01*
X50974Y-49764D01*
X50975Y-49635D01*
X50975Y-67580D01*
X50725Y-67580D01*
X50725Y-56785D01*
X50675Y-56666D01*
X50584Y-56574D01*
X50464Y-56525D01*
X50335Y-56524D01*
X50216Y-56574D01*
X50124Y-56665D01*
X50075Y-56785D01*
X50074Y-56892D01*
X49742Y-57225D01*
X49635Y-57224D01*
X49516Y-57274D01*
X49424Y-57365D01*
X49375Y-57485D01*
X49374Y-57614D01*
X49424Y-57733D01*
X49515Y-57825D01*
X49635Y-57874D01*
X49764Y-57875D01*
X49883Y-57825D01*
X49975Y-57734D01*
X50024Y-57614D01*
X50025Y-57507D01*
X50357Y-57174D01*
X50464Y-57175D01*
X50583Y-57125D01*
X50675Y-57034D01*
X50724Y-56914D01*
X50725Y-56785D01*
X50725Y-67580D01*
X38300Y-67580D01*
X38300Y-66729D01*
X36770Y-65200D01*
X36700Y-65200D01*
X36700Y-63910D01*
X36700Y-62910D01*
X36700Y-61910D01*
X36700Y-60910D01*
X36700Y-59910D01*
X36700Y-55160D01*
X36700Y-54160D01*
X36700Y-53160D01*
X36700Y-52160D01*
X36700Y-51160D01*
X36631Y-50995D01*
X36505Y-50868D01*
X36339Y-50800D01*
X36160Y-50799D01*
X35995Y-50868D01*
X35868Y-50994D01*
X35800Y-51160D01*
X35799Y-51339D01*
X35868Y-51504D01*
X35994Y-51631D01*
X36160Y-51699D01*
X36339Y-51700D01*
X36504Y-51631D01*
X36631Y-51505D01*
X36699Y-51339D01*
X36700Y-51160D01*
X36700Y-52160D01*
X36631Y-51995D01*
X36505Y-51868D01*
X36339Y-51800D01*
X36160Y-51799D01*
X35995Y-51868D01*
X35868Y-51994D01*
X35800Y-52160D01*
X35799Y-52339D01*
X35868Y-52504D01*
X35994Y-52631D01*
X36160Y-52699D01*
X36339Y-52700D01*
X36504Y-52631D01*
X36631Y-52505D01*
X36699Y-52339D01*
X36700Y-52160D01*
X36700Y-53160D01*
X36631Y-52995D01*
X36505Y-52868D01*
X36339Y-52800D01*
X36160Y-52799D01*
X35995Y-52868D01*
X35868Y-52994D01*
X35800Y-53160D01*
X35799Y-53339D01*
X35868Y-53504D01*
X35994Y-53631D01*
X36160Y-53699D01*
X36339Y-53700D01*
X36504Y-53631D01*
X36631Y-53505D01*
X36699Y-53339D01*
X36700Y-53160D01*
X36700Y-54160D01*
X36631Y-53995D01*
X36505Y-53868D01*
X36339Y-53800D01*
X36160Y-53799D01*
X35995Y-53868D01*
X35868Y-53994D01*
X35800Y-54160D01*
X35799Y-54339D01*
X35868Y-54504D01*
X35994Y-54631D01*
X36160Y-54699D01*
X36339Y-54700D01*
X36504Y-54631D01*
X36631Y-54505D01*
X36699Y-54339D01*
X36700Y-54160D01*
X36700Y-55160D01*
X36631Y-54995D01*
X36505Y-54868D01*
X36339Y-54800D01*
X36160Y-54799D01*
X35995Y-54868D01*
X35868Y-54994D01*
X35800Y-55160D01*
X35799Y-55339D01*
X35868Y-55504D01*
X35994Y-55631D01*
X36160Y-55699D01*
X36339Y-55700D01*
X36504Y-55631D01*
X36631Y-55505D01*
X36699Y-55339D01*
X36700Y-55160D01*
X36700Y-59910D01*
X36700Y-59910D01*
X36700Y-59270D01*
X36700Y-58670D01*
X36677Y-58615D01*
X36635Y-58572D01*
X36579Y-58550D01*
X36520Y-58549D01*
X35920Y-58549D01*
X35865Y-58572D01*
X35822Y-58614D01*
X35800Y-58670D01*
X35799Y-58729D01*
X35799Y-59329D01*
X35822Y-59384D01*
X35864Y-59427D01*
X35920Y-59449D01*
X35979Y-59450D01*
X36579Y-59450D01*
X36634Y-59427D01*
X36677Y-59385D01*
X36699Y-59329D01*
X36700Y-59270D01*
X36700Y-59910D01*
X36631Y-59745D01*
X36505Y-59618D01*
X36339Y-59550D01*
X36160Y-59549D01*
X35995Y-59618D01*
X35868Y-59744D01*
X35800Y-59910D01*
X35799Y-60089D01*
X35868Y-60254D01*
X35994Y-60381D01*
X36160Y-60449D01*
X36339Y-60450D01*
X36504Y-60381D01*
X36631Y-60255D01*
X36699Y-60089D01*
X36700Y-59910D01*
X36700Y-60910D01*
X36631Y-60745D01*
X36505Y-60618D01*
X36339Y-60550D01*
X36160Y-60549D01*
X35995Y-60618D01*
X35868Y-60744D01*
X35800Y-60910D01*
X35799Y-61089D01*
X35868Y-61254D01*
X35994Y-61381D01*
X36160Y-61449D01*
X36339Y-61450D01*
X36504Y-61381D01*
X36631Y-61255D01*
X36699Y-61089D01*
X36700Y-60910D01*
X36700Y-61910D01*
X36631Y-61745D01*
X36505Y-61618D01*
X36339Y-61550D01*
X36160Y-61549D01*
X35995Y-61618D01*
X35868Y-61744D01*
X35800Y-61910D01*
X35799Y-62089D01*
X35868Y-62254D01*
X35994Y-62381D01*
X36160Y-62449D01*
X36339Y-62450D01*
X36504Y-62381D01*
X36631Y-62255D01*
X36699Y-62089D01*
X36700Y-61910D01*
X36700Y-62910D01*
X36631Y-62745D01*
X36505Y-62618D01*
X36339Y-62550D01*
X36160Y-62549D01*
X35995Y-62618D01*
X35868Y-62744D01*
X35800Y-62910D01*
X35799Y-63089D01*
X35868Y-63254D01*
X35994Y-63381D01*
X36160Y-63449D01*
X36339Y-63450D01*
X36504Y-63381D01*
X36631Y-63255D01*
X36699Y-63089D01*
X36700Y-62910D01*
X36700Y-63910D01*
X36631Y-63745D01*
X36505Y-63618D01*
X36339Y-63550D01*
X36160Y-63549D01*
X35995Y-63618D01*
X35868Y-63744D01*
X35800Y-63910D01*
X35799Y-64089D01*
X35868Y-64254D01*
X35994Y-64381D01*
X36160Y-64449D01*
X36339Y-64450D01*
X36504Y-64381D01*
X36631Y-64255D01*
X36699Y-64089D01*
X36700Y-63910D01*
X36700Y-65200D01*
X35669Y-65200D01*
X35669Y-49800D01*
X35920Y-49800D01*
X35865Y-49822D01*
X35822Y-49864D01*
X35800Y-49920D01*
X35799Y-49979D01*
X35799Y-50579D01*
X35822Y-50634D01*
X35864Y-50677D01*
X35920Y-50699D01*
X35979Y-50700D01*
X36579Y-50700D01*
X36634Y-50677D01*
X36677Y-50635D01*
X36699Y-50579D01*
X36700Y-50520D01*
X36700Y-49920D01*
X36677Y-49865D01*
X36635Y-49822D01*
X36579Y-49800D01*
X36550Y-49800D01*
X36770Y-49800D01*
X38300Y-48270D01*
X38300Y-47169D01*
X50550Y-47169D01*
X50550Y-47170D01*
X50549Y-47229D01*
X50549Y-47829D01*
X50572Y-47884D01*
X50614Y-47927D01*
X50670Y-47949D01*
X50729Y-47950D01*
X51329Y-47950D01*
X51384Y-47927D01*
X51427Y-47885D01*
X51449Y-47829D01*
X51450Y-47770D01*
X51450Y-47170D01*
X51449Y-47169D01*
X51693Y-47169D01*
X51618Y-47244D01*
X51550Y-47410D01*
X51549Y-47589D01*
X51618Y-47754D01*
X51744Y-47881D01*
X51800Y-47904D01*
X51800Y-47917D01*
X51542Y-48175D01*
X51435Y-48174D01*
X51316Y-48224D01*
X51224Y-48315D01*
X51175Y-48435D01*
X51174Y-48564D01*
X51224Y-48683D01*
X51315Y-48775D01*
X51435Y-48824D01*
X51564Y-48825D01*
X51683Y-48775D01*
X51775Y-48684D01*
X51824Y-48564D01*
X51825Y-48457D01*
X52141Y-48141D01*
X52184Y-48076D01*
X52184Y-48076D01*
X52187Y-48063D01*
X52199Y-48000D01*
X52200Y-48000D01*
X52200Y-47904D01*
X52254Y-47881D01*
X52381Y-47755D01*
X52449Y-47589D01*
X52450Y-47410D01*
X52381Y-47245D01*
X52306Y-47169D01*
X52693Y-47169D01*
X52618Y-47244D01*
X52550Y-47410D01*
X52549Y-47589D01*
X52618Y-47754D01*
X52744Y-47881D01*
X52910Y-47949D01*
X53089Y-47950D01*
X53254Y-47881D01*
X53381Y-47755D01*
X53449Y-47589D01*
X53450Y-47410D01*
X53381Y-47245D01*
X53306Y-47169D01*
X54477Y-47169D01*
X54475Y-47175D01*
X54474Y-47274D01*
X54475Y-47387D01*
X54537Y-47450D01*
X54950Y-47450D01*
X54950Y-47442D01*
X55050Y-47442D01*
X55050Y-47450D01*
X55057Y-47450D01*
X55057Y-47550D01*
X55050Y-47550D01*
X55050Y-47962D01*
X55112Y-48025D01*
X55324Y-48025D01*
X55416Y-47987D01*
X55486Y-47916D01*
X55524Y-47824D01*
X55525Y-47737D01*
X55539Y-47772D01*
X55632Y-47797D01*
X55929Y-47500D01*
X55923Y-47494D01*
X55994Y-47423D01*
X56000Y-47429D01*
X56005Y-47423D01*
X56076Y-47494D01*
X56070Y-47500D01*
X56367Y-47797D01*
X56460Y-47772D01*
X56529Y-47575D01*
X56518Y-47367D01*
X56460Y-47227D01*
X56367Y-47202D01*
X56401Y-47169D01*
X62700Y-47169D01*
X62700Y-48270D01*
X64229Y-49800D01*
X65330Y-49800D01*
X65330Y-57848D01*
X65315Y-57864D01*
X65287Y-57768D01*
X65081Y-57695D01*
X64863Y-57706D01*
X64712Y-57768D01*
X64684Y-57864D01*
X65000Y-58179D01*
X65005Y-58173D01*
X65076Y-58244D01*
X65070Y-58250D01*
X65076Y-58255D01*
X65005Y-58326D01*
X65000Y-58320D01*
X64929Y-58391D01*
X64929Y-58250D01*
X64614Y-57934D01*
X64550Y-57953D01*
X64550Y-57900D01*
X64512Y-57808D01*
X64450Y-57746D01*
X64450Y-56020D01*
X64450Y-55420D01*
X64427Y-55365D01*
X64385Y-55322D01*
X64329Y-55300D01*
X64270Y-55299D01*
X63892Y-55299D01*
X63892Y-50323D01*
X63869Y-50268D01*
X63827Y-50226D01*
X63438Y-49837D01*
X63383Y-49814D01*
X63323Y-49814D01*
X63268Y-49837D01*
X63226Y-49879D01*
X63071Y-50034D01*
X63071Y-49562D01*
X63006Y-49406D01*
X62887Y-49286D01*
X62731Y-49221D01*
X62562Y-49221D01*
X62406Y-49285D01*
X62286Y-49405D01*
X62221Y-49561D01*
X62221Y-49730D01*
X62285Y-49886D01*
X62405Y-50006D01*
X62561Y-50071D01*
X62730Y-50071D01*
X62886Y-50006D01*
X63006Y-49887D01*
X63071Y-49731D01*
X63071Y-49562D01*
X63071Y-50034D01*
X62837Y-50268D01*
X62814Y-50323D01*
X62814Y-50383D01*
X62837Y-50438D01*
X62879Y-50480D01*
X63268Y-50869D01*
X63323Y-50892D01*
X63383Y-50892D01*
X63438Y-50869D01*
X63480Y-50827D01*
X63869Y-50438D01*
X63892Y-50383D01*
X63892Y-50323D01*
X63892Y-55299D01*
X63670Y-55299D01*
X63615Y-55322D01*
X63572Y-55364D01*
X63550Y-55420D01*
X63549Y-55479D01*
X63549Y-56079D01*
X63572Y-56134D01*
X63614Y-56177D01*
X63670Y-56199D01*
X63729Y-56200D01*
X64329Y-56200D01*
X64384Y-56177D01*
X64427Y-56135D01*
X64449Y-56079D01*
X64450Y-56020D01*
X64450Y-57746D01*
X64441Y-57738D01*
X64349Y-57700D01*
X64250Y-57699D01*
X64112Y-57700D01*
X64050Y-57762D01*
X64050Y-58200D01*
X64057Y-58200D01*
X64057Y-58300D01*
X64050Y-58300D01*
X64050Y-58737D01*
X64112Y-58800D01*
X64250Y-58800D01*
X64349Y-58799D01*
X64441Y-58761D01*
X64512Y-58691D01*
X64550Y-58599D01*
X64550Y-58546D01*
X64614Y-58565D01*
X64929Y-58250D01*
X64929Y-58391D01*
X64684Y-58635D01*
X64712Y-58731D01*
X64907Y-58801D01*
X64745Y-58868D01*
X64618Y-58994D01*
X64550Y-59160D01*
X64549Y-59339D01*
X64618Y-59504D01*
X64744Y-59631D01*
X64910Y-59699D01*
X65089Y-59700D01*
X65254Y-59631D01*
X65330Y-59556D01*
X65330Y-59943D01*
X65255Y-59868D01*
X65089Y-59800D01*
X64910Y-59799D01*
X64745Y-59868D01*
X64618Y-59994D01*
X64550Y-60160D01*
X64550Y-60236D01*
X64543Y-60113D01*
X64481Y-59962D01*
X64450Y-59953D01*
X64450Y-59160D01*
X64381Y-58995D01*
X64255Y-58868D01*
X64089Y-58800D01*
X63950Y-58799D01*
X63950Y-58737D01*
X63950Y-58300D01*
X63950Y-58200D01*
X63950Y-57762D01*
X63887Y-57700D01*
X63749Y-57699D01*
X63650Y-57700D01*
X63558Y-57738D01*
X63487Y-57808D01*
X63449Y-57900D01*
X63450Y-58137D01*
X63512Y-58200D01*
X63950Y-58200D01*
X63950Y-58300D01*
X63512Y-58300D01*
X63450Y-58362D01*
X63449Y-58599D01*
X63487Y-58691D01*
X63558Y-58761D01*
X63650Y-58799D01*
X63749Y-58800D01*
X63887Y-58800D01*
X63950Y-58737D01*
X63950Y-58799D01*
X63910Y-58799D01*
X63745Y-58868D01*
X63618Y-58994D01*
X63550Y-59160D01*
X63549Y-59339D01*
X63618Y-59504D01*
X63744Y-59631D01*
X63910Y-59699D01*
X63986Y-59699D01*
X63863Y-59706D01*
X63712Y-59768D01*
X63684Y-59864D01*
X64000Y-60179D01*
X64315Y-59864D01*
X64287Y-59768D01*
X64092Y-59698D01*
X64254Y-59631D01*
X64381Y-59505D01*
X64449Y-59339D01*
X64450Y-59160D01*
X64450Y-59953D01*
X64385Y-59934D01*
X64070Y-60250D01*
X64385Y-60565D01*
X64481Y-60537D01*
X64551Y-60342D01*
X64618Y-60504D01*
X64744Y-60631D01*
X64910Y-60699D01*
X65089Y-60700D01*
X65254Y-60631D01*
X65330Y-60556D01*
X65330Y-60943D01*
X65255Y-60868D01*
X65089Y-60800D01*
X64910Y-60799D01*
X64745Y-60868D01*
X64618Y-60994D01*
X64550Y-61160D01*
X64549Y-61339D01*
X64618Y-61504D01*
X64744Y-61631D01*
X64910Y-61699D01*
X65089Y-61700D01*
X65254Y-61631D01*
X65330Y-61556D01*
X65330Y-61943D01*
X65255Y-61868D01*
X65089Y-61800D01*
X64910Y-61799D01*
X64745Y-61868D01*
X64618Y-61994D01*
X64550Y-62160D01*
X64549Y-62339D01*
X64618Y-62504D01*
X64744Y-62631D01*
X64910Y-62699D01*
X65089Y-62700D01*
X65254Y-62631D01*
X65330Y-62556D01*
X65330Y-62943D01*
X65255Y-62868D01*
X65089Y-62800D01*
X64910Y-62799D01*
X64745Y-62868D01*
X64618Y-62994D01*
X64550Y-63160D01*
X64549Y-63339D01*
X64618Y-63504D01*
X64744Y-63631D01*
X64910Y-63699D01*
X65089Y-63700D01*
X65254Y-63631D01*
X65330Y-63556D01*
X65330Y-63943D01*
X65255Y-63868D01*
X65089Y-63800D01*
X64910Y-63799D01*
X64745Y-63868D01*
X64618Y-63994D01*
X64550Y-64160D01*
X64549Y-64339D01*
X64618Y-64504D01*
X64744Y-64631D01*
X64910Y-64699D01*
X65089Y-64700D01*
X65254Y-64631D01*
X65330Y-64556D01*
X65330Y-64943D01*
X65255Y-64868D01*
X65089Y-64800D01*
X64910Y-64799D01*
X64745Y-64868D01*
X64618Y-64994D01*
X64550Y-65160D01*
X64549Y-65339D01*
X64618Y-65504D01*
X64744Y-65631D01*
X64910Y-65699D01*
X65089Y-65700D01*
X65254Y-65631D01*
X65330Y-65556D01*
X65330Y-65943D01*
X65255Y-65868D01*
X65089Y-65800D01*
X64910Y-65799D01*
X64745Y-65868D01*
X64618Y-65994D01*
X64550Y-66160D01*
X64549Y-66339D01*
X64618Y-66504D01*
X64744Y-66631D01*
X64910Y-66699D01*
X65089Y-66700D01*
X65254Y-66631D01*
X65330Y-66556D01*
X65330Y-66943D01*
X65330Y-66943D01*
G37*
G54D17*
X65330Y-66943D02*
X65255Y-66868D01*
X65089Y-66800D01*
X64910Y-66799D01*
X64745Y-66868D01*
X64618Y-66994D01*
X64550Y-67160D01*
X64549Y-67339D01*
X64618Y-67504D01*
X64693Y-67580D01*
X64306Y-67580D01*
X64381Y-67505D01*
X64449Y-67339D01*
X64450Y-67160D01*
X64450Y-66160D01*
X64450Y-65160D01*
X64450Y-64160D01*
X64450Y-63160D01*
X64450Y-62160D01*
X64450Y-61160D01*
X64381Y-60995D01*
X64255Y-60868D01*
X64089Y-60800D01*
X64013Y-60800D01*
X64136Y-60793D01*
X64287Y-60731D01*
X64315Y-60635D01*
X64000Y-60320D01*
X63929Y-60391D01*
X63929Y-60250D01*
X63614Y-59934D01*
X63518Y-59962D01*
X63445Y-60168D01*
X63456Y-60386D01*
X63518Y-60537D01*
X63614Y-60565D01*
X63929Y-60250D01*
X63929Y-60391D01*
X63684Y-60635D01*
X63712Y-60731D01*
X63907Y-60801D01*
X63745Y-60868D01*
X63618Y-60994D01*
X63550Y-61160D01*
X63549Y-61339D01*
X63618Y-61504D01*
X63744Y-61631D01*
X63910Y-61699D01*
X64089Y-61700D01*
X64254Y-61631D01*
X64381Y-61505D01*
X64449Y-61339D01*
X64450Y-61160D01*
X64450Y-62160D01*
X64381Y-61995D01*
X64255Y-61868D01*
X64089Y-61800D01*
X63910Y-61799D01*
X63745Y-61868D01*
X63618Y-61994D01*
X63550Y-62160D01*
X63549Y-62339D01*
X63618Y-62504D01*
X63744Y-62631D01*
X63910Y-62699D01*
X64089Y-62700D01*
X64254Y-62631D01*
X64381Y-62505D01*
X64449Y-62339D01*
X64450Y-62160D01*
X64450Y-63160D01*
X64381Y-62995D01*
X64255Y-62868D01*
X64089Y-62800D01*
X63910Y-62799D01*
X63745Y-62868D01*
X63618Y-62994D01*
X63550Y-63160D01*
X63549Y-63339D01*
X63618Y-63504D01*
X63744Y-63631D01*
X63910Y-63699D01*
X64089Y-63700D01*
X64254Y-63631D01*
X64381Y-63505D01*
X64449Y-63339D01*
X64450Y-63160D01*
X64450Y-64160D01*
X64381Y-63995D01*
X64255Y-63868D01*
X64089Y-63800D01*
X63910Y-63799D01*
X63745Y-63868D01*
X63618Y-63994D01*
X63550Y-64160D01*
X63549Y-64339D01*
X63618Y-64504D01*
X63744Y-64631D01*
X63910Y-64699D01*
X64089Y-64700D01*
X64254Y-64631D01*
X64381Y-64505D01*
X64449Y-64339D01*
X64450Y-64160D01*
X64450Y-65160D01*
X64381Y-64995D01*
X64255Y-64868D01*
X64089Y-64800D01*
X63910Y-64799D01*
X63745Y-64868D01*
X63618Y-64994D01*
X63550Y-65160D01*
X63549Y-65339D01*
X63618Y-65504D01*
X63744Y-65631D01*
X63910Y-65699D01*
X64089Y-65700D01*
X64254Y-65631D01*
X64381Y-65505D01*
X64449Y-65339D01*
X64450Y-65160D01*
X64450Y-66160D01*
X64381Y-65995D01*
X64255Y-65868D01*
X64089Y-65800D01*
X63910Y-65799D01*
X63745Y-65868D01*
X63618Y-65994D01*
X63550Y-66160D01*
X63549Y-66339D01*
X63618Y-66504D01*
X63744Y-66631D01*
X63910Y-66699D01*
X64089Y-66700D01*
X64254Y-66631D01*
X64381Y-66505D01*
X64449Y-66339D01*
X64450Y-66160D01*
X64450Y-67160D01*
X64381Y-66995D01*
X64255Y-66868D01*
X64089Y-66800D01*
X63910Y-66799D01*
X63745Y-66868D01*
X63618Y-66994D01*
X63550Y-67160D01*
X63549Y-67339D01*
X63618Y-67504D01*
X63693Y-67580D01*
X63142Y-67580D01*
X63142Y-51073D01*
X63119Y-51018D01*
X63077Y-50976D01*
X62688Y-50587D01*
X62633Y-50564D01*
X62573Y-50564D01*
X62518Y-50587D01*
X62476Y-50629D01*
X62321Y-50784D01*
X62321Y-50312D01*
X62256Y-50156D01*
X62137Y-50036D01*
X61981Y-49971D01*
X61812Y-49971D01*
X61656Y-50035D01*
X61536Y-50155D01*
X61471Y-50311D01*
X61471Y-50480D01*
X61535Y-50636D01*
X61655Y-50756D01*
X61811Y-50821D01*
X61980Y-50821D01*
X62136Y-50756D01*
X62256Y-50637D01*
X62321Y-50481D01*
X62321Y-50312D01*
X62321Y-50784D01*
X62087Y-51018D01*
X62064Y-51073D01*
X62064Y-51133D01*
X62087Y-51188D01*
X62129Y-51230D01*
X62518Y-51619D01*
X62573Y-51642D01*
X62633Y-51642D01*
X62688Y-51619D01*
X62730Y-51577D01*
X63119Y-51188D01*
X63142Y-51133D01*
X63142Y-51073D01*
X63142Y-67580D01*
X62950Y-67580D01*
X62950Y-64670D01*
X62950Y-64070D01*
X62927Y-64015D01*
X62885Y-63972D01*
X62829Y-63950D01*
X62770Y-63949D01*
X62170Y-63949D01*
X62115Y-63972D01*
X62072Y-64014D01*
X62050Y-64070D01*
X62049Y-64129D01*
X62049Y-64729D01*
X62072Y-64784D01*
X62114Y-64827D01*
X62170Y-64849D01*
X62229Y-64850D01*
X62829Y-64850D01*
X62884Y-64827D01*
X62927Y-64785D01*
X62949Y-64729D01*
X62950Y-64670D01*
X62950Y-67580D01*
X56529Y-67580D01*
X56297Y-67580D01*
X56297Y-47867D01*
X56000Y-47570D01*
X55702Y-47867D01*
X55727Y-47960D01*
X55924Y-48029D01*
X56132Y-48018D01*
X56272Y-47960D01*
X56297Y-47867D01*
X56297Y-67580D01*
X56275Y-67580D01*
X56275Y-59035D01*
X56225Y-58916D01*
X56150Y-58840D01*
X56150Y-57625D01*
X56174Y-57564D01*
X56175Y-57435D01*
X56125Y-57316D01*
X56034Y-57224D01*
X55914Y-57175D01*
X55785Y-57174D01*
X55666Y-57224D01*
X55574Y-57315D01*
X55525Y-57435D01*
X55524Y-57564D01*
X55574Y-57683D01*
X55665Y-57775D01*
X55750Y-57810D01*
X55750Y-58840D01*
X55674Y-58915D01*
X55625Y-59035D01*
X55624Y-59164D01*
X55674Y-59283D01*
X55765Y-59375D01*
X55885Y-59424D01*
X56014Y-59425D01*
X56133Y-59375D01*
X56225Y-59284D01*
X56274Y-59164D01*
X56275Y-59035D01*
X56275Y-67580D01*
X55125Y-67580D01*
X55125Y-50435D01*
X55075Y-50316D01*
X54984Y-50224D01*
X54950Y-50210D01*
X54950Y-47962D01*
X54950Y-47550D01*
X54537Y-47550D01*
X54475Y-47612D01*
X54474Y-47725D01*
X54475Y-47824D01*
X54513Y-47916D01*
X54583Y-47987D01*
X54675Y-48025D01*
X54887Y-48025D01*
X54950Y-47962D01*
X54950Y-50210D01*
X54864Y-50175D01*
X54735Y-50174D01*
X54616Y-50224D01*
X54524Y-50315D01*
X54475Y-50435D01*
X54474Y-50564D01*
X54500Y-50625D01*
X54500Y-52040D01*
X54424Y-52115D01*
X54375Y-52235D01*
X54374Y-52364D01*
X54424Y-52483D01*
X54515Y-52575D01*
X54635Y-52624D01*
X54764Y-52625D01*
X54883Y-52575D01*
X54975Y-52484D01*
X55024Y-52364D01*
X55025Y-52235D01*
X54975Y-52116D01*
X54900Y-52040D01*
X54900Y-50810D01*
X54983Y-50775D01*
X55075Y-50684D01*
X55124Y-50564D01*
X55125Y-50435D01*
X55125Y-67580D01*
X54029Y-67580D01*
X54029Y-52825D01*
X54018Y-52617D01*
X53960Y-52477D01*
X53867Y-52452D01*
X53797Y-52523D01*
X53797Y-52382D01*
X53772Y-52289D01*
X53575Y-52220D01*
X53367Y-52231D01*
X53227Y-52289D01*
X53202Y-52382D01*
X53500Y-52679D01*
X53797Y-52382D01*
X53797Y-52523D01*
X53570Y-52750D01*
X53867Y-53047D01*
X53960Y-53022D01*
X54029Y-52825D01*
X54029Y-67580D01*
X53950Y-67580D01*
X53950Y-54410D01*
X53881Y-54245D01*
X53797Y-54160D01*
X53797Y-53117D01*
X53500Y-52820D01*
X53429Y-52891D01*
X53429Y-52750D01*
X53132Y-52452D01*
X53039Y-52477D01*
X53025Y-52518D01*
X53024Y-52425D01*
X52986Y-52333D01*
X52916Y-52262D01*
X52824Y-52224D01*
X52612Y-52225D01*
X52550Y-52287D01*
X52550Y-52700D01*
X52557Y-52700D01*
X52557Y-52800D01*
X52550Y-52800D01*
X52550Y-53212D01*
X52612Y-53275D01*
X52824Y-53275D01*
X52916Y-53237D01*
X52986Y-53166D01*
X53024Y-53074D01*
X53025Y-52987D01*
X53039Y-53022D01*
X53132Y-53047D01*
X53429Y-52750D01*
X53429Y-52891D01*
X53202Y-53117D01*
X53227Y-53210D01*
X53424Y-53279D01*
X53632Y-53268D01*
X53772Y-53210D01*
X53797Y-53117D01*
X53797Y-54160D01*
X53755Y-54118D01*
X53589Y-54050D01*
X53410Y-54049D01*
X53245Y-54118D01*
X53118Y-54244D01*
X53050Y-54410D01*
X53049Y-54589D01*
X53118Y-54754D01*
X53244Y-54881D01*
X53410Y-54949D01*
X53589Y-54950D01*
X53754Y-54881D01*
X53881Y-54755D01*
X53949Y-54589D01*
X53950Y-54410D01*
X53950Y-67580D01*
X52950Y-67580D01*
X52950Y-54410D01*
X52881Y-54245D01*
X52755Y-54118D01*
X52589Y-54050D01*
X52450Y-54049D01*
X52450Y-53212D01*
X52450Y-52800D01*
X52450Y-52700D01*
X52450Y-52287D01*
X52387Y-52225D01*
X52175Y-52224D01*
X52083Y-52262D01*
X52013Y-52333D01*
X51975Y-52425D01*
X51974Y-52524D01*
X51975Y-52637D01*
X52037Y-52700D01*
X52450Y-52700D01*
X52450Y-52800D01*
X52037Y-52800D01*
X51975Y-52862D01*
X51974Y-52975D01*
X51975Y-53074D01*
X52013Y-53166D01*
X52083Y-53237D01*
X52175Y-53275D01*
X52387Y-53275D01*
X52450Y-53212D01*
X52450Y-54049D01*
X52410Y-54049D01*
X52245Y-54118D01*
X52118Y-54244D01*
X52050Y-54410D01*
X52049Y-54589D01*
X52118Y-54754D01*
X52244Y-54881D01*
X52410Y-54949D01*
X52589Y-54950D01*
X52754Y-54881D01*
X52881Y-54755D01*
X52949Y-54589D01*
X52950Y-54410D01*
X52950Y-67580D01*
X52225Y-67580D01*
X52225Y-55385D01*
X52175Y-55266D01*
X52084Y-55174D01*
X51964Y-55125D01*
X51857Y-55124D01*
X51700Y-54967D01*
X51700Y-54950D01*
X51829Y-54950D01*
X51884Y-54927D01*
X51927Y-54885D01*
X51949Y-54829D01*
X51950Y-54770D01*
X51950Y-54170D01*
X51927Y-54115D01*
X51885Y-54072D01*
X51829Y-54050D01*
X51770Y-54049D01*
X51170Y-54049D01*
X51115Y-54072D01*
X51072Y-54114D01*
X51050Y-54170D01*
X51049Y-54229D01*
X51049Y-54829D01*
X51072Y-54884D01*
X51114Y-54927D01*
X51170Y-54949D01*
X51229Y-54950D01*
X51300Y-54950D01*
X51300Y-55050D01*
X51315Y-55126D01*
X51358Y-55191D01*
X51575Y-55407D01*
X51574Y-55514D01*
X51624Y-55633D01*
X51715Y-55725D01*
X51835Y-55774D01*
X51964Y-55775D01*
X52083Y-55725D01*
X52175Y-55634D01*
X52224Y-55514D01*
X52225Y-55385D01*
X52225Y-67580D01*
X50975Y-67580D01*
X50975Y-49635D01*
X50925Y-49516D01*
X50834Y-49424D01*
X50714Y-49375D01*
X50585Y-49374D01*
X50466Y-49424D01*
X50374Y-49515D01*
X50325Y-49635D01*
X50324Y-49764D01*
X50374Y-49883D01*
X50450Y-49959D01*
X50450Y-50167D01*
X50442Y-50175D01*
X50335Y-50174D01*
X50216Y-50224D01*
X50124Y-50315D01*
X50075Y-50435D01*
X50074Y-50564D01*
X50124Y-50683D01*
X50215Y-50775D01*
X50335Y-50824D01*
X50464Y-50825D01*
X50583Y-50775D01*
X50675Y-50684D01*
X50724Y-50564D01*
X50725Y-50457D01*
X50791Y-50391D01*
X50791Y-50391D01*
X50820Y-50348D01*
X50834Y-50326D01*
X50834Y-50326D01*
X50849Y-50250D01*
X50850Y-50250D01*
X50850Y-49959D01*
X50925Y-49884D01*
X50974Y-49764D01*
X50975Y-49635D01*
X50975Y-67580D01*
X50725Y-67580D01*
X50725Y-56785D01*
X50675Y-56666D01*
X50584Y-56574D01*
X50464Y-56525D01*
X50335Y-56524D01*
X50216Y-56574D01*
X50124Y-56665D01*
X50075Y-56785D01*
X50074Y-56892D01*
X49742Y-57225D01*
X49635Y-57224D01*
X49516Y-57274D01*
X49424Y-57365D01*
X49375Y-57485D01*
X49374Y-57614D01*
X49424Y-57733D01*
X49515Y-57825D01*
X49635Y-57874D01*
X49764Y-57875D01*
X49883Y-57825D01*
X49975Y-57734D01*
X50024Y-57614D01*
X50025Y-57507D01*
X50357Y-57174D01*
X50464Y-57175D01*
X50583Y-57125D01*
X50675Y-57034D01*
X50724Y-56914D01*
X50725Y-56785D01*
X50725Y-67580D01*
X38300Y-67580D01*
X38300Y-66729D01*
X36770Y-65200D01*
X36700Y-65200D01*
X36700Y-63910D01*
X36700Y-62910D01*
X36700Y-61910D01*
X36700Y-60910D01*
X36700Y-59910D01*
X36700Y-55160D01*
X36700Y-54160D01*
X36700Y-53160D01*
X36700Y-52160D01*
X36700Y-51160D01*
X36631Y-50995D01*
X36505Y-50868D01*
X36339Y-50800D01*
X36160Y-50799D01*
X35995Y-50868D01*
X35868Y-50994D01*
X35800Y-51160D01*
X35799Y-51339D01*
X35868Y-51504D01*
X35994Y-51631D01*
X36160Y-51699D01*
X36339Y-51700D01*
X36504Y-51631D01*
X36631Y-51505D01*
X36699Y-51339D01*
X36700Y-51160D01*
X36700Y-52160D01*
X36631Y-51995D01*
X36505Y-51868D01*
X36339Y-51800D01*
X36160Y-51799D01*
X35995Y-51868D01*
X35868Y-51994D01*
X35800Y-52160D01*
X35799Y-52339D01*
X35868Y-52504D01*
X35994Y-52631D01*
X36160Y-52699D01*
X36339Y-52700D01*
X36504Y-52631D01*
X36631Y-52505D01*
X36699Y-52339D01*
X36700Y-52160D01*
X36700Y-53160D01*
X36631Y-52995D01*
X36505Y-52868D01*
X36339Y-52800D01*
X36160Y-52799D01*
X35995Y-52868D01*
X35868Y-52994D01*
X35800Y-53160D01*
X35799Y-53339D01*
X35868Y-53504D01*
X35994Y-53631D01*
X36160Y-53699D01*
X36339Y-53700D01*
X36504Y-53631D01*
X36631Y-53505D01*
X36699Y-53339D01*
X36700Y-53160D01*
X36700Y-54160D01*
X36631Y-53995D01*
X36505Y-53868D01*
X36339Y-53800D01*
X36160Y-53799D01*
X35995Y-53868D01*
X35868Y-53994D01*
X35800Y-54160D01*
X35799Y-54339D01*
X35868Y-54504D01*
X35994Y-54631D01*
X36160Y-54699D01*
X36339Y-54700D01*
X36504Y-54631D01*
X36631Y-54505D01*
X36699Y-54339D01*
X36700Y-54160D01*
X36700Y-55160D01*
X36631Y-54995D01*
X36505Y-54868D01*
X36339Y-54800D01*
X36160Y-54799D01*
X35995Y-54868D01*
X35868Y-54994D01*
X35800Y-55160D01*
X35799Y-55339D01*
X35868Y-55504D01*
X35994Y-55631D01*
X36160Y-55699D01*
X36339Y-55700D01*
X36504Y-55631D01*
X36631Y-55505D01*
X36699Y-55339D01*
X36700Y-55160D01*
X36700Y-59910D01*
X36700Y-59910D01*
X36700Y-59270D01*
X36700Y-58670D01*
X36677Y-58615D01*
X36635Y-58572D01*
X36579Y-58550D01*
X36520Y-58549D01*
X35920Y-58549D01*
X35865Y-58572D01*
X35822Y-58614D01*
X35800Y-58670D01*
X35799Y-58729D01*
X35799Y-59329D01*
X35822Y-59384D01*
X35864Y-59427D01*
X35920Y-59449D01*
X35979Y-59450D01*
X36579Y-59450D01*
X36634Y-59427D01*
X36677Y-59385D01*
X36699Y-59329D01*
X36700Y-59270D01*
X36700Y-59910D01*
X36631Y-59745D01*
X36505Y-59618D01*
X36339Y-59550D01*
X36160Y-59549D01*
X35995Y-59618D01*
X35868Y-59744D01*
X35800Y-59910D01*
X35799Y-60089D01*
X35868Y-60254D01*
X35994Y-60381D01*
X36160Y-60449D01*
X36339Y-60450D01*
X36504Y-60381D01*
X36631Y-60255D01*
X36699Y-60089D01*
X36700Y-59910D01*
X36700Y-60910D01*
X36631Y-60745D01*
X36505Y-60618D01*
X36339Y-60550D01*
X36160Y-60549D01*
X35995Y-60618D01*
X35868Y-60744D01*
X35800Y-60910D01*
X35799Y-61089D01*
X35868Y-61254D01*
X35994Y-61381D01*
X36160Y-61449D01*
X36339Y-61450D01*
X36504Y-61381D01*
X36631Y-61255D01*
X36699Y-61089D01*
X36700Y-60910D01*
X36700Y-61910D01*
X36631Y-61745D01*
X36505Y-61618D01*
X36339Y-61550D01*
X36160Y-61549D01*
X35995Y-61618D01*
X35868Y-61744D01*
X35800Y-61910D01*
X35799Y-62089D01*
X35868Y-62254D01*
X35994Y-62381D01*
X36160Y-62449D01*
X36339Y-62450D01*
X36504Y-62381D01*
X36631Y-62255D01*
X36699Y-62089D01*
X36700Y-61910D01*
X36700Y-62910D01*
X36631Y-62745D01*
X36505Y-62618D01*
X36339Y-62550D01*
X36160Y-62549D01*
X35995Y-62618D01*
X35868Y-62744D01*
X35800Y-62910D01*
X35799Y-63089D01*
X35868Y-63254D01*
X35994Y-63381D01*
X36160Y-63449D01*
X36339Y-63450D01*
X36504Y-63381D01*
X36631Y-63255D01*
X36699Y-63089D01*
X36700Y-62910D01*
X36700Y-63910D01*
X36631Y-63745D01*
X36505Y-63618D01*
X36339Y-63550D01*
X36160Y-63549D01*
X35995Y-63618D01*
X35868Y-63744D01*
X35800Y-63910D01*
X35799Y-64089D01*
X35868Y-64254D01*
X35994Y-64381D01*
X36160Y-64449D01*
X36339Y-64450D01*
X36504Y-64381D01*
X36631Y-64255D01*
X36699Y-64089D01*
X36700Y-63910D01*
X36700Y-65200D01*
X35669Y-65200D01*
X35669Y-49800D01*
X35920Y-49800D01*
X35865Y-49822D01*
X35822Y-49864D01*
X35800Y-49920D01*
X35799Y-49979D01*
X35799Y-50579D01*
X35822Y-50634D01*
X35864Y-50677D01*
X35920Y-50699D01*
X35979Y-50700D01*
X36579Y-50700D01*
X36634Y-50677D01*
X36677Y-50635D01*
X36699Y-50579D01*
X36700Y-50520D01*
X36700Y-49920D01*
X36677Y-49865D01*
X36635Y-49822D01*
X36579Y-49800D01*
X36550Y-49800D01*
X36770Y-49800D01*
X38300Y-48270D01*
X38300Y-47169D01*
X50550Y-47169D01*
X50550Y-47170D01*
X50549Y-47229D01*
X50549Y-47829D01*
X50572Y-47884D01*
X50614Y-47927D01*
X50670Y-47949D01*
X50729Y-47950D01*
X51329Y-47950D01*
X51384Y-47927D01*
X51427Y-47885D01*
X51449Y-47829D01*
X51450Y-47770D01*
X51450Y-47170D01*
X51449Y-47169D01*
X51693Y-47169D01*
X51618Y-47244D01*
X51550Y-47410D01*
X51549Y-47589D01*
X51618Y-47754D01*
X51744Y-47881D01*
X51800Y-47904D01*
X51800Y-47917D01*
X51542Y-48175D01*
X51435Y-48174D01*
X51316Y-48224D01*
X51224Y-48315D01*
X51175Y-48435D01*
X51174Y-48564D01*
X51224Y-48683D01*
X51315Y-48775D01*
X51435Y-48824D01*
X51564Y-48825D01*
X51683Y-48775D01*
X51775Y-48684D01*
X51824Y-48564D01*
X51825Y-48457D01*
X52141Y-48141D01*
X52184Y-48076D01*
X52184Y-48076D01*
X52187Y-48063D01*
X52199Y-48000D01*
X52200Y-48000D01*
X52200Y-47904D01*
X52254Y-47881D01*
X52381Y-47755D01*
X52449Y-47589D01*
X52450Y-47410D01*
X52381Y-47245D01*
X52306Y-47169D01*
X52693Y-47169D01*
X52618Y-47244D01*
X52550Y-47410D01*
X52549Y-47589D01*
X52618Y-47754D01*
X52744Y-47881D01*
X52910Y-47949D01*
X53089Y-47950D01*
X53254Y-47881D01*
X53381Y-47755D01*
X53449Y-47589D01*
X53450Y-47410D01*
X53381Y-47245D01*
X53306Y-47169D01*
X54477Y-47169D01*
X54475Y-47175D01*
X54474Y-47274D01*
X54475Y-47387D01*
X54537Y-47450D01*
X54950Y-47450D01*
X54950Y-47442D01*
X55050Y-47442D01*
X55050Y-47450D01*
X55057Y-47450D01*
X55057Y-47550D01*
X55050Y-47550D01*
X55050Y-47962D01*
X55112Y-48025D01*
X55324Y-48025D01*
X55416Y-47987D01*
X55486Y-47916D01*
X55524Y-47824D01*
X55525Y-47737D01*
X55539Y-47772D01*
X55632Y-47797D01*
X55929Y-47500D01*
X55923Y-47494D01*
X55994Y-47423D01*
X56000Y-47429D01*
X56005Y-47423D01*
X56076Y-47494D01*
X56070Y-47500D01*
X56367Y-47797D01*
X56460Y-47772D01*
X56529Y-47575D01*
X56518Y-47367D01*
X56460Y-47227D01*
X56367Y-47202D01*
X56401Y-47169D01*
X62700Y-47169D01*
X62700Y-48270D01*
X64229Y-49800D01*
X65330Y-49800D01*
X65330Y-57848D01*
X65315Y-57864D01*
X65287Y-57768D01*
X65081Y-57695D01*
X64863Y-57706D01*
X64712Y-57768D01*
X64684Y-57864D01*
X65000Y-58179D01*
X65005Y-58173D01*
X65076Y-58244D01*
X65070Y-58250D01*
X65076Y-58255D01*
X65005Y-58326D01*
X65000Y-58320D01*
X64929Y-58391D01*
X64929Y-58250D01*
X64614Y-57934D01*
X64550Y-57953D01*
X64550Y-57900D01*
X64512Y-57808D01*
X64450Y-57746D01*
X64450Y-56020D01*
X64450Y-55420D01*
X64427Y-55365D01*
X64385Y-55322D01*
X64329Y-55300D01*
X64270Y-55299D01*
X63892Y-55299D01*
X63892Y-50323D01*
X63869Y-50268D01*
X63827Y-50226D01*
X63438Y-49837D01*
X63383Y-49814D01*
X63323Y-49814D01*
X63268Y-49837D01*
X63226Y-49879D01*
X63071Y-50034D01*
X63071Y-49562D01*
X63006Y-49406D01*
X62887Y-49286D01*
X62731Y-49221D01*
X62562Y-49221D01*
X62406Y-49285D01*
X62286Y-49405D01*
X62221Y-49561D01*
X62221Y-49730D01*
X62285Y-49886D01*
X62405Y-50006D01*
X62561Y-50071D01*
X62730Y-50071D01*
X62886Y-50006D01*
X63006Y-49887D01*
X63071Y-49731D01*
X63071Y-49562D01*
X63071Y-50034D01*
X62837Y-50268D01*
X62814Y-50323D01*
X62814Y-50383D01*
X62837Y-50438D01*
X62879Y-50480D01*
X63268Y-50869D01*
X63323Y-50892D01*
X63383Y-50892D01*
X63438Y-50869D01*
X63480Y-50827D01*
X63869Y-50438D01*
X63892Y-50383D01*
X63892Y-50323D01*
X63892Y-55299D01*
X63670Y-55299D01*
X63615Y-55322D01*
X63572Y-55364D01*
X63550Y-55420D01*
X63549Y-55479D01*
X63549Y-56079D01*
X63572Y-56134D01*
X63614Y-56177D01*
X63670Y-56199D01*
X63729Y-56200D01*
X64329Y-56200D01*
X64384Y-56177D01*
X64427Y-56135D01*
X64449Y-56079D01*
X64450Y-56020D01*
X64450Y-57746D01*
X64441Y-57738D01*
X64349Y-57700D01*
X64250Y-57699D01*
X64112Y-57700D01*
X64050Y-57762D01*
X64050Y-58200D01*
X64057Y-58200D01*
X64057Y-58300D01*
X64050Y-58300D01*
X64050Y-58737D01*
X64112Y-58800D01*
X64250Y-58800D01*
X64349Y-58799D01*
X64441Y-58761D01*
X64512Y-58691D01*
X64550Y-58599D01*
X64550Y-58546D01*
X64614Y-58565D01*
X64929Y-58250D01*
X64929Y-58391D01*
X64684Y-58635D01*
X64712Y-58731D01*
X64907Y-58801D01*
X64745Y-58868D01*
X64618Y-58994D01*
X64550Y-59160D01*
X64549Y-59339D01*
X64618Y-59504D01*
X64744Y-59631D01*
X64910Y-59699D01*
X65089Y-59700D01*
X65254Y-59631D01*
X65330Y-59556D01*
X65330Y-59943D01*
X65255Y-59868D01*
X65089Y-59800D01*
X64910Y-59799D01*
X64745Y-59868D01*
X64618Y-59994D01*
X64550Y-60160D01*
X64550Y-60236D01*
X64543Y-60113D01*
X64481Y-59962D01*
X64450Y-59953D01*
X64450Y-59160D01*
X64381Y-58995D01*
X64255Y-58868D01*
X64089Y-58800D01*
X63950Y-58799D01*
X63950Y-58737D01*
X63950Y-58300D01*
X63950Y-58200D01*
X63950Y-57762D01*
X63887Y-57700D01*
X63749Y-57699D01*
X63650Y-57700D01*
X63558Y-57738D01*
X63487Y-57808D01*
X63449Y-57900D01*
X63450Y-58137D01*
X63512Y-58200D01*
X63950Y-58200D01*
X63950Y-58300D01*
X63512Y-58300D01*
X63450Y-58362D01*
X63449Y-58599D01*
X63487Y-58691D01*
X63558Y-58761D01*
X63650Y-58799D01*
X63749Y-58800D01*
X63887Y-58800D01*
X63950Y-58737D01*
X63950Y-58799D01*
X63910Y-58799D01*
X63745Y-58868D01*
X63618Y-58994D01*
X63550Y-59160D01*
X63549Y-59339D01*
X63618Y-59504D01*
X63744Y-59631D01*
X63910Y-59699D01*
X63986Y-59699D01*
X63863Y-59706D01*
X63712Y-59768D01*
X63684Y-59864D01*
X64000Y-60179D01*
X64315Y-59864D01*
X64287Y-59768D01*
X64092Y-59698D01*
X64254Y-59631D01*
X64381Y-59505D01*
X64449Y-59339D01*
X64450Y-59160D01*
X64450Y-59953D01*
X64385Y-59934D01*
X64070Y-60250D01*
X64385Y-60565D01*
X64481Y-60537D01*
X64551Y-60342D01*
X64618Y-60504D01*
X64744Y-60631D01*
X64910Y-60699D01*
X65089Y-60700D01*
X65254Y-60631D01*
X65330Y-60556D01*
X65330Y-60943D01*
X65255Y-60868D01*
X65089Y-60800D01*
X64910Y-60799D01*
X64745Y-60868D01*
X64618Y-60994D01*
X64550Y-61160D01*
X64549Y-61339D01*
X64618Y-61504D01*
X64744Y-61631D01*
X64910Y-61699D01*
X65089Y-61700D01*
X65254Y-61631D01*
X65330Y-61556D01*
X65330Y-61943D01*
X65255Y-61868D01*
X65089Y-61800D01*
X64910Y-61799D01*
X64745Y-61868D01*
X64618Y-61994D01*
X64550Y-62160D01*
X64549Y-62339D01*
X64618Y-62504D01*
X64744Y-62631D01*
X64910Y-62699D01*
X65089Y-62700D01*
X65254Y-62631D01*
X65330Y-62556D01*
X65330Y-62943D01*
X65255Y-62868D01*
X65089Y-62800D01*
X64910Y-62799D01*
X64745Y-62868D01*
X64618Y-62994D01*
X64550Y-63160D01*
X64549Y-63339D01*
X64618Y-63504D01*
X64744Y-63631D01*
X64910Y-63699D01*
X65089Y-63700D01*
X65254Y-63631D01*
X65330Y-63556D01*
X65330Y-63943D01*
X65255Y-63868D01*
X65089Y-63800D01*
X64910Y-63799D01*
X64745Y-63868D01*
X64618Y-63994D01*
X64550Y-64160D01*
X64549Y-64339D01*
X64618Y-64504D01*
X64744Y-64631D01*
X64910Y-64699D01*
X65089Y-64700D01*
X65254Y-64631D01*
X65330Y-64556D01*
X65330Y-64943D01*
X65255Y-64868D01*
X65089Y-64800D01*
X64910Y-64799D01*
X64745Y-64868D01*
X64618Y-64994D01*
X64550Y-65160D01*
X64549Y-65339D01*
X64618Y-65504D01*
X64744Y-65631D01*
X64910Y-65699D01*
X65089Y-65700D01*
X65254Y-65631D01*
X65330Y-65556D01*
X65330Y-65943D01*
X65255Y-65868D01*
X65089Y-65800D01*
X64910Y-65799D01*
X64745Y-65868D01*
X64618Y-65994D01*
X64550Y-66160D01*
X64549Y-66339D01*
X64618Y-66504D01*
X64744Y-66631D01*
X64910Y-66699D01*
X65089Y-66700D01*
X65254Y-66631D01*
X65330Y-66556D01*
X65330Y-66943D01*
M02*
