G04 (created by PCBNEW (2013-07-07 BZR 4022)-stable) date 16/12/2013 14:51:33*
%MOIN*%
G04 Gerber Fmt 3.4, Leading zero omitted, Abs format*
%FSLAX34Y34*%
G01*
G70*
G90*
G04 APERTURE LIST*
%ADD10C,0.00590551*%
%ADD11R,0.02X0.045*%
%ADD12R,0.055X0.035*%
%ADD13R,0.06X0.06*%
%ADD14C,0.06*%
%ADD15R,0.1X0.1*%
%ADD16C,0.1*%
%ADD17R,0.05X0.038*%
%ADD18R,0.035X0.055*%
%ADD19R,0.0472X0.0472*%
%ADD20R,0.055X0.055*%
%ADD21C,0.055*%
%ADD22C,0.04*%
%ADD23C,0.065*%
%ADD24C,0.01*%
%ADD25C,0.0154*%
%ADD26C,0.02*%
%ADD27C,0.0544*%
%ADD28C,0.03*%
G04 APERTURE END LIST*
G54D10*
G54D11*
X80225Y-52425D03*
X80225Y-50325D03*
X79725Y-52425D03*
X79225Y-52425D03*
X78725Y-52425D03*
X79725Y-50325D03*
X79225Y-50325D03*
X78725Y-50325D03*
X82725Y-56425D03*
X82725Y-54325D03*
X82225Y-56425D03*
X81725Y-56425D03*
X81225Y-56425D03*
X82225Y-54325D03*
X81725Y-54325D03*
X81225Y-54325D03*
X80225Y-55425D03*
X80225Y-53325D03*
X79725Y-55425D03*
X79225Y-55425D03*
X78725Y-55425D03*
X79725Y-53325D03*
X79225Y-53325D03*
X78725Y-53325D03*
X82725Y-53425D03*
X82725Y-51325D03*
X82225Y-53425D03*
X81725Y-53425D03*
X81225Y-53425D03*
X82225Y-51325D03*
X81725Y-51325D03*
X81225Y-51325D03*
X80225Y-49425D03*
X80225Y-47325D03*
X79725Y-49425D03*
X79225Y-49425D03*
X78725Y-49425D03*
X79725Y-47325D03*
X79225Y-47325D03*
X78725Y-47325D03*
X82725Y-50425D03*
X82725Y-48325D03*
X82225Y-50425D03*
X81725Y-50425D03*
X81225Y-50425D03*
X82225Y-48325D03*
X81725Y-48325D03*
X81225Y-48325D03*
G54D12*
X77975Y-56250D03*
X77975Y-55500D03*
X77975Y-54750D03*
X77975Y-54000D03*
X77975Y-51500D03*
X77975Y-50750D03*
X77975Y-53250D03*
X77975Y-52500D03*
X78025Y-48300D03*
X78025Y-47550D03*
X77975Y-49750D03*
X77975Y-49000D03*
G54D13*
X70000Y-49984D03*
G54D14*
X71000Y-49984D03*
X70000Y-50984D03*
X71000Y-50984D03*
X70000Y-51984D03*
X71000Y-51984D03*
X70000Y-52984D03*
X71000Y-52984D03*
X70000Y-53984D03*
X71000Y-53984D03*
X70000Y-54984D03*
X71000Y-54984D03*
X70000Y-55984D03*
X71000Y-55984D03*
X70000Y-56984D03*
X71000Y-56984D03*
X70000Y-57984D03*
X71000Y-57984D03*
X70000Y-58984D03*
X71000Y-58984D03*
G54D15*
X87550Y-54450D03*
G54D16*
X87550Y-52450D03*
X87550Y-50450D03*
G54D15*
X87550Y-58450D03*
G54D16*
X87550Y-56450D03*
G54D15*
X87550Y-48450D03*
G54D16*
X87550Y-46450D03*
G54D13*
X73850Y-49984D03*
G54D14*
X74850Y-49984D03*
X73850Y-50984D03*
X74850Y-50984D03*
X73850Y-51984D03*
X74850Y-51984D03*
X73850Y-52984D03*
X74850Y-52984D03*
X73850Y-53984D03*
X74850Y-53984D03*
X73850Y-54984D03*
X74850Y-54984D03*
X73850Y-55984D03*
X74850Y-55984D03*
X73850Y-56984D03*
X74850Y-56984D03*
X73850Y-57984D03*
X74850Y-57984D03*
X73850Y-58984D03*
X74850Y-58984D03*
G54D15*
X76550Y-46700D03*
G54D16*
X74550Y-46700D03*
X72550Y-46700D03*
G54D17*
X80290Y-57790D03*
X80290Y-56500D03*
G54D18*
X77425Y-58450D03*
X78175Y-58450D03*
G54D19*
X79300Y-58713D03*
X79300Y-57887D03*
G54D20*
X84600Y-47950D03*
G54D21*
X84600Y-46950D03*
G54D20*
X84750Y-49950D03*
G54D21*
X84750Y-48950D03*
G54D20*
X84350Y-51950D03*
G54D21*
X84350Y-50950D03*
G54D20*
X84350Y-52950D03*
G54D21*
X84350Y-53950D03*
G54D20*
X84350Y-54950D03*
G54D21*
X84350Y-55950D03*
G54D20*
X85000Y-56950D03*
G54D21*
X85000Y-57950D03*
G54D20*
X79550Y-45950D03*
G54D21*
X78550Y-45950D03*
G54D20*
X83800Y-46950D03*
G54D21*
X83800Y-47950D03*
G54D12*
X76600Y-50225D03*
X76600Y-50975D03*
X76700Y-51775D03*
X76700Y-52525D03*
X76900Y-53075D03*
X76900Y-53825D03*
X77050Y-54375D03*
X77050Y-55125D03*
X77100Y-55725D03*
X77100Y-56475D03*
X77350Y-57025D03*
X77350Y-57775D03*
G54D22*
X86550Y-58700D03*
X86050Y-58950D03*
X85550Y-58700D03*
X85050Y-58950D03*
G54D23*
X84300Y-58950D03*
X83550Y-58950D03*
X83550Y-58200D03*
X83300Y-57450D03*
X82550Y-57200D03*
X81800Y-57200D03*
X81050Y-57450D03*
X80550Y-58450D03*
X80050Y-58950D03*
X78050Y-46700D03*
G54D22*
X77050Y-58950D03*
X72060Y-58810D03*
X74450Y-57580D03*
G54D23*
X82225Y-49025D03*
X80375Y-48425D03*
G54D22*
X80850Y-47500D03*
X82900Y-48850D03*
X83000Y-52100D03*
X75850Y-55450D03*
X70050Y-48450D03*
X70050Y-47450D03*
X70550Y-47950D03*
X71050Y-47450D03*
X71550Y-46950D03*
X72300Y-45700D03*
X73050Y-45700D03*
X74800Y-45700D03*
X74050Y-45700D03*
X73550Y-46200D03*
X73550Y-46950D03*
X72550Y-47950D03*
X72050Y-48200D03*
X71550Y-48700D03*
X71800Y-50200D03*
X72050Y-49700D03*
X71800Y-49200D03*
X75050Y-47950D03*
X74550Y-49200D03*
X74050Y-48950D03*
X74550Y-48450D03*
X75050Y-48950D03*
X75550Y-49450D03*
X76450Y-57300D03*
X76100Y-52450D03*
X75850Y-54450D03*
X76450Y-56050D03*
X76900Y-58200D03*
X87800Y-57450D03*
X86800Y-57200D03*
X86550Y-56700D03*
X86300Y-57200D03*
X85800Y-56700D03*
X86550Y-55200D03*
X86050Y-54700D03*
X85550Y-55200D03*
X85050Y-54700D03*
X86800Y-53200D03*
X87550Y-53450D03*
X86550Y-52700D03*
X86050Y-52200D03*
X85050Y-52200D03*
X85550Y-51700D03*
X86550Y-51700D03*
X87550Y-51450D03*
X86300Y-48200D03*
X85800Y-47700D03*
X85300Y-48200D03*
X86050Y-49700D03*
X85550Y-50200D03*
X86050Y-53200D03*
X85550Y-52700D03*
X85050Y-53200D03*
G54D23*
X80375Y-51125D03*
X83050Y-46950D03*
X83550Y-46200D03*
X84050Y-45700D03*
X84550Y-46200D03*
X85050Y-45700D03*
X85550Y-46200D03*
X86050Y-45700D03*
X86550Y-46200D03*
X86800Y-45700D03*
X79550Y-46700D03*
X80300Y-46700D03*
X83050Y-47950D03*
X78550Y-56950D03*
X79300Y-56950D03*
X79550Y-56200D03*
X78800Y-56200D03*
X75550Y-47450D03*
X75550Y-48450D03*
X76050Y-48950D03*
X76550Y-48450D03*
X76050Y-47950D03*
X77050Y-47950D03*
X78925Y-48225D03*
X80375Y-54175D03*
G54D22*
X78275Y-53075D03*
G54D23*
X78925Y-54075D03*
X79475Y-51525D03*
X82275Y-55075D03*
X83075Y-55025D03*
X78775Y-51175D03*
X81425Y-49025D03*
X79575Y-54525D03*
G54D22*
X77875Y-50175D03*
G54D23*
X79625Y-48475D03*
X82175Y-52075D03*
X81475Y-55025D03*
X81425Y-52075D03*
G54D24*
X84300Y-58950D02*
X85050Y-58950D01*
X85800Y-58950D02*
X86050Y-58950D01*
X85550Y-58700D02*
X85800Y-58950D01*
X83550Y-58200D02*
X83550Y-58950D01*
X82800Y-57450D02*
X83300Y-57450D01*
X82550Y-57200D02*
X82800Y-57450D01*
X81300Y-57200D02*
X81800Y-57200D01*
X81050Y-57450D02*
X81300Y-57200D01*
X80050Y-58950D02*
X80550Y-58450D01*
X78800Y-46700D02*
X78050Y-46700D01*
G54D25*
X70500Y-50490D02*
X70500Y-49530D01*
X70460Y-49490D02*
X70500Y-49490D01*
X70500Y-49530D02*
X70460Y-49490D01*
X70500Y-51180D02*
X70500Y-50770D01*
G54D26*
X71000Y-51984D02*
X71000Y-51950D01*
X70500Y-48750D02*
X72550Y-46700D01*
X70500Y-51450D02*
X70500Y-51180D01*
X70500Y-50770D02*
X70500Y-50490D01*
X70500Y-49490D02*
X70500Y-48750D01*
X71000Y-51950D02*
X70500Y-51450D01*
X70000Y-51984D02*
X71000Y-51984D01*
X71000Y-51984D02*
X73850Y-51984D01*
X73850Y-51984D02*
X74850Y-51984D01*
G54D25*
X77425Y-58575D02*
X77425Y-58450D01*
X77050Y-58950D02*
X77425Y-58575D01*
G54D27*
X74550Y-46700D02*
X74550Y-47100D01*
X72900Y-48750D02*
X72900Y-50984D01*
X74550Y-47100D02*
X72900Y-48750D01*
G54D24*
X78550Y-45950D02*
X75300Y-45950D01*
X75300Y-45950D02*
X74550Y-46700D01*
G54D28*
X71000Y-50984D02*
X72900Y-50984D01*
X72900Y-50984D02*
X74500Y-50984D01*
X74050Y-51034D02*
X74600Y-51034D01*
X74600Y-51034D02*
X73850Y-50984D01*
G54D27*
X82725Y-56425D02*
X83525Y-56425D01*
X84700Y-57950D02*
X85000Y-57950D01*
X84200Y-57450D02*
X84700Y-57950D01*
X84200Y-57100D02*
X84200Y-57450D01*
X83525Y-56425D02*
X84200Y-57100D01*
X81225Y-56425D02*
X80365Y-56425D01*
X80365Y-56425D02*
X80290Y-56500D01*
X85000Y-57950D02*
X87050Y-57950D01*
X87050Y-57950D02*
X87550Y-58450D01*
X82225Y-56425D02*
X82725Y-56425D01*
X81225Y-56425D02*
X81725Y-56425D01*
X81725Y-56425D02*
X82225Y-56425D01*
G54D24*
X74850Y-58984D02*
X74834Y-58984D01*
X72340Y-58530D02*
X72060Y-58810D01*
X74380Y-58530D02*
X72340Y-58530D01*
X74834Y-58984D02*
X74380Y-58530D01*
X74850Y-58984D02*
X75516Y-58984D01*
X76725Y-57775D02*
X77350Y-57775D01*
X75516Y-58984D02*
X76725Y-57775D01*
G54D27*
X80225Y-55425D02*
X80544Y-55425D01*
X84180Y-55780D02*
X84350Y-55950D01*
X80900Y-55780D02*
X84180Y-55780D01*
X80544Y-55425D02*
X80900Y-55780D01*
X84350Y-55950D02*
X87050Y-55950D01*
X87050Y-55950D02*
X87550Y-56450D01*
X79725Y-55425D02*
X80225Y-55425D01*
X79225Y-55425D02*
X79725Y-55425D01*
X78725Y-55425D02*
X79225Y-55425D01*
G54D24*
X74850Y-57984D02*
X74850Y-57980D01*
X74850Y-57980D02*
X74450Y-57580D01*
X74850Y-57984D02*
X75016Y-57984D01*
X76525Y-56475D02*
X77100Y-56475D01*
X75016Y-57984D02*
X76525Y-56475D01*
G54D27*
X82725Y-53425D02*
X83625Y-53425D01*
X84150Y-53950D02*
X84350Y-53950D01*
X83625Y-53425D02*
X84150Y-53950D01*
X84350Y-53950D02*
X87050Y-53950D01*
X87050Y-53950D02*
X87550Y-54450D01*
X82225Y-53425D02*
X82725Y-53425D01*
X81225Y-53425D02*
X81725Y-53425D01*
X81725Y-53425D02*
X82225Y-53425D01*
G54D24*
X74850Y-56984D02*
X74850Y-56965D01*
X76690Y-55125D02*
X77050Y-55125D01*
X74850Y-56965D02*
X76690Y-55125D01*
X74850Y-56984D02*
X74546Y-56984D01*
X74546Y-56984D02*
X74080Y-57450D01*
X72150Y-57450D02*
X74080Y-57450D01*
X71000Y-56984D02*
X71684Y-56984D01*
X71684Y-56984D02*
X72150Y-57450D01*
G54D27*
X80349Y-52425D02*
X80775Y-52425D01*
X84150Y-50950D02*
X84350Y-50950D01*
X83650Y-51450D02*
X84150Y-50950D01*
X83650Y-52430D02*
X83650Y-51450D01*
X83300Y-52780D02*
X83650Y-52430D01*
X81130Y-52780D02*
X83300Y-52780D01*
X80775Y-52425D02*
X81130Y-52780D01*
X84350Y-50950D02*
X87050Y-50950D01*
X87050Y-50950D02*
X87550Y-50450D01*
X79725Y-52425D02*
X80349Y-52425D01*
X78725Y-52425D02*
X79225Y-52425D01*
X80349Y-52425D02*
X80225Y-52425D01*
X79225Y-52425D02*
X79725Y-52425D01*
G54D24*
X76900Y-53825D02*
X76900Y-53850D01*
X74816Y-55984D02*
X74850Y-55984D01*
X76450Y-54350D02*
X74816Y-55984D01*
X76450Y-54300D02*
X76450Y-54350D01*
X76900Y-53850D02*
X76450Y-54300D01*
X74850Y-55984D02*
X74716Y-55984D01*
X74716Y-55984D02*
X74250Y-56450D01*
X71000Y-55984D02*
X71734Y-55984D01*
X72200Y-56450D02*
X74250Y-56450D01*
X71734Y-55984D02*
X72200Y-56450D01*
G54D27*
X84750Y-48950D02*
X84654Y-48950D01*
X83179Y-50425D02*
X82725Y-50425D01*
X84654Y-48950D02*
X83179Y-50425D01*
X84750Y-48950D02*
X87050Y-48950D01*
X87050Y-48950D02*
X87550Y-48450D01*
X81725Y-50425D02*
X82225Y-50425D01*
X82225Y-50425D02*
X82725Y-50425D01*
X81225Y-50425D02*
X81725Y-50425D01*
G54D24*
X76700Y-52525D02*
X76700Y-52600D01*
X74816Y-54984D02*
X74850Y-54984D01*
X76250Y-53550D02*
X74816Y-54984D01*
X76250Y-53050D02*
X76250Y-53550D01*
X76700Y-52600D02*
X76250Y-53050D01*
X74850Y-54984D02*
X74666Y-54984D01*
X74666Y-54984D02*
X74200Y-55450D01*
X71000Y-54984D02*
X71784Y-54984D01*
X72250Y-55450D02*
X74200Y-55450D01*
X71784Y-54984D02*
X72250Y-55450D01*
G54D27*
X80225Y-49425D02*
X80725Y-49425D01*
X83800Y-48893D02*
X83800Y-47950D01*
X82912Y-49780D02*
X83800Y-48893D01*
X81080Y-49780D02*
X82912Y-49780D01*
X80725Y-49425D02*
X81080Y-49780D01*
G54D24*
X83800Y-47950D02*
X83300Y-47450D01*
X83300Y-47450D02*
X81800Y-47450D01*
X81800Y-47450D02*
X80300Y-45950D01*
X80300Y-45950D02*
X79550Y-45950D01*
G54D27*
X79725Y-49425D02*
X80225Y-49425D01*
X79225Y-49425D02*
X79725Y-49425D01*
X78725Y-49425D02*
X79225Y-49425D01*
X84600Y-46950D02*
X87050Y-46950D01*
X87050Y-46950D02*
X87550Y-46450D01*
X83800Y-46950D02*
X84600Y-46950D01*
G54D24*
X76600Y-50975D02*
X76575Y-50975D01*
X75450Y-53384D02*
X74850Y-53984D01*
X75450Y-52100D02*
X75450Y-53384D01*
X76575Y-50975D02*
X75450Y-52100D01*
X74850Y-53984D02*
X74666Y-53984D01*
X74666Y-53984D02*
X74200Y-54450D01*
X72350Y-54450D02*
X74200Y-54450D01*
X71000Y-53984D02*
X71884Y-53984D01*
X71884Y-53984D02*
X72350Y-54450D01*
X73850Y-58984D02*
X73666Y-58984D01*
X73666Y-58984D02*
X73450Y-59200D01*
X70000Y-58984D02*
X70000Y-58950D01*
X71900Y-59200D02*
X73450Y-59200D01*
X70000Y-58950D02*
X70500Y-58450D01*
X70500Y-58450D02*
X71150Y-58450D01*
X71150Y-58450D02*
X71900Y-59200D01*
X70000Y-53984D02*
X70016Y-53984D01*
X72000Y-53500D02*
X72484Y-53984D01*
X70500Y-53500D02*
X72000Y-53500D01*
X70016Y-53984D02*
X70500Y-53500D01*
X72484Y-53984D02*
X73850Y-53984D01*
X72134Y-57984D02*
X73850Y-57984D01*
X70000Y-57984D02*
X70016Y-57984D01*
X71600Y-57450D02*
X72134Y-57984D01*
X70550Y-57450D02*
X71600Y-57450D01*
X70016Y-57984D02*
X70550Y-57450D01*
X72284Y-56984D02*
X73850Y-56984D01*
X70000Y-56984D02*
X70000Y-56950D01*
X71750Y-56450D02*
X72284Y-56984D01*
X70500Y-56450D02*
X71750Y-56450D01*
X70000Y-56950D02*
X70500Y-56450D01*
X70000Y-55984D02*
X70016Y-55984D01*
X71800Y-55450D02*
X72334Y-55984D01*
X70550Y-55450D02*
X71800Y-55450D01*
X70016Y-55984D02*
X70550Y-55450D01*
X72334Y-55984D02*
X73850Y-55984D01*
X72384Y-54984D02*
X73850Y-54984D01*
X70000Y-54984D02*
X70000Y-54950D01*
X71850Y-54450D02*
X72384Y-54984D01*
X70500Y-54450D02*
X71850Y-54450D01*
X70000Y-54950D02*
X70500Y-54450D01*
X73850Y-52984D02*
X72834Y-52984D01*
X70484Y-52500D02*
X70000Y-52984D01*
X72350Y-52500D02*
X70484Y-52500D01*
X72834Y-52984D02*
X72350Y-52500D01*
X74850Y-52984D02*
X74716Y-52984D01*
X74716Y-52984D02*
X74250Y-53450D01*
X72600Y-53450D02*
X74250Y-53450D01*
X71000Y-52984D02*
X72134Y-52984D01*
X72134Y-52984D02*
X72600Y-53450D01*
G54D28*
X81725Y-48325D02*
X81725Y-48025D01*
X81725Y-48025D02*
X81650Y-47950D01*
G54D27*
X83050Y-47950D02*
X83050Y-48200D01*
X82225Y-49025D02*
X82225Y-48325D01*
X83050Y-48200D02*
X82225Y-49025D01*
X80225Y-48275D02*
X80375Y-48425D01*
X80225Y-47325D02*
X80225Y-48275D01*
X83050Y-47950D02*
X83050Y-48700D01*
X83050Y-48700D02*
X82900Y-48850D01*
X82950Y-51150D02*
X82950Y-52050D01*
X82725Y-51825D02*
X83000Y-52100D01*
X82725Y-51325D02*
X82725Y-51825D01*
X82775Y-51325D02*
X82950Y-51150D01*
X82725Y-51325D02*
X82775Y-51325D01*
X82950Y-52050D02*
X83000Y-52100D01*
G54D24*
X71800Y-49200D02*
X71800Y-48950D01*
X70550Y-47950D02*
X70050Y-47450D01*
X71550Y-46950D02*
X71050Y-47450D01*
X73050Y-45700D02*
X72300Y-45700D01*
X74050Y-45700D02*
X74800Y-45700D01*
X73550Y-46950D02*
X73550Y-46200D01*
X72300Y-47950D02*
X72550Y-47950D01*
X72050Y-48200D02*
X72300Y-47950D01*
X71800Y-48950D02*
X71550Y-48700D01*
X72050Y-49450D02*
X72050Y-49700D01*
X71800Y-49200D02*
X72050Y-49450D01*
X74550Y-48450D02*
X75050Y-47950D01*
X74550Y-48450D02*
X74050Y-48950D01*
X75550Y-49450D02*
X75050Y-48950D01*
X85000Y-56950D02*
X85550Y-56950D01*
X87050Y-57450D02*
X87800Y-57450D01*
X86800Y-57200D02*
X87050Y-57450D01*
X86550Y-56950D02*
X86550Y-56700D01*
X86300Y-57200D02*
X86550Y-56950D01*
X85550Y-56950D02*
X85800Y-56700D01*
X84350Y-54950D02*
X84800Y-54950D01*
X85550Y-55200D02*
X86050Y-54700D01*
X84800Y-54950D02*
X85050Y-54700D01*
X86550Y-51700D02*
X87300Y-51700D01*
X86550Y-52700D02*
X86050Y-52200D01*
X85050Y-52200D02*
X85550Y-51700D01*
X87300Y-51700D02*
X87550Y-51450D01*
X84600Y-47950D02*
X85050Y-47950D01*
X85800Y-47700D02*
X86300Y-48200D01*
X85050Y-47950D02*
X85300Y-48200D01*
X84750Y-49950D02*
X85300Y-49950D01*
X85300Y-49950D02*
X85550Y-50200D01*
X84350Y-52950D02*
X84800Y-52950D01*
X85550Y-52700D02*
X86050Y-53200D01*
X84800Y-52950D02*
X85050Y-53200D01*
X73850Y-49984D02*
X74850Y-49984D01*
G54D27*
X82725Y-54325D02*
X82925Y-54325D01*
X82925Y-54325D02*
X83050Y-54450D01*
X80225Y-53325D02*
X80425Y-53325D01*
X80425Y-53325D02*
X80550Y-53450D01*
X80225Y-50325D02*
X80425Y-50325D01*
X80425Y-50325D02*
X80550Y-50200D01*
X80225Y-50325D02*
X80225Y-50975D01*
X80225Y-50975D02*
X80375Y-51125D01*
X80225Y-50975D02*
X80375Y-51125D01*
X81725Y-54325D02*
X82725Y-54325D01*
X79225Y-53325D02*
X80225Y-53325D01*
X79225Y-50325D02*
X80225Y-50325D01*
X81725Y-51325D02*
X82725Y-51325D01*
X81725Y-48325D02*
X81725Y-48275D01*
X82050Y-47950D02*
X83050Y-47950D01*
X81725Y-48275D02*
X82050Y-47950D01*
X79225Y-47325D02*
X79225Y-47025D01*
X79225Y-47025D02*
X79550Y-46700D01*
X80225Y-47325D02*
X80225Y-46775D01*
X80225Y-46775D02*
X80300Y-46700D01*
X79725Y-47325D02*
X79725Y-46875D01*
X79725Y-46875D02*
X79550Y-46700D01*
G54D24*
X83050Y-46950D02*
X83300Y-46700D01*
X83300Y-46700D02*
X83300Y-46450D01*
X83300Y-46450D02*
X83550Y-46200D01*
X84050Y-45700D02*
X84550Y-46200D01*
X85050Y-45700D02*
X85550Y-46200D01*
X86050Y-45700D02*
X86550Y-46200D01*
X80300Y-46700D02*
X79550Y-46700D01*
X82800Y-48950D02*
X81550Y-47700D01*
X81550Y-47700D02*
X81050Y-47700D01*
X87550Y-52450D02*
X85800Y-52450D01*
X85800Y-52450D02*
X84350Y-51950D01*
X82725Y-48325D02*
X82225Y-48325D01*
X77975Y-56250D02*
X78750Y-56250D01*
X78050Y-57450D02*
X78050Y-57700D01*
X78550Y-56950D02*
X78050Y-57450D01*
X79300Y-56450D02*
X79300Y-56950D01*
X79550Y-56200D02*
X79300Y-56450D01*
X78750Y-56250D02*
X78800Y-56200D01*
G54D27*
X76550Y-46700D02*
X76550Y-47450D01*
X76050Y-48950D02*
X75550Y-48450D01*
X76050Y-47950D02*
X76550Y-48450D01*
X76550Y-47450D02*
X77050Y-47950D01*
G54D24*
X78025Y-48300D02*
X78850Y-48300D01*
G54D27*
X79225Y-47925D02*
X78925Y-48225D01*
X79225Y-47925D02*
X79225Y-47325D01*
G54D24*
X78850Y-48300D02*
X78925Y-48225D01*
G54D27*
X80225Y-53325D02*
X80225Y-54025D01*
X80225Y-54025D02*
X80375Y-54175D01*
X82225Y-52025D02*
X82175Y-52075D01*
X82225Y-55025D02*
X82275Y-55075D01*
X81725Y-54775D02*
X81475Y-55025D01*
X81725Y-51775D02*
X81425Y-52075D01*
X82725Y-54675D02*
X83075Y-55025D01*
X82725Y-54325D02*
X82725Y-54675D01*
X81725Y-51325D02*
X81725Y-51775D01*
X82225Y-51325D02*
X82225Y-52025D01*
G54D24*
X78250Y-54750D02*
X78925Y-54075D01*
G54D27*
X79725Y-48375D02*
X79625Y-48475D01*
G54D24*
X77975Y-50075D02*
X77875Y-50175D01*
G54D27*
X79725Y-53325D02*
X79725Y-54375D01*
G54D24*
X77975Y-51500D02*
X78450Y-51500D01*
G54D27*
X79725Y-51275D02*
X79475Y-51525D01*
X81725Y-54325D02*
X81725Y-54775D01*
G54D24*
X78100Y-53250D02*
X78275Y-53075D01*
G54D27*
X79225Y-53775D02*
X79225Y-53325D01*
X79725Y-47325D02*
X79725Y-48375D01*
G54D24*
X77975Y-54750D02*
X78250Y-54750D01*
G54D27*
X79725Y-54375D02*
X79575Y-54525D01*
X79225Y-50725D02*
X78775Y-51175D01*
X81725Y-48325D02*
X81725Y-48725D01*
X82225Y-54325D02*
X82225Y-55025D01*
X81725Y-48725D02*
X81425Y-49025D01*
G54D24*
X77975Y-49750D02*
X77975Y-50075D01*
G54D27*
X79225Y-50725D02*
X79225Y-50325D01*
G54D24*
X77975Y-53250D02*
X78100Y-53250D01*
X78450Y-51500D02*
X78775Y-51175D01*
G54D27*
X79725Y-50325D02*
X79725Y-51275D01*
X79225Y-53775D02*
X78925Y-54075D01*
G54D24*
X76600Y-50225D02*
X76600Y-49700D01*
X77550Y-48025D02*
X78025Y-47550D01*
X77550Y-48750D02*
X77550Y-48025D01*
X76600Y-49700D02*
X77550Y-48750D01*
X78725Y-47325D02*
X78250Y-47325D01*
X78250Y-47325D02*
X78025Y-47550D01*
X76900Y-53075D02*
X76995Y-53075D01*
X77405Y-51320D02*
X77975Y-50750D01*
X77405Y-52665D02*
X77405Y-51320D01*
X76995Y-53075D02*
X77405Y-52665D01*
X77975Y-50750D02*
X77850Y-50750D01*
X78725Y-50325D02*
X78400Y-50325D01*
X78400Y-50325D02*
X77975Y-50750D01*
X77050Y-54375D02*
X77225Y-54375D01*
X77450Y-53025D02*
X77975Y-52500D01*
X77450Y-54150D02*
X77450Y-53025D01*
X77225Y-54375D02*
X77450Y-54150D01*
X77975Y-52500D02*
X77900Y-52500D01*
X80975Y-51801D02*
X80249Y-51801D01*
X80049Y-52001D02*
X78474Y-52001D01*
X81225Y-51325D02*
X81225Y-51551D01*
X78474Y-52001D02*
X77975Y-52500D01*
X81225Y-51551D02*
X80975Y-51801D01*
X80249Y-51801D02*
X80049Y-52001D01*
X77100Y-55725D02*
X77175Y-55725D01*
X77500Y-54475D02*
X77975Y-54000D01*
X77500Y-55400D02*
X77500Y-54475D01*
X77175Y-55725D02*
X77500Y-55400D01*
X78300Y-53675D02*
X77975Y-54000D01*
X78725Y-53325D02*
X78375Y-53675D01*
X78375Y-53675D02*
X78300Y-53675D01*
X77975Y-55500D02*
X77750Y-55500D01*
X77540Y-56835D02*
X77350Y-57025D01*
X77540Y-55710D02*
X77540Y-56835D01*
X77750Y-55500D02*
X77540Y-55710D01*
X78000Y-55500D02*
X78499Y-55001D01*
X80860Y-54690D02*
X81225Y-54325D01*
X80360Y-54690D02*
X80860Y-54690D01*
X80049Y-55001D02*
X80360Y-54690D01*
X78499Y-55001D02*
X80049Y-55001D01*
X77975Y-55500D02*
X78000Y-55500D01*
X76700Y-51775D02*
X76700Y-51750D01*
X77200Y-49775D02*
X77975Y-49000D01*
X77200Y-51250D02*
X77200Y-49775D01*
X76700Y-51750D02*
X77200Y-51250D01*
X77975Y-49000D02*
X77900Y-49000D01*
X81225Y-48394D02*
X80625Y-48994D01*
X81225Y-48325D02*
X81225Y-48394D01*
X80625Y-48994D02*
X77981Y-48994D01*
X77981Y-48994D02*
X77975Y-49000D01*
X79300Y-58713D02*
X78438Y-58713D01*
X78438Y-58713D02*
X78175Y-58450D01*
X80290Y-57790D02*
X79397Y-57790D01*
X79397Y-57790D02*
X79300Y-57887D01*
G54D10*
G36*
X76271Y-52150D02*
X76213Y-52208D01*
X76175Y-52300D01*
X76174Y-52399D01*
X76174Y-52700D01*
X76037Y-52837D01*
X75972Y-52935D01*
X75950Y-53050D01*
X75950Y-53425D01*
X75400Y-53975D01*
X75400Y-53875D01*
X75395Y-53863D01*
X75662Y-53596D01*
X75662Y-53596D01*
X75727Y-53498D01*
X75749Y-53384D01*
X75750Y-53384D01*
X75750Y-52224D01*
X76174Y-51799D01*
X76174Y-51999D01*
X76212Y-52091D01*
X76271Y-52150D01*
X76271Y-52150D01*
G37*
G54D24*
X76271Y-52150D02*
X76213Y-52208D01*
X76175Y-52300D01*
X76174Y-52399D01*
X76174Y-52700D01*
X76037Y-52837D01*
X75972Y-52935D01*
X75950Y-53050D01*
X75950Y-53425D01*
X75400Y-53975D01*
X75400Y-53875D01*
X75395Y-53863D01*
X75662Y-53596D01*
X75662Y-53596D01*
X75727Y-53498D01*
X75749Y-53384D01*
X75750Y-53384D01*
X75750Y-52224D01*
X76174Y-51799D01*
X76174Y-51999D01*
X76212Y-52091D01*
X76271Y-52150D01*
G54D10*
G36*
X76374Y-53950D02*
X76237Y-54087D01*
X76172Y-54185D01*
X76168Y-54207D01*
X76168Y-54207D01*
X75400Y-54975D01*
X75400Y-54875D01*
X75385Y-54839D01*
X76374Y-53849D01*
X76374Y-53950D01*
X76374Y-53950D01*
G37*
G54D24*
X76374Y-53950D02*
X76237Y-54087D01*
X76172Y-54185D01*
X76168Y-54207D01*
X76168Y-54207D01*
X75400Y-54975D01*
X75400Y-54875D01*
X75385Y-54839D01*
X76374Y-53849D01*
X76374Y-53950D01*
G54D10*
G36*
X76621Y-54750D02*
X76563Y-54808D01*
X76535Y-54874D01*
X76477Y-54912D01*
X75399Y-55990D01*
X75400Y-55875D01*
X75385Y-55839D01*
X76554Y-54670D01*
X76562Y-54691D01*
X76621Y-54750D01*
X76621Y-54750D01*
G37*
G54D24*
X76621Y-54750D02*
X76563Y-54808D01*
X76535Y-54874D01*
X76477Y-54912D01*
X75399Y-55990D01*
X75400Y-55875D01*
X75385Y-55839D01*
X76554Y-54670D01*
X76562Y-54691D01*
X76621Y-54750D01*
G54D10*
G36*
X76671Y-56100D02*
X76613Y-56158D01*
X76606Y-56175D01*
X76525Y-56175D01*
X76410Y-56197D01*
X76312Y-56262D01*
X75341Y-57234D01*
X75399Y-57093D01*
X75400Y-56875D01*
X75389Y-56849D01*
X76574Y-55664D01*
X76574Y-55949D01*
X76612Y-56041D01*
X76671Y-56100D01*
X76671Y-56100D01*
G37*
G54D24*
X76671Y-56100D02*
X76613Y-56158D01*
X76606Y-56175D01*
X76525Y-56175D01*
X76410Y-56197D01*
X76312Y-56262D01*
X75341Y-57234D01*
X75399Y-57093D01*
X75400Y-56875D01*
X75389Y-56849D01*
X76574Y-55664D01*
X76574Y-55949D01*
X76612Y-56041D01*
X76671Y-56100D01*
G54D10*
G36*
X76921Y-57400D02*
X76863Y-57458D01*
X76856Y-57475D01*
X76725Y-57475D01*
X76610Y-57497D01*
X76512Y-57562D01*
X75391Y-58684D01*
X75321Y-58684D01*
X75316Y-58672D01*
X75161Y-58518D01*
X75080Y-58484D01*
X75161Y-58450D01*
X75315Y-58295D01*
X75399Y-58093D01*
X75399Y-58024D01*
X76622Y-56801D01*
X76683Y-56861D01*
X76775Y-56899D01*
X76824Y-56899D01*
X76824Y-57249D01*
X76862Y-57341D01*
X76921Y-57400D01*
X76921Y-57400D01*
G37*
G54D24*
X76921Y-57400D02*
X76863Y-57458D01*
X76856Y-57475D01*
X76725Y-57475D01*
X76610Y-57497D01*
X76512Y-57562D01*
X75391Y-58684D01*
X75321Y-58684D01*
X75316Y-58672D01*
X75161Y-58518D01*
X75080Y-58484D01*
X75161Y-58450D01*
X75315Y-58295D01*
X75399Y-58093D01*
X75399Y-58024D01*
X76622Y-56801D01*
X76683Y-56861D01*
X76775Y-56899D01*
X76824Y-56899D01*
X76824Y-57249D01*
X76862Y-57341D01*
X76921Y-57400D01*
G54D10*
G36*
X76999Y-58189D02*
X76999Y-58224D01*
X76999Y-58499D01*
X76960Y-58499D01*
X76795Y-58568D01*
X76668Y-58694D01*
X76600Y-58860D01*
X76599Y-59039D01*
X76645Y-59150D01*
X75774Y-59150D01*
X76849Y-58075D01*
X76856Y-58075D01*
X76862Y-58091D01*
X76933Y-58161D01*
X76999Y-58189D01*
X76999Y-58189D01*
G37*
G54D24*
X76999Y-58189D02*
X76999Y-58224D01*
X76999Y-58499D01*
X76960Y-58499D01*
X76795Y-58568D01*
X76668Y-58694D01*
X76600Y-58860D01*
X76599Y-59039D01*
X76645Y-59150D01*
X75774Y-59150D01*
X76849Y-58075D01*
X76856Y-58075D01*
X76862Y-58091D01*
X76933Y-58161D01*
X76999Y-58189D01*
G54D10*
G36*
X77686Y-46250D02*
X77562Y-46373D01*
X77475Y-46585D01*
X77474Y-46813D01*
X77562Y-47025D01*
X77673Y-47136D01*
X77608Y-47162D01*
X77538Y-47233D01*
X77500Y-47325D01*
X77499Y-47424D01*
X77499Y-47650D01*
X77337Y-47812D01*
X77300Y-47869D01*
X77300Y-47150D01*
X77300Y-46812D01*
X77237Y-46750D01*
X76600Y-46750D01*
X76600Y-47387D01*
X76662Y-47450D01*
X77099Y-47450D01*
X77191Y-47412D01*
X77261Y-47341D01*
X77299Y-47249D01*
X77300Y-47150D01*
X77300Y-47869D01*
X77272Y-47910D01*
X77250Y-48025D01*
X77250Y-48625D01*
X76500Y-49375D01*
X76500Y-47387D01*
X76500Y-46750D01*
X75862Y-46750D01*
X75800Y-46812D01*
X75799Y-47150D01*
X75800Y-47249D01*
X75838Y-47341D01*
X75908Y-47412D01*
X76000Y-47450D01*
X76437Y-47450D01*
X76500Y-47387D01*
X76500Y-49375D01*
X76387Y-49487D01*
X76322Y-49585D01*
X76300Y-49700D01*
X76300Y-49799D01*
X76275Y-49799D01*
X76183Y-49837D01*
X76113Y-49908D01*
X76075Y-50000D01*
X76074Y-50099D01*
X76074Y-50449D01*
X76112Y-50541D01*
X76171Y-50600D01*
X76113Y-50658D01*
X76075Y-50750D01*
X76074Y-50849D01*
X76074Y-51050D01*
X75404Y-51720D01*
X75404Y-50065D01*
X75393Y-49847D01*
X75331Y-49696D01*
X75235Y-49668D01*
X75165Y-49739D01*
X75165Y-49598D01*
X75137Y-49502D01*
X74931Y-49429D01*
X74713Y-49440D01*
X74562Y-49502D01*
X74534Y-49598D01*
X74850Y-49913D01*
X75165Y-49598D01*
X75165Y-49739D01*
X74920Y-49984D01*
X75235Y-50299D01*
X75331Y-50271D01*
X75404Y-50065D01*
X75404Y-51720D01*
X75356Y-51769D01*
X75316Y-51672D01*
X75161Y-51518D01*
X75080Y-51484D01*
X75161Y-51450D01*
X75315Y-51295D01*
X75399Y-51093D01*
X75400Y-50875D01*
X75316Y-50672D01*
X75161Y-50518D01*
X75086Y-50486D01*
X75137Y-50465D01*
X75165Y-50369D01*
X74850Y-50054D01*
X74534Y-50369D01*
X74562Y-50465D01*
X74617Y-50484D01*
X74538Y-50517D01*
X74472Y-50584D01*
X74227Y-50584D01*
X74177Y-50533D01*
X74199Y-50533D01*
X74291Y-50495D01*
X74362Y-50425D01*
X74400Y-50333D01*
X74400Y-50280D01*
X74464Y-50299D01*
X74779Y-49984D01*
X74464Y-49668D01*
X74400Y-49687D01*
X74400Y-49634D01*
X74362Y-49542D01*
X74291Y-49472D01*
X74199Y-49434D01*
X74100Y-49433D01*
X73962Y-49434D01*
X73900Y-49496D01*
X73900Y-49934D01*
X73907Y-49934D01*
X73907Y-50034D01*
X73900Y-50034D01*
X73900Y-50041D01*
X73800Y-50041D01*
X73800Y-50034D01*
X73792Y-50034D01*
X73792Y-49934D01*
X73800Y-49934D01*
X73800Y-49496D01*
X73737Y-49434D01*
X73599Y-49433D01*
X73500Y-49434D01*
X73422Y-49466D01*
X73422Y-48966D01*
X74919Y-47469D01*
X75032Y-47299D01*
X75037Y-47272D01*
X75185Y-47125D01*
X75299Y-46849D01*
X75300Y-46551D01*
X75248Y-46425D01*
X75424Y-46250D01*
X75799Y-46250D01*
X75800Y-46587D01*
X75862Y-46650D01*
X76500Y-46650D01*
X76500Y-46642D01*
X76600Y-46642D01*
X76600Y-46650D01*
X77237Y-46650D01*
X77300Y-46587D01*
X77300Y-46250D01*
X77686Y-46250D01*
X77686Y-46250D01*
G37*
G54D24*
X77686Y-46250D02*
X77562Y-46373D01*
X77475Y-46585D01*
X77474Y-46813D01*
X77562Y-47025D01*
X77673Y-47136D01*
X77608Y-47162D01*
X77538Y-47233D01*
X77500Y-47325D01*
X77499Y-47424D01*
X77499Y-47650D01*
X77337Y-47812D01*
X77300Y-47869D01*
X77300Y-47150D01*
X77300Y-46812D01*
X77237Y-46750D01*
X76600Y-46750D01*
X76600Y-47387D01*
X76662Y-47450D01*
X77099Y-47450D01*
X77191Y-47412D01*
X77261Y-47341D01*
X77299Y-47249D01*
X77300Y-47150D01*
X77300Y-47869D01*
X77272Y-47910D01*
X77250Y-48025D01*
X77250Y-48625D01*
X76500Y-49375D01*
X76500Y-47387D01*
X76500Y-46750D01*
X75862Y-46750D01*
X75800Y-46812D01*
X75799Y-47150D01*
X75800Y-47249D01*
X75838Y-47341D01*
X75908Y-47412D01*
X76000Y-47450D01*
X76437Y-47450D01*
X76500Y-47387D01*
X76500Y-49375D01*
X76387Y-49487D01*
X76322Y-49585D01*
X76300Y-49700D01*
X76300Y-49799D01*
X76275Y-49799D01*
X76183Y-49837D01*
X76113Y-49908D01*
X76075Y-50000D01*
X76074Y-50099D01*
X76074Y-50449D01*
X76112Y-50541D01*
X76171Y-50600D01*
X76113Y-50658D01*
X76075Y-50750D01*
X76074Y-50849D01*
X76074Y-51050D01*
X75404Y-51720D01*
X75404Y-50065D01*
X75393Y-49847D01*
X75331Y-49696D01*
X75235Y-49668D01*
X75165Y-49739D01*
X75165Y-49598D01*
X75137Y-49502D01*
X74931Y-49429D01*
X74713Y-49440D01*
X74562Y-49502D01*
X74534Y-49598D01*
X74850Y-49913D01*
X75165Y-49598D01*
X75165Y-49739D01*
X74920Y-49984D01*
X75235Y-50299D01*
X75331Y-50271D01*
X75404Y-50065D01*
X75404Y-51720D01*
X75356Y-51769D01*
X75316Y-51672D01*
X75161Y-51518D01*
X75080Y-51484D01*
X75161Y-51450D01*
X75315Y-51295D01*
X75399Y-51093D01*
X75400Y-50875D01*
X75316Y-50672D01*
X75161Y-50518D01*
X75086Y-50486D01*
X75137Y-50465D01*
X75165Y-50369D01*
X74850Y-50054D01*
X74534Y-50369D01*
X74562Y-50465D01*
X74617Y-50484D01*
X74538Y-50517D01*
X74472Y-50584D01*
X74227Y-50584D01*
X74177Y-50533D01*
X74199Y-50533D01*
X74291Y-50495D01*
X74362Y-50425D01*
X74400Y-50333D01*
X74400Y-50280D01*
X74464Y-50299D01*
X74779Y-49984D01*
X74464Y-49668D01*
X74400Y-49687D01*
X74400Y-49634D01*
X74362Y-49542D01*
X74291Y-49472D01*
X74199Y-49434D01*
X74100Y-49433D01*
X73962Y-49434D01*
X73900Y-49496D01*
X73900Y-49934D01*
X73907Y-49934D01*
X73907Y-50034D01*
X73900Y-50034D01*
X73900Y-50041D01*
X73800Y-50041D01*
X73800Y-50034D01*
X73792Y-50034D01*
X73792Y-49934D01*
X73800Y-49934D01*
X73800Y-49496D01*
X73737Y-49434D01*
X73599Y-49433D01*
X73500Y-49434D01*
X73422Y-49466D01*
X73422Y-48966D01*
X74919Y-47469D01*
X75032Y-47299D01*
X75037Y-47272D01*
X75185Y-47125D01*
X75299Y-46849D01*
X75300Y-46551D01*
X75248Y-46425D01*
X75424Y-46250D01*
X75799Y-46250D01*
X75800Y-46587D01*
X75862Y-46650D01*
X76500Y-46650D01*
X76500Y-46642D01*
X76600Y-46642D01*
X76600Y-46650D01*
X77237Y-46650D01*
X77300Y-46587D01*
X77300Y-46250D01*
X77686Y-46250D01*
G54D10*
G36*
X78032Y-53300D02*
X78025Y-53300D01*
X78025Y-53307D01*
X77925Y-53307D01*
X77925Y-53300D01*
X77917Y-53300D01*
X77917Y-53200D01*
X77925Y-53200D01*
X77925Y-53192D01*
X78025Y-53192D01*
X78025Y-53200D01*
X78032Y-53200D01*
X78032Y-53300D01*
X78032Y-53300D01*
G37*
G54D24*
X78032Y-53300D02*
X78025Y-53300D01*
X78025Y-53307D01*
X77925Y-53307D01*
X77925Y-53300D01*
X77917Y-53300D01*
X77917Y-53200D01*
X77925Y-53200D01*
X77925Y-53192D01*
X78025Y-53192D01*
X78025Y-53200D01*
X78032Y-53200D01*
X78032Y-53300D01*
G54D10*
G36*
X78032Y-54800D02*
X78025Y-54800D01*
X78025Y-54807D01*
X77925Y-54807D01*
X77925Y-54800D01*
X77917Y-54800D01*
X77917Y-54700D01*
X77925Y-54700D01*
X77925Y-54692D01*
X78025Y-54692D01*
X78025Y-54700D01*
X78032Y-54700D01*
X78032Y-54800D01*
X78032Y-54800D01*
G37*
G54D24*
X78032Y-54800D02*
X78025Y-54800D01*
X78025Y-54807D01*
X77925Y-54807D01*
X77925Y-54800D01*
X77917Y-54800D01*
X77917Y-54700D01*
X77925Y-54700D01*
X77925Y-54692D01*
X78025Y-54692D01*
X78025Y-54700D01*
X78032Y-54700D01*
X78032Y-54800D01*
G54D10*
G36*
X78125Y-50175D02*
X77975Y-50324D01*
X77650Y-50324D01*
X77558Y-50362D01*
X77500Y-50421D01*
X77500Y-50078D01*
X77558Y-50136D01*
X77650Y-50174D01*
X77749Y-50175D01*
X77862Y-50175D01*
X77925Y-50112D01*
X77925Y-49800D01*
X77917Y-49800D01*
X77917Y-49700D01*
X77925Y-49700D01*
X77925Y-49692D01*
X78025Y-49692D01*
X78025Y-49700D01*
X78032Y-49700D01*
X78032Y-49800D01*
X78025Y-49800D01*
X78025Y-50112D01*
X78087Y-50175D01*
X78125Y-50175D01*
X78125Y-50175D01*
G37*
G54D24*
X78125Y-50175D02*
X77975Y-50324D01*
X77650Y-50324D01*
X77558Y-50362D01*
X77500Y-50421D01*
X77500Y-50078D01*
X77558Y-50136D01*
X77650Y-50174D01*
X77749Y-50175D01*
X77862Y-50175D01*
X77925Y-50112D01*
X77925Y-49800D01*
X77917Y-49800D01*
X77917Y-49700D01*
X77925Y-49700D01*
X77925Y-49692D01*
X78025Y-49692D01*
X78025Y-49700D01*
X78032Y-49700D01*
X78032Y-49800D01*
X78025Y-49800D01*
X78025Y-50112D01*
X78087Y-50175D01*
X78125Y-50175D01*
G54D10*
G36*
X78264Y-45500D02*
X78253Y-45504D01*
X78107Y-45650D01*
X75300Y-45650D01*
X75185Y-45672D01*
X75087Y-45737D01*
X74824Y-46001D01*
X74699Y-45950D01*
X74401Y-45949D01*
X74125Y-46063D01*
X73914Y-46274D01*
X73800Y-46550D01*
X73799Y-46848D01*
X73876Y-47034D01*
X72530Y-48380D01*
X72417Y-48550D01*
X72378Y-48750D01*
X72378Y-50584D01*
X71554Y-50584D01*
X71554Y-50065D01*
X71543Y-49847D01*
X71481Y-49696D01*
X71385Y-49668D01*
X71070Y-49984D01*
X71385Y-50299D01*
X71481Y-50271D01*
X71554Y-50065D01*
X71554Y-50584D01*
X71377Y-50584D01*
X71311Y-50518D01*
X71236Y-50486D01*
X71287Y-50465D01*
X71315Y-50369D01*
X71000Y-50054D01*
X70994Y-50060D01*
X70923Y-49989D01*
X70929Y-49984D01*
X70923Y-49978D01*
X70994Y-49907D01*
X71000Y-49913D01*
X71315Y-49598D01*
X71287Y-49502D01*
X71081Y-49429D01*
X70863Y-49440D01*
X70850Y-49445D01*
X70850Y-48894D01*
X72325Y-47419D01*
X72400Y-47449D01*
X72698Y-47450D01*
X72974Y-47336D01*
X73185Y-47125D01*
X73299Y-46849D01*
X73300Y-46551D01*
X73186Y-46275D01*
X72975Y-46064D01*
X72699Y-45950D01*
X72401Y-45949D01*
X72125Y-46063D01*
X71914Y-46274D01*
X71800Y-46550D01*
X71799Y-46848D01*
X71831Y-46923D01*
X70252Y-48502D01*
X70176Y-48616D01*
X70150Y-48750D01*
X70150Y-49404D01*
X70144Y-49433D01*
X70112Y-49434D01*
X70050Y-49496D01*
X70050Y-49934D01*
X70057Y-49934D01*
X70057Y-50034D01*
X70050Y-50034D01*
X70050Y-50041D01*
X69950Y-50041D01*
X69950Y-50034D01*
X69942Y-50034D01*
X69942Y-49934D01*
X69950Y-49934D01*
X69950Y-49496D01*
X69887Y-49434D01*
X69850Y-49433D01*
X69850Y-46759D01*
X70027Y-46877D01*
X70028Y-46878D01*
X70136Y-46923D01*
X70366Y-46969D01*
X70483Y-46969D01*
X70484Y-46969D01*
X70711Y-46923D01*
X70712Y-46923D01*
X70821Y-46878D01*
X71015Y-46749D01*
X71098Y-46666D01*
X71099Y-46665D01*
X71227Y-46472D01*
X71228Y-46471D01*
X71273Y-46363D01*
X71319Y-46133D01*
X71319Y-46133D01*
X71319Y-46133D01*
X71319Y-46075D01*
X71319Y-46016D01*
X71319Y-46016D01*
X71319Y-46016D01*
X71273Y-45786D01*
X71228Y-45678D01*
X71227Y-45677D01*
X71109Y-45500D01*
X78264Y-45500D01*
X78264Y-45500D01*
G37*
G54D24*
X78264Y-45500D02*
X78253Y-45504D01*
X78107Y-45650D01*
X75300Y-45650D01*
X75185Y-45672D01*
X75087Y-45737D01*
X74824Y-46001D01*
X74699Y-45950D01*
X74401Y-45949D01*
X74125Y-46063D01*
X73914Y-46274D01*
X73800Y-46550D01*
X73799Y-46848D01*
X73876Y-47034D01*
X72530Y-48380D01*
X72417Y-48550D01*
X72378Y-48750D01*
X72378Y-50584D01*
X71554Y-50584D01*
X71554Y-50065D01*
X71543Y-49847D01*
X71481Y-49696D01*
X71385Y-49668D01*
X71070Y-49984D01*
X71385Y-50299D01*
X71481Y-50271D01*
X71554Y-50065D01*
X71554Y-50584D01*
X71377Y-50584D01*
X71311Y-50518D01*
X71236Y-50486D01*
X71287Y-50465D01*
X71315Y-50369D01*
X71000Y-50054D01*
X70994Y-50060D01*
X70923Y-49989D01*
X70929Y-49984D01*
X70923Y-49978D01*
X70994Y-49907D01*
X71000Y-49913D01*
X71315Y-49598D01*
X71287Y-49502D01*
X71081Y-49429D01*
X70863Y-49440D01*
X70850Y-49445D01*
X70850Y-48894D01*
X72325Y-47419D01*
X72400Y-47449D01*
X72698Y-47450D01*
X72974Y-47336D01*
X73185Y-47125D01*
X73299Y-46849D01*
X73300Y-46551D01*
X73186Y-46275D01*
X72975Y-46064D01*
X72699Y-45950D01*
X72401Y-45949D01*
X72125Y-46063D01*
X71914Y-46274D01*
X71800Y-46550D01*
X71799Y-46848D01*
X71831Y-46923D01*
X70252Y-48502D01*
X70176Y-48616D01*
X70150Y-48750D01*
X70150Y-49404D01*
X70144Y-49433D01*
X70112Y-49434D01*
X70050Y-49496D01*
X70050Y-49934D01*
X70057Y-49934D01*
X70057Y-50034D01*
X70050Y-50034D01*
X70050Y-50041D01*
X69950Y-50041D01*
X69950Y-50034D01*
X69942Y-50034D01*
X69942Y-49934D01*
X69950Y-49934D01*
X69950Y-49496D01*
X69887Y-49434D01*
X69850Y-49433D01*
X69850Y-46759D01*
X70027Y-46877D01*
X70028Y-46878D01*
X70136Y-46923D01*
X70366Y-46969D01*
X70483Y-46969D01*
X70484Y-46969D01*
X70711Y-46923D01*
X70712Y-46923D01*
X70821Y-46878D01*
X71015Y-46749D01*
X71098Y-46666D01*
X71099Y-46665D01*
X71227Y-46472D01*
X71228Y-46471D01*
X71273Y-46363D01*
X71319Y-46133D01*
X71319Y-46133D01*
X71319Y-46133D01*
X71319Y-46075D01*
X71319Y-46016D01*
X71319Y-46016D01*
X71319Y-46016D01*
X71273Y-45786D01*
X71228Y-45678D01*
X71227Y-45677D01*
X71109Y-45500D01*
X78264Y-45500D01*
G54D10*
G36*
X80761Y-56947D02*
X80724Y-56962D01*
X80562Y-57123D01*
X80475Y-57335D01*
X80475Y-57349D01*
X79990Y-57349D01*
X79898Y-57387D01*
X79828Y-57458D01*
X79814Y-57490D01*
X79728Y-57490D01*
X79677Y-57439D01*
X79585Y-57401D01*
X79486Y-57400D01*
X79014Y-57400D01*
X78922Y-57438D01*
X78852Y-57509D01*
X78814Y-57601D01*
X78813Y-57700D01*
X78813Y-58172D01*
X78851Y-58264D01*
X78887Y-58300D01*
X78852Y-58335D01*
X78819Y-58413D01*
X78600Y-58413D01*
X78600Y-58125D01*
X78562Y-58033D01*
X78500Y-57971D01*
X78500Y-56474D01*
X78500Y-56362D01*
X78437Y-56300D01*
X78025Y-56300D01*
X78025Y-56612D01*
X78087Y-56675D01*
X78200Y-56675D01*
X78299Y-56674D01*
X78391Y-56636D01*
X78462Y-56566D01*
X78500Y-56474D01*
X78500Y-57971D01*
X78491Y-57963D01*
X78399Y-57925D01*
X78300Y-57924D01*
X77950Y-57924D01*
X77874Y-57956D01*
X77875Y-57900D01*
X77875Y-57550D01*
X77837Y-57458D01*
X77778Y-57399D01*
X77836Y-57341D01*
X77874Y-57249D01*
X77875Y-57150D01*
X77875Y-56800D01*
X77840Y-56715D01*
X77840Y-56675D01*
X77862Y-56675D01*
X77925Y-56612D01*
X77925Y-56300D01*
X77917Y-56300D01*
X77917Y-56200D01*
X77925Y-56200D01*
X77925Y-56192D01*
X78025Y-56192D01*
X78025Y-56200D01*
X78437Y-56200D01*
X78500Y-56137D01*
X78500Y-56025D01*
X78462Y-55933D01*
X78403Y-55874D01*
X78432Y-55845D01*
X78525Y-55907D01*
X78725Y-55947D01*
X79225Y-55947D01*
X79725Y-55947D01*
X80158Y-55947D01*
X79995Y-56055D01*
X79995Y-56055D01*
X79991Y-56059D01*
X79990Y-56059D01*
X79898Y-56097D01*
X79828Y-56168D01*
X79790Y-56260D01*
X79789Y-56359D01*
X79789Y-56389D01*
X79768Y-56500D01*
X79789Y-56610D01*
X79789Y-56739D01*
X79827Y-56831D01*
X79898Y-56901D01*
X79990Y-56939D01*
X80026Y-56939D01*
X80090Y-56982D01*
X80290Y-57022D01*
X80489Y-56982D01*
X80542Y-56947D01*
X80761Y-56947D01*
X80761Y-56947D01*
G37*
G54D24*
X80761Y-56947D02*
X80724Y-56962D01*
X80562Y-57123D01*
X80475Y-57335D01*
X80475Y-57349D01*
X79990Y-57349D01*
X79898Y-57387D01*
X79828Y-57458D01*
X79814Y-57490D01*
X79728Y-57490D01*
X79677Y-57439D01*
X79585Y-57401D01*
X79486Y-57400D01*
X79014Y-57400D01*
X78922Y-57438D01*
X78852Y-57509D01*
X78814Y-57601D01*
X78813Y-57700D01*
X78813Y-58172D01*
X78851Y-58264D01*
X78887Y-58300D01*
X78852Y-58335D01*
X78819Y-58413D01*
X78600Y-58413D01*
X78600Y-58125D01*
X78562Y-58033D01*
X78500Y-57971D01*
X78500Y-56474D01*
X78500Y-56362D01*
X78437Y-56300D01*
X78025Y-56300D01*
X78025Y-56612D01*
X78087Y-56675D01*
X78200Y-56675D01*
X78299Y-56674D01*
X78391Y-56636D01*
X78462Y-56566D01*
X78500Y-56474D01*
X78500Y-57971D01*
X78491Y-57963D01*
X78399Y-57925D01*
X78300Y-57924D01*
X77950Y-57924D01*
X77874Y-57956D01*
X77875Y-57900D01*
X77875Y-57550D01*
X77837Y-57458D01*
X77778Y-57399D01*
X77836Y-57341D01*
X77874Y-57249D01*
X77875Y-57150D01*
X77875Y-56800D01*
X77840Y-56715D01*
X77840Y-56675D01*
X77862Y-56675D01*
X77925Y-56612D01*
X77925Y-56300D01*
X77917Y-56300D01*
X77917Y-56200D01*
X77925Y-56200D01*
X77925Y-56192D01*
X78025Y-56192D01*
X78025Y-56200D01*
X78437Y-56200D01*
X78500Y-56137D01*
X78500Y-56025D01*
X78462Y-55933D01*
X78403Y-55874D01*
X78432Y-55845D01*
X78525Y-55907D01*
X78725Y-55947D01*
X79225Y-55947D01*
X79725Y-55947D01*
X80158Y-55947D01*
X79995Y-56055D01*
X79995Y-56055D01*
X79991Y-56059D01*
X79990Y-56059D01*
X79898Y-56097D01*
X79828Y-56168D01*
X79790Y-56260D01*
X79789Y-56359D01*
X79789Y-56389D01*
X79768Y-56500D01*
X79789Y-56610D01*
X79789Y-56739D01*
X79827Y-56831D01*
X79898Y-56901D01*
X79990Y-56939D01*
X80026Y-56939D01*
X80090Y-56982D01*
X80290Y-57022D01*
X80489Y-56982D01*
X80542Y-56947D01*
X80761Y-56947D01*
G54D10*
G36*
X80991Y-50884D02*
X80983Y-50887D01*
X80913Y-50958D01*
X80875Y-51050D01*
X80874Y-51149D01*
X80874Y-51476D01*
X80850Y-51501D01*
X80575Y-51501D01*
X80575Y-50500D01*
X80575Y-50437D01*
X80512Y-50375D01*
X80275Y-50375D01*
X80275Y-50737D01*
X80337Y-50800D01*
X80374Y-50800D01*
X80466Y-50762D01*
X80536Y-50691D01*
X80574Y-50599D01*
X80575Y-50500D01*
X80575Y-51501D01*
X80249Y-51501D01*
X80175Y-51515D01*
X80175Y-50737D01*
X80175Y-50375D01*
X80012Y-50375D01*
X79937Y-50375D01*
X79775Y-50375D01*
X79775Y-50737D01*
X79837Y-50800D01*
X79874Y-50800D01*
X79966Y-50762D01*
X79975Y-50753D01*
X79983Y-50762D01*
X80075Y-50800D01*
X80112Y-50800D01*
X80175Y-50737D01*
X80175Y-51515D01*
X80134Y-51523D01*
X80036Y-51588D01*
X79924Y-51701D01*
X79675Y-51701D01*
X79675Y-50737D01*
X79675Y-50375D01*
X79512Y-50375D01*
X79437Y-50375D01*
X79275Y-50375D01*
X79275Y-50737D01*
X79337Y-50800D01*
X79374Y-50800D01*
X79466Y-50762D01*
X79475Y-50753D01*
X79483Y-50762D01*
X79575Y-50800D01*
X79612Y-50800D01*
X79675Y-50737D01*
X79675Y-51701D01*
X78500Y-51701D01*
X78500Y-51612D01*
X78437Y-51550D01*
X78025Y-51550D01*
X78025Y-51862D01*
X78087Y-51925D01*
X78125Y-51925D01*
X77975Y-52074D01*
X77705Y-52074D01*
X77705Y-51925D01*
X77749Y-51925D01*
X77862Y-51925D01*
X77925Y-51862D01*
X77925Y-51550D01*
X77917Y-51550D01*
X77917Y-51450D01*
X77925Y-51450D01*
X77925Y-51442D01*
X78025Y-51442D01*
X78025Y-51450D01*
X78437Y-51450D01*
X78500Y-51387D01*
X78500Y-51275D01*
X78462Y-51183D01*
X78403Y-51124D01*
X78461Y-51066D01*
X78499Y-50974D01*
X78500Y-50875D01*
X78500Y-50768D01*
X78575Y-50799D01*
X78674Y-50800D01*
X78874Y-50800D01*
X78966Y-50762D01*
X78975Y-50753D01*
X78983Y-50762D01*
X79075Y-50800D01*
X79112Y-50800D01*
X79175Y-50737D01*
X79175Y-50375D01*
X79167Y-50375D01*
X79167Y-50275D01*
X79175Y-50275D01*
X79175Y-50267D01*
X79275Y-50267D01*
X79275Y-50275D01*
X79437Y-50275D01*
X79512Y-50275D01*
X79675Y-50275D01*
X79675Y-50267D01*
X79775Y-50267D01*
X79775Y-50275D01*
X79937Y-50275D01*
X80012Y-50275D01*
X80175Y-50275D01*
X80175Y-50267D01*
X80275Y-50267D01*
X80275Y-50275D01*
X80512Y-50275D01*
X80575Y-50212D01*
X80575Y-50149D01*
X80574Y-50050D01*
X80548Y-49986D01*
X80711Y-50150D01*
X80711Y-50150D01*
X80767Y-50187D01*
X80742Y-50225D01*
X80703Y-50425D01*
X80742Y-50624D01*
X80855Y-50794D01*
X80991Y-50884D01*
X80991Y-50884D01*
G37*
G54D24*
X80991Y-50884D02*
X80983Y-50887D01*
X80913Y-50958D01*
X80875Y-51050D01*
X80874Y-51149D01*
X80874Y-51476D01*
X80850Y-51501D01*
X80575Y-51501D01*
X80575Y-50500D01*
X80575Y-50437D01*
X80512Y-50375D01*
X80275Y-50375D01*
X80275Y-50737D01*
X80337Y-50800D01*
X80374Y-50800D01*
X80466Y-50762D01*
X80536Y-50691D01*
X80574Y-50599D01*
X80575Y-50500D01*
X80575Y-51501D01*
X80249Y-51501D01*
X80175Y-51515D01*
X80175Y-50737D01*
X80175Y-50375D01*
X80012Y-50375D01*
X79937Y-50375D01*
X79775Y-50375D01*
X79775Y-50737D01*
X79837Y-50800D01*
X79874Y-50800D01*
X79966Y-50762D01*
X79975Y-50753D01*
X79983Y-50762D01*
X80075Y-50800D01*
X80112Y-50800D01*
X80175Y-50737D01*
X80175Y-51515D01*
X80134Y-51523D01*
X80036Y-51588D01*
X79924Y-51701D01*
X79675Y-51701D01*
X79675Y-50737D01*
X79675Y-50375D01*
X79512Y-50375D01*
X79437Y-50375D01*
X79275Y-50375D01*
X79275Y-50737D01*
X79337Y-50800D01*
X79374Y-50800D01*
X79466Y-50762D01*
X79475Y-50753D01*
X79483Y-50762D01*
X79575Y-50800D01*
X79612Y-50800D01*
X79675Y-50737D01*
X79675Y-51701D01*
X78500Y-51701D01*
X78500Y-51612D01*
X78437Y-51550D01*
X78025Y-51550D01*
X78025Y-51862D01*
X78087Y-51925D01*
X78125Y-51925D01*
X77975Y-52074D01*
X77705Y-52074D01*
X77705Y-51925D01*
X77749Y-51925D01*
X77862Y-51925D01*
X77925Y-51862D01*
X77925Y-51550D01*
X77917Y-51550D01*
X77917Y-51450D01*
X77925Y-51450D01*
X77925Y-51442D01*
X78025Y-51442D01*
X78025Y-51450D01*
X78437Y-51450D01*
X78500Y-51387D01*
X78500Y-51275D01*
X78462Y-51183D01*
X78403Y-51124D01*
X78461Y-51066D01*
X78499Y-50974D01*
X78500Y-50875D01*
X78500Y-50768D01*
X78575Y-50799D01*
X78674Y-50800D01*
X78874Y-50800D01*
X78966Y-50762D01*
X78975Y-50753D01*
X78983Y-50762D01*
X79075Y-50800D01*
X79112Y-50800D01*
X79175Y-50737D01*
X79175Y-50375D01*
X79167Y-50375D01*
X79167Y-50275D01*
X79175Y-50275D01*
X79175Y-50267D01*
X79275Y-50267D01*
X79275Y-50275D01*
X79437Y-50275D01*
X79512Y-50275D01*
X79675Y-50275D01*
X79675Y-50267D01*
X79775Y-50267D01*
X79775Y-50275D01*
X79937Y-50275D01*
X80012Y-50275D01*
X80175Y-50275D01*
X80175Y-50267D01*
X80275Y-50267D01*
X80275Y-50275D01*
X80512Y-50275D01*
X80575Y-50212D01*
X80575Y-50149D01*
X80574Y-50050D01*
X80548Y-49986D01*
X80711Y-50150D01*
X80711Y-50150D01*
X80767Y-50187D01*
X80742Y-50225D01*
X80703Y-50425D01*
X80742Y-50624D01*
X80855Y-50794D01*
X80991Y-50884D01*
G54D10*
G36*
X80991Y-53884D02*
X80983Y-53887D01*
X80913Y-53958D01*
X80875Y-54050D01*
X80874Y-54149D01*
X80874Y-54250D01*
X80735Y-54390D01*
X80575Y-54390D01*
X80575Y-53500D01*
X80575Y-53437D01*
X80512Y-53375D01*
X80275Y-53375D01*
X80275Y-53737D01*
X80337Y-53800D01*
X80374Y-53800D01*
X80466Y-53762D01*
X80536Y-53691D01*
X80574Y-53599D01*
X80575Y-53500D01*
X80575Y-54390D01*
X80360Y-54390D01*
X80245Y-54412D01*
X80175Y-54459D01*
X80175Y-53737D01*
X80175Y-53375D01*
X80012Y-53375D01*
X79937Y-53375D01*
X79775Y-53375D01*
X79775Y-53737D01*
X79837Y-53800D01*
X79874Y-53800D01*
X79966Y-53762D01*
X79975Y-53753D01*
X79983Y-53762D01*
X80075Y-53800D01*
X80112Y-53800D01*
X80175Y-53737D01*
X80175Y-54459D01*
X80147Y-54477D01*
X79924Y-54701D01*
X79675Y-54701D01*
X79675Y-53737D01*
X79675Y-53375D01*
X79512Y-53375D01*
X79437Y-53375D01*
X79275Y-53375D01*
X79275Y-53737D01*
X79337Y-53800D01*
X79374Y-53800D01*
X79466Y-53762D01*
X79475Y-53753D01*
X79483Y-53762D01*
X79575Y-53800D01*
X79612Y-53800D01*
X79675Y-53737D01*
X79675Y-54701D01*
X78500Y-54701D01*
X78500Y-54699D01*
X78437Y-54699D01*
X78500Y-54637D01*
X78500Y-54525D01*
X78462Y-54433D01*
X78403Y-54374D01*
X78461Y-54316D01*
X78499Y-54224D01*
X78500Y-54125D01*
X78500Y-53945D01*
X78587Y-53887D01*
X78674Y-53800D01*
X78674Y-53800D01*
X78874Y-53800D01*
X78966Y-53762D01*
X78975Y-53753D01*
X78983Y-53762D01*
X79075Y-53800D01*
X79112Y-53800D01*
X79175Y-53737D01*
X79175Y-53375D01*
X79167Y-53375D01*
X79167Y-53275D01*
X79175Y-53275D01*
X79175Y-53267D01*
X79275Y-53267D01*
X79275Y-53275D01*
X79437Y-53275D01*
X79512Y-53275D01*
X79675Y-53275D01*
X79675Y-53267D01*
X79775Y-53267D01*
X79775Y-53275D01*
X79937Y-53275D01*
X80012Y-53275D01*
X80175Y-53275D01*
X80175Y-53267D01*
X80275Y-53267D01*
X80275Y-53275D01*
X80512Y-53275D01*
X80575Y-53212D01*
X80575Y-53149D01*
X80574Y-53050D01*
X80536Y-52958D01*
X80525Y-52947D01*
X80558Y-52947D01*
X80761Y-53150D01*
X80761Y-53150D01*
X80783Y-53164D01*
X80783Y-53164D01*
X80742Y-53225D01*
X80703Y-53425D01*
X80742Y-53624D01*
X80855Y-53794D01*
X80991Y-53884D01*
X80991Y-53884D01*
G37*
G54D24*
X80991Y-53884D02*
X80983Y-53887D01*
X80913Y-53958D01*
X80875Y-54050D01*
X80874Y-54149D01*
X80874Y-54250D01*
X80735Y-54390D01*
X80575Y-54390D01*
X80575Y-53500D01*
X80575Y-53437D01*
X80512Y-53375D01*
X80275Y-53375D01*
X80275Y-53737D01*
X80337Y-53800D01*
X80374Y-53800D01*
X80466Y-53762D01*
X80536Y-53691D01*
X80574Y-53599D01*
X80575Y-53500D01*
X80575Y-54390D01*
X80360Y-54390D01*
X80245Y-54412D01*
X80175Y-54459D01*
X80175Y-53737D01*
X80175Y-53375D01*
X80012Y-53375D01*
X79937Y-53375D01*
X79775Y-53375D01*
X79775Y-53737D01*
X79837Y-53800D01*
X79874Y-53800D01*
X79966Y-53762D01*
X79975Y-53753D01*
X79983Y-53762D01*
X80075Y-53800D01*
X80112Y-53800D01*
X80175Y-53737D01*
X80175Y-54459D01*
X80147Y-54477D01*
X79924Y-54701D01*
X79675Y-54701D01*
X79675Y-53737D01*
X79675Y-53375D01*
X79512Y-53375D01*
X79437Y-53375D01*
X79275Y-53375D01*
X79275Y-53737D01*
X79337Y-53800D01*
X79374Y-53800D01*
X79466Y-53762D01*
X79475Y-53753D01*
X79483Y-53762D01*
X79575Y-53800D01*
X79612Y-53800D01*
X79675Y-53737D01*
X79675Y-54701D01*
X78500Y-54701D01*
X78500Y-54699D01*
X78437Y-54699D01*
X78500Y-54637D01*
X78500Y-54525D01*
X78462Y-54433D01*
X78403Y-54374D01*
X78461Y-54316D01*
X78499Y-54224D01*
X78500Y-54125D01*
X78500Y-53945D01*
X78587Y-53887D01*
X78674Y-53800D01*
X78674Y-53800D01*
X78874Y-53800D01*
X78966Y-53762D01*
X78975Y-53753D01*
X78983Y-53762D01*
X79075Y-53800D01*
X79112Y-53800D01*
X79175Y-53737D01*
X79175Y-53375D01*
X79167Y-53375D01*
X79167Y-53275D01*
X79175Y-53275D01*
X79175Y-53267D01*
X79275Y-53267D01*
X79275Y-53275D01*
X79437Y-53275D01*
X79512Y-53275D01*
X79675Y-53275D01*
X79675Y-53267D01*
X79775Y-53267D01*
X79775Y-53275D01*
X79937Y-53275D01*
X80012Y-53275D01*
X80175Y-53275D01*
X80175Y-53267D01*
X80275Y-53267D01*
X80275Y-53275D01*
X80512Y-53275D01*
X80575Y-53212D01*
X80575Y-53149D01*
X80574Y-53050D01*
X80536Y-52958D01*
X80525Y-52947D01*
X80558Y-52947D01*
X80761Y-53150D01*
X80761Y-53150D01*
X80783Y-53164D01*
X80783Y-53164D01*
X80742Y-53225D01*
X80703Y-53425D01*
X80742Y-53624D01*
X80855Y-53794D01*
X80991Y-53884D01*
G54D10*
G36*
X83278Y-48677D02*
X83075Y-48880D01*
X83075Y-48500D01*
X83075Y-48149D01*
X83074Y-48050D01*
X83036Y-47958D01*
X82966Y-47887D01*
X82874Y-47849D01*
X82837Y-47850D01*
X82775Y-47912D01*
X82775Y-48275D01*
X83012Y-48275D01*
X83075Y-48212D01*
X83075Y-48149D01*
X83075Y-48500D01*
X83075Y-48437D01*
X83012Y-48375D01*
X82775Y-48375D01*
X82775Y-48737D01*
X82837Y-48800D01*
X82874Y-48800D01*
X82966Y-48762D01*
X83036Y-48691D01*
X83074Y-48599D01*
X83075Y-48500D01*
X83075Y-48880D01*
X82696Y-49258D01*
X82675Y-49258D01*
X82675Y-48737D01*
X82675Y-48375D01*
X82675Y-48275D01*
X82675Y-47912D01*
X82612Y-47850D01*
X82575Y-47849D01*
X82483Y-47887D01*
X82475Y-47896D01*
X82466Y-47887D01*
X82374Y-47849D01*
X82337Y-47850D01*
X82275Y-47912D01*
X82275Y-48275D01*
X82437Y-48275D01*
X82512Y-48275D01*
X82675Y-48275D01*
X82675Y-48375D01*
X82512Y-48375D01*
X82437Y-48375D01*
X82275Y-48375D01*
X82275Y-48737D01*
X82337Y-48800D01*
X82374Y-48800D01*
X82466Y-48762D01*
X82475Y-48753D01*
X82483Y-48762D01*
X82575Y-48800D01*
X82612Y-48800D01*
X82675Y-48737D01*
X82675Y-49258D01*
X82175Y-49258D01*
X82175Y-48737D01*
X82175Y-48375D01*
X82175Y-48275D01*
X82175Y-47912D01*
X82112Y-47850D01*
X82075Y-47849D01*
X81983Y-47887D01*
X81975Y-47896D01*
X81966Y-47887D01*
X81874Y-47849D01*
X81837Y-47850D01*
X81775Y-47912D01*
X81775Y-48275D01*
X81937Y-48275D01*
X82012Y-48275D01*
X82175Y-48275D01*
X82175Y-48375D01*
X82012Y-48375D01*
X81937Y-48375D01*
X81775Y-48375D01*
X81775Y-48737D01*
X81837Y-48800D01*
X81874Y-48800D01*
X81966Y-48762D01*
X81975Y-48753D01*
X81983Y-48762D01*
X82075Y-48800D01*
X82112Y-48800D01*
X82175Y-48737D01*
X82175Y-49258D01*
X81297Y-49258D01*
X81094Y-49055D01*
X81030Y-49013D01*
X81243Y-48800D01*
X81374Y-48800D01*
X81466Y-48762D01*
X81475Y-48753D01*
X81483Y-48762D01*
X81575Y-48800D01*
X81612Y-48800D01*
X81675Y-48737D01*
X81675Y-48375D01*
X81667Y-48375D01*
X81667Y-48275D01*
X81675Y-48275D01*
X81675Y-47912D01*
X81612Y-47850D01*
X81575Y-47849D01*
X81483Y-47887D01*
X81475Y-47896D01*
X81466Y-47888D01*
X81374Y-47850D01*
X81275Y-47849D01*
X81075Y-47849D01*
X80983Y-47887D01*
X80913Y-47958D01*
X80875Y-48050D01*
X80874Y-48149D01*
X80874Y-48319D01*
X80575Y-48619D01*
X80575Y-47500D01*
X80575Y-47149D01*
X80574Y-47050D01*
X80536Y-46958D01*
X80466Y-46887D01*
X80374Y-46849D01*
X80337Y-46850D01*
X80275Y-46912D01*
X80275Y-47275D01*
X80512Y-47275D01*
X80575Y-47212D01*
X80575Y-47149D01*
X80575Y-47500D01*
X80575Y-47437D01*
X80512Y-47375D01*
X80275Y-47375D01*
X80275Y-47737D01*
X80337Y-47800D01*
X80374Y-47800D01*
X80466Y-47762D01*
X80536Y-47691D01*
X80574Y-47599D01*
X80575Y-47500D01*
X80575Y-48619D01*
X80500Y-48694D01*
X80175Y-48694D01*
X80175Y-47737D01*
X80175Y-47375D01*
X80175Y-47275D01*
X80175Y-46912D01*
X80112Y-46850D01*
X80075Y-46849D01*
X79983Y-46887D01*
X79975Y-46896D01*
X79966Y-46887D01*
X79874Y-46849D01*
X79837Y-46850D01*
X79775Y-46912D01*
X79775Y-47275D01*
X79937Y-47275D01*
X80012Y-47275D01*
X80175Y-47275D01*
X80175Y-47375D01*
X80012Y-47375D01*
X79937Y-47375D01*
X79775Y-47375D01*
X79775Y-47737D01*
X79837Y-47800D01*
X79874Y-47800D01*
X79966Y-47762D01*
X79975Y-47753D01*
X79983Y-47762D01*
X80075Y-47800D01*
X80112Y-47800D01*
X80175Y-47737D01*
X80175Y-48694D01*
X79675Y-48694D01*
X79675Y-47737D01*
X79675Y-47375D01*
X79675Y-47275D01*
X79675Y-46912D01*
X79612Y-46850D01*
X79575Y-46849D01*
X79483Y-46887D01*
X79475Y-46896D01*
X79466Y-46887D01*
X79374Y-46849D01*
X79337Y-46850D01*
X79275Y-46912D01*
X79275Y-47275D01*
X79437Y-47275D01*
X79512Y-47275D01*
X79675Y-47275D01*
X79675Y-47375D01*
X79512Y-47375D01*
X79437Y-47375D01*
X79275Y-47375D01*
X79275Y-47737D01*
X79337Y-47800D01*
X79374Y-47800D01*
X79466Y-47762D01*
X79475Y-47753D01*
X79483Y-47762D01*
X79575Y-47800D01*
X79612Y-47800D01*
X79675Y-47737D01*
X79675Y-48694D01*
X78466Y-48694D01*
X78462Y-48683D01*
X78453Y-48675D01*
X78512Y-48616D01*
X78550Y-48524D01*
X78550Y-48412D01*
X78487Y-48350D01*
X78075Y-48350D01*
X78075Y-48357D01*
X77975Y-48357D01*
X77975Y-48350D01*
X77967Y-48350D01*
X77967Y-48250D01*
X77975Y-48250D01*
X77975Y-48242D01*
X78075Y-48242D01*
X78075Y-48250D01*
X78487Y-48250D01*
X78550Y-48187D01*
X78550Y-48075D01*
X78512Y-47983D01*
X78453Y-47924D01*
X78511Y-47866D01*
X78544Y-47787D01*
X78575Y-47799D01*
X78674Y-47800D01*
X78874Y-47800D01*
X78966Y-47762D01*
X78975Y-47753D01*
X78983Y-47762D01*
X79075Y-47800D01*
X79112Y-47800D01*
X79175Y-47737D01*
X79175Y-47375D01*
X79167Y-47375D01*
X79167Y-47275D01*
X79175Y-47275D01*
X79175Y-46912D01*
X79112Y-46850D01*
X79075Y-46849D01*
X79045Y-46862D01*
X79077Y-46814D01*
X79100Y-46700D01*
X79077Y-46585D01*
X79012Y-46487D01*
X78914Y-46422D01*
X78824Y-46404D01*
X78847Y-46395D01*
X78994Y-46247D01*
X79024Y-46175D01*
X79024Y-46274D01*
X79062Y-46366D01*
X79133Y-46436D01*
X79225Y-46474D01*
X79324Y-46475D01*
X79874Y-46475D01*
X79966Y-46437D01*
X80036Y-46366D01*
X80074Y-46274D01*
X80074Y-46250D01*
X80175Y-46250D01*
X81587Y-47662D01*
X81587Y-47662D01*
X81685Y-47727D01*
X81800Y-47750D01*
X83175Y-47750D01*
X83275Y-47849D01*
X83274Y-48053D01*
X83278Y-48061D01*
X83278Y-48677D01*
X83278Y-48677D01*
G37*
G54D24*
X83278Y-48677D02*
X83075Y-48880D01*
X83075Y-48500D01*
X83075Y-48149D01*
X83074Y-48050D01*
X83036Y-47958D01*
X82966Y-47887D01*
X82874Y-47849D01*
X82837Y-47850D01*
X82775Y-47912D01*
X82775Y-48275D01*
X83012Y-48275D01*
X83075Y-48212D01*
X83075Y-48149D01*
X83075Y-48500D01*
X83075Y-48437D01*
X83012Y-48375D01*
X82775Y-48375D01*
X82775Y-48737D01*
X82837Y-48800D01*
X82874Y-48800D01*
X82966Y-48762D01*
X83036Y-48691D01*
X83074Y-48599D01*
X83075Y-48500D01*
X83075Y-48880D01*
X82696Y-49258D01*
X82675Y-49258D01*
X82675Y-48737D01*
X82675Y-48375D01*
X82675Y-48275D01*
X82675Y-47912D01*
X82612Y-47850D01*
X82575Y-47849D01*
X82483Y-47887D01*
X82475Y-47896D01*
X82466Y-47887D01*
X82374Y-47849D01*
X82337Y-47850D01*
X82275Y-47912D01*
X82275Y-48275D01*
X82437Y-48275D01*
X82512Y-48275D01*
X82675Y-48275D01*
X82675Y-48375D01*
X82512Y-48375D01*
X82437Y-48375D01*
X82275Y-48375D01*
X82275Y-48737D01*
X82337Y-48800D01*
X82374Y-48800D01*
X82466Y-48762D01*
X82475Y-48753D01*
X82483Y-48762D01*
X82575Y-48800D01*
X82612Y-48800D01*
X82675Y-48737D01*
X82675Y-49258D01*
X82175Y-49258D01*
X82175Y-48737D01*
X82175Y-48375D01*
X82175Y-48275D01*
X82175Y-47912D01*
X82112Y-47850D01*
X82075Y-47849D01*
X81983Y-47887D01*
X81975Y-47896D01*
X81966Y-47887D01*
X81874Y-47849D01*
X81837Y-47850D01*
X81775Y-47912D01*
X81775Y-48275D01*
X81937Y-48275D01*
X82012Y-48275D01*
X82175Y-48275D01*
X82175Y-48375D01*
X82012Y-48375D01*
X81937Y-48375D01*
X81775Y-48375D01*
X81775Y-48737D01*
X81837Y-48800D01*
X81874Y-48800D01*
X81966Y-48762D01*
X81975Y-48753D01*
X81983Y-48762D01*
X82075Y-48800D01*
X82112Y-48800D01*
X82175Y-48737D01*
X82175Y-49258D01*
X81297Y-49258D01*
X81094Y-49055D01*
X81030Y-49013D01*
X81243Y-48800D01*
X81374Y-48800D01*
X81466Y-48762D01*
X81475Y-48753D01*
X81483Y-48762D01*
X81575Y-48800D01*
X81612Y-48800D01*
X81675Y-48737D01*
X81675Y-48375D01*
X81667Y-48375D01*
X81667Y-48275D01*
X81675Y-48275D01*
X81675Y-47912D01*
X81612Y-47850D01*
X81575Y-47849D01*
X81483Y-47887D01*
X81475Y-47896D01*
X81466Y-47888D01*
X81374Y-47850D01*
X81275Y-47849D01*
X81075Y-47849D01*
X80983Y-47887D01*
X80913Y-47958D01*
X80875Y-48050D01*
X80874Y-48149D01*
X80874Y-48319D01*
X80575Y-48619D01*
X80575Y-47500D01*
X80575Y-47149D01*
X80574Y-47050D01*
X80536Y-46958D01*
X80466Y-46887D01*
X80374Y-46849D01*
X80337Y-46850D01*
X80275Y-46912D01*
X80275Y-47275D01*
X80512Y-47275D01*
X80575Y-47212D01*
X80575Y-47149D01*
X80575Y-47500D01*
X80575Y-47437D01*
X80512Y-47375D01*
X80275Y-47375D01*
X80275Y-47737D01*
X80337Y-47800D01*
X80374Y-47800D01*
X80466Y-47762D01*
X80536Y-47691D01*
X80574Y-47599D01*
X80575Y-47500D01*
X80575Y-48619D01*
X80500Y-48694D01*
X80175Y-48694D01*
X80175Y-47737D01*
X80175Y-47375D01*
X80175Y-47275D01*
X80175Y-46912D01*
X80112Y-46850D01*
X80075Y-46849D01*
X79983Y-46887D01*
X79975Y-46896D01*
X79966Y-46887D01*
X79874Y-46849D01*
X79837Y-46850D01*
X79775Y-46912D01*
X79775Y-47275D01*
X79937Y-47275D01*
X80012Y-47275D01*
X80175Y-47275D01*
X80175Y-47375D01*
X80012Y-47375D01*
X79937Y-47375D01*
X79775Y-47375D01*
X79775Y-47737D01*
X79837Y-47800D01*
X79874Y-47800D01*
X79966Y-47762D01*
X79975Y-47753D01*
X79983Y-47762D01*
X80075Y-47800D01*
X80112Y-47800D01*
X80175Y-47737D01*
X80175Y-48694D01*
X79675Y-48694D01*
X79675Y-47737D01*
X79675Y-47375D01*
X79675Y-47275D01*
X79675Y-46912D01*
X79612Y-46850D01*
X79575Y-46849D01*
X79483Y-46887D01*
X79475Y-46896D01*
X79466Y-46887D01*
X79374Y-46849D01*
X79337Y-46850D01*
X79275Y-46912D01*
X79275Y-47275D01*
X79437Y-47275D01*
X79512Y-47275D01*
X79675Y-47275D01*
X79675Y-47375D01*
X79512Y-47375D01*
X79437Y-47375D01*
X79275Y-47375D01*
X79275Y-47737D01*
X79337Y-47800D01*
X79374Y-47800D01*
X79466Y-47762D01*
X79475Y-47753D01*
X79483Y-47762D01*
X79575Y-47800D01*
X79612Y-47800D01*
X79675Y-47737D01*
X79675Y-48694D01*
X78466Y-48694D01*
X78462Y-48683D01*
X78453Y-48675D01*
X78512Y-48616D01*
X78550Y-48524D01*
X78550Y-48412D01*
X78487Y-48350D01*
X78075Y-48350D01*
X78075Y-48357D01*
X77975Y-48357D01*
X77975Y-48350D01*
X77967Y-48350D01*
X77967Y-48250D01*
X77975Y-48250D01*
X77975Y-48242D01*
X78075Y-48242D01*
X78075Y-48250D01*
X78487Y-48250D01*
X78550Y-48187D01*
X78550Y-48075D01*
X78512Y-47983D01*
X78453Y-47924D01*
X78511Y-47866D01*
X78544Y-47787D01*
X78575Y-47799D01*
X78674Y-47800D01*
X78874Y-47800D01*
X78966Y-47762D01*
X78975Y-47753D01*
X78983Y-47762D01*
X79075Y-47800D01*
X79112Y-47800D01*
X79175Y-47737D01*
X79175Y-47375D01*
X79167Y-47375D01*
X79167Y-47275D01*
X79175Y-47275D01*
X79175Y-46912D01*
X79112Y-46850D01*
X79075Y-46849D01*
X79045Y-46862D01*
X79077Y-46814D01*
X79100Y-46700D01*
X79077Y-46585D01*
X79012Y-46487D01*
X78914Y-46422D01*
X78824Y-46404D01*
X78847Y-46395D01*
X78994Y-46247D01*
X79024Y-46175D01*
X79024Y-46274D01*
X79062Y-46366D01*
X79133Y-46436D01*
X79225Y-46474D01*
X79324Y-46475D01*
X79874Y-46475D01*
X79966Y-46437D01*
X80036Y-46366D01*
X80074Y-46274D01*
X80074Y-46250D01*
X80175Y-46250D01*
X81587Y-47662D01*
X81587Y-47662D01*
X81685Y-47727D01*
X81800Y-47750D01*
X83175Y-47750D01*
X83275Y-47849D01*
X83274Y-48053D01*
X83278Y-48061D01*
X83278Y-48677D01*
G54D10*
G36*
X84321Y-50424D02*
X84246Y-50424D01*
X84238Y-50428D01*
X84150Y-50428D01*
X83950Y-50467D01*
X83780Y-50580D01*
X83280Y-51080D01*
X83167Y-51250D01*
X83128Y-51450D01*
X83128Y-52214D01*
X83083Y-52258D01*
X83075Y-52258D01*
X83075Y-51500D01*
X83075Y-51437D01*
X83012Y-51375D01*
X82775Y-51375D01*
X82775Y-51737D01*
X82837Y-51800D01*
X82874Y-51800D01*
X82966Y-51762D01*
X83036Y-51691D01*
X83074Y-51599D01*
X83075Y-51500D01*
X83075Y-52258D01*
X82675Y-52258D01*
X82675Y-51737D01*
X82675Y-51375D01*
X82512Y-51375D01*
X82437Y-51375D01*
X82275Y-51375D01*
X82275Y-51737D01*
X82337Y-51800D01*
X82374Y-51800D01*
X82466Y-51762D01*
X82475Y-51753D01*
X82483Y-51762D01*
X82575Y-51800D01*
X82612Y-51800D01*
X82675Y-51737D01*
X82675Y-52258D01*
X82175Y-52258D01*
X82175Y-51737D01*
X82175Y-51375D01*
X82012Y-51375D01*
X81937Y-51375D01*
X81775Y-51375D01*
X81775Y-51737D01*
X81837Y-51800D01*
X81874Y-51800D01*
X81966Y-51762D01*
X81975Y-51753D01*
X81983Y-51762D01*
X82075Y-51800D01*
X82112Y-51800D01*
X82175Y-51737D01*
X82175Y-52258D01*
X81347Y-52258D01*
X81144Y-52055D01*
X81133Y-52048D01*
X81187Y-52013D01*
X81418Y-51781D01*
X81466Y-51762D01*
X81475Y-51753D01*
X81483Y-51762D01*
X81575Y-51800D01*
X81612Y-51800D01*
X81675Y-51737D01*
X81675Y-51375D01*
X81667Y-51375D01*
X81667Y-51275D01*
X81675Y-51275D01*
X81675Y-51267D01*
X81775Y-51267D01*
X81775Y-51275D01*
X81937Y-51275D01*
X82012Y-51275D01*
X82175Y-51275D01*
X82175Y-51267D01*
X82275Y-51267D01*
X82275Y-51275D01*
X82437Y-51275D01*
X82512Y-51275D01*
X82675Y-51275D01*
X82675Y-51267D01*
X82775Y-51267D01*
X82775Y-51275D01*
X83012Y-51275D01*
X83075Y-51212D01*
X83075Y-51149D01*
X83074Y-51050D01*
X83036Y-50958D01*
X83025Y-50947D01*
X83179Y-50947D01*
X83378Y-50907D01*
X83548Y-50794D01*
X84224Y-50117D01*
X84224Y-50274D01*
X84262Y-50366D01*
X84321Y-50424D01*
X84321Y-50424D01*
G37*
G54D24*
X84321Y-50424D02*
X84246Y-50424D01*
X84238Y-50428D01*
X84150Y-50428D01*
X83950Y-50467D01*
X83780Y-50580D01*
X83280Y-51080D01*
X83167Y-51250D01*
X83128Y-51450D01*
X83128Y-52214D01*
X83083Y-52258D01*
X83075Y-52258D01*
X83075Y-51500D01*
X83075Y-51437D01*
X83012Y-51375D01*
X82775Y-51375D01*
X82775Y-51737D01*
X82837Y-51800D01*
X82874Y-51800D01*
X82966Y-51762D01*
X83036Y-51691D01*
X83074Y-51599D01*
X83075Y-51500D01*
X83075Y-52258D01*
X82675Y-52258D01*
X82675Y-51737D01*
X82675Y-51375D01*
X82512Y-51375D01*
X82437Y-51375D01*
X82275Y-51375D01*
X82275Y-51737D01*
X82337Y-51800D01*
X82374Y-51800D01*
X82466Y-51762D01*
X82475Y-51753D01*
X82483Y-51762D01*
X82575Y-51800D01*
X82612Y-51800D01*
X82675Y-51737D01*
X82675Y-52258D01*
X82175Y-52258D01*
X82175Y-51737D01*
X82175Y-51375D01*
X82012Y-51375D01*
X81937Y-51375D01*
X81775Y-51375D01*
X81775Y-51737D01*
X81837Y-51800D01*
X81874Y-51800D01*
X81966Y-51762D01*
X81975Y-51753D01*
X81983Y-51762D01*
X82075Y-51800D01*
X82112Y-51800D01*
X82175Y-51737D01*
X82175Y-52258D01*
X81347Y-52258D01*
X81144Y-52055D01*
X81133Y-52048D01*
X81187Y-52013D01*
X81418Y-51781D01*
X81466Y-51762D01*
X81475Y-51753D01*
X81483Y-51762D01*
X81575Y-51800D01*
X81612Y-51800D01*
X81675Y-51737D01*
X81675Y-51375D01*
X81667Y-51375D01*
X81667Y-51275D01*
X81675Y-51275D01*
X81675Y-51267D01*
X81775Y-51267D01*
X81775Y-51275D01*
X81937Y-51275D01*
X82012Y-51275D01*
X82175Y-51275D01*
X82175Y-51267D01*
X82275Y-51267D01*
X82275Y-51275D01*
X82437Y-51275D01*
X82512Y-51275D01*
X82675Y-51275D01*
X82675Y-51267D01*
X82775Y-51267D01*
X82775Y-51275D01*
X83012Y-51275D01*
X83075Y-51212D01*
X83075Y-51149D01*
X83074Y-51050D01*
X83036Y-50958D01*
X83025Y-50947D01*
X83179Y-50947D01*
X83378Y-50907D01*
X83548Y-50794D01*
X84224Y-50117D01*
X84224Y-50274D01*
X84262Y-50366D01*
X84321Y-50424D01*
G54D10*
G36*
X88000Y-45839D02*
X87975Y-45814D01*
X87699Y-45700D01*
X87401Y-45699D01*
X87125Y-45813D01*
X86914Y-46024D01*
X86800Y-46300D01*
X86800Y-46428D01*
X84711Y-46428D01*
X84704Y-46425D01*
X84496Y-46424D01*
X84488Y-46428D01*
X84132Y-46428D01*
X84124Y-46425D01*
X84025Y-46424D01*
X83475Y-46424D01*
X83383Y-46462D01*
X83313Y-46533D01*
X83275Y-46625D01*
X83274Y-46724D01*
X83274Y-47150D01*
X81924Y-47150D01*
X80512Y-45737D01*
X80414Y-45672D01*
X80300Y-45650D01*
X80075Y-45650D01*
X80075Y-45625D01*
X80037Y-45533D01*
X80003Y-45500D01*
X81490Y-45500D01*
X81371Y-45678D01*
X81326Y-45787D01*
X81326Y-45788D01*
X81280Y-46016D01*
X81280Y-46016D01*
X81280Y-46016D01*
X81280Y-46075D01*
X81280Y-46133D01*
X81280Y-46133D01*
X81280Y-46133D01*
X81326Y-46361D01*
X81326Y-46362D01*
X81371Y-46471D01*
X81500Y-46665D01*
X81583Y-46748D01*
X81584Y-46749D01*
X81777Y-46877D01*
X81778Y-46878D01*
X81886Y-46923D01*
X82116Y-46969D01*
X82233Y-46969D01*
X82234Y-46969D01*
X82461Y-46923D01*
X82462Y-46923D01*
X82571Y-46878D01*
X82765Y-46749D01*
X82848Y-46666D01*
X82849Y-46665D01*
X82977Y-46472D01*
X82978Y-46471D01*
X83023Y-46363D01*
X83069Y-46133D01*
X83069Y-46133D01*
X83069Y-46133D01*
X83069Y-46075D01*
X83069Y-46016D01*
X83069Y-46016D01*
X83069Y-46016D01*
X83023Y-45786D01*
X82978Y-45678D01*
X82977Y-45677D01*
X82859Y-45500D01*
X88000Y-45500D01*
X88000Y-45839D01*
X88000Y-45839D01*
G37*
G54D24*
X88000Y-45839D02*
X87975Y-45814D01*
X87699Y-45700D01*
X87401Y-45699D01*
X87125Y-45813D01*
X86914Y-46024D01*
X86800Y-46300D01*
X86800Y-46428D01*
X84711Y-46428D01*
X84704Y-46425D01*
X84496Y-46424D01*
X84488Y-46428D01*
X84132Y-46428D01*
X84124Y-46425D01*
X84025Y-46424D01*
X83475Y-46424D01*
X83383Y-46462D01*
X83313Y-46533D01*
X83275Y-46625D01*
X83274Y-46724D01*
X83274Y-47150D01*
X81924Y-47150D01*
X80512Y-45737D01*
X80414Y-45672D01*
X80300Y-45650D01*
X80075Y-45650D01*
X80075Y-45625D01*
X80037Y-45533D01*
X80003Y-45500D01*
X81490Y-45500D01*
X81371Y-45678D01*
X81326Y-45787D01*
X81326Y-45788D01*
X81280Y-46016D01*
X81280Y-46016D01*
X81280Y-46016D01*
X81280Y-46075D01*
X81280Y-46133D01*
X81280Y-46133D01*
X81280Y-46133D01*
X81326Y-46361D01*
X81326Y-46362D01*
X81371Y-46471D01*
X81500Y-46665D01*
X81583Y-46748D01*
X81584Y-46749D01*
X81777Y-46877D01*
X81778Y-46878D01*
X81886Y-46923D01*
X82116Y-46969D01*
X82233Y-46969D01*
X82234Y-46969D01*
X82461Y-46923D01*
X82462Y-46923D01*
X82571Y-46878D01*
X82765Y-46749D01*
X82848Y-46666D01*
X82849Y-46665D01*
X82977Y-46472D01*
X82978Y-46471D01*
X83023Y-46363D01*
X83069Y-46133D01*
X83069Y-46133D01*
X83069Y-46133D01*
X83069Y-46075D01*
X83069Y-46016D01*
X83069Y-46016D01*
X83069Y-46016D01*
X83023Y-45786D01*
X82978Y-45678D01*
X82977Y-45677D01*
X82859Y-45500D01*
X88000Y-45500D01*
X88000Y-45839D01*
G54D10*
G36*
X88000Y-47699D02*
X87000Y-47699D01*
X86908Y-47737D01*
X86838Y-47808D01*
X86800Y-47900D01*
X86799Y-47999D01*
X86799Y-48428D01*
X85025Y-48428D01*
X85087Y-48366D01*
X85125Y-48274D01*
X85125Y-48062D01*
X85062Y-48000D01*
X84650Y-48000D01*
X84650Y-48007D01*
X84550Y-48007D01*
X84550Y-48000D01*
X84542Y-48000D01*
X84542Y-47900D01*
X84550Y-47900D01*
X84550Y-47892D01*
X84650Y-47892D01*
X84650Y-47900D01*
X85062Y-47900D01*
X85125Y-47837D01*
X85125Y-47625D01*
X85087Y-47533D01*
X85025Y-47472D01*
X87050Y-47472D01*
X87249Y-47432D01*
X87419Y-47319D01*
X87538Y-47199D01*
X87698Y-47200D01*
X87974Y-47086D01*
X88000Y-47060D01*
X88000Y-47699D01*
X88000Y-47699D01*
G37*
G54D24*
X88000Y-47699D02*
X87000Y-47699D01*
X86908Y-47737D01*
X86838Y-47808D01*
X86800Y-47900D01*
X86799Y-47999D01*
X86799Y-48428D01*
X85025Y-48428D01*
X85087Y-48366D01*
X85125Y-48274D01*
X85125Y-48062D01*
X85062Y-48000D01*
X84650Y-48000D01*
X84650Y-48007D01*
X84550Y-48007D01*
X84550Y-48000D01*
X84542Y-48000D01*
X84542Y-47900D01*
X84550Y-47900D01*
X84550Y-47892D01*
X84650Y-47892D01*
X84650Y-47900D01*
X85062Y-47900D01*
X85125Y-47837D01*
X85125Y-47625D01*
X85087Y-47533D01*
X85025Y-47472D01*
X87050Y-47472D01*
X87249Y-47432D01*
X87419Y-47319D01*
X87538Y-47199D01*
X87698Y-47200D01*
X87974Y-47086D01*
X88000Y-47060D01*
X88000Y-47699D01*
G54D10*
G36*
X88000Y-49839D02*
X87975Y-49814D01*
X87699Y-49700D01*
X87401Y-49699D01*
X87125Y-49813D01*
X86914Y-50024D01*
X86800Y-50300D01*
X86800Y-50428D01*
X85175Y-50428D01*
X85237Y-50366D01*
X85275Y-50274D01*
X85275Y-50062D01*
X85212Y-50000D01*
X84800Y-50000D01*
X84800Y-50007D01*
X84700Y-50007D01*
X84700Y-50000D01*
X84692Y-50000D01*
X84692Y-49900D01*
X84700Y-49900D01*
X84700Y-49892D01*
X84800Y-49892D01*
X84800Y-49900D01*
X85212Y-49900D01*
X85275Y-49837D01*
X85275Y-49625D01*
X85237Y-49533D01*
X85175Y-49472D01*
X87050Y-49472D01*
X87249Y-49432D01*
X87419Y-49319D01*
X87538Y-49200D01*
X88000Y-49200D01*
X88000Y-49839D01*
X88000Y-49839D01*
G37*
G54D24*
X88000Y-49839D02*
X87975Y-49814D01*
X87699Y-49700D01*
X87401Y-49699D01*
X87125Y-49813D01*
X86914Y-50024D01*
X86800Y-50300D01*
X86800Y-50428D01*
X85175Y-50428D01*
X85237Y-50366D01*
X85275Y-50274D01*
X85275Y-50062D01*
X85212Y-50000D01*
X84800Y-50000D01*
X84800Y-50007D01*
X84700Y-50007D01*
X84700Y-50000D01*
X84692Y-50000D01*
X84692Y-49900D01*
X84700Y-49900D01*
X84700Y-49892D01*
X84800Y-49892D01*
X84800Y-49900D01*
X85212Y-49900D01*
X85275Y-49837D01*
X85275Y-49625D01*
X85237Y-49533D01*
X85175Y-49472D01*
X87050Y-49472D01*
X87249Y-49432D01*
X87419Y-49319D01*
X87538Y-49200D01*
X88000Y-49200D01*
X88000Y-49839D01*
G54D10*
G36*
X88000Y-53699D02*
X87538Y-53699D01*
X87419Y-53580D01*
X87249Y-53467D01*
X87050Y-53428D01*
X84775Y-53428D01*
X84837Y-53366D01*
X84875Y-53274D01*
X84875Y-52625D01*
X84837Y-52533D01*
X84766Y-52463D01*
X84735Y-52450D01*
X84766Y-52436D01*
X84837Y-52366D01*
X84875Y-52274D01*
X84875Y-52062D01*
X84812Y-52000D01*
X84400Y-52000D01*
X84400Y-52412D01*
X84437Y-52450D01*
X84400Y-52487D01*
X84400Y-52900D01*
X84812Y-52900D01*
X84875Y-52837D01*
X84875Y-52625D01*
X84875Y-53274D01*
X84875Y-53062D01*
X84812Y-53000D01*
X84400Y-53000D01*
X84400Y-53007D01*
X84300Y-53007D01*
X84300Y-53000D01*
X84292Y-53000D01*
X84292Y-52900D01*
X84300Y-52900D01*
X84300Y-52487D01*
X84262Y-52450D01*
X84300Y-52412D01*
X84300Y-52000D01*
X84292Y-52000D01*
X84292Y-51900D01*
X84300Y-51900D01*
X84300Y-51892D01*
X84400Y-51892D01*
X84400Y-51900D01*
X84812Y-51900D01*
X84875Y-51837D01*
X84875Y-51625D01*
X84837Y-51533D01*
X84775Y-51472D01*
X87050Y-51472D01*
X87249Y-51432D01*
X87419Y-51319D01*
X87538Y-51199D01*
X87698Y-51200D01*
X87974Y-51086D01*
X88000Y-51060D01*
X88000Y-51897D01*
X87958Y-51803D01*
X87679Y-51696D01*
X87381Y-51704D01*
X87141Y-51803D01*
X87090Y-51919D01*
X87550Y-52379D01*
X87555Y-52373D01*
X87626Y-52444D01*
X87620Y-52450D01*
X87626Y-52455D01*
X87555Y-52526D01*
X87550Y-52520D01*
X87479Y-52591D01*
X87479Y-52450D01*
X87019Y-51990D01*
X86903Y-52041D01*
X86796Y-52320D01*
X86804Y-52618D01*
X86903Y-52858D01*
X87019Y-52909D01*
X87479Y-52450D01*
X87479Y-52591D01*
X87090Y-52980D01*
X87141Y-53096D01*
X87420Y-53203D01*
X87718Y-53195D01*
X87958Y-53096D01*
X88000Y-53002D01*
X88000Y-53699D01*
X88000Y-53699D01*
G37*
G54D24*
X88000Y-53699D02*
X87538Y-53699D01*
X87419Y-53580D01*
X87249Y-53467D01*
X87050Y-53428D01*
X84775Y-53428D01*
X84837Y-53366D01*
X84875Y-53274D01*
X84875Y-52625D01*
X84837Y-52533D01*
X84766Y-52463D01*
X84735Y-52450D01*
X84766Y-52436D01*
X84837Y-52366D01*
X84875Y-52274D01*
X84875Y-52062D01*
X84812Y-52000D01*
X84400Y-52000D01*
X84400Y-52412D01*
X84437Y-52450D01*
X84400Y-52487D01*
X84400Y-52900D01*
X84812Y-52900D01*
X84875Y-52837D01*
X84875Y-52625D01*
X84875Y-53274D01*
X84875Y-53062D01*
X84812Y-53000D01*
X84400Y-53000D01*
X84400Y-53007D01*
X84300Y-53007D01*
X84300Y-53000D01*
X84292Y-53000D01*
X84292Y-52900D01*
X84300Y-52900D01*
X84300Y-52487D01*
X84262Y-52450D01*
X84300Y-52412D01*
X84300Y-52000D01*
X84292Y-52000D01*
X84292Y-51900D01*
X84300Y-51900D01*
X84300Y-51892D01*
X84400Y-51892D01*
X84400Y-51900D01*
X84812Y-51900D01*
X84875Y-51837D01*
X84875Y-51625D01*
X84837Y-51533D01*
X84775Y-51472D01*
X87050Y-51472D01*
X87249Y-51432D01*
X87419Y-51319D01*
X87538Y-51199D01*
X87698Y-51200D01*
X87974Y-51086D01*
X88000Y-51060D01*
X88000Y-51897D01*
X87958Y-51803D01*
X87679Y-51696D01*
X87381Y-51704D01*
X87141Y-51803D01*
X87090Y-51919D01*
X87550Y-52379D01*
X87555Y-52373D01*
X87626Y-52444D01*
X87620Y-52450D01*
X87626Y-52455D01*
X87555Y-52526D01*
X87550Y-52520D01*
X87479Y-52591D01*
X87479Y-52450D01*
X87019Y-51990D01*
X86903Y-52041D01*
X86796Y-52320D01*
X86804Y-52618D01*
X86903Y-52858D01*
X87019Y-52909D01*
X87479Y-52450D01*
X87479Y-52591D01*
X87090Y-52980D01*
X87141Y-53096D01*
X87420Y-53203D01*
X87718Y-53195D01*
X87958Y-53096D01*
X88000Y-53002D01*
X88000Y-53699D01*
G54D10*
G36*
X88000Y-55839D02*
X87975Y-55814D01*
X87699Y-55700D01*
X87538Y-55699D01*
X87419Y-55580D01*
X87249Y-55467D01*
X87050Y-55428D01*
X84775Y-55428D01*
X84837Y-55366D01*
X84875Y-55274D01*
X84875Y-55062D01*
X84812Y-55000D01*
X84400Y-55000D01*
X84400Y-55007D01*
X84300Y-55007D01*
X84300Y-55000D01*
X83887Y-55000D01*
X83825Y-55062D01*
X83824Y-55258D01*
X83075Y-55258D01*
X83075Y-54500D01*
X83075Y-54437D01*
X83012Y-54375D01*
X82775Y-54375D01*
X82775Y-54737D01*
X82837Y-54800D01*
X82874Y-54800D01*
X82966Y-54762D01*
X83036Y-54691D01*
X83074Y-54599D01*
X83075Y-54500D01*
X83075Y-55258D01*
X82675Y-55258D01*
X82675Y-54737D01*
X82675Y-54375D01*
X82512Y-54375D01*
X82437Y-54375D01*
X82275Y-54375D01*
X82275Y-54737D01*
X82337Y-54800D01*
X82374Y-54800D01*
X82466Y-54762D01*
X82475Y-54753D01*
X82483Y-54762D01*
X82575Y-54800D01*
X82612Y-54800D01*
X82675Y-54737D01*
X82675Y-55258D01*
X82175Y-55258D01*
X82175Y-54737D01*
X82175Y-54375D01*
X82012Y-54375D01*
X81937Y-54375D01*
X81775Y-54375D01*
X81775Y-54737D01*
X81837Y-54800D01*
X81874Y-54800D01*
X81966Y-54762D01*
X81975Y-54753D01*
X81983Y-54762D01*
X82075Y-54800D01*
X82112Y-54800D01*
X82175Y-54737D01*
X82175Y-55258D01*
X81116Y-55258D01*
X80913Y-55055D01*
X80814Y-54990D01*
X80860Y-54990D01*
X80860Y-54989D01*
X80974Y-54967D01*
X80974Y-54967D01*
X81072Y-54902D01*
X81174Y-54800D01*
X81174Y-54800D01*
X81374Y-54800D01*
X81466Y-54762D01*
X81475Y-54753D01*
X81483Y-54762D01*
X81575Y-54800D01*
X81612Y-54800D01*
X81675Y-54737D01*
X81675Y-54375D01*
X81667Y-54375D01*
X81667Y-54275D01*
X81675Y-54275D01*
X81675Y-54267D01*
X81775Y-54267D01*
X81775Y-54275D01*
X81937Y-54275D01*
X82012Y-54275D01*
X82175Y-54275D01*
X82175Y-54267D01*
X82275Y-54267D01*
X82275Y-54275D01*
X82437Y-54275D01*
X82512Y-54275D01*
X82675Y-54275D01*
X82675Y-54267D01*
X82775Y-54267D01*
X82775Y-54275D01*
X83012Y-54275D01*
X83075Y-54212D01*
X83075Y-54149D01*
X83074Y-54050D01*
X83036Y-53958D01*
X83025Y-53947D01*
X83408Y-53947D01*
X83780Y-54319D01*
X83780Y-54319D01*
X83950Y-54432D01*
X83950Y-54432D01*
X83989Y-54439D01*
X83933Y-54463D01*
X83862Y-54533D01*
X83824Y-54625D01*
X83825Y-54837D01*
X83887Y-54900D01*
X84300Y-54900D01*
X84300Y-54892D01*
X84400Y-54892D01*
X84400Y-54900D01*
X84812Y-54900D01*
X84875Y-54837D01*
X84875Y-54625D01*
X84837Y-54533D01*
X84775Y-54472D01*
X86799Y-54472D01*
X86799Y-54999D01*
X86837Y-55091D01*
X86908Y-55161D01*
X87000Y-55199D01*
X87099Y-55200D01*
X88000Y-55200D01*
X88000Y-55839D01*
X88000Y-55839D01*
G37*
G54D24*
X88000Y-55839D02*
X87975Y-55814D01*
X87699Y-55700D01*
X87538Y-55699D01*
X87419Y-55580D01*
X87249Y-55467D01*
X87050Y-55428D01*
X84775Y-55428D01*
X84837Y-55366D01*
X84875Y-55274D01*
X84875Y-55062D01*
X84812Y-55000D01*
X84400Y-55000D01*
X84400Y-55007D01*
X84300Y-55007D01*
X84300Y-55000D01*
X83887Y-55000D01*
X83825Y-55062D01*
X83824Y-55258D01*
X83075Y-55258D01*
X83075Y-54500D01*
X83075Y-54437D01*
X83012Y-54375D01*
X82775Y-54375D01*
X82775Y-54737D01*
X82837Y-54800D01*
X82874Y-54800D01*
X82966Y-54762D01*
X83036Y-54691D01*
X83074Y-54599D01*
X83075Y-54500D01*
X83075Y-55258D01*
X82675Y-55258D01*
X82675Y-54737D01*
X82675Y-54375D01*
X82512Y-54375D01*
X82437Y-54375D01*
X82275Y-54375D01*
X82275Y-54737D01*
X82337Y-54800D01*
X82374Y-54800D01*
X82466Y-54762D01*
X82475Y-54753D01*
X82483Y-54762D01*
X82575Y-54800D01*
X82612Y-54800D01*
X82675Y-54737D01*
X82675Y-55258D01*
X82175Y-55258D01*
X82175Y-54737D01*
X82175Y-54375D01*
X82012Y-54375D01*
X81937Y-54375D01*
X81775Y-54375D01*
X81775Y-54737D01*
X81837Y-54800D01*
X81874Y-54800D01*
X81966Y-54762D01*
X81975Y-54753D01*
X81983Y-54762D01*
X82075Y-54800D01*
X82112Y-54800D01*
X82175Y-54737D01*
X82175Y-55258D01*
X81116Y-55258D01*
X80913Y-55055D01*
X80814Y-54990D01*
X80860Y-54990D01*
X80860Y-54989D01*
X80974Y-54967D01*
X80974Y-54967D01*
X81072Y-54902D01*
X81174Y-54800D01*
X81174Y-54800D01*
X81374Y-54800D01*
X81466Y-54762D01*
X81475Y-54753D01*
X81483Y-54762D01*
X81575Y-54800D01*
X81612Y-54800D01*
X81675Y-54737D01*
X81675Y-54375D01*
X81667Y-54375D01*
X81667Y-54275D01*
X81675Y-54275D01*
X81675Y-54267D01*
X81775Y-54267D01*
X81775Y-54275D01*
X81937Y-54275D01*
X82012Y-54275D01*
X82175Y-54275D01*
X82175Y-54267D01*
X82275Y-54267D01*
X82275Y-54275D01*
X82437Y-54275D01*
X82512Y-54275D01*
X82675Y-54275D01*
X82675Y-54267D01*
X82775Y-54267D01*
X82775Y-54275D01*
X83012Y-54275D01*
X83075Y-54212D01*
X83075Y-54149D01*
X83074Y-54050D01*
X83036Y-53958D01*
X83025Y-53947D01*
X83408Y-53947D01*
X83780Y-54319D01*
X83780Y-54319D01*
X83950Y-54432D01*
X83950Y-54432D01*
X83989Y-54439D01*
X83933Y-54463D01*
X83862Y-54533D01*
X83824Y-54625D01*
X83825Y-54837D01*
X83887Y-54900D01*
X84300Y-54900D01*
X84300Y-54892D01*
X84400Y-54892D01*
X84400Y-54900D01*
X84812Y-54900D01*
X84875Y-54837D01*
X84875Y-54625D01*
X84837Y-54533D01*
X84775Y-54472D01*
X86799Y-54472D01*
X86799Y-54999D01*
X86837Y-55091D01*
X86908Y-55161D01*
X87000Y-55199D01*
X87099Y-55200D01*
X88000Y-55200D01*
X88000Y-55839D01*
G54D10*
G36*
X88000Y-57699D02*
X87538Y-57699D01*
X87419Y-57580D01*
X87249Y-57467D01*
X87050Y-57428D01*
X85425Y-57428D01*
X85487Y-57366D01*
X85525Y-57274D01*
X85525Y-57062D01*
X85462Y-57000D01*
X85050Y-57000D01*
X85050Y-57007D01*
X84950Y-57007D01*
X84950Y-57000D01*
X84942Y-57000D01*
X84942Y-56900D01*
X84950Y-56900D01*
X84950Y-56892D01*
X85050Y-56892D01*
X85050Y-56900D01*
X85462Y-56900D01*
X85525Y-56837D01*
X85525Y-56625D01*
X85487Y-56533D01*
X85425Y-56472D01*
X86799Y-56472D01*
X86799Y-56598D01*
X86913Y-56874D01*
X87124Y-57085D01*
X87400Y-57199D01*
X87698Y-57200D01*
X87974Y-57086D01*
X88000Y-57060D01*
X88000Y-57699D01*
X88000Y-57699D01*
G37*
G54D24*
X88000Y-57699D02*
X87538Y-57699D01*
X87419Y-57580D01*
X87249Y-57467D01*
X87050Y-57428D01*
X85425Y-57428D01*
X85487Y-57366D01*
X85525Y-57274D01*
X85525Y-57062D01*
X85462Y-57000D01*
X85050Y-57000D01*
X85050Y-57007D01*
X84950Y-57007D01*
X84950Y-57000D01*
X84942Y-57000D01*
X84942Y-56900D01*
X84950Y-56900D01*
X84950Y-56892D01*
X85050Y-56892D01*
X85050Y-56900D01*
X85462Y-56900D01*
X85525Y-56837D01*
X85525Y-56625D01*
X85487Y-56533D01*
X85425Y-56472D01*
X86799Y-56472D01*
X86799Y-56598D01*
X86913Y-56874D01*
X87124Y-57085D01*
X87400Y-57199D01*
X87698Y-57200D01*
X87974Y-57086D01*
X88000Y-57060D01*
X88000Y-57699D01*
M02*
