G04 (created by PCBNEW (2013-07-07 BZR 4022)-stable) date 10/09/2014 21:53:45*
%MOIN*%
G04 Gerber Fmt 3.4, Leading zero omitted, Abs format*
%FSLAX34Y34*%
G01*
G70*
G90*
G04 APERTURE LIST*
%ADD10C,0.00393701*%
%ADD11R,0.035X0.055*%
%ADD12R,0.055X0.035*%
%ADD13R,0.06X0.08*%
%ADD14R,0.08X0.06*%
%ADD15R,0.02X0.045*%
%ADD16R,0.036X0.036*%
G04 APERTURE END LIST*
G54D10*
G54D11*
X72625Y-42650D03*
X73375Y-42650D03*
G54D12*
X79800Y-34975D03*
X79800Y-34225D03*
G54D11*
X80625Y-41150D03*
X79875Y-41150D03*
X65525Y-36650D03*
X64775Y-36650D03*
G54D12*
X67000Y-35400D03*
X67000Y-36150D03*
X70950Y-36525D03*
X70950Y-35775D03*
X68800Y-36375D03*
X68800Y-35625D03*
G54D11*
X65675Y-33800D03*
X64925Y-33800D03*
G54D13*
X62900Y-36500D03*
X61600Y-36500D03*
G54D14*
X59650Y-42850D03*
X59650Y-41550D03*
G54D11*
X76625Y-42800D03*
X77375Y-42800D03*
G54D15*
X75000Y-38800D03*
X75500Y-38800D03*
X76000Y-38800D03*
X76500Y-38800D03*
X77000Y-38800D03*
X77500Y-38800D03*
X78000Y-38800D03*
X78000Y-41300D03*
X77500Y-41300D03*
X76500Y-41300D03*
X76000Y-41300D03*
X75500Y-41300D03*
X75000Y-41300D03*
X77000Y-41300D03*
G54D16*
X60750Y-39850D03*
X60750Y-40550D03*
X61550Y-40200D03*
G54D12*
X80300Y-38525D03*
X80300Y-37775D03*
G54D11*
X80425Y-36750D03*
X79675Y-36750D03*
X71925Y-44300D03*
X71175Y-44300D03*
G54D12*
X77400Y-34475D03*
X77400Y-33725D03*
G54D11*
X70825Y-33750D03*
X70075Y-33750D03*
X73475Y-34750D03*
X72725Y-34750D03*
G54D12*
X74550Y-43925D03*
X74550Y-43175D03*
G54D13*
X60650Y-44500D03*
X61950Y-44500D03*
G54D12*
X57050Y-34275D03*
X57050Y-33525D03*
G54D11*
X58025Y-33300D03*
X58775Y-33300D03*
G54D12*
X62600Y-32775D03*
X62600Y-33525D03*
G54D11*
X63625Y-32850D03*
X64375Y-32850D03*
G54D12*
X66800Y-33725D03*
X66800Y-32975D03*
G54D11*
X69975Y-32850D03*
X70725Y-32850D03*
G54D12*
X58100Y-34125D03*
X58100Y-34875D03*
X59950Y-33175D03*
X59950Y-33925D03*
X60950Y-33175D03*
X60950Y-33925D03*
X67900Y-33175D03*
X67900Y-33925D03*
X68950Y-33175D03*
X68950Y-33925D03*
G54D11*
X72075Y-32850D03*
X72825Y-32850D03*
G54D12*
X74800Y-37975D03*
X74800Y-37225D03*
G54D11*
X75775Y-36850D03*
X76525Y-36850D03*
G54D12*
X79450Y-39575D03*
X79450Y-38825D03*
G54D11*
X77325Y-36800D03*
X78075Y-36800D03*
X72075Y-36250D03*
X72825Y-36250D03*
X69875Y-42300D03*
X70625Y-42300D03*
G54D12*
X80500Y-40225D03*
X80500Y-39475D03*
M02*
