G04 (created by PCBNEW (2013-07-07 BZR 4022)-stable) date 10/09/2014 21:53:45*
%MOIN*%
G04 Gerber Fmt 3.4, Leading zero omitted, Abs format*
%FSLAX34Y34*%
G01*
G70*
G90*
G04 APERTURE LIST*
%ADD10C,0.00393701*%
%ADD11C,0.012*%
%ADD12C,0.07*%
%ADD13R,0.07X0.07*%
%ADD14C,0.15*%
%ADD15R,0.035X0.055*%
%ADD16R,0.055X0.035*%
%ADD17R,0.06X0.08*%
%ADD18R,0.08X0.06*%
%ADD19O,0.062X0.09*%
%ADD20R,0.062X0.09*%
%ADD21R,0.02X0.045*%
%ADD22R,0.1181X0.1181*%
%ADD23C,0.1181*%
%ADD24R,0.06X0.06*%
%ADD25C,0.06*%
%ADD26R,0.036X0.036*%
%ADD27C,0.066*%
%ADD28C,0.05*%
%ADD29C,0.03*%
%ADD30C,0.025*%
%ADD31C,0.017*%
%ADD32C,0.045*%
G04 APERTURE END LIST*
G54D10*
G54D11*
X81142Y-36057D02*
X81542Y-36152D01*
X81257Y-36247D01*
X81542Y-36342D01*
X81142Y-36438D01*
X81142Y-36580D02*
X81542Y-36676D01*
X81257Y-36771D01*
X81542Y-36866D01*
X81142Y-36961D01*
X81142Y-37104D02*
X81542Y-37200D01*
X81257Y-37295D01*
X81542Y-37390D01*
X81142Y-37485D01*
X81485Y-37676D02*
X81514Y-37700D01*
X81542Y-37676D01*
X81514Y-37652D01*
X81485Y-37676D01*
X81542Y-37676D01*
X81142Y-37866D02*
X81542Y-37961D01*
X81257Y-38057D01*
X81542Y-38152D01*
X81142Y-38247D01*
X81542Y-38652D02*
X81228Y-38652D01*
X81171Y-38628D01*
X81142Y-38580D01*
X81142Y-38485D01*
X81171Y-38438D01*
X81514Y-38652D02*
X81542Y-38604D01*
X81542Y-38485D01*
X81514Y-38438D01*
X81457Y-38414D01*
X81400Y-38414D01*
X81342Y-38438D01*
X81314Y-38485D01*
X81314Y-38604D01*
X81285Y-38652D01*
X81542Y-38961D02*
X81514Y-38914D01*
X81457Y-38890D01*
X80942Y-38890D01*
X81142Y-39080D02*
X81142Y-39271D01*
X80942Y-39152D02*
X81457Y-39152D01*
X81514Y-39176D01*
X81542Y-39223D01*
X81542Y-39271D01*
X81514Y-39628D02*
X81542Y-39580D01*
X81542Y-39485D01*
X81514Y-39438D01*
X81457Y-39414D01*
X81228Y-39414D01*
X81171Y-39438D01*
X81142Y-39485D01*
X81142Y-39580D01*
X81171Y-39628D01*
X81228Y-39652D01*
X81285Y-39652D01*
X81342Y-39414D01*
X81514Y-40080D02*
X81542Y-40033D01*
X81542Y-39938D01*
X81514Y-39890D01*
X81485Y-39866D01*
X81428Y-39842D01*
X81257Y-39842D01*
X81200Y-39866D01*
X81171Y-39890D01*
X81142Y-39938D01*
X81142Y-40033D01*
X81171Y-40080D01*
X81542Y-40295D02*
X80942Y-40295D01*
X81542Y-40509D02*
X81228Y-40509D01*
X81171Y-40485D01*
X81142Y-40438D01*
X81142Y-40366D01*
X81171Y-40319D01*
X81200Y-40295D01*
X81485Y-40747D02*
X81514Y-40771D01*
X81542Y-40747D01*
X81514Y-40723D01*
X81485Y-40747D01*
X81542Y-40747D01*
X81514Y-41200D02*
X81542Y-41152D01*
X81542Y-41057D01*
X81514Y-41009D01*
X81485Y-40985D01*
X81428Y-40961D01*
X81257Y-40961D01*
X81200Y-40985D01*
X81171Y-41009D01*
X81142Y-41057D01*
X81142Y-41152D01*
X81171Y-41200D01*
X81542Y-41485D02*
X81514Y-41438D01*
X81485Y-41414D01*
X81428Y-41390D01*
X81257Y-41390D01*
X81200Y-41414D01*
X81171Y-41438D01*
X81142Y-41485D01*
X81142Y-41557D01*
X81171Y-41604D01*
X81200Y-41628D01*
X81257Y-41652D01*
X81428Y-41652D01*
X81485Y-41628D01*
X81514Y-41604D01*
X81542Y-41557D01*
X81542Y-41485D01*
X81542Y-41866D02*
X81142Y-41866D01*
X81200Y-41866D02*
X81171Y-41890D01*
X81142Y-41938D01*
X81142Y-42009D01*
X81171Y-42057D01*
X81228Y-42080D01*
X81542Y-42080D01*
X81228Y-42080D02*
X81171Y-42104D01*
X81142Y-42152D01*
X81142Y-42223D01*
X81171Y-42271D01*
X81228Y-42295D01*
X81542Y-42295D01*
G54D12*
X68700Y-42500D03*
X67700Y-42500D03*
G54D13*
X66700Y-42500D03*
G54D14*
X56800Y-40150D03*
X58800Y-40150D03*
X62800Y-40150D03*
X64800Y-40150D03*
G54D12*
X68100Y-36250D03*
X70100Y-36250D03*
G54D15*
X72625Y-42650D03*
X73375Y-42650D03*
G54D16*
X79800Y-34975D03*
X79800Y-34225D03*
G54D15*
X80625Y-41150D03*
X79875Y-41150D03*
X65525Y-36650D03*
X64775Y-36650D03*
G54D16*
X67000Y-35400D03*
X67000Y-36150D03*
X70950Y-36525D03*
X70950Y-35775D03*
X68800Y-36375D03*
X68800Y-35625D03*
G54D15*
X65675Y-33800D03*
X64925Y-33800D03*
G54D17*
X62900Y-36500D03*
X61600Y-36500D03*
G54D18*
X59650Y-42850D03*
X59650Y-41550D03*
G54D19*
X59950Y-37700D03*
X60950Y-37700D03*
X61950Y-37700D03*
X62950Y-37700D03*
X63950Y-37700D03*
X64950Y-37700D03*
X65950Y-37700D03*
X66950Y-37700D03*
X67950Y-37700D03*
X68950Y-37700D03*
X69950Y-37700D03*
X70950Y-37700D03*
X71950Y-37700D03*
G54D20*
X58950Y-37700D03*
G54D19*
X71950Y-34700D03*
X70950Y-34700D03*
X69950Y-34700D03*
X68950Y-34700D03*
X67950Y-34700D03*
X66950Y-34700D03*
X65950Y-34700D03*
X64950Y-34700D03*
X63950Y-34700D03*
X62950Y-34700D03*
X61950Y-34700D03*
X60950Y-34700D03*
X59950Y-34700D03*
X58950Y-34700D03*
G54D15*
X76625Y-42800D03*
X77375Y-42800D03*
G54D21*
X75000Y-38800D03*
X75500Y-38800D03*
X76000Y-38800D03*
X76500Y-38800D03*
X77000Y-38800D03*
X77500Y-38800D03*
X78000Y-38800D03*
X78000Y-41300D03*
X77500Y-41300D03*
X76500Y-41300D03*
X76000Y-41300D03*
X75500Y-41300D03*
X75000Y-41300D03*
X77000Y-41300D03*
G54D22*
X59300Y-45250D03*
G54D23*
X57300Y-45250D03*
G54D22*
X71850Y-45700D03*
G54D23*
X69850Y-45700D03*
X67850Y-45700D03*
G54D22*
X65550Y-45700D03*
G54D23*
X63550Y-45700D03*
X61550Y-45700D03*
G54D24*
X56450Y-38100D03*
G54D25*
X56450Y-37100D03*
X56450Y-36100D03*
X56450Y-35100D03*
G54D26*
X60750Y-39850D03*
X60750Y-40550D03*
X61550Y-40200D03*
G54D22*
X80300Y-45150D03*
G54D23*
X78300Y-45150D03*
G54D16*
X80300Y-38525D03*
X80300Y-37775D03*
G54D15*
X80425Y-36750D03*
X79675Y-36750D03*
X71925Y-44300D03*
X71175Y-44300D03*
G54D16*
X77400Y-34475D03*
X77400Y-33725D03*
G54D15*
X70825Y-33750D03*
X70075Y-33750D03*
X73475Y-34750D03*
X72725Y-34750D03*
G54D16*
X74550Y-43925D03*
X74550Y-43175D03*
G54D17*
X60650Y-44500D03*
X61950Y-44500D03*
G54D27*
X78550Y-33450D03*
X79550Y-33450D03*
X75650Y-33400D03*
X76650Y-33400D03*
G54D22*
X76100Y-45700D03*
G54D23*
X74100Y-45700D03*
G54D16*
X57050Y-34275D03*
X57050Y-33525D03*
G54D15*
X58025Y-33300D03*
X58775Y-33300D03*
G54D16*
X62600Y-32775D03*
X62600Y-33525D03*
G54D15*
X63625Y-32850D03*
X64375Y-32850D03*
G54D16*
X66800Y-33725D03*
X66800Y-32975D03*
G54D15*
X69975Y-32850D03*
X70725Y-32850D03*
G54D16*
X58100Y-34125D03*
X58100Y-34875D03*
X59950Y-33175D03*
X59950Y-33925D03*
X60950Y-33175D03*
X60950Y-33925D03*
X67900Y-33175D03*
X67900Y-33925D03*
X68950Y-33175D03*
X68950Y-33925D03*
G54D15*
X72075Y-32850D03*
X72825Y-32850D03*
G54D16*
X74800Y-37975D03*
X74800Y-37225D03*
G54D15*
X75775Y-36850D03*
X76525Y-36850D03*
G54D16*
X79450Y-39575D03*
X79450Y-38825D03*
G54D15*
X77325Y-36800D03*
X78075Y-36800D03*
X72075Y-36250D03*
X72825Y-36250D03*
X69875Y-42300D03*
X70625Y-42300D03*
G54D16*
X80500Y-40225D03*
X80500Y-39475D03*
G54D12*
X63700Y-42700D03*
X62700Y-42700D03*
G54D13*
X61700Y-42700D03*
G54D28*
X68350Y-40900D03*
X69650Y-40850D03*
X79750Y-36200D03*
X73950Y-41400D03*
X72750Y-41200D03*
X70600Y-43150D03*
X71450Y-39750D03*
X66100Y-40250D03*
X64200Y-35350D03*
X64150Y-36750D03*
X78950Y-37700D03*
X73950Y-40650D03*
X72300Y-40650D03*
X69750Y-43150D03*
X80500Y-42600D03*
X74600Y-42350D03*
X63250Y-43600D03*
X72700Y-41900D03*
X65200Y-38450D03*
X69500Y-38550D03*
X64100Y-33650D03*
X74300Y-33450D03*
X61100Y-42150D03*
X61400Y-38850D03*
X76300Y-35250D03*
X64000Y-38700D03*
X70100Y-41450D03*
X72650Y-39300D03*
X72750Y-38250D03*
X72600Y-35500D03*
X73250Y-43500D03*
X77300Y-35550D03*
X74900Y-33800D03*
X71500Y-32850D03*
X73500Y-35450D03*
X77500Y-37600D03*
X73100Y-33950D03*
X74600Y-34500D03*
X80650Y-35650D03*
X80050Y-41950D03*
X63450Y-36450D03*
X66550Y-35300D03*
X65500Y-39500D03*
X71850Y-39250D03*
X73750Y-39650D03*
X76650Y-37850D03*
X78450Y-35200D03*
X76050Y-43000D03*
X79850Y-43000D03*
X78850Y-41300D03*
X73450Y-36950D03*
X76850Y-34800D03*
X67100Y-40600D03*
X71100Y-40250D03*
X64850Y-41850D03*
X62850Y-41850D03*
X57300Y-38100D03*
X57250Y-34700D03*
G54D29*
X58950Y-34700D02*
X58950Y-34950D01*
X58375Y-35150D02*
X58100Y-34875D01*
X58750Y-35150D02*
X58375Y-35150D01*
X58950Y-34950D02*
X58750Y-35150D01*
X59950Y-34700D02*
X59950Y-33925D01*
G54D30*
X60950Y-34700D02*
X60950Y-33925D01*
X60950Y-33925D02*
X60950Y-33925D01*
X67900Y-33925D02*
X67900Y-34650D01*
X67900Y-34650D02*
X67950Y-34700D01*
X68950Y-33925D02*
X68950Y-34700D01*
G54D31*
X71950Y-37700D02*
X72150Y-37700D01*
X72150Y-37700D02*
X72300Y-37550D01*
X72825Y-32850D02*
X73050Y-32850D01*
X74000Y-37550D02*
X72300Y-37550D01*
X72300Y-37550D02*
X71950Y-37550D01*
X74100Y-36200D02*
X74000Y-37550D01*
X74110Y-34250D02*
X74100Y-36200D01*
X73050Y-32850D02*
X74110Y-34250D01*
X66450Y-38450D02*
X66450Y-36550D01*
G54D30*
X68350Y-40900D02*
X67450Y-40000D01*
X67450Y-40000D02*
X67450Y-39450D01*
X67450Y-39450D02*
X66500Y-38500D01*
X66500Y-38500D02*
X66450Y-38450D01*
X71925Y-44300D02*
X71950Y-42650D01*
G54D31*
X70400Y-40850D02*
X69650Y-40850D01*
X71300Y-41750D02*
X70400Y-40850D01*
X71625Y-42122D02*
X71300Y-41750D01*
X71950Y-42650D02*
X71625Y-42122D01*
X61950Y-35300D02*
X61950Y-34700D01*
X62100Y-35450D02*
X61950Y-35300D01*
X63600Y-35450D02*
X62100Y-35450D01*
X64000Y-35850D02*
X63600Y-35450D01*
X65750Y-35850D02*
X64000Y-35850D01*
X66250Y-36350D02*
X65750Y-35850D01*
X66250Y-36350D02*
X66250Y-36350D01*
X66450Y-36550D02*
X66250Y-36350D01*
G54D29*
X71925Y-44300D02*
X71975Y-45575D01*
X71975Y-45575D02*
X71850Y-45700D01*
G54D30*
X79750Y-36200D02*
X79675Y-36275D01*
X79675Y-36275D02*
X79675Y-36750D01*
X69850Y-45700D02*
X69850Y-45000D01*
X73150Y-41200D02*
X73950Y-41400D01*
X72750Y-41200D02*
X73150Y-41200D01*
X70550Y-44300D02*
X70600Y-43150D01*
X69850Y-45000D02*
X70550Y-44300D01*
G54D29*
X79675Y-36750D02*
X78125Y-36750D01*
X78125Y-36750D02*
X78075Y-36800D01*
G54D31*
X72850Y-40150D02*
X74050Y-40150D01*
X71450Y-39750D02*
X71850Y-40150D01*
X71850Y-40150D02*
X72850Y-40150D01*
X66200Y-40150D02*
X66100Y-40250D01*
X74250Y-39950D02*
X74250Y-38700D01*
X74050Y-40150D02*
X74250Y-39950D01*
X74250Y-38700D02*
X74250Y-38750D01*
X74250Y-38750D02*
X74250Y-38700D01*
X64450Y-38250D02*
X64450Y-38500D01*
X63950Y-35100D02*
X64200Y-35350D01*
X64150Y-36750D02*
X64300Y-36900D01*
X64300Y-36900D02*
X64300Y-37150D01*
X64300Y-37150D02*
X64450Y-37300D01*
X64450Y-37300D02*
X64450Y-38250D01*
X63950Y-34700D02*
X63950Y-35100D01*
X66200Y-39476D02*
X66200Y-40150D01*
X66200Y-40150D02*
X66200Y-40200D01*
X65674Y-38950D02*
X66200Y-39476D01*
X64900Y-38950D02*
X65674Y-38950D01*
X64450Y-38500D02*
X64900Y-38950D01*
X75000Y-38800D02*
X74350Y-38800D01*
X74350Y-38800D02*
X74250Y-38700D01*
X74550Y-38050D02*
X74800Y-37975D01*
X74250Y-38700D02*
X74550Y-38050D01*
X77500Y-38800D02*
X77500Y-38600D01*
X77500Y-38600D02*
X77950Y-38150D01*
G54D30*
X67850Y-45700D02*
X67850Y-45450D01*
X79150Y-37800D02*
X79150Y-37775D01*
X78925Y-37800D02*
X79150Y-37800D01*
X78900Y-37775D02*
X78925Y-37800D01*
X78900Y-37650D02*
X78900Y-37775D01*
X78950Y-37700D02*
X78900Y-37650D01*
X72300Y-40650D02*
X73950Y-40650D01*
X69750Y-43550D02*
X69750Y-43150D01*
X67850Y-45450D02*
X69750Y-43550D01*
G54D29*
X80300Y-37775D02*
X79150Y-37775D01*
X79150Y-37775D02*
X78325Y-37775D01*
X78325Y-37775D02*
X77950Y-38150D01*
X80425Y-36750D02*
X80425Y-37550D01*
X80425Y-37550D02*
X80300Y-37775D01*
G54D31*
X78000Y-38200D02*
X78000Y-38800D01*
X77950Y-38150D02*
X78000Y-38200D01*
X74300Y-42050D02*
X74050Y-42050D01*
X80625Y-41875D02*
X80595Y-42353D01*
X80595Y-42353D02*
X80500Y-42600D01*
X74325Y-42075D02*
X74300Y-42050D01*
X74600Y-42350D02*
X74325Y-42075D01*
X80625Y-41150D02*
X80625Y-41875D01*
X62350Y-44500D02*
X61950Y-44500D01*
X63250Y-43600D02*
X62350Y-44500D01*
X73900Y-41900D02*
X72700Y-41900D01*
X74050Y-42050D02*
X73900Y-41900D01*
G54D32*
X61950Y-44500D02*
X61950Y-45300D01*
X61950Y-45300D02*
X61550Y-45700D01*
G54D29*
X80625Y-41150D02*
X80700Y-40400D01*
X80700Y-40400D02*
X80500Y-40225D01*
G54D31*
X64000Y-36300D02*
X63700Y-36000D01*
X64750Y-36650D02*
X64400Y-36300D01*
X64400Y-36300D02*
X64000Y-36300D01*
X64775Y-36650D02*
X64750Y-36650D01*
X61350Y-35750D02*
X61350Y-35928D01*
X61272Y-35750D02*
X61350Y-35750D01*
X62000Y-35750D02*
X61272Y-35750D01*
X63450Y-35750D02*
X62000Y-35750D01*
X63700Y-36000D02*
X63450Y-35750D01*
X61700Y-42700D02*
X61200Y-42700D01*
X61200Y-42700D02*
X61200Y-42750D01*
X69500Y-38550D02*
X69500Y-38700D01*
X64950Y-37700D02*
X64950Y-38200D01*
X64950Y-38200D02*
X65200Y-38450D01*
X72550Y-42500D02*
X72625Y-42650D01*
X69750Y-39700D02*
X72550Y-42500D01*
X69750Y-38950D02*
X69750Y-39700D01*
X69500Y-38700D02*
X69750Y-38950D01*
X64775Y-36650D02*
X64975Y-37675D01*
X64975Y-37675D02*
X64950Y-37700D01*
X62050Y-33950D02*
X63750Y-33950D01*
X61250Y-35600D02*
X61450Y-35400D01*
X61450Y-35400D02*
X61450Y-34350D01*
X61450Y-34350D02*
X61750Y-33950D01*
X61750Y-33950D02*
X62050Y-33950D01*
X61250Y-35700D02*
X61250Y-35600D01*
X64050Y-33650D02*
X64100Y-33650D01*
X63750Y-33950D02*
X64050Y-33650D01*
X78550Y-33300D02*
X78550Y-33450D01*
X78000Y-32750D02*
X78550Y-33300D01*
X75000Y-32750D02*
X78000Y-32750D01*
X74300Y-33450D02*
X75000Y-32750D01*
X61600Y-36500D02*
X61750Y-36650D01*
X61050Y-42200D02*
X61050Y-42750D01*
X61100Y-42150D02*
X61050Y-42200D01*
X61450Y-38800D02*
X61400Y-38850D01*
X61450Y-36950D02*
X61450Y-38800D01*
X61750Y-36650D02*
X61450Y-36950D01*
X56450Y-35100D02*
X56500Y-35100D01*
X61250Y-35700D02*
X61350Y-35928D01*
X61350Y-35928D02*
X61600Y-36500D01*
X57100Y-35700D02*
X61250Y-35700D01*
X56500Y-35100D02*
X57100Y-35700D01*
G54D32*
X61700Y-42750D02*
X61200Y-42750D01*
X61200Y-42750D02*
X61050Y-42750D01*
X61050Y-42750D02*
X59750Y-42750D01*
X59750Y-42750D02*
X59650Y-42850D01*
G54D31*
X79450Y-38825D02*
X78975Y-38825D01*
X76000Y-39550D02*
X76000Y-38800D01*
X76150Y-39700D02*
X76000Y-39550D01*
X78100Y-39700D02*
X76150Y-39700D01*
X78450Y-39350D02*
X78100Y-39700D01*
X78975Y-38825D02*
X78450Y-39350D01*
G54D29*
X80300Y-38525D02*
X79725Y-38525D01*
X79450Y-38800D02*
X79450Y-38825D01*
X79725Y-38525D02*
X79450Y-38800D01*
X58100Y-34125D02*
X58100Y-33375D01*
X58100Y-33375D02*
X58025Y-33300D01*
X58025Y-33300D02*
X57275Y-33300D01*
X57275Y-33300D02*
X57050Y-33525D01*
X59950Y-33175D02*
X58900Y-33175D01*
X58900Y-33175D02*
X58775Y-33300D01*
G54D30*
X59950Y-33175D02*
X59950Y-32850D01*
X59950Y-32850D02*
X60150Y-32650D01*
X62364Y-32650D02*
X62600Y-32775D01*
X60150Y-32650D02*
X62364Y-32650D01*
X62600Y-33525D02*
X63251Y-33516D01*
X63625Y-33475D02*
X63625Y-32850D01*
X63251Y-33516D02*
X63625Y-33475D01*
X60950Y-33175D02*
X61475Y-33125D01*
X62150Y-33540D02*
X62600Y-33525D01*
X61750Y-33450D02*
X62150Y-33540D01*
X61750Y-33400D02*
X61750Y-33450D01*
X61475Y-33125D02*
X61750Y-33400D01*
G54D31*
X66800Y-33725D02*
X67075Y-33725D01*
X67625Y-33175D02*
X67900Y-33175D01*
X67075Y-33725D02*
X67625Y-33175D01*
X66800Y-33725D02*
X66275Y-33725D01*
X66150Y-33300D02*
X65825Y-32975D01*
X66150Y-33600D02*
X66150Y-33300D01*
X66275Y-33725D02*
X66150Y-33600D01*
G54D30*
X64375Y-32850D02*
X65700Y-32850D01*
X65700Y-32850D02*
X65825Y-32975D01*
X65825Y-32975D02*
X65850Y-33000D01*
X68950Y-33175D02*
X68950Y-32700D01*
X66800Y-32850D02*
X66800Y-32975D01*
X67050Y-32600D02*
X66800Y-32850D01*
X68850Y-32600D02*
X67050Y-32600D01*
X68950Y-32700D02*
X68850Y-32600D01*
X69975Y-32850D02*
X69025Y-33100D01*
X69025Y-33100D02*
X68950Y-33175D01*
G54D32*
X67700Y-42500D02*
X67700Y-43950D01*
X65550Y-45000D02*
X65550Y-45700D01*
X66250Y-44300D02*
X65550Y-45000D01*
X67350Y-44300D02*
X66250Y-44300D01*
X67700Y-43950D02*
X67350Y-44300D01*
G54D31*
X76525Y-36850D02*
X77275Y-36850D01*
X77275Y-36850D02*
X77325Y-36800D01*
X75500Y-38800D02*
X75500Y-37950D01*
X76525Y-37275D02*
X76525Y-36850D01*
X75950Y-37850D02*
X76525Y-37275D01*
X75600Y-37850D02*
X75950Y-37850D01*
X75500Y-37950D02*
X75600Y-37850D01*
X63950Y-37700D02*
X63950Y-38650D01*
X75650Y-34250D02*
X75650Y-33400D01*
X76300Y-35250D02*
X75650Y-34250D01*
X63950Y-38650D02*
X64000Y-38700D01*
G54D29*
X80300Y-45150D02*
X80300Y-44250D01*
X78100Y-42050D02*
X77900Y-42050D01*
X80300Y-44250D02*
X78100Y-42050D01*
G54D31*
X77500Y-41300D02*
X77500Y-41850D01*
X78000Y-41950D02*
X78000Y-41300D01*
X77900Y-42050D02*
X77925Y-42025D01*
X77925Y-42025D02*
X78000Y-41950D01*
X77700Y-42050D02*
X77900Y-42050D01*
X77500Y-41850D02*
X77700Y-42050D01*
G54D30*
X77400Y-33725D02*
X76975Y-33725D01*
X76975Y-33725D02*
X76650Y-33400D01*
G54D31*
X71175Y-44300D02*
X71175Y-42675D01*
X70800Y-42300D02*
X70625Y-42300D01*
X71175Y-42675D02*
X70800Y-42300D01*
X72650Y-39300D02*
X72650Y-38350D01*
X69875Y-42300D02*
X69875Y-41675D01*
X69875Y-41675D02*
X70100Y-41450D01*
X72650Y-38350D02*
X72750Y-38250D01*
X70950Y-34800D02*
X71650Y-35500D01*
X71650Y-35500D02*
X72600Y-35500D01*
X70950Y-34800D02*
X70950Y-34700D01*
G54D30*
X71950Y-34700D02*
X72975Y-34700D01*
X72975Y-34700D02*
X72725Y-34750D01*
X65950Y-34700D02*
X65950Y-34075D01*
X65950Y-34075D02*
X65675Y-33800D01*
X73375Y-42650D02*
X73806Y-42697D01*
X73806Y-42697D02*
X74550Y-43175D01*
G54D31*
X76000Y-41300D02*
X76000Y-42150D01*
X74975Y-43175D02*
X74550Y-43175D01*
X76000Y-42150D02*
X74975Y-43175D01*
X60950Y-37700D02*
X60950Y-36550D01*
X56650Y-36300D02*
X56450Y-36100D01*
X60700Y-36300D02*
X56650Y-36300D01*
X60950Y-36550D02*
X60700Y-36300D01*
G54D30*
X79800Y-34225D02*
X79825Y-33725D01*
X79825Y-33725D02*
X79550Y-33450D01*
G54D32*
X57300Y-45250D02*
X57300Y-40650D01*
X57300Y-40650D02*
X56800Y-40150D01*
X58800Y-40150D02*
X56800Y-40150D01*
G54D31*
X59950Y-37700D02*
X59950Y-36850D01*
X57300Y-37100D02*
X56450Y-37100D01*
X57650Y-36750D02*
X57300Y-37100D01*
X59850Y-36750D02*
X57650Y-36750D01*
X59950Y-36850D02*
X59850Y-36750D01*
X78842Y-40192D02*
X79092Y-40192D01*
X76097Y-40205D02*
X78842Y-40192D01*
X79725Y-40825D02*
X79875Y-41150D01*
X79092Y-40192D02*
X79725Y-40825D01*
X75500Y-41300D02*
X75500Y-41850D01*
X75000Y-41800D02*
X75000Y-41300D01*
X75100Y-41900D02*
X75000Y-41800D01*
X75450Y-41900D02*
X75100Y-41900D01*
X75500Y-41850D02*
X75450Y-41900D01*
X75500Y-40650D02*
X75500Y-41300D01*
X76097Y-40205D02*
X75500Y-40650D01*
G54D30*
X69950Y-34700D02*
X69950Y-33825D01*
X69950Y-33825D02*
X70075Y-33750D01*
G54D29*
X68950Y-37700D02*
X68950Y-42250D01*
X68950Y-42250D02*
X68700Y-42500D01*
X80500Y-39475D02*
X80275Y-39425D01*
X80125Y-39575D02*
X79450Y-39575D01*
X80275Y-39425D02*
X80125Y-39575D01*
G54D31*
X74800Y-37225D02*
X74800Y-37225D01*
X75525Y-37100D02*
X75775Y-36850D01*
X75000Y-37100D02*
X75525Y-37100D01*
X74800Y-37225D02*
X75000Y-37100D01*
X72075Y-32850D02*
X71500Y-32850D01*
X73500Y-45100D02*
X74100Y-45700D01*
X73500Y-44000D02*
X73500Y-45100D01*
X73250Y-43500D02*
X73500Y-44000D01*
X75151Y-35750D02*
X76851Y-35750D01*
X76851Y-35750D02*
X77300Y-35550D01*
X74900Y-33800D02*
X75200Y-34352D01*
X75200Y-34352D02*
X75151Y-35750D01*
G54D29*
X72075Y-32850D02*
X70725Y-32850D01*
G54D31*
X77350Y-37650D02*
X77450Y-37650D01*
X77450Y-37650D02*
X77500Y-37600D01*
X77000Y-38800D02*
X77000Y-38400D01*
X77350Y-38050D02*
X77350Y-37650D01*
X77000Y-38400D02*
X77350Y-38050D01*
G54D30*
X72825Y-36250D02*
X73400Y-35950D01*
X73500Y-35450D02*
X73475Y-34750D01*
X73400Y-35950D02*
X73500Y-35450D01*
X72900Y-33700D02*
X73100Y-33950D01*
G54D31*
X74600Y-34500D02*
X74600Y-36150D01*
X74600Y-36150D02*
X78600Y-36150D01*
G54D30*
X78600Y-36150D02*
X79000Y-35650D01*
X79000Y-35650D02*
X80650Y-35650D01*
X70825Y-33750D02*
X72900Y-33700D01*
G54D31*
X77000Y-40650D02*
X77000Y-41300D01*
X78950Y-40650D02*
X77000Y-40650D01*
X79300Y-41100D02*
X78950Y-40650D01*
X80050Y-41950D02*
X79300Y-41800D01*
X79300Y-41800D02*
X79300Y-41100D01*
X77000Y-41300D02*
X77000Y-41900D01*
X77375Y-42275D02*
X77375Y-42800D01*
X77000Y-41900D02*
X77375Y-42275D01*
X63350Y-36500D02*
X63350Y-36500D01*
X67000Y-35200D02*
X66650Y-35200D01*
X63450Y-36450D02*
X62900Y-36500D01*
X66650Y-35200D02*
X66550Y-35300D01*
G54D30*
X67000Y-35400D02*
X67000Y-35200D01*
X67000Y-35200D02*
X67000Y-34750D01*
X67000Y-34750D02*
X66950Y-34700D01*
X70950Y-36525D02*
X70275Y-36425D01*
X70275Y-36425D02*
X70100Y-36250D01*
X67950Y-37700D02*
X67950Y-37550D01*
X70100Y-36700D02*
X70100Y-36250D01*
X69900Y-36900D02*
X70100Y-36700D01*
X68600Y-36900D02*
X69900Y-36900D01*
X67950Y-37550D02*
X68600Y-36900D01*
X68800Y-36375D02*
X68225Y-36375D01*
X68225Y-36375D02*
X68100Y-36250D01*
X66950Y-37700D02*
X66950Y-37350D01*
X68050Y-36250D02*
X68100Y-36250D01*
X66950Y-37350D02*
X68050Y-36250D01*
G54D31*
X63700Y-42700D02*
X63700Y-42950D01*
X63806Y-43056D02*
X63806Y-43057D01*
X63700Y-42950D02*
X63806Y-43056D01*
X76500Y-38800D02*
X76500Y-38250D01*
X65250Y-40150D02*
X64800Y-40150D01*
X65500Y-39500D02*
X65250Y-40150D01*
X73750Y-39650D02*
X73386Y-39832D01*
X73386Y-39832D02*
X72082Y-39832D01*
X72082Y-39832D02*
X71850Y-39250D01*
X76500Y-38250D02*
X76650Y-37850D01*
G54D32*
X61550Y-40200D02*
X62750Y-40200D01*
X62750Y-40200D02*
X62800Y-40150D01*
X64800Y-40150D02*
X64100Y-40150D01*
X64100Y-40150D02*
X63450Y-40800D01*
X63700Y-42750D02*
X63700Y-41050D01*
X63700Y-41050D02*
X63450Y-40800D01*
X63450Y-40800D02*
X62800Y-40150D01*
X63550Y-45700D02*
X63900Y-44650D01*
X64150Y-44050D02*
X63806Y-43057D01*
X63806Y-43057D02*
X63700Y-42750D01*
X63900Y-44650D02*
X64150Y-44050D01*
G54D31*
X62700Y-42700D02*
X62700Y-42950D01*
X62586Y-43064D02*
X62586Y-43063D01*
X62700Y-42950D02*
X62586Y-43064D01*
X78500Y-35150D02*
X78450Y-35200D01*
X78500Y-34975D02*
X78500Y-35150D01*
X76250Y-42800D02*
X76625Y-42800D01*
X76050Y-43000D02*
X76250Y-42800D01*
X79800Y-43050D02*
X79850Y-43000D01*
X78900Y-42150D02*
X79800Y-43050D01*
X78900Y-41350D02*
X78900Y-42150D01*
X78850Y-41300D02*
X78900Y-41350D01*
X72075Y-36525D02*
X72500Y-36950D01*
X72500Y-36950D02*
X73450Y-36950D01*
X72075Y-36250D02*
X72075Y-36525D01*
X77175Y-34475D02*
X77400Y-34475D01*
X76850Y-34800D02*
X77175Y-34475D01*
G54D32*
X79800Y-34975D02*
X78500Y-34975D01*
X78500Y-34975D02*
X77900Y-34975D01*
X77900Y-34975D02*
X77400Y-34475D01*
G54D31*
X71678Y-35991D02*
X71675Y-36725D01*
X67000Y-40700D02*
X66700Y-40700D01*
X67100Y-40600D02*
X67000Y-40700D01*
X70750Y-39900D02*
X71100Y-40250D01*
X70750Y-39150D02*
X70750Y-39900D01*
X71450Y-38450D02*
X70750Y-39150D01*
X71450Y-36950D02*
X71450Y-38450D01*
X71675Y-36725D02*
X71450Y-36950D01*
X67000Y-36150D02*
X66700Y-36150D01*
X64950Y-35350D02*
X64950Y-34700D01*
X65100Y-35500D02*
X64950Y-35350D01*
X66050Y-35500D02*
X65100Y-35500D01*
X66700Y-36150D02*
X66050Y-35500D01*
X65525Y-36650D02*
X65725Y-36875D01*
X65725Y-36875D02*
X65950Y-37100D01*
G54D29*
X62700Y-42750D02*
X62700Y-42000D01*
X65850Y-42500D02*
X66700Y-42500D01*
X64850Y-41850D02*
X65850Y-42500D01*
X62700Y-42000D02*
X62850Y-41850D01*
G54D31*
X57300Y-38100D02*
X57300Y-38300D01*
X60250Y-40950D02*
X60750Y-40950D01*
X60000Y-40700D02*
X60250Y-40950D01*
X60000Y-39450D02*
X60000Y-40700D01*
X59450Y-38900D02*
X60000Y-39450D01*
X57900Y-38900D02*
X59450Y-38900D01*
X57300Y-38300D02*
X57900Y-38900D01*
G54D29*
X66700Y-42500D02*
X66700Y-40700D01*
X66700Y-40700D02*
X66700Y-39500D01*
G54D31*
X65950Y-37700D02*
X65950Y-38375D01*
X65950Y-38750D02*
X65950Y-38375D01*
X66700Y-39500D02*
X65950Y-38750D01*
G54D32*
X76100Y-45700D02*
X76100Y-44150D01*
X76100Y-44150D02*
X76325Y-43925D01*
X78300Y-45150D02*
X76650Y-45150D01*
X76650Y-45150D02*
X76100Y-45700D01*
X59650Y-41550D02*
X59050Y-41550D01*
X58450Y-44400D02*
X59300Y-45250D01*
X58450Y-42150D02*
X58450Y-44400D01*
X59050Y-41550D02*
X58450Y-42150D01*
G54D29*
X57050Y-34275D02*
X57050Y-34500D01*
X57300Y-38100D02*
X56450Y-38100D01*
X57050Y-34500D02*
X57250Y-34700D01*
G54D32*
X60750Y-40550D02*
X60750Y-40950D01*
X60750Y-40950D02*
X60750Y-41150D01*
X60750Y-41150D02*
X60350Y-41550D01*
X60350Y-41550D02*
X59650Y-41550D01*
X62700Y-42750D02*
X62586Y-43063D01*
X62586Y-43063D02*
X62500Y-43300D01*
X60650Y-43850D02*
X60650Y-44500D01*
X60950Y-43550D02*
X60650Y-43850D01*
X62100Y-43550D02*
X60950Y-43550D01*
X62500Y-43300D02*
X62100Y-43550D01*
X59300Y-45250D02*
X59400Y-45250D01*
X59400Y-45250D02*
X60150Y-44500D01*
X60250Y-44500D02*
X60650Y-44500D01*
X60150Y-44500D02*
X60250Y-44500D01*
G54D29*
X76625Y-42800D02*
X76625Y-43625D01*
X76625Y-43625D02*
X76325Y-43925D01*
X76325Y-43925D02*
X74550Y-43925D01*
G54D31*
X76500Y-41300D02*
X76500Y-42675D01*
X76500Y-42675D02*
X76625Y-42800D01*
X67000Y-36150D02*
X67350Y-36150D01*
G54D30*
X68625Y-35625D02*
X68500Y-35500D01*
G54D31*
X68500Y-35500D02*
X67900Y-35500D01*
G54D30*
X68625Y-35625D02*
X68800Y-35625D01*
G54D31*
X67900Y-35500D02*
X67900Y-35500D01*
X67350Y-36150D02*
X67900Y-35500D01*
G54D30*
X65950Y-37700D02*
X65950Y-37100D01*
X70950Y-35775D02*
X71400Y-35800D01*
X71400Y-35800D02*
X71678Y-35991D01*
X71678Y-35991D02*
X72075Y-36250D01*
X72075Y-36250D02*
X72075Y-36250D01*
X68800Y-35625D02*
X69325Y-35625D01*
X69325Y-35625D02*
X69500Y-35450D01*
X69500Y-35450D02*
X70675Y-35450D01*
X70675Y-35450D02*
X70950Y-35775D01*
X64950Y-34700D02*
X64950Y-33825D01*
X64950Y-33825D02*
X64925Y-33800D01*
M02*
