G04 (created by PCBNEW (2013-07-07 BZR 4022)-stable) date 10/09/2014 21:53:45*
%MOIN*%
G04 Gerber Fmt 3.4, Leading zero omitted, Abs format*
%FSLAX34Y34*%
G01*
G70*
G90*
G04 APERTURE LIST*
%ADD10C,0.00393701*%
%ADD11C,0.012*%
G04 APERTURE END LIST*
G54D10*
G54D11*
X76423Y-28428D02*
X75623Y-28428D01*
X76423Y-28685D02*
X76004Y-28685D01*
X75928Y-28657D01*
X75890Y-28600D01*
X75890Y-28514D01*
X75928Y-28457D01*
X75966Y-28428D01*
X76385Y-29200D02*
X76423Y-29142D01*
X76423Y-29028D01*
X76385Y-28971D01*
X76309Y-28942D01*
X76004Y-28942D01*
X75928Y-28971D01*
X75890Y-29028D01*
X75890Y-29142D01*
X75928Y-29200D01*
X76004Y-29228D01*
X76080Y-29228D01*
X76157Y-28942D01*
X76423Y-29742D02*
X76004Y-29742D01*
X75928Y-29714D01*
X75890Y-29657D01*
X75890Y-29542D01*
X75928Y-29485D01*
X76385Y-29742D02*
X76423Y-29685D01*
X76423Y-29542D01*
X76385Y-29485D01*
X76309Y-29457D01*
X76233Y-29457D01*
X76157Y-29485D01*
X76119Y-29542D01*
X76119Y-29685D01*
X76080Y-29742D01*
X75890Y-29942D02*
X75890Y-30171D01*
X75623Y-30028D02*
X76309Y-30028D01*
X76385Y-30057D01*
X76423Y-30114D01*
X76423Y-30171D01*
X76385Y-30600D02*
X76423Y-30542D01*
X76423Y-30428D01*
X76385Y-30371D01*
X76309Y-30342D01*
X76004Y-30342D01*
X75928Y-30371D01*
X75890Y-30428D01*
X75890Y-30542D01*
X75928Y-30600D01*
X76004Y-30628D01*
X76080Y-30628D01*
X76157Y-30342D01*
X76423Y-30885D02*
X75890Y-30885D01*
X76042Y-30885D02*
X75966Y-30914D01*
X75928Y-30942D01*
X75890Y-31000D01*
X75890Y-31057D01*
X78740Y-28942D02*
X79540Y-28942D01*
X78778Y-28942D02*
X78740Y-29000D01*
X78740Y-29114D01*
X78778Y-29171D01*
X78816Y-29200D01*
X78892Y-29228D01*
X79121Y-29228D01*
X79197Y-29200D01*
X79235Y-29171D01*
X79273Y-29114D01*
X79273Y-29000D01*
X79235Y-28942D01*
X79273Y-29571D02*
X79235Y-29514D01*
X79197Y-29485D01*
X79121Y-29457D01*
X78892Y-29457D01*
X78816Y-29485D01*
X78778Y-29514D01*
X78740Y-29571D01*
X78740Y-29657D01*
X78778Y-29714D01*
X78816Y-29742D01*
X78892Y-29771D01*
X79121Y-29771D01*
X79197Y-29742D01*
X79235Y-29714D01*
X79273Y-29657D01*
X79273Y-29571D01*
X78740Y-29971D02*
X79273Y-30085D01*
X78892Y-30200D01*
X79273Y-30314D01*
X78740Y-30428D01*
X79235Y-30885D02*
X79273Y-30828D01*
X79273Y-30714D01*
X79235Y-30657D01*
X79159Y-30628D01*
X78854Y-30628D01*
X78778Y-30657D01*
X78740Y-30714D01*
X78740Y-30828D01*
X78778Y-30885D01*
X78854Y-30914D01*
X78930Y-30914D01*
X79007Y-30628D01*
X79273Y-31171D02*
X78740Y-31171D01*
X78892Y-31171D02*
X78816Y-31200D01*
X78778Y-31228D01*
X78740Y-31285D01*
X78740Y-31342D01*
X56790Y-53542D02*
X57438Y-53542D01*
X57514Y-53571D01*
X57552Y-53600D01*
X57590Y-53657D01*
X57590Y-53742D01*
X57552Y-53800D01*
X57285Y-53542D02*
X57323Y-53600D01*
X57323Y-53714D01*
X57285Y-53771D01*
X57247Y-53800D01*
X57171Y-53828D01*
X56942Y-53828D01*
X56866Y-53800D01*
X56828Y-53771D01*
X56790Y-53714D01*
X56790Y-53600D01*
X56828Y-53542D01*
X57323Y-53257D02*
X56790Y-53257D01*
X56942Y-53257D02*
X56866Y-53228D01*
X56828Y-53200D01*
X56790Y-53142D01*
X56790Y-53085D01*
X57323Y-52800D02*
X57285Y-52857D01*
X57247Y-52885D01*
X57171Y-52914D01*
X56942Y-52914D01*
X56866Y-52885D01*
X56828Y-52857D01*
X56790Y-52800D01*
X56790Y-52714D01*
X56828Y-52657D01*
X56866Y-52628D01*
X56942Y-52600D01*
X57171Y-52600D01*
X57247Y-52628D01*
X57285Y-52657D01*
X57323Y-52714D01*
X57323Y-52800D01*
X56790Y-52085D02*
X57323Y-52085D01*
X56790Y-52342D02*
X57209Y-52342D01*
X57285Y-52314D01*
X57323Y-52257D01*
X57323Y-52171D01*
X57285Y-52114D01*
X57247Y-52085D01*
X56790Y-51800D02*
X57323Y-51800D01*
X56866Y-51800D02*
X56828Y-51771D01*
X56790Y-51714D01*
X56790Y-51628D01*
X56828Y-51571D01*
X56904Y-51542D01*
X57323Y-51542D01*
X57323Y-51000D02*
X56523Y-51000D01*
X57285Y-51000D02*
X57323Y-51057D01*
X57323Y-51171D01*
X57285Y-51228D01*
X57247Y-51257D01*
X57171Y-51285D01*
X56942Y-51285D01*
X56866Y-51257D01*
X56828Y-51228D01*
X56790Y-51171D01*
X56790Y-51057D01*
X56828Y-51000D01*
X57019Y-50257D02*
X57019Y-49800D01*
X59040Y-55764D02*
X59840Y-55764D01*
X59078Y-55764D02*
X59040Y-55707D01*
X59040Y-55592D01*
X59078Y-55535D01*
X59116Y-55507D01*
X59192Y-55478D01*
X59421Y-55478D01*
X59497Y-55507D01*
X59535Y-55535D01*
X59573Y-55592D01*
X59573Y-55707D01*
X59535Y-55764D01*
X59573Y-55135D02*
X59535Y-55192D01*
X59497Y-55221D01*
X59421Y-55250D01*
X59192Y-55250D01*
X59116Y-55221D01*
X59078Y-55192D01*
X59040Y-55135D01*
X59040Y-55050D01*
X59078Y-54992D01*
X59116Y-54964D01*
X59192Y-54935D01*
X59421Y-54935D01*
X59497Y-54964D01*
X59535Y-54992D01*
X59573Y-55050D01*
X59573Y-55135D01*
X59040Y-54735D02*
X59573Y-54621D01*
X59192Y-54507D01*
X59573Y-54392D01*
X59040Y-54278D01*
X59535Y-53821D02*
X59573Y-53878D01*
X59573Y-53992D01*
X59535Y-54050D01*
X59459Y-54078D01*
X59154Y-54078D01*
X59078Y-54050D01*
X59040Y-53992D01*
X59040Y-53878D01*
X59078Y-53821D01*
X59154Y-53792D01*
X59230Y-53792D01*
X59307Y-54078D01*
X59573Y-53535D02*
X59040Y-53535D01*
X59192Y-53535D02*
X59116Y-53507D01*
X59078Y-53478D01*
X59040Y-53421D01*
X59040Y-53364D01*
X59573Y-52392D02*
X59573Y-52735D01*
X59573Y-52564D02*
X58773Y-52564D01*
X58888Y-52621D01*
X58964Y-52678D01*
X59002Y-52735D01*
X58850Y-52164D02*
X58811Y-52135D01*
X58773Y-52078D01*
X58773Y-51935D01*
X58811Y-51878D01*
X58850Y-51850D01*
X58926Y-51821D01*
X59002Y-51821D01*
X59116Y-51850D01*
X59573Y-52192D01*
X59573Y-51821D01*
X58773Y-51649D02*
X59573Y-51449D01*
X58773Y-51249D01*
X59269Y-50592D02*
X59269Y-50135D01*
X59573Y-50364D02*
X58964Y-50364D01*
X75790Y-50214D02*
X76438Y-50214D01*
X76514Y-50242D01*
X76552Y-50271D01*
X76590Y-50328D01*
X76590Y-50414D01*
X76552Y-50471D01*
X76285Y-50214D02*
X76323Y-50271D01*
X76323Y-50385D01*
X76285Y-50442D01*
X76247Y-50471D01*
X76171Y-50499D01*
X75942Y-50499D01*
X75866Y-50471D01*
X75828Y-50442D01*
X75790Y-50385D01*
X75790Y-50271D01*
X75828Y-50214D01*
X75790Y-49928D02*
X76323Y-49928D01*
X75866Y-49928D02*
X75828Y-49899D01*
X75790Y-49842D01*
X75790Y-49757D01*
X75828Y-49699D01*
X75904Y-49671D01*
X76323Y-49671D01*
X76323Y-49128D02*
X75523Y-49128D01*
X76285Y-49128D02*
X76323Y-49185D01*
X76323Y-49300D01*
X76285Y-49357D01*
X76247Y-49385D01*
X76171Y-49414D01*
X75942Y-49414D01*
X75866Y-49385D01*
X75828Y-49357D01*
X75790Y-49300D01*
X75790Y-49185D01*
X75828Y-49128D01*
X73740Y-51957D02*
X74273Y-51957D01*
X73816Y-51957D02*
X73778Y-51928D01*
X73740Y-51871D01*
X73740Y-51785D01*
X73778Y-51728D01*
X73854Y-51700D01*
X74273Y-51700D01*
X74273Y-51157D02*
X73854Y-51157D01*
X73778Y-51185D01*
X73740Y-51242D01*
X73740Y-51357D01*
X73778Y-51414D01*
X74235Y-51157D02*
X74273Y-51214D01*
X74273Y-51357D01*
X74235Y-51414D01*
X74159Y-51442D01*
X74083Y-51442D01*
X74007Y-51414D01*
X73969Y-51357D01*
X73969Y-51214D01*
X73930Y-51157D01*
X74273Y-50871D02*
X73740Y-50871D01*
X73892Y-50871D02*
X73816Y-50842D01*
X73778Y-50814D01*
X73740Y-50757D01*
X73740Y-50700D01*
X74273Y-50500D02*
X73740Y-50500D01*
X73892Y-50500D02*
X73816Y-50471D01*
X73778Y-50442D01*
X73740Y-50385D01*
X73740Y-50328D01*
X74273Y-50042D02*
X74235Y-50099D01*
X74197Y-50128D01*
X74121Y-50157D01*
X73892Y-50157D01*
X73816Y-50128D01*
X73778Y-50099D01*
X73740Y-50042D01*
X73740Y-49957D01*
X73778Y-49899D01*
X73816Y-49871D01*
X73892Y-49842D01*
X74121Y-49842D01*
X74197Y-49871D01*
X74235Y-49899D01*
X74273Y-49957D01*
X74273Y-50042D01*
X73740Y-49642D02*
X74273Y-49528D01*
X73892Y-49414D01*
X74273Y-49300D01*
X73740Y-49185D01*
X68173Y-50678D02*
X67640Y-50678D01*
X67792Y-50678D02*
X67716Y-50650D01*
X67678Y-50621D01*
X67640Y-50564D01*
X67640Y-50507D01*
X68135Y-50050D02*
X68173Y-50107D01*
X68173Y-50221D01*
X68135Y-50278D01*
X68097Y-50307D01*
X68021Y-50335D01*
X67792Y-50335D01*
X67716Y-50307D01*
X67678Y-50278D01*
X67640Y-50221D01*
X67640Y-50107D01*
X67678Y-50050D01*
X68173Y-49535D02*
X67754Y-49535D01*
X67678Y-49564D01*
X67640Y-49621D01*
X67640Y-49735D01*
X67678Y-49792D01*
X68135Y-49535D02*
X68173Y-49592D01*
X68173Y-49735D01*
X68135Y-49792D01*
X68059Y-49821D01*
X67983Y-49821D01*
X67907Y-49792D01*
X67869Y-49735D01*
X67869Y-49592D01*
X67830Y-49535D01*
X68173Y-49164D02*
X68135Y-49221D01*
X68059Y-49250D01*
X67373Y-49250D01*
X70148Y-61110D02*
X69729Y-61110D01*
X69653Y-61139D01*
X69615Y-61196D01*
X69615Y-61310D01*
X69653Y-61367D01*
X70110Y-61110D02*
X70148Y-61167D01*
X70148Y-61310D01*
X70110Y-61367D01*
X70034Y-61396D01*
X69958Y-61396D01*
X69882Y-61367D01*
X69844Y-61310D01*
X69844Y-61167D01*
X69805Y-61110D01*
X70148Y-60567D02*
X69348Y-60567D01*
X70110Y-60567D02*
X70148Y-60625D01*
X70148Y-60739D01*
X70110Y-60796D01*
X70072Y-60825D01*
X69996Y-60853D01*
X69767Y-60853D01*
X69691Y-60825D01*
X69653Y-60796D01*
X69615Y-60739D01*
X69615Y-60625D01*
X69653Y-60567D01*
X70110Y-60025D02*
X70148Y-60082D01*
X70148Y-60196D01*
X70110Y-60253D01*
X70072Y-60282D01*
X69996Y-60310D01*
X69767Y-60310D01*
X69691Y-60282D01*
X69653Y-60253D01*
X69615Y-60196D01*
X69615Y-60082D01*
X69653Y-60025D01*
X69348Y-59653D02*
X69348Y-59596D01*
X69386Y-59539D01*
X69425Y-59510D01*
X69501Y-59482D01*
X69653Y-59453D01*
X69844Y-59453D01*
X69996Y-59482D01*
X70072Y-59510D01*
X70110Y-59539D01*
X70148Y-59596D01*
X70148Y-59653D01*
X70110Y-59710D01*
X70072Y-59739D01*
X69996Y-59767D01*
X69844Y-59796D01*
X69653Y-59796D01*
X69501Y-59767D01*
X69425Y-59739D01*
X69386Y-59710D01*
X69348Y-59653D01*
X69490Y-51121D02*
X70290Y-51121D01*
X69528Y-51121D02*
X69490Y-51064D01*
X69490Y-50949D01*
X69528Y-50892D01*
X69566Y-50864D01*
X69642Y-50835D01*
X69871Y-50835D01*
X69947Y-50864D01*
X69985Y-50892D01*
X70023Y-50949D01*
X70023Y-51064D01*
X69985Y-51121D01*
X69490Y-50321D02*
X70023Y-50321D01*
X69490Y-50578D02*
X69909Y-50578D01*
X69985Y-50549D01*
X70023Y-50492D01*
X70023Y-50407D01*
X69985Y-50349D01*
X69947Y-50321D01*
X70023Y-50035D02*
X69490Y-50035D01*
X69566Y-50035D02*
X69528Y-50007D01*
X69490Y-49950D01*
X69490Y-49864D01*
X69528Y-49807D01*
X69604Y-49778D01*
X70023Y-49778D01*
X69604Y-49778D02*
X69528Y-49750D01*
X69490Y-49692D01*
X69490Y-49607D01*
X69528Y-49550D01*
X69604Y-49521D01*
X70023Y-49521D01*
X69490Y-49235D02*
X70290Y-49235D01*
X69528Y-49235D02*
X69490Y-49178D01*
X69490Y-49064D01*
X69528Y-49007D01*
X69566Y-48978D01*
X69642Y-48950D01*
X69871Y-48950D01*
X69947Y-48978D01*
X69985Y-49007D01*
X70023Y-49064D01*
X70023Y-49178D01*
X69985Y-49235D01*
X71873Y-61235D02*
X71454Y-61235D01*
X71378Y-61264D01*
X71340Y-61321D01*
X71340Y-61435D01*
X71378Y-61492D01*
X71835Y-61235D02*
X71873Y-61292D01*
X71873Y-61435D01*
X71835Y-61492D01*
X71759Y-61521D01*
X71683Y-61521D01*
X71607Y-61492D01*
X71569Y-61435D01*
X71569Y-61292D01*
X71530Y-61235D01*
X71873Y-60692D02*
X71073Y-60692D01*
X71835Y-60692D02*
X71873Y-60750D01*
X71873Y-60864D01*
X71835Y-60921D01*
X71797Y-60950D01*
X71721Y-60978D01*
X71492Y-60978D01*
X71416Y-60950D01*
X71378Y-60921D01*
X71340Y-60864D01*
X71340Y-60750D01*
X71378Y-60692D01*
X71835Y-60150D02*
X71873Y-60207D01*
X71873Y-60321D01*
X71835Y-60378D01*
X71797Y-60407D01*
X71721Y-60435D01*
X71492Y-60435D01*
X71416Y-60407D01*
X71378Y-60378D01*
X71340Y-60321D01*
X71340Y-60207D01*
X71378Y-60150D01*
X71150Y-59921D02*
X71111Y-59892D01*
X71073Y-59835D01*
X71073Y-59692D01*
X71111Y-59635D01*
X71150Y-59607D01*
X71226Y-59578D01*
X71302Y-59578D01*
X71416Y-59607D01*
X71873Y-59950D01*
X71873Y-59578D01*
X71290Y-51807D02*
X71823Y-51807D01*
X71366Y-51807D02*
X71328Y-51778D01*
X71290Y-51721D01*
X71290Y-51635D01*
X71328Y-51578D01*
X71404Y-51550D01*
X71823Y-51550D01*
X71785Y-51035D02*
X71823Y-51092D01*
X71823Y-51207D01*
X71785Y-51264D01*
X71709Y-51292D01*
X71404Y-51292D01*
X71328Y-51264D01*
X71290Y-51207D01*
X71290Y-51092D01*
X71328Y-51035D01*
X71404Y-51007D01*
X71480Y-51007D01*
X71557Y-51292D01*
X71823Y-50750D02*
X71290Y-50750D01*
X71442Y-50750D02*
X71366Y-50721D01*
X71328Y-50692D01*
X71290Y-50635D01*
X71290Y-50578D01*
X71290Y-50378D02*
X71823Y-50378D01*
X71366Y-50378D02*
X71328Y-50349D01*
X71290Y-50292D01*
X71290Y-50207D01*
X71328Y-50149D01*
X71404Y-50121D01*
X71823Y-50121D01*
X71785Y-49864D02*
X71823Y-49807D01*
X71823Y-49692D01*
X71785Y-49635D01*
X71709Y-49607D01*
X71671Y-49607D01*
X71595Y-49635D01*
X71557Y-49692D01*
X71557Y-49778D01*
X71519Y-49835D01*
X71442Y-49864D01*
X71404Y-49864D01*
X71328Y-49835D01*
X71290Y-49778D01*
X71290Y-49692D01*
X71328Y-49635D01*
X71290Y-49435D02*
X71290Y-49207D01*
X71023Y-49350D02*
X71709Y-49350D01*
X71785Y-49321D01*
X71823Y-49264D01*
X71823Y-49207D01*
X61240Y-51307D02*
X61773Y-51164D01*
X61240Y-51021D01*
X61773Y-50792D02*
X61240Y-50792D01*
X61392Y-50792D02*
X61316Y-50764D01*
X61278Y-50735D01*
X61240Y-50678D01*
X61240Y-50621D01*
X61735Y-50192D02*
X61773Y-50249D01*
X61773Y-50364D01*
X61735Y-50421D01*
X61659Y-50449D01*
X61354Y-50449D01*
X61278Y-50421D01*
X61240Y-50364D01*
X61240Y-50249D01*
X61278Y-50192D01*
X61354Y-50164D01*
X61430Y-50164D01*
X61507Y-50449D01*
X61240Y-49992D02*
X61240Y-49764D01*
X61773Y-49907D02*
X61088Y-49907D01*
X61011Y-49878D01*
X60973Y-49821D01*
X60973Y-49764D01*
X80390Y-51235D02*
X80923Y-51092D01*
X80390Y-50949D01*
X80923Y-50178D02*
X80885Y-50235D01*
X80847Y-50264D01*
X80771Y-50292D01*
X80542Y-50292D01*
X80466Y-50264D01*
X80428Y-50235D01*
X80390Y-50178D01*
X80390Y-50092D01*
X80428Y-50035D01*
X80466Y-50007D01*
X80542Y-49978D01*
X80771Y-49978D01*
X80847Y-50007D01*
X80885Y-50035D01*
X80923Y-50092D01*
X80923Y-50178D01*
X80390Y-49464D02*
X80923Y-49464D01*
X80390Y-49721D02*
X80809Y-49721D01*
X80885Y-49692D01*
X80923Y-49635D01*
X80923Y-49549D01*
X80885Y-49492D01*
X80847Y-49464D01*
X80390Y-49264D02*
X80390Y-49035D01*
X80123Y-49178D02*
X80809Y-49178D01*
X80885Y-49149D01*
X80923Y-49092D01*
X80923Y-49035D01*
X77740Y-50414D02*
X78388Y-50414D01*
X78464Y-50442D01*
X78502Y-50471D01*
X78540Y-50528D01*
X78540Y-50614D01*
X78502Y-50671D01*
X78235Y-50414D02*
X78273Y-50471D01*
X78273Y-50585D01*
X78235Y-50642D01*
X78197Y-50671D01*
X78121Y-50699D01*
X77892Y-50699D01*
X77816Y-50671D01*
X77778Y-50642D01*
X77740Y-50585D01*
X77740Y-50471D01*
X77778Y-50414D01*
X77740Y-50128D02*
X78273Y-50128D01*
X77816Y-50128D02*
X77778Y-50099D01*
X77740Y-50042D01*
X77740Y-49957D01*
X77778Y-49899D01*
X77854Y-49871D01*
X78273Y-49871D01*
X78273Y-49328D02*
X77473Y-49328D01*
X78235Y-49328D02*
X78273Y-49385D01*
X78273Y-49500D01*
X78235Y-49557D01*
X78197Y-49585D01*
X78121Y-49614D01*
X77892Y-49614D01*
X77816Y-49585D01*
X77778Y-49557D01*
X77740Y-49500D01*
X77740Y-49385D01*
X77778Y-49328D01*
X65573Y-52078D02*
X64773Y-52078D01*
X65573Y-51821D02*
X65154Y-51821D01*
X65078Y-51849D01*
X65040Y-51907D01*
X65040Y-51992D01*
X65078Y-52049D01*
X65116Y-52078D01*
X65535Y-51307D02*
X65573Y-51364D01*
X65573Y-51478D01*
X65535Y-51535D01*
X65459Y-51564D01*
X65154Y-51564D01*
X65078Y-51535D01*
X65040Y-51478D01*
X65040Y-51364D01*
X65078Y-51307D01*
X65154Y-51278D01*
X65230Y-51278D01*
X65307Y-51564D01*
X65573Y-50764D02*
X65154Y-50764D01*
X65078Y-50792D01*
X65040Y-50849D01*
X65040Y-50964D01*
X65078Y-51021D01*
X65535Y-50764D02*
X65573Y-50821D01*
X65573Y-50964D01*
X65535Y-51021D01*
X65459Y-51049D01*
X65383Y-51049D01*
X65307Y-51021D01*
X65269Y-50964D01*
X65269Y-50821D01*
X65230Y-50764D01*
X65040Y-50564D02*
X65040Y-50335D01*
X64773Y-50478D02*
X65459Y-50478D01*
X65535Y-50449D01*
X65573Y-50392D01*
X65573Y-50335D01*
X65269Y-49678D02*
X65269Y-49221D01*
X63723Y-52278D02*
X62923Y-52278D01*
X63723Y-52021D02*
X63304Y-52021D01*
X63228Y-52049D01*
X63190Y-52107D01*
X63190Y-52192D01*
X63228Y-52249D01*
X63266Y-52278D01*
X63685Y-51507D02*
X63723Y-51564D01*
X63723Y-51678D01*
X63685Y-51735D01*
X63609Y-51764D01*
X63304Y-51764D01*
X63228Y-51735D01*
X63190Y-51678D01*
X63190Y-51564D01*
X63228Y-51507D01*
X63304Y-51478D01*
X63380Y-51478D01*
X63457Y-51764D01*
X63723Y-50964D02*
X63304Y-50964D01*
X63228Y-50992D01*
X63190Y-51049D01*
X63190Y-51164D01*
X63228Y-51221D01*
X63685Y-50964D02*
X63723Y-51021D01*
X63723Y-51164D01*
X63685Y-51221D01*
X63609Y-51249D01*
X63533Y-51249D01*
X63457Y-51221D01*
X63419Y-51164D01*
X63419Y-51021D01*
X63380Y-50964D01*
X63190Y-50764D02*
X63190Y-50535D01*
X62923Y-50678D02*
X63609Y-50678D01*
X63685Y-50649D01*
X63723Y-50592D01*
X63723Y-50535D01*
X63419Y-49878D02*
X63419Y-49421D01*
X63723Y-49649D02*
X63114Y-49649D01*
M02*
