G04 (created by PCBNEW (2013-07-07 BZR 4022)-stable) date 05/11/2014 12:09:02*
%MOIN*%
G04 Gerber Fmt 3.4, Leading zero omitted, Abs format*
%FSLAX34Y34*%
G01*
G70*
G90*
G04 APERTURE LIST*
%ADD10C,0.00590551*%
%ADD11C,0.011811*%
G04 APERTURE END LIST*
G54D10*
G54D11*
X69909Y-67074D02*
X69878Y-67048D01*
X69814Y-67021D01*
X69654Y-67021D01*
X69591Y-67048D01*
X69559Y-67074D01*
X69527Y-67126D01*
X69527Y-67179D01*
X69559Y-67258D01*
X69941Y-67573D01*
X69527Y-67573D01*
X69113Y-67021D02*
X69049Y-67021D01*
X68985Y-67048D01*
X68953Y-67074D01*
X68921Y-67126D01*
X68890Y-67231D01*
X68890Y-67363D01*
X68921Y-67468D01*
X68953Y-67520D01*
X68985Y-67546D01*
X69049Y-67573D01*
X69113Y-67573D01*
X69176Y-67546D01*
X69208Y-67520D01*
X69240Y-67468D01*
X69272Y-67363D01*
X69272Y-67231D01*
X69240Y-67126D01*
X69208Y-67074D01*
X69176Y-67048D01*
X69113Y-67021D01*
X70159Y-61974D02*
X70128Y-61948D01*
X70064Y-61921D01*
X69904Y-61921D01*
X69841Y-61948D01*
X69809Y-61974D01*
X69777Y-62026D01*
X69777Y-62079D01*
X69809Y-62158D01*
X70191Y-62473D01*
X69777Y-62473D01*
X69363Y-61921D02*
X69299Y-61921D01*
X69235Y-61948D01*
X69203Y-61974D01*
X69171Y-62026D01*
X69140Y-62131D01*
X69140Y-62263D01*
X69171Y-62368D01*
X69203Y-62420D01*
X69235Y-62446D01*
X69299Y-62473D01*
X69363Y-62473D01*
X69426Y-62446D01*
X69458Y-62420D01*
X69490Y-62368D01*
X69522Y-62263D01*
X69522Y-62131D01*
X69490Y-62026D01*
X69458Y-61974D01*
X69426Y-61948D01*
X69363Y-61921D01*
X59284Y-67324D02*
X59253Y-67298D01*
X59189Y-67271D01*
X59029Y-67271D01*
X58966Y-67298D01*
X58934Y-67324D01*
X58902Y-67376D01*
X58902Y-67429D01*
X58934Y-67508D01*
X59316Y-67823D01*
X58902Y-67823D01*
X58520Y-67508D02*
X58583Y-67481D01*
X58615Y-67455D01*
X58647Y-67403D01*
X58647Y-67376D01*
X58615Y-67324D01*
X58583Y-67298D01*
X58520Y-67271D01*
X58392Y-67271D01*
X58328Y-67298D01*
X58296Y-67324D01*
X58265Y-67376D01*
X58265Y-67403D01*
X58296Y-67455D01*
X58328Y-67481D01*
X58392Y-67508D01*
X58520Y-67508D01*
X58583Y-67534D01*
X58615Y-67560D01*
X58647Y-67613D01*
X58647Y-67718D01*
X58615Y-67770D01*
X58583Y-67796D01*
X58520Y-67823D01*
X58392Y-67823D01*
X58328Y-67796D01*
X58296Y-67770D01*
X58265Y-67718D01*
X58265Y-67613D01*
X58296Y-67560D01*
X58328Y-67534D01*
X58392Y-67508D01*
X59009Y-62749D02*
X58978Y-62723D01*
X58914Y-62696D01*
X58754Y-62696D01*
X58691Y-62723D01*
X58659Y-62749D01*
X58627Y-62801D01*
X58627Y-62854D01*
X58659Y-62933D01*
X59041Y-63248D01*
X58627Y-63248D01*
X58245Y-62933D02*
X58308Y-62906D01*
X58340Y-62880D01*
X58372Y-62828D01*
X58372Y-62801D01*
X58340Y-62749D01*
X58308Y-62723D01*
X58245Y-62696D01*
X58117Y-62696D01*
X58053Y-62723D01*
X58021Y-62749D01*
X57990Y-62801D01*
X57990Y-62828D01*
X58021Y-62880D01*
X58053Y-62906D01*
X58117Y-62933D01*
X58245Y-62933D01*
X58308Y-62959D01*
X58340Y-62985D01*
X58372Y-63038D01*
X58372Y-63143D01*
X58340Y-63195D01*
X58308Y-63221D01*
X58245Y-63248D01*
X58117Y-63248D01*
X58053Y-63221D01*
X58021Y-63195D01*
X57990Y-63143D01*
X57990Y-63038D01*
X58021Y-62985D01*
X58053Y-62959D01*
X58117Y-62933D01*
X70234Y-65424D02*
X70203Y-65398D01*
X70139Y-65371D01*
X69979Y-65371D01*
X69916Y-65398D01*
X69884Y-65424D01*
X69852Y-65476D01*
X69852Y-65529D01*
X69884Y-65608D01*
X70266Y-65923D01*
X69852Y-65923D01*
X69533Y-65923D02*
X69406Y-65923D01*
X69342Y-65896D01*
X69310Y-65870D01*
X69246Y-65791D01*
X69215Y-65686D01*
X69215Y-65476D01*
X69246Y-65424D01*
X69278Y-65398D01*
X69342Y-65371D01*
X69470Y-65371D01*
X69533Y-65398D01*
X69565Y-65424D01*
X69597Y-65476D01*
X69597Y-65608D01*
X69565Y-65660D01*
X69533Y-65686D01*
X69470Y-65713D01*
X69342Y-65713D01*
X69278Y-65686D01*
X69246Y-65660D01*
X69215Y-65608D01*
X70159Y-69724D02*
X70128Y-69698D01*
X70064Y-69671D01*
X69904Y-69671D01*
X69841Y-69698D01*
X69809Y-69724D01*
X69777Y-69776D01*
X69777Y-69829D01*
X69809Y-69908D01*
X70191Y-70223D01*
X69777Y-70223D01*
X69458Y-70223D02*
X69331Y-70223D01*
X69267Y-70196D01*
X69235Y-70170D01*
X69171Y-70091D01*
X69140Y-69986D01*
X69140Y-69776D01*
X69171Y-69724D01*
X69203Y-69698D01*
X69267Y-69671D01*
X69395Y-69671D01*
X69458Y-69698D01*
X69490Y-69724D01*
X69522Y-69776D01*
X69522Y-69908D01*
X69490Y-69960D01*
X69458Y-69986D01*
X69395Y-70013D01*
X69267Y-70013D01*
X69203Y-69986D01*
X69171Y-69960D01*
X69140Y-69908D01*
X59041Y-69521D02*
X58627Y-69521D01*
X58850Y-69731D01*
X58754Y-69731D01*
X58691Y-69758D01*
X58659Y-69784D01*
X58627Y-69836D01*
X58627Y-69968D01*
X58659Y-70020D01*
X58691Y-70046D01*
X58754Y-70073D01*
X58946Y-70073D01*
X59009Y-70046D01*
X59041Y-70020D01*
X58245Y-69758D02*
X58308Y-69731D01*
X58340Y-69705D01*
X58372Y-69653D01*
X58372Y-69626D01*
X58340Y-69574D01*
X58308Y-69548D01*
X58245Y-69521D01*
X58117Y-69521D01*
X58053Y-69548D01*
X58021Y-69574D01*
X57990Y-69626D01*
X57990Y-69653D01*
X58021Y-69705D01*
X58053Y-69731D01*
X58117Y-69758D01*
X58245Y-69758D01*
X58308Y-69784D01*
X58340Y-69810D01*
X58372Y-69863D01*
X58372Y-69968D01*
X58340Y-70020D01*
X58308Y-70046D01*
X58245Y-70073D01*
X58117Y-70073D01*
X58053Y-70046D01*
X58021Y-70020D01*
X57990Y-69968D01*
X57990Y-69863D01*
X58021Y-69810D01*
X58053Y-69784D01*
X58117Y-69758D01*
X69952Y-61373D02*
X70334Y-61373D01*
X70143Y-61373D02*
X70143Y-60821D01*
X70207Y-60900D01*
X70271Y-60953D01*
X70334Y-60979D01*
X69315Y-61373D02*
X69697Y-61373D01*
X69506Y-61373D02*
X69506Y-60821D01*
X69570Y-60900D01*
X69633Y-60953D01*
X69697Y-60979D01*
X69327Y-56398D02*
X69709Y-56398D01*
X69518Y-56398D02*
X69518Y-55846D01*
X69582Y-55925D01*
X69646Y-55978D01*
X69709Y-56004D01*
X68690Y-56398D02*
X69072Y-56398D01*
X68881Y-56398D02*
X68881Y-55846D01*
X68945Y-55925D01*
X69008Y-55978D01*
X69072Y-56004D01*
X69733Y-57823D02*
X70116Y-57823D01*
X69925Y-57823D02*
X69925Y-57271D01*
X69988Y-57350D01*
X70052Y-57403D01*
X70116Y-57429D01*
X69533Y-53773D02*
X69916Y-53773D01*
X69725Y-53773D02*
X69725Y-53221D01*
X69788Y-53300D01*
X69852Y-53353D01*
X69916Y-53379D01*
X59202Y-56273D02*
X59584Y-56273D01*
X59393Y-56273D02*
X59393Y-55721D01*
X59457Y-55800D01*
X59521Y-55853D01*
X59584Y-55879D01*
X58883Y-56273D02*
X58756Y-56273D01*
X58692Y-56246D01*
X58660Y-56220D01*
X58596Y-56141D01*
X58565Y-56036D01*
X58565Y-55826D01*
X58596Y-55774D01*
X58628Y-55748D01*
X58692Y-55721D01*
X58820Y-55721D01*
X58883Y-55748D01*
X58915Y-55774D01*
X58947Y-55826D01*
X58947Y-55958D01*
X58915Y-56010D01*
X58883Y-56036D01*
X58820Y-56063D01*
X58692Y-56063D01*
X58628Y-56036D01*
X58596Y-56010D01*
X58565Y-55958D01*
X58677Y-53773D02*
X59059Y-53773D01*
X58868Y-53773D02*
X58868Y-53221D01*
X58932Y-53300D01*
X58996Y-53353D01*
X59059Y-53379D01*
X58263Y-53221D02*
X58199Y-53221D01*
X58135Y-53248D01*
X58103Y-53274D01*
X58071Y-53326D01*
X58040Y-53431D01*
X58040Y-53563D01*
X58071Y-53668D01*
X58103Y-53720D01*
X58135Y-53746D01*
X58199Y-53773D01*
X58263Y-53773D01*
X58326Y-53746D01*
X58358Y-53720D01*
X58390Y-53668D01*
X58422Y-53563D01*
X58422Y-53431D01*
X58390Y-53326D01*
X58358Y-53274D01*
X58326Y-53248D01*
X58263Y-53221D01*
X58991Y-65496D02*
X58577Y-65496D01*
X58800Y-65706D01*
X58704Y-65706D01*
X58641Y-65733D01*
X58609Y-65759D01*
X58577Y-65811D01*
X58577Y-65943D01*
X58609Y-65995D01*
X58641Y-66021D01*
X58704Y-66048D01*
X58896Y-66048D01*
X58959Y-66021D01*
X58991Y-65995D01*
X58195Y-65733D02*
X58258Y-65706D01*
X58290Y-65680D01*
X58322Y-65628D01*
X58322Y-65601D01*
X58290Y-65549D01*
X58258Y-65523D01*
X58195Y-65496D01*
X58067Y-65496D01*
X58003Y-65523D01*
X57971Y-65549D01*
X57940Y-65601D01*
X57940Y-65628D01*
X57971Y-65680D01*
X58003Y-65706D01*
X58067Y-65733D01*
X58195Y-65733D01*
X58258Y-65759D01*
X58290Y-65785D01*
X58322Y-65838D01*
X58322Y-65943D01*
X58290Y-65995D01*
X58258Y-66021D01*
X58195Y-66048D01*
X58067Y-66048D01*
X58003Y-66021D01*
X57971Y-65995D01*
X57940Y-65943D01*
X57940Y-65838D01*
X57971Y-65785D01*
X58003Y-65759D01*
X58067Y-65733D01*
X58577Y-61023D02*
X58959Y-61023D01*
X58768Y-61023D02*
X58768Y-60471D01*
X58832Y-60550D01*
X58896Y-60603D01*
X58959Y-60629D01*
X58258Y-61023D02*
X58131Y-61023D01*
X58067Y-60996D01*
X58035Y-60970D01*
X57971Y-60891D01*
X57940Y-60786D01*
X57940Y-60576D01*
X57971Y-60524D01*
X58003Y-60498D01*
X58067Y-60471D01*
X58195Y-60471D01*
X58258Y-60498D01*
X58290Y-60524D01*
X58322Y-60576D01*
X58322Y-60708D01*
X58290Y-60760D01*
X58258Y-60786D01*
X58195Y-60813D01*
X58067Y-60813D01*
X58003Y-60786D01*
X57971Y-60760D01*
X57940Y-60708D01*
X58502Y-57798D02*
X58884Y-57798D01*
X58693Y-57798D02*
X58693Y-57246D01*
X58757Y-57325D01*
X58821Y-57378D01*
X58884Y-57404D01*
X58088Y-57246D02*
X58024Y-57246D01*
X57960Y-57273D01*
X57928Y-57299D01*
X57896Y-57351D01*
X57865Y-57456D01*
X57865Y-57588D01*
X57896Y-57693D01*
X57928Y-57745D01*
X57960Y-57771D01*
X58024Y-57798D01*
X58088Y-57798D01*
X58151Y-57771D01*
X58183Y-57745D01*
X58215Y-57693D01*
X58247Y-57588D01*
X58247Y-57456D01*
X58215Y-57351D01*
X58183Y-57299D01*
X58151Y-57273D01*
X58088Y-57246D01*
X69147Y-61973D02*
X69147Y-61421D01*
X68764Y-61973D01*
X68764Y-61421D01*
X68095Y-61448D02*
X68159Y-61421D01*
X68254Y-61421D01*
X68350Y-61448D01*
X68414Y-61500D01*
X68446Y-61553D01*
X68477Y-61658D01*
X68477Y-61736D01*
X68446Y-61841D01*
X68414Y-61894D01*
X68350Y-61946D01*
X68254Y-61973D01*
X68191Y-61973D01*
X68095Y-61946D01*
X68063Y-61920D01*
X68063Y-61736D01*
X68191Y-61736D01*
X67394Y-61920D02*
X67426Y-61946D01*
X67521Y-61973D01*
X67585Y-61973D01*
X67681Y-61946D01*
X67744Y-61894D01*
X67776Y-61841D01*
X67808Y-61736D01*
X67808Y-61658D01*
X67776Y-61553D01*
X67744Y-61500D01*
X67681Y-61448D01*
X67585Y-61421D01*
X67521Y-61421D01*
X67426Y-61448D01*
X67394Y-61474D01*
X66661Y-61421D02*
X66246Y-61421D01*
X66470Y-61631D01*
X66374Y-61631D01*
X66310Y-61658D01*
X66278Y-61684D01*
X66246Y-61736D01*
X66246Y-61868D01*
X66278Y-61920D01*
X66310Y-61946D01*
X66374Y-61973D01*
X66565Y-61973D01*
X66629Y-61946D01*
X66661Y-61920D01*
X65864Y-61658D02*
X65928Y-61631D01*
X65960Y-61605D01*
X65991Y-61553D01*
X65991Y-61526D01*
X65960Y-61474D01*
X65928Y-61448D01*
X65864Y-61421D01*
X65736Y-61421D01*
X65673Y-61448D01*
X65641Y-61474D01*
X65609Y-61526D01*
X65609Y-61553D01*
X65641Y-61605D01*
X65673Y-61631D01*
X65736Y-61658D01*
X65864Y-61658D01*
X65928Y-61684D01*
X65960Y-61710D01*
X65991Y-61763D01*
X65991Y-61868D01*
X65960Y-61920D01*
X65928Y-61946D01*
X65864Y-61973D01*
X65736Y-61973D01*
X65673Y-61946D01*
X65641Y-61920D01*
X65609Y-61868D01*
X65609Y-61763D01*
X65641Y-61710D01*
X65673Y-61684D01*
X65736Y-61658D01*
X64812Y-61605D02*
X64812Y-62156D01*
X64812Y-61631D02*
X64748Y-61605D01*
X64621Y-61605D01*
X64557Y-61631D01*
X64525Y-61658D01*
X64494Y-61710D01*
X64494Y-61868D01*
X64525Y-61920D01*
X64557Y-61946D01*
X64621Y-61973D01*
X64748Y-61973D01*
X64812Y-61946D01*
X64207Y-61973D02*
X64207Y-61605D01*
X64207Y-61421D02*
X64239Y-61448D01*
X64207Y-61474D01*
X64175Y-61448D01*
X64207Y-61421D01*
X64207Y-61474D01*
X63888Y-61605D02*
X63888Y-61973D01*
X63888Y-61658D02*
X63856Y-61631D01*
X63792Y-61605D01*
X63697Y-61605D01*
X63633Y-61631D01*
X63601Y-61684D01*
X63601Y-61973D01*
X62772Y-61973D02*
X62772Y-61605D01*
X62772Y-61710D02*
X62741Y-61658D01*
X62709Y-61631D01*
X62645Y-61605D01*
X62581Y-61605D01*
X62103Y-61946D02*
X62167Y-61973D01*
X62294Y-61973D01*
X62358Y-61946D01*
X62390Y-61894D01*
X62390Y-61684D01*
X62358Y-61631D01*
X62294Y-61605D01*
X62167Y-61605D01*
X62103Y-61631D01*
X62071Y-61684D01*
X62071Y-61736D01*
X62390Y-61789D01*
X61848Y-61605D02*
X61689Y-61973D01*
X61529Y-61605D01*
X60637Y-61421D02*
X60573Y-61421D01*
X60510Y-61448D01*
X60478Y-61474D01*
X60446Y-61526D01*
X60414Y-61631D01*
X60414Y-61763D01*
X60446Y-61868D01*
X60478Y-61920D01*
X60510Y-61946D01*
X60573Y-61973D01*
X60637Y-61973D01*
X60701Y-61946D01*
X60733Y-61920D01*
X60765Y-61868D01*
X60796Y-61763D01*
X60796Y-61631D01*
X60765Y-61526D01*
X60733Y-61474D01*
X60701Y-61448D01*
X60637Y-61421D01*
X60127Y-61920D02*
X60095Y-61946D01*
X60127Y-61973D01*
X60159Y-61946D01*
X60127Y-61920D01*
X60127Y-61973D01*
X59458Y-61973D02*
X59840Y-61973D01*
X59649Y-61973D02*
X59649Y-61421D01*
X59713Y-61500D01*
X59777Y-61553D01*
X59840Y-61579D01*
X58820Y-61973D02*
X59203Y-61973D01*
X59012Y-61973D02*
X59012Y-61421D01*
X59075Y-61500D01*
X59139Y-61553D01*
X59203Y-61579D01*
M02*
