G04 (created by PCBNEW (2013-07-07 BZR 4022)-stable) date 28/01/2014 11:02:56*
%MOIN*%
G04 Gerber Fmt 3.4, Leading zero omitted, Abs format*
%FSLAX34Y34*%
G01*
G70*
G90*
G04 APERTURE LIST*
%ADD10C,0.00590551*%
%ADD11R,0.055X0.055*%
%ADD12C,0.055*%
%ADD13R,0.06X0.06*%
%ADD14C,0.06*%
%ADD15R,0.0708661X0.0708661*%
%ADD16C,0.0708661*%
%ADD17C,0.11811*%
%ADD18C,0.035*%
%ADD19C,0.01*%
G04 APERTURE END LIST*
G54D10*
G54D11*
X76000Y-60250D03*
G54D12*
X75000Y-60250D03*
G54D13*
X70000Y-61000D03*
G54D14*
X71000Y-61000D03*
X70000Y-62000D03*
X71000Y-62000D03*
X70000Y-63000D03*
X71000Y-63000D03*
G54D15*
X86000Y-60000D03*
G54D16*
X86000Y-61000D03*
X86000Y-62000D03*
X86000Y-63000D03*
X86000Y-64000D03*
X86000Y-65000D03*
G54D17*
X71600Y-64350D03*
G54D18*
X73950Y-64600D03*
X73050Y-63700D03*
X76650Y-59750D03*
X72500Y-61500D03*
X77750Y-63000D03*
X77750Y-61500D03*
X84750Y-63250D03*
X84750Y-60250D03*
X84700Y-64500D03*
X84750Y-61500D03*
X78850Y-60900D03*
X78850Y-63850D03*
X72850Y-62400D03*
X76300Y-64300D03*
G54D19*
X73050Y-63700D02*
X73950Y-64600D01*
X75050Y-60250D02*
X75000Y-60250D01*
X75550Y-59750D02*
X75050Y-60250D01*
X76650Y-59750D02*
X75550Y-59750D01*
G54D10*
G36*
X85889Y-64500D02*
X85714Y-64572D01*
X85572Y-64713D01*
X85495Y-64899D01*
X85495Y-65099D01*
X85572Y-65285D01*
X85617Y-65330D01*
X84169Y-65330D01*
X84169Y-65100D01*
X84156Y-65035D01*
X84119Y-64980D01*
X84064Y-64943D01*
X84000Y-64930D01*
X76525Y-64930D01*
X76525Y-60475D01*
X76525Y-60362D01*
X76462Y-60300D01*
X76050Y-60300D01*
X76050Y-60712D01*
X76112Y-60775D01*
X76324Y-60775D01*
X76416Y-60737D01*
X76486Y-60666D01*
X76524Y-60574D01*
X76525Y-60475D01*
X76525Y-64930D01*
X75950Y-64930D01*
X75950Y-60712D01*
X75950Y-60300D01*
X75537Y-60300D01*
X75475Y-60362D01*
X75474Y-60475D01*
X75475Y-60574D01*
X75513Y-60666D01*
X75583Y-60737D01*
X75675Y-60775D01*
X75887Y-60775D01*
X75950Y-60712D01*
X75950Y-64930D01*
X74275Y-64930D01*
X74275Y-64535D01*
X74225Y-64416D01*
X74134Y-64324D01*
X74014Y-64275D01*
X73907Y-64274D01*
X73374Y-63742D01*
X73375Y-63635D01*
X73325Y-63516D01*
X73234Y-63424D01*
X73114Y-63375D01*
X72985Y-63374D01*
X72866Y-63424D01*
X72774Y-63515D01*
X72725Y-63635D01*
X72724Y-63764D01*
X72774Y-63883D01*
X72865Y-63975D01*
X72985Y-64024D01*
X73092Y-64025D01*
X73625Y-64557D01*
X73624Y-64664D01*
X73674Y-64783D01*
X73765Y-64875D01*
X73885Y-64924D01*
X74014Y-64925D01*
X74133Y-64875D01*
X74225Y-64784D01*
X74274Y-64664D01*
X74275Y-64535D01*
X74275Y-64930D01*
X72066Y-64930D01*
X72227Y-64770D01*
X72340Y-64497D01*
X72340Y-64203D01*
X72228Y-63931D01*
X72020Y-63722D01*
X71747Y-63609D01*
X71453Y-63609D01*
X71450Y-63610D01*
X71450Y-62910D01*
X71450Y-61910D01*
X71450Y-60910D01*
X71381Y-60745D01*
X71255Y-60618D01*
X71089Y-60550D01*
X70910Y-60549D01*
X70745Y-60618D01*
X70618Y-60744D01*
X70550Y-60910D01*
X70549Y-61089D01*
X70618Y-61254D01*
X70744Y-61381D01*
X70910Y-61449D01*
X71089Y-61450D01*
X71254Y-61381D01*
X71381Y-61255D01*
X71449Y-61089D01*
X71450Y-60910D01*
X71450Y-61910D01*
X71381Y-61745D01*
X71255Y-61618D01*
X71089Y-61550D01*
X70910Y-61549D01*
X70745Y-61618D01*
X70618Y-61744D01*
X70550Y-61910D01*
X70549Y-62089D01*
X70618Y-62254D01*
X70744Y-62381D01*
X70910Y-62449D01*
X71089Y-62450D01*
X71254Y-62381D01*
X71381Y-62255D01*
X71449Y-62089D01*
X71450Y-61910D01*
X71450Y-62910D01*
X71381Y-62745D01*
X71255Y-62618D01*
X71089Y-62550D01*
X70910Y-62549D01*
X70745Y-62618D01*
X70618Y-62744D01*
X70550Y-62910D01*
X70549Y-63089D01*
X70618Y-63254D01*
X70744Y-63381D01*
X70910Y-63449D01*
X71089Y-63450D01*
X71254Y-63381D01*
X71381Y-63255D01*
X71449Y-63089D01*
X71450Y-62910D01*
X71450Y-63610D01*
X71181Y-63721D01*
X70972Y-63929D01*
X70859Y-64202D01*
X70859Y-64496D01*
X70971Y-64768D01*
X71132Y-64930D01*
X69569Y-64930D01*
X69569Y-63136D01*
X69618Y-63254D01*
X69744Y-63381D01*
X69910Y-63449D01*
X70089Y-63450D01*
X70254Y-63381D01*
X70381Y-63255D01*
X70449Y-63089D01*
X70450Y-62910D01*
X70381Y-62745D01*
X70255Y-62618D01*
X70089Y-62550D01*
X69910Y-62549D01*
X69745Y-62618D01*
X69618Y-62744D01*
X69569Y-62862D01*
X69569Y-62136D01*
X69618Y-62254D01*
X69744Y-62381D01*
X69910Y-62449D01*
X70089Y-62450D01*
X70254Y-62381D01*
X70381Y-62255D01*
X70449Y-62089D01*
X70450Y-61910D01*
X70381Y-61745D01*
X70255Y-61618D01*
X70089Y-61550D01*
X69910Y-61549D01*
X69745Y-61618D01*
X69618Y-61744D01*
X69569Y-61862D01*
X69569Y-61377D01*
X69572Y-61384D01*
X69614Y-61427D01*
X69670Y-61449D01*
X69729Y-61450D01*
X70329Y-61450D01*
X70384Y-61427D01*
X70427Y-61385D01*
X70449Y-61329D01*
X70450Y-61270D01*
X70450Y-60670D01*
X70427Y-60615D01*
X70385Y-60572D01*
X70329Y-60550D01*
X70270Y-60549D01*
X69670Y-60549D01*
X69615Y-60572D01*
X69572Y-60614D01*
X69569Y-60622D01*
X69569Y-59569D01*
X75466Y-59569D01*
X75408Y-59608D01*
X75160Y-59856D01*
X75084Y-59825D01*
X74915Y-59824D01*
X74759Y-59889D01*
X74639Y-60008D01*
X74575Y-60165D01*
X74574Y-60334D01*
X74639Y-60490D01*
X74758Y-60610D01*
X74915Y-60674D01*
X75084Y-60675D01*
X75240Y-60610D01*
X75360Y-60491D01*
X75424Y-60334D01*
X75425Y-60165D01*
X75422Y-60160D01*
X75474Y-60107D01*
X75475Y-60137D01*
X75537Y-60200D01*
X75950Y-60200D01*
X75950Y-60192D01*
X76050Y-60192D01*
X76050Y-60200D01*
X76462Y-60200D01*
X76525Y-60137D01*
X76525Y-60050D01*
X76585Y-60074D01*
X76714Y-60075D01*
X76833Y-60025D01*
X76925Y-59934D01*
X76974Y-59814D01*
X76975Y-59685D01*
X76927Y-59569D01*
X85514Y-59569D01*
X85495Y-59615D01*
X85495Y-59675D01*
X85495Y-60384D01*
X85518Y-60439D01*
X85560Y-60481D01*
X85615Y-60504D01*
X85675Y-60504D01*
X85878Y-60504D01*
X85714Y-60572D01*
X85572Y-60713D01*
X85495Y-60899D01*
X85495Y-61099D01*
X85572Y-61285D01*
X85713Y-61427D01*
X85889Y-61500D01*
X85714Y-61572D01*
X85572Y-61713D01*
X85495Y-61899D01*
X85495Y-62099D01*
X85572Y-62285D01*
X85713Y-62427D01*
X85889Y-62500D01*
X85714Y-62572D01*
X85572Y-62713D01*
X85495Y-62899D01*
X85495Y-63099D01*
X85572Y-63285D01*
X85713Y-63427D01*
X85889Y-63500D01*
X85714Y-63572D01*
X85572Y-63713D01*
X85495Y-63899D01*
X85495Y-64099D01*
X85572Y-64285D01*
X85713Y-64427D01*
X85889Y-64500D01*
X85889Y-64500D01*
G37*
G54D19*
X85889Y-64500D02*
X85714Y-64572D01*
X85572Y-64713D01*
X85495Y-64899D01*
X85495Y-65099D01*
X85572Y-65285D01*
X85617Y-65330D01*
X84169Y-65330D01*
X84169Y-65100D01*
X84156Y-65035D01*
X84119Y-64980D01*
X84064Y-64943D01*
X84000Y-64930D01*
X76525Y-64930D01*
X76525Y-60475D01*
X76525Y-60362D01*
X76462Y-60300D01*
X76050Y-60300D01*
X76050Y-60712D01*
X76112Y-60775D01*
X76324Y-60775D01*
X76416Y-60737D01*
X76486Y-60666D01*
X76524Y-60574D01*
X76525Y-60475D01*
X76525Y-64930D01*
X75950Y-64930D01*
X75950Y-60712D01*
X75950Y-60300D01*
X75537Y-60300D01*
X75475Y-60362D01*
X75474Y-60475D01*
X75475Y-60574D01*
X75513Y-60666D01*
X75583Y-60737D01*
X75675Y-60775D01*
X75887Y-60775D01*
X75950Y-60712D01*
X75950Y-64930D01*
X74275Y-64930D01*
X74275Y-64535D01*
X74225Y-64416D01*
X74134Y-64324D01*
X74014Y-64275D01*
X73907Y-64274D01*
X73374Y-63742D01*
X73375Y-63635D01*
X73325Y-63516D01*
X73234Y-63424D01*
X73114Y-63375D01*
X72985Y-63374D01*
X72866Y-63424D01*
X72774Y-63515D01*
X72725Y-63635D01*
X72724Y-63764D01*
X72774Y-63883D01*
X72865Y-63975D01*
X72985Y-64024D01*
X73092Y-64025D01*
X73625Y-64557D01*
X73624Y-64664D01*
X73674Y-64783D01*
X73765Y-64875D01*
X73885Y-64924D01*
X74014Y-64925D01*
X74133Y-64875D01*
X74225Y-64784D01*
X74274Y-64664D01*
X74275Y-64535D01*
X74275Y-64930D01*
X72066Y-64930D01*
X72227Y-64770D01*
X72340Y-64497D01*
X72340Y-64203D01*
X72228Y-63931D01*
X72020Y-63722D01*
X71747Y-63609D01*
X71453Y-63609D01*
X71450Y-63610D01*
X71450Y-62910D01*
X71450Y-61910D01*
X71450Y-60910D01*
X71381Y-60745D01*
X71255Y-60618D01*
X71089Y-60550D01*
X70910Y-60549D01*
X70745Y-60618D01*
X70618Y-60744D01*
X70550Y-60910D01*
X70549Y-61089D01*
X70618Y-61254D01*
X70744Y-61381D01*
X70910Y-61449D01*
X71089Y-61450D01*
X71254Y-61381D01*
X71381Y-61255D01*
X71449Y-61089D01*
X71450Y-60910D01*
X71450Y-61910D01*
X71381Y-61745D01*
X71255Y-61618D01*
X71089Y-61550D01*
X70910Y-61549D01*
X70745Y-61618D01*
X70618Y-61744D01*
X70550Y-61910D01*
X70549Y-62089D01*
X70618Y-62254D01*
X70744Y-62381D01*
X70910Y-62449D01*
X71089Y-62450D01*
X71254Y-62381D01*
X71381Y-62255D01*
X71449Y-62089D01*
X71450Y-61910D01*
X71450Y-62910D01*
X71381Y-62745D01*
X71255Y-62618D01*
X71089Y-62550D01*
X70910Y-62549D01*
X70745Y-62618D01*
X70618Y-62744D01*
X70550Y-62910D01*
X70549Y-63089D01*
X70618Y-63254D01*
X70744Y-63381D01*
X70910Y-63449D01*
X71089Y-63450D01*
X71254Y-63381D01*
X71381Y-63255D01*
X71449Y-63089D01*
X71450Y-62910D01*
X71450Y-63610D01*
X71181Y-63721D01*
X70972Y-63929D01*
X70859Y-64202D01*
X70859Y-64496D01*
X70971Y-64768D01*
X71132Y-64930D01*
X69569Y-64930D01*
X69569Y-63136D01*
X69618Y-63254D01*
X69744Y-63381D01*
X69910Y-63449D01*
X70089Y-63450D01*
X70254Y-63381D01*
X70381Y-63255D01*
X70449Y-63089D01*
X70450Y-62910D01*
X70381Y-62745D01*
X70255Y-62618D01*
X70089Y-62550D01*
X69910Y-62549D01*
X69745Y-62618D01*
X69618Y-62744D01*
X69569Y-62862D01*
X69569Y-62136D01*
X69618Y-62254D01*
X69744Y-62381D01*
X69910Y-62449D01*
X70089Y-62450D01*
X70254Y-62381D01*
X70381Y-62255D01*
X70449Y-62089D01*
X70450Y-61910D01*
X70381Y-61745D01*
X70255Y-61618D01*
X70089Y-61550D01*
X69910Y-61549D01*
X69745Y-61618D01*
X69618Y-61744D01*
X69569Y-61862D01*
X69569Y-61377D01*
X69572Y-61384D01*
X69614Y-61427D01*
X69670Y-61449D01*
X69729Y-61450D01*
X70329Y-61450D01*
X70384Y-61427D01*
X70427Y-61385D01*
X70449Y-61329D01*
X70450Y-61270D01*
X70450Y-60670D01*
X70427Y-60615D01*
X70385Y-60572D01*
X70329Y-60550D01*
X70270Y-60549D01*
X69670Y-60549D01*
X69615Y-60572D01*
X69572Y-60614D01*
X69569Y-60622D01*
X69569Y-59569D01*
X75466Y-59569D01*
X75408Y-59608D01*
X75160Y-59856D01*
X75084Y-59825D01*
X74915Y-59824D01*
X74759Y-59889D01*
X74639Y-60008D01*
X74575Y-60165D01*
X74574Y-60334D01*
X74639Y-60490D01*
X74758Y-60610D01*
X74915Y-60674D01*
X75084Y-60675D01*
X75240Y-60610D01*
X75360Y-60491D01*
X75424Y-60334D01*
X75425Y-60165D01*
X75422Y-60160D01*
X75474Y-60107D01*
X75475Y-60137D01*
X75537Y-60200D01*
X75950Y-60200D01*
X75950Y-60192D01*
X76050Y-60192D01*
X76050Y-60200D01*
X76462Y-60200D01*
X76525Y-60137D01*
X76525Y-60050D01*
X76585Y-60074D01*
X76714Y-60075D01*
X76833Y-60025D01*
X76925Y-59934D01*
X76974Y-59814D01*
X76975Y-59685D01*
X76927Y-59569D01*
X85514Y-59569D01*
X85495Y-59615D01*
X85495Y-59675D01*
X85495Y-60384D01*
X85518Y-60439D01*
X85560Y-60481D01*
X85615Y-60504D01*
X85675Y-60504D01*
X85878Y-60504D01*
X85714Y-60572D01*
X85572Y-60713D01*
X85495Y-60899D01*
X85495Y-61099D01*
X85572Y-61285D01*
X85713Y-61427D01*
X85889Y-61500D01*
X85714Y-61572D01*
X85572Y-61713D01*
X85495Y-61899D01*
X85495Y-62099D01*
X85572Y-62285D01*
X85713Y-62427D01*
X85889Y-62500D01*
X85714Y-62572D01*
X85572Y-62713D01*
X85495Y-62899D01*
X85495Y-63099D01*
X85572Y-63285D01*
X85713Y-63427D01*
X85889Y-63500D01*
X85714Y-63572D01*
X85572Y-63713D01*
X85495Y-63899D01*
X85495Y-64099D01*
X85572Y-64285D01*
X85713Y-64427D01*
X85889Y-64500D01*
M02*
