G04 (created by PCBNEW (2013-07-07 BZR 4022)-stable) date 11/02/2014 19:36:51*
%MOIN*%
G04 Gerber Fmt 3.4, Leading zero omitted, Abs format*
%FSLAX34Y34*%
G01*
G70*
G90*
G04 APERTURE LIST*
%ADD10C,0.00590551*%
%ADD11R,0.12X0.1*%
%ADD12R,0.12X0.12*%
%ADD13C,0.12*%
%ADD14C,0.1*%
%ADD15R,0.055X0.055*%
%ADD16C,0.055*%
%ADD17R,0.06X0.06*%
G04 APERTURE END LIST*
G54D10*
G54D11*
X80600Y-31000D03*
X80600Y-29600D03*
X80600Y-27800D03*
X80600Y-26400D03*
X80600Y-48600D03*
X80600Y-50000D03*
X80600Y-51800D03*
X80600Y-53200D03*
X82200Y-31000D03*
X82200Y-29600D03*
X82200Y-27800D03*
X82200Y-26400D03*
X82200Y-48600D03*
X82200Y-50000D03*
X82200Y-51800D03*
X82200Y-53200D03*
X83800Y-31000D03*
X83800Y-29600D03*
X83800Y-27800D03*
X83800Y-26400D03*
X83800Y-48600D03*
X83800Y-50000D03*
X83800Y-51800D03*
X83800Y-53200D03*
X85400Y-31000D03*
X85400Y-29600D03*
X85400Y-27800D03*
X85400Y-26400D03*
X85400Y-48600D03*
X85400Y-50000D03*
X85400Y-51800D03*
X85400Y-53200D03*
G54D12*
X79200Y-32900D03*
G54D13*
X76800Y-32900D03*
G54D12*
X79200Y-34500D03*
G54D13*
X76800Y-34500D03*
G54D12*
X79200Y-36100D03*
G54D13*
X76800Y-36100D03*
G54D12*
X79200Y-37700D03*
G54D13*
X76800Y-37700D03*
G54D12*
X80600Y-24800D03*
G54D13*
X80600Y-22400D03*
G54D12*
X80600Y-54800D03*
G54D13*
X80600Y-57200D03*
G54D12*
X82200Y-24800D03*
G54D13*
X82200Y-22400D03*
G54D12*
X82200Y-54800D03*
G54D13*
X82200Y-57200D03*
G54D12*
X83800Y-24800D03*
G54D13*
X83800Y-22400D03*
G54D12*
X83800Y-54800D03*
G54D13*
X83800Y-57200D03*
G54D12*
X85400Y-24800D03*
G54D13*
X85400Y-22400D03*
G54D12*
X85400Y-54800D03*
G54D13*
X85400Y-57200D03*
G54D14*
X79200Y-39800D03*
X76800Y-39800D03*
X79200Y-41200D03*
X76800Y-41200D03*
X79200Y-42600D03*
X76800Y-42600D03*
X79200Y-44000D03*
X76800Y-44000D03*
X79200Y-45400D03*
X76800Y-45400D03*
X79200Y-46800D03*
X76800Y-46800D03*
X87350Y-24750D03*
X87350Y-22350D03*
X87350Y-54800D03*
X87350Y-57200D03*
X88750Y-24750D03*
X88750Y-22350D03*
X88750Y-54800D03*
X88750Y-57200D03*
X90150Y-24750D03*
X90150Y-22350D03*
X90150Y-54800D03*
X90150Y-57200D03*
X91550Y-24750D03*
X91550Y-22350D03*
X91550Y-54800D03*
X91550Y-57200D03*
X92950Y-24750D03*
X92950Y-22350D03*
X92950Y-54800D03*
X92950Y-57200D03*
X94350Y-24750D03*
X94350Y-22350D03*
X94350Y-54800D03*
X94350Y-57200D03*
G54D15*
X87350Y-27250D03*
G54D16*
X87350Y-26250D03*
G54D15*
X87350Y-52300D03*
G54D16*
X87350Y-53300D03*
G54D15*
X88750Y-27250D03*
G54D16*
X88750Y-26250D03*
G54D15*
X88750Y-52300D03*
G54D16*
X88750Y-53300D03*
G54D15*
X90150Y-27250D03*
G54D16*
X90150Y-26250D03*
G54D15*
X90150Y-52300D03*
G54D16*
X90150Y-53300D03*
G54D15*
X91550Y-27300D03*
G54D16*
X91550Y-26300D03*
G54D15*
X91600Y-52300D03*
G54D16*
X91600Y-53300D03*
G54D15*
X92950Y-27300D03*
G54D16*
X92950Y-26300D03*
G54D15*
X92950Y-52300D03*
G54D16*
X92950Y-53300D03*
G54D15*
X94350Y-27250D03*
G54D16*
X94350Y-26250D03*
G54D15*
X94350Y-52300D03*
G54D16*
X94350Y-53300D03*
G54D17*
X77400Y-53200D03*
G54D11*
X109972Y-48587D03*
X109972Y-49987D03*
X109972Y-51787D03*
X109972Y-53187D03*
X109972Y-30987D03*
X109972Y-29587D03*
X109972Y-27787D03*
X109972Y-26387D03*
X108372Y-48587D03*
X108372Y-49987D03*
X108372Y-51787D03*
X108372Y-53187D03*
X108372Y-30987D03*
X108372Y-29587D03*
X108372Y-27787D03*
X108372Y-26387D03*
X106772Y-48587D03*
X106772Y-49987D03*
X106772Y-51787D03*
X106772Y-53187D03*
X106772Y-30987D03*
X106772Y-29587D03*
X106772Y-27787D03*
X106772Y-26387D03*
X105172Y-48587D03*
X105172Y-49987D03*
X105172Y-51787D03*
X105172Y-53187D03*
X105172Y-30987D03*
X105172Y-29587D03*
X105172Y-27787D03*
X105172Y-26387D03*
G54D12*
X111372Y-46687D03*
G54D13*
X113772Y-46687D03*
G54D12*
X111372Y-45087D03*
G54D13*
X113772Y-45087D03*
G54D12*
X111372Y-43487D03*
G54D13*
X113772Y-43487D03*
G54D12*
X111372Y-41887D03*
G54D13*
X113772Y-41887D03*
G54D12*
X109972Y-54787D03*
G54D13*
X109972Y-57187D03*
G54D12*
X109972Y-24787D03*
G54D13*
X109972Y-22387D03*
G54D12*
X108372Y-54787D03*
G54D13*
X108372Y-57187D03*
G54D12*
X108372Y-24787D03*
G54D13*
X108372Y-22387D03*
G54D12*
X106772Y-54787D03*
G54D13*
X106772Y-57187D03*
G54D12*
X106772Y-24787D03*
G54D13*
X106772Y-22387D03*
G54D12*
X105172Y-54787D03*
G54D13*
X105172Y-57187D03*
G54D12*
X105172Y-24787D03*
G54D13*
X105172Y-22387D03*
G54D14*
X111372Y-39787D03*
X113772Y-39787D03*
X111372Y-38387D03*
X113772Y-38387D03*
X111372Y-36987D03*
X113772Y-36987D03*
X111372Y-35587D03*
X113772Y-35587D03*
X111372Y-34187D03*
X113772Y-34187D03*
X111372Y-32787D03*
X113772Y-32787D03*
X103222Y-54837D03*
X103222Y-57237D03*
X103222Y-24787D03*
X103222Y-22387D03*
X101822Y-54837D03*
X101822Y-57237D03*
X101822Y-24787D03*
X101822Y-22387D03*
X100422Y-54837D03*
X100422Y-57237D03*
X100422Y-24787D03*
X100422Y-22387D03*
X99022Y-54837D03*
X99022Y-57237D03*
X99022Y-24787D03*
X99022Y-22387D03*
X97622Y-54837D03*
X97622Y-57237D03*
X97622Y-24787D03*
X97622Y-22387D03*
X96222Y-54837D03*
X96222Y-57237D03*
X96222Y-24787D03*
X96222Y-22387D03*
G54D15*
X103222Y-52337D03*
G54D16*
X103222Y-53337D03*
G54D15*
X103222Y-27287D03*
G54D16*
X103222Y-26287D03*
G54D15*
X101822Y-52337D03*
G54D16*
X101822Y-53337D03*
G54D15*
X101822Y-27287D03*
G54D16*
X101822Y-26287D03*
G54D15*
X100422Y-52337D03*
G54D16*
X100422Y-53337D03*
G54D15*
X100422Y-27287D03*
G54D16*
X100422Y-26287D03*
G54D15*
X99022Y-52287D03*
G54D16*
X99022Y-53287D03*
G54D15*
X98972Y-27287D03*
G54D16*
X98972Y-26287D03*
G54D15*
X97622Y-52287D03*
G54D16*
X97622Y-53287D03*
G54D15*
X97622Y-27287D03*
G54D16*
X97622Y-26287D03*
G54D15*
X96222Y-52337D03*
G54D16*
X96222Y-53337D03*
G54D15*
X96222Y-27287D03*
G54D16*
X96222Y-26287D03*
G54D17*
X113172Y-26387D03*
M02*
