G04 (created by PCBNEW (2013-07-07 BZR 4022)-stable) date 08/01/2015 19:31:04*
%MOIN*%
G04 Gerber Fmt 3.4, Leading zero omitted, Abs format*
%FSLAX34Y34*%
G01*
G70*
G90*
G04 APERTURE LIST*
%ADD10C,0.00590551*%
%ADD11R,0.06X0.06*%
%ADD12C,0.06*%
%ADD13R,0.035X0.055*%
%ADD14R,0.055X0.035*%
%ADD15C,0.056*%
%ADD16R,0.08X0.144*%
%ADD17R,0.08X0.04*%
%ADD18R,0.0393701X0.0275591*%
%ADD19R,0.1X0.02*%
%ADD20R,0.11X0.0787402*%
%ADD21C,0.04*%
%ADD22R,0.0472X0.0472*%
%ADD23R,0.063X0.1024*%
%ADD24R,0.0551X0.0236*%
%ADD25R,0.055X0.055*%
%ADD26C,0.055*%
%ADD27C,0.035*%
%ADD28C,0.01*%
G04 APERTURE END LIST*
G54D10*
G54D11*
X44200Y-38000D03*
G54D12*
X49200Y-38000D03*
X50200Y-38000D03*
X51200Y-38000D03*
X52200Y-38000D03*
X53200Y-38000D03*
X54200Y-38000D03*
X55200Y-38000D03*
X56200Y-38000D03*
X57200Y-38000D03*
X58200Y-38000D03*
X59200Y-38000D03*
X60200Y-38000D03*
X61200Y-38000D03*
X62200Y-38000D03*
X45200Y-38000D03*
X46200Y-38000D03*
X47200Y-38000D03*
X48200Y-38000D03*
X63200Y-38000D03*
G54D11*
X44200Y-32000D03*
G54D12*
X49200Y-32000D03*
X50200Y-32000D03*
X51200Y-32000D03*
X52200Y-32000D03*
X53200Y-32000D03*
X54200Y-32000D03*
X55200Y-32000D03*
X56200Y-32000D03*
X57200Y-32000D03*
X58200Y-32000D03*
X59200Y-32000D03*
X60200Y-32000D03*
X61200Y-32000D03*
X62200Y-32000D03*
X45200Y-32000D03*
X46200Y-32000D03*
X47200Y-32000D03*
X48200Y-32000D03*
X63200Y-32000D03*
G54D13*
X72525Y-32200D03*
X73275Y-32200D03*
X46525Y-36150D03*
X47275Y-36150D03*
X44475Y-33000D03*
X43725Y-33000D03*
X47625Y-33200D03*
X48375Y-33200D03*
X46075Y-33000D03*
X45325Y-33000D03*
G54D14*
X51000Y-34425D03*
X51000Y-35175D03*
G54D15*
X47250Y-34700D03*
X49250Y-34700D03*
G54D16*
X64950Y-36000D03*
G54D17*
X67550Y-36000D03*
X67550Y-35100D03*
X67550Y-36900D03*
G54D18*
X68727Y-34675D03*
X68727Y-35050D03*
X68727Y-35424D03*
X69672Y-35424D03*
X69672Y-35050D03*
X69672Y-34675D03*
G54D13*
X69675Y-37900D03*
X68925Y-37900D03*
X64325Y-38000D03*
X65075Y-38000D03*
X70625Y-37900D03*
X71375Y-37900D03*
G54D14*
X68800Y-37075D03*
X68800Y-36325D03*
G54D13*
X49675Y-36800D03*
X48925Y-36800D03*
X70925Y-32200D03*
X71675Y-32200D03*
X44875Y-34000D03*
X45625Y-34000D03*
G54D14*
X50836Y-37069D03*
X50836Y-36319D03*
G54D13*
X66325Y-33850D03*
X65575Y-33850D03*
X61775Y-36950D03*
X62525Y-36950D03*
G54D19*
X70850Y-35729D03*
X70850Y-35414D03*
X70850Y-35100D03*
X70850Y-34785D03*
X70850Y-34470D03*
G54D20*
X73131Y-36871D03*
X73131Y-33328D03*
X70965Y-36871D03*
X70965Y-33328D03*
G54D21*
X71950Y-35950D03*
X71950Y-34250D03*
G54D22*
X47863Y-36900D03*
X47037Y-36900D03*
X72187Y-37900D03*
X73013Y-37900D03*
G54D23*
X63264Y-35233D03*
X63264Y-33815D03*
G54D10*
G36*
X51988Y-35932D02*
X52350Y-35570D01*
X52433Y-35654D01*
X52071Y-36016D01*
X51988Y-35932D01*
X51988Y-35932D01*
G37*
G36*
X52127Y-36071D02*
X52489Y-35709D01*
X52572Y-35793D01*
X52210Y-36155D01*
X52127Y-36071D01*
X52127Y-36071D01*
G37*
G36*
X52266Y-36211D02*
X52628Y-35849D01*
X52712Y-35932D01*
X52350Y-36294D01*
X52266Y-36211D01*
X52266Y-36211D01*
G37*
G36*
X52405Y-36349D02*
X52767Y-35987D01*
X52850Y-36071D01*
X52488Y-36433D01*
X52405Y-36349D01*
X52405Y-36349D01*
G37*
G36*
X52544Y-36489D02*
X52906Y-36127D01*
X52990Y-36210D01*
X52628Y-36572D01*
X52544Y-36489D01*
X52544Y-36489D01*
G37*
G36*
X51570Y-35514D02*
X51932Y-35152D01*
X52015Y-35236D01*
X51653Y-35598D01*
X51570Y-35514D01*
X51570Y-35514D01*
G37*
G36*
X51709Y-35654D02*
X52071Y-35292D01*
X52154Y-35375D01*
X51792Y-35737D01*
X51709Y-35654D01*
X51709Y-35654D01*
G37*
G36*
X51848Y-35793D02*
X52210Y-35431D01*
X52294Y-35514D01*
X51932Y-35876D01*
X51848Y-35793D01*
X51848Y-35793D01*
G37*
G36*
X53852Y-36767D02*
X53936Y-36684D01*
X54298Y-37046D01*
X54214Y-37129D01*
X53852Y-36767D01*
X53852Y-36767D01*
G37*
G36*
X53992Y-36628D02*
X54075Y-36545D01*
X54437Y-36907D01*
X54354Y-36990D01*
X53992Y-36628D01*
X53992Y-36628D01*
G37*
G36*
X54131Y-36489D02*
X54214Y-36405D01*
X54576Y-36767D01*
X54493Y-36851D01*
X54131Y-36489D01*
X54131Y-36489D01*
G37*
G36*
X54270Y-36349D02*
X54354Y-36266D01*
X54716Y-36628D01*
X54632Y-36711D01*
X54270Y-36349D01*
X54270Y-36349D01*
G37*
G36*
X54409Y-36210D02*
X54493Y-36127D01*
X54855Y-36489D01*
X54771Y-36572D01*
X54409Y-36210D01*
X54409Y-36210D01*
G37*
G36*
X54549Y-36071D02*
X54632Y-35987D01*
X54994Y-36349D01*
X54911Y-36433D01*
X54549Y-36071D01*
X54549Y-36071D01*
G37*
G36*
X54687Y-35932D02*
X54771Y-35849D01*
X55133Y-36211D01*
X55049Y-36294D01*
X54687Y-35932D01*
X54687Y-35932D01*
G37*
G36*
X54827Y-35793D02*
X54910Y-35709D01*
X55272Y-36071D01*
X55189Y-36155D01*
X54827Y-35793D01*
X54827Y-35793D01*
G37*
G36*
X55384Y-34763D02*
X55746Y-34401D01*
X55829Y-34485D01*
X55467Y-34847D01*
X55384Y-34763D01*
X55384Y-34763D01*
G37*
G36*
X55245Y-34624D02*
X55607Y-34262D01*
X55690Y-34345D01*
X55328Y-34707D01*
X55245Y-34624D01*
X55245Y-34624D01*
G37*
G36*
X55105Y-34485D02*
X55467Y-34123D01*
X55551Y-34206D01*
X55189Y-34568D01*
X55105Y-34485D01*
X55105Y-34485D01*
G37*
G36*
X54966Y-34345D02*
X55328Y-33983D01*
X55411Y-34067D01*
X55049Y-34429D01*
X54966Y-34345D01*
X54966Y-34345D01*
G37*
G36*
X54827Y-34206D02*
X55189Y-33844D01*
X55272Y-33928D01*
X54910Y-34290D01*
X54827Y-34206D01*
X54827Y-34206D01*
G37*
G36*
X54687Y-34067D02*
X55049Y-33705D01*
X55133Y-33788D01*
X54771Y-34150D01*
X54687Y-34067D01*
X54687Y-34067D01*
G37*
G36*
X54549Y-33928D02*
X54911Y-33566D01*
X54994Y-33650D01*
X54632Y-34012D01*
X54549Y-33928D01*
X54549Y-33928D01*
G37*
G36*
X54409Y-33789D02*
X54771Y-33427D01*
X54855Y-33510D01*
X54493Y-33872D01*
X54409Y-33789D01*
X54409Y-33789D01*
G37*
G36*
X53101Y-32953D02*
X53185Y-32870D01*
X53547Y-33232D01*
X53463Y-33315D01*
X53101Y-32953D01*
X53101Y-32953D01*
G37*
G36*
X52962Y-33092D02*
X53045Y-33009D01*
X53407Y-33371D01*
X53324Y-33454D01*
X52962Y-33092D01*
X52962Y-33092D01*
G37*
G36*
X52823Y-33232D02*
X52906Y-33148D01*
X53268Y-33510D01*
X53185Y-33594D01*
X52823Y-33232D01*
X52823Y-33232D01*
G37*
G36*
X52683Y-33371D02*
X52767Y-33288D01*
X53129Y-33650D01*
X53045Y-33733D01*
X52683Y-33371D01*
X52683Y-33371D01*
G37*
G36*
X52544Y-33510D02*
X52628Y-33427D01*
X52990Y-33789D01*
X52906Y-33872D01*
X52544Y-33510D01*
X52544Y-33510D01*
G37*
G36*
X52405Y-33650D02*
X52488Y-33566D01*
X52850Y-33928D01*
X52767Y-34012D01*
X52405Y-33650D01*
X52405Y-33650D01*
G37*
G36*
X52266Y-33788D02*
X52350Y-33705D01*
X52712Y-34067D01*
X52628Y-34150D01*
X52266Y-33788D01*
X52266Y-33788D01*
G37*
G36*
X52127Y-33928D02*
X52210Y-33844D01*
X52572Y-34206D01*
X52489Y-34290D01*
X52127Y-33928D01*
X52127Y-33928D01*
G37*
G36*
X52683Y-36628D02*
X53045Y-36266D01*
X53129Y-36349D01*
X52767Y-36711D01*
X52683Y-36628D01*
X52683Y-36628D01*
G37*
G36*
X52823Y-36767D02*
X53185Y-36405D01*
X53268Y-36489D01*
X52906Y-36851D01*
X52823Y-36767D01*
X52823Y-36767D01*
G37*
G36*
X52962Y-36907D02*
X53324Y-36545D01*
X53407Y-36628D01*
X53045Y-36990D01*
X52962Y-36907D01*
X52962Y-36907D01*
G37*
G36*
X53101Y-37046D02*
X53463Y-36684D01*
X53547Y-36767D01*
X53185Y-37129D01*
X53101Y-37046D01*
X53101Y-37046D01*
G37*
G36*
X54966Y-35654D02*
X55049Y-35570D01*
X55411Y-35932D01*
X55328Y-36016D01*
X54966Y-35654D01*
X54966Y-35654D01*
G37*
G36*
X55105Y-35514D02*
X55189Y-35431D01*
X55551Y-35793D01*
X55467Y-35876D01*
X55105Y-35514D01*
X55105Y-35514D01*
G37*
G36*
X55245Y-35375D02*
X55328Y-35292D01*
X55690Y-35654D01*
X55607Y-35737D01*
X55245Y-35375D01*
X55245Y-35375D01*
G37*
G36*
X55384Y-35236D02*
X55467Y-35152D01*
X55829Y-35514D01*
X55746Y-35598D01*
X55384Y-35236D01*
X55384Y-35236D01*
G37*
G36*
X54270Y-33650D02*
X54632Y-33288D01*
X54716Y-33371D01*
X54354Y-33733D01*
X54270Y-33650D01*
X54270Y-33650D01*
G37*
G36*
X54131Y-33510D02*
X54493Y-33148D01*
X54576Y-33232D01*
X54214Y-33594D01*
X54131Y-33510D01*
X54131Y-33510D01*
G37*
G36*
X53992Y-33371D02*
X54354Y-33009D01*
X54437Y-33092D01*
X54075Y-33454D01*
X53992Y-33371D01*
X53992Y-33371D01*
G37*
G36*
X53852Y-33232D02*
X54214Y-32870D01*
X54298Y-32953D01*
X53936Y-33315D01*
X53852Y-33232D01*
X53852Y-33232D01*
G37*
G36*
X51988Y-34067D02*
X52071Y-33983D01*
X52433Y-34345D01*
X52350Y-34429D01*
X51988Y-34067D01*
X51988Y-34067D01*
G37*
G36*
X51848Y-34206D02*
X51932Y-34123D01*
X52294Y-34485D01*
X52210Y-34568D01*
X51848Y-34206D01*
X51848Y-34206D01*
G37*
G36*
X51709Y-34345D02*
X51792Y-34262D01*
X52154Y-34624D01*
X52071Y-34707D01*
X51709Y-34345D01*
X51709Y-34345D01*
G37*
G36*
X51570Y-34485D02*
X51653Y-34401D01*
X52015Y-34763D01*
X51932Y-34847D01*
X51570Y-34485D01*
X51570Y-34485D01*
G37*
G54D24*
X69300Y-32000D03*
X67200Y-32000D03*
X69300Y-32500D03*
X69300Y-33000D03*
X69300Y-33500D03*
X67200Y-32500D03*
X67200Y-33000D03*
X67200Y-33500D03*
G54D14*
X65350Y-32975D03*
X65350Y-32225D03*
X66400Y-32225D03*
X66400Y-32975D03*
G54D13*
X69425Y-31450D03*
X68675Y-31450D03*
G54D14*
X70150Y-31725D03*
X70150Y-32475D03*
G54D25*
X70750Y-38550D03*
G54D26*
X71750Y-38550D03*
X72750Y-38550D03*
X73750Y-38550D03*
G54D25*
X70850Y-31450D03*
G54D26*
X71850Y-31450D03*
G54D27*
X56750Y-33200D03*
X51900Y-33759D03*
X70560Y-32660D03*
X69810Y-33000D03*
X56650Y-35150D03*
X53698Y-34538D03*
X54250Y-34850D03*
X56225Y-33150D03*
X54550Y-35600D03*
X56575Y-36383D03*
X53108Y-34084D03*
X52432Y-35284D03*
X51587Y-36119D03*
X51637Y-36752D03*
X52896Y-35510D03*
X45700Y-37400D03*
X52175Y-37125D03*
X52950Y-38600D03*
X51750Y-38350D03*
X44750Y-34500D03*
X62800Y-36450D03*
X59660Y-33900D03*
X61620Y-32520D03*
X59330Y-33270D03*
X59430Y-35960D03*
X64950Y-34050D03*
X64670Y-32700D03*
X65850Y-32200D03*
X64200Y-31920D03*
X72980Y-31500D03*
X49990Y-34980D03*
X53620Y-35550D03*
X72020Y-33170D03*
X71870Y-37210D03*
X68320Y-31350D03*
X62800Y-34300D03*
X67600Y-32500D03*
X70100Y-34250D03*
X50200Y-36575D03*
X69575Y-36375D03*
X53750Y-33650D03*
X51450Y-33850D03*
X46800Y-33850D03*
X63800Y-36450D03*
X56200Y-35900D03*
G54D28*
X57700Y-32925D02*
X57250Y-32925D01*
X56975Y-33200D02*
X56750Y-33200D01*
X57250Y-32925D02*
X56975Y-33200D01*
X45625Y-34000D02*
X45625Y-33625D01*
X45700Y-32500D02*
X46200Y-32000D01*
X45700Y-33550D02*
X45700Y-32500D01*
X45625Y-33625D02*
X45700Y-33550D01*
X51900Y-33759D02*
X51900Y-33759D01*
X52042Y-33759D02*
X51900Y-33759D01*
X52350Y-34067D02*
X52042Y-33759D01*
X63264Y-35233D02*
X63766Y-35233D01*
X63900Y-35100D02*
X67550Y-35100D01*
X63766Y-35233D02*
X63900Y-35100D01*
X43725Y-33000D02*
X43725Y-32475D01*
X43725Y-32475D02*
X44200Y-32000D01*
X47037Y-31553D02*
X44646Y-31553D01*
X44646Y-31553D02*
X44200Y-32000D01*
X61775Y-36950D02*
X61775Y-36723D01*
X61775Y-36723D02*
X63264Y-35233D01*
X55607Y-35375D02*
X55615Y-35375D01*
X62998Y-35500D02*
X63264Y-35233D01*
X55740Y-35500D02*
X62998Y-35500D01*
X55615Y-35375D02*
X55740Y-35500D01*
X67550Y-35100D02*
X67550Y-34490D01*
X67550Y-34490D02*
X67940Y-34100D01*
X67940Y-34100D02*
X67940Y-33560D01*
X67940Y-33560D02*
X67380Y-33000D01*
X67380Y-33000D02*
X67200Y-33000D01*
X55607Y-35375D02*
X55595Y-35375D01*
X53211Y-35150D02*
X53217Y-35155D01*
X55370Y-35150D02*
X53211Y-35150D01*
X55595Y-35375D02*
X55370Y-35150D01*
X66400Y-32975D02*
X65350Y-32975D01*
X67200Y-33000D02*
X66425Y-33000D01*
X66425Y-33000D02*
X66400Y-32975D01*
X66325Y-33850D02*
X66477Y-33850D01*
X67550Y-35100D02*
X67019Y-35100D01*
X66477Y-33850D02*
X67019Y-34392D01*
X67019Y-34392D02*
X67019Y-35100D01*
X44030Y-33305D02*
X44030Y-33000D01*
X44239Y-33514D02*
X44030Y-33305D01*
X44239Y-37530D02*
X44239Y-33514D01*
X44200Y-37569D02*
X44239Y-37530D01*
X44200Y-38000D02*
X44200Y-37569D01*
X43725Y-33000D02*
X44030Y-33000D01*
X44630Y-38053D02*
X44630Y-38000D01*
X45006Y-38430D02*
X44630Y-38053D01*
X49389Y-38430D02*
X45006Y-38430D01*
X49700Y-38119D02*
X49389Y-38430D01*
X49700Y-37800D02*
X49700Y-38119D01*
X50431Y-37069D02*
X49700Y-37800D01*
X50836Y-37069D02*
X50431Y-37069D01*
X44200Y-38000D02*
X44630Y-38000D01*
X54075Y-33092D02*
X54348Y-32819D01*
X50251Y-34425D02*
X51000Y-34425D01*
X48592Y-32766D02*
X50251Y-34425D01*
X47339Y-32766D02*
X48592Y-32766D01*
X46700Y-32127D02*
X47339Y-32766D01*
X46700Y-31891D02*
X46700Y-32127D01*
X47037Y-31553D02*
X46700Y-31891D01*
X53397Y-31553D02*
X47037Y-31553D01*
X53700Y-31856D02*
X53397Y-31553D01*
X53700Y-32171D02*
X53700Y-31856D01*
X54348Y-32819D02*
X53700Y-32171D01*
X51446Y-34425D02*
X51000Y-34425D01*
X51519Y-34351D02*
X51446Y-34425D01*
X51656Y-34488D02*
X51519Y-34351D01*
X51656Y-34488D02*
X51792Y-34624D01*
X53034Y-34972D02*
X53217Y-35155D01*
X52140Y-34972D02*
X53034Y-34972D01*
X51792Y-34624D02*
X52140Y-34972D01*
X53217Y-36178D02*
X52906Y-36489D01*
X53217Y-35155D02*
X53217Y-36178D01*
X70625Y-37900D02*
X70625Y-38425D01*
X70625Y-38425D02*
X70750Y-38550D01*
X69672Y-35050D02*
X69350Y-35050D01*
X69350Y-35900D02*
X70219Y-35900D01*
X69200Y-35750D02*
X69350Y-35900D01*
X69200Y-35200D02*
X69200Y-35750D01*
X69350Y-35050D02*
X69200Y-35200D01*
X70850Y-35729D02*
X70219Y-35729D01*
X70625Y-37900D02*
X70319Y-37900D01*
X70119Y-37900D02*
X70219Y-37800D01*
X69675Y-37900D02*
X70119Y-37900D01*
X70219Y-35729D02*
X70219Y-35900D01*
X70219Y-35900D02*
X70219Y-37800D01*
X70219Y-37800D02*
X70319Y-37900D01*
X70375Y-32475D02*
X70150Y-32475D01*
X70560Y-32660D02*
X70375Y-32475D01*
X69300Y-32500D02*
X70125Y-32500D01*
X70125Y-32500D02*
X70150Y-32475D01*
X69300Y-33000D02*
X69810Y-33000D01*
X67200Y-33500D02*
X66900Y-33500D01*
X66900Y-33500D02*
X66800Y-33400D01*
X66800Y-33400D02*
X64850Y-33400D01*
X64850Y-33400D02*
X64500Y-33050D01*
X64500Y-33050D02*
X62950Y-33050D01*
X62950Y-33050D02*
X60850Y-35150D01*
X60850Y-35150D02*
X56650Y-35150D01*
X52542Y-34538D02*
X53698Y-34538D01*
X52210Y-34206D02*
X52542Y-34538D01*
X54250Y-34850D02*
X54400Y-34850D01*
X66970Y-31770D02*
X67200Y-32000D01*
X65000Y-31770D02*
X66970Y-31770D01*
X63880Y-32889D02*
X65000Y-31770D01*
X62883Y-32889D02*
X63880Y-32889D01*
X60783Y-34989D02*
X62883Y-32889D01*
X57059Y-34989D02*
X60783Y-34989D01*
X56870Y-34800D02*
X57059Y-34989D01*
X56260Y-34800D02*
X56870Y-34800D01*
X56070Y-34989D02*
X56260Y-34800D01*
X54540Y-34989D02*
X56070Y-34989D01*
X54400Y-34850D02*
X54540Y-34989D01*
X54250Y-34850D02*
X54000Y-34843D01*
X54000Y-34843D02*
X53374Y-34843D01*
X53374Y-34843D02*
X53302Y-34771D01*
X53302Y-34771D02*
X52497Y-34771D01*
X52071Y-34345D02*
X52497Y-34771D01*
X70850Y-35100D02*
X70250Y-35100D01*
X70025Y-34675D02*
X69672Y-34675D01*
X70100Y-34750D02*
X70025Y-34675D01*
X70100Y-34950D02*
X70100Y-34750D01*
X70250Y-35100D02*
X70100Y-34950D01*
X70850Y-35414D02*
X69681Y-35414D01*
X69681Y-35414D02*
X69672Y-35424D01*
X51200Y-38000D02*
X51550Y-38000D01*
X52562Y-37112D02*
X52772Y-36901D01*
X52772Y-36901D02*
X53045Y-36628D01*
X52500Y-37174D02*
X52562Y-37112D01*
X52500Y-37325D02*
X52500Y-37174D01*
X52375Y-37450D02*
X52500Y-37325D01*
X52000Y-37450D02*
X52375Y-37450D01*
X51725Y-37725D02*
X52000Y-37450D01*
X51725Y-37825D02*
X51725Y-37725D01*
X51550Y-38000D02*
X51725Y-37825D01*
X52726Y-37226D02*
X52726Y-37698D01*
X53185Y-36767D02*
X52726Y-37226D01*
X52425Y-38000D02*
X52200Y-38000D01*
X52726Y-37698D02*
X52425Y-38000D01*
X56580Y-32619D02*
X57200Y-32000D01*
X55941Y-32619D02*
X56580Y-32619D01*
X54772Y-33789D02*
X55941Y-32619D01*
X65350Y-31450D02*
X67773Y-31450D01*
X68200Y-31876D02*
X68200Y-34300D01*
X67773Y-31450D02*
X68200Y-31876D01*
X68727Y-35424D02*
X68424Y-35424D01*
X56750Y-31450D02*
X56200Y-32000D01*
X65350Y-31450D02*
X56750Y-31450D01*
X68200Y-35200D02*
X68200Y-34300D01*
X68424Y-35424D02*
X68200Y-35200D01*
X56200Y-32082D02*
X56200Y-32000D01*
X54632Y-33650D02*
X56200Y-32082D01*
X65469Y-31269D02*
X67819Y-31269D01*
X68400Y-31850D02*
X68400Y-34200D01*
X67819Y-31269D02*
X68400Y-31850D01*
X68727Y-34675D02*
X68727Y-34527D01*
X68727Y-34527D02*
X68400Y-34200D01*
X55930Y-31269D02*
X55200Y-32000D01*
X65469Y-31269D02*
X55930Y-31269D01*
X55200Y-32804D02*
X55200Y-32000D01*
X54493Y-33510D02*
X55200Y-32804D01*
X54592Y-32392D02*
X54200Y-32000D01*
X54592Y-33064D02*
X54592Y-32392D01*
X54627Y-33098D02*
X54592Y-33064D01*
X54354Y-33371D02*
X54627Y-33098D01*
X53200Y-32671D02*
X53200Y-32000D01*
X53051Y-32819D02*
X53200Y-32671D01*
X53324Y-33092D02*
X53051Y-32819D01*
X52200Y-32247D02*
X52200Y-32000D01*
X53185Y-33232D02*
X52200Y-32247D01*
X53200Y-37328D02*
X53200Y-38000D01*
X53051Y-37180D02*
X53200Y-37328D01*
X53324Y-36907D02*
X53051Y-37180D01*
X54200Y-37328D02*
X54200Y-38000D01*
X54348Y-37180D02*
X54200Y-37328D01*
X54075Y-36907D02*
X54348Y-37180D01*
X55200Y-37752D02*
X55200Y-38000D01*
X54214Y-36767D02*
X55200Y-37752D01*
X56004Y-38000D02*
X56200Y-38000D01*
X55088Y-37083D02*
X56004Y-38000D01*
X54809Y-37083D02*
X55088Y-37083D01*
X54354Y-36628D02*
X54809Y-37083D01*
X54851Y-36847D02*
X54493Y-36489D01*
X55129Y-36847D02*
X54851Y-36847D01*
X55842Y-37559D02*
X55129Y-36847D01*
X56759Y-37559D02*
X55842Y-37559D01*
X57200Y-38000D02*
X56759Y-37559D01*
X57563Y-37363D02*
X58200Y-38000D01*
X55925Y-37363D02*
X57563Y-37363D01*
X55184Y-36622D02*
X55925Y-37363D01*
X54905Y-36622D02*
X55184Y-36622D01*
X54632Y-36349D02*
X54905Y-36622D01*
X55057Y-34067D02*
X55975Y-33150D01*
X55975Y-33150D02*
X56225Y-33150D01*
X55049Y-34067D02*
X55057Y-34067D01*
X55999Y-32838D02*
X57041Y-32838D01*
X57880Y-32000D02*
X58200Y-32000D01*
X57041Y-32838D02*
X57880Y-32000D01*
X54910Y-33927D02*
X55999Y-32838D01*
X58756Y-38443D02*
X59200Y-38000D01*
X54034Y-38443D02*
X58756Y-38443D01*
X53720Y-38128D02*
X54034Y-38443D01*
X53720Y-36716D02*
X53720Y-38128D01*
X54498Y-35937D02*
X53720Y-36716D01*
X54772Y-36210D02*
X54498Y-35937D01*
X54650Y-35811D02*
X54910Y-36071D01*
X54650Y-35700D02*
X54650Y-35811D01*
X54550Y-35600D02*
X54650Y-35700D01*
X59963Y-36763D02*
X61200Y-38000D01*
X56159Y-36763D02*
X59963Y-36763D01*
X55462Y-36066D02*
X56159Y-36763D01*
X55189Y-35793D02*
X55462Y-36066D01*
X56058Y-36383D02*
X56575Y-36383D01*
X55328Y-35654D02*
X56058Y-36383D01*
X55654Y-34577D02*
X55607Y-34624D01*
X60622Y-34577D02*
X55654Y-34577D01*
X63200Y-32000D02*
X60622Y-34577D01*
X62200Y-32579D02*
X62200Y-32000D01*
X60507Y-34271D02*
X62200Y-32579D01*
X55681Y-34271D02*
X60507Y-34271D01*
X55467Y-34485D02*
X55681Y-34271D01*
X61010Y-32000D02*
X61200Y-32000D01*
X58937Y-34072D02*
X61010Y-32000D01*
X55601Y-34072D02*
X58937Y-34072D01*
X55601Y-34072D02*
X55601Y-34072D01*
X55328Y-34345D02*
X55601Y-34072D01*
X58057Y-33230D02*
X57269Y-33230D01*
X60200Y-32000D02*
X59399Y-32800D01*
X59399Y-32800D02*
X58443Y-32800D01*
X58443Y-32800D02*
X58188Y-33055D01*
X58188Y-33055D02*
X58188Y-33098D01*
X58188Y-33098D02*
X58057Y-33230D01*
X55545Y-33850D02*
X55189Y-34206D01*
X56650Y-33850D02*
X55545Y-33850D01*
X57269Y-33230D02*
X56650Y-33850D01*
X56158Y-37040D02*
X55049Y-35932D01*
X59240Y-37040D02*
X56158Y-37040D01*
X60200Y-38000D02*
X59240Y-37040D01*
X51879Y-32679D02*
X51200Y-32000D01*
X52353Y-32679D02*
X51879Y-32679D01*
X53045Y-33371D02*
X52353Y-32679D01*
X51181Y-32981D02*
X50200Y-32000D01*
X52377Y-32981D02*
X51181Y-32981D01*
X52906Y-33510D02*
X52377Y-32981D01*
X50470Y-33270D02*
X49200Y-32000D01*
X52387Y-33270D02*
X50470Y-33270D01*
X52767Y-33650D02*
X52387Y-33270D01*
X52923Y-34084D02*
X53108Y-34084D01*
X52627Y-33789D02*
X52923Y-34084D01*
X47771Y-32571D02*
X47200Y-32000D01*
X49175Y-32571D02*
X47771Y-32571D01*
X50057Y-33454D02*
X49175Y-32571D01*
X52048Y-33454D02*
X50057Y-33454D01*
X52216Y-33622D02*
X52048Y-33454D01*
X52216Y-33655D02*
X52216Y-33622D01*
X52489Y-33927D02*
X52216Y-33655D01*
X50148Y-37098D02*
X49973Y-37098D01*
X49973Y-37098D02*
X49675Y-36800D01*
X47696Y-37503D02*
X47200Y-38000D01*
X49742Y-37503D02*
X47696Y-37503D01*
X50481Y-36764D02*
X50148Y-37098D01*
X50148Y-37098D02*
X49742Y-37503D01*
X51031Y-36764D02*
X50481Y-36764D01*
X51242Y-36553D02*
X51031Y-36764D01*
X51242Y-36032D02*
X51242Y-36553D01*
X51461Y-35814D02*
X51242Y-36032D01*
X51632Y-35814D02*
X51461Y-35814D01*
X51932Y-35514D02*
X51632Y-35814D01*
X52432Y-35293D02*
X52432Y-35284D01*
X52071Y-35654D02*
X52432Y-35293D01*
X51884Y-36119D02*
X51587Y-36119D01*
X52210Y-35793D02*
X51884Y-36119D01*
X51637Y-36645D02*
X52350Y-35932D01*
X51637Y-36645D02*
X51637Y-36752D01*
X47250Y-35719D02*
X47275Y-35744D01*
X47250Y-34700D02*
X47250Y-35719D01*
X47275Y-36150D02*
X47275Y-35744D01*
X48375Y-33825D02*
X49250Y-34700D01*
X48375Y-33200D02*
X48375Y-33825D01*
X52896Y-35664D02*
X52896Y-35510D01*
X52489Y-36072D02*
X52896Y-35664D01*
X44399Y-33075D02*
X44475Y-33000D01*
X44399Y-36099D02*
X44399Y-33075D01*
X45700Y-37400D02*
X44399Y-36099D01*
X45325Y-33000D02*
X44475Y-33000D01*
X50825Y-37374D02*
X50200Y-38000D01*
X51463Y-37374D02*
X50825Y-37374D01*
X52627Y-36210D02*
X51463Y-37374D01*
X46721Y-37478D02*
X46200Y-38000D01*
X47140Y-37478D02*
X46721Y-37478D01*
X47466Y-37152D02*
X47140Y-37478D01*
X47466Y-36616D02*
X47466Y-37152D01*
X48319Y-35763D02*
X47466Y-36616D01*
X51257Y-35763D02*
X48319Y-35763D01*
X51645Y-35375D02*
X51257Y-35763D01*
X51792Y-35375D02*
X51645Y-35375D01*
X63200Y-38000D02*
X64325Y-38000D01*
X52767Y-36357D02*
X52175Y-36950D01*
X52175Y-36950D02*
X52175Y-37125D01*
X52767Y-36349D02*
X52767Y-36357D01*
X52000Y-38600D02*
X52950Y-38600D01*
X51750Y-38350D02*
X52000Y-38600D01*
X44875Y-34000D02*
X44875Y-34375D01*
X44875Y-34375D02*
X44750Y-34500D01*
X62525Y-36950D02*
X62525Y-36725D01*
X62525Y-36725D02*
X62800Y-36450D01*
X65150Y-33850D02*
X64950Y-34050D01*
X65575Y-33850D02*
X65150Y-33850D01*
X64670Y-32700D02*
X64670Y-32690D01*
X72525Y-32200D02*
X72525Y-31955D01*
X72525Y-31955D02*
X72980Y-31500D01*
X51000Y-35175D02*
X50185Y-35175D01*
X50185Y-35175D02*
X49990Y-34980D01*
X55467Y-35507D02*
X55270Y-35310D01*
X55270Y-35310D02*
X53859Y-35310D01*
X53620Y-35550D02*
X53859Y-35310D01*
X55467Y-35507D02*
X55467Y-35514D01*
X68675Y-31450D02*
X68675Y-31685D01*
X68720Y-31730D02*
X68720Y-32180D01*
X68675Y-31685D02*
X68720Y-31730D01*
X71675Y-32200D02*
X71675Y-32825D01*
X71675Y-32825D02*
X72020Y-33170D01*
X73013Y-37900D02*
X73000Y-37900D01*
X72120Y-37460D02*
X71870Y-37210D01*
X72560Y-37460D02*
X72120Y-37460D01*
X73000Y-37900D02*
X72560Y-37460D01*
X73013Y-37900D02*
X73100Y-37900D01*
X73100Y-37900D02*
X73750Y-38550D01*
X68675Y-31450D02*
X68420Y-31450D01*
X68420Y-31450D02*
X68320Y-31350D01*
X63264Y-33815D02*
X63264Y-33835D01*
X63264Y-33835D02*
X62800Y-34300D01*
X67200Y-32500D02*
X66675Y-32500D01*
X66675Y-32500D02*
X66400Y-32225D01*
X66400Y-32225D02*
X65875Y-32225D01*
X65875Y-32225D02*
X65850Y-32200D01*
X65825Y-32225D02*
X65350Y-32225D01*
X65825Y-32225D02*
X65850Y-32200D01*
X67200Y-32500D02*
X67600Y-32500D01*
X70850Y-34470D02*
X70320Y-34470D01*
X69000Y-35050D02*
X68727Y-35050D01*
X69200Y-34850D02*
X69000Y-35050D01*
X69200Y-34450D02*
X69200Y-34850D01*
X69400Y-34250D02*
X69200Y-34450D01*
X70100Y-34250D02*
X69400Y-34250D01*
X70320Y-34470D02*
X70100Y-34250D01*
X50836Y-36319D02*
X50455Y-36319D01*
X50455Y-36319D02*
X50200Y-36575D01*
X68800Y-36325D02*
X69525Y-36325D01*
X69525Y-36325D02*
X69575Y-36375D01*
X54214Y-33232D02*
X54214Y-33235D01*
X53800Y-33650D02*
X53750Y-33650D01*
X54214Y-33235D02*
X53800Y-33650D01*
X51932Y-34485D02*
X51932Y-34482D01*
X51450Y-34000D02*
X51450Y-33850D01*
X51932Y-34482D02*
X51450Y-34000D01*
X47625Y-33200D02*
X47450Y-33200D01*
X47450Y-33200D02*
X46800Y-33850D01*
X64250Y-36000D02*
X63800Y-36450D01*
X64950Y-36000D02*
X64250Y-36000D01*
X55467Y-35517D02*
X55850Y-35900D01*
X55850Y-35900D02*
X56200Y-35900D01*
X55467Y-35517D02*
X55467Y-35514D01*
X72525Y-32200D02*
X71675Y-32200D01*
X68925Y-37900D02*
X68772Y-37900D01*
X68800Y-37872D02*
X68800Y-37075D01*
X68772Y-37900D02*
X68800Y-37872D01*
X68219Y-36900D02*
X68394Y-37075D01*
X67550Y-36900D02*
X68219Y-36900D01*
X68800Y-37075D02*
X68394Y-37075D01*
X66480Y-36900D02*
X67550Y-36900D01*
X65380Y-38000D02*
X66480Y-36900D01*
X65075Y-38000D02*
X65380Y-38000D01*
X48519Y-36900D02*
X48619Y-36800D01*
X47862Y-36900D02*
X48519Y-36900D01*
X48925Y-36800D02*
X48619Y-36800D01*
X72187Y-37900D02*
X71375Y-37900D01*
X70965Y-36871D02*
X73131Y-36871D01*
X70925Y-32200D02*
X70925Y-32605D01*
X70965Y-32645D02*
X70925Y-32605D01*
X70965Y-32804D02*
X70965Y-32645D01*
X70965Y-33328D02*
X70965Y-33066D01*
X70965Y-33066D02*
X70965Y-32804D01*
X73275Y-32660D02*
X73275Y-32200D01*
X73131Y-32804D02*
X73275Y-32660D01*
X73131Y-33328D02*
X73131Y-32804D01*
X73131Y-36871D02*
X73131Y-36347D01*
X72869Y-36085D02*
X73131Y-36347D01*
X72869Y-33590D02*
X72869Y-36085D01*
X71489Y-33590D02*
X72869Y-33590D01*
X70965Y-33066D02*
X71489Y-33590D01*
X72869Y-33590D02*
X73131Y-33328D01*
X70150Y-31725D02*
X70575Y-31725D01*
X70575Y-31725D02*
X70850Y-31450D01*
X69300Y-32000D02*
X69300Y-31575D01*
X69300Y-31575D02*
X69425Y-31450D01*
G54D10*
G36*
X45381Y-37480D02*
X45281Y-37445D01*
X45063Y-37456D01*
X44912Y-37518D01*
X44884Y-37614D01*
X45200Y-37929D01*
X45205Y-37923D01*
X45276Y-37994D01*
X45270Y-38000D01*
X45276Y-38005D01*
X45205Y-38076D01*
X45200Y-38070D01*
X45194Y-38076D01*
X45123Y-38005D01*
X45129Y-38000D01*
X44814Y-37684D01*
X44718Y-37712D01*
X44683Y-37810D01*
X44650Y-37803D01*
X44650Y-37670D01*
X44627Y-37615D01*
X44585Y-37572D01*
X44529Y-37550D01*
X44470Y-37549D01*
X44435Y-37549D01*
X44439Y-37530D01*
X44439Y-37530D01*
X44439Y-36422D01*
X45375Y-37357D01*
X45374Y-37464D01*
X45381Y-37480D01*
X45381Y-37480D01*
G37*
G54D28*
X45381Y-37480D02*
X45281Y-37445D01*
X45063Y-37456D01*
X44912Y-37518D01*
X44884Y-37614D01*
X45200Y-37929D01*
X45205Y-37923D01*
X45276Y-37994D01*
X45270Y-38000D01*
X45276Y-38005D01*
X45205Y-38076D01*
X45200Y-38070D01*
X45194Y-38076D01*
X45123Y-38005D01*
X45129Y-38000D01*
X44814Y-37684D01*
X44718Y-37712D01*
X44683Y-37810D01*
X44650Y-37803D01*
X44650Y-37670D01*
X44627Y-37615D01*
X44585Y-37572D01*
X44529Y-37550D01*
X44470Y-37549D01*
X44435Y-37549D01*
X44439Y-37530D01*
X44439Y-37530D01*
X44439Y-36422D01*
X45375Y-37357D01*
X45374Y-37464D01*
X45381Y-37480D01*
G54D10*
G36*
X45530Y-32400D02*
X45515Y-32423D01*
X45515Y-32423D01*
X45500Y-32500D01*
X45500Y-32574D01*
X45470Y-32574D01*
X45120Y-32574D01*
X45065Y-32597D01*
X45022Y-32639D01*
X45000Y-32695D01*
X44999Y-32754D01*
X44999Y-32800D01*
X44800Y-32800D01*
X44800Y-32695D01*
X44777Y-32640D01*
X44735Y-32597D01*
X44679Y-32575D01*
X44620Y-32574D01*
X44270Y-32574D01*
X44215Y-32597D01*
X44172Y-32639D01*
X44150Y-32695D01*
X44149Y-32754D01*
X44149Y-32844D01*
X44106Y-32815D01*
X44050Y-32803D01*
X44050Y-32695D01*
X44027Y-32640D01*
X43985Y-32597D01*
X43929Y-32575D01*
X43925Y-32575D01*
X43925Y-32557D01*
X44032Y-32450D01*
X44529Y-32450D01*
X44584Y-32427D01*
X44627Y-32385D01*
X44649Y-32329D01*
X44650Y-32270D01*
X44650Y-32014D01*
X44656Y-32136D01*
X44718Y-32287D01*
X44814Y-32315D01*
X45129Y-32000D01*
X45123Y-31994D01*
X45194Y-31923D01*
X45200Y-31929D01*
X45205Y-31923D01*
X45276Y-31994D01*
X45270Y-32000D01*
X45276Y-32005D01*
X45205Y-32076D01*
X45200Y-32070D01*
X44884Y-32385D01*
X44912Y-32481D01*
X45118Y-32554D01*
X45336Y-32543D01*
X45487Y-32481D01*
X45515Y-32385D01*
X45515Y-32385D01*
X45530Y-32400D01*
X45530Y-32400D01*
G37*
G54D28*
X45530Y-32400D02*
X45515Y-32423D01*
X45515Y-32423D01*
X45500Y-32500D01*
X45500Y-32574D01*
X45470Y-32574D01*
X45120Y-32574D01*
X45065Y-32597D01*
X45022Y-32639D01*
X45000Y-32695D01*
X44999Y-32754D01*
X44999Y-32800D01*
X44800Y-32800D01*
X44800Y-32695D01*
X44777Y-32640D01*
X44735Y-32597D01*
X44679Y-32575D01*
X44620Y-32574D01*
X44270Y-32574D01*
X44215Y-32597D01*
X44172Y-32639D01*
X44150Y-32695D01*
X44149Y-32754D01*
X44149Y-32844D01*
X44106Y-32815D01*
X44050Y-32803D01*
X44050Y-32695D01*
X44027Y-32640D01*
X43985Y-32597D01*
X43929Y-32575D01*
X43925Y-32575D01*
X43925Y-32557D01*
X44032Y-32450D01*
X44529Y-32450D01*
X44584Y-32427D01*
X44627Y-32385D01*
X44649Y-32329D01*
X44650Y-32270D01*
X44650Y-32014D01*
X44656Y-32136D01*
X44718Y-32287D01*
X44814Y-32315D01*
X45129Y-32000D01*
X45123Y-31994D01*
X45194Y-31923D01*
X45200Y-31929D01*
X45205Y-31923D01*
X45276Y-31994D01*
X45270Y-32000D01*
X45276Y-32005D01*
X45205Y-32076D01*
X45200Y-32070D01*
X44884Y-32385D01*
X44912Y-32481D01*
X45118Y-32554D01*
X45336Y-32543D01*
X45487Y-32481D01*
X45515Y-32385D01*
X45515Y-32385D01*
X45530Y-32400D01*
G54D10*
G36*
X50894Y-36369D02*
X50886Y-36369D01*
X50886Y-36377D01*
X50786Y-36377D01*
X50786Y-36369D01*
X50374Y-36369D01*
X50311Y-36431D01*
X50311Y-36543D01*
X50343Y-36620D01*
X50340Y-36622D01*
X50065Y-36898D01*
X50055Y-36898D01*
X50000Y-36842D01*
X50000Y-36495D01*
X49977Y-36440D01*
X49935Y-36397D01*
X49879Y-36375D01*
X49820Y-36374D01*
X49470Y-36374D01*
X49415Y-36397D01*
X49372Y-36439D01*
X49350Y-36495D01*
X49349Y-36554D01*
X49349Y-37104D01*
X49372Y-37159D01*
X49414Y-37202D01*
X49470Y-37224D01*
X49529Y-37225D01*
X49738Y-37225D01*
X49659Y-37303D01*
X47696Y-37303D01*
X47619Y-37319D01*
X47554Y-37362D01*
X47344Y-37572D01*
X47333Y-37568D01*
X47608Y-37293D01*
X47613Y-37285D01*
X47656Y-37286D01*
X48128Y-37286D01*
X48183Y-37263D01*
X48226Y-37221D01*
X48248Y-37165D01*
X48249Y-37106D01*
X48249Y-37100D01*
X48519Y-37100D01*
X48596Y-37084D01*
X48599Y-37082D01*
X48599Y-37104D01*
X48622Y-37159D01*
X48664Y-37202D01*
X48720Y-37224D01*
X48779Y-37225D01*
X49129Y-37225D01*
X49184Y-37202D01*
X49227Y-37160D01*
X49249Y-37104D01*
X49250Y-37045D01*
X49250Y-36495D01*
X49227Y-36440D01*
X49185Y-36397D01*
X49129Y-36375D01*
X49070Y-36374D01*
X48720Y-36374D01*
X48665Y-36397D01*
X48622Y-36439D01*
X48600Y-36495D01*
X48599Y-36554D01*
X48599Y-36603D01*
X48556Y-36612D01*
X48543Y-36615D01*
X48478Y-36658D01*
X48437Y-36700D01*
X48249Y-36700D01*
X48249Y-36634D01*
X48226Y-36579D01*
X48184Y-36536D01*
X48128Y-36514D01*
X48069Y-36513D01*
X47851Y-36513D01*
X48402Y-35963D01*
X50388Y-35963D01*
X50349Y-36003D01*
X50311Y-36094D01*
X50311Y-36206D01*
X50374Y-36269D01*
X50786Y-36269D01*
X50786Y-36261D01*
X50886Y-36261D01*
X50886Y-36269D01*
X50894Y-36269D01*
X50894Y-36369D01*
X50894Y-36369D01*
G37*
G54D28*
X50894Y-36369D02*
X50886Y-36369D01*
X50886Y-36377D01*
X50786Y-36377D01*
X50786Y-36369D01*
X50374Y-36369D01*
X50311Y-36431D01*
X50311Y-36543D01*
X50343Y-36620D01*
X50340Y-36622D01*
X50065Y-36898D01*
X50055Y-36898D01*
X50000Y-36842D01*
X50000Y-36495D01*
X49977Y-36440D01*
X49935Y-36397D01*
X49879Y-36375D01*
X49820Y-36374D01*
X49470Y-36374D01*
X49415Y-36397D01*
X49372Y-36439D01*
X49350Y-36495D01*
X49349Y-36554D01*
X49349Y-37104D01*
X49372Y-37159D01*
X49414Y-37202D01*
X49470Y-37224D01*
X49529Y-37225D01*
X49738Y-37225D01*
X49659Y-37303D01*
X47696Y-37303D01*
X47619Y-37319D01*
X47554Y-37362D01*
X47344Y-37572D01*
X47333Y-37568D01*
X47608Y-37293D01*
X47613Y-37285D01*
X47656Y-37286D01*
X48128Y-37286D01*
X48183Y-37263D01*
X48226Y-37221D01*
X48248Y-37165D01*
X48249Y-37106D01*
X48249Y-37100D01*
X48519Y-37100D01*
X48596Y-37084D01*
X48599Y-37082D01*
X48599Y-37104D01*
X48622Y-37159D01*
X48664Y-37202D01*
X48720Y-37224D01*
X48779Y-37225D01*
X49129Y-37225D01*
X49184Y-37202D01*
X49227Y-37160D01*
X49249Y-37104D01*
X49250Y-37045D01*
X49250Y-36495D01*
X49227Y-36440D01*
X49185Y-36397D01*
X49129Y-36375D01*
X49070Y-36374D01*
X48720Y-36374D01*
X48665Y-36397D01*
X48622Y-36439D01*
X48600Y-36495D01*
X48599Y-36554D01*
X48599Y-36603D01*
X48556Y-36612D01*
X48543Y-36615D01*
X48478Y-36658D01*
X48437Y-36700D01*
X48249Y-36700D01*
X48249Y-36634D01*
X48226Y-36579D01*
X48184Y-36536D01*
X48128Y-36514D01*
X48069Y-36513D01*
X47851Y-36513D01*
X48402Y-35963D01*
X50388Y-35963D01*
X50349Y-36003D01*
X50311Y-36094D01*
X50311Y-36206D01*
X50374Y-36269D01*
X50786Y-36269D01*
X50786Y-36261D01*
X50886Y-36261D01*
X50886Y-36269D01*
X50894Y-36269D01*
X50894Y-36369D01*
G54D10*
G36*
X51708Y-34026D02*
X51651Y-34050D01*
X51639Y-34062D01*
X51639Y-34150D01*
X51698Y-34210D01*
X51698Y-34236D01*
X51706Y-34255D01*
X51661Y-34210D01*
X51596Y-34166D01*
X51545Y-34156D01*
X51545Y-34156D01*
X51545Y-34156D01*
X51519Y-34151D01*
X51443Y-34166D01*
X51421Y-34181D01*
X51411Y-34187D01*
X51402Y-34165D01*
X51360Y-34122D01*
X51304Y-34100D01*
X51245Y-34099D01*
X50695Y-34099D01*
X50640Y-34122D01*
X50597Y-34164D01*
X50575Y-34220D01*
X50575Y-34225D01*
X50334Y-34225D01*
X48880Y-32771D01*
X49092Y-32771D01*
X49915Y-33595D01*
X49980Y-33638D01*
X50057Y-33654D01*
X51592Y-33654D01*
X51575Y-33694D01*
X51575Y-33823D01*
X51624Y-33943D01*
X51708Y-34026D01*
X51708Y-34026D01*
G37*
G54D28*
X51708Y-34026D02*
X51651Y-34050D01*
X51639Y-34062D01*
X51639Y-34150D01*
X51698Y-34210D01*
X51698Y-34236D01*
X51706Y-34255D01*
X51661Y-34210D01*
X51596Y-34166D01*
X51545Y-34156D01*
X51545Y-34156D01*
X51545Y-34156D01*
X51519Y-34151D01*
X51443Y-34166D01*
X51421Y-34181D01*
X51411Y-34187D01*
X51402Y-34165D01*
X51360Y-34122D01*
X51304Y-34100D01*
X51245Y-34099D01*
X50695Y-34099D01*
X50640Y-34122D01*
X50597Y-34164D01*
X50575Y-34220D01*
X50575Y-34225D01*
X50334Y-34225D01*
X48880Y-32771D01*
X49092Y-32771D01*
X49915Y-33595D01*
X49980Y-33638D01*
X50057Y-33654D01*
X51592Y-33654D01*
X51575Y-33694D01*
X51575Y-33823D01*
X51624Y-33943D01*
X51708Y-34026D01*
G54D10*
G36*
X51892Y-35006D02*
X51847Y-35025D01*
X51805Y-35067D01*
X51697Y-35175D01*
X51645Y-35175D01*
X51568Y-35190D01*
X51547Y-35205D01*
X51504Y-35234D01*
X51487Y-35250D01*
X51462Y-35225D01*
X51050Y-35225D01*
X51050Y-35232D01*
X50950Y-35232D01*
X50950Y-35225D01*
X50537Y-35225D01*
X50475Y-35287D01*
X50474Y-35399D01*
X50512Y-35491D01*
X50583Y-35561D01*
X50587Y-35563D01*
X48319Y-35563D01*
X48242Y-35579D01*
X48177Y-35622D01*
X47600Y-36200D01*
X47600Y-35845D01*
X47577Y-35790D01*
X47535Y-35747D01*
X47479Y-35725D01*
X47471Y-35725D01*
X47459Y-35668D01*
X47459Y-35668D01*
X47450Y-35653D01*
X47450Y-35653D01*
X47450Y-35082D01*
X47493Y-35064D01*
X47614Y-34943D01*
X47679Y-34785D01*
X47680Y-34614D01*
X47614Y-34456D01*
X47575Y-34416D01*
X47575Y-33662D01*
X47575Y-33250D01*
X47262Y-33250D01*
X47200Y-33312D01*
X47199Y-33425D01*
X47200Y-33524D01*
X47238Y-33616D01*
X47308Y-33687D01*
X47400Y-33725D01*
X47512Y-33725D01*
X47575Y-33662D01*
X47575Y-34416D01*
X47493Y-34335D01*
X47335Y-34270D01*
X47164Y-34269D01*
X47006Y-34335D01*
X46885Y-34456D01*
X46820Y-34614D01*
X46819Y-34785D01*
X46885Y-34943D01*
X47006Y-35064D01*
X47050Y-35082D01*
X47050Y-35719D01*
X47052Y-35732D01*
X47015Y-35747D01*
X46972Y-35789D01*
X46950Y-35845D01*
X46949Y-35874D01*
X46949Y-35825D01*
X46911Y-35733D01*
X46841Y-35662D01*
X46749Y-35624D01*
X46637Y-35625D01*
X46575Y-35687D01*
X46575Y-36100D01*
X46582Y-36100D01*
X46582Y-36200D01*
X46575Y-36200D01*
X46575Y-36556D01*
X46551Y-36614D01*
X46550Y-36713D01*
X46551Y-36787D01*
X46613Y-36850D01*
X46987Y-36850D01*
X46987Y-36842D01*
X47087Y-36842D01*
X47087Y-36850D01*
X47094Y-36850D01*
X47094Y-36950D01*
X47087Y-36950D01*
X47087Y-36957D01*
X46987Y-36957D01*
X46987Y-36950D01*
X46613Y-36950D01*
X46551Y-37012D01*
X46550Y-37086D01*
X46551Y-37185D01*
X46589Y-37277D01*
X46621Y-37309D01*
X46580Y-37337D01*
X46500Y-37417D01*
X46500Y-33225D01*
X46500Y-32774D01*
X46499Y-32675D01*
X46461Y-32583D01*
X46391Y-32512D01*
X46299Y-32474D01*
X46187Y-32475D01*
X46125Y-32537D01*
X46125Y-32950D01*
X46437Y-32950D01*
X46500Y-32887D01*
X46500Y-32774D01*
X46500Y-33225D01*
X46500Y-33112D01*
X46437Y-33050D01*
X46125Y-33050D01*
X46125Y-33462D01*
X46187Y-33525D01*
X46299Y-33525D01*
X46391Y-33487D01*
X46461Y-33416D01*
X46499Y-33324D01*
X46500Y-33225D01*
X46500Y-37417D01*
X46475Y-37442D01*
X46475Y-36612D01*
X46475Y-36200D01*
X46475Y-36100D01*
X46475Y-35687D01*
X46412Y-35625D01*
X46300Y-35624D01*
X46208Y-35662D01*
X46138Y-35733D01*
X46100Y-35825D01*
X46099Y-35924D01*
X46100Y-36037D01*
X46162Y-36100D01*
X46475Y-36100D01*
X46475Y-36200D01*
X46162Y-36200D01*
X46100Y-36262D01*
X46099Y-36375D01*
X46100Y-36474D01*
X46138Y-36566D01*
X46208Y-36637D01*
X46300Y-36675D01*
X46412Y-36675D01*
X46475Y-36612D01*
X46475Y-37442D01*
X46344Y-37572D01*
X46289Y-37550D01*
X46110Y-37549D01*
X45945Y-37618D01*
X45818Y-37744D01*
X45750Y-37910D01*
X45750Y-37986D01*
X45743Y-37863D01*
X45686Y-37724D01*
X45764Y-37725D01*
X45883Y-37675D01*
X45975Y-37584D01*
X46024Y-37464D01*
X46025Y-37335D01*
X45975Y-37216D01*
X45884Y-37124D01*
X45764Y-37075D01*
X45657Y-37074D01*
X44599Y-36016D01*
X44599Y-34504D01*
X44650Y-34525D01*
X44762Y-34525D01*
X44825Y-34462D01*
X44825Y-34050D01*
X44817Y-34050D01*
X44817Y-33950D01*
X44825Y-33950D01*
X44825Y-33537D01*
X44762Y-33475D01*
X44650Y-33474D01*
X44599Y-33495D01*
X44599Y-33425D01*
X44679Y-33425D01*
X44734Y-33402D01*
X44777Y-33360D01*
X44799Y-33304D01*
X44800Y-33245D01*
X44800Y-33200D01*
X44999Y-33200D01*
X44999Y-33304D01*
X45022Y-33359D01*
X45064Y-33402D01*
X45120Y-33424D01*
X45179Y-33425D01*
X45500Y-33425D01*
X45500Y-33467D01*
X45483Y-33483D01*
X45440Y-33548D01*
X45434Y-33574D01*
X45420Y-33574D01*
X45365Y-33597D01*
X45322Y-33639D01*
X45300Y-33695D01*
X45299Y-33724D01*
X45299Y-33675D01*
X45261Y-33583D01*
X45191Y-33512D01*
X45099Y-33474D01*
X44987Y-33475D01*
X44925Y-33537D01*
X44925Y-33950D01*
X44932Y-33950D01*
X44932Y-34050D01*
X44925Y-34050D01*
X44925Y-34462D01*
X44987Y-34525D01*
X45099Y-34525D01*
X45191Y-34487D01*
X45261Y-34416D01*
X45299Y-34324D01*
X45299Y-34304D01*
X45299Y-34304D01*
X45322Y-34359D01*
X45364Y-34402D01*
X45420Y-34424D01*
X45479Y-34425D01*
X45829Y-34425D01*
X45884Y-34402D01*
X45927Y-34360D01*
X45949Y-34304D01*
X45950Y-34245D01*
X45950Y-33695D01*
X45927Y-33640D01*
X45889Y-33602D01*
X45899Y-33550D01*
X45900Y-33550D01*
X45900Y-33525D01*
X45962Y-33525D01*
X46025Y-33462D01*
X46025Y-33050D01*
X46017Y-33050D01*
X46017Y-32950D01*
X46025Y-32950D01*
X46025Y-32537D01*
X45985Y-32497D01*
X46055Y-32427D01*
X46110Y-32449D01*
X46289Y-32450D01*
X46454Y-32381D01*
X46563Y-32273D01*
X47197Y-32907D01*
X47200Y-32909D01*
X47199Y-32974D01*
X47200Y-33087D01*
X47262Y-33150D01*
X47575Y-33150D01*
X47575Y-33142D01*
X47675Y-33142D01*
X47675Y-33150D01*
X47682Y-33150D01*
X47682Y-33250D01*
X47675Y-33250D01*
X47675Y-33662D01*
X47737Y-33725D01*
X47849Y-33725D01*
X47941Y-33687D01*
X48011Y-33616D01*
X48049Y-33524D01*
X48049Y-33504D01*
X48049Y-33504D01*
X48072Y-33559D01*
X48114Y-33602D01*
X48170Y-33624D01*
X48175Y-33624D01*
X48175Y-33825D01*
X48190Y-33901D01*
X48233Y-33966D01*
X48838Y-34570D01*
X48820Y-34614D01*
X48819Y-34785D01*
X48885Y-34943D01*
X49006Y-35064D01*
X49164Y-35129D01*
X49335Y-35130D01*
X49493Y-35064D01*
X49614Y-34943D01*
X49679Y-34785D01*
X49680Y-34614D01*
X49614Y-34456D01*
X49493Y-34335D01*
X49335Y-34270D01*
X49164Y-34269D01*
X49120Y-34288D01*
X48575Y-33742D01*
X48575Y-33625D01*
X48579Y-33625D01*
X48634Y-33602D01*
X48677Y-33560D01*
X48699Y-33504D01*
X48700Y-33445D01*
X48700Y-33156D01*
X50109Y-34566D01*
X50174Y-34609D01*
X50174Y-34609D01*
X50251Y-34625D01*
X50574Y-34625D01*
X50574Y-34629D01*
X50597Y-34684D01*
X50639Y-34727D01*
X50695Y-34749D01*
X50724Y-34750D01*
X50675Y-34750D01*
X50583Y-34788D01*
X50512Y-34858D01*
X50474Y-34950D01*
X50475Y-35062D01*
X50537Y-35125D01*
X50950Y-35125D01*
X50950Y-35117D01*
X51050Y-35117D01*
X51050Y-35125D01*
X51462Y-35125D01*
X51525Y-35062D01*
X51525Y-34950D01*
X51487Y-34858D01*
X51416Y-34788D01*
X51324Y-34750D01*
X51304Y-34750D01*
X51359Y-34727D01*
X51402Y-34685D01*
X51424Y-34629D01*
X51424Y-34625D01*
X51446Y-34625D01*
X51489Y-34616D01*
X51847Y-34974D01*
X51868Y-34983D01*
X51892Y-35006D01*
X51892Y-35006D01*
G37*
G54D28*
X51892Y-35006D02*
X51847Y-35025D01*
X51805Y-35067D01*
X51697Y-35175D01*
X51645Y-35175D01*
X51568Y-35190D01*
X51547Y-35205D01*
X51504Y-35234D01*
X51487Y-35250D01*
X51462Y-35225D01*
X51050Y-35225D01*
X51050Y-35232D01*
X50950Y-35232D01*
X50950Y-35225D01*
X50537Y-35225D01*
X50475Y-35287D01*
X50474Y-35399D01*
X50512Y-35491D01*
X50583Y-35561D01*
X50587Y-35563D01*
X48319Y-35563D01*
X48242Y-35579D01*
X48177Y-35622D01*
X47600Y-36200D01*
X47600Y-35845D01*
X47577Y-35790D01*
X47535Y-35747D01*
X47479Y-35725D01*
X47471Y-35725D01*
X47459Y-35668D01*
X47459Y-35668D01*
X47450Y-35653D01*
X47450Y-35653D01*
X47450Y-35082D01*
X47493Y-35064D01*
X47614Y-34943D01*
X47679Y-34785D01*
X47680Y-34614D01*
X47614Y-34456D01*
X47575Y-34416D01*
X47575Y-33662D01*
X47575Y-33250D01*
X47262Y-33250D01*
X47200Y-33312D01*
X47199Y-33425D01*
X47200Y-33524D01*
X47238Y-33616D01*
X47308Y-33687D01*
X47400Y-33725D01*
X47512Y-33725D01*
X47575Y-33662D01*
X47575Y-34416D01*
X47493Y-34335D01*
X47335Y-34270D01*
X47164Y-34269D01*
X47006Y-34335D01*
X46885Y-34456D01*
X46820Y-34614D01*
X46819Y-34785D01*
X46885Y-34943D01*
X47006Y-35064D01*
X47050Y-35082D01*
X47050Y-35719D01*
X47052Y-35732D01*
X47015Y-35747D01*
X46972Y-35789D01*
X46950Y-35845D01*
X46949Y-35874D01*
X46949Y-35825D01*
X46911Y-35733D01*
X46841Y-35662D01*
X46749Y-35624D01*
X46637Y-35625D01*
X46575Y-35687D01*
X46575Y-36100D01*
X46582Y-36100D01*
X46582Y-36200D01*
X46575Y-36200D01*
X46575Y-36556D01*
X46551Y-36614D01*
X46550Y-36713D01*
X46551Y-36787D01*
X46613Y-36850D01*
X46987Y-36850D01*
X46987Y-36842D01*
X47087Y-36842D01*
X47087Y-36850D01*
X47094Y-36850D01*
X47094Y-36950D01*
X47087Y-36950D01*
X47087Y-36957D01*
X46987Y-36957D01*
X46987Y-36950D01*
X46613Y-36950D01*
X46551Y-37012D01*
X46550Y-37086D01*
X46551Y-37185D01*
X46589Y-37277D01*
X46621Y-37309D01*
X46580Y-37337D01*
X46500Y-37417D01*
X46500Y-33225D01*
X46500Y-32774D01*
X46499Y-32675D01*
X46461Y-32583D01*
X46391Y-32512D01*
X46299Y-32474D01*
X46187Y-32475D01*
X46125Y-32537D01*
X46125Y-32950D01*
X46437Y-32950D01*
X46500Y-32887D01*
X46500Y-32774D01*
X46500Y-33225D01*
X46500Y-33112D01*
X46437Y-33050D01*
X46125Y-33050D01*
X46125Y-33462D01*
X46187Y-33525D01*
X46299Y-33525D01*
X46391Y-33487D01*
X46461Y-33416D01*
X46499Y-33324D01*
X46500Y-33225D01*
X46500Y-37417D01*
X46475Y-37442D01*
X46475Y-36612D01*
X46475Y-36200D01*
X46475Y-36100D01*
X46475Y-35687D01*
X46412Y-35625D01*
X46300Y-35624D01*
X46208Y-35662D01*
X46138Y-35733D01*
X46100Y-35825D01*
X46099Y-35924D01*
X46100Y-36037D01*
X46162Y-36100D01*
X46475Y-36100D01*
X46475Y-36200D01*
X46162Y-36200D01*
X46100Y-36262D01*
X46099Y-36375D01*
X46100Y-36474D01*
X46138Y-36566D01*
X46208Y-36637D01*
X46300Y-36675D01*
X46412Y-36675D01*
X46475Y-36612D01*
X46475Y-37442D01*
X46344Y-37572D01*
X46289Y-37550D01*
X46110Y-37549D01*
X45945Y-37618D01*
X45818Y-37744D01*
X45750Y-37910D01*
X45750Y-37986D01*
X45743Y-37863D01*
X45686Y-37724D01*
X45764Y-37725D01*
X45883Y-37675D01*
X45975Y-37584D01*
X46024Y-37464D01*
X46025Y-37335D01*
X45975Y-37216D01*
X45884Y-37124D01*
X45764Y-37075D01*
X45657Y-37074D01*
X44599Y-36016D01*
X44599Y-34504D01*
X44650Y-34525D01*
X44762Y-34525D01*
X44825Y-34462D01*
X44825Y-34050D01*
X44817Y-34050D01*
X44817Y-33950D01*
X44825Y-33950D01*
X44825Y-33537D01*
X44762Y-33475D01*
X44650Y-33474D01*
X44599Y-33495D01*
X44599Y-33425D01*
X44679Y-33425D01*
X44734Y-33402D01*
X44777Y-33360D01*
X44799Y-33304D01*
X44800Y-33245D01*
X44800Y-33200D01*
X44999Y-33200D01*
X44999Y-33304D01*
X45022Y-33359D01*
X45064Y-33402D01*
X45120Y-33424D01*
X45179Y-33425D01*
X45500Y-33425D01*
X45500Y-33467D01*
X45483Y-33483D01*
X45440Y-33548D01*
X45434Y-33574D01*
X45420Y-33574D01*
X45365Y-33597D01*
X45322Y-33639D01*
X45300Y-33695D01*
X45299Y-33724D01*
X45299Y-33675D01*
X45261Y-33583D01*
X45191Y-33512D01*
X45099Y-33474D01*
X44987Y-33475D01*
X44925Y-33537D01*
X44925Y-33950D01*
X44932Y-33950D01*
X44932Y-34050D01*
X44925Y-34050D01*
X44925Y-34462D01*
X44987Y-34525D01*
X45099Y-34525D01*
X45191Y-34487D01*
X45261Y-34416D01*
X45299Y-34324D01*
X45299Y-34304D01*
X45299Y-34304D01*
X45322Y-34359D01*
X45364Y-34402D01*
X45420Y-34424D01*
X45479Y-34425D01*
X45829Y-34425D01*
X45884Y-34402D01*
X45927Y-34360D01*
X45949Y-34304D01*
X45950Y-34245D01*
X45950Y-33695D01*
X45927Y-33640D01*
X45889Y-33602D01*
X45899Y-33550D01*
X45900Y-33550D01*
X45900Y-33525D01*
X45962Y-33525D01*
X46025Y-33462D01*
X46025Y-33050D01*
X46017Y-33050D01*
X46017Y-32950D01*
X46025Y-32950D01*
X46025Y-32537D01*
X45985Y-32497D01*
X46055Y-32427D01*
X46110Y-32449D01*
X46289Y-32450D01*
X46454Y-32381D01*
X46563Y-32273D01*
X47197Y-32907D01*
X47200Y-32909D01*
X47199Y-32974D01*
X47200Y-33087D01*
X47262Y-33150D01*
X47575Y-33150D01*
X47575Y-33142D01*
X47675Y-33142D01*
X47675Y-33150D01*
X47682Y-33150D01*
X47682Y-33250D01*
X47675Y-33250D01*
X47675Y-33662D01*
X47737Y-33725D01*
X47849Y-33725D01*
X47941Y-33687D01*
X48011Y-33616D01*
X48049Y-33524D01*
X48049Y-33504D01*
X48049Y-33504D01*
X48072Y-33559D01*
X48114Y-33602D01*
X48170Y-33624D01*
X48175Y-33624D01*
X48175Y-33825D01*
X48190Y-33901D01*
X48233Y-33966D01*
X48838Y-34570D01*
X48820Y-34614D01*
X48819Y-34785D01*
X48885Y-34943D01*
X49006Y-35064D01*
X49164Y-35129D01*
X49335Y-35130D01*
X49493Y-35064D01*
X49614Y-34943D01*
X49679Y-34785D01*
X49680Y-34614D01*
X49614Y-34456D01*
X49493Y-34335D01*
X49335Y-34270D01*
X49164Y-34269D01*
X49120Y-34288D01*
X48575Y-33742D01*
X48575Y-33625D01*
X48579Y-33625D01*
X48634Y-33602D01*
X48677Y-33560D01*
X48699Y-33504D01*
X48700Y-33445D01*
X48700Y-33156D01*
X50109Y-34566D01*
X50174Y-34609D01*
X50174Y-34609D01*
X50251Y-34625D01*
X50574Y-34625D01*
X50574Y-34629D01*
X50597Y-34684D01*
X50639Y-34727D01*
X50695Y-34749D01*
X50724Y-34750D01*
X50675Y-34750D01*
X50583Y-34788D01*
X50512Y-34858D01*
X50474Y-34950D01*
X50475Y-35062D01*
X50537Y-35125D01*
X50950Y-35125D01*
X50950Y-35117D01*
X51050Y-35117D01*
X51050Y-35125D01*
X51462Y-35125D01*
X51525Y-35062D01*
X51525Y-34950D01*
X51487Y-34858D01*
X51416Y-34788D01*
X51324Y-34750D01*
X51304Y-34750D01*
X51359Y-34727D01*
X51402Y-34685D01*
X51424Y-34629D01*
X51424Y-34625D01*
X51446Y-34625D01*
X51489Y-34616D01*
X51847Y-34974D01*
X51868Y-34983D01*
X51892Y-35006D01*
G54D10*
G36*
X52571Y-36819D02*
X52420Y-36970D01*
X52420Y-36970D01*
X52358Y-37033D01*
X52315Y-37097D01*
X52300Y-37174D01*
X52300Y-37242D01*
X52292Y-37250D01*
X52000Y-37250D01*
X51923Y-37265D01*
X51858Y-37308D01*
X51583Y-37583D01*
X51540Y-37648D01*
X51531Y-37694D01*
X51455Y-37618D01*
X51349Y-37574D01*
X51463Y-37574D01*
X51540Y-37559D01*
X51605Y-37516D01*
X52411Y-36709D01*
X52444Y-36743D01*
X52474Y-36713D01*
X52474Y-36772D01*
X52486Y-36784D01*
X52571Y-36819D01*
X52571Y-36819D01*
G37*
G54D28*
X52571Y-36819D02*
X52420Y-36970D01*
X52420Y-36970D01*
X52358Y-37033D01*
X52315Y-37097D01*
X52300Y-37174D01*
X52300Y-37242D01*
X52292Y-37250D01*
X52000Y-37250D01*
X51923Y-37265D01*
X51858Y-37308D01*
X51583Y-37583D01*
X51540Y-37648D01*
X51531Y-37694D01*
X51455Y-37618D01*
X51349Y-37574D01*
X51463Y-37574D01*
X51540Y-37559D01*
X51605Y-37516D01*
X52411Y-36709D01*
X52444Y-36743D01*
X52474Y-36713D01*
X52474Y-36772D01*
X52486Y-36784D01*
X52571Y-36819D01*
G54D10*
G36*
X54340Y-35350D02*
X54274Y-35415D01*
X54225Y-35535D01*
X54224Y-35664D01*
X54274Y-35783D01*
X54322Y-35831D01*
X53578Y-36574D01*
X53573Y-36582D01*
X53548Y-36557D01*
X53539Y-36553D01*
X53535Y-36543D01*
X53493Y-36501D01*
X53409Y-36417D01*
X53399Y-36413D01*
X53395Y-36404D01*
X53353Y-36362D01*
X53335Y-36343D01*
X53359Y-36319D01*
X53402Y-36254D01*
X53402Y-36254D01*
X53404Y-36242D01*
X53417Y-36178D01*
X53417Y-36178D01*
X53417Y-35350D01*
X54340Y-35350D01*
X54340Y-35350D01*
G37*
G54D28*
X54340Y-35350D02*
X54274Y-35415D01*
X54225Y-35535D01*
X54224Y-35664D01*
X54274Y-35783D01*
X54322Y-35831D01*
X53578Y-36574D01*
X53573Y-36582D01*
X53548Y-36557D01*
X53539Y-36553D01*
X53535Y-36543D01*
X53493Y-36501D01*
X53409Y-36417D01*
X53399Y-36413D01*
X53395Y-36404D01*
X53353Y-36362D01*
X53335Y-36343D01*
X53359Y-36319D01*
X53402Y-36254D01*
X53402Y-36254D01*
X53404Y-36242D01*
X53417Y-36178D01*
X53417Y-36178D01*
X53417Y-35350D01*
X54340Y-35350D01*
G54D10*
G36*
X55198Y-34789D02*
X54622Y-34789D01*
X54544Y-34711D01*
X54525Y-34666D01*
X54434Y-34574D01*
X54314Y-34525D01*
X54185Y-34524D01*
X54066Y-34574D01*
X54013Y-34627D01*
X54023Y-34603D01*
X54023Y-34474D01*
X53973Y-34354D01*
X53882Y-34263D01*
X53763Y-34213D01*
X53633Y-34213D01*
X53514Y-34262D01*
X53438Y-34338D01*
X53314Y-34338D01*
X53383Y-34269D01*
X53433Y-34149D01*
X53433Y-34020D01*
X53383Y-33900D01*
X53292Y-33809D01*
X53214Y-33776D01*
X53256Y-33735D01*
X53260Y-33725D01*
X53270Y-33721D01*
X53312Y-33679D01*
X53395Y-33595D01*
X53399Y-33586D01*
X53409Y-33582D01*
X53451Y-33540D01*
X53535Y-33456D01*
X53539Y-33446D01*
X53548Y-33442D01*
X53590Y-33400D01*
X53674Y-33317D01*
X53697Y-33262D01*
X53697Y-33202D01*
X53674Y-33147D01*
X53632Y-33105D01*
X53340Y-32813D01*
X53341Y-32812D01*
X53341Y-32812D01*
X53370Y-32769D01*
X53384Y-32747D01*
X53384Y-32747D01*
X53399Y-32671D01*
X53400Y-32671D01*
X53400Y-32404D01*
X53454Y-32381D01*
X53544Y-32291D01*
X53558Y-32312D01*
X54059Y-32813D01*
X53725Y-33147D01*
X53702Y-33202D01*
X53702Y-33261D01*
X53725Y-33317D01*
X53742Y-33333D01*
X53742Y-33421D01*
X53780Y-33513D01*
X53791Y-33524D01*
X53880Y-33524D01*
X53939Y-33465D01*
X53965Y-33465D01*
X53992Y-33454D01*
X53981Y-33480D01*
X53981Y-33507D01*
X53922Y-33566D01*
X53922Y-33655D01*
X53933Y-33666D01*
X54025Y-33704D01*
X54113Y-33705D01*
X54129Y-33721D01*
X54139Y-33725D01*
X54143Y-33734D01*
X54185Y-33777D01*
X54268Y-33860D01*
X54278Y-33864D01*
X54282Y-33874D01*
X54324Y-33916D01*
X54408Y-33999D01*
X54418Y-34004D01*
X54421Y-34013D01*
X54464Y-34055D01*
X54547Y-34139D01*
X54556Y-34143D01*
X54560Y-34152D01*
X54602Y-34194D01*
X54686Y-34277D01*
X54695Y-34281D01*
X54699Y-34291D01*
X54742Y-34333D01*
X54825Y-34417D01*
X54835Y-34421D01*
X54839Y-34430D01*
X54881Y-34473D01*
X54964Y-34556D01*
X54974Y-34560D01*
X54978Y-34570D01*
X55020Y-34612D01*
X55104Y-34695D01*
X55113Y-34699D01*
X55117Y-34709D01*
X55159Y-34751D01*
X55198Y-34789D01*
X55198Y-34789D01*
G37*
G54D28*
X55198Y-34789D02*
X54622Y-34789D01*
X54544Y-34711D01*
X54525Y-34666D01*
X54434Y-34574D01*
X54314Y-34525D01*
X54185Y-34524D01*
X54066Y-34574D01*
X54013Y-34627D01*
X54023Y-34603D01*
X54023Y-34474D01*
X53973Y-34354D01*
X53882Y-34263D01*
X53763Y-34213D01*
X53633Y-34213D01*
X53514Y-34262D01*
X53438Y-34338D01*
X53314Y-34338D01*
X53383Y-34269D01*
X53433Y-34149D01*
X53433Y-34020D01*
X53383Y-33900D01*
X53292Y-33809D01*
X53214Y-33776D01*
X53256Y-33735D01*
X53260Y-33725D01*
X53270Y-33721D01*
X53312Y-33679D01*
X53395Y-33595D01*
X53399Y-33586D01*
X53409Y-33582D01*
X53451Y-33540D01*
X53535Y-33456D01*
X53539Y-33446D01*
X53548Y-33442D01*
X53590Y-33400D01*
X53674Y-33317D01*
X53697Y-33262D01*
X53697Y-33202D01*
X53674Y-33147D01*
X53632Y-33105D01*
X53340Y-32813D01*
X53341Y-32812D01*
X53341Y-32812D01*
X53370Y-32769D01*
X53384Y-32747D01*
X53384Y-32747D01*
X53399Y-32671D01*
X53400Y-32671D01*
X53400Y-32404D01*
X53454Y-32381D01*
X53544Y-32291D01*
X53558Y-32312D01*
X54059Y-32813D01*
X53725Y-33147D01*
X53702Y-33202D01*
X53702Y-33261D01*
X53725Y-33317D01*
X53742Y-33333D01*
X53742Y-33421D01*
X53780Y-33513D01*
X53791Y-33524D01*
X53880Y-33524D01*
X53939Y-33465D01*
X53965Y-33465D01*
X53992Y-33454D01*
X53981Y-33480D01*
X53981Y-33507D01*
X53922Y-33566D01*
X53922Y-33655D01*
X53933Y-33666D01*
X54025Y-33704D01*
X54113Y-33705D01*
X54129Y-33721D01*
X54139Y-33725D01*
X54143Y-33734D01*
X54185Y-33777D01*
X54268Y-33860D01*
X54278Y-33864D01*
X54282Y-33874D01*
X54324Y-33916D01*
X54408Y-33999D01*
X54418Y-34004D01*
X54421Y-34013D01*
X54464Y-34055D01*
X54547Y-34139D01*
X54556Y-34143D01*
X54560Y-34152D01*
X54602Y-34194D01*
X54686Y-34277D01*
X54695Y-34281D01*
X54699Y-34291D01*
X54742Y-34333D01*
X54825Y-34417D01*
X54835Y-34421D01*
X54839Y-34430D01*
X54881Y-34473D01*
X54964Y-34556D01*
X54974Y-34560D01*
X54978Y-34570D01*
X55020Y-34612D01*
X55104Y-34695D01*
X55113Y-34699D01*
X55117Y-34709D01*
X55159Y-34751D01*
X55198Y-34789D01*
G54D10*
G36*
X60277Y-32450D02*
X58854Y-33872D01*
X56909Y-33872D01*
X57352Y-33430D01*
X58057Y-33430D01*
X58133Y-33414D01*
X58198Y-33371D01*
X58330Y-33240D01*
X58330Y-33240D01*
X58359Y-33196D01*
X58373Y-33175D01*
X58373Y-33175D01*
X58379Y-33147D01*
X58526Y-33000D01*
X59399Y-33000D01*
X59476Y-32984D01*
X59541Y-32941D01*
X60055Y-32427D01*
X60110Y-32449D01*
X60277Y-32450D01*
X60277Y-32450D01*
G37*
G54D28*
X60277Y-32450D02*
X58854Y-33872D01*
X56909Y-33872D01*
X57352Y-33430D01*
X58057Y-33430D01*
X58133Y-33414D01*
X58198Y-33371D01*
X58330Y-33240D01*
X58330Y-33240D01*
X58359Y-33196D01*
X58373Y-33175D01*
X58373Y-33175D01*
X58379Y-33147D01*
X58526Y-33000D01*
X59399Y-33000D01*
X59476Y-32984D01*
X59541Y-32941D01*
X60055Y-32427D01*
X60110Y-32449D01*
X60277Y-32450D01*
G54D10*
G36*
X62000Y-32496D02*
X60424Y-34071D01*
X59221Y-34071D01*
X60928Y-32364D01*
X60944Y-32381D01*
X61110Y-32449D01*
X61289Y-32450D01*
X61454Y-32381D01*
X61581Y-32255D01*
X61649Y-32089D01*
X61650Y-31910D01*
X61581Y-31745D01*
X61486Y-31650D01*
X61913Y-31650D01*
X61818Y-31744D01*
X61750Y-31910D01*
X61749Y-32089D01*
X61818Y-32254D01*
X61944Y-32381D01*
X62000Y-32404D01*
X62000Y-32496D01*
X62000Y-32496D01*
G37*
G54D28*
X62000Y-32496D02*
X60424Y-34071D01*
X59221Y-34071D01*
X60928Y-32364D01*
X60944Y-32381D01*
X61110Y-32449D01*
X61289Y-32450D01*
X61454Y-32381D01*
X61581Y-32255D01*
X61649Y-32089D01*
X61650Y-31910D01*
X61581Y-31745D01*
X61486Y-31650D01*
X61913Y-31650D01*
X61818Y-31744D01*
X61750Y-31910D01*
X61749Y-32089D01*
X61818Y-32254D01*
X61944Y-32381D01*
X62000Y-32404D01*
X62000Y-32496D01*
G54D10*
G36*
X64837Y-31650D02*
X63797Y-32689D01*
X62883Y-32689D01*
X62807Y-32705D01*
X62742Y-32748D01*
X60700Y-34789D01*
X57142Y-34789D01*
X57129Y-34777D01*
X60622Y-34777D01*
X60699Y-34761D01*
X60764Y-34718D01*
X63055Y-32427D01*
X63110Y-32449D01*
X63289Y-32450D01*
X63454Y-32381D01*
X63581Y-32255D01*
X63649Y-32089D01*
X63650Y-31910D01*
X63581Y-31745D01*
X63486Y-31650D01*
X64837Y-31650D01*
X64837Y-31650D01*
G37*
G54D28*
X64837Y-31650D02*
X63797Y-32689D01*
X62883Y-32689D01*
X62807Y-32705D01*
X62742Y-32748D01*
X60700Y-34789D01*
X57142Y-34789D01*
X57129Y-34777D01*
X60622Y-34777D01*
X60699Y-34761D01*
X60764Y-34718D01*
X63055Y-32427D01*
X63110Y-32449D01*
X63289Y-32450D01*
X63454Y-32381D01*
X63581Y-32255D01*
X63649Y-32089D01*
X63650Y-31910D01*
X63581Y-31745D01*
X63486Y-31650D01*
X64837Y-31650D01*
G54D10*
G36*
X65045Y-32649D02*
X65045Y-32649D01*
X64990Y-32672D01*
X64947Y-32714D01*
X64925Y-32770D01*
X64924Y-32829D01*
X64924Y-33179D01*
X64933Y-33200D01*
X64932Y-33200D01*
X64641Y-32908D01*
X64576Y-32865D01*
X64500Y-32850D01*
X64202Y-32850D01*
X64825Y-32227D01*
X64825Y-32275D01*
X64887Y-32275D01*
X64825Y-32337D01*
X64824Y-32449D01*
X64862Y-32541D01*
X64933Y-32611D01*
X65025Y-32649D01*
X65045Y-32649D01*
X65045Y-32649D01*
G37*
G54D28*
X65045Y-32649D02*
X65045Y-32649D01*
X64990Y-32672D01*
X64947Y-32714D01*
X64925Y-32770D01*
X64924Y-32829D01*
X64924Y-33179D01*
X64933Y-33200D01*
X64932Y-33200D01*
X64641Y-32908D01*
X64576Y-32865D01*
X64500Y-32850D01*
X64202Y-32850D01*
X64825Y-32227D01*
X64825Y-32275D01*
X64887Y-32275D01*
X64825Y-32337D01*
X64824Y-32449D01*
X64862Y-32541D01*
X64933Y-32611D01*
X65025Y-32649D01*
X65045Y-32649D01*
G54D10*
G36*
X66457Y-32275D02*
X66450Y-32275D01*
X66450Y-32282D01*
X66350Y-32282D01*
X66350Y-32275D01*
X65937Y-32275D01*
X65875Y-32337D01*
X65812Y-32275D01*
X65400Y-32275D01*
X65400Y-32282D01*
X65300Y-32282D01*
X65300Y-32275D01*
X65292Y-32275D01*
X65292Y-32175D01*
X65300Y-32175D01*
X65300Y-32167D01*
X65400Y-32167D01*
X65400Y-32175D01*
X65812Y-32175D01*
X65875Y-32112D01*
X65937Y-32175D01*
X66350Y-32175D01*
X66350Y-32167D01*
X66450Y-32167D01*
X66450Y-32175D01*
X66457Y-32175D01*
X66457Y-32275D01*
X66457Y-32275D01*
G37*
G54D28*
X66457Y-32275D02*
X66450Y-32275D01*
X66450Y-32282D01*
X66350Y-32282D01*
X66350Y-32275D01*
X65937Y-32275D01*
X65875Y-32337D01*
X65812Y-32275D01*
X65400Y-32275D01*
X65400Y-32282D01*
X65300Y-32282D01*
X65300Y-32275D01*
X65292Y-32275D01*
X65292Y-32175D01*
X65300Y-32175D01*
X65300Y-32167D01*
X65400Y-32167D01*
X65400Y-32175D01*
X65812Y-32175D01*
X65875Y-32112D01*
X65937Y-32175D01*
X66350Y-32175D01*
X66350Y-32167D01*
X66450Y-32167D01*
X66450Y-32175D01*
X66457Y-32175D01*
X66457Y-32275D01*
G54D10*
G36*
X66819Y-34900D02*
X65525Y-34900D01*
X65525Y-34312D01*
X65525Y-33900D01*
X65212Y-33900D01*
X65150Y-33962D01*
X65149Y-34075D01*
X65150Y-34174D01*
X65188Y-34266D01*
X65258Y-34337D01*
X65350Y-34375D01*
X65462Y-34375D01*
X65525Y-34312D01*
X65525Y-34900D01*
X63900Y-34900D01*
X63823Y-34915D01*
X63758Y-34958D01*
X63729Y-34987D01*
X63729Y-34692D01*
X63707Y-34636D01*
X63665Y-34594D01*
X63624Y-34577D01*
X63629Y-34577D01*
X63721Y-34539D01*
X63792Y-34469D01*
X63830Y-34377D01*
X63829Y-33928D01*
X63767Y-33865D01*
X63314Y-33865D01*
X63314Y-33873D01*
X63214Y-33873D01*
X63214Y-33865D01*
X62762Y-33865D01*
X62699Y-33928D01*
X62699Y-34377D01*
X62737Y-34469D01*
X62808Y-34539D01*
X62900Y-34577D01*
X62905Y-34577D01*
X62865Y-34594D01*
X62822Y-34636D01*
X62799Y-34691D01*
X62799Y-34751D01*
X62799Y-35300D01*
X60978Y-35300D01*
X60991Y-35291D01*
X62699Y-33582D01*
X62699Y-33703D01*
X62762Y-33765D01*
X63214Y-33765D01*
X63214Y-33757D01*
X63314Y-33757D01*
X63314Y-33765D01*
X63767Y-33765D01*
X63829Y-33703D01*
X63830Y-33254D01*
X63828Y-33250D01*
X64417Y-33250D01*
X64708Y-33541D01*
X64708Y-33541D01*
X64751Y-33570D01*
X64773Y-33584D01*
X64773Y-33584D01*
X64849Y-33599D01*
X64850Y-33600D01*
X65149Y-33600D01*
X65149Y-33624D01*
X65150Y-33737D01*
X65212Y-33800D01*
X65525Y-33800D01*
X65525Y-33792D01*
X65625Y-33792D01*
X65625Y-33800D01*
X65632Y-33800D01*
X65632Y-33900D01*
X65625Y-33900D01*
X65625Y-34312D01*
X65687Y-34375D01*
X65799Y-34375D01*
X65891Y-34337D01*
X65961Y-34266D01*
X65999Y-34174D01*
X65999Y-34154D01*
X65999Y-34154D01*
X66022Y-34209D01*
X66064Y-34252D01*
X66120Y-34274D01*
X66179Y-34275D01*
X66529Y-34275D01*
X66584Y-34252D01*
X66590Y-34246D01*
X66819Y-34475D01*
X66819Y-34900D01*
X66819Y-34900D01*
G37*
G54D28*
X66819Y-34900D02*
X65525Y-34900D01*
X65525Y-34312D01*
X65525Y-33900D01*
X65212Y-33900D01*
X65150Y-33962D01*
X65149Y-34075D01*
X65150Y-34174D01*
X65188Y-34266D01*
X65258Y-34337D01*
X65350Y-34375D01*
X65462Y-34375D01*
X65525Y-34312D01*
X65525Y-34900D01*
X63900Y-34900D01*
X63823Y-34915D01*
X63758Y-34958D01*
X63729Y-34987D01*
X63729Y-34692D01*
X63707Y-34636D01*
X63665Y-34594D01*
X63624Y-34577D01*
X63629Y-34577D01*
X63721Y-34539D01*
X63792Y-34469D01*
X63830Y-34377D01*
X63829Y-33928D01*
X63767Y-33865D01*
X63314Y-33865D01*
X63314Y-33873D01*
X63214Y-33873D01*
X63214Y-33865D01*
X62762Y-33865D01*
X62699Y-33928D01*
X62699Y-34377D01*
X62737Y-34469D01*
X62808Y-34539D01*
X62900Y-34577D01*
X62905Y-34577D01*
X62865Y-34594D01*
X62822Y-34636D01*
X62799Y-34691D01*
X62799Y-34751D01*
X62799Y-35300D01*
X60978Y-35300D01*
X60991Y-35291D01*
X62699Y-33582D01*
X62699Y-33703D01*
X62762Y-33765D01*
X63214Y-33765D01*
X63214Y-33757D01*
X63314Y-33757D01*
X63314Y-33765D01*
X63767Y-33765D01*
X63829Y-33703D01*
X63830Y-33254D01*
X63828Y-33250D01*
X64417Y-33250D01*
X64708Y-33541D01*
X64708Y-33541D01*
X64751Y-33570D01*
X64773Y-33584D01*
X64773Y-33584D01*
X64849Y-33599D01*
X64850Y-33600D01*
X65149Y-33600D01*
X65149Y-33624D01*
X65150Y-33737D01*
X65212Y-33800D01*
X65525Y-33800D01*
X65525Y-33792D01*
X65625Y-33792D01*
X65625Y-33800D01*
X65632Y-33800D01*
X65632Y-33900D01*
X65625Y-33900D01*
X65625Y-34312D01*
X65687Y-34375D01*
X65799Y-34375D01*
X65891Y-34337D01*
X65961Y-34266D01*
X65999Y-34174D01*
X65999Y-34154D01*
X65999Y-34154D01*
X66022Y-34209D01*
X66064Y-34252D01*
X66120Y-34274D01*
X66179Y-34275D01*
X66529Y-34275D01*
X66584Y-34252D01*
X66590Y-34246D01*
X66819Y-34475D01*
X66819Y-34900D01*
G54D10*
G36*
X68000Y-33337D02*
X67625Y-32962D01*
X67625Y-32852D01*
X67616Y-32830D01*
X67617Y-32829D01*
X67687Y-32759D01*
X67725Y-32667D01*
X67725Y-32612D01*
X67663Y-32550D01*
X67250Y-32550D01*
X67250Y-32557D01*
X67150Y-32557D01*
X67150Y-32550D01*
X67142Y-32550D01*
X67142Y-32450D01*
X67150Y-32450D01*
X67150Y-32442D01*
X67250Y-32442D01*
X67250Y-32450D01*
X67663Y-32450D01*
X67725Y-32387D01*
X67725Y-32332D01*
X67687Y-32240D01*
X67617Y-32170D01*
X67616Y-32169D01*
X67625Y-32147D01*
X67625Y-32088D01*
X67625Y-31852D01*
X67602Y-31797D01*
X67560Y-31754D01*
X67505Y-31732D01*
X67445Y-31731D01*
X67214Y-31731D01*
X67132Y-31650D01*
X67690Y-31650D01*
X68000Y-31959D01*
X68000Y-33337D01*
X68000Y-33337D01*
G37*
G54D28*
X68000Y-33337D02*
X67625Y-32962D01*
X67625Y-32852D01*
X67616Y-32830D01*
X67617Y-32829D01*
X67687Y-32759D01*
X67725Y-32667D01*
X67725Y-32612D01*
X67663Y-32550D01*
X67250Y-32550D01*
X67250Y-32557D01*
X67150Y-32557D01*
X67150Y-32550D01*
X67142Y-32550D01*
X67142Y-32450D01*
X67150Y-32450D01*
X67150Y-32442D01*
X67250Y-32442D01*
X67250Y-32450D01*
X67663Y-32450D01*
X67725Y-32387D01*
X67725Y-32332D01*
X67687Y-32240D01*
X67617Y-32170D01*
X67616Y-32169D01*
X67625Y-32147D01*
X67625Y-32088D01*
X67625Y-31852D01*
X67602Y-31797D01*
X67560Y-31754D01*
X67505Y-31732D01*
X67445Y-31731D01*
X67214Y-31731D01*
X67132Y-31650D01*
X67690Y-31650D01*
X68000Y-31959D01*
X68000Y-33337D01*
G54D10*
G36*
X68785Y-35100D02*
X68777Y-35100D01*
X68777Y-35107D01*
X68677Y-35107D01*
X68677Y-35100D01*
X68669Y-35100D01*
X68669Y-35000D01*
X68677Y-35000D01*
X68677Y-34992D01*
X68777Y-34992D01*
X68777Y-35000D01*
X68785Y-35000D01*
X68785Y-35100D01*
X68785Y-35100D01*
G37*
G54D28*
X68785Y-35100D02*
X68777Y-35100D01*
X68777Y-35107D01*
X68677Y-35107D01*
X68677Y-35100D01*
X68669Y-35100D01*
X68669Y-35000D01*
X68677Y-35000D01*
X68677Y-34992D01*
X68777Y-34992D01*
X68777Y-35000D01*
X68785Y-35000D01*
X68785Y-35100D01*
G54D10*
G36*
X70325Y-38262D02*
X70324Y-38304D01*
X70324Y-38720D01*
X69325Y-38720D01*
X69325Y-36549D01*
X69325Y-36437D01*
X69262Y-36375D01*
X68850Y-36375D01*
X68850Y-36382D01*
X68750Y-36382D01*
X68750Y-36375D01*
X68750Y-36275D01*
X68750Y-35962D01*
X68687Y-35900D01*
X68574Y-35899D01*
X68475Y-35900D01*
X68383Y-35938D01*
X68312Y-36008D01*
X68274Y-36100D01*
X68275Y-36212D01*
X68337Y-36275D01*
X68750Y-36275D01*
X68750Y-36375D01*
X68337Y-36375D01*
X68275Y-36437D01*
X68274Y-36549D01*
X68312Y-36641D01*
X68383Y-36711D01*
X68475Y-36749D01*
X68495Y-36749D01*
X68495Y-36749D01*
X68440Y-36772D01*
X68407Y-36805D01*
X68361Y-36758D01*
X68296Y-36715D01*
X68219Y-36700D01*
X68200Y-36700D01*
X68200Y-36249D01*
X68200Y-35750D01*
X68162Y-35658D01*
X68091Y-35588D01*
X67999Y-35550D01*
X67900Y-35549D01*
X67662Y-35550D01*
X67600Y-35612D01*
X67600Y-35950D01*
X68137Y-35950D01*
X68200Y-35887D01*
X68200Y-35750D01*
X68200Y-36249D01*
X68200Y-36112D01*
X68137Y-36050D01*
X67600Y-36050D01*
X67600Y-36387D01*
X67662Y-36450D01*
X67900Y-36450D01*
X67999Y-36449D01*
X68091Y-36411D01*
X68162Y-36341D01*
X68200Y-36249D01*
X68200Y-36700D01*
X68100Y-36700D01*
X68100Y-36670D01*
X68077Y-36615D01*
X68035Y-36572D01*
X67979Y-36550D01*
X67920Y-36549D01*
X67500Y-36549D01*
X67500Y-36387D01*
X67500Y-36050D01*
X67500Y-35950D01*
X67500Y-35612D01*
X67437Y-35550D01*
X67199Y-35549D01*
X67100Y-35550D01*
X67008Y-35588D01*
X66937Y-35658D01*
X66899Y-35750D01*
X66900Y-35887D01*
X66962Y-35950D01*
X67500Y-35950D01*
X67500Y-36050D01*
X66962Y-36050D01*
X66900Y-36112D01*
X66899Y-36249D01*
X66937Y-36341D01*
X67008Y-36411D01*
X67100Y-36449D01*
X67199Y-36450D01*
X67437Y-36450D01*
X67500Y-36387D01*
X67500Y-36549D01*
X67120Y-36549D01*
X67065Y-36572D01*
X67022Y-36614D01*
X67000Y-36670D01*
X66999Y-36700D01*
X66480Y-36700D01*
X66403Y-36715D01*
X66382Y-36729D01*
X66338Y-36758D01*
X65600Y-37497D01*
X65600Y-36769D01*
X65600Y-36112D01*
X65537Y-36050D01*
X65000Y-36050D01*
X65000Y-36907D01*
X65062Y-36970D01*
X65300Y-36970D01*
X65399Y-36969D01*
X65491Y-36931D01*
X65562Y-36861D01*
X65600Y-36769D01*
X65600Y-37497D01*
X65400Y-37697D01*
X65400Y-37695D01*
X65377Y-37640D01*
X65335Y-37597D01*
X65279Y-37575D01*
X65220Y-37574D01*
X64900Y-37574D01*
X64900Y-36907D01*
X64900Y-36050D01*
X64362Y-36050D01*
X64300Y-36112D01*
X64299Y-36769D01*
X64337Y-36861D01*
X64408Y-36931D01*
X64500Y-36969D01*
X64599Y-36970D01*
X64837Y-36970D01*
X64900Y-36907D01*
X64900Y-37574D01*
X64870Y-37574D01*
X64815Y-37597D01*
X64772Y-37639D01*
X64750Y-37695D01*
X64749Y-37754D01*
X64749Y-38304D01*
X64772Y-38359D01*
X64814Y-38402D01*
X64870Y-38424D01*
X64929Y-38425D01*
X65279Y-38425D01*
X65334Y-38402D01*
X65377Y-38360D01*
X65399Y-38304D01*
X65400Y-38245D01*
X65400Y-38196D01*
X65456Y-38184D01*
X65521Y-38141D01*
X66562Y-37100D01*
X66999Y-37100D01*
X66999Y-37129D01*
X67022Y-37184D01*
X67064Y-37227D01*
X67120Y-37249D01*
X67179Y-37250D01*
X67979Y-37250D01*
X68034Y-37227D01*
X68077Y-37185D01*
X68099Y-37129D01*
X68100Y-37100D01*
X68137Y-37100D01*
X68253Y-37216D01*
X68253Y-37216D01*
X68296Y-37245D01*
X68318Y-37259D01*
X68318Y-37259D01*
X68374Y-37271D01*
X68374Y-37279D01*
X68397Y-37334D01*
X68439Y-37377D01*
X68495Y-37399D01*
X68554Y-37400D01*
X68600Y-37400D01*
X68600Y-37624D01*
X68599Y-37654D01*
X68599Y-37805D01*
X68587Y-37823D01*
X68572Y-37900D01*
X68587Y-37976D01*
X68599Y-37994D01*
X68599Y-38204D01*
X68622Y-38259D01*
X68664Y-38302D01*
X68720Y-38324D01*
X68779Y-38325D01*
X69129Y-38325D01*
X69184Y-38302D01*
X69227Y-38260D01*
X69249Y-38204D01*
X69250Y-38145D01*
X69250Y-37595D01*
X69227Y-37540D01*
X69185Y-37497D01*
X69129Y-37475D01*
X69070Y-37474D01*
X69000Y-37474D01*
X69000Y-37400D01*
X69104Y-37400D01*
X69159Y-37377D01*
X69202Y-37335D01*
X69224Y-37279D01*
X69225Y-37220D01*
X69225Y-36870D01*
X69202Y-36815D01*
X69160Y-36772D01*
X69104Y-36750D01*
X69075Y-36749D01*
X69124Y-36749D01*
X69216Y-36711D01*
X69287Y-36641D01*
X69325Y-36549D01*
X69325Y-38720D01*
X67925Y-38720D01*
X67925Y-38034D01*
X67925Y-38000D01*
X67925Y-37965D01*
X67925Y-37964D01*
X67925Y-37964D01*
X67925Y-37964D01*
X67888Y-37773D01*
X67861Y-37709D01*
X67860Y-37708D01*
X67753Y-37547D01*
X67752Y-37546D01*
X67703Y-37496D01*
X67541Y-37389D01*
X67540Y-37388D01*
X67476Y-37361D01*
X67284Y-37323D01*
X67214Y-37323D01*
X67214Y-37324D01*
X67023Y-37361D01*
X66959Y-37388D01*
X66958Y-37389D01*
X66797Y-37496D01*
X66796Y-37497D01*
X66746Y-37546D01*
X66639Y-37708D01*
X66638Y-37709D01*
X66611Y-37773D01*
X66573Y-37965D01*
X66573Y-38000D01*
X66573Y-38034D01*
X66611Y-38226D01*
X66638Y-38290D01*
X66639Y-38291D01*
X66746Y-38453D01*
X66796Y-38502D01*
X66797Y-38503D01*
X66958Y-38610D01*
X66959Y-38611D01*
X67023Y-38638D01*
X67214Y-38675D01*
X67214Y-38676D01*
X67284Y-38676D01*
X67476Y-38638D01*
X67540Y-38611D01*
X67541Y-38610D01*
X67703Y-38503D01*
X67752Y-38453D01*
X67753Y-38452D01*
X67860Y-38291D01*
X67861Y-38290D01*
X67888Y-38226D01*
X67925Y-38035D01*
X67925Y-38035D01*
X67925Y-38035D01*
X67925Y-38034D01*
X67925Y-38720D01*
X64650Y-38720D01*
X64650Y-38245D01*
X64650Y-37695D01*
X64627Y-37640D01*
X64585Y-37597D01*
X64529Y-37575D01*
X64470Y-37574D01*
X64120Y-37574D01*
X64065Y-37597D01*
X64022Y-37639D01*
X64000Y-37695D01*
X63999Y-37754D01*
X63999Y-37800D01*
X63604Y-37800D01*
X63581Y-37745D01*
X63455Y-37618D01*
X63289Y-37550D01*
X63110Y-37549D01*
X62950Y-37616D01*
X62950Y-37175D01*
X62950Y-36724D01*
X62949Y-36625D01*
X62911Y-36533D01*
X62841Y-36462D01*
X62749Y-36424D01*
X62637Y-36425D01*
X62575Y-36487D01*
X62575Y-36900D01*
X62887Y-36900D01*
X62950Y-36837D01*
X62950Y-36724D01*
X62950Y-37175D01*
X62950Y-37062D01*
X62887Y-37000D01*
X62575Y-37000D01*
X62575Y-37412D01*
X62637Y-37475D01*
X62749Y-37475D01*
X62841Y-37437D01*
X62911Y-37366D01*
X62949Y-37274D01*
X62950Y-37175D01*
X62950Y-37616D01*
X62945Y-37618D01*
X62818Y-37744D01*
X62750Y-37910D01*
X62749Y-38089D01*
X62818Y-38254D01*
X62944Y-38381D01*
X63110Y-38449D01*
X63289Y-38450D01*
X63454Y-38381D01*
X63581Y-38255D01*
X63604Y-38200D01*
X63999Y-38200D01*
X63999Y-38304D01*
X64022Y-38359D01*
X64064Y-38402D01*
X64120Y-38424D01*
X64179Y-38425D01*
X64529Y-38425D01*
X64584Y-38402D01*
X64627Y-38360D01*
X64649Y-38304D01*
X64650Y-38245D01*
X64650Y-38720D01*
X62650Y-38720D01*
X62650Y-37910D01*
X62581Y-37745D01*
X62455Y-37618D01*
X62289Y-37550D01*
X62110Y-37549D01*
X61945Y-37618D01*
X61818Y-37744D01*
X61750Y-37910D01*
X61749Y-38089D01*
X61818Y-38254D01*
X61944Y-38381D01*
X62110Y-38449D01*
X62289Y-38450D01*
X62454Y-38381D01*
X62581Y-38255D01*
X62649Y-38089D01*
X62650Y-37910D01*
X62650Y-38720D01*
X43279Y-38720D01*
X43279Y-31279D01*
X55637Y-31279D01*
X55344Y-31572D01*
X55289Y-31550D01*
X55110Y-31549D01*
X54945Y-31618D01*
X54818Y-31744D01*
X54750Y-31910D01*
X54749Y-32089D01*
X54818Y-32254D01*
X54944Y-32381D01*
X55000Y-32404D01*
X55000Y-32721D01*
X54792Y-32928D01*
X54792Y-32392D01*
X54792Y-32392D01*
X54777Y-32316D01*
X54777Y-32316D01*
X54763Y-32294D01*
X54734Y-32251D01*
X54734Y-32251D01*
X54627Y-32144D01*
X54649Y-32089D01*
X54650Y-31910D01*
X54581Y-31745D01*
X54455Y-31618D01*
X54289Y-31550D01*
X54110Y-31549D01*
X53945Y-31618D01*
X53844Y-31719D01*
X53841Y-31715D01*
X53841Y-31715D01*
X53538Y-31412D01*
X53473Y-31369D01*
X53397Y-31353D01*
X47037Y-31353D01*
X44646Y-31353D01*
X44569Y-31369D01*
X44547Y-31383D01*
X44504Y-31412D01*
X44367Y-31549D01*
X43870Y-31549D01*
X43815Y-31572D01*
X43772Y-31614D01*
X43750Y-31670D01*
X43749Y-31729D01*
X43749Y-32167D01*
X43583Y-32333D01*
X43540Y-32398D01*
X43525Y-32475D01*
X43525Y-32574D01*
X43520Y-32574D01*
X43465Y-32597D01*
X43422Y-32639D01*
X43400Y-32695D01*
X43399Y-32754D01*
X43399Y-33304D01*
X43422Y-33359D01*
X43464Y-33402D01*
X43520Y-33424D01*
X43579Y-33425D01*
X43874Y-33425D01*
X43888Y-33446D01*
X44039Y-33597D01*
X44039Y-37456D01*
X44015Y-37493D01*
X44003Y-37549D01*
X43870Y-37549D01*
X43815Y-37572D01*
X43772Y-37614D01*
X43750Y-37670D01*
X43749Y-37729D01*
X43749Y-38329D01*
X43772Y-38384D01*
X43814Y-38427D01*
X43870Y-38449D01*
X43929Y-38450D01*
X44529Y-38450D01*
X44584Y-38427D01*
X44627Y-38385D01*
X44642Y-38348D01*
X44864Y-38571D01*
X44929Y-38614D01*
X44929Y-38614D01*
X44942Y-38617D01*
X45006Y-38630D01*
X49389Y-38630D01*
X49466Y-38614D01*
X49530Y-38571D01*
X49833Y-38269D01*
X49944Y-38381D01*
X50110Y-38449D01*
X50289Y-38450D01*
X50454Y-38381D01*
X50581Y-38255D01*
X50649Y-38089D01*
X50650Y-37910D01*
X50627Y-37855D01*
X50908Y-37574D01*
X51051Y-37574D01*
X50945Y-37618D01*
X50818Y-37744D01*
X50750Y-37910D01*
X50749Y-38089D01*
X50818Y-38254D01*
X50944Y-38381D01*
X51110Y-38449D01*
X51289Y-38450D01*
X51454Y-38381D01*
X51581Y-38255D01*
X51609Y-38188D01*
X51626Y-38184D01*
X51691Y-38141D01*
X51749Y-38082D01*
X51749Y-38089D01*
X51818Y-38254D01*
X51944Y-38381D01*
X52110Y-38449D01*
X52289Y-38450D01*
X52454Y-38381D01*
X52581Y-38255D01*
X52649Y-38089D01*
X52649Y-38057D01*
X52750Y-37957D01*
X52749Y-38089D01*
X52818Y-38254D01*
X52944Y-38381D01*
X53110Y-38449D01*
X53289Y-38450D01*
X53454Y-38381D01*
X53573Y-38262D01*
X53578Y-38269D01*
X53893Y-38584D01*
X53958Y-38628D01*
X53958Y-38628D01*
X53971Y-38630D01*
X54034Y-38643D01*
X58756Y-38643D01*
X58833Y-38628D01*
X58898Y-38584D01*
X59055Y-38427D01*
X59110Y-38449D01*
X59289Y-38450D01*
X59454Y-38381D01*
X59581Y-38255D01*
X59649Y-38089D01*
X59650Y-37910D01*
X59581Y-37745D01*
X59455Y-37618D01*
X59289Y-37550D01*
X59110Y-37549D01*
X58945Y-37618D01*
X58818Y-37744D01*
X58750Y-37910D01*
X58749Y-38089D01*
X58772Y-38144D01*
X58673Y-38243D01*
X58586Y-38243D01*
X58649Y-38089D01*
X58650Y-37910D01*
X58581Y-37745D01*
X58455Y-37618D01*
X58289Y-37550D01*
X58110Y-37549D01*
X58055Y-37572D01*
X57723Y-37240D01*
X59158Y-37240D01*
X59772Y-37855D01*
X59750Y-37910D01*
X59749Y-38089D01*
X59818Y-38254D01*
X59944Y-38381D01*
X60110Y-38449D01*
X60289Y-38450D01*
X60454Y-38381D01*
X60581Y-38255D01*
X60649Y-38089D01*
X60650Y-37910D01*
X60581Y-37745D01*
X60455Y-37618D01*
X60289Y-37550D01*
X60110Y-37549D01*
X60055Y-37572D01*
X59446Y-36963D01*
X59880Y-36963D01*
X60772Y-37855D01*
X60750Y-37910D01*
X60749Y-38089D01*
X60818Y-38254D01*
X60944Y-38381D01*
X61110Y-38449D01*
X61289Y-38450D01*
X61454Y-38381D01*
X61581Y-38255D01*
X61649Y-38089D01*
X61650Y-37910D01*
X61581Y-37745D01*
X61455Y-37618D01*
X61289Y-37550D01*
X61110Y-37549D01*
X61055Y-37572D01*
X60104Y-36621D01*
X60039Y-36578D01*
X59963Y-36563D01*
X56852Y-36563D01*
X56900Y-36448D01*
X56900Y-36319D01*
X56850Y-36199D01*
X56759Y-36108D01*
X56640Y-36058D01*
X56510Y-36058D01*
X56391Y-36108D01*
X56315Y-36183D01*
X56141Y-36183D01*
X55827Y-35870D01*
X55860Y-35837D01*
X55831Y-35807D01*
X55890Y-35807D01*
X55902Y-35795D01*
X55940Y-35703D01*
X55940Y-35700D01*
X62515Y-35700D01*
X61690Y-36524D01*
X61570Y-36524D01*
X61515Y-36547D01*
X61472Y-36589D01*
X61450Y-36645D01*
X61449Y-36704D01*
X61449Y-37254D01*
X61472Y-37309D01*
X61514Y-37352D01*
X61570Y-37374D01*
X61629Y-37375D01*
X61979Y-37375D01*
X62034Y-37352D01*
X62077Y-37310D01*
X62099Y-37254D01*
X62100Y-37225D01*
X62100Y-37274D01*
X62138Y-37366D01*
X62208Y-37437D01*
X62300Y-37475D01*
X62412Y-37475D01*
X62475Y-37412D01*
X62475Y-37000D01*
X62467Y-37000D01*
X62467Y-36900D01*
X62475Y-36900D01*
X62475Y-36487D01*
X62412Y-36425D01*
X62356Y-36424D01*
X62895Y-35885D01*
X62919Y-35895D01*
X62979Y-35895D01*
X63609Y-35895D01*
X63664Y-35873D01*
X63707Y-35830D01*
X63729Y-35775D01*
X63729Y-35716D01*
X63729Y-35433D01*
X63766Y-35433D01*
X63842Y-35418D01*
X63907Y-35375D01*
X63982Y-35300D01*
X64299Y-35300D01*
X64300Y-35887D01*
X64362Y-35950D01*
X64900Y-35950D01*
X64900Y-35942D01*
X65000Y-35942D01*
X65000Y-35950D01*
X65537Y-35950D01*
X65600Y-35887D01*
X65600Y-35300D01*
X66999Y-35300D01*
X66999Y-35329D01*
X67022Y-35384D01*
X67064Y-35427D01*
X67120Y-35449D01*
X67179Y-35450D01*
X67979Y-35450D01*
X68034Y-35427D01*
X68077Y-35385D01*
X68084Y-35367D01*
X68282Y-35565D01*
X68282Y-35565D01*
X68325Y-35594D01*
X68347Y-35608D01*
X68347Y-35608D01*
X68391Y-35617D01*
X68391Y-35617D01*
X68403Y-35646D01*
X68445Y-35688D01*
X68500Y-35711D01*
X68560Y-35711D01*
X68954Y-35711D01*
X69000Y-35692D01*
X69000Y-35750D01*
X69015Y-35826D01*
X69058Y-35891D01*
X69067Y-35899D01*
X69025Y-35899D01*
X68912Y-35900D01*
X68850Y-35962D01*
X68850Y-36275D01*
X69262Y-36275D01*
X69325Y-36212D01*
X69325Y-36100D01*
X69322Y-36094D01*
X69350Y-36100D01*
X70019Y-36100D01*
X70019Y-37700D01*
X70000Y-37700D01*
X70000Y-37595D01*
X69977Y-37540D01*
X69935Y-37497D01*
X69879Y-37475D01*
X69820Y-37474D01*
X69470Y-37474D01*
X69415Y-37497D01*
X69372Y-37539D01*
X69350Y-37595D01*
X69349Y-37654D01*
X69349Y-38204D01*
X69372Y-38259D01*
X69414Y-38302D01*
X69470Y-38324D01*
X69529Y-38325D01*
X69879Y-38325D01*
X69934Y-38302D01*
X69977Y-38260D01*
X69999Y-38204D01*
X70000Y-38145D01*
X70000Y-38100D01*
X70119Y-38100D01*
X70196Y-38084D01*
X70219Y-38069D01*
X70219Y-38069D01*
X70243Y-38084D01*
X70243Y-38084D01*
X70256Y-38087D01*
X70299Y-38096D01*
X70299Y-38204D01*
X70322Y-38259D01*
X70325Y-38262D01*
X70325Y-38262D01*
G37*
G54D28*
X70325Y-38262D02*
X70324Y-38304D01*
X70324Y-38720D01*
X69325Y-38720D01*
X69325Y-36549D01*
X69325Y-36437D01*
X69262Y-36375D01*
X68850Y-36375D01*
X68850Y-36382D01*
X68750Y-36382D01*
X68750Y-36375D01*
X68750Y-36275D01*
X68750Y-35962D01*
X68687Y-35900D01*
X68574Y-35899D01*
X68475Y-35900D01*
X68383Y-35938D01*
X68312Y-36008D01*
X68274Y-36100D01*
X68275Y-36212D01*
X68337Y-36275D01*
X68750Y-36275D01*
X68750Y-36375D01*
X68337Y-36375D01*
X68275Y-36437D01*
X68274Y-36549D01*
X68312Y-36641D01*
X68383Y-36711D01*
X68475Y-36749D01*
X68495Y-36749D01*
X68495Y-36749D01*
X68440Y-36772D01*
X68407Y-36805D01*
X68361Y-36758D01*
X68296Y-36715D01*
X68219Y-36700D01*
X68200Y-36700D01*
X68200Y-36249D01*
X68200Y-35750D01*
X68162Y-35658D01*
X68091Y-35588D01*
X67999Y-35550D01*
X67900Y-35549D01*
X67662Y-35550D01*
X67600Y-35612D01*
X67600Y-35950D01*
X68137Y-35950D01*
X68200Y-35887D01*
X68200Y-35750D01*
X68200Y-36249D01*
X68200Y-36112D01*
X68137Y-36050D01*
X67600Y-36050D01*
X67600Y-36387D01*
X67662Y-36450D01*
X67900Y-36450D01*
X67999Y-36449D01*
X68091Y-36411D01*
X68162Y-36341D01*
X68200Y-36249D01*
X68200Y-36700D01*
X68100Y-36700D01*
X68100Y-36670D01*
X68077Y-36615D01*
X68035Y-36572D01*
X67979Y-36550D01*
X67920Y-36549D01*
X67500Y-36549D01*
X67500Y-36387D01*
X67500Y-36050D01*
X67500Y-35950D01*
X67500Y-35612D01*
X67437Y-35550D01*
X67199Y-35549D01*
X67100Y-35550D01*
X67008Y-35588D01*
X66937Y-35658D01*
X66899Y-35750D01*
X66900Y-35887D01*
X66962Y-35950D01*
X67500Y-35950D01*
X67500Y-36050D01*
X66962Y-36050D01*
X66900Y-36112D01*
X66899Y-36249D01*
X66937Y-36341D01*
X67008Y-36411D01*
X67100Y-36449D01*
X67199Y-36450D01*
X67437Y-36450D01*
X67500Y-36387D01*
X67500Y-36549D01*
X67120Y-36549D01*
X67065Y-36572D01*
X67022Y-36614D01*
X67000Y-36670D01*
X66999Y-36700D01*
X66480Y-36700D01*
X66403Y-36715D01*
X66382Y-36729D01*
X66338Y-36758D01*
X65600Y-37497D01*
X65600Y-36769D01*
X65600Y-36112D01*
X65537Y-36050D01*
X65000Y-36050D01*
X65000Y-36907D01*
X65062Y-36970D01*
X65300Y-36970D01*
X65399Y-36969D01*
X65491Y-36931D01*
X65562Y-36861D01*
X65600Y-36769D01*
X65600Y-37497D01*
X65400Y-37697D01*
X65400Y-37695D01*
X65377Y-37640D01*
X65335Y-37597D01*
X65279Y-37575D01*
X65220Y-37574D01*
X64900Y-37574D01*
X64900Y-36907D01*
X64900Y-36050D01*
X64362Y-36050D01*
X64300Y-36112D01*
X64299Y-36769D01*
X64337Y-36861D01*
X64408Y-36931D01*
X64500Y-36969D01*
X64599Y-36970D01*
X64837Y-36970D01*
X64900Y-36907D01*
X64900Y-37574D01*
X64870Y-37574D01*
X64815Y-37597D01*
X64772Y-37639D01*
X64750Y-37695D01*
X64749Y-37754D01*
X64749Y-38304D01*
X64772Y-38359D01*
X64814Y-38402D01*
X64870Y-38424D01*
X64929Y-38425D01*
X65279Y-38425D01*
X65334Y-38402D01*
X65377Y-38360D01*
X65399Y-38304D01*
X65400Y-38245D01*
X65400Y-38196D01*
X65456Y-38184D01*
X65521Y-38141D01*
X66562Y-37100D01*
X66999Y-37100D01*
X66999Y-37129D01*
X67022Y-37184D01*
X67064Y-37227D01*
X67120Y-37249D01*
X67179Y-37250D01*
X67979Y-37250D01*
X68034Y-37227D01*
X68077Y-37185D01*
X68099Y-37129D01*
X68100Y-37100D01*
X68137Y-37100D01*
X68253Y-37216D01*
X68253Y-37216D01*
X68296Y-37245D01*
X68318Y-37259D01*
X68318Y-37259D01*
X68374Y-37271D01*
X68374Y-37279D01*
X68397Y-37334D01*
X68439Y-37377D01*
X68495Y-37399D01*
X68554Y-37400D01*
X68600Y-37400D01*
X68600Y-37624D01*
X68599Y-37654D01*
X68599Y-37805D01*
X68587Y-37823D01*
X68572Y-37900D01*
X68587Y-37976D01*
X68599Y-37994D01*
X68599Y-38204D01*
X68622Y-38259D01*
X68664Y-38302D01*
X68720Y-38324D01*
X68779Y-38325D01*
X69129Y-38325D01*
X69184Y-38302D01*
X69227Y-38260D01*
X69249Y-38204D01*
X69250Y-38145D01*
X69250Y-37595D01*
X69227Y-37540D01*
X69185Y-37497D01*
X69129Y-37475D01*
X69070Y-37474D01*
X69000Y-37474D01*
X69000Y-37400D01*
X69104Y-37400D01*
X69159Y-37377D01*
X69202Y-37335D01*
X69224Y-37279D01*
X69225Y-37220D01*
X69225Y-36870D01*
X69202Y-36815D01*
X69160Y-36772D01*
X69104Y-36750D01*
X69075Y-36749D01*
X69124Y-36749D01*
X69216Y-36711D01*
X69287Y-36641D01*
X69325Y-36549D01*
X69325Y-38720D01*
X67925Y-38720D01*
X67925Y-38034D01*
X67925Y-38000D01*
X67925Y-37965D01*
X67925Y-37964D01*
X67925Y-37964D01*
X67925Y-37964D01*
X67888Y-37773D01*
X67861Y-37709D01*
X67860Y-37708D01*
X67753Y-37547D01*
X67752Y-37546D01*
X67703Y-37496D01*
X67541Y-37389D01*
X67540Y-37388D01*
X67476Y-37361D01*
X67284Y-37323D01*
X67214Y-37323D01*
X67214Y-37324D01*
X67023Y-37361D01*
X66959Y-37388D01*
X66958Y-37389D01*
X66797Y-37496D01*
X66796Y-37497D01*
X66746Y-37546D01*
X66639Y-37708D01*
X66638Y-37709D01*
X66611Y-37773D01*
X66573Y-37965D01*
X66573Y-38000D01*
X66573Y-38034D01*
X66611Y-38226D01*
X66638Y-38290D01*
X66639Y-38291D01*
X66746Y-38453D01*
X66796Y-38502D01*
X66797Y-38503D01*
X66958Y-38610D01*
X66959Y-38611D01*
X67023Y-38638D01*
X67214Y-38675D01*
X67214Y-38676D01*
X67284Y-38676D01*
X67476Y-38638D01*
X67540Y-38611D01*
X67541Y-38610D01*
X67703Y-38503D01*
X67752Y-38453D01*
X67753Y-38452D01*
X67860Y-38291D01*
X67861Y-38290D01*
X67888Y-38226D01*
X67925Y-38035D01*
X67925Y-38035D01*
X67925Y-38035D01*
X67925Y-38034D01*
X67925Y-38720D01*
X64650Y-38720D01*
X64650Y-38245D01*
X64650Y-37695D01*
X64627Y-37640D01*
X64585Y-37597D01*
X64529Y-37575D01*
X64470Y-37574D01*
X64120Y-37574D01*
X64065Y-37597D01*
X64022Y-37639D01*
X64000Y-37695D01*
X63999Y-37754D01*
X63999Y-37800D01*
X63604Y-37800D01*
X63581Y-37745D01*
X63455Y-37618D01*
X63289Y-37550D01*
X63110Y-37549D01*
X62950Y-37616D01*
X62950Y-37175D01*
X62950Y-36724D01*
X62949Y-36625D01*
X62911Y-36533D01*
X62841Y-36462D01*
X62749Y-36424D01*
X62637Y-36425D01*
X62575Y-36487D01*
X62575Y-36900D01*
X62887Y-36900D01*
X62950Y-36837D01*
X62950Y-36724D01*
X62950Y-37175D01*
X62950Y-37062D01*
X62887Y-37000D01*
X62575Y-37000D01*
X62575Y-37412D01*
X62637Y-37475D01*
X62749Y-37475D01*
X62841Y-37437D01*
X62911Y-37366D01*
X62949Y-37274D01*
X62950Y-37175D01*
X62950Y-37616D01*
X62945Y-37618D01*
X62818Y-37744D01*
X62750Y-37910D01*
X62749Y-38089D01*
X62818Y-38254D01*
X62944Y-38381D01*
X63110Y-38449D01*
X63289Y-38450D01*
X63454Y-38381D01*
X63581Y-38255D01*
X63604Y-38200D01*
X63999Y-38200D01*
X63999Y-38304D01*
X64022Y-38359D01*
X64064Y-38402D01*
X64120Y-38424D01*
X64179Y-38425D01*
X64529Y-38425D01*
X64584Y-38402D01*
X64627Y-38360D01*
X64649Y-38304D01*
X64650Y-38245D01*
X64650Y-38720D01*
X62650Y-38720D01*
X62650Y-37910D01*
X62581Y-37745D01*
X62455Y-37618D01*
X62289Y-37550D01*
X62110Y-37549D01*
X61945Y-37618D01*
X61818Y-37744D01*
X61750Y-37910D01*
X61749Y-38089D01*
X61818Y-38254D01*
X61944Y-38381D01*
X62110Y-38449D01*
X62289Y-38450D01*
X62454Y-38381D01*
X62581Y-38255D01*
X62649Y-38089D01*
X62650Y-37910D01*
X62650Y-38720D01*
X43279Y-38720D01*
X43279Y-31279D01*
X55637Y-31279D01*
X55344Y-31572D01*
X55289Y-31550D01*
X55110Y-31549D01*
X54945Y-31618D01*
X54818Y-31744D01*
X54750Y-31910D01*
X54749Y-32089D01*
X54818Y-32254D01*
X54944Y-32381D01*
X55000Y-32404D01*
X55000Y-32721D01*
X54792Y-32928D01*
X54792Y-32392D01*
X54792Y-32392D01*
X54777Y-32316D01*
X54777Y-32316D01*
X54763Y-32294D01*
X54734Y-32251D01*
X54734Y-32251D01*
X54627Y-32144D01*
X54649Y-32089D01*
X54650Y-31910D01*
X54581Y-31745D01*
X54455Y-31618D01*
X54289Y-31550D01*
X54110Y-31549D01*
X53945Y-31618D01*
X53844Y-31719D01*
X53841Y-31715D01*
X53841Y-31715D01*
X53538Y-31412D01*
X53473Y-31369D01*
X53397Y-31353D01*
X47037Y-31353D01*
X44646Y-31353D01*
X44569Y-31369D01*
X44547Y-31383D01*
X44504Y-31412D01*
X44367Y-31549D01*
X43870Y-31549D01*
X43815Y-31572D01*
X43772Y-31614D01*
X43750Y-31670D01*
X43749Y-31729D01*
X43749Y-32167D01*
X43583Y-32333D01*
X43540Y-32398D01*
X43525Y-32475D01*
X43525Y-32574D01*
X43520Y-32574D01*
X43465Y-32597D01*
X43422Y-32639D01*
X43400Y-32695D01*
X43399Y-32754D01*
X43399Y-33304D01*
X43422Y-33359D01*
X43464Y-33402D01*
X43520Y-33424D01*
X43579Y-33425D01*
X43874Y-33425D01*
X43888Y-33446D01*
X44039Y-33597D01*
X44039Y-37456D01*
X44015Y-37493D01*
X44003Y-37549D01*
X43870Y-37549D01*
X43815Y-37572D01*
X43772Y-37614D01*
X43750Y-37670D01*
X43749Y-37729D01*
X43749Y-38329D01*
X43772Y-38384D01*
X43814Y-38427D01*
X43870Y-38449D01*
X43929Y-38450D01*
X44529Y-38450D01*
X44584Y-38427D01*
X44627Y-38385D01*
X44642Y-38348D01*
X44864Y-38571D01*
X44929Y-38614D01*
X44929Y-38614D01*
X44942Y-38617D01*
X45006Y-38630D01*
X49389Y-38630D01*
X49466Y-38614D01*
X49530Y-38571D01*
X49833Y-38269D01*
X49944Y-38381D01*
X50110Y-38449D01*
X50289Y-38450D01*
X50454Y-38381D01*
X50581Y-38255D01*
X50649Y-38089D01*
X50650Y-37910D01*
X50627Y-37855D01*
X50908Y-37574D01*
X51051Y-37574D01*
X50945Y-37618D01*
X50818Y-37744D01*
X50750Y-37910D01*
X50749Y-38089D01*
X50818Y-38254D01*
X50944Y-38381D01*
X51110Y-38449D01*
X51289Y-38450D01*
X51454Y-38381D01*
X51581Y-38255D01*
X51609Y-38188D01*
X51626Y-38184D01*
X51691Y-38141D01*
X51749Y-38082D01*
X51749Y-38089D01*
X51818Y-38254D01*
X51944Y-38381D01*
X52110Y-38449D01*
X52289Y-38450D01*
X52454Y-38381D01*
X52581Y-38255D01*
X52649Y-38089D01*
X52649Y-38057D01*
X52750Y-37957D01*
X52749Y-38089D01*
X52818Y-38254D01*
X52944Y-38381D01*
X53110Y-38449D01*
X53289Y-38450D01*
X53454Y-38381D01*
X53573Y-38262D01*
X53578Y-38269D01*
X53893Y-38584D01*
X53958Y-38628D01*
X53958Y-38628D01*
X53971Y-38630D01*
X54034Y-38643D01*
X58756Y-38643D01*
X58833Y-38628D01*
X58898Y-38584D01*
X59055Y-38427D01*
X59110Y-38449D01*
X59289Y-38450D01*
X59454Y-38381D01*
X59581Y-38255D01*
X59649Y-38089D01*
X59650Y-37910D01*
X59581Y-37745D01*
X59455Y-37618D01*
X59289Y-37550D01*
X59110Y-37549D01*
X58945Y-37618D01*
X58818Y-37744D01*
X58750Y-37910D01*
X58749Y-38089D01*
X58772Y-38144D01*
X58673Y-38243D01*
X58586Y-38243D01*
X58649Y-38089D01*
X58650Y-37910D01*
X58581Y-37745D01*
X58455Y-37618D01*
X58289Y-37550D01*
X58110Y-37549D01*
X58055Y-37572D01*
X57723Y-37240D01*
X59158Y-37240D01*
X59772Y-37855D01*
X59750Y-37910D01*
X59749Y-38089D01*
X59818Y-38254D01*
X59944Y-38381D01*
X60110Y-38449D01*
X60289Y-38450D01*
X60454Y-38381D01*
X60581Y-38255D01*
X60649Y-38089D01*
X60650Y-37910D01*
X60581Y-37745D01*
X60455Y-37618D01*
X60289Y-37550D01*
X60110Y-37549D01*
X60055Y-37572D01*
X59446Y-36963D01*
X59880Y-36963D01*
X60772Y-37855D01*
X60750Y-37910D01*
X60749Y-38089D01*
X60818Y-38254D01*
X60944Y-38381D01*
X61110Y-38449D01*
X61289Y-38450D01*
X61454Y-38381D01*
X61581Y-38255D01*
X61649Y-38089D01*
X61650Y-37910D01*
X61581Y-37745D01*
X61455Y-37618D01*
X61289Y-37550D01*
X61110Y-37549D01*
X61055Y-37572D01*
X60104Y-36621D01*
X60039Y-36578D01*
X59963Y-36563D01*
X56852Y-36563D01*
X56900Y-36448D01*
X56900Y-36319D01*
X56850Y-36199D01*
X56759Y-36108D01*
X56640Y-36058D01*
X56510Y-36058D01*
X56391Y-36108D01*
X56315Y-36183D01*
X56141Y-36183D01*
X55827Y-35870D01*
X55860Y-35837D01*
X55831Y-35807D01*
X55890Y-35807D01*
X55902Y-35795D01*
X55940Y-35703D01*
X55940Y-35700D01*
X62515Y-35700D01*
X61690Y-36524D01*
X61570Y-36524D01*
X61515Y-36547D01*
X61472Y-36589D01*
X61450Y-36645D01*
X61449Y-36704D01*
X61449Y-37254D01*
X61472Y-37309D01*
X61514Y-37352D01*
X61570Y-37374D01*
X61629Y-37375D01*
X61979Y-37375D01*
X62034Y-37352D01*
X62077Y-37310D01*
X62099Y-37254D01*
X62100Y-37225D01*
X62100Y-37274D01*
X62138Y-37366D01*
X62208Y-37437D01*
X62300Y-37475D01*
X62412Y-37475D01*
X62475Y-37412D01*
X62475Y-37000D01*
X62467Y-37000D01*
X62467Y-36900D01*
X62475Y-36900D01*
X62475Y-36487D01*
X62412Y-36425D01*
X62356Y-36424D01*
X62895Y-35885D01*
X62919Y-35895D01*
X62979Y-35895D01*
X63609Y-35895D01*
X63664Y-35873D01*
X63707Y-35830D01*
X63729Y-35775D01*
X63729Y-35716D01*
X63729Y-35433D01*
X63766Y-35433D01*
X63842Y-35418D01*
X63907Y-35375D01*
X63982Y-35300D01*
X64299Y-35300D01*
X64300Y-35887D01*
X64362Y-35950D01*
X64900Y-35950D01*
X64900Y-35942D01*
X65000Y-35942D01*
X65000Y-35950D01*
X65537Y-35950D01*
X65600Y-35887D01*
X65600Y-35300D01*
X66999Y-35300D01*
X66999Y-35329D01*
X67022Y-35384D01*
X67064Y-35427D01*
X67120Y-35449D01*
X67179Y-35450D01*
X67979Y-35450D01*
X68034Y-35427D01*
X68077Y-35385D01*
X68084Y-35367D01*
X68282Y-35565D01*
X68282Y-35565D01*
X68325Y-35594D01*
X68347Y-35608D01*
X68347Y-35608D01*
X68391Y-35617D01*
X68391Y-35617D01*
X68403Y-35646D01*
X68445Y-35688D01*
X68500Y-35711D01*
X68560Y-35711D01*
X68954Y-35711D01*
X69000Y-35692D01*
X69000Y-35750D01*
X69015Y-35826D01*
X69058Y-35891D01*
X69067Y-35899D01*
X69025Y-35899D01*
X68912Y-35900D01*
X68850Y-35962D01*
X68850Y-36275D01*
X69262Y-36275D01*
X69325Y-36212D01*
X69325Y-36100D01*
X69322Y-36094D01*
X69350Y-36100D01*
X70019Y-36100D01*
X70019Y-37700D01*
X70000Y-37700D01*
X70000Y-37595D01*
X69977Y-37540D01*
X69935Y-37497D01*
X69879Y-37475D01*
X69820Y-37474D01*
X69470Y-37474D01*
X69415Y-37497D01*
X69372Y-37539D01*
X69350Y-37595D01*
X69349Y-37654D01*
X69349Y-38204D01*
X69372Y-38259D01*
X69414Y-38302D01*
X69470Y-38324D01*
X69529Y-38325D01*
X69879Y-38325D01*
X69934Y-38302D01*
X69977Y-38260D01*
X69999Y-38204D01*
X70000Y-38145D01*
X70000Y-38100D01*
X70119Y-38100D01*
X70196Y-38084D01*
X70219Y-38069D01*
X70219Y-38069D01*
X70243Y-38084D01*
X70243Y-38084D01*
X70256Y-38087D01*
X70299Y-38096D01*
X70299Y-38204D01*
X70322Y-38259D01*
X70325Y-38262D01*
G54D10*
G36*
X72724Y-37415D02*
X72635Y-37451D01*
X72565Y-37522D01*
X72544Y-37572D01*
X72508Y-37536D01*
X72452Y-37514D01*
X72393Y-37513D01*
X71921Y-37513D01*
X71866Y-37536D01*
X71823Y-37578D01*
X71801Y-37634D01*
X71800Y-37693D01*
X71800Y-37700D01*
X71700Y-37700D01*
X71700Y-37595D01*
X71677Y-37540D01*
X71635Y-37497D01*
X71579Y-37475D01*
X71520Y-37474D01*
X71170Y-37474D01*
X71115Y-37497D01*
X71072Y-37539D01*
X71050Y-37595D01*
X71049Y-37654D01*
X71049Y-38125D01*
X70995Y-38124D01*
X70950Y-38124D01*
X70950Y-37595D01*
X70927Y-37540D01*
X70885Y-37497D01*
X70829Y-37475D01*
X70770Y-37474D01*
X70420Y-37474D01*
X70419Y-37475D01*
X70419Y-37415D01*
X70445Y-37415D01*
X71545Y-37415D01*
X71600Y-37392D01*
X71642Y-37350D01*
X71665Y-37295D01*
X71665Y-37235D01*
X71665Y-37071D01*
X72431Y-37071D01*
X72431Y-37295D01*
X72453Y-37350D01*
X72496Y-37392D01*
X72551Y-37415D01*
X72610Y-37415D01*
X72724Y-37415D01*
X72724Y-37415D01*
G37*
G54D28*
X72724Y-37415D02*
X72635Y-37451D01*
X72565Y-37522D01*
X72544Y-37572D01*
X72508Y-37536D01*
X72452Y-37514D01*
X72393Y-37513D01*
X71921Y-37513D01*
X71866Y-37536D01*
X71823Y-37578D01*
X71801Y-37634D01*
X71800Y-37693D01*
X71800Y-37700D01*
X71700Y-37700D01*
X71700Y-37595D01*
X71677Y-37540D01*
X71635Y-37497D01*
X71579Y-37475D01*
X71520Y-37474D01*
X71170Y-37474D01*
X71115Y-37497D01*
X71072Y-37539D01*
X71050Y-37595D01*
X71049Y-37654D01*
X71049Y-38125D01*
X70995Y-38124D01*
X70950Y-38124D01*
X70950Y-37595D01*
X70927Y-37540D01*
X70885Y-37497D01*
X70829Y-37475D01*
X70770Y-37474D01*
X70420Y-37474D01*
X70419Y-37475D01*
X70419Y-37415D01*
X70445Y-37415D01*
X71545Y-37415D01*
X71600Y-37392D01*
X71642Y-37350D01*
X71665Y-37295D01*
X71665Y-37235D01*
X71665Y-37071D01*
X72431Y-37071D01*
X72431Y-37295D01*
X72453Y-37350D01*
X72496Y-37392D01*
X72551Y-37415D01*
X72610Y-37415D01*
X72724Y-37415D01*
G54D10*
G36*
X72828Y-36327D02*
X72551Y-36327D01*
X72496Y-36350D01*
X72454Y-36392D01*
X72431Y-36447D01*
X72431Y-36507D01*
X72431Y-36671D01*
X72300Y-36671D01*
X72300Y-35880D01*
X72300Y-34180D01*
X72246Y-34052D01*
X72148Y-33953D01*
X72019Y-33900D01*
X71880Y-33899D01*
X71752Y-33953D01*
X71653Y-34051D01*
X71600Y-34180D01*
X71599Y-34319D01*
X71653Y-34448D01*
X71751Y-34546D01*
X71880Y-34599D01*
X72019Y-34600D01*
X72148Y-34546D01*
X72246Y-34448D01*
X72299Y-34319D01*
X72300Y-34180D01*
X72300Y-35880D01*
X72246Y-35752D01*
X72148Y-35653D01*
X72019Y-35600D01*
X71880Y-35599D01*
X71752Y-35653D01*
X71653Y-35751D01*
X71600Y-35880D01*
X71599Y-36019D01*
X71653Y-36148D01*
X71751Y-36246D01*
X71880Y-36299D01*
X72019Y-36300D01*
X72148Y-36246D01*
X72246Y-36148D01*
X72299Y-36019D01*
X72300Y-35880D01*
X72300Y-36671D01*
X71665Y-36671D01*
X71665Y-36448D01*
X71642Y-36393D01*
X71600Y-36350D01*
X71545Y-36327D01*
X71486Y-36327D01*
X70419Y-36327D01*
X70419Y-35979D01*
X71379Y-35979D01*
X71434Y-35957D01*
X71477Y-35915D01*
X71499Y-35859D01*
X71500Y-35800D01*
X71500Y-35600D01*
X71488Y-35572D01*
X71499Y-35544D01*
X71500Y-35485D01*
X71500Y-35285D01*
X71488Y-35257D01*
X71499Y-35229D01*
X71500Y-35170D01*
X71500Y-34970D01*
X71488Y-34942D01*
X71499Y-34915D01*
X71500Y-34855D01*
X71500Y-34773D01*
X71562Y-34711D01*
X71600Y-34619D01*
X71600Y-34320D01*
X71562Y-34228D01*
X71491Y-34158D01*
X71399Y-34120D01*
X71300Y-34120D01*
X70962Y-34120D01*
X70900Y-34182D01*
X70900Y-34420D01*
X71537Y-34420D01*
X71600Y-34357D01*
X71600Y-34320D01*
X71600Y-34619D01*
X71600Y-34582D01*
X71537Y-34520D01*
X70900Y-34520D01*
X70900Y-34527D01*
X70800Y-34527D01*
X70800Y-34520D01*
X70800Y-34420D01*
X70800Y-34182D01*
X70737Y-34120D01*
X70399Y-34120D01*
X70300Y-34120D01*
X70208Y-34158D01*
X70137Y-34228D01*
X70099Y-34320D01*
X70100Y-34357D01*
X70162Y-34420D01*
X70800Y-34420D01*
X70800Y-34520D01*
X70162Y-34520D01*
X70155Y-34526D01*
X70102Y-34491D01*
X70025Y-34475D01*
X70005Y-34475D01*
X69996Y-34453D01*
X69954Y-34411D01*
X69899Y-34388D01*
X69839Y-34388D01*
X69445Y-34388D01*
X69390Y-34410D01*
X69348Y-34453D01*
X69325Y-34508D01*
X69325Y-34567D01*
X69325Y-34843D01*
X69329Y-34853D01*
X69286Y-34862D01*
X69273Y-34865D01*
X69208Y-34908D01*
X69117Y-34999D01*
X69111Y-34999D01*
X69174Y-34937D01*
X69174Y-34862D01*
X69136Y-34770D01*
X69074Y-34708D01*
X69074Y-34508D01*
X69051Y-34453D01*
X69009Y-34411D01*
X68954Y-34388D01*
X68894Y-34388D01*
X68870Y-34388D01*
X68868Y-34386D01*
X68868Y-34386D01*
X68600Y-34117D01*
X68600Y-31937D01*
X68625Y-31912D01*
X68625Y-31500D01*
X68617Y-31500D01*
X68617Y-31400D01*
X68625Y-31400D01*
X68625Y-31392D01*
X68725Y-31392D01*
X68725Y-31400D01*
X68732Y-31400D01*
X68732Y-31500D01*
X68725Y-31500D01*
X68725Y-31912D01*
X68787Y-31975D01*
X68874Y-31975D01*
X68874Y-32147D01*
X68897Y-32202D01*
X68939Y-32245D01*
X68951Y-32249D01*
X68939Y-32254D01*
X68897Y-32296D01*
X68874Y-32352D01*
X68874Y-32411D01*
X68874Y-32647D01*
X68897Y-32702D01*
X68939Y-32745D01*
X68951Y-32749D01*
X68939Y-32754D01*
X68897Y-32796D01*
X68874Y-32852D01*
X68874Y-32911D01*
X68874Y-33147D01*
X68897Y-33202D01*
X68939Y-33245D01*
X68951Y-33249D01*
X68939Y-33254D01*
X68897Y-33296D01*
X68874Y-33352D01*
X68874Y-33411D01*
X68874Y-33647D01*
X68897Y-33702D01*
X68939Y-33745D01*
X68994Y-33767D01*
X69054Y-33768D01*
X69605Y-33768D01*
X69660Y-33745D01*
X69702Y-33703D01*
X69725Y-33647D01*
X69725Y-33588D01*
X69725Y-33352D01*
X69707Y-33309D01*
X69745Y-33324D01*
X69874Y-33325D01*
X69993Y-33275D01*
X70085Y-33184D01*
X70134Y-33064D01*
X70135Y-32935D01*
X70085Y-32816D01*
X70069Y-32800D01*
X70266Y-32800D01*
X70284Y-32843D01*
X70289Y-32848D01*
X70288Y-32849D01*
X70265Y-32904D01*
X70265Y-32964D01*
X70265Y-33751D01*
X70288Y-33806D01*
X70330Y-33849D01*
X70385Y-33872D01*
X70445Y-33872D01*
X71545Y-33872D01*
X71600Y-33849D01*
X71642Y-33807D01*
X71649Y-33790D01*
X72446Y-33790D01*
X72453Y-33806D01*
X72496Y-33849D01*
X72551Y-33872D01*
X72610Y-33872D01*
X72669Y-33872D01*
X72669Y-36085D01*
X72684Y-36162D01*
X72727Y-36227D01*
X72828Y-36327D01*
X72828Y-36327D01*
G37*
G54D28*
X72828Y-36327D02*
X72551Y-36327D01*
X72496Y-36350D01*
X72454Y-36392D01*
X72431Y-36447D01*
X72431Y-36507D01*
X72431Y-36671D01*
X72300Y-36671D01*
X72300Y-35880D01*
X72300Y-34180D01*
X72246Y-34052D01*
X72148Y-33953D01*
X72019Y-33900D01*
X71880Y-33899D01*
X71752Y-33953D01*
X71653Y-34051D01*
X71600Y-34180D01*
X71599Y-34319D01*
X71653Y-34448D01*
X71751Y-34546D01*
X71880Y-34599D01*
X72019Y-34600D01*
X72148Y-34546D01*
X72246Y-34448D01*
X72299Y-34319D01*
X72300Y-34180D01*
X72300Y-35880D01*
X72246Y-35752D01*
X72148Y-35653D01*
X72019Y-35600D01*
X71880Y-35599D01*
X71752Y-35653D01*
X71653Y-35751D01*
X71600Y-35880D01*
X71599Y-36019D01*
X71653Y-36148D01*
X71751Y-36246D01*
X71880Y-36299D01*
X72019Y-36300D01*
X72148Y-36246D01*
X72246Y-36148D01*
X72299Y-36019D01*
X72300Y-35880D01*
X72300Y-36671D01*
X71665Y-36671D01*
X71665Y-36448D01*
X71642Y-36393D01*
X71600Y-36350D01*
X71545Y-36327D01*
X71486Y-36327D01*
X70419Y-36327D01*
X70419Y-35979D01*
X71379Y-35979D01*
X71434Y-35957D01*
X71477Y-35915D01*
X71499Y-35859D01*
X71500Y-35800D01*
X71500Y-35600D01*
X71488Y-35572D01*
X71499Y-35544D01*
X71500Y-35485D01*
X71500Y-35285D01*
X71488Y-35257D01*
X71499Y-35229D01*
X71500Y-35170D01*
X71500Y-34970D01*
X71488Y-34942D01*
X71499Y-34915D01*
X71500Y-34855D01*
X71500Y-34773D01*
X71562Y-34711D01*
X71600Y-34619D01*
X71600Y-34320D01*
X71562Y-34228D01*
X71491Y-34158D01*
X71399Y-34120D01*
X71300Y-34120D01*
X70962Y-34120D01*
X70900Y-34182D01*
X70900Y-34420D01*
X71537Y-34420D01*
X71600Y-34357D01*
X71600Y-34320D01*
X71600Y-34619D01*
X71600Y-34582D01*
X71537Y-34520D01*
X70900Y-34520D01*
X70900Y-34527D01*
X70800Y-34527D01*
X70800Y-34520D01*
X70800Y-34420D01*
X70800Y-34182D01*
X70737Y-34120D01*
X70399Y-34120D01*
X70300Y-34120D01*
X70208Y-34158D01*
X70137Y-34228D01*
X70099Y-34320D01*
X70100Y-34357D01*
X70162Y-34420D01*
X70800Y-34420D01*
X70800Y-34520D01*
X70162Y-34520D01*
X70155Y-34526D01*
X70102Y-34491D01*
X70025Y-34475D01*
X70005Y-34475D01*
X69996Y-34453D01*
X69954Y-34411D01*
X69899Y-34388D01*
X69839Y-34388D01*
X69445Y-34388D01*
X69390Y-34410D01*
X69348Y-34453D01*
X69325Y-34508D01*
X69325Y-34567D01*
X69325Y-34843D01*
X69329Y-34853D01*
X69286Y-34862D01*
X69273Y-34865D01*
X69208Y-34908D01*
X69117Y-34999D01*
X69111Y-34999D01*
X69174Y-34937D01*
X69174Y-34862D01*
X69136Y-34770D01*
X69074Y-34708D01*
X69074Y-34508D01*
X69051Y-34453D01*
X69009Y-34411D01*
X68954Y-34388D01*
X68894Y-34388D01*
X68870Y-34388D01*
X68868Y-34386D01*
X68868Y-34386D01*
X68600Y-34117D01*
X68600Y-31937D01*
X68625Y-31912D01*
X68625Y-31500D01*
X68617Y-31500D01*
X68617Y-31400D01*
X68625Y-31400D01*
X68625Y-31392D01*
X68725Y-31392D01*
X68725Y-31400D01*
X68732Y-31400D01*
X68732Y-31500D01*
X68725Y-31500D01*
X68725Y-31912D01*
X68787Y-31975D01*
X68874Y-31975D01*
X68874Y-32147D01*
X68897Y-32202D01*
X68939Y-32245D01*
X68951Y-32249D01*
X68939Y-32254D01*
X68897Y-32296D01*
X68874Y-32352D01*
X68874Y-32411D01*
X68874Y-32647D01*
X68897Y-32702D01*
X68939Y-32745D01*
X68951Y-32749D01*
X68939Y-32754D01*
X68897Y-32796D01*
X68874Y-32852D01*
X68874Y-32911D01*
X68874Y-33147D01*
X68897Y-33202D01*
X68939Y-33245D01*
X68951Y-33249D01*
X68939Y-33254D01*
X68897Y-33296D01*
X68874Y-33352D01*
X68874Y-33411D01*
X68874Y-33647D01*
X68897Y-33702D01*
X68939Y-33745D01*
X68994Y-33767D01*
X69054Y-33768D01*
X69605Y-33768D01*
X69660Y-33745D01*
X69702Y-33703D01*
X69725Y-33647D01*
X69725Y-33588D01*
X69725Y-33352D01*
X69707Y-33309D01*
X69745Y-33324D01*
X69874Y-33325D01*
X69993Y-33275D01*
X70085Y-33184D01*
X70134Y-33064D01*
X70135Y-32935D01*
X70085Y-32816D01*
X70069Y-32800D01*
X70266Y-32800D01*
X70284Y-32843D01*
X70289Y-32848D01*
X70288Y-32849D01*
X70265Y-32904D01*
X70265Y-32964D01*
X70265Y-33751D01*
X70288Y-33806D01*
X70330Y-33849D01*
X70385Y-33872D01*
X70445Y-33872D01*
X71545Y-33872D01*
X71600Y-33849D01*
X71642Y-33807D01*
X71649Y-33790D01*
X72446Y-33790D01*
X72453Y-33806D01*
X72496Y-33849D01*
X72551Y-33872D01*
X72610Y-33872D01*
X72669Y-33872D01*
X72669Y-36085D01*
X72684Y-36162D01*
X72727Y-36227D01*
X72828Y-36327D01*
G54D10*
G36*
X73826Y-38555D02*
X73755Y-38626D01*
X73750Y-38620D01*
X73744Y-38626D01*
X73673Y-38555D01*
X73679Y-38550D01*
X73673Y-38544D01*
X73744Y-38473D01*
X73750Y-38479D01*
X73755Y-38473D01*
X73826Y-38544D01*
X73820Y-38550D01*
X73826Y-38555D01*
X73826Y-38555D01*
G37*
G54D28*
X73826Y-38555D02*
X73755Y-38626D01*
X73750Y-38620D01*
X73744Y-38626D01*
X73673Y-38555D01*
X73679Y-38550D01*
X73673Y-38544D01*
X73744Y-38473D01*
X73750Y-38479D01*
X73755Y-38473D01*
X73826Y-38544D01*
X73820Y-38550D01*
X73826Y-38555D01*
G54D10*
G36*
X73970Y-38071D02*
X73825Y-38020D01*
X73617Y-38031D01*
X73499Y-38080D01*
X73499Y-38012D01*
X73436Y-37950D01*
X73063Y-37950D01*
X73063Y-37957D01*
X72963Y-37957D01*
X72963Y-37950D01*
X72955Y-37950D01*
X72955Y-37850D01*
X72963Y-37850D01*
X72963Y-37842D01*
X73063Y-37842D01*
X73063Y-37850D01*
X73436Y-37850D01*
X73499Y-37787D01*
X73499Y-37713D01*
X73498Y-37614D01*
X73460Y-37522D01*
X73390Y-37451D01*
X73301Y-37415D01*
X73710Y-37415D01*
X73765Y-37392D01*
X73808Y-37350D01*
X73831Y-37295D01*
X73831Y-37235D01*
X73831Y-36448D01*
X73808Y-36393D01*
X73766Y-36350D01*
X73711Y-36327D01*
X73651Y-36327D01*
X73327Y-36327D01*
X73315Y-36271D01*
X73315Y-36271D01*
X73301Y-36249D01*
X73272Y-36206D01*
X73272Y-36206D01*
X73069Y-36003D01*
X73069Y-33872D01*
X73710Y-33872D01*
X73765Y-33849D01*
X73808Y-33807D01*
X73831Y-33752D01*
X73831Y-33692D01*
X73831Y-32904D01*
X73808Y-32849D01*
X73766Y-32807D01*
X73711Y-32784D01*
X73651Y-32784D01*
X73428Y-32784D01*
X73459Y-32737D01*
X73475Y-32660D01*
X73475Y-32625D01*
X73479Y-32625D01*
X73534Y-32602D01*
X73577Y-32560D01*
X73599Y-32504D01*
X73600Y-32445D01*
X73600Y-31895D01*
X73577Y-31840D01*
X73535Y-31797D01*
X73479Y-31775D01*
X73420Y-31774D01*
X73070Y-31774D01*
X73015Y-31797D01*
X72972Y-31839D01*
X72950Y-31895D01*
X72949Y-31924D01*
X72949Y-31875D01*
X72911Y-31783D01*
X72841Y-31712D01*
X72749Y-31674D01*
X72637Y-31675D01*
X72575Y-31737D01*
X72575Y-32150D01*
X72582Y-32150D01*
X72582Y-32250D01*
X72575Y-32250D01*
X72575Y-32662D01*
X72637Y-32725D01*
X72749Y-32725D01*
X72841Y-32687D01*
X72911Y-32616D01*
X72949Y-32524D01*
X72949Y-32504D01*
X72949Y-32504D01*
X72972Y-32559D01*
X73014Y-32602D01*
X73040Y-32612D01*
X72989Y-32663D01*
X72946Y-32727D01*
X72935Y-32784D01*
X72551Y-32784D01*
X72496Y-32807D01*
X72475Y-32828D01*
X72475Y-32662D01*
X72475Y-32250D01*
X72162Y-32250D01*
X72100Y-32312D01*
X72037Y-32250D01*
X71725Y-32250D01*
X71725Y-32662D01*
X71787Y-32725D01*
X71899Y-32725D01*
X71991Y-32687D01*
X72061Y-32616D01*
X72099Y-32524D01*
X72100Y-32474D01*
X72100Y-32524D01*
X72138Y-32616D01*
X72208Y-32687D01*
X72300Y-32725D01*
X72412Y-32725D01*
X72475Y-32662D01*
X72475Y-32828D01*
X72454Y-32849D01*
X72431Y-32904D01*
X72431Y-32964D01*
X72431Y-33390D01*
X71665Y-33390D01*
X71665Y-32904D01*
X71642Y-32849D01*
X71600Y-32807D01*
X71545Y-32784D01*
X71486Y-32784D01*
X71165Y-32784D01*
X71165Y-32645D01*
X71159Y-32612D01*
X71184Y-32602D01*
X71227Y-32560D01*
X71249Y-32504D01*
X71250Y-32475D01*
X71250Y-32524D01*
X71288Y-32616D01*
X71358Y-32687D01*
X71450Y-32725D01*
X71562Y-32725D01*
X71625Y-32662D01*
X71625Y-32250D01*
X71617Y-32250D01*
X71617Y-32150D01*
X71625Y-32150D01*
X71625Y-32142D01*
X71725Y-32142D01*
X71725Y-32150D01*
X72037Y-32150D01*
X72100Y-32087D01*
X72162Y-32150D01*
X72475Y-32150D01*
X72475Y-31737D01*
X72412Y-31675D01*
X72300Y-31674D01*
X72208Y-31712D01*
X72138Y-31783D01*
X72100Y-31875D01*
X72100Y-31925D01*
X72099Y-31875D01*
X72075Y-31816D01*
X72090Y-31810D01*
X72210Y-31691D01*
X72274Y-31534D01*
X72275Y-31365D01*
X72239Y-31279D01*
X73970Y-31279D01*
X73970Y-38071D01*
X73970Y-38071D01*
G37*
G54D28*
X73970Y-38071D02*
X73825Y-38020D01*
X73617Y-38031D01*
X73499Y-38080D01*
X73499Y-38012D01*
X73436Y-37950D01*
X73063Y-37950D01*
X73063Y-37957D01*
X72963Y-37957D01*
X72963Y-37950D01*
X72955Y-37950D01*
X72955Y-37850D01*
X72963Y-37850D01*
X72963Y-37842D01*
X73063Y-37842D01*
X73063Y-37850D01*
X73436Y-37850D01*
X73499Y-37787D01*
X73499Y-37713D01*
X73498Y-37614D01*
X73460Y-37522D01*
X73390Y-37451D01*
X73301Y-37415D01*
X73710Y-37415D01*
X73765Y-37392D01*
X73808Y-37350D01*
X73831Y-37295D01*
X73831Y-37235D01*
X73831Y-36448D01*
X73808Y-36393D01*
X73766Y-36350D01*
X73711Y-36327D01*
X73651Y-36327D01*
X73327Y-36327D01*
X73315Y-36271D01*
X73315Y-36271D01*
X73301Y-36249D01*
X73272Y-36206D01*
X73272Y-36206D01*
X73069Y-36003D01*
X73069Y-33872D01*
X73710Y-33872D01*
X73765Y-33849D01*
X73808Y-33807D01*
X73831Y-33752D01*
X73831Y-33692D01*
X73831Y-32904D01*
X73808Y-32849D01*
X73766Y-32807D01*
X73711Y-32784D01*
X73651Y-32784D01*
X73428Y-32784D01*
X73459Y-32737D01*
X73475Y-32660D01*
X73475Y-32625D01*
X73479Y-32625D01*
X73534Y-32602D01*
X73577Y-32560D01*
X73599Y-32504D01*
X73600Y-32445D01*
X73600Y-31895D01*
X73577Y-31840D01*
X73535Y-31797D01*
X73479Y-31775D01*
X73420Y-31774D01*
X73070Y-31774D01*
X73015Y-31797D01*
X72972Y-31839D01*
X72950Y-31895D01*
X72949Y-31924D01*
X72949Y-31875D01*
X72911Y-31783D01*
X72841Y-31712D01*
X72749Y-31674D01*
X72637Y-31675D01*
X72575Y-31737D01*
X72575Y-32150D01*
X72582Y-32150D01*
X72582Y-32250D01*
X72575Y-32250D01*
X72575Y-32662D01*
X72637Y-32725D01*
X72749Y-32725D01*
X72841Y-32687D01*
X72911Y-32616D01*
X72949Y-32524D01*
X72949Y-32504D01*
X72949Y-32504D01*
X72972Y-32559D01*
X73014Y-32602D01*
X73040Y-32612D01*
X72989Y-32663D01*
X72946Y-32727D01*
X72935Y-32784D01*
X72551Y-32784D01*
X72496Y-32807D01*
X72475Y-32828D01*
X72475Y-32662D01*
X72475Y-32250D01*
X72162Y-32250D01*
X72100Y-32312D01*
X72037Y-32250D01*
X71725Y-32250D01*
X71725Y-32662D01*
X71787Y-32725D01*
X71899Y-32725D01*
X71991Y-32687D01*
X72061Y-32616D01*
X72099Y-32524D01*
X72100Y-32474D01*
X72100Y-32524D01*
X72138Y-32616D01*
X72208Y-32687D01*
X72300Y-32725D01*
X72412Y-32725D01*
X72475Y-32662D01*
X72475Y-32828D01*
X72454Y-32849D01*
X72431Y-32904D01*
X72431Y-32964D01*
X72431Y-33390D01*
X71665Y-33390D01*
X71665Y-32904D01*
X71642Y-32849D01*
X71600Y-32807D01*
X71545Y-32784D01*
X71486Y-32784D01*
X71165Y-32784D01*
X71165Y-32645D01*
X71159Y-32612D01*
X71184Y-32602D01*
X71227Y-32560D01*
X71249Y-32504D01*
X71250Y-32475D01*
X71250Y-32524D01*
X71288Y-32616D01*
X71358Y-32687D01*
X71450Y-32725D01*
X71562Y-32725D01*
X71625Y-32662D01*
X71625Y-32250D01*
X71617Y-32250D01*
X71617Y-32150D01*
X71625Y-32150D01*
X71625Y-32142D01*
X71725Y-32142D01*
X71725Y-32150D01*
X72037Y-32150D01*
X72100Y-32087D01*
X72162Y-32150D01*
X72475Y-32150D01*
X72475Y-31737D01*
X72412Y-31675D01*
X72300Y-31674D01*
X72208Y-31712D01*
X72138Y-31783D01*
X72100Y-31875D01*
X72100Y-31925D01*
X72099Y-31875D01*
X72075Y-31816D01*
X72090Y-31810D01*
X72210Y-31691D01*
X72274Y-31534D01*
X72275Y-31365D01*
X72239Y-31279D01*
X73970Y-31279D01*
X73970Y-38071D01*
M02*
