G04 (created by PCBNEW (2013-07-07 BZR 4022)-stable) date 26/05/2014 16:51:26*
%MOIN*%
G04 Gerber Fmt 3.4, Leading zero omitted, Abs format*
%FSLAX34Y34*%
G01*
G70*
G90*
G04 APERTURE LIST*
%ADD10C,0.00590551*%
%ADD11R,0.035X0.055*%
%ADD12R,0.055X0.035*%
%ADD13R,0.06X0.06*%
%ADD14C,0.06*%
%ADD15R,0.23622X0.629921*%
%ADD16R,0.0728346X0.0177165*%
%ADD17R,0.0472X0.0472*%
%ADD18R,0.059X0.0512*%
%ADD19R,0.1X0.1*%
%ADD20C,0.1*%
%ADD21C,0.0708661*%
%ADD22R,0.0708661X0.0708661*%
G04 APERTURE END LIST*
G54D10*
G54D11*
X76625Y-40500D03*
X75875Y-40500D03*
G54D12*
X74000Y-42875D03*
X74000Y-43625D03*
G54D13*
X82250Y-57500D03*
G54D14*
X82250Y-56500D03*
X82250Y-55500D03*
G54D13*
X70000Y-50000D03*
G54D14*
X71000Y-50000D03*
X70000Y-51000D03*
X71000Y-51000D03*
X70000Y-52000D03*
X71000Y-52000D03*
X70000Y-53000D03*
X71000Y-53000D03*
X70000Y-54000D03*
X71000Y-54000D03*
X70000Y-55000D03*
X71000Y-55000D03*
X70000Y-56000D03*
X71000Y-56000D03*
X70000Y-57000D03*
X71000Y-57000D03*
X70000Y-58000D03*
X71000Y-58000D03*
X70000Y-59000D03*
X71000Y-59000D03*
G54D15*
X78250Y-52000D03*
G54D16*
X80809Y-54175D03*
X80809Y-53919D03*
X80809Y-53663D03*
X80809Y-53407D03*
X80809Y-53151D03*
X80809Y-52895D03*
X80809Y-52639D03*
X80809Y-52383D03*
X80809Y-52127D03*
X80809Y-51872D03*
X80809Y-51616D03*
X80809Y-51360D03*
X80809Y-51104D03*
X80809Y-50848D03*
X80809Y-50592D03*
X80809Y-50336D03*
X80809Y-50080D03*
X80809Y-49824D03*
X75690Y-49824D03*
X75690Y-50080D03*
X75690Y-50336D03*
X75690Y-50592D03*
X75690Y-50848D03*
X75690Y-51104D03*
X75690Y-51360D03*
X75690Y-51616D03*
X75690Y-51872D03*
X75690Y-52127D03*
X75690Y-52383D03*
X75690Y-52639D03*
X75690Y-52895D03*
X75690Y-53151D03*
X75690Y-53407D03*
X75690Y-53663D03*
X75690Y-53919D03*
X75690Y-54175D03*
G54D17*
X73087Y-40750D03*
X73913Y-40750D03*
X73087Y-42250D03*
X73913Y-42250D03*
G54D18*
X83250Y-56375D03*
X83250Y-55625D03*
G54D19*
X79750Y-38250D03*
G54D20*
X77750Y-38250D03*
X75750Y-38250D03*
G54D21*
X85500Y-58334D03*
X85500Y-56956D03*
G54D22*
X85500Y-37665D03*
G54D21*
X85500Y-39043D03*
X85500Y-40421D03*
X85500Y-41799D03*
X85500Y-43177D03*
X85500Y-44555D03*
X85500Y-45933D03*
X85500Y-47311D03*
X85500Y-48688D03*
X85500Y-50066D03*
X85500Y-51444D03*
X85500Y-52822D03*
X85500Y-54200D03*
X85500Y-55578D03*
G54D11*
X73125Y-41500D03*
X73875Y-41500D03*
G54D13*
X76500Y-43000D03*
G54D14*
X76500Y-42000D03*
X77500Y-43000D03*
X77500Y-42000D03*
M02*
