G04 (created by PCBNEW (2013-07-07 BZR 4022)-stable) date 12/03/2014 13:56:11*
%MOIN*%
G04 Gerber Fmt 3.4, Leading zero omitted, Abs format*
%FSLAX34Y34*%
G01*
G70*
G90*
G04 APERTURE LIST*
%ADD10C,0.00590551*%
%ADD11C,0.0708661*%
%ADD12R,0.0708661X0.0708661*%
%ADD13R,0.06X0.06*%
%ADD14C,0.06*%
%ADD15R,0.055X0.055*%
%ADD16C,0.055*%
%ADD17R,0.1X0.1*%
%ADD18C,0.1*%
%ADD19C,0.045*%
%ADD20C,0.16*%
%ADD21C,0.04*%
%ADD22C,0.01*%
G04 APERTURE END LIST*
G54D10*
G54D11*
X85750Y-58584D03*
X85750Y-57206D03*
G54D12*
X85750Y-37915D03*
G54D11*
X85750Y-39293D03*
X85750Y-40671D03*
X85750Y-42049D03*
X85750Y-43427D03*
X85750Y-44805D03*
X85750Y-46183D03*
X85750Y-47561D03*
X85750Y-48938D03*
X85750Y-50316D03*
X85750Y-51694D03*
X85750Y-53072D03*
X85750Y-54450D03*
X85750Y-55828D03*
G54D13*
X70000Y-49984D03*
G54D14*
X71000Y-49984D03*
X70000Y-50984D03*
X71000Y-50984D03*
X70000Y-51984D03*
X71000Y-51984D03*
X70000Y-52984D03*
X71000Y-52984D03*
X70000Y-53984D03*
X71000Y-53984D03*
X70000Y-54984D03*
X71000Y-54984D03*
X70000Y-55984D03*
X71000Y-55984D03*
X70000Y-56984D03*
X71000Y-56984D03*
X70000Y-57984D03*
X71000Y-57984D03*
X70000Y-58984D03*
X71000Y-58984D03*
G54D15*
X81475Y-53100D03*
G54D16*
X81475Y-54100D03*
G54D15*
X81475Y-44100D03*
G54D16*
X81475Y-45100D03*
G54D15*
X82475Y-52850D03*
G54D16*
X82475Y-51850D03*
G54D15*
X82475Y-43850D03*
G54D16*
X82475Y-42850D03*
G54D15*
X81525Y-50050D03*
G54D16*
X81525Y-51050D03*
G54D15*
X82475Y-39850D03*
G54D16*
X82475Y-40850D03*
G54D17*
X79425Y-37775D03*
G54D18*
X77425Y-37775D03*
X75425Y-37775D03*
G54D15*
X82475Y-46850D03*
G54D16*
X82475Y-45850D03*
G54D15*
X82475Y-55850D03*
G54D16*
X82475Y-54850D03*
G54D15*
X81525Y-47050D03*
G54D16*
X81525Y-48050D03*
G54D15*
X81475Y-56100D03*
G54D16*
X81475Y-57100D03*
G54D15*
X82475Y-49850D03*
G54D16*
X82475Y-48850D03*
G54D15*
X82475Y-58850D03*
G54D16*
X82475Y-57850D03*
G54D15*
X81525Y-39750D03*
G54D16*
X81500Y-38750D03*
G54D15*
X82475Y-41850D03*
G54D16*
X81475Y-41850D03*
G54D19*
X69500Y-53500D03*
X71500Y-52500D03*
G54D20*
X83000Y-37500D03*
G54D21*
X77800Y-38950D03*
X79000Y-38750D03*
X79750Y-38750D03*
X80500Y-38750D03*
X78500Y-38250D03*
X78500Y-37500D03*
X78250Y-36750D03*
X79000Y-36750D03*
X79750Y-36750D03*
X81500Y-37000D03*
X80500Y-37000D03*
X80500Y-38000D03*
X81000Y-37500D03*
X81500Y-38000D03*
X82500Y-39000D03*
X83250Y-39000D03*
X86000Y-36750D03*
X84500Y-36750D03*
X85250Y-37000D03*
X84750Y-37500D03*
X84750Y-38250D03*
X84250Y-38750D03*
X85250Y-38750D03*
X84750Y-39250D03*
X83750Y-39250D03*
X84250Y-39750D03*
X83250Y-39750D03*
X83750Y-40250D03*
X83250Y-40750D03*
X83200Y-43600D03*
X83000Y-47400D03*
X83400Y-47000D03*
X83800Y-46600D03*
X84200Y-46200D03*
X84600Y-45800D03*
X85000Y-45400D03*
X83600Y-50200D03*
X83600Y-49600D03*
X84200Y-49600D03*
X83000Y-50400D03*
X84600Y-55800D03*
X84000Y-55800D03*
X83400Y-55800D03*
X83800Y-56400D03*
X83200Y-56400D03*
X83200Y-58600D03*
X83600Y-59000D03*
X84000Y-58600D03*
X84400Y-59000D03*
X84800Y-58600D03*
X85200Y-59000D03*
X86200Y-59000D03*
X86200Y-58000D03*
X84600Y-53400D03*
X84000Y-53400D03*
X83400Y-53200D03*
X83600Y-52600D03*
X84200Y-52800D03*
X84600Y-52400D03*
X85000Y-52800D03*
X85200Y-52200D03*
X86200Y-52200D03*
X75500Y-58500D03*
X76000Y-58500D03*
X76500Y-58500D03*
X77000Y-58500D03*
X77750Y-59000D03*
X77250Y-59000D03*
X76750Y-59000D03*
X76250Y-59000D03*
X75750Y-59000D03*
X75250Y-59000D03*
X74750Y-59000D03*
X69250Y-58500D03*
X75000Y-58250D03*
X73750Y-58500D03*
X74250Y-39500D03*
X74750Y-39500D03*
X76750Y-44250D03*
X77250Y-44250D03*
X77500Y-44750D03*
X77000Y-44750D03*
X77750Y-44250D03*
X77750Y-47250D03*
X77500Y-47750D03*
X77250Y-47250D03*
X77250Y-50250D03*
X77500Y-50750D03*
X77750Y-50250D03*
X77250Y-53250D03*
X77500Y-53750D03*
X77750Y-53250D03*
X77750Y-56250D03*
X77500Y-56750D03*
X77250Y-56250D03*
X78250Y-57250D03*
X78750Y-57500D03*
X78250Y-54250D03*
X78750Y-54500D03*
X78250Y-51250D03*
X78750Y-51500D03*
X78250Y-48250D03*
X78750Y-48500D03*
X78250Y-45250D03*
X78750Y-45500D03*
X78250Y-42250D03*
X78750Y-42500D03*
X80750Y-56500D03*
X80250Y-56750D03*
X80750Y-57000D03*
X80750Y-57500D03*
X80250Y-57250D03*
X79250Y-57250D03*
X79750Y-57500D03*
X75750Y-56250D03*
X76000Y-56750D03*
X76250Y-56250D03*
X76500Y-56750D03*
X76750Y-56250D03*
X77000Y-56750D03*
X80750Y-53500D03*
X79250Y-54250D03*
X79750Y-54500D03*
X80250Y-54250D03*
X80750Y-54000D03*
X80250Y-53750D03*
X77000Y-53750D03*
X76750Y-53250D03*
X76250Y-53250D03*
X76500Y-53750D03*
X75750Y-53250D03*
X76000Y-53750D03*
X80750Y-50500D03*
X79250Y-51250D03*
X79750Y-51500D03*
X80250Y-51250D03*
X80750Y-51000D03*
X80250Y-50750D03*
X77000Y-50750D03*
X76750Y-50250D03*
X76250Y-50250D03*
X76500Y-50750D03*
X75750Y-50250D03*
X76000Y-50750D03*
X80750Y-47500D03*
X80250Y-47750D03*
X80750Y-48000D03*
X80250Y-48250D03*
X79250Y-48250D03*
X79750Y-48500D03*
X77000Y-47750D03*
X76750Y-47250D03*
X76250Y-47250D03*
X76500Y-47750D03*
X75750Y-47250D03*
X76000Y-47750D03*
X80750Y-44500D03*
X80250Y-44750D03*
X80750Y-45000D03*
X80250Y-45250D03*
X79250Y-45250D03*
X79750Y-45500D03*
X76250Y-44250D03*
X76500Y-44750D03*
X75750Y-44250D03*
X76000Y-44750D03*
X80250Y-41000D03*
X80250Y-40500D03*
X80750Y-40750D03*
X80250Y-41500D03*
X80750Y-41750D03*
X80250Y-42000D03*
X79250Y-42250D03*
X79750Y-42500D03*
X75500Y-40000D03*
X75250Y-39500D03*
X75750Y-39500D03*
X76250Y-39500D03*
X76750Y-39500D03*
X77250Y-39500D03*
X77500Y-40000D03*
X77000Y-40000D03*
X76500Y-40000D03*
X76000Y-40000D03*
X78250Y-41000D03*
X78250Y-40500D03*
X77750Y-40750D03*
X77750Y-41250D03*
X76750Y-41250D03*
X77250Y-41250D03*
X77500Y-41750D03*
X76000Y-41750D03*
X76500Y-41750D03*
X77000Y-41750D03*
X76250Y-41250D03*
X75750Y-41250D03*
G54D22*
X76500Y-38850D02*
X75425Y-37775D01*
X77700Y-38850D02*
X76500Y-38850D01*
X77800Y-38950D02*
X77700Y-38850D01*
X80500Y-38750D02*
X79750Y-38750D01*
X78500Y-37500D02*
X78500Y-38250D01*
X79000Y-36750D02*
X78250Y-36750D01*
X81250Y-36750D02*
X79750Y-36750D01*
X81500Y-37000D02*
X81250Y-36750D01*
X80500Y-38000D02*
X80500Y-37000D01*
X81500Y-38000D02*
X81000Y-37500D01*
X83250Y-39000D02*
X82500Y-39000D01*
X82475Y-39850D02*
X82600Y-39850D01*
X84500Y-36750D02*
X86000Y-36750D01*
X84750Y-37500D02*
X85250Y-37000D01*
X84250Y-38750D02*
X84750Y-38250D01*
X84750Y-39250D02*
X85250Y-38750D01*
X84250Y-39750D02*
X83750Y-39250D01*
X83750Y-40250D02*
X83250Y-39750D01*
X83250Y-40500D02*
X83250Y-40750D01*
X82600Y-39850D02*
X83250Y-40500D01*
X82475Y-46850D02*
X82475Y-46875D01*
X82475Y-46875D02*
X83000Y-47400D01*
X83400Y-47000D02*
X83800Y-46600D01*
X84200Y-46200D02*
X84600Y-45800D01*
X82475Y-49850D02*
X82475Y-49875D01*
X84200Y-49600D02*
X83600Y-49600D01*
X82475Y-49875D02*
X83000Y-50400D01*
X82475Y-55850D02*
X82650Y-55850D01*
X84000Y-55800D02*
X84600Y-55800D01*
X83400Y-56000D02*
X83400Y-55800D01*
X83800Y-56400D02*
X83400Y-56000D01*
X82650Y-55850D02*
X83200Y-56400D01*
X84000Y-58600D02*
X83600Y-59000D01*
X84800Y-58600D02*
X84400Y-59000D01*
X86200Y-59000D02*
X85200Y-59000D01*
X85750Y-58584D02*
X85750Y-58450D01*
X85750Y-58450D02*
X86200Y-58000D01*
X83600Y-53400D02*
X84000Y-53400D01*
X83400Y-53200D02*
X83600Y-53400D01*
X84000Y-52600D02*
X83600Y-52600D01*
X84200Y-52800D02*
X84000Y-52600D01*
X85000Y-52800D02*
X84600Y-52400D01*
X86200Y-52200D02*
X85200Y-52200D01*
X75000Y-58250D02*
X74750Y-58500D01*
X76000Y-58500D02*
X75500Y-58500D01*
X77000Y-58500D02*
X76500Y-58500D01*
X77250Y-59000D02*
X77750Y-59000D01*
X76250Y-59000D02*
X76750Y-59000D01*
X75250Y-59000D02*
X75750Y-59000D01*
X74750Y-58500D02*
X74750Y-59000D01*
X75000Y-58250D02*
X72750Y-58250D01*
X72500Y-58500D02*
X69250Y-58500D01*
X72750Y-58250D02*
X72500Y-58500D01*
X75000Y-58250D02*
X74000Y-58250D01*
X74000Y-58250D02*
X73750Y-58500D01*
X74750Y-39500D02*
X74250Y-39500D01*
X76750Y-44250D02*
X77250Y-44250D01*
X77000Y-44750D02*
X77500Y-44750D01*
X77500Y-47500D02*
X77500Y-47750D01*
X77500Y-47500D02*
X77250Y-47250D01*
X77500Y-50500D02*
X77250Y-50250D01*
X77500Y-50500D02*
X77500Y-50750D01*
X77500Y-53500D02*
X77250Y-53250D01*
X77500Y-53500D02*
X77500Y-53750D01*
X77500Y-56500D02*
X77500Y-56750D01*
X77500Y-56500D02*
X77250Y-56250D01*
X78500Y-57250D02*
X78250Y-57250D01*
X78750Y-57500D02*
X78500Y-57250D01*
X78500Y-54250D02*
X78250Y-54250D01*
X78750Y-54500D02*
X78500Y-54250D01*
X78500Y-51250D02*
X78250Y-51250D01*
X78750Y-51500D02*
X78500Y-51250D01*
X78500Y-48250D02*
X78250Y-48250D01*
X78750Y-48500D02*
X78500Y-48250D01*
X78500Y-45250D02*
X78250Y-45250D01*
X78750Y-45500D02*
X78500Y-45250D01*
X78500Y-42250D02*
X78250Y-42250D01*
X78750Y-42500D02*
X78500Y-42250D01*
X80500Y-56750D02*
X80250Y-56750D01*
X80750Y-57000D02*
X80500Y-56750D01*
X80500Y-57500D02*
X80750Y-57500D01*
X80250Y-57250D02*
X80500Y-57500D01*
X79500Y-57500D02*
X79750Y-57500D01*
X79250Y-57250D02*
X79500Y-57500D01*
X75750Y-56250D02*
X76000Y-56500D01*
X76000Y-56500D02*
X76000Y-56750D01*
X76250Y-56250D02*
X76500Y-56500D01*
X76500Y-56500D02*
X76500Y-56750D01*
X76750Y-56250D02*
X77000Y-56500D01*
X77000Y-56500D02*
X77000Y-56750D01*
X79250Y-54250D02*
X79500Y-54500D01*
X79500Y-54500D02*
X79750Y-54500D01*
X80250Y-54250D02*
X80500Y-54000D01*
X80500Y-54000D02*
X80750Y-54000D01*
X80250Y-53750D02*
X80500Y-53500D01*
X80500Y-53500D02*
X80750Y-53500D01*
X77000Y-53500D02*
X77000Y-53750D01*
X76750Y-53250D02*
X77000Y-53500D01*
X76250Y-53250D02*
X76500Y-53500D01*
X76500Y-53500D02*
X76500Y-53750D01*
X75750Y-53250D02*
X76000Y-53500D01*
X76000Y-53500D02*
X76000Y-53750D01*
X79250Y-51250D02*
X79500Y-51500D01*
X79500Y-51500D02*
X79750Y-51500D01*
X80250Y-51250D02*
X80500Y-51000D01*
X80500Y-51000D02*
X80750Y-51000D01*
X80250Y-50750D02*
X80500Y-50500D01*
X80500Y-50500D02*
X80750Y-50500D01*
X77000Y-50500D02*
X77000Y-50750D01*
X76750Y-50250D02*
X77000Y-50500D01*
X76250Y-50250D02*
X76500Y-50500D01*
X76500Y-50500D02*
X76500Y-50750D01*
X75750Y-50250D02*
X76000Y-50500D01*
X76000Y-50500D02*
X76000Y-50750D01*
X80500Y-47500D02*
X80750Y-47500D01*
X80250Y-47750D02*
X80500Y-47500D01*
X80500Y-48000D02*
X80750Y-48000D01*
X80250Y-48250D02*
X80500Y-48000D01*
X79500Y-48500D02*
X79750Y-48500D01*
X79250Y-48250D02*
X79500Y-48500D01*
X77000Y-47500D02*
X77000Y-47750D01*
X76750Y-47250D02*
X77000Y-47500D01*
X76250Y-47250D02*
X76500Y-47500D01*
X76500Y-47500D02*
X76500Y-47750D01*
X75750Y-47250D02*
X76000Y-47500D01*
X76000Y-47500D02*
X76000Y-47750D01*
X80500Y-44500D02*
X80750Y-44500D01*
X80250Y-44750D02*
X80500Y-44500D01*
X80500Y-45000D02*
X80750Y-45000D01*
X80250Y-45250D02*
X80500Y-45000D01*
X79500Y-45500D02*
X79750Y-45500D01*
X79250Y-45250D02*
X79500Y-45500D01*
X76250Y-44250D02*
X76500Y-44500D01*
X76500Y-44500D02*
X76500Y-44750D01*
X75750Y-44250D02*
X76000Y-44500D01*
X76000Y-44500D02*
X76000Y-44750D01*
X80250Y-41000D02*
X80250Y-41500D01*
X80500Y-40500D02*
X80250Y-40500D01*
X80750Y-40750D02*
X80500Y-40500D01*
X80500Y-41750D02*
X80750Y-41750D01*
X80250Y-42000D02*
X80500Y-41750D01*
X79500Y-42500D02*
X79750Y-42500D01*
X79250Y-42250D02*
X79500Y-42500D01*
X75500Y-39750D02*
X75500Y-40000D01*
X75250Y-39500D02*
X75500Y-39750D01*
X76250Y-39500D02*
X75750Y-39500D01*
X77250Y-39500D02*
X76750Y-39500D01*
X77000Y-40000D02*
X77500Y-40000D01*
X76000Y-40000D02*
X76500Y-40000D01*
X78250Y-40500D02*
X78250Y-41000D01*
X77750Y-41250D02*
X77750Y-40750D01*
X76750Y-41250D02*
X77250Y-41250D01*
X76000Y-41750D02*
X77500Y-41750D01*
X77000Y-41750D02*
X76500Y-41750D01*
X75750Y-41250D02*
X76250Y-41250D01*
G54D10*
G36*
X86414Y-59250D02*
X86260Y-59250D01*
X86260Y-58525D01*
X86260Y-51635D01*
X86260Y-44745D01*
X86254Y-44713D01*
X86254Y-43327D01*
X86254Y-41949D01*
X86254Y-40571D01*
X86254Y-39193D01*
X86254Y-39193D01*
X86254Y-38299D01*
X86254Y-37531D01*
X86231Y-37476D01*
X86189Y-37433D01*
X86134Y-37411D01*
X86074Y-37410D01*
X85964Y-37411D01*
X85927Y-37448D01*
X85927Y-37738D01*
X86216Y-37738D01*
X86254Y-37700D01*
X86254Y-37531D01*
X86254Y-38299D01*
X86254Y-38130D01*
X86216Y-38092D01*
X85927Y-38092D01*
X85927Y-38382D01*
X85964Y-38419D01*
X86074Y-38419D01*
X86134Y-38419D01*
X86189Y-38396D01*
X86231Y-38354D01*
X86254Y-38299D01*
X86254Y-39193D01*
X86177Y-39008D01*
X86036Y-38866D01*
X85850Y-38789D01*
X85650Y-38788D01*
X85572Y-38820D01*
X85572Y-38382D01*
X85572Y-38092D01*
X85572Y-37738D01*
X85572Y-37448D01*
X85535Y-37411D01*
X85425Y-37410D01*
X85365Y-37411D01*
X85310Y-37433D01*
X85268Y-37476D01*
X85245Y-37531D01*
X85245Y-37700D01*
X85283Y-37738D01*
X85572Y-37738D01*
X85572Y-38092D01*
X85283Y-38092D01*
X85245Y-38130D01*
X85245Y-38299D01*
X85268Y-38354D01*
X85310Y-38396D01*
X85365Y-38419D01*
X85425Y-38419D01*
X85535Y-38419D01*
X85572Y-38382D01*
X85572Y-38820D01*
X85464Y-38865D01*
X85322Y-39007D01*
X85245Y-39192D01*
X85245Y-39393D01*
X85322Y-39578D01*
X85463Y-39720D01*
X85649Y-39797D01*
X85849Y-39797D01*
X86035Y-39721D01*
X86177Y-39579D01*
X86254Y-39394D01*
X86254Y-39193D01*
X86254Y-40571D01*
X86177Y-40385D01*
X86036Y-40243D01*
X85850Y-40167D01*
X85650Y-40166D01*
X85464Y-40243D01*
X85322Y-40385D01*
X85245Y-40570D01*
X85245Y-40771D01*
X85322Y-40956D01*
X85463Y-41098D01*
X85649Y-41175D01*
X85849Y-41175D01*
X86035Y-41099D01*
X86177Y-40957D01*
X86254Y-40772D01*
X86254Y-40571D01*
X86254Y-41949D01*
X86177Y-41763D01*
X86036Y-41621D01*
X85850Y-41544D01*
X85650Y-41544D01*
X85464Y-41621D01*
X85322Y-41763D01*
X85245Y-41948D01*
X85245Y-42149D01*
X85322Y-42334D01*
X85463Y-42476D01*
X85649Y-42553D01*
X85849Y-42553D01*
X86035Y-42477D01*
X86177Y-42335D01*
X86254Y-42149D01*
X86254Y-41949D01*
X86254Y-43327D01*
X86177Y-43141D01*
X86036Y-42999D01*
X85850Y-42922D01*
X85650Y-42922D01*
X85464Y-42999D01*
X85322Y-43141D01*
X85245Y-43326D01*
X85245Y-43527D01*
X85322Y-43712D01*
X85463Y-43854D01*
X85649Y-43931D01*
X85849Y-43931D01*
X86035Y-43854D01*
X86177Y-43713D01*
X86254Y-43527D01*
X86254Y-43327D01*
X86254Y-44713D01*
X86244Y-44664D01*
X86188Y-44617D01*
X86000Y-44805D01*
X86188Y-44992D01*
X86244Y-44945D01*
X86260Y-44745D01*
X86260Y-51635D01*
X86254Y-51603D01*
X86254Y-50217D01*
X86254Y-48839D01*
X86254Y-47461D01*
X86254Y-46083D01*
X86177Y-45897D01*
X86036Y-45755D01*
X85937Y-45714D01*
X85937Y-45243D01*
X85937Y-44366D01*
X85890Y-44310D01*
X85690Y-44294D01*
X85609Y-44310D01*
X85562Y-44366D01*
X85750Y-44554D01*
X85937Y-44366D01*
X85937Y-45243D01*
X85750Y-45055D01*
X85562Y-45243D01*
X85609Y-45299D01*
X85809Y-45315D01*
X85890Y-45299D01*
X85937Y-45243D01*
X85937Y-45714D01*
X85850Y-45678D01*
X85650Y-45678D01*
X85499Y-45740D01*
X85499Y-44805D01*
X85311Y-44617D01*
X85255Y-44664D01*
X85239Y-44864D01*
X85255Y-44945D01*
X85311Y-44992D01*
X85499Y-44805D01*
X85499Y-45740D01*
X85464Y-45755D01*
X85322Y-45897D01*
X85245Y-46082D01*
X85245Y-46282D01*
X85322Y-46468D01*
X85463Y-46610D01*
X85649Y-46687D01*
X85849Y-46687D01*
X86035Y-46610D01*
X86177Y-46469D01*
X86254Y-46283D01*
X86254Y-46083D01*
X86254Y-47461D01*
X86177Y-47275D01*
X86036Y-47133D01*
X85850Y-47056D01*
X85650Y-47056D01*
X85464Y-47133D01*
X85322Y-47274D01*
X85245Y-47460D01*
X85245Y-47660D01*
X85322Y-47846D01*
X85463Y-47988D01*
X85649Y-48065D01*
X85849Y-48065D01*
X86035Y-47988D01*
X86177Y-47847D01*
X86254Y-47661D01*
X86254Y-47461D01*
X86254Y-48839D01*
X86177Y-48653D01*
X86036Y-48511D01*
X85850Y-48434D01*
X85650Y-48434D01*
X85464Y-48511D01*
X85322Y-48652D01*
X85245Y-48838D01*
X85245Y-49038D01*
X85322Y-49224D01*
X85463Y-49366D01*
X85649Y-49443D01*
X85849Y-49443D01*
X86035Y-49366D01*
X86177Y-49225D01*
X86254Y-49039D01*
X86254Y-48839D01*
X86254Y-50217D01*
X86177Y-50031D01*
X86036Y-49889D01*
X85850Y-49812D01*
X85650Y-49812D01*
X85464Y-49889D01*
X85322Y-50030D01*
X85245Y-50216D01*
X85245Y-50416D01*
X85322Y-50602D01*
X85463Y-50744D01*
X85649Y-50821D01*
X85849Y-50821D01*
X86035Y-50744D01*
X86177Y-50602D01*
X86254Y-50417D01*
X86254Y-50217D01*
X86254Y-51603D01*
X86244Y-51554D01*
X86188Y-51507D01*
X86000Y-51694D01*
X86188Y-51882D01*
X86244Y-51835D01*
X86260Y-51635D01*
X86260Y-58525D01*
X86254Y-58493D01*
X86254Y-57106D01*
X86254Y-55728D01*
X86254Y-54350D01*
X86254Y-52972D01*
X86177Y-52787D01*
X86036Y-52645D01*
X85937Y-52604D01*
X85937Y-52133D01*
X85937Y-51256D01*
X85890Y-51200D01*
X85690Y-51184D01*
X85609Y-51200D01*
X85562Y-51256D01*
X85750Y-51444D01*
X85937Y-51256D01*
X85937Y-52133D01*
X85750Y-51945D01*
X85562Y-52133D01*
X85609Y-52189D01*
X85809Y-52205D01*
X85890Y-52189D01*
X85937Y-52133D01*
X85937Y-52604D01*
X85850Y-52568D01*
X85650Y-52568D01*
X85499Y-52630D01*
X85499Y-51694D01*
X85311Y-51507D01*
X85255Y-51554D01*
X85239Y-51754D01*
X85255Y-51835D01*
X85311Y-51882D01*
X85499Y-51694D01*
X85499Y-52630D01*
X85464Y-52645D01*
X85322Y-52786D01*
X85245Y-52972D01*
X85245Y-53172D01*
X85322Y-53358D01*
X85463Y-53500D01*
X85649Y-53577D01*
X85849Y-53577D01*
X86035Y-53500D01*
X86177Y-53358D01*
X86254Y-53173D01*
X86254Y-52972D01*
X86254Y-54350D01*
X86177Y-54165D01*
X86036Y-54023D01*
X85850Y-53946D01*
X85650Y-53946D01*
X85464Y-54022D01*
X85322Y-54164D01*
X85245Y-54350D01*
X85245Y-54550D01*
X85322Y-54736D01*
X85463Y-54878D01*
X85649Y-54955D01*
X85849Y-54955D01*
X86035Y-54878D01*
X86177Y-54736D01*
X86254Y-54551D01*
X86254Y-54350D01*
X86254Y-55728D01*
X86177Y-55543D01*
X86036Y-55401D01*
X85850Y-55324D01*
X85650Y-55324D01*
X85464Y-55400D01*
X85322Y-55542D01*
X85245Y-55727D01*
X85245Y-55928D01*
X85322Y-56114D01*
X85463Y-56256D01*
X85649Y-56332D01*
X85849Y-56333D01*
X86035Y-56256D01*
X86177Y-56114D01*
X86254Y-55929D01*
X86254Y-55728D01*
X86254Y-57106D01*
X86177Y-56921D01*
X86036Y-56779D01*
X85850Y-56702D01*
X85650Y-56702D01*
X85464Y-56778D01*
X85322Y-56920D01*
X85245Y-57105D01*
X85245Y-57306D01*
X85322Y-57492D01*
X85463Y-57633D01*
X85649Y-57710D01*
X85849Y-57711D01*
X86035Y-57634D01*
X86177Y-57492D01*
X86254Y-57307D01*
X86254Y-57106D01*
X86254Y-58493D01*
X86244Y-58444D01*
X86188Y-58396D01*
X86000Y-58584D01*
X86188Y-58772D01*
X86244Y-58725D01*
X86260Y-58525D01*
X86260Y-59250D01*
X85937Y-59250D01*
X85937Y-59022D01*
X85937Y-58146D01*
X85890Y-58089D01*
X85690Y-58073D01*
X85609Y-58089D01*
X85562Y-58146D01*
X85750Y-58334D01*
X85937Y-58146D01*
X85937Y-59022D01*
X85750Y-58835D01*
X85562Y-59022D01*
X85609Y-59079D01*
X85809Y-59095D01*
X85890Y-59079D01*
X85937Y-59022D01*
X85937Y-59250D01*
X85499Y-59250D01*
X85499Y-58584D01*
X85311Y-58396D01*
X85255Y-58444D01*
X85239Y-58644D01*
X85255Y-58725D01*
X85311Y-58772D01*
X85499Y-58584D01*
X85499Y-59250D01*
X83950Y-59250D01*
X83950Y-37311D01*
X83805Y-36962D01*
X83538Y-36695D01*
X83189Y-36550D01*
X82811Y-36549D01*
X82462Y-36694D01*
X82195Y-36961D01*
X82050Y-37310D01*
X82049Y-37688D01*
X82194Y-38037D01*
X82461Y-38304D01*
X82810Y-38449D01*
X83188Y-38450D01*
X83537Y-38305D01*
X83804Y-38038D01*
X83949Y-37689D01*
X83950Y-37311D01*
X83950Y-59250D01*
X82900Y-59250D01*
X82900Y-57765D01*
X82900Y-54765D01*
X82900Y-51765D01*
X82900Y-48765D01*
X82900Y-45765D01*
X82900Y-42765D01*
X82900Y-40765D01*
X82900Y-40765D01*
X82900Y-40154D01*
X82900Y-39545D01*
X82877Y-39490D01*
X82835Y-39447D01*
X82779Y-39425D01*
X82720Y-39424D01*
X82650Y-39425D01*
X82612Y-39462D01*
X82612Y-39712D01*
X82862Y-39712D01*
X82900Y-39675D01*
X82900Y-39545D01*
X82900Y-40154D01*
X82900Y-40025D01*
X82862Y-39987D01*
X82612Y-39987D01*
X82612Y-40237D01*
X82650Y-40275D01*
X82720Y-40275D01*
X82779Y-40274D01*
X82835Y-40252D01*
X82877Y-40209D01*
X82900Y-40154D01*
X82900Y-40765D01*
X82835Y-40609D01*
X82716Y-40489D01*
X82559Y-40425D01*
X82390Y-40424D01*
X82337Y-40446D01*
X82337Y-40237D01*
X82337Y-39987D01*
X82337Y-39712D01*
X82337Y-39462D01*
X82300Y-39425D01*
X82229Y-39424D01*
X82170Y-39425D01*
X82114Y-39447D01*
X82072Y-39490D01*
X82049Y-39545D01*
X82050Y-39675D01*
X82087Y-39712D01*
X82337Y-39712D01*
X82337Y-39987D01*
X82087Y-39987D01*
X82050Y-40025D01*
X82049Y-40154D01*
X82072Y-40209D01*
X82114Y-40252D01*
X82170Y-40274D01*
X82229Y-40275D01*
X82300Y-40275D01*
X82337Y-40237D01*
X82337Y-40446D01*
X82234Y-40489D01*
X82114Y-40608D01*
X82050Y-40765D01*
X82049Y-40934D01*
X82114Y-41090D01*
X82233Y-41210D01*
X82390Y-41274D01*
X82559Y-41275D01*
X82715Y-41210D01*
X82835Y-41091D01*
X82899Y-40934D01*
X82900Y-40765D01*
X82900Y-42765D01*
X82900Y-42765D01*
X82900Y-42095D01*
X82900Y-41545D01*
X82877Y-41490D01*
X82835Y-41447D01*
X82779Y-41425D01*
X82720Y-41424D01*
X82170Y-41424D01*
X82115Y-41447D01*
X82072Y-41489D01*
X82050Y-41545D01*
X82049Y-41604D01*
X82049Y-42154D01*
X82072Y-42209D01*
X82114Y-42252D01*
X82170Y-42274D01*
X82229Y-42275D01*
X82779Y-42275D01*
X82834Y-42252D01*
X82877Y-42210D01*
X82899Y-42154D01*
X82900Y-42095D01*
X82900Y-42765D01*
X82835Y-42609D01*
X82716Y-42489D01*
X82559Y-42425D01*
X82390Y-42424D01*
X82234Y-42489D01*
X82114Y-42608D01*
X82050Y-42765D01*
X82049Y-42934D01*
X82114Y-43090D01*
X82233Y-43210D01*
X82390Y-43274D01*
X82559Y-43275D01*
X82715Y-43210D01*
X82835Y-43091D01*
X82899Y-42934D01*
X82900Y-42765D01*
X82900Y-45765D01*
X82900Y-45765D01*
X82900Y-44154D01*
X82900Y-43545D01*
X82877Y-43490D01*
X82835Y-43447D01*
X82779Y-43425D01*
X82720Y-43424D01*
X82650Y-43425D01*
X82612Y-43462D01*
X82612Y-43712D01*
X82862Y-43712D01*
X82900Y-43675D01*
X82900Y-43545D01*
X82900Y-44154D01*
X82900Y-44025D01*
X82862Y-43987D01*
X82612Y-43987D01*
X82612Y-44237D01*
X82650Y-44275D01*
X82720Y-44275D01*
X82779Y-44274D01*
X82835Y-44252D01*
X82877Y-44209D01*
X82900Y-44154D01*
X82900Y-45765D01*
X82835Y-45609D01*
X82716Y-45489D01*
X82559Y-45425D01*
X82390Y-45424D01*
X82337Y-45446D01*
X82337Y-44237D01*
X82337Y-43987D01*
X82337Y-43712D01*
X82337Y-43462D01*
X82300Y-43425D01*
X82229Y-43424D01*
X82170Y-43425D01*
X82114Y-43447D01*
X82072Y-43490D01*
X82049Y-43545D01*
X82050Y-43675D01*
X82087Y-43712D01*
X82337Y-43712D01*
X82337Y-43987D01*
X82087Y-43987D01*
X82050Y-44025D01*
X82049Y-44154D01*
X82072Y-44209D01*
X82114Y-44252D01*
X82170Y-44274D01*
X82229Y-44275D01*
X82300Y-44275D01*
X82337Y-44237D01*
X82337Y-45446D01*
X82234Y-45489D01*
X82114Y-45608D01*
X82050Y-45765D01*
X82049Y-45934D01*
X82114Y-46090D01*
X82233Y-46210D01*
X82390Y-46274D01*
X82559Y-46275D01*
X82715Y-46210D01*
X82835Y-46091D01*
X82899Y-45934D01*
X82900Y-45765D01*
X82900Y-48765D01*
X82900Y-48765D01*
X82900Y-47154D01*
X82900Y-46545D01*
X82877Y-46490D01*
X82835Y-46447D01*
X82779Y-46425D01*
X82720Y-46424D01*
X82650Y-46425D01*
X82612Y-46462D01*
X82612Y-46712D01*
X82862Y-46712D01*
X82900Y-46675D01*
X82900Y-46545D01*
X82900Y-47154D01*
X82900Y-47025D01*
X82862Y-46987D01*
X82612Y-46987D01*
X82612Y-47237D01*
X82650Y-47275D01*
X82720Y-47275D01*
X82779Y-47274D01*
X82835Y-47252D01*
X82877Y-47209D01*
X82900Y-47154D01*
X82900Y-48765D01*
X82835Y-48609D01*
X82716Y-48489D01*
X82559Y-48425D01*
X82390Y-48424D01*
X82337Y-48446D01*
X82337Y-47237D01*
X82337Y-46987D01*
X82337Y-46712D01*
X82337Y-46462D01*
X82300Y-46425D01*
X82229Y-46424D01*
X82170Y-46425D01*
X82114Y-46447D01*
X82072Y-46490D01*
X82049Y-46545D01*
X82050Y-46675D01*
X82087Y-46712D01*
X82337Y-46712D01*
X82337Y-46987D01*
X82087Y-46987D01*
X82050Y-47025D01*
X82049Y-47154D01*
X82072Y-47209D01*
X82114Y-47252D01*
X82170Y-47274D01*
X82229Y-47275D01*
X82300Y-47275D01*
X82337Y-47237D01*
X82337Y-48446D01*
X82234Y-48489D01*
X82114Y-48608D01*
X82050Y-48765D01*
X82049Y-48934D01*
X82114Y-49090D01*
X82233Y-49210D01*
X82390Y-49274D01*
X82559Y-49275D01*
X82715Y-49210D01*
X82835Y-49091D01*
X82899Y-48934D01*
X82900Y-48765D01*
X82900Y-51765D01*
X82900Y-51765D01*
X82900Y-50154D01*
X82900Y-49545D01*
X82877Y-49490D01*
X82835Y-49447D01*
X82779Y-49425D01*
X82720Y-49424D01*
X82650Y-49425D01*
X82612Y-49462D01*
X82612Y-49712D01*
X82862Y-49712D01*
X82900Y-49675D01*
X82900Y-49545D01*
X82900Y-50154D01*
X82900Y-50025D01*
X82862Y-49987D01*
X82612Y-49987D01*
X82612Y-50237D01*
X82650Y-50275D01*
X82720Y-50275D01*
X82779Y-50274D01*
X82835Y-50252D01*
X82877Y-50209D01*
X82900Y-50154D01*
X82900Y-51765D01*
X82835Y-51609D01*
X82716Y-51489D01*
X82559Y-51425D01*
X82390Y-51424D01*
X82337Y-51446D01*
X82337Y-50237D01*
X82337Y-49987D01*
X82337Y-49712D01*
X82337Y-49462D01*
X82300Y-49425D01*
X82229Y-49424D01*
X82170Y-49425D01*
X82114Y-49447D01*
X82072Y-49490D01*
X82049Y-49545D01*
X82050Y-49675D01*
X82087Y-49712D01*
X82337Y-49712D01*
X82337Y-49987D01*
X82087Y-49987D01*
X82050Y-50025D01*
X82049Y-50154D01*
X82072Y-50209D01*
X82114Y-50252D01*
X82170Y-50274D01*
X82229Y-50275D01*
X82300Y-50275D01*
X82337Y-50237D01*
X82337Y-51446D01*
X82234Y-51489D01*
X82114Y-51608D01*
X82050Y-51765D01*
X82049Y-51934D01*
X82114Y-52090D01*
X82233Y-52210D01*
X82390Y-52274D01*
X82559Y-52275D01*
X82715Y-52210D01*
X82835Y-52091D01*
X82899Y-51934D01*
X82900Y-51765D01*
X82900Y-54765D01*
X82900Y-54765D01*
X82900Y-53154D01*
X82900Y-52545D01*
X82877Y-52490D01*
X82835Y-52447D01*
X82779Y-52425D01*
X82720Y-52424D01*
X82650Y-52425D01*
X82612Y-52462D01*
X82612Y-52712D01*
X82862Y-52712D01*
X82900Y-52675D01*
X82900Y-52545D01*
X82900Y-53154D01*
X82900Y-53025D01*
X82862Y-52987D01*
X82612Y-52987D01*
X82612Y-53237D01*
X82650Y-53275D01*
X82720Y-53275D01*
X82779Y-53274D01*
X82835Y-53252D01*
X82877Y-53209D01*
X82900Y-53154D01*
X82900Y-54765D01*
X82835Y-54609D01*
X82716Y-54489D01*
X82559Y-54425D01*
X82390Y-54424D01*
X82337Y-54446D01*
X82337Y-53237D01*
X82337Y-52987D01*
X82337Y-52712D01*
X82337Y-52462D01*
X82300Y-52425D01*
X82229Y-52424D01*
X82170Y-52425D01*
X82114Y-52447D01*
X82072Y-52490D01*
X82049Y-52545D01*
X82050Y-52675D01*
X82087Y-52712D01*
X82337Y-52712D01*
X82337Y-52987D01*
X82087Y-52987D01*
X82050Y-53025D01*
X82049Y-53154D01*
X82072Y-53209D01*
X82114Y-53252D01*
X82170Y-53274D01*
X82229Y-53275D01*
X82300Y-53275D01*
X82337Y-53237D01*
X82337Y-54446D01*
X82234Y-54489D01*
X82114Y-54608D01*
X82050Y-54765D01*
X82049Y-54934D01*
X82114Y-55090D01*
X82233Y-55210D01*
X82390Y-55274D01*
X82559Y-55275D01*
X82715Y-55210D01*
X82835Y-55091D01*
X82899Y-54934D01*
X82900Y-54765D01*
X82900Y-57765D01*
X82900Y-57765D01*
X82900Y-56154D01*
X82900Y-55545D01*
X82877Y-55490D01*
X82835Y-55447D01*
X82779Y-55425D01*
X82720Y-55424D01*
X82650Y-55425D01*
X82612Y-55462D01*
X82612Y-55712D01*
X82862Y-55712D01*
X82900Y-55675D01*
X82900Y-55545D01*
X82900Y-56154D01*
X82900Y-56025D01*
X82862Y-55987D01*
X82612Y-55987D01*
X82612Y-56237D01*
X82650Y-56275D01*
X82720Y-56275D01*
X82779Y-56274D01*
X82835Y-56252D01*
X82877Y-56209D01*
X82900Y-56154D01*
X82900Y-57765D01*
X82835Y-57609D01*
X82716Y-57489D01*
X82559Y-57425D01*
X82390Y-57424D01*
X82337Y-57446D01*
X82337Y-56237D01*
X82337Y-55987D01*
X82337Y-55712D01*
X82337Y-55462D01*
X82300Y-55425D01*
X82229Y-55424D01*
X82170Y-55425D01*
X82114Y-55447D01*
X82072Y-55490D01*
X82049Y-55545D01*
X82050Y-55675D01*
X82087Y-55712D01*
X82337Y-55712D01*
X82337Y-55987D01*
X82087Y-55987D01*
X82050Y-56025D01*
X82049Y-56154D01*
X82072Y-56209D01*
X82114Y-56252D01*
X82170Y-56274D01*
X82229Y-56275D01*
X82300Y-56275D01*
X82337Y-56237D01*
X82337Y-57446D01*
X82234Y-57489D01*
X82114Y-57608D01*
X82050Y-57765D01*
X82049Y-57934D01*
X82114Y-58090D01*
X82233Y-58210D01*
X82390Y-58274D01*
X82559Y-58275D01*
X82715Y-58210D01*
X82835Y-58091D01*
X82899Y-57934D01*
X82900Y-57765D01*
X82900Y-59250D01*
X82837Y-59250D01*
X82877Y-59209D01*
X82900Y-59154D01*
X82900Y-58545D01*
X82877Y-58490D01*
X82835Y-58447D01*
X82779Y-58425D01*
X82720Y-58424D01*
X82650Y-58425D01*
X82612Y-58462D01*
X82612Y-58712D01*
X82862Y-58712D01*
X82900Y-58675D01*
X82900Y-58545D01*
X82900Y-59154D01*
X82900Y-59025D01*
X82862Y-58987D01*
X82612Y-58987D01*
X82612Y-59057D01*
X82337Y-59057D01*
X82337Y-58987D01*
X82337Y-58712D01*
X82337Y-58462D01*
X82300Y-58425D01*
X82229Y-58424D01*
X82170Y-58425D01*
X82114Y-58447D01*
X82072Y-58490D01*
X82049Y-58545D01*
X82050Y-58675D01*
X82087Y-58712D01*
X82337Y-58712D01*
X82337Y-58987D01*
X82087Y-58987D01*
X82050Y-59025D01*
X82049Y-59154D01*
X82072Y-59209D01*
X82112Y-59250D01*
X81950Y-59250D01*
X81950Y-50965D01*
X81950Y-47965D01*
X81950Y-47965D01*
X81950Y-47354D01*
X81950Y-46745D01*
X81950Y-39995D01*
X81950Y-39445D01*
X81927Y-39390D01*
X81925Y-39387D01*
X81925Y-38665D01*
X81860Y-38509D01*
X81741Y-38389D01*
X81584Y-38325D01*
X81415Y-38324D01*
X81259Y-38389D01*
X81139Y-38508D01*
X81075Y-38665D01*
X81074Y-38834D01*
X81139Y-38990D01*
X81258Y-39110D01*
X81415Y-39174D01*
X81584Y-39175D01*
X81740Y-39110D01*
X81860Y-38991D01*
X81924Y-38834D01*
X81925Y-38665D01*
X81925Y-39387D01*
X81885Y-39347D01*
X81829Y-39325D01*
X81770Y-39324D01*
X81220Y-39324D01*
X81165Y-39347D01*
X81122Y-39389D01*
X81100Y-39445D01*
X81099Y-39504D01*
X81099Y-40054D01*
X81122Y-40109D01*
X81164Y-40152D01*
X81220Y-40174D01*
X81279Y-40175D01*
X81829Y-40175D01*
X81884Y-40152D01*
X81927Y-40110D01*
X81949Y-40054D01*
X81950Y-39995D01*
X81950Y-46745D01*
X81927Y-46690D01*
X81900Y-46662D01*
X81900Y-45015D01*
X81900Y-41765D01*
X81835Y-41609D01*
X81716Y-41489D01*
X81559Y-41425D01*
X81390Y-41424D01*
X81234Y-41489D01*
X81114Y-41608D01*
X81050Y-41765D01*
X81049Y-41934D01*
X81114Y-42090D01*
X81233Y-42210D01*
X81390Y-42274D01*
X81559Y-42275D01*
X81715Y-42210D01*
X81835Y-42091D01*
X81899Y-41934D01*
X81900Y-41765D01*
X81900Y-45015D01*
X81900Y-45015D01*
X81900Y-44404D01*
X81900Y-43795D01*
X81877Y-43740D01*
X81835Y-43697D01*
X81779Y-43675D01*
X81720Y-43674D01*
X81650Y-43675D01*
X81612Y-43712D01*
X81612Y-43962D01*
X81862Y-43962D01*
X81900Y-43925D01*
X81900Y-43795D01*
X81900Y-44404D01*
X81900Y-44275D01*
X81862Y-44237D01*
X81612Y-44237D01*
X81612Y-44487D01*
X81650Y-44525D01*
X81720Y-44525D01*
X81779Y-44524D01*
X81835Y-44502D01*
X81877Y-44459D01*
X81900Y-44404D01*
X81900Y-45015D01*
X81835Y-44859D01*
X81716Y-44739D01*
X81559Y-44675D01*
X81390Y-44674D01*
X81337Y-44696D01*
X81337Y-44487D01*
X81337Y-44237D01*
X81337Y-43962D01*
X81337Y-43712D01*
X81300Y-43675D01*
X81229Y-43674D01*
X81170Y-43675D01*
X81114Y-43697D01*
X81072Y-43740D01*
X81049Y-43795D01*
X81050Y-43925D01*
X81087Y-43962D01*
X81337Y-43962D01*
X81337Y-44237D01*
X81087Y-44237D01*
X81050Y-44275D01*
X81049Y-44404D01*
X81072Y-44459D01*
X81114Y-44502D01*
X81170Y-44524D01*
X81229Y-44525D01*
X81300Y-44525D01*
X81337Y-44487D01*
X81337Y-44696D01*
X81234Y-44739D01*
X81114Y-44858D01*
X81050Y-45015D01*
X81049Y-45184D01*
X81114Y-45340D01*
X81233Y-45460D01*
X81390Y-45524D01*
X81559Y-45525D01*
X81715Y-45460D01*
X81835Y-45341D01*
X81899Y-45184D01*
X81900Y-45015D01*
X81900Y-46662D01*
X81885Y-46647D01*
X81829Y-46625D01*
X81770Y-46624D01*
X81700Y-46625D01*
X81662Y-46662D01*
X81662Y-46912D01*
X81912Y-46912D01*
X81950Y-46875D01*
X81950Y-46745D01*
X81950Y-47354D01*
X81950Y-47225D01*
X81912Y-47187D01*
X81662Y-47187D01*
X81662Y-47437D01*
X81700Y-47475D01*
X81770Y-47475D01*
X81829Y-47474D01*
X81885Y-47452D01*
X81927Y-47409D01*
X81950Y-47354D01*
X81950Y-47965D01*
X81885Y-47809D01*
X81766Y-47689D01*
X81609Y-47625D01*
X81440Y-47624D01*
X81387Y-47646D01*
X81387Y-47437D01*
X81387Y-47187D01*
X81387Y-46912D01*
X81387Y-46662D01*
X81350Y-46625D01*
X81279Y-46624D01*
X81220Y-46625D01*
X81164Y-46647D01*
X81122Y-46690D01*
X81099Y-46745D01*
X81100Y-46875D01*
X81137Y-46912D01*
X81387Y-46912D01*
X81387Y-47187D01*
X81137Y-47187D01*
X81100Y-47225D01*
X81099Y-47354D01*
X81122Y-47409D01*
X81164Y-47452D01*
X81220Y-47474D01*
X81279Y-47475D01*
X81350Y-47475D01*
X81387Y-47437D01*
X81387Y-47646D01*
X81284Y-47689D01*
X81164Y-47808D01*
X81100Y-47965D01*
X81099Y-48134D01*
X81164Y-48290D01*
X81283Y-48410D01*
X81440Y-48474D01*
X81609Y-48475D01*
X81765Y-48410D01*
X81885Y-48291D01*
X81949Y-48134D01*
X81950Y-47965D01*
X81950Y-50965D01*
X81950Y-50965D01*
X81950Y-50354D01*
X81950Y-49745D01*
X81927Y-49690D01*
X81885Y-49647D01*
X81829Y-49625D01*
X81770Y-49624D01*
X81700Y-49625D01*
X81662Y-49662D01*
X81662Y-49912D01*
X81912Y-49912D01*
X81950Y-49875D01*
X81950Y-49745D01*
X81950Y-50354D01*
X81950Y-50225D01*
X81912Y-50187D01*
X81662Y-50187D01*
X81662Y-50437D01*
X81700Y-50475D01*
X81770Y-50475D01*
X81829Y-50474D01*
X81885Y-50452D01*
X81927Y-50409D01*
X81950Y-50354D01*
X81950Y-50965D01*
X81885Y-50809D01*
X81766Y-50689D01*
X81609Y-50625D01*
X81440Y-50624D01*
X81387Y-50646D01*
X81387Y-50437D01*
X81387Y-50187D01*
X81387Y-49912D01*
X81387Y-49662D01*
X81350Y-49625D01*
X81279Y-49624D01*
X81220Y-49625D01*
X81164Y-49647D01*
X81122Y-49690D01*
X81099Y-49745D01*
X81100Y-49875D01*
X81137Y-49912D01*
X81387Y-49912D01*
X81387Y-50187D01*
X81137Y-50187D01*
X81100Y-50225D01*
X81099Y-50354D01*
X81122Y-50409D01*
X81164Y-50452D01*
X81220Y-50474D01*
X81279Y-50475D01*
X81350Y-50475D01*
X81387Y-50437D01*
X81387Y-50646D01*
X81284Y-50689D01*
X81164Y-50808D01*
X81100Y-50965D01*
X81099Y-51134D01*
X81164Y-51290D01*
X81283Y-51410D01*
X81440Y-51474D01*
X81609Y-51475D01*
X81765Y-51410D01*
X81885Y-51291D01*
X81949Y-51134D01*
X81950Y-50965D01*
X81950Y-59250D01*
X81900Y-59250D01*
X81900Y-57015D01*
X81900Y-54015D01*
X81900Y-54015D01*
X81900Y-53404D01*
X81900Y-52795D01*
X81877Y-52740D01*
X81835Y-52697D01*
X81779Y-52675D01*
X81720Y-52674D01*
X81650Y-52675D01*
X81612Y-52712D01*
X81612Y-52962D01*
X81862Y-52962D01*
X81900Y-52925D01*
X81900Y-52795D01*
X81900Y-53404D01*
X81900Y-53275D01*
X81862Y-53237D01*
X81612Y-53237D01*
X81612Y-53487D01*
X81650Y-53525D01*
X81720Y-53525D01*
X81779Y-53524D01*
X81835Y-53502D01*
X81877Y-53459D01*
X81900Y-53404D01*
X81900Y-54015D01*
X81835Y-53859D01*
X81716Y-53739D01*
X81559Y-53675D01*
X81390Y-53674D01*
X81337Y-53696D01*
X81337Y-53487D01*
X81337Y-53237D01*
X81337Y-52962D01*
X81337Y-52712D01*
X81300Y-52675D01*
X81229Y-52674D01*
X81170Y-52675D01*
X81114Y-52697D01*
X81072Y-52740D01*
X81049Y-52795D01*
X81050Y-52925D01*
X81087Y-52962D01*
X81337Y-52962D01*
X81337Y-53237D01*
X81087Y-53237D01*
X81050Y-53275D01*
X81049Y-53404D01*
X81072Y-53459D01*
X81114Y-53502D01*
X81170Y-53524D01*
X81229Y-53525D01*
X81300Y-53525D01*
X81337Y-53487D01*
X81337Y-53696D01*
X81234Y-53739D01*
X81114Y-53858D01*
X81050Y-54015D01*
X81049Y-54184D01*
X81114Y-54340D01*
X81233Y-54460D01*
X81390Y-54524D01*
X81559Y-54525D01*
X81715Y-54460D01*
X81835Y-54341D01*
X81899Y-54184D01*
X81900Y-54015D01*
X81900Y-57015D01*
X81900Y-57015D01*
X81900Y-56404D01*
X81900Y-55795D01*
X81877Y-55740D01*
X81835Y-55697D01*
X81779Y-55675D01*
X81720Y-55674D01*
X81650Y-55675D01*
X81612Y-55712D01*
X81612Y-55962D01*
X81862Y-55962D01*
X81900Y-55925D01*
X81900Y-55795D01*
X81900Y-56404D01*
X81900Y-56275D01*
X81862Y-56237D01*
X81612Y-56237D01*
X81612Y-56487D01*
X81650Y-56525D01*
X81720Y-56525D01*
X81779Y-56524D01*
X81835Y-56502D01*
X81877Y-56459D01*
X81900Y-56404D01*
X81900Y-57015D01*
X81835Y-56859D01*
X81716Y-56739D01*
X81559Y-56675D01*
X81390Y-56674D01*
X81337Y-56696D01*
X81337Y-56487D01*
X81337Y-56237D01*
X81337Y-55962D01*
X81337Y-55712D01*
X81300Y-55675D01*
X81229Y-55674D01*
X81170Y-55675D01*
X81114Y-55697D01*
X81072Y-55740D01*
X81049Y-55795D01*
X81050Y-55925D01*
X81087Y-55962D01*
X81337Y-55962D01*
X81337Y-56237D01*
X81087Y-56237D01*
X81050Y-56275D01*
X81049Y-56404D01*
X81072Y-56459D01*
X81114Y-56502D01*
X81170Y-56524D01*
X81229Y-56525D01*
X81300Y-56525D01*
X81337Y-56487D01*
X81337Y-56696D01*
X81234Y-56739D01*
X81114Y-56858D01*
X81050Y-57015D01*
X81049Y-57184D01*
X81114Y-57340D01*
X81233Y-57460D01*
X81390Y-57524D01*
X81559Y-57525D01*
X81715Y-57460D01*
X81835Y-57341D01*
X81899Y-57184D01*
X81900Y-57015D01*
X81900Y-59250D01*
X80075Y-59250D01*
X80075Y-38245D01*
X80075Y-37304D01*
X80074Y-37245D01*
X80052Y-37189D01*
X80009Y-37147D01*
X79954Y-37124D01*
X79662Y-37125D01*
X79625Y-37162D01*
X79625Y-37575D01*
X80037Y-37575D01*
X80075Y-37537D01*
X80075Y-37304D01*
X80075Y-38245D01*
X80075Y-38012D01*
X80037Y-37975D01*
X79625Y-37975D01*
X79625Y-38387D01*
X79662Y-38425D01*
X79954Y-38425D01*
X80009Y-38402D01*
X80052Y-38360D01*
X80074Y-38304D01*
X80075Y-38245D01*
X80075Y-59250D01*
X79225Y-59250D01*
X79225Y-38387D01*
X79225Y-37975D01*
X79225Y-37575D01*
X79225Y-37162D01*
X79187Y-37125D01*
X78895Y-37124D01*
X78840Y-37147D01*
X78797Y-37189D01*
X78775Y-37245D01*
X78774Y-37304D01*
X78775Y-37537D01*
X78812Y-37575D01*
X79225Y-37575D01*
X79225Y-37975D01*
X78812Y-37975D01*
X78775Y-38012D01*
X78774Y-38245D01*
X78775Y-38304D01*
X78797Y-38360D01*
X78840Y-38402D01*
X78895Y-38425D01*
X79187Y-38425D01*
X79225Y-38387D01*
X79225Y-59250D01*
X78150Y-59250D01*
X78150Y-38880D01*
X78096Y-38752D01*
X78075Y-38730D01*
X78075Y-37646D01*
X77976Y-37407D01*
X77793Y-37224D01*
X77554Y-37125D01*
X77296Y-37124D01*
X77057Y-37223D01*
X76874Y-37406D01*
X76775Y-37645D01*
X76774Y-37903D01*
X76873Y-38142D01*
X77056Y-38325D01*
X77295Y-38424D01*
X77553Y-38425D01*
X77792Y-38326D01*
X77975Y-38143D01*
X78074Y-37904D01*
X78075Y-37646D01*
X78075Y-38730D01*
X77998Y-38653D01*
X77869Y-38600D01*
X77730Y-38599D01*
X77609Y-38650D01*
X76582Y-38650D01*
X76005Y-38072D01*
X76074Y-37904D01*
X76075Y-37646D01*
X75976Y-37407D01*
X75793Y-37224D01*
X75554Y-37125D01*
X75296Y-37124D01*
X75057Y-37223D01*
X74874Y-37406D01*
X74775Y-37645D01*
X74774Y-37903D01*
X74873Y-38142D01*
X75056Y-38325D01*
X75295Y-38424D01*
X75553Y-38425D01*
X75722Y-38355D01*
X76358Y-38991D01*
X76423Y-39034D01*
X76423Y-39034D01*
X76500Y-39050D01*
X77462Y-39050D01*
X77503Y-39148D01*
X77601Y-39246D01*
X77730Y-39299D01*
X77869Y-39300D01*
X77998Y-39246D01*
X78096Y-39148D01*
X78149Y-39019D01*
X78150Y-38880D01*
X78150Y-59250D01*
X71875Y-59250D01*
X71875Y-52425D01*
X71818Y-52287D01*
X71712Y-52182D01*
X71574Y-52125D01*
X71456Y-52124D01*
X71456Y-49939D01*
X71438Y-49850D01*
X71384Y-49811D01*
X71212Y-49984D01*
X71384Y-50156D01*
X71438Y-50117D01*
X71456Y-49939D01*
X71456Y-52124D01*
X71428Y-52124D01*
X71449Y-52073D01*
X71450Y-51894D01*
X71450Y-50894D01*
X71381Y-50729D01*
X71255Y-50602D01*
X71172Y-50568D01*
X71172Y-50368D01*
X71172Y-49599D01*
X71133Y-49545D01*
X70955Y-49527D01*
X70866Y-49545D01*
X70827Y-49599D01*
X71000Y-49771D01*
X71172Y-49599D01*
X71172Y-50368D01*
X71000Y-50196D01*
X70827Y-50368D01*
X70866Y-50422D01*
X71044Y-50440D01*
X71133Y-50422D01*
X71172Y-50368D01*
X71172Y-50568D01*
X71089Y-50534D01*
X70910Y-50533D01*
X70787Y-50584D01*
X70787Y-49984D01*
X70615Y-49811D01*
X70561Y-49850D01*
X70543Y-50028D01*
X70561Y-50117D01*
X70615Y-50156D01*
X70787Y-49984D01*
X70787Y-50584D01*
X70745Y-50602D01*
X70618Y-50728D01*
X70550Y-50894D01*
X70549Y-51073D01*
X70618Y-51238D01*
X70744Y-51365D01*
X70910Y-51433D01*
X71089Y-51434D01*
X71254Y-51365D01*
X71381Y-51239D01*
X71449Y-51073D01*
X71450Y-50894D01*
X71450Y-51894D01*
X71381Y-51729D01*
X71255Y-51602D01*
X71089Y-51534D01*
X70910Y-51533D01*
X70745Y-51602D01*
X70618Y-51728D01*
X70550Y-51894D01*
X70549Y-52073D01*
X70618Y-52238D01*
X70744Y-52365D01*
X70910Y-52433D01*
X71089Y-52434D01*
X71128Y-52418D01*
X71125Y-52425D01*
X71124Y-52548D01*
X71089Y-52534D01*
X70910Y-52533D01*
X70745Y-52602D01*
X70618Y-52728D01*
X70550Y-52894D01*
X70549Y-53073D01*
X70618Y-53238D01*
X70744Y-53365D01*
X70910Y-53433D01*
X71089Y-53434D01*
X71254Y-53365D01*
X71381Y-53239D01*
X71449Y-53073D01*
X71450Y-52894D01*
X71441Y-52874D01*
X71574Y-52875D01*
X71712Y-52818D01*
X71817Y-52712D01*
X71874Y-52574D01*
X71875Y-52425D01*
X71875Y-59250D01*
X71370Y-59250D01*
X71381Y-59239D01*
X71449Y-59073D01*
X71450Y-58894D01*
X71450Y-57894D01*
X71450Y-56894D01*
X71450Y-55894D01*
X71450Y-54894D01*
X71450Y-53894D01*
X71381Y-53729D01*
X71255Y-53602D01*
X71089Y-53534D01*
X70910Y-53533D01*
X70745Y-53602D01*
X70618Y-53728D01*
X70550Y-53894D01*
X70549Y-54073D01*
X70618Y-54238D01*
X70744Y-54365D01*
X70910Y-54433D01*
X71089Y-54434D01*
X71254Y-54365D01*
X71381Y-54239D01*
X71449Y-54073D01*
X71450Y-53894D01*
X71450Y-54894D01*
X71381Y-54729D01*
X71255Y-54602D01*
X71089Y-54534D01*
X70910Y-54533D01*
X70745Y-54602D01*
X70618Y-54728D01*
X70550Y-54894D01*
X70549Y-55073D01*
X70618Y-55238D01*
X70744Y-55365D01*
X70910Y-55433D01*
X71089Y-55434D01*
X71254Y-55365D01*
X71381Y-55239D01*
X71449Y-55073D01*
X71450Y-54894D01*
X71450Y-55894D01*
X71381Y-55729D01*
X71255Y-55602D01*
X71089Y-55534D01*
X70910Y-55533D01*
X70745Y-55602D01*
X70618Y-55728D01*
X70550Y-55894D01*
X70549Y-56073D01*
X70618Y-56238D01*
X70744Y-56365D01*
X70910Y-56433D01*
X71089Y-56434D01*
X71254Y-56365D01*
X71381Y-56239D01*
X71449Y-56073D01*
X71450Y-55894D01*
X71450Y-56894D01*
X71381Y-56729D01*
X71255Y-56602D01*
X71089Y-56534D01*
X70910Y-56533D01*
X70745Y-56602D01*
X70618Y-56728D01*
X70550Y-56894D01*
X70549Y-57073D01*
X70618Y-57238D01*
X70744Y-57365D01*
X70910Y-57433D01*
X71089Y-57434D01*
X71254Y-57365D01*
X71381Y-57239D01*
X71449Y-57073D01*
X71450Y-56894D01*
X71450Y-57894D01*
X71381Y-57729D01*
X71255Y-57602D01*
X71089Y-57534D01*
X70910Y-57533D01*
X70745Y-57602D01*
X70618Y-57728D01*
X70550Y-57894D01*
X70549Y-58073D01*
X70618Y-58238D01*
X70744Y-58365D01*
X70910Y-58433D01*
X71089Y-58434D01*
X71254Y-58365D01*
X71381Y-58239D01*
X71449Y-58073D01*
X71450Y-57894D01*
X71450Y-58894D01*
X71381Y-58729D01*
X71255Y-58602D01*
X71089Y-58534D01*
X70910Y-58533D01*
X70745Y-58602D01*
X70618Y-58728D01*
X70550Y-58894D01*
X70549Y-59073D01*
X70618Y-59238D01*
X70629Y-59250D01*
X70370Y-59250D01*
X70381Y-59239D01*
X70449Y-59073D01*
X70450Y-58894D01*
X70450Y-57894D01*
X70450Y-56894D01*
X70450Y-55894D01*
X70450Y-54894D01*
X70450Y-53894D01*
X70381Y-53729D01*
X70255Y-53602D01*
X70089Y-53534D01*
X69910Y-53533D01*
X69874Y-53548D01*
X69875Y-53425D01*
X69871Y-53418D01*
X69910Y-53433D01*
X70089Y-53434D01*
X70254Y-53365D01*
X70381Y-53239D01*
X70449Y-53073D01*
X70450Y-52894D01*
X70450Y-51894D01*
X70450Y-50894D01*
X70450Y-50894D01*
X70450Y-50313D01*
X70450Y-49654D01*
X70427Y-49599D01*
X70385Y-49556D01*
X70329Y-49534D01*
X70270Y-49533D01*
X70187Y-49534D01*
X70150Y-49571D01*
X70150Y-49834D01*
X70412Y-49834D01*
X70450Y-49796D01*
X70450Y-49654D01*
X70450Y-50313D01*
X70450Y-50171D01*
X70412Y-50134D01*
X70150Y-50134D01*
X70150Y-50396D01*
X70187Y-50434D01*
X70270Y-50434D01*
X70329Y-50433D01*
X70385Y-50411D01*
X70427Y-50368D01*
X70450Y-50313D01*
X70450Y-50894D01*
X70381Y-50729D01*
X70255Y-50602D01*
X70089Y-50534D01*
X69910Y-50533D01*
X69850Y-50559D01*
X69850Y-50396D01*
X69850Y-50134D01*
X69587Y-50134D01*
X69550Y-50171D01*
X69549Y-50313D01*
X69572Y-50368D01*
X69614Y-50411D01*
X69670Y-50433D01*
X69729Y-50434D01*
X69812Y-50434D01*
X69850Y-50396D01*
X69850Y-50559D01*
X69745Y-50602D01*
X69618Y-50728D01*
X69550Y-50894D01*
X69549Y-51073D01*
X69618Y-51238D01*
X69744Y-51365D01*
X69910Y-51433D01*
X70089Y-51434D01*
X70254Y-51365D01*
X70381Y-51239D01*
X70449Y-51073D01*
X70450Y-50894D01*
X70450Y-51894D01*
X70381Y-51729D01*
X70255Y-51602D01*
X70089Y-51534D01*
X69910Y-51533D01*
X69745Y-51602D01*
X69618Y-51728D01*
X69550Y-51894D01*
X69549Y-52073D01*
X69618Y-52238D01*
X69744Y-52365D01*
X69910Y-52433D01*
X70089Y-52434D01*
X70254Y-52365D01*
X70381Y-52239D01*
X70449Y-52073D01*
X70450Y-51894D01*
X70450Y-52894D01*
X70381Y-52729D01*
X70255Y-52602D01*
X70089Y-52534D01*
X69910Y-52533D01*
X69745Y-52602D01*
X69618Y-52728D01*
X69550Y-52894D01*
X69549Y-53073D01*
X69571Y-53125D01*
X69425Y-53124D01*
X69287Y-53181D01*
X69182Y-53287D01*
X69125Y-53425D01*
X69124Y-53574D01*
X69181Y-53712D01*
X69287Y-53817D01*
X69425Y-53874D01*
X69557Y-53875D01*
X69550Y-53894D01*
X69549Y-54073D01*
X69618Y-54238D01*
X69744Y-54365D01*
X69910Y-54433D01*
X70089Y-54434D01*
X70254Y-54365D01*
X70381Y-54239D01*
X70449Y-54073D01*
X70450Y-53894D01*
X70450Y-54894D01*
X70381Y-54729D01*
X70255Y-54602D01*
X70089Y-54534D01*
X69910Y-54533D01*
X69745Y-54602D01*
X69618Y-54728D01*
X69550Y-54894D01*
X69549Y-55073D01*
X69618Y-55238D01*
X69744Y-55365D01*
X69910Y-55433D01*
X70089Y-55434D01*
X70254Y-55365D01*
X70381Y-55239D01*
X70449Y-55073D01*
X70450Y-54894D01*
X70450Y-55894D01*
X70381Y-55729D01*
X70255Y-55602D01*
X70089Y-55534D01*
X69910Y-55533D01*
X69745Y-55602D01*
X69618Y-55728D01*
X69550Y-55894D01*
X69549Y-56073D01*
X69618Y-56238D01*
X69744Y-56365D01*
X69910Y-56433D01*
X70089Y-56434D01*
X70254Y-56365D01*
X70381Y-56239D01*
X70449Y-56073D01*
X70450Y-55894D01*
X70450Y-56894D01*
X70381Y-56729D01*
X70255Y-56602D01*
X70089Y-56534D01*
X69910Y-56533D01*
X69745Y-56602D01*
X69618Y-56728D01*
X69550Y-56894D01*
X69549Y-57073D01*
X69618Y-57238D01*
X69744Y-57365D01*
X69910Y-57433D01*
X70089Y-57434D01*
X70254Y-57365D01*
X70381Y-57239D01*
X70449Y-57073D01*
X70450Y-56894D01*
X70450Y-57894D01*
X70381Y-57729D01*
X70255Y-57602D01*
X70089Y-57534D01*
X69910Y-57533D01*
X69745Y-57602D01*
X69618Y-57728D01*
X69550Y-57894D01*
X69549Y-58073D01*
X69618Y-58238D01*
X69744Y-58365D01*
X69910Y-58433D01*
X70089Y-58434D01*
X70254Y-58365D01*
X70381Y-58239D01*
X70449Y-58073D01*
X70450Y-57894D01*
X70450Y-58894D01*
X70381Y-58729D01*
X70255Y-58602D01*
X70089Y-58534D01*
X69910Y-58533D01*
X69745Y-58602D01*
X69618Y-58728D01*
X69550Y-58894D01*
X69549Y-59073D01*
X69618Y-59238D01*
X69629Y-59250D01*
X68269Y-59250D01*
X68269Y-49969D01*
X69200Y-49969D01*
X69264Y-49956D01*
X69264Y-49956D01*
X69319Y-49919D01*
X69549Y-49689D01*
X69550Y-49796D01*
X69587Y-49834D01*
X69850Y-49834D01*
X69850Y-49571D01*
X69812Y-49534D01*
X69729Y-49533D01*
X69705Y-49533D01*
X69770Y-49469D01*
X71550Y-49469D01*
X71614Y-49456D01*
X71614Y-49456D01*
X71669Y-49419D01*
X72069Y-49019D01*
X72069Y-49019D01*
X72069Y-49019D01*
X72106Y-48964D01*
X72119Y-48900D01*
X72119Y-48900D01*
X72119Y-44481D01*
X72305Y-44332D01*
X72311Y-44325D01*
X72319Y-44319D01*
X72334Y-44298D01*
X72348Y-44281D01*
X72351Y-44273D01*
X72356Y-44264D01*
X72361Y-44239D01*
X72368Y-44218D01*
X72367Y-44209D01*
X72369Y-44200D01*
X72369Y-40570D01*
X72719Y-40219D01*
X72719Y-40219D01*
X72719Y-40219D01*
X72756Y-40164D01*
X72769Y-40100D01*
X72769Y-40100D01*
X72769Y-39820D01*
X74419Y-38169D01*
X74456Y-38114D01*
X74456Y-38114D01*
X74469Y-38050D01*
X74469Y-36419D01*
X86414Y-36419D01*
X86414Y-59250D01*
X86414Y-59250D01*
G37*
G54D22*
X86414Y-59250D02*
X86260Y-59250D01*
X86260Y-58525D01*
X86260Y-51635D01*
X86260Y-44745D01*
X86254Y-44713D01*
X86254Y-43327D01*
X86254Y-41949D01*
X86254Y-40571D01*
X86254Y-39193D01*
X86254Y-39193D01*
X86254Y-38299D01*
X86254Y-37531D01*
X86231Y-37476D01*
X86189Y-37433D01*
X86134Y-37411D01*
X86074Y-37410D01*
X85964Y-37411D01*
X85927Y-37448D01*
X85927Y-37738D01*
X86216Y-37738D01*
X86254Y-37700D01*
X86254Y-37531D01*
X86254Y-38299D01*
X86254Y-38130D01*
X86216Y-38092D01*
X85927Y-38092D01*
X85927Y-38382D01*
X85964Y-38419D01*
X86074Y-38419D01*
X86134Y-38419D01*
X86189Y-38396D01*
X86231Y-38354D01*
X86254Y-38299D01*
X86254Y-39193D01*
X86177Y-39008D01*
X86036Y-38866D01*
X85850Y-38789D01*
X85650Y-38788D01*
X85572Y-38820D01*
X85572Y-38382D01*
X85572Y-38092D01*
X85572Y-37738D01*
X85572Y-37448D01*
X85535Y-37411D01*
X85425Y-37410D01*
X85365Y-37411D01*
X85310Y-37433D01*
X85268Y-37476D01*
X85245Y-37531D01*
X85245Y-37700D01*
X85283Y-37738D01*
X85572Y-37738D01*
X85572Y-38092D01*
X85283Y-38092D01*
X85245Y-38130D01*
X85245Y-38299D01*
X85268Y-38354D01*
X85310Y-38396D01*
X85365Y-38419D01*
X85425Y-38419D01*
X85535Y-38419D01*
X85572Y-38382D01*
X85572Y-38820D01*
X85464Y-38865D01*
X85322Y-39007D01*
X85245Y-39192D01*
X85245Y-39393D01*
X85322Y-39578D01*
X85463Y-39720D01*
X85649Y-39797D01*
X85849Y-39797D01*
X86035Y-39721D01*
X86177Y-39579D01*
X86254Y-39394D01*
X86254Y-39193D01*
X86254Y-40571D01*
X86177Y-40385D01*
X86036Y-40243D01*
X85850Y-40167D01*
X85650Y-40166D01*
X85464Y-40243D01*
X85322Y-40385D01*
X85245Y-40570D01*
X85245Y-40771D01*
X85322Y-40956D01*
X85463Y-41098D01*
X85649Y-41175D01*
X85849Y-41175D01*
X86035Y-41099D01*
X86177Y-40957D01*
X86254Y-40772D01*
X86254Y-40571D01*
X86254Y-41949D01*
X86177Y-41763D01*
X86036Y-41621D01*
X85850Y-41544D01*
X85650Y-41544D01*
X85464Y-41621D01*
X85322Y-41763D01*
X85245Y-41948D01*
X85245Y-42149D01*
X85322Y-42334D01*
X85463Y-42476D01*
X85649Y-42553D01*
X85849Y-42553D01*
X86035Y-42477D01*
X86177Y-42335D01*
X86254Y-42149D01*
X86254Y-41949D01*
X86254Y-43327D01*
X86177Y-43141D01*
X86036Y-42999D01*
X85850Y-42922D01*
X85650Y-42922D01*
X85464Y-42999D01*
X85322Y-43141D01*
X85245Y-43326D01*
X85245Y-43527D01*
X85322Y-43712D01*
X85463Y-43854D01*
X85649Y-43931D01*
X85849Y-43931D01*
X86035Y-43854D01*
X86177Y-43713D01*
X86254Y-43527D01*
X86254Y-43327D01*
X86254Y-44713D01*
X86244Y-44664D01*
X86188Y-44617D01*
X86000Y-44805D01*
X86188Y-44992D01*
X86244Y-44945D01*
X86260Y-44745D01*
X86260Y-51635D01*
X86254Y-51603D01*
X86254Y-50217D01*
X86254Y-48839D01*
X86254Y-47461D01*
X86254Y-46083D01*
X86177Y-45897D01*
X86036Y-45755D01*
X85937Y-45714D01*
X85937Y-45243D01*
X85937Y-44366D01*
X85890Y-44310D01*
X85690Y-44294D01*
X85609Y-44310D01*
X85562Y-44366D01*
X85750Y-44554D01*
X85937Y-44366D01*
X85937Y-45243D01*
X85750Y-45055D01*
X85562Y-45243D01*
X85609Y-45299D01*
X85809Y-45315D01*
X85890Y-45299D01*
X85937Y-45243D01*
X85937Y-45714D01*
X85850Y-45678D01*
X85650Y-45678D01*
X85499Y-45740D01*
X85499Y-44805D01*
X85311Y-44617D01*
X85255Y-44664D01*
X85239Y-44864D01*
X85255Y-44945D01*
X85311Y-44992D01*
X85499Y-44805D01*
X85499Y-45740D01*
X85464Y-45755D01*
X85322Y-45897D01*
X85245Y-46082D01*
X85245Y-46282D01*
X85322Y-46468D01*
X85463Y-46610D01*
X85649Y-46687D01*
X85849Y-46687D01*
X86035Y-46610D01*
X86177Y-46469D01*
X86254Y-46283D01*
X86254Y-46083D01*
X86254Y-47461D01*
X86177Y-47275D01*
X86036Y-47133D01*
X85850Y-47056D01*
X85650Y-47056D01*
X85464Y-47133D01*
X85322Y-47274D01*
X85245Y-47460D01*
X85245Y-47660D01*
X85322Y-47846D01*
X85463Y-47988D01*
X85649Y-48065D01*
X85849Y-48065D01*
X86035Y-47988D01*
X86177Y-47847D01*
X86254Y-47661D01*
X86254Y-47461D01*
X86254Y-48839D01*
X86177Y-48653D01*
X86036Y-48511D01*
X85850Y-48434D01*
X85650Y-48434D01*
X85464Y-48511D01*
X85322Y-48652D01*
X85245Y-48838D01*
X85245Y-49038D01*
X85322Y-49224D01*
X85463Y-49366D01*
X85649Y-49443D01*
X85849Y-49443D01*
X86035Y-49366D01*
X86177Y-49225D01*
X86254Y-49039D01*
X86254Y-48839D01*
X86254Y-50217D01*
X86177Y-50031D01*
X86036Y-49889D01*
X85850Y-49812D01*
X85650Y-49812D01*
X85464Y-49889D01*
X85322Y-50030D01*
X85245Y-50216D01*
X85245Y-50416D01*
X85322Y-50602D01*
X85463Y-50744D01*
X85649Y-50821D01*
X85849Y-50821D01*
X86035Y-50744D01*
X86177Y-50602D01*
X86254Y-50417D01*
X86254Y-50217D01*
X86254Y-51603D01*
X86244Y-51554D01*
X86188Y-51507D01*
X86000Y-51694D01*
X86188Y-51882D01*
X86244Y-51835D01*
X86260Y-51635D01*
X86260Y-58525D01*
X86254Y-58493D01*
X86254Y-57106D01*
X86254Y-55728D01*
X86254Y-54350D01*
X86254Y-52972D01*
X86177Y-52787D01*
X86036Y-52645D01*
X85937Y-52604D01*
X85937Y-52133D01*
X85937Y-51256D01*
X85890Y-51200D01*
X85690Y-51184D01*
X85609Y-51200D01*
X85562Y-51256D01*
X85750Y-51444D01*
X85937Y-51256D01*
X85937Y-52133D01*
X85750Y-51945D01*
X85562Y-52133D01*
X85609Y-52189D01*
X85809Y-52205D01*
X85890Y-52189D01*
X85937Y-52133D01*
X85937Y-52604D01*
X85850Y-52568D01*
X85650Y-52568D01*
X85499Y-52630D01*
X85499Y-51694D01*
X85311Y-51507D01*
X85255Y-51554D01*
X85239Y-51754D01*
X85255Y-51835D01*
X85311Y-51882D01*
X85499Y-51694D01*
X85499Y-52630D01*
X85464Y-52645D01*
X85322Y-52786D01*
X85245Y-52972D01*
X85245Y-53172D01*
X85322Y-53358D01*
X85463Y-53500D01*
X85649Y-53577D01*
X85849Y-53577D01*
X86035Y-53500D01*
X86177Y-53358D01*
X86254Y-53173D01*
X86254Y-52972D01*
X86254Y-54350D01*
X86177Y-54165D01*
X86036Y-54023D01*
X85850Y-53946D01*
X85650Y-53946D01*
X85464Y-54022D01*
X85322Y-54164D01*
X85245Y-54350D01*
X85245Y-54550D01*
X85322Y-54736D01*
X85463Y-54878D01*
X85649Y-54955D01*
X85849Y-54955D01*
X86035Y-54878D01*
X86177Y-54736D01*
X86254Y-54551D01*
X86254Y-54350D01*
X86254Y-55728D01*
X86177Y-55543D01*
X86036Y-55401D01*
X85850Y-55324D01*
X85650Y-55324D01*
X85464Y-55400D01*
X85322Y-55542D01*
X85245Y-55727D01*
X85245Y-55928D01*
X85322Y-56114D01*
X85463Y-56256D01*
X85649Y-56332D01*
X85849Y-56333D01*
X86035Y-56256D01*
X86177Y-56114D01*
X86254Y-55929D01*
X86254Y-55728D01*
X86254Y-57106D01*
X86177Y-56921D01*
X86036Y-56779D01*
X85850Y-56702D01*
X85650Y-56702D01*
X85464Y-56778D01*
X85322Y-56920D01*
X85245Y-57105D01*
X85245Y-57306D01*
X85322Y-57492D01*
X85463Y-57633D01*
X85649Y-57710D01*
X85849Y-57711D01*
X86035Y-57634D01*
X86177Y-57492D01*
X86254Y-57307D01*
X86254Y-57106D01*
X86254Y-58493D01*
X86244Y-58444D01*
X86188Y-58396D01*
X86000Y-58584D01*
X86188Y-58772D01*
X86244Y-58725D01*
X86260Y-58525D01*
X86260Y-59250D01*
X85937Y-59250D01*
X85937Y-59022D01*
X85937Y-58146D01*
X85890Y-58089D01*
X85690Y-58073D01*
X85609Y-58089D01*
X85562Y-58146D01*
X85750Y-58334D01*
X85937Y-58146D01*
X85937Y-59022D01*
X85750Y-58835D01*
X85562Y-59022D01*
X85609Y-59079D01*
X85809Y-59095D01*
X85890Y-59079D01*
X85937Y-59022D01*
X85937Y-59250D01*
X85499Y-59250D01*
X85499Y-58584D01*
X85311Y-58396D01*
X85255Y-58444D01*
X85239Y-58644D01*
X85255Y-58725D01*
X85311Y-58772D01*
X85499Y-58584D01*
X85499Y-59250D01*
X83950Y-59250D01*
X83950Y-37311D01*
X83805Y-36962D01*
X83538Y-36695D01*
X83189Y-36550D01*
X82811Y-36549D01*
X82462Y-36694D01*
X82195Y-36961D01*
X82050Y-37310D01*
X82049Y-37688D01*
X82194Y-38037D01*
X82461Y-38304D01*
X82810Y-38449D01*
X83188Y-38450D01*
X83537Y-38305D01*
X83804Y-38038D01*
X83949Y-37689D01*
X83950Y-37311D01*
X83950Y-59250D01*
X82900Y-59250D01*
X82900Y-57765D01*
X82900Y-54765D01*
X82900Y-51765D01*
X82900Y-48765D01*
X82900Y-45765D01*
X82900Y-42765D01*
X82900Y-40765D01*
X82900Y-40765D01*
X82900Y-40154D01*
X82900Y-39545D01*
X82877Y-39490D01*
X82835Y-39447D01*
X82779Y-39425D01*
X82720Y-39424D01*
X82650Y-39425D01*
X82612Y-39462D01*
X82612Y-39712D01*
X82862Y-39712D01*
X82900Y-39675D01*
X82900Y-39545D01*
X82900Y-40154D01*
X82900Y-40025D01*
X82862Y-39987D01*
X82612Y-39987D01*
X82612Y-40237D01*
X82650Y-40275D01*
X82720Y-40275D01*
X82779Y-40274D01*
X82835Y-40252D01*
X82877Y-40209D01*
X82900Y-40154D01*
X82900Y-40765D01*
X82835Y-40609D01*
X82716Y-40489D01*
X82559Y-40425D01*
X82390Y-40424D01*
X82337Y-40446D01*
X82337Y-40237D01*
X82337Y-39987D01*
X82337Y-39712D01*
X82337Y-39462D01*
X82300Y-39425D01*
X82229Y-39424D01*
X82170Y-39425D01*
X82114Y-39447D01*
X82072Y-39490D01*
X82049Y-39545D01*
X82050Y-39675D01*
X82087Y-39712D01*
X82337Y-39712D01*
X82337Y-39987D01*
X82087Y-39987D01*
X82050Y-40025D01*
X82049Y-40154D01*
X82072Y-40209D01*
X82114Y-40252D01*
X82170Y-40274D01*
X82229Y-40275D01*
X82300Y-40275D01*
X82337Y-40237D01*
X82337Y-40446D01*
X82234Y-40489D01*
X82114Y-40608D01*
X82050Y-40765D01*
X82049Y-40934D01*
X82114Y-41090D01*
X82233Y-41210D01*
X82390Y-41274D01*
X82559Y-41275D01*
X82715Y-41210D01*
X82835Y-41091D01*
X82899Y-40934D01*
X82900Y-40765D01*
X82900Y-42765D01*
X82900Y-42765D01*
X82900Y-42095D01*
X82900Y-41545D01*
X82877Y-41490D01*
X82835Y-41447D01*
X82779Y-41425D01*
X82720Y-41424D01*
X82170Y-41424D01*
X82115Y-41447D01*
X82072Y-41489D01*
X82050Y-41545D01*
X82049Y-41604D01*
X82049Y-42154D01*
X82072Y-42209D01*
X82114Y-42252D01*
X82170Y-42274D01*
X82229Y-42275D01*
X82779Y-42275D01*
X82834Y-42252D01*
X82877Y-42210D01*
X82899Y-42154D01*
X82900Y-42095D01*
X82900Y-42765D01*
X82835Y-42609D01*
X82716Y-42489D01*
X82559Y-42425D01*
X82390Y-42424D01*
X82234Y-42489D01*
X82114Y-42608D01*
X82050Y-42765D01*
X82049Y-42934D01*
X82114Y-43090D01*
X82233Y-43210D01*
X82390Y-43274D01*
X82559Y-43275D01*
X82715Y-43210D01*
X82835Y-43091D01*
X82899Y-42934D01*
X82900Y-42765D01*
X82900Y-45765D01*
X82900Y-45765D01*
X82900Y-44154D01*
X82900Y-43545D01*
X82877Y-43490D01*
X82835Y-43447D01*
X82779Y-43425D01*
X82720Y-43424D01*
X82650Y-43425D01*
X82612Y-43462D01*
X82612Y-43712D01*
X82862Y-43712D01*
X82900Y-43675D01*
X82900Y-43545D01*
X82900Y-44154D01*
X82900Y-44025D01*
X82862Y-43987D01*
X82612Y-43987D01*
X82612Y-44237D01*
X82650Y-44275D01*
X82720Y-44275D01*
X82779Y-44274D01*
X82835Y-44252D01*
X82877Y-44209D01*
X82900Y-44154D01*
X82900Y-45765D01*
X82835Y-45609D01*
X82716Y-45489D01*
X82559Y-45425D01*
X82390Y-45424D01*
X82337Y-45446D01*
X82337Y-44237D01*
X82337Y-43987D01*
X82337Y-43712D01*
X82337Y-43462D01*
X82300Y-43425D01*
X82229Y-43424D01*
X82170Y-43425D01*
X82114Y-43447D01*
X82072Y-43490D01*
X82049Y-43545D01*
X82050Y-43675D01*
X82087Y-43712D01*
X82337Y-43712D01*
X82337Y-43987D01*
X82087Y-43987D01*
X82050Y-44025D01*
X82049Y-44154D01*
X82072Y-44209D01*
X82114Y-44252D01*
X82170Y-44274D01*
X82229Y-44275D01*
X82300Y-44275D01*
X82337Y-44237D01*
X82337Y-45446D01*
X82234Y-45489D01*
X82114Y-45608D01*
X82050Y-45765D01*
X82049Y-45934D01*
X82114Y-46090D01*
X82233Y-46210D01*
X82390Y-46274D01*
X82559Y-46275D01*
X82715Y-46210D01*
X82835Y-46091D01*
X82899Y-45934D01*
X82900Y-45765D01*
X82900Y-48765D01*
X82900Y-48765D01*
X82900Y-47154D01*
X82900Y-46545D01*
X82877Y-46490D01*
X82835Y-46447D01*
X82779Y-46425D01*
X82720Y-46424D01*
X82650Y-46425D01*
X82612Y-46462D01*
X82612Y-46712D01*
X82862Y-46712D01*
X82900Y-46675D01*
X82900Y-46545D01*
X82900Y-47154D01*
X82900Y-47025D01*
X82862Y-46987D01*
X82612Y-46987D01*
X82612Y-47237D01*
X82650Y-47275D01*
X82720Y-47275D01*
X82779Y-47274D01*
X82835Y-47252D01*
X82877Y-47209D01*
X82900Y-47154D01*
X82900Y-48765D01*
X82835Y-48609D01*
X82716Y-48489D01*
X82559Y-48425D01*
X82390Y-48424D01*
X82337Y-48446D01*
X82337Y-47237D01*
X82337Y-46987D01*
X82337Y-46712D01*
X82337Y-46462D01*
X82300Y-46425D01*
X82229Y-46424D01*
X82170Y-46425D01*
X82114Y-46447D01*
X82072Y-46490D01*
X82049Y-46545D01*
X82050Y-46675D01*
X82087Y-46712D01*
X82337Y-46712D01*
X82337Y-46987D01*
X82087Y-46987D01*
X82050Y-47025D01*
X82049Y-47154D01*
X82072Y-47209D01*
X82114Y-47252D01*
X82170Y-47274D01*
X82229Y-47275D01*
X82300Y-47275D01*
X82337Y-47237D01*
X82337Y-48446D01*
X82234Y-48489D01*
X82114Y-48608D01*
X82050Y-48765D01*
X82049Y-48934D01*
X82114Y-49090D01*
X82233Y-49210D01*
X82390Y-49274D01*
X82559Y-49275D01*
X82715Y-49210D01*
X82835Y-49091D01*
X82899Y-48934D01*
X82900Y-48765D01*
X82900Y-51765D01*
X82900Y-51765D01*
X82900Y-50154D01*
X82900Y-49545D01*
X82877Y-49490D01*
X82835Y-49447D01*
X82779Y-49425D01*
X82720Y-49424D01*
X82650Y-49425D01*
X82612Y-49462D01*
X82612Y-49712D01*
X82862Y-49712D01*
X82900Y-49675D01*
X82900Y-49545D01*
X82900Y-50154D01*
X82900Y-50025D01*
X82862Y-49987D01*
X82612Y-49987D01*
X82612Y-50237D01*
X82650Y-50275D01*
X82720Y-50275D01*
X82779Y-50274D01*
X82835Y-50252D01*
X82877Y-50209D01*
X82900Y-50154D01*
X82900Y-51765D01*
X82835Y-51609D01*
X82716Y-51489D01*
X82559Y-51425D01*
X82390Y-51424D01*
X82337Y-51446D01*
X82337Y-50237D01*
X82337Y-49987D01*
X82337Y-49712D01*
X82337Y-49462D01*
X82300Y-49425D01*
X82229Y-49424D01*
X82170Y-49425D01*
X82114Y-49447D01*
X82072Y-49490D01*
X82049Y-49545D01*
X82050Y-49675D01*
X82087Y-49712D01*
X82337Y-49712D01*
X82337Y-49987D01*
X82087Y-49987D01*
X82050Y-50025D01*
X82049Y-50154D01*
X82072Y-50209D01*
X82114Y-50252D01*
X82170Y-50274D01*
X82229Y-50275D01*
X82300Y-50275D01*
X82337Y-50237D01*
X82337Y-51446D01*
X82234Y-51489D01*
X82114Y-51608D01*
X82050Y-51765D01*
X82049Y-51934D01*
X82114Y-52090D01*
X82233Y-52210D01*
X82390Y-52274D01*
X82559Y-52275D01*
X82715Y-52210D01*
X82835Y-52091D01*
X82899Y-51934D01*
X82900Y-51765D01*
X82900Y-54765D01*
X82900Y-54765D01*
X82900Y-53154D01*
X82900Y-52545D01*
X82877Y-52490D01*
X82835Y-52447D01*
X82779Y-52425D01*
X82720Y-52424D01*
X82650Y-52425D01*
X82612Y-52462D01*
X82612Y-52712D01*
X82862Y-52712D01*
X82900Y-52675D01*
X82900Y-52545D01*
X82900Y-53154D01*
X82900Y-53025D01*
X82862Y-52987D01*
X82612Y-52987D01*
X82612Y-53237D01*
X82650Y-53275D01*
X82720Y-53275D01*
X82779Y-53274D01*
X82835Y-53252D01*
X82877Y-53209D01*
X82900Y-53154D01*
X82900Y-54765D01*
X82835Y-54609D01*
X82716Y-54489D01*
X82559Y-54425D01*
X82390Y-54424D01*
X82337Y-54446D01*
X82337Y-53237D01*
X82337Y-52987D01*
X82337Y-52712D01*
X82337Y-52462D01*
X82300Y-52425D01*
X82229Y-52424D01*
X82170Y-52425D01*
X82114Y-52447D01*
X82072Y-52490D01*
X82049Y-52545D01*
X82050Y-52675D01*
X82087Y-52712D01*
X82337Y-52712D01*
X82337Y-52987D01*
X82087Y-52987D01*
X82050Y-53025D01*
X82049Y-53154D01*
X82072Y-53209D01*
X82114Y-53252D01*
X82170Y-53274D01*
X82229Y-53275D01*
X82300Y-53275D01*
X82337Y-53237D01*
X82337Y-54446D01*
X82234Y-54489D01*
X82114Y-54608D01*
X82050Y-54765D01*
X82049Y-54934D01*
X82114Y-55090D01*
X82233Y-55210D01*
X82390Y-55274D01*
X82559Y-55275D01*
X82715Y-55210D01*
X82835Y-55091D01*
X82899Y-54934D01*
X82900Y-54765D01*
X82900Y-57765D01*
X82900Y-57765D01*
X82900Y-56154D01*
X82900Y-55545D01*
X82877Y-55490D01*
X82835Y-55447D01*
X82779Y-55425D01*
X82720Y-55424D01*
X82650Y-55425D01*
X82612Y-55462D01*
X82612Y-55712D01*
X82862Y-55712D01*
X82900Y-55675D01*
X82900Y-55545D01*
X82900Y-56154D01*
X82900Y-56025D01*
X82862Y-55987D01*
X82612Y-55987D01*
X82612Y-56237D01*
X82650Y-56275D01*
X82720Y-56275D01*
X82779Y-56274D01*
X82835Y-56252D01*
X82877Y-56209D01*
X82900Y-56154D01*
X82900Y-57765D01*
X82835Y-57609D01*
X82716Y-57489D01*
X82559Y-57425D01*
X82390Y-57424D01*
X82337Y-57446D01*
X82337Y-56237D01*
X82337Y-55987D01*
X82337Y-55712D01*
X82337Y-55462D01*
X82300Y-55425D01*
X82229Y-55424D01*
X82170Y-55425D01*
X82114Y-55447D01*
X82072Y-55490D01*
X82049Y-55545D01*
X82050Y-55675D01*
X82087Y-55712D01*
X82337Y-55712D01*
X82337Y-55987D01*
X82087Y-55987D01*
X82050Y-56025D01*
X82049Y-56154D01*
X82072Y-56209D01*
X82114Y-56252D01*
X82170Y-56274D01*
X82229Y-56275D01*
X82300Y-56275D01*
X82337Y-56237D01*
X82337Y-57446D01*
X82234Y-57489D01*
X82114Y-57608D01*
X82050Y-57765D01*
X82049Y-57934D01*
X82114Y-58090D01*
X82233Y-58210D01*
X82390Y-58274D01*
X82559Y-58275D01*
X82715Y-58210D01*
X82835Y-58091D01*
X82899Y-57934D01*
X82900Y-57765D01*
X82900Y-59250D01*
X82837Y-59250D01*
X82877Y-59209D01*
X82900Y-59154D01*
X82900Y-58545D01*
X82877Y-58490D01*
X82835Y-58447D01*
X82779Y-58425D01*
X82720Y-58424D01*
X82650Y-58425D01*
X82612Y-58462D01*
X82612Y-58712D01*
X82862Y-58712D01*
X82900Y-58675D01*
X82900Y-58545D01*
X82900Y-59154D01*
X82900Y-59025D01*
X82862Y-58987D01*
X82612Y-58987D01*
X82612Y-59057D01*
X82337Y-59057D01*
X82337Y-58987D01*
X82337Y-58712D01*
X82337Y-58462D01*
X82300Y-58425D01*
X82229Y-58424D01*
X82170Y-58425D01*
X82114Y-58447D01*
X82072Y-58490D01*
X82049Y-58545D01*
X82050Y-58675D01*
X82087Y-58712D01*
X82337Y-58712D01*
X82337Y-58987D01*
X82087Y-58987D01*
X82050Y-59025D01*
X82049Y-59154D01*
X82072Y-59209D01*
X82112Y-59250D01*
X81950Y-59250D01*
X81950Y-50965D01*
X81950Y-47965D01*
X81950Y-47965D01*
X81950Y-47354D01*
X81950Y-46745D01*
X81950Y-39995D01*
X81950Y-39445D01*
X81927Y-39390D01*
X81925Y-39387D01*
X81925Y-38665D01*
X81860Y-38509D01*
X81741Y-38389D01*
X81584Y-38325D01*
X81415Y-38324D01*
X81259Y-38389D01*
X81139Y-38508D01*
X81075Y-38665D01*
X81074Y-38834D01*
X81139Y-38990D01*
X81258Y-39110D01*
X81415Y-39174D01*
X81584Y-39175D01*
X81740Y-39110D01*
X81860Y-38991D01*
X81924Y-38834D01*
X81925Y-38665D01*
X81925Y-39387D01*
X81885Y-39347D01*
X81829Y-39325D01*
X81770Y-39324D01*
X81220Y-39324D01*
X81165Y-39347D01*
X81122Y-39389D01*
X81100Y-39445D01*
X81099Y-39504D01*
X81099Y-40054D01*
X81122Y-40109D01*
X81164Y-40152D01*
X81220Y-40174D01*
X81279Y-40175D01*
X81829Y-40175D01*
X81884Y-40152D01*
X81927Y-40110D01*
X81949Y-40054D01*
X81950Y-39995D01*
X81950Y-46745D01*
X81927Y-46690D01*
X81900Y-46662D01*
X81900Y-45015D01*
X81900Y-41765D01*
X81835Y-41609D01*
X81716Y-41489D01*
X81559Y-41425D01*
X81390Y-41424D01*
X81234Y-41489D01*
X81114Y-41608D01*
X81050Y-41765D01*
X81049Y-41934D01*
X81114Y-42090D01*
X81233Y-42210D01*
X81390Y-42274D01*
X81559Y-42275D01*
X81715Y-42210D01*
X81835Y-42091D01*
X81899Y-41934D01*
X81900Y-41765D01*
X81900Y-45015D01*
X81900Y-45015D01*
X81900Y-44404D01*
X81900Y-43795D01*
X81877Y-43740D01*
X81835Y-43697D01*
X81779Y-43675D01*
X81720Y-43674D01*
X81650Y-43675D01*
X81612Y-43712D01*
X81612Y-43962D01*
X81862Y-43962D01*
X81900Y-43925D01*
X81900Y-43795D01*
X81900Y-44404D01*
X81900Y-44275D01*
X81862Y-44237D01*
X81612Y-44237D01*
X81612Y-44487D01*
X81650Y-44525D01*
X81720Y-44525D01*
X81779Y-44524D01*
X81835Y-44502D01*
X81877Y-44459D01*
X81900Y-44404D01*
X81900Y-45015D01*
X81835Y-44859D01*
X81716Y-44739D01*
X81559Y-44675D01*
X81390Y-44674D01*
X81337Y-44696D01*
X81337Y-44487D01*
X81337Y-44237D01*
X81337Y-43962D01*
X81337Y-43712D01*
X81300Y-43675D01*
X81229Y-43674D01*
X81170Y-43675D01*
X81114Y-43697D01*
X81072Y-43740D01*
X81049Y-43795D01*
X81050Y-43925D01*
X81087Y-43962D01*
X81337Y-43962D01*
X81337Y-44237D01*
X81087Y-44237D01*
X81050Y-44275D01*
X81049Y-44404D01*
X81072Y-44459D01*
X81114Y-44502D01*
X81170Y-44524D01*
X81229Y-44525D01*
X81300Y-44525D01*
X81337Y-44487D01*
X81337Y-44696D01*
X81234Y-44739D01*
X81114Y-44858D01*
X81050Y-45015D01*
X81049Y-45184D01*
X81114Y-45340D01*
X81233Y-45460D01*
X81390Y-45524D01*
X81559Y-45525D01*
X81715Y-45460D01*
X81835Y-45341D01*
X81899Y-45184D01*
X81900Y-45015D01*
X81900Y-46662D01*
X81885Y-46647D01*
X81829Y-46625D01*
X81770Y-46624D01*
X81700Y-46625D01*
X81662Y-46662D01*
X81662Y-46912D01*
X81912Y-46912D01*
X81950Y-46875D01*
X81950Y-46745D01*
X81950Y-47354D01*
X81950Y-47225D01*
X81912Y-47187D01*
X81662Y-47187D01*
X81662Y-47437D01*
X81700Y-47475D01*
X81770Y-47475D01*
X81829Y-47474D01*
X81885Y-47452D01*
X81927Y-47409D01*
X81950Y-47354D01*
X81950Y-47965D01*
X81885Y-47809D01*
X81766Y-47689D01*
X81609Y-47625D01*
X81440Y-47624D01*
X81387Y-47646D01*
X81387Y-47437D01*
X81387Y-47187D01*
X81387Y-46912D01*
X81387Y-46662D01*
X81350Y-46625D01*
X81279Y-46624D01*
X81220Y-46625D01*
X81164Y-46647D01*
X81122Y-46690D01*
X81099Y-46745D01*
X81100Y-46875D01*
X81137Y-46912D01*
X81387Y-46912D01*
X81387Y-47187D01*
X81137Y-47187D01*
X81100Y-47225D01*
X81099Y-47354D01*
X81122Y-47409D01*
X81164Y-47452D01*
X81220Y-47474D01*
X81279Y-47475D01*
X81350Y-47475D01*
X81387Y-47437D01*
X81387Y-47646D01*
X81284Y-47689D01*
X81164Y-47808D01*
X81100Y-47965D01*
X81099Y-48134D01*
X81164Y-48290D01*
X81283Y-48410D01*
X81440Y-48474D01*
X81609Y-48475D01*
X81765Y-48410D01*
X81885Y-48291D01*
X81949Y-48134D01*
X81950Y-47965D01*
X81950Y-50965D01*
X81950Y-50965D01*
X81950Y-50354D01*
X81950Y-49745D01*
X81927Y-49690D01*
X81885Y-49647D01*
X81829Y-49625D01*
X81770Y-49624D01*
X81700Y-49625D01*
X81662Y-49662D01*
X81662Y-49912D01*
X81912Y-49912D01*
X81950Y-49875D01*
X81950Y-49745D01*
X81950Y-50354D01*
X81950Y-50225D01*
X81912Y-50187D01*
X81662Y-50187D01*
X81662Y-50437D01*
X81700Y-50475D01*
X81770Y-50475D01*
X81829Y-50474D01*
X81885Y-50452D01*
X81927Y-50409D01*
X81950Y-50354D01*
X81950Y-50965D01*
X81885Y-50809D01*
X81766Y-50689D01*
X81609Y-50625D01*
X81440Y-50624D01*
X81387Y-50646D01*
X81387Y-50437D01*
X81387Y-50187D01*
X81387Y-49912D01*
X81387Y-49662D01*
X81350Y-49625D01*
X81279Y-49624D01*
X81220Y-49625D01*
X81164Y-49647D01*
X81122Y-49690D01*
X81099Y-49745D01*
X81100Y-49875D01*
X81137Y-49912D01*
X81387Y-49912D01*
X81387Y-50187D01*
X81137Y-50187D01*
X81100Y-50225D01*
X81099Y-50354D01*
X81122Y-50409D01*
X81164Y-50452D01*
X81220Y-50474D01*
X81279Y-50475D01*
X81350Y-50475D01*
X81387Y-50437D01*
X81387Y-50646D01*
X81284Y-50689D01*
X81164Y-50808D01*
X81100Y-50965D01*
X81099Y-51134D01*
X81164Y-51290D01*
X81283Y-51410D01*
X81440Y-51474D01*
X81609Y-51475D01*
X81765Y-51410D01*
X81885Y-51291D01*
X81949Y-51134D01*
X81950Y-50965D01*
X81950Y-59250D01*
X81900Y-59250D01*
X81900Y-57015D01*
X81900Y-54015D01*
X81900Y-54015D01*
X81900Y-53404D01*
X81900Y-52795D01*
X81877Y-52740D01*
X81835Y-52697D01*
X81779Y-52675D01*
X81720Y-52674D01*
X81650Y-52675D01*
X81612Y-52712D01*
X81612Y-52962D01*
X81862Y-52962D01*
X81900Y-52925D01*
X81900Y-52795D01*
X81900Y-53404D01*
X81900Y-53275D01*
X81862Y-53237D01*
X81612Y-53237D01*
X81612Y-53487D01*
X81650Y-53525D01*
X81720Y-53525D01*
X81779Y-53524D01*
X81835Y-53502D01*
X81877Y-53459D01*
X81900Y-53404D01*
X81900Y-54015D01*
X81835Y-53859D01*
X81716Y-53739D01*
X81559Y-53675D01*
X81390Y-53674D01*
X81337Y-53696D01*
X81337Y-53487D01*
X81337Y-53237D01*
X81337Y-52962D01*
X81337Y-52712D01*
X81300Y-52675D01*
X81229Y-52674D01*
X81170Y-52675D01*
X81114Y-52697D01*
X81072Y-52740D01*
X81049Y-52795D01*
X81050Y-52925D01*
X81087Y-52962D01*
X81337Y-52962D01*
X81337Y-53237D01*
X81087Y-53237D01*
X81050Y-53275D01*
X81049Y-53404D01*
X81072Y-53459D01*
X81114Y-53502D01*
X81170Y-53524D01*
X81229Y-53525D01*
X81300Y-53525D01*
X81337Y-53487D01*
X81337Y-53696D01*
X81234Y-53739D01*
X81114Y-53858D01*
X81050Y-54015D01*
X81049Y-54184D01*
X81114Y-54340D01*
X81233Y-54460D01*
X81390Y-54524D01*
X81559Y-54525D01*
X81715Y-54460D01*
X81835Y-54341D01*
X81899Y-54184D01*
X81900Y-54015D01*
X81900Y-57015D01*
X81900Y-57015D01*
X81900Y-56404D01*
X81900Y-55795D01*
X81877Y-55740D01*
X81835Y-55697D01*
X81779Y-55675D01*
X81720Y-55674D01*
X81650Y-55675D01*
X81612Y-55712D01*
X81612Y-55962D01*
X81862Y-55962D01*
X81900Y-55925D01*
X81900Y-55795D01*
X81900Y-56404D01*
X81900Y-56275D01*
X81862Y-56237D01*
X81612Y-56237D01*
X81612Y-56487D01*
X81650Y-56525D01*
X81720Y-56525D01*
X81779Y-56524D01*
X81835Y-56502D01*
X81877Y-56459D01*
X81900Y-56404D01*
X81900Y-57015D01*
X81835Y-56859D01*
X81716Y-56739D01*
X81559Y-56675D01*
X81390Y-56674D01*
X81337Y-56696D01*
X81337Y-56487D01*
X81337Y-56237D01*
X81337Y-55962D01*
X81337Y-55712D01*
X81300Y-55675D01*
X81229Y-55674D01*
X81170Y-55675D01*
X81114Y-55697D01*
X81072Y-55740D01*
X81049Y-55795D01*
X81050Y-55925D01*
X81087Y-55962D01*
X81337Y-55962D01*
X81337Y-56237D01*
X81087Y-56237D01*
X81050Y-56275D01*
X81049Y-56404D01*
X81072Y-56459D01*
X81114Y-56502D01*
X81170Y-56524D01*
X81229Y-56525D01*
X81300Y-56525D01*
X81337Y-56487D01*
X81337Y-56696D01*
X81234Y-56739D01*
X81114Y-56858D01*
X81050Y-57015D01*
X81049Y-57184D01*
X81114Y-57340D01*
X81233Y-57460D01*
X81390Y-57524D01*
X81559Y-57525D01*
X81715Y-57460D01*
X81835Y-57341D01*
X81899Y-57184D01*
X81900Y-57015D01*
X81900Y-59250D01*
X80075Y-59250D01*
X80075Y-38245D01*
X80075Y-37304D01*
X80074Y-37245D01*
X80052Y-37189D01*
X80009Y-37147D01*
X79954Y-37124D01*
X79662Y-37125D01*
X79625Y-37162D01*
X79625Y-37575D01*
X80037Y-37575D01*
X80075Y-37537D01*
X80075Y-37304D01*
X80075Y-38245D01*
X80075Y-38012D01*
X80037Y-37975D01*
X79625Y-37975D01*
X79625Y-38387D01*
X79662Y-38425D01*
X79954Y-38425D01*
X80009Y-38402D01*
X80052Y-38360D01*
X80074Y-38304D01*
X80075Y-38245D01*
X80075Y-59250D01*
X79225Y-59250D01*
X79225Y-38387D01*
X79225Y-37975D01*
X79225Y-37575D01*
X79225Y-37162D01*
X79187Y-37125D01*
X78895Y-37124D01*
X78840Y-37147D01*
X78797Y-37189D01*
X78775Y-37245D01*
X78774Y-37304D01*
X78775Y-37537D01*
X78812Y-37575D01*
X79225Y-37575D01*
X79225Y-37975D01*
X78812Y-37975D01*
X78775Y-38012D01*
X78774Y-38245D01*
X78775Y-38304D01*
X78797Y-38360D01*
X78840Y-38402D01*
X78895Y-38425D01*
X79187Y-38425D01*
X79225Y-38387D01*
X79225Y-59250D01*
X78150Y-59250D01*
X78150Y-38880D01*
X78096Y-38752D01*
X78075Y-38730D01*
X78075Y-37646D01*
X77976Y-37407D01*
X77793Y-37224D01*
X77554Y-37125D01*
X77296Y-37124D01*
X77057Y-37223D01*
X76874Y-37406D01*
X76775Y-37645D01*
X76774Y-37903D01*
X76873Y-38142D01*
X77056Y-38325D01*
X77295Y-38424D01*
X77553Y-38425D01*
X77792Y-38326D01*
X77975Y-38143D01*
X78074Y-37904D01*
X78075Y-37646D01*
X78075Y-38730D01*
X77998Y-38653D01*
X77869Y-38600D01*
X77730Y-38599D01*
X77609Y-38650D01*
X76582Y-38650D01*
X76005Y-38072D01*
X76074Y-37904D01*
X76075Y-37646D01*
X75976Y-37407D01*
X75793Y-37224D01*
X75554Y-37125D01*
X75296Y-37124D01*
X75057Y-37223D01*
X74874Y-37406D01*
X74775Y-37645D01*
X74774Y-37903D01*
X74873Y-38142D01*
X75056Y-38325D01*
X75295Y-38424D01*
X75553Y-38425D01*
X75722Y-38355D01*
X76358Y-38991D01*
X76423Y-39034D01*
X76423Y-39034D01*
X76500Y-39050D01*
X77462Y-39050D01*
X77503Y-39148D01*
X77601Y-39246D01*
X77730Y-39299D01*
X77869Y-39300D01*
X77998Y-39246D01*
X78096Y-39148D01*
X78149Y-39019D01*
X78150Y-38880D01*
X78150Y-59250D01*
X71875Y-59250D01*
X71875Y-52425D01*
X71818Y-52287D01*
X71712Y-52182D01*
X71574Y-52125D01*
X71456Y-52124D01*
X71456Y-49939D01*
X71438Y-49850D01*
X71384Y-49811D01*
X71212Y-49984D01*
X71384Y-50156D01*
X71438Y-50117D01*
X71456Y-49939D01*
X71456Y-52124D01*
X71428Y-52124D01*
X71449Y-52073D01*
X71450Y-51894D01*
X71450Y-50894D01*
X71381Y-50729D01*
X71255Y-50602D01*
X71172Y-50568D01*
X71172Y-50368D01*
X71172Y-49599D01*
X71133Y-49545D01*
X70955Y-49527D01*
X70866Y-49545D01*
X70827Y-49599D01*
X71000Y-49771D01*
X71172Y-49599D01*
X71172Y-50368D01*
X71000Y-50196D01*
X70827Y-50368D01*
X70866Y-50422D01*
X71044Y-50440D01*
X71133Y-50422D01*
X71172Y-50368D01*
X71172Y-50568D01*
X71089Y-50534D01*
X70910Y-50533D01*
X70787Y-50584D01*
X70787Y-49984D01*
X70615Y-49811D01*
X70561Y-49850D01*
X70543Y-50028D01*
X70561Y-50117D01*
X70615Y-50156D01*
X70787Y-49984D01*
X70787Y-50584D01*
X70745Y-50602D01*
X70618Y-50728D01*
X70550Y-50894D01*
X70549Y-51073D01*
X70618Y-51238D01*
X70744Y-51365D01*
X70910Y-51433D01*
X71089Y-51434D01*
X71254Y-51365D01*
X71381Y-51239D01*
X71449Y-51073D01*
X71450Y-50894D01*
X71450Y-51894D01*
X71381Y-51729D01*
X71255Y-51602D01*
X71089Y-51534D01*
X70910Y-51533D01*
X70745Y-51602D01*
X70618Y-51728D01*
X70550Y-51894D01*
X70549Y-52073D01*
X70618Y-52238D01*
X70744Y-52365D01*
X70910Y-52433D01*
X71089Y-52434D01*
X71128Y-52418D01*
X71125Y-52425D01*
X71124Y-52548D01*
X71089Y-52534D01*
X70910Y-52533D01*
X70745Y-52602D01*
X70618Y-52728D01*
X70550Y-52894D01*
X70549Y-53073D01*
X70618Y-53238D01*
X70744Y-53365D01*
X70910Y-53433D01*
X71089Y-53434D01*
X71254Y-53365D01*
X71381Y-53239D01*
X71449Y-53073D01*
X71450Y-52894D01*
X71441Y-52874D01*
X71574Y-52875D01*
X71712Y-52818D01*
X71817Y-52712D01*
X71874Y-52574D01*
X71875Y-52425D01*
X71875Y-59250D01*
X71370Y-59250D01*
X71381Y-59239D01*
X71449Y-59073D01*
X71450Y-58894D01*
X71450Y-57894D01*
X71450Y-56894D01*
X71450Y-55894D01*
X71450Y-54894D01*
X71450Y-53894D01*
X71381Y-53729D01*
X71255Y-53602D01*
X71089Y-53534D01*
X70910Y-53533D01*
X70745Y-53602D01*
X70618Y-53728D01*
X70550Y-53894D01*
X70549Y-54073D01*
X70618Y-54238D01*
X70744Y-54365D01*
X70910Y-54433D01*
X71089Y-54434D01*
X71254Y-54365D01*
X71381Y-54239D01*
X71449Y-54073D01*
X71450Y-53894D01*
X71450Y-54894D01*
X71381Y-54729D01*
X71255Y-54602D01*
X71089Y-54534D01*
X70910Y-54533D01*
X70745Y-54602D01*
X70618Y-54728D01*
X70550Y-54894D01*
X70549Y-55073D01*
X70618Y-55238D01*
X70744Y-55365D01*
X70910Y-55433D01*
X71089Y-55434D01*
X71254Y-55365D01*
X71381Y-55239D01*
X71449Y-55073D01*
X71450Y-54894D01*
X71450Y-55894D01*
X71381Y-55729D01*
X71255Y-55602D01*
X71089Y-55534D01*
X70910Y-55533D01*
X70745Y-55602D01*
X70618Y-55728D01*
X70550Y-55894D01*
X70549Y-56073D01*
X70618Y-56238D01*
X70744Y-56365D01*
X70910Y-56433D01*
X71089Y-56434D01*
X71254Y-56365D01*
X71381Y-56239D01*
X71449Y-56073D01*
X71450Y-55894D01*
X71450Y-56894D01*
X71381Y-56729D01*
X71255Y-56602D01*
X71089Y-56534D01*
X70910Y-56533D01*
X70745Y-56602D01*
X70618Y-56728D01*
X70550Y-56894D01*
X70549Y-57073D01*
X70618Y-57238D01*
X70744Y-57365D01*
X70910Y-57433D01*
X71089Y-57434D01*
X71254Y-57365D01*
X71381Y-57239D01*
X71449Y-57073D01*
X71450Y-56894D01*
X71450Y-57894D01*
X71381Y-57729D01*
X71255Y-57602D01*
X71089Y-57534D01*
X70910Y-57533D01*
X70745Y-57602D01*
X70618Y-57728D01*
X70550Y-57894D01*
X70549Y-58073D01*
X70618Y-58238D01*
X70744Y-58365D01*
X70910Y-58433D01*
X71089Y-58434D01*
X71254Y-58365D01*
X71381Y-58239D01*
X71449Y-58073D01*
X71450Y-57894D01*
X71450Y-58894D01*
X71381Y-58729D01*
X71255Y-58602D01*
X71089Y-58534D01*
X70910Y-58533D01*
X70745Y-58602D01*
X70618Y-58728D01*
X70550Y-58894D01*
X70549Y-59073D01*
X70618Y-59238D01*
X70629Y-59250D01*
X70370Y-59250D01*
X70381Y-59239D01*
X70449Y-59073D01*
X70450Y-58894D01*
X70450Y-57894D01*
X70450Y-56894D01*
X70450Y-55894D01*
X70450Y-54894D01*
X70450Y-53894D01*
X70381Y-53729D01*
X70255Y-53602D01*
X70089Y-53534D01*
X69910Y-53533D01*
X69874Y-53548D01*
X69875Y-53425D01*
X69871Y-53418D01*
X69910Y-53433D01*
X70089Y-53434D01*
X70254Y-53365D01*
X70381Y-53239D01*
X70449Y-53073D01*
X70450Y-52894D01*
X70450Y-51894D01*
X70450Y-50894D01*
X70450Y-50894D01*
X70450Y-50313D01*
X70450Y-49654D01*
X70427Y-49599D01*
X70385Y-49556D01*
X70329Y-49534D01*
X70270Y-49533D01*
X70187Y-49534D01*
X70150Y-49571D01*
X70150Y-49834D01*
X70412Y-49834D01*
X70450Y-49796D01*
X70450Y-49654D01*
X70450Y-50313D01*
X70450Y-50171D01*
X70412Y-50134D01*
X70150Y-50134D01*
X70150Y-50396D01*
X70187Y-50434D01*
X70270Y-50434D01*
X70329Y-50433D01*
X70385Y-50411D01*
X70427Y-50368D01*
X70450Y-50313D01*
X70450Y-50894D01*
X70381Y-50729D01*
X70255Y-50602D01*
X70089Y-50534D01*
X69910Y-50533D01*
X69850Y-50559D01*
X69850Y-50396D01*
X69850Y-50134D01*
X69587Y-50134D01*
X69550Y-50171D01*
X69549Y-50313D01*
X69572Y-50368D01*
X69614Y-50411D01*
X69670Y-50433D01*
X69729Y-50434D01*
X69812Y-50434D01*
X69850Y-50396D01*
X69850Y-50559D01*
X69745Y-50602D01*
X69618Y-50728D01*
X69550Y-50894D01*
X69549Y-51073D01*
X69618Y-51238D01*
X69744Y-51365D01*
X69910Y-51433D01*
X70089Y-51434D01*
X70254Y-51365D01*
X70381Y-51239D01*
X70449Y-51073D01*
X70450Y-50894D01*
X70450Y-51894D01*
X70381Y-51729D01*
X70255Y-51602D01*
X70089Y-51534D01*
X69910Y-51533D01*
X69745Y-51602D01*
X69618Y-51728D01*
X69550Y-51894D01*
X69549Y-52073D01*
X69618Y-52238D01*
X69744Y-52365D01*
X69910Y-52433D01*
X70089Y-52434D01*
X70254Y-52365D01*
X70381Y-52239D01*
X70449Y-52073D01*
X70450Y-51894D01*
X70450Y-52894D01*
X70381Y-52729D01*
X70255Y-52602D01*
X70089Y-52534D01*
X69910Y-52533D01*
X69745Y-52602D01*
X69618Y-52728D01*
X69550Y-52894D01*
X69549Y-53073D01*
X69571Y-53125D01*
X69425Y-53124D01*
X69287Y-53181D01*
X69182Y-53287D01*
X69125Y-53425D01*
X69124Y-53574D01*
X69181Y-53712D01*
X69287Y-53817D01*
X69425Y-53874D01*
X69557Y-53875D01*
X69550Y-53894D01*
X69549Y-54073D01*
X69618Y-54238D01*
X69744Y-54365D01*
X69910Y-54433D01*
X70089Y-54434D01*
X70254Y-54365D01*
X70381Y-54239D01*
X70449Y-54073D01*
X70450Y-53894D01*
X70450Y-54894D01*
X70381Y-54729D01*
X70255Y-54602D01*
X70089Y-54534D01*
X69910Y-54533D01*
X69745Y-54602D01*
X69618Y-54728D01*
X69550Y-54894D01*
X69549Y-55073D01*
X69618Y-55238D01*
X69744Y-55365D01*
X69910Y-55433D01*
X70089Y-55434D01*
X70254Y-55365D01*
X70381Y-55239D01*
X70449Y-55073D01*
X70450Y-54894D01*
X70450Y-55894D01*
X70381Y-55729D01*
X70255Y-55602D01*
X70089Y-55534D01*
X69910Y-55533D01*
X69745Y-55602D01*
X69618Y-55728D01*
X69550Y-55894D01*
X69549Y-56073D01*
X69618Y-56238D01*
X69744Y-56365D01*
X69910Y-56433D01*
X70089Y-56434D01*
X70254Y-56365D01*
X70381Y-56239D01*
X70449Y-56073D01*
X70450Y-55894D01*
X70450Y-56894D01*
X70381Y-56729D01*
X70255Y-56602D01*
X70089Y-56534D01*
X69910Y-56533D01*
X69745Y-56602D01*
X69618Y-56728D01*
X69550Y-56894D01*
X69549Y-57073D01*
X69618Y-57238D01*
X69744Y-57365D01*
X69910Y-57433D01*
X70089Y-57434D01*
X70254Y-57365D01*
X70381Y-57239D01*
X70449Y-57073D01*
X70450Y-56894D01*
X70450Y-57894D01*
X70381Y-57729D01*
X70255Y-57602D01*
X70089Y-57534D01*
X69910Y-57533D01*
X69745Y-57602D01*
X69618Y-57728D01*
X69550Y-57894D01*
X69549Y-58073D01*
X69618Y-58238D01*
X69744Y-58365D01*
X69910Y-58433D01*
X70089Y-58434D01*
X70254Y-58365D01*
X70381Y-58239D01*
X70449Y-58073D01*
X70450Y-57894D01*
X70450Y-58894D01*
X70381Y-58729D01*
X70255Y-58602D01*
X70089Y-58534D01*
X69910Y-58533D01*
X69745Y-58602D01*
X69618Y-58728D01*
X69550Y-58894D01*
X69549Y-59073D01*
X69618Y-59238D01*
X69629Y-59250D01*
X68269Y-59250D01*
X68269Y-49969D01*
X69200Y-49969D01*
X69264Y-49956D01*
X69264Y-49956D01*
X69319Y-49919D01*
X69549Y-49689D01*
X69550Y-49796D01*
X69587Y-49834D01*
X69850Y-49834D01*
X69850Y-49571D01*
X69812Y-49534D01*
X69729Y-49533D01*
X69705Y-49533D01*
X69770Y-49469D01*
X71550Y-49469D01*
X71614Y-49456D01*
X71614Y-49456D01*
X71669Y-49419D01*
X72069Y-49019D01*
X72069Y-49019D01*
X72069Y-49019D01*
X72106Y-48964D01*
X72119Y-48900D01*
X72119Y-48900D01*
X72119Y-44481D01*
X72305Y-44332D01*
X72311Y-44325D01*
X72319Y-44319D01*
X72334Y-44298D01*
X72348Y-44281D01*
X72351Y-44273D01*
X72356Y-44264D01*
X72361Y-44239D01*
X72368Y-44218D01*
X72367Y-44209D01*
X72369Y-44200D01*
X72369Y-40570D01*
X72719Y-40219D01*
X72719Y-40219D01*
X72719Y-40219D01*
X72756Y-40164D01*
X72769Y-40100D01*
X72769Y-40100D01*
X72769Y-39820D01*
X74419Y-38169D01*
X74456Y-38114D01*
X74456Y-38114D01*
X74469Y-38050D01*
X74469Y-36419D01*
X86414Y-36419D01*
X86414Y-59250D01*
M02*
