G04 (created by PCBNEW (2013-07-07 BZR 4022)-stable) date 02/09/2014 18:49:16*
%MOIN*%
G04 Gerber Fmt 3.4, Leading zero omitted, Abs format*
%FSLAX34Y34*%
G01*
G70*
G90*
G04 APERTURE LIST*
%ADD10C,0.00393701*%
%ADD11R,0.0472X0.0472*%
%ADD12R,0.055X0.035*%
%ADD13R,0.035X0.055*%
%ADD14R,0.0236X0.0394*%
%ADD15R,0.045X0.02*%
G04 APERTURE END LIST*
G54D10*
G54D11*
X73000Y-24163D03*
X73000Y-23337D03*
X47000Y-35163D03*
X47000Y-34337D03*
G54D12*
X72000Y-24125D03*
X72000Y-23375D03*
X46250Y-35125D03*
X46250Y-34375D03*
G54D13*
X54125Y-30000D03*
X54875Y-30000D03*
X62125Y-30000D03*
X62875Y-30000D03*
X66625Y-32500D03*
X67375Y-32500D03*
X62625Y-32500D03*
X63375Y-32500D03*
X58625Y-32500D03*
X59375Y-32500D03*
X54625Y-32500D03*
X55375Y-32500D03*
G54D14*
X65625Y-31666D03*
X66000Y-30834D03*
X66375Y-31666D03*
X61625Y-31666D03*
X62000Y-30834D03*
X62375Y-31666D03*
X57625Y-31666D03*
X58000Y-30834D03*
X58375Y-31666D03*
X53625Y-31666D03*
X54000Y-30834D03*
X54375Y-31666D03*
G54D13*
X66375Y-27000D03*
X65625Y-27000D03*
X66375Y-26000D03*
X65625Y-26000D03*
X58375Y-27000D03*
X57625Y-27000D03*
X58525Y-26000D03*
X57775Y-26000D03*
X61375Y-27000D03*
X60625Y-27000D03*
X61375Y-26000D03*
X60625Y-26000D03*
X53375Y-27000D03*
X52625Y-27000D03*
X53375Y-26000D03*
X52625Y-26000D03*
G54D12*
X67250Y-31625D03*
X67250Y-30875D03*
X63500Y-31625D03*
X63500Y-30875D03*
X59500Y-31625D03*
X59500Y-30875D03*
X55500Y-31625D03*
X55500Y-30875D03*
X64500Y-30875D03*
X64500Y-31625D03*
X60500Y-30875D03*
X60500Y-31625D03*
X56500Y-30875D03*
X56500Y-31625D03*
X52500Y-30875D03*
X52500Y-31625D03*
G54D13*
X65375Y-32500D03*
X64625Y-32500D03*
X61375Y-32500D03*
X60625Y-32500D03*
X57375Y-32500D03*
X56625Y-32500D03*
X53375Y-32500D03*
X52625Y-32500D03*
G54D15*
X64800Y-29000D03*
X64800Y-28500D03*
X64800Y-28000D03*
X64800Y-27500D03*
X64800Y-27000D03*
X64800Y-26500D03*
X64800Y-26000D03*
X62300Y-26000D03*
X62300Y-26500D03*
X62300Y-27500D03*
X62300Y-28000D03*
X62300Y-28500D03*
X62300Y-29000D03*
X62300Y-27000D03*
X56800Y-29000D03*
X56800Y-28500D03*
X56800Y-28000D03*
X56800Y-27500D03*
X56800Y-27000D03*
X56800Y-26500D03*
X56800Y-26000D03*
X54300Y-26000D03*
X54300Y-26500D03*
X54300Y-27500D03*
X54300Y-28000D03*
X54300Y-28500D03*
X54300Y-29000D03*
X54300Y-27000D03*
X43500Y-32000D03*
X43500Y-31000D03*
X43500Y-30500D03*
X43500Y-30000D03*
X43500Y-29500D03*
X43500Y-29000D03*
X43500Y-28500D03*
X46000Y-28500D03*
X46000Y-29000D03*
X46000Y-29500D03*
X46000Y-30000D03*
X46000Y-30500D03*
X46000Y-31000D03*
X46000Y-31500D03*
X46000Y-32000D03*
X43500Y-31500D03*
X76600Y-32450D03*
X76600Y-31450D03*
X76600Y-30950D03*
X76600Y-30450D03*
X76600Y-29950D03*
X76600Y-29450D03*
X76600Y-28950D03*
X79100Y-28950D03*
X79100Y-29450D03*
X79100Y-29950D03*
X79100Y-30450D03*
X79100Y-30950D03*
X79100Y-31450D03*
X79100Y-31950D03*
X79100Y-32450D03*
X76600Y-31950D03*
M02*
