M48
;DRILL file {Pcbnew (2013-07-07 BZR 4022)-stable} date 28/01/2014 11:02:57
;FORMAT={-:-/ absolute / inch / decimal}
FMAT,2
INCH,TZ
T1C0.025
T2C0.032
T3C0.040
T4C0.051
T5C0.118
%
G90
G05
M72
T1
X7.25Y-6.15
X7.285Y-6.24
X7.305Y-6.37
X7.395Y-6.46
X7.63Y-6.43
X7.665Y-5.975
X7.775Y-6.15
X7.775Y-6.3
X7.885Y-6.09
X7.885Y-6.385
X8.47Y-6.45
X8.475Y-6.025
X8.475Y-6.15
X8.475Y-6.325
T2
X7.5Y-6.025
X7.6Y-6.025
T3
X7.Y-6.1
X7.Y-6.2
X7.Y-6.3
X7.1Y-6.1
X7.1Y-6.2
X7.1Y-6.3
T4
X8.6Y-6.
X8.6Y-6.1
X8.6Y-6.2
X8.6Y-6.3
X8.6Y-6.4
X8.6Y-6.5
T5
X7.16Y-6.435
T0
M30
