G04 (created by PCBNEW (2013-07-07 BZR 4022)-stable) date 28/01/2014 11:02:56*
%MOIN*%
G04 Gerber Fmt 3.4, Leading zero omitted, Abs format*
%FSLAX34Y34*%
G01*
G70*
G90*
G04 APERTURE LIST*
%ADD10C,0.00590551*%
%ADD11C,0.005*%
%ADD12C,0.0039*%
%ADD13C,0.012*%
%ADD14C,0.008*%
%ADD15C,0.015*%
%ADD16C,0.0043*%
%ADD17C,0.0028*%
G04 APERTURE END LIST*
G54D10*
G54D11*
X77450Y-62500D02*
X76550Y-62500D01*
X76550Y-62500D02*
X76550Y-63150D01*
X77450Y-63850D02*
X77450Y-64500D01*
X77450Y-64500D02*
X76550Y-64500D01*
X76550Y-64500D02*
X76550Y-63850D01*
X77450Y-63150D02*
X77450Y-62500D01*
X82500Y-62550D02*
X82500Y-63450D01*
X82500Y-63450D02*
X83150Y-63450D01*
X83850Y-62550D02*
X84500Y-62550D01*
X84500Y-62550D02*
X84500Y-63450D01*
X84500Y-63450D02*
X83850Y-63450D01*
X83150Y-62550D02*
X82500Y-62550D01*
X82500Y-61050D02*
X82500Y-61950D01*
X82500Y-61950D02*
X83150Y-61950D01*
X83850Y-61050D02*
X84500Y-61050D01*
X84500Y-61050D02*
X84500Y-61950D01*
X84500Y-61950D02*
X83850Y-61950D01*
X83150Y-61050D02*
X82500Y-61050D01*
X82500Y-59550D02*
X82500Y-60450D01*
X82500Y-60450D02*
X83150Y-60450D01*
X83850Y-59550D02*
X84500Y-59550D01*
X84500Y-59550D02*
X84500Y-60450D01*
X84500Y-60450D02*
X83850Y-60450D01*
X83150Y-59550D02*
X82500Y-59550D01*
X82500Y-64050D02*
X82500Y-64950D01*
X82500Y-64950D02*
X83150Y-64950D01*
X83850Y-64050D02*
X84500Y-64050D01*
X84500Y-64050D02*
X84500Y-64950D01*
X84500Y-64950D02*
X83850Y-64950D01*
X83150Y-64050D02*
X82500Y-64050D01*
X76550Y-62000D02*
X77450Y-62000D01*
X77450Y-62000D02*
X77450Y-61350D01*
X76550Y-60650D02*
X76550Y-60000D01*
X76550Y-60000D02*
X77450Y-60000D01*
X77450Y-60000D02*
X77450Y-60650D01*
X76550Y-61350D02*
X76550Y-62000D01*
G54D12*
X74700Y-63200D02*
G75*
G03X74700Y-63200I-50J0D01*
G74*
G01*
X74200Y-63200D02*
X74600Y-63200D01*
X74600Y-63200D02*
X74600Y-63800D01*
X74600Y-63800D02*
X74200Y-63800D01*
X73800Y-63800D02*
X73400Y-63800D01*
X73400Y-63800D02*
X73400Y-63200D01*
X73400Y-63200D02*
X73800Y-63200D01*
X76200Y-62450D02*
G75*
G03X76200Y-62450I-50J0D01*
G74*
G01*
X75700Y-62450D02*
X76100Y-62450D01*
X76100Y-62450D02*
X76100Y-63050D01*
X76100Y-63050D02*
X75700Y-63050D01*
X75300Y-63050D02*
X74900Y-63050D01*
X74900Y-63050D02*
X74900Y-62450D01*
X74900Y-62450D02*
X75300Y-62450D01*
X80700Y-62450D02*
G75*
G03X80700Y-62450I-50J0D01*
G74*
G01*
X80200Y-62450D02*
X80600Y-62450D01*
X80600Y-62450D02*
X80600Y-63050D01*
X80600Y-63050D02*
X80200Y-63050D01*
X79800Y-63050D02*
X79400Y-63050D01*
X79400Y-63050D02*
X79400Y-62450D01*
X79400Y-62450D02*
X79800Y-62450D01*
X80700Y-61450D02*
G75*
G03X80700Y-61450I-50J0D01*
G74*
G01*
X80200Y-61450D02*
X80600Y-61450D01*
X80600Y-61450D02*
X80600Y-62050D01*
X80600Y-62050D02*
X80200Y-62050D01*
X79800Y-62050D02*
X79400Y-62050D01*
X79400Y-62050D02*
X79400Y-61450D01*
X79400Y-61450D02*
X79800Y-61450D01*
X82200Y-61200D02*
G75*
G03X82200Y-61200I-50J0D01*
G74*
G01*
X81700Y-61200D02*
X82100Y-61200D01*
X82100Y-61200D02*
X82100Y-61800D01*
X82100Y-61800D02*
X81700Y-61800D01*
X81300Y-61800D02*
X80900Y-61800D01*
X80900Y-61800D02*
X80900Y-61200D01*
X80900Y-61200D02*
X81300Y-61200D01*
X77900Y-63050D02*
G75*
G03X77900Y-63050I-50J0D01*
G74*
G01*
X78300Y-63050D02*
X77900Y-63050D01*
X77900Y-63050D02*
X77900Y-62450D01*
X77900Y-62450D02*
X78300Y-62450D01*
X78700Y-62450D02*
X79100Y-62450D01*
X79100Y-62450D02*
X79100Y-63050D01*
X79100Y-63050D02*
X78700Y-63050D01*
X82200Y-60200D02*
G75*
G03X82200Y-60200I-50J0D01*
G74*
G01*
X81700Y-60200D02*
X82100Y-60200D01*
X82100Y-60200D02*
X82100Y-60800D01*
X82100Y-60800D02*
X81700Y-60800D01*
X81300Y-60800D02*
X80900Y-60800D01*
X80900Y-60800D02*
X80900Y-60200D01*
X80900Y-60200D02*
X81300Y-60200D01*
X80700Y-59450D02*
G75*
G03X80700Y-59450I-50J0D01*
G74*
G01*
X80200Y-59450D02*
X80600Y-59450D01*
X80600Y-59450D02*
X80600Y-60050D01*
X80600Y-60050D02*
X80200Y-60050D01*
X79800Y-60050D02*
X79400Y-60050D01*
X79400Y-60050D02*
X79400Y-59450D01*
X79400Y-59450D02*
X79800Y-59450D01*
X76200Y-61450D02*
G75*
G03X76200Y-61450I-50J0D01*
G74*
G01*
X75700Y-61450D02*
X76100Y-61450D01*
X76100Y-61450D02*
X76100Y-62050D01*
X76100Y-62050D02*
X75700Y-62050D01*
X75300Y-62050D02*
X74900Y-62050D01*
X74900Y-62050D02*
X74900Y-61450D01*
X74900Y-61450D02*
X75300Y-61450D01*
X74700Y-60700D02*
G75*
G03X74700Y-60700I-50J0D01*
G74*
G01*
X74200Y-60700D02*
X74600Y-60700D01*
X74600Y-60700D02*
X74600Y-61300D01*
X74600Y-61300D02*
X74200Y-61300D01*
X73800Y-61300D02*
X73400Y-61300D01*
X73400Y-61300D02*
X73400Y-60700D01*
X73400Y-60700D02*
X73800Y-60700D01*
X77900Y-62050D02*
G75*
G03X77900Y-62050I-50J0D01*
G74*
G01*
X78300Y-62050D02*
X77900Y-62050D01*
X77900Y-62050D02*
X77900Y-61450D01*
X77900Y-61450D02*
X78300Y-61450D01*
X78700Y-61450D02*
X79100Y-61450D01*
X79100Y-61450D02*
X79100Y-62050D01*
X79100Y-62050D02*
X78700Y-62050D01*
X82200Y-62950D02*
G75*
G03X82200Y-62950I-50J0D01*
G74*
G01*
X81700Y-62950D02*
X82100Y-62950D01*
X82100Y-62950D02*
X82100Y-63550D01*
X82100Y-63550D02*
X81700Y-63550D01*
X81300Y-63550D02*
X80900Y-63550D01*
X80900Y-63550D02*
X80900Y-62950D01*
X80900Y-62950D02*
X81300Y-62950D01*
X71900Y-61300D02*
G75*
G03X71900Y-61300I-50J0D01*
G74*
G01*
X72300Y-61300D02*
X71900Y-61300D01*
X71900Y-61300D02*
X71900Y-60700D01*
X71900Y-60700D02*
X72300Y-60700D01*
X72700Y-60700D02*
X73100Y-60700D01*
X73100Y-60700D02*
X73100Y-61300D01*
X73100Y-61300D02*
X72700Y-61300D01*
X82200Y-63950D02*
G75*
G03X82200Y-63950I-50J0D01*
G74*
G01*
X81700Y-63950D02*
X82100Y-63950D01*
X82100Y-63950D02*
X82100Y-64550D01*
X82100Y-64550D02*
X81700Y-64550D01*
X81300Y-64550D02*
X80900Y-64550D01*
X80900Y-64550D02*
X80900Y-63950D01*
X80900Y-63950D02*
X81300Y-63950D01*
X80950Y-64450D02*
G75*
G03X80950Y-64450I-50J0D01*
G74*
G01*
X80450Y-64450D02*
X80850Y-64450D01*
X80850Y-64450D02*
X80850Y-65050D01*
X80850Y-65050D02*
X80450Y-65050D01*
X80050Y-65050D02*
X79650Y-65050D01*
X79650Y-65050D02*
X79650Y-64450D01*
X79650Y-64450D02*
X80050Y-64450D01*
G54D13*
X76500Y-59750D02*
X76500Y-60750D01*
X76500Y-60750D02*
X74500Y-60750D01*
X74500Y-60750D02*
X74500Y-59750D01*
X74500Y-59750D02*
X76500Y-59750D01*
G54D14*
X69500Y-63500D02*
X69500Y-60500D01*
X71500Y-60500D02*
X71500Y-63500D01*
X71500Y-63500D02*
X69500Y-63500D01*
X69500Y-60500D02*
X71500Y-60500D01*
G54D11*
X79840Y-63880D02*
X80200Y-63880D01*
X79840Y-63620D02*
X80200Y-63620D01*
X79840Y-63370D02*
X80200Y-63370D01*
X79840Y-64130D02*
X80200Y-64130D01*
X78660Y-64130D02*
X78300Y-64130D01*
X78660Y-63880D02*
X78300Y-63880D01*
X78660Y-63370D02*
X78300Y-63370D01*
X78660Y-63620D02*
X78300Y-63620D01*
X79006Y-63396D02*
G75*
G03X79006Y-63396I-111J0D01*
G74*
G01*
X79841Y-64341D02*
X79841Y-63159D01*
X79841Y-63159D02*
X78659Y-63159D01*
X78659Y-63159D02*
X78659Y-64341D01*
X78659Y-64341D02*
X79841Y-64341D01*
X73840Y-62380D02*
X74200Y-62380D01*
X73840Y-62120D02*
X74200Y-62120D01*
X73840Y-61870D02*
X74200Y-61870D01*
X73840Y-62630D02*
X74200Y-62630D01*
X72660Y-62630D02*
X72300Y-62630D01*
X72660Y-62380D02*
X72300Y-62380D01*
X72660Y-61870D02*
X72300Y-61870D01*
X72660Y-62120D02*
X72300Y-62120D01*
X73006Y-61896D02*
G75*
G03X73006Y-61896I-111J0D01*
G74*
G01*
X73841Y-62841D02*
X73841Y-61659D01*
X73841Y-61659D02*
X72659Y-61659D01*
X72659Y-61659D02*
X72659Y-62841D01*
X72659Y-62841D02*
X73841Y-62841D01*
X79840Y-60880D02*
X80200Y-60880D01*
X79840Y-60620D02*
X80200Y-60620D01*
X79840Y-60370D02*
X80200Y-60370D01*
X79840Y-61130D02*
X80200Y-61130D01*
X78660Y-61130D02*
X78300Y-61130D01*
X78660Y-60880D02*
X78300Y-60880D01*
X78660Y-60370D02*
X78300Y-60370D01*
X78660Y-60620D02*
X78300Y-60620D01*
X79006Y-60396D02*
G75*
G03X79006Y-60396I-111J0D01*
G74*
G01*
X79841Y-61341D02*
X79841Y-60159D01*
X79841Y-60159D02*
X78659Y-60159D01*
X78659Y-60159D02*
X78659Y-61341D01*
X78659Y-61341D02*
X79841Y-61341D01*
G54D10*
X87000Y-65000D02*
X87500Y-65000D01*
X87000Y-64000D02*
X87500Y-64000D01*
X87000Y-63000D02*
X87500Y-63000D01*
X87000Y-62000D02*
X87500Y-62000D01*
X87000Y-61000D02*
X87500Y-61000D01*
X87000Y-60000D02*
X87500Y-60000D01*
G54D13*
X84740Y-59409D02*
X87259Y-59409D01*
X87299Y-59409D02*
X87299Y-65590D01*
X87259Y-65590D02*
X84740Y-65590D01*
X84740Y-65590D02*
X84740Y-59409D01*
G54D15*
X72500Y-64350D02*
G75*
G03X72500Y-64350I-900J0D01*
G74*
G01*
G54D11*
X76514Y-63621D02*
X76371Y-63621D01*
X76371Y-63321D01*
X76614Y-63621D02*
X76614Y-63321D01*
X76685Y-63321D01*
X76728Y-63335D01*
X76757Y-63364D01*
X76771Y-63392D01*
X76785Y-63450D01*
X76785Y-63492D01*
X76771Y-63550D01*
X76757Y-63578D01*
X76728Y-63607D01*
X76685Y-63621D01*
X76614Y-63621D01*
X77042Y-63321D02*
X76985Y-63321D01*
X76957Y-63335D01*
X76942Y-63350D01*
X76914Y-63392D01*
X76900Y-63450D01*
X76900Y-63564D01*
X76914Y-63592D01*
X76928Y-63607D01*
X76957Y-63621D01*
X77014Y-63621D01*
X77042Y-63607D01*
X77057Y-63592D01*
X77071Y-63564D01*
X77071Y-63492D01*
X77057Y-63464D01*
X77042Y-63450D01*
X77014Y-63435D01*
X76957Y-63435D01*
X76928Y-63450D01*
X76914Y-63464D01*
X76900Y-63492D01*
X77257Y-63321D02*
X77285Y-63321D01*
X77314Y-63335D01*
X77328Y-63350D01*
X77342Y-63378D01*
X77357Y-63435D01*
X77357Y-63507D01*
X77342Y-63564D01*
X77328Y-63592D01*
X77314Y-63607D01*
X77285Y-63621D01*
X77257Y-63621D01*
X77228Y-63607D01*
X77214Y-63592D01*
X77200Y-63564D01*
X77185Y-63507D01*
X77185Y-63435D01*
X77200Y-63378D01*
X77214Y-63350D01*
X77228Y-63335D01*
X77257Y-63321D01*
X77614Y-63421D02*
X77614Y-63621D01*
X77542Y-63307D02*
X77471Y-63521D01*
X77657Y-63521D01*
X83621Y-63485D02*
X83621Y-63628D01*
X83321Y-63628D01*
X83621Y-63385D02*
X83321Y-63385D01*
X83321Y-63314D01*
X83335Y-63271D01*
X83364Y-63242D01*
X83392Y-63228D01*
X83450Y-63214D01*
X83492Y-63214D01*
X83550Y-63228D01*
X83578Y-63242D01*
X83607Y-63271D01*
X83621Y-63314D01*
X83621Y-63385D01*
X83321Y-62957D02*
X83321Y-63014D01*
X83335Y-63042D01*
X83350Y-63057D01*
X83392Y-63085D01*
X83450Y-63099D01*
X83564Y-63099D01*
X83592Y-63085D01*
X83607Y-63071D01*
X83621Y-63042D01*
X83621Y-62985D01*
X83607Y-62957D01*
X83592Y-62942D01*
X83564Y-62928D01*
X83492Y-62928D01*
X83464Y-62942D01*
X83450Y-62957D01*
X83435Y-62985D01*
X83435Y-63042D01*
X83450Y-63071D01*
X83464Y-63085D01*
X83492Y-63099D01*
X83321Y-62742D02*
X83321Y-62714D01*
X83335Y-62685D01*
X83350Y-62671D01*
X83378Y-62657D01*
X83435Y-62642D01*
X83507Y-62642D01*
X83564Y-62657D01*
X83592Y-62671D01*
X83607Y-62685D01*
X83621Y-62714D01*
X83621Y-62742D01*
X83607Y-62771D01*
X83592Y-62785D01*
X83564Y-62799D01*
X83507Y-62814D01*
X83435Y-62814D01*
X83378Y-62799D01*
X83350Y-62785D01*
X83335Y-62771D01*
X83321Y-62742D01*
X83321Y-62371D02*
X83321Y-62514D01*
X83464Y-62528D01*
X83450Y-62514D01*
X83435Y-62485D01*
X83435Y-62414D01*
X83450Y-62385D01*
X83464Y-62371D01*
X83492Y-62357D01*
X83564Y-62357D01*
X83592Y-62371D01*
X83607Y-62385D01*
X83621Y-62414D01*
X83621Y-62485D01*
X83607Y-62514D01*
X83592Y-62528D01*
X83621Y-61985D02*
X83621Y-62128D01*
X83321Y-62128D01*
X83621Y-61885D02*
X83321Y-61885D01*
X83321Y-61814D01*
X83335Y-61771D01*
X83364Y-61742D01*
X83392Y-61728D01*
X83450Y-61714D01*
X83492Y-61714D01*
X83550Y-61728D01*
X83578Y-61742D01*
X83607Y-61771D01*
X83621Y-61814D01*
X83621Y-61885D01*
X83321Y-61457D02*
X83321Y-61514D01*
X83335Y-61542D01*
X83350Y-61557D01*
X83392Y-61585D01*
X83450Y-61599D01*
X83564Y-61599D01*
X83592Y-61585D01*
X83607Y-61571D01*
X83621Y-61542D01*
X83621Y-61485D01*
X83607Y-61457D01*
X83592Y-61442D01*
X83564Y-61428D01*
X83492Y-61428D01*
X83464Y-61442D01*
X83450Y-61457D01*
X83435Y-61485D01*
X83435Y-61542D01*
X83450Y-61571D01*
X83464Y-61585D01*
X83492Y-61599D01*
X83321Y-61242D02*
X83321Y-61214D01*
X83335Y-61185D01*
X83350Y-61171D01*
X83378Y-61157D01*
X83435Y-61142D01*
X83507Y-61142D01*
X83564Y-61157D01*
X83592Y-61171D01*
X83607Y-61185D01*
X83621Y-61214D01*
X83621Y-61242D01*
X83607Y-61271D01*
X83592Y-61285D01*
X83564Y-61299D01*
X83507Y-61314D01*
X83435Y-61314D01*
X83378Y-61299D01*
X83350Y-61285D01*
X83335Y-61271D01*
X83321Y-61242D01*
X83350Y-61028D02*
X83335Y-61014D01*
X83321Y-60985D01*
X83321Y-60914D01*
X83335Y-60885D01*
X83350Y-60871D01*
X83378Y-60857D01*
X83407Y-60857D01*
X83450Y-60871D01*
X83621Y-61042D01*
X83621Y-60857D01*
X83621Y-60485D02*
X83621Y-60628D01*
X83321Y-60628D01*
X83621Y-60385D02*
X83321Y-60385D01*
X83321Y-60314D01*
X83335Y-60271D01*
X83364Y-60242D01*
X83392Y-60228D01*
X83450Y-60214D01*
X83492Y-60214D01*
X83550Y-60228D01*
X83578Y-60242D01*
X83607Y-60271D01*
X83621Y-60314D01*
X83621Y-60385D01*
X83321Y-59957D02*
X83321Y-60014D01*
X83335Y-60042D01*
X83350Y-60057D01*
X83392Y-60085D01*
X83450Y-60099D01*
X83564Y-60099D01*
X83592Y-60085D01*
X83607Y-60071D01*
X83621Y-60042D01*
X83621Y-59985D01*
X83607Y-59957D01*
X83592Y-59942D01*
X83564Y-59928D01*
X83492Y-59928D01*
X83464Y-59942D01*
X83450Y-59957D01*
X83435Y-59985D01*
X83435Y-60042D01*
X83450Y-60071D01*
X83464Y-60085D01*
X83492Y-60099D01*
X83321Y-59742D02*
X83321Y-59714D01*
X83335Y-59685D01*
X83350Y-59671D01*
X83378Y-59657D01*
X83435Y-59642D01*
X83507Y-59642D01*
X83564Y-59657D01*
X83592Y-59671D01*
X83607Y-59685D01*
X83621Y-59714D01*
X83621Y-59742D01*
X83607Y-59771D01*
X83592Y-59785D01*
X83564Y-59799D01*
X83507Y-59814D01*
X83435Y-59814D01*
X83378Y-59799D01*
X83350Y-59785D01*
X83335Y-59771D01*
X83321Y-59742D01*
X83621Y-59357D02*
X83621Y-59528D01*
X83621Y-59442D02*
X83321Y-59442D01*
X83364Y-59471D01*
X83392Y-59500D01*
X83407Y-59528D01*
X83621Y-64985D02*
X83621Y-65128D01*
X83321Y-65128D01*
X83621Y-64885D02*
X83321Y-64885D01*
X83321Y-64814D01*
X83335Y-64771D01*
X83364Y-64742D01*
X83392Y-64728D01*
X83450Y-64714D01*
X83492Y-64714D01*
X83550Y-64728D01*
X83578Y-64742D01*
X83607Y-64771D01*
X83621Y-64814D01*
X83621Y-64885D01*
X83321Y-64457D02*
X83321Y-64514D01*
X83335Y-64542D01*
X83350Y-64557D01*
X83392Y-64585D01*
X83450Y-64599D01*
X83564Y-64599D01*
X83592Y-64585D01*
X83607Y-64571D01*
X83621Y-64542D01*
X83621Y-64485D01*
X83607Y-64457D01*
X83592Y-64442D01*
X83564Y-64428D01*
X83492Y-64428D01*
X83464Y-64442D01*
X83450Y-64457D01*
X83435Y-64485D01*
X83435Y-64542D01*
X83450Y-64571D01*
X83464Y-64585D01*
X83492Y-64599D01*
X83321Y-64242D02*
X83321Y-64214D01*
X83335Y-64185D01*
X83350Y-64171D01*
X83378Y-64157D01*
X83435Y-64142D01*
X83507Y-64142D01*
X83564Y-64157D01*
X83592Y-64171D01*
X83607Y-64185D01*
X83621Y-64214D01*
X83621Y-64242D01*
X83607Y-64271D01*
X83592Y-64285D01*
X83564Y-64299D01*
X83507Y-64314D01*
X83435Y-64314D01*
X83378Y-64299D01*
X83350Y-64285D01*
X83335Y-64271D01*
X83321Y-64242D01*
X83321Y-63885D02*
X83321Y-63942D01*
X83335Y-63971D01*
X83350Y-63985D01*
X83392Y-64014D01*
X83450Y-64028D01*
X83564Y-64028D01*
X83592Y-64014D01*
X83607Y-64000D01*
X83621Y-63971D01*
X83621Y-63914D01*
X83607Y-63885D01*
X83592Y-63871D01*
X83564Y-63857D01*
X83492Y-63857D01*
X83464Y-63871D01*
X83450Y-63885D01*
X83435Y-63914D01*
X83435Y-63971D01*
X83450Y-64000D01*
X83464Y-64014D01*
X83492Y-64028D01*
X76514Y-61121D02*
X76371Y-61121D01*
X76371Y-60821D01*
X76614Y-61121D02*
X76614Y-60821D01*
X76685Y-60821D01*
X76728Y-60835D01*
X76757Y-60864D01*
X76771Y-60892D01*
X76785Y-60950D01*
X76785Y-60992D01*
X76771Y-61050D01*
X76757Y-61078D01*
X76728Y-61107D01*
X76685Y-61121D01*
X76614Y-61121D01*
X77042Y-60821D02*
X76985Y-60821D01*
X76957Y-60835D01*
X76942Y-60850D01*
X76914Y-60892D01*
X76900Y-60950D01*
X76900Y-61064D01*
X76914Y-61092D01*
X76928Y-61107D01*
X76957Y-61121D01*
X77014Y-61121D01*
X77042Y-61107D01*
X77057Y-61092D01*
X77071Y-61064D01*
X77071Y-60992D01*
X77057Y-60964D01*
X77042Y-60950D01*
X77014Y-60935D01*
X76957Y-60935D01*
X76928Y-60950D01*
X76914Y-60964D01*
X76900Y-60992D01*
X77257Y-60821D02*
X77285Y-60821D01*
X77314Y-60835D01*
X77328Y-60850D01*
X77342Y-60878D01*
X77357Y-60935D01*
X77357Y-61007D01*
X77342Y-61064D01*
X77328Y-61092D01*
X77314Y-61107D01*
X77285Y-61121D01*
X77257Y-61121D01*
X77228Y-61107D01*
X77214Y-61092D01*
X77200Y-61064D01*
X77185Y-61007D01*
X77185Y-60935D01*
X77200Y-60878D01*
X77214Y-60850D01*
X77228Y-60835D01*
X77257Y-60821D01*
X77457Y-60821D02*
X77642Y-60821D01*
X77542Y-60935D01*
X77585Y-60935D01*
X77614Y-60950D01*
X77628Y-60964D01*
X77642Y-60992D01*
X77642Y-61064D01*
X77628Y-61092D01*
X77614Y-61107D01*
X77585Y-61121D01*
X77500Y-61121D01*
X77471Y-61107D01*
X77457Y-61092D01*
G54D16*
X74079Y-63720D02*
X73985Y-63786D01*
X74079Y-63833D02*
X73882Y-63833D01*
X73882Y-63757D01*
X73892Y-63739D01*
X73901Y-63729D01*
X73920Y-63720D01*
X73948Y-63720D01*
X73967Y-63729D01*
X73976Y-63739D01*
X73985Y-63757D01*
X73985Y-63833D01*
X73882Y-63551D02*
X73882Y-63589D01*
X73892Y-63607D01*
X73901Y-63617D01*
X73929Y-63636D01*
X73967Y-63645D01*
X74042Y-63645D01*
X74060Y-63636D01*
X74070Y-63626D01*
X74079Y-63607D01*
X74079Y-63570D01*
X74070Y-63551D01*
X74060Y-63542D01*
X74042Y-63532D01*
X73995Y-63532D01*
X73976Y-63542D01*
X73967Y-63551D01*
X73957Y-63570D01*
X73957Y-63607D01*
X73967Y-63626D01*
X73976Y-63636D01*
X73995Y-63645D01*
X73882Y-63410D02*
X73882Y-63392D01*
X73892Y-63373D01*
X73901Y-63363D01*
X73920Y-63354D01*
X73957Y-63345D01*
X74004Y-63345D01*
X74042Y-63354D01*
X74060Y-63363D01*
X74070Y-63373D01*
X74079Y-63392D01*
X74079Y-63410D01*
X74070Y-63429D01*
X74060Y-63439D01*
X74042Y-63448D01*
X74004Y-63457D01*
X73957Y-63457D01*
X73920Y-63448D01*
X73901Y-63439D01*
X73892Y-63429D01*
X73882Y-63410D01*
X73882Y-63279D02*
X73882Y-63148D01*
X74079Y-63232D01*
X75579Y-62970D02*
X75485Y-63036D01*
X75579Y-63083D02*
X75382Y-63083D01*
X75382Y-63007D01*
X75392Y-62989D01*
X75401Y-62979D01*
X75420Y-62970D01*
X75448Y-62970D01*
X75467Y-62979D01*
X75476Y-62989D01*
X75485Y-63007D01*
X75485Y-63083D01*
X75382Y-62801D02*
X75382Y-62839D01*
X75392Y-62857D01*
X75401Y-62867D01*
X75429Y-62886D01*
X75467Y-62895D01*
X75542Y-62895D01*
X75560Y-62886D01*
X75570Y-62876D01*
X75579Y-62857D01*
X75579Y-62820D01*
X75570Y-62801D01*
X75560Y-62792D01*
X75542Y-62782D01*
X75495Y-62782D01*
X75476Y-62792D01*
X75467Y-62801D01*
X75457Y-62820D01*
X75457Y-62857D01*
X75467Y-62876D01*
X75476Y-62886D01*
X75495Y-62895D01*
X75382Y-62660D02*
X75382Y-62642D01*
X75392Y-62623D01*
X75401Y-62613D01*
X75420Y-62604D01*
X75457Y-62595D01*
X75504Y-62595D01*
X75542Y-62604D01*
X75560Y-62613D01*
X75570Y-62623D01*
X75579Y-62642D01*
X75579Y-62660D01*
X75570Y-62679D01*
X75560Y-62689D01*
X75542Y-62698D01*
X75504Y-62707D01*
X75457Y-62707D01*
X75420Y-62698D01*
X75401Y-62689D01*
X75392Y-62679D01*
X75382Y-62660D01*
X75467Y-62482D02*
X75457Y-62501D01*
X75448Y-62510D01*
X75429Y-62520D01*
X75420Y-62520D01*
X75401Y-62510D01*
X75392Y-62501D01*
X75382Y-62482D01*
X75382Y-62445D01*
X75392Y-62426D01*
X75401Y-62416D01*
X75420Y-62407D01*
X75429Y-62407D01*
X75448Y-62416D01*
X75457Y-62426D01*
X75467Y-62445D01*
X75467Y-62482D01*
X75476Y-62501D01*
X75485Y-62510D01*
X75504Y-62520D01*
X75542Y-62520D01*
X75560Y-62510D01*
X75570Y-62501D01*
X75579Y-62482D01*
X75579Y-62445D01*
X75570Y-62426D01*
X75560Y-62416D01*
X75542Y-62407D01*
X75504Y-62407D01*
X75485Y-62416D01*
X75476Y-62426D01*
X75467Y-62445D01*
X80079Y-62970D02*
X79985Y-63036D01*
X80079Y-63083D02*
X79882Y-63083D01*
X79882Y-63007D01*
X79892Y-62989D01*
X79901Y-62979D01*
X79920Y-62970D01*
X79948Y-62970D01*
X79967Y-62979D01*
X79976Y-62989D01*
X79985Y-63007D01*
X79985Y-63083D01*
X79882Y-62801D02*
X79882Y-62839D01*
X79892Y-62857D01*
X79901Y-62867D01*
X79929Y-62886D01*
X79967Y-62895D01*
X80042Y-62895D01*
X80060Y-62886D01*
X80070Y-62876D01*
X80079Y-62857D01*
X80079Y-62820D01*
X80070Y-62801D01*
X80060Y-62792D01*
X80042Y-62782D01*
X79995Y-62782D01*
X79976Y-62792D01*
X79967Y-62801D01*
X79957Y-62820D01*
X79957Y-62857D01*
X79967Y-62876D01*
X79976Y-62886D01*
X79995Y-62895D01*
X80079Y-62595D02*
X80079Y-62707D01*
X80079Y-62651D02*
X79882Y-62651D01*
X79910Y-62670D01*
X79929Y-62689D01*
X79939Y-62707D01*
X79882Y-62473D02*
X79882Y-62454D01*
X79892Y-62435D01*
X79901Y-62426D01*
X79920Y-62416D01*
X79957Y-62407D01*
X80004Y-62407D01*
X80042Y-62416D01*
X80060Y-62426D01*
X80070Y-62435D01*
X80079Y-62454D01*
X80079Y-62473D01*
X80070Y-62492D01*
X80060Y-62501D01*
X80042Y-62510D01*
X80004Y-62520D01*
X79957Y-62520D01*
X79920Y-62510D01*
X79901Y-62501D01*
X79892Y-62492D01*
X79882Y-62473D01*
X80079Y-61970D02*
X79985Y-62036D01*
X80079Y-62083D02*
X79882Y-62083D01*
X79882Y-62007D01*
X79892Y-61989D01*
X79901Y-61979D01*
X79920Y-61970D01*
X79948Y-61970D01*
X79967Y-61979D01*
X79976Y-61989D01*
X79985Y-62007D01*
X79985Y-62083D01*
X79882Y-61801D02*
X79882Y-61839D01*
X79892Y-61857D01*
X79901Y-61867D01*
X79929Y-61886D01*
X79967Y-61895D01*
X80042Y-61895D01*
X80060Y-61886D01*
X80070Y-61876D01*
X80079Y-61857D01*
X80079Y-61820D01*
X80070Y-61801D01*
X80060Y-61792D01*
X80042Y-61782D01*
X79995Y-61782D01*
X79976Y-61792D01*
X79967Y-61801D01*
X79957Y-61820D01*
X79957Y-61857D01*
X79967Y-61876D01*
X79976Y-61886D01*
X79995Y-61895D01*
X79882Y-61660D02*
X79882Y-61642D01*
X79892Y-61623D01*
X79901Y-61613D01*
X79920Y-61604D01*
X79957Y-61595D01*
X80004Y-61595D01*
X80042Y-61604D01*
X80060Y-61613D01*
X80070Y-61623D01*
X80079Y-61642D01*
X80079Y-61660D01*
X80070Y-61679D01*
X80060Y-61689D01*
X80042Y-61698D01*
X80004Y-61707D01*
X79957Y-61707D01*
X79920Y-61698D01*
X79901Y-61689D01*
X79892Y-61679D01*
X79882Y-61660D01*
X79882Y-61529D02*
X79882Y-61407D01*
X79957Y-61473D01*
X79957Y-61445D01*
X79967Y-61426D01*
X79976Y-61416D01*
X79995Y-61407D01*
X80042Y-61407D01*
X80060Y-61416D01*
X80070Y-61426D01*
X80079Y-61445D01*
X80079Y-61501D01*
X80070Y-61520D01*
X80060Y-61529D01*
X81579Y-61720D02*
X81485Y-61786D01*
X81579Y-61833D02*
X81382Y-61833D01*
X81382Y-61757D01*
X81392Y-61739D01*
X81401Y-61729D01*
X81420Y-61720D01*
X81448Y-61720D01*
X81467Y-61729D01*
X81476Y-61739D01*
X81485Y-61757D01*
X81485Y-61833D01*
X81382Y-61551D02*
X81382Y-61589D01*
X81392Y-61607D01*
X81401Y-61617D01*
X81429Y-61636D01*
X81467Y-61645D01*
X81542Y-61645D01*
X81560Y-61636D01*
X81570Y-61626D01*
X81579Y-61607D01*
X81579Y-61570D01*
X81570Y-61551D01*
X81560Y-61542D01*
X81542Y-61532D01*
X81495Y-61532D01*
X81476Y-61542D01*
X81467Y-61551D01*
X81457Y-61570D01*
X81457Y-61607D01*
X81467Y-61626D01*
X81476Y-61636D01*
X81495Y-61645D01*
X81382Y-61410D02*
X81382Y-61392D01*
X81392Y-61373D01*
X81401Y-61363D01*
X81420Y-61354D01*
X81457Y-61345D01*
X81504Y-61345D01*
X81542Y-61354D01*
X81560Y-61363D01*
X81570Y-61373D01*
X81579Y-61392D01*
X81579Y-61410D01*
X81570Y-61429D01*
X81560Y-61439D01*
X81542Y-61448D01*
X81504Y-61457D01*
X81457Y-61457D01*
X81420Y-61448D01*
X81401Y-61439D01*
X81392Y-61429D01*
X81382Y-61410D01*
X81448Y-61176D02*
X81579Y-61176D01*
X81373Y-61223D02*
X81514Y-61270D01*
X81514Y-61148D01*
X78560Y-62970D02*
X78570Y-62979D01*
X78579Y-63007D01*
X78579Y-63026D01*
X78570Y-63054D01*
X78551Y-63073D01*
X78532Y-63083D01*
X78495Y-63092D01*
X78467Y-63092D01*
X78429Y-63083D01*
X78410Y-63073D01*
X78392Y-63054D01*
X78382Y-63026D01*
X78382Y-63007D01*
X78392Y-62979D01*
X78401Y-62970D01*
X78382Y-62801D02*
X78382Y-62839D01*
X78392Y-62857D01*
X78401Y-62867D01*
X78429Y-62886D01*
X78467Y-62895D01*
X78542Y-62895D01*
X78560Y-62886D01*
X78570Y-62876D01*
X78579Y-62857D01*
X78579Y-62820D01*
X78570Y-62801D01*
X78560Y-62792D01*
X78542Y-62782D01*
X78495Y-62782D01*
X78476Y-62792D01*
X78467Y-62801D01*
X78457Y-62820D01*
X78457Y-62857D01*
X78467Y-62876D01*
X78476Y-62886D01*
X78495Y-62895D01*
X78382Y-62660D02*
X78382Y-62642D01*
X78392Y-62623D01*
X78401Y-62613D01*
X78420Y-62604D01*
X78457Y-62595D01*
X78504Y-62595D01*
X78542Y-62604D01*
X78560Y-62613D01*
X78570Y-62623D01*
X78579Y-62642D01*
X78579Y-62660D01*
X78570Y-62679D01*
X78560Y-62689D01*
X78542Y-62698D01*
X78504Y-62707D01*
X78457Y-62707D01*
X78420Y-62698D01*
X78401Y-62689D01*
X78392Y-62679D01*
X78382Y-62660D01*
X78401Y-62520D02*
X78392Y-62510D01*
X78382Y-62492D01*
X78382Y-62445D01*
X78392Y-62426D01*
X78401Y-62416D01*
X78420Y-62407D01*
X78439Y-62407D01*
X78467Y-62416D01*
X78579Y-62529D01*
X78579Y-62407D01*
X81579Y-60720D02*
X81485Y-60786D01*
X81579Y-60833D02*
X81382Y-60833D01*
X81382Y-60757D01*
X81392Y-60739D01*
X81401Y-60729D01*
X81420Y-60720D01*
X81448Y-60720D01*
X81467Y-60729D01*
X81476Y-60739D01*
X81485Y-60757D01*
X81485Y-60833D01*
X81382Y-60551D02*
X81382Y-60589D01*
X81392Y-60607D01*
X81401Y-60617D01*
X81429Y-60636D01*
X81467Y-60645D01*
X81542Y-60645D01*
X81560Y-60636D01*
X81570Y-60626D01*
X81579Y-60607D01*
X81579Y-60570D01*
X81570Y-60551D01*
X81560Y-60542D01*
X81542Y-60532D01*
X81495Y-60532D01*
X81476Y-60542D01*
X81467Y-60551D01*
X81457Y-60570D01*
X81457Y-60607D01*
X81467Y-60626D01*
X81476Y-60636D01*
X81495Y-60645D01*
X81382Y-60410D02*
X81382Y-60392D01*
X81392Y-60373D01*
X81401Y-60363D01*
X81420Y-60354D01*
X81457Y-60345D01*
X81504Y-60345D01*
X81542Y-60354D01*
X81560Y-60363D01*
X81570Y-60373D01*
X81579Y-60392D01*
X81579Y-60410D01*
X81570Y-60429D01*
X81560Y-60439D01*
X81542Y-60448D01*
X81504Y-60457D01*
X81457Y-60457D01*
X81420Y-60448D01*
X81401Y-60439D01*
X81392Y-60429D01*
X81382Y-60410D01*
X81579Y-60157D02*
X81579Y-60270D01*
X81579Y-60213D02*
X81382Y-60213D01*
X81410Y-60232D01*
X81429Y-60251D01*
X81439Y-60270D01*
X80079Y-59970D02*
X79985Y-60036D01*
X80079Y-60083D02*
X79882Y-60083D01*
X79882Y-60007D01*
X79892Y-59989D01*
X79901Y-59979D01*
X79920Y-59970D01*
X79948Y-59970D01*
X79967Y-59979D01*
X79976Y-59989D01*
X79985Y-60007D01*
X79985Y-60083D01*
X79882Y-59801D02*
X79882Y-59839D01*
X79892Y-59857D01*
X79901Y-59867D01*
X79929Y-59886D01*
X79967Y-59895D01*
X80042Y-59895D01*
X80060Y-59886D01*
X80070Y-59876D01*
X80079Y-59857D01*
X80079Y-59820D01*
X80070Y-59801D01*
X80060Y-59792D01*
X80042Y-59782D01*
X79995Y-59782D01*
X79976Y-59792D01*
X79967Y-59801D01*
X79957Y-59820D01*
X79957Y-59857D01*
X79967Y-59876D01*
X79976Y-59886D01*
X79995Y-59895D01*
X79882Y-59660D02*
X79882Y-59642D01*
X79892Y-59623D01*
X79901Y-59613D01*
X79920Y-59604D01*
X79957Y-59595D01*
X80004Y-59595D01*
X80042Y-59604D01*
X80060Y-59613D01*
X80070Y-59623D01*
X80079Y-59642D01*
X80079Y-59660D01*
X80070Y-59679D01*
X80060Y-59689D01*
X80042Y-59698D01*
X80004Y-59707D01*
X79957Y-59707D01*
X79920Y-59698D01*
X79901Y-59689D01*
X79892Y-59679D01*
X79882Y-59660D01*
X79901Y-59520D02*
X79892Y-59510D01*
X79882Y-59492D01*
X79882Y-59445D01*
X79892Y-59426D01*
X79901Y-59416D01*
X79920Y-59407D01*
X79939Y-59407D01*
X79967Y-59416D01*
X80079Y-59529D01*
X80079Y-59407D01*
X75579Y-61970D02*
X75485Y-62036D01*
X75579Y-62083D02*
X75382Y-62083D01*
X75382Y-62007D01*
X75392Y-61989D01*
X75401Y-61979D01*
X75420Y-61970D01*
X75448Y-61970D01*
X75467Y-61979D01*
X75476Y-61989D01*
X75485Y-62007D01*
X75485Y-62083D01*
X75382Y-61801D02*
X75382Y-61839D01*
X75392Y-61857D01*
X75401Y-61867D01*
X75429Y-61886D01*
X75467Y-61895D01*
X75542Y-61895D01*
X75560Y-61886D01*
X75570Y-61876D01*
X75579Y-61857D01*
X75579Y-61820D01*
X75570Y-61801D01*
X75560Y-61792D01*
X75542Y-61782D01*
X75495Y-61782D01*
X75476Y-61792D01*
X75467Y-61801D01*
X75457Y-61820D01*
X75457Y-61857D01*
X75467Y-61876D01*
X75476Y-61886D01*
X75495Y-61895D01*
X75382Y-61660D02*
X75382Y-61642D01*
X75392Y-61623D01*
X75401Y-61613D01*
X75420Y-61604D01*
X75457Y-61595D01*
X75504Y-61595D01*
X75542Y-61604D01*
X75560Y-61613D01*
X75570Y-61623D01*
X75579Y-61642D01*
X75579Y-61660D01*
X75570Y-61679D01*
X75560Y-61689D01*
X75542Y-61698D01*
X75504Y-61707D01*
X75457Y-61707D01*
X75420Y-61698D01*
X75401Y-61689D01*
X75392Y-61679D01*
X75382Y-61660D01*
X75382Y-61416D02*
X75382Y-61510D01*
X75476Y-61520D01*
X75467Y-61510D01*
X75457Y-61492D01*
X75457Y-61445D01*
X75467Y-61426D01*
X75476Y-61416D01*
X75495Y-61407D01*
X75542Y-61407D01*
X75560Y-61416D01*
X75570Y-61426D01*
X75579Y-61445D01*
X75579Y-61492D01*
X75570Y-61510D01*
X75560Y-61520D01*
X74079Y-61220D02*
X73985Y-61286D01*
X74079Y-61333D02*
X73882Y-61333D01*
X73882Y-61257D01*
X73892Y-61239D01*
X73901Y-61229D01*
X73920Y-61220D01*
X73948Y-61220D01*
X73967Y-61229D01*
X73976Y-61239D01*
X73985Y-61257D01*
X73985Y-61333D01*
X73882Y-61051D02*
X73882Y-61089D01*
X73892Y-61107D01*
X73901Y-61117D01*
X73929Y-61136D01*
X73967Y-61145D01*
X74042Y-61145D01*
X74060Y-61136D01*
X74070Y-61126D01*
X74079Y-61107D01*
X74079Y-61070D01*
X74070Y-61051D01*
X74060Y-61042D01*
X74042Y-61032D01*
X73995Y-61032D01*
X73976Y-61042D01*
X73967Y-61051D01*
X73957Y-61070D01*
X73957Y-61107D01*
X73967Y-61126D01*
X73976Y-61136D01*
X73995Y-61145D01*
X73882Y-60910D02*
X73882Y-60892D01*
X73892Y-60873D01*
X73901Y-60863D01*
X73920Y-60854D01*
X73957Y-60845D01*
X74004Y-60845D01*
X74042Y-60854D01*
X74060Y-60863D01*
X74070Y-60873D01*
X74079Y-60892D01*
X74079Y-60910D01*
X74070Y-60929D01*
X74060Y-60939D01*
X74042Y-60948D01*
X74004Y-60957D01*
X73957Y-60957D01*
X73920Y-60948D01*
X73901Y-60939D01*
X73892Y-60929D01*
X73882Y-60910D01*
X73882Y-60676D02*
X73882Y-60713D01*
X73892Y-60732D01*
X73901Y-60742D01*
X73929Y-60760D01*
X73967Y-60770D01*
X74042Y-60770D01*
X74060Y-60760D01*
X74070Y-60751D01*
X74079Y-60732D01*
X74079Y-60695D01*
X74070Y-60676D01*
X74060Y-60666D01*
X74042Y-60657D01*
X73995Y-60657D01*
X73976Y-60666D01*
X73967Y-60676D01*
X73957Y-60695D01*
X73957Y-60732D01*
X73967Y-60751D01*
X73976Y-60760D01*
X73995Y-60770D01*
X78560Y-61970D02*
X78570Y-61979D01*
X78579Y-62007D01*
X78579Y-62026D01*
X78570Y-62054D01*
X78551Y-62073D01*
X78532Y-62083D01*
X78495Y-62092D01*
X78467Y-62092D01*
X78429Y-62083D01*
X78410Y-62073D01*
X78392Y-62054D01*
X78382Y-62026D01*
X78382Y-62007D01*
X78392Y-61979D01*
X78401Y-61970D01*
X78382Y-61801D02*
X78382Y-61839D01*
X78392Y-61857D01*
X78401Y-61867D01*
X78429Y-61886D01*
X78467Y-61895D01*
X78542Y-61895D01*
X78560Y-61886D01*
X78570Y-61876D01*
X78579Y-61857D01*
X78579Y-61820D01*
X78570Y-61801D01*
X78560Y-61792D01*
X78542Y-61782D01*
X78495Y-61782D01*
X78476Y-61792D01*
X78467Y-61801D01*
X78457Y-61820D01*
X78457Y-61857D01*
X78467Y-61876D01*
X78476Y-61886D01*
X78495Y-61895D01*
X78382Y-61660D02*
X78382Y-61642D01*
X78392Y-61623D01*
X78401Y-61613D01*
X78420Y-61604D01*
X78457Y-61595D01*
X78504Y-61595D01*
X78542Y-61604D01*
X78560Y-61613D01*
X78570Y-61623D01*
X78579Y-61642D01*
X78579Y-61660D01*
X78570Y-61679D01*
X78560Y-61689D01*
X78542Y-61698D01*
X78504Y-61707D01*
X78457Y-61707D01*
X78420Y-61698D01*
X78401Y-61689D01*
X78392Y-61679D01*
X78382Y-61660D01*
X78579Y-61407D02*
X78579Y-61520D01*
X78579Y-61463D02*
X78382Y-61463D01*
X78410Y-61482D01*
X78429Y-61501D01*
X78439Y-61520D01*
X81579Y-63470D02*
X81485Y-63536D01*
X81579Y-63583D02*
X81382Y-63583D01*
X81382Y-63507D01*
X81392Y-63489D01*
X81401Y-63479D01*
X81420Y-63470D01*
X81448Y-63470D01*
X81467Y-63479D01*
X81476Y-63489D01*
X81485Y-63507D01*
X81485Y-63583D01*
X81382Y-63301D02*
X81382Y-63339D01*
X81392Y-63357D01*
X81401Y-63367D01*
X81429Y-63386D01*
X81467Y-63395D01*
X81542Y-63395D01*
X81560Y-63386D01*
X81570Y-63376D01*
X81579Y-63357D01*
X81579Y-63320D01*
X81570Y-63301D01*
X81560Y-63292D01*
X81542Y-63282D01*
X81495Y-63282D01*
X81476Y-63292D01*
X81467Y-63301D01*
X81457Y-63320D01*
X81457Y-63357D01*
X81467Y-63376D01*
X81476Y-63386D01*
X81495Y-63395D01*
X81382Y-63160D02*
X81382Y-63142D01*
X81392Y-63123D01*
X81401Y-63113D01*
X81420Y-63104D01*
X81457Y-63095D01*
X81504Y-63095D01*
X81542Y-63104D01*
X81560Y-63113D01*
X81570Y-63123D01*
X81579Y-63142D01*
X81579Y-63160D01*
X81570Y-63179D01*
X81560Y-63189D01*
X81542Y-63198D01*
X81504Y-63207D01*
X81457Y-63207D01*
X81420Y-63198D01*
X81401Y-63189D01*
X81392Y-63179D01*
X81382Y-63160D01*
X81579Y-63001D02*
X81579Y-62963D01*
X81570Y-62945D01*
X81560Y-62935D01*
X81532Y-62916D01*
X81495Y-62907D01*
X81420Y-62907D01*
X81401Y-62916D01*
X81392Y-62926D01*
X81382Y-62945D01*
X81382Y-62982D01*
X81392Y-63001D01*
X81401Y-63010D01*
X81420Y-63020D01*
X81467Y-63020D01*
X81485Y-63010D01*
X81495Y-63001D01*
X81504Y-62982D01*
X81504Y-62945D01*
X81495Y-62926D01*
X81485Y-62916D01*
X81467Y-62907D01*
X72560Y-61220D02*
X72570Y-61229D01*
X72579Y-61257D01*
X72579Y-61276D01*
X72570Y-61304D01*
X72551Y-61323D01*
X72532Y-61333D01*
X72495Y-61342D01*
X72467Y-61342D01*
X72429Y-61333D01*
X72410Y-61323D01*
X72392Y-61304D01*
X72382Y-61276D01*
X72382Y-61257D01*
X72392Y-61229D01*
X72401Y-61220D01*
X72382Y-61051D02*
X72382Y-61089D01*
X72392Y-61107D01*
X72401Y-61117D01*
X72429Y-61136D01*
X72467Y-61145D01*
X72542Y-61145D01*
X72560Y-61136D01*
X72570Y-61126D01*
X72579Y-61107D01*
X72579Y-61070D01*
X72570Y-61051D01*
X72560Y-61042D01*
X72542Y-61032D01*
X72495Y-61032D01*
X72476Y-61042D01*
X72467Y-61051D01*
X72457Y-61070D01*
X72457Y-61107D01*
X72467Y-61126D01*
X72476Y-61136D01*
X72495Y-61145D01*
X72382Y-60910D02*
X72382Y-60892D01*
X72392Y-60873D01*
X72401Y-60863D01*
X72420Y-60854D01*
X72457Y-60845D01*
X72504Y-60845D01*
X72542Y-60854D01*
X72560Y-60863D01*
X72570Y-60873D01*
X72579Y-60892D01*
X72579Y-60910D01*
X72570Y-60929D01*
X72560Y-60939D01*
X72542Y-60948D01*
X72504Y-60957D01*
X72457Y-60957D01*
X72420Y-60948D01*
X72401Y-60939D01*
X72392Y-60929D01*
X72382Y-60910D01*
X72382Y-60779D02*
X72382Y-60657D01*
X72457Y-60723D01*
X72457Y-60695D01*
X72467Y-60676D01*
X72476Y-60666D01*
X72495Y-60657D01*
X72542Y-60657D01*
X72560Y-60666D01*
X72570Y-60676D01*
X72579Y-60695D01*
X72579Y-60751D01*
X72570Y-60770D01*
X72560Y-60779D01*
X81579Y-64470D02*
X81485Y-64536D01*
X81579Y-64583D02*
X81382Y-64583D01*
X81382Y-64507D01*
X81392Y-64489D01*
X81401Y-64479D01*
X81420Y-64470D01*
X81448Y-64470D01*
X81467Y-64479D01*
X81476Y-64489D01*
X81485Y-64507D01*
X81485Y-64583D01*
X81382Y-64301D02*
X81382Y-64339D01*
X81392Y-64357D01*
X81401Y-64367D01*
X81429Y-64386D01*
X81467Y-64395D01*
X81542Y-64395D01*
X81560Y-64386D01*
X81570Y-64376D01*
X81579Y-64357D01*
X81579Y-64320D01*
X81570Y-64301D01*
X81560Y-64292D01*
X81542Y-64282D01*
X81495Y-64282D01*
X81476Y-64292D01*
X81467Y-64301D01*
X81457Y-64320D01*
X81457Y-64357D01*
X81467Y-64376D01*
X81476Y-64386D01*
X81495Y-64395D01*
X81579Y-64095D02*
X81579Y-64207D01*
X81579Y-64151D02*
X81382Y-64151D01*
X81410Y-64170D01*
X81429Y-64189D01*
X81439Y-64207D01*
X81401Y-64020D02*
X81392Y-64010D01*
X81382Y-63992D01*
X81382Y-63945D01*
X81392Y-63926D01*
X81401Y-63916D01*
X81420Y-63907D01*
X81439Y-63907D01*
X81467Y-63916D01*
X81579Y-64029D01*
X81579Y-63907D01*
X80329Y-64970D02*
X80235Y-65036D01*
X80329Y-65083D02*
X80132Y-65083D01*
X80132Y-65007D01*
X80142Y-64989D01*
X80151Y-64979D01*
X80170Y-64970D01*
X80198Y-64970D01*
X80217Y-64979D01*
X80226Y-64989D01*
X80235Y-65007D01*
X80235Y-65083D01*
X80132Y-64801D02*
X80132Y-64839D01*
X80142Y-64857D01*
X80151Y-64867D01*
X80179Y-64886D01*
X80217Y-64895D01*
X80292Y-64895D01*
X80310Y-64886D01*
X80320Y-64876D01*
X80329Y-64857D01*
X80329Y-64820D01*
X80320Y-64801D01*
X80310Y-64792D01*
X80292Y-64782D01*
X80245Y-64782D01*
X80226Y-64792D01*
X80217Y-64801D01*
X80207Y-64820D01*
X80207Y-64857D01*
X80217Y-64876D01*
X80226Y-64886D01*
X80245Y-64895D01*
X80329Y-64595D02*
X80329Y-64707D01*
X80329Y-64651D02*
X80132Y-64651D01*
X80160Y-64670D01*
X80179Y-64689D01*
X80189Y-64707D01*
X80329Y-64407D02*
X80329Y-64520D01*
X80329Y-64463D02*
X80132Y-64463D01*
X80160Y-64482D01*
X80179Y-64501D01*
X80189Y-64520D01*
G54D17*
X79455Y-63952D02*
X79551Y-63952D01*
X79562Y-63946D01*
X79568Y-63941D01*
X79573Y-63929D01*
X79573Y-63907D01*
X79568Y-63896D01*
X79562Y-63890D01*
X79551Y-63884D01*
X79455Y-63884D01*
X79455Y-63778D02*
X79455Y-63800D01*
X79461Y-63811D01*
X79467Y-63817D01*
X79483Y-63828D01*
X79506Y-63834D01*
X79551Y-63834D01*
X79562Y-63828D01*
X79568Y-63823D01*
X79573Y-63811D01*
X79573Y-63789D01*
X79568Y-63778D01*
X79562Y-63772D01*
X79551Y-63766D01*
X79523Y-63766D01*
X79511Y-63772D01*
X79506Y-63778D01*
X79500Y-63789D01*
X79500Y-63811D01*
X79506Y-63823D01*
X79511Y-63828D01*
X79523Y-63834D01*
X79455Y-63693D02*
X79455Y-63682D01*
X79461Y-63671D01*
X79467Y-63665D01*
X79478Y-63660D01*
X79500Y-63654D01*
X79528Y-63654D01*
X79551Y-63660D01*
X79562Y-63665D01*
X79568Y-63671D01*
X79573Y-63682D01*
X79573Y-63693D01*
X79568Y-63705D01*
X79562Y-63710D01*
X79551Y-63716D01*
X79528Y-63721D01*
X79500Y-63721D01*
X79478Y-63716D01*
X79467Y-63710D01*
X79461Y-63705D01*
X79455Y-63693D01*
X79455Y-63615D02*
X79455Y-63542D01*
X79500Y-63581D01*
X79500Y-63564D01*
X79506Y-63553D01*
X79511Y-63547D01*
X79523Y-63542D01*
X79551Y-63542D01*
X79562Y-63547D01*
X79568Y-63553D01*
X79573Y-63564D01*
X79573Y-63598D01*
X79568Y-63609D01*
X79562Y-63615D01*
X73455Y-62452D02*
X73551Y-62452D01*
X73562Y-62446D01*
X73568Y-62441D01*
X73573Y-62429D01*
X73573Y-62407D01*
X73568Y-62396D01*
X73562Y-62390D01*
X73551Y-62384D01*
X73455Y-62384D01*
X73455Y-62278D02*
X73455Y-62300D01*
X73461Y-62311D01*
X73467Y-62317D01*
X73483Y-62328D01*
X73506Y-62334D01*
X73551Y-62334D01*
X73562Y-62328D01*
X73568Y-62323D01*
X73573Y-62311D01*
X73573Y-62289D01*
X73568Y-62278D01*
X73562Y-62272D01*
X73551Y-62266D01*
X73523Y-62266D01*
X73511Y-62272D01*
X73506Y-62278D01*
X73500Y-62289D01*
X73500Y-62311D01*
X73506Y-62323D01*
X73511Y-62328D01*
X73523Y-62334D01*
X73455Y-62193D02*
X73455Y-62182D01*
X73461Y-62171D01*
X73467Y-62165D01*
X73478Y-62160D01*
X73500Y-62154D01*
X73528Y-62154D01*
X73551Y-62160D01*
X73562Y-62165D01*
X73568Y-62171D01*
X73573Y-62182D01*
X73573Y-62193D01*
X73568Y-62205D01*
X73562Y-62210D01*
X73551Y-62216D01*
X73528Y-62221D01*
X73500Y-62221D01*
X73478Y-62216D01*
X73467Y-62210D01*
X73461Y-62205D01*
X73455Y-62193D01*
X73467Y-62109D02*
X73461Y-62103D01*
X73455Y-62092D01*
X73455Y-62064D01*
X73461Y-62053D01*
X73467Y-62047D01*
X73478Y-62042D01*
X73489Y-62042D01*
X73506Y-62047D01*
X73573Y-62115D01*
X73573Y-62042D01*
X79455Y-60952D02*
X79551Y-60952D01*
X79562Y-60946D01*
X79568Y-60941D01*
X79573Y-60929D01*
X79573Y-60907D01*
X79568Y-60896D01*
X79562Y-60890D01*
X79551Y-60884D01*
X79455Y-60884D01*
X79455Y-60778D02*
X79455Y-60800D01*
X79461Y-60811D01*
X79467Y-60817D01*
X79483Y-60828D01*
X79506Y-60834D01*
X79551Y-60834D01*
X79562Y-60828D01*
X79568Y-60823D01*
X79573Y-60811D01*
X79573Y-60789D01*
X79568Y-60778D01*
X79562Y-60772D01*
X79551Y-60766D01*
X79523Y-60766D01*
X79511Y-60772D01*
X79506Y-60778D01*
X79500Y-60789D01*
X79500Y-60811D01*
X79506Y-60823D01*
X79511Y-60828D01*
X79523Y-60834D01*
X79455Y-60693D02*
X79455Y-60682D01*
X79461Y-60671D01*
X79467Y-60665D01*
X79478Y-60660D01*
X79500Y-60654D01*
X79528Y-60654D01*
X79551Y-60660D01*
X79562Y-60665D01*
X79568Y-60671D01*
X79573Y-60682D01*
X79573Y-60693D01*
X79568Y-60705D01*
X79562Y-60710D01*
X79551Y-60716D01*
X79528Y-60721D01*
X79500Y-60721D01*
X79478Y-60716D01*
X79467Y-60710D01*
X79461Y-60705D01*
X79455Y-60693D01*
X79573Y-60542D02*
X79573Y-60609D01*
X79573Y-60575D02*
X79455Y-60575D01*
X79472Y-60587D01*
X79483Y-60598D01*
X79489Y-60609D01*
M02*
