G04 (created by PCBNEW (2013-07-07 BZR 4022)-stable) date 28/01/2014 11:02:56*
%MOIN*%
G04 Gerber Fmt 3.4, Leading zero omitted, Abs format*
%FSLAX34Y34*%
G01*
G70*
G90*
G04 APERTURE LIST*
%ADD10C,0.00590551*%
%ADD11R,0.08X0.06*%
%ADD12R,0.06X0.08*%
%ADD13R,0.035X0.055*%
%ADD14R,0.055X0.055*%
%ADD15C,0.055*%
%ADD16R,0.06X0.06*%
%ADD17C,0.06*%
%ADD18R,0.0402X0.0161*%
%ADD19R,0.0708661X0.0708661*%
%ADD20C,0.0708661*%
%ADD21C,0.11811*%
%ADD22C,0.035*%
%ADD23C,0.01*%
G04 APERTURE END LIST*
G54D10*
G54D11*
X77000Y-62850D03*
X77000Y-64150D03*
G54D12*
X82850Y-63000D03*
X84150Y-63000D03*
X82850Y-61500D03*
X84150Y-61500D03*
X82850Y-60000D03*
X84150Y-60000D03*
X82850Y-64500D03*
X84150Y-64500D03*
G54D11*
X77000Y-61650D03*
X77000Y-60350D03*
G54D13*
X74375Y-63500D03*
X73625Y-63500D03*
X75875Y-62750D03*
X75125Y-62750D03*
X80375Y-62750D03*
X79625Y-62750D03*
X80375Y-61750D03*
X79625Y-61750D03*
X81875Y-61500D03*
X81125Y-61500D03*
X78125Y-62750D03*
X78875Y-62750D03*
X81875Y-60500D03*
X81125Y-60500D03*
X80375Y-59750D03*
X79625Y-59750D03*
X75875Y-61750D03*
X75125Y-61750D03*
X74375Y-61000D03*
X73625Y-61000D03*
X78125Y-61750D03*
X78875Y-61750D03*
X81875Y-63250D03*
X81125Y-63250D03*
X72125Y-61000D03*
X72875Y-61000D03*
X81875Y-64250D03*
X81125Y-64250D03*
X80625Y-64750D03*
X79875Y-64750D03*
G54D14*
X76000Y-60250D03*
G54D15*
X75000Y-60250D03*
G54D16*
X70000Y-61000D03*
G54D17*
X71000Y-61000D03*
X70000Y-62000D03*
X71000Y-62000D03*
X70000Y-63000D03*
X71000Y-63000D03*
G54D18*
X78344Y-63366D03*
X78344Y-63622D03*
X78344Y-63878D03*
X78344Y-64134D03*
X80156Y-64134D03*
X80156Y-63878D03*
X80156Y-63622D03*
X80156Y-63366D03*
X72344Y-61866D03*
X72344Y-62122D03*
X72344Y-62378D03*
X72344Y-62634D03*
X74156Y-62634D03*
X74156Y-62378D03*
X74156Y-62122D03*
X74156Y-61866D03*
X78344Y-60366D03*
X78344Y-60622D03*
X78344Y-60878D03*
X78344Y-61134D03*
X80156Y-61134D03*
X80156Y-60878D03*
X80156Y-60622D03*
X80156Y-60366D03*
G54D19*
X86000Y-60000D03*
G54D20*
X86000Y-61000D03*
X86000Y-62000D03*
X86000Y-63000D03*
X86000Y-64000D03*
X86000Y-65000D03*
G54D21*
X71600Y-64350D03*
G54D22*
X73950Y-64600D03*
X73050Y-63700D03*
X76650Y-59750D03*
X72500Y-61500D03*
X77750Y-63000D03*
X77750Y-61500D03*
X84750Y-63250D03*
X84750Y-60250D03*
X84700Y-64500D03*
X84750Y-61500D03*
X78850Y-60900D03*
X78850Y-63850D03*
X72850Y-62400D03*
X76300Y-64300D03*
G54D23*
X81875Y-60500D02*
X82000Y-60500D01*
X85350Y-60650D02*
X86000Y-60000D01*
X82150Y-60650D02*
X85350Y-60650D01*
X82000Y-60500D02*
X82150Y-60650D01*
X81875Y-61500D02*
X81875Y-61425D01*
X85950Y-60950D02*
X86000Y-61000D01*
X82350Y-60950D02*
X85950Y-60950D01*
X81875Y-61425D02*
X82350Y-60950D01*
X75875Y-61750D02*
X76000Y-61750D01*
X85840Y-62160D02*
X86000Y-62000D01*
X76410Y-62160D02*
X85840Y-62160D01*
X76000Y-61750D02*
X76410Y-62160D01*
X75875Y-62750D02*
X75900Y-62750D01*
X85340Y-62340D02*
X86000Y-63000D01*
X76309Y-62340D02*
X85340Y-62340D01*
X75900Y-62750D02*
X76309Y-62340D01*
X81875Y-63250D02*
X82000Y-63250D01*
X85600Y-63600D02*
X86000Y-64000D01*
X82350Y-63600D02*
X85600Y-63600D01*
X82000Y-63250D02*
X82350Y-63600D01*
X81875Y-64250D02*
X82000Y-64250D01*
X84850Y-63850D02*
X86000Y-65000D01*
X82400Y-63850D02*
X84850Y-63850D01*
X82000Y-64250D02*
X82400Y-63850D01*
X78344Y-61134D02*
X77709Y-61134D01*
X71160Y-59840D02*
X70000Y-61000D01*
X75170Y-59840D02*
X71160Y-59840D01*
X75410Y-60080D02*
X75170Y-59840D01*
X75410Y-60710D02*
X75410Y-60080D01*
X75794Y-61094D02*
X75410Y-60710D01*
X77670Y-61094D02*
X75794Y-61094D01*
X77709Y-61134D02*
X77670Y-61094D01*
X72344Y-62122D02*
X71947Y-62122D01*
X71000Y-61175D02*
X71000Y-61000D01*
X71947Y-62122D02*
X71000Y-61175D01*
X78344Y-60622D02*
X77988Y-60622D01*
X69550Y-61550D02*
X70000Y-62000D01*
X69550Y-60550D02*
X69550Y-61550D01*
X70440Y-59659D02*
X69550Y-60550D01*
X75244Y-59659D02*
X70440Y-59659D01*
X75590Y-60005D02*
X75244Y-59659D01*
X75590Y-60635D02*
X75590Y-60005D01*
X75869Y-60914D02*
X75590Y-60635D01*
X77695Y-60914D02*
X75869Y-60914D01*
X77988Y-60622D02*
X77695Y-60914D01*
X72344Y-62634D02*
X71834Y-62634D01*
X71200Y-62000D02*
X71000Y-62000D01*
X71834Y-62634D02*
X71200Y-62000D01*
X78344Y-64134D02*
X78034Y-64134D01*
X72400Y-64250D02*
X72400Y-63500D01*
X72400Y-63500D02*
X70500Y-63500D01*
X70500Y-63500D02*
X70000Y-63000D01*
X75874Y-64230D02*
X72400Y-64250D01*
X76574Y-63530D02*
X75874Y-64230D01*
X77430Y-63530D02*
X76574Y-63530D01*
X78034Y-64134D02*
X77430Y-63530D01*
X78344Y-63622D02*
X77922Y-63622D01*
X72700Y-64050D02*
X72700Y-63000D01*
X72700Y-63000D02*
X71000Y-63000D01*
X75800Y-64050D02*
X72700Y-64050D01*
X76500Y-63350D02*
X75800Y-64050D01*
X77650Y-63350D02*
X76500Y-63350D01*
X77922Y-63622D02*
X77650Y-63350D01*
X74156Y-62378D02*
X73778Y-62378D01*
X73778Y-62378D02*
X73050Y-63106D01*
X79100Y-64650D02*
X79872Y-63878D01*
X74000Y-64650D02*
X79100Y-64650D01*
X73950Y-64600D02*
X74000Y-64650D01*
X73050Y-63106D02*
X73050Y-63700D01*
X79872Y-63878D02*
X80156Y-63878D01*
X80156Y-60878D02*
X79322Y-60878D01*
X79322Y-60878D02*
X78950Y-60506D01*
X78500Y-59750D02*
X76650Y-59750D01*
X78950Y-60200D02*
X78500Y-59750D01*
X78950Y-60506D02*
X78950Y-60200D01*
X78875Y-61750D02*
X78875Y-61325D01*
X78875Y-61325D02*
X79322Y-60878D01*
X80156Y-63878D02*
X79872Y-63878D01*
X79872Y-63878D02*
X78875Y-62881D01*
X78875Y-62881D02*
X78875Y-62750D01*
X72875Y-61000D02*
X72875Y-61275D01*
X73400Y-62000D02*
X73778Y-62378D01*
X73400Y-61800D02*
X73400Y-62000D01*
X72875Y-61275D02*
X73400Y-61800D01*
X75000Y-60250D02*
X73625Y-60250D01*
X73625Y-60250D02*
X72875Y-61000D01*
X72125Y-61000D02*
X72125Y-61125D01*
X72125Y-61125D02*
X72500Y-61500D01*
X78125Y-62750D02*
X78000Y-62750D01*
X78000Y-62750D02*
X77750Y-63000D01*
X78125Y-61750D02*
X78000Y-61750D01*
X78000Y-61750D02*
X77750Y-61500D01*
X84150Y-63000D02*
X84500Y-63000D01*
X84500Y-63000D02*
X84750Y-63250D01*
X84150Y-60000D02*
X84500Y-60000D01*
X84500Y-60000D02*
X84750Y-60250D01*
X76000Y-60250D02*
X76900Y-60250D01*
X76900Y-60250D02*
X77000Y-60350D01*
X84150Y-64500D02*
X84700Y-64500D01*
X84150Y-61500D02*
X84750Y-61500D01*
X78344Y-60878D02*
X78828Y-60878D01*
X78828Y-60878D02*
X78850Y-60900D01*
X78344Y-63878D02*
X78822Y-63878D01*
X78822Y-63878D02*
X78850Y-63850D01*
X72344Y-62378D02*
X72828Y-62378D01*
X72828Y-62378D02*
X72850Y-62400D01*
X77000Y-64150D02*
X76450Y-64150D01*
X76450Y-64150D02*
X76300Y-64300D01*
X80156Y-61134D02*
X80759Y-61134D01*
X80759Y-61134D02*
X81125Y-61500D01*
X80156Y-61134D02*
X79866Y-61134D01*
X79625Y-61375D02*
X79625Y-61750D01*
X79866Y-61134D02*
X79625Y-61375D01*
X74156Y-62634D02*
X73841Y-62634D01*
X73625Y-62850D02*
X73625Y-63500D01*
X73841Y-62634D02*
X73625Y-62850D01*
X74156Y-62634D02*
X75009Y-62634D01*
X75009Y-62634D02*
X75125Y-62750D01*
X74375Y-61000D02*
X74775Y-61000D01*
X76500Y-61650D02*
X77000Y-61650D01*
X76125Y-61275D02*
X76500Y-61650D01*
X75050Y-61275D02*
X76125Y-61275D01*
X74775Y-61000D02*
X75050Y-61275D01*
X73625Y-61000D02*
X73625Y-61950D01*
X73797Y-62122D02*
X74156Y-62122D01*
X73625Y-61950D02*
X73797Y-62122D01*
X74156Y-62122D02*
X74753Y-62122D01*
X74753Y-62122D02*
X75125Y-61750D01*
X80375Y-59750D02*
X82600Y-59750D01*
X82600Y-59750D02*
X82850Y-60000D01*
X80156Y-60622D02*
X79822Y-60622D01*
X79625Y-60425D02*
X79625Y-59750D01*
X79822Y-60622D02*
X79625Y-60425D01*
X80156Y-60622D02*
X81003Y-60622D01*
X81003Y-60622D02*
X81125Y-60500D01*
X74375Y-63500D02*
X75950Y-63500D01*
X76600Y-62850D02*
X77000Y-62850D01*
X75950Y-63500D02*
X76600Y-62850D01*
X80625Y-64750D02*
X82600Y-64750D01*
X82600Y-64750D02*
X82850Y-64500D01*
X80156Y-63622D02*
X80753Y-63622D01*
X80753Y-63622D02*
X81125Y-63250D01*
X80156Y-63622D02*
X79897Y-63622D01*
X79625Y-63350D02*
X79625Y-62750D01*
X79897Y-63622D02*
X79625Y-63350D01*
X80156Y-64134D02*
X81009Y-64134D01*
X81009Y-64134D02*
X81125Y-64250D01*
X79875Y-64750D02*
X79875Y-64415D01*
X79875Y-64415D02*
X80156Y-64134D01*
X80375Y-62750D02*
X82600Y-62750D01*
X82600Y-62750D02*
X82850Y-63000D01*
X80375Y-61750D02*
X80520Y-61750D01*
X82370Y-61979D02*
X82850Y-61500D01*
X80750Y-61979D02*
X82370Y-61979D01*
X80520Y-61750D02*
X80750Y-61979D01*
G54D10*
G36*
X74627Y-60040D02*
X74622Y-60050D01*
X73625Y-60050D01*
X73548Y-60065D01*
X73526Y-60079D01*
X73483Y-60108D01*
X73017Y-60574D01*
X72670Y-60574D01*
X72615Y-60597D01*
X72572Y-60639D01*
X72550Y-60695D01*
X72549Y-60724D01*
X72549Y-60675D01*
X72511Y-60583D01*
X72441Y-60512D01*
X72349Y-60474D01*
X72237Y-60475D01*
X72175Y-60537D01*
X72175Y-60950D01*
X72182Y-60950D01*
X72182Y-61050D01*
X72175Y-61050D01*
X72175Y-61462D01*
X72237Y-61525D01*
X72349Y-61525D01*
X72441Y-61487D01*
X72511Y-61416D01*
X72549Y-61324D01*
X72549Y-61304D01*
X72549Y-61304D01*
X72572Y-61359D01*
X72614Y-61402D01*
X72670Y-61424D01*
X72729Y-61425D01*
X72742Y-61425D01*
X73200Y-61882D01*
X73200Y-62000D01*
X73215Y-62076D01*
X73258Y-62141D01*
X73495Y-62377D01*
X72908Y-62964D01*
X72896Y-62982D01*
X72884Y-62923D01*
X72841Y-62858D01*
X72776Y-62815D01*
X72700Y-62800D01*
X72671Y-62800D01*
X72672Y-62799D01*
X72694Y-62744D01*
X72695Y-62684D01*
X72695Y-62662D01*
X72757Y-62599D01*
X72795Y-62508D01*
X72795Y-62480D01*
X72732Y-62418D01*
X72610Y-62418D01*
X72574Y-62403D01*
X72515Y-62403D01*
X72113Y-62403D01*
X72077Y-62418D01*
X71955Y-62418D01*
X71939Y-62434D01*
X71916Y-62434D01*
X71450Y-61967D01*
X71450Y-61910D01*
X71447Y-61905D01*
X71805Y-62263D01*
X71870Y-62306D01*
X71937Y-62320D01*
X71955Y-62337D01*
X72077Y-62337D01*
X72113Y-62352D01*
X72172Y-62352D01*
X72574Y-62352D01*
X72610Y-62337D01*
X72732Y-62337D01*
X72795Y-62275D01*
X72795Y-62247D01*
X72757Y-62156D01*
X72695Y-62093D01*
X72695Y-62011D01*
X72687Y-61994D01*
X72694Y-61976D01*
X72695Y-61916D01*
X72695Y-61755D01*
X72672Y-61700D01*
X72630Y-61658D01*
X72574Y-61635D01*
X72515Y-61635D01*
X72113Y-61635D01*
X72075Y-61651D01*
X72075Y-61462D01*
X72075Y-61050D01*
X72075Y-60950D01*
X72075Y-60537D01*
X72012Y-60475D01*
X71900Y-60474D01*
X71808Y-60512D01*
X71738Y-60583D01*
X71700Y-60675D01*
X71699Y-60774D01*
X71700Y-60887D01*
X71762Y-60950D01*
X72075Y-60950D01*
X72075Y-61050D01*
X71762Y-61050D01*
X71700Y-61112D01*
X71699Y-61225D01*
X71700Y-61324D01*
X71738Y-61416D01*
X71808Y-61487D01*
X71900Y-61525D01*
X72012Y-61525D01*
X72075Y-61462D01*
X72075Y-61651D01*
X72058Y-61658D01*
X72015Y-61700D01*
X71993Y-61755D01*
X71992Y-61815D01*
X71992Y-61885D01*
X71372Y-61264D01*
X71381Y-61255D01*
X71449Y-61089D01*
X71450Y-60910D01*
X71381Y-60745D01*
X71255Y-60618D01*
X71089Y-60550D01*
X70910Y-60549D01*
X70745Y-60618D01*
X70618Y-60744D01*
X70550Y-60910D01*
X70549Y-61089D01*
X70618Y-61254D01*
X70744Y-61381D01*
X70910Y-61449D01*
X70992Y-61449D01*
X71093Y-61551D01*
X71089Y-61550D01*
X70910Y-61549D01*
X70745Y-61618D01*
X70618Y-61744D01*
X70550Y-61910D01*
X70549Y-62089D01*
X70618Y-62254D01*
X70744Y-62381D01*
X70910Y-62449D01*
X71089Y-62450D01*
X71254Y-62381D01*
X71276Y-62359D01*
X71692Y-62775D01*
X71692Y-62775D01*
X71729Y-62800D01*
X71404Y-62800D01*
X71381Y-62745D01*
X71255Y-62618D01*
X71089Y-62550D01*
X70910Y-62549D01*
X70745Y-62618D01*
X70618Y-62744D01*
X70550Y-62910D01*
X70549Y-63089D01*
X70618Y-63254D01*
X70663Y-63300D01*
X70582Y-63300D01*
X70427Y-63144D01*
X70449Y-63089D01*
X70450Y-62910D01*
X70381Y-62745D01*
X70255Y-62618D01*
X70089Y-62550D01*
X69910Y-62549D01*
X69745Y-62618D01*
X69618Y-62744D01*
X69569Y-62862D01*
X69569Y-62136D01*
X69618Y-62254D01*
X69744Y-62381D01*
X69910Y-62449D01*
X70089Y-62450D01*
X70254Y-62381D01*
X70381Y-62255D01*
X70449Y-62089D01*
X70450Y-61910D01*
X70381Y-61745D01*
X70255Y-61618D01*
X70089Y-61550D01*
X69910Y-61549D01*
X69855Y-61572D01*
X69750Y-61467D01*
X69750Y-61450D01*
X70329Y-61450D01*
X70384Y-61427D01*
X70427Y-61385D01*
X70449Y-61329D01*
X70450Y-61270D01*
X70450Y-60832D01*
X71242Y-60040D01*
X74627Y-60040D01*
X74627Y-60040D01*
G37*
G54D23*
X74627Y-60040D02*
X74622Y-60050D01*
X73625Y-60050D01*
X73548Y-60065D01*
X73526Y-60079D01*
X73483Y-60108D01*
X73017Y-60574D01*
X72670Y-60574D01*
X72615Y-60597D01*
X72572Y-60639D01*
X72550Y-60695D01*
X72549Y-60724D01*
X72549Y-60675D01*
X72511Y-60583D01*
X72441Y-60512D01*
X72349Y-60474D01*
X72237Y-60475D01*
X72175Y-60537D01*
X72175Y-60950D01*
X72182Y-60950D01*
X72182Y-61050D01*
X72175Y-61050D01*
X72175Y-61462D01*
X72237Y-61525D01*
X72349Y-61525D01*
X72441Y-61487D01*
X72511Y-61416D01*
X72549Y-61324D01*
X72549Y-61304D01*
X72549Y-61304D01*
X72572Y-61359D01*
X72614Y-61402D01*
X72670Y-61424D01*
X72729Y-61425D01*
X72742Y-61425D01*
X73200Y-61882D01*
X73200Y-62000D01*
X73215Y-62076D01*
X73258Y-62141D01*
X73495Y-62377D01*
X72908Y-62964D01*
X72896Y-62982D01*
X72884Y-62923D01*
X72841Y-62858D01*
X72776Y-62815D01*
X72700Y-62800D01*
X72671Y-62800D01*
X72672Y-62799D01*
X72694Y-62744D01*
X72695Y-62684D01*
X72695Y-62662D01*
X72757Y-62599D01*
X72795Y-62508D01*
X72795Y-62480D01*
X72732Y-62418D01*
X72610Y-62418D01*
X72574Y-62403D01*
X72515Y-62403D01*
X72113Y-62403D01*
X72077Y-62418D01*
X71955Y-62418D01*
X71939Y-62434D01*
X71916Y-62434D01*
X71450Y-61967D01*
X71450Y-61910D01*
X71447Y-61905D01*
X71805Y-62263D01*
X71870Y-62306D01*
X71937Y-62320D01*
X71955Y-62337D01*
X72077Y-62337D01*
X72113Y-62352D01*
X72172Y-62352D01*
X72574Y-62352D01*
X72610Y-62337D01*
X72732Y-62337D01*
X72795Y-62275D01*
X72795Y-62247D01*
X72757Y-62156D01*
X72695Y-62093D01*
X72695Y-62011D01*
X72687Y-61994D01*
X72694Y-61976D01*
X72695Y-61916D01*
X72695Y-61755D01*
X72672Y-61700D01*
X72630Y-61658D01*
X72574Y-61635D01*
X72515Y-61635D01*
X72113Y-61635D01*
X72075Y-61651D01*
X72075Y-61462D01*
X72075Y-61050D01*
X72075Y-60950D01*
X72075Y-60537D01*
X72012Y-60475D01*
X71900Y-60474D01*
X71808Y-60512D01*
X71738Y-60583D01*
X71700Y-60675D01*
X71699Y-60774D01*
X71700Y-60887D01*
X71762Y-60950D01*
X72075Y-60950D01*
X72075Y-61050D01*
X71762Y-61050D01*
X71700Y-61112D01*
X71699Y-61225D01*
X71700Y-61324D01*
X71738Y-61416D01*
X71808Y-61487D01*
X71900Y-61525D01*
X72012Y-61525D01*
X72075Y-61462D01*
X72075Y-61651D01*
X72058Y-61658D01*
X72015Y-61700D01*
X71993Y-61755D01*
X71992Y-61815D01*
X71992Y-61885D01*
X71372Y-61264D01*
X71381Y-61255D01*
X71449Y-61089D01*
X71450Y-60910D01*
X71381Y-60745D01*
X71255Y-60618D01*
X71089Y-60550D01*
X70910Y-60549D01*
X70745Y-60618D01*
X70618Y-60744D01*
X70550Y-60910D01*
X70549Y-61089D01*
X70618Y-61254D01*
X70744Y-61381D01*
X70910Y-61449D01*
X70992Y-61449D01*
X71093Y-61551D01*
X71089Y-61550D01*
X70910Y-61549D01*
X70745Y-61618D01*
X70618Y-61744D01*
X70550Y-61910D01*
X70549Y-62089D01*
X70618Y-62254D01*
X70744Y-62381D01*
X70910Y-62449D01*
X71089Y-62450D01*
X71254Y-62381D01*
X71276Y-62359D01*
X71692Y-62775D01*
X71692Y-62775D01*
X71729Y-62800D01*
X71404Y-62800D01*
X71381Y-62745D01*
X71255Y-62618D01*
X71089Y-62550D01*
X70910Y-62549D01*
X70745Y-62618D01*
X70618Y-62744D01*
X70550Y-62910D01*
X70549Y-63089D01*
X70618Y-63254D01*
X70663Y-63300D01*
X70582Y-63300D01*
X70427Y-63144D01*
X70449Y-63089D01*
X70450Y-62910D01*
X70381Y-62745D01*
X70255Y-62618D01*
X70089Y-62550D01*
X69910Y-62549D01*
X69745Y-62618D01*
X69618Y-62744D01*
X69569Y-62862D01*
X69569Y-62136D01*
X69618Y-62254D01*
X69744Y-62381D01*
X69910Y-62449D01*
X70089Y-62450D01*
X70254Y-62381D01*
X70381Y-62255D01*
X70449Y-62089D01*
X70450Y-61910D01*
X70381Y-61745D01*
X70255Y-61618D01*
X70089Y-61550D01*
X69910Y-61549D01*
X69855Y-61572D01*
X69750Y-61467D01*
X69750Y-61450D01*
X70329Y-61450D01*
X70384Y-61427D01*
X70427Y-61385D01*
X70449Y-61329D01*
X70450Y-61270D01*
X70450Y-60832D01*
X71242Y-60040D01*
X74627Y-60040D01*
G54D10*
G36*
X76372Y-59569D02*
X76325Y-59685D01*
X76325Y-59725D01*
X76324Y-59724D01*
X76112Y-59725D01*
X76050Y-59787D01*
X76050Y-60200D01*
X76057Y-60200D01*
X76057Y-60300D01*
X76050Y-60300D01*
X76050Y-60307D01*
X75950Y-60307D01*
X75950Y-60300D01*
X75942Y-60300D01*
X75942Y-60200D01*
X75950Y-60200D01*
X75950Y-59787D01*
X75887Y-59725D01*
X75675Y-59724D01*
X75616Y-59749D01*
X75437Y-59569D01*
X76372Y-59569D01*
X76372Y-59569D01*
G37*
G54D23*
X76372Y-59569D02*
X76325Y-59685D01*
X76325Y-59725D01*
X76324Y-59724D01*
X76112Y-59725D01*
X76050Y-59787D01*
X76050Y-60200D01*
X76057Y-60200D01*
X76057Y-60300D01*
X76050Y-60300D01*
X76050Y-60307D01*
X75950Y-60307D01*
X75950Y-60300D01*
X75942Y-60300D01*
X75942Y-60200D01*
X75950Y-60200D01*
X75950Y-59787D01*
X75887Y-59725D01*
X75675Y-59724D01*
X75616Y-59749D01*
X75437Y-59569D01*
X76372Y-59569D01*
G54D10*
G36*
X78182Y-61800D02*
X78175Y-61800D01*
X78175Y-61807D01*
X78075Y-61807D01*
X78075Y-61800D01*
X77762Y-61800D01*
X77700Y-61862D01*
X77699Y-61960D01*
X77549Y-61960D01*
X77550Y-61920D01*
X77550Y-61320D01*
X77539Y-61294D01*
X77596Y-61294D01*
X77610Y-61304D01*
X77632Y-61318D01*
X77632Y-61318D01*
X77709Y-61333D01*
X77709Y-61334D01*
X77737Y-61334D01*
X77700Y-61425D01*
X77699Y-61524D01*
X77700Y-61637D01*
X77762Y-61700D01*
X78075Y-61700D01*
X78075Y-61692D01*
X78175Y-61692D01*
X78175Y-61700D01*
X78182Y-61700D01*
X78182Y-61800D01*
X78182Y-61800D01*
G37*
G54D23*
X78182Y-61800D02*
X78175Y-61800D01*
X78175Y-61807D01*
X78075Y-61807D01*
X78075Y-61800D01*
X77762Y-61800D01*
X77700Y-61862D01*
X77699Y-61960D01*
X77549Y-61960D01*
X77550Y-61920D01*
X77550Y-61320D01*
X77539Y-61294D01*
X77596Y-61294D01*
X77610Y-61304D01*
X77632Y-61318D01*
X77632Y-61318D01*
X77709Y-61333D01*
X77709Y-61334D01*
X77737Y-61334D01*
X77700Y-61425D01*
X77699Y-61524D01*
X77700Y-61637D01*
X77762Y-61700D01*
X78075Y-61700D01*
X78075Y-61692D01*
X78175Y-61692D01*
X78175Y-61700D01*
X78182Y-61700D01*
X78182Y-61800D01*
G54D10*
G36*
X78182Y-62800D02*
X78175Y-62800D01*
X78175Y-62807D01*
X78075Y-62807D01*
X78075Y-62800D01*
X77762Y-62800D01*
X77700Y-62862D01*
X77699Y-62975D01*
X77700Y-63074D01*
X77738Y-63166D01*
X77756Y-63185D01*
X77726Y-63165D01*
X77650Y-63150D01*
X77550Y-63150D01*
X77550Y-63120D01*
X77550Y-62540D01*
X77699Y-62540D01*
X77700Y-62637D01*
X77762Y-62700D01*
X78075Y-62700D01*
X78075Y-62692D01*
X78175Y-62692D01*
X78175Y-62700D01*
X78182Y-62700D01*
X78182Y-62800D01*
X78182Y-62800D01*
G37*
G54D23*
X78182Y-62800D02*
X78175Y-62800D01*
X78175Y-62807D01*
X78075Y-62807D01*
X78075Y-62800D01*
X77762Y-62800D01*
X77700Y-62862D01*
X77699Y-62975D01*
X77700Y-63074D01*
X77738Y-63166D01*
X77756Y-63185D01*
X77726Y-63165D01*
X77650Y-63150D01*
X77550Y-63150D01*
X77550Y-63120D01*
X77550Y-62540D01*
X77699Y-62540D01*
X77700Y-62637D01*
X77762Y-62700D01*
X78075Y-62700D01*
X78075Y-62692D01*
X78175Y-62692D01*
X78175Y-62700D01*
X78182Y-62700D01*
X78182Y-62800D01*
G54D10*
G36*
X78622Y-60155D02*
X78574Y-60135D01*
X78515Y-60135D01*
X78113Y-60135D01*
X78058Y-60158D01*
X78015Y-60200D01*
X77993Y-60255D01*
X77992Y-60315D01*
X77992Y-60422D01*
X77988Y-60422D01*
X77924Y-60434D01*
X77911Y-60437D01*
X77846Y-60480D01*
X77650Y-60677D01*
X77650Y-60462D01*
X77587Y-60400D01*
X77050Y-60400D01*
X77050Y-60407D01*
X76950Y-60407D01*
X76950Y-60400D01*
X76942Y-60400D01*
X76942Y-60300D01*
X76950Y-60300D01*
X76950Y-60292D01*
X77050Y-60292D01*
X77050Y-60300D01*
X77587Y-60300D01*
X77650Y-60237D01*
X77650Y-60000D01*
X77629Y-59950D01*
X78417Y-59950D01*
X78622Y-60155D01*
X78622Y-60155D01*
G37*
G54D23*
X78622Y-60155D02*
X78574Y-60135D01*
X78515Y-60135D01*
X78113Y-60135D01*
X78058Y-60158D01*
X78015Y-60200D01*
X77993Y-60255D01*
X77992Y-60315D01*
X77992Y-60422D01*
X77988Y-60422D01*
X77924Y-60434D01*
X77911Y-60437D01*
X77846Y-60480D01*
X77650Y-60677D01*
X77650Y-60462D01*
X77587Y-60400D01*
X77050Y-60400D01*
X77050Y-60407D01*
X76950Y-60407D01*
X76950Y-60400D01*
X76942Y-60400D01*
X76942Y-60300D01*
X76950Y-60300D01*
X76950Y-60292D01*
X77050Y-60292D01*
X77050Y-60300D01*
X77587Y-60300D01*
X77650Y-60237D01*
X77650Y-60000D01*
X77629Y-59950D01*
X78417Y-59950D01*
X78622Y-60155D01*
G54D10*
G36*
X79039Y-60877D02*
X78733Y-61183D01*
X78694Y-61241D01*
X78695Y-61184D01*
X78695Y-61162D01*
X78757Y-61099D01*
X78795Y-61008D01*
X78795Y-60980D01*
X78732Y-60918D01*
X78610Y-60918D01*
X78574Y-60903D01*
X78515Y-60903D01*
X78286Y-60903D01*
X78286Y-60852D01*
X78574Y-60852D01*
X78610Y-60837D01*
X78732Y-60837D01*
X78795Y-60775D01*
X78795Y-60747D01*
X78757Y-60656D01*
X78695Y-60593D01*
X78695Y-60511D01*
X78687Y-60494D01*
X78694Y-60476D01*
X78695Y-60416D01*
X78695Y-60255D01*
X78675Y-60208D01*
X78750Y-60282D01*
X78750Y-60506D01*
X78765Y-60582D01*
X78808Y-60647D01*
X79039Y-60877D01*
X79039Y-60877D01*
G37*
G54D23*
X79039Y-60877D02*
X78733Y-61183D01*
X78694Y-61241D01*
X78695Y-61184D01*
X78695Y-61162D01*
X78757Y-61099D01*
X78795Y-61008D01*
X78795Y-60980D01*
X78732Y-60918D01*
X78610Y-60918D01*
X78574Y-60903D01*
X78515Y-60903D01*
X78286Y-60903D01*
X78286Y-60852D01*
X78574Y-60852D01*
X78610Y-60837D01*
X78732Y-60837D01*
X78795Y-60775D01*
X78795Y-60747D01*
X78757Y-60656D01*
X78695Y-60593D01*
X78695Y-60511D01*
X78687Y-60494D01*
X78694Y-60476D01*
X78695Y-60416D01*
X78695Y-60255D01*
X78675Y-60208D01*
X78750Y-60282D01*
X78750Y-60506D01*
X78765Y-60582D01*
X78808Y-60647D01*
X79039Y-60877D01*
G54D10*
G36*
X79589Y-63877D02*
X79017Y-64450D01*
X77650Y-64450D01*
X77650Y-64262D01*
X77587Y-64200D01*
X77050Y-64200D01*
X77050Y-64207D01*
X76950Y-64207D01*
X76950Y-64200D01*
X76412Y-64200D01*
X76350Y-64262D01*
X76349Y-64450D01*
X74239Y-64450D01*
X74235Y-64440D01*
X75875Y-64431D01*
X75952Y-64416D01*
X76016Y-64372D01*
X76020Y-64367D01*
X76349Y-64037D01*
X76350Y-64037D01*
X76412Y-64100D01*
X76950Y-64100D01*
X76950Y-64092D01*
X77050Y-64092D01*
X77050Y-64100D01*
X77587Y-64100D01*
X77650Y-64037D01*
X77650Y-64032D01*
X77892Y-64275D01*
X77957Y-64318D01*
X78034Y-64334D01*
X78050Y-64334D01*
X78057Y-64341D01*
X78113Y-64364D01*
X78172Y-64364D01*
X78574Y-64364D01*
X78629Y-64341D01*
X78672Y-64299D01*
X78694Y-64244D01*
X78695Y-64184D01*
X78695Y-64162D01*
X78757Y-64099D01*
X78795Y-64008D01*
X78795Y-63980D01*
X78732Y-63918D01*
X78610Y-63918D01*
X78574Y-63903D01*
X78515Y-63903D01*
X78286Y-63903D01*
X78286Y-63852D01*
X78574Y-63852D01*
X78610Y-63837D01*
X78732Y-63837D01*
X78795Y-63775D01*
X78795Y-63747D01*
X78757Y-63656D01*
X78695Y-63593D01*
X78695Y-63511D01*
X78687Y-63494D01*
X78694Y-63476D01*
X78695Y-63416D01*
X78695Y-63255D01*
X78672Y-63200D01*
X78630Y-63158D01*
X78574Y-63135D01*
X78524Y-63135D01*
X78549Y-63074D01*
X78549Y-63054D01*
X78549Y-63054D01*
X78572Y-63109D01*
X78614Y-63152D01*
X78670Y-63174D01*
X78729Y-63175D01*
X78886Y-63175D01*
X79589Y-63877D01*
X79589Y-63877D01*
G37*
G54D23*
X79589Y-63877D02*
X79017Y-64450D01*
X77650Y-64450D01*
X77650Y-64262D01*
X77587Y-64200D01*
X77050Y-64200D01*
X77050Y-64207D01*
X76950Y-64207D01*
X76950Y-64200D01*
X76412Y-64200D01*
X76350Y-64262D01*
X76349Y-64450D01*
X74239Y-64450D01*
X74235Y-64440D01*
X75875Y-64431D01*
X75952Y-64416D01*
X76016Y-64372D01*
X76020Y-64367D01*
X76349Y-64037D01*
X76350Y-64037D01*
X76412Y-64100D01*
X76950Y-64100D01*
X76950Y-64092D01*
X77050Y-64092D01*
X77050Y-64100D01*
X77587Y-64100D01*
X77650Y-64037D01*
X77650Y-64032D01*
X77892Y-64275D01*
X77957Y-64318D01*
X78034Y-64334D01*
X78050Y-64334D01*
X78057Y-64341D01*
X78113Y-64364D01*
X78172Y-64364D01*
X78574Y-64364D01*
X78629Y-64341D01*
X78672Y-64299D01*
X78694Y-64244D01*
X78695Y-64184D01*
X78695Y-64162D01*
X78757Y-64099D01*
X78795Y-64008D01*
X78795Y-63980D01*
X78732Y-63918D01*
X78610Y-63918D01*
X78574Y-63903D01*
X78515Y-63903D01*
X78286Y-63903D01*
X78286Y-63852D01*
X78574Y-63852D01*
X78610Y-63837D01*
X78732Y-63837D01*
X78795Y-63775D01*
X78795Y-63747D01*
X78757Y-63656D01*
X78695Y-63593D01*
X78695Y-63511D01*
X78687Y-63494D01*
X78694Y-63476D01*
X78695Y-63416D01*
X78695Y-63255D01*
X78672Y-63200D01*
X78630Y-63158D01*
X78574Y-63135D01*
X78524Y-63135D01*
X78549Y-63074D01*
X78549Y-63054D01*
X78549Y-63054D01*
X78572Y-63109D01*
X78614Y-63152D01*
X78670Y-63174D01*
X78729Y-63175D01*
X78886Y-63175D01*
X79589Y-63877D01*
G54D10*
G36*
X85514Y-59569D02*
X85495Y-59615D01*
X85495Y-59675D01*
X85495Y-60221D01*
X85267Y-60450D01*
X84699Y-60450D01*
X84699Y-60449D01*
X84700Y-60350D01*
X84700Y-60112D01*
X84637Y-60050D01*
X84200Y-60050D01*
X84200Y-60057D01*
X84100Y-60057D01*
X84100Y-60050D01*
X83662Y-60050D01*
X83600Y-60112D01*
X83599Y-60350D01*
X83600Y-60449D01*
X83600Y-60450D01*
X83291Y-60450D01*
X83299Y-60429D01*
X83300Y-60370D01*
X83300Y-59570D01*
X83299Y-59569D01*
X83600Y-59569D01*
X83599Y-59649D01*
X83600Y-59887D01*
X83662Y-59950D01*
X84100Y-59950D01*
X84100Y-59942D01*
X84200Y-59942D01*
X84200Y-59950D01*
X84637Y-59950D01*
X84700Y-59887D01*
X84700Y-59649D01*
X84699Y-59569D01*
X85514Y-59569D01*
X85514Y-59569D01*
G37*
G54D23*
X85514Y-59569D02*
X85495Y-59615D01*
X85495Y-59675D01*
X85495Y-60221D01*
X85267Y-60450D01*
X84699Y-60450D01*
X84699Y-60449D01*
X84700Y-60350D01*
X84700Y-60112D01*
X84637Y-60050D01*
X84200Y-60050D01*
X84200Y-60057D01*
X84100Y-60057D01*
X84100Y-60050D01*
X83662Y-60050D01*
X83600Y-60112D01*
X83599Y-60350D01*
X83600Y-60449D01*
X83600Y-60450D01*
X83291Y-60450D01*
X83299Y-60429D01*
X83300Y-60370D01*
X83300Y-59570D01*
X83299Y-59569D01*
X83600Y-59569D01*
X83599Y-59649D01*
X83600Y-59887D01*
X83662Y-59950D01*
X84100Y-59950D01*
X84100Y-59942D01*
X84200Y-59942D01*
X84200Y-59950D01*
X84637Y-59950D01*
X84700Y-59887D01*
X84700Y-59649D01*
X84699Y-59569D01*
X85514Y-59569D01*
G54D10*
G36*
X85617Y-65330D02*
X84700Y-65330D01*
X84169Y-65330D01*
X84169Y-65150D01*
X84200Y-65150D01*
X84200Y-65087D01*
X84262Y-65150D01*
X84499Y-65150D01*
X84591Y-65112D01*
X84661Y-65041D01*
X84699Y-64949D01*
X84700Y-64850D01*
X84700Y-64612D01*
X84637Y-64550D01*
X84200Y-64550D01*
X84200Y-64557D01*
X84100Y-64557D01*
X84100Y-64550D01*
X83662Y-64550D01*
X83600Y-64612D01*
X83599Y-64850D01*
X83600Y-64930D01*
X83299Y-64930D01*
X83299Y-64929D01*
X83300Y-64870D01*
X83300Y-64070D01*
X83291Y-64050D01*
X83600Y-64050D01*
X83600Y-64050D01*
X83599Y-64149D01*
X83600Y-64387D01*
X83662Y-64450D01*
X84100Y-64450D01*
X84100Y-64442D01*
X84200Y-64442D01*
X84200Y-64450D01*
X84637Y-64450D01*
X84700Y-64387D01*
X84700Y-64149D01*
X84699Y-64050D01*
X84699Y-64050D01*
X84767Y-64050D01*
X85531Y-64813D01*
X85495Y-64899D01*
X85495Y-65099D01*
X85572Y-65285D01*
X85617Y-65330D01*
X85617Y-65330D01*
G37*
G54D23*
X85617Y-65330D02*
X84700Y-65330D01*
X84169Y-65330D01*
X84169Y-65150D01*
X84200Y-65150D01*
X84200Y-65087D01*
X84262Y-65150D01*
X84499Y-65150D01*
X84591Y-65112D01*
X84661Y-65041D01*
X84699Y-64949D01*
X84700Y-64850D01*
X84700Y-64612D01*
X84637Y-64550D01*
X84200Y-64550D01*
X84200Y-64557D01*
X84100Y-64557D01*
X84100Y-64550D01*
X83662Y-64550D01*
X83600Y-64612D01*
X83599Y-64850D01*
X83600Y-64930D01*
X83299Y-64930D01*
X83299Y-64929D01*
X83300Y-64870D01*
X83300Y-64070D01*
X83291Y-64050D01*
X83600Y-64050D01*
X83600Y-64050D01*
X83599Y-64149D01*
X83600Y-64387D01*
X83662Y-64450D01*
X84100Y-64450D01*
X84100Y-64442D01*
X84200Y-64442D01*
X84200Y-64450D01*
X84637Y-64450D01*
X84700Y-64387D01*
X84700Y-64149D01*
X84699Y-64050D01*
X84699Y-64050D01*
X84767Y-64050D01*
X85531Y-64813D01*
X85495Y-64899D01*
X85495Y-65099D01*
X85572Y-65285D01*
X85617Y-65330D01*
G54D10*
G36*
X85889Y-61500D02*
X85714Y-61572D01*
X85572Y-61713D01*
X85495Y-61899D01*
X85495Y-61960D01*
X84695Y-61960D01*
X84699Y-61949D01*
X84700Y-61850D01*
X84700Y-61612D01*
X84637Y-61550D01*
X84200Y-61550D01*
X84200Y-61557D01*
X84100Y-61557D01*
X84100Y-61550D01*
X83662Y-61550D01*
X83600Y-61612D01*
X83599Y-61850D01*
X83600Y-61949D01*
X83604Y-61960D01*
X83287Y-61960D01*
X83299Y-61929D01*
X83300Y-61870D01*
X83300Y-61150D01*
X83599Y-61150D01*
X83600Y-61387D01*
X83662Y-61450D01*
X84100Y-61450D01*
X84100Y-61442D01*
X84200Y-61442D01*
X84200Y-61450D01*
X84637Y-61450D01*
X84700Y-61387D01*
X84700Y-61150D01*
X85516Y-61150D01*
X85572Y-61285D01*
X85713Y-61427D01*
X85889Y-61500D01*
X85889Y-61500D01*
G37*
G54D23*
X85889Y-61500D02*
X85714Y-61572D01*
X85572Y-61713D01*
X85495Y-61899D01*
X85495Y-61960D01*
X84695Y-61960D01*
X84699Y-61949D01*
X84700Y-61850D01*
X84700Y-61612D01*
X84637Y-61550D01*
X84200Y-61550D01*
X84200Y-61557D01*
X84100Y-61557D01*
X84100Y-61550D01*
X83662Y-61550D01*
X83600Y-61612D01*
X83599Y-61850D01*
X83600Y-61949D01*
X83604Y-61960D01*
X83287Y-61960D01*
X83299Y-61929D01*
X83300Y-61870D01*
X83300Y-61150D01*
X83599Y-61150D01*
X83600Y-61387D01*
X83662Y-61450D01*
X84100Y-61450D01*
X84100Y-61442D01*
X84200Y-61442D01*
X84200Y-61450D01*
X84637Y-61450D01*
X84700Y-61387D01*
X84700Y-61150D01*
X85516Y-61150D01*
X85572Y-61285D01*
X85713Y-61427D01*
X85889Y-61500D01*
G54D10*
G36*
X85889Y-63500D02*
X85814Y-63531D01*
X85741Y-63458D01*
X85676Y-63415D01*
X85600Y-63400D01*
X84699Y-63400D01*
X84700Y-63350D01*
X84700Y-63112D01*
X84637Y-63050D01*
X84200Y-63050D01*
X84200Y-63057D01*
X84100Y-63057D01*
X84100Y-63050D01*
X83662Y-63050D01*
X83600Y-63112D01*
X83599Y-63350D01*
X83600Y-63400D01*
X83300Y-63400D01*
X83300Y-63370D01*
X83300Y-62570D01*
X83287Y-62540D01*
X83604Y-62540D01*
X83600Y-62550D01*
X83599Y-62649D01*
X83600Y-62887D01*
X83662Y-62950D01*
X84100Y-62950D01*
X84100Y-62942D01*
X84200Y-62942D01*
X84200Y-62950D01*
X84637Y-62950D01*
X84700Y-62887D01*
X84700Y-62649D01*
X84699Y-62550D01*
X84695Y-62540D01*
X85257Y-62540D01*
X85531Y-62813D01*
X85495Y-62899D01*
X85495Y-63099D01*
X85572Y-63285D01*
X85713Y-63427D01*
X85889Y-63500D01*
X85889Y-63500D01*
G37*
G54D23*
X85889Y-63500D02*
X85814Y-63531D01*
X85741Y-63458D01*
X85676Y-63415D01*
X85600Y-63400D01*
X84699Y-63400D01*
X84700Y-63350D01*
X84700Y-63112D01*
X84637Y-63050D01*
X84200Y-63050D01*
X84200Y-63057D01*
X84100Y-63057D01*
X84100Y-63050D01*
X83662Y-63050D01*
X83600Y-63112D01*
X83599Y-63350D01*
X83600Y-63400D01*
X83300Y-63400D01*
X83300Y-63370D01*
X83300Y-62570D01*
X83287Y-62540D01*
X83604Y-62540D01*
X83600Y-62550D01*
X83599Y-62649D01*
X83600Y-62887D01*
X83662Y-62950D01*
X84100Y-62950D01*
X84100Y-62942D01*
X84200Y-62942D01*
X84200Y-62950D01*
X84637Y-62950D01*
X84700Y-62887D01*
X84700Y-62649D01*
X84699Y-62550D01*
X84695Y-62540D01*
X85257Y-62540D01*
X85531Y-62813D01*
X85495Y-62899D01*
X85495Y-63099D01*
X85572Y-63285D01*
X85713Y-63427D01*
X85889Y-63500D01*
M02*
