M48
;DRILL file {Pcbnew (2013-07-07 BZR 4022)-stable} date 23/09/2014 08:58:57
;FORMAT={-:-/ absolute / inch / decimal}
FMAT,2
INCH,TZ
T1C0.039
T2C0.040
T3C0.055
T4C0.120
T5C0.157
%
G90
G05
M72
T1
X6.8898Y-5.6102
X6.8898Y-5.8071
X6.9882Y-4.8228
X6.9882Y-5.0197
X6.9882Y-5.2165
X6.9882Y-5.4134
X7.0866Y-5.6102
X7.0866Y-5.8071
X7.185Y-4.8228
X7.185Y-5.0197
X7.185Y-5.2165
X7.185Y-5.4134
X7.2835Y-5.6102
X7.2835Y-5.8071
X7.3819Y-4.8228
X7.3819Y-5.0197
X7.3819Y-5.2165
X7.3819Y-5.4134
X7.4803Y-5.6102
X7.4803Y-5.8071
X7.5787Y-4.8228
X7.5787Y-5.0197
X7.5787Y-5.2165
X7.5787Y-5.4134
X7.6772Y-5.6102
X7.6772Y-5.8071
X7.7756Y-4.8228
X7.7756Y-5.0197
X7.7756Y-5.2165
X7.7756Y-5.4134
X7.874Y-5.6102
X7.874Y-5.8071
X7.9724Y-4.8228
X7.9724Y-5.0197
X7.9724Y-5.2165
X7.9724Y-5.4134
X8.0709Y-5.6102
X8.0709Y-5.8071
X8.1693Y-4.8228
X8.1693Y-5.0197
X8.1693Y-5.2165
X8.1693Y-5.4134
X8.2677Y-5.6102
X8.2677Y-5.8071
X8.3661Y-4.8228
X8.3661Y-5.0197
X8.3661Y-5.2165
X8.3661Y-5.4134
X8.4646Y-5.6102
X8.4646Y-5.8071
X8.563Y-4.8228
X8.563Y-5.0197
X8.563Y-5.2165
X8.563Y-5.4134
X8.6614Y-5.6102
X8.6614Y-5.8071
X8.7598Y-4.8228
X8.7598Y-5.0197
X8.7598Y-5.2165
X8.7598Y-5.4134
X8.8583Y-5.6102
X8.8583Y-5.8071
X8.9567Y-4.8228
X8.9567Y-5.0197
X8.9567Y-5.2165
X8.9567Y-5.4134
X9.0551Y-5.6102
X9.0551Y-5.8071
X9.1535Y-4.8228
X9.1535Y-5.0197
X9.1535Y-5.2165
X9.1535Y-5.4134
X9.252Y-5.6102
X9.252Y-5.8071
X9.3504Y-4.8228
X9.3504Y-5.0197
X9.3504Y-5.2165
X9.3504Y-5.4134
X9.4488Y-5.6102
X9.4488Y-5.8071
X9.5472Y-4.8228
X9.5472Y-5.0197
X9.5472Y-5.2165
X9.5472Y-5.4134
X9.6457Y-5.6102
X9.6457Y-5.8071
X9.7441Y-4.8228
X9.7441Y-5.0197
X9.7441Y-5.2165
X9.7441Y-5.4134
X9.8425Y-5.6102
X9.8425Y-5.8071
X9.9409Y-4.8228
X9.9409Y-5.0197
X9.9409Y-5.2165
X9.9409Y-5.4134
X10.0394Y-5.6102
X10.0394Y-5.8071
X10.1378Y-4.8228
X10.1378Y-5.0197
X10.1378Y-5.2165
X10.1378Y-5.4134
X10.2362Y-5.6102
X10.2362Y-5.8071
X10.3346Y-4.8228
X10.3346Y-5.0197
X10.3346Y-5.2165
X10.3346Y-5.4134
X10.4331Y-5.6102
X10.4331Y-5.8071
T2
X6.2008Y-5.315
X11.122Y-5.315
T3
X6.8898Y-6.2992
X6.9882Y-6.0039
X6.9882Y-6.2992
X7.0866Y-6.2992
X7.185Y-6.0039
X7.185Y-6.2992
X7.2835Y-6.2992
X7.3819Y-6.0039
X7.3819Y-6.2992
X7.4803Y-6.2992
X7.5787Y-6.0039
X7.5787Y-6.2992
X7.6772Y-6.2992
X7.7756Y-6.0039
X7.7756Y-6.2992
X7.874Y-6.2992
X7.9724Y-6.0039
X7.9724Y-6.2992
X8.0709Y-6.2992
X8.1693Y-6.0039
X8.1693Y-6.2992
X8.2677Y-6.2992
X8.3661Y-6.0039
X8.3661Y-6.2992
X8.4646Y-6.2992
X8.563Y-6.0039
X8.563Y-6.2992
X8.6614Y-6.2992
X8.7598Y-6.0039
X8.7598Y-6.2992
X8.8583Y-6.2992
X8.9567Y-6.0039
X8.9567Y-6.2992
X9.0551Y-6.2992
X9.1535Y-6.0039
X9.1535Y-6.2992
X9.252Y-6.2992
X9.3504Y-6.0039
X9.3504Y-6.2992
X9.4488Y-6.2992
X9.5472Y-6.0039
X9.5472Y-6.2992
X9.6457Y-6.2992
X9.7441Y-6.0039
X9.7441Y-6.2992
X9.8425Y-6.2992
X9.9409Y-6.0039
X9.9409Y-6.2992
X10.0394Y-6.2992
X10.1378Y-6.0039
X10.1378Y-6.2992
X10.2362Y-6.2992
X10.3346Y-6.0039
X10.3346Y-6.2992
X10.4331Y-6.2992
T4
X5.9055Y-4.9213
X5.9055Y-6.4961
X11.4173Y-4.9213
X11.4173Y-6.4961
T5
X6.5157Y-6.2205
X10.8071Y-6.2205
T0
M30
