G04 (created by PCBNEW (2013-07-07 BZR 4022)-stable) date 23/09/2014 08:58:54*
%MOIN*%
G04 Gerber Fmt 3.4, Leading zero omitted, Abs format*
%FSLAX34Y34*%
G01*
G70*
G90*
G04 APERTURE LIST*
%ADD10C,0.00590551*%
%ADD11C,0.0984252*%
%ADD12C,0.16*%
%ADD13R,0.06X0.06*%
%ADD14C,0.0787402*%
%ADD15C,0.15748*%
%ADD16C,0.0590551*%
%ADD17C,0.011811*%
G04 APERTURE END LIST*
G54D10*
G54D11*
X104330Y-56102D03*
X102362Y-56102D03*
X100393Y-56102D03*
X98425Y-56102D03*
X96456Y-56102D03*
X94488Y-56102D03*
X92519Y-56102D03*
X90551Y-56102D03*
X88582Y-56102D03*
X86614Y-56102D03*
X84645Y-56102D03*
X82677Y-56102D03*
X80708Y-56102D03*
X78740Y-56102D03*
X76771Y-56102D03*
X74803Y-56102D03*
X72834Y-56102D03*
X70866Y-56102D03*
X68897Y-56102D03*
X104330Y-58070D03*
X102362Y-58070D03*
X100393Y-58070D03*
X98425Y-58070D03*
X96456Y-58070D03*
X94488Y-58070D03*
X92519Y-58070D03*
X90551Y-58070D03*
X88582Y-58070D03*
X86614Y-58070D03*
X84645Y-58070D03*
X82677Y-58070D03*
X80708Y-58070D03*
X78740Y-58070D03*
X76771Y-58070D03*
X74803Y-58070D03*
X72834Y-58070D03*
X70866Y-58070D03*
X68897Y-58070D03*
X103346Y-52165D03*
X101377Y-52165D03*
X99409Y-52165D03*
X97440Y-52165D03*
X95472Y-52165D03*
X93503Y-52165D03*
X91535Y-52165D03*
X89566Y-52165D03*
X87598Y-52165D03*
X85629Y-52165D03*
X83661Y-52165D03*
X81692Y-52165D03*
X79724Y-52165D03*
X77755Y-52165D03*
X75787Y-52165D03*
X73818Y-52165D03*
X71850Y-52165D03*
X69881Y-52165D03*
X103346Y-54133D03*
X101377Y-54133D03*
X99409Y-54133D03*
X97440Y-54133D03*
X95472Y-54133D03*
X93503Y-54133D03*
X91535Y-54133D03*
X89566Y-54133D03*
X87598Y-54133D03*
X85629Y-54133D03*
X83661Y-54133D03*
X81692Y-54133D03*
X79724Y-54133D03*
X77755Y-54133D03*
X75787Y-54133D03*
X73818Y-54133D03*
X71850Y-54133D03*
X69881Y-54133D03*
X103346Y-48228D03*
X101377Y-48228D03*
X99409Y-48228D03*
X97440Y-48228D03*
X95472Y-48228D03*
X93503Y-48228D03*
X91535Y-48228D03*
X89566Y-48228D03*
X87598Y-48228D03*
X85629Y-48228D03*
X83661Y-48228D03*
X81692Y-48228D03*
X79724Y-48228D03*
X77755Y-48228D03*
X75787Y-48228D03*
X73818Y-48228D03*
X71850Y-48228D03*
X69881Y-48228D03*
X103346Y-50196D03*
X101377Y-50196D03*
X99409Y-50196D03*
X97440Y-50196D03*
X95472Y-50196D03*
X93503Y-50196D03*
X91535Y-50196D03*
X89566Y-50196D03*
X87598Y-50196D03*
X85629Y-50196D03*
X83661Y-50196D03*
X81692Y-50196D03*
X79724Y-50196D03*
X77755Y-50196D03*
X75787Y-50196D03*
X73818Y-50196D03*
X71850Y-50196D03*
X69881Y-50196D03*
G54D12*
X114173Y-49212D03*
X114173Y-64960D03*
X59055Y-64960D03*
X59055Y-49212D03*
G54D13*
X62007Y-53149D03*
X111220Y-53149D03*
G54D14*
X104330Y-62992D03*
X102362Y-62992D03*
X100393Y-62992D03*
X98425Y-62992D03*
X96456Y-62992D03*
X94488Y-62992D03*
X92519Y-62992D03*
X90551Y-62992D03*
X88582Y-62992D03*
X86614Y-62992D03*
X84645Y-62992D03*
X82677Y-62992D03*
X80708Y-62992D03*
X78740Y-62992D03*
X76771Y-62992D03*
X74803Y-62992D03*
X72834Y-62992D03*
X70866Y-62992D03*
X68897Y-62992D03*
X103346Y-62992D03*
X101377Y-62992D03*
X99409Y-62992D03*
X97440Y-62992D03*
X95472Y-62992D03*
X93503Y-62992D03*
X91535Y-62992D03*
X89566Y-62992D03*
X87598Y-62992D03*
X85629Y-62992D03*
X83661Y-62992D03*
X81692Y-62992D03*
X79724Y-62992D03*
X77755Y-62992D03*
X75787Y-62992D03*
X73818Y-62992D03*
X71850Y-62992D03*
X69881Y-62992D03*
X103346Y-60039D03*
X101377Y-60039D03*
X99409Y-60039D03*
X97440Y-60039D03*
X95472Y-60039D03*
X93503Y-60039D03*
X91535Y-60039D03*
X89566Y-60039D03*
X87598Y-60039D03*
X85629Y-60039D03*
X83661Y-60039D03*
X81692Y-60039D03*
X79724Y-60039D03*
X77755Y-60039D03*
X75787Y-60039D03*
X73818Y-60039D03*
X71850Y-60039D03*
X69881Y-60039D03*
G54D15*
X65157Y-62204D03*
X108070Y-62204D03*
G54D16*
X103346Y-54133D02*
X103346Y-52165D01*
X103346Y-62992D02*
X103346Y-61417D01*
X103346Y-58464D02*
X103346Y-54133D01*
X104330Y-59448D02*
X103346Y-58464D01*
X104330Y-60433D02*
X104330Y-59448D01*
X103346Y-61417D02*
X104330Y-60433D01*
X77755Y-62992D02*
X77755Y-61417D01*
X77755Y-58464D02*
X77755Y-54133D01*
X78740Y-59448D02*
X77755Y-58464D01*
X78740Y-60433D02*
X78740Y-59448D01*
X77755Y-61417D02*
X78740Y-60433D01*
X77755Y-54133D02*
X77755Y-52165D01*
X75787Y-54133D02*
X75787Y-52165D01*
X75787Y-62992D02*
X75787Y-61417D01*
X75787Y-58464D02*
X75787Y-52165D01*
X76771Y-59448D02*
X75787Y-58464D01*
X76771Y-60433D02*
X76771Y-59448D01*
X75787Y-61417D02*
X76771Y-60433D01*
X73818Y-54133D02*
X73818Y-52165D01*
X73818Y-62992D02*
X73818Y-61417D01*
X73818Y-58464D02*
X73818Y-52165D01*
X74803Y-59448D02*
X73818Y-58464D01*
X74803Y-60433D02*
X74803Y-59448D01*
X73818Y-61417D02*
X74803Y-60433D01*
X71850Y-54133D02*
X71850Y-52165D01*
X71850Y-62992D02*
X71850Y-61417D01*
X71850Y-58464D02*
X71850Y-52165D01*
X72834Y-59448D02*
X71850Y-58464D01*
X72834Y-60433D02*
X72834Y-59448D01*
X71850Y-61417D02*
X72834Y-60433D01*
X69881Y-62992D02*
X69881Y-61417D01*
X69881Y-58464D02*
X69881Y-54133D01*
X70866Y-59448D02*
X69881Y-58464D01*
X70866Y-60433D02*
X70866Y-59448D01*
X69881Y-61417D02*
X70866Y-60433D01*
X69881Y-54133D02*
X69881Y-52165D01*
X101377Y-54133D02*
X101377Y-52165D01*
X101377Y-62992D02*
X101377Y-62598D01*
X101377Y-62598D02*
X101377Y-62992D01*
X101377Y-62992D02*
X101377Y-61417D01*
X101377Y-58464D02*
X101377Y-52165D01*
X102362Y-59448D02*
X101377Y-58464D01*
X102362Y-60433D02*
X102362Y-59448D01*
X101377Y-61417D02*
X102362Y-60433D01*
X79724Y-54133D02*
X79724Y-52165D01*
X79724Y-62992D02*
X79724Y-61417D01*
X79724Y-58464D02*
X79724Y-52165D01*
X80708Y-59448D02*
X79724Y-58464D01*
X80708Y-60433D02*
X80708Y-59448D01*
X79724Y-61417D02*
X80708Y-60433D01*
X99409Y-54133D02*
X99409Y-52165D01*
X99409Y-62992D02*
X99409Y-61417D01*
X99409Y-58464D02*
X99409Y-52165D01*
X100393Y-59448D02*
X99409Y-58464D01*
X100393Y-60433D02*
X100393Y-59448D01*
X99409Y-61417D02*
X100393Y-60433D01*
X97440Y-54133D02*
X97440Y-52165D01*
X97440Y-62992D02*
X97440Y-61417D01*
X97440Y-58464D02*
X97440Y-52165D01*
X98425Y-59448D02*
X97440Y-58464D01*
X98425Y-60433D02*
X98425Y-59448D01*
X97440Y-61417D02*
X98425Y-60433D01*
X95472Y-54133D02*
X95472Y-52165D01*
X95472Y-62992D02*
X95472Y-61417D01*
X95472Y-58464D02*
X95472Y-52165D01*
X96456Y-59448D02*
X95472Y-58464D01*
X96456Y-60433D02*
X96456Y-59448D01*
X95472Y-61417D02*
X96456Y-60433D01*
X93503Y-54133D02*
X93503Y-52165D01*
X93503Y-62992D02*
X93503Y-61417D01*
X93503Y-58464D02*
X93503Y-52165D01*
X94488Y-59448D02*
X93503Y-58464D01*
X94488Y-60433D02*
X94488Y-59448D01*
X93503Y-61417D02*
X94488Y-60433D01*
X91535Y-54133D02*
X91535Y-52165D01*
X91535Y-62992D02*
X91535Y-61417D01*
X91535Y-58464D02*
X91535Y-52165D01*
X92519Y-59448D02*
X91535Y-58464D01*
X92519Y-60433D02*
X92519Y-59448D01*
X91535Y-61417D02*
X92519Y-60433D01*
X89566Y-52165D02*
X89566Y-54133D01*
X89566Y-62992D02*
X89566Y-61417D01*
X89566Y-58464D02*
X89566Y-54133D01*
X90551Y-59448D02*
X89566Y-58464D01*
X90551Y-60433D02*
X90551Y-59448D01*
X89566Y-61417D02*
X90551Y-60433D01*
X87598Y-54133D02*
X87598Y-52165D01*
X87598Y-62992D02*
X87598Y-61417D01*
X87598Y-58464D02*
X87598Y-52165D01*
X88582Y-59448D02*
X87598Y-58464D01*
X88582Y-60433D02*
X88582Y-59448D01*
X87598Y-61417D02*
X88582Y-60433D01*
X85629Y-62992D02*
X85629Y-61417D01*
X85629Y-58464D02*
X85629Y-54133D01*
X86614Y-59448D02*
X85629Y-58464D01*
X86614Y-59842D02*
X86614Y-59448D01*
X86614Y-60433D02*
X86614Y-59842D01*
X85629Y-61417D02*
X86614Y-60433D01*
X85629Y-54133D02*
X85629Y-52165D01*
X83661Y-54133D02*
X83661Y-52165D01*
X83661Y-62992D02*
X83661Y-61417D01*
X83661Y-58464D02*
X83661Y-52165D01*
X84645Y-59448D02*
X83661Y-58464D01*
X84645Y-60433D02*
X84645Y-59448D01*
X83661Y-61417D02*
X84645Y-60433D01*
X81692Y-54133D02*
X81692Y-52165D01*
X81692Y-62992D02*
X81692Y-61417D01*
X81692Y-58464D02*
X81692Y-52165D01*
X82677Y-59448D02*
X81692Y-58464D01*
X82677Y-60433D02*
X82677Y-59448D01*
X81692Y-61417D02*
X82677Y-60433D01*
G54D10*
G36*
X115866Y-66653D02*
X115229Y-66653D01*
X115229Y-64751D01*
X115229Y-49003D01*
X115068Y-48615D01*
X114772Y-48317D01*
X114384Y-48156D01*
X113964Y-48156D01*
X113575Y-48316D01*
X113278Y-48613D01*
X113117Y-49001D01*
X113117Y-49421D01*
X113277Y-49809D01*
X113574Y-50107D01*
X113962Y-50268D01*
X114382Y-50268D01*
X114770Y-50108D01*
X115067Y-49811D01*
X115228Y-49423D01*
X115229Y-49003D01*
X115229Y-64751D01*
X115068Y-64363D01*
X114772Y-64065D01*
X114384Y-63904D01*
X113964Y-63904D01*
X113575Y-64064D01*
X113278Y-64361D01*
X113117Y-64749D01*
X113117Y-65169D01*
X113277Y-65557D01*
X113574Y-65855D01*
X113962Y-66016D01*
X114382Y-66016D01*
X114770Y-65856D01*
X115067Y-65559D01*
X115228Y-65171D01*
X115229Y-64751D01*
X115229Y-66653D01*
X111679Y-66653D01*
X111679Y-53418D01*
X111679Y-52881D01*
X111679Y-52817D01*
X111655Y-52759D01*
X111610Y-52714D01*
X111551Y-52690D01*
X111378Y-52690D01*
X111338Y-52730D01*
X111338Y-53031D01*
X111639Y-53031D01*
X111679Y-52991D01*
X111679Y-52881D01*
X111679Y-53418D01*
X111679Y-53307D01*
X111639Y-53267D01*
X111338Y-53267D01*
X111338Y-53568D01*
X111378Y-53608D01*
X111551Y-53608D01*
X111610Y-53584D01*
X111655Y-53539D01*
X111679Y-53481D01*
X111679Y-53418D01*
X111679Y-66653D01*
X111102Y-66653D01*
X111102Y-53568D01*
X111102Y-53267D01*
X111102Y-53031D01*
X111102Y-52730D01*
X111062Y-52690D01*
X110888Y-52690D01*
X110830Y-52714D01*
X110785Y-52759D01*
X110761Y-52817D01*
X110761Y-52881D01*
X110761Y-52991D01*
X110801Y-53031D01*
X111102Y-53031D01*
X111102Y-53267D01*
X110801Y-53267D01*
X110761Y-53307D01*
X110761Y-53418D01*
X110761Y-53481D01*
X110785Y-53539D01*
X110830Y-53584D01*
X110888Y-53608D01*
X111062Y-53608D01*
X111102Y-53568D01*
X111102Y-66653D01*
X109114Y-66653D01*
X109114Y-61998D01*
X108955Y-61614D01*
X108662Y-61320D01*
X108279Y-61161D01*
X107864Y-61161D01*
X107480Y-61319D01*
X107186Y-61612D01*
X107027Y-61996D01*
X107027Y-62411D01*
X107185Y-62794D01*
X107479Y-63088D01*
X107862Y-63247D01*
X108277Y-63248D01*
X108661Y-63089D01*
X108954Y-62796D01*
X109113Y-62413D01*
X109114Y-61998D01*
X109114Y-66653D01*
X105078Y-66653D01*
X105078Y-57922D01*
X104965Y-57647D01*
X104754Y-57437D01*
X104480Y-57322D01*
X104182Y-57322D01*
X103907Y-57436D01*
X103897Y-57446D01*
X103897Y-56727D01*
X103906Y-56736D01*
X104181Y-56850D01*
X104478Y-56850D01*
X104753Y-56736D01*
X104964Y-56526D01*
X105078Y-56251D01*
X105078Y-55954D01*
X104965Y-55679D01*
X104754Y-55468D01*
X104480Y-55354D01*
X104182Y-55354D01*
X103907Y-55467D01*
X103897Y-55477D01*
X103897Y-54640D01*
X103980Y-54558D01*
X104094Y-54283D01*
X104094Y-53985D01*
X103980Y-53710D01*
X103897Y-53627D01*
X103897Y-52672D01*
X103980Y-52589D01*
X104094Y-52314D01*
X104094Y-52017D01*
X104094Y-50048D01*
X103980Y-49773D01*
X103770Y-49563D01*
X103495Y-49448D01*
X103198Y-49448D01*
X102923Y-49562D01*
X102712Y-49772D01*
X102598Y-50047D01*
X102598Y-50344D01*
X102711Y-50620D01*
X102922Y-50830D01*
X103197Y-50944D01*
X103494Y-50945D01*
X103769Y-50831D01*
X103980Y-50621D01*
X104094Y-50346D01*
X104094Y-50048D01*
X104094Y-52017D01*
X103980Y-51742D01*
X103770Y-51531D01*
X103495Y-51417D01*
X103198Y-51417D01*
X102923Y-51530D01*
X102712Y-51741D01*
X102598Y-52015D01*
X102598Y-52313D01*
X102711Y-52588D01*
X102795Y-52672D01*
X102795Y-53627D01*
X102712Y-53709D01*
X102598Y-53984D01*
X102598Y-54281D01*
X102711Y-54557D01*
X102795Y-54640D01*
X102795Y-55477D01*
X102786Y-55468D01*
X102511Y-55354D01*
X102214Y-55354D01*
X101939Y-55467D01*
X101929Y-55477D01*
X101929Y-54640D01*
X102011Y-54558D01*
X102125Y-54283D01*
X102126Y-53985D01*
X102012Y-53710D01*
X101929Y-53627D01*
X101929Y-52672D01*
X102011Y-52589D01*
X102125Y-52314D01*
X102126Y-52017D01*
X102126Y-50048D01*
X102012Y-49773D01*
X101802Y-49563D01*
X101527Y-49448D01*
X101229Y-49448D01*
X100954Y-49562D01*
X100744Y-49772D01*
X100630Y-50047D01*
X100629Y-50344D01*
X100743Y-50620D01*
X100953Y-50830D01*
X101228Y-50944D01*
X101526Y-50945D01*
X101801Y-50831D01*
X102011Y-50621D01*
X102125Y-50346D01*
X102126Y-50048D01*
X102126Y-52017D01*
X102012Y-51742D01*
X101802Y-51531D01*
X101527Y-51417D01*
X101229Y-51417D01*
X100954Y-51530D01*
X100744Y-51741D01*
X100630Y-52015D01*
X100629Y-52313D01*
X100743Y-52588D01*
X100826Y-52672D01*
X100826Y-53627D01*
X100744Y-53709D01*
X100630Y-53984D01*
X100629Y-54281D01*
X100743Y-54557D01*
X100826Y-54640D01*
X100826Y-55477D01*
X100817Y-55468D01*
X100543Y-55354D01*
X100245Y-55354D01*
X99970Y-55467D01*
X99960Y-55477D01*
X99960Y-54640D01*
X100043Y-54558D01*
X100157Y-54283D01*
X100157Y-53985D01*
X100043Y-53710D01*
X99960Y-53627D01*
X99960Y-52672D01*
X100043Y-52589D01*
X100157Y-52314D01*
X100157Y-52017D01*
X100157Y-50048D01*
X100043Y-49773D01*
X99833Y-49563D01*
X99558Y-49448D01*
X99261Y-49448D01*
X98986Y-49562D01*
X98775Y-49772D01*
X98661Y-50047D01*
X98661Y-50344D01*
X98774Y-50620D01*
X98985Y-50830D01*
X99260Y-50944D01*
X99557Y-50945D01*
X99832Y-50831D01*
X100043Y-50621D01*
X100157Y-50346D01*
X100157Y-50048D01*
X100157Y-52017D01*
X100043Y-51742D01*
X99833Y-51531D01*
X99558Y-51417D01*
X99261Y-51417D01*
X98986Y-51530D01*
X98775Y-51741D01*
X98661Y-52015D01*
X98661Y-52313D01*
X98774Y-52588D01*
X98858Y-52672D01*
X98858Y-53627D01*
X98775Y-53709D01*
X98661Y-53984D01*
X98661Y-54281D01*
X98774Y-54557D01*
X98858Y-54640D01*
X98858Y-55477D01*
X98849Y-55468D01*
X98574Y-55354D01*
X98277Y-55354D01*
X98002Y-55467D01*
X97992Y-55477D01*
X97992Y-54640D01*
X98074Y-54558D01*
X98188Y-54283D01*
X98189Y-53985D01*
X98075Y-53710D01*
X97992Y-53627D01*
X97992Y-52672D01*
X98074Y-52589D01*
X98188Y-52314D01*
X98189Y-52017D01*
X98189Y-50048D01*
X98075Y-49773D01*
X97865Y-49563D01*
X97590Y-49448D01*
X97292Y-49448D01*
X97017Y-49562D01*
X96807Y-49772D01*
X96693Y-50047D01*
X96692Y-50344D01*
X96806Y-50620D01*
X97016Y-50830D01*
X97291Y-50944D01*
X97589Y-50945D01*
X97864Y-50831D01*
X98074Y-50621D01*
X98188Y-50346D01*
X98189Y-50048D01*
X98189Y-52017D01*
X98075Y-51742D01*
X97865Y-51531D01*
X97590Y-51417D01*
X97292Y-51417D01*
X97017Y-51530D01*
X96807Y-51741D01*
X96693Y-52015D01*
X96692Y-52313D01*
X96806Y-52588D01*
X96889Y-52672D01*
X96889Y-53627D01*
X96807Y-53709D01*
X96693Y-53984D01*
X96692Y-54281D01*
X96806Y-54557D01*
X96889Y-54640D01*
X96889Y-55477D01*
X96880Y-55468D01*
X96606Y-55354D01*
X96308Y-55354D01*
X96033Y-55467D01*
X96023Y-55477D01*
X96023Y-54640D01*
X96106Y-54558D01*
X96220Y-54283D01*
X96220Y-53985D01*
X96106Y-53710D01*
X96023Y-53627D01*
X96023Y-52672D01*
X96106Y-52589D01*
X96220Y-52314D01*
X96220Y-52017D01*
X96220Y-50048D01*
X96106Y-49773D01*
X95896Y-49563D01*
X95621Y-49448D01*
X95324Y-49448D01*
X95049Y-49562D01*
X94838Y-49772D01*
X94724Y-50047D01*
X94724Y-50344D01*
X94837Y-50620D01*
X95048Y-50830D01*
X95322Y-50944D01*
X95620Y-50945D01*
X95895Y-50831D01*
X96106Y-50621D01*
X96220Y-50346D01*
X96220Y-50048D01*
X96220Y-52017D01*
X96106Y-51742D01*
X95896Y-51531D01*
X95621Y-51417D01*
X95324Y-51417D01*
X95049Y-51530D01*
X94838Y-51741D01*
X94724Y-52015D01*
X94724Y-52313D01*
X94837Y-52588D01*
X94921Y-52672D01*
X94921Y-53627D01*
X94838Y-53709D01*
X94724Y-53984D01*
X94724Y-54281D01*
X94837Y-54557D01*
X94921Y-54640D01*
X94921Y-55477D01*
X94912Y-55468D01*
X94637Y-55354D01*
X94340Y-55354D01*
X94065Y-55467D01*
X94055Y-55477D01*
X94055Y-54640D01*
X94137Y-54558D01*
X94251Y-54283D01*
X94252Y-53985D01*
X94138Y-53710D01*
X94055Y-53627D01*
X94055Y-52672D01*
X94137Y-52589D01*
X94251Y-52314D01*
X94252Y-52017D01*
X94252Y-50048D01*
X94138Y-49773D01*
X93928Y-49563D01*
X93653Y-49448D01*
X93355Y-49448D01*
X93080Y-49562D01*
X92870Y-49772D01*
X92756Y-50047D01*
X92755Y-50344D01*
X92869Y-50620D01*
X93079Y-50830D01*
X93354Y-50944D01*
X93652Y-50945D01*
X93927Y-50831D01*
X94137Y-50621D01*
X94251Y-50346D01*
X94252Y-50048D01*
X94252Y-52017D01*
X94138Y-51742D01*
X93928Y-51531D01*
X93653Y-51417D01*
X93355Y-51417D01*
X93080Y-51530D01*
X92870Y-51741D01*
X92756Y-52015D01*
X92755Y-52313D01*
X92869Y-52588D01*
X92952Y-52672D01*
X92952Y-53627D01*
X92870Y-53709D01*
X92756Y-53984D01*
X92755Y-54281D01*
X92869Y-54557D01*
X92952Y-54640D01*
X92952Y-55477D01*
X92943Y-55468D01*
X92669Y-55354D01*
X92371Y-55354D01*
X92096Y-55467D01*
X92086Y-55477D01*
X92086Y-54640D01*
X92169Y-54558D01*
X92283Y-54283D01*
X92283Y-53985D01*
X92169Y-53710D01*
X92086Y-53627D01*
X92086Y-52672D01*
X92169Y-52589D01*
X92283Y-52314D01*
X92283Y-52017D01*
X92283Y-50048D01*
X92169Y-49773D01*
X91959Y-49563D01*
X91684Y-49448D01*
X91387Y-49448D01*
X91112Y-49562D01*
X90901Y-49772D01*
X90787Y-50047D01*
X90787Y-50344D01*
X90900Y-50620D01*
X91111Y-50830D01*
X91385Y-50944D01*
X91683Y-50945D01*
X91958Y-50831D01*
X92169Y-50621D01*
X92283Y-50346D01*
X92283Y-50048D01*
X92283Y-52017D01*
X92169Y-51742D01*
X91959Y-51531D01*
X91684Y-51417D01*
X91387Y-51417D01*
X91112Y-51530D01*
X90901Y-51741D01*
X90787Y-52015D01*
X90787Y-52313D01*
X90900Y-52588D01*
X90984Y-52672D01*
X90984Y-53627D01*
X90901Y-53709D01*
X90787Y-53984D01*
X90787Y-54281D01*
X90900Y-54557D01*
X90984Y-54640D01*
X90984Y-55477D01*
X90975Y-55468D01*
X90700Y-55354D01*
X90403Y-55354D01*
X90128Y-55467D01*
X90118Y-55477D01*
X90118Y-54640D01*
X90200Y-54558D01*
X90314Y-54283D01*
X90315Y-53985D01*
X90201Y-53710D01*
X90118Y-53627D01*
X90118Y-52672D01*
X90200Y-52589D01*
X90314Y-52314D01*
X90315Y-52017D01*
X90315Y-50048D01*
X90201Y-49773D01*
X89991Y-49563D01*
X89716Y-49448D01*
X89418Y-49448D01*
X89143Y-49562D01*
X88933Y-49772D01*
X88819Y-50047D01*
X88818Y-50344D01*
X88932Y-50620D01*
X89142Y-50830D01*
X89417Y-50944D01*
X89715Y-50945D01*
X89990Y-50831D01*
X90200Y-50621D01*
X90314Y-50346D01*
X90315Y-50048D01*
X90315Y-52017D01*
X90201Y-51742D01*
X89991Y-51531D01*
X89716Y-51417D01*
X89418Y-51417D01*
X89143Y-51530D01*
X88933Y-51741D01*
X88819Y-52015D01*
X88818Y-52313D01*
X88932Y-52588D01*
X89015Y-52672D01*
X89015Y-53627D01*
X88933Y-53709D01*
X88819Y-53984D01*
X88818Y-54281D01*
X88932Y-54557D01*
X89015Y-54640D01*
X89015Y-55477D01*
X89006Y-55468D01*
X88732Y-55354D01*
X88434Y-55354D01*
X88159Y-55467D01*
X88149Y-55477D01*
X88149Y-54640D01*
X88232Y-54558D01*
X88346Y-54283D01*
X88346Y-53985D01*
X88232Y-53710D01*
X88149Y-53627D01*
X88149Y-52672D01*
X88232Y-52589D01*
X88346Y-52314D01*
X88346Y-52017D01*
X88346Y-50048D01*
X88232Y-49773D01*
X88022Y-49563D01*
X87747Y-49448D01*
X87450Y-49448D01*
X87175Y-49562D01*
X86964Y-49772D01*
X86850Y-50047D01*
X86850Y-50344D01*
X86963Y-50620D01*
X87174Y-50830D01*
X87448Y-50944D01*
X87746Y-50945D01*
X88021Y-50831D01*
X88232Y-50621D01*
X88346Y-50346D01*
X88346Y-50048D01*
X88346Y-52017D01*
X88232Y-51742D01*
X88022Y-51531D01*
X87747Y-51417D01*
X87450Y-51417D01*
X87175Y-51530D01*
X86964Y-51741D01*
X86850Y-52015D01*
X86850Y-52313D01*
X86963Y-52588D01*
X87047Y-52672D01*
X87047Y-53627D01*
X86964Y-53709D01*
X86850Y-53984D01*
X86850Y-54281D01*
X86963Y-54557D01*
X87047Y-54640D01*
X87047Y-55477D01*
X87038Y-55468D01*
X86763Y-55354D01*
X86466Y-55354D01*
X86191Y-55467D01*
X86181Y-55477D01*
X86181Y-54640D01*
X86263Y-54558D01*
X86377Y-54283D01*
X86378Y-53985D01*
X86264Y-53710D01*
X86181Y-53627D01*
X86181Y-52672D01*
X86263Y-52589D01*
X86377Y-52314D01*
X86378Y-52017D01*
X86378Y-50048D01*
X86264Y-49773D01*
X86054Y-49563D01*
X85779Y-49448D01*
X85481Y-49448D01*
X85206Y-49562D01*
X84996Y-49772D01*
X84882Y-50047D01*
X84881Y-50344D01*
X84995Y-50620D01*
X85205Y-50830D01*
X85480Y-50944D01*
X85778Y-50945D01*
X86053Y-50831D01*
X86263Y-50621D01*
X86377Y-50346D01*
X86378Y-50048D01*
X86378Y-52017D01*
X86264Y-51742D01*
X86054Y-51531D01*
X85779Y-51417D01*
X85481Y-51417D01*
X85206Y-51530D01*
X84996Y-51741D01*
X84882Y-52015D01*
X84881Y-52313D01*
X84995Y-52588D01*
X85078Y-52672D01*
X85078Y-53627D01*
X84996Y-53709D01*
X84882Y-53984D01*
X84881Y-54281D01*
X84995Y-54557D01*
X85078Y-54640D01*
X85078Y-55477D01*
X85069Y-55468D01*
X84795Y-55354D01*
X84497Y-55354D01*
X84222Y-55467D01*
X84212Y-55477D01*
X84212Y-54640D01*
X84295Y-54558D01*
X84409Y-54283D01*
X84409Y-53985D01*
X84295Y-53710D01*
X84212Y-53627D01*
X84212Y-52672D01*
X84295Y-52589D01*
X84409Y-52314D01*
X84409Y-52017D01*
X84409Y-50048D01*
X84295Y-49773D01*
X84085Y-49563D01*
X83810Y-49448D01*
X83513Y-49448D01*
X83238Y-49562D01*
X83027Y-49772D01*
X82913Y-50047D01*
X82913Y-50344D01*
X83026Y-50620D01*
X83237Y-50830D01*
X83511Y-50944D01*
X83809Y-50945D01*
X84084Y-50831D01*
X84295Y-50621D01*
X84409Y-50346D01*
X84409Y-50048D01*
X84409Y-52017D01*
X84295Y-51742D01*
X84085Y-51531D01*
X83810Y-51417D01*
X83513Y-51417D01*
X83238Y-51530D01*
X83027Y-51741D01*
X82913Y-52015D01*
X82913Y-52313D01*
X83026Y-52588D01*
X83110Y-52672D01*
X83110Y-53627D01*
X83027Y-53709D01*
X82913Y-53984D01*
X82913Y-54281D01*
X83026Y-54557D01*
X83110Y-54640D01*
X83110Y-55477D01*
X83101Y-55468D01*
X82826Y-55354D01*
X82529Y-55354D01*
X82253Y-55467D01*
X82244Y-55477D01*
X82244Y-54640D01*
X82326Y-54558D01*
X82440Y-54283D01*
X82441Y-53985D01*
X82327Y-53710D01*
X82244Y-53627D01*
X82244Y-52672D01*
X82326Y-52589D01*
X82440Y-52314D01*
X82441Y-52017D01*
X82441Y-50048D01*
X82327Y-49773D01*
X82117Y-49563D01*
X81842Y-49448D01*
X81544Y-49448D01*
X81269Y-49562D01*
X81059Y-49772D01*
X80945Y-50047D01*
X80944Y-50344D01*
X81058Y-50620D01*
X81268Y-50830D01*
X81543Y-50944D01*
X81841Y-50945D01*
X82116Y-50831D01*
X82326Y-50621D01*
X82440Y-50346D01*
X82441Y-50048D01*
X82441Y-52017D01*
X82327Y-51742D01*
X82117Y-51531D01*
X81842Y-51417D01*
X81544Y-51417D01*
X81269Y-51530D01*
X81059Y-51741D01*
X80945Y-52015D01*
X80944Y-52313D01*
X81058Y-52588D01*
X81141Y-52672D01*
X81141Y-53627D01*
X81059Y-53709D01*
X80945Y-53984D01*
X80944Y-54281D01*
X81058Y-54557D01*
X81141Y-54640D01*
X81141Y-55477D01*
X81132Y-55468D01*
X80858Y-55354D01*
X80560Y-55354D01*
X80285Y-55467D01*
X80275Y-55477D01*
X80275Y-54640D01*
X80358Y-54558D01*
X80472Y-54283D01*
X80472Y-53985D01*
X80358Y-53710D01*
X80275Y-53627D01*
X80275Y-52672D01*
X80358Y-52589D01*
X80472Y-52314D01*
X80472Y-52017D01*
X80472Y-50048D01*
X80358Y-49773D01*
X80148Y-49563D01*
X79873Y-49448D01*
X79576Y-49448D01*
X79301Y-49562D01*
X79090Y-49772D01*
X78976Y-50047D01*
X78976Y-50344D01*
X79089Y-50620D01*
X79300Y-50830D01*
X79574Y-50944D01*
X79872Y-50945D01*
X80147Y-50831D01*
X80358Y-50621D01*
X80472Y-50346D01*
X80472Y-50048D01*
X80472Y-52017D01*
X80358Y-51742D01*
X80148Y-51531D01*
X79873Y-51417D01*
X79576Y-51417D01*
X79301Y-51530D01*
X79090Y-51741D01*
X78976Y-52015D01*
X78976Y-52313D01*
X79089Y-52588D01*
X79173Y-52672D01*
X79173Y-53627D01*
X79090Y-53709D01*
X78976Y-53984D01*
X78976Y-54281D01*
X79089Y-54557D01*
X79173Y-54640D01*
X79173Y-55477D01*
X79164Y-55468D01*
X78889Y-55354D01*
X78592Y-55354D01*
X78316Y-55467D01*
X78307Y-55477D01*
X78307Y-54640D01*
X78389Y-54558D01*
X78503Y-54283D01*
X78504Y-53985D01*
X78390Y-53710D01*
X78307Y-53627D01*
X78307Y-52672D01*
X78389Y-52589D01*
X78503Y-52314D01*
X78504Y-52017D01*
X78504Y-50048D01*
X78390Y-49773D01*
X78180Y-49563D01*
X77905Y-49448D01*
X77607Y-49448D01*
X77332Y-49562D01*
X77122Y-49772D01*
X77008Y-50047D01*
X77007Y-50344D01*
X77121Y-50620D01*
X77331Y-50830D01*
X77606Y-50944D01*
X77904Y-50945D01*
X78179Y-50831D01*
X78389Y-50621D01*
X78503Y-50346D01*
X78504Y-50048D01*
X78504Y-52017D01*
X78390Y-51742D01*
X78180Y-51531D01*
X77905Y-51417D01*
X77607Y-51417D01*
X77332Y-51530D01*
X77122Y-51741D01*
X77008Y-52015D01*
X77007Y-52313D01*
X77121Y-52588D01*
X77204Y-52672D01*
X77204Y-53627D01*
X77122Y-53709D01*
X77008Y-53984D01*
X77007Y-54281D01*
X77121Y-54557D01*
X77204Y-54640D01*
X77204Y-55477D01*
X77195Y-55468D01*
X76921Y-55354D01*
X76623Y-55354D01*
X76348Y-55467D01*
X76338Y-55477D01*
X76338Y-54640D01*
X76421Y-54558D01*
X76535Y-54283D01*
X76535Y-53985D01*
X76421Y-53710D01*
X76338Y-53627D01*
X76338Y-52672D01*
X76421Y-52589D01*
X76535Y-52314D01*
X76535Y-52017D01*
X76535Y-50048D01*
X76421Y-49773D01*
X76211Y-49563D01*
X75936Y-49448D01*
X75639Y-49448D01*
X75364Y-49562D01*
X75153Y-49772D01*
X75039Y-50047D01*
X75039Y-50344D01*
X75152Y-50620D01*
X75363Y-50830D01*
X75637Y-50944D01*
X75935Y-50945D01*
X76210Y-50831D01*
X76421Y-50621D01*
X76535Y-50346D01*
X76535Y-50048D01*
X76535Y-52017D01*
X76421Y-51742D01*
X76211Y-51531D01*
X75936Y-51417D01*
X75639Y-51417D01*
X75364Y-51530D01*
X75153Y-51741D01*
X75039Y-52015D01*
X75039Y-52313D01*
X75152Y-52588D01*
X75236Y-52672D01*
X75236Y-53627D01*
X75153Y-53709D01*
X75039Y-53984D01*
X75039Y-54281D01*
X75152Y-54557D01*
X75236Y-54640D01*
X75236Y-55477D01*
X75227Y-55468D01*
X74952Y-55354D01*
X74655Y-55354D01*
X74379Y-55467D01*
X74370Y-55477D01*
X74370Y-54640D01*
X74452Y-54558D01*
X74566Y-54283D01*
X74567Y-53985D01*
X74453Y-53710D01*
X74370Y-53627D01*
X74370Y-52672D01*
X74452Y-52589D01*
X74566Y-52314D01*
X74567Y-52017D01*
X74567Y-50048D01*
X74453Y-49773D01*
X74243Y-49563D01*
X73968Y-49448D01*
X73670Y-49448D01*
X73395Y-49562D01*
X73185Y-49772D01*
X73070Y-50047D01*
X73070Y-50344D01*
X73184Y-50620D01*
X73394Y-50830D01*
X73669Y-50944D01*
X73967Y-50945D01*
X74242Y-50831D01*
X74452Y-50621D01*
X74566Y-50346D01*
X74567Y-50048D01*
X74567Y-52017D01*
X74453Y-51742D01*
X74243Y-51531D01*
X73968Y-51417D01*
X73670Y-51417D01*
X73395Y-51530D01*
X73185Y-51741D01*
X73070Y-52015D01*
X73070Y-52313D01*
X73184Y-52588D01*
X73267Y-52672D01*
X73267Y-53627D01*
X73185Y-53709D01*
X73070Y-53984D01*
X73070Y-54281D01*
X73184Y-54557D01*
X73267Y-54640D01*
X73267Y-55477D01*
X73258Y-55468D01*
X72984Y-55354D01*
X72686Y-55354D01*
X72411Y-55467D01*
X72401Y-55477D01*
X72401Y-54640D01*
X72484Y-54558D01*
X72598Y-54283D01*
X72598Y-53985D01*
X72484Y-53710D01*
X72401Y-53627D01*
X72401Y-52672D01*
X72484Y-52589D01*
X72598Y-52314D01*
X72598Y-52017D01*
X72598Y-50048D01*
X72484Y-49773D01*
X72274Y-49563D01*
X71999Y-49448D01*
X71702Y-49448D01*
X71427Y-49562D01*
X71216Y-49772D01*
X71102Y-50047D01*
X71102Y-50344D01*
X71215Y-50620D01*
X71426Y-50830D01*
X71700Y-50944D01*
X71998Y-50945D01*
X72273Y-50831D01*
X72484Y-50621D01*
X72598Y-50346D01*
X72598Y-50048D01*
X72598Y-52017D01*
X72484Y-51742D01*
X72274Y-51531D01*
X71999Y-51417D01*
X71702Y-51417D01*
X71427Y-51530D01*
X71216Y-51741D01*
X71102Y-52015D01*
X71102Y-52313D01*
X71215Y-52588D01*
X71299Y-52672D01*
X71299Y-53627D01*
X71216Y-53709D01*
X71102Y-53984D01*
X71102Y-54281D01*
X71215Y-54557D01*
X71299Y-54640D01*
X71299Y-55477D01*
X71290Y-55468D01*
X71015Y-55354D01*
X70718Y-55354D01*
X70442Y-55467D01*
X70433Y-55477D01*
X70433Y-54640D01*
X70515Y-54558D01*
X70629Y-54283D01*
X70630Y-53985D01*
X70516Y-53710D01*
X70433Y-53627D01*
X70433Y-52672D01*
X70515Y-52589D01*
X70629Y-52314D01*
X70630Y-52017D01*
X70630Y-50048D01*
X70516Y-49773D01*
X70306Y-49563D01*
X70031Y-49448D01*
X69733Y-49448D01*
X69458Y-49562D01*
X69248Y-49772D01*
X69133Y-50047D01*
X69133Y-50344D01*
X69247Y-50620D01*
X69457Y-50830D01*
X69732Y-50944D01*
X70030Y-50945D01*
X70305Y-50831D01*
X70515Y-50621D01*
X70629Y-50346D01*
X70630Y-50048D01*
X70630Y-52017D01*
X70516Y-51742D01*
X70306Y-51531D01*
X70031Y-51417D01*
X69733Y-51417D01*
X69458Y-51530D01*
X69248Y-51741D01*
X69133Y-52015D01*
X69133Y-52313D01*
X69247Y-52588D01*
X69330Y-52672D01*
X69330Y-53627D01*
X69248Y-53709D01*
X69133Y-53984D01*
X69133Y-54281D01*
X69247Y-54557D01*
X69330Y-54640D01*
X69330Y-55477D01*
X69321Y-55468D01*
X69047Y-55354D01*
X68749Y-55354D01*
X68474Y-55467D01*
X68263Y-55678D01*
X68149Y-55952D01*
X68149Y-56250D01*
X68263Y-56525D01*
X68473Y-56736D01*
X68748Y-56850D01*
X69045Y-56850D01*
X69320Y-56736D01*
X69330Y-56727D01*
X69330Y-57445D01*
X69321Y-57437D01*
X69047Y-57322D01*
X68749Y-57322D01*
X68474Y-57436D01*
X68263Y-57646D01*
X68149Y-57921D01*
X68149Y-58219D01*
X68263Y-58494D01*
X68473Y-58704D01*
X68748Y-58818D01*
X69045Y-58819D01*
X69320Y-58705D01*
X69369Y-58657D01*
X69372Y-58675D01*
X69492Y-58854D01*
X70039Y-59401D01*
X70011Y-59389D01*
X69753Y-59389D01*
X69514Y-59488D01*
X69331Y-59670D01*
X69232Y-59909D01*
X69232Y-60168D01*
X69330Y-60406D01*
X69513Y-60589D01*
X69752Y-60688D01*
X69830Y-60688D01*
X69492Y-61027D01*
X69372Y-61206D01*
X69330Y-61417D01*
X69330Y-62506D01*
X69266Y-62441D01*
X69027Y-62342D01*
X68768Y-62342D01*
X68530Y-62441D01*
X68347Y-62623D01*
X68248Y-62862D01*
X68247Y-63120D01*
X68346Y-63359D01*
X68529Y-63542D01*
X68767Y-63641D01*
X69026Y-63641D01*
X69265Y-63543D01*
X69389Y-63418D01*
X69513Y-63542D01*
X69752Y-63641D01*
X70010Y-63641D01*
X70249Y-63543D01*
X70374Y-63418D01*
X70497Y-63542D01*
X70736Y-63641D01*
X70994Y-63641D01*
X71233Y-63543D01*
X71358Y-63418D01*
X71481Y-63542D01*
X71720Y-63641D01*
X71979Y-63641D01*
X72217Y-63543D01*
X72342Y-63418D01*
X72466Y-63542D01*
X72704Y-63641D01*
X72963Y-63641D01*
X73202Y-63543D01*
X73326Y-63418D01*
X73450Y-63542D01*
X73689Y-63641D01*
X73947Y-63641D01*
X74186Y-63543D01*
X74311Y-63418D01*
X74434Y-63542D01*
X74673Y-63641D01*
X74931Y-63641D01*
X75170Y-63543D01*
X75295Y-63418D01*
X75418Y-63542D01*
X75657Y-63641D01*
X75916Y-63641D01*
X76154Y-63543D01*
X76279Y-63418D01*
X76403Y-63542D01*
X76641Y-63641D01*
X76900Y-63641D01*
X77139Y-63543D01*
X77263Y-63418D01*
X77387Y-63542D01*
X77626Y-63641D01*
X77884Y-63641D01*
X78123Y-63543D01*
X78248Y-63418D01*
X78371Y-63542D01*
X78610Y-63641D01*
X78868Y-63641D01*
X79107Y-63543D01*
X79232Y-63418D01*
X79355Y-63542D01*
X79594Y-63641D01*
X79853Y-63641D01*
X80091Y-63543D01*
X80216Y-63418D01*
X80340Y-63542D01*
X80578Y-63641D01*
X80837Y-63641D01*
X81076Y-63543D01*
X81200Y-63418D01*
X81324Y-63542D01*
X81563Y-63641D01*
X81821Y-63641D01*
X82060Y-63543D01*
X82185Y-63418D01*
X82308Y-63542D01*
X82547Y-63641D01*
X82805Y-63641D01*
X83044Y-63543D01*
X83169Y-63418D01*
X83292Y-63542D01*
X83531Y-63641D01*
X83790Y-63641D01*
X84028Y-63543D01*
X84153Y-63418D01*
X84277Y-63542D01*
X84515Y-63641D01*
X84774Y-63641D01*
X85013Y-63543D01*
X85137Y-63418D01*
X85261Y-63542D01*
X85500Y-63641D01*
X85758Y-63641D01*
X85997Y-63543D01*
X86122Y-63418D01*
X86245Y-63542D01*
X86484Y-63641D01*
X86742Y-63641D01*
X86981Y-63543D01*
X87106Y-63418D01*
X87229Y-63542D01*
X87468Y-63641D01*
X87727Y-63641D01*
X87965Y-63543D01*
X88090Y-63418D01*
X88214Y-63542D01*
X88452Y-63641D01*
X88711Y-63641D01*
X88950Y-63543D01*
X89074Y-63418D01*
X89198Y-63542D01*
X89437Y-63641D01*
X89695Y-63641D01*
X89934Y-63543D01*
X90059Y-63418D01*
X90182Y-63542D01*
X90421Y-63641D01*
X90679Y-63641D01*
X90918Y-63543D01*
X91043Y-63418D01*
X91166Y-63542D01*
X91405Y-63641D01*
X91664Y-63641D01*
X91902Y-63543D01*
X92027Y-63418D01*
X92151Y-63542D01*
X92389Y-63641D01*
X92648Y-63641D01*
X92887Y-63543D01*
X93011Y-63418D01*
X93135Y-63542D01*
X93374Y-63641D01*
X93632Y-63641D01*
X93871Y-63543D01*
X93996Y-63418D01*
X94119Y-63542D01*
X94358Y-63641D01*
X94616Y-63641D01*
X94855Y-63543D01*
X94980Y-63418D01*
X95103Y-63542D01*
X95342Y-63641D01*
X95601Y-63641D01*
X95839Y-63543D01*
X95964Y-63418D01*
X96088Y-63542D01*
X96326Y-63641D01*
X96585Y-63641D01*
X96824Y-63543D01*
X96948Y-63418D01*
X97072Y-63542D01*
X97311Y-63641D01*
X97569Y-63641D01*
X97808Y-63543D01*
X97933Y-63418D01*
X98056Y-63542D01*
X98295Y-63641D01*
X98553Y-63641D01*
X98792Y-63543D01*
X98917Y-63418D01*
X99040Y-63542D01*
X99279Y-63641D01*
X99538Y-63641D01*
X99776Y-63543D01*
X99901Y-63418D01*
X100025Y-63542D01*
X100263Y-63641D01*
X100522Y-63641D01*
X100761Y-63543D01*
X100885Y-63418D01*
X101009Y-63542D01*
X101248Y-63641D01*
X101506Y-63641D01*
X101745Y-63543D01*
X101870Y-63418D01*
X101993Y-63542D01*
X102232Y-63641D01*
X102490Y-63641D01*
X102729Y-63543D01*
X102854Y-63418D01*
X102978Y-63542D01*
X103216Y-63641D01*
X103475Y-63641D01*
X103713Y-63543D01*
X103838Y-63418D01*
X103962Y-63542D01*
X104200Y-63641D01*
X104459Y-63641D01*
X104698Y-63543D01*
X104881Y-63360D01*
X104980Y-63121D01*
X104980Y-62863D01*
X104881Y-62624D01*
X104699Y-62441D01*
X104460Y-62342D01*
X104202Y-62342D01*
X103963Y-62441D01*
X103897Y-62506D01*
X103897Y-61645D01*
X104720Y-60822D01*
X104720Y-60822D01*
X104839Y-60643D01*
X104881Y-60433D01*
X104881Y-60433D01*
X104881Y-59448D01*
X104881Y-59448D01*
X104839Y-59237D01*
X104720Y-59059D01*
X104720Y-59059D01*
X104479Y-58818D01*
X104753Y-58705D01*
X104964Y-58495D01*
X105078Y-58220D01*
X105078Y-57922D01*
X105078Y-66653D01*
X66200Y-66653D01*
X66200Y-61998D01*
X66042Y-61614D01*
X65749Y-61320D01*
X65365Y-61161D01*
X64950Y-61161D01*
X64567Y-61319D01*
X64273Y-61612D01*
X64114Y-61996D01*
X64113Y-62411D01*
X64272Y-62794D01*
X64565Y-63088D01*
X64949Y-63247D01*
X65364Y-63248D01*
X65747Y-63089D01*
X66041Y-62796D01*
X66200Y-62413D01*
X66200Y-61998D01*
X66200Y-66653D01*
X62466Y-66653D01*
X62466Y-53418D01*
X62466Y-52881D01*
X62466Y-52817D01*
X62442Y-52759D01*
X62397Y-52714D01*
X62339Y-52690D01*
X62165Y-52690D01*
X62125Y-52730D01*
X62125Y-53031D01*
X62427Y-53031D01*
X62466Y-52991D01*
X62466Y-52881D01*
X62466Y-53418D01*
X62466Y-53307D01*
X62427Y-53267D01*
X62125Y-53267D01*
X62125Y-53568D01*
X62165Y-53608D01*
X62339Y-53608D01*
X62397Y-53584D01*
X62442Y-53539D01*
X62466Y-53481D01*
X62466Y-53418D01*
X62466Y-66653D01*
X61889Y-66653D01*
X61889Y-53568D01*
X61889Y-53267D01*
X61889Y-53031D01*
X61889Y-52730D01*
X61850Y-52690D01*
X61676Y-52690D01*
X61617Y-52714D01*
X61573Y-52759D01*
X61548Y-52817D01*
X61548Y-52881D01*
X61548Y-52991D01*
X61588Y-53031D01*
X61889Y-53031D01*
X61889Y-53267D01*
X61588Y-53267D01*
X61548Y-53307D01*
X61548Y-53418D01*
X61548Y-53481D01*
X61573Y-53539D01*
X61617Y-53584D01*
X61676Y-53608D01*
X61850Y-53608D01*
X61889Y-53568D01*
X61889Y-66653D01*
X60111Y-66653D01*
X60111Y-64751D01*
X60111Y-49003D01*
X59950Y-48615D01*
X59654Y-48317D01*
X59266Y-48156D01*
X58846Y-48156D01*
X58457Y-48316D01*
X58160Y-48613D01*
X57999Y-49001D01*
X57999Y-49421D01*
X58159Y-49809D01*
X58456Y-50107D01*
X58844Y-50268D01*
X59264Y-50268D01*
X59652Y-50108D01*
X59949Y-49811D01*
X60110Y-49423D01*
X60111Y-49003D01*
X60111Y-64751D01*
X59950Y-64363D01*
X59654Y-64065D01*
X59266Y-63904D01*
X58846Y-63904D01*
X58457Y-64064D01*
X58160Y-64361D01*
X57999Y-64749D01*
X57999Y-65169D01*
X58159Y-65557D01*
X58456Y-65855D01*
X58844Y-66016D01*
X59264Y-66016D01*
X59652Y-65856D01*
X59949Y-65559D01*
X60110Y-65171D01*
X60111Y-64751D01*
X60111Y-66653D01*
X57362Y-66653D01*
X57362Y-47519D01*
X69638Y-47519D01*
X69458Y-47593D01*
X69248Y-47804D01*
X69133Y-48078D01*
X69133Y-48376D01*
X69247Y-48651D01*
X69457Y-48862D01*
X69732Y-48976D01*
X70030Y-48976D01*
X70305Y-48862D01*
X70515Y-48652D01*
X70629Y-48377D01*
X70630Y-48080D01*
X70516Y-47805D01*
X70306Y-47594D01*
X70125Y-47519D01*
X71606Y-47519D01*
X71427Y-47593D01*
X71216Y-47804D01*
X71102Y-48078D01*
X71102Y-48376D01*
X71215Y-48651D01*
X71426Y-48862D01*
X71700Y-48976D01*
X71998Y-48976D01*
X72273Y-48862D01*
X72484Y-48652D01*
X72598Y-48377D01*
X72598Y-48080D01*
X72484Y-47805D01*
X72274Y-47594D01*
X72094Y-47519D01*
X73575Y-47519D01*
X73395Y-47593D01*
X73185Y-47804D01*
X73070Y-48078D01*
X73070Y-48376D01*
X73184Y-48651D01*
X73394Y-48862D01*
X73669Y-48976D01*
X73967Y-48976D01*
X74242Y-48862D01*
X74452Y-48652D01*
X74566Y-48377D01*
X74567Y-48080D01*
X74453Y-47805D01*
X74243Y-47594D01*
X74062Y-47519D01*
X75543Y-47519D01*
X75364Y-47593D01*
X75153Y-47804D01*
X75039Y-48078D01*
X75039Y-48376D01*
X75152Y-48651D01*
X75363Y-48862D01*
X75637Y-48976D01*
X75935Y-48976D01*
X76210Y-48862D01*
X76421Y-48652D01*
X76535Y-48377D01*
X76535Y-48080D01*
X76421Y-47805D01*
X76211Y-47594D01*
X76031Y-47519D01*
X77512Y-47519D01*
X77332Y-47593D01*
X77122Y-47804D01*
X77008Y-48078D01*
X77007Y-48376D01*
X77121Y-48651D01*
X77331Y-48862D01*
X77606Y-48976D01*
X77904Y-48976D01*
X78179Y-48862D01*
X78389Y-48652D01*
X78503Y-48377D01*
X78504Y-48080D01*
X78390Y-47805D01*
X78180Y-47594D01*
X77999Y-47519D01*
X79480Y-47519D01*
X79301Y-47593D01*
X79090Y-47804D01*
X78976Y-48078D01*
X78976Y-48376D01*
X79089Y-48651D01*
X79300Y-48862D01*
X79574Y-48976D01*
X79872Y-48976D01*
X80147Y-48862D01*
X80358Y-48652D01*
X80472Y-48377D01*
X80472Y-48080D01*
X80358Y-47805D01*
X80148Y-47594D01*
X79968Y-47519D01*
X81449Y-47519D01*
X81269Y-47593D01*
X81059Y-47804D01*
X80945Y-48078D01*
X80944Y-48376D01*
X81058Y-48651D01*
X81268Y-48862D01*
X81543Y-48976D01*
X81841Y-48976D01*
X82116Y-48862D01*
X82326Y-48652D01*
X82440Y-48377D01*
X82441Y-48080D01*
X82327Y-47805D01*
X82117Y-47594D01*
X81936Y-47519D01*
X83417Y-47519D01*
X83238Y-47593D01*
X83027Y-47804D01*
X82913Y-48078D01*
X82913Y-48376D01*
X83026Y-48651D01*
X83237Y-48862D01*
X83511Y-48976D01*
X83809Y-48976D01*
X84084Y-48862D01*
X84295Y-48652D01*
X84409Y-48377D01*
X84409Y-48080D01*
X84295Y-47805D01*
X84085Y-47594D01*
X83905Y-47519D01*
X85386Y-47519D01*
X85206Y-47593D01*
X84996Y-47804D01*
X84882Y-48078D01*
X84881Y-48376D01*
X84995Y-48651D01*
X85205Y-48862D01*
X85480Y-48976D01*
X85778Y-48976D01*
X86053Y-48862D01*
X86263Y-48652D01*
X86377Y-48377D01*
X86378Y-48080D01*
X86264Y-47805D01*
X86054Y-47594D01*
X85873Y-47519D01*
X87354Y-47519D01*
X87175Y-47593D01*
X86964Y-47804D01*
X86850Y-48078D01*
X86850Y-48376D01*
X86963Y-48651D01*
X87174Y-48862D01*
X87448Y-48976D01*
X87746Y-48976D01*
X88021Y-48862D01*
X88232Y-48652D01*
X88346Y-48377D01*
X88346Y-48080D01*
X88232Y-47805D01*
X88022Y-47594D01*
X87842Y-47519D01*
X89323Y-47519D01*
X89143Y-47593D01*
X88933Y-47804D01*
X88819Y-48078D01*
X88818Y-48376D01*
X88932Y-48651D01*
X89142Y-48862D01*
X89417Y-48976D01*
X89715Y-48976D01*
X89990Y-48862D01*
X90200Y-48652D01*
X90314Y-48377D01*
X90315Y-48080D01*
X90201Y-47805D01*
X89991Y-47594D01*
X89810Y-47519D01*
X91291Y-47519D01*
X91112Y-47593D01*
X90901Y-47804D01*
X90787Y-48078D01*
X90787Y-48376D01*
X90900Y-48651D01*
X91111Y-48862D01*
X91385Y-48976D01*
X91683Y-48976D01*
X91958Y-48862D01*
X92169Y-48652D01*
X92283Y-48377D01*
X92283Y-48080D01*
X92169Y-47805D01*
X91959Y-47594D01*
X91779Y-47519D01*
X93260Y-47519D01*
X93080Y-47593D01*
X92870Y-47804D01*
X92756Y-48078D01*
X92755Y-48376D01*
X92869Y-48651D01*
X93079Y-48862D01*
X93354Y-48976D01*
X93652Y-48976D01*
X93927Y-48862D01*
X94137Y-48652D01*
X94251Y-48377D01*
X94252Y-48080D01*
X94138Y-47805D01*
X93928Y-47594D01*
X93747Y-47519D01*
X95228Y-47519D01*
X95049Y-47593D01*
X94838Y-47804D01*
X94724Y-48078D01*
X94724Y-48376D01*
X94837Y-48651D01*
X95048Y-48862D01*
X95322Y-48976D01*
X95620Y-48976D01*
X95895Y-48862D01*
X96106Y-48652D01*
X96220Y-48377D01*
X96220Y-48080D01*
X96106Y-47805D01*
X95896Y-47594D01*
X95716Y-47519D01*
X97197Y-47519D01*
X97017Y-47593D01*
X96807Y-47804D01*
X96693Y-48078D01*
X96692Y-48376D01*
X96806Y-48651D01*
X97016Y-48862D01*
X97291Y-48976D01*
X97589Y-48976D01*
X97864Y-48862D01*
X98074Y-48652D01*
X98188Y-48377D01*
X98189Y-48080D01*
X98075Y-47805D01*
X97865Y-47594D01*
X97684Y-47519D01*
X99165Y-47519D01*
X98986Y-47593D01*
X98775Y-47804D01*
X98661Y-48078D01*
X98661Y-48376D01*
X98774Y-48651D01*
X98985Y-48862D01*
X99260Y-48976D01*
X99557Y-48976D01*
X99832Y-48862D01*
X100043Y-48652D01*
X100157Y-48377D01*
X100157Y-48080D01*
X100043Y-47805D01*
X99833Y-47594D01*
X99653Y-47519D01*
X101134Y-47519D01*
X100954Y-47593D01*
X100744Y-47804D01*
X100630Y-48078D01*
X100629Y-48376D01*
X100743Y-48651D01*
X100953Y-48862D01*
X101228Y-48976D01*
X101526Y-48976D01*
X101801Y-48862D01*
X102011Y-48652D01*
X102125Y-48377D01*
X102126Y-48080D01*
X102012Y-47805D01*
X101802Y-47594D01*
X101621Y-47519D01*
X103102Y-47519D01*
X102923Y-47593D01*
X102712Y-47804D01*
X102598Y-48078D01*
X102598Y-48376D01*
X102711Y-48651D01*
X102922Y-48862D01*
X103197Y-48976D01*
X103494Y-48976D01*
X103769Y-48862D01*
X103980Y-48652D01*
X104094Y-48377D01*
X104094Y-48080D01*
X103980Y-47805D01*
X103770Y-47594D01*
X103590Y-47519D01*
X115866Y-47519D01*
X115866Y-66653D01*
X115866Y-66653D01*
G37*
G54D17*
X115866Y-66653D02*
X115229Y-66653D01*
X115229Y-64751D01*
X115229Y-49003D01*
X115068Y-48615D01*
X114772Y-48317D01*
X114384Y-48156D01*
X113964Y-48156D01*
X113575Y-48316D01*
X113278Y-48613D01*
X113117Y-49001D01*
X113117Y-49421D01*
X113277Y-49809D01*
X113574Y-50107D01*
X113962Y-50268D01*
X114382Y-50268D01*
X114770Y-50108D01*
X115067Y-49811D01*
X115228Y-49423D01*
X115229Y-49003D01*
X115229Y-64751D01*
X115068Y-64363D01*
X114772Y-64065D01*
X114384Y-63904D01*
X113964Y-63904D01*
X113575Y-64064D01*
X113278Y-64361D01*
X113117Y-64749D01*
X113117Y-65169D01*
X113277Y-65557D01*
X113574Y-65855D01*
X113962Y-66016D01*
X114382Y-66016D01*
X114770Y-65856D01*
X115067Y-65559D01*
X115228Y-65171D01*
X115229Y-64751D01*
X115229Y-66653D01*
X111679Y-66653D01*
X111679Y-53418D01*
X111679Y-52881D01*
X111679Y-52817D01*
X111655Y-52759D01*
X111610Y-52714D01*
X111551Y-52690D01*
X111378Y-52690D01*
X111338Y-52730D01*
X111338Y-53031D01*
X111639Y-53031D01*
X111679Y-52991D01*
X111679Y-52881D01*
X111679Y-53418D01*
X111679Y-53307D01*
X111639Y-53267D01*
X111338Y-53267D01*
X111338Y-53568D01*
X111378Y-53608D01*
X111551Y-53608D01*
X111610Y-53584D01*
X111655Y-53539D01*
X111679Y-53481D01*
X111679Y-53418D01*
X111679Y-66653D01*
X111102Y-66653D01*
X111102Y-53568D01*
X111102Y-53267D01*
X111102Y-53031D01*
X111102Y-52730D01*
X111062Y-52690D01*
X110888Y-52690D01*
X110830Y-52714D01*
X110785Y-52759D01*
X110761Y-52817D01*
X110761Y-52881D01*
X110761Y-52991D01*
X110801Y-53031D01*
X111102Y-53031D01*
X111102Y-53267D01*
X110801Y-53267D01*
X110761Y-53307D01*
X110761Y-53418D01*
X110761Y-53481D01*
X110785Y-53539D01*
X110830Y-53584D01*
X110888Y-53608D01*
X111062Y-53608D01*
X111102Y-53568D01*
X111102Y-66653D01*
X109114Y-66653D01*
X109114Y-61998D01*
X108955Y-61614D01*
X108662Y-61320D01*
X108279Y-61161D01*
X107864Y-61161D01*
X107480Y-61319D01*
X107186Y-61612D01*
X107027Y-61996D01*
X107027Y-62411D01*
X107185Y-62794D01*
X107479Y-63088D01*
X107862Y-63247D01*
X108277Y-63248D01*
X108661Y-63089D01*
X108954Y-62796D01*
X109113Y-62413D01*
X109114Y-61998D01*
X109114Y-66653D01*
X105078Y-66653D01*
X105078Y-57922D01*
X104965Y-57647D01*
X104754Y-57437D01*
X104480Y-57322D01*
X104182Y-57322D01*
X103907Y-57436D01*
X103897Y-57446D01*
X103897Y-56727D01*
X103906Y-56736D01*
X104181Y-56850D01*
X104478Y-56850D01*
X104753Y-56736D01*
X104964Y-56526D01*
X105078Y-56251D01*
X105078Y-55954D01*
X104965Y-55679D01*
X104754Y-55468D01*
X104480Y-55354D01*
X104182Y-55354D01*
X103907Y-55467D01*
X103897Y-55477D01*
X103897Y-54640D01*
X103980Y-54558D01*
X104094Y-54283D01*
X104094Y-53985D01*
X103980Y-53710D01*
X103897Y-53627D01*
X103897Y-52672D01*
X103980Y-52589D01*
X104094Y-52314D01*
X104094Y-52017D01*
X104094Y-50048D01*
X103980Y-49773D01*
X103770Y-49563D01*
X103495Y-49448D01*
X103198Y-49448D01*
X102923Y-49562D01*
X102712Y-49772D01*
X102598Y-50047D01*
X102598Y-50344D01*
X102711Y-50620D01*
X102922Y-50830D01*
X103197Y-50944D01*
X103494Y-50945D01*
X103769Y-50831D01*
X103980Y-50621D01*
X104094Y-50346D01*
X104094Y-50048D01*
X104094Y-52017D01*
X103980Y-51742D01*
X103770Y-51531D01*
X103495Y-51417D01*
X103198Y-51417D01*
X102923Y-51530D01*
X102712Y-51741D01*
X102598Y-52015D01*
X102598Y-52313D01*
X102711Y-52588D01*
X102795Y-52672D01*
X102795Y-53627D01*
X102712Y-53709D01*
X102598Y-53984D01*
X102598Y-54281D01*
X102711Y-54557D01*
X102795Y-54640D01*
X102795Y-55477D01*
X102786Y-55468D01*
X102511Y-55354D01*
X102214Y-55354D01*
X101939Y-55467D01*
X101929Y-55477D01*
X101929Y-54640D01*
X102011Y-54558D01*
X102125Y-54283D01*
X102126Y-53985D01*
X102012Y-53710D01*
X101929Y-53627D01*
X101929Y-52672D01*
X102011Y-52589D01*
X102125Y-52314D01*
X102126Y-52017D01*
X102126Y-50048D01*
X102012Y-49773D01*
X101802Y-49563D01*
X101527Y-49448D01*
X101229Y-49448D01*
X100954Y-49562D01*
X100744Y-49772D01*
X100630Y-50047D01*
X100629Y-50344D01*
X100743Y-50620D01*
X100953Y-50830D01*
X101228Y-50944D01*
X101526Y-50945D01*
X101801Y-50831D01*
X102011Y-50621D01*
X102125Y-50346D01*
X102126Y-50048D01*
X102126Y-52017D01*
X102012Y-51742D01*
X101802Y-51531D01*
X101527Y-51417D01*
X101229Y-51417D01*
X100954Y-51530D01*
X100744Y-51741D01*
X100630Y-52015D01*
X100629Y-52313D01*
X100743Y-52588D01*
X100826Y-52672D01*
X100826Y-53627D01*
X100744Y-53709D01*
X100630Y-53984D01*
X100629Y-54281D01*
X100743Y-54557D01*
X100826Y-54640D01*
X100826Y-55477D01*
X100817Y-55468D01*
X100543Y-55354D01*
X100245Y-55354D01*
X99970Y-55467D01*
X99960Y-55477D01*
X99960Y-54640D01*
X100043Y-54558D01*
X100157Y-54283D01*
X100157Y-53985D01*
X100043Y-53710D01*
X99960Y-53627D01*
X99960Y-52672D01*
X100043Y-52589D01*
X100157Y-52314D01*
X100157Y-52017D01*
X100157Y-50048D01*
X100043Y-49773D01*
X99833Y-49563D01*
X99558Y-49448D01*
X99261Y-49448D01*
X98986Y-49562D01*
X98775Y-49772D01*
X98661Y-50047D01*
X98661Y-50344D01*
X98774Y-50620D01*
X98985Y-50830D01*
X99260Y-50944D01*
X99557Y-50945D01*
X99832Y-50831D01*
X100043Y-50621D01*
X100157Y-50346D01*
X100157Y-50048D01*
X100157Y-52017D01*
X100043Y-51742D01*
X99833Y-51531D01*
X99558Y-51417D01*
X99261Y-51417D01*
X98986Y-51530D01*
X98775Y-51741D01*
X98661Y-52015D01*
X98661Y-52313D01*
X98774Y-52588D01*
X98858Y-52672D01*
X98858Y-53627D01*
X98775Y-53709D01*
X98661Y-53984D01*
X98661Y-54281D01*
X98774Y-54557D01*
X98858Y-54640D01*
X98858Y-55477D01*
X98849Y-55468D01*
X98574Y-55354D01*
X98277Y-55354D01*
X98002Y-55467D01*
X97992Y-55477D01*
X97992Y-54640D01*
X98074Y-54558D01*
X98188Y-54283D01*
X98189Y-53985D01*
X98075Y-53710D01*
X97992Y-53627D01*
X97992Y-52672D01*
X98074Y-52589D01*
X98188Y-52314D01*
X98189Y-52017D01*
X98189Y-50048D01*
X98075Y-49773D01*
X97865Y-49563D01*
X97590Y-49448D01*
X97292Y-49448D01*
X97017Y-49562D01*
X96807Y-49772D01*
X96693Y-50047D01*
X96692Y-50344D01*
X96806Y-50620D01*
X97016Y-50830D01*
X97291Y-50944D01*
X97589Y-50945D01*
X97864Y-50831D01*
X98074Y-50621D01*
X98188Y-50346D01*
X98189Y-50048D01*
X98189Y-52017D01*
X98075Y-51742D01*
X97865Y-51531D01*
X97590Y-51417D01*
X97292Y-51417D01*
X97017Y-51530D01*
X96807Y-51741D01*
X96693Y-52015D01*
X96692Y-52313D01*
X96806Y-52588D01*
X96889Y-52672D01*
X96889Y-53627D01*
X96807Y-53709D01*
X96693Y-53984D01*
X96692Y-54281D01*
X96806Y-54557D01*
X96889Y-54640D01*
X96889Y-55477D01*
X96880Y-55468D01*
X96606Y-55354D01*
X96308Y-55354D01*
X96033Y-55467D01*
X96023Y-55477D01*
X96023Y-54640D01*
X96106Y-54558D01*
X96220Y-54283D01*
X96220Y-53985D01*
X96106Y-53710D01*
X96023Y-53627D01*
X96023Y-52672D01*
X96106Y-52589D01*
X96220Y-52314D01*
X96220Y-52017D01*
X96220Y-50048D01*
X96106Y-49773D01*
X95896Y-49563D01*
X95621Y-49448D01*
X95324Y-49448D01*
X95049Y-49562D01*
X94838Y-49772D01*
X94724Y-50047D01*
X94724Y-50344D01*
X94837Y-50620D01*
X95048Y-50830D01*
X95322Y-50944D01*
X95620Y-50945D01*
X95895Y-50831D01*
X96106Y-50621D01*
X96220Y-50346D01*
X96220Y-50048D01*
X96220Y-52017D01*
X96106Y-51742D01*
X95896Y-51531D01*
X95621Y-51417D01*
X95324Y-51417D01*
X95049Y-51530D01*
X94838Y-51741D01*
X94724Y-52015D01*
X94724Y-52313D01*
X94837Y-52588D01*
X94921Y-52672D01*
X94921Y-53627D01*
X94838Y-53709D01*
X94724Y-53984D01*
X94724Y-54281D01*
X94837Y-54557D01*
X94921Y-54640D01*
X94921Y-55477D01*
X94912Y-55468D01*
X94637Y-55354D01*
X94340Y-55354D01*
X94065Y-55467D01*
X94055Y-55477D01*
X94055Y-54640D01*
X94137Y-54558D01*
X94251Y-54283D01*
X94252Y-53985D01*
X94138Y-53710D01*
X94055Y-53627D01*
X94055Y-52672D01*
X94137Y-52589D01*
X94251Y-52314D01*
X94252Y-52017D01*
X94252Y-50048D01*
X94138Y-49773D01*
X93928Y-49563D01*
X93653Y-49448D01*
X93355Y-49448D01*
X93080Y-49562D01*
X92870Y-49772D01*
X92756Y-50047D01*
X92755Y-50344D01*
X92869Y-50620D01*
X93079Y-50830D01*
X93354Y-50944D01*
X93652Y-50945D01*
X93927Y-50831D01*
X94137Y-50621D01*
X94251Y-50346D01*
X94252Y-50048D01*
X94252Y-52017D01*
X94138Y-51742D01*
X93928Y-51531D01*
X93653Y-51417D01*
X93355Y-51417D01*
X93080Y-51530D01*
X92870Y-51741D01*
X92756Y-52015D01*
X92755Y-52313D01*
X92869Y-52588D01*
X92952Y-52672D01*
X92952Y-53627D01*
X92870Y-53709D01*
X92756Y-53984D01*
X92755Y-54281D01*
X92869Y-54557D01*
X92952Y-54640D01*
X92952Y-55477D01*
X92943Y-55468D01*
X92669Y-55354D01*
X92371Y-55354D01*
X92096Y-55467D01*
X92086Y-55477D01*
X92086Y-54640D01*
X92169Y-54558D01*
X92283Y-54283D01*
X92283Y-53985D01*
X92169Y-53710D01*
X92086Y-53627D01*
X92086Y-52672D01*
X92169Y-52589D01*
X92283Y-52314D01*
X92283Y-52017D01*
X92283Y-50048D01*
X92169Y-49773D01*
X91959Y-49563D01*
X91684Y-49448D01*
X91387Y-49448D01*
X91112Y-49562D01*
X90901Y-49772D01*
X90787Y-50047D01*
X90787Y-50344D01*
X90900Y-50620D01*
X91111Y-50830D01*
X91385Y-50944D01*
X91683Y-50945D01*
X91958Y-50831D01*
X92169Y-50621D01*
X92283Y-50346D01*
X92283Y-50048D01*
X92283Y-52017D01*
X92169Y-51742D01*
X91959Y-51531D01*
X91684Y-51417D01*
X91387Y-51417D01*
X91112Y-51530D01*
X90901Y-51741D01*
X90787Y-52015D01*
X90787Y-52313D01*
X90900Y-52588D01*
X90984Y-52672D01*
X90984Y-53627D01*
X90901Y-53709D01*
X90787Y-53984D01*
X90787Y-54281D01*
X90900Y-54557D01*
X90984Y-54640D01*
X90984Y-55477D01*
X90975Y-55468D01*
X90700Y-55354D01*
X90403Y-55354D01*
X90128Y-55467D01*
X90118Y-55477D01*
X90118Y-54640D01*
X90200Y-54558D01*
X90314Y-54283D01*
X90315Y-53985D01*
X90201Y-53710D01*
X90118Y-53627D01*
X90118Y-52672D01*
X90200Y-52589D01*
X90314Y-52314D01*
X90315Y-52017D01*
X90315Y-50048D01*
X90201Y-49773D01*
X89991Y-49563D01*
X89716Y-49448D01*
X89418Y-49448D01*
X89143Y-49562D01*
X88933Y-49772D01*
X88819Y-50047D01*
X88818Y-50344D01*
X88932Y-50620D01*
X89142Y-50830D01*
X89417Y-50944D01*
X89715Y-50945D01*
X89990Y-50831D01*
X90200Y-50621D01*
X90314Y-50346D01*
X90315Y-50048D01*
X90315Y-52017D01*
X90201Y-51742D01*
X89991Y-51531D01*
X89716Y-51417D01*
X89418Y-51417D01*
X89143Y-51530D01*
X88933Y-51741D01*
X88819Y-52015D01*
X88818Y-52313D01*
X88932Y-52588D01*
X89015Y-52672D01*
X89015Y-53627D01*
X88933Y-53709D01*
X88819Y-53984D01*
X88818Y-54281D01*
X88932Y-54557D01*
X89015Y-54640D01*
X89015Y-55477D01*
X89006Y-55468D01*
X88732Y-55354D01*
X88434Y-55354D01*
X88159Y-55467D01*
X88149Y-55477D01*
X88149Y-54640D01*
X88232Y-54558D01*
X88346Y-54283D01*
X88346Y-53985D01*
X88232Y-53710D01*
X88149Y-53627D01*
X88149Y-52672D01*
X88232Y-52589D01*
X88346Y-52314D01*
X88346Y-52017D01*
X88346Y-50048D01*
X88232Y-49773D01*
X88022Y-49563D01*
X87747Y-49448D01*
X87450Y-49448D01*
X87175Y-49562D01*
X86964Y-49772D01*
X86850Y-50047D01*
X86850Y-50344D01*
X86963Y-50620D01*
X87174Y-50830D01*
X87448Y-50944D01*
X87746Y-50945D01*
X88021Y-50831D01*
X88232Y-50621D01*
X88346Y-50346D01*
X88346Y-50048D01*
X88346Y-52017D01*
X88232Y-51742D01*
X88022Y-51531D01*
X87747Y-51417D01*
X87450Y-51417D01*
X87175Y-51530D01*
X86964Y-51741D01*
X86850Y-52015D01*
X86850Y-52313D01*
X86963Y-52588D01*
X87047Y-52672D01*
X87047Y-53627D01*
X86964Y-53709D01*
X86850Y-53984D01*
X86850Y-54281D01*
X86963Y-54557D01*
X87047Y-54640D01*
X87047Y-55477D01*
X87038Y-55468D01*
X86763Y-55354D01*
X86466Y-55354D01*
X86191Y-55467D01*
X86181Y-55477D01*
X86181Y-54640D01*
X86263Y-54558D01*
X86377Y-54283D01*
X86378Y-53985D01*
X86264Y-53710D01*
X86181Y-53627D01*
X86181Y-52672D01*
X86263Y-52589D01*
X86377Y-52314D01*
X86378Y-52017D01*
X86378Y-50048D01*
X86264Y-49773D01*
X86054Y-49563D01*
X85779Y-49448D01*
X85481Y-49448D01*
X85206Y-49562D01*
X84996Y-49772D01*
X84882Y-50047D01*
X84881Y-50344D01*
X84995Y-50620D01*
X85205Y-50830D01*
X85480Y-50944D01*
X85778Y-50945D01*
X86053Y-50831D01*
X86263Y-50621D01*
X86377Y-50346D01*
X86378Y-50048D01*
X86378Y-52017D01*
X86264Y-51742D01*
X86054Y-51531D01*
X85779Y-51417D01*
X85481Y-51417D01*
X85206Y-51530D01*
X84996Y-51741D01*
X84882Y-52015D01*
X84881Y-52313D01*
X84995Y-52588D01*
X85078Y-52672D01*
X85078Y-53627D01*
X84996Y-53709D01*
X84882Y-53984D01*
X84881Y-54281D01*
X84995Y-54557D01*
X85078Y-54640D01*
X85078Y-55477D01*
X85069Y-55468D01*
X84795Y-55354D01*
X84497Y-55354D01*
X84222Y-55467D01*
X84212Y-55477D01*
X84212Y-54640D01*
X84295Y-54558D01*
X84409Y-54283D01*
X84409Y-53985D01*
X84295Y-53710D01*
X84212Y-53627D01*
X84212Y-52672D01*
X84295Y-52589D01*
X84409Y-52314D01*
X84409Y-52017D01*
X84409Y-50048D01*
X84295Y-49773D01*
X84085Y-49563D01*
X83810Y-49448D01*
X83513Y-49448D01*
X83238Y-49562D01*
X83027Y-49772D01*
X82913Y-50047D01*
X82913Y-50344D01*
X83026Y-50620D01*
X83237Y-50830D01*
X83511Y-50944D01*
X83809Y-50945D01*
X84084Y-50831D01*
X84295Y-50621D01*
X84409Y-50346D01*
X84409Y-50048D01*
X84409Y-52017D01*
X84295Y-51742D01*
X84085Y-51531D01*
X83810Y-51417D01*
X83513Y-51417D01*
X83238Y-51530D01*
X83027Y-51741D01*
X82913Y-52015D01*
X82913Y-52313D01*
X83026Y-52588D01*
X83110Y-52672D01*
X83110Y-53627D01*
X83027Y-53709D01*
X82913Y-53984D01*
X82913Y-54281D01*
X83026Y-54557D01*
X83110Y-54640D01*
X83110Y-55477D01*
X83101Y-55468D01*
X82826Y-55354D01*
X82529Y-55354D01*
X82253Y-55467D01*
X82244Y-55477D01*
X82244Y-54640D01*
X82326Y-54558D01*
X82440Y-54283D01*
X82441Y-53985D01*
X82327Y-53710D01*
X82244Y-53627D01*
X82244Y-52672D01*
X82326Y-52589D01*
X82440Y-52314D01*
X82441Y-52017D01*
X82441Y-50048D01*
X82327Y-49773D01*
X82117Y-49563D01*
X81842Y-49448D01*
X81544Y-49448D01*
X81269Y-49562D01*
X81059Y-49772D01*
X80945Y-50047D01*
X80944Y-50344D01*
X81058Y-50620D01*
X81268Y-50830D01*
X81543Y-50944D01*
X81841Y-50945D01*
X82116Y-50831D01*
X82326Y-50621D01*
X82440Y-50346D01*
X82441Y-50048D01*
X82441Y-52017D01*
X82327Y-51742D01*
X82117Y-51531D01*
X81842Y-51417D01*
X81544Y-51417D01*
X81269Y-51530D01*
X81059Y-51741D01*
X80945Y-52015D01*
X80944Y-52313D01*
X81058Y-52588D01*
X81141Y-52672D01*
X81141Y-53627D01*
X81059Y-53709D01*
X80945Y-53984D01*
X80944Y-54281D01*
X81058Y-54557D01*
X81141Y-54640D01*
X81141Y-55477D01*
X81132Y-55468D01*
X80858Y-55354D01*
X80560Y-55354D01*
X80285Y-55467D01*
X80275Y-55477D01*
X80275Y-54640D01*
X80358Y-54558D01*
X80472Y-54283D01*
X80472Y-53985D01*
X80358Y-53710D01*
X80275Y-53627D01*
X80275Y-52672D01*
X80358Y-52589D01*
X80472Y-52314D01*
X80472Y-52017D01*
X80472Y-50048D01*
X80358Y-49773D01*
X80148Y-49563D01*
X79873Y-49448D01*
X79576Y-49448D01*
X79301Y-49562D01*
X79090Y-49772D01*
X78976Y-50047D01*
X78976Y-50344D01*
X79089Y-50620D01*
X79300Y-50830D01*
X79574Y-50944D01*
X79872Y-50945D01*
X80147Y-50831D01*
X80358Y-50621D01*
X80472Y-50346D01*
X80472Y-50048D01*
X80472Y-52017D01*
X80358Y-51742D01*
X80148Y-51531D01*
X79873Y-51417D01*
X79576Y-51417D01*
X79301Y-51530D01*
X79090Y-51741D01*
X78976Y-52015D01*
X78976Y-52313D01*
X79089Y-52588D01*
X79173Y-52672D01*
X79173Y-53627D01*
X79090Y-53709D01*
X78976Y-53984D01*
X78976Y-54281D01*
X79089Y-54557D01*
X79173Y-54640D01*
X79173Y-55477D01*
X79164Y-55468D01*
X78889Y-55354D01*
X78592Y-55354D01*
X78316Y-55467D01*
X78307Y-55477D01*
X78307Y-54640D01*
X78389Y-54558D01*
X78503Y-54283D01*
X78504Y-53985D01*
X78390Y-53710D01*
X78307Y-53627D01*
X78307Y-52672D01*
X78389Y-52589D01*
X78503Y-52314D01*
X78504Y-52017D01*
X78504Y-50048D01*
X78390Y-49773D01*
X78180Y-49563D01*
X77905Y-49448D01*
X77607Y-49448D01*
X77332Y-49562D01*
X77122Y-49772D01*
X77008Y-50047D01*
X77007Y-50344D01*
X77121Y-50620D01*
X77331Y-50830D01*
X77606Y-50944D01*
X77904Y-50945D01*
X78179Y-50831D01*
X78389Y-50621D01*
X78503Y-50346D01*
X78504Y-50048D01*
X78504Y-52017D01*
X78390Y-51742D01*
X78180Y-51531D01*
X77905Y-51417D01*
X77607Y-51417D01*
X77332Y-51530D01*
X77122Y-51741D01*
X77008Y-52015D01*
X77007Y-52313D01*
X77121Y-52588D01*
X77204Y-52672D01*
X77204Y-53627D01*
X77122Y-53709D01*
X77008Y-53984D01*
X77007Y-54281D01*
X77121Y-54557D01*
X77204Y-54640D01*
X77204Y-55477D01*
X77195Y-55468D01*
X76921Y-55354D01*
X76623Y-55354D01*
X76348Y-55467D01*
X76338Y-55477D01*
X76338Y-54640D01*
X76421Y-54558D01*
X76535Y-54283D01*
X76535Y-53985D01*
X76421Y-53710D01*
X76338Y-53627D01*
X76338Y-52672D01*
X76421Y-52589D01*
X76535Y-52314D01*
X76535Y-52017D01*
X76535Y-50048D01*
X76421Y-49773D01*
X76211Y-49563D01*
X75936Y-49448D01*
X75639Y-49448D01*
X75364Y-49562D01*
X75153Y-49772D01*
X75039Y-50047D01*
X75039Y-50344D01*
X75152Y-50620D01*
X75363Y-50830D01*
X75637Y-50944D01*
X75935Y-50945D01*
X76210Y-50831D01*
X76421Y-50621D01*
X76535Y-50346D01*
X76535Y-50048D01*
X76535Y-52017D01*
X76421Y-51742D01*
X76211Y-51531D01*
X75936Y-51417D01*
X75639Y-51417D01*
X75364Y-51530D01*
X75153Y-51741D01*
X75039Y-52015D01*
X75039Y-52313D01*
X75152Y-52588D01*
X75236Y-52672D01*
X75236Y-53627D01*
X75153Y-53709D01*
X75039Y-53984D01*
X75039Y-54281D01*
X75152Y-54557D01*
X75236Y-54640D01*
X75236Y-55477D01*
X75227Y-55468D01*
X74952Y-55354D01*
X74655Y-55354D01*
X74379Y-55467D01*
X74370Y-55477D01*
X74370Y-54640D01*
X74452Y-54558D01*
X74566Y-54283D01*
X74567Y-53985D01*
X74453Y-53710D01*
X74370Y-53627D01*
X74370Y-52672D01*
X74452Y-52589D01*
X74566Y-52314D01*
X74567Y-52017D01*
X74567Y-50048D01*
X74453Y-49773D01*
X74243Y-49563D01*
X73968Y-49448D01*
X73670Y-49448D01*
X73395Y-49562D01*
X73185Y-49772D01*
X73070Y-50047D01*
X73070Y-50344D01*
X73184Y-50620D01*
X73394Y-50830D01*
X73669Y-50944D01*
X73967Y-50945D01*
X74242Y-50831D01*
X74452Y-50621D01*
X74566Y-50346D01*
X74567Y-50048D01*
X74567Y-52017D01*
X74453Y-51742D01*
X74243Y-51531D01*
X73968Y-51417D01*
X73670Y-51417D01*
X73395Y-51530D01*
X73185Y-51741D01*
X73070Y-52015D01*
X73070Y-52313D01*
X73184Y-52588D01*
X73267Y-52672D01*
X73267Y-53627D01*
X73185Y-53709D01*
X73070Y-53984D01*
X73070Y-54281D01*
X73184Y-54557D01*
X73267Y-54640D01*
X73267Y-55477D01*
X73258Y-55468D01*
X72984Y-55354D01*
X72686Y-55354D01*
X72411Y-55467D01*
X72401Y-55477D01*
X72401Y-54640D01*
X72484Y-54558D01*
X72598Y-54283D01*
X72598Y-53985D01*
X72484Y-53710D01*
X72401Y-53627D01*
X72401Y-52672D01*
X72484Y-52589D01*
X72598Y-52314D01*
X72598Y-52017D01*
X72598Y-50048D01*
X72484Y-49773D01*
X72274Y-49563D01*
X71999Y-49448D01*
X71702Y-49448D01*
X71427Y-49562D01*
X71216Y-49772D01*
X71102Y-50047D01*
X71102Y-50344D01*
X71215Y-50620D01*
X71426Y-50830D01*
X71700Y-50944D01*
X71998Y-50945D01*
X72273Y-50831D01*
X72484Y-50621D01*
X72598Y-50346D01*
X72598Y-50048D01*
X72598Y-52017D01*
X72484Y-51742D01*
X72274Y-51531D01*
X71999Y-51417D01*
X71702Y-51417D01*
X71427Y-51530D01*
X71216Y-51741D01*
X71102Y-52015D01*
X71102Y-52313D01*
X71215Y-52588D01*
X71299Y-52672D01*
X71299Y-53627D01*
X71216Y-53709D01*
X71102Y-53984D01*
X71102Y-54281D01*
X71215Y-54557D01*
X71299Y-54640D01*
X71299Y-55477D01*
X71290Y-55468D01*
X71015Y-55354D01*
X70718Y-55354D01*
X70442Y-55467D01*
X70433Y-55477D01*
X70433Y-54640D01*
X70515Y-54558D01*
X70629Y-54283D01*
X70630Y-53985D01*
X70516Y-53710D01*
X70433Y-53627D01*
X70433Y-52672D01*
X70515Y-52589D01*
X70629Y-52314D01*
X70630Y-52017D01*
X70630Y-50048D01*
X70516Y-49773D01*
X70306Y-49563D01*
X70031Y-49448D01*
X69733Y-49448D01*
X69458Y-49562D01*
X69248Y-49772D01*
X69133Y-50047D01*
X69133Y-50344D01*
X69247Y-50620D01*
X69457Y-50830D01*
X69732Y-50944D01*
X70030Y-50945D01*
X70305Y-50831D01*
X70515Y-50621D01*
X70629Y-50346D01*
X70630Y-50048D01*
X70630Y-52017D01*
X70516Y-51742D01*
X70306Y-51531D01*
X70031Y-51417D01*
X69733Y-51417D01*
X69458Y-51530D01*
X69248Y-51741D01*
X69133Y-52015D01*
X69133Y-52313D01*
X69247Y-52588D01*
X69330Y-52672D01*
X69330Y-53627D01*
X69248Y-53709D01*
X69133Y-53984D01*
X69133Y-54281D01*
X69247Y-54557D01*
X69330Y-54640D01*
X69330Y-55477D01*
X69321Y-55468D01*
X69047Y-55354D01*
X68749Y-55354D01*
X68474Y-55467D01*
X68263Y-55678D01*
X68149Y-55952D01*
X68149Y-56250D01*
X68263Y-56525D01*
X68473Y-56736D01*
X68748Y-56850D01*
X69045Y-56850D01*
X69320Y-56736D01*
X69330Y-56727D01*
X69330Y-57445D01*
X69321Y-57437D01*
X69047Y-57322D01*
X68749Y-57322D01*
X68474Y-57436D01*
X68263Y-57646D01*
X68149Y-57921D01*
X68149Y-58219D01*
X68263Y-58494D01*
X68473Y-58704D01*
X68748Y-58818D01*
X69045Y-58819D01*
X69320Y-58705D01*
X69369Y-58657D01*
X69372Y-58675D01*
X69492Y-58854D01*
X70039Y-59401D01*
X70011Y-59389D01*
X69753Y-59389D01*
X69514Y-59488D01*
X69331Y-59670D01*
X69232Y-59909D01*
X69232Y-60168D01*
X69330Y-60406D01*
X69513Y-60589D01*
X69752Y-60688D01*
X69830Y-60688D01*
X69492Y-61027D01*
X69372Y-61206D01*
X69330Y-61417D01*
X69330Y-62506D01*
X69266Y-62441D01*
X69027Y-62342D01*
X68768Y-62342D01*
X68530Y-62441D01*
X68347Y-62623D01*
X68248Y-62862D01*
X68247Y-63120D01*
X68346Y-63359D01*
X68529Y-63542D01*
X68767Y-63641D01*
X69026Y-63641D01*
X69265Y-63543D01*
X69389Y-63418D01*
X69513Y-63542D01*
X69752Y-63641D01*
X70010Y-63641D01*
X70249Y-63543D01*
X70374Y-63418D01*
X70497Y-63542D01*
X70736Y-63641D01*
X70994Y-63641D01*
X71233Y-63543D01*
X71358Y-63418D01*
X71481Y-63542D01*
X71720Y-63641D01*
X71979Y-63641D01*
X72217Y-63543D01*
X72342Y-63418D01*
X72466Y-63542D01*
X72704Y-63641D01*
X72963Y-63641D01*
X73202Y-63543D01*
X73326Y-63418D01*
X73450Y-63542D01*
X73689Y-63641D01*
X73947Y-63641D01*
X74186Y-63543D01*
X74311Y-63418D01*
X74434Y-63542D01*
X74673Y-63641D01*
X74931Y-63641D01*
X75170Y-63543D01*
X75295Y-63418D01*
X75418Y-63542D01*
X75657Y-63641D01*
X75916Y-63641D01*
X76154Y-63543D01*
X76279Y-63418D01*
X76403Y-63542D01*
X76641Y-63641D01*
X76900Y-63641D01*
X77139Y-63543D01*
X77263Y-63418D01*
X77387Y-63542D01*
X77626Y-63641D01*
X77884Y-63641D01*
X78123Y-63543D01*
X78248Y-63418D01*
X78371Y-63542D01*
X78610Y-63641D01*
X78868Y-63641D01*
X79107Y-63543D01*
X79232Y-63418D01*
X79355Y-63542D01*
X79594Y-63641D01*
X79853Y-63641D01*
X80091Y-63543D01*
X80216Y-63418D01*
X80340Y-63542D01*
X80578Y-63641D01*
X80837Y-63641D01*
X81076Y-63543D01*
X81200Y-63418D01*
X81324Y-63542D01*
X81563Y-63641D01*
X81821Y-63641D01*
X82060Y-63543D01*
X82185Y-63418D01*
X82308Y-63542D01*
X82547Y-63641D01*
X82805Y-63641D01*
X83044Y-63543D01*
X83169Y-63418D01*
X83292Y-63542D01*
X83531Y-63641D01*
X83790Y-63641D01*
X84028Y-63543D01*
X84153Y-63418D01*
X84277Y-63542D01*
X84515Y-63641D01*
X84774Y-63641D01*
X85013Y-63543D01*
X85137Y-63418D01*
X85261Y-63542D01*
X85500Y-63641D01*
X85758Y-63641D01*
X85997Y-63543D01*
X86122Y-63418D01*
X86245Y-63542D01*
X86484Y-63641D01*
X86742Y-63641D01*
X86981Y-63543D01*
X87106Y-63418D01*
X87229Y-63542D01*
X87468Y-63641D01*
X87727Y-63641D01*
X87965Y-63543D01*
X88090Y-63418D01*
X88214Y-63542D01*
X88452Y-63641D01*
X88711Y-63641D01*
X88950Y-63543D01*
X89074Y-63418D01*
X89198Y-63542D01*
X89437Y-63641D01*
X89695Y-63641D01*
X89934Y-63543D01*
X90059Y-63418D01*
X90182Y-63542D01*
X90421Y-63641D01*
X90679Y-63641D01*
X90918Y-63543D01*
X91043Y-63418D01*
X91166Y-63542D01*
X91405Y-63641D01*
X91664Y-63641D01*
X91902Y-63543D01*
X92027Y-63418D01*
X92151Y-63542D01*
X92389Y-63641D01*
X92648Y-63641D01*
X92887Y-63543D01*
X93011Y-63418D01*
X93135Y-63542D01*
X93374Y-63641D01*
X93632Y-63641D01*
X93871Y-63543D01*
X93996Y-63418D01*
X94119Y-63542D01*
X94358Y-63641D01*
X94616Y-63641D01*
X94855Y-63543D01*
X94980Y-63418D01*
X95103Y-63542D01*
X95342Y-63641D01*
X95601Y-63641D01*
X95839Y-63543D01*
X95964Y-63418D01*
X96088Y-63542D01*
X96326Y-63641D01*
X96585Y-63641D01*
X96824Y-63543D01*
X96948Y-63418D01*
X97072Y-63542D01*
X97311Y-63641D01*
X97569Y-63641D01*
X97808Y-63543D01*
X97933Y-63418D01*
X98056Y-63542D01*
X98295Y-63641D01*
X98553Y-63641D01*
X98792Y-63543D01*
X98917Y-63418D01*
X99040Y-63542D01*
X99279Y-63641D01*
X99538Y-63641D01*
X99776Y-63543D01*
X99901Y-63418D01*
X100025Y-63542D01*
X100263Y-63641D01*
X100522Y-63641D01*
X100761Y-63543D01*
X100885Y-63418D01*
X101009Y-63542D01*
X101248Y-63641D01*
X101506Y-63641D01*
X101745Y-63543D01*
X101870Y-63418D01*
X101993Y-63542D01*
X102232Y-63641D01*
X102490Y-63641D01*
X102729Y-63543D01*
X102854Y-63418D01*
X102978Y-63542D01*
X103216Y-63641D01*
X103475Y-63641D01*
X103713Y-63543D01*
X103838Y-63418D01*
X103962Y-63542D01*
X104200Y-63641D01*
X104459Y-63641D01*
X104698Y-63543D01*
X104881Y-63360D01*
X104980Y-63121D01*
X104980Y-62863D01*
X104881Y-62624D01*
X104699Y-62441D01*
X104460Y-62342D01*
X104202Y-62342D01*
X103963Y-62441D01*
X103897Y-62506D01*
X103897Y-61645D01*
X104720Y-60822D01*
X104720Y-60822D01*
X104839Y-60643D01*
X104881Y-60433D01*
X104881Y-60433D01*
X104881Y-59448D01*
X104881Y-59448D01*
X104839Y-59237D01*
X104720Y-59059D01*
X104720Y-59059D01*
X104479Y-58818D01*
X104753Y-58705D01*
X104964Y-58495D01*
X105078Y-58220D01*
X105078Y-57922D01*
X105078Y-66653D01*
X66200Y-66653D01*
X66200Y-61998D01*
X66042Y-61614D01*
X65749Y-61320D01*
X65365Y-61161D01*
X64950Y-61161D01*
X64567Y-61319D01*
X64273Y-61612D01*
X64114Y-61996D01*
X64113Y-62411D01*
X64272Y-62794D01*
X64565Y-63088D01*
X64949Y-63247D01*
X65364Y-63248D01*
X65747Y-63089D01*
X66041Y-62796D01*
X66200Y-62413D01*
X66200Y-61998D01*
X66200Y-66653D01*
X62466Y-66653D01*
X62466Y-53418D01*
X62466Y-52881D01*
X62466Y-52817D01*
X62442Y-52759D01*
X62397Y-52714D01*
X62339Y-52690D01*
X62165Y-52690D01*
X62125Y-52730D01*
X62125Y-53031D01*
X62427Y-53031D01*
X62466Y-52991D01*
X62466Y-52881D01*
X62466Y-53418D01*
X62466Y-53307D01*
X62427Y-53267D01*
X62125Y-53267D01*
X62125Y-53568D01*
X62165Y-53608D01*
X62339Y-53608D01*
X62397Y-53584D01*
X62442Y-53539D01*
X62466Y-53481D01*
X62466Y-53418D01*
X62466Y-66653D01*
X61889Y-66653D01*
X61889Y-53568D01*
X61889Y-53267D01*
X61889Y-53031D01*
X61889Y-52730D01*
X61850Y-52690D01*
X61676Y-52690D01*
X61617Y-52714D01*
X61573Y-52759D01*
X61548Y-52817D01*
X61548Y-52881D01*
X61548Y-52991D01*
X61588Y-53031D01*
X61889Y-53031D01*
X61889Y-53267D01*
X61588Y-53267D01*
X61548Y-53307D01*
X61548Y-53418D01*
X61548Y-53481D01*
X61573Y-53539D01*
X61617Y-53584D01*
X61676Y-53608D01*
X61850Y-53608D01*
X61889Y-53568D01*
X61889Y-66653D01*
X60111Y-66653D01*
X60111Y-64751D01*
X60111Y-49003D01*
X59950Y-48615D01*
X59654Y-48317D01*
X59266Y-48156D01*
X58846Y-48156D01*
X58457Y-48316D01*
X58160Y-48613D01*
X57999Y-49001D01*
X57999Y-49421D01*
X58159Y-49809D01*
X58456Y-50107D01*
X58844Y-50268D01*
X59264Y-50268D01*
X59652Y-50108D01*
X59949Y-49811D01*
X60110Y-49423D01*
X60111Y-49003D01*
X60111Y-64751D01*
X59950Y-64363D01*
X59654Y-64065D01*
X59266Y-63904D01*
X58846Y-63904D01*
X58457Y-64064D01*
X58160Y-64361D01*
X57999Y-64749D01*
X57999Y-65169D01*
X58159Y-65557D01*
X58456Y-65855D01*
X58844Y-66016D01*
X59264Y-66016D01*
X59652Y-65856D01*
X59949Y-65559D01*
X60110Y-65171D01*
X60111Y-64751D01*
X60111Y-66653D01*
X57362Y-66653D01*
X57362Y-47519D01*
X69638Y-47519D01*
X69458Y-47593D01*
X69248Y-47804D01*
X69133Y-48078D01*
X69133Y-48376D01*
X69247Y-48651D01*
X69457Y-48862D01*
X69732Y-48976D01*
X70030Y-48976D01*
X70305Y-48862D01*
X70515Y-48652D01*
X70629Y-48377D01*
X70630Y-48080D01*
X70516Y-47805D01*
X70306Y-47594D01*
X70125Y-47519D01*
X71606Y-47519D01*
X71427Y-47593D01*
X71216Y-47804D01*
X71102Y-48078D01*
X71102Y-48376D01*
X71215Y-48651D01*
X71426Y-48862D01*
X71700Y-48976D01*
X71998Y-48976D01*
X72273Y-48862D01*
X72484Y-48652D01*
X72598Y-48377D01*
X72598Y-48080D01*
X72484Y-47805D01*
X72274Y-47594D01*
X72094Y-47519D01*
X73575Y-47519D01*
X73395Y-47593D01*
X73185Y-47804D01*
X73070Y-48078D01*
X73070Y-48376D01*
X73184Y-48651D01*
X73394Y-48862D01*
X73669Y-48976D01*
X73967Y-48976D01*
X74242Y-48862D01*
X74452Y-48652D01*
X74566Y-48377D01*
X74567Y-48080D01*
X74453Y-47805D01*
X74243Y-47594D01*
X74062Y-47519D01*
X75543Y-47519D01*
X75364Y-47593D01*
X75153Y-47804D01*
X75039Y-48078D01*
X75039Y-48376D01*
X75152Y-48651D01*
X75363Y-48862D01*
X75637Y-48976D01*
X75935Y-48976D01*
X76210Y-48862D01*
X76421Y-48652D01*
X76535Y-48377D01*
X76535Y-48080D01*
X76421Y-47805D01*
X76211Y-47594D01*
X76031Y-47519D01*
X77512Y-47519D01*
X77332Y-47593D01*
X77122Y-47804D01*
X77008Y-48078D01*
X77007Y-48376D01*
X77121Y-48651D01*
X77331Y-48862D01*
X77606Y-48976D01*
X77904Y-48976D01*
X78179Y-48862D01*
X78389Y-48652D01*
X78503Y-48377D01*
X78504Y-48080D01*
X78390Y-47805D01*
X78180Y-47594D01*
X77999Y-47519D01*
X79480Y-47519D01*
X79301Y-47593D01*
X79090Y-47804D01*
X78976Y-48078D01*
X78976Y-48376D01*
X79089Y-48651D01*
X79300Y-48862D01*
X79574Y-48976D01*
X79872Y-48976D01*
X80147Y-48862D01*
X80358Y-48652D01*
X80472Y-48377D01*
X80472Y-48080D01*
X80358Y-47805D01*
X80148Y-47594D01*
X79968Y-47519D01*
X81449Y-47519D01*
X81269Y-47593D01*
X81059Y-47804D01*
X80945Y-48078D01*
X80944Y-48376D01*
X81058Y-48651D01*
X81268Y-48862D01*
X81543Y-48976D01*
X81841Y-48976D01*
X82116Y-48862D01*
X82326Y-48652D01*
X82440Y-48377D01*
X82441Y-48080D01*
X82327Y-47805D01*
X82117Y-47594D01*
X81936Y-47519D01*
X83417Y-47519D01*
X83238Y-47593D01*
X83027Y-47804D01*
X82913Y-48078D01*
X82913Y-48376D01*
X83026Y-48651D01*
X83237Y-48862D01*
X83511Y-48976D01*
X83809Y-48976D01*
X84084Y-48862D01*
X84295Y-48652D01*
X84409Y-48377D01*
X84409Y-48080D01*
X84295Y-47805D01*
X84085Y-47594D01*
X83905Y-47519D01*
X85386Y-47519D01*
X85206Y-47593D01*
X84996Y-47804D01*
X84882Y-48078D01*
X84881Y-48376D01*
X84995Y-48651D01*
X85205Y-48862D01*
X85480Y-48976D01*
X85778Y-48976D01*
X86053Y-48862D01*
X86263Y-48652D01*
X86377Y-48377D01*
X86378Y-48080D01*
X86264Y-47805D01*
X86054Y-47594D01*
X85873Y-47519D01*
X87354Y-47519D01*
X87175Y-47593D01*
X86964Y-47804D01*
X86850Y-48078D01*
X86850Y-48376D01*
X86963Y-48651D01*
X87174Y-48862D01*
X87448Y-48976D01*
X87746Y-48976D01*
X88021Y-48862D01*
X88232Y-48652D01*
X88346Y-48377D01*
X88346Y-48080D01*
X88232Y-47805D01*
X88022Y-47594D01*
X87842Y-47519D01*
X89323Y-47519D01*
X89143Y-47593D01*
X88933Y-47804D01*
X88819Y-48078D01*
X88818Y-48376D01*
X88932Y-48651D01*
X89142Y-48862D01*
X89417Y-48976D01*
X89715Y-48976D01*
X89990Y-48862D01*
X90200Y-48652D01*
X90314Y-48377D01*
X90315Y-48080D01*
X90201Y-47805D01*
X89991Y-47594D01*
X89810Y-47519D01*
X91291Y-47519D01*
X91112Y-47593D01*
X90901Y-47804D01*
X90787Y-48078D01*
X90787Y-48376D01*
X90900Y-48651D01*
X91111Y-48862D01*
X91385Y-48976D01*
X91683Y-48976D01*
X91958Y-48862D01*
X92169Y-48652D01*
X92283Y-48377D01*
X92283Y-48080D01*
X92169Y-47805D01*
X91959Y-47594D01*
X91779Y-47519D01*
X93260Y-47519D01*
X93080Y-47593D01*
X92870Y-47804D01*
X92756Y-48078D01*
X92755Y-48376D01*
X92869Y-48651D01*
X93079Y-48862D01*
X93354Y-48976D01*
X93652Y-48976D01*
X93927Y-48862D01*
X94137Y-48652D01*
X94251Y-48377D01*
X94252Y-48080D01*
X94138Y-47805D01*
X93928Y-47594D01*
X93747Y-47519D01*
X95228Y-47519D01*
X95049Y-47593D01*
X94838Y-47804D01*
X94724Y-48078D01*
X94724Y-48376D01*
X94837Y-48651D01*
X95048Y-48862D01*
X95322Y-48976D01*
X95620Y-48976D01*
X95895Y-48862D01*
X96106Y-48652D01*
X96220Y-48377D01*
X96220Y-48080D01*
X96106Y-47805D01*
X95896Y-47594D01*
X95716Y-47519D01*
X97197Y-47519D01*
X97017Y-47593D01*
X96807Y-47804D01*
X96693Y-48078D01*
X96692Y-48376D01*
X96806Y-48651D01*
X97016Y-48862D01*
X97291Y-48976D01*
X97589Y-48976D01*
X97864Y-48862D01*
X98074Y-48652D01*
X98188Y-48377D01*
X98189Y-48080D01*
X98075Y-47805D01*
X97865Y-47594D01*
X97684Y-47519D01*
X99165Y-47519D01*
X98986Y-47593D01*
X98775Y-47804D01*
X98661Y-48078D01*
X98661Y-48376D01*
X98774Y-48651D01*
X98985Y-48862D01*
X99260Y-48976D01*
X99557Y-48976D01*
X99832Y-48862D01*
X100043Y-48652D01*
X100157Y-48377D01*
X100157Y-48080D01*
X100043Y-47805D01*
X99833Y-47594D01*
X99653Y-47519D01*
X101134Y-47519D01*
X100954Y-47593D01*
X100744Y-47804D01*
X100630Y-48078D01*
X100629Y-48376D01*
X100743Y-48651D01*
X100953Y-48862D01*
X101228Y-48976D01*
X101526Y-48976D01*
X101801Y-48862D01*
X102011Y-48652D01*
X102125Y-48377D01*
X102126Y-48080D01*
X102012Y-47805D01*
X101802Y-47594D01*
X101621Y-47519D01*
X103102Y-47519D01*
X102923Y-47593D01*
X102712Y-47804D01*
X102598Y-48078D01*
X102598Y-48376D01*
X102711Y-48651D01*
X102922Y-48862D01*
X103197Y-48976D01*
X103494Y-48976D01*
X103769Y-48862D01*
X103980Y-48652D01*
X104094Y-48377D01*
X104094Y-48080D01*
X103980Y-47805D01*
X103770Y-47594D01*
X103590Y-47519D01*
X115866Y-47519D01*
X115866Y-66653D01*
M02*
