G04 (created by PCBNEW (2013-07-07 BZR 4022)-stable) date 23/09/2014 08:58:54*
%MOIN*%
G04 Gerber Fmt 3.4, Leading zero omitted, Abs format*
%FSLAX34Y34*%
G01*
G70*
G90*
G04 APERTURE LIST*
%ADD10C,0.00590551*%
%ADD11C,0.0984252*%
%ADD12C,0.16*%
%ADD13R,0.06X0.06*%
%ADD14C,0.0787402*%
%ADD15C,0.15748*%
%ADD16C,0.0590551*%
%ADD17C,0.011811*%
G04 APERTURE END LIST*
G54D10*
G54D11*
X104330Y-56102D03*
X102362Y-56102D03*
X100393Y-56102D03*
X98425Y-56102D03*
X96456Y-56102D03*
X94488Y-56102D03*
X92519Y-56102D03*
X90551Y-56102D03*
X88582Y-56102D03*
X86614Y-56102D03*
X84645Y-56102D03*
X82677Y-56102D03*
X80708Y-56102D03*
X78740Y-56102D03*
X76771Y-56102D03*
X74803Y-56102D03*
X72834Y-56102D03*
X70866Y-56102D03*
X68897Y-56102D03*
X104330Y-58070D03*
X102362Y-58070D03*
X100393Y-58070D03*
X98425Y-58070D03*
X96456Y-58070D03*
X94488Y-58070D03*
X92519Y-58070D03*
X90551Y-58070D03*
X88582Y-58070D03*
X86614Y-58070D03*
X84645Y-58070D03*
X82677Y-58070D03*
X80708Y-58070D03*
X78740Y-58070D03*
X76771Y-58070D03*
X74803Y-58070D03*
X72834Y-58070D03*
X70866Y-58070D03*
X68897Y-58070D03*
X103346Y-52165D03*
X101377Y-52165D03*
X99409Y-52165D03*
X97440Y-52165D03*
X95472Y-52165D03*
X93503Y-52165D03*
X91535Y-52165D03*
X89566Y-52165D03*
X87598Y-52165D03*
X85629Y-52165D03*
X83661Y-52165D03*
X81692Y-52165D03*
X79724Y-52165D03*
X77755Y-52165D03*
X75787Y-52165D03*
X73818Y-52165D03*
X71850Y-52165D03*
X69881Y-52165D03*
X103346Y-54133D03*
X101377Y-54133D03*
X99409Y-54133D03*
X97440Y-54133D03*
X95472Y-54133D03*
X93503Y-54133D03*
X91535Y-54133D03*
X89566Y-54133D03*
X87598Y-54133D03*
X85629Y-54133D03*
X83661Y-54133D03*
X81692Y-54133D03*
X79724Y-54133D03*
X77755Y-54133D03*
X75787Y-54133D03*
X73818Y-54133D03*
X71850Y-54133D03*
X69881Y-54133D03*
X103346Y-48228D03*
X101377Y-48228D03*
X99409Y-48228D03*
X97440Y-48228D03*
X95472Y-48228D03*
X93503Y-48228D03*
X91535Y-48228D03*
X89566Y-48228D03*
X87598Y-48228D03*
X85629Y-48228D03*
X83661Y-48228D03*
X81692Y-48228D03*
X79724Y-48228D03*
X77755Y-48228D03*
X75787Y-48228D03*
X73818Y-48228D03*
X71850Y-48228D03*
X69881Y-48228D03*
X103346Y-50196D03*
X101377Y-50196D03*
X99409Y-50196D03*
X97440Y-50196D03*
X95472Y-50196D03*
X93503Y-50196D03*
X91535Y-50196D03*
X89566Y-50196D03*
X87598Y-50196D03*
X85629Y-50196D03*
X83661Y-50196D03*
X81692Y-50196D03*
X79724Y-50196D03*
X77755Y-50196D03*
X75787Y-50196D03*
X73818Y-50196D03*
X71850Y-50196D03*
X69881Y-50196D03*
G54D12*
X114173Y-49212D03*
X114173Y-64960D03*
X59055Y-64960D03*
X59055Y-49212D03*
G54D13*
X62007Y-53149D03*
X111220Y-53149D03*
G54D14*
X104330Y-62992D03*
X102362Y-62992D03*
X100393Y-62992D03*
X98425Y-62992D03*
X96456Y-62992D03*
X94488Y-62992D03*
X92519Y-62992D03*
X90551Y-62992D03*
X88582Y-62992D03*
X86614Y-62992D03*
X84645Y-62992D03*
X82677Y-62992D03*
X80708Y-62992D03*
X78740Y-62992D03*
X76771Y-62992D03*
X74803Y-62992D03*
X72834Y-62992D03*
X70866Y-62992D03*
X68897Y-62992D03*
X103346Y-62992D03*
X101377Y-62992D03*
X99409Y-62992D03*
X97440Y-62992D03*
X95472Y-62992D03*
X93503Y-62992D03*
X91535Y-62992D03*
X89566Y-62992D03*
X87598Y-62992D03*
X85629Y-62992D03*
X83661Y-62992D03*
X81692Y-62992D03*
X79724Y-62992D03*
X77755Y-62992D03*
X75787Y-62992D03*
X73818Y-62992D03*
X71850Y-62992D03*
X69881Y-62992D03*
X103346Y-60039D03*
X101377Y-60039D03*
X99409Y-60039D03*
X97440Y-60039D03*
X95472Y-60039D03*
X93503Y-60039D03*
X91535Y-60039D03*
X89566Y-60039D03*
X87598Y-60039D03*
X85629Y-60039D03*
X83661Y-60039D03*
X81692Y-60039D03*
X79724Y-60039D03*
X77755Y-60039D03*
X75787Y-60039D03*
X73818Y-60039D03*
X71850Y-60039D03*
X69881Y-60039D03*
G54D15*
X65157Y-62204D03*
X108070Y-62204D03*
G54D16*
X86614Y-62992D02*
X86614Y-58070D01*
X86614Y-58070D02*
X86614Y-56102D01*
X90551Y-62992D02*
X90551Y-58070D01*
X90551Y-58070D02*
X90551Y-56102D01*
X88582Y-62992D02*
X88582Y-58070D01*
X88582Y-58070D02*
X88582Y-56102D01*
X71850Y-60039D02*
X71850Y-55511D01*
X70866Y-51181D02*
X71850Y-50196D01*
X70866Y-54527D02*
X70866Y-51181D01*
X71850Y-55511D02*
X70866Y-54527D01*
X71850Y-50196D02*
X71850Y-48228D01*
X84645Y-62992D02*
X84645Y-58070D01*
X84645Y-58070D02*
X84645Y-56102D01*
X82677Y-62992D02*
X82677Y-58070D01*
X82677Y-58070D02*
X82677Y-56102D01*
X80708Y-62992D02*
X80708Y-58070D01*
X80708Y-58070D02*
X80708Y-56102D01*
X78740Y-62992D02*
X78740Y-58070D01*
X78740Y-58070D02*
X78740Y-56102D01*
X76771Y-62992D02*
X76771Y-58070D01*
X76771Y-58070D02*
X76771Y-56102D01*
X74803Y-62992D02*
X74803Y-58070D01*
X74803Y-58070D02*
X74803Y-56102D01*
X72834Y-62992D02*
X72834Y-58070D01*
X72834Y-58070D02*
X72834Y-56102D01*
X69881Y-60039D02*
X69881Y-55511D01*
X68897Y-51181D02*
X69881Y-50196D01*
X68897Y-54527D02*
X68897Y-51181D01*
X69881Y-55511D02*
X68897Y-54527D01*
X69881Y-50196D02*
X69881Y-48228D01*
X70866Y-62992D02*
X70866Y-58070D01*
X70866Y-58070D02*
X70866Y-56102D01*
X68897Y-62992D02*
X68897Y-58070D01*
X68897Y-58070D02*
X68897Y-56102D01*
X93503Y-60039D02*
X93503Y-55511D01*
X92519Y-51181D02*
X93503Y-50196D01*
X92519Y-54527D02*
X92519Y-51181D01*
X93503Y-55511D02*
X92519Y-54527D01*
X93503Y-50196D02*
X93503Y-48228D01*
X103346Y-48228D02*
X103346Y-50196D01*
X103346Y-60039D02*
X103346Y-55905D01*
X102362Y-51181D02*
X103346Y-50196D01*
X102362Y-54527D02*
X102362Y-51181D01*
X103346Y-55511D02*
X102362Y-54527D01*
X103346Y-55905D02*
X103346Y-55511D01*
X104330Y-62992D02*
X104330Y-58070D01*
X104330Y-58070D02*
X104330Y-56102D01*
X101377Y-60039D02*
X101377Y-55511D01*
X100393Y-51181D02*
X101377Y-50196D01*
X100393Y-54527D02*
X100393Y-51181D01*
X101377Y-55511D02*
X100393Y-54527D01*
X101377Y-50196D02*
X101377Y-48228D01*
X99409Y-60039D02*
X99409Y-55511D01*
X98425Y-51181D02*
X99409Y-50196D01*
X98425Y-54527D02*
X98425Y-51181D01*
X99409Y-55511D02*
X98425Y-54527D01*
X99409Y-50196D02*
X99409Y-48228D01*
X97440Y-60039D02*
X97440Y-55708D01*
X96456Y-51181D02*
X97440Y-50196D01*
X96456Y-54527D02*
X96456Y-51181D01*
X97440Y-55511D02*
X96456Y-54527D01*
X97440Y-55708D02*
X97440Y-55511D01*
X97440Y-50196D02*
X97440Y-48228D01*
X95472Y-60039D02*
X95472Y-55511D01*
X94488Y-51181D02*
X95472Y-50196D01*
X94488Y-54527D02*
X94488Y-51181D01*
X95472Y-55511D02*
X94488Y-54527D01*
X95472Y-50196D02*
X95472Y-48228D01*
X91535Y-48228D02*
X91535Y-50196D01*
X91535Y-60039D02*
X91535Y-55511D01*
X90551Y-51181D02*
X91535Y-50196D01*
X90551Y-54527D02*
X90551Y-51181D01*
X91535Y-55511D02*
X90551Y-54527D01*
X89566Y-60039D02*
X89566Y-55511D01*
X88582Y-51181D02*
X89566Y-50196D01*
X88582Y-54527D02*
X88582Y-51181D01*
X89566Y-55511D02*
X88582Y-54527D01*
X89566Y-50196D02*
X89566Y-48228D01*
X87598Y-60039D02*
X87598Y-55511D01*
X86614Y-51181D02*
X87598Y-50196D01*
X86614Y-54527D02*
X86614Y-51181D01*
X87598Y-55511D02*
X86614Y-54527D01*
X87598Y-50196D02*
X87598Y-48228D01*
X85629Y-60039D02*
X85629Y-55511D01*
X84645Y-51181D02*
X85629Y-50196D01*
X84645Y-54527D02*
X84645Y-51181D01*
X85629Y-55511D02*
X84645Y-54527D01*
X85629Y-50196D02*
X85629Y-48228D01*
X83661Y-60039D02*
X83661Y-55511D01*
X82677Y-51181D02*
X83661Y-50196D01*
X82677Y-54527D02*
X82677Y-51181D01*
X83661Y-55511D02*
X82677Y-54527D01*
X83661Y-50196D02*
X83661Y-48228D01*
X102362Y-62992D02*
X102362Y-58070D01*
X102362Y-58070D02*
X102362Y-56102D01*
X81692Y-60039D02*
X81692Y-55511D01*
X80708Y-51181D02*
X81692Y-50196D01*
X80708Y-54527D02*
X80708Y-51181D01*
X81692Y-55511D02*
X80708Y-54527D01*
X81692Y-50196D02*
X81692Y-48228D01*
X79724Y-60039D02*
X79724Y-55511D01*
X78740Y-51181D02*
X79724Y-50196D01*
X78740Y-54527D02*
X78740Y-51181D01*
X79724Y-55511D02*
X78740Y-54527D01*
X79724Y-50196D02*
X79724Y-48228D01*
X77755Y-60039D02*
X77755Y-55511D01*
X76771Y-51181D02*
X77755Y-50196D01*
X76771Y-54527D02*
X76771Y-51181D01*
X77755Y-55511D02*
X76771Y-54527D01*
X77755Y-50196D02*
X77755Y-48228D01*
X75787Y-60039D02*
X75787Y-55511D01*
X74803Y-51181D02*
X75787Y-50196D01*
X74803Y-54527D02*
X74803Y-51181D01*
X75787Y-55511D02*
X74803Y-54527D01*
X75787Y-50196D02*
X75787Y-48228D01*
X73818Y-60039D02*
X73818Y-55511D01*
X72834Y-51181D02*
X73818Y-50196D01*
X72834Y-54527D02*
X72834Y-51181D01*
X73818Y-55511D02*
X72834Y-54527D01*
X73818Y-50196D02*
X73818Y-48228D01*
X100393Y-62992D02*
X100393Y-58070D01*
X100393Y-58070D02*
X100393Y-56102D01*
X98425Y-62992D02*
X98425Y-58070D01*
X98425Y-58070D02*
X98425Y-56102D01*
X96456Y-62992D02*
X96456Y-58070D01*
X96456Y-58070D02*
X96456Y-56102D01*
X94488Y-62992D02*
X94488Y-58070D01*
X94488Y-58070D02*
X94488Y-56102D01*
X92519Y-62992D02*
X92519Y-58070D01*
X92519Y-58070D02*
X92519Y-56102D01*
G54D10*
G36*
X115866Y-66653D02*
X115229Y-66653D01*
X115229Y-64751D01*
X115229Y-49003D01*
X115068Y-48615D01*
X114772Y-48317D01*
X114384Y-48156D01*
X113964Y-48156D01*
X113575Y-48316D01*
X113278Y-48613D01*
X113117Y-49001D01*
X113117Y-49421D01*
X113277Y-49809D01*
X113574Y-50107D01*
X113962Y-50268D01*
X114382Y-50268D01*
X114770Y-50108D01*
X115067Y-49811D01*
X115228Y-49423D01*
X115229Y-49003D01*
X115229Y-64751D01*
X115068Y-64363D01*
X114772Y-64065D01*
X114384Y-63904D01*
X113964Y-63904D01*
X113575Y-64064D01*
X113278Y-64361D01*
X113117Y-64749D01*
X113117Y-65169D01*
X113277Y-65557D01*
X113574Y-65855D01*
X113962Y-66016D01*
X114382Y-66016D01*
X114770Y-65856D01*
X115067Y-65559D01*
X115228Y-65171D01*
X115229Y-64751D01*
X115229Y-66653D01*
X111679Y-66653D01*
X111679Y-53418D01*
X111679Y-52881D01*
X111679Y-52817D01*
X111655Y-52759D01*
X111610Y-52714D01*
X111551Y-52690D01*
X111378Y-52690D01*
X111338Y-52730D01*
X111338Y-53031D01*
X111639Y-53031D01*
X111679Y-52991D01*
X111679Y-52881D01*
X111679Y-53418D01*
X111679Y-53307D01*
X111639Y-53267D01*
X111338Y-53267D01*
X111338Y-53568D01*
X111378Y-53608D01*
X111551Y-53608D01*
X111610Y-53584D01*
X111655Y-53539D01*
X111679Y-53481D01*
X111679Y-53418D01*
X111679Y-66653D01*
X111102Y-66653D01*
X111102Y-53568D01*
X111102Y-53267D01*
X111102Y-53031D01*
X111102Y-52730D01*
X111062Y-52690D01*
X110888Y-52690D01*
X110830Y-52714D01*
X110785Y-52759D01*
X110761Y-52817D01*
X110761Y-52881D01*
X110761Y-52991D01*
X110801Y-53031D01*
X111102Y-53031D01*
X111102Y-53267D01*
X110801Y-53267D01*
X110761Y-53307D01*
X110761Y-53418D01*
X110761Y-53481D01*
X110785Y-53539D01*
X110830Y-53584D01*
X110888Y-53608D01*
X111062Y-53608D01*
X111102Y-53568D01*
X111102Y-66653D01*
X109114Y-66653D01*
X109114Y-61998D01*
X108955Y-61614D01*
X108662Y-61320D01*
X108279Y-61161D01*
X107864Y-61161D01*
X107480Y-61319D01*
X107186Y-61612D01*
X107027Y-61996D01*
X107027Y-62411D01*
X107185Y-62794D01*
X107479Y-63088D01*
X107862Y-63247D01*
X108277Y-63248D01*
X108661Y-63089D01*
X108954Y-62796D01*
X109113Y-62413D01*
X109114Y-61998D01*
X109114Y-66653D01*
X66200Y-66653D01*
X66200Y-61998D01*
X66042Y-61614D01*
X65749Y-61320D01*
X65365Y-61161D01*
X64950Y-61161D01*
X64567Y-61319D01*
X64273Y-61612D01*
X64114Y-61996D01*
X64113Y-62411D01*
X64272Y-62794D01*
X64565Y-63088D01*
X64949Y-63247D01*
X65364Y-63248D01*
X65747Y-63089D01*
X66041Y-62796D01*
X66200Y-62413D01*
X66200Y-61998D01*
X66200Y-66653D01*
X62466Y-66653D01*
X62466Y-53418D01*
X62466Y-52881D01*
X62466Y-52817D01*
X62442Y-52759D01*
X62397Y-52714D01*
X62339Y-52690D01*
X62165Y-52690D01*
X62125Y-52730D01*
X62125Y-53031D01*
X62427Y-53031D01*
X62466Y-52991D01*
X62466Y-52881D01*
X62466Y-53418D01*
X62466Y-53307D01*
X62427Y-53267D01*
X62125Y-53267D01*
X62125Y-53568D01*
X62165Y-53608D01*
X62339Y-53608D01*
X62397Y-53584D01*
X62442Y-53539D01*
X62466Y-53481D01*
X62466Y-53418D01*
X62466Y-66653D01*
X61889Y-66653D01*
X61889Y-53568D01*
X61889Y-53267D01*
X61889Y-53031D01*
X61889Y-52730D01*
X61850Y-52690D01*
X61676Y-52690D01*
X61617Y-52714D01*
X61573Y-52759D01*
X61548Y-52817D01*
X61548Y-52881D01*
X61548Y-52991D01*
X61588Y-53031D01*
X61889Y-53031D01*
X61889Y-53267D01*
X61588Y-53267D01*
X61548Y-53307D01*
X61548Y-53418D01*
X61548Y-53481D01*
X61573Y-53539D01*
X61617Y-53584D01*
X61676Y-53608D01*
X61850Y-53608D01*
X61889Y-53568D01*
X61889Y-66653D01*
X60111Y-66653D01*
X60111Y-64751D01*
X60111Y-49003D01*
X59950Y-48615D01*
X59654Y-48317D01*
X59266Y-48156D01*
X58846Y-48156D01*
X58457Y-48316D01*
X58160Y-48613D01*
X57999Y-49001D01*
X57999Y-49421D01*
X58159Y-49809D01*
X58456Y-50107D01*
X58844Y-50268D01*
X59264Y-50268D01*
X59652Y-50108D01*
X59949Y-49811D01*
X60110Y-49423D01*
X60111Y-49003D01*
X60111Y-64751D01*
X59950Y-64363D01*
X59654Y-64065D01*
X59266Y-63904D01*
X58846Y-63904D01*
X58457Y-64064D01*
X58160Y-64361D01*
X57999Y-64749D01*
X57999Y-65169D01*
X58159Y-65557D01*
X58456Y-65855D01*
X58844Y-66016D01*
X59264Y-66016D01*
X59652Y-65856D01*
X59949Y-65559D01*
X60110Y-65171D01*
X60111Y-64751D01*
X60111Y-66653D01*
X57362Y-66653D01*
X57362Y-47519D01*
X69638Y-47519D01*
X69458Y-47593D01*
X69248Y-47804D01*
X69133Y-48078D01*
X69133Y-48376D01*
X69247Y-48651D01*
X69330Y-48735D01*
X69330Y-49690D01*
X69248Y-49772D01*
X69133Y-50047D01*
X69133Y-50165D01*
X68507Y-50791D01*
X68388Y-50970D01*
X68346Y-51181D01*
X68346Y-54527D01*
X68388Y-54738D01*
X68507Y-54917D01*
X68944Y-55354D01*
X68749Y-55354D01*
X68474Y-55467D01*
X68263Y-55678D01*
X68149Y-55952D01*
X68149Y-56250D01*
X68263Y-56525D01*
X68346Y-56609D01*
X68346Y-57564D01*
X68263Y-57646D01*
X68149Y-57921D01*
X68149Y-58219D01*
X68263Y-58494D01*
X68346Y-58577D01*
X68346Y-62625D01*
X68248Y-62862D01*
X68247Y-63120D01*
X68346Y-63359D01*
X68529Y-63542D01*
X68767Y-63641D01*
X69026Y-63641D01*
X69265Y-63543D01*
X69389Y-63418D01*
X69513Y-63542D01*
X69752Y-63641D01*
X70010Y-63641D01*
X70249Y-63543D01*
X70374Y-63418D01*
X70497Y-63542D01*
X70736Y-63641D01*
X70994Y-63641D01*
X71233Y-63543D01*
X71358Y-63418D01*
X71481Y-63542D01*
X71720Y-63641D01*
X71979Y-63641D01*
X72217Y-63543D01*
X72342Y-63418D01*
X72466Y-63542D01*
X72704Y-63641D01*
X72963Y-63641D01*
X73202Y-63543D01*
X73326Y-63418D01*
X73450Y-63542D01*
X73689Y-63641D01*
X73947Y-63641D01*
X74186Y-63543D01*
X74311Y-63418D01*
X74434Y-63542D01*
X74673Y-63641D01*
X74931Y-63641D01*
X75170Y-63543D01*
X75295Y-63418D01*
X75418Y-63542D01*
X75657Y-63641D01*
X75916Y-63641D01*
X76154Y-63543D01*
X76279Y-63418D01*
X76403Y-63542D01*
X76641Y-63641D01*
X76900Y-63641D01*
X77139Y-63543D01*
X77263Y-63418D01*
X77387Y-63542D01*
X77626Y-63641D01*
X77884Y-63641D01*
X78123Y-63543D01*
X78248Y-63418D01*
X78371Y-63542D01*
X78610Y-63641D01*
X78868Y-63641D01*
X79107Y-63543D01*
X79232Y-63418D01*
X79355Y-63542D01*
X79594Y-63641D01*
X79853Y-63641D01*
X80091Y-63543D01*
X80216Y-63418D01*
X80340Y-63542D01*
X80578Y-63641D01*
X80837Y-63641D01*
X81076Y-63543D01*
X81200Y-63418D01*
X81324Y-63542D01*
X81563Y-63641D01*
X81821Y-63641D01*
X82060Y-63543D01*
X82185Y-63418D01*
X82308Y-63542D01*
X82547Y-63641D01*
X82805Y-63641D01*
X83044Y-63543D01*
X83169Y-63418D01*
X83292Y-63542D01*
X83531Y-63641D01*
X83790Y-63641D01*
X84028Y-63543D01*
X84153Y-63418D01*
X84277Y-63542D01*
X84515Y-63641D01*
X84774Y-63641D01*
X85013Y-63543D01*
X85137Y-63418D01*
X85261Y-63542D01*
X85500Y-63641D01*
X85758Y-63641D01*
X85997Y-63543D01*
X86122Y-63418D01*
X86245Y-63542D01*
X86484Y-63641D01*
X86742Y-63641D01*
X86981Y-63543D01*
X87106Y-63418D01*
X87229Y-63542D01*
X87468Y-63641D01*
X87727Y-63641D01*
X87965Y-63543D01*
X88090Y-63418D01*
X88214Y-63542D01*
X88452Y-63641D01*
X88711Y-63641D01*
X88950Y-63543D01*
X89074Y-63418D01*
X89198Y-63542D01*
X89437Y-63641D01*
X89695Y-63641D01*
X89934Y-63543D01*
X90059Y-63418D01*
X90182Y-63542D01*
X90421Y-63641D01*
X90679Y-63641D01*
X90918Y-63543D01*
X91043Y-63418D01*
X91166Y-63542D01*
X91405Y-63641D01*
X91664Y-63641D01*
X91902Y-63543D01*
X92027Y-63418D01*
X92151Y-63542D01*
X92389Y-63641D01*
X92648Y-63641D01*
X92887Y-63543D01*
X93011Y-63418D01*
X93135Y-63542D01*
X93374Y-63641D01*
X93632Y-63641D01*
X93871Y-63543D01*
X93996Y-63418D01*
X94119Y-63542D01*
X94358Y-63641D01*
X94616Y-63641D01*
X94855Y-63543D01*
X94980Y-63418D01*
X95103Y-63542D01*
X95342Y-63641D01*
X95601Y-63641D01*
X95839Y-63543D01*
X95964Y-63418D01*
X96088Y-63542D01*
X96326Y-63641D01*
X96585Y-63641D01*
X96824Y-63543D01*
X96948Y-63418D01*
X97072Y-63542D01*
X97311Y-63641D01*
X97569Y-63641D01*
X97808Y-63543D01*
X97933Y-63418D01*
X98056Y-63542D01*
X98295Y-63641D01*
X98553Y-63641D01*
X98792Y-63543D01*
X98917Y-63418D01*
X99040Y-63542D01*
X99279Y-63641D01*
X99538Y-63641D01*
X99776Y-63543D01*
X99901Y-63418D01*
X100025Y-63542D01*
X100263Y-63641D01*
X100522Y-63641D01*
X100761Y-63543D01*
X100885Y-63418D01*
X101009Y-63542D01*
X101248Y-63641D01*
X101506Y-63641D01*
X101745Y-63543D01*
X101870Y-63418D01*
X101993Y-63542D01*
X102232Y-63641D01*
X102490Y-63641D01*
X102729Y-63543D01*
X102854Y-63418D01*
X102978Y-63542D01*
X103216Y-63641D01*
X103475Y-63641D01*
X103713Y-63543D01*
X103838Y-63418D01*
X103962Y-63542D01*
X104200Y-63641D01*
X104459Y-63641D01*
X104698Y-63543D01*
X104881Y-63360D01*
X104980Y-63121D01*
X104980Y-62863D01*
X104881Y-62624D01*
X104881Y-58577D01*
X104964Y-58495D01*
X105078Y-58220D01*
X105078Y-57922D01*
X104965Y-57647D01*
X104881Y-57564D01*
X104881Y-56609D01*
X104964Y-56526D01*
X105078Y-56251D01*
X105078Y-55954D01*
X104965Y-55679D01*
X104754Y-55468D01*
X104480Y-55354D01*
X104182Y-55354D01*
X103907Y-55467D01*
X103891Y-55483D01*
X103855Y-55300D01*
X103736Y-55122D01*
X103736Y-55122D01*
X103495Y-54881D01*
X103769Y-54768D01*
X103980Y-54558D01*
X104094Y-54283D01*
X104094Y-53985D01*
X103980Y-53710D01*
X103770Y-53500D01*
X103495Y-53385D01*
X103198Y-53385D01*
X102923Y-53499D01*
X102913Y-53509D01*
X102913Y-52790D01*
X102922Y-52799D01*
X103197Y-52913D01*
X103494Y-52913D01*
X103769Y-52799D01*
X103980Y-52589D01*
X104094Y-52314D01*
X104094Y-52017D01*
X103980Y-51742D01*
X103770Y-51531D01*
X103495Y-51417D01*
X103198Y-51417D01*
X102923Y-51530D01*
X102913Y-51540D01*
X102913Y-51409D01*
X103377Y-50944D01*
X103494Y-50945D01*
X103769Y-50831D01*
X103980Y-50621D01*
X104094Y-50346D01*
X104094Y-50048D01*
X103980Y-49773D01*
X103897Y-49690D01*
X103897Y-48735D01*
X103980Y-48652D01*
X104094Y-48377D01*
X104094Y-48080D01*
X103980Y-47805D01*
X103770Y-47594D01*
X103590Y-47519D01*
X115866Y-47519D01*
X115866Y-66653D01*
X115866Y-66653D01*
G37*
G54D17*
X115866Y-66653D02*
X115229Y-66653D01*
X115229Y-64751D01*
X115229Y-49003D01*
X115068Y-48615D01*
X114772Y-48317D01*
X114384Y-48156D01*
X113964Y-48156D01*
X113575Y-48316D01*
X113278Y-48613D01*
X113117Y-49001D01*
X113117Y-49421D01*
X113277Y-49809D01*
X113574Y-50107D01*
X113962Y-50268D01*
X114382Y-50268D01*
X114770Y-50108D01*
X115067Y-49811D01*
X115228Y-49423D01*
X115229Y-49003D01*
X115229Y-64751D01*
X115068Y-64363D01*
X114772Y-64065D01*
X114384Y-63904D01*
X113964Y-63904D01*
X113575Y-64064D01*
X113278Y-64361D01*
X113117Y-64749D01*
X113117Y-65169D01*
X113277Y-65557D01*
X113574Y-65855D01*
X113962Y-66016D01*
X114382Y-66016D01*
X114770Y-65856D01*
X115067Y-65559D01*
X115228Y-65171D01*
X115229Y-64751D01*
X115229Y-66653D01*
X111679Y-66653D01*
X111679Y-53418D01*
X111679Y-52881D01*
X111679Y-52817D01*
X111655Y-52759D01*
X111610Y-52714D01*
X111551Y-52690D01*
X111378Y-52690D01*
X111338Y-52730D01*
X111338Y-53031D01*
X111639Y-53031D01*
X111679Y-52991D01*
X111679Y-52881D01*
X111679Y-53418D01*
X111679Y-53307D01*
X111639Y-53267D01*
X111338Y-53267D01*
X111338Y-53568D01*
X111378Y-53608D01*
X111551Y-53608D01*
X111610Y-53584D01*
X111655Y-53539D01*
X111679Y-53481D01*
X111679Y-53418D01*
X111679Y-66653D01*
X111102Y-66653D01*
X111102Y-53568D01*
X111102Y-53267D01*
X111102Y-53031D01*
X111102Y-52730D01*
X111062Y-52690D01*
X110888Y-52690D01*
X110830Y-52714D01*
X110785Y-52759D01*
X110761Y-52817D01*
X110761Y-52881D01*
X110761Y-52991D01*
X110801Y-53031D01*
X111102Y-53031D01*
X111102Y-53267D01*
X110801Y-53267D01*
X110761Y-53307D01*
X110761Y-53418D01*
X110761Y-53481D01*
X110785Y-53539D01*
X110830Y-53584D01*
X110888Y-53608D01*
X111062Y-53608D01*
X111102Y-53568D01*
X111102Y-66653D01*
X109114Y-66653D01*
X109114Y-61998D01*
X108955Y-61614D01*
X108662Y-61320D01*
X108279Y-61161D01*
X107864Y-61161D01*
X107480Y-61319D01*
X107186Y-61612D01*
X107027Y-61996D01*
X107027Y-62411D01*
X107185Y-62794D01*
X107479Y-63088D01*
X107862Y-63247D01*
X108277Y-63248D01*
X108661Y-63089D01*
X108954Y-62796D01*
X109113Y-62413D01*
X109114Y-61998D01*
X109114Y-66653D01*
X66200Y-66653D01*
X66200Y-61998D01*
X66042Y-61614D01*
X65749Y-61320D01*
X65365Y-61161D01*
X64950Y-61161D01*
X64567Y-61319D01*
X64273Y-61612D01*
X64114Y-61996D01*
X64113Y-62411D01*
X64272Y-62794D01*
X64565Y-63088D01*
X64949Y-63247D01*
X65364Y-63248D01*
X65747Y-63089D01*
X66041Y-62796D01*
X66200Y-62413D01*
X66200Y-61998D01*
X66200Y-66653D01*
X62466Y-66653D01*
X62466Y-53418D01*
X62466Y-52881D01*
X62466Y-52817D01*
X62442Y-52759D01*
X62397Y-52714D01*
X62339Y-52690D01*
X62165Y-52690D01*
X62125Y-52730D01*
X62125Y-53031D01*
X62427Y-53031D01*
X62466Y-52991D01*
X62466Y-52881D01*
X62466Y-53418D01*
X62466Y-53307D01*
X62427Y-53267D01*
X62125Y-53267D01*
X62125Y-53568D01*
X62165Y-53608D01*
X62339Y-53608D01*
X62397Y-53584D01*
X62442Y-53539D01*
X62466Y-53481D01*
X62466Y-53418D01*
X62466Y-66653D01*
X61889Y-66653D01*
X61889Y-53568D01*
X61889Y-53267D01*
X61889Y-53031D01*
X61889Y-52730D01*
X61850Y-52690D01*
X61676Y-52690D01*
X61617Y-52714D01*
X61573Y-52759D01*
X61548Y-52817D01*
X61548Y-52881D01*
X61548Y-52991D01*
X61588Y-53031D01*
X61889Y-53031D01*
X61889Y-53267D01*
X61588Y-53267D01*
X61548Y-53307D01*
X61548Y-53418D01*
X61548Y-53481D01*
X61573Y-53539D01*
X61617Y-53584D01*
X61676Y-53608D01*
X61850Y-53608D01*
X61889Y-53568D01*
X61889Y-66653D01*
X60111Y-66653D01*
X60111Y-64751D01*
X60111Y-49003D01*
X59950Y-48615D01*
X59654Y-48317D01*
X59266Y-48156D01*
X58846Y-48156D01*
X58457Y-48316D01*
X58160Y-48613D01*
X57999Y-49001D01*
X57999Y-49421D01*
X58159Y-49809D01*
X58456Y-50107D01*
X58844Y-50268D01*
X59264Y-50268D01*
X59652Y-50108D01*
X59949Y-49811D01*
X60110Y-49423D01*
X60111Y-49003D01*
X60111Y-64751D01*
X59950Y-64363D01*
X59654Y-64065D01*
X59266Y-63904D01*
X58846Y-63904D01*
X58457Y-64064D01*
X58160Y-64361D01*
X57999Y-64749D01*
X57999Y-65169D01*
X58159Y-65557D01*
X58456Y-65855D01*
X58844Y-66016D01*
X59264Y-66016D01*
X59652Y-65856D01*
X59949Y-65559D01*
X60110Y-65171D01*
X60111Y-64751D01*
X60111Y-66653D01*
X57362Y-66653D01*
X57362Y-47519D01*
X69638Y-47519D01*
X69458Y-47593D01*
X69248Y-47804D01*
X69133Y-48078D01*
X69133Y-48376D01*
X69247Y-48651D01*
X69330Y-48735D01*
X69330Y-49690D01*
X69248Y-49772D01*
X69133Y-50047D01*
X69133Y-50165D01*
X68507Y-50791D01*
X68388Y-50970D01*
X68346Y-51181D01*
X68346Y-54527D01*
X68388Y-54738D01*
X68507Y-54917D01*
X68944Y-55354D01*
X68749Y-55354D01*
X68474Y-55467D01*
X68263Y-55678D01*
X68149Y-55952D01*
X68149Y-56250D01*
X68263Y-56525D01*
X68346Y-56609D01*
X68346Y-57564D01*
X68263Y-57646D01*
X68149Y-57921D01*
X68149Y-58219D01*
X68263Y-58494D01*
X68346Y-58577D01*
X68346Y-62625D01*
X68248Y-62862D01*
X68247Y-63120D01*
X68346Y-63359D01*
X68529Y-63542D01*
X68767Y-63641D01*
X69026Y-63641D01*
X69265Y-63543D01*
X69389Y-63418D01*
X69513Y-63542D01*
X69752Y-63641D01*
X70010Y-63641D01*
X70249Y-63543D01*
X70374Y-63418D01*
X70497Y-63542D01*
X70736Y-63641D01*
X70994Y-63641D01*
X71233Y-63543D01*
X71358Y-63418D01*
X71481Y-63542D01*
X71720Y-63641D01*
X71979Y-63641D01*
X72217Y-63543D01*
X72342Y-63418D01*
X72466Y-63542D01*
X72704Y-63641D01*
X72963Y-63641D01*
X73202Y-63543D01*
X73326Y-63418D01*
X73450Y-63542D01*
X73689Y-63641D01*
X73947Y-63641D01*
X74186Y-63543D01*
X74311Y-63418D01*
X74434Y-63542D01*
X74673Y-63641D01*
X74931Y-63641D01*
X75170Y-63543D01*
X75295Y-63418D01*
X75418Y-63542D01*
X75657Y-63641D01*
X75916Y-63641D01*
X76154Y-63543D01*
X76279Y-63418D01*
X76403Y-63542D01*
X76641Y-63641D01*
X76900Y-63641D01*
X77139Y-63543D01*
X77263Y-63418D01*
X77387Y-63542D01*
X77626Y-63641D01*
X77884Y-63641D01*
X78123Y-63543D01*
X78248Y-63418D01*
X78371Y-63542D01*
X78610Y-63641D01*
X78868Y-63641D01*
X79107Y-63543D01*
X79232Y-63418D01*
X79355Y-63542D01*
X79594Y-63641D01*
X79853Y-63641D01*
X80091Y-63543D01*
X80216Y-63418D01*
X80340Y-63542D01*
X80578Y-63641D01*
X80837Y-63641D01*
X81076Y-63543D01*
X81200Y-63418D01*
X81324Y-63542D01*
X81563Y-63641D01*
X81821Y-63641D01*
X82060Y-63543D01*
X82185Y-63418D01*
X82308Y-63542D01*
X82547Y-63641D01*
X82805Y-63641D01*
X83044Y-63543D01*
X83169Y-63418D01*
X83292Y-63542D01*
X83531Y-63641D01*
X83790Y-63641D01*
X84028Y-63543D01*
X84153Y-63418D01*
X84277Y-63542D01*
X84515Y-63641D01*
X84774Y-63641D01*
X85013Y-63543D01*
X85137Y-63418D01*
X85261Y-63542D01*
X85500Y-63641D01*
X85758Y-63641D01*
X85997Y-63543D01*
X86122Y-63418D01*
X86245Y-63542D01*
X86484Y-63641D01*
X86742Y-63641D01*
X86981Y-63543D01*
X87106Y-63418D01*
X87229Y-63542D01*
X87468Y-63641D01*
X87727Y-63641D01*
X87965Y-63543D01*
X88090Y-63418D01*
X88214Y-63542D01*
X88452Y-63641D01*
X88711Y-63641D01*
X88950Y-63543D01*
X89074Y-63418D01*
X89198Y-63542D01*
X89437Y-63641D01*
X89695Y-63641D01*
X89934Y-63543D01*
X90059Y-63418D01*
X90182Y-63542D01*
X90421Y-63641D01*
X90679Y-63641D01*
X90918Y-63543D01*
X91043Y-63418D01*
X91166Y-63542D01*
X91405Y-63641D01*
X91664Y-63641D01*
X91902Y-63543D01*
X92027Y-63418D01*
X92151Y-63542D01*
X92389Y-63641D01*
X92648Y-63641D01*
X92887Y-63543D01*
X93011Y-63418D01*
X93135Y-63542D01*
X93374Y-63641D01*
X93632Y-63641D01*
X93871Y-63543D01*
X93996Y-63418D01*
X94119Y-63542D01*
X94358Y-63641D01*
X94616Y-63641D01*
X94855Y-63543D01*
X94980Y-63418D01*
X95103Y-63542D01*
X95342Y-63641D01*
X95601Y-63641D01*
X95839Y-63543D01*
X95964Y-63418D01*
X96088Y-63542D01*
X96326Y-63641D01*
X96585Y-63641D01*
X96824Y-63543D01*
X96948Y-63418D01*
X97072Y-63542D01*
X97311Y-63641D01*
X97569Y-63641D01*
X97808Y-63543D01*
X97933Y-63418D01*
X98056Y-63542D01*
X98295Y-63641D01*
X98553Y-63641D01*
X98792Y-63543D01*
X98917Y-63418D01*
X99040Y-63542D01*
X99279Y-63641D01*
X99538Y-63641D01*
X99776Y-63543D01*
X99901Y-63418D01*
X100025Y-63542D01*
X100263Y-63641D01*
X100522Y-63641D01*
X100761Y-63543D01*
X100885Y-63418D01*
X101009Y-63542D01*
X101248Y-63641D01*
X101506Y-63641D01*
X101745Y-63543D01*
X101870Y-63418D01*
X101993Y-63542D01*
X102232Y-63641D01*
X102490Y-63641D01*
X102729Y-63543D01*
X102854Y-63418D01*
X102978Y-63542D01*
X103216Y-63641D01*
X103475Y-63641D01*
X103713Y-63543D01*
X103838Y-63418D01*
X103962Y-63542D01*
X104200Y-63641D01*
X104459Y-63641D01*
X104698Y-63543D01*
X104881Y-63360D01*
X104980Y-63121D01*
X104980Y-62863D01*
X104881Y-62624D01*
X104881Y-58577D01*
X104964Y-58495D01*
X105078Y-58220D01*
X105078Y-57922D01*
X104965Y-57647D01*
X104881Y-57564D01*
X104881Y-56609D01*
X104964Y-56526D01*
X105078Y-56251D01*
X105078Y-55954D01*
X104965Y-55679D01*
X104754Y-55468D01*
X104480Y-55354D01*
X104182Y-55354D01*
X103907Y-55467D01*
X103891Y-55483D01*
X103855Y-55300D01*
X103736Y-55122D01*
X103736Y-55122D01*
X103495Y-54881D01*
X103769Y-54768D01*
X103980Y-54558D01*
X104094Y-54283D01*
X104094Y-53985D01*
X103980Y-53710D01*
X103770Y-53500D01*
X103495Y-53385D01*
X103198Y-53385D01*
X102923Y-53499D01*
X102913Y-53509D01*
X102913Y-52790D01*
X102922Y-52799D01*
X103197Y-52913D01*
X103494Y-52913D01*
X103769Y-52799D01*
X103980Y-52589D01*
X104094Y-52314D01*
X104094Y-52017D01*
X103980Y-51742D01*
X103770Y-51531D01*
X103495Y-51417D01*
X103198Y-51417D01*
X102923Y-51530D01*
X102913Y-51540D01*
X102913Y-51409D01*
X103377Y-50944D01*
X103494Y-50945D01*
X103769Y-50831D01*
X103980Y-50621D01*
X104094Y-50346D01*
X104094Y-50048D01*
X103980Y-49773D01*
X103897Y-49690D01*
X103897Y-48735D01*
X103980Y-48652D01*
X104094Y-48377D01*
X104094Y-48080D01*
X103980Y-47805D01*
X103770Y-47594D01*
X103590Y-47519D01*
X115866Y-47519D01*
X115866Y-66653D01*
M02*
