M48
;DRILL file {Pcbnew (2013-07-07 BZR 4022)-stable} date 26/05/2014 16:51:28
;FORMAT={-:-/ absolute / inch / decimal}
FMAT,2
INCH,TZ
T1C0.025
T2C0.032
T3C0.040
T4C0.051
T5C0.060
%
G90
G05
M72
T1
X7.25Y-5.25
X7.275Y-5.175
X7.3Y-5.275
X7.325Y-5.
X7.325Y-5.15
X7.35Y-4.85
X7.55Y-4.725
X7.55Y-4.9
X7.55Y-5.575
X7.575Y-5.475
X7.6Y-4.775
X7.6Y-5.575
X7.65Y-4.825
X7.65Y-5.575
X7.7Y-4.825
X7.7Y-5.575
X7.75Y-4.825
X7.75Y-5.575
X7.8Y-4.825
X7.8Y-5.575
X7.85Y-4.825
X7.85Y-5.575
X7.9Y-4.825
X7.9Y-5.575
X7.95Y-4.825
X7.95Y-5.575
X8.Y-4.825
X8.Y-5.575
X8.05Y-4.775
X8.05Y-5.625
X8.1Y-4.725
X8.1Y-4.9
X8.1Y-5.675
X8.25Y-5.3
X8.3Y-5.05
X8.3Y-5.1
X8.3Y-5.15
X8.3Y-5.2
X8.3Y-5.25
X8.3Y-5.3
T2
X7.Y-5.
T3
X7.Y-5.1
X7.Y-5.2
X7.Y-5.3
X7.Y-5.4
X7.Y-5.5
X7.Y-5.6
X7.Y-5.7
X7.Y-5.8
X7.Y-5.9
X7.1Y-5.
X7.1Y-5.1
X7.1Y-5.2
X7.1Y-5.3
X7.1Y-5.4
X7.1Y-5.5
X7.1Y-5.6
X7.1Y-5.7
X7.1Y-5.8
X7.1Y-5.9
X7.65Y-4.2
X7.65Y-4.3
X7.75Y-4.2
X7.75Y-4.3
X8.225Y-5.55
X8.225Y-5.65
X8.225Y-5.75
T4
X8.55Y-3.7665
X8.55Y-3.9043
X8.55Y-4.0421
X8.55Y-4.1799
X8.55Y-4.3177
X8.55Y-4.4555
X8.55Y-4.5933
X8.55Y-4.7311
X8.55Y-4.8689
X8.55Y-5.0067
X8.55Y-5.1445
X8.55Y-5.2823
X8.55Y-5.4201
X8.55Y-5.5579
X8.55Y-5.6957
X8.55Y-5.8335
T5
X7.575Y-3.825
X7.775Y-3.825
X7.975Y-3.825
T0
M30
