<svg id="Layer_1" data-name="Layer 1" xmlns="http://www.w3.org/2000/svg" viewBox="0 0 726 184"><defs><style>.cls-1{fill:#f15a24;}.cls-2{fill:none;stroke:#000;stroke-miterlimit:10;stroke-width:5px;}</style></defs><title>rusefi-color-white</title><path class="cls-1" d="M111.09,86.55H55.52q-5,0-7.6,2.52c-1.71,1.67-2.56,4.13-2.56,7.36v68.1H20.66V96.43A37.19,37.19,0,0,1,22.28,85a32.17,32.17,0,0,1,4.32-8.88,29.94,29.94,0,0,1,6.22-6.56,36.25,36.25,0,0,1,7.36-4.41A38,38,0,0,1,48,62.66a36.69,36.69,0,0,1,7.36-.81h55.76Z"/><path class="cls-1" d="M239.6,152.09a12.79,12.79,0,0,1-.95,4.94A12.43,12.43,0,0,1,236,161a12.23,12.23,0,0,1-8.69,3.56H171.5a49.12,49.12,0,0,1-9.74-1.05,45.09,45.09,0,0,1-10.21-3.37,52.55,52.55,0,0,1-9.74-5.89,37.36,37.36,0,0,1-8.21-8.64A44,44,0,0,1,128,133.85a48.75,48.75,0,0,1-2.14-15v-57H150.5v57a21.65,21.65,0,0,0,1.67,8.69,20,20,0,0,0,4.51,6.6,19.54,19.54,0,0,0,6.69,4.23,23.14,23.14,0,0,0,8.32,1.47H214.9v-78h24.7Z"/><path class="cls-1" d="M362,129.86a38,38,0,0,1-1.61,11.45,33.55,33.55,0,0,1-4.28,8.92,29.06,29.06,0,0,1-6.17,6.56,36.58,36.58,0,0,1-7.36,4.42,38.81,38.81,0,0,1-7.79,2.51,37.18,37.18,0,0,1-7.46.81H260.49v-24.7h66.68q5,0,7.6-2.56t2.56-7.41q-.46-9.87-10-9.88H289.08a30.74,30.74,0,0,1-13.86-2.85A28.26,28.26,0,0,1,266,110a27,27,0,0,1-5.13-9.21,30.49,30.49,0,0,1-1.57-9.22,29.88,29.88,0,0,1,2.94-13.91,28,28,0,0,1,7.41-9.17,29.1,29.1,0,0,1,9.69-5.08,34.28,34.28,0,0,1,9.78-1.57h60.7v24.7H289.27a8.34,8.34,0,0,0-3,.43,3.39,3.39,0,0,0-1.61,1.14,3.1,3.1,0,0,0-.62,1.52,14.06,14.06,0,0,0-.1,1.56,5.89,5.89,0,0,0,.57,2.38,3,3,0,0,0,1.19,1.23,3.71,3.71,0,0,0,1.62.43c.6,0,1.18.05,1.75.05h38.28q9.5,0,16.15,3.42a32.11,32.11,0,0,1,10.73,8.59,34.29,34.29,0,0,1,5.94,11.26A39.08,39.08,0,0,1,362,129.86Z"/><path class="cls-2" d="M505.08,53V28.32H393.86a12.79,12.79,0,0,0-4.94.95A11.82,11.82,0,0,0,385,31.93a12.54,12.54,0,0,0-2.61,4,12.37,12.37,0,0,0-.95,4.85v89.09q0,9.6,3.46,16.19a33.43,33.43,0,0,0,8.65,10.74,33,33,0,0,0,11.25,5.93A39.38,39.38,0,0,0,416,164.53h89.09v-24.7h-88.9q-4.94,0-7.5-2.56t-2.57-7.41V109l82.86-.13V84l-82.86,0V53Zm-99.94,48.71"/><path class="cls-2" d="M652.59,53V28.32H541.37a12.75,12.75,0,0,0-4.94.95,11.72,11.72,0,0,0-3.94,2.66,12.54,12.54,0,0,0-2.61,4,12.37,12.37,0,0,0-1,4.85V164.53h24.69V108.87h83V84h-83V53Zm-98.72,47.17"/><path class="cls-2" d="M697.42,164.53H672.73V28.32h24.69Z"/></svg>