<svg id="Layer_1" data-name="Layer 1" xmlns="http://www.w3.org/2000/svg" viewBox="0 0 715 169"><defs><style>.cls-1{fill:none;stroke:#fff;stroke-miterlimit:10;stroke-width:5px;}.cls-2{fill:#f15a24;}</style></defs><title>rusefi_color_blk</title><rect x="-100" y="-571" width="960" height="1080"/><path class="cls-1" d="M503.59,43.15V18.46H392.37a12.57,12.57,0,0,0-4.94.95,11.58,11.58,0,0,0-3.94,2.66,12.54,12.54,0,0,0-2.61,4,12.29,12.29,0,0,0-.95,4.84V120q0,9.6,3.46,16.2a32.83,32.83,0,0,0,19.9,16.67,39.69,39.69,0,0,0,11.21,1.8h89.09V130h-88.9q-4.94,0-7.5-2.57T404.62,120V99h77.86V74.12H404.62v-31Z"/><path class="cls-1" d="M651.1,43.15V18.46H539.88a12.57,12.57,0,0,0-4.94.95A11.58,11.58,0,0,0,531,22.07a12.74,12.74,0,0,0-2.62,4,12.47,12.47,0,0,0-1,4.84V154.66h24.7V99h78V74.12h-78v-31Z"/><path class="cls-1" d="M695.93,154.66H671.24V18.46h24.69Z"/><path class="cls-2" d="M105.09,77.55H49.52q-5,0-7.6,2.52c-1.71,1.67-2.56,4.13-2.56,7.36v68.1H14.66V87.43A37.19,37.19,0,0,1,16.28,76a32.17,32.17,0,0,1,4.32-8.88,29.94,29.94,0,0,1,6.22-6.56,36.25,36.25,0,0,1,7.36-4.41A38,38,0,0,1,42,53.66a36.69,36.69,0,0,1,7.36-.81h55.76Z"/><path class="cls-2" d="M233.6,143.09a12.79,12.79,0,0,1-.95,4.94A12.43,12.43,0,0,1,230,152a12.23,12.23,0,0,1-8.69,3.56H165.5a49.12,49.12,0,0,1-9.74-1.05,45.09,45.09,0,0,1-10.21-3.37,52.55,52.55,0,0,1-9.74-5.89,37.36,37.36,0,0,1-8.21-8.64A44,44,0,0,1,122,124.85a48.75,48.75,0,0,1-2.14-15v-57H144.5v57a21.65,21.65,0,0,0,1.67,8.69,20,20,0,0,0,4.51,6.6,19.54,19.54,0,0,0,6.69,4.23,23.14,23.14,0,0,0,8.32,1.47H208.9v-78h24.7Z"/><path class="cls-2" d="M356,120.86a38,38,0,0,1-1.61,11.45,33.55,33.55,0,0,1-4.28,8.92,29.06,29.06,0,0,1-6.17,6.56,36.58,36.58,0,0,1-7.36,4.42,38.81,38.81,0,0,1-7.79,2.51,37.18,37.18,0,0,1-7.46.81H254.49v-24.7h66.68q5,0,7.6-2.56t2.56-7.41q-.46-9.87-10-9.88H283.08a30.74,30.74,0,0,1-13.86-2.85A28.26,28.26,0,0,1,260,101a27,27,0,0,1-5.13-9.21,30.49,30.49,0,0,1-1.57-9.22,29.88,29.88,0,0,1,2.94-13.91,28,28,0,0,1,7.41-9.17,29.1,29.1,0,0,1,9.69-5.08,34.28,34.28,0,0,1,9.78-1.57h60.7v24.7H283.27a8.34,8.34,0,0,0-3,.43,3.39,3.39,0,0,0-1.61,1.14,3.1,3.1,0,0,0-.62,1.52,14.06,14.06,0,0,0-.1,1.56,5.89,5.89,0,0,0,.57,2.38,3,3,0,0,0,1.19,1.23,3.71,3.71,0,0,0,1.62.43c.6,0,1.18.05,1.75.05h38.28q9.5,0,16.15,3.42a32.11,32.11,0,0,1,10.73,8.59,34.29,34.29,0,0,1,5.94,11.26A39.08,39.08,0,0,1,356,120.86Z"/></svg>