G04 #@! TF.FileFunction,Paste,Top*
%FSLAX46Y46*%
G04 Gerber Fmt 4.6, Leading zero omitted, Abs format (unit mm)*
G04 Created by KiCad (PCBNEW 4.0.6) date 01/07/18 00:35:13*
%MOMM*%
%LPD*%
G01*
G04 APERTURE LIST*
%ADD10C,0.100000*%
%ADD11R,1.000000X1.250000*%
%ADD12R,1.250000X1.000000*%
%ADD13R,2.500000X2.550000*%
%ADD14R,1.000000X1.600000*%
%ADD15R,0.450000X0.600000*%
%ADD16R,1.200000X1.200000*%
%ADD17R,1.800000X2.500000*%
%ADD18R,2.500000X1.800000*%
%ADD19R,1.500000X0.600000*%
%ADD20O,0.300000X0.850000*%
%ADD21O,0.850000X0.300000*%
%ADD22R,1.005000X1.005000*%
%ADD23R,1.950000X0.600000*%
%ADD24R,0.600000X1.550000*%
%ADD25R,0.800000X0.900000*%
%ADD26R,0.900000X0.800000*%
%ADD27R,1.300000X0.700000*%
%ADD28R,0.700000X1.300000*%
%ADD29R,0.900000X1.700000*%
%ADD30R,1.700000X0.900000*%
%ADD31R,2.029460X1.140460*%
%ADD32R,0.600000X0.450000*%
%ADD33R,2.500000X4.000000*%
%ADD34R,1.600000X0.410000*%
%ADD35R,0.400000X0.650000*%
%ADD36R,0.650000X1.060000*%
%ADD37R,1.700000X1.300000*%
%ADD38R,0.690000X1.350000*%
%ADD39R,2.000000X1.000000*%
%ADD40R,1.000000X2.000000*%
%ADD41R,3.048000X1.651000*%
%ADD42R,6.096000X6.096000*%
%ADD43R,9.400000X10.800000*%
%ADD44R,4.600000X1.390000*%
%ADD45R,0.400000X1.350000*%
%ADD46R,3.657600X2.032000*%
%ADD47R,1.016000X2.032000*%
%ADD48R,3.500000X1.600000*%
G04 APERTURE END LIST*
D10*
D11*
X110125000Y-7620000D03*
X112125000Y-7620000D03*
D12*
X45720000Y-46720000D03*
X45720000Y-44720000D03*
X80010000Y-46720000D03*
X80010000Y-44720000D03*
D11*
X98155000Y-7620000D03*
X96155000Y-7620000D03*
X35195000Y-82550000D03*
X37195000Y-82550000D03*
X98155000Y-10160000D03*
X96155000Y-10160000D03*
D12*
X42545000Y-9890000D03*
X42545000Y-7890000D03*
X53975000Y-9890000D03*
X53975000Y-7890000D03*
X45720000Y-48530000D03*
X45720000Y-50530000D03*
X80010000Y-48530000D03*
X80010000Y-50530000D03*
X69215000Y-7890000D03*
X69215000Y-9890000D03*
D13*
X73025000Y-6365000D03*
X73025000Y-11415000D03*
D12*
X57150000Y-48530000D03*
X57150000Y-50530000D03*
X91440000Y-48530000D03*
X91440000Y-50530000D03*
X57150000Y-46720000D03*
X57150000Y-44720000D03*
X91440000Y-46720000D03*
X91440000Y-44720000D03*
D14*
X120420000Y-88900000D03*
X123420000Y-88900000D03*
D12*
X117475000Y-89900000D03*
X117475000Y-87900000D03*
D11*
X121555000Y-86360000D03*
X123555000Y-86360000D03*
D12*
X119380000Y-78470000D03*
X119380000Y-76470000D03*
X119380000Y-82280000D03*
X119380000Y-80280000D03*
X96520000Y-87265000D03*
X96520000Y-89265000D03*
X96520000Y-85455000D03*
X96520000Y-83455000D03*
D15*
X40640000Y-46770000D03*
X40640000Y-44670000D03*
X74930000Y-46770000D03*
X74930000Y-44670000D03*
D16*
X36195000Y-86825000D03*
X36195000Y-84625000D03*
D17*
X36195000Y-60420000D03*
X36195000Y-56420000D03*
X32385000Y-56420000D03*
X32385000Y-60420000D03*
D18*
X46260000Y-13970000D03*
X50260000Y-13970000D03*
D15*
X40640000Y-48480000D03*
X40640000Y-50580000D03*
X74930000Y-48480000D03*
X74930000Y-50580000D03*
D16*
X70020000Y-14605000D03*
X72220000Y-14605000D03*
D15*
X62230000Y-48480000D03*
X62230000Y-50580000D03*
X96520000Y-48480000D03*
X96520000Y-50580000D03*
X52705000Y-88485000D03*
X52705000Y-90585000D03*
X78105000Y-88485000D03*
X78105000Y-90585000D03*
X47625000Y-35340000D03*
X47625000Y-33240000D03*
X62230000Y-46770000D03*
X62230000Y-44670000D03*
X96520000Y-46770000D03*
X96520000Y-44670000D03*
X65405000Y-88485000D03*
X65405000Y-90585000D03*
D19*
X48735000Y-43815000D03*
X48735000Y-45085000D03*
X48735000Y-46355000D03*
X48735000Y-47625000D03*
X48735000Y-48895000D03*
X48735000Y-50165000D03*
X48735000Y-51435000D03*
X54135000Y-51435000D03*
X54135000Y-50165000D03*
X54135000Y-48895000D03*
X54135000Y-47625000D03*
X54135000Y-46355000D03*
X54135000Y-45085000D03*
X54135000Y-43815000D03*
D20*
X105640000Y-12790000D03*
X105140000Y-12790000D03*
X104640000Y-12790000D03*
X104140000Y-12790000D03*
X103640000Y-12790000D03*
X103140000Y-12790000D03*
X102640000Y-12790000D03*
D21*
X101690000Y-13740000D03*
X101690000Y-14240000D03*
X101690000Y-14740000D03*
X101690000Y-15240000D03*
X101690000Y-15740000D03*
X101690000Y-16240000D03*
X101690000Y-16740000D03*
D20*
X102640000Y-17690000D03*
X103140000Y-17690000D03*
X103640000Y-17690000D03*
X104140000Y-17690000D03*
X104640000Y-17690000D03*
X105140000Y-17690000D03*
X105640000Y-17690000D03*
D21*
X106590000Y-16740000D03*
X106590000Y-16240000D03*
X106590000Y-15740000D03*
X106590000Y-15240000D03*
X106590000Y-14740000D03*
X106590000Y-14240000D03*
X106590000Y-13740000D03*
D22*
X103302500Y-16077500D03*
X104977500Y-16077500D03*
X103302500Y-14402500D03*
X104977500Y-14402500D03*
D19*
X83025000Y-43815000D03*
X83025000Y-45085000D03*
X83025000Y-46355000D03*
X83025000Y-47625000D03*
X83025000Y-48895000D03*
X83025000Y-50165000D03*
X83025000Y-51435000D03*
X88425000Y-51435000D03*
X88425000Y-50165000D03*
X88425000Y-48895000D03*
X88425000Y-47625000D03*
X88425000Y-46355000D03*
X88425000Y-45085000D03*
X88425000Y-43815000D03*
D23*
X113920000Y-89535000D03*
X113920000Y-88265000D03*
X113920000Y-86995000D03*
X113920000Y-85725000D03*
X113920000Y-84455000D03*
X113920000Y-83185000D03*
X113920000Y-81915000D03*
X113920000Y-80645000D03*
X113920000Y-79375000D03*
X113920000Y-78105000D03*
X104520000Y-78105000D03*
X104520000Y-79375000D03*
X104520000Y-80645000D03*
X104520000Y-81915000D03*
X104520000Y-83185000D03*
X104520000Y-84455000D03*
X104520000Y-85725000D03*
X104520000Y-86995000D03*
X104520000Y-88265000D03*
X104520000Y-89535000D03*
D24*
X43815000Y-81755000D03*
X42545000Y-81755000D03*
X41275000Y-81755000D03*
X40005000Y-81755000D03*
X40005000Y-87155000D03*
X41275000Y-87155000D03*
X42545000Y-87155000D03*
X43815000Y-87155000D03*
X90805000Y-81120000D03*
X89535000Y-81120000D03*
X88265000Y-81120000D03*
X86995000Y-81120000D03*
X86995000Y-86520000D03*
X88265000Y-86520000D03*
X89535000Y-86520000D03*
X90805000Y-86520000D03*
D25*
X56830000Y-88535000D03*
X54930000Y-88535000D03*
X55880000Y-90535000D03*
X82230000Y-88535000D03*
X80330000Y-88535000D03*
X81280000Y-90535000D03*
D26*
X52435000Y-35240000D03*
X52435000Y-33340000D03*
X50435000Y-34290000D03*
D25*
X69530000Y-88535000D03*
X67630000Y-88535000D03*
X68580000Y-90535000D03*
D27*
X35560000Y-46670000D03*
X35560000Y-44770000D03*
X69850000Y-46670000D03*
X69850000Y-44770000D03*
D28*
X25080000Y-59055000D03*
X23180000Y-59055000D03*
D27*
X38100000Y-44770000D03*
X38100000Y-46670000D03*
X72390000Y-44770000D03*
X72390000Y-46670000D03*
D28*
X110175000Y-10160000D03*
X112075000Y-10160000D03*
D27*
X36195000Y-90485000D03*
X36195000Y-88585000D03*
X43180000Y-44770000D03*
X43180000Y-46670000D03*
X77470000Y-44770000D03*
X77470000Y-46670000D03*
D28*
X25080000Y-49530000D03*
X23180000Y-49530000D03*
X25080000Y-40005000D03*
X23180000Y-40005000D03*
D27*
X50165000Y-41590000D03*
X50165000Y-39690000D03*
X84455000Y-41590000D03*
X84455000Y-39690000D03*
D28*
X25080000Y-30480000D03*
X23180000Y-30480000D03*
D27*
X47625000Y-39690000D03*
X47625000Y-41590000D03*
X81915000Y-39690000D03*
X81915000Y-41590000D03*
X35560000Y-48580000D03*
X35560000Y-50480000D03*
X69850000Y-48580000D03*
X69850000Y-50480000D03*
D28*
X25080000Y-20955000D03*
X23180000Y-20955000D03*
D27*
X38100000Y-50480000D03*
X38100000Y-48580000D03*
X72390000Y-50480000D03*
X72390000Y-48580000D03*
X43180000Y-50480000D03*
X43180000Y-48580000D03*
X77470000Y-50480000D03*
X77470000Y-48580000D03*
D28*
X25080000Y-11430000D03*
X23180000Y-11430000D03*
X110175000Y-12700000D03*
X112075000Y-12700000D03*
X112075000Y-15240000D03*
X110175000Y-15240000D03*
X68260000Y-14605000D03*
X66360000Y-14605000D03*
X122240000Y-83820000D03*
X124140000Y-83820000D03*
X126050000Y-83820000D03*
X127950000Y-83820000D03*
X25080000Y-78105000D03*
X23180000Y-78105000D03*
D27*
X50165000Y-53660000D03*
X50165000Y-55560000D03*
X84455000Y-53660000D03*
X84455000Y-55560000D03*
X47625000Y-55560000D03*
X47625000Y-53660000D03*
X81915000Y-55560000D03*
X81915000Y-53660000D03*
D28*
X122240000Y-71120000D03*
X124140000Y-71120000D03*
X126050000Y-71120000D03*
X127950000Y-71120000D03*
X25080000Y-68580000D03*
X23180000Y-68580000D03*
D27*
X67310000Y-48580000D03*
X67310000Y-50480000D03*
X101600000Y-48580000D03*
X101600000Y-50480000D03*
X64770000Y-50480000D03*
X64770000Y-48580000D03*
X99060000Y-50480000D03*
X99060000Y-48580000D03*
D28*
X122240000Y-58420000D03*
X124140000Y-58420000D03*
X126050000Y-58420000D03*
X127950000Y-58420000D03*
D27*
X59690000Y-50480000D03*
X59690000Y-48580000D03*
X93980000Y-50480000D03*
X93980000Y-48580000D03*
X55880000Y-86675000D03*
X55880000Y-84775000D03*
D28*
X122240000Y-45720000D03*
X124140000Y-45720000D03*
X126050000Y-45720000D03*
X127950000Y-45720000D03*
D27*
X81280000Y-86675000D03*
X81280000Y-84775000D03*
D28*
X122240000Y-33020000D03*
X124140000Y-33020000D03*
X126050000Y-33020000D03*
X127950000Y-33020000D03*
D27*
X52705000Y-53660000D03*
X52705000Y-55560000D03*
X86995000Y-53660000D03*
X86995000Y-55560000D03*
X55245000Y-35240000D03*
X55245000Y-33340000D03*
D28*
X122240000Y-20320000D03*
X124140000Y-20320000D03*
X126050000Y-20320000D03*
X127950000Y-20320000D03*
D27*
X55245000Y-55560000D03*
X55245000Y-53660000D03*
X89535000Y-55560000D03*
X89535000Y-53660000D03*
X67310000Y-46670000D03*
X67310000Y-44770000D03*
X104140000Y-44770000D03*
X104140000Y-46670000D03*
X101600000Y-46670000D03*
X101600000Y-44770000D03*
X64770000Y-44770000D03*
X64770000Y-46670000D03*
X99060000Y-44770000D03*
X99060000Y-46670000D03*
X59690000Y-44770000D03*
X59690000Y-46670000D03*
X93980000Y-44770000D03*
X93980000Y-46670000D03*
X117475000Y-80330000D03*
X117475000Y-82230000D03*
X119380000Y-84140000D03*
X119380000Y-86040000D03*
X52705000Y-41590000D03*
X52705000Y-39690000D03*
X86995000Y-41590000D03*
X86995000Y-39690000D03*
X117475000Y-86040000D03*
X117475000Y-84140000D03*
X117475000Y-76520000D03*
X117475000Y-78420000D03*
X55245000Y-39690000D03*
X55245000Y-41590000D03*
X89535000Y-39690000D03*
X89535000Y-41590000D03*
X117475000Y-74610000D03*
X117475000Y-72710000D03*
X101600000Y-87315000D03*
X101600000Y-89215000D03*
X101600000Y-83505000D03*
X101600000Y-85405000D03*
X46355000Y-83505000D03*
X46355000Y-85405000D03*
X99060000Y-87315000D03*
X99060000Y-89215000D03*
X99060000Y-85405000D03*
X99060000Y-83505000D03*
D29*
X45900000Y-90170000D03*
X43000000Y-90170000D03*
D27*
X68580000Y-86675000D03*
X68580000Y-84775000D03*
D29*
X89990000Y-90170000D03*
X92890000Y-90170000D03*
D30*
X86995000Y-7190000D03*
X86995000Y-10590000D03*
D31*
X60960000Y-90103960D03*
X60960000Y-87696040D03*
X48260000Y-90103960D03*
X48260000Y-87696040D03*
D28*
X19370000Y-59055000D03*
X21270000Y-59055000D03*
X19370000Y-49530000D03*
X21270000Y-49530000D03*
X19370000Y-40005000D03*
X21270000Y-40005000D03*
X19370000Y-30480000D03*
X21270000Y-30480000D03*
X19370000Y-20955000D03*
X21270000Y-20955000D03*
X19370000Y-11430000D03*
X21270000Y-11430000D03*
D12*
X79375000Y-65675000D03*
X79375000Y-67675000D03*
D11*
X74660000Y-60960000D03*
X72660000Y-60960000D03*
D12*
X79375000Y-61865000D03*
X79375000Y-63865000D03*
D15*
X71755000Y-88485000D03*
X71755000Y-90585000D03*
D25*
X75880000Y-88535000D03*
X73980000Y-88535000D03*
X74930000Y-90535000D03*
D27*
X65405000Y-65466000D03*
X65405000Y-63566000D03*
D28*
X81600000Y-67945000D03*
X83500000Y-67945000D03*
X19370000Y-87630000D03*
X21270000Y-87630000D03*
X25080000Y-87630000D03*
X23180000Y-87630000D03*
X81600000Y-62865000D03*
X83500000Y-62865000D03*
D27*
X89535000Y-57470000D03*
X89535000Y-59370000D03*
D29*
X87810000Y-90170000D03*
X84910000Y-90170000D03*
D27*
X73660000Y-86675000D03*
X73660000Y-84775000D03*
X67945000Y-65466000D03*
X67945000Y-63566000D03*
D28*
X19370000Y-78105000D03*
X21270000Y-78105000D03*
X19370000Y-68580000D03*
X21270000Y-68580000D03*
D12*
X41910000Y-62500000D03*
X41910000Y-64500000D03*
X48260000Y-64500000D03*
X48260000Y-62500000D03*
D32*
X39590000Y-69215000D03*
X41690000Y-69215000D03*
D28*
X43500000Y-66675000D03*
X45400000Y-66675000D03*
X41590000Y-66675000D03*
X39690000Y-66675000D03*
D27*
X39370000Y-64450000D03*
X39370000Y-62550000D03*
X46990000Y-60005000D03*
X46990000Y-58105000D03*
X44450000Y-58105000D03*
X44450000Y-60005000D03*
D33*
X36195000Y-14160000D03*
X36195000Y-6160000D03*
X60325000Y-14160000D03*
X60325000Y-6160000D03*
D34*
X71005700Y-62547500D03*
X71005700Y-63182500D03*
X71005700Y-63817500D03*
X71005700Y-64452500D03*
X71005700Y-65087500D03*
X71005700Y-65722500D03*
X71005700Y-66357500D03*
X71005700Y-66992500D03*
X76314300Y-66992500D03*
X76314300Y-66357500D03*
X76314300Y-65722500D03*
X76314300Y-65087500D03*
X76314300Y-64452500D03*
X76314300Y-63817500D03*
X76314300Y-63182500D03*
X76314300Y-62547500D03*
D35*
X45735000Y-61915000D03*
X44435000Y-61915000D03*
X45085000Y-61915000D03*
X44435000Y-63815000D03*
X45735000Y-63815000D03*
D27*
X91821000Y-57470000D03*
X91821000Y-59370000D03*
D36*
X32700000Y-65194000D03*
X31750000Y-65194000D03*
X30800000Y-65194000D03*
X30800000Y-67394000D03*
X32700000Y-67394000D03*
D37*
X39370000Y-60170000D03*
X39370000Y-56670000D03*
X41910000Y-56670000D03*
X41910000Y-60170000D03*
D38*
X114300000Y-20904000D03*
X113030000Y-20904000D03*
X111760000Y-20904000D03*
X110490000Y-20904000D03*
X110490000Y-30734000D03*
X111760000Y-30734000D03*
X113030000Y-30734000D03*
X114300000Y-30734000D03*
D39*
X105410000Y-48260000D03*
X105410000Y-49760000D03*
X105410000Y-51260000D03*
X105410000Y-52760000D03*
X105410000Y-54260000D03*
X105410000Y-55760000D03*
X105410000Y-57260000D03*
X105410000Y-58760000D03*
X105410000Y-60260000D03*
X105410000Y-61760000D03*
X105410000Y-63260000D03*
X105410000Y-64760000D03*
X105410000Y-66260000D03*
D40*
X106910000Y-68260000D03*
X108410000Y-68260000D03*
X109910000Y-68260000D03*
X111410000Y-68260000D03*
X112910000Y-68260000D03*
X114410000Y-68260000D03*
X115910000Y-68260000D03*
X117410000Y-68260000D03*
D39*
X118910000Y-66260000D03*
X118910000Y-64760000D03*
X118910000Y-63260000D03*
X118910000Y-61760000D03*
X118910000Y-60260000D03*
X118910000Y-58760000D03*
X118910000Y-57260000D03*
X118910000Y-55760000D03*
X118910000Y-54260000D03*
X118910000Y-52760000D03*
X118910000Y-51260000D03*
X118910000Y-49760000D03*
X118910000Y-48260000D03*
D38*
X78105000Y-14021000D03*
X79375000Y-14021000D03*
X80645000Y-14021000D03*
X81915000Y-14021000D03*
X81915000Y-4191000D03*
X80645000Y-4191000D03*
X79375000Y-4191000D03*
X78105000Y-4191000D03*
D27*
X66675000Y-9840000D03*
X66675000Y-7940000D03*
D41*
X20320000Y-89916000D03*
D42*
X13970000Y-87630000D03*
D41*
X20320000Y-85344000D03*
X20320000Y-61341000D03*
D42*
X13970000Y-59055000D03*
D41*
X20320000Y-56769000D03*
X20320000Y-51816000D03*
D42*
X13970000Y-49530000D03*
D41*
X20320000Y-47244000D03*
X20320000Y-42291000D03*
D42*
X13970000Y-40005000D03*
D41*
X20320000Y-37719000D03*
X20320000Y-32766000D03*
D42*
X13970000Y-30480000D03*
D41*
X20320000Y-28194000D03*
X20320000Y-23241000D03*
D42*
X13970000Y-20955000D03*
D41*
X20320000Y-18669000D03*
X20320000Y-13716000D03*
D42*
X13970000Y-11430000D03*
D41*
X20320000Y-9144000D03*
D43*
X136660000Y-83820000D03*
D44*
X127500000Y-86360000D03*
X127500000Y-81280000D03*
D41*
X20320000Y-80391000D03*
D42*
X13970000Y-78105000D03*
D41*
X20320000Y-75819000D03*
D43*
X136660000Y-71120000D03*
D44*
X127500000Y-73660000D03*
X127500000Y-68580000D03*
D41*
X20320000Y-70866000D03*
D42*
X13970000Y-68580000D03*
D41*
X20320000Y-66294000D03*
D43*
X136660000Y-58420000D03*
D44*
X127500000Y-60960000D03*
X127500000Y-55880000D03*
D43*
X136660000Y-45720000D03*
D44*
X127500000Y-48260000D03*
X127500000Y-43180000D03*
D43*
X136660000Y-33020000D03*
D44*
X127500000Y-35560000D03*
X127500000Y-30480000D03*
D43*
X136660000Y-20320000D03*
D44*
X127500000Y-22860000D03*
X127500000Y-17780000D03*
D45*
X105440000Y-3890000D03*
X104790000Y-3890000D03*
X104140000Y-3890000D03*
X103490000Y-3890000D03*
X102840000Y-3890000D03*
D46*
X48260000Y-3683000D03*
D47*
X48260000Y-10287000D03*
X50546000Y-10287000D03*
X45974000Y-10287000D03*
D48*
X32385000Y-85190000D03*
X32385000Y-90070000D03*
M02*
