M48
;DRILL file {KiCad 4.0.6} date 01/07/18 00:35:16
;FORMAT={-:-/ absolute / metric / decimal}
FMAT,2
METRIC,TZ
T1C0.300
T2C0.356
T3C0.400
T4C0.500
T5C0.550
T6C1.000
T7C1.016
T8C1.168
T9C1.321
T10C4.500
%
G90
G05
M71
T1
X12.065Y-9.525
X12.065Y-11.43
X12.065Y-13.335
X12.065Y-19.05
X12.065Y-20.955
X12.065Y-22.86
X12.065Y-28.575
X12.065Y-30.48
X12.065Y-32.385
X12.065Y-38.1
X12.065Y-40.005
X12.065Y-41.91
X12.065Y-47.625
X12.065Y-49.53
X12.065Y-51.435
X12.065Y-57.15
X12.065Y-59.055
X12.065Y-60.96
X12.065Y-66.675
X12.065Y-68.58
X12.065Y-70.485
X12.065Y-76.2
X12.065Y-78.105
X12.065Y-80.01
X12.065Y-85.725
X12.065Y-87.63
X12.065Y-89.535
X13.97Y-9.525
X13.97Y-11.43
X13.97Y-13.335
X13.97Y-19.05
X13.97Y-20.955
X13.97Y-22.86
X13.97Y-28.575
X13.97Y-30.48
X13.97Y-32.385
X13.97Y-38.1
X13.97Y-40.005
X13.97Y-41.91
X13.97Y-47.625
X13.97Y-49.53
X13.97Y-51.435
X13.97Y-57.15
X13.97Y-59.055
X13.97Y-60.96
X13.97Y-66.675
X13.97Y-68.58
X13.97Y-70.485
X13.97Y-76.2
X13.97Y-78.105
X13.97Y-80.01
X13.97Y-85.725
X13.97Y-87.63
X13.97Y-89.535
X15.875Y-9.525
X15.875Y-11.43
X15.875Y-13.335
X15.875Y-19.05
X15.875Y-20.955
X15.875Y-22.86
X15.875Y-28.575
X15.875Y-30.48
X15.875Y-32.385
X15.875Y-38.1
X15.875Y-40.005
X15.875Y-41.91
X15.875Y-47.625
X15.875Y-49.53
X15.875Y-51.435
X15.875Y-57.15
X15.875Y-59.055
X15.875Y-60.96
X15.875Y-66.675
X15.875Y-68.58
X15.875Y-70.485
X15.875Y-76.2
X15.875Y-78.105
X15.875Y-80.01
X15.875Y-85.725
X15.875Y-87.63
X15.875Y-89.535
X45.72Y-2.54
X45.72Y-3.81
X45.72Y-5.08
X46.99Y-5.08
X48.26Y-5.08
X49.53Y-5.08
X50.8Y-2.54
X50.8Y-3.81
X50.8Y-5.08
T2
X133.58Y-17.82
X133.58Y-20.32
X133.58Y-22.82
X133.58Y-30.52
X133.58Y-33.02
X133.58Y-35.52
X133.58Y-43.22
X133.58Y-45.72
X133.58Y-48.22
X133.58Y-55.92
X133.58Y-58.42
X133.58Y-60.92
X133.58Y-68.62
X133.58Y-71.12
X133.58Y-73.62
X133.58Y-81.32
X133.58Y-83.82
X133.58Y-86.32
X136.58Y-17.82
X136.58Y-20.32
X136.58Y-22.82
X136.58Y-30.52
X136.58Y-33.02
X136.58Y-35.52
X136.58Y-43.22
X136.58Y-45.72
X136.58Y-48.22
X136.58Y-55.92
X136.58Y-58.42
X136.58Y-60.92
X136.58Y-68.62
X136.58Y-71.12
X136.58Y-73.62
X136.58Y-81.32
X136.58Y-83.82
X136.58Y-86.32
X139.58Y-17.82
X139.58Y-20.32
X139.58Y-22.82
X139.58Y-30.52
X139.58Y-33.02
X139.58Y-35.52
X139.58Y-43.22
X139.58Y-45.72
X139.58Y-48.22
X139.58Y-55.92
X139.58Y-58.42
X139.58Y-60.92
X139.58Y-68.62
X139.58Y-71.12
X139.58Y-73.62
X139.58Y-81.32
X139.58Y-83.82
X139.58Y-86.32
T3
X25.08Y-87.63
X25.146Y-11.43
X25.146Y-20.955
X25.146Y-30.48
X25.146Y-59.055
X25.146Y-78.105
X25.527Y-49.53
X26.035Y-40.005
X26.67Y-66.04
X28.956Y-39.751
X31.75Y-63.627
X31.75Y-68.326
X33.274Y-95.885
X34.29Y-97.79
X34.925Y-98.425
X35.814Y-98.425
X37.195Y-82.55
X38.1Y-44.77
X38.1Y-50.48
X39.624Y-41.656
X40.275Y-79.375
X41.148Y-40.64
X41.275Y-85.598
X41.91Y-78.74
X43.Y-90.17
X43.815Y-81.755
X43.942Y-69.596
X44.196Y-74.993
X44.958Y-85.852
X45.72Y-45.72
X45.72Y-49.53
X45.9Y-90.17
X45.974Y-79.502
X46.355Y-83.505
X47.625Y-36.195
X48.26Y-63.5
X48.26Y-90.739
X48.26Y-96.774
X49.022Y-58.166
X49.276Y-26.924
X50.419Y-81.661
X50.435Y-47.625
X50.673Y-71.12
X51.181Y-20.32
X51.689Y-58.674
X52.435Y-33.34
X52.435Y-47.625
X52.451Y-99.06
X53.34Y-83.693
X54.356Y-20.701
X54.61Y-58.674
X54.93Y-88.535
X55.245Y-34.29
X55.88Y-83.82
X56.134Y-47.625
X56.769Y-71.501
X57.15Y-45.72
X57.404Y-90.297
X57.785Y-49.53
X58.039Y-81.534
X58.42Y-43.434
X59.309Y-83.947
X59.436Y-85.344
X60.833Y-64.389
X60.96Y-59.055
X62.992Y-95.504
X63.119Y-85.852
X63.5Y-43.18
X64.516Y-79.502
X64.516Y-95.504
X64.77Y-44.77
X65.405Y-55.245
X65.405Y-56.515
X66.04Y-43.18
X66.675Y-7.089
X66.675Y-10.795
X66.675Y-37.338
X66.802Y-74.93
X67.31Y-28.575
X67.31Y-48.58
X67.31Y-92.71
X67.564Y-58.674
X67.691Y-37.338
X67.945Y-62.23
X67.945Y-65.405
X68.58Y-84.775
X68.58Y-90.551
X69.215Y-57.15
X69.85Y-92.71
X72.39Y-44.77
X72.39Y-49.53
X72.39Y-53.594
X73.66Y-64.77
X73.66Y-66.04
X73.66Y-84.709
X73.98Y-88.535
X74.041Y-52.578
X74.66Y-60.96
X77.216Y-20.447
X78.486Y-80.264
X80.33Y-88.535
X80.645Y-15.621
X81.28Y-84.775
X81.28Y-89.662
X82.55Y-67.945
X84.455Y-80.645
X84.725Y-47.625
X85.09Y-72.517
X85.725Y-59.69
X85.725Y-60.706
X86.725Y-47.625
X88.138Y-107.315
X88.265Y-82.82
X88.265Y-84.82
X91.44Y-90.17
X93.002Y-100.216
X93.726Y-80.391
X94.234Y-67.945
X99.06Y-49.53
X101.6Y-45.72
X101.854Y-96.774
X102.108Y-103.251
X102.616Y-5.842
X103.302Y-14.402
X103.302Y-16.078
X103.505Y-5.842
X104.14Y-45.72
X104.775Y-5.842
X104.977Y-14.402
X104.977Y-16.078
X106.045Y-24.13
X106.553Y-17.653
X107.315Y-27.305
X107.315Y-28.575
X109.347Y-101.6
X110.109Y-15.24
X112.649Y-101.6
X113.03Y-91.186
X117.475Y-82.23
X117.475Y-89.916
X123.825Y-27.305
X125.095Y-27.305
X132.08Y-90.17
X132.08Y-91.44
X133.35Y-90.17
X133.35Y-91.44
X133.35Y-92.71
X134.62Y-90.17
X134.62Y-91.44
X138.43Y-90.17
X138.43Y-91.44
X139.7Y-90.17
X139.7Y-91.44
X139.7Y-92.71
X140.97Y-90.17
X140.97Y-91.44
T6
X45.72Y-17.145
X48.26Y-17.145
X50.8Y-17.145
X52.07Y-30.48
X118.11Y-11.43
X118.11Y-13.97
X118.11Y-16.51
X118.11Y-19.05
X118.11Y-21.59
X118.11Y-24.13
T7
X35.29Y-22.91
X35.29Y-25.45
X35.29Y-73.71
X35.29Y-76.25
X37.83Y-22.91
X37.83Y-25.45
X37.83Y-73.71
X37.83Y-76.25
X40.37Y-22.91
X40.37Y-25.45
X40.37Y-73.71
X40.37Y-76.25
X42.91Y-22.91
X42.91Y-25.45
X42.91Y-73.71
X42.91Y-76.25
X45.45Y-22.91
X45.45Y-25.45
X45.45Y-73.71
X45.45Y-76.25
X47.99Y-22.91
X47.99Y-25.45
X47.99Y-73.71
X47.99Y-76.25
X50.53Y-22.91
X50.53Y-25.45
X50.53Y-73.71
X50.53Y-76.25
X53.07Y-22.91
X53.07Y-25.45
X53.07Y-73.71
X53.07Y-76.25
X55.61Y-22.91
X55.61Y-25.45
X55.61Y-73.71
X55.61Y-76.25
X58.15Y-22.91
X58.15Y-25.45
X58.15Y-73.71
X58.15Y-76.25
X60.69Y-22.91
X60.69Y-25.45
X60.69Y-73.71
X60.69Y-76.25
X63.23Y-22.91
X63.23Y-25.45
X63.23Y-73.71
X63.23Y-76.25
X65.77Y-22.91
X65.77Y-25.45
X65.77Y-73.71
X65.77Y-76.25
X68.31Y-22.91
X68.31Y-25.45
X68.31Y-73.71
X68.31Y-76.25
X70.85Y-22.91
X70.85Y-25.45
X70.85Y-73.71
X70.85Y-76.25
X73.39Y-22.91
X73.39Y-25.45
X73.39Y-73.71
X73.39Y-76.25
X75.93Y-22.91
X75.93Y-25.45
X75.93Y-73.71
X75.93Y-76.25
X78.47Y-22.91
X78.47Y-25.45
X78.47Y-73.71
X78.47Y-76.25
X81.01Y-22.91
X81.01Y-25.45
X81.01Y-73.71
X81.01Y-76.25
X83.55Y-22.91
X83.55Y-25.45
X83.55Y-73.71
X83.55Y-76.25
X86.09Y-22.91
X86.09Y-25.45
X86.09Y-73.71
X86.09Y-76.25
X88.63Y-22.91
X88.63Y-25.45
X88.63Y-73.71
X88.63Y-76.25
X91.17Y-22.91
X91.17Y-25.45
X91.17Y-73.71
X91.17Y-76.25
X93.71Y-22.91
X93.71Y-25.45
X93.71Y-73.71
X93.71Y-76.25
X96.25Y-22.91
X96.25Y-25.45
X96.25Y-73.71
X96.25Y-76.25
T8
X135.89Y-97.79
T9
X15.492Y-108.5
X17.992Y-105.
X19.992Y-101.
X20.492Y-108.5
X22.992Y-101.
X22.992Y-105.
X25.492Y-108.5
X26.292Y-101.
X27.992Y-105.
X29.692Y-101.
X30.492Y-108.5
X32.992Y-101.
X32.992Y-105.
X35.492Y-108.5
X36.092Y-101.
X37.992Y-105.
X39.392Y-101.
X40.492Y-108.5
X42.492Y-101.
X42.992Y-105.
X45.492Y-108.5
X45.792Y-101.
X48.292Y-105.
X48.992Y-101.
X50.692Y-108.5
X52.292Y-101.
X52.292Y-105.
X53.892Y-108.5
X55.592Y-101.
X55.592Y-105.
X57.292Y-108.5
X58.892Y-101.
X58.892Y-105.
X60.492Y-108.5
X62.092Y-101.
X62.092Y-105.
X63.692Y-108.5
X65.342Y-101.
X65.342Y-105.
X66.992Y-108.5
X68.592Y-101.
X68.592Y-105.
X70.192Y-108.5
X71.842Y-101.
X71.842Y-105.
X73.492Y-108.5
X75.092Y-101.
X75.092Y-105.
X76.692Y-108.5
X78.342Y-101.
X78.342Y-105.
X79.992Y-108.5
X81.642Y-101.
X81.642Y-105.
X83.292Y-108.5
X84.892Y-101.
X84.892Y-105.
X86.492Y-108.5
X88.092Y-101.
X88.092Y-105.
X89.692Y-108.5
X91.342Y-101.
X91.342Y-105.
X92.992Y-108.5
X94.642Y-101.
X94.642Y-105.
X96.292Y-108.5
X97.992Y-101.
X98.792Y-105.
X101.092Y-101.
X101.292Y-108.5
X103.792Y-105.
X104.392Y-101.
X106.292Y-108.5
X107.692Y-101.
X108.792Y-105.
X110.992Y-101.
X111.292Y-108.5
X113.792Y-105.
X114.192Y-101.
X116.292Y-108.5
X117.292Y-101.
X118.792Y-105.
X120.492Y-101.
X121.292Y-108.5
X123.792Y-101.
X123.792Y-105.
X126.292Y-108.5
T10
X5.Y-5.
X5.Y-112.
X140.Y-5.
X140.Y-112.
T4
X100.64Y-0.865G85X100.64Y-1.515
G05
X107.64Y-0.865G85X107.64Y-1.515
G05
T5
X101.79Y-3.89G85X101.49Y-3.89
G05
X106.79Y-3.89G85X106.49Y-3.89
G05
T0
M30
