G04 (created by PCBNEW (2013-07-07 BZR 4022)-stable) date 02/09/2014 18:49:16*
%MOIN*%
G04 Gerber Fmt 3.4, Leading zero omitted, Abs format*
%FSLAX34Y34*%
G01*
G70*
G90*
G04 APERTURE LIST*
%ADD10C,0.00393701*%
%ADD11R,0.068X0.068*%
%ADD12O,0.068X0.068*%
%ADD13R,0.055X0.055*%
%ADD14C,0.055*%
%ADD15R,0.035X0.055*%
%ADD16R,0.055X0.035*%
%ADD17R,0.045X0.02*%
%ADD18R,0.06X0.06*%
%ADD19R,0.09X0.062*%
%ADD20O,0.09X0.062*%
G04 APERTURE END LIST*
G54D10*
G54D11*
X49000Y-24500D03*
G54D12*
X50000Y-24500D03*
X49000Y-25500D03*
X50000Y-25500D03*
X49000Y-26500D03*
X50000Y-26500D03*
X49000Y-27500D03*
X50000Y-27500D03*
X49000Y-28500D03*
X50000Y-28500D03*
X49000Y-29500D03*
X50000Y-29500D03*
X49000Y-30500D03*
X50000Y-30500D03*
X49000Y-31500D03*
X50000Y-31500D03*
X49000Y-32500D03*
X50000Y-32500D03*
X49000Y-33500D03*
X50000Y-33500D03*
G54D11*
X69000Y-25500D03*
G54D12*
X70000Y-25500D03*
X69000Y-26500D03*
X70000Y-26500D03*
X69000Y-27500D03*
X70000Y-27500D03*
X69000Y-28500D03*
X70000Y-28500D03*
X69000Y-29500D03*
X70000Y-29500D03*
X69000Y-30500D03*
X70000Y-30500D03*
X69000Y-31500D03*
X70000Y-31500D03*
X69000Y-32500D03*
X70000Y-32500D03*
X69000Y-33500D03*
X70000Y-33500D03*
X69000Y-34500D03*
X70000Y-34500D03*
G54D13*
X51000Y-24500D03*
G54D14*
X51000Y-25500D03*
X51000Y-26500D03*
X51000Y-27500D03*
X51000Y-28500D03*
X51000Y-29500D03*
X51000Y-30500D03*
X51000Y-31500D03*
X51000Y-32500D03*
X51000Y-33500D03*
G54D13*
X48000Y-33500D03*
G54D14*
X48000Y-32500D03*
X48000Y-31500D03*
X48000Y-30500D03*
X48000Y-29500D03*
X48000Y-28500D03*
X48000Y-27500D03*
X48000Y-26500D03*
X48000Y-25500D03*
X48000Y-24500D03*
G54D13*
X71000Y-25500D03*
G54D14*
X71000Y-26500D03*
X71000Y-27500D03*
X71000Y-28500D03*
X71000Y-29500D03*
X71000Y-30500D03*
X71000Y-31500D03*
X71000Y-32500D03*
X71000Y-33500D03*
X71000Y-34500D03*
G54D13*
X68000Y-34500D03*
G54D14*
X68000Y-33500D03*
X68000Y-32500D03*
X68000Y-31500D03*
X68000Y-30500D03*
X68000Y-29500D03*
X68000Y-28500D03*
X68000Y-27500D03*
X68000Y-26500D03*
X68000Y-25500D03*
G54D13*
X58500Y-25000D03*
G54D14*
X58500Y-24000D03*
G54D13*
X52000Y-33500D03*
G54D14*
X52000Y-34500D03*
G54D13*
X59500Y-25000D03*
G54D14*
X59500Y-24000D03*
G54D15*
X75725Y-34450D03*
X76475Y-34450D03*
X76725Y-28950D03*
X75975Y-28950D03*
G54D16*
X75850Y-32325D03*
X75850Y-31575D03*
X75850Y-30825D03*
X75850Y-30075D03*
X76850Y-28075D03*
X76850Y-27325D03*
X76850Y-26575D03*
X76850Y-25825D03*
X76850Y-31075D03*
X76850Y-30325D03*
X76850Y-33575D03*
X76850Y-32825D03*
X75850Y-33825D03*
X75850Y-33075D03*
X43750Y-26125D03*
X43750Y-25375D03*
X43750Y-27625D03*
X43750Y-26875D03*
X42750Y-30125D03*
X42750Y-29375D03*
X42750Y-31625D03*
X42750Y-30875D03*
G54D15*
X43625Y-28500D03*
X42875Y-28500D03*
X42625Y-34000D03*
X43375Y-34000D03*
G54D16*
X43750Y-30625D03*
X43750Y-29875D03*
X43750Y-33125D03*
X43750Y-32375D03*
X42750Y-33125D03*
X42750Y-32375D03*
G54D15*
X64875Y-30000D03*
X64125Y-30000D03*
X60625Y-27000D03*
X61375Y-27000D03*
X60625Y-26000D03*
X61375Y-26000D03*
X65625Y-27000D03*
X66375Y-27000D03*
X65625Y-26000D03*
X66375Y-26000D03*
G54D17*
X62200Y-29000D03*
X62200Y-28500D03*
X62200Y-28000D03*
X62200Y-27500D03*
X62200Y-27000D03*
X62200Y-26500D03*
X62200Y-26000D03*
X64700Y-26000D03*
X64700Y-26500D03*
X64700Y-27500D03*
X64700Y-28000D03*
X64700Y-28500D03*
X64700Y-29000D03*
X64700Y-27000D03*
G54D15*
X56875Y-30000D03*
X56125Y-30000D03*
X52625Y-27000D03*
X53375Y-27000D03*
X52625Y-26000D03*
X53375Y-26000D03*
X57625Y-27000D03*
X58375Y-27000D03*
X57625Y-26000D03*
X58375Y-26000D03*
G54D17*
X54200Y-29000D03*
X54200Y-28500D03*
X54200Y-28000D03*
X54200Y-27500D03*
X54200Y-27000D03*
X54200Y-26500D03*
X54200Y-26000D03*
X56700Y-26000D03*
X56700Y-26500D03*
X56700Y-27500D03*
X56700Y-28000D03*
X56700Y-28500D03*
X56700Y-29000D03*
X56700Y-27000D03*
G54D18*
X46250Y-33750D03*
X73850Y-31200D03*
X78850Y-27200D03*
X73850Y-27200D03*
X73850Y-30200D03*
X73850Y-28200D03*
X73850Y-29200D03*
X40750Y-28750D03*
X40750Y-30750D03*
X45750Y-26750D03*
X40750Y-26750D03*
X40750Y-29750D03*
X40750Y-27750D03*
X52250Y-24000D03*
X60500Y-25000D03*
X64500Y-24000D03*
X64500Y-25000D03*
X62500Y-25000D03*
X62500Y-24000D03*
X56500Y-24000D03*
X56500Y-25000D03*
X60500Y-28500D03*
X66500Y-28500D03*
X53250Y-28500D03*
X52250Y-25000D03*
X61500Y-24000D03*
X61500Y-25000D03*
X65500Y-24000D03*
X65500Y-25000D03*
X53500Y-24000D03*
X53500Y-25000D03*
X67000Y-33500D03*
X63000Y-33500D03*
X62000Y-33500D03*
X58000Y-33500D03*
X59000Y-33500D03*
X55000Y-33500D03*
X54000Y-33500D03*
X67000Y-34500D03*
X66000Y-34500D03*
X63000Y-34500D03*
X62000Y-34500D03*
X59000Y-34500D03*
X58000Y-34500D03*
X54000Y-34500D03*
X55000Y-34500D03*
X64000Y-34500D03*
X51000Y-34500D03*
X65000Y-34500D03*
X61000Y-34500D03*
X60500Y-29500D03*
X53000Y-34500D03*
X57000Y-34500D03*
X67000Y-24000D03*
X58500Y-29500D03*
X53250Y-29500D03*
X54500Y-25000D03*
X54500Y-24000D03*
X58500Y-28500D03*
X57500Y-24000D03*
X57500Y-25000D03*
X59250Y-27000D03*
X67000Y-25000D03*
X56000Y-34500D03*
X59500Y-29500D03*
X52250Y-29500D03*
G54D13*
X40750Y-32750D03*
G54D14*
X40750Y-31750D03*
G54D13*
X74600Y-25950D03*
G54D14*
X73600Y-25950D03*
G54D13*
X73850Y-32250D03*
G54D14*
X73850Y-33250D03*
G54D13*
X40750Y-25500D03*
G54D14*
X41750Y-25500D03*
G54D19*
X77850Y-34200D03*
G54D20*
X77850Y-33200D03*
X77850Y-32200D03*
X77850Y-31200D03*
X77850Y-30200D03*
X77850Y-29200D03*
X77850Y-28200D03*
X77850Y-27200D03*
X74850Y-27200D03*
X74850Y-28200D03*
X74850Y-29200D03*
X74850Y-30200D03*
X74850Y-31200D03*
X74850Y-32200D03*
X74850Y-33200D03*
X74850Y-34200D03*
G54D19*
X44750Y-33750D03*
G54D20*
X44750Y-32750D03*
X44750Y-31750D03*
X44750Y-30750D03*
X44750Y-29750D03*
X44750Y-28750D03*
X44750Y-27750D03*
X44750Y-26750D03*
X41750Y-26750D03*
X41750Y-27750D03*
X41750Y-28750D03*
X41750Y-29750D03*
X41750Y-30750D03*
X41750Y-31750D03*
X41750Y-32750D03*
X41750Y-33750D03*
G54D18*
X45250Y-34750D03*
M02*
