G04 (created by PCBNEW (2013-07-07 BZR 4022)-stable) date 11/10/2013 6:39:55 PM*
%MOIN*%
G04 Gerber Fmt 3.4, Leading zero omitted, Abs format*
%FSLAX34Y34*%
G01*
G70*
G90*
G04 APERTURE LIST*
%ADD10C,0.00590551*%
%ADD11C,0.005*%
%ADD12C,0.01*%
%ADD13C,0.0045*%
%ADD14C,0.012*%
G04 APERTURE END LIST*
G54D10*
G54D11*
X38213Y-47624D02*
X38244Y-47609D01*
X38289Y-47609D01*
X38335Y-47624D01*
X38366Y-47655D01*
X38381Y-47685D01*
X38396Y-47746D01*
X38396Y-47792D01*
X38381Y-47853D01*
X38366Y-47883D01*
X38335Y-47914D01*
X38289Y-47929D01*
X38259Y-47929D01*
X38213Y-47914D01*
X38198Y-47899D01*
X38198Y-47792D01*
X38259Y-47792D01*
X38061Y-47929D02*
X38061Y-47609D01*
X37878Y-47929D01*
X37878Y-47609D01*
X37726Y-47929D02*
X37726Y-47609D01*
X37649Y-47609D01*
X37604Y-47624D01*
X37573Y-47655D01*
X37558Y-47685D01*
X37543Y-47746D01*
X37543Y-47792D01*
X37558Y-47853D01*
X37573Y-47883D01*
X37604Y-47914D01*
X37649Y-47929D01*
X37726Y-47929D01*
X36034Y-47609D02*
X36187Y-47609D01*
X36202Y-47761D01*
X36187Y-47746D01*
X36156Y-47731D01*
X36080Y-47731D01*
X36049Y-47746D01*
X36034Y-47761D01*
X36019Y-47792D01*
X36019Y-47868D01*
X36034Y-47899D01*
X36049Y-47914D01*
X36080Y-47929D01*
X36156Y-47929D01*
X36187Y-47914D01*
X36202Y-47899D01*
X35928Y-47609D02*
X35821Y-47929D01*
X35714Y-47609D01*
X34175Y-47609D02*
X33977Y-47609D01*
X34084Y-47731D01*
X34038Y-47731D01*
X34008Y-47746D01*
X33992Y-47761D01*
X33977Y-47792D01*
X33977Y-47868D01*
X33992Y-47899D01*
X34008Y-47914D01*
X34038Y-47929D01*
X34130Y-47929D01*
X34160Y-47914D01*
X34175Y-47899D01*
X33886Y-47609D02*
X33779Y-47929D01*
X33672Y-47609D01*
X36043Y-51874D02*
X36074Y-51859D01*
X36120Y-51859D01*
X36165Y-51874D01*
X36196Y-51905D01*
X36211Y-51935D01*
X36226Y-51996D01*
X36226Y-52042D01*
X36211Y-52103D01*
X36196Y-52133D01*
X36165Y-52164D01*
X36120Y-52179D01*
X36089Y-52179D01*
X36043Y-52164D01*
X36028Y-52149D01*
X36028Y-52042D01*
X36089Y-52042D01*
X35891Y-52179D02*
X35891Y-51859D01*
X35708Y-52179D01*
X35708Y-51859D01*
X35556Y-52179D02*
X35556Y-51859D01*
X35479Y-51859D01*
X35434Y-51874D01*
X35403Y-51905D01*
X35388Y-51935D01*
X35373Y-51996D01*
X35373Y-52042D01*
X35388Y-52103D01*
X35403Y-52133D01*
X35434Y-52164D01*
X35479Y-52179D01*
X35556Y-52179D01*
X35860Y-52855D02*
X36013Y-52855D01*
X36028Y-53007D01*
X36013Y-52992D01*
X35982Y-52977D01*
X35906Y-52977D01*
X35876Y-52992D01*
X35860Y-53007D01*
X35845Y-53038D01*
X35845Y-53114D01*
X35860Y-53145D01*
X35876Y-53160D01*
X35906Y-53175D01*
X35982Y-53175D01*
X36013Y-53160D01*
X36028Y-53145D01*
X35754Y-52855D02*
X35647Y-53175D01*
X35540Y-52855D01*
X36043Y-53851D02*
X35845Y-53851D01*
X35952Y-53973D01*
X35906Y-53973D01*
X35876Y-53988D01*
X35860Y-54003D01*
X35845Y-54034D01*
X35845Y-54110D01*
X35860Y-54141D01*
X35876Y-54156D01*
X35906Y-54171D01*
X35998Y-54171D01*
X36028Y-54156D01*
X36043Y-54141D01*
X35754Y-53851D02*
X35647Y-54171D01*
X35540Y-53851D01*
X36203Y-55167D02*
X36203Y-54847D01*
X36081Y-54847D01*
X36051Y-54862D01*
X36036Y-54878D01*
X36020Y-54908D01*
X36020Y-54954D01*
X36036Y-54984D01*
X36051Y-54999D01*
X36081Y-55015D01*
X36203Y-55015D01*
X35883Y-55167D02*
X35883Y-54847D01*
X35883Y-54999D02*
X35700Y-54999D01*
X35700Y-55167D02*
X35700Y-54847D01*
X35487Y-54847D02*
X35457Y-54847D01*
X35426Y-54862D01*
X35411Y-54878D01*
X35396Y-54908D01*
X35380Y-54969D01*
X35380Y-55045D01*
X35396Y-55106D01*
X35411Y-55137D01*
X35426Y-55152D01*
X35457Y-55167D01*
X35487Y-55167D01*
X35518Y-55152D01*
X35533Y-55137D01*
X35548Y-55106D01*
X35563Y-55045D01*
X35563Y-54969D01*
X35548Y-54908D01*
X35533Y-54878D01*
X35518Y-54862D01*
X35487Y-54847D01*
X36348Y-56163D02*
X36348Y-55843D01*
X36226Y-55843D01*
X36196Y-55858D01*
X36180Y-55874D01*
X36165Y-55904D01*
X36165Y-55950D01*
X36180Y-55980D01*
X36196Y-55995D01*
X36226Y-56011D01*
X36348Y-56011D01*
X35845Y-56133D02*
X35860Y-56148D01*
X35906Y-56163D01*
X35937Y-56163D01*
X35982Y-56148D01*
X36013Y-56117D01*
X36028Y-56087D01*
X36043Y-56026D01*
X36043Y-55980D01*
X36028Y-55919D01*
X36013Y-55889D01*
X35982Y-55858D01*
X35937Y-55843D01*
X35906Y-55843D01*
X35860Y-55858D01*
X35845Y-55874D01*
X35540Y-56163D02*
X35723Y-56163D01*
X35632Y-56163D02*
X35632Y-55843D01*
X35662Y-55889D01*
X35693Y-55919D01*
X35723Y-55934D01*
X35266Y-55950D02*
X35266Y-56163D01*
X35342Y-55828D02*
X35419Y-56056D01*
X35220Y-56056D01*
X36180Y-57159D02*
X36180Y-56839D01*
X36059Y-56839D01*
X36028Y-56854D01*
X36013Y-56870D01*
X35998Y-56900D01*
X35998Y-56946D01*
X36013Y-56976D01*
X36028Y-56991D01*
X36059Y-57007D01*
X36180Y-57007D01*
X35860Y-56991D02*
X35754Y-56991D01*
X35708Y-57159D02*
X35860Y-57159D01*
X35860Y-56839D01*
X35708Y-56839D01*
X35434Y-56839D02*
X35495Y-56839D01*
X35525Y-56854D01*
X35540Y-56870D01*
X35571Y-56915D01*
X35586Y-56976D01*
X35586Y-57098D01*
X35571Y-57129D01*
X35556Y-57144D01*
X35525Y-57159D01*
X35464Y-57159D01*
X35434Y-57144D01*
X35419Y-57129D01*
X35403Y-57098D01*
X35403Y-57022D01*
X35419Y-56991D01*
X35434Y-56976D01*
X35464Y-56961D01*
X35525Y-56961D01*
X35556Y-56976D01*
X35571Y-56991D01*
X35586Y-57022D01*
X36180Y-58155D02*
X36180Y-57835D01*
X36059Y-57835D01*
X36028Y-57850D01*
X36013Y-57866D01*
X35998Y-57896D01*
X35998Y-57942D01*
X36013Y-57972D01*
X36028Y-57987D01*
X36059Y-58003D01*
X36180Y-58003D01*
X35860Y-57987D02*
X35754Y-57987D01*
X35708Y-58155D02*
X35860Y-58155D01*
X35860Y-57835D01*
X35708Y-57835D01*
X35434Y-57942D02*
X35434Y-58155D01*
X35510Y-57820D02*
X35586Y-58048D01*
X35388Y-58048D01*
X36180Y-59151D02*
X36180Y-58831D01*
X36059Y-58831D01*
X36028Y-58846D01*
X36013Y-58862D01*
X35998Y-58892D01*
X35998Y-58938D01*
X36013Y-58968D01*
X36028Y-58983D01*
X36059Y-58999D01*
X36180Y-58999D01*
X35860Y-58983D02*
X35754Y-58983D01*
X35708Y-59151D02*
X35860Y-59151D01*
X35860Y-58831D01*
X35708Y-58831D01*
X35586Y-58862D02*
X35571Y-58846D01*
X35540Y-58831D01*
X35464Y-58831D01*
X35434Y-58846D01*
X35419Y-58862D01*
X35403Y-58892D01*
X35403Y-58922D01*
X35419Y-58968D01*
X35601Y-59151D01*
X35403Y-59151D01*
X36180Y-60147D02*
X36180Y-59827D01*
X36059Y-59827D01*
X36028Y-59842D01*
X36013Y-59858D01*
X35998Y-59888D01*
X35998Y-59934D01*
X36013Y-59964D01*
X36028Y-59979D01*
X36059Y-59995D01*
X36180Y-59995D01*
X35860Y-59979D02*
X35754Y-59979D01*
X35708Y-60147D02*
X35860Y-60147D01*
X35860Y-59827D01*
X35708Y-59827D01*
X35510Y-59827D02*
X35480Y-59827D01*
X35449Y-59842D01*
X35434Y-59858D01*
X35419Y-59888D01*
X35403Y-59949D01*
X35403Y-60025D01*
X35419Y-60086D01*
X35434Y-60117D01*
X35449Y-60132D01*
X35480Y-60147D01*
X35510Y-60147D01*
X35540Y-60132D01*
X35556Y-60117D01*
X35571Y-60086D01*
X35586Y-60025D01*
X35586Y-59949D01*
X35571Y-59888D01*
X35556Y-59858D01*
X35540Y-59842D01*
X35510Y-59827D01*
X36196Y-61143D02*
X36196Y-60823D01*
X36074Y-60823D01*
X36043Y-60838D01*
X36028Y-60854D01*
X36013Y-60884D01*
X36013Y-60930D01*
X36028Y-60960D01*
X36043Y-60975D01*
X36074Y-60991D01*
X36196Y-60991D01*
X35769Y-60975D02*
X35723Y-60991D01*
X35708Y-61006D01*
X35693Y-61036D01*
X35693Y-61082D01*
X35708Y-61113D01*
X35723Y-61128D01*
X35754Y-61143D01*
X35876Y-61143D01*
X35876Y-60823D01*
X35769Y-60823D01*
X35739Y-60838D01*
X35723Y-60854D01*
X35708Y-60884D01*
X35708Y-60914D01*
X35723Y-60945D01*
X35739Y-60960D01*
X35769Y-60975D01*
X35876Y-60975D01*
X35510Y-60960D02*
X35540Y-60945D01*
X35556Y-60930D01*
X35571Y-60899D01*
X35571Y-60884D01*
X35556Y-60854D01*
X35540Y-60838D01*
X35510Y-60823D01*
X35449Y-60823D01*
X35419Y-60838D01*
X35403Y-60854D01*
X35388Y-60884D01*
X35388Y-60899D01*
X35403Y-60930D01*
X35419Y-60945D01*
X35449Y-60960D01*
X35510Y-60960D01*
X35540Y-60975D01*
X35556Y-60991D01*
X35571Y-61021D01*
X35571Y-61082D01*
X35556Y-61113D01*
X35540Y-61128D01*
X35510Y-61143D01*
X35449Y-61143D01*
X35419Y-61128D01*
X35403Y-61113D01*
X35388Y-61082D01*
X35388Y-61021D01*
X35403Y-60991D01*
X35419Y-60975D01*
X35449Y-60960D01*
X38950Y-51874D02*
X38980Y-51859D01*
X39026Y-51859D01*
X39071Y-51874D01*
X39102Y-51905D01*
X39117Y-51935D01*
X39132Y-51996D01*
X39132Y-52042D01*
X39117Y-52103D01*
X39102Y-52133D01*
X39071Y-52164D01*
X39026Y-52179D01*
X38995Y-52179D01*
X38950Y-52164D01*
X38934Y-52149D01*
X38934Y-52042D01*
X38995Y-52042D01*
X38797Y-52179D02*
X38797Y-51859D01*
X38614Y-52179D01*
X38614Y-51859D01*
X38462Y-52179D02*
X38462Y-51859D01*
X38386Y-51859D01*
X38340Y-51874D01*
X38310Y-51905D01*
X38294Y-51935D01*
X38279Y-51996D01*
X38279Y-52042D01*
X38294Y-52103D01*
X38310Y-52133D01*
X38340Y-52164D01*
X38386Y-52179D01*
X38462Y-52179D01*
X39010Y-52855D02*
X39163Y-52855D01*
X39178Y-53007D01*
X39163Y-52992D01*
X39132Y-52977D01*
X39056Y-52977D01*
X39026Y-52992D01*
X39010Y-53007D01*
X38995Y-53038D01*
X38995Y-53114D01*
X39010Y-53145D01*
X39026Y-53160D01*
X39056Y-53175D01*
X39132Y-53175D01*
X39163Y-53160D01*
X39178Y-53145D01*
X38904Y-52855D02*
X38797Y-53175D01*
X38690Y-52855D01*
X39193Y-53851D02*
X38995Y-53851D01*
X39102Y-53973D01*
X39056Y-53973D01*
X39026Y-53988D01*
X39010Y-54003D01*
X38995Y-54034D01*
X38995Y-54110D01*
X39010Y-54141D01*
X39026Y-54156D01*
X39056Y-54171D01*
X39148Y-54171D01*
X39178Y-54156D01*
X39193Y-54141D01*
X38904Y-53851D02*
X38797Y-54171D01*
X38690Y-53851D01*
X39353Y-55167D02*
X39353Y-54847D01*
X39231Y-54847D01*
X39201Y-54862D01*
X39186Y-54878D01*
X39170Y-54908D01*
X39170Y-54954D01*
X39186Y-54984D01*
X39201Y-54999D01*
X39231Y-55015D01*
X39353Y-55015D01*
X39033Y-55167D02*
X39033Y-54847D01*
X39033Y-54999D02*
X38850Y-54999D01*
X38850Y-55167D02*
X38850Y-54847D01*
X38530Y-55167D02*
X38713Y-55167D01*
X38622Y-55167D02*
X38622Y-54847D01*
X38652Y-54893D01*
X38683Y-54923D01*
X38713Y-54938D01*
X39498Y-56163D02*
X39498Y-55843D01*
X39376Y-55843D01*
X39346Y-55858D01*
X39330Y-55874D01*
X39315Y-55904D01*
X39315Y-55950D01*
X39330Y-55980D01*
X39346Y-55995D01*
X39376Y-56011D01*
X39498Y-56011D01*
X38995Y-56133D02*
X39010Y-56148D01*
X39056Y-56163D01*
X39087Y-56163D01*
X39132Y-56148D01*
X39163Y-56117D01*
X39178Y-56087D01*
X39193Y-56026D01*
X39193Y-55980D01*
X39178Y-55919D01*
X39163Y-55889D01*
X39132Y-55858D01*
X39087Y-55843D01*
X39056Y-55843D01*
X39010Y-55858D01*
X38995Y-55874D01*
X38690Y-56163D02*
X38873Y-56163D01*
X38782Y-56163D02*
X38782Y-55843D01*
X38812Y-55889D01*
X38843Y-55919D01*
X38873Y-55934D01*
X38401Y-55843D02*
X38553Y-55843D01*
X38569Y-55995D01*
X38553Y-55980D01*
X38523Y-55965D01*
X38447Y-55965D01*
X38416Y-55980D01*
X38401Y-55995D01*
X38386Y-56026D01*
X38386Y-56102D01*
X38401Y-56133D01*
X38416Y-56148D01*
X38447Y-56163D01*
X38523Y-56163D01*
X38553Y-56148D01*
X38569Y-56133D01*
X39483Y-57159D02*
X39483Y-56839D01*
X39361Y-56839D01*
X39330Y-56854D01*
X39315Y-56870D01*
X39300Y-56900D01*
X39300Y-56946D01*
X39315Y-56976D01*
X39330Y-56991D01*
X39361Y-57007D01*
X39483Y-57007D01*
X39163Y-56991D02*
X39056Y-56991D01*
X39010Y-57159D02*
X39163Y-57159D01*
X39163Y-56839D01*
X39010Y-56839D01*
X38706Y-57159D02*
X38889Y-57159D01*
X38797Y-57159D02*
X38797Y-56839D01*
X38828Y-56885D01*
X38858Y-56915D01*
X38889Y-56930D01*
X38599Y-56839D02*
X38401Y-56839D01*
X38508Y-56961D01*
X38462Y-56961D01*
X38431Y-56976D01*
X38416Y-56991D01*
X38401Y-57022D01*
X38401Y-57098D01*
X38416Y-57129D01*
X38431Y-57144D01*
X38462Y-57159D01*
X38553Y-57159D01*
X38584Y-57144D01*
X38599Y-57129D01*
X39330Y-58155D02*
X39330Y-57835D01*
X39209Y-57835D01*
X39178Y-57850D01*
X39163Y-57866D01*
X39148Y-57896D01*
X39148Y-57942D01*
X39163Y-57972D01*
X39178Y-57987D01*
X39209Y-58003D01*
X39330Y-58003D01*
X39010Y-57987D02*
X38904Y-57987D01*
X38858Y-58155D02*
X39010Y-58155D01*
X39010Y-57835D01*
X38858Y-57835D01*
X38569Y-57835D02*
X38721Y-57835D01*
X38736Y-57987D01*
X38721Y-57972D01*
X38690Y-57957D01*
X38614Y-57957D01*
X38584Y-57972D01*
X38569Y-57987D01*
X38553Y-58018D01*
X38553Y-58094D01*
X38569Y-58125D01*
X38584Y-58140D01*
X38614Y-58155D01*
X38690Y-58155D01*
X38721Y-58140D01*
X38736Y-58125D01*
X39330Y-59151D02*
X39330Y-58831D01*
X39209Y-58831D01*
X39178Y-58846D01*
X39163Y-58862D01*
X39148Y-58892D01*
X39148Y-58938D01*
X39163Y-58968D01*
X39178Y-58983D01*
X39209Y-58999D01*
X39330Y-58999D01*
X39010Y-58983D02*
X38904Y-58983D01*
X38858Y-59151D02*
X39010Y-59151D01*
X39010Y-58831D01*
X38858Y-58831D01*
X38751Y-58831D02*
X38553Y-58831D01*
X38660Y-58953D01*
X38614Y-58953D01*
X38584Y-58968D01*
X38569Y-58983D01*
X38553Y-59014D01*
X38553Y-59090D01*
X38569Y-59121D01*
X38584Y-59136D01*
X38614Y-59151D01*
X38706Y-59151D01*
X38736Y-59136D01*
X38751Y-59121D01*
X38965Y-60147D02*
X38965Y-59827D01*
X38843Y-59827D01*
X38812Y-59842D01*
X38797Y-59858D01*
X38782Y-59888D01*
X38782Y-59934D01*
X38797Y-59964D01*
X38812Y-59979D01*
X38843Y-59995D01*
X38965Y-59995D01*
X38645Y-59979D02*
X38538Y-59979D01*
X38492Y-60147D02*
X38645Y-60147D01*
X38645Y-59827D01*
X38492Y-59827D01*
X38188Y-60147D02*
X38370Y-60147D01*
X38279Y-60147D02*
X38279Y-59827D01*
X38310Y-59873D01*
X38340Y-59903D01*
X38370Y-59918D01*
X39711Y-61143D02*
X39711Y-60823D01*
X39589Y-60823D01*
X39559Y-60838D01*
X39544Y-60854D01*
X39529Y-60884D01*
X39529Y-60930D01*
X39544Y-60960D01*
X39559Y-60975D01*
X39589Y-60991D01*
X39711Y-60991D01*
X39285Y-60975D02*
X39239Y-60991D01*
X39224Y-61006D01*
X39209Y-61036D01*
X39209Y-61082D01*
X39224Y-61113D01*
X39239Y-61128D01*
X39269Y-61143D01*
X39391Y-61143D01*
X39391Y-60823D01*
X39285Y-60823D01*
X39254Y-60838D01*
X39239Y-60854D01*
X39224Y-60884D01*
X39224Y-60914D01*
X39239Y-60945D01*
X39254Y-60960D01*
X39285Y-60975D01*
X39391Y-60975D01*
X39056Y-61143D02*
X38995Y-61143D01*
X38965Y-61128D01*
X38949Y-61113D01*
X38919Y-61067D01*
X38904Y-61006D01*
X38904Y-60884D01*
X38919Y-60854D01*
X38934Y-60838D01*
X38965Y-60823D01*
X39026Y-60823D01*
X39056Y-60838D01*
X39071Y-60854D01*
X39087Y-60884D01*
X39087Y-60960D01*
X39071Y-60991D01*
X39056Y-61006D01*
X39026Y-61021D01*
X38965Y-61021D01*
X38934Y-61006D01*
X38919Y-60991D01*
X38904Y-60960D01*
G54D12*
X36683Y-50202D02*
X36683Y-49702D01*
X36564Y-49702D01*
X36492Y-49726D01*
X36445Y-49773D01*
X36421Y-49821D01*
X36397Y-49916D01*
X36397Y-49988D01*
X36421Y-50083D01*
X36445Y-50130D01*
X36492Y-50178D01*
X36564Y-50202D01*
X36683Y-50202D01*
X36207Y-50059D02*
X35969Y-50059D01*
X36254Y-50202D02*
X36088Y-49702D01*
X35921Y-50202D01*
X35754Y-49940D02*
X35588Y-49940D01*
X35516Y-50202D02*
X35754Y-50202D01*
X35754Y-49702D01*
X35516Y-49702D01*
X35016Y-50154D02*
X35040Y-50178D01*
X35111Y-50202D01*
X35159Y-50202D01*
X35230Y-50178D01*
X35278Y-50130D01*
X35302Y-50083D01*
X35326Y-49988D01*
X35326Y-49916D01*
X35302Y-49821D01*
X35278Y-49773D01*
X35230Y-49726D01*
X35159Y-49702D01*
X35111Y-49702D01*
X35040Y-49726D01*
X35016Y-49750D01*
X34802Y-49702D02*
X34802Y-50107D01*
X34778Y-50154D01*
X34754Y-50178D01*
X34707Y-50202D01*
X34611Y-50202D01*
X34564Y-50178D01*
X34540Y-50154D01*
X34516Y-50107D01*
X34516Y-49702D01*
X33402Y-47473D02*
X32902Y-47473D01*
X33402Y-47688D02*
X33140Y-47688D01*
X33092Y-47664D01*
X33069Y-47616D01*
X33069Y-47545D01*
X33092Y-47497D01*
X33116Y-47473D01*
X33069Y-47854D02*
X33069Y-48045D01*
X32902Y-47926D02*
X33330Y-47926D01*
X33378Y-47950D01*
X33402Y-47997D01*
X33402Y-48045D01*
X33069Y-48140D02*
X33069Y-48330D01*
X32902Y-48211D02*
X33330Y-48211D01*
X33378Y-48235D01*
X33402Y-48283D01*
X33402Y-48330D01*
X33069Y-48497D02*
X33569Y-48497D01*
X33092Y-48497D02*
X33069Y-48545D01*
X33069Y-48640D01*
X33092Y-48688D01*
X33116Y-48711D01*
X33164Y-48735D01*
X33307Y-48735D01*
X33354Y-48711D01*
X33378Y-48688D01*
X33402Y-48640D01*
X33402Y-48545D01*
X33378Y-48497D01*
X33378Y-48926D02*
X33402Y-48973D01*
X33402Y-49069D01*
X33378Y-49116D01*
X33330Y-49140D01*
X33307Y-49140D01*
X33259Y-49116D01*
X33235Y-49069D01*
X33235Y-48997D01*
X33211Y-48950D01*
X33164Y-48926D01*
X33140Y-48926D01*
X33092Y-48950D01*
X33069Y-48997D01*
X33069Y-49069D01*
X33092Y-49116D01*
X33354Y-49354D02*
X33378Y-49378D01*
X33402Y-49354D01*
X33378Y-49330D01*
X33354Y-49354D01*
X33402Y-49354D01*
X33092Y-49354D02*
X33116Y-49378D01*
X33140Y-49354D01*
X33116Y-49330D01*
X33092Y-49354D01*
X33140Y-49354D01*
X32878Y-49950D02*
X33521Y-49521D01*
X32878Y-50473D02*
X33521Y-50045D01*
X33378Y-50854D02*
X33402Y-50807D01*
X33402Y-50711D01*
X33378Y-50664D01*
X33354Y-50640D01*
X33307Y-50616D01*
X33164Y-50616D01*
X33116Y-50640D01*
X33092Y-50664D01*
X33069Y-50711D01*
X33069Y-50807D01*
X33092Y-50854D01*
X33402Y-51140D02*
X33378Y-51092D01*
X33354Y-51069D01*
X33307Y-51045D01*
X33164Y-51045D01*
X33116Y-51069D01*
X33092Y-51092D01*
X33069Y-51140D01*
X33069Y-51211D01*
X33092Y-51259D01*
X33116Y-51283D01*
X33164Y-51307D01*
X33307Y-51307D01*
X33354Y-51283D01*
X33378Y-51259D01*
X33402Y-51211D01*
X33402Y-51140D01*
X33402Y-51735D02*
X32902Y-51735D01*
X33378Y-51735D02*
X33402Y-51688D01*
X33402Y-51592D01*
X33378Y-51545D01*
X33354Y-51521D01*
X33307Y-51497D01*
X33164Y-51497D01*
X33116Y-51521D01*
X33092Y-51545D01*
X33069Y-51592D01*
X33069Y-51688D01*
X33092Y-51735D01*
X33378Y-52164D02*
X33402Y-52116D01*
X33402Y-52021D01*
X33378Y-51973D01*
X33330Y-51950D01*
X33140Y-51950D01*
X33092Y-51973D01*
X33069Y-52021D01*
X33069Y-52116D01*
X33092Y-52164D01*
X33140Y-52188D01*
X33188Y-52188D01*
X33235Y-51950D01*
X33354Y-52402D02*
X33378Y-52426D01*
X33402Y-52402D01*
X33378Y-52378D01*
X33354Y-52402D01*
X33402Y-52402D01*
X33069Y-52854D02*
X33473Y-52854D01*
X33521Y-52830D01*
X33545Y-52807D01*
X33569Y-52759D01*
X33569Y-52688D01*
X33545Y-52640D01*
X33378Y-52854D02*
X33402Y-52807D01*
X33402Y-52711D01*
X33378Y-52664D01*
X33354Y-52640D01*
X33307Y-52616D01*
X33164Y-52616D01*
X33116Y-52640D01*
X33092Y-52664D01*
X33069Y-52711D01*
X33069Y-52807D01*
X33092Y-52854D01*
X33402Y-53164D02*
X33378Y-53116D01*
X33354Y-53092D01*
X33307Y-53069D01*
X33164Y-53069D01*
X33116Y-53092D01*
X33092Y-53116D01*
X33069Y-53164D01*
X33069Y-53235D01*
X33092Y-53283D01*
X33116Y-53307D01*
X33164Y-53330D01*
X33307Y-53330D01*
X33354Y-53307D01*
X33378Y-53283D01*
X33402Y-53235D01*
X33402Y-53164D01*
X33402Y-53616D02*
X33378Y-53569D01*
X33354Y-53545D01*
X33307Y-53521D01*
X33164Y-53521D01*
X33116Y-53545D01*
X33092Y-53569D01*
X33069Y-53616D01*
X33069Y-53688D01*
X33092Y-53735D01*
X33116Y-53759D01*
X33164Y-53783D01*
X33307Y-53783D01*
X33354Y-53759D01*
X33378Y-53735D01*
X33402Y-53688D01*
X33402Y-53616D01*
X33069Y-54211D02*
X33473Y-54211D01*
X33521Y-54188D01*
X33545Y-54164D01*
X33569Y-54116D01*
X33569Y-54045D01*
X33545Y-53997D01*
X33378Y-54211D02*
X33402Y-54164D01*
X33402Y-54069D01*
X33378Y-54021D01*
X33354Y-53997D01*
X33307Y-53973D01*
X33164Y-53973D01*
X33116Y-53997D01*
X33092Y-54021D01*
X33069Y-54069D01*
X33069Y-54164D01*
X33092Y-54211D01*
X33402Y-54521D02*
X33378Y-54473D01*
X33330Y-54450D01*
X32902Y-54450D01*
X33378Y-54902D02*
X33402Y-54854D01*
X33402Y-54759D01*
X33378Y-54711D01*
X33330Y-54688D01*
X33140Y-54688D01*
X33092Y-54711D01*
X33069Y-54759D01*
X33069Y-54854D01*
X33092Y-54902D01*
X33140Y-54926D01*
X33188Y-54926D01*
X33235Y-54688D01*
X33354Y-55140D02*
X33378Y-55164D01*
X33402Y-55140D01*
X33378Y-55116D01*
X33354Y-55140D01*
X33402Y-55140D01*
X33378Y-55592D02*
X33402Y-55545D01*
X33402Y-55450D01*
X33378Y-55402D01*
X33354Y-55378D01*
X33307Y-55354D01*
X33164Y-55354D01*
X33116Y-55378D01*
X33092Y-55402D01*
X33069Y-55450D01*
X33069Y-55545D01*
X33092Y-55592D01*
X33402Y-55878D02*
X33378Y-55830D01*
X33354Y-55807D01*
X33307Y-55783D01*
X33164Y-55783D01*
X33116Y-55807D01*
X33092Y-55830D01*
X33069Y-55878D01*
X33069Y-55950D01*
X33092Y-55997D01*
X33116Y-56021D01*
X33164Y-56045D01*
X33307Y-56045D01*
X33354Y-56021D01*
X33378Y-55997D01*
X33402Y-55950D01*
X33402Y-55878D01*
X33402Y-56259D02*
X33069Y-56259D01*
X33116Y-56259D02*
X33092Y-56283D01*
X33069Y-56330D01*
X33069Y-56402D01*
X33092Y-56450D01*
X33140Y-56473D01*
X33402Y-56473D01*
X33140Y-56473D02*
X33092Y-56497D01*
X33069Y-56545D01*
X33069Y-56616D01*
X33092Y-56664D01*
X33140Y-56688D01*
X33402Y-56688D01*
X32878Y-57283D02*
X33521Y-56854D01*
X33069Y-57450D02*
X33569Y-57450D01*
X33092Y-57450D02*
X33069Y-57497D01*
X33069Y-57592D01*
X33092Y-57640D01*
X33116Y-57664D01*
X33164Y-57688D01*
X33307Y-57688D01*
X33354Y-57664D01*
X33378Y-57640D01*
X33402Y-57592D01*
X33402Y-57497D01*
X33378Y-57450D01*
X32878Y-58259D02*
X33521Y-57830D01*
X33402Y-58640D02*
X32902Y-58640D01*
X33378Y-58640D02*
X33402Y-58592D01*
X33402Y-58497D01*
X33378Y-58450D01*
X33354Y-58426D01*
X33307Y-58402D01*
X33164Y-58402D01*
X33116Y-58426D01*
X33092Y-58450D01*
X33069Y-58497D01*
X33069Y-58592D01*
X33092Y-58640D01*
X33402Y-59092D02*
X33140Y-59092D01*
X33092Y-59069D01*
X33069Y-59021D01*
X33069Y-58926D01*
X33092Y-58878D01*
X33378Y-59092D02*
X33402Y-59045D01*
X33402Y-58926D01*
X33378Y-58878D01*
X33330Y-58854D01*
X33283Y-58854D01*
X33235Y-58878D01*
X33211Y-58926D01*
X33211Y-59045D01*
X33188Y-59092D01*
X33378Y-59521D02*
X33402Y-59473D01*
X33402Y-59378D01*
X33378Y-59330D01*
X33330Y-59307D01*
X33140Y-59307D01*
X33092Y-59330D01*
X33069Y-59378D01*
X33069Y-59473D01*
X33092Y-59521D01*
X33140Y-59545D01*
X33188Y-59545D01*
X33235Y-59307D01*
X33378Y-59973D02*
X33402Y-59926D01*
X33402Y-59830D01*
X33378Y-59783D01*
X33354Y-59759D01*
X33307Y-59735D01*
X33164Y-59735D01*
X33116Y-59759D01*
X33092Y-59783D01*
X33069Y-59830D01*
X33069Y-59926D01*
X33092Y-59973D01*
X33069Y-60402D02*
X33402Y-60402D01*
X33069Y-60188D02*
X33330Y-60188D01*
X33378Y-60211D01*
X33402Y-60259D01*
X33402Y-60330D01*
X33378Y-60378D01*
X33354Y-60402D01*
X32878Y-60997D02*
X33521Y-60569D01*
X33869Y-49854D02*
X33869Y-50045D01*
X34202Y-49926D02*
X33773Y-49926D01*
X33726Y-49950D01*
X33702Y-49997D01*
X33702Y-50045D01*
X34202Y-50283D02*
X34178Y-50235D01*
X34154Y-50211D01*
X34107Y-50188D01*
X33964Y-50188D01*
X33916Y-50211D01*
X33892Y-50235D01*
X33869Y-50283D01*
X33869Y-50354D01*
X33892Y-50402D01*
X33916Y-50426D01*
X33964Y-50450D01*
X34107Y-50450D01*
X34154Y-50426D01*
X34178Y-50402D01*
X34202Y-50354D01*
X34202Y-50283D01*
X34202Y-50664D02*
X33869Y-50664D01*
X33964Y-50664D02*
X33916Y-50688D01*
X33892Y-50711D01*
X33869Y-50759D01*
X33869Y-50807D01*
X34202Y-51354D02*
X33869Y-51354D01*
X33964Y-51354D02*
X33916Y-51378D01*
X33892Y-51402D01*
X33869Y-51450D01*
X33869Y-51497D01*
X33869Y-51878D02*
X34202Y-51878D01*
X33869Y-51664D02*
X34130Y-51664D01*
X34178Y-51688D01*
X34202Y-51735D01*
X34202Y-51807D01*
X34178Y-51854D01*
X34154Y-51878D01*
X34178Y-52092D02*
X34202Y-52140D01*
X34202Y-52235D01*
X34178Y-52283D01*
X34130Y-52307D01*
X34107Y-52307D01*
X34059Y-52283D01*
X34035Y-52235D01*
X34035Y-52164D01*
X34011Y-52116D01*
X33964Y-52092D01*
X33940Y-52092D01*
X33892Y-52116D01*
X33869Y-52164D01*
X33869Y-52235D01*
X33892Y-52283D01*
X34178Y-52711D02*
X34202Y-52664D01*
X34202Y-52569D01*
X34178Y-52521D01*
X34130Y-52497D01*
X33940Y-52497D01*
X33892Y-52521D01*
X33869Y-52569D01*
X33869Y-52664D01*
X33892Y-52711D01*
X33940Y-52735D01*
X33988Y-52735D01*
X34035Y-52497D01*
X33869Y-52878D02*
X33869Y-53069D01*
X34202Y-52950D02*
X33773Y-52950D01*
X33726Y-52973D01*
X33702Y-53021D01*
X33702Y-53069D01*
X34202Y-53235D02*
X33869Y-53235D01*
X33702Y-53235D02*
X33726Y-53211D01*
X33750Y-53235D01*
X33726Y-53259D01*
X33702Y-53235D01*
X33750Y-53235D01*
X34154Y-53473D02*
X34178Y-53497D01*
X34202Y-53473D01*
X34178Y-53450D01*
X34154Y-53473D01*
X34202Y-53473D01*
X34178Y-53926D02*
X34202Y-53878D01*
X34202Y-53783D01*
X34178Y-53735D01*
X34154Y-53711D01*
X34107Y-53688D01*
X33964Y-53688D01*
X33916Y-53711D01*
X33892Y-53735D01*
X33869Y-53783D01*
X33869Y-53878D01*
X33892Y-53926D01*
X34202Y-54211D02*
X34178Y-54164D01*
X34154Y-54140D01*
X34107Y-54116D01*
X33964Y-54116D01*
X33916Y-54140D01*
X33892Y-54164D01*
X33869Y-54211D01*
X33869Y-54283D01*
X33892Y-54330D01*
X33916Y-54354D01*
X33964Y-54378D01*
X34107Y-54378D01*
X34154Y-54354D01*
X34178Y-54330D01*
X34202Y-54283D01*
X34202Y-54211D01*
X34202Y-54592D02*
X33869Y-54592D01*
X33916Y-54592D02*
X33892Y-54616D01*
X33869Y-54664D01*
X33869Y-54735D01*
X33892Y-54783D01*
X33940Y-54807D01*
X34202Y-54807D01*
X33940Y-54807D02*
X33892Y-54830D01*
X33869Y-54878D01*
X33869Y-54950D01*
X33892Y-54997D01*
X33940Y-55021D01*
X34202Y-55021D01*
X34202Y-56021D02*
X33869Y-56021D01*
X33964Y-56021D02*
X33916Y-56045D01*
X33892Y-56069D01*
X33869Y-56116D01*
X33869Y-56164D01*
X34178Y-56521D02*
X34202Y-56473D01*
X34202Y-56378D01*
X34178Y-56330D01*
X34130Y-56307D01*
X33940Y-56307D01*
X33892Y-56330D01*
X33869Y-56378D01*
X33869Y-56473D01*
X33892Y-56521D01*
X33940Y-56545D01*
X33988Y-56545D01*
X34035Y-56307D01*
X33869Y-56711D02*
X34202Y-56830D01*
X33869Y-56949D01*
X33702Y-57616D02*
X33702Y-57664D01*
X33726Y-57711D01*
X33750Y-57735D01*
X33797Y-57759D01*
X33892Y-57783D01*
X34011Y-57783D01*
X34107Y-57759D01*
X34154Y-57735D01*
X34178Y-57711D01*
X34202Y-57664D01*
X34202Y-57616D01*
X34178Y-57569D01*
X34154Y-57545D01*
X34107Y-57521D01*
X34011Y-57497D01*
X33892Y-57497D01*
X33797Y-57521D01*
X33750Y-57545D01*
X33726Y-57569D01*
X33702Y-57616D01*
X34154Y-57997D02*
X34178Y-58021D01*
X34202Y-57997D01*
X34178Y-57973D01*
X34154Y-57997D01*
X34202Y-57997D01*
X34202Y-58497D02*
X34202Y-58211D01*
X34202Y-58354D02*
X33702Y-58354D01*
X33773Y-58307D01*
X33821Y-58259D01*
X33845Y-58211D01*
G54D13*
X44009Y-52338D02*
X44009Y-52738D01*
X44200Y-52338D02*
X44200Y-52738D01*
X44428Y-52338D01*
X44428Y-52738D01*
X44733Y-52738D02*
X44733Y-52452D01*
X44714Y-52395D01*
X44676Y-52357D01*
X44619Y-52338D01*
X44580Y-52338D01*
X44923Y-52490D02*
X45228Y-52490D01*
X45495Y-52738D02*
X45533Y-52738D01*
X45571Y-52719D01*
X45590Y-52700D01*
X45609Y-52661D01*
X45628Y-52585D01*
X45628Y-52490D01*
X45609Y-52414D01*
X45590Y-52376D01*
X45571Y-52357D01*
X45533Y-52338D01*
X45495Y-52338D01*
X45457Y-52357D01*
X45438Y-52376D01*
X45419Y-52414D01*
X45400Y-52490D01*
X45400Y-52585D01*
X45419Y-52661D01*
X45438Y-52700D01*
X45457Y-52719D01*
X45495Y-52738D01*
X45971Y-52604D02*
X45971Y-52338D01*
X45876Y-52757D02*
X45780Y-52471D01*
X46028Y-52471D01*
X44009Y-50588D02*
X44009Y-50988D01*
X44200Y-50588D02*
X44200Y-50988D01*
X44428Y-50588D01*
X44428Y-50988D01*
X44733Y-50988D02*
X44733Y-50702D01*
X44714Y-50645D01*
X44676Y-50607D01*
X44619Y-50588D01*
X44580Y-50588D01*
X44923Y-50740D02*
X45228Y-50740D01*
X45495Y-50988D02*
X45533Y-50988D01*
X45571Y-50969D01*
X45590Y-50950D01*
X45609Y-50911D01*
X45628Y-50835D01*
X45628Y-50740D01*
X45609Y-50664D01*
X45590Y-50626D01*
X45571Y-50607D01*
X45533Y-50588D01*
X45495Y-50588D01*
X45457Y-50607D01*
X45438Y-50626D01*
X45419Y-50664D01*
X45400Y-50740D01*
X45400Y-50835D01*
X45419Y-50911D01*
X45438Y-50950D01*
X45457Y-50969D01*
X45495Y-50988D01*
X45990Y-50988D02*
X45800Y-50988D01*
X45780Y-50797D01*
X45800Y-50816D01*
X45838Y-50835D01*
X45933Y-50835D01*
X45971Y-50816D01*
X45990Y-50797D01*
X46009Y-50759D01*
X46009Y-50664D01*
X45990Y-50626D01*
X45971Y-50607D01*
X45933Y-50588D01*
X45838Y-50588D01*
X45800Y-50607D01*
X45780Y-50626D01*
X45109Y-47488D02*
X45109Y-47888D01*
X45300Y-47488D02*
X45300Y-47888D01*
X45528Y-47488D01*
X45528Y-47888D01*
X45833Y-47888D02*
X45833Y-47602D01*
X45814Y-47545D01*
X45776Y-47507D01*
X45719Y-47488D01*
X45680Y-47488D01*
X46023Y-47640D02*
X46328Y-47640D01*
X46595Y-47888D02*
X46633Y-47888D01*
X46671Y-47869D01*
X46690Y-47850D01*
X46709Y-47811D01*
X46728Y-47735D01*
X46728Y-47640D01*
X46709Y-47564D01*
X46690Y-47526D01*
X46671Y-47507D01*
X46633Y-47488D01*
X46595Y-47488D01*
X46557Y-47507D01*
X46538Y-47526D01*
X46519Y-47564D01*
X46500Y-47640D01*
X46500Y-47735D01*
X46519Y-47811D01*
X46538Y-47850D01*
X46557Y-47869D01*
X46595Y-47888D01*
X47071Y-47888D02*
X46995Y-47888D01*
X46957Y-47869D01*
X46938Y-47850D01*
X46900Y-47792D01*
X46880Y-47716D01*
X46880Y-47564D01*
X46900Y-47526D01*
X46919Y-47507D01*
X46957Y-47488D01*
X47033Y-47488D01*
X47071Y-47507D01*
X47090Y-47526D01*
X47109Y-47564D01*
X47109Y-47659D01*
X47090Y-47697D01*
X47071Y-47716D01*
X47033Y-47735D01*
X46957Y-47735D01*
X46919Y-47716D01*
X46900Y-47697D01*
X46880Y-47659D01*
X44009Y-56338D02*
X44009Y-56738D01*
X44200Y-56338D02*
X44200Y-56738D01*
X44428Y-56338D01*
X44428Y-56738D01*
X44733Y-56738D02*
X44733Y-56452D01*
X44714Y-56395D01*
X44676Y-56357D01*
X44619Y-56338D01*
X44580Y-56338D01*
X44923Y-56490D02*
X45228Y-56490D01*
X45495Y-56738D02*
X45533Y-56738D01*
X45571Y-56719D01*
X45590Y-56700D01*
X45609Y-56661D01*
X45628Y-56585D01*
X45628Y-56490D01*
X45609Y-56414D01*
X45590Y-56376D01*
X45571Y-56357D01*
X45533Y-56338D01*
X45495Y-56338D01*
X45457Y-56357D01*
X45438Y-56376D01*
X45419Y-56414D01*
X45400Y-56490D01*
X45400Y-56585D01*
X45419Y-56661D01*
X45438Y-56700D01*
X45457Y-56719D01*
X45495Y-56738D01*
X45761Y-56738D02*
X46009Y-56738D01*
X45876Y-56585D01*
X45933Y-56585D01*
X45971Y-56566D01*
X45990Y-56547D01*
X46009Y-56509D01*
X46009Y-56414D01*
X45990Y-56376D01*
X45971Y-56357D01*
X45933Y-56338D01*
X45819Y-56338D01*
X45780Y-56357D01*
X45761Y-56376D01*
X44200Y-54338D02*
X44200Y-54604D01*
X44200Y-54738D02*
X44180Y-54719D01*
X44200Y-54700D01*
X44219Y-54719D01*
X44200Y-54738D01*
X44200Y-54700D01*
X44600Y-54719D02*
X44561Y-54738D01*
X44504Y-54738D01*
X44447Y-54719D01*
X44409Y-54680D01*
X44390Y-54642D01*
X44371Y-54566D01*
X44371Y-54509D01*
X44390Y-54433D01*
X44409Y-54395D01*
X44447Y-54357D01*
X44504Y-54338D01*
X44542Y-54338D01*
X44600Y-54357D01*
X44619Y-54376D01*
X44619Y-54509D01*
X44542Y-54509D01*
X44790Y-54338D02*
X44790Y-54738D01*
X45019Y-54338D01*
X45019Y-54738D01*
X45209Y-54338D02*
X45209Y-54738D01*
X45304Y-54738D01*
X45361Y-54719D01*
X45400Y-54680D01*
X45419Y-54642D01*
X45438Y-54566D01*
X45438Y-54509D01*
X45419Y-54433D01*
X45400Y-54395D01*
X45361Y-54357D01*
X45304Y-54338D01*
X45209Y-54338D01*
X45819Y-54338D02*
X45590Y-54338D01*
X45704Y-54338D02*
X45704Y-54738D01*
X45666Y-54680D01*
X45628Y-54642D01*
X45590Y-54623D01*
X44134Y-58213D02*
X44134Y-58613D01*
X44325Y-58213D02*
X44325Y-58613D01*
X44553Y-58213D01*
X44553Y-58613D01*
X44858Y-58613D02*
X44858Y-58327D01*
X44839Y-58270D01*
X44801Y-58232D01*
X44744Y-58213D01*
X44705Y-58213D01*
X45048Y-58365D02*
X45353Y-58365D01*
X45620Y-58613D02*
X45658Y-58613D01*
X45696Y-58594D01*
X45715Y-58575D01*
X45734Y-58536D01*
X45753Y-58460D01*
X45753Y-58365D01*
X45734Y-58289D01*
X45715Y-58251D01*
X45696Y-58232D01*
X45658Y-58213D01*
X45620Y-58213D01*
X45582Y-58232D01*
X45563Y-58251D01*
X45544Y-58289D01*
X45525Y-58365D01*
X45525Y-58460D01*
X45544Y-58536D01*
X45563Y-58575D01*
X45582Y-58594D01*
X45620Y-58613D01*
X45905Y-58575D02*
X45925Y-58594D01*
X45963Y-58613D01*
X46058Y-58613D01*
X46096Y-58594D01*
X46115Y-58575D01*
X46134Y-58536D01*
X46134Y-58498D01*
X46115Y-58441D01*
X45886Y-58213D01*
X46134Y-58213D01*
X46259Y-60588D02*
X46259Y-60988D01*
X46450Y-60588D02*
X46450Y-60988D01*
X46678Y-60588D01*
X46678Y-60988D01*
X46983Y-60988D02*
X46983Y-60702D01*
X46964Y-60645D01*
X46926Y-60607D01*
X46869Y-60588D01*
X46830Y-60588D01*
X47173Y-60740D02*
X47478Y-60740D01*
X47745Y-60988D02*
X47783Y-60988D01*
X47821Y-60969D01*
X47840Y-60950D01*
X47859Y-60911D01*
X47878Y-60835D01*
X47878Y-60740D01*
X47859Y-60664D01*
X47840Y-60626D01*
X47821Y-60607D01*
X47783Y-60588D01*
X47745Y-60588D01*
X47707Y-60607D01*
X47688Y-60626D01*
X47669Y-60664D01*
X47650Y-60740D01*
X47650Y-60835D01*
X47669Y-60911D01*
X47688Y-60950D01*
X47707Y-60969D01*
X47745Y-60988D01*
X48259Y-60588D02*
X48030Y-60588D01*
X48145Y-60588D02*
X48145Y-60988D01*
X48107Y-60930D01*
X48069Y-60892D01*
X48030Y-60873D01*
G54D14*
X46250Y-50500D02*
X47250Y-50500D01*
X47250Y-50500D02*
X47250Y-48500D01*
X47250Y-48500D02*
X46250Y-48500D01*
X46250Y-48500D02*
X46250Y-50500D01*
X46250Y-52500D02*
X47250Y-52500D01*
X47250Y-52500D02*
X47250Y-50500D01*
X47250Y-50500D02*
X46250Y-50500D01*
X46250Y-50500D02*
X46250Y-52500D01*
X46250Y-54500D02*
X47250Y-54500D01*
X47250Y-54500D02*
X47250Y-52500D01*
X47250Y-52500D02*
X46250Y-52500D01*
X46250Y-52500D02*
X46250Y-54500D01*
X47250Y-54500D02*
X46250Y-54500D01*
X46250Y-54500D02*
X46250Y-56500D01*
X46250Y-56500D02*
X47250Y-56500D01*
X47250Y-56500D02*
X47250Y-54500D01*
X47250Y-56500D02*
X46250Y-56500D01*
X46250Y-56500D02*
X46250Y-58500D01*
X46250Y-58500D02*
X47250Y-58500D01*
X47250Y-58500D02*
X47250Y-56500D01*
X47250Y-58500D02*
X46250Y-58500D01*
X46250Y-58500D02*
X46250Y-60500D01*
X46250Y-60500D02*
X47250Y-60500D01*
X47250Y-60500D02*
X47250Y-58500D01*
X41500Y-48500D02*
X41500Y-47500D01*
X41500Y-47500D02*
X39500Y-47500D01*
X39500Y-47500D02*
X39500Y-48500D01*
X39500Y-48500D02*
X41500Y-48500D01*
X45750Y-48500D02*
X44750Y-48500D01*
X44750Y-48500D02*
X44750Y-50500D01*
X44750Y-50500D02*
X45750Y-50500D01*
X45750Y-50500D02*
X45750Y-48500D01*
G54D11*
X47621Y-49278D02*
X47321Y-49278D01*
X47321Y-49350D01*
X47335Y-49392D01*
X47364Y-49421D01*
X47392Y-49435D01*
X47450Y-49450D01*
X47492Y-49450D01*
X47550Y-49435D01*
X47578Y-49421D01*
X47607Y-49392D01*
X47621Y-49350D01*
X47621Y-49278D01*
X47321Y-49550D02*
X47321Y-49735D01*
X47435Y-49635D01*
X47435Y-49678D01*
X47450Y-49707D01*
X47464Y-49721D01*
X47492Y-49735D01*
X47564Y-49735D01*
X47592Y-49721D01*
X47607Y-49707D01*
X47621Y-49678D01*
X47621Y-49592D01*
X47607Y-49564D01*
X47592Y-49550D01*
X47621Y-51278D02*
X47321Y-51278D01*
X47321Y-51350D01*
X47335Y-51392D01*
X47364Y-51421D01*
X47392Y-51435D01*
X47450Y-51450D01*
X47492Y-51450D01*
X47550Y-51435D01*
X47578Y-51421D01*
X47607Y-51392D01*
X47621Y-51350D01*
X47621Y-51278D01*
X47321Y-51707D02*
X47321Y-51650D01*
X47335Y-51621D01*
X47350Y-51607D01*
X47392Y-51578D01*
X47450Y-51564D01*
X47564Y-51564D01*
X47592Y-51578D01*
X47607Y-51592D01*
X47621Y-51621D01*
X47621Y-51678D01*
X47607Y-51707D01*
X47592Y-51721D01*
X47564Y-51735D01*
X47492Y-51735D01*
X47464Y-51721D01*
X47450Y-51707D01*
X47435Y-51678D01*
X47435Y-51621D01*
X47450Y-51592D01*
X47464Y-51578D01*
X47492Y-51564D01*
X47621Y-53278D02*
X47321Y-53278D01*
X47321Y-53350D01*
X47335Y-53392D01*
X47364Y-53421D01*
X47392Y-53435D01*
X47450Y-53450D01*
X47492Y-53450D01*
X47550Y-53435D01*
X47578Y-53421D01*
X47607Y-53392D01*
X47621Y-53350D01*
X47621Y-53278D01*
X47421Y-53707D02*
X47621Y-53707D01*
X47307Y-53635D02*
X47521Y-53564D01*
X47521Y-53750D01*
X47621Y-55278D02*
X47321Y-55278D01*
X47321Y-55350D01*
X47335Y-55392D01*
X47364Y-55421D01*
X47392Y-55435D01*
X47450Y-55450D01*
X47492Y-55450D01*
X47550Y-55435D01*
X47578Y-55421D01*
X47607Y-55392D01*
X47621Y-55350D01*
X47621Y-55278D01*
X47321Y-55550D02*
X47321Y-55750D01*
X47621Y-55621D01*
X47621Y-57278D02*
X47321Y-57278D01*
X47321Y-57350D01*
X47335Y-57392D01*
X47364Y-57421D01*
X47392Y-57435D01*
X47450Y-57450D01*
X47492Y-57450D01*
X47550Y-57435D01*
X47578Y-57421D01*
X47607Y-57392D01*
X47621Y-57350D01*
X47621Y-57278D01*
X47321Y-57721D02*
X47321Y-57578D01*
X47464Y-57564D01*
X47450Y-57578D01*
X47435Y-57607D01*
X47435Y-57678D01*
X47450Y-57707D01*
X47464Y-57721D01*
X47492Y-57735D01*
X47564Y-57735D01*
X47592Y-57721D01*
X47607Y-57707D01*
X47621Y-57678D01*
X47621Y-57607D01*
X47607Y-57578D01*
X47592Y-57564D01*
X47621Y-59278D02*
X47321Y-59278D01*
X47321Y-59350D01*
X47335Y-59392D01*
X47364Y-59421D01*
X47392Y-59435D01*
X47450Y-59450D01*
X47492Y-59450D01*
X47550Y-59435D01*
X47578Y-59421D01*
X47607Y-59392D01*
X47621Y-59350D01*
X47621Y-59278D01*
X47450Y-59621D02*
X47435Y-59592D01*
X47421Y-59578D01*
X47392Y-59564D01*
X47378Y-59564D01*
X47350Y-59578D01*
X47335Y-59592D01*
X47321Y-59621D01*
X47321Y-59678D01*
X47335Y-59707D01*
X47350Y-59721D01*
X47378Y-59735D01*
X47392Y-59735D01*
X47421Y-59721D01*
X47435Y-59707D01*
X47450Y-59678D01*
X47450Y-59621D01*
X47464Y-59592D01*
X47478Y-59578D01*
X47507Y-59564D01*
X47564Y-59564D01*
X47592Y-59578D01*
X47607Y-59592D01*
X47621Y-59621D01*
X47621Y-59678D01*
X47607Y-59707D01*
X47592Y-59721D01*
X47564Y-59735D01*
X47507Y-59735D01*
X47478Y-59721D01*
X47464Y-59707D01*
X47450Y-59678D01*
X42050Y-47871D02*
X42150Y-47728D01*
X42221Y-47871D02*
X42221Y-47571D01*
X42107Y-47571D01*
X42078Y-47585D01*
X42064Y-47600D01*
X42050Y-47628D01*
X42050Y-47671D01*
X42064Y-47700D01*
X42078Y-47714D01*
X42107Y-47728D01*
X42221Y-47728D01*
X41935Y-47600D02*
X41921Y-47585D01*
X41892Y-47571D01*
X41821Y-47571D01*
X41792Y-47585D01*
X41778Y-47600D01*
X41764Y-47628D01*
X41764Y-47657D01*
X41778Y-47700D01*
X41950Y-47871D01*
X41764Y-47871D01*
X44221Y-49450D02*
X44078Y-49350D01*
X44221Y-49278D02*
X43921Y-49278D01*
X43921Y-49392D01*
X43935Y-49421D01*
X43950Y-49435D01*
X43978Y-49450D01*
X44021Y-49450D01*
X44050Y-49435D01*
X44064Y-49421D01*
X44078Y-49392D01*
X44078Y-49278D01*
X43921Y-49550D02*
X43921Y-49735D01*
X44035Y-49635D01*
X44035Y-49678D01*
X44050Y-49707D01*
X44064Y-49721D01*
X44092Y-49735D01*
X44164Y-49735D01*
X44192Y-49721D01*
X44207Y-49707D01*
X44221Y-49678D01*
X44221Y-49592D01*
X44207Y-49564D01*
X44192Y-49550D01*
M02*
