M48
;DRILL file {Pcbnew (2013-07-07 BZR 4022)-stable} date 11/10/2013 6:40:11 PM
;FORMAT={2:4/ absolute / inch / keep zeros}
FMAT,2
INCH,TZ
T1C0.020
T2C0.032
T3C0.040
T4C0.045
T5C0.060
%
G90
G05
M72
T1
X033500Y-060850
X037000Y-049500
X037000Y-050500
X037500Y-050000
X037500Y-051000
X038000Y-050500
X038500Y-050000
X038500Y-061000
X039325Y-052225
X039725Y-055125
X040225Y-053225
X040375Y-050275
X040375Y-056125
X040925Y-053575
X041025Y-056575
X041075Y-050525
X041825Y-050475
X041825Y-053175
X041825Y-056225
X042875Y-051075
X042875Y-054125
X042925Y-057075
X043625Y-054125
X043675Y-051075
X043725Y-057125
X044425Y-054075
X044525Y-057075
X044625Y-053375
X045125Y-053375
T2
X031450Y-052034
X036800Y-052034
X040000Y-048000
X041000Y-048000
X045250Y-049000
X045250Y-050000
X046750Y-049000
X046750Y-050000
X046750Y-051000
X046750Y-052000
X046750Y-053000
X046750Y-054000
X046750Y-055000
X046750Y-056000
X046750Y-057000
X046750Y-058000
X046750Y-059000
X046750Y-060000
T3
X031450Y-053034
X031450Y-054034
X031450Y-055034
X031450Y-056034
X031450Y-057034
X031450Y-058034
X031450Y-059034
X031450Y-060034
X031450Y-061034
X032450Y-052034
X032450Y-053034
X032450Y-054034
X032450Y-055034
X032450Y-056034
X032450Y-057034
X032450Y-058034
X032450Y-059034
X032450Y-060034
X032450Y-061034
X036800Y-053034
X036800Y-054034
X036800Y-055034
X036800Y-056034
X036800Y-057034
X036800Y-058034
X036800Y-059034
X036800Y-060034
X036800Y-061034
X037800Y-052034
X037800Y-053034
X037800Y-054034
X037800Y-055034
X037800Y-056034
X037800Y-057034
X037800Y-058034
X037800Y-059034
X037800Y-060034
X037800Y-061034
T4
X039500Y-048750
X039500Y-059750
X040000Y-059000
X040250Y-048750
X040250Y-058250
X040750Y-059000
X041000Y-048750
X041000Y-058250
X041500Y-061000
X041750Y-048750
X042000Y-060500
X042500Y-049750
X042500Y-059500
X043250Y-059250
X044000Y-059250
X044250Y-051000
X044500Y-049000
X044500Y-050000
X044750Y-059500
X045000Y-048250
X045000Y-060250
X045000Y-061000
X045500Y-047750
X045750Y-060250
X045750Y-061000
X046000Y-048250
X046500Y-047750
X047000Y-048250
X047500Y-047750
X048000Y-048250
X048250Y-047750
T5
X034000Y-048750
X036000Y-048750
X038000Y-048750
X049000Y-048500
X049000Y-050500
X049000Y-052500
X049000Y-054500
X049000Y-056500
X049000Y-058500
X049000Y-060500
T0
M30
