G04 (created by PCBNEW (2013-07-07 BZR 4022)-stable) date 20/09/2014 07:20:55*
%MOIN*%
G04 Gerber Fmt 3.4, Leading zero omitted, Abs format*
%FSLAX34Y34*%
G01*
G70*
G90*
G04 APERTURE LIST*
%ADD10C,0.00590551*%
%ADD11C,0.011811*%
%ADD12C,0.0039*%
%ADD13C,0.006*%
%ADD14C,0.015*%
%ADD15C,0.00393701*%
%ADD16C,0.0026*%
%ADD17C,0.004*%
%ADD18C,0.002*%
%ADD19C,0.005*%
%ADD20C,0.012*%
%ADD21C,0.0043*%
%ADD22C,0.01*%
%ADD23C,0.0024*%
%ADD24C,0.0107*%
G04 APERTURE END LIST*
G54D10*
G54D11*
X75862Y-45845D02*
X76087Y-45845D01*
X75947Y-46239D02*
X75947Y-45732D01*
X75975Y-45676D01*
X76031Y-45648D01*
X76087Y-45648D01*
X76368Y-46239D02*
X76312Y-46210D01*
X76284Y-46182D01*
X76256Y-46126D01*
X76256Y-45957D01*
X76284Y-45901D01*
X76312Y-45873D01*
X76368Y-45845D01*
X76453Y-45845D01*
X76509Y-45873D01*
X76537Y-45901D01*
X76565Y-45957D01*
X76565Y-46126D01*
X76537Y-46182D01*
X76509Y-46210D01*
X76453Y-46239D01*
X76368Y-46239D01*
X76818Y-46239D02*
X76818Y-45845D01*
X76818Y-45957D02*
X76847Y-45901D01*
X76875Y-45873D01*
X76931Y-45845D01*
X76987Y-45845D01*
X77634Y-46239D02*
X77634Y-45845D01*
X77634Y-45957D02*
X77662Y-45901D01*
X77690Y-45873D01*
X77746Y-45845D01*
X77803Y-45845D01*
X78253Y-45845D02*
X78253Y-46239D01*
X78000Y-45845D02*
X78000Y-46154D01*
X78028Y-46210D01*
X78084Y-46239D01*
X78168Y-46239D01*
X78224Y-46210D01*
X78253Y-46182D01*
X78506Y-46210D02*
X78562Y-46239D01*
X78674Y-46239D01*
X78731Y-46210D01*
X78759Y-46154D01*
X78759Y-46126D01*
X78731Y-46070D01*
X78674Y-46042D01*
X78590Y-46042D01*
X78534Y-46014D01*
X78506Y-45957D01*
X78506Y-45929D01*
X78534Y-45873D01*
X78590Y-45845D01*
X78674Y-45845D01*
X78731Y-45873D01*
X79012Y-45929D02*
X79209Y-45929D01*
X79293Y-46239D02*
X79012Y-46239D01*
X79012Y-45648D01*
X79293Y-45648D01*
X79743Y-45929D02*
X79546Y-45929D01*
X79546Y-46239D02*
X79546Y-45648D01*
X79827Y-45648D01*
X80052Y-46239D02*
X80052Y-45648D01*
X75989Y-47183D02*
X75989Y-46790D01*
X75989Y-46902D02*
X76017Y-46846D01*
X76045Y-46818D01*
X76101Y-46790D01*
X76158Y-46790D01*
X76579Y-47155D02*
X76523Y-47183D01*
X76411Y-47183D01*
X76354Y-47155D01*
X76326Y-47099D01*
X76326Y-46874D01*
X76354Y-46818D01*
X76411Y-46790D01*
X76523Y-46790D01*
X76579Y-46818D01*
X76607Y-46874D01*
X76607Y-46930D01*
X76326Y-46987D01*
X76804Y-46790D02*
X76945Y-47183D01*
X77086Y-46790D01*
X77873Y-46593D02*
X77929Y-46593D01*
X77985Y-46621D01*
X78014Y-46649D01*
X78042Y-46705D01*
X78070Y-46818D01*
X78070Y-46958D01*
X78042Y-47071D01*
X78014Y-47127D01*
X77985Y-47155D01*
X77929Y-47183D01*
X77873Y-47183D01*
X77817Y-47155D01*
X77789Y-47127D01*
X77760Y-47071D01*
X77732Y-46958D01*
X77732Y-46818D01*
X77760Y-46705D01*
X77789Y-46649D01*
X77817Y-46621D01*
X77873Y-46593D01*
X78435Y-46593D02*
X78492Y-46593D01*
X78548Y-46621D01*
X78576Y-46649D01*
X78604Y-46705D01*
X78632Y-46818D01*
X78632Y-46958D01*
X78604Y-47071D01*
X78576Y-47127D01*
X78548Y-47155D01*
X78492Y-47183D01*
X78435Y-47183D01*
X78379Y-47155D01*
X78351Y-47127D01*
X78323Y-47071D01*
X78295Y-46958D01*
X78295Y-46818D01*
X78323Y-46705D01*
X78351Y-46649D01*
X78379Y-46621D01*
X78435Y-46593D01*
X78885Y-47127D02*
X78913Y-47155D01*
X78885Y-47183D01*
X78857Y-47155D01*
X78885Y-47127D01*
X78885Y-47183D01*
X79476Y-47183D02*
X79138Y-47183D01*
X79307Y-47183D02*
X79307Y-46593D01*
X79251Y-46677D01*
X79195Y-46733D01*
X79138Y-46762D01*
X80038Y-47183D02*
X79701Y-47183D01*
X79870Y-47183D02*
X79870Y-46593D01*
X79813Y-46677D01*
X79757Y-46733D01*
X79701Y-46762D01*
X71750Y-49776D02*
X71693Y-49748D01*
X71609Y-49748D01*
X71525Y-49776D01*
X71468Y-49832D01*
X71440Y-49889D01*
X71412Y-50001D01*
X71412Y-50085D01*
X71440Y-50198D01*
X71468Y-50254D01*
X71525Y-50310D01*
X71609Y-50339D01*
X71665Y-50339D01*
X71750Y-50310D01*
X71778Y-50282D01*
X71778Y-50085D01*
X71665Y-50085D01*
X72031Y-50339D02*
X72031Y-49748D01*
X72368Y-50339D01*
X72368Y-49748D01*
X72649Y-50339D02*
X72649Y-49748D01*
X72790Y-49748D01*
X72874Y-49776D01*
X72931Y-49832D01*
X72959Y-49889D01*
X72987Y-50001D01*
X72987Y-50085D01*
X72959Y-50198D01*
X72931Y-50254D01*
X72874Y-50310D01*
X72790Y-50339D01*
X72649Y-50339D01*
X71775Y-51648D02*
X72140Y-51648D01*
X71943Y-51873D01*
X72028Y-51873D01*
X72084Y-51901D01*
X72112Y-51929D01*
X72140Y-51985D01*
X72140Y-52126D01*
X72112Y-52182D01*
X72084Y-52210D01*
X72028Y-52239D01*
X71859Y-52239D01*
X71803Y-52210D01*
X71775Y-52182D01*
X72309Y-51648D02*
X72506Y-52239D01*
X72703Y-51648D01*
X72137Y-50773D02*
X71856Y-50773D01*
X71828Y-51054D01*
X71856Y-51026D01*
X71912Y-50998D01*
X72053Y-50998D01*
X72109Y-51026D01*
X72137Y-51054D01*
X72165Y-51110D01*
X72165Y-51251D01*
X72137Y-51307D01*
X72109Y-51335D01*
X72053Y-51364D01*
X71912Y-51364D01*
X71856Y-51335D01*
X71828Y-51307D01*
X72334Y-50773D02*
X72531Y-51364D01*
X72728Y-50773D01*
X81875Y-54226D02*
X81818Y-54198D01*
X81734Y-54198D01*
X81650Y-54226D01*
X81593Y-54282D01*
X81565Y-54339D01*
X81537Y-54451D01*
X81537Y-54535D01*
X81565Y-54648D01*
X81593Y-54704D01*
X81650Y-54760D01*
X81734Y-54789D01*
X81790Y-54789D01*
X81875Y-54760D01*
X81903Y-54732D01*
X81903Y-54535D01*
X81790Y-54535D01*
X82156Y-54789D02*
X82156Y-54198D01*
X82493Y-54789D01*
X82493Y-54198D01*
X82774Y-54789D02*
X82774Y-54198D01*
X82915Y-54198D01*
X82999Y-54226D01*
X83056Y-54282D01*
X83084Y-54339D01*
X83112Y-54451D01*
X83112Y-54535D01*
X83084Y-54648D01*
X83056Y-54704D01*
X82999Y-54760D01*
X82915Y-54789D01*
X82774Y-54789D01*
X81912Y-58198D02*
X81631Y-58198D01*
X81603Y-58479D01*
X81631Y-58451D01*
X81687Y-58423D01*
X81828Y-58423D01*
X81884Y-58451D01*
X81912Y-58479D01*
X81940Y-58535D01*
X81940Y-58676D01*
X81912Y-58732D01*
X81884Y-58760D01*
X81828Y-58789D01*
X81687Y-58789D01*
X81631Y-58760D01*
X81603Y-58732D01*
X82109Y-58198D02*
X82306Y-58789D01*
X82503Y-58198D01*
X83253Y-58023D02*
X83646Y-58023D01*
X83393Y-58614D01*
X83537Y-53239D02*
X83650Y-53239D01*
X83706Y-53210D01*
X83734Y-53182D01*
X83790Y-53098D01*
X83818Y-52985D01*
X83818Y-52760D01*
X83790Y-52704D01*
X83762Y-52676D01*
X83706Y-52648D01*
X83593Y-52648D01*
X83537Y-52676D01*
X83509Y-52704D01*
X83481Y-52760D01*
X83481Y-52901D01*
X83509Y-52957D01*
X83537Y-52985D01*
X83593Y-53014D01*
X83706Y-53014D01*
X83762Y-52985D01*
X83790Y-52957D01*
X83818Y-52901D01*
X83868Y-50389D02*
X83531Y-50389D01*
X83700Y-50389D02*
X83700Y-49798D01*
X83643Y-49882D01*
X83587Y-49939D01*
X83531Y-49967D01*
X72168Y-54314D02*
X72168Y-53723D01*
X72421Y-53779D02*
X72450Y-53751D01*
X72506Y-53723D01*
X72646Y-53723D01*
X72703Y-53751D01*
X72731Y-53779D01*
X72759Y-53835D01*
X72759Y-53892D01*
X72731Y-53976D01*
X72393Y-54314D01*
X72759Y-54314D01*
X72118Y-55264D02*
X72118Y-54673D01*
X72709Y-55264D02*
X72371Y-55264D01*
X72540Y-55264D02*
X72540Y-54673D01*
X72484Y-54757D01*
X72428Y-54814D01*
X72371Y-54842D01*
X72118Y-56214D02*
X72118Y-55623D01*
X72428Y-56214D02*
X72540Y-56214D01*
X72596Y-56185D01*
X72624Y-56157D01*
X72681Y-56073D01*
X72709Y-55960D01*
X72709Y-55735D01*
X72681Y-55679D01*
X72653Y-55651D01*
X72596Y-55623D01*
X72484Y-55623D01*
X72428Y-55651D01*
X72400Y-55679D01*
X72371Y-55735D01*
X72371Y-55876D01*
X72400Y-55932D01*
X72428Y-55960D01*
X72484Y-55989D01*
X72596Y-55989D01*
X72653Y-55960D01*
X72681Y-55932D01*
X72709Y-55876D01*
X71887Y-57214D02*
X71887Y-56623D01*
X72478Y-57214D02*
X72140Y-57214D01*
X72309Y-57214D02*
X72309Y-56623D01*
X72253Y-56707D01*
X72196Y-56764D01*
X72140Y-56792D01*
X72843Y-56623D02*
X72899Y-56623D01*
X72956Y-56651D01*
X72984Y-56679D01*
X73012Y-56735D01*
X73040Y-56848D01*
X73040Y-56989D01*
X73012Y-57101D01*
X72984Y-57157D01*
X72956Y-57185D01*
X72899Y-57214D01*
X72843Y-57214D01*
X72787Y-57185D01*
X72759Y-57157D01*
X72731Y-57101D01*
X72703Y-56989D01*
X72703Y-56848D01*
X72731Y-56735D01*
X72759Y-56679D01*
X72787Y-56651D01*
X72843Y-56623D01*
X71887Y-58264D02*
X71887Y-57673D01*
X72478Y-58264D02*
X72140Y-58264D01*
X72309Y-58264D02*
X72309Y-57673D01*
X72253Y-57757D01*
X72196Y-57814D01*
X72140Y-57842D01*
X73040Y-58264D02*
X72703Y-58264D01*
X72871Y-58264D02*
X72871Y-57673D01*
X72815Y-57757D01*
X72759Y-57814D01*
X72703Y-57842D01*
X71912Y-59264D02*
X71912Y-58673D01*
X72503Y-59264D02*
X72165Y-59264D01*
X72334Y-59264D02*
X72334Y-58673D01*
X72278Y-58757D01*
X72221Y-58814D01*
X72165Y-58842D01*
X72728Y-58729D02*
X72756Y-58701D01*
X72812Y-58673D01*
X72953Y-58673D01*
X73009Y-58701D01*
X73037Y-58729D01*
X73065Y-58785D01*
X73065Y-58842D01*
X73037Y-58926D01*
X72699Y-59264D01*
X73065Y-59264D01*
X68726Y-57282D02*
X68698Y-57310D01*
X68614Y-57339D01*
X68557Y-57339D01*
X68473Y-57310D01*
X68417Y-57254D01*
X68389Y-57198D01*
X68360Y-57085D01*
X68360Y-57001D01*
X68389Y-56889D01*
X68417Y-56832D01*
X68473Y-56776D01*
X68557Y-56748D01*
X68614Y-56748D01*
X68698Y-56776D01*
X68726Y-56804D01*
X68951Y-57310D02*
X69035Y-57339D01*
X69176Y-57339D01*
X69232Y-57310D01*
X69260Y-57282D01*
X69289Y-57226D01*
X69289Y-57170D01*
X69260Y-57114D01*
X69232Y-57085D01*
X69176Y-57057D01*
X69064Y-57029D01*
X69007Y-57001D01*
X68979Y-56973D01*
X68951Y-56917D01*
X68951Y-56860D01*
X68979Y-56804D01*
X69007Y-56776D01*
X69064Y-56748D01*
X69204Y-56748D01*
X69289Y-56776D01*
X68518Y-58339D02*
X68518Y-57748D01*
X68743Y-57748D02*
X69109Y-57748D01*
X68912Y-57973D01*
X68996Y-57973D01*
X69053Y-58001D01*
X69081Y-58029D01*
X69109Y-58085D01*
X69109Y-58226D01*
X69081Y-58282D01*
X69053Y-58310D01*
X68996Y-58339D01*
X68828Y-58339D01*
X68771Y-58310D01*
X68743Y-58282D01*
X68568Y-59364D02*
X68568Y-58773D01*
X69103Y-58970D02*
X69103Y-59364D01*
X68962Y-58745D02*
X68821Y-59167D01*
X69187Y-59167D01*
X68375Y-51748D02*
X68740Y-51748D01*
X68543Y-51973D01*
X68628Y-51973D01*
X68684Y-52001D01*
X68712Y-52029D01*
X68740Y-52085D01*
X68740Y-52226D01*
X68712Y-52282D01*
X68684Y-52310D01*
X68628Y-52339D01*
X68459Y-52339D01*
X68403Y-52310D01*
X68375Y-52282D01*
X68909Y-51748D02*
X69106Y-52339D01*
X69303Y-51748D01*
X68662Y-50723D02*
X68381Y-50723D01*
X68353Y-51004D01*
X68381Y-50976D01*
X68437Y-50948D01*
X68578Y-50948D01*
X68634Y-50976D01*
X68662Y-51004D01*
X68690Y-51060D01*
X68690Y-51201D01*
X68662Y-51257D01*
X68634Y-51285D01*
X68578Y-51314D01*
X68437Y-51314D01*
X68381Y-51285D01*
X68353Y-51257D01*
X68859Y-50723D02*
X69056Y-51314D01*
X69253Y-50723D01*
X75101Y-41714D02*
X74904Y-41432D01*
X74764Y-41714D02*
X74764Y-41123D01*
X74989Y-41123D01*
X75045Y-41151D01*
X75073Y-41179D01*
X75101Y-41235D01*
X75101Y-41320D01*
X75073Y-41376D01*
X75045Y-41404D01*
X74989Y-41432D01*
X74764Y-41432D01*
X75326Y-41685D02*
X75410Y-41714D01*
X75551Y-41714D01*
X75607Y-41685D01*
X75635Y-41657D01*
X75664Y-41601D01*
X75664Y-41545D01*
X75635Y-41489D01*
X75607Y-41460D01*
X75551Y-41432D01*
X75439Y-41404D01*
X75382Y-41376D01*
X75354Y-41348D01*
X75326Y-41292D01*
X75326Y-41235D01*
X75354Y-41179D01*
X75382Y-41151D01*
X75439Y-41123D01*
X75579Y-41123D01*
X75664Y-41151D01*
X74790Y-43185D02*
X74875Y-43214D01*
X75015Y-43214D01*
X75071Y-43185D01*
X75100Y-43157D01*
X75128Y-43101D01*
X75128Y-43045D01*
X75100Y-42989D01*
X75071Y-42960D01*
X75015Y-42932D01*
X74903Y-42904D01*
X74846Y-42876D01*
X74818Y-42848D01*
X74790Y-42792D01*
X74790Y-42735D01*
X74818Y-42679D01*
X74846Y-42651D01*
X74903Y-42623D01*
X75043Y-42623D01*
X75128Y-42651D01*
X75381Y-43214D02*
X75381Y-42623D01*
X78646Y-43210D02*
X78731Y-43239D01*
X78871Y-43239D01*
X78928Y-43210D01*
X78956Y-43182D01*
X78984Y-43126D01*
X78984Y-43070D01*
X78956Y-43014D01*
X78928Y-42985D01*
X78871Y-42957D01*
X78759Y-42929D01*
X78703Y-42901D01*
X78675Y-42873D01*
X78646Y-42817D01*
X78646Y-42760D01*
X78675Y-42704D01*
X78703Y-42676D01*
X78759Y-42648D01*
X78900Y-42648D01*
X78984Y-42676D01*
X79349Y-42648D02*
X79462Y-42648D01*
X79518Y-42676D01*
X79574Y-42732D01*
X79603Y-42845D01*
X79603Y-43042D01*
X79574Y-43154D01*
X79518Y-43210D01*
X79462Y-43239D01*
X79349Y-43239D01*
X79293Y-43210D01*
X79237Y-43154D01*
X79209Y-43042D01*
X79209Y-42845D01*
X79237Y-42732D01*
X79293Y-42676D01*
X79349Y-42648D01*
X78748Y-42107D02*
X78720Y-42135D01*
X78635Y-42164D01*
X78579Y-42164D01*
X78495Y-42135D01*
X78439Y-42079D01*
X78411Y-42023D01*
X78382Y-41910D01*
X78382Y-41826D01*
X78411Y-41714D01*
X78439Y-41657D01*
X78495Y-41601D01*
X78579Y-41573D01*
X78635Y-41573D01*
X78720Y-41601D01*
X78748Y-41629D01*
X79282Y-42164D02*
X79001Y-42164D01*
X79001Y-41573D01*
X79479Y-42164D02*
X79479Y-41573D01*
X79817Y-42164D02*
X79564Y-41826D01*
X79817Y-41573D02*
X79479Y-41910D01*
X77425Y-40048D02*
X77790Y-40048D01*
X77593Y-40273D01*
X77678Y-40273D01*
X77734Y-40301D01*
X77762Y-40329D01*
X77790Y-40385D01*
X77790Y-40526D01*
X77762Y-40582D01*
X77734Y-40610D01*
X77678Y-40639D01*
X77509Y-40639D01*
X77453Y-40610D01*
X77425Y-40582D01*
X77959Y-40048D02*
X78156Y-40639D01*
X78353Y-40048D01*
X79400Y-40001D02*
X79343Y-39973D01*
X79259Y-39973D01*
X79175Y-40001D01*
X79118Y-40057D01*
X79090Y-40114D01*
X79062Y-40226D01*
X79062Y-40310D01*
X79090Y-40423D01*
X79118Y-40479D01*
X79175Y-40535D01*
X79259Y-40564D01*
X79315Y-40564D01*
X79400Y-40535D01*
X79428Y-40507D01*
X79428Y-40310D01*
X79315Y-40310D01*
X79681Y-40564D02*
X79681Y-39973D01*
X80018Y-40564D01*
X80018Y-39973D01*
X80299Y-40564D02*
X80299Y-39973D01*
X80440Y-39973D01*
X80524Y-40001D01*
X80581Y-40057D01*
X80609Y-40114D01*
X80637Y-40226D01*
X80637Y-40310D01*
X80609Y-40423D01*
X80581Y-40479D01*
X80524Y-40535D01*
X80440Y-40564D01*
X80299Y-40564D01*
X82837Y-48498D02*
X82950Y-48498D01*
X83006Y-48526D01*
X83062Y-48582D01*
X83090Y-48695D01*
X83090Y-48892D01*
X83062Y-49004D01*
X83006Y-49060D01*
X82950Y-49089D01*
X82837Y-49089D01*
X82781Y-49060D01*
X82725Y-49004D01*
X82696Y-48892D01*
X82696Y-48695D01*
X82725Y-48582D01*
X82781Y-48526D01*
X82837Y-48498D01*
X83315Y-48554D02*
X83343Y-48526D01*
X83399Y-48498D01*
X83540Y-48498D01*
X83596Y-48526D01*
X83624Y-48554D01*
X83653Y-48610D01*
X83653Y-48667D01*
X83624Y-48751D01*
X83287Y-49089D01*
X83653Y-49089D01*
X82862Y-47073D02*
X82975Y-47073D01*
X83031Y-47101D01*
X83087Y-47157D01*
X83115Y-47270D01*
X83115Y-47467D01*
X83087Y-47579D01*
X83031Y-47635D01*
X82975Y-47664D01*
X82862Y-47664D01*
X82806Y-47635D01*
X82750Y-47579D01*
X82721Y-47467D01*
X82721Y-47270D01*
X82750Y-47157D01*
X82806Y-47101D01*
X82862Y-47073D01*
X83312Y-47073D02*
X83678Y-47073D01*
X83481Y-47298D01*
X83565Y-47298D01*
X83621Y-47326D01*
X83649Y-47354D01*
X83678Y-47410D01*
X83678Y-47551D01*
X83649Y-47607D01*
X83621Y-47635D01*
X83565Y-47664D01*
X83396Y-47664D01*
X83340Y-47635D01*
X83312Y-47607D01*
X82862Y-45698D02*
X82975Y-45698D01*
X83031Y-45726D01*
X83087Y-45782D01*
X83115Y-45895D01*
X83115Y-46092D01*
X83087Y-46204D01*
X83031Y-46260D01*
X82975Y-46289D01*
X82862Y-46289D01*
X82806Y-46260D01*
X82750Y-46204D01*
X82721Y-46092D01*
X82721Y-45895D01*
X82750Y-45782D01*
X82806Y-45726D01*
X82862Y-45698D01*
X83621Y-45895D02*
X83621Y-46289D01*
X83481Y-45670D02*
X83340Y-46092D01*
X83706Y-46092D01*
X82606Y-44373D02*
X82718Y-44373D01*
X82775Y-44401D01*
X82831Y-44457D01*
X82859Y-44570D01*
X82859Y-44767D01*
X82831Y-44879D01*
X82775Y-44935D01*
X82718Y-44964D01*
X82606Y-44964D01*
X82550Y-44935D01*
X82493Y-44879D01*
X82465Y-44767D01*
X82465Y-44570D01*
X82493Y-44457D01*
X82550Y-44401D01*
X82606Y-44373D01*
X83421Y-44964D02*
X83084Y-44964D01*
X83253Y-44964D02*
X83253Y-44373D01*
X83196Y-44457D01*
X83140Y-44514D01*
X83084Y-44542D01*
X83984Y-44964D02*
X83646Y-44964D01*
X83815Y-44964D02*
X83815Y-44373D01*
X83759Y-44457D01*
X83703Y-44514D01*
X83646Y-44542D01*
X82506Y-43023D02*
X82618Y-43023D01*
X82675Y-43051D01*
X82731Y-43107D01*
X82759Y-43220D01*
X82759Y-43417D01*
X82731Y-43529D01*
X82675Y-43585D01*
X82618Y-43614D01*
X82506Y-43614D01*
X82450Y-43585D01*
X82393Y-43529D01*
X82365Y-43417D01*
X82365Y-43220D01*
X82393Y-43107D01*
X82450Y-43051D01*
X82506Y-43023D01*
X83321Y-43614D02*
X82984Y-43614D01*
X83153Y-43614D02*
X83153Y-43023D01*
X83096Y-43107D01*
X83040Y-43164D01*
X82984Y-43192D01*
X83546Y-43079D02*
X83574Y-43051D01*
X83631Y-43023D01*
X83771Y-43023D01*
X83828Y-43051D01*
X83856Y-43079D01*
X83884Y-43135D01*
X83884Y-43192D01*
X83856Y-43276D01*
X83518Y-43614D01*
X83884Y-43614D01*
X82556Y-41623D02*
X82668Y-41623D01*
X82725Y-41651D01*
X82781Y-41707D01*
X82809Y-41820D01*
X82809Y-42017D01*
X82781Y-42129D01*
X82725Y-42185D01*
X82668Y-42214D01*
X82556Y-42214D01*
X82500Y-42185D01*
X82443Y-42129D01*
X82415Y-42017D01*
X82415Y-41820D01*
X82443Y-41707D01*
X82500Y-41651D01*
X82556Y-41623D01*
X83371Y-42214D02*
X83034Y-42214D01*
X83203Y-42214D02*
X83203Y-41623D01*
X83146Y-41707D01*
X83090Y-41764D01*
X83034Y-41792D01*
X83568Y-41623D02*
X83934Y-41623D01*
X83737Y-41848D01*
X83821Y-41848D01*
X83878Y-41876D01*
X83906Y-41904D01*
X83934Y-41960D01*
X83934Y-42101D01*
X83906Y-42157D01*
X83878Y-42185D01*
X83821Y-42214D01*
X83653Y-42214D01*
X83596Y-42185D01*
X83568Y-42157D01*
X82581Y-40223D02*
X82693Y-40223D01*
X82750Y-40251D01*
X82806Y-40307D01*
X82834Y-40420D01*
X82834Y-40617D01*
X82806Y-40729D01*
X82750Y-40785D01*
X82693Y-40814D01*
X82581Y-40814D01*
X82525Y-40785D01*
X82468Y-40729D01*
X82440Y-40617D01*
X82440Y-40420D01*
X82468Y-40307D01*
X82525Y-40251D01*
X82581Y-40223D01*
X83396Y-40814D02*
X83059Y-40814D01*
X83228Y-40814D02*
X83228Y-40223D01*
X83171Y-40307D01*
X83115Y-40364D01*
X83059Y-40392D01*
X83903Y-40420D02*
X83903Y-40814D01*
X83762Y-40195D02*
X83621Y-40617D01*
X83987Y-40617D01*
X83187Y-38848D02*
X83300Y-38848D01*
X83356Y-38876D01*
X83412Y-38932D01*
X83440Y-39045D01*
X83440Y-39242D01*
X83412Y-39354D01*
X83356Y-39410D01*
X83300Y-39439D01*
X83187Y-39439D01*
X83131Y-39410D01*
X83075Y-39354D01*
X83046Y-39242D01*
X83046Y-39045D01*
X83075Y-38932D01*
X83131Y-38876D01*
X83187Y-38848D01*
X83974Y-38848D02*
X83693Y-38848D01*
X83665Y-39129D01*
X83693Y-39101D01*
X83749Y-39073D01*
X83890Y-39073D01*
X83946Y-39101D01*
X83974Y-39129D01*
X84003Y-39185D01*
X84003Y-39326D01*
X83974Y-39382D01*
X83946Y-39410D01*
X83890Y-39439D01*
X83749Y-39439D01*
X83693Y-39410D01*
X83665Y-39382D01*
X83137Y-37423D02*
X83250Y-37423D01*
X83306Y-37451D01*
X83362Y-37507D01*
X83390Y-37620D01*
X83390Y-37817D01*
X83362Y-37929D01*
X83306Y-37985D01*
X83250Y-38014D01*
X83137Y-38014D01*
X83081Y-37985D01*
X83025Y-37929D01*
X82996Y-37817D01*
X82996Y-37620D01*
X83025Y-37507D01*
X83081Y-37451D01*
X83137Y-37423D01*
X83896Y-37423D02*
X83784Y-37423D01*
X83728Y-37451D01*
X83699Y-37479D01*
X83643Y-37564D01*
X83615Y-37676D01*
X83615Y-37901D01*
X83643Y-37957D01*
X83671Y-37985D01*
X83728Y-38014D01*
X83840Y-38014D01*
X83896Y-37985D01*
X83924Y-37957D01*
X83953Y-37901D01*
X83953Y-37760D01*
X83924Y-37704D01*
X83896Y-37676D01*
X83840Y-37648D01*
X83728Y-37648D01*
X83671Y-37676D01*
X83643Y-37704D01*
X83615Y-37760D01*
G54D12*
X76950Y-40200D02*
G75*
G03X76950Y-40200I-50J0D01*
G74*
G01*
X76450Y-40200D02*
X76850Y-40200D01*
X76850Y-40200D02*
X76850Y-40800D01*
X76850Y-40800D02*
X76450Y-40800D01*
X76050Y-40800D02*
X75650Y-40800D01*
X75650Y-40800D02*
X75650Y-40200D01*
X75650Y-40200D02*
X76050Y-40200D01*
X73750Y-42600D02*
G75*
G03X73750Y-42600I-50J0D01*
G74*
G01*
X73700Y-43050D02*
X73700Y-42650D01*
X73700Y-42650D02*
X74300Y-42650D01*
X74300Y-42650D02*
X74300Y-43050D01*
X74300Y-43450D02*
X74300Y-43850D01*
X74300Y-43850D02*
X73700Y-43850D01*
X73700Y-43850D02*
X73700Y-43450D01*
G54D13*
X82750Y-58000D02*
X81750Y-58000D01*
X81750Y-58000D02*
X81750Y-55000D01*
X81750Y-55000D02*
X82750Y-55000D01*
X82750Y-55000D02*
X82750Y-58000D01*
X81750Y-57000D02*
X82750Y-57000D01*
G54D14*
X69500Y-59500D02*
X69500Y-49500D01*
X71500Y-49500D02*
X71500Y-59500D01*
X71500Y-49500D02*
X69500Y-49500D01*
X69500Y-59500D02*
X71500Y-59500D01*
G54D15*
X80218Y-54755D02*
G75*
G03X80218Y-54755I-196J0D01*
G74*
G01*
X76675Y-55149D02*
X76084Y-55149D01*
X76084Y-55149D02*
X76084Y-48850D01*
X76084Y-48850D02*
X76675Y-48850D01*
X80415Y-55149D02*
X80415Y-48850D01*
X80415Y-48850D02*
X79824Y-48850D01*
X80415Y-55149D02*
X79824Y-55149D01*
G54D16*
X73696Y-40868D02*
X73696Y-40996D01*
X73696Y-40996D02*
X73893Y-40996D01*
X73893Y-40868D02*
X73893Y-40996D01*
X73696Y-40868D02*
X73893Y-40868D01*
X73696Y-40623D02*
X73696Y-40682D01*
X73696Y-40682D02*
X73795Y-40682D01*
X73795Y-40623D02*
X73795Y-40682D01*
X73696Y-40623D02*
X73795Y-40623D01*
X73696Y-40818D02*
X73696Y-40877D01*
X73696Y-40877D02*
X73795Y-40877D01*
X73795Y-40818D02*
X73795Y-40877D01*
X73696Y-40818D02*
X73795Y-40818D01*
X73696Y-40672D02*
X73696Y-40828D01*
X73696Y-40828D02*
X73765Y-40828D01*
X73765Y-40672D02*
X73765Y-40828D01*
X73696Y-40672D02*
X73765Y-40672D01*
X73107Y-40868D02*
X73107Y-40996D01*
X73107Y-40996D02*
X73304Y-40996D01*
X73304Y-40868D02*
X73304Y-40996D01*
X73107Y-40868D02*
X73304Y-40868D01*
X73107Y-40504D02*
X73107Y-40632D01*
X73107Y-40632D02*
X73304Y-40632D01*
X73304Y-40504D02*
X73304Y-40632D01*
X73107Y-40504D02*
X73304Y-40504D01*
X73205Y-40818D02*
X73205Y-40877D01*
X73205Y-40877D02*
X73304Y-40877D01*
X73304Y-40818D02*
X73304Y-40877D01*
X73205Y-40818D02*
X73304Y-40818D01*
X73205Y-40623D02*
X73205Y-40682D01*
X73205Y-40682D02*
X73304Y-40682D01*
X73304Y-40623D02*
X73304Y-40682D01*
X73205Y-40623D02*
X73304Y-40623D01*
X73235Y-40672D02*
X73235Y-40828D01*
X73235Y-40828D02*
X73304Y-40828D01*
X73304Y-40672D02*
X73304Y-40828D01*
X73235Y-40672D02*
X73304Y-40672D01*
X73500Y-40711D02*
X73500Y-40789D01*
X73500Y-40789D02*
X73578Y-40789D01*
X73578Y-40711D02*
X73578Y-40789D01*
X73500Y-40711D02*
X73578Y-40711D01*
X73696Y-40514D02*
X73696Y-40632D01*
X73696Y-40632D02*
X73814Y-40632D01*
X73814Y-40514D02*
X73814Y-40632D01*
X73696Y-40514D02*
X73814Y-40514D01*
X73864Y-40504D02*
X73864Y-40593D01*
X73864Y-40593D02*
X73893Y-40593D01*
X73893Y-40504D02*
X73893Y-40593D01*
X73864Y-40504D02*
X73893Y-40504D01*
G54D17*
X73706Y-40976D02*
X73294Y-40976D01*
X73304Y-40524D02*
X73864Y-40524D01*
G54D18*
X73862Y-40573D02*
G75*
G03X73862Y-40573I-28J0D01*
G74*
G01*
G54D17*
X73893Y-40613D02*
G75*
G03X73893Y-40887I0J-137D01*
G74*
G01*
X73107Y-40887D02*
G75*
G03X73107Y-40613I0J137D01*
G74*
G01*
G54D16*
X73696Y-42368D02*
X73696Y-42496D01*
X73696Y-42496D02*
X73893Y-42496D01*
X73893Y-42368D02*
X73893Y-42496D01*
X73696Y-42368D02*
X73893Y-42368D01*
X73696Y-42123D02*
X73696Y-42182D01*
X73696Y-42182D02*
X73795Y-42182D01*
X73795Y-42123D02*
X73795Y-42182D01*
X73696Y-42123D02*
X73795Y-42123D01*
X73696Y-42318D02*
X73696Y-42377D01*
X73696Y-42377D02*
X73795Y-42377D01*
X73795Y-42318D02*
X73795Y-42377D01*
X73696Y-42318D02*
X73795Y-42318D01*
X73696Y-42172D02*
X73696Y-42328D01*
X73696Y-42328D02*
X73765Y-42328D01*
X73765Y-42172D02*
X73765Y-42328D01*
X73696Y-42172D02*
X73765Y-42172D01*
X73107Y-42368D02*
X73107Y-42496D01*
X73107Y-42496D02*
X73304Y-42496D01*
X73304Y-42368D02*
X73304Y-42496D01*
X73107Y-42368D02*
X73304Y-42368D01*
X73107Y-42004D02*
X73107Y-42132D01*
X73107Y-42132D02*
X73304Y-42132D01*
X73304Y-42004D02*
X73304Y-42132D01*
X73107Y-42004D02*
X73304Y-42004D01*
X73205Y-42318D02*
X73205Y-42377D01*
X73205Y-42377D02*
X73304Y-42377D01*
X73304Y-42318D02*
X73304Y-42377D01*
X73205Y-42318D02*
X73304Y-42318D01*
X73205Y-42123D02*
X73205Y-42182D01*
X73205Y-42182D02*
X73304Y-42182D01*
X73304Y-42123D02*
X73304Y-42182D01*
X73205Y-42123D02*
X73304Y-42123D01*
X73235Y-42172D02*
X73235Y-42328D01*
X73235Y-42328D02*
X73304Y-42328D01*
X73304Y-42172D02*
X73304Y-42328D01*
X73235Y-42172D02*
X73304Y-42172D01*
X73500Y-42211D02*
X73500Y-42289D01*
X73500Y-42289D02*
X73578Y-42289D01*
X73578Y-42211D02*
X73578Y-42289D01*
X73500Y-42211D02*
X73578Y-42211D01*
X73696Y-42014D02*
X73696Y-42132D01*
X73696Y-42132D02*
X73814Y-42132D01*
X73814Y-42014D02*
X73814Y-42132D01*
X73696Y-42014D02*
X73814Y-42014D01*
X73864Y-42004D02*
X73864Y-42093D01*
X73864Y-42093D02*
X73893Y-42093D01*
X73893Y-42004D02*
X73893Y-42093D01*
X73864Y-42004D02*
X73893Y-42004D01*
G54D17*
X73706Y-42476D02*
X73294Y-42476D01*
X73304Y-42024D02*
X73864Y-42024D01*
G54D18*
X73862Y-42073D02*
G75*
G03X73862Y-42073I-28J0D01*
G74*
G01*
G54D17*
X73893Y-42113D02*
G75*
G03X73893Y-42387I0J-137D01*
G74*
G01*
X73107Y-42387D02*
G75*
G03X73107Y-42113I0J137D01*
G74*
G01*
G54D19*
X83500Y-56250D02*
X83000Y-56250D01*
X83500Y-55750D02*
X83010Y-55750D01*
X83500Y-55600D02*
X83500Y-56400D01*
X83500Y-56400D02*
X83000Y-56400D01*
X83000Y-56400D02*
X83000Y-55600D01*
X83000Y-55600D02*
X83500Y-55600D01*
G54D20*
X80750Y-36750D02*
X80750Y-39750D01*
X74750Y-36750D02*
X74750Y-39750D01*
X80750Y-37250D02*
X74750Y-37250D01*
X80750Y-39750D02*
X74750Y-39750D01*
X80750Y-36750D02*
X74750Y-36750D01*
G54D12*
X84712Y-36976D02*
X84515Y-36779D01*
X84515Y-36779D02*
X84909Y-36779D01*
X84909Y-36779D02*
X85106Y-36779D01*
X85106Y-36779D02*
X84909Y-36976D01*
X86287Y-59023D02*
X86484Y-59220D01*
X86484Y-59220D02*
X86090Y-59220D01*
X86090Y-59220D02*
X85893Y-59220D01*
X85893Y-59220D02*
X86090Y-59023D01*
X86484Y-36976D02*
X86484Y-59023D01*
X86917Y-36976D02*
X86917Y-59023D01*
X86917Y-59023D02*
X84161Y-59023D01*
X84161Y-59023D02*
X84161Y-36976D01*
X84161Y-36976D02*
X86917Y-36976D01*
X72900Y-41800D02*
G75*
G03X72900Y-41800I-50J0D01*
G74*
G01*
X73300Y-41800D02*
X72900Y-41800D01*
X72900Y-41800D02*
X72900Y-41200D01*
X72900Y-41200D02*
X73300Y-41200D01*
X73700Y-41200D02*
X74100Y-41200D01*
X74100Y-41200D02*
X74100Y-41800D01*
X74100Y-41800D02*
X73700Y-41800D01*
G54D20*
X76000Y-41500D02*
X78000Y-41500D01*
X78000Y-41500D02*
X78000Y-43500D01*
X78000Y-43500D02*
X76000Y-43500D01*
X76000Y-43500D02*
X76000Y-41500D01*
G54D21*
X76217Y-40704D02*
X76151Y-40610D01*
X76104Y-40704D02*
X76104Y-40507D01*
X76179Y-40507D01*
X76198Y-40517D01*
X76207Y-40526D01*
X76217Y-40545D01*
X76217Y-40573D01*
X76207Y-40592D01*
X76198Y-40601D01*
X76179Y-40610D01*
X76104Y-40610D01*
X76404Y-40704D02*
X76292Y-40704D01*
X76348Y-40704D02*
X76348Y-40507D01*
X76329Y-40535D01*
X76310Y-40554D01*
X76292Y-40564D01*
X76310Y-40429D02*
X76245Y-40335D01*
X76198Y-40429D02*
X76198Y-40232D01*
X76273Y-40232D01*
X76292Y-40242D01*
X76301Y-40251D01*
X76310Y-40270D01*
X76310Y-40298D01*
X76301Y-40317D01*
X76292Y-40326D01*
X76273Y-40335D01*
X76198Y-40335D01*
X74204Y-43282D02*
X74110Y-43348D01*
X74204Y-43395D02*
X74007Y-43395D01*
X74007Y-43320D01*
X74017Y-43301D01*
X74026Y-43292D01*
X74045Y-43282D01*
X74073Y-43282D01*
X74092Y-43292D01*
X74101Y-43301D01*
X74110Y-43320D01*
X74110Y-43395D01*
X74026Y-43207D02*
X74017Y-43198D01*
X74007Y-43179D01*
X74007Y-43132D01*
X74017Y-43113D01*
X74026Y-43104D01*
X74045Y-43095D01*
X74064Y-43095D01*
X74092Y-43104D01*
X74204Y-43217D01*
X74204Y-43095D01*
X73929Y-43189D02*
X73835Y-43254D01*
X73929Y-43301D02*
X73732Y-43301D01*
X73732Y-43226D01*
X73742Y-43207D01*
X73751Y-43198D01*
X73770Y-43189D01*
X73798Y-43189D01*
X73817Y-43198D01*
X73826Y-43207D01*
X73835Y-43226D01*
X73835Y-43301D01*
G54D13*
X81561Y-56695D02*
X81161Y-56695D01*
X81561Y-56466D02*
X81333Y-56638D01*
X81161Y-56466D02*
X81390Y-56695D01*
X81561Y-56085D02*
X81561Y-56314D01*
X81561Y-56199D02*
X81161Y-56199D01*
X81219Y-56238D01*
X81257Y-56276D01*
X81276Y-56314D01*
G54D22*
X72411Y-49295D02*
X72011Y-49295D01*
X72011Y-49142D01*
X72030Y-49104D01*
X72050Y-49085D01*
X72088Y-49066D01*
X72145Y-49066D01*
X72183Y-49085D01*
X72202Y-49104D01*
X72221Y-49142D01*
X72221Y-49295D01*
X72411Y-48685D02*
X72411Y-48914D01*
X72411Y-48799D02*
X72011Y-48799D01*
X72069Y-48838D01*
X72107Y-48876D01*
X72126Y-48914D01*
G54D10*
X77959Y-55702D02*
X77959Y-55308D01*
X78053Y-55308D01*
X78109Y-55327D01*
X78146Y-55365D01*
X78165Y-55402D01*
X78184Y-55477D01*
X78184Y-55533D01*
X78165Y-55608D01*
X78146Y-55646D01*
X78109Y-55683D01*
X78053Y-55702D01*
X77959Y-55702D01*
X78334Y-55346D02*
X78353Y-55327D01*
X78390Y-55308D01*
X78484Y-55308D01*
X78521Y-55327D01*
X78540Y-55346D01*
X78559Y-55383D01*
X78559Y-55421D01*
X78540Y-55477D01*
X78315Y-55702D01*
X78559Y-55702D01*
X76800Y-47515D02*
X77025Y-47515D01*
X76912Y-47909D02*
X76912Y-47515D01*
X77343Y-47909D02*
X77156Y-47909D01*
X77156Y-47515D01*
X77475Y-47703D02*
X77606Y-47703D01*
X77662Y-47909D02*
X77475Y-47909D01*
X77475Y-47515D01*
X77662Y-47515D01*
X78000Y-47515D02*
X77925Y-47515D01*
X77887Y-47534D01*
X77868Y-47553D01*
X77831Y-47609D01*
X77812Y-47684D01*
X77812Y-47834D01*
X77831Y-47871D01*
X77850Y-47890D01*
X77887Y-47909D01*
X77962Y-47909D01*
X78000Y-47890D01*
X78018Y-47871D01*
X78037Y-47834D01*
X78037Y-47740D01*
X78018Y-47703D01*
X78000Y-47684D01*
X77962Y-47665D01*
X77887Y-47665D01*
X77850Y-47684D01*
X77831Y-47703D01*
X77812Y-47740D01*
X78187Y-47553D02*
X78206Y-47534D01*
X78243Y-47515D01*
X78337Y-47515D01*
X78374Y-47534D01*
X78393Y-47553D01*
X78412Y-47590D01*
X78412Y-47628D01*
X78393Y-47684D01*
X78168Y-47909D01*
X78412Y-47909D01*
X78749Y-47646D02*
X78749Y-47909D01*
X78656Y-47496D02*
X78562Y-47778D01*
X78806Y-47778D01*
X79031Y-47515D02*
X79068Y-47515D01*
X79106Y-47534D01*
X79124Y-47553D01*
X79143Y-47590D01*
X79162Y-47665D01*
X79162Y-47759D01*
X79143Y-47834D01*
X79124Y-47871D01*
X79106Y-47890D01*
X79068Y-47909D01*
X79031Y-47909D01*
X78993Y-47890D01*
X78974Y-47871D01*
X78956Y-47834D01*
X78937Y-47759D01*
X78937Y-47665D01*
X78956Y-47590D01*
X78974Y-47553D01*
X78993Y-47534D01*
X79031Y-47515D01*
G54D19*
X73646Y-40946D02*
X73346Y-40946D01*
X73346Y-40875D01*
X73360Y-40832D01*
X73389Y-40803D01*
X73417Y-40789D01*
X73475Y-40775D01*
X73517Y-40775D01*
X73575Y-40789D01*
X73603Y-40803D01*
X73632Y-40832D01*
X73646Y-40875D01*
X73646Y-40946D01*
X73646Y-40489D02*
X73646Y-40660D01*
X73646Y-40575D02*
X73346Y-40575D01*
X73389Y-40603D01*
X73417Y-40632D01*
X73432Y-40660D01*
X73696Y-42471D02*
X73396Y-42471D01*
X73396Y-42400D01*
X73410Y-42357D01*
X73439Y-42328D01*
X73467Y-42314D01*
X73525Y-42300D01*
X73567Y-42300D01*
X73625Y-42314D01*
X73653Y-42328D01*
X73682Y-42357D01*
X73696Y-42400D01*
X73696Y-42471D01*
X73396Y-42200D02*
X73396Y-42014D01*
X73510Y-42114D01*
X73510Y-42071D01*
X73525Y-42042D01*
X73539Y-42028D01*
X73567Y-42014D01*
X73639Y-42014D01*
X73667Y-42028D01*
X73682Y-42042D01*
X73696Y-42071D01*
X73696Y-42157D01*
X73682Y-42185D01*
X73667Y-42200D01*
G54D23*
X83676Y-56019D02*
X83682Y-56025D01*
X83687Y-56042D01*
X83687Y-56053D01*
X83682Y-56070D01*
X83670Y-56081D01*
X83659Y-56087D01*
X83637Y-56092D01*
X83620Y-56092D01*
X83597Y-56087D01*
X83586Y-56081D01*
X83575Y-56070D01*
X83569Y-56053D01*
X83569Y-56042D01*
X83575Y-56025D01*
X83581Y-56019D01*
X83687Y-55907D02*
X83687Y-55974D01*
X83687Y-55941D02*
X83569Y-55941D01*
X83586Y-55952D01*
X83597Y-55963D01*
X83603Y-55974D01*
G54D20*
X81057Y-38742D02*
X81057Y-38142D01*
X81400Y-38742D02*
X81142Y-38400D01*
X81400Y-38142D02*
X81057Y-38485D01*
X81628Y-38200D02*
X81657Y-38171D01*
X81714Y-38142D01*
X81857Y-38142D01*
X81914Y-38171D01*
X81942Y-38200D01*
X81971Y-38257D01*
X81971Y-38314D01*
X81942Y-38400D01*
X81600Y-38742D01*
X81971Y-38742D01*
G54D24*
X82775Y-39815D02*
X82094Y-39815D01*
X82094Y-39652D01*
X82127Y-39612D01*
X82159Y-39591D01*
X82224Y-39571D01*
X82321Y-39571D01*
X82386Y-39591D01*
X82418Y-39612D01*
X82451Y-39652D01*
X82451Y-39815D01*
X82159Y-39408D02*
X82127Y-39387D01*
X82094Y-39347D01*
X82094Y-39245D01*
X82127Y-39204D01*
X82159Y-39184D01*
X82224Y-39163D01*
X82289Y-39163D01*
X82386Y-39184D01*
X82775Y-39428D01*
X82775Y-39163D01*
G54D21*
X73646Y-41550D02*
X73503Y-41650D01*
X73646Y-41721D02*
X73346Y-41721D01*
X73346Y-41607D01*
X73360Y-41578D01*
X73375Y-41564D01*
X73403Y-41550D01*
X73446Y-41550D01*
X73475Y-41564D01*
X73489Y-41578D01*
X73503Y-41607D01*
X73503Y-41721D01*
X73346Y-41450D02*
X73346Y-41264D01*
X73460Y-41364D01*
X73460Y-41321D01*
X73475Y-41292D01*
X73489Y-41278D01*
X73517Y-41264D01*
X73589Y-41264D01*
X73617Y-41278D01*
X73632Y-41292D01*
X73646Y-41321D01*
X73646Y-41407D01*
X73632Y-41435D01*
X73617Y-41450D01*
X73560Y-41729D02*
X73495Y-41635D01*
X73448Y-41729D02*
X73448Y-41532D01*
X73523Y-41532D01*
X73542Y-41542D01*
X73551Y-41551D01*
X73560Y-41570D01*
X73560Y-41598D01*
X73551Y-41617D01*
X73542Y-41626D01*
X73523Y-41635D01*
X73448Y-41635D01*
M02*
