G04 (created by PCBNEW (2013-07-07 BZR 4022)-stable) date 20/09/2014 07:20:55*
%MOIN*%
G04 Gerber Fmt 3.4, Leading zero omitted, Abs format*
%FSLAX34Y34*%
G01*
G70*
G90*
G04 APERTURE LIST*
%ADD10C,0.00590551*%
%ADD11C,0.011811*%
G04 APERTURE END LIST*
G54D10*
G54D11*
X72699Y-51648D02*
X72334Y-51648D01*
X72531Y-51873D01*
X72446Y-51873D01*
X72390Y-51901D01*
X72362Y-51929D01*
X72334Y-51985D01*
X72334Y-52126D01*
X72362Y-52182D01*
X72390Y-52210D01*
X72446Y-52239D01*
X72615Y-52239D01*
X72671Y-52210D01*
X72699Y-52182D01*
X72165Y-51648D02*
X71968Y-52239D01*
X71771Y-51648D01*
X72362Y-50773D02*
X72643Y-50773D01*
X72671Y-51054D01*
X72643Y-51026D01*
X72587Y-50998D01*
X72446Y-50998D01*
X72390Y-51026D01*
X72362Y-51054D01*
X72334Y-51110D01*
X72334Y-51251D01*
X72362Y-51307D01*
X72390Y-51335D01*
X72446Y-51364D01*
X72587Y-51364D01*
X72643Y-51335D01*
X72671Y-51307D01*
X72165Y-50773D02*
X71968Y-51364D01*
X71771Y-50773D01*
X83512Y-48498D02*
X83399Y-48498D01*
X83343Y-48526D01*
X83287Y-48582D01*
X83259Y-48695D01*
X83259Y-48892D01*
X83287Y-49004D01*
X83343Y-49060D01*
X83399Y-49089D01*
X83512Y-49089D01*
X83568Y-49060D01*
X83624Y-49004D01*
X83653Y-48892D01*
X83653Y-48695D01*
X83624Y-48582D01*
X83568Y-48526D01*
X83512Y-48498D01*
X83034Y-48554D02*
X83006Y-48526D01*
X82950Y-48498D01*
X82809Y-48498D01*
X82753Y-48526D01*
X82725Y-48554D01*
X82696Y-48610D01*
X82696Y-48667D01*
X82725Y-48751D01*
X83062Y-49089D01*
X82696Y-49089D01*
X78349Y-40048D02*
X77984Y-40048D01*
X78181Y-40273D01*
X78096Y-40273D01*
X78040Y-40301D01*
X78012Y-40329D01*
X77984Y-40385D01*
X77984Y-40526D01*
X78012Y-40582D01*
X78040Y-40610D01*
X78096Y-40639D01*
X78265Y-40639D01*
X78321Y-40610D01*
X78349Y-40582D01*
X77815Y-40048D02*
X77618Y-40639D01*
X77421Y-40048D01*
X83818Y-40223D02*
X83706Y-40223D01*
X83649Y-40251D01*
X83593Y-40307D01*
X83565Y-40420D01*
X83565Y-40617D01*
X83593Y-40729D01*
X83649Y-40785D01*
X83706Y-40814D01*
X83818Y-40814D01*
X83874Y-40785D01*
X83931Y-40729D01*
X83959Y-40617D01*
X83959Y-40420D01*
X83931Y-40307D01*
X83874Y-40251D01*
X83818Y-40223D01*
X83003Y-40814D02*
X83340Y-40814D01*
X83171Y-40814D02*
X83171Y-40223D01*
X83228Y-40307D01*
X83284Y-40364D01*
X83340Y-40392D01*
X82496Y-40420D02*
X82496Y-40814D01*
X82637Y-40195D02*
X82778Y-40617D01*
X82412Y-40617D01*
M02*
