G04 (created by PCBNEW (2013-07-07 BZR 4022)-stable) date 20/09/2014 07:20:55*
%MOIN*%
G04 Gerber Fmt 3.4, Leading zero omitted, Abs format*
%FSLAX34Y34*%
G01*
G70*
G90*
G04 APERTURE LIST*
%ADD10C,0.00590551*%
%ADD11R,0.035X0.055*%
%ADD12R,0.055X0.035*%
%ADD13R,0.06X0.06*%
%ADD14C,0.06*%
%ADD15R,0.23622X0.629921*%
%ADD16R,0.0728346X0.0177165*%
%ADD17R,0.0472X0.0472*%
%ADD18R,0.059X0.0512*%
%ADD19R,0.1X0.1*%
%ADD20C,0.1*%
%ADD21C,0.0708661*%
%ADD22R,0.0708661X0.0708661*%
%ADD23C,0.035*%
%ADD24C,0.01*%
%ADD25C,0.015748*%
G04 APERTURE END LIST*
G54D10*
G54D11*
X76625Y-40500D03*
X75875Y-40500D03*
G54D12*
X74000Y-42875D03*
X74000Y-43625D03*
G54D13*
X82250Y-57500D03*
G54D14*
X82250Y-56500D03*
X82250Y-55500D03*
G54D13*
X70000Y-50000D03*
G54D14*
X71000Y-50000D03*
X70000Y-51000D03*
X71000Y-51000D03*
X70000Y-52000D03*
X71000Y-52000D03*
X70000Y-53000D03*
X71000Y-53000D03*
X70000Y-54000D03*
X71000Y-54000D03*
X70000Y-55000D03*
X71000Y-55000D03*
X70000Y-56000D03*
X71000Y-56000D03*
X70000Y-57000D03*
X71000Y-57000D03*
X70000Y-58000D03*
X71000Y-58000D03*
X70000Y-59000D03*
X71000Y-59000D03*
G54D15*
X78250Y-52000D03*
G54D16*
X80809Y-54175D03*
X80809Y-53919D03*
X80809Y-53663D03*
X80809Y-53407D03*
X80809Y-53151D03*
X80809Y-52895D03*
X80809Y-52639D03*
X80809Y-52383D03*
X80809Y-52127D03*
X80809Y-51872D03*
X80809Y-51616D03*
X80809Y-51360D03*
X80809Y-51104D03*
X80809Y-50848D03*
X80809Y-50592D03*
X80809Y-50336D03*
X80809Y-50080D03*
X80809Y-49824D03*
X75690Y-49824D03*
X75690Y-50080D03*
X75690Y-50336D03*
X75690Y-50592D03*
X75690Y-50848D03*
X75690Y-51104D03*
X75690Y-51360D03*
X75690Y-51616D03*
X75690Y-51872D03*
X75690Y-52127D03*
X75690Y-52383D03*
X75690Y-52639D03*
X75690Y-52895D03*
X75690Y-53151D03*
X75690Y-53407D03*
X75690Y-53663D03*
X75690Y-53919D03*
X75690Y-54175D03*
G54D17*
X73087Y-40750D03*
X73913Y-40750D03*
X73087Y-42250D03*
X73913Y-42250D03*
G54D18*
X83250Y-56375D03*
X83250Y-55625D03*
G54D19*
X79750Y-38250D03*
G54D20*
X77750Y-38250D03*
X75750Y-38250D03*
G54D21*
X85500Y-58334D03*
X85500Y-56956D03*
G54D22*
X85500Y-37665D03*
G54D21*
X85500Y-39043D03*
X85500Y-40421D03*
X85500Y-41799D03*
X85500Y-43177D03*
X85500Y-44555D03*
X85500Y-45933D03*
X85500Y-47311D03*
X85500Y-48688D03*
X85500Y-50066D03*
X85500Y-51444D03*
X85500Y-52822D03*
X85500Y-54200D03*
X85500Y-55578D03*
G54D11*
X73125Y-41500D03*
X73875Y-41500D03*
G54D13*
X76500Y-43000D03*
G54D14*
X76500Y-42000D03*
X77500Y-43000D03*
X77500Y-42000D03*
G54D23*
X75500Y-47250D03*
X81000Y-47250D03*
X80500Y-47750D03*
X80000Y-48250D03*
X79500Y-48250D03*
X79000Y-48250D03*
X78500Y-48250D03*
X78000Y-48250D03*
X77500Y-48250D03*
X77000Y-48250D03*
X76500Y-48250D03*
X76000Y-47750D03*
X75500Y-55750D03*
X81000Y-56750D03*
X80500Y-56250D03*
X80000Y-55750D03*
X79500Y-55750D03*
X79000Y-55750D03*
X78500Y-55750D03*
X78000Y-55750D03*
X77500Y-55750D03*
X77000Y-55750D03*
X76500Y-55750D03*
X76000Y-55750D03*
X83000Y-52500D03*
X83000Y-51500D03*
X73250Y-50000D03*
X73250Y-51500D03*
X82500Y-53000D03*
X83000Y-53000D03*
X83000Y-51000D03*
X83000Y-50500D03*
X73500Y-48500D03*
X83000Y-52000D03*
X72500Y-52500D03*
X73000Y-52750D03*
X72750Y-51750D03*
X75750Y-54750D03*
X75500Y-49000D03*
X81000Y-49000D03*
G54D24*
X81000Y-47250D02*
X80500Y-47750D01*
X79500Y-48250D02*
X80000Y-48250D01*
X78500Y-48250D02*
X79000Y-48250D01*
X77500Y-48250D02*
X78000Y-48250D01*
X76500Y-48250D02*
X77000Y-48250D01*
X76000Y-47750D02*
X75500Y-47250D01*
X81000Y-56750D02*
X80500Y-56250D01*
X79500Y-55750D02*
X80000Y-55750D01*
X78500Y-55750D02*
X79000Y-55750D01*
X77500Y-55750D02*
X78000Y-55750D01*
X76500Y-55750D02*
X77000Y-55750D01*
X76000Y-55750D02*
X75500Y-55750D01*
G54D25*
X72250Y-49750D02*
X71000Y-51000D01*
X73000Y-42500D02*
X73000Y-40500D01*
X73000Y-42500D02*
X72500Y-43000D01*
X72500Y-43000D02*
X72500Y-45000D01*
X72500Y-45000D02*
X72250Y-45250D01*
X72250Y-45250D02*
X72250Y-49750D01*
X82883Y-52383D02*
X83000Y-52500D01*
X82883Y-52383D02*
X80809Y-52383D01*
X83250Y-56375D02*
X83250Y-56500D01*
X83250Y-56500D02*
X82250Y-57500D01*
X73087Y-40750D02*
X73087Y-40587D01*
X73087Y-40587D02*
X73000Y-40500D01*
X73087Y-40750D02*
X73087Y-41462D01*
X73087Y-41462D02*
X73125Y-41500D01*
X73087Y-42250D02*
X73087Y-41538D01*
X73087Y-41538D02*
X73125Y-41500D01*
X73000Y-40500D02*
X73000Y-40250D01*
X73000Y-40250D02*
X75000Y-38250D01*
X75000Y-38250D02*
X75750Y-38250D01*
X72750Y-50000D02*
X72750Y-50250D01*
X72750Y-50250D02*
X71000Y-52000D01*
X74500Y-40000D02*
X73750Y-40000D01*
X73500Y-40250D02*
X73500Y-43000D01*
X73750Y-40000D02*
X73500Y-40250D01*
X73500Y-43000D02*
X73250Y-43000D01*
X73000Y-43250D02*
X73000Y-44250D01*
X73250Y-43000D02*
X73000Y-43250D01*
X76500Y-39500D02*
X77750Y-38250D01*
X75000Y-39500D02*
X76500Y-39500D01*
X74500Y-40000D02*
X75000Y-39500D01*
X72750Y-50000D02*
X72750Y-45500D01*
X72750Y-45500D02*
X73000Y-45250D01*
X73000Y-45250D02*
X73000Y-44250D01*
X70000Y-52000D02*
X71000Y-52000D01*
G54D24*
X82627Y-51872D02*
X83000Y-51500D01*
X80809Y-51872D02*
X82627Y-51872D01*
X75690Y-51616D02*
X73366Y-51616D01*
X73250Y-44375D02*
X74000Y-43625D01*
X73250Y-45500D02*
X73250Y-44375D01*
X73000Y-45750D02*
X73250Y-45500D01*
X73000Y-49750D02*
X73000Y-45750D01*
X73250Y-50000D02*
X73000Y-49750D01*
X73366Y-51616D02*
X73250Y-51500D01*
X82395Y-52895D02*
X82500Y-53000D01*
X80809Y-52895D02*
X82395Y-52895D01*
X74000Y-51360D02*
X73860Y-51360D01*
X72000Y-52000D02*
X72000Y-52750D01*
X73000Y-51000D02*
X72000Y-52000D01*
X73500Y-51000D02*
X73000Y-51000D01*
X73860Y-51360D02*
X73500Y-51000D01*
X75690Y-51360D02*
X74000Y-51360D01*
X71750Y-57000D02*
X71000Y-57000D01*
X72000Y-52750D02*
X72000Y-56750D01*
X72000Y-56750D02*
X71750Y-57000D01*
X75690Y-52639D02*
X73860Y-52639D01*
X73000Y-58000D02*
X73500Y-57500D01*
X73500Y-57500D02*
X73500Y-53000D01*
X73000Y-58000D02*
X71000Y-58000D01*
X73860Y-52639D02*
X73500Y-53000D01*
X73750Y-53250D02*
X73750Y-58000D01*
X74104Y-52895D02*
X73750Y-53250D01*
X75690Y-52895D02*
X74104Y-52895D01*
X72750Y-59000D02*
X71000Y-59000D01*
X73750Y-58000D02*
X72750Y-59000D01*
X82639Y-52639D02*
X83000Y-53000D01*
X80809Y-52639D02*
X82639Y-52639D01*
X82639Y-51360D02*
X83000Y-51000D01*
X80809Y-51360D02*
X82639Y-51360D01*
X80809Y-51104D02*
X82395Y-51104D01*
X82395Y-51104D02*
X83000Y-50500D01*
X73250Y-50750D02*
X72750Y-50750D01*
X71750Y-51750D02*
X71750Y-52250D01*
X72750Y-50750D02*
X71750Y-51750D01*
X74250Y-51104D02*
X74104Y-51104D01*
X71750Y-52250D02*
X71750Y-52500D01*
X71500Y-56000D02*
X71000Y-56000D01*
X71750Y-52500D02*
X71750Y-55750D01*
X71750Y-55750D02*
X71500Y-56000D01*
X73750Y-50750D02*
X73250Y-50750D01*
X74104Y-51104D02*
X73750Y-50750D01*
X75690Y-51104D02*
X74250Y-51104D01*
G54D25*
X82500Y-54000D02*
X83500Y-54000D01*
X81907Y-53407D02*
X82500Y-54000D01*
X80809Y-53407D02*
X81907Y-53407D01*
X84000Y-51566D02*
X85500Y-50066D01*
X84000Y-53500D02*
X84000Y-51566D01*
X83500Y-54000D02*
X84000Y-53500D01*
X82500Y-54500D02*
X83500Y-54500D01*
X81663Y-53663D02*
X82500Y-54500D01*
X80809Y-53663D02*
X81663Y-53663D01*
X84500Y-52444D02*
X85500Y-51444D01*
X84500Y-53500D02*
X84500Y-52444D01*
X83500Y-54500D02*
X84500Y-53500D01*
X82000Y-49250D02*
X82000Y-48500D01*
X82000Y-48500D02*
X82500Y-48000D01*
X82000Y-50000D02*
X82000Y-49250D01*
X80809Y-50336D02*
X81663Y-50336D01*
X82500Y-47555D02*
X85500Y-44555D01*
X82500Y-48000D02*
X82500Y-47555D01*
X81663Y-50336D02*
X82000Y-50000D01*
X81500Y-49250D02*
X81500Y-48250D01*
X81500Y-48250D02*
X82000Y-47750D01*
X81500Y-50000D02*
X81500Y-49250D01*
X80809Y-50080D02*
X81419Y-50080D01*
X82000Y-46677D02*
X85500Y-43177D01*
X82000Y-47750D02*
X82000Y-46677D01*
X81419Y-50080D02*
X81500Y-50000D01*
X75690Y-50080D02*
X75080Y-50080D01*
X82049Y-45250D02*
X85500Y-41799D01*
X75000Y-45250D02*
X82049Y-45250D01*
X74750Y-45500D02*
X75000Y-45250D01*
X74750Y-49750D02*
X74750Y-45500D01*
X75080Y-50080D02*
X74750Y-49750D01*
X75690Y-50336D02*
X74836Y-50336D01*
X80921Y-45000D02*
X85500Y-40421D01*
X74750Y-45000D02*
X80921Y-45000D01*
X74500Y-45250D02*
X74750Y-45000D01*
X74500Y-50000D02*
X74500Y-45250D01*
X74836Y-50336D02*
X74500Y-50000D01*
X84250Y-57500D02*
X84750Y-57000D01*
X84750Y-57000D02*
X84750Y-56328D01*
X82578Y-58500D02*
X83750Y-58500D01*
X84250Y-58000D02*
X84250Y-57500D01*
X83750Y-58500D02*
X84250Y-58000D01*
X82250Y-58500D02*
X82578Y-58500D01*
X74836Y-53663D02*
X74500Y-54000D01*
X74500Y-54000D02*
X74500Y-58500D01*
X74500Y-58500D02*
X82250Y-58500D01*
X75690Y-53663D02*
X74836Y-53663D01*
X84750Y-56328D02*
X85500Y-55578D01*
X84250Y-56750D02*
X83750Y-57250D01*
X84000Y-57000D02*
X83750Y-57250D01*
X84250Y-56750D02*
X84250Y-56000D01*
X84000Y-57000D02*
X84250Y-56750D01*
X82000Y-58250D02*
X83250Y-58250D01*
X74737Y-58237D02*
X74750Y-58250D01*
X83750Y-57750D02*
X83750Y-57250D01*
X74737Y-54262D02*
X74737Y-58237D01*
X75080Y-53919D02*
X74737Y-54262D01*
X75690Y-53919D02*
X75080Y-53919D01*
X74750Y-58250D02*
X82000Y-58250D01*
X83250Y-58250D02*
X83750Y-57750D01*
X84250Y-55450D02*
X85500Y-54200D01*
X84250Y-56000D02*
X84250Y-55450D01*
X80809Y-53151D02*
X82151Y-53151D01*
X83500Y-50688D02*
X85500Y-48688D01*
X83500Y-53250D02*
X83500Y-50688D01*
X83250Y-53500D02*
X83500Y-53250D01*
X82500Y-53500D02*
X83250Y-53500D01*
X82151Y-53151D02*
X82500Y-53500D01*
X83000Y-49250D02*
X83000Y-48500D01*
X83000Y-48500D02*
X83500Y-48000D01*
X83000Y-50000D02*
X83000Y-49250D01*
X83938Y-47311D02*
X85500Y-47311D01*
X83500Y-47750D02*
X83938Y-47311D01*
X83500Y-48000D02*
X83500Y-47750D01*
X80809Y-50848D02*
X82151Y-50848D01*
X82151Y-50848D02*
X83000Y-50000D01*
X82500Y-49250D02*
X82500Y-48500D01*
X82500Y-48500D02*
X83000Y-48000D01*
X83000Y-48000D02*
X83000Y-47500D01*
X84566Y-45933D02*
X85500Y-45933D01*
X83000Y-47500D02*
X84566Y-45933D01*
X82500Y-50000D02*
X82500Y-49250D01*
X80809Y-50592D02*
X81907Y-50592D01*
X81907Y-50592D02*
X82500Y-50000D01*
X75690Y-50592D02*
X74592Y-50592D01*
X79793Y-44750D02*
X85500Y-39043D01*
X74500Y-44750D02*
X79793Y-44750D01*
X74250Y-45000D02*
X74500Y-44750D01*
X74250Y-50250D02*
X74250Y-45000D01*
X74592Y-50592D02*
X74250Y-50250D01*
X75690Y-50848D02*
X74348Y-50848D01*
X78665Y-44500D02*
X85500Y-37665D01*
X74250Y-44500D02*
X78665Y-44500D01*
X74000Y-44750D02*
X74250Y-44500D01*
X74000Y-50500D02*
X74000Y-44750D01*
X74348Y-50848D02*
X74000Y-50500D01*
X84250Y-59000D02*
X84834Y-59000D01*
X84834Y-59000D02*
X85500Y-58334D01*
X75690Y-53151D02*
X74348Y-53151D01*
X74000Y-59000D02*
X84250Y-59000D01*
X74000Y-53500D02*
X74000Y-59000D01*
X74348Y-53151D02*
X74000Y-53500D01*
X83728Y-58762D02*
X84237Y-58762D01*
X84750Y-57706D02*
X85500Y-56956D01*
X84750Y-58250D02*
X84750Y-57706D01*
X84237Y-58762D02*
X84750Y-58250D01*
X82500Y-58762D02*
X83728Y-58762D01*
X74592Y-53407D02*
X74250Y-53750D01*
X74250Y-53750D02*
X74250Y-58762D01*
X74250Y-58762D02*
X82500Y-58762D01*
X75690Y-53407D02*
X74592Y-53407D01*
X82500Y-55000D02*
X83500Y-55000D01*
X81419Y-53919D02*
X82500Y-55000D01*
X80809Y-53919D02*
X81419Y-53919D01*
X85500Y-53000D02*
X85500Y-52822D01*
X83500Y-55000D02*
X85500Y-53000D01*
G54D24*
X80809Y-51616D02*
X80133Y-51616D01*
X82000Y-56500D02*
X82250Y-56500D01*
X80000Y-54500D02*
X82000Y-56500D01*
X80000Y-51750D02*
X80000Y-54500D01*
X80133Y-51616D02*
X80000Y-51750D01*
X80809Y-52127D02*
X82872Y-52127D01*
X74500Y-44000D02*
X76500Y-42000D01*
X74000Y-44000D02*
X74500Y-44000D01*
X73500Y-44500D02*
X74000Y-44000D01*
X73500Y-48500D02*
X73500Y-44500D01*
X82872Y-52127D02*
X83000Y-52000D01*
X76500Y-42000D02*
X74750Y-42000D01*
X74750Y-42000D02*
X74250Y-41500D01*
X73875Y-41500D02*
X74250Y-41500D01*
X72872Y-52127D02*
X72500Y-52500D01*
X75690Y-52127D02*
X72872Y-52127D01*
X73366Y-52383D02*
X73000Y-52750D01*
X73366Y-52383D02*
X75690Y-52383D01*
X75690Y-51872D02*
X72872Y-51872D01*
X72872Y-51872D02*
X72750Y-51750D01*
G54D25*
X71000Y-50000D02*
X70000Y-50000D01*
X75690Y-54175D02*
X75690Y-54440D01*
X75690Y-54440D02*
X75690Y-54175D01*
X75690Y-54175D02*
X75750Y-54234D01*
X75750Y-54234D02*
X75750Y-54750D01*
X82250Y-55500D02*
X82133Y-55500D01*
X82133Y-55500D02*
X80809Y-54175D01*
X82250Y-55500D02*
X83125Y-55500D01*
X83125Y-55500D02*
X83250Y-55625D01*
X75690Y-49824D02*
X75690Y-49190D01*
X75690Y-49190D02*
X75500Y-49000D01*
X80809Y-49824D02*
X80809Y-49190D01*
X80809Y-49190D02*
X81000Y-49000D01*
X76625Y-40500D02*
X77500Y-40500D01*
X77500Y-40500D02*
X79750Y-38250D01*
X75690Y-49824D02*
X76324Y-49824D01*
X76324Y-54175D02*
X76500Y-54000D01*
X76500Y-54000D02*
X76500Y-50250D01*
X76324Y-54175D02*
X75690Y-54175D01*
X76500Y-50000D02*
X76500Y-50250D01*
X76324Y-49824D02*
X76500Y-50000D01*
G54D24*
X74000Y-42875D02*
X74000Y-42337D01*
X74000Y-42337D02*
X73913Y-42250D01*
X75875Y-40500D02*
X74750Y-40500D01*
X74500Y-40750D02*
X73913Y-40750D01*
X74750Y-40500D02*
X74500Y-40750D01*
G54D10*
G36*
X81450Y-47473D02*
X81229Y-47620D01*
X81229Y-47204D01*
X81194Y-47120D01*
X81130Y-47055D01*
X81045Y-47020D01*
X80954Y-47020D01*
X80870Y-47055D01*
X80805Y-47119D01*
X80770Y-47204D01*
X80770Y-47295D01*
X80780Y-47321D01*
X80571Y-47530D01*
X80545Y-47520D01*
X80454Y-47520D01*
X80370Y-47555D01*
X80305Y-47619D01*
X80270Y-47704D01*
X80270Y-47795D01*
X80305Y-47879D01*
X80369Y-47944D01*
X80454Y-47979D01*
X80545Y-47979D01*
X80629Y-47944D01*
X80694Y-47880D01*
X80729Y-47795D01*
X80729Y-47704D01*
X80719Y-47678D01*
X80928Y-47469D01*
X80954Y-47479D01*
X81045Y-47479D01*
X81129Y-47444D01*
X81194Y-47380D01*
X81229Y-47295D01*
X81229Y-47204D01*
X81229Y-47620D01*
X80229Y-48286D01*
X80229Y-48204D01*
X80194Y-48120D01*
X80130Y-48055D01*
X80045Y-48020D01*
X79954Y-48020D01*
X79870Y-48055D01*
X79805Y-48119D01*
X79794Y-48145D01*
X79705Y-48145D01*
X79694Y-48120D01*
X79630Y-48055D01*
X79545Y-48020D01*
X79454Y-48020D01*
X79370Y-48055D01*
X79305Y-48119D01*
X79270Y-48204D01*
X79270Y-48295D01*
X79305Y-48379D01*
X79369Y-48444D01*
X79454Y-48479D01*
X79545Y-48479D01*
X79629Y-48444D01*
X79694Y-48380D01*
X79705Y-48354D01*
X79794Y-48354D01*
X79805Y-48379D01*
X79869Y-48444D01*
X79940Y-48473D01*
X79287Y-48800D01*
X79229Y-48800D01*
X79229Y-48204D01*
X79194Y-48120D01*
X79130Y-48055D01*
X79045Y-48020D01*
X78954Y-48020D01*
X78870Y-48055D01*
X78805Y-48119D01*
X78794Y-48145D01*
X78705Y-48145D01*
X78694Y-48120D01*
X78630Y-48055D01*
X78545Y-48020D01*
X78454Y-48020D01*
X78370Y-48055D01*
X78305Y-48119D01*
X78270Y-48204D01*
X78270Y-48295D01*
X78305Y-48379D01*
X78369Y-48444D01*
X78454Y-48479D01*
X78545Y-48479D01*
X78629Y-48444D01*
X78694Y-48380D01*
X78705Y-48354D01*
X78794Y-48354D01*
X78805Y-48379D01*
X78869Y-48444D01*
X78954Y-48479D01*
X79045Y-48479D01*
X79129Y-48444D01*
X79194Y-48380D01*
X79229Y-48295D01*
X79229Y-48204D01*
X79229Y-48800D01*
X78229Y-48800D01*
X78229Y-48204D01*
X78194Y-48120D01*
X78130Y-48055D01*
X78045Y-48020D01*
X77954Y-48020D01*
X77870Y-48055D01*
X77805Y-48119D01*
X77794Y-48145D01*
X77705Y-48145D01*
X77694Y-48120D01*
X77630Y-48055D01*
X77545Y-48020D01*
X77454Y-48020D01*
X77370Y-48055D01*
X77305Y-48119D01*
X77270Y-48204D01*
X77270Y-48295D01*
X77305Y-48379D01*
X77369Y-48444D01*
X77454Y-48479D01*
X77545Y-48479D01*
X77629Y-48444D01*
X77694Y-48380D01*
X77705Y-48354D01*
X77794Y-48354D01*
X77805Y-48379D01*
X77869Y-48444D01*
X77954Y-48479D01*
X78045Y-48479D01*
X78129Y-48444D01*
X78194Y-48380D01*
X78229Y-48295D01*
X78229Y-48204D01*
X78229Y-48800D01*
X77212Y-48800D01*
X76559Y-48473D01*
X76629Y-48444D01*
X76694Y-48380D01*
X76705Y-48354D01*
X76794Y-48354D01*
X76805Y-48379D01*
X76869Y-48444D01*
X76954Y-48479D01*
X77045Y-48479D01*
X77129Y-48444D01*
X77194Y-48380D01*
X77229Y-48295D01*
X77229Y-48204D01*
X77194Y-48120D01*
X77130Y-48055D01*
X77045Y-48020D01*
X76954Y-48020D01*
X76870Y-48055D01*
X76805Y-48119D01*
X76794Y-48145D01*
X76705Y-48145D01*
X76694Y-48120D01*
X76630Y-48055D01*
X76545Y-48020D01*
X76454Y-48020D01*
X76370Y-48055D01*
X76305Y-48119D01*
X76270Y-48204D01*
X76270Y-48286D01*
X76229Y-48259D01*
X76229Y-47704D01*
X76194Y-47620D01*
X76130Y-47555D01*
X76045Y-47520D01*
X75954Y-47520D01*
X75928Y-47530D01*
X75719Y-47321D01*
X75729Y-47295D01*
X75729Y-47204D01*
X75694Y-47120D01*
X75630Y-47055D01*
X75545Y-47020D01*
X75454Y-47020D01*
X75370Y-47055D01*
X75305Y-47119D01*
X75270Y-47204D01*
X75270Y-47295D01*
X75305Y-47379D01*
X75369Y-47444D01*
X75454Y-47479D01*
X75545Y-47479D01*
X75571Y-47469D01*
X75780Y-47678D01*
X75770Y-47704D01*
X75770Y-47795D01*
X75805Y-47879D01*
X75869Y-47944D01*
X75954Y-47979D01*
X76045Y-47979D01*
X76129Y-47944D01*
X76194Y-47880D01*
X76229Y-47795D01*
X76229Y-47704D01*
X76229Y-48259D01*
X75050Y-47473D01*
X75050Y-46000D01*
X75050Y-45770D01*
X75270Y-45550D01*
X81450Y-45550D01*
X81450Y-46000D01*
X81450Y-47473D01*
X81450Y-47473D01*
G37*
G54D24*
X81450Y-47473D02*
X81229Y-47620D01*
X81229Y-47204D01*
X81194Y-47120D01*
X81130Y-47055D01*
X81045Y-47020D01*
X80954Y-47020D01*
X80870Y-47055D01*
X80805Y-47119D01*
X80770Y-47204D01*
X80770Y-47295D01*
X80780Y-47321D01*
X80571Y-47530D01*
X80545Y-47520D01*
X80454Y-47520D01*
X80370Y-47555D01*
X80305Y-47619D01*
X80270Y-47704D01*
X80270Y-47795D01*
X80305Y-47879D01*
X80369Y-47944D01*
X80454Y-47979D01*
X80545Y-47979D01*
X80629Y-47944D01*
X80694Y-47880D01*
X80729Y-47795D01*
X80729Y-47704D01*
X80719Y-47678D01*
X80928Y-47469D01*
X80954Y-47479D01*
X81045Y-47479D01*
X81129Y-47444D01*
X81194Y-47380D01*
X81229Y-47295D01*
X81229Y-47204D01*
X81229Y-47620D01*
X80229Y-48286D01*
X80229Y-48204D01*
X80194Y-48120D01*
X80130Y-48055D01*
X80045Y-48020D01*
X79954Y-48020D01*
X79870Y-48055D01*
X79805Y-48119D01*
X79794Y-48145D01*
X79705Y-48145D01*
X79694Y-48120D01*
X79630Y-48055D01*
X79545Y-48020D01*
X79454Y-48020D01*
X79370Y-48055D01*
X79305Y-48119D01*
X79270Y-48204D01*
X79270Y-48295D01*
X79305Y-48379D01*
X79369Y-48444D01*
X79454Y-48479D01*
X79545Y-48479D01*
X79629Y-48444D01*
X79694Y-48380D01*
X79705Y-48354D01*
X79794Y-48354D01*
X79805Y-48379D01*
X79869Y-48444D01*
X79940Y-48473D01*
X79287Y-48800D01*
X79229Y-48800D01*
X79229Y-48204D01*
X79194Y-48120D01*
X79130Y-48055D01*
X79045Y-48020D01*
X78954Y-48020D01*
X78870Y-48055D01*
X78805Y-48119D01*
X78794Y-48145D01*
X78705Y-48145D01*
X78694Y-48120D01*
X78630Y-48055D01*
X78545Y-48020D01*
X78454Y-48020D01*
X78370Y-48055D01*
X78305Y-48119D01*
X78270Y-48204D01*
X78270Y-48295D01*
X78305Y-48379D01*
X78369Y-48444D01*
X78454Y-48479D01*
X78545Y-48479D01*
X78629Y-48444D01*
X78694Y-48380D01*
X78705Y-48354D01*
X78794Y-48354D01*
X78805Y-48379D01*
X78869Y-48444D01*
X78954Y-48479D01*
X79045Y-48479D01*
X79129Y-48444D01*
X79194Y-48380D01*
X79229Y-48295D01*
X79229Y-48204D01*
X79229Y-48800D01*
X78229Y-48800D01*
X78229Y-48204D01*
X78194Y-48120D01*
X78130Y-48055D01*
X78045Y-48020D01*
X77954Y-48020D01*
X77870Y-48055D01*
X77805Y-48119D01*
X77794Y-48145D01*
X77705Y-48145D01*
X77694Y-48120D01*
X77630Y-48055D01*
X77545Y-48020D01*
X77454Y-48020D01*
X77370Y-48055D01*
X77305Y-48119D01*
X77270Y-48204D01*
X77270Y-48295D01*
X77305Y-48379D01*
X77369Y-48444D01*
X77454Y-48479D01*
X77545Y-48479D01*
X77629Y-48444D01*
X77694Y-48380D01*
X77705Y-48354D01*
X77794Y-48354D01*
X77805Y-48379D01*
X77869Y-48444D01*
X77954Y-48479D01*
X78045Y-48479D01*
X78129Y-48444D01*
X78194Y-48380D01*
X78229Y-48295D01*
X78229Y-48204D01*
X78229Y-48800D01*
X77212Y-48800D01*
X76559Y-48473D01*
X76629Y-48444D01*
X76694Y-48380D01*
X76705Y-48354D01*
X76794Y-48354D01*
X76805Y-48379D01*
X76869Y-48444D01*
X76954Y-48479D01*
X77045Y-48479D01*
X77129Y-48444D01*
X77194Y-48380D01*
X77229Y-48295D01*
X77229Y-48204D01*
X77194Y-48120D01*
X77130Y-48055D01*
X77045Y-48020D01*
X76954Y-48020D01*
X76870Y-48055D01*
X76805Y-48119D01*
X76794Y-48145D01*
X76705Y-48145D01*
X76694Y-48120D01*
X76630Y-48055D01*
X76545Y-48020D01*
X76454Y-48020D01*
X76370Y-48055D01*
X76305Y-48119D01*
X76270Y-48204D01*
X76270Y-48286D01*
X76229Y-48259D01*
X76229Y-47704D01*
X76194Y-47620D01*
X76130Y-47555D01*
X76045Y-47520D01*
X75954Y-47520D01*
X75928Y-47530D01*
X75719Y-47321D01*
X75729Y-47295D01*
X75729Y-47204D01*
X75694Y-47120D01*
X75630Y-47055D01*
X75545Y-47020D01*
X75454Y-47020D01*
X75370Y-47055D01*
X75305Y-47119D01*
X75270Y-47204D01*
X75270Y-47295D01*
X75305Y-47379D01*
X75369Y-47444D01*
X75454Y-47479D01*
X75545Y-47479D01*
X75571Y-47469D01*
X75780Y-47678D01*
X75770Y-47704D01*
X75770Y-47795D01*
X75805Y-47879D01*
X75869Y-47944D01*
X75954Y-47979D01*
X76045Y-47979D01*
X76129Y-47944D01*
X76194Y-47880D01*
X76229Y-47795D01*
X76229Y-47704D01*
X76229Y-48259D01*
X75050Y-47473D01*
X75050Y-46000D01*
X75050Y-45770D01*
X75270Y-45550D01*
X81450Y-45550D01*
X81450Y-46000D01*
X81450Y-47473D01*
G54D10*
G36*
X81450Y-57950D02*
X81229Y-57950D01*
X81229Y-56704D01*
X81194Y-56620D01*
X81130Y-56555D01*
X81045Y-56520D01*
X80954Y-56520D01*
X80928Y-56530D01*
X80719Y-56321D01*
X80729Y-56295D01*
X80729Y-56204D01*
X80694Y-56120D01*
X80630Y-56055D01*
X80545Y-56020D01*
X80454Y-56020D01*
X80370Y-56055D01*
X80305Y-56119D01*
X80270Y-56204D01*
X80270Y-56295D01*
X80305Y-56379D01*
X80369Y-56444D01*
X80454Y-56479D01*
X80545Y-56479D01*
X80571Y-56469D01*
X80780Y-56678D01*
X80770Y-56704D01*
X80770Y-56795D01*
X80805Y-56879D01*
X80869Y-56944D01*
X80954Y-56979D01*
X81045Y-56979D01*
X81129Y-56944D01*
X81194Y-56880D01*
X81229Y-56795D01*
X81229Y-56704D01*
X81229Y-57950D01*
X80229Y-57950D01*
X80229Y-55704D01*
X80194Y-55620D01*
X80130Y-55555D01*
X80045Y-55520D01*
X79954Y-55520D01*
X79870Y-55555D01*
X79805Y-55619D01*
X79794Y-55645D01*
X79705Y-55645D01*
X79694Y-55620D01*
X79630Y-55555D01*
X79545Y-55520D01*
X79454Y-55520D01*
X79370Y-55555D01*
X79305Y-55619D01*
X79270Y-55704D01*
X79270Y-55795D01*
X79305Y-55879D01*
X79369Y-55944D01*
X79454Y-55979D01*
X79545Y-55979D01*
X79629Y-55944D01*
X79694Y-55880D01*
X79705Y-55854D01*
X79794Y-55854D01*
X79805Y-55879D01*
X79869Y-55944D01*
X79954Y-55979D01*
X80045Y-55979D01*
X80129Y-55944D01*
X80194Y-55880D01*
X80229Y-55795D01*
X80229Y-55704D01*
X80229Y-57950D01*
X79229Y-57950D01*
X79229Y-55704D01*
X79194Y-55620D01*
X79130Y-55555D01*
X79045Y-55520D01*
X78954Y-55520D01*
X78870Y-55555D01*
X78805Y-55619D01*
X78794Y-55645D01*
X78705Y-55645D01*
X78694Y-55620D01*
X78630Y-55555D01*
X78545Y-55520D01*
X78454Y-55520D01*
X78370Y-55555D01*
X78305Y-55619D01*
X78270Y-55704D01*
X78270Y-55795D01*
X78305Y-55879D01*
X78369Y-55944D01*
X78454Y-55979D01*
X78545Y-55979D01*
X78629Y-55944D01*
X78694Y-55880D01*
X78705Y-55854D01*
X78794Y-55854D01*
X78805Y-55879D01*
X78869Y-55944D01*
X78954Y-55979D01*
X79045Y-55979D01*
X79129Y-55944D01*
X79194Y-55880D01*
X79229Y-55795D01*
X79229Y-55704D01*
X79229Y-57950D01*
X78229Y-57950D01*
X78229Y-55704D01*
X78194Y-55620D01*
X78130Y-55555D01*
X78045Y-55520D01*
X77954Y-55520D01*
X77870Y-55555D01*
X77805Y-55619D01*
X77794Y-55645D01*
X77705Y-55645D01*
X77694Y-55620D01*
X77630Y-55555D01*
X77545Y-55520D01*
X77454Y-55520D01*
X77370Y-55555D01*
X77305Y-55619D01*
X77270Y-55704D01*
X77270Y-55795D01*
X77305Y-55879D01*
X77369Y-55944D01*
X77454Y-55979D01*
X77545Y-55979D01*
X77629Y-55944D01*
X77694Y-55880D01*
X77705Y-55854D01*
X77794Y-55854D01*
X77805Y-55879D01*
X77869Y-55944D01*
X77954Y-55979D01*
X78045Y-55979D01*
X78129Y-55944D01*
X78194Y-55880D01*
X78229Y-55795D01*
X78229Y-55704D01*
X78229Y-57950D01*
X77229Y-57950D01*
X77229Y-55704D01*
X77194Y-55620D01*
X77130Y-55555D01*
X77045Y-55520D01*
X76954Y-55520D01*
X76870Y-55555D01*
X76805Y-55619D01*
X76794Y-55645D01*
X76705Y-55645D01*
X76694Y-55620D01*
X76630Y-55555D01*
X76545Y-55520D01*
X76454Y-55520D01*
X76370Y-55555D01*
X76305Y-55619D01*
X76270Y-55704D01*
X76270Y-55795D01*
X76305Y-55879D01*
X76369Y-55944D01*
X76454Y-55979D01*
X76545Y-55979D01*
X76629Y-55944D01*
X76694Y-55880D01*
X76705Y-55854D01*
X76794Y-55854D01*
X76805Y-55879D01*
X76869Y-55944D01*
X76954Y-55979D01*
X77045Y-55979D01*
X77129Y-55944D01*
X77194Y-55880D01*
X77229Y-55795D01*
X77229Y-55704D01*
X77229Y-57950D01*
X76229Y-57950D01*
X76229Y-55704D01*
X76194Y-55620D01*
X76130Y-55555D01*
X76045Y-55520D01*
X75954Y-55520D01*
X75870Y-55555D01*
X75805Y-55619D01*
X75794Y-55645D01*
X75705Y-55645D01*
X75694Y-55620D01*
X75630Y-55555D01*
X75545Y-55520D01*
X75454Y-55520D01*
X75370Y-55555D01*
X75305Y-55619D01*
X75270Y-55704D01*
X75270Y-55795D01*
X75305Y-55879D01*
X75369Y-55944D01*
X75454Y-55979D01*
X75545Y-55979D01*
X75629Y-55944D01*
X75694Y-55880D01*
X75705Y-55854D01*
X75794Y-55854D01*
X75805Y-55879D01*
X75869Y-55944D01*
X75954Y-55979D01*
X76045Y-55979D01*
X76129Y-55944D01*
X76194Y-55880D01*
X76229Y-55795D01*
X76229Y-55704D01*
X76229Y-57950D01*
X75250Y-57950D01*
X75050Y-57950D01*
X75050Y-55300D01*
X75250Y-55300D01*
X77020Y-55300D01*
X77121Y-55199D01*
X79378Y-55199D01*
X79479Y-55300D01*
X80229Y-55300D01*
X81450Y-56520D01*
X81450Y-57950D01*
X81450Y-57950D01*
G37*
G54D24*
X81450Y-57950D02*
X81229Y-57950D01*
X81229Y-56704D01*
X81194Y-56620D01*
X81130Y-56555D01*
X81045Y-56520D01*
X80954Y-56520D01*
X80928Y-56530D01*
X80719Y-56321D01*
X80729Y-56295D01*
X80729Y-56204D01*
X80694Y-56120D01*
X80630Y-56055D01*
X80545Y-56020D01*
X80454Y-56020D01*
X80370Y-56055D01*
X80305Y-56119D01*
X80270Y-56204D01*
X80270Y-56295D01*
X80305Y-56379D01*
X80369Y-56444D01*
X80454Y-56479D01*
X80545Y-56479D01*
X80571Y-56469D01*
X80780Y-56678D01*
X80770Y-56704D01*
X80770Y-56795D01*
X80805Y-56879D01*
X80869Y-56944D01*
X80954Y-56979D01*
X81045Y-56979D01*
X81129Y-56944D01*
X81194Y-56880D01*
X81229Y-56795D01*
X81229Y-56704D01*
X81229Y-57950D01*
X80229Y-57950D01*
X80229Y-55704D01*
X80194Y-55620D01*
X80130Y-55555D01*
X80045Y-55520D01*
X79954Y-55520D01*
X79870Y-55555D01*
X79805Y-55619D01*
X79794Y-55645D01*
X79705Y-55645D01*
X79694Y-55620D01*
X79630Y-55555D01*
X79545Y-55520D01*
X79454Y-55520D01*
X79370Y-55555D01*
X79305Y-55619D01*
X79270Y-55704D01*
X79270Y-55795D01*
X79305Y-55879D01*
X79369Y-55944D01*
X79454Y-55979D01*
X79545Y-55979D01*
X79629Y-55944D01*
X79694Y-55880D01*
X79705Y-55854D01*
X79794Y-55854D01*
X79805Y-55879D01*
X79869Y-55944D01*
X79954Y-55979D01*
X80045Y-55979D01*
X80129Y-55944D01*
X80194Y-55880D01*
X80229Y-55795D01*
X80229Y-55704D01*
X80229Y-57950D01*
X79229Y-57950D01*
X79229Y-55704D01*
X79194Y-55620D01*
X79130Y-55555D01*
X79045Y-55520D01*
X78954Y-55520D01*
X78870Y-55555D01*
X78805Y-55619D01*
X78794Y-55645D01*
X78705Y-55645D01*
X78694Y-55620D01*
X78630Y-55555D01*
X78545Y-55520D01*
X78454Y-55520D01*
X78370Y-55555D01*
X78305Y-55619D01*
X78270Y-55704D01*
X78270Y-55795D01*
X78305Y-55879D01*
X78369Y-55944D01*
X78454Y-55979D01*
X78545Y-55979D01*
X78629Y-55944D01*
X78694Y-55880D01*
X78705Y-55854D01*
X78794Y-55854D01*
X78805Y-55879D01*
X78869Y-55944D01*
X78954Y-55979D01*
X79045Y-55979D01*
X79129Y-55944D01*
X79194Y-55880D01*
X79229Y-55795D01*
X79229Y-55704D01*
X79229Y-57950D01*
X78229Y-57950D01*
X78229Y-55704D01*
X78194Y-55620D01*
X78130Y-55555D01*
X78045Y-55520D01*
X77954Y-55520D01*
X77870Y-55555D01*
X77805Y-55619D01*
X77794Y-55645D01*
X77705Y-55645D01*
X77694Y-55620D01*
X77630Y-55555D01*
X77545Y-55520D01*
X77454Y-55520D01*
X77370Y-55555D01*
X77305Y-55619D01*
X77270Y-55704D01*
X77270Y-55795D01*
X77305Y-55879D01*
X77369Y-55944D01*
X77454Y-55979D01*
X77545Y-55979D01*
X77629Y-55944D01*
X77694Y-55880D01*
X77705Y-55854D01*
X77794Y-55854D01*
X77805Y-55879D01*
X77869Y-55944D01*
X77954Y-55979D01*
X78045Y-55979D01*
X78129Y-55944D01*
X78194Y-55880D01*
X78229Y-55795D01*
X78229Y-55704D01*
X78229Y-57950D01*
X77229Y-57950D01*
X77229Y-55704D01*
X77194Y-55620D01*
X77130Y-55555D01*
X77045Y-55520D01*
X76954Y-55520D01*
X76870Y-55555D01*
X76805Y-55619D01*
X76794Y-55645D01*
X76705Y-55645D01*
X76694Y-55620D01*
X76630Y-55555D01*
X76545Y-55520D01*
X76454Y-55520D01*
X76370Y-55555D01*
X76305Y-55619D01*
X76270Y-55704D01*
X76270Y-55795D01*
X76305Y-55879D01*
X76369Y-55944D01*
X76454Y-55979D01*
X76545Y-55979D01*
X76629Y-55944D01*
X76694Y-55880D01*
X76705Y-55854D01*
X76794Y-55854D01*
X76805Y-55879D01*
X76869Y-55944D01*
X76954Y-55979D01*
X77045Y-55979D01*
X77129Y-55944D01*
X77194Y-55880D01*
X77229Y-55795D01*
X77229Y-55704D01*
X77229Y-57950D01*
X76229Y-57950D01*
X76229Y-55704D01*
X76194Y-55620D01*
X76130Y-55555D01*
X76045Y-55520D01*
X75954Y-55520D01*
X75870Y-55555D01*
X75805Y-55619D01*
X75794Y-55645D01*
X75705Y-55645D01*
X75694Y-55620D01*
X75630Y-55555D01*
X75545Y-55520D01*
X75454Y-55520D01*
X75370Y-55555D01*
X75305Y-55619D01*
X75270Y-55704D01*
X75270Y-55795D01*
X75305Y-55879D01*
X75369Y-55944D01*
X75454Y-55979D01*
X75545Y-55979D01*
X75629Y-55944D01*
X75694Y-55880D01*
X75705Y-55854D01*
X75794Y-55854D01*
X75805Y-55879D01*
X75869Y-55944D01*
X75954Y-55979D01*
X76045Y-55979D01*
X76129Y-55944D01*
X76194Y-55880D01*
X76229Y-55795D01*
X76229Y-55704D01*
X76229Y-57950D01*
X75250Y-57950D01*
X75050Y-57950D01*
X75050Y-55300D01*
X75250Y-55300D01*
X77020Y-55300D01*
X77121Y-55199D01*
X79378Y-55199D01*
X79479Y-55300D01*
X80229Y-55300D01*
X81450Y-56520D01*
X81450Y-57950D01*
G54D10*
G36*
X70057Y-50050D02*
X70050Y-50050D01*
X70050Y-50057D01*
X69950Y-50057D01*
X69950Y-50050D01*
X69512Y-50050D01*
X69450Y-50112D01*
X69449Y-50349D01*
X69487Y-50441D01*
X69558Y-50511D01*
X69650Y-50549D01*
X69749Y-50550D01*
X69760Y-50550D01*
X69712Y-50569D01*
X69570Y-50712D01*
X69492Y-50898D01*
X69492Y-51100D01*
X69569Y-51287D01*
X69712Y-51429D01*
X69880Y-51500D01*
X69712Y-51569D01*
X69570Y-51712D01*
X69492Y-51898D01*
X69492Y-52100D01*
X69569Y-52287D01*
X69712Y-52429D01*
X69880Y-52500D01*
X69712Y-52569D01*
X69570Y-52712D01*
X69492Y-52898D01*
X69492Y-53100D01*
X69569Y-53287D01*
X69712Y-53429D01*
X69880Y-53500D01*
X69712Y-53569D01*
X69570Y-53712D01*
X69492Y-53898D01*
X69492Y-54100D01*
X69569Y-54287D01*
X69712Y-54429D01*
X69880Y-54500D01*
X69712Y-54569D01*
X69570Y-54712D01*
X69492Y-54898D01*
X69492Y-55100D01*
X69569Y-55287D01*
X69712Y-55429D01*
X69880Y-55500D01*
X69712Y-55569D01*
X69570Y-55712D01*
X69492Y-55898D01*
X69492Y-56100D01*
X69569Y-56287D01*
X69712Y-56429D01*
X69880Y-56500D01*
X69712Y-56569D01*
X69570Y-56712D01*
X69492Y-56898D01*
X69492Y-57100D01*
X69569Y-57287D01*
X69712Y-57429D01*
X69880Y-57500D01*
X69712Y-57569D01*
X69570Y-57712D01*
X69492Y-57898D01*
X69492Y-58100D01*
X69569Y-58287D01*
X69712Y-58429D01*
X69880Y-58500D01*
X69712Y-58569D01*
X69570Y-58712D01*
X69492Y-58898D01*
X69492Y-59100D01*
X69530Y-59192D01*
X69427Y-59192D01*
X69427Y-49894D01*
X69449Y-49871D01*
X69450Y-49887D01*
X69512Y-49950D01*
X69950Y-49950D01*
X69950Y-49942D01*
X70050Y-49942D01*
X70050Y-49950D01*
X70057Y-49950D01*
X70057Y-50050D01*
X70057Y-50050D01*
G37*
G54D24*
X70057Y-50050D02*
X70050Y-50050D01*
X70050Y-50057D01*
X69950Y-50057D01*
X69950Y-50050D01*
X69512Y-50050D01*
X69450Y-50112D01*
X69449Y-50349D01*
X69487Y-50441D01*
X69558Y-50511D01*
X69650Y-50549D01*
X69749Y-50550D01*
X69760Y-50550D01*
X69712Y-50569D01*
X69570Y-50712D01*
X69492Y-50898D01*
X69492Y-51100D01*
X69569Y-51287D01*
X69712Y-51429D01*
X69880Y-51500D01*
X69712Y-51569D01*
X69570Y-51712D01*
X69492Y-51898D01*
X69492Y-52100D01*
X69569Y-52287D01*
X69712Y-52429D01*
X69880Y-52500D01*
X69712Y-52569D01*
X69570Y-52712D01*
X69492Y-52898D01*
X69492Y-53100D01*
X69569Y-53287D01*
X69712Y-53429D01*
X69880Y-53500D01*
X69712Y-53569D01*
X69570Y-53712D01*
X69492Y-53898D01*
X69492Y-54100D01*
X69569Y-54287D01*
X69712Y-54429D01*
X69880Y-54500D01*
X69712Y-54569D01*
X69570Y-54712D01*
X69492Y-54898D01*
X69492Y-55100D01*
X69569Y-55287D01*
X69712Y-55429D01*
X69880Y-55500D01*
X69712Y-55569D01*
X69570Y-55712D01*
X69492Y-55898D01*
X69492Y-56100D01*
X69569Y-56287D01*
X69712Y-56429D01*
X69880Y-56500D01*
X69712Y-56569D01*
X69570Y-56712D01*
X69492Y-56898D01*
X69492Y-57100D01*
X69569Y-57287D01*
X69712Y-57429D01*
X69880Y-57500D01*
X69712Y-57569D01*
X69570Y-57712D01*
X69492Y-57898D01*
X69492Y-58100D01*
X69569Y-58287D01*
X69712Y-58429D01*
X69880Y-58500D01*
X69712Y-58569D01*
X69570Y-58712D01*
X69492Y-58898D01*
X69492Y-59100D01*
X69530Y-59192D01*
X69427Y-59192D01*
X69427Y-49894D01*
X69449Y-49871D01*
X69450Y-49887D01*
X69512Y-49950D01*
X69950Y-49950D01*
X69950Y-49942D01*
X70050Y-49942D01*
X70050Y-49950D01*
X70057Y-49950D01*
X70057Y-50050D01*
G54D10*
G36*
X71963Y-49631D02*
X71552Y-50042D01*
X71543Y-49863D01*
X71481Y-49712D01*
X71385Y-49684D01*
X71070Y-50000D01*
X71076Y-50005D01*
X71005Y-50076D01*
X71000Y-50070D01*
X70684Y-50385D01*
X70712Y-50481D01*
X70827Y-50522D01*
X70712Y-50569D01*
X70570Y-50712D01*
X70499Y-50880D01*
X70430Y-50712D01*
X70287Y-50570D01*
X70239Y-50550D01*
X70250Y-50550D01*
X70349Y-50549D01*
X70441Y-50511D01*
X70512Y-50441D01*
X70550Y-50349D01*
X70550Y-50296D01*
X70614Y-50315D01*
X70929Y-50000D01*
X70614Y-49684D01*
X70550Y-49703D01*
X70550Y-49650D01*
X70512Y-49558D01*
X70480Y-49527D01*
X70709Y-49527D01*
X70684Y-49614D01*
X71000Y-49929D01*
X71315Y-49614D01*
X71290Y-49527D01*
X71549Y-49527D01*
X71550Y-49527D01*
X71550Y-49527D01*
X71636Y-49509D01*
X71710Y-49460D01*
X71963Y-49207D01*
X71963Y-49631D01*
X71963Y-49631D01*
G37*
G54D24*
X71963Y-49631D02*
X71552Y-50042D01*
X71543Y-49863D01*
X71481Y-49712D01*
X71385Y-49684D01*
X71070Y-50000D01*
X71076Y-50005D01*
X71005Y-50076D01*
X71000Y-50070D01*
X70684Y-50385D01*
X70712Y-50481D01*
X70827Y-50522D01*
X70712Y-50569D01*
X70570Y-50712D01*
X70499Y-50880D01*
X70430Y-50712D01*
X70287Y-50570D01*
X70239Y-50550D01*
X70250Y-50550D01*
X70349Y-50549D01*
X70441Y-50511D01*
X70512Y-50441D01*
X70550Y-50349D01*
X70550Y-50296D01*
X70614Y-50315D01*
X70929Y-50000D01*
X70614Y-49684D01*
X70550Y-49703D01*
X70550Y-49650D01*
X70512Y-49558D01*
X70480Y-49527D01*
X70709Y-49527D01*
X70684Y-49614D01*
X71000Y-49929D01*
X71315Y-49614D01*
X71290Y-49527D01*
X71549Y-49527D01*
X71550Y-49527D01*
X71550Y-49527D01*
X71636Y-49509D01*
X71710Y-49460D01*
X71963Y-49207D01*
X71963Y-49631D01*
G54D10*
G36*
X76861Y-54817D02*
X76729Y-54950D01*
X76300Y-54950D01*
X76250Y-54950D01*
X75023Y-54950D01*
X75023Y-54381D01*
X75080Y-54323D01*
X75114Y-54405D01*
X75185Y-54475D01*
X75277Y-54513D01*
X75578Y-54513D01*
X75640Y-54451D01*
X75640Y-54219D01*
X75633Y-54219D01*
X75633Y-54215D01*
X75950Y-54215D01*
X75950Y-54219D01*
X75740Y-54219D01*
X75740Y-54451D01*
X75803Y-54513D01*
X76104Y-54513D01*
X76196Y-54475D01*
X76266Y-54405D01*
X76300Y-54325D01*
X76305Y-54313D01*
X76305Y-54281D01*
X76300Y-54276D01*
X76300Y-54073D01*
X76305Y-54068D01*
X76305Y-54036D01*
X76300Y-54024D01*
X76300Y-49975D01*
X76305Y-49963D01*
X76305Y-49931D01*
X76300Y-49926D01*
X76300Y-49723D01*
X76305Y-49718D01*
X76305Y-49686D01*
X76266Y-49594D01*
X76196Y-49524D01*
X76104Y-49486D01*
X75803Y-49486D01*
X75740Y-49548D01*
X75740Y-49780D01*
X75950Y-49780D01*
X75950Y-49784D01*
X75633Y-49784D01*
X75633Y-49780D01*
X75640Y-49780D01*
X75640Y-49548D01*
X75578Y-49486D01*
X75277Y-49486D01*
X75185Y-49524D01*
X75114Y-49594D01*
X75080Y-49676D01*
X75036Y-49631D01*
X75036Y-48000D01*
X76861Y-49217D01*
X76861Y-54817D01*
X76861Y-54817D01*
G37*
G54D24*
X76861Y-54817D02*
X76729Y-54950D01*
X76300Y-54950D01*
X76250Y-54950D01*
X75023Y-54950D01*
X75023Y-54381D01*
X75080Y-54323D01*
X75114Y-54405D01*
X75185Y-54475D01*
X75277Y-54513D01*
X75578Y-54513D01*
X75640Y-54451D01*
X75640Y-54219D01*
X75633Y-54219D01*
X75633Y-54215D01*
X75950Y-54215D01*
X75950Y-54219D01*
X75740Y-54219D01*
X75740Y-54451D01*
X75803Y-54513D01*
X76104Y-54513D01*
X76196Y-54475D01*
X76266Y-54405D01*
X76300Y-54325D01*
X76305Y-54313D01*
X76305Y-54281D01*
X76300Y-54276D01*
X76300Y-54073D01*
X76305Y-54068D01*
X76305Y-54036D01*
X76300Y-54024D01*
X76300Y-49975D01*
X76305Y-49963D01*
X76305Y-49931D01*
X76300Y-49926D01*
X76300Y-49723D01*
X76305Y-49718D01*
X76305Y-49686D01*
X76266Y-49594D01*
X76196Y-49524D01*
X76104Y-49486D01*
X75803Y-49486D01*
X75740Y-49548D01*
X75740Y-49780D01*
X75950Y-49780D01*
X75950Y-49784D01*
X75633Y-49784D01*
X75633Y-49780D01*
X75640Y-49780D01*
X75640Y-49548D01*
X75578Y-49486D01*
X75277Y-49486D01*
X75185Y-49524D01*
X75114Y-49594D01*
X75080Y-49676D01*
X75036Y-49631D01*
X75036Y-48000D01*
X76861Y-49217D01*
X76861Y-54817D01*
G54D10*
G36*
X81545Y-47800D02*
X81297Y-48047D01*
X81235Y-48140D01*
X81231Y-48158D01*
X81213Y-48250D01*
X81213Y-48250D01*
X81213Y-49250D01*
X81213Y-49486D01*
X80921Y-49486D01*
X80859Y-49548D01*
X80859Y-49780D01*
X80866Y-49780D01*
X80866Y-49784D01*
X80759Y-49784D01*
X80759Y-49780D01*
X80759Y-49548D01*
X80696Y-49486D01*
X80395Y-49486D01*
X80303Y-49524D01*
X80233Y-49594D01*
X80194Y-49686D01*
X80194Y-49718D01*
X80257Y-49780D01*
X80759Y-49780D01*
X80759Y-49784D01*
X80403Y-49784D01*
X80327Y-49816D01*
X80274Y-49869D01*
X80257Y-49869D01*
X80194Y-49931D01*
X80194Y-49963D01*
X80233Y-50055D01*
X80237Y-50059D01*
X80237Y-50210D01*
X80237Y-50210D01*
X80237Y-50289D01*
X80237Y-50466D01*
X80237Y-50466D01*
X80237Y-50545D01*
X80237Y-50722D01*
X80237Y-50722D01*
X80237Y-50800D01*
X80237Y-50978D01*
X80237Y-50978D01*
X80237Y-51056D01*
X80237Y-51234D01*
X80237Y-51234D01*
X80237Y-51312D01*
X80237Y-51358D01*
X80133Y-51358D01*
X80035Y-51378D01*
X79951Y-51434D01*
X79951Y-51434D01*
X79817Y-51567D01*
X79762Y-51651D01*
X79742Y-51750D01*
X79742Y-54500D01*
X79762Y-54598D01*
X79817Y-54682D01*
X79835Y-54700D01*
X79638Y-54700D01*
X79638Y-49208D01*
X81516Y-47800D01*
X81545Y-47800D01*
X81545Y-47800D01*
G37*
G54D24*
X81545Y-47800D02*
X81297Y-48047D01*
X81235Y-48140D01*
X81231Y-48158D01*
X81213Y-48250D01*
X81213Y-48250D01*
X81213Y-49250D01*
X81213Y-49486D01*
X80921Y-49486D01*
X80859Y-49548D01*
X80859Y-49780D01*
X80866Y-49780D01*
X80866Y-49784D01*
X80759Y-49784D01*
X80759Y-49780D01*
X80759Y-49548D01*
X80696Y-49486D01*
X80395Y-49486D01*
X80303Y-49524D01*
X80233Y-49594D01*
X80194Y-49686D01*
X80194Y-49718D01*
X80257Y-49780D01*
X80759Y-49780D01*
X80759Y-49784D01*
X80403Y-49784D01*
X80327Y-49816D01*
X80274Y-49869D01*
X80257Y-49869D01*
X80194Y-49931D01*
X80194Y-49963D01*
X80233Y-50055D01*
X80237Y-50059D01*
X80237Y-50210D01*
X80237Y-50210D01*
X80237Y-50289D01*
X80237Y-50466D01*
X80237Y-50466D01*
X80237Y-50545D01*
X80237Y-50722D01*
X80237Y-50722D01*
X80237Y-50800D01*
X80237Y-50978D01*
X80237Y-50978D01*
X80237Y-51056D01*
X80237Y-51234D01*
X80237Y-51234D01*
X80237Y-51312D01*
X80237Y-51358D01*
X80133Y-51358D01*
X80035Y-51378D01*
X79951Y-51434D01*
X79951Y-51434D01*
X79817Y-51567D01*
X79762Y-51651D01*
X79742Y-51750D01*
X79742Y-54500D01*
X79762Y-54598D01*
X79817Y-54682D01*
X79835Y-54700D01*
X79638Y-54700D01*
X79638Y-49208D01*
X81516Y-47800D01*
X81545Y-47800D01*
G54D10*
G36*
X82762Y-56041D02*
X82747Y-56077D01*
X82747Y-56160D01*
X82747Y-56375D01*
X82680Y-56212D01*
X82537Y-56070D01*
X82430Y-56025D01*
X82537Y-55981D01*
X82565Y-55885D01*
X82250Y-55570D01*
X82179Y-55641D01*
X82179Y-55500D01*
X81864Y-55184D01*
X81768Y-55212D01*
X81695Y-55418D01*
X81706Y-55636D01*
X81768Y-55787D01*
X81864Y-55815D01*
X82179Y-55500D01*
X82179Y-55641D01*
X81934Y-55885D01*
X81962Y-55981D01*
X82077Y-56022D01*
X81962Y-56069D01*
X81948Y-56084D01*
X80365Y-54501D01*
X80395Y-54513D01*
X80696Y-54513D01*
X80759Y-54451D01*
X80759Y-54219D01*
X80751Y-54219D01*
X80751Y-54215D01*
X80866Y-54215D01*
X80866Y-54219D01*
X80859Y-54219D01*
X80859Y-54451D01*
X80921Y-54513D01*
X81222Y-54513D01*
X81314Y-54475D01*
X81385Y-54405D01*
X81419Y-54323D01*
X82069Y-54974D01*
X81962Y-55018D01*
X81934Y-55114D01*
X82250Y-55429D01*
X82255Y-55423D01*
X82326Y-55494D01*
X82320Y-55500D01*
X82635Y-55815D01*
X82704Y-55795D01*
X82704Y-55930D01*
X82742Y-56022D01*
X82762Y-56041D01*
X82762Y-56041D01*
G37*
G54D24*
X82762Y-56041D02*
X82747Y-56077D01*
X82747Y-56160D01*
X82747Y-56375D01*
X82680Y-56212D01*
X82537Y-56070D01*
X82430Y-56025D01*
X82537Y-55981D01*
X82565Y-55885D01*
X82250Y-55570D01*
X82179Y-55641D01*
X82179Y-55500D01*
X81864Y-55184D01*
X81768Y-55212D01*
X81695Y-55418D01*
X81706Y-55636D01*
X81768Y-55787D01*
X81864Y-55815D01*
X82179Y-55500D01*
X82179Y-55641D01*
X81934Y-55885D01*
X81962Y-55981D01*
X82077Y-56022D01*
X81962Y-56069D01*
X81948Y-56084D01*
X80365Y-54501D01*
X80395Y-54513D01*
X80696Y-54513D01*
X80759Y-54451D01*
X80759Y-54219D01*
X80751Y-54219D01*
X80751Y-54215D01*
X80866Y-54215D01*
X80866Y-54219D01*
X80859Y-54219D01*
X80859Y-54451D01*
X80921Y-54513D01*
X81222Y-54513D01*
X81314Y-54475D01*
X81385Y-54405D01*
X81419Y-54323D01*
X82069Y-54974D01*
X81962Y-55018D01*
X81934Y-55114D01*
X82250Y-55429D01*
X82255Y-55423D01*
X82326Y-55494D01*
X82320Y-55500D01*
X82635Y-55815D01*
X82704Y-55795D01*
X82704Y-55930D01*
X82742Y-56022D01*
X82762Y-56041D01*
G54D10*
G36*
X84938Y-37822D02*
X80500Y-42260D01*
X80500Y-38700D01*
X80500Y-37799D01*
X80499Y-37700D01*
X80461Y-37608D01*
X80391Y-37537D01*
X80299Y-37499D01*
X79862Y-37500D01*
X79800Y-37562D01*
X79800Y-38200D01*
X80437Y-38200D01*
X80500Y-38137D01*
X80500Y-37799D01*
X80500Y-38700D01*
X80500Y-38362D01*
X80437Y-38300D01*
X79800Y-38300D01*
X79800Y-38937D01*
X79862Y-39000D01*
X80299Y-39000D01*
X80391Y-38962D01*
X80461Y-38891D01*
X80499Y-38799D01*
X80500Y-38700D01*
X80500Y-42260D01*
X79700Y-43060D01*
X79700Y-38937D01*
X79700Y-38300D01*
X79700Y-38200D01*
X79700Y-37562D01*
X79637Y-37500D01*
X79200Y-37499D01*
X79108Y-37537D01*
X79038Y-37608D01*
X79000Y-37700D01*
X78999Y-37799D01*
X79000Y-38137D01*
X79062Y-38200D01*
X79700Y-38200D01*
X79700Y-38300D01*
X79062Y-38300D01*
X79000Y-38362D01*
X78999Y-38700D01*
X79000Y-38799D01*
X79038Y-38891D01*
X79108Y-38962D01*
X79200Y-39000D01*
X79637Y-39000D01*
X79700Y-38937D01*
X79700Y-43060D01*
X78546Y-44213D01*
X74634Y-44213D01*
X74682Y-44182D01*
X75992Y-42871D01*
X75992Y-43341D01*
X76024Y-43417D01*
X76082Y-43475D01*
X76158Y-43507D01*
X76241Y-43507D01*
X76841Y-43507D01*
X76917Y-43475D01*
X76975Y-43417D01*
X77007Y-43341D01*
X77007Y-43258D01*
X77007Y-43137D01*
X77069Y-43287D01*
X77212Y-43429D01*
X77398Y-43507D01*
X77600Y-43507D01*
X77787Y-43430D01*
X77929Y-43287D01*
X78007Y-43101D01*
X78007Y-42899D01*
X77930Y-42712D01*
X77787Y-42570D01*
X77619Y-42499D01*
X77787Y-42430D01*
X77929Y-42287D01*
X78007Y-42101D01*
X78007Y-41899D01*
X77930Y-41712D01*
X77787Y-41570D01*
X77601Y-41492D01*
X77399Y-41492D01*
X77212Y-41569D01*
X77070Y-41712D01*
X77050Y-41760D01*
X77050Y-40725D01*
X77050Y-40274D01*
X77049Y-40175D01*
X77011Y-40083D01*
X76941Y-40012D01*
X76849Y-39974D01*
X76737Y-39975D01*
X76675Y-40037D01*
X76675Y-40450D01*
X76987Y-40450D01*
X77050Y-40387D01*
X77050Y-40274D01*
X77050Y-40725D01*
X77050Y-40612D01*
X76987Y-40550D01*
X76675Y-40550D01*
X76675Y-40962D01*
X76737Y-41025D01*
X76849Y-41025D01*
X76941Y-40987D01*
X77011Y-40916D01*
X77049Y-40824D01*
X77050Y-40725D01*
X77050Y-41760D01*
X76999Y-41880D01*
X76930Y-41712D01*
X76787Y-41570D01*
X76601Y-41492D01*
X76399Y-41492D01*
X76212Y-41569D01*
X76070Y-41712D01*
X76057Y-41742D01*
X74856Y-41742D01*
X74432Y-41317D01*
X74348Y-41262D01*
X74257Y-41244D01*
X74257Y-41183D01*
X74251Y-41168D01*
X74266Y-41161D01*
X74324Y-41103D01*
X74356Y-41027D01*
X74356Y-41007D01*
X74500Y-41007D01*
X74598Y-40987D01*
X74682Y-40932D01*
X74856Y-40757D01*
X75492Y-40757D01*
X75492Y-40816D01*
X75524Y-40892D01*
X75582Y-40950D01*
X75658Y-40982D01*
X75741Y-40982D01*
X76091Y-40982D01*
X76167Y-40950D01*
X76225Y-40892D01*
X76226Y-40889D01*
X76238Y-40916D01*
X76308Y-40987D01*
X76400Y-41025D01*
X76512Y-41025D01*
X76575Y-40962D01*
X76575Y-40550D01*
X76567Y-40550D01*
X76567Y-40450D01*
X76575Y-40450D01*
X76575Y-40037D01*
X76512Y-39975D01*
X76400Y-39974D01*
X76308Y-40012D01*
X76238Y-40083D01*
X76227Y-40110D01*
X76225Y-40107D01*
X76167Y-40049D01*
X76091Y-40017D01*
X76008Y-40017D01*
X75658Y-40017D01*
X75582Y-40049D01*
X75524Y-40107D01*
X75492Y-40183D01*
X75492Y-40242D01*
X74750Y-40242D01*
X74651Y-40262D01*
X74567Y-40317D01*
X74567Y-40317D01*
X74393Y-40492D01*
X74356Y-40492D01*
X74356Y-40472D01*
X74324Y-40396D01*
X74266Y-40338D01*
X74190Y-40306D01*
X74107Y-40306D01*
X73848Y-40306D01*
X73868Y-40286D01*
X74499Y-40286D01*
X74500Y-40286D01*
X74500Y-40286D01*
X74591Y-40268D01*
X74609Y-40264D01*
X74609Y-40264D01*
X74702Y-40202D01*
X75118Y-39786D01*
X76499Y-39786D01*
X76500Y-39786D01*
X76500Y-39786D01*
X76591Y-39768D01*
X76609Y-39764D01*
X76609Y-39764D01*
X76702Y-39702D01*
X77494Y-38910D01*
X77608Y-38957D01*
X77890Y-38957D01*
X78150Y-38850D01*
X78349Y-38651D01*
X78457Y-38391D01*
X78457Y-38109D01*
X78350Y-37849D01*
X78151Y-37650D01*
X77891Y-37542D01*
X77609Y-37542D01*
X77349Y-37649D01*
X77150Y-37848D01*
X77042Y-38108D01*
X77042Y-38390D01*
X77089Y-38505D01*
X76381Y-39213D01*
X75000Y-39213D01*
X74890Y-39235D01*
X74797Y-39297D01*
X74797Y-39297D01*
X74381Y-39713D01*
X73940Y-39713D01*
X75107Y-38547D01*
X75149Y-38650D01*
X75348Y-38849D01*
X75608Y-38957D01*
X75890Y-38957D01*
X76150Y-38850D01*
X76349Y-38651D01*
X76457Y-38391D01*
X76457Y-38109D01*
X76350Y-37849D01*
X76151Y-37650D01*
X75891Y-37542D01*
X75609Y-37542D01*
X75349Y-37649D01*
X75150Y-37848D01*
X75102Y-37963D01*
X75000Y-37963D01*
X74999Y-37963D01*
X74890Y-37985D01*
X74797Y-38047D01*
X74797Y-38047D01*
X72827Y-40018D01*
X72827Y-39844D01*
X74460Y-38210D01*
X74460Y-38210D01*
X74460Y-38210D01*
X74509Y-38136D01*
X74527Y-38050D01*
X74527Y-37427D01*
X84938Y-37427D01*
X84938Y-37822D01*
X84938Y-37822D01*
G37*
G54D24*
X84938Y-37822D02*
X80500Y-42260D01*
X80500Y-38700D01*
X80500Y-37799D01*
X80499Y-37700D01*
X80461Y-37608D01*
X80391Y-37537D01*
X80299Y-37499D01*
X79862Y-37500D01*
X79800Y-37562D01*
X79800Y-38200D01*
X80437Y-38200D01*
X80500Y-38137D01*
X80500Y-37799D01*
X80500Y-38700D01*
X80500Y-38362D01*
X80437Y-38300D01*
X79800Y-38300D01*
X79800Y-38937D01*
X79862Y-39000D01*
X80299Y-39000D01*
X80391Y-38962D01*
X80461Y-38891D01*
X80499Y-38799D01*
X80500Y-38700D01*
X80500Y-42260D01*
X79700Y-43060D01*
X79700Y-38937D01*
X79700Y-38300D01*
X79700Y-38200D01*
X79700Y-37562D01*
X79637Y-37500D01*
X79200Y-37499D01*
X79108Y-37537D01*
X79038Y-37608D01*
X79000Y-37700D01*
X78999Y-37799D01*
X79000Y-38137D01*
X79062Y-38200D01*
X79700Y-38200D01*
X79700Y-38300D01*
X79062Y-38300D01*
X79000Y-38362D01*
X78999Y-38700D01*
X79000Y-38799D01*
X79038Y-38891D01*
X79108Y-38962D01*
X79200Y-39000D01*
X79637Y-39000D01*
X79700Y-38937D01*
X79700Y-43060D01*
X78546Y-44213D01*
X74634Y-44213D01*
X74682Y-44182D01*
X75992Y-42871D01*
X75992Y-43341D01*
X76024Y-43417D01*
X76082Y-43475D01*
X76158Y-43507D01*
X76241Y-43507D01*
X76841Y-43507D01*
X76917Y-43475D01*
X76975Y-43417D01*
X77007Y-43341D01*
X77007Y-43258D01*
X77007Y-43137D01*
X77069Y-43287D01*
X77212Y-43429D01*
X77398Y-43507D01*
X77600Y-43507D01*
X77787Y-43430D01*
X77929Y-43287D01*
X78007Y-43101D01*
X78007Y-42899D01*
X77930Y-42712D01*
X77787Y-42570D01*
X77619Y-42499D01*
X77787Y-42430D01*
X77929Y-42287D01*
X78007Y-42101D01*
X78007Y-41899D01*
X77930Y-41712D01*
X77787Y-41570D01*
X77601Y-41492D01*
X77399Y-41492D01*
X77212Y-41569D01*
X77070Y-41712D01*
X77050Y-41760D01*
X77050Y-40725D01*
X77050Y-40274D01*
X77049Y-40175D01*
X77011Y-40083D01*
X76941Y-40012D01*
X76849Y-39974D01*
X76737Y-39975D01*
X76675Y-40037D01*
X76675Y-40450D01*
X76987Y-40450D01*
X77050Y-40387D01*
X77050Y-40274D01*
X77050Y-40725D01*
X77050Y-40612D01*
X76987Y-40550D01*
X76675Y-40550D01*
X76675Y-40962D01*
X76737Y-41025D01*
X76849Y-41025D01*
X76941Y-40987D01*
X77011Y-40916D01*
X77049Y-40824D01*
X77050Y-40725D01*
X77050Y-41760D01*
X76999Y-41880D01*
X76930Y-41712D01*
X76787Y-41570D01*
X76601Y-41492D01*
X76399Y-41492D01*
X76212Y-41569D01*
X76070Y-41712D01*
X76057Y-41742D01*
X74856Y-41742D01*
X74432Y-41317D01*
X74348Y-41262D01*
X74257Y-41244D01*
X74257Y-41183D01*
X74251Y-41168D01*
X74266Y-41161D01*
X74324Y-41103D01*
X74356Y-41027D01*
X74356Y-41007D01*
X74500Y-41007D01*
X74598Y-40987D01*
X74682Y-40932D01*
X74856Y-40757D01*
X75492Y-40757D01*
X75492Y-40816D01*
X75524Y-40892D01*
X75582Y-40950D01*
X75658Y-40982D01*
X75741Y-40982D01*
X76091Y-40982D01*
X76167Y-40950D01*
X76225Y-40892D01*
X76226Y-40889D01*
X76238Y-40916D01*
X76308Y-40987D01*
X76400Y-41025D01*
X76512Y-41025D01*
X76575Y-40962D01*
X76575Y-40550D01*
X76567Y-40550D01*
X76567Y-40450D01*
X76575Y-40450D01*
X76575Y-40037D01*
X76512Y-39975D01*
X76400Y-39974D01*
X76308Y-40012D01*
X76238Y-40083D01*
X76227Y-40110D01*
X76225Y-40107D01*
X76167Y-40049D01*
X76091Y-40017D01*
X76008Y-40017D01*
X75658Y-40017D01*
X75582Y-40049D01*
X75524Y-40107D01*
X75492Y-40183D01*
X75492Y-40242D01*
X74750Y-40242D01*
X74651Y-40262D01*
X74567Y-40317D01*
X74567Y-40317D01*
X74393Y-40492D01*
X74356Y-40492D01*
X74356Y-40472D01*
X74324Y-40396D01*
X74266Y-40338D01*
X74190Y-40306D01*
X74107Y-40306D01*
X73848Y-40306D01*
X73868Y-40286D01*
X74499Y-40286D01*
X74500Y-40286D01*
X74500Y-40286D01*
X74591Y-40268D01*
X74609Y-40264D01*
X74609Y-40264D01*
X74702Y-40202D01*
X75118Y-39786D01*
X76499Y-39786D01*
X76500Y-39786D01*
X76500Y-39786D01*
X76591Y-39768D01*
X76609Y-39764D01*
X76609Y-39764D01*
X76702Y-39702D01*
X77494Y-38910D01*
X77608Y-38957D01*
X77890Y-38957D01*
X78150Y-38850D01*
X78349Y-38651D01*
X78457Y-38391D01*
X78457Y-38109D01*
X78350Y-37849D01*
X78151Y-37650D01*
X77891Y-37542D01*
X77609Y-37542D01*
X77349Y-37649D01*
X77150Y-37848D01*
X77042Y-38108D01*
X77042Y-38390D01*
X77089Y-38505D01*
X76381Y-39213D01*
X75000Y-39213D01*
X74890Y-39235D01*
X74797Y-39297D01*
X74797Y-39297D01*
X74381Y-39713D01*
X73940Y-39713D01*
X75107Y-38547D01*
X75149Y-38650D01*
X75348Y-38849D01*
X75608Y-38957D01*
X75890Y-38957D01*
X76150Y-38850D01*
X76349Y-38651D01*
X76457Y-38391D01*
X76457Y-38109D01*
X76350Y-37849D01*
X76151Y-37650D01*
X75891Y-37542D01*
X75609Y-37542D01*
X75349Y-37649D01*
X75150Y-37848D01*
X75102Y-37963D01*
X75000Y-37963D01*
X74999Y-37963D01*
X74890Y-37985D01*
X74797Y-38047D01*
X74797Y-38047D01*
X72827Y-40018D01*
X72827Y-39844D01*
X74460Y-38210D01*
X74460Y-38210D01*
X74460Y-38210D01*
X74509Y-38136D01*
X74527Y-38050D01*
X74527Y-37427D01*
X84938Y-37427D01*
X84938Y-37822D01*
G54D10*
G36*
X85742Y-53693D02*
X85612Y-53639D01*
X85388Y-53638D01*
X85182Y-53724D01*
X85023Y-53882D01*
X84938Y-54088D01*
X84938Y-54312D01*
X84951Y-54344D01*
X84047Y-55248D01*
X83985Y-55341D01*
X83981Y-55359D01*
X83963Y-55450D01*
X83963Y-55450D01*
X83963Y-56000D01*
X83963Y-56631D01*
X83797Y-56797D01*
X83797Y-56797D01*
X83797Y-56797D01*
X83547Y-57047D01*
X83485Y-57140D01*
X83481Y-57158D01*
X83463Y-57250D01*
X83463Y-57250D01*
X83463Y-57631D01*
X83131Y-57963D01*
X82679Y-57963D01*
X82725Y-57917D01*
X82757Y-57841D01*
X82757Y-57758D01*
X82757Y-57397D01*
X83316Y-56838D01*
X83586Y-56838D01*
X83662Y-56806D01*
X83720Y-56748D01*
X83752Y-56672D01*
X83752Y-56589D01*
X83752Y-56077D01*
X83737Y-56041D01*
X83757Y-56022D01*
X83795Y-55930D01*
X83795Y-55737D01*
X83732Y-55675D01*
X83300Y-55675D01*
X83300Y-55682D01*
X83200Y-55682D01*
X83200Y-55675D01*
X83192Y-55675D01*
X83192Y-55575D01*
X83200Y-55575D01*
X83200Y-55567D01*
X83300Y-55567D01*
X83300Y-55575D01*
X83732Y-55575D01*
X83795Y-55512D01*
X83795Y-55319D01*
X83757Y-55227D01*
X83717Y-55187D01*
X85520Y-53384D01*
X85611Y-53384D01*
X85742Y-53330D01*
X85742Y-53693D01*
X85742Y-53693D01*
G37*
G54D24*
X85742Y-53693D02*
X85612Y-53639D01*
X85388Y-53638D01*
X85182Y-53724D01*
X85023Y-53882D01*
X84938Y-54088D01*
X84938Y-54312D01*
X84951Y-54344D01*
X84047Y-55248D01*
X83985Y-55341D01*
X83981Y-55359D01*
X83963Y-55450D01*
X83963Y-55450D01*
X83963Y-56000D01*
X83963Y-56631D01*
X83797Y-56797D01*
X83797Y-56797D01*
X83797Y-56797D01*
X83547Y-57047D01*
X83485Y-57140D01*
X83481Y-57158D01*
X83463Y-57250D01*
X83463Y-57250D01*
X83463Y-57631D01*
X83131Y-57963D01*
X82679Y-57963D01*
X82725Y-57917D01*
X82757Y-57841D01*
X82757Y-57758D01*
X82757Y-57397D01*
X83316Y-56838D01*
X83586Y-56838D01*
X83662Y-56806D01*
X83720Y-56748D01*
X83752Y-56672D01*
X83752Y-56589D01*
X83752Y-56077D01*
X83737Y-56041D01*
X83757Y-56022D01*
X83795Y-55930D01*
X83795Y-55737D01*
X83732Y-55675D01*
X83300Y-55675D01*
X83300Y-55682D01*
X83200Y-55682D01*
X83200Y-55675D01*
X83192Y-55675D01*
X83192Y-55575D01*
X83200Y-55575D01*
X83200Y-55567D01*
X83300Y-55567D01*
X83300Y-55575D01*
X83732Y-55575D01*
X83795Y-55512D01*
X83795Y-55319D01*
X83757Y-55227D01*
X83717Y-55187D01*
X85520Y-53384D01*
X85611Y-53384D01*
X85742Y-53330D01*
X85742Y-53693D01*
M02*
