G04 (created by PCBNEW (2013-07-07 BZR 4022)-stable) date 29/12/2013 19:41:28*
%MOIN*%
G04 Gerber Fmt 3.4, Leading zero omitted, Abs format*
%FSLAX34Y34*%
G01*
G70*
G90*
G04 APERTURE LIST*
%ADD10C,0.00590551*%
%ADD11R,0.03X0.06*%
%ADD12R,0.04X0.06*%
%ADD13R,0.06X0.08*%
%ADD14R,0.06X0.06*%
%ADD15R,0.035X0.055*%
%ADD16R,0.055X0.035*%
%ADD17R,0.0472X0.0472*%
%ADD18R,0.065X0.016*%
%ADD19R,0.02X0.1*%
%ADD20R,0.0787402X0.11*%
G04 APERTURE END LIST*
G54D10*
G54D11*
X75832Y-64900D03*
X75399Y-64900D03*
X74966Y-64900D03*
X74533Y-64900D03*
X74100Y-64900D03*
X73666Y-64900D03*
X73233Y-64900D03*
X72800Y-64900D03*
X72367Y-64900D03*
G54D12*
X71837Y-65136D03*
G54D13*
X71974Y-68983D03*
X78037Y-68983D03*
G54D14*
X77714Y-65054D03*
G54D15*
X81275Y-66400D03*
X82025Y-66400D03*
G54D16*
X82750Y-66275D03*
X82750Y-65525D03*
G54D15*
X83525Y-66200D03*
X84275Y-66200D03*
X80475Y-65300D03*
X79725Y-65300D03*
X79700Y-64475D03*
X80450Y-64475D03*
X81275Y-65600D03*
X82025Y-65600D03*
G54D17*
X85750Y-65587D03*
X85750Y-66413D03*
X78950Y-65363D03*
X78950Y-64537D03*
G54D15*
X81225Y-67200D03*
X80475Y-67200D03*
G54D16*
X85000Y-66275D03*
X85000Y-65525D03*
G54D15*
X78975Y-66100D03*
X79725Y-66100D03*
G54D18*
X81433Y-62972D03*
X81433Y-63228D03*
X81433Y-63484D03*
X81433Y-63740D03*
X84267Y-62204D03*
X81433Y-62204D03*
X81433Y-62460D03*
X81433Y-62716D03*
X84267Y-63996D03*
X84267Y-63740D03*
X84267Y-63484D03*
X84267Y-63228D03*
X84267Y-62972D03*
X84267Y-62716D03*
X81433Y-63996D03*
X84267Y-62460D03*
X84267Y-61948D03*
X84267Y-61693D03*
X84267Y-61437D03*
X81433Y-61437D03*
X81433Y-61693D03*
X81433Y-61948D03*
X81433Y-64252D03*
X81433Y-64507D03*
X81433Y-64763D03*
X84267Y-64763D03*
X84267Y-64507D03*
X84267Y-64252D03*
G54D17*
X76587Y-63800D03*
X77413Y-63800D03*
G54D15*
X75225Y-63800D03*
X75975Y-63800D03*
G54D19*
X83270Y-67350D03*
X83585Y-67350D03*
X83900Y-67350D03*
X84214Y-67350D03*
X84529Y-67350D03*
G54D20*
X82128Y-69631D03*
X85671Y-69631D03*
X82128Y-67465D03*
X85671Y-67465D03*
G54D15*
X79100Y-66975D03*
X78350Y-66975D03*
G54D16*
X78125Y-64425D03*
X78125Y-63675D03*
M02*
