M48
;DRILL file {Pcbnew (2013-07-07 BZR 4022)-stable} date 12/02/2014 21:37:56
;FORMAT={-:-/ absolute / inch / decimal}
FMAT,2
INCH,TZ
T1C0.025
T2C0.030
T3C0.032
T4C0.040
T5C0.051
T6C0.060
T7C0.118
T8C0.120
%
G90
G05
M72
T1
X4.795Y-3.88
X4.915Y-4.26
X4.94Y-4.65
X4.995Y-3.875
X5.115Y-4.26
X5.1375Y-4.69
X5.195Y-3.875
X5.2888Y-7.0106
X5.3113Y-7.2281
X5.315Y-4.26
X5.395Y-3.88
X5.41Y-4.65
X5.515Y-4.26
X5.5763Y-7.2431
X5.595Y-3.875
X5.6613Y-7.0906
X5.715Y-4.26
X5.76Y-4.65
X5.82Y-3.875
X5.915Y-4.26
X5.9625Y-4.6875
X6.0217Y-7.0628
X6.0467Y-6.8628
X6.05Y-3.875
X6.1429Y-6.9341
X6.165Y-4.26
X6.185Y-7.035
X6.235Y-4.65
X6.25Y-3.875
X6.2679Y-6.9341
X6.2803Y-6.9772
X6.365Y-4.26
X6.4356Y-6.7529
X6.45Y-3.875
X6.565Y-4.26
X6.585Y-4.65
X6.65Y-3.875
X6.75Y-6.5
X6.765Y-4.26
X6.7875Y-4.6875
X6.85Y-3.875
X6.8863Y-6.5992
X6.9209Y-7.2564
X6.925Y-5.85
X6.95Y-5.35
X6.965Y-4.26
X7.0434Y-6.6418
X7.045Y-3.875
X7.065Y-4.65
X7.1335Y-6.7484
X7.15Y-5.25
X7.165Y-4.26
X7.1707Y-6.4307
X7.18Y-7.4618
X7.1831Y-6.2957
X7.185Y-7.0668
X7.24Y-7.4118
X7.24Y-7.4618
X7.25Y-6.15
X7.2622Y-6.3227
X7.285Y-6.24
X7.305Y-6.37
X7.375Y-5.85
X7.395Y-6.46
X7.41Y-7.0618
X7.425Y-3.95
X7.425Y-6.9068
X7.475Y-3.95
X7.475Y-5.9
X7.4799Y-6.7594
X7.495Y-7.0618
X7.5Y-5.825
X7.525Y-3.95
X7.525Y-5.9
X7.55Y-4.
X7.55Y-5.85
X7.5625Y-6.7631
X7.5651Y-7.1342
X7.575Y-3.95
X7.575Y-4.125
X7.575Y-4.425
X7.575Y-4.725
X7.575Y-5.025
X7.575Y-5.325
X7.575Y-5.625
X7.575Y-5.9
X7.6Y-4.
X7.6Y-4.175
X7.6Y-4.475
X7.6Y-4.775
X7.6Y-5.075
X7.6Y-5.375
X7.6Y-5.675
X7.6Y-5.85
X7.625Y-3.95
X7.625Y-4.125
X7.625Y-4.425
X7.625Y-4.725
X7.625Y-5.025
X7.625Y-5.325
X7.625Y-5.625
X7.625Y-5.9
X7.63Y-6.43
X7.65Y-4.
X7.65Y-4.175
X7.65Y-4.475
X7.65Y-4.775
X7.65Y-5.075
X7.65Y-5.375
X7.65Y-5.675
X7.65Y-5.85
X7.675Y-3.95
X7.675Y-4.125
X7.675Y-4.425
X7.675Y-4.725
X7.675Y-5.025
X7.675Y-5.325
X7.675Y-5.625
X7.675Y-5.9
X7.7Y-4.
X7.7Y-4.175
X7.7Y-4.475
X7.7Y-4.775
X7.7Y-5.075
X7.7Y-5.375
X7.7Y-5.675
X7.7Y-5.85
X7.71Y-7.3318
X7.7157Y-7.2227
X7.725Y-3.95
X7.725Y-4.125
X7.725Y-4.425
X7.725Y-4.725
X7.725Y-5.025
X7.725Y-5.325
X7.725Y-5.625
X7.725Y-5.9
X7.73Y-7.0168
X7.74Y-6.875
X7.75Y-4.
X7.75Y-4.175
X7.75Y-4.475
X7.75Y-4.775
X7.75Y-5.075
X7.75Y-5.375
X7.75Y-5.675
X7.76Y-7.3618
X7.76Y-7.4118
X7.76Y-7.4618
X7.77Y-6.8018
X7.77Y-7.0568
X7.775Y-4.075
X7.775Y-4.125
X7.775Y-4.425
X7.775Y-4.725
X7.775Y-5.025
X7.775Y-5.325
X7.775Y-5.625
X7.775Y-5.9
X7.775Y-6.15
X7.775Y-6.3
X7.78Y-3.895
X7.825Y-3.675
X7.825Y-4.05
X7.825Y-4.1
X7.825Y-4.225
X7.825Y-4.525
X7.825Y-4.825
X7.825Y-5.125
X7.825Y-5.425
X7.825Y-5.725
X7.83Y-7.4618
X7.84Y-7.2718
X7.85Y-3.75
X7.85Y-3.825
X7.875Y-4.25
X7.875Y-4.55
X7.875Y-4.85
X7.875Y-5.15
X7.875Y-5.45
X7.875Y-5.75
X7.885Y-6.09
X7.885Y-6.385
X7.8876Y-6.4328
X7.9Y-3.675
X7.9Y-3.875
X7.925Y-4.225
X7.925Y-4.525
X7.925Y-4.825
X7.925Y-5.125
X7.925Y-5.425
X7.925Y-5.725
X7.9262Y-6.0506
X7.9313Y-6.3253
X7.975Y-3.675
X7.975Y-3.875
X7.975Y-4.25
X7.975Y-4.55
X7.975Y-4.85
X7.975Y-5.15
X7.975Y-5.45
X7.975Y-5.75
X7.99Y-6.8568
X8.025Y-4.05
X8.025Y-4.1
X8.025Y-4.15
X8.025Y-4.2
X8.025Y-4.475
X8.025Y-4.525
X8.025Y-4.775
X8.025Y-4.825
X8.025Y-5.075
X8.025Y-5.125
X8.025Y-5.375
X8.025Y-5.425
X8.025Y-5.675
X8.025Y-5.725
X8.045Y-6.9018
X8.05Y-3.7
X8.05Y-3.8
X8.05Y-3.875
X8.055Y-6.6418
X8.075Y-4.075
X8.075Y-4.175
X8.075Y-4.45
X8.075Y-4.5
X8.075Y-4.75
X8.075Y-4.8
X8.075Y-5.05
X8.075Y-5.1
X8.075Y-5.35
X8.075Y-5.4
X8.075Y-5.65
X8.075Y-5.7
X8.075Y-5.75
X8.1Y-3.75
X8.1196Y-6.5757
X8.15Y-3.7
X8.15Y-3.8
X8.25Y-3.9
X8.25Y-6.9018
X8.26Y-7.2568
X8.26Y-7.4718
X8.27Y-6.6218
X8.3Y-4.74
X8.3Y-5.04
X8.32Y-4.36
X8.32Y-5.64
X8.32Y-5.86
X8.325Y-3.9
X8.325Y-3.975
X8.325Y-4.075
X8.34Y-4.7
X8.34Y-5.32
X8.34Y-5.58
X8.36Y-4.96
X8.36Y-5.02
X8.36Y-5.26
X8.36Y-5.9
X8.375Y-3.925
X8.375Y-4.025
X8.38Y-4.66
X8.38Y-5.64
X8.4Y-5.34
X8.4Y-5.58
X8.4Y-5.86
X8.4Y-7.355
X8.42Y-4.62
X8.42Y-4.96
X8.42Y-5.28
X8.425Y-3.875
X8.425Y-3.975
X8.44Y-5.9
X8.4425Y-7.0368
X8.45Y-3.675
X8.46Y-4.58
X8.46Y-5.24
X8.46Y-5.34
X8.46Y-5.58
X8.47Y-6.45
X8.475Y-3.75
X8.475Y-3.825
X8.475Y-3.925
X8.475Y-6.025
X8.475Y-6.15
X8.475Y-6.325
X8.48Y-5.86
X8.495Y-6.6818
X8.5Y-4.54
X8.5Y-5.28
X8.52Y-5.22
X8.52Y-5.9
X8.52Y-7.2568
X8.52Y-7.4718
X8.525Y-3.7
X8.525Y-3.875
X8.57Y-6.8718
X8.6Y-3.675
X8.62Y-5.22
X8.62Y-5.8
X8.62Y-5.9
T2
X7.3076Y-7.4309
X7.6226Y-7.4309
X8.305Y-7.3568
X8.475Y-7.3568
T3
X5.Y-4.9984
X5.Y-6.4984
X5.2Y-5.9
X5.3Y-5.9
X5.6713Y-7.0281
X5.7713Y-7.0281
X5.85Y-3.75
X5.95Y-3.75
X6.475Y-4.975
X6.575Y-4.975
X7.Y-4.9984
X7.Y-6.0984
X8.1475Y-4.185
X8.1475Y-4.41
X8.1475Y-4.51
X8.1475Y-5.31
X8.1475Y-5.41
X8.1475Y-5.61
X8.1475Y-5.71
X8.15Y-3.875
X8.1525Y-3.975
X8.1525Y-4.705
X8.1525Y-4.805
X8.1525Y-5.005
X8.1525Y-5.105
X8.2475Y-3.985
X8.2475Y-4.085
X8.2475Y-4.185
X8.2475Y-4.285
X8.2475Y-4.385
X8.2475Y-4.585
X8.2475Y-4.685
X8.2475Y-4.885
X8.2475Y-4.985
X8.2475Y-5.185
X8.2475Y-5.285
X8.2475Y-5.485
X8.2475Y-5.585
X8.2475Y-5.785
X8.2475Y-5.885
T4
X4.8Y-6.3
X4.8Y-6.4
X4.8Y-6.5
X4.8Y-6.6
X4.8Y-6.7
X4.8Y-6.8
X4.8Y-6.895
X4.8Y-7.
X4.8Y-7.095
X4.8Y-7.195
X4.8Y-7.295
X4.8Y-7.395
X4.875Y-5.6
X4.875Y-5.7
X5.Y-5.0984
X5.Y-5.1984
X5.Y-5.2984
X5.Y-5.3984
X5.Y-5.4984
X5.Y-5.5984
X5.Y-5.6984
X5.Y-5.7984
X5.Y-5.8984
X5.Y-6.
X5.Y-6.1
X5.Y-6.2
X5.Y-6.3
X5.Y-6.4
X5.Y-6.5984
X5.Y-6.6984
X5.Y-6.7984
X5.Y-6.8984
X5.Y-6.9984
X5.Y-7.0984
X5.Y-7.1984
X5.Y-7.2984
X5.Y-7.3984
X5.1Y-4.9984
X5.1Y-5.0984
X5.1Y-5.1984
X5.1Y-5.2984
X5.1Y-5.3984
X5.1Y-5.4984
X5.1Y-5.5984
X5.1Y-5.6984
X5.1Y-5.7984
X5.1Y-5.8984
X5.1Y-6.
X5.1Y-6.1
X5.1Y-6.2
X5.1Y-6.3
X5.1Y-6.4
X5.1Y-6.4984
X5.1Y-6.5984
X5.1Y-6.6984
X5.1Y-6.7984
X5.1Y-6.8984
X5.1Y-6.9984
X5.1Y-7.0984
X5.1Y-7.1984
X5.1Y-7.2984
X5.1Y-7.3984
X5.2275Y-6.7
X5.2525Y-7.485
X5.3275Y-6.7
X5.3525Y-7.485
X5.4525Y-7.485
X5.5525Y-7.485
X5.6525Y-7.485
X5.7525Y-7.485
X5.7688Y-7.1456
X5.7688Y-7.2456
X6.0717Y-7.4628
X6.1717Y-7.4628
X6.2717Y-7.4628
X6.3717Y-7.4628
X6.6Y-7.5025
X6.7Y-7.5025
X6.77Y-7.3
X6.7725Y-7.1
X6.7969Y-6.0344
X6.8Y-7.5025
X6.87Y-7.3
X6.8725Y-7.1
X6.9Y-7.5
X7.Y-5.0984
X7.Y-5.1984
X7.Y-5.2984
X7.Y-5.3984
X7.Y-5.4984
X7.Y-5.5984
X7.Y-5.6984
X7.Y-5.7984
X7.Y-5.8984
X7.Y-6.
X7.Y-6.1984
X7.Y-6.2984
X7.Y-6.3984
X7.Y-6.4984
X7.Y-6.5984
X7.Y-6.6984
X7.Y-6.7984
X7.Y-6.8984
X7.Y-6.9984
X7.Y-7.1
X7.Y-7.2
X7.Y-7.3
X7.Y-7.4
X7.Y-7.5025
X7.1Y-4.9984
X7.1Y-5.0984
X7.1Y-5.1984
X7.1Y-5.2984
X7.1Y-5.3984
X7.1Y-5.4984
X7.1Y-5.5984
X7.1Y-5.6984
X7.1Y-5.7984
X7.1Y-5.8984
X7.1Y-6.
X7.1Y-6.0984
X7.1Y-6.1984
X7.1Y-6.2984
X7.1Y-6.3984
X7.1Y-6.4984
X7.1Y-6.5984
X7.1Y-6.6984
X7.1Y-6.7984
X7.1Y-6.8984
X7.1Y-6.9984
X7.1Y-7.1
X7.1Y-7.2
X7.1Y-7.3
X7.1Y-7.4
X7.1Y-7.5025
X7.175Y-3.75
X7.275Y-3.75
X7.375Y-3.75
X7.505Y-6.5918
X7.505Y-6.6918
X7.605Y-6.5918
X7.605Y-6.6918
X7.705Y-6.5918
X7.705Y-6.6918
X7.805Y-6.5918
X7.805Y-6.6918
X7.905Y-6.5918
X7.905Y-6.6918
X8.6Y-6.6
T5
X5.09Y-3.68
X5.19Y-3.68
X5.29Y-3.68
X5.39Y-3.68
X5.49Y-3.68
X5.59Y-3.68
X6.35Y-3.68
X6.45Y-3.68
X6.55Y-3.68
X6.65Y-3.68
X6.75Y-3.68
X6.85Y-3.68
X8.575Y-3.7915
X8.575Y-3.9293
X8.575Y-4.0671
X8.575Y-4.2049
X8.575Y-4.3427
X8.575Y-4.4805
X8.575Y-4.6183
X8.575Y-4.7561
X8.575Y-4.8939
X8.575Y-5.0317
X8.575Y-5.1695
X8.575Y-5.3073
X8.575Y-5.4451
X8.575Y-5.5829
X8.575Y-5.7207
X8.575Y-5.8585
X8.6Y-6.
X8.6Y-6.1
X8.6Y-6.2
X8.6Y-6.3
X8.6Y-6.4
X8.6Y-6.5
T6
X7.5425Y-3.7775
X7.7425Y-3.7775
X7.9425Y-3.7775
T7
X5.6063Y-7.3331
X5.7637Y-6.6838
X8.05Y-7.3493
X8.4975Y-6.5568
T8
X4.85Y-3.725
X4.85Y-5.85
X7.025Y-3.725
X8.3Y-3.75
T0
M30
