G04 (created by PCBNEW (2013-07-07 BZR 4022)-stable) date 12/02/2014 21:37:53*
%MOIN*%
G04 Gerber Fmt 3.4, Leading zero omitted, Abs format*
%FSLAX34Y34*%
G01*
G70*
G90*
G04 APERTURE LIST*
%ADD10C,0.00590551*%
%ADD11R,0.06X0.06*%
%ADD12C,0.06*%
%ADD13R,0.055X0.055*%
%ADD14C,0.055*%
%ADD15C,0.16*%
%ADD16R,0.0708661X0.0708661*%
%ADD17C,0.0708661*%
%ADD18C,0.04*%
%ADD19C,0.035*%
%ADD20C,0.11811*%
%ADD21R,0.1X0.1*%
%ADD22C,0.1*%
%ADD23C,0.045*%
G04 APERTURE END LIST*
G54D10*
G54D11*
X70000Y-71000D03*
G54D12*
X71000Y-71000D03*
X70000Y-72000D03*
X71000Y-72000D03*
X70000Y-73000D03*
X71000Y-73000D03*
X70000Y-74000D03*
X71000Y-74000D03*
G54D11*
X50000Y-60000D03*
G54D12*
X51000Y-60000D03*
X50000Y-61000D03*
X51000Y-61000D03*
X50000Y-62000D03*
X51000Y-62000D03*
X50000Y-63000D03*
X51000Y-63000D03*
X50000Y-64000D03*
X51000Y-64000D03*
G54D11*
X70000Y-60000D03*
G54D12*
X71000Y-60000D03*
G54D11*
X50000Y-64984D03*
G54D12*
X51000Y-64984D03*
X50000Y-65984D03*
X51000Y-65984D03*
X50000Y-66984D03*
X51000Y-66984D03*
X50000Y-67984D03*
X51000Y-67984D03*
X50000Y-68984D03*
X51000Y-68984D03*
X50000Y-69984D03*
X51000Y-69984D03*
X50000Y-70984D03*
X51000Y-70984D03*
X50000Y-71984D03*
X51000Y-71984D03*
X50000Y-72984D03*
X51000Y-72984D03*
X50000Y-73984D03*
X51000Y-73984D03*
G54D11*
X48000Y-73950D03*
G54D12*
X48000Y-72950D03*
X48000Y-71950D03*
X48000Y-70950D03*
X48000Y-70000D03*
X48000Y-68950D03*
G54D11*
X48000Y-68000D03*
G54D12*
X48000Y-67000D03*
X48000Y-66000D03*
X48000Y-65000D03*
X48000Y-64000D03*
X48000Y-63000D03*
G54D11*
X57525Y-74850D03*
G54D12*
X56525Y-74850D03*
X55525Y-74850D03*
X54525Y-74850D03*
X53525Y-74850D03*
X52525Y-74850D03*
G54D11*
X67725Y-71000D03*
G54D12*
X68725Y-71000D03*
G54D11*
X67700Y-73000D03*
G54D12*
X68700Y-73000D03*
G54D11*
X52274Y-67000D03*
G54D12*
X53274Y-67000D03*
G54D11*
X71000Y-75025D03*
G54D12*
X70000Y-75025D03*
X69000Y-75000D03*
X68000Y-75025D03*
X67000Y-75025D03*
X66000Y-75025D03*
G54D11*
X86000Y-66000D03*
X60716Y-74628D03*
G54D12*
X61716Y-74628D03*
X62716Y-74628D03*
X63716Y-74628D03*
G54D11*
X73750Y-37500D03*
G54D12*
X72750Y-37500D03*
X71750Y-37500D03*
G54D11*
X48750Y-57000D03*
X48750Y-56000D03*
G54D13*
X59500Y-37500D03*
G54D14*
X58500Y-37500D03*
G54D13*
X64750Y-49750D03*
G54D14*
X65750Y-49750D03*
G54D13*
X52000Y-59000D03*
G54D14*
X53000Y-59000D03*
G54D11*
X50000Y-49984D03*
G54D12*
X51000Y-49984D03*
X50000Y-50984D03*
X51000Y-50984D03*
X50000Y-51984D03*
X51000Y-51984D03*
X50000Y-52984D03*
X51000Y-52984D03*
X50000Y-53984D03*
X51000Y-53984D03*
X50000Y-54984D03*
X51000Y-54984D03*
X50000Y-55984D03*
X51000Y-55984D03*
X50000Y-56984D03*
X51000Y-56984D03*
X50000Y-57984D03*
X51000Y-57984D03*
X50000Y-58984D03*
X51000Y-58984D03*
G54D15*
X70250Y-37250D03*
X48500Y-58500D03*
X48500Y-37250D03*
G54D16*
X63500Y-36800D03*
G54D17*
X64500Y-36800D03*
X65500Y-36800D03*
X66500Y-36800D03*
X67500Y-36800D03*
X68500Y-36800D03*
G54D16*
X50900Y-36800D03*
G54D17*
X51900Y-36800D03*
X52900Y-36800D03*
X53900Y-36800D03*
X54900Y-36800D03*
X55900Y-36800D03*
G54D11*
X70000Y-60984D03*
G54D12*
X71000Y-60984D03*
X70000Y-61984D03*
X71000Y-61984D03*
X70000Y-62984D03*
X71000Y-62984D03*
X70000Y-63984D03*
X71000Y-63984D03*
X70000Y-64984D03*
X71000Y-64984D03*
X70000Y-65984D03*
X71000Y-65984D03*
X70000Y-66984D03*
X71000Y-66984D03*
X70000Y-67984D03*
X71000Y-67984D03*
X70000Y-68984D03*
X71000Y-68984D03*
X70000Y-69984D03*
X71000Y-69984D03*
G54D11*
X75050Y-66918D03*
G54D12*
X75050Y-65918D03*
X76050Y-66918D03*
X76050Y-65918D03*
X77050Y-66918D03*
X77050Y-65918D03*
X78050Y-66918D03*
X78050Y-65918D03*
X79050Y-66918D03*
X79050Y-65918D03*
G54D11*
X67969Y-60344D03*
G54D18*
X83050Y-73568D03*
X84750Y-73568D03*
G54D19*
X73076Y-74309D03*
X76225Y-74309D03*
G54D20*
X80500Y-73492D03*
X84974Y-65568D03*
G54D17*
X85750Y-58584D03*
X85750Y-57206D03*
G54D16*
X85750Y-37915D03*
G54D17*
X85750Y-39293D03*
X85750Y-40671D03*
X85750Y-42049D03*
X85750Y-43427D03*
X85750Y-44805D03*
X85750Y-46183D03*
X85750Y-47561D03*
X85750Y-48938D03*
X85750Y-50316D03*
X85750Y-51694D03*
X85750Y-53072D03*
X85750Y-54450D03*
X85750Y-55828D03*
G54D11*
X70000Y-49984D03*
G54D12*
X71000Y-49984D03*
X70000Y-50984D03*
X71000Y-50984D03*
X70000Y-51984D03*
X71000Y-51984D03*
X70000Y-52984D03*
X71000Y-52984D03*
X70000Y-53984D03*
X71000Y-53984D03*
X70000Y-54984D03*
X71000Y-54984D03*
X70000Y-55984D03*
X71000Y-55984D03*
X70000Y-56984D03*
X71000Y-56984D03*
X70000Y-57984D03*
X71000Y-57984D03*
X70000Y-58984D03*
X71000Y-58984D03*
G54D13*
X81474Y-53100D03*
G54D14*
X81474Y-54100D03*
G54D13*
X81474Y-44100D03*
G54D14*
X81474Y-45100D03*
G54D13*
X82474Y-52850D03*
G54D14*
X82474Y-51850D03*
G54D13*
X82474Y-43850D03*
G54D14*
X82474Y-42850D03*
G54D13*
X81525Y-50050D03*
G54D14*
X81525Y-51050D03*
G54D13*
X82474Y-39850D03*
G54D14*
X82474Y-40850D03*
G54D21*
X79425Y-37775D03*
G54D22*
X77425Y-37775D03*
X75425Y-37775D03*
G54D13*
X82474Y-46850D03*
G54D14*
X82474Y-45850D03*
G54D13*
X82474Y-55850D03*
G54D14*
X82474Y-54850D03*
G54D13*
X81525Y-47050D03*
G54D14*
X81525Y-48050D03*
G54D13*
X81474Y-56100D03*
G54D14*
X81474Y-57100D03*
G54D13*
X82474Y-49850D03*
G54D14*
X82474Y-48850D03*
G54D13*
X82474Y-58850D03*
G54D14*
X82474Y-57850D03*
G54D13*
X81525Y-39750D03*
G54D14*
X81500Y-38750D03*
G54D13*
X82474Y-41850D03*
G54D14*
X81474Y-41850D03*
G54D23*
X69500Y-53500D03*
X71500Y-52500D03*
G54D15*
X83000Y-37500D03*
G54D11*
X57688Y-71456D03*
G54D12*
X57688Y-72456D03*
G54D13*
X56712Y-70281D03*
G54D14*
X57712Y-70281D03*
G54D20*
X57637Y-66837D03*
X56062Y-73331D03*
G54D16*
X86000Y-60000D03*
G54D17*
X86000Y-61000D03*
X86000Y-62000D03*
X86000Y-63000D03*
X86000Y-64000D03*
X86000Y-65000D03*
M02*
