G04 (created by PCBNEW (2013-07-07 BZR 4022)-stable) date 24/10/2014 07:26:06*
%MOIN*%
G04 Gerber Fmt 3.4, Leading zero omitted, Abs format*
%FSLAX34Y34*%
G01*
G70*
G90*
G04 APERTURE LIST*
%ADD10C,0.00590551*%
%ADD11C,0.011811*%
%ADD12C,0.0039*%
%ADD13C,0.005*%
%ADD14C,0.0026*%
%ADD15C,0.006*%
%ADD16C,0.0125*%
%ADD17C,0.012*%
%ADD18C,0.008*%
G04 APERTURE END LIST*
G54D10*
G54D11*
X85456Y-62648D02*
X85343Y-62648D01*
X85287Y-62676D01*
X85259Y-62704D01*
X85203Y-62789D01*
X85175Y-62901D01*
X85175Y-63126D01*
X85203Y-63182D01*
X85231Y-63210D01*
X85287Y-63239D01*
X85400Y-63239D01*
X85456Y-63210D01*
X85484Y-63182D01*
X85512Y-63126D01*
X85512Y-62985D01*
X85484Y-62929D01*
X85456Y-62901D01*
X85400Y-62873D01*
X85287Y-62873D01*
X85231Y-62901D01*
X85203Y-62929D01*
X85175Y-62985D01*
X85878Y-62648D02*
X85934Y-62648D01*
X85990Y-62676D01*
X86018Y-62704D01*
X86046Y-62760D01*
X86075Y-62873D01*
X86075Y-63014D01*
X86046Y-63126D01*
X86018Y-63182D01*
X85990Y-63210D01*
X85934Y-63239D01*
X85878Y-63239D01*
X85821Y-63210D01*
X85793Y-63182D01*
X85765Y-63126D01*
X85737Y-63014D01*
X85737Y-62873D01*
X85765Y-62760D01*
X85793Y-62704D01*
X85821Y-62676D01*
X85878Y-62648D01*
X86440Y-62648D02*
X86496Y-62648D01*
X86553Y-62676D01*
X86581Y-62704D01*
X86609Y-62760D01*
X86637Y-62873D01*
X86637Y-63014D01*
X86609Y-63126D01*
X86581Y-63182D01*
X86553Y-63210D01*
X86496Y-63239D01*
X86440Y-63239D01*
X86384Y-63210D01*
X86356Y-63182D01*
X86328Y-63126D01*
X86300Y-63014D01*
X86300Y-62873D01*
X86328Y-62760D01*
X86356Y-62704D01*
X86384Y-62676D01*
X86440Y-62648D01*
X86806Y-62648D02*
X87003Y-63239D01*
X87199Y-62648D01*
X87846Y-63014D02*
X88296Y-63014D01*
X88071Y-63239D02*
X88071Y-62789D01*
G54D12*
X88000Y-69300D02*
G75*
G03X88000Y-69300I-50J0D01*
G74*
G01*
X87500Y-69300D02*
X87900Y-69300D01*
X87900Y-69300D02*
X87900Y-69900D01*
X87900Y-69900D02*
X87500Y-69900D01*
X87100Y-69900D02*
X86700Y-69900D01*
X86700Y-69900D02*
X86700Y-69300D01*
X86700Y-69300D02*
X87100Y-69300D01*
G54D13*
X84050Y-65900D02*
X84050Y-67150D01*
X84050Y-67150D02*
X84750Y-67150D01*
X84750Y-67150D02*
X84750Y-65900D01*
X82250Y-65900D02*
X82250Y-67150D01*
X82250Y-67150D02*
X82950Y-67150D01*
X82950Y-67150D02*
X82950Y-65900D01*
X84850Y-63500D02*
X84850Y-65900D01*
X84850Y-65900D02*
X82150Y-65900D01*
X82150Y-65900D02*
X82150Y-62800D01*
X82150Y-62750D02*
X84850Y-62750D01*
X84850Y-62800D02*
X84850Y-63500D01*
G54D14*
X86500Y-64210D02*
X86500Y-65210D01*
X86500Y-65210D02*
X87600Y-65210D01*
X87600Y-64210D02*
X87600Y-65210D01*
X86500Y-64210D02*
X87600Y-64210D01*
X86500Y-66180D02*
X86500Y-67180D01*
X86500Y-67180D02*
X87600Y-67180D01*
X87600Y-66180D02*
X87600Y-67180D01*
X86500Y-66180D02*
X87600Y-66180D01*
G54D15*
X89950Y-67700D02*
X88750Y-67700D01*
X89950Y-67700D02*
X89950Y-63700D01*
X89950Y-67700D02*
X89950Y-67900D01*
X89950Y-67900D02*
X88050Y-67900D01*
X88050Y-67900D02*
X88150Y-67700D01*
X85350Y-67900D02*
X85450Y-67700D01*
X85450Y-67700D02*
X85050Y-67700D01*
X86000Y-67900D02*
X85900Y-67700D01*
X85900Y-67700D02*
X85450Y-67700D01*
X86000Y-67900D02*
X85350Y-67900D01*
X85050Y-65880D02*
X85800Y-65880D01*
X87600Y-67480D02*
X85800Y-67480D01*
X85050Y-65880D02*
X85050Y-67480D01*
X85050Y-67480D02*
X85050Y-67700D01*
X85050Y-65510D02*
X85800Y-65510D01*
X85050Y-65510D02*
X85050Y-65880D01*
X87600Y-63910D02*
X85800Y-63910D01*
X85050Y-63700D02*
X85050Y-63910D01*
X85050Y-63910D02*
X85050Y-65510D01*
X85800Y-65880D02*
X85800Y-67480D01*
X85800Y-65880D02*
X87600Y-65880D01*
X85800Y-67480D02*
X85050Y-67480D01*
X85800Y-65510D02*
X85800Y-63910D01*
X85800Y-65510D02*
X87600Y-65510D01*
X85800Y-63910D02*
X85050Y-63910D01*
X86050Y-67330D02*
X87300Y-67330D01*
X86050Y-67330D02*
X86050Y-66030D01*
X86050Y-66030D02*
X87300Y-66030D01*
X86050Y-65360D02*
X87300Y-65360D01*
X86050Y-65360D02*
X86050Y-64060D01*
X86050Y-64060D02*
X87300Y-64060D01*
X87300Y-64060D02*
X87300Y-64210D01*
X87300Y-65360D02*
X87300Y-65210D01*
X87300Y-66030D02*
X87300Y-66180D01*
X87300Y-67330D02*
X87300Y-67180D01*
X85050Y-63700D02*
X87750Y-63700D01*
X87750Y-63700D02*
X88750Y-63700D01*
X88150Y-67700D02*
X87750Y-67700D01*
X87750Y-67700D02*
X85900Y-67700D01*
X88750Y-63700D02*
X88750Y-67700D01*
X88750Y-63700D02*
X89950Y-63700D01*
X88750Y-67700D02*
X88150Y-67700D01*
X88850Y-65880D02*
X89850Y-65880D01*
X89850Y-65880D02*
X89850Y-67480D01*
X89850Y-67480D02*
X88850Y-67480D01*
X88850Y-67480D02*
X88850Y-65880D01*
X88850Y-65510D02*
X89850Y-65510D01*
X88850Y-65510D02*
X88850Y-63910D01*
X88850Y-63910D02*
X89850Y-63910D01*
X89850Y-65510D02*
X89850Y-63910D01*
X89250Y-66040D02*
X89500Y-67240D01*
X89200Y-66090D02*
X89450Y-67290D01*
X89250Y-64070D02*
X89500Y-65271D01*
X89200Y-64120D02*
X89450Y-65320D01*
X87600Y-63910D02*
X87600Y-64060D01*
X87600Y-65510D02*
X87600Y-65360D01*
X87600Y-65360D02*
X87600Y-64060D01*
X87750Y-63700D02*
X87750Y-64060D01*
X87750Y-64060D02*
X87750Y-65360D01*
X87750Y-65360D02*
X87750Y-66030D01*
X87750Y-67700D02*
X87750Y-67330D01*
X87750Y-67330D02*
X87750Y-66030D01*
X87600Y-67480D02*
X87600Y-67330D01*
X87600Y-65880D02*
X87600Y-66030D01*
X87600Y-66030D02*
X87600Y-67330D01*
X89108Y-67258D02*
G75*
G03X89488Y-67279I200J178D01*
G74*
G01*
X89140Y-66099D02*
G75*
G03X89120Y-67275I749J-600D01*
G74*
G01*
X89491Y-67280D02*
G75*
G03X89469Y-66039I-531J611D01*
G74*
G01*
X89489Y-66060D02*
G75*
G03X89125Y-66115I-160J-169D01*
G74*
G01*
X89107Y-65288D02*
G75*
G03X89489Y-65309I201J178D01*
G74*
G01*
X89140Y-64130D02*
G75*
G03X89120Y-65306I749J-600D01*
G74*
G01*
X89493Y-65312D02*
G75*
G03X89469Y-64069I-533J611D01*
G74*
G01*
X89488Y-64090D02*
G75*
G03X89125Y-64146I-159J-169D01*
G74*
G01*
G54D10*
X82200Y-67170D02*
X82200Y-68429D01*
X84878Y-67170D02*
X84878Y-68430D01*
X82122Y-67170D02*
X82122Y-68429D01*
X83971Y-68432D02*
X84871Y-68432D01*
X84871Y-67168D02*
X83971Y-67168D01*
X83027Y-67170D02*
X82122Y-67170D01*
X82122Y-68429D02*
X83027Y-68429D01*
G54D16*
X84900Y-68500D02*
X85900Y-68500D01*
X84900Y-67500D02*
X85900Y-67500D01*
G54D17*
X84900Y-68500D02*
X84900Y-67500D01*
X85900Y-67500D02*
X85900Y-68500D01*
G54D16*
X88400Y-67900D02*
X87400Y-67900D01*
X88400Y-68900D02*
X87400Y-68900D01*
G54D17*
X88400Y-67900D02*
X88400Y-68900D01*
X87400Y-68900D02*
X87400Y-67900D01*
G54D13*
X87396Y-69650D02*
X87253Y-69750D01*
X87396Y-69821D02*
X87096Y-69821D01*
X87096Y-69707D01*
X87110Y-69678D01*
X87125Y-69664D01*
X87153Y-69650D01*
X87196Y-69650D01*
X87225Y-69664D01*
X87239Y-69678D01*
X87253Y-69707D01*
X87253Y-69821D01*
X87396Y-69364D02*
X87396Y-69535D01*
X87396Y-69450D02*
X87096Y-69450D01*
X87139Y-69478D01*
X87167Y-69507D01*
X87182Y-69535D01*
G54D18*
X83461Y-67000D02*
X83423Y-66976D01*
X83385Y-66928D01*
X83328Y-66857D01*
X83290Y-66833D01*
X83252Y-66833D01*
X83271Y-66952D02*
X83233Y-66928D01*
X83195Y-66880D01*
X83176Y-66785D01*
X83176Y-66619D01*
X83195Y-66523D01*
X83233Y-66476D01*
X83271Y-66452D01*
X83347Y-66452D01*
X83385Y-66476D01*
X83423Y-66523D01*
X83442Y-66619D01*
X83442Y-66785D01*
X83423Y-66880D01*
X83385Y-66928D01*
X83347Y-66952D01*
X83271Y-66952D01*
X83823Y-66952D02*
X83595Y-66952D01*
X83709Y-66952D02*
X83709Y-66452D01*
X83671Y-66523D01*
X83633Y-66571D01*
X83595Y-66595D01*
G54D13*
X85702Y-67069D02*
X85202Y-67069D01*
X85202Y-66878D01*
X85226Y-66830D01*
X85250Y-66807D01*
X85297Y-66783D01*
X85369Y-66783D01*
X85416Y-66807D01*
X85440Y-66830D01*
X85464Y-66878D01*
X85464Y-67069D01*
X85250Y-66592D02*
X85226Y-66569D01*
X85202Y-66521D01*
X85202Y-66402D01*
X85226Y-66354D01*
X85250Y-66330D01*
X85297Y-66307D01*
X85345Y-66307D01*
X85416Y-66330D01*
X85702Y-66616D01*
X85702Y-66307D01*
X83454Y-67911D02*
X83362Y-67780D01*
X83296Y-67911D02*
X83296Y-67635D01*
X83401Y-67635D01*
X83427Y-67648D01*
X83440Y-67662D01*
X83454Y-67688D01*
X83454Y-67727D01*
X83440Y-67754D01*
X83427Y-67767D01*
X83401Y-67780D01*
X83296Y-67780D01*
X83559Y-67662D02*
X83572Y-67648D01*
X83598Y-67635D01*
X83664Y-67635D01*
X83690Y-67648D01*
X83703Y-67662D01*
X83716Y-67688D01*
X83716Y-67714D01*
X83703Y-67754D01*
X83546Y-67911D01*
X83716Y-67911D01*
X85030Y-69102D02*
X85030Y-68602D01*
X85221Y-68602D01*
X85269Y-68626D01*
X85292Y-68650D01*
X85316Y-68697D01*
X85316Y-68769D01*
X85292Y-68816D01*
X85269Y-68840D01*
X85221Y-68864D01*
X85030Y-68864D01*
X85483Y-68602D02*
X85792Y-68602D01*
X85626Y-68792D01*
X85697Y-68792D01*
X85745Y-68816D01*
X85769Y-68840D01*
X85792Y-68888D01*
X85792Y-69007D01*
X85769Y-69054D01*
X85745Y-69078D01*
X85697Y-69102D01*
X85554Y-69102D01*
X85507Y-69078D01*
X85483Y-69054D01*
X86530Y-69102D02*
X86530Y-68602D01*
X86721Y-68602D01*
X86769Y-68626D01*
X86792Y-68650D01*
X86816Y-68697D01*
X86816Y-68769D01*
X86792Y-68816D01*
X86769Y-68840D01*
X86721Y-68864D01*
X86530Y-68864D01*
X87292Y-69102D02*
X87007Y-69102D01*
X87150Y-69102D02*
X87150Y-68602D01*
X87102Y-68673D01*
X87054Y-68721D01*
X87007Y-68745D01*
M02*
