M48
;DRILL file {Pcbnew (2013-07-07 BZR 4022)-stable} date 10/06/2015 20:15:55
;FORMAT={-:-/ absolute / inch / decimal}
FMAT,2
INCH,TZ
T1C0.025
T2C0.032
T3C0.040
%
G90
G05
M72
T1
X3.7Y-2.75
X3.7Y-2.8
X3.7Y-2.85
X3.7Y-2.9
X3.7Y-2.95
X3.725Y-2.775
X3.725Y-2.825
X3.725Y-2.875
X3.725Y-2.925
X3.75Y-2.75
X3.75Y-2.8
X3.75Y-2.85
X3.75Y-2.9
X3.75Y-2.95
X3.775Y-2.775
X3.775Y-2.925
X3.8Y-2.75
X3.8Y-2.8
X3.8Y-2.85
X3.8Y-2.9
X3.8Y-2.95
X3.825Y-2.775
X3.825Y-2.925
X3.85Y-2.75
X3.85Y-2.8
X3.85Y-2.85
X3.85Y-2.9
X3.85Y-2.95
X3.875Y-2.775
X3.875Y-2.825
X3.875Y-2.875
X3.875Y-2.925
X3.9Y-2.75
X3.9Y-2.8
X3.9Y-2.85
X3.9Y-2.9
X3.9Y-2.95
T2
X3.5Y-2.95
X3.5Y-3.425
X3.6Y-2.85
X3.6Y-2.95
X3.675Y-3.425
X3.775Y-3.425
X4.025Y-2.75
X4.025Y-3.05
X4.15Y-2.75
X4.15Y-3.05
X4.15Y-3.2
X4.15Y-3.325
X4.15Y-3.425
T3
X3.5Y-3.025
X3.5Y-3.125
X3.5Y-3.225
T0
M30
