G04 (created by PCBNEW (2013-07-07 BZR 4022)-stable) date 10/06/2015 20:15:53*
%MOIN*%
G04 Gerber Fmt 3.4, Leading zero omitted, Abs format*
%FSLAX34Y34*%
G01*
G70*
G90*
G04 APERTURE LIST*
%ADD10C,0.00590551*%
%ADD11C,0.005*%
%ADD12C,0.008*%
%ADD13C,0.0031*%
%ADD14C,0.0039*%
%ADD15C,0.0026*%
%ADD16C,0.004*%
%ADD17C,0.002*%
%ADD18C,0.012*%
%ADD19C,0.015*%
%ADD20C,0.0043*%
G04 APERTURE END LIST*
G54D10*
G54D11*
X40661Y-32407D02*
X40661Y-32178D01*
X41061Y-32292D02*
X40661Y-32292D01*
X41042Y-32064D02*
X41061Y-32007D01*
X41061Y-31911D01*
X41042Y-31873D01*
X41023Y-31854D01*
X40985Y-31835D01*
X40947Y-31835D01*
X40909Y-31854D01*
X40890Y-31873D01*
X40871Y-31911D01*
X40852Y-31988D01*
X40833Y-32026D01*
X40814Y-32045D01*
X40776Y-32064D01*
X40738Y-32064D01*
X40700Y-32045D01*
X40680Y-32026D01*
X40661Y-31988D01*
X40661Y-31892D01*
X40680Y-31835D01*
X40661Y-31721D02*
X40661Y-31492D01*
X41061Y-31607D02*
X40661Y-31607D01*
G54D12*
X36750Y-30950D02*
X36750Y-30900D01*
X35850Y-30950D02*
X36750Y-30950D01*
X36650Y-29000D02*
X36600Y-29000D01*
X35400Y-29000D02*
X36650Y-29000D01*
G54D11*
X35221Y-28807D02*
X35521Y-28707D01*
X35221Y-28607D01*
X35521Y-28464D02*
X35507Y-28492D01*
X35492Y-28507D01*
X35464Y-28521D01*
X35378Y-28521D01*
X35350Y-28507D01*
X35335Y-28492D01*
X35321Y-28464D01*
X35321Y-28421D01*
X35335Y-28392D01*
X35350Y-28378D01*
X35378Y-28364D01*
X35464Y-28364D01*
X35492Y-28378D01*
X35507Y-28392D01*
X35521Y-28421D01*
X35521Y-28464D01*
X35321Y-28107D02*
X35521Y-28107D01*
X35321Y-28235D02*
X35478Y-28235D01*
X35507Y-28221D01*
X35521Y-28192D01*
X35521Y-28150D01*
X35507Y-28121D01*
X35492Y-28107D01*
X35321Y-28007D02*
X35321Y-27892D01*
X35221Y-27964D02*
X35478Y-27964D01*
X35507Y-27950D01*
X35521Y-27921D01*
X35521Y-27892D01*
X35985Y-30578D02*
X35971Y-30607D01*
X35971Y-30650D01*
X35985Y-30692D01*
X36014Y-30721D01*
X36042Y-30735D01*
X36100Y-30750D01*
X36142Y-30750D01*
X36200Y-30735D01*
X36228Y-30721D01*
X36257Y-30692D01*
X36271Y-30650D01*
X36271Y-30621D01*
X36257Y-30578D01*
X36242Y-30564D01*
X36142Y-30564D01*
X36142Y-30621D01*
X36271Y-30435D02*
X35971Y-30435D01*
X36271Y-30264D01*
X35971Y-30264D01*
X36271Y-30121D02*
X35971Y-30121D01*
X35971Y-30050D01*
X35985Y-30007D01*
X36014Y-29978D01*
X36042Y-29964D01*
X36100Y-29950D01*
X36142Y-29950D01*
X36200Y-29964D01*
X36228Y-29978D01*
X36257Y-30007D01*
X36271Y-30050D01*
X36271Y-30121D01*
G54D12*
X35800Y-33200D02*
X35800Y-34700D01*
G54D11*
X34590Y-33361D02*
X34723Y-33761D01*
X34857Y-33361D01*
X34990Y-33761D02*
X34990Y-33495D01*
X34990Y-33361D02*
X34971Y-33380D01*
X34990Y-33400D01*
X35009Y-33380D01*
X34990Y-33361D01*
X34990Y-33400D01*
X35180Y-33495D02*
X35180Y-33761D01*
X35180Y-33533D02*
X35200Y-33514D01*
X35238Y-33495D01*
X35295Y-33495D01*
X35333Y-33514D01*
X35352Y-33552D01*
X35352Y-33761D01*
G54D13*
X39525Y-33862D02*
G75*
G03X39525Y-33862I-62J0D01*
G74*
G01*
X38500Y-34200D02*
X38500Y-33800D01*
X39525Y-34200D02*
X39525Y-33800D01*
X38500Y-33800D02*
X39525Y-33800D01*
X39525Y-34200D02*
X38500Y-34200D01*
G54D11*
X40500Y-32950D02*
X40500Y-32050D01*
X40500Y-32050D02*
X39850Y-32050D01*
X39150Y-32950D02*
X38500Y-32950D01*
X38500Y-32950D02*
X38500Y-32050D01*
X38500Y-32050D02*
X39150Y-32050D01*
X39850Y-32950D02*
X40500Y-32950D01*
G54D14*
X36450Y-27200D02*
G75*
G03X36450Y-27200I-50J0D01*
G74*
G01*
X35950Y-27200D02*
X36350Y-27200D01*
X36350Y-27200D02*
X36350Y-27800D01*
X36350Y-27800D02*
X35950Y-27800D01*
X35550Y-27800D02*
X35150Y-27800D01*
X35150Y-27800D02*
X35150Y-27200D01*
X35150Y-27200D02*
X35550Y-27200D01*
X40000Y-33350D02*
G75*
G03X40000Y-33350I-50J0D01*
G74*
G01*
X39950Y-33800D02*
X39950Y-33400D01*
X39950Y-33400D02*
X40550Y-33400D01*
X40550Y-33400D02*
X40550Y-33800D01*
X40550Y-34200D02*
X40550Y-34600D01*
X40550Y-34600D02*
X39950Y-34600D01*
X39950Y-34600D02*
X39950Y-34200D01*
X38200Y-32700D02*
G75*
G03X38200Y-32700I-50J0D01*
G74*
G01*
X37700Y-32700D02*
X38100Y-32700D01*
X38100Y-32700D02*
X38100Y-33300D01*
X38100Y-33300D02*
X37700Y-33300D01*
X37300Y-33300D02*
X36900Y-33300D01*
X36900Y-33300D02*
X36900Y-32700D01*
X36900Y-32700D02*
X37300Y-32700D01*
X36900Y-32550D02*
G75*
G03X36900Y-32550I-50J0D01*
G74*
G01*
X37300Y-32550D02*
X36900Y-32550D01*
X36900Y-32550D02*
X36900Y-31950D01*
X36900Y-31950D02*
X37300Y-31950D01*
X37700Y-31950D02*
X38100Y-31950D01*
X38100Y-31950D02*
X38100Y-32550D01*
X38100Y-32550D02*
X37700Y-32550D01*
G54D15*
X34632Y-28196D02*
X34504Y-28196D01*
X34504Y-28196D02*
X34504Y-28393D01*
X34632Y-28393D02*
X34504Y-28393D01*
X34632Y-28196D02*
X34632Y-28393D01*
X34877Y-28196D02*
X34818Y-28196D01*
X34818Y-28196D02*
X34818Y-28295D01*
X34877Y-28295D02*
X34818Y-28295D01*
X34877Y-28196D02*
X34877Y-28295D01*
X34682Y-28196D02*
X34623Y-28196D01*
X34623Y-28196D02*
X34623Y-28295D01*
X34682Y-28295D02*
X34623Y-28295D01*
X34682Y-28196D02*
X34682Y-28295D01*
X34828Y-28196D02*
X34672Y-28196D01*
X34672Y-28196D02*
X34672Y-28265D01*
X34828Y-28265D02*
X34672Y-28265D01*
X34828Y-28196D02*
X34828Y-28265D01*
X34632Y-27607D02*
X34504Y-27607D01*
X34504Y-27607D02*
X34504Y-27804D01*
X34632Y-27804D02*
X34504Y-27804D01*
X34632Y-27607D02*
X34632Y-27804D01*
X34996Y-27607D02*
X34868Y-27607D01*
X34868Y-27607D02*
X34868Y-27804D01*
X34996Y-27804D02*
X34868Y-27804D01*
X34996Y-27607D02*
X34996Y-27804D01*
X34682Y-27705D02*
X34623Y-27705D01*
X34623Y-27705D02*
X34623Y-27804D01*
X34682Y-27804D02*
X34623Y-27804D01*
X34682Y-27705D02*
X34682Y-27804D01*
X34877Y-27705D02*
X34818Y-27705D01*
X34818Y-27705D02*
X34818Y-27804D01*
X34877Y-27804D02*
X34818Y-27804D01*
X34877Y-27705D02*
X34877Y-27804D01*
X34828Y-27735D02*
X34672Y-27735D01*
X34672Y-27735D02*
X34672Y-27804D01*
X34828Y-27804D02*
X34672Y-27804D01*
X34828Y-27735D02*
X34828Y-27804D01*
X34789Y-28000D02*
X34711Y-28000D01*
X34711Y-28000D02*
X34711Y-28078D01*
X34789Y-28078D02*
X34711Y-28078D01*
X34789Y-28000D02*
X34789Y-28078D01*
X34986Y-28196D02*
X34868Y-28196D01*
X34868Y-28196D02*
X34868Y-28314D01*
X34986Y-28314D02*
X34868Y-28314D01*
X34986Y-28196D02*
X34986Y-28314D01*
X34996Y-28364D02*
X34907Y-28364D01*
X34907Y-28364D02*
X34907Y-28393D01*
X34996Y-28393D02*
X34907Y-28393D01*
X34996Y-28364D02*
X34996Y-28393D01*
G54D16*
X34524Y-28206D02*
X34524Y-27794D01*
X34976Y-27804D02*
X34976Y-28364D01*
G54D17*
X34955Y-28334D02*
G75*
G03X34955Y-28334I-28J0D01*
G74*
G01*
G54D16*
X34887Y-28393D02*
G75*
G03X34613Y-28393I-137J0D01*
G74*
G01*
X34613Y-27607D02*
G75*
G03X34887Y-27607I137J0D01*
G74*
G01*
G54D11*
X38550Y-30400D02*
X38550Y-31650D01*
X38550Y-31650D02*
X39250Y-31650D01*
X39250Y-31650D02*
X39250Y-30400D01*
X36750Y-30400D02*
X36750Y-31650D01*
X36750Y-31650D02*
X37450Y-31650D01*
X37450Y-31650D02*
X37450Y-30400D01*
X39350Y-28000D02*
X39350Y-30400D01*
X39350Y-30400D02*
X36650Y-30400D01*
X36650Y-30400D02*
X36650Y-27300D01*
X36650Y-27250D02*
X39350Y-27250D01*
X39350Y-27300D02*
X39350Y-28000D01*
G54D18*
X40250Y-30500D02*
X40250Y-30200D01*
X40250Y-30200D02*
X40650Y-30200D01*
X40650Y-30200D02*
X40650Y-27800D01*
X40650Y-27800D02*
X40250Y-27800D01*
X40250Y-27800D02*
X40250Y-27500D01*
X40250Y-27800D02*
X39850Y-27800D01*
X39850Y-27800D02*
X39850Y-30200D01*
X39850Y-30200D02*
X40250Y-30200D01*
X40650Y-30000D02*
X39850Y-30000D01*
X39850Y-29900D02*
X40650Y-29900D01*
X41500Y-30500D02*
X41500Y-30200D01*
X41500Y-30200D02*
X41900Y-30200D01*
X41900Y-30200D02*
X41900Y-27800D01*
X41900Y-27800D02*
X41500Y-27800D01*
X41500Y-27800D02*
X41500Y-27500D01*
X41500Y-27800D02*
X41100Y-27800D01*
X41100Y-27800D02*
X41100Y-30200D01*
X41100Y-30200D02*
X41500Y-30200D01*
X41900Y-30000D02*
X41100Y-30000D01*
X41100Y-29900D02*
X41900Y-29900D01*
G54D19*
X34250Y-33250D02*
X34000Y-33250D01*
X34000Y-33250D02*
X34000Y-29250D01*
X34000Y-29250D02*
X34250Y-29250D01*
X35750Y-33250D02*
X34250Y-33250D01*
X34250Y-33250D02*
X34250Y-29250D01*
X34250Y-29250D02*
X35750Y-29250D01*
X35750Y-29250D02*
X35750Y-33250D01*
G54D11*
X38695Y-34100D02*
X38676Y-34090D01*
X38657Y-34071D01*
X38628Y-34042D01*
X38609Y-34033D01*
X38590Y-34033D01*
X38599Y-34080D02*
X38580Y-34071D01*
X38561Y-34052D01*
X38552Y-34014D01*
X38552Y-33947D01*
X38561Y-33909D01*
X38580Y-33890D01*
X38599Y-33880D01*
X38638Y-33880D01*
X38657Y-33890D01*
X38676Y-33909D01*
X38685Y-33947D01*
X38685Y-34014D01*
X38676Y-34052D01*
X38657Y-34071D01*
X38638Y-34080D01*
X38599Y-34080D01*
X38876Y-34080D02*
X38761Y-34080D01*
X38819Y-34080D02*
X38819Y-33880D01*
X38799Y-33909D01*
X38780Y-33928D01*
X38761Y-33938D01*
X38999Y-33880D02*
X39019Y-33880D01*
X39038Y-33890D01*
X39047Y-33900D01*
X39057Y-33919D01*
X39066Y-33957D01*
X39066Y-34004D01*
X39057Y-34042D01*
X39047Y-34061D01*
X39038Y-34071D01*
X39019Y-34080D01*
X38999Y-34080D01*
X38980Y-34071D01*
X38971Y-34061D01*
X38961Y-34042D01*
X38952Y-34004D01*
X38952Y-33957D01*
X38961Y-33919D01*
X38971Y-33900D01*
X38980Y-33890D01*
X38999Y-33880D01*
X39190Y-33880D02*
X39209Y-33880D01*
X39228Y-33890D01*
X39238Y-33900D01*
X39247Y-33919D01*
X39257Y-33957D01*
X39257Y-34004D01*
X39247Y-34042D01*
X39238Y-34061D01*
X39228Y-34071D01*
X39209Y-34080D01*
X39190Y-34080D01*
X39171Y-34071D01*
X39161Y-34061D01*
X39152Y-34042D01*
X39142Y-34004D01*
X39142Y-33957D01*
X39152Y-33919D01*
X39161Y-33900D01*
X39171Y-33890D01*
X39190Y-33880D01*
X39447Y-34080D02*
X39333Y-34080D01*
X39390Y-34080D02*
X39390Y-33880D01*
X39371Y-33909D01*
X39352Y-33928D01*
X39333Y-33938D01*
X39580Y-32933D02*
X39380Y-32933D01*
X39380Y-32885D01*
X39390Y-32857D01*
X39409Y-32838D01*
X39428Y-32828D01*
X39466Y-32819D01*
X39495Y-32819D01*
X39533Y-32828D01*
X39552Y-32838D01*
X39571Y-32857D01*
X39580Y-32885D01*
X39580Y-32933D01*
X39580Y-32628D02*
X39580Y-32742D01*
X39580Y-32685D02*
X39380Y-32685D01*
X39409Y-32704D01*
X39428Y-32723D01*
X39438Y-32742D01*
X39380Y-32504D02*
X39380Y-32485D01*
X39390Y-32466D01*
X39400Y-32457D01*
X39419Y-32447D01*
X39457Y-32438D01*
X39504Y-32438D01*
X39542Y-32447D01*
X39561Y-32457D01*
X39571Y-32466D01*
X39580Y-32485D01*
X39580Y-32504D01*
X39571Y-32523D01*
X39561Y-32533D01*
X39542Y-32542D01*
X39504Y-32552D01*
X39457Y-32552D01*
X39419Y-32542D01*
X39400Y-32533D01*
X39390Y-32523D01*
X39380Y-32504D01*
X39380Y-32314D02*
X39380Y-32295D01*
X39390Y-32276D01*
X39400Y-32266D01*
X39419Y-32257D01*
X39457Y-32247D01*
X39504Y-32247D01*
X39542Y-32257D01*
X39561Y-32266D01*
X39571Y-32276D01*
X39580Y-32295D01*
X39580Y-32314D01*
X39571Y-32333D01*
X39561Y-32342D01*
X39542Y-32352D01*
X39504Y-32361D01*
X39457Y-32361D01*
X39419Y-32352D01*
X39400Y-32342D01*
X39390Y-32333D01*
X39380Y-32314D01*
X39580Y-32057D02*
X39580Y-32171D01*
X39580Y-32114D02*
X39380Y-32114D01*
X39409Y-32133D01*
X39428Y-32152D01*
X39438Y-32171D01*
G54D20*
X35829Y-27814D02*
X35735Y-27879D01*
X35829Y-27926D02*
X35632Y-27926D01*
X35632Y-27851D01*
X35642Y-27833D01*
X35651Y-27823D01*
X35670Y-27814D01*
X35698Y-27814D01*
X35717Y-27823D01*
X35726Y-27833D01*
X35735Y-27851D01*
X35735Y-27926D01*
X35829Y-27626D02*
X35829Y-27739D01*
X35829Y-27682D02*
X35632Y-27682D01*
X35660Y-27701D01*
X35679Y-27720D01*
X35689Y-27739D01*
X35632Y-27504D02*
X35632Y-27485D01*
X35642Y-27467D01*
X35651Y-27457D01*
X35670Y-27448D01*
X35707Y-27439D01*
X35754Y-27439D01*
X35792Y-27448D01*
X35810Y-27457D01*
X35820Y-27467D01*
X35829Y-27485D01*
X35829Y-27504D01*
X35820Y-27523D01*
X35810Y-27532D01*
X35792Y-27542D01*
X35754Y-27551D01*
X35707Y-27551D01*
X35670Y-27542D01*
X35651Y-27532D01*
X35642Y-27523D01*
X35632Y-27504D01*
X35632Y-27317D02*
X35632Y-27298D01*
X35642Y-27279D01*
X35651Y-27270D01*
X35670Y-27260D01*
X35707Y-27251D01*
X35754Y-27251D01*
X35792Y-27260D01*
X35810Y-27270D01*
X35820Y-27279D01*
X35829Y-27298D01*
X35829Y-27317D01*
X35820Y-27335D01*
X35810Y-27345D01*
X35792Y-27354D01*
X35754Y-27363D01*
X35707Y-27363D01*
X35670Y-27354D01*
X35651Y-27345D01*
X35642Y-27335D01*
X35632Y-27317D01*
X35651Y-27176D02*
X35642Y-27166D01*
X35632Y-27148D01*
X35632Y-27101D01*
X35642Y-27082D01*
X35651Y-27073D01*
X35670Y-27063D01*
X35689Y-27063D01*
X35717Y-27073D01*
X35829Y-27185D01*
X35829Y-27063D01*
X39935Y-34079D02*
X39870Y-33985D01*
X39823Y-34079D02*
X39823Y-33882D01*
X39898Y-33882D01*
X39916Y-33892D01*
X39926Y-33901D01*
X39935Y-33920D01*
X39935Y-33948D01*
X39926Y-33967D01*
X39916Y-33976D01*
X39898Y-33985D01*
X39823Y-33985D01*
X40123Y-34079D02*
X40010Y-34079D01*
X40067Y-34079D02*
X40067Y-33882D01*
X40048Y-33910D01*
X40029Y-33929D01*
X40010Y-33939D01*
X40245Y-33882D02*
X40264Y-33882D01*
X40282Y-33892D01*
X40292Y-33901D01*
X40301Y-33920D01*
X40310Y-33957D01*
X40310Y-34004D01*
X40301Y-34042D01*
X40292Y-34060D01*
X40282Y-34070D01*
X40264Y-34079D01*
X40245Y-34079D01*
X40226Y-34070D01*
X40217Y-34060D01*
X40207Y-34042D01*
X40198Y-34004D01*
X40198Y-33957D01*
X40207Y-33920D01*
X40217Y-33901D01*
X40226Y-33892D01*
X40245Y-33882D01*
X40432Y-33882D02*
X40451Y-33882D01*
X40470Y-33892D01*
X40479Y-33901D01*
X40489Y-33920D01*
X40498Y-33957D01*
X40498Y-34004D01*
X40489Y-34042D01*
X40479Y-34060D01*
X40470Y-34070D01*
X40451Y-34079D01*
X40432Y-34079D01*
X40414Y-34070D01*
X40404Y-34060D01*
X40395Y-34042D01*
X40386Y-34004D01*
X40386Y-33957D01*
X40395Y-33920D01*
X40404Y-33901D01*
X40414Y-33892D01*
X40432Y-33882D01*
X40686Y-34079D02*
X40573Y-34079D01*
X40629Y-34079D02*
X40629Y-33882D01*
X40611Y-33910D01*
X40592Y-33929D01*
X40573Y-33939D01*
X37560Y-33564D02*
X37570Y-33573D01*
X37579Y-33601D01*
X37579Y-33620D01*
X37570Y-33648D01*
X37551Y-33667D01*
X37532Y-33676D01*
X37495Y-33686D01*
X37467Y-33686D01*
X37429Y-33676D01*
X37410Y-33667D01*
X37392Y-33648D01*
X37382Y-33620D01*
X37382Y-33601D01*
X37392Y-33573D01*
X37401Y-33564D01*
X37579Y-33376D02*
X37579Y-33489D01*
X37579Y-33432D02*
X37382Y-33432D01*
X37410Y-33451D01*
X37429Y-33470D01*
X37439Y-33489D01*
X37382Y-33254D02*
X37382Y-33235D01*
X37392Y-33217D01*
X37401Y-33207D01*
X37420Y-33198D01*
X37457Y-33189D01*
X37504Y-33189D01*
X37542Y-33198D01*
X37560Y-33207D01*
X37570Y-33217D01*
X37579Y-33235D01*
X37579Y-33254D01*
X37570Y-33273D01*
X37560Y-33282D01*
X37542Y-33292D01*
X37504Y-33301D01*
X37457Y-33301D01*
X37420Y-33292D01*
X37401Y-33282D01*
X37392Y-33273D01*
X37382Y-33254D01*
X37382Y-33067D02*
X37382Y-33048D01*
X37392Y-33029D01*
X37401Y-33020D01*
X37420Y-33010D01*
X37457Y-33001D01*
X37504Y-33001D01*
X37542Y-33010D01*
X37560Y-33020D01*
X37570Y-33029D01*
X37579Y-33048D01*
X37579Y-33067D01*
X37570Y-33085D01*
X37560Y-33095D01*
X37542Y-33104D01*
X37504Y-33113D01*
X37457Y-33113D01*
X37420Y-33104D01*
X37401Y-33095D01*
X37392Y-33085D01*
X37382Y-33067D01*
X37401Y-32926D02*
X37392Y-32916D01*
X37382Y-32898D01*
X37382Y-32851D01*
X37392Y-32832D01*
X37401Y-32823D01*
X37420Y-32813D01*
X37439Y-32813D01*
X37467Y-32823D01*
X37579Y-32935D01*
X37579Y-32813D01*
X37579Y-32564D02*
X37485Y-32629D01*
X37579Y-32676D02*
X37382Y-32676D01*
X37382Y-32601D01*
X37392Y-32583D01*
X37401Y-32573D01*
X37420Y-32564D01*
X37448Y-32564D01*
X37467Y-32573D01*
X37476Y-32583D01*
X37485Y-32601D01*
X37485Y-32676D01*
X37579Y-32376D02*
X37579Y-32489D01*
X37579Y-32432D02*
X37382Y-32432D01*
X37410Y-32451D01*
X37429Y-32470D01*
X37439Y-32489D01*
X37382Y-32254D02*
X37382Y-32235D01*
X37392Y-32217D01*
X37401Y-32207D01*
X37420Y-32198D01*
X37457Y-32189D01*
X37504Y-32189D01*
X37542Y-32198D01*
X37560Y-32207D01*
X37570Y-32217D01*
X37579Y-32235D01*
X37579Y-32254D01*
X37570Y-32273D01*
X37560Y-32282D01*
X37542Y-32292D01*
X37504Y-32301D01*
X37457Y-32301D01*
X37420Y-32292D01*
X37401Y-32282D01*
X37392Y-32273D01*
X37382Y-32254D01*
X37382Y-32067D02*
X37382Y-32048D01*
X37392Y-32029D01*
X37401Y-32020D01*
X37420Y-32010D01*
X37457Y-32001D01*
X37504Y-32001D01*
X37542Y-32010D01*
X37560Y-32020D01*
X37570Y-32029D01*
X37579Y-32048D01*
X37579Y-32067D01*
X37570Y-32085D01*
X37560Y-32095D01*
X37542Y-32104D01*
X37504Y-32113D01*
X37457Y-32113D01*
X37420Y-32104D01*
X37401Y-32095D01*
X37392Y-32085D01*
X37382Y-32067D01*
X37382Y-31832D02*
X37382Y-31870D01*
X37392Y-31888D01*
X37401Y-31898D01*
X37429Y-31916D01*
X37467Y-31926D01*
X37542Y-31926D01*
X37560Y-31916D01*
X37570Y-31907D01*
X37579Y-31888D01*
X37579Y-31851D01*
X37570Y-31832D01*
X37560Y-31823D01*
X37542Y-31813D01*
X37495Y-31813D01*
X37476Y-31823D01*
X37467Y-31832D01*
X37457Y-31851D01*
X37457Y-31888D01*
X37467Y-31907D01*
X37476Y-31916D01*
X37495Y-31926D01*
G54D11*
X34366Y-29030D02*
X34366Y-28830D01*
X34414Y-28830D01*
X34442Y-28840D01*
X34461Y-28859D01*
X34471Y-28878D01*
X34480Y-28916D01*
X34480Y-28945D01*
X34471Y-28983D01*
X34461Y-29002D01*
X34442Y-29021D01*
X34414Y-29030D01*
X34366Y-29030D01*
X34671Y-29030D02*
X34557Y-29030D01*
X34614Y-29030D02*
X34614Y-28830D01*
X34595Y-28859D01*
X34576Y-28878D01*
X34557Y-28888D01*
X34795Y-28830D02*
X34814Y-28830D01*
X34833Y-28840D01*
X34842Y-28850D01*
X34852Y-28869D01*
X34861Y-28907D01*
X34861Y-28954D01*
X34852Y-28992D01*
X34842Y-29011D01*
X34833Y-29021D01*
X34814Y-29030D01*
X34795Y-29030D01*
X34776Y-29021D01*
X34766Y-29011D01*
X34757Y-28992D01*
X34747Y-28954D01*
X34747Y-28907D01*
X34757Y-28869D01*
X34766Y-28850D01*
X34776Y-28840D01*
X34795Y-28830D01*
X34985Y-28830D02*
X35004Y-28830D01*
X35023Y-28840D01*
X35033Y-28850D01*
X35042Y-28869D01*
X35052Y-28907D01*
X35052Y-28954D01*
X35042Y-28992D01*
X35033Y-29011D01*
X35023Y-29021D01*
X35004Y-29030D01*
X34985Y-29030D01*
X34966Y-29021D01*
X34957Y-29011D01*
X34947Y-28992D01*
X34938Y-28954D01*
X34938Y-28907D01*
X34947Y-28869D01*
X34957Y-28850D01*
X34966Y-28840D01*
X34985Y-28830D01*
X35233Y-28830D02*
X35138Y-28830D01*
X35128Y-28926D01*
X35138Y-28916D01*
X35157Y-28907D01*
X35204Y-28907D01*
X35223Y-28916D01*
X35233Y-28926D01*
X35242Y-28945D01*
X35242Y-28992D01*
X35233Y-29011D01*
X35223Y-29021D01*
X35204Y-29030D01*
X35157Y-29030D01*
X35138Y-29021D01*
X35128Y-29011D01*
X37880Y-31438D02*
X38042Y-31438D01*
X38061Y-31428D01*
X38071Y-31419D01*
X38080Y-31400D01*
X38080Y-31361D01*
X38071Y-31342D01*
X38061Y-31333D01*
X38042Y-31323D01*
X37880Y-31323D01*
X38080Y-31123D02*
X38080Y-31238D01*
X38080Y-31180D02*
X37880Y-31180D01*
X37909Y-31200D01*
X37928Y-31219D01*
X37938Y-31238D01*
X37880Y-31000D02*
X37880Y-30980D01*
X37890Y-30961D01*
X37900Y-30952D01*
X37919Y-30942D01*
X37957Y-30933D01*
X38004Y-30933D01*
X38042Y-30942D01*
X38061Y-30952D01*
X38071Y-30961D01*
X38080Y-30980D01*
X38080Y-31000D01*
X38071Y-31019D01*
X38061Y-31028D01*
X38042Y-31038D01*
X38004Y-31047D01*
X37957Y-31047D01*
X37919Y-31038D01*
X37900Y-31028D01*
X37890Y-31019D01*
X37880Y-31000D01*
X37880Y-30809D02*
X37880Y-30790D01*
X37890Y-30771D01*
X37900Y-30761D01*
X37919Y-30752D01*
X37957Y-30742D01*
X38004Y-30742D01*
X38042Y-30752D01*
X38061Y-30761D01*
X38071Y-30771D01*
X38080Y-30790D01*
X38080Y-30809D01*
X38071Y-30828D01*
X38061Y-30838D01*
X38042Y-30847D01*
X38004Y-30857D01*
X37957Y-30857D01*
X37919Y-30847D01*
X37900Y-30838D01*
X37890Y-30828D01*
X37880Y-30809D01*
X38080Y-30552D02*
X38080Y-30666D01*
X38080Y-30609D02*
X37880Y-30609D01*
X37909Y-30628D01*
X37928Y-30647D01*
X37938Y-30666D01*
G54D12*
X37095Y-30211D02*
X36904Y-30211D01*
X36904Y-29811D01*
X37228Y-30211D02*
X37228Y-29811D01*
X37361Y-30097D01*
X37495Y-29811D01*
X37495Y-30211D01*
X37647Y-29811D02*
X37895Y-29811D01*
X37761Y-29964D01*
X37819Y-29964D01*
X37857Y-29983D01*
X37876Y-30002D01*
X37895Y-30040D01*
X37895Y-30135D01*
X37876Y-30173D01*
X37857Y-30192D01*
X37819Y-30211D01*
X37704Y-30211D01*
X37666Y-30192D01*
X37647Y-30173D01*
X38276Y-30211D02*
X38047Y-30211D01*
X38161Y-30211D02*
X38161Y-29811D01*
X38123Y-29869D01*
X38085Y-29907D01*
X38047Y-29926D01*
X38409Y-29811D02*
X38676Y-29811D01*
X38504Y-30211D01*
X38828Y-30211D02*
X38828Y-29811D01*
X38961Y-30097D01*
X39095Y-29811D01*
X39095Y-30211D01*
X40411Y-29866D02*
X40011Y-29866D01*
X40011Y-29771D01*
X40030Y-29714D01*
X40069Y-29676D01*
X40107Y-29657D01*
X40183Y-29638D01*
X40240Y-29638D01*
X40316Y-29657D01*
X40354Y-29676D01*
X40392Y-29714D01*
X40411Y-29771D01*
X40411Y-29866D01*
X40411Y-29257D02*
X40411Y-29485D01*
X40411Y-29371D02*
X40011Y-29371D01*
X40069Y-29409D01*
X40107Y-29447D01*
X40126Y-29485D01*
X40011Y-29009D02*
X40011Y-28971D01*
X40030Y-28933D01*
X40050Y-28914D01*
X40088Y-28895D01*
X40164Y-28876D01*
X40259Y-28876D01*
X40335Y-28895D01*
X40373Y-28914D01*
X40392Y-28933D01*
X40411Y-28971D01*
X40411Y-29009D01*
X40392Y-29047D01*
X40373Y-29066D01*
X40335Y-29085D01*
X40259Y-29104D01*
X40164Y-29104D01*
X40088Y-29085D01*
X40050Y-29066D01*
X40030Y-29047D01*
X40011Y-29009D01*
X40011Y-28628D02*
X40011Y-28590D01*
X40030Y-28552D01*
X40050Y-28533D01*
X40088Y-28514D01*
X40164Y-28495D01*
X40259Y-28495D01*
X40335Y-28514D01*
X40373Y-28533D01*
X40392Y-28552D01*
X40411Y-28590D01*
X40411Y-28628D01*
X40392Y-28666D01*
X40373Y-28685D01*
X40335Y-28704D01*
X40259Y-28723D01*
X40164Y-28723D01*
X40088Y-28704D01*
X40050Y-28685D01*
X40030Y-28666D01*
X40011Y-28628D01*
X40050Y-28342D02*
X40030Y-28323D01*
X40011Y-28285D01*
X40011Y-28190D01*
X40030Y-28152D01*
X40050Y-28133D01*
X40088Y-28114D01*
X40126Y-28114D01*
X40183Y-28133D01*
X40411Y-28361D01*
X40411Y-28114D01*
X41661Y-29866D02*
X41261Y-29866D01*
X41261Y-29771D01*
X41280Y-29714D01*
X41319Y-29676D01*
X41357Y-29657D01*
X41433Y-29638D01*
X41490Y-29638D01*
X41566Y-29657D01*
X41604Y-29676D01*
X41642Y-29714D01*
X41661Y-29771D01*
X41661Y-29866D01*
X41661Y-29257D02*
X41661Y-29485D01*
X41661Y-29371D02*
X41261Y-29371D01*
X41319Y-29409D01*
X41357Y-29447D01*
X41376Y-29485D01*
X41261Y-29009D02*
X41261Y-28971D01*
X41280Y-28933D01*
X41300Y-28914D01*
X41338Y-28895D01*
X41414Y-28876D01*
X41509Y-28876D01*
X41585Y-28895D01*
X41623Y-28914D01*
X41642Y-28933D01*
X41661Y-28971D01*
X41661Y-29009D01*
X41642Y-29047D01*
X41623Y-29066D01*
X41585Y-29085D01*
X41509Y-29104D01*
X41414Y-29104D01*
X41338Y-29085D01*
X41300Y-29066D01*
X41280Y-29047D01*
X41261Y-29009D01*
X41261Y-28628D02*
X41261Y-28590D01*
X41280Y-28552D01*
X41300Y-28533D01*
X41338Y-28514D01*
X41414Y-28495D01*
X41509Y-28495D01*
X41585Y-28514D01*
X41623Y-28533D01*
X41642Y-28552D01*
X41661Y-28590D01*
X41661Y-28628D01*
X41642Y-28666D01*
X41623Y-28685D01*
X41585Y-28704D01*
X41509Y-28723D01*
X41414Y-28723D01*
X41338Y-28704D01*
X41300Y-28685D01*
X41280Y-28666D01*
X41261Y-28628D01*
X41261Y-28361D02*
X41261Y-28114D01*
X41414Y-28247D01*
X41414Y-28190D01*
X41433Y-28152D01*
X41452Y-28133D01*
X41490Y-28114D01*
X41585Y-28114D01*
X41623Y-28133D01*
X41642Y-28152D01*
X41661Y-28190D01*
X41661Y-28304D01*
X41642Y-28342D01*
X41623Y-28361D01*
G54D11*
X36221Y-32907D02*
X36078Y-33007D01*
X36221Y-33078D02*
X35921Y-33078D01*
X35921Y-32964D01*
X35935Y-32935D01*
X35950Y-32921D01*
X35978Y-32907D01*
X36021Y-32907D01*
X36050Y-32921D01*
X36064Y-32935D01*
X36078Y-32964D01*
X36078Y-33078D01*
X35921Y-32821D02*
X36221Y-32721D01*
X35921Y-32621D01*
X36221Y-32364D02*
X36221Y-32535D01*
X36221Y-32449D02*
X35921Y-32449D01*
X35964Y-32478D01*
X35992Y-32507D01*
X36007Y-32535D01*
X35921Y-32178D02*
X35921Y-32149D01*
X35935Y-32121D01*
X35950Y-32107D01*
X35978Y-32092D01*
X36035Y-32078D01*
X36107Y-32078D01*
X36164Y-32092D01*
X36192Y-32107D01*
X36207Y-32121D01*
X36221Y-32149D01*
X36221Y-32178D01*
X36207Y-32207D01*
X36192Y-32221D01*
X36164Y-32235D01*
X36107Y-32249D01*
X36035Y-32249D01*
X35978Y-32235D01*
X35950Y-32221D01*
X35935Y-32207D01*
X35921Y-32178D01*
X35921Y-31892D02*
X35921Y-31864D01*
X35935Y-31835D01*
X35950Y-31821D01*
X35978Y-31807D01*
X36035Y-31792D01*
X36107Y-31792D01*
X36164Y-31807D01*
X36192Y-31821D01*
X36207Y-31835D01*
X36221Y-31864D01*
X36221Y-31892D01*
X36207Y-31921D01*
X36192Y-31935D01*
X36164Y-31949D01*
X36107Y-31964D01*
X36035Y-31964D01*
X35978Y-31949D01*
X35950Y-31935D01*
X35935Y-31921D01*
X35921Y-31892D01*
X36221Y-31507D02*
X36221Y-31678D01*
X36221Y-31592D02*
X35921Y-31592D01*
X35964Y-31621D01*
X35992Y-31650D01*
X36007Y-31678D01*
M02*
