G04 (created by PCBNEW (2013-07-07 BZR 4022)-stable) date 10/06/2015 20:15:53*
%MOIN*%
G04 Gerber Fmt 3.4, Leading zero omitted, Abs format*
%FSLAX34Y34*%
G01*
G70*
G90*
G04 APERTURE LIST*
%ADD10C,0.00590551*%
%ADD11R,0.055X0.055*%
%ADD12C,0.055*%
%ADD13C,0.07*%
%ADD14R,0.07X0.07*%
%ADD15C,0.065*%
%ADD16C,0.035*%
%ADD17C,0.01*%
%ADD18C,0.02*%
G04 APERTURE END LIST*
G54D10*
G54D11*
X41500Y-32000D03*
X35000Y-34250D03*
X36000Y-29500D03*
X36000Y-28500D03*
X35000Y-29500D03*
X36750Y-34250D03*
G54D12*
X37750Y-34250D03*
G54D11*
X40250Y-30500D03*
G54D12*
X40250Y-27500D03*
G54D11*
X41500Y-30500D03*
G54D12*
X41500Y-27500D03*
X41500Y-33250D03*
X41500Y-34250D03*
G54D13*
X35000Y-32250D03*
X35000Y-31250D03*
G54D14*
X35000Y-30250D03*
G54D15*
X38000Y-28500D03*
G54D16*
X37000Y-27500D03*
X37000Y-29500D03*
X37500Y-29500D03*
X38000Y-29500D03*
X38500Y-29500D03*
X39000Y-29500D03*
X38750Y-29250D03*
X38250Y-29250D03*
X37750Y-29250D03*
X37250Y-29250D03*
X37000Y-29000D03*
X37000Y-28500D03*
X37250Y-28250D03*
X37500Y-28500D03*
X37250Y-28750D03*
X37500Y-29000D03*
X38000Y-29000D03*
X38500Y-29000D03*
X39000Y-29000D03*
X38750Y-28750D03*
X38500Y-28500D03*
X39000Y-28500D03*
X38750Y-28250D03*
X39000Y-28000D03*
X38500Y-28000D03*
X38000Y-28000D03*
X37500Y-28000D03*
X37000Y-28000D03*
X37250Y-27750D03*
X37750Y-27750D03*
X38250Y-27750D03*
X38750Y-27750D03*
X39000Y-27500D03*
X38500Y-27500D03*
X38000Y-27500D03*
X37500Y-27500D03*
G54D17*
X38000Y-28500D02*
X37000Y-27500D01*
X38000Y-29500D02*
X37500Y-29500D01*
X39000Y-29500D02*
X38500Y-29500D01*
X38250Y-29250D02*
X38750Y-29250D01*
X37250Y-29250D02*
X37750Y-29250D01*
X37000Y-28500D02*
X37000Y-29000D01*
X37500Y-28500D02*
X37250Y-28250D01*
X37500Y-29000D02*
X37250Y-28750D01*
X38500Y-29000D02*
X38000Y-29000D01*
X38750Y-28750D02*
X39000Y-29000D01*
X39000Y-28500D02*
X38500Y-28500D01*
X39000Y-28000D02*
X38750Y-28250D01*
X38000Y-28000D02*
X38500Y-28000D01*
X37000Y-28000D02*
X37500Y-28000D01*
X37750Y-27750D02*
X37250Y-27750D01*
X38750Y-27750D02*
X38250Y-27750D01*
X38500Y-27500D02*
X39000Y-27500D01*
X37500Y-27500D02*
X38000Y-27500D01*
G54D10*
G36*
X41675Y-32700D02*
X41614Y-32675D01*
X41386Y-32674D01*
X41174Y-32762D01*
X41012Y-32923D01*
X40925Y-33135D01*
X40924Y-33363D01*
X41012Y-33575D01*
X41173Y-33737D01*
X41198Y-33747D01*
X41197Y-33748D01*
X41175Y-33854D01*
X41500Y-34179D01*
X41505Y-34173D01*
X41576Y-34244D01*
X41570Y-34250D01*
X41576Y-34255D01*
X41505Y-34326D01*
X41500Y-34320D01*
X41494Y-34326D01*
X41423Y-34255D01*
X41429Y-34250D01*
X41104Y-33925D01*
X40998Y-33947D01*
X40920Y-34162D01*
X40930Y-34390D01*
X40945Y-34425D01*
X40825Y-34425D01*
X40825Y-30715D01*
X40825Y-30165D01*
X40779Y-30055D01*
X40695Y-29970D01*
X40584Y-29925D01*
X40574Y-29925D01*
X40574Y-27895D01*
X40250Y-27570D01*
X39925Y-27895D01*
X39947Y-28001D01*
X40162Y-28079D01*
X40390Y-28069D01*
X40552Y-28001D01*
X40574Y-27895D01*
X40574Y-29925D01*
X40465Y-29924D01*
X39915Y-29924D01*
X39805Y-29970D01*
X39720Y-30054D01*
X39675Y-30165D01*
X39674Y-30284D01*
X39674Y-30834D01*
X39720Y-30944D01*
X39804Y-31029D01*
X39915Y-31074D01*
X40034Y-31075D01*
X40584Y-31075D01*
X40694Y-31029D01*
X40779Y-30945D01*
X40824Y-30834D01*
X40825Y-30715D01*
X40825Y-34425D01*
X38299Y-34425D01*
X38324Y-34364D01*
X38325Y-34136D01*
X38237Y-33924D01*
X38076Y-33762D01*
X37864Y-33675D01*
X37636Y-33674D01*
X37424Y-33762D01*
X37309Y-33877D01*
X37279Y-33805D01*
X37195Y-33720D01*
X37084Y-33675D01*
X36965Y-33674D01*
X36415Y-33674D01*
X36305Y-33720D01*
X36220Y-33804D01*
X36175Y-33915D01*
X36174Y-34034D01*
X36174Y-34425D01*
X35950Y-34425D01*
X35950Y-30000D01*
X35950Y-29550D01*
X35500Y-29550D01*
X35050Y-29550D01*
X35050Y-29675D01*
X35050Y-30000D01*
X35050Y-30200D01*
X35575Y-30200D01*
X35650Y-30125D01*
X35650Y-30068D01*
X35665Y-30075D01*
X35875Y-30075D01*
X35950Y-30000D01*
X35950Y-34425D01*
X35654Y-34425D01*
X35654Y-32355D01*
X35644Y-32097D01*
X35564Y-31902D01*
X35449Y-31871D01*
X35070Y-32250D01*
X35449Y-32628D01*
X35564Y-32597D01*
X35654Y-32355D01*
X35654Y-34425D01*
X35575Y-34425D01*
X35575Y-33915D01*
X35529Y-33805D01*
X35445Y-33720D01*
X35378Y-33693D01*
X35334Y-33675D01*
X35215Y-33674D01*
X34665Y-33674D01*
X34575Y-33712D01*
X34575Y-32745D01*
X34621Y-32699D01*
X34652Y-32814D01*
X34894Y-32904D01*
X35152Y-32894D01*
X35347Y-32814D01*
X35378Y-32699D01*
X35000Y-32320D01*
X34994Y-32326D01*
X34923Y-32255D01*
X34929Y-32250D01*
X34923Y-32244D01*
X34994Y-32173D01*
X35000Y-32179D01*
X35378Y-31800D01*
X35376Y-31792D01*
X35550Y-31618D01*
X35649Y-31379D01*
X35650Y-31121D01*
X35551Y-30882D01*
X35521Y-30852D01*
X35604Y-30770D01*
X35649Y-30659D01*
X35650Y-30540D01*
X35650Y-30375D01*
X35575Y-30300D01*
X35050Y-30300D01*
X35050Y-30307D01*
X34950Y-30307D01*
X34950Y-30300D01*
X34942Y-30300D01*
X34942Y-30200D01*
X34950Y-30200D01*
X34950Y-30000D01*
X34950Y-29675D01*
X34950Y-29550D01*
X34942Y-29550D01*
X34942Y-29450D01*
X34950Y-29450D01*
X34950Y-29000D01*
X34875Y-28925D01*
X34665Y-28924D01*
X34575Y-28962D01*
X34575Y-27325D01*
X36558Y-27325D01*
X36525Y-27405D01*
X36524Y-27594D01*
X36589Y-27750D01*
X36525Y-27905D01*
X36524Y-28050D01*
X36445Y-27970D01*
X36334Y-27925D01*
X36215Y-27924D01*
X35665Y-27924D01*
X35555Y-27970D01*
X35470Y-28054D01*
X35425Y-28165D01*
X35424Y-28284D01*
X35424Y-28834D01*
X35470Y-28944D01*
X35525Y-29000D01*
X35500Y-29025D01*
X35444Y-28970D01*
X35334Y-28924D01*
X35125Y-28925D01*
X35050Y-29000D01*
X35050Y-29450D01*
X35500Y-29450D01*
X35950Y-29450D01*
X35950Y-29442D01*
X36050Y-29442D01*
X36050Y-29450D01*
X36057Y-29450D01*
X36057Y-29550D01*
X36050Y-29550D01*
X36050Y-30000D01*
X36125Y-30075D01*
X36334Y-30075D01*
X36444Y-30029D01*
X36529Y-29945D01*
X36574Y-29834D01*
X36575Y-29715D01*
X36575Y-29715D01*
X36597Y-29768D01*
X36730Y-29902D01*
X36905Y-29974D01*
X37094Y-29975D01*
X37250Y-29910D01*
X37405Y-29974D01*
X37594Y-29975D01*
X37750Y-29910D01*
X37905Y-29974D01*
X38094Y-29975D01*
X38250Y-29910D01*
X38405Y-29974D01*
X38594Y-29975D01*
X38750Y-29910D01*
X38905Y-29974D01*
X39094Y-29975D01*
X39268Y-29902D01*
X39402Y-29769D01*
X39474Y-29594D01*
X39475Y-29405D01*
X39410Y-29249D01*
X39474Y-29094D01*
X39475Y-28905D01*
X39410Y-28749D01*
X39474Y-28594D01*
X39475Y-28405D01*
X39410Y-28249D01*
X39474Y-28094D01*
X39475Y-27905D01*
X39410Y-27749D01*
X39474Y-27594D01*
X39475Y-27405D01*
X39441Y-27325D01*
X39701Y-27325D01*
X39670Y-27412D01*
X39680Y-27640D01*
X39748Y-27802D01*
X39854Y-27824D01*
X40179Y-27500D01*
X40173Y-27494D01*
X40244Y-27423D01*
X40250Y-27429D01*
X40255Y-27423D01*
X40326Y-27494D01*
X40320Y-27500D01*
X40645Y-27824D01*
X40751Y-27802D01*
X40829Y-27587D01*
X40819Y-27359D01*
X40804Y-27325D01*
X40951Y-27325D01*
X40920Y-27412D01*
X40930Y-27640D01*
X40998Y-27802D01*
X41104Y-27824D01*
X41429Y-27500D01*
X41423Y-27494D01*
X41494Y-27423D01*
X41500Y-27429D01*
X41505Y-27423D01*
X41576Y-27494D01*
X41570Y-27500D01*
X41576Y-27505D01*
X41505Y-27576D01*
X41500Y-27570D01*
X41175Y-27895D01*
X41197Y-28001D01*
X41412Y-28079D01*
X41640Y-28069D01*
X41675Y-28054D01*
X41675Y-29924D01*
X41165Y-29924D01*
X41055Y-29970D01*
X40970Y-30054D01*
X40925Y-30165D01*
X40924Y-30284D01*
X40924Y-30834D01*
X40970Y-30944D01*
X41054Y-31029D01*
X41165Y-31074D01*
X41284Y-31075D01*
X41675Y-31075D01*
X41675Y-31424D01*
X41165Y-31424D01*
X41055Y-31470D01*
X40970Y-31554D01*
X40925Y-31665D01*
X40924Y-31784D01*
X40924Y-32334D01*
X40970Y-32444D01*
X41054Y-32529D01*
X41165Y-32574D01*
X41284Y-32575D01*
X41675Y-32575D01*
X41675Y-32700D01*
X41675Y-32700D01*
G37*
G54D18*
X41675Y-32700D02*
X41614Y-32675D01*
X41386Y-32674D01*
X41174Y-32762D01*
X41012Y-32923D01*
X40925Y-33135D01*
X40924Y-33363D01*
X41012Y-33575D01*
X41173Y-33737D01*
X41198Y-33747D01*
X41197Y-33748D01*
X41175Y-33854D01*
X41500Y-34179D01*
X41505Y-34173D01*
X41576Y-34244D01*
X41570Y-34250D01*
X41576Y-34255D01*
X41505Y-34326D01*
X41500Y-34320D01*
X41494Y-34326D01*
X41423Y-34255D01*
X41429Y-34250D01*
X41104Y-33925D01*
X40998Y-33947D01*
X40920Y-34162D01*
X40930Y-34390D01*
X40945Y-34425D01*
X40825Y-34425D01*
X40825Y-30715D01*
X40825Y-30165D01*
X40779Y-30055D01*
X40695Y-29970D01*
X40584Y-29925D01*
X40574Y-29925D01*
X40574Y-27895D01*
X40250Y-27570D01*
X39925Y-27895D01*
X39947Y-28001D01*
X40162Y-28079D01*
X40390Y-28069D01*
X40552Y-28001D01*
X40574Y-27895D01*
X40574Y-29925D01*
X40465Y-29924D01*
X39915Y-29924D01*
X39805Y-29970D01*
X39720Y-30054D01*
X39675Y-30165D01*
X39674Y-30284D01*
X39674Y-30834D01*
X39720Y-30944D01*
X39804Y-31029D01*
X39915Y-31074D01*
X40034Y-31075D01*
X40584Y-31075D01*
X40694Y-31029D01*
X40779Y-30945D01*
X40824Y-30834D01*
X40825Y-30715D01*
X40825Y-34425D01*
X38299Y-34425D01*
X38324Y-34364D01*
X38325Y-34136D01*
X38237Y-33924D01*
X38076Y-33762D01*
X37864Y-33675D01*
X37636Y-33674D01*
X37424Y-33762D01*
X37309Y-33877D01*
X37279Y-33805D01*
X37195Y-33720D01*
X37084Y-33675D01*
X36965Y-33674D01*
X36415Y-33674D01*
X36305Y-33720D01*
X36220Y-33804D01*
X36175Y-33915D01*
X36174Y-34034D01*
X36174Y-34425D01*
X35950Y-34425D01*
X35950Y-30000D01*
X35950Y-29550D01*
X35500Y-29550D01*
X35050Y-29550D01*
X35050Y-29675D01*
X35050Y-30000D01*
X35050Y-30200D01*
X35575Y-30200D01*
X35650Y-30125D01*
X35650Y-30068D01*
X35665Y-30075D01*
X35875Y-30075D01*
X35950Y-30000D01*
X35950Y-34425D01*
X35654Y-34425D01*
X35654Y-32355D01*
X35644Y-32097D01*
X35564Y-31902D01*
X35449Y-31871D01*
X35070Y-32250D01*
X35449Y-32628D01*
X35564Y-32597D01*
X35654Y-32355D01*
X35654Y-34425D01*
X35575Y-34425D01*
X35575Y-33915D01*
X35529Y-33805D01*
X35445Y-33720D01*
X35378Y-33693D01*
X35334Y-33675D01*
X35215Y-33674D01*
X34665Y-33674D01*
X34575Y-33712D01*
X34575Y-32745D01*
X34621Y-32699D01*
X34652Y-32814D01*
X34894Y-32904D01*
X35152Y-32894D01*
X35347Y-32814D01*
X35378Y-32699D01*
X35000Y-32320D01*
X34994Y-32326D01*
X34923Y-32255D01*
X34929Y-32250D01*
X34923Y-32244D01*
X34994Y-32173D01*
X35000Y-32179D01*
X35378Y-31800D01*
X35376Y-31792D01*
X35550Y-31618D01*
X35649Y-31379D01*
X35650Y-31121D01*
X35551Y-30882D01*
X35521Y-30852D01*
X35604Y-30770D01*
X35649Y-30659D01*
X35650Y-30540D01*
X35650Y-30375D01*
X35575Y-30300D01*
X35050Y-30300D01*
X35050Y-30307D01*
X34950Y-30307D01*
X34950Y-30300D01*
X34942Y-30300D01*
X34942Y-30200D01*
X34950Y-30200D01*
X34950Y-30000D01*
X34950Y-29675D01*
X34950Y-29550D01*
X34942Y-29550D01*
X34942Y-29450D01*
X34950Y-29450D01*
X34950Y-29000D01*
X34875Y-28925D01*
X34665Y-28924D01*
X34575Y-28962D01*
X34575Y-27325D01*
X36558Y-27325D01*
X36525Y-27405D01*
X36524Y-27594D01*
X36589Y-27750D01*
X36525Y-27905D01*
X36524Y-28050D01*
X36445Y-27970D01*
X36334Y-27925D01*
X36215Y-27924D01*
X35665Y-27924D01*
X35555Y-27970D01*
X35470Y-28054D01*
X35425Y-28165D01*
X35424Y-28284D01*
X35424Y-28834D01*
X35470Y-28944D01*
X35525Y-29000D01*
X35500Y-29025D01*
X35444Y-28970D01*
X35334Y-28924D01*
X35125Y-28925D01*
X35050Y-29000D01*
X35050Y-29450D01*
X35500Y-29450D01*
X35950Y-29450D01*
X35950Y-29442D01*
X36050Y-29442D01*
X36050Y-29450D01*
X36057Y-29450D01*
X36057Y-29550D01*
X36050Y-29550D01*
X36050Y-30000D01*
X36125Y-30075D01*
X36334Y-30075D01*
X36444Y-30029D01*
X36529Y-29945D01*
X36574Y-29834D01*
X36575Y-29715D01*
X36575Y-29715D01*
X36597Y-29768D01*
X36730Y-29902D01*
X36905Y-29974D01*
X37094Y-29975D01*
X37250Y-29910D01*
X37405Y-29974D01*
X37594Y-29975D01*
X37750Y-29910D01*
X37905Y-29974D01*
X38094Y-29975D01*
X38250Y-29910D01*
X38405Y-29974D01*
X38594Y-29975D01*
X38750Y-29910D01*
X38905Y-29974D01*
X39094Y-29975D01*
X39268Y-29902D01*
X39402Y-29769D01*
X39474Y-29594D01*
X39475Y-29405D01*
X39410Y-29249D01*
X39474Y-29094D01*
X39475Y-28905D01*
X39410Y-28749D01*
X39474Y-28594D01*
X39475Y-28405D01*
X39410Y-28249D01*
X39474Y-28094D01*
X39475Y-27905D01*
X39410Y-27749D01*
X39474Y-27594D01*
X39475Y-27405D01*
X39441Y-27325D01*
X39701Y-27325D01*
X39670Y-27412D01*
X39680Y-27640D01*
X39748Y-27802D01*
X39854Y-27824D01*
X40179Y-27500D01*
X40173Y-27494D01*
X40244Y-27423D01*
X40250Y-27429D01*
X40255Y-27423D01*
X40326Y-27494D01*
X40320Y-27500D01*
X40645Y-27824D01*
X40751Y-27802D01*
X40829Y-27587D01*
X40819Y-27359D01*
X40804Y-27325D01*
X40951Y-27325D01*
X40920Y-27412D01*
X40930Y-27640D01*
X40998Y-27802D01*
X41104Y-27824D01*
X41429Y-27500D01*
X41423Y-27494D01*
X41494Y-27423D01*
X41500Y-27429D01*
X41505Y-27423D01*
X41576Y-27494D01*
X41570Y-27500D01*
X41576Y-27505D01*
X41505Y-27576D01*
X41500Y-27570D01*
X41175Y-27895D01*
X41197Y-28001D01*
X41412Y-28079D01*
X41640Y-28069D01*
X41675Y-28054D01*
X41675Y-29924D01*
X41165Y-29924D01*
X41055Y-29970D01*
X40970Y-30054D01*
X40925Y-30165D01*
X40924Y-30284D01*
X40924Y-30834D01*
X40970Y-30944D01*
X41054Y-31029D01*
X41165Y-31074D01*
X41284Y-31075D01*
X41675Y-31075D01*
X41675Y-31424D01*
X41165Y-31424D01*
X41055Y-31470D01*
X40970Y-31554D01*
X40925Y-31665D01*
X40924Y-31784D01*
X40924Y-32334D01*
X40970Y-32444D01*
X41054Y-32529D01*
X41165Y-32574D01*
X41284Y-32575D01*
X41675Y-32575D01*
X41675Y-32700D01*
M02*
