G04 (created by PCBNEW (2013-07-07 BZR 4022)-stable) date 31/03/2014 14:52:45*
%MOIN*%
G04 Gerber Fmt 3.4, Leading zero omitted, Abs format*
%FSLAX34Y34*%
G01*
G70*
G90*
G04 APERTURE LIST*
%ADD10C,0.00590551*%
%ADD11R,0.06X0.06*%
%ADD12C,0.06*%
%ADD13R,0.035X0.055*%
%ADD14R,0.055X0.035*%
%ADD15R,0.0177X0.059*%
%ADD16R,0.0394X0.0236*%
%ADD17R,0.05X0.025*%
%ADD18R,0.055X0.055*%
%ADD19C,0.055*%
%ADD20C,0.16*%
%ADD21R,0.0708661X0.0708661*%
%ADD22C,0.0708661*%
%ADD23R,0.065X0.016*%
%ADD24R,0.02X0.1*%
%ADD25R,0.0787402X0.11*%
%ADD26C,0.04*%
%ADD27R,0.03X0.06*%
%ADD28R,0.04X0.06*%
%ADD29R,0.06X0.08*%
%ADD30C,0.035*%
%ADD31C,0.11811*%
%ADD32R,0.02X0.045*%
%ADD33R,0.1X0.1*%
%ADD34C,0.1*%
%ADD35R,0.038X0.05*%
%ADD36R,0.0472X0.0472*%
%ADD37C,0.045*%
%ADD38R,0.0551X0.0236*%
%ADD39R,0.1X0.175*%
%ADD40R,0.06X0.03*%
G04 APERTURE END LIST*
G54D10*
G54D11*
X70000Y-71000D03*
G54D12*
X71000Y-71000D03*
X70000Y-72000D03*
X71000Y-72000D03*
X70000Y-73000D03*
X71000Y-73000D03*
X70000Y-74000D03*
X71000Y-74000D03*
G54D11*
X50000Y-60000D03*
G54D12*
X51000Y-60000D03*
X50000Y-61000D03*
X51000Y-61000D03*
X50000Y-62000D03*
X51000Y-62000D03*
X50000Y-63000D03*
X51000Y-63000D03*
X50000Y-64000D03*
X51000Y-64000D03*
G54D11*
X70000Y-60000D03*
G54D12*
X71000Y-60000D03*
G54D11*
X50000Y-64984D03*
G54D12*
X51000Y-64984D03*
X50000Y-65984D03*
X51000Y-65984D03*
X50000Y-66984D03*
X51000Y-66984D03*
X50000Y-67984D03*
X51000Y-67984D03*
X50000Y-68984D03*
X51000Y-68984D03*
X50000Y-69984D03*
X51000Y-69984D03*
X50000Y-70984D03*
X51000Y-70984D03*
X50000Y-71984D03*
X51000Y-71984D03*
X50000Y-72984D03*
X51000Y-72984D03*
X50000Y-73984D03*
X51000Y-73984D03*
G54D11*
X48000Y-73950D03*
G54D12*
X48000Y-72950D03*
X48000Y-71950D03*
X48000Y-70950D03*
X48000Y-70000D03*
X48000Y-68950D03*
G54D11*
X48000Y-68000D03*
G54D12*
X48000Y-67000D03*
X48000Y-66000D03*
X48000Y-65000D03*
X48000Y-64000D03*
X48000Y-63000D03*
G54D11*
X57525Y-74850D03*
G54D12*
X56525Y-74850D03*
X55525Y-74850D03*
X54525Y-74850D03*
X53525Y-74850D03*
X52525Y-74850D03*
G54D11*
X67725Y-71000D03*
G54D12*
X68725Y-71000D03*
G54D11*
X67700Y-73000D03*
G54D12*
X68700Y-73000D03*
G54D11*
X52274Y-67000D03*
G54D12*
X53274Y-67000D03*
G54D11*
X71000Y-75025D03*
G54D12*
X70000Y-75025D03*
X69000Y-75000D03*
X68000Y-75025D03*
X67000Y-75025D03*
X66000Y-75025D03*
G54D11*
X86050Y-66050D03*
G54D13*
X63241Y-70128D03*
X63991Y-70128D03*
X61041Y-72528D03*
X61791Y-72528D03*
G54D14*
X60416Y-69903D03*
X60416Y-69153D03*
X64716Y-74303D03*
X64716Y-73553D03*
X63666Y-73753D03*
X63666Y-73003D03*
G54D13*
X61691Y-73303D03*
X62441Y-73303D03*
G54D14*
X59716Y-74203D03*
X59716Y-73453D03*
X64716Y-72953D03*
X64716Y-72203D03*
X63666Y-72353D03*
X63666Y-71603D03*
X62666Y-72628D03*
X62666Y-71878D03*
X60416Y-73403D03*
X60416Y-72653D03*
G54D13*
X63991Y-70878D03*
X63241Y-70878D03*
X61041Y-71828D03*
X61791Y-71828D03*
G54D14*
X58825Y-69975D03*
X58825Y-69225D03*
X59716Y-69303D03*
X59716Y-70053D03*
G54D15*
X62691Y-68719D03*
X62441Y-68719D03*
X62191Y-68719D03*
X61941Y-68719D03*
X61691Y-68719D03*
X61441Y-68719D03*
X61191Y-68719D03*
X60941Y-68719D03*
X60941Y-70837D03*
X61191Y-70837D03*
X61441Y-70837D03*
X61691Y-70837D03*
X61941Y-70837D03*
X62191Y-70837D03*
X62441Y-70837D03*
X62691Y-70837D03*
G54D11*
X60716Y-74628D03*
G54D12*
X61716Y-74628D03*
X62716Y-74628D03*
X63716Y-74628D03*
G54D13*
X59741Y-70678D03*
X58991Y-70678D03*
G54D11*
X73750Y-37500D03*
G54D12*
X72750Y-37500D03*
X71750Y-37500D03*
G54D16*
X53166Y-42125D03*
X52334Y-41750D03*
X53166Y-41375D03*
X67666Y-42125D03*
X66834Y-41750D03*
X67666Y-41375D03*
X65666Y-42125D03*
X64834Y-41750D03*
X65666Y-41375D03*
X51166Y-42125D03*
X50334Y-41750D03*
X51166Y-41375D03*
X55166Y-42125D03*
X54334Y-41750D03*
X55166Y-41375D03*
X49166Y-42125D03*
X48334Y-41750D03*
X49166Y-41375D03*
X59166Y-42125D03*
X58334Y-41750D03*
X59166Y-41375D03*
X57166Y-42125D03*
X56334Y-41750D03*
X57166Y-41375D03*
X63666Y-42125D03*
X62834Y-41750D03*
X63666Y-41375D03*
X61666Y-42125D03*
X60834Y-41750D03*
X61666Y-41375D03*
G54D17*
X52850Y-48000D03*
X52850Y-47500D03*
X52850Y-47000D03*
X52850Y-46500D03*
X52850Y-46000D03*
X52850Y-45500D03*
X52850Y-45000D03*
X50650Y-45000D03*
X50650Y-45500D03*
X50650Y-46000D03*
X50650Y-46500D03*
X50650Y-47000D03*
X50650Y-47500D03*
X50650Y-48000D03*
X61100Y-48000D03*
X61100Y-47500D03*
X61100Y-47000D03*
X61100Y-46500D03*
X61100Y-46000D03*
X61100Y-45500D03*
X61100Y-45000D03*
X58900Y-45000D03*
X58900Y-45500D03*
X58900Y-46000D03*
X58900Y-46500D03*
X58900Y-47000D03*
X58900Y-47500D03*
X58900Y-48000D03*
X69350Y-48000D03*
X69350Y-47500D03*
X69350Y-47000D03*
X69350Y-46500D03*
X69350Y-46000D03*
X69350Y-45500D03*
X69350Y-45000D03*
X67150Y-45000D03*
X67150Y-45500D03*
X67150Y-46000D03*
X67150Y-46500D03*
X67150Y-47000D03*
X67150Y-47500D03*
X67150Y-48000D03*
G54D16*
X69666Y-42125D03*
X68834Y-41750D03*
X69666Y-41375D03*
X71666Y-42125D03*
X70834Y-41750D03*
X71666Y-41375D03*
G54D11*
X48750Y-57000D03*
X48750Y-56000D03*
G54D18*
X59500Y-37500D03*
G54D19*
X58500Y-37500D03*
G54D18*
X64750Y-49750D03*
G54D19*
X65750Y-49750D03*
G54D18*
X52000Y-59000D03*
G54D19*
X53000Y-59000D03*
G54D13*
X52125Y-48750D03*
X51375Y-48750D03*
X67875Y-48750D03*
X68625Y-48750D03*
X60375Y-48750D03*
X59625Y-48750D03*
X48625Y-47000D03*
X49375Y-47000D03*
X49375Y-48000D03*
X48625Y-48000D03*
X49125Y-38750D03*
X48375Y-38750D03*
X48625Y-46000D03*
X49375Y-46000D03*
X49375Y-45000D03*
X48625Y-45000D03*
X51125Y-38750D03*
X50375Y-38750D03*
X54875Y-46000D03*
X54125Y-46000D03*
X54125Y-45000D03*
X54875Y-45000D03*
X53125Y-38750D03*
X52375Y-38750D03*
X55125Y-38750D03*
X54375Y-38750D03*
X54125Y-48000D03*
X54875Y-48000D03*
X54875Y-47000D03*
X54125Y-47000D03*
G54D14*
X48250Y-43125D03*
X48250Y-43875D03*
X49250Y-39625D03*
X49250Y-40375D03*
X51250Y-43125D03*
X51250Y-43875D03*
X49250Y-43125D03*
X49250Y-43875D03*
X50250Y-43125D03*
X50250Y-43875D03*
X51250Y-39625D03*
X51250Y-40375D03*
X52250Y-43125D03*
X52250Y-43875D03*
X53250Y-39625D03*
X53250Y-40375D03*
X54250Y-43125D03*
X54250Y-43875D03*
X55250Y-39625D03*
X55250Y-40375D03*
G54D13*
X56875Y-47000D03*
X57625Y-47000D03*
G54D14*
X59250Y-39625D03*
X59250Y-40375D03*
X58250Y-43125D03*
X58250Y-43875D03*
X57250Y-39625D03*
X57250Y-40375D03*
X56250Y-43125D03*
X56250Y-43875D03*
X50250Y-39875D03*
X50250Y-40625D03*
X48250Y-39875D03*
X48250Y-40625D03*
G54D13*
X57125Y-38750D03*
X56375Y-38750D03*
X57625Y-48000D03*
X56875Y-48000D03*
X65125Y-47000D03*
X65875Y-47000D03*
X65875Y-48000D03*
X65125Y-48000D03*
X65625Y-38750D03*
X64875Y-38750D03*
X67625Y-38750D03*
X66875Y-38750D03*
X65875Y-45000D03*
X65125Y-45000D03*
X65125Y-46000D03*
X65875Y-46000D03*
G54D14*
X64750Y-43125D03*
X64750Y-43875D03*
X65750Y-43125D03*
X65750Y-43875D03*
X65750Y-39625D03*
X65750Y-40375D03*
X66750Y-43125D03*
X66750Y-43875D03*
X67750Y-43125D03*
X67750Y-43875D03*
X67750Y-39625D03*
X67750Y-40375D03*
X53250Y-43125D03*
X53250Y-43875D03*
X55250Y-43125D03*
X55250Y-43875D03*
X57250Y-43125D03*
X57250Y-43875D03*
X59250Y-43125D03*
X59250Y-43875D03*
G54D13*
X59375Y-38750D03*
X58625Y-38750D03*
G54D14*
X63750Y-43125D03*
X63750Y-43875D03*
X61750Y-43125D03*
X61750Y-43875D03*
G54D13*
X62375Y-45000D03*
X63125Y-45000D03*
X63125Y-46000D03*
X62375Y-46000D03*
G54D14*
X63750Y-39625D03*
X63750Y-40375D03*
X62750Y-43125D03*
X62750Y-43875D03*
X61750Y-39625D03*
X61750Y-40375D03*
X60750Y-43125D03*
X60750Y-43875D03*
G54D13*
X63125Y-47000D03*
X62375Y-47000D03*
X62375Y-48000D03*
X63125Y-48000D03*
X63625Y-38750D03*
X62875Y-38750D03*
X61625Y-38750D03*
X60875Y-38750D03*
G54D14*
X52250Y-39875D03*
X52250Y-40625D03*
X54250Y-39875D03*
X54250Y-40625D03*
X56250Y-39875D03*
X56250Y-40625D03*
X58250Y-39875D03*
X58250Y-40625D03*
X66750Y-39875D03*
X66750Y-40625D03*
X64750Y-39875D03*
X64750Y-40625D03*
X62750Y-39875D03*
X62750Y-40625D03*
X60750Y-39875D03*
X60750Y-40625D03*
G54D13*
X57625Y-45000D03*
X56875Y-45000D03*
X56875Y-46000D03*
X57625Y-46000D03*
X71375Y-46000D03*
X70625Y-46000D03*
X70625Y-45000D03*
X71375Y-45000D03*
X69625Y-38750D03*
X68875Y-38750D03*
X71625Y-38750D03*
X70875Y-38750D03*
X70625Y-48000D03*
X71375Y-48000D03*
X71375Y-47000D03*
X70625Y-47000D03*
G54D14*
X68750Y-43125D03*
X68750Y-43875D03*
X69750Y-43125D03*
X69750Y-43875D03*
X69750Y-39625D03*
X69750Y-40375D03*
X70750Y-43125D03*
X70750Y-43875D03*
X71750Y-43125D03*
X71750Y-43875D03*
X71750Y-39625D03*
X71750Y-40375D03*
X70750Y-39875D03*
X70750Y-40625D03*
X68750Y-39875D03*
X68750Y-40625D03*
G54D11*
X50000Y-49984D03*
G54D12*
X51000Y-49984D03*
X50000Y-50984D03*
X51000Y-50984D03*
X50000Y-51984D03*
X51000Y-51984D03*
X50000Y-52984D03*
X51000Y-52984D03*
X50000Y-53984D03*
X51000Y-53984D03*
X50000Y-54984D03*
X51000Y-54984D03*
X50000Y-55984D03*
X51000Y-55984D03*
X50000Y-56984D03*
X51000Y-56984D03*
X50000Y-57984D03*
X51000Y-57984D03*
X50000Y-58984D03*
X51000Y-58984D03*
G54D20*
X70250Y-37250D03*
X48500Y-58500D03*
X48500Y-37250D03*
G54D21*
X63500Y-36800D03*
G54D22*
X64500Y-36800D03*
X65500Y-36800D03*
X66500Y-36800D03*
X67500Y-36800D03*
X68500Y-36800D03*
G54D21*
X50900Y-36800D03*
G54D22*
X51900Y-36800D03*
X52900Y-36800D03*
X53900Y-36800D03*
X54900Y-36800D03*
X55900Y-36800D03*
G54D13*
X81275Y-71518D03*
X82025Y-71518D03*
G54D14*
X82750Y-71393D03*
X82750Y-70643D03*
G54D13*
X83525Y-71318D03*
X84275Y-71318D03*
X80475Y-70418D03*
X79725Y-70418D03*
X79699Y-69592D03*
X80449Y-69592D03*
X81275Y-70718D03*
X82025Y-70718D03*
X81225Y-72318D03*
X80475Y-72318D03*
G54D23*
X81433Y-68090D03*
X81433Y-68346D03*
X81433Y-68602D03*
X81433Y-68858D03*
X84267Y-67322D03*
X81433Y-67322D03*
X81433Y-67578D03*
X81433Y-67834D03*
X84267Y-69114D03*
X84267Y-68858D03*
X84267Y-68602D03*
X84267Y-68346D03*
X84267Y-68090D03*
X84267Y-67834D03*
X81433Y-69114D03*
X84267Y-67578D03*
X84267Y-67066D03*
X84267Y-66811D03*
X84267Y-66555D03*
X81433Y-66555D03*
X81433Y-66811D03*
X81433Y-67066D03*
X81433Y-69370D03*
X81433Y-69625D03*
X81433Y-69881D03*
X84267Y-69881D03*
X84267Y-69625D03*
X84267Y-69370D03*
G54D11*
X70000Y-60984D03*
G54D12*
X71000Y-60984D03*
X70000Y-61984D03*
X71000Y-61984D03*
X70000Y-62984D03*
X71000Y-62984D03*
X70000Y-63984D03*
X71000Y-63984D03*
X70000Y-64984D03*
X71000Y-64984D03*
X70000Y-65984D03*
X71000Y-65984D03*
X70000Y-66984D03*
X71000Y-66984D03*
X70000Y-67984D03*
X71000Y-67984D03*
X70000Y-68984D03*
X71000Y-68984D03*
X70000Y-69984D03*
X71000Y-69984D03*
G54D11*
X75050Y-66918D03*
G54D12*
X75050Y-65918D03*
X76050Y-66918D03*
X76050Y-65918D03*
X77050Y-66918D03*
X77050Y-65918D03*
X78050Y-66918D03*
X78050Y-65918D03*
X79050Y-66918D03*
X79050Y-65918D03*
G54D11*
X67969Y-60344D03*
G54D13*
X79100Y-72092D03*
X78350Y-72092D03*
G54D14*
X78125Y-69543D03*
X78125Y-68793D03*
G54D24*
X83270Y-72468D03*
X83585Y-72468D03*
X83900Y-72468D03*
X84214Y-72468D03*
X84529Y-72468D03*
G54D25*
X82128Y-74749D03*
X85671Y-74749D03*
X82128Y-72583D03*
X85671Y-72583D03*
G54D26*
X83050Y-73568D03*
X84750Y-73568D03*
G54D27*
X75832Y-70018D03*
X75399Y-70018D03*
X74966Y-70018D03*
X74533Y-70018D03*
X74100Y-70018D03*
X73666Y-70018D03*
X73233Y-70018D03*
X72800Y-70018D03*
X72367Y-70018D03*
G54D28*
X71837Y-70254D03*
G54D29*
X71974Y-74101D03*
X78037Y-74101D03*
G54D11*
X77714Y-70172D03*
G54D30*
X73076Y-74309D03*
X76225Y-74309D03*
G54D31*
X80500Y-73492D03*
X86000Y-67650D03*
G54D22*
X85750Y-58584D03*
X85750Y-57206D03*
G54D21*
X85750Y-37915D03*
G54D22*
X85750Y-39293D03*
X85750Y-40671D03*
X85750Y-42049D03*
X85750Y-43427D03*
X85750Y-44805D03*
X85750Y-46183D03*
X85750Y-47561D03*
X85750Y-48938D03*
X85750Y-50316D03*
X85750Y-51694D03*
X85750Y-53072D03*
X85750Y-54450D03*
X85750Y-55828D03*
G54D11*
X70000Y-49984D03*
G54D12*
X71000Y-49984D03*
X70000Y-50984D03*
X71000Y-50984D03*
X70000Y-51984D03*
X71000Y-51984D03*
X70000Y-52984D03*
X71000Y-52984D03*
X70000Y-53984D03*
X71000Y-53984D03*
X70000Y-54984D03*
X71000Y-54984D03*
X70000Y-55984D03*
X71000Y-55984D03*
X70000Y-56984D03*
X71000Y-56984D03*
X70000Y-57984D03*
X71000Y-57984D03*
X70000Y-58984D03*
X71000Y-58984D03*
G54D14*
X74225Y-40475D03*
X74225Y-41225D03*
X74225Y-42075D03*
X74225Y-42825D03*
X74225Y-43475D03*
X74225Y-44225D03*
X74225Y-45075D03*
X74225Y-45825D03*
X74225Y-46475D03*
X74225Y-47225D03*
X74225Y-48075D03*
X74225Y-48825D03*
G54D18*
X81474Y-53100D03*
G54D19*
X81474Y-54100D03*
G54D18*
X81474Y-44100D03*
G54D19*
X81474Y-45100D03*
G54D18*
X82474Y-52850D03*
G54D19*
X82474Y-51850D03*
G54D18*
X82474Y-43850D03*
G54D19*
X82474Y-42850D03*
G54D18*
X81525Y-50050D03*
G54D19*
X81525Y-51050D03*
G54D18*
X82474Y-39850D03*
G54D19*
X82474Y-40850D03*
G54D14*
X75025Y-47225D03*
X75025Y-46475D03*
X75025Y-48825D03*
X75025Y-48075D03*
X75025Y-44225D03*
X75025Y-43475D03*
X75025Y-45825D03*
X75025Y-45075D03*
X75025Y-42825D03*
X75025Y-42075D03*
X75025Y-41225D03*
X75025Y-40475D03*
G54D32*
X77275Y-48750D03*
X77275Y-46650D03*
X76775Y-48750D03*
X76275Y-48750D03*
X75775Y-48750D03*
X76775Y-46650D03*
X76275Y-46650D03*
X75775Y-46650D03*
X79775Y-49750D03*
X79775Y-47650D03*
X79275Y-49750D03*
X78775Y-49750D03*
X78275Y-49750D03*
X79275Y-47650D03*
X78775Y-47650D03*
X78275Y-47650D03*
X77275Y-45750D03*
X77275Y-43650D03*
X76775Y-45750D03*
X76275Y-45750D03*
X75775Y-45750D03*
X76775Y-43650D03*
X76275Y-43650D03*
X75775Y-43650D03*
X79775Y-43750D03*
X79775Y-41650D03*
X79275Y-43750D03*
X78775Y-43750D03*
X78275Y-43750D03*
X79275Y-41650D03*
X78775Y-41650D03*
X78275Y-41650D03*
X77275Y-42750D03*
X77275Y-40650D03*
X76775Y-42750D03*
X76275Y-42750D03*
X75775Y-42750D03*
X76775Y-40650D03*
X76275Y-40650D03*
X75775Y-40650D03*
X79775Y-46750D03*
X79775Y-44650D03*
X79275Y-46750D03*
X78775Y-46750D03*
X78275Y-46750D03*
X79275Y-44650D03*
X78775Y-44650D03*
X78275Y-44650D03*
X77275Y-54750D03*
X77275Y-52650D03*
X76775Y-54750D03*
X76275Y-54750D03*
X75775Y-54750D03*
X76775Y-52650D03*
X76275Y-52650D03*
X75775Y-52650D03*
X79775Y-58750D03*
X79775Y-56650D03*
X79275Y-58750D03*
X78775Y-58750D03*
X78275Y-58750D03*
X79275Y-56650D03*
X78775Y-56650D03*
X78275Y-56650D03*
X77275Y-57750D03*
X77275Y-55650D03*
X76775Y-57750D03*
X76275Y-57750D03*
X75775Y-57750D03*
X76775Y-55650D03*
X76275Y-55650D03*
X75775Y-55650D03*
X79775Y-55750D03*
X79775Y-53650D03*
X79275Y-55750D03*
X78775Y-55750D03*
X78275Y-55750D03*
X79275Y-53650D03*
X78775Y-53650D03*
X78275Y-53650D03*
X77275Y-51750D03*
X77275Y-49650D03*
X76775Y-51750D03*
X76275Y-51750D03*
X75775Y-51750D03*
X76775Y-49650D03*
X76275Y-49650D03*
X75775Y-49650D03*
X79775Y-52750D03*
X79775Y-50650D03*
X79275Y-52750D03*
X78775Y-52750D03*
X78275Y-52750D03*
X79275Y-50650D03*
X78775Y-50650D03*
X78275Y-50650D03*
G54D14*
X75025Y-57825D03*
X75025Y-57075D03*
X75025Y-56225D03*
X75025Y-55475D03*
X75025Y-53225D03*
X75025Y-52475D03*
X75025Y-54825D03*
X75025Y-54075D03*
X75025Y-50225D03*
X75025Y-49475D03*
X75025Y-51825D03*
X75025Y-51075D03*
G54D33*
X79425Y-37775D03*
G54D34*
X77425Y-37775D03*
X75425Y-37775D03*
G54D35*
X79610Y-39740D03*
X80900Y-39740D03*
G54D13*
X78125Y-39750D03*
X78875Y-39750D03*
G54D36*
X78837Y-40500D03*
X79663Y-40500D03*
G54D18*
X82474Y-46850D03*
G54D19*
X82474Y-45850D03*
G54D18*
X82474Y-55850D03*
G54D19*
X82474Y-54850D03*
G54D18*
X81525Y-47050D03*
G54D19*
X81525Y-48050D03*
G54D18*
X81474Y-56100D03*
G54D19*
X81474Y-57100D03*
G54D18*
X82474Y-49850D03*
G54D19*
X82474Y-48850D03*
G54D18*
X82474Y-58850D03*
G54D19*
X82474Y-57850D03*
G54D18*
X81525Y-39750D03*
G54D19*
X81500Y-38750D03*
G54D18*
X82474Y-41850D03*
G54D19*
X81474Y-41850D03*
G54D14*
X74225Y-49475D03*
X74225Y-50225D03*
X74225Y-51075D03*
X74225Y-51825D03*
X74225Y-52475D03*
X74225Y-53225D03*
X74225Y-54075D03*
X74225Y-54825D03*
X74225Y-55475D03*
X74225Y-56225D03*
X74225Y-57075D03*
X74225Y-57825D03*
G54D37*
X69500Y-53500D03*
X71500Y-52500D03*
G54D20*
X83000Y-37500D03*
G54D14*
X53337Y-70131D03*
X53337Y-70881D03*
X52512Y-70856D03*
X52512Y-70106D03*
X55737Y-70931D03*
X55737Y-70181D03*
G54D11*
X57688Y-71456D03*
G54D12*
X57688Y-72456D03*
G54D38*
X54687Y-71756D03*
X52587Y-71756D03*
X54687Y-72256D03*
X54687Y-72756D03*
X54687Y-73256D03*
X52587Y-72256D03*
X52587Y-72756D03*
X52587Y-73256D03*
G54D18*
X56712Y-70281D03*
G54D19*
X57712Y-70281D03*
G54D14*
X56812Y-71531D03*
X56812Y-72281D03*
G54D31*
X57637Y-66837D03*
X56062Y-73331D03*
G54D39*
X75500Y-62250D03*
G54D40*
X76475Y-63000D03*
X76475Y-62500D03*
X76475Y-62000D03*
X76475Y-61500D03*
X74525Y-63000D03*
X74525Y-62500D03*
X74525Y-62000D03*
X74525Y-61500D03*
G54D39*
X80650Y-64100D03*
G54D40*
X81625Y-64850D03*
X81625Y-64350D03*
X81625Y-63850D03*
X81625Y-63350D03*
X79675Y-64850D03*
X79675Y-64350D03*
X79675Y-63850D03*
X79675Y-63350D03*
G54D39*
X80650Y-60400D03*
G54D40*
X81625Y-61150D03*
X81625Y-60650D03*
X81625Y-60150D03*
X81625Y-59650D03*
X79675Y-61150D03*
X79675Y-60650D03*
X79675Y-60150D03*
X79675Y-59650D03*
G54D14*
X77700Y-64125D03*
X77700Y-63375D03*
G54D13*
X78375Y-62650D03*
X77625Y-62650D03*
G54D14*
X82750Y-62650D03*
X82750Y-63400D03*
X82725Y-61100D03*
X82725Y-61850D03*
G54D13*
X84200Y-61750D03*
X83450Y-61750D03*
X80275Y-62750D03*
X81025Y-62750D03*
X84225Y-60400D03*
X83475Y-60400D03*
G54D14*
X82750Y-59725D03*
X82750Y-60475D03*
G54D13*
X78375Y-61850D03*
X77625Y-61850D03*
G54D14*
X77750Y-60375D03*
X77750Y-61125D03*
G54D13*
X80275Y-61750D03*
X81025Y-61750D03*
X84225Y-63400D03*
X83475Y-63400D03*
X75125Y-63650D03*
X75875Y-63650D03*
X84225Y-64750D03*
X83475Y-64750D03*
G54D14*
X82750Y-64075D03*
X82750Y-64825D03*
G54D21*
X86000Y-60000D03*
G54D22*
X86000Y-61000D03*
X86000Y-62000D03*
X86000Y-63000D03*
X86000Y-64000D03*
X86000Y-65000D03*
G54D36*
X78450Y-64163D03*
X78450Y-63337D03*
X83487Y-62725D03*
X84313Y-62725D03*
X83437Y-61075D03*
X84263Y-61075D03*
X83437Y-59750D03*
X84263Y-59750D03*
X83437Y-64100D03*
X84263Y-64100D03*
X78450Y-60337D03*
X78450Y-61163D03*
G54D18*
X73500Y-59950D03*
G54D19*
X72500Y-59950D03*
G54D18*
X75500Y-59950D03*
G54D19*
X74500Y-59950D03*
M02*
