M48
;DRILL file {Pcbnew (2013-07-07 BZR 4022)-stable} date 27/01/2015 12:48:57
;FORMAT={-:-/ absolute / inch / decimal}
FMAT,2
INCH,TZ
T1C0.015
T2C0.032
T3C0.052
T4C0.070
T5C0.076
T6C0.120
%
G90
G05
M72
T1
X4.125Y-3.075
X4.215Y-2.6
X4.259Y-2.616
T2
X3.85Y-2.4
X4.075Y-2.375
X4.075Y-2.9
X4.175Y-2.375
X4.175Y-2.9
X4.275Y-2.375
X4.375Y-2.375
T3
X4.027Y-3.075
X4.224Y-3.075
T4
X3.814Y-3.3507
X3.8573Y-2.8193
X4.3927Y-2.8193
X4.436Y-3.3507
T5
X3.8015Y-2.937
X3.8015Y-3.213
X3.9985Y-2.937
X3.9985Y-3.213
X4.2515Y-2.937
X4.2515Y-3.213
X4.4485Y-2.937
X4.4485Y-3.213
T6
X3.8928Y-2.5707
X4.365Y-2.565
T0
M30
