G04 (created by PCBNEW (2013-07-07 BZR 4022)-stable) date 27/01/2015 12:48:55*
%MOIN*%
G04 Gerber Fmt 3.4, Leading zero omitted, Abs format*
%FSLAX34Y34*%
G01*
G70*
G90*
G04 APERTURE LIST*
%ADD10C,0.00590551*%
%ADD11C,0.005*%
%ADD12C,0.012*%
%ADD13C,0.0039*%
%ADD14C,0.0043*%
G04 APERTURE END LIST*
G54D10*
G54D11*
X43859Y-33021D02*
X43859Y-32721D01*
X43773Y-33021D02*
X43773Y-32864D01*
X43783Y-32835D01*
X43802Y-32821D01*
X43830Y-32821D01*
X43850Y-32835D01*
X43859Y-32850D01*
X43707Y-32821D02*
X43630Y-32821D01*
X43678Y-32721D02*
X43678Y-32978D01*
X43669Y-33007D01*
X43650Y-33021D01*
X43630Y-33021D01*
X43592Y-32821D02*
X43516Y-32821D01*
X43564Y-32721D02*
X43564Y-32978D01*
X43554Y-33007D01*
X43535Y-33021D01*
X43516Y-33021D01*
X43450Y-32821D02*
X43450Y-33121D01*
X43450Y-32835D02*
X43430Y-32821D01*
X43392Y-32821D01*
X43373Y-32835D01*
X43364Y-32850D01*
X43354Y-32878D01*
X43354Y-32964D01*
X43364Y-32992D01*
X43373Y-33007D01*
X43392Y-33021D01*
X43430Y-33021D01*
X43450Y-33007D01*
X43269Y-32992D02*
X43259Y-33007D01*
X43269Y-33021D01*
X43278Y-33007D01*
X43269Y-32992D01*
X43269Y-33021D01*
X43269Y-32835D02*
X43259Y-32850D01*
X43269Y-32864D01*
X43278Y-32850D01*
X43269Y-32835D01*
X43269Y-32864D01*
X43030Y-32707D02*
X43202Y-33092D01*
X42821Y-32707D02*
X42992Y-33092D01*
X42669Y-33007D02*
X42688Y-33021D01*
X42726Y-33021D01*
X42745Y-33007D01*
X42754Y-32992D01*
X42764Y-32964D01*
X42764Y-32878D01*
X42754Y-32850D01*
X42745Y-32835D01*
X42726Y-32821D01*
X42688Y-32821D01*
X42669Y-32835D01*
X42554Y-33021D02*
X42573Y-33007D01*
X42583Y-32992D01*
X42592Y-32964D01*
X42592Y-32878D01*
X42583Y-32850D01*
X42573Y-32835D01*
X42554Y-32821D01*
X42526Y-32821D01*
X42507Y-32835D01*
X42497Y-32850D01*
X42488Y-32878D01*
X42488Y-32964D01*
X42497Y-32992D01*
X42507Y-33007D01*
X42526Y-33021D01*
X42554Y-33021D01*
X42316Y-33021D02*
X42316Y-32721D01*
X42316Y-33007D02*
X42335Y-33021D01*
X42373Y-33021D01*
X42392Y-33007D01*
X42402Y-32992D01*
X42411Y-32964D01*
X42411Y-32878D01*
X42402Y-32850D01*
X42392Y-32835D01*
X42373Y-32821D01*
X42335Y-32821D01*
X42316Y-32835D01*
X42145Y-33007D02*
X42164Y-33021D01*
X42202Y-33021D01*
X42221Y-33007D01*
X42230Y-32978D01*
X42230Y-32864D01*
X42221Y-32835D01*
X42202Y-32821D01*
X42164Y-32821D01*
X42145Y-32835D01*
X42135Y-32864D01*
X42135Y-32892D01*
X42230Y-32921D01*
X42050Y-32992D02*
X42040Y-33007D01*
X42050Y-33021D01*
X42059Y-33007D01*
X42050Y-32992D01*
X42050Y-33021D01*
X41869Y-32821D02*
X41869Y-33064D01*
X41878Y-33092D01*
X41888Y-33107D01*
X41907Y-33121D01*
X41935Y-33121D01*
X41954Y-33107D01*
X41869Y-33007D02*
X41888Y-33021D01*
X41926Y-33021D01*
X41945Y-33007D01*
X41954Y-32992D01*
X41964Y-32964D01*
X41964Y-32878D01*
X41954Y-32850D01*
X41945Y-32835D01*
X41926Y-32821D01*
X41888Y-32821D01*
X41869Y-32835D01*
X41745Y-33021D02*
X41764Y-33007D01*
X41773Y-32992D01*
X41783Y-32964D01*
X41783Y-32878D01*
X41773Y-32850D01*
X41764Y-32835D01*
X41745Y-32821D01*
X41716Y-32821D01*
X41697Y-32835D01*
X41688Y-32850D01*
X41678Y-32878D01*
X41678Y-32964D01*
X41688Y-32992D01*
X41697Y-33007D01*
X41716Y-33021D01*
X41745Y-33021D01*
X41564Y-33021D02*
X41583Y-33007D01*
X41592Y-32992D01*
X41602Y-32964D01*
X41602Y-32878D01*
X41592Y-32850D01*
X41583Y-32835D01*
X41564Y-32821D01*
X41535Y-32821D01*
X41516Y-32835D01*
X41507Y-32850D01*
X41497Y-32878D01*
X41497Y-32964D01*
X41507Y-32992D01*
X41516Y-33007D01*
X41535Y-33021D01*
X41564Y-33021D01*
X41326Y-32821D02*
X41326Y-33064D01*
X41335Y-33092D01*
X41345Y-33107D01*
X41364Y-33121D01*
X41392Y-33121D01*
X41411Y-33107D01*
X41326Y-33007D02*
X41345Y-33021D01*
X41383Y-33021D01*
X41402Y-33007D01*
X41411Y-32992D01*
X41421Y-32964D01*
X41421Y-32878D01*
X41411Y-32850D01*
X41402Y-32835D01*
X41383Y-32821D01*
X41345Y-32821D01*
X41326Y-32835D01*
X41202Y-33021D02*
X41221Y-33007D01*
X41230Y-32978D01*
X41230Y-32721D01*
X41050Y-33007D02*
X41069Y-33021D01*
X41107Y-33021D01*
X41126Y-33007D01*
X41135Y-32978D01*
X41135Y-32864D01*
X41126Y-32835D01*
X41107Y-32821D01*
X41069Y-32821D01*
X41050Y-32835D01*
X41040Y-32864D01*
X41040Y-32892D01*
X41135Y-32921D01*
X40954Y-32992D02*
X40945Y-33007D01*
X40954Y-33021D01*
X40964Y-33007D01*
X40954Y-32992D01*
X40954Y-33021D01*
X40773Y-33007D02*
X40792Y-33021D01*
X40830Y-33021D01*
X40849Y-33007D01*
X40859Y-32992D01*
X40869Y-32964D01*
X40869Y-32878D01*
X40859Y-32850D01*
X40849Y-32835D01*
X40830Y-32821D01*
X40792Y-32821D01*
X40773Y-32835D01*
X40659Y-33021D02*
X40678Y-33007D01*
X40688Y-32992D01*
X40697Y-32964D01*
X40697Y-32878D01*
X40688Y-32850D01*
X40678Y-32835D01*
X40659Y-32821D01*
X40630Y-32821D01*
X40611Y-32835D01*
X40602Y-32850D01*
X40592Y-32878D01*
X40592Y-32964D01*
X40602Y-32992D01*
X40611Y-33007D01*
X40630Y-33021D01*
X40659Y-33021D01*
X40507Y-33021D02*
X40507Y-32821D01*
X40507Y-32850D02*
X40497Y-32835D01*
X40478Y-32821D01*
X40449Y-32821D01*
X40430Y-32835D01*
X40421Y-32864D01*
X40421Y-33021D01*
X40421Y-32864D02*
X40411Y-32835D01*
X40392Y-32821D01*
X40364Y-32821D01*
X40345Y-32835D01*
X40335Y-32864D01*
X40335Y-33021D01*
X40097Y-32707D02*
X40269Y-33092D01*
X40030Y-32821D02*
X40030Y-33121D01*
X40030Y-32835D02*
X40011Y-32821D01*
X39973Y-32821D01*
X39954Y-32835D01*
X39945Y-32850D01*
X39935Y-32878D01*
X39935Y-32964D01*
X39945Y-32992D01*
X39954Y-33007D01*
X39973Y-33021D01*
X40011Y-33021D01*
X40030Y-33007D01*
X39707Y-32707D02*
X39878Y-33092D01*
X39554Y-33021D02*
X39554Y-32721D01*
X39554Y-33007D02*
X39573Y-33021D01*
X39611Y-33021D01*
X39630Y-33007D01*
X39640Y-32992D01*
X39650Y-32964D01*
X39650Y-32878D01*
X39640Y-32850D01*
X39630Y-32835D01*
X39611Y-32821D01*
X39573Y-32821D01*
X39554Y-32835D01*
X39373Y-33021D02*
X39373Y-32864D01*
X39383Y-32835D01*
X39402Y-32821D01*
X39440Y-32821D01*
X39459Y-32835D01*
X39373Y-33007D02*
X39392Y-33021D01*
X39440Y-33021D01*
X39459Y-33007D01*
X39469Y-32978D01*
X39469Y-32950D01*
X39459Y-32921D01*
X39440Y-32907D01*
X39392Y-32907D01*
X39373Y-32892D01*
X39202Y-33007D02*
X39221Y-33021D01*
X39259Y-33021D01*
X39278Y-33007D01*
X39288Y-32978D01*
X39288Y-32864D01*
X39278Y-32835D01*
X39259Y-32821D01*
X39221Y-32821D01*
X39202Y-32835D01*
X39192Y-32864D01*
X39192Y-32892D01*
X39288Y-32921D01*
X39021Y-33007D02*
X39040Y-33021D01*
X39078Y-33021D01*
X39097Y-33007D01*
X39107Y-32992D01*
X39116Y-32964D01*
X39116Y-32878D01*
X39107Y-32850D01*
X39097Y-32835D01*
X39078Y-32821D01*
X39040Y-32821D01*
X39021Y-32835D01*
X38849Y-32821D02*
X38849Y-33021D01*
X38935Y-32821D02*
X38935Y-32978D01*
X38926Y-33007D01*
X38907Y-33021D01*
X38878Y-33021D01*
X38859Y-33007D01*
X38849Y-32992D01*
X38611Y-32707D02*
X38783Y-33092D01*
X42692Y-33291D02*
X42616Y-33291D01*
X42664Y-33491D02*
X42664Y-33234D01*
X42654Y-33205D01*
X42635Y-33191D01*
X42616Y-33191D01*
X42521Y-33491D02*
X42540Y-33477D01*
X42550Y-33462D01*
X42559Y-33434D01*
X42559Y-33348D01*
X42550Y-33320D01*
X42540Y-33305D01*
X42521Y-33291D01*
X42492Y-33291D01*
X42473Y-33305D01*
X42464Y-33320D01*
X42454Y-33348D01*
X42454Y-33434D01*
X42464Y-33462D01*
X42473Y-33477D01*
X42492Y-33491D01*
X42521Y-33491D01*
X42369Y-33491D02*
X42369Y-33291D01*
X42369Y-33348D02*
X42359Y-33320D01*
X42350Y-33305D01*
X42330Y-33291D01*
X42311Y-33291D01*
X42092Y-33491D02*
X42092Y-33291D01*
X42092Y-33348D02*
X42083Y-33320D01*
X42073Y-33305D01*
X42054Y-33291D01*
X42035Y-33291D01*
X41883Y-33291D02*
X41883Y-33491D01*
X41969Y-33291D02*
X41969Y-33448D01*
X41959Y-33477D01*
X41940Y-33491D01*
X41911Y-33491D01*
X41892Y-33477D01*
X41883Y-33462D01*
X41797Y-33477D02*
X41778Y-33491D01*
X41740Y-33491D01*
X41721Y-33477D01*
X41711Y-33448D01*
X41711Y-33434D01*
X41721Y-33405D01*
X41740Y-33391D01*
X41769Y-33391D01*
X41788Y-33377D01*
X41797Y-33348D01*
X41797Y-33334D01*
X41788Y-33305D01*
X41769Y-33291D01*
X41740Y-33291D01*
X41721Y-33305D01*
X41626Y-33334D02*
X41559Y-33334D01*
X41530Y-33491D02*
X41626Y-33491D01*
X41626Y-33191D01*
X41530Y-33191D01*
X41378Y-33334D02*
X41445Y-33334D01*
X41445Y-33491D02*
X41445Y-33191D01*
X41350Y-33191D01*
X41273Y-33491D02*
X41273Y-33191D01*
X40454Y-33491D02*
X40521Y-33348D01*
X40569Y-33491D02*
X40569Y-33191D01*
X40492Y-33191D01*
X40473Y-33205D01*
X40464Y-33220D01*
X40454Y-33248D01*
X40454Y-33291D01*
X40464Y-33320D01*
X40473Y-33334D01*
X40492Y-33348D01*
X40569Y-33348D01*
X40178Y-33191D02*
X40159Y-33191D01*
X40140Y-33205D01*
X40130Y-33220D01*
X40121Y-33248D01*
X40111Y-33305D01*
X40111Y-33377D01*
X40121Y-33434D01*
X40130Y-33462D01*
X40140Y-33477D01*
X40159Y-33491D01*
X40178Y-33491D01*
X40197Y-33477D01*
X40207Y-33462D01*
X40216Y-33434D01*
X40226Y-33377D01*
X40226Y-33305D01*
X40216Y-33248D01*
X40207Y-33220D01*
X40197Y-33205D01*
X40178Y-33191D01*
X40026Y-33462D02*
X40016Y-33477D01*
X40026Y-33491D01*
X40035Y-33477D01*
X40026Y-33462D01*
X40026Y-33491D01*
X39940Y-33220D02*
X39930Y-33205D01*
X39911Y-33191D01*
X39864Y-33191D01*
X39845Y-33205D01*
X39835Y-33220D01*
X39826Y-33248D01*
X39826Y-33277D01*
X39835Y-33320D01*
X39949Y-33491D01*
X39826Y-33491D01*
X40309Y-24278D02*
X40309Y-24578D01*
X40376Y-24364D01*
X40442Y-24578D01*
X40442Y-24278D01*
X40538Y-24278D02*
X40538Y-24578D01*
X40623Y-24292D02*
X40652Y-24278D01*
X40699Y-24278D01*
X40719Y-24292D01*
X40728Y-24307D01*
X40738Y-24335D01*
X40738Y-24364D01*
X40728Y-24392D01*
X40719Y-24407D01*
X40699Y-24421D01*
X40661Y-24435D01*
X40642Y-24450D01*
X40633Y-24464D01*
X40623Y-24492D01*
X40623Y-24521D01*
X40633Y-24550D01*
X40642Y-24564D01*
X40661Y-24578D01*
X40709Y-24578D01*
X40738Y-24564D01*
X40861Y-24578D02*
X40899Y-24578D01*
X40919Y-24564D01*
X40938Y-24535D01*
X40947Y-24478D01*
X40947Y-24378D01*
X40938Y-24321D01*
X40919Y-24292D01*
X40899Y-24278D01*
X40861Y-24278D01*
X40842Y-24292D01*
X40823Y-24321D01*
X40814Y-24378D01*
X40814Y-24478D01*
X40823Y-24535D01*
X40842Y-24564D01*
X40861Y-24578D01*
X41757Y-24307D02*
X41747Y-24292D01*
X41719Y-24278D01*
X41699Y-24278D01*
X41671Y-24292D01*
X41652Y-24321D01*
X41642Y-24350D01*
X41633Y-24407D01*
X41633Y-24450D01*
X41642Y-24507D01*
X41652Y-24535D01*
X41671Y-24564D01*
X41699Y-24578D01*
X41719Y-24578D01*
X41747Y-24564D01*
X41757Y-24550D01*
X41833Y-24292D02*
X41861Y-24278D01*
X41909Y-24278D01*
X41928Y-24292D01*
X41938Y-24307D01*
X41947Y-24335D01*
X41947Y-24364D01*
X41938Y-24392D01*
X41928Y-24407D01*
X41909Y-24421D01*
X41871Y-24435D01*
X41852Y-24450D01*
X41842Y-24464D01*
X41833Y-24492D01*
X41833Y-24521D01*
X41842Y-24550D01*
X41852Y-24564D01*
X41871Y-24578D01*
X41919Y-24578D01*
X41947Y-24564D01*
X42480Y-24292D02*
X42509Y-24278D01*
X42557Y-24278D01*
X42576Y-24292D01*
X42585Y-24307D01*
X42595Y-24335D01*
X42595Y-24364D01*
X42585Y-24392D01*
X42576Y-24407D01*
X42557Y-24421D01*
X42519Y-24435D01*
X42500Y-24450D01*
X42490Y-24464D01*
X42480Y-24492D01*
X42480Y-24521D01*
X42490Y-24550D01*
X42500Y-24564D01*
X42519Y-24578D01*
X42566Y-24578D01*
X42595Y-24564D01*
X42795Y-24307D02*
X42785Y-24292D01*
X42757Y-24278D01*
X42738Y-24278D01*
X42709Y-24292D01*
X42690Y-24321D01*
X42680Y-24350D01*
X42671Y-24407D01*
X42671Y-24450D01*
X42680Y-24507D01*
X42690Y-24535D01*
X42709Y-24564D01*
X42738Y-24578D01*
X42757Y-24578D01*
X42785Y-24564D01*
X42795Y-24550D01*
X42880Y-24278D02*
X42880Y-24578D01*
X42995Y-24278D02*
X42909Y-24450D01*
X42995Y-24578D02*
X42880Y-24407D01*
X43519Y-24578D02*
X43642Y-24578D01*
X43576Y-24464D01*
X43604Y-24464D01*
X43623Y-24450D01*
X43633Y-24435D01*
X43642Y-24407D01*
X43642Y-24335D01*
X43633Y-24307D01*
X43623Y-24292D01*
X43604Y-24278D01*
X43547Y-24278D01*
X43528Y-24292D01*
X43519Y-24307D01*
X43728Y-24307D02*
X43738Y-24292D01*
X43728Y-24278D01*
X43719Y-24292D01*
X43728Y-24307D01*
X43728Y-24278D01*
X43804Y-24578D02*
X43928Y-24578D01*
X43861Y-24464D01*
X43890Y-24464D01*
X43909Y-24450D01*
X43919Y-24435D01*
X43928Y-24407D01*
X43928Y-24335D01*
X43919Y-24307D01*
X43909Y-24292D01*
X43890Y-24278D01*
X43833Y-24278D01*
X43814Y-24292D01*
X43804Y-24307D01*
X43985Y-24578D02*
X44052Y-24278D01*
X44119Y-24578D01*
X39297Y-24564D02*
X39278Y-24578D01*
X39250Y-24578D01*
X39221Y-24564D01*
X39202Y-24535D01*
X39192Y-24507D01*
X39183Y-24450D01*
X39183Y-24407D01*
X39192Y-24350D01*
X39202Y-24321D01*
X39221Y-24292D01*
X39250Y-24278D01*
X39269Y-24278D01*
X39297Y-24292D01*
X39307Y-24307D01*
X39307Y-24407D01*
X39269Y-24407D01*
X39392Y-24278D02*
X39392Y-24578D01*
X39507Y-24278D01*
X39507Y-24578D01*
X39602Y-24278D02*
X39602Y-24578D01*
X39650Y-24578D01*
X39678Y-24564D01*
X39697Y-24535D01*
X39707Y-24507D01*
X39716Y-24450D01*
X39716Y-24407D01*
X39707Y-24350D01*
X39697Y-24321D01*
X39678Y-24292D01*
X39650Y-24278D01*
X39602Y-24278D01*
G54D12*
X42021Y-31269D02*
X42478Y-31269D01*
X42250Y-31573D02*
X42250Y-30964D01*
X40021Y-31269D02*
X40478Y-31269D01*
X44707Y-29773D02*
X44364Y-29773D01*
X44535Y-30573D02*
X44535Y-29773D01*
X44164Y-30573D02*
X44164Y-29773D01*
X44164Y-30154D02*
X43821Y-30154D01*
X43821Y-30573D02*
X43821Y-29773D01*
X43535Y-30154D02*
X43335Y-30154D01*
X43249Y-30573D02*
X43535Y-30573D01*
X43535Y-29773D01*
X43249Y-29773D01*
X42649Y-30573D02*
X42849Y-30192D01*
X42992Y-30573D02*
X42992Y-29773D01*
X42764Y-29773D01*
X42707Y-29811D01*
X42678Y-29850D01*
X42649Y-29926D01*
X42649Y-30040D01*
X42678Y-30116D01*
X42707Y-30154D01*
X42764Y-30192D01*
X42992Y-30192D01*
X42392Y-30573D02*
X42392Y-29773D01*
X42192Y-30345D01*
X41992Y-29773D01*
X41992Y-30573D01*
X41592Y-29773D02*
X41478Y-29773D01*
X41421Y-29811D01*
X41364Y-29888D01*
X41335Y-30040D01*
X41335Y-30307D01*
X41364Y-30459D01*
X41421Y-30535D01*
X41478Y-30573D01*
X41592Y-30573D01*
X41649Y-30535D01*
X41707Y-30459D01*
X41735Y-30307D01*
X41735Y-30040D01*
X41707Y-29888D01*
X41649Y-29811D01*
X41592Y-29773D01*
X40735Y-30497D02*
X40764Y-30535D01*
X40849Y-30573D01*
X40907Y-30573D01*
X40992Y-30535D01*
X41049Y-30459D01*
X41078Y-30383D01*
X41107Y-30230D01*
X41107Y-30116D01*
X41078Y-29964D01*
X41049Y-29888D01*
X40992Y-29811D01*
X40907Y-29773D01*
X40849Y-29773D01*
X40764Y-29811D01*
X40735Y-29850D01*
X40364Y-29773D02*
X40249Y-29773D01*
X40192Y-29811D01*
X40135Y-29888D01*
X40107Y-30040D01*
X40107Y-30307D01*
X40135Y-30459D01*
X40192Y-30535D01*
X40249Y-30573D01*
X40364Y-30573D01*
X40421Y-30535D01*
X40478Y-30459D01*
X40507Y-30307D01*
X40507Y-30040D01*
X40478Y-29888D01*
X40421Y-29811D01*
X40364Y-29773D01*
X39850Y-29773D02*
X39850Y-30421D01*
X39821Y-30497D01*
X39792Y-30535D01*
X39735Y-30573D01*
X39621Y-30573D01*
X39564Y-30535D01*
X39535Y-30497D01*
X39507Y-30421D01*
X39507Y-29773D01*
X39221Y-30573D02*
X39221Y-29773D01*
X38992Y-29773D01*
X38935Y-29811D01*
X38907Y-29850D01*
X38878Y-29926D01*
X38878Y-30040D01*
X38907Y-30116D01*
X38935Y-30154D01*
X38992Y-30192D01*
X39221Y-30192D01*
X38335Y-30573D02*
X38621Y-30573D01*
X38621Y-29773D01*
X38135Y-30154D02*
X37935Y-30154D01*
X37850Y-30573D02*
X38135Y-30573D01*
X38135Y-29773D01*
X37850Y-29773D01*
G54D13*
X42100Y-26300D02*
G75*
G03X42100Y-26300I-50J0D01*
G74*
G01*
X41600Y-26300D02*
X42000Y-26300D01*
X42000Y-26300D02*
X42000Y-25700D01*
X42000Y-25700D02*
X41600Y-25700D01*
X41200Y-25700D02*
X40800Y-25700D01*
X40800Y-25700D02*
X40800Y-26300D01*
X40800Y-26300D02*
X41200Y-26300D01*
G54D14*
X41460Y-25967D02*
X41470Y-25957D01*
X41479Y-25929D01*
X41479Y-25910D01*
X41470Y-25882D01*
X41451Y-25863D01*
X41432Y-25854D01*
X41395Y-25845D01*
X41367Y-25845D01*
X41329Y-25854D01*
X41310Y-25863D01*
X41292Y-25882D01*
X41282Y-25910D01*
X41282Y-25929D01*
X41292Y-25957D01*
X41301Y-25967D01*
X41367Y-26079D02*
X41357Y-26060D01*
X41348Y-26051D01*
X41329Y-26042D01*
X41320Y-26042D01*
X41301Y-26051D01*
X41292Y-26060D01*
X41282Y-26079D01*
X41282Y-26117D01*
X41292Y-26136D01*
X41301Y-26145D01*
X41320Y-26154D01*
X41329Y-26154D01*
X41348Y-26145D01*
X41357Y-26136D01*
X41367Y-26117D01*
X41367Y-26079D01*
X41376Y-26060D01*
X41385Y-26051D01*
X41404Y-26042D01*
X41442Y-26042D01*
X41460Y-26051D01*
X41470Y-26060D01*
X41479Y-26079D01*
X41479Y-26117D01*
X41470Y-26136D01*
X41460Y-26145D01*
X41442Y-26154D01*
X41404Y-26154D01*
X41385Y-26145D01*
X41376Y-26136D01*
X41367Y-26117D01*
M02*
