G04 (created by PCBNEW (2013-07-07 BZR 4022)-stable) date 16/12/2013 13:18:01*
%MOIN*%
G04 Gerber Fmt 3.4, Leading zero omitted, Abs format*
%FSLAX34Y34*%
G01*
G70*
G90*
G04 APERTURE LIST*
%ADD10C,0.00393701*%
%ADD11C,0.011811*%
%ADD12C,0.0001*%
G04 APERTURE END LIST*
G54D10*
G54D11*
X36959Y-10389D02*
X36959Y-9798D01*
X36818Y-9798D01*
X36734Y-9826D01*
X36678Y-9882D01*
X36650Y-9939D01*
X36621Y-10051D01*
X36621Y-10135D01*
X36650Y-10248D01*
X36678Y-10304D01*
X36734Y-10360D01*
X36818Y-10389D01*
X36959Y-10389D01*
X36368Y-10389D02*
X36368Y-9798D01*
X36228Y-9798D01*
X36143Y-9826D01*
X36087Y-9882D01*
X36059Y-9939D01*
X36031Y-10051D01*
X36031Y-10135D01*
X36059Y-10248D01*
X36087Y-10304D01*
X36143Y-10360D01*
X36228Y-10389D01*
X36368Y-10389D01*
X35328Y-10389D02*
X35328Y-9798D01*
X35328Y-10079D02*
X34990Y-10079D01*
X34990Y-10389D02*
X34990Y-9798D01*
X34709Y-10389D02*
X34709Y-9798D01*
X34428Y-10389D02*
X34428Y-9798D01*
X34203Y-9798D01*
X34147Y-9826D01*
X34119Y-9854D01*
X34091Y-9910D01*
X34091Y-9995D01*
X34119Y-10051D01*
X34147Y-10079D01*
X34203Y-10107D01*
X34428Y-10107D01*
X33809Y-10389D02*
X33697Y-10389D01*
X33641Y-10360D01*
X33612Y-10332D01*
X33556Y-10248D01*
X33528Y-10135D01*
X33528Y-9910D01*
X33556Y-9854D01*
X33584Y-9826D01*
X33641Y-9798D01*
X33753Y-9798D01*
X33809Y-9826D01*
X33837Y-9854D01*
X33866Y-9910D01*
X33866Y-10051D01*
X33837Y-10107D01*
X33809Y-10135D01*
X33753Y-10164D01*
X33641Y-10164D01*
X33584Y-10135D01*
X33556Y-10107D01*
X33528Y-10051D01*
X33162Y-9798D02*
X33106Y-9798D01*
X33050Y-9826D01*
X33022Y-9854D01*
X32994Y-9910D01*
X32966Y-10023D01*
X32966Y-10164D01*
X32994Y-10276D01*
X33022Y-10332D01*
X33050Y-10360D01*
X33106Y-10389D01*
X33162Y-10389D01*
X33219Y-10360D01*
X33247Y-10332D01*
X33275Y-10276D01*
X33303Y-10164D01*
X33303Y-10023D01*
X33275Y-9910D01*
X33247Y-9854D01*
X33219Y-9826D01*
X33162Y-9798D01*
X32403Y-10389D02*
X32741Y-10389D01*
X32572Y-10389D02*
X32572Y-9798D01*
X32628Y-9882D01*
X32684Y-9939D01*
X32741Y-9967D01*
X31841Y-10389D02*
X32178Y-10389D01*
X32010Y-10389D02*
X32010Y-9798D01*
X32066Y-9882D01*
X32122Y-9939D01*
X32178Y-9967D01*
X30800Y-10389D02*
X30997Y-10107D01*
X31138Y-10389D02*
X31138Y-9798D01*
X30913Y-9798D01*
X30857Y-9826D01*
X30828Y-9854D01*
X30800Y-9910D01*
X30800Y-9995D01*
X30828Y-10051D01*
X30857Y-10079D01*
X30913Y-10107D01*
X31138Y-10107D01*
X30322Y-10360D02*
X30378Y-10389D01*
X30491Y-10389D01*
X30547Y-10360D01*
X30575Y-10304D01*
X30575Y-10079D01*
X30547Y-10023D01*
X30491Y-9995D01*
X30378Y-9995D01*
X30322Y-10023D01*
X30294Y-10079D01*
X30294Y-10135D01*
X30575Y-10192D01*
X30097Y-9995D02*
X29957Y-10389D01*
X29816Y-9995D01*
X29591Y-10332D02*
X29563Y-10360D01*
X29591Y-10389D01*
X29619Y-10360D01*
X29591Y-10332D01*
X29591Y-10389D01*
X29001Y-10389D02*
X29338Y-10389D01*
X29169Y-10389D02*
X29169Y-9798D01*
X29225Y-9882D01*
X29282Y-9939D01*
X29338Y-9967D01*
X37015Y-10940D02*
X36903Y-11333D01*
X36790Y-11052D01*
X36678Y-11333D01*
X36565Y-10940D01*
X36396Y-10940D02*
X36284Y-11333D01*
X36171Y-11052D01*
X36059Y-11333D01*
X35947Y-10940D01*
X35778Y-10940D02*
X35665Y-11333D01*
X35553Y-11052D01*
X35440Y-11333D01*
X35328Y-10940D01*
X35103Y-11277D02*
X35075Y-11305D01*
X35103Y-11333D01*
X35131Y-11305D01*
X35103Y-11277D01*
X35103Y-11333D01*
X34822Y-11333D02*
X34822Y-10940D01*
X34822Y-11052D02*
X34794Y-10996D01*
X34765Y-10968D01*
X34709Y-10940D01*
X34653Y-10940D01*
X34203Y-10940D02*
X34203Y-11333D01*
X34456Y-10940D02*
X34456Y-11249D01*
X34428Y-11305D01*
X34372Y-11333D01*
X34287Y-11333D01*
X34231Y-11305D01*
X34203Y-11277D01*
X33950Y-11305D02*
X33894Y-11333D01*
X33781Y-11333D01*
X33725Y-11305D01*
X33697Y-11249D01*
X33697Y-11221D01*
X33725Y-11165D01*
X33781Y-11137D01*
X33866Y-11137D01*
X33922Y-11108D01*
X33950Y-11052D01*
X33950Y-11024D01*
X33922Y-10968D01*
X33866Y-10940D01*
X33781Y-10940D01*
X33725Y-10968D01*
X33219Y-11305D02*
X33275Y-11333D01*
X33387Y-11333D01*
X33444Y-11305D01*
X33472Y-11249D01*
X33472Y-11024D01*
X33444Y-10968D01*
X33387Y-10940D01*
X33275Y-10940D01*
X33219Y-10968D01*
X33191Y-11024D01*
X33191Y-11080D01*
X33472Y-11137D01*
X33022Y-10940D02*
X32797Y-10940D01*
X32938Y-11333D02*
X32938Y-10827D01*
X32909Y-10771D01*
X32853Y-10743D01*
X32797Y-10743D01*
X32600Y-11333D02*
X32600Y-10940D01*
X32600Y-10743D02*
X32628Y-10771D01*
X32600Y-10799D01*
X32572Y-10771D01*
X32600Y-10743D01*
X32600Y-10799D01*
X32319Y-11277D02*
X32291Y-11305D01*
X32319Y-11333D01*
X32347Y-11305D01*
X32319Y-11277D01*
X32319Y-11333D01*
X31785Y-11305D02*
X31841Y-11333D01*
X31953Y-11333D01*
X32010Y-11305D01*
X32038Y-11277D01*
X32066Y-11221D01*
X32066Y-11052D01*
X32038Y-10996D01*
X32010Y-10968D01*
X31953Y-10940D01*
X31841Y-10940D01*
X31785Y-10968D01*
X31447Y-11333D02*
X31503Y-11305D01*
X31531Y-11277D01*
X31560Y-11221D01*
X31560Y-11052D01*
X31531Y-10996D01*
X31503Y-10968D01*
X31447Y-10940D01*
X31363Y-10940D01*
X31306Y-10968D01*
X31278Y-10996D01*
X31250Y-11052D01*
X31250Y-11221D01*
X31278Y-11277D01*
X31306Y-11305D01*
X31363Y-11333D01*
X31447Y-11333D01*
X30997Y-11333D02*
X30997Y-10940D01*
X30997Y-10996D02*
X30969Y-10968D01*
X30913Y-10940D01*
X30828Y-10940D01*
X30772Y-10968D01*
X30744Y-11024D01*
X30744Y-11333D01*
X30744Y-11024D02*
X30716Y-10968D01*
X30660Y-10940D01*
X30575Y-10940D01*
X30519Y-10968D01*
X30491Y-11024D01*
X30491Y-11333D01*
G54D12*
G36*
X32267Y-17883D02*
X32265Y-18050D01*
X32259Y-18169D01*
X32244Y-18258D01*
X32219Y-18335D01*
X32179Y-18420D01*
X32174Y-18430D01*
X32100Y-18546D01*
X32100Y-18367D01*
X32051Y-18335D01*
X32036Y-18333D01*
X32008Y-18300D01*
X31974Y-18202D01*
X31935Y-18038D01*
X31919Y-17958D01*
X31888Y-17803D01*
X31861Y-17668D01*
X31840Y-17569D01*
X31829Y-17525D01*
X31835Y-17476D01*
X31864Y-17467D01*
X31910Y-17441D01*
X31917Y-17417D01*
X31906Y-17394D01*
X31868Y-17380D01*
X31792Y-17371D01*
X31668Y-17367D01*
X31539Y-17367D01*
X31161Y-17367D01*
X31176Y-17467D01*
X31199Y-17537D01*
X31235Y-17566D01*
X31236Y-17567D01*
X31266Y-17543D01*
X31262Y-17516D01*
X31262Y-17488D01*
X31300Y-17473D01*
X31386Y-17467D01*
X31441Y-17467D01*
X31639Y-17467D01*
X31672Y-17650D01*
X31705Y-17833D01*
X31577Y-17833D01*
X31496Y-17825D01*
X31452Y-17806D01*
X31450Y-17800D01*
X31423Y-17770D01*
X31404Y-17767D01*
X31375Y-17785D01*
X31376Y-17850D01*
X31380Y-17872D01*
X31405Y-17940D01*
X31439Y-17988D01*
X31470Y-18002D01*
X31483Y-17970D01*
X31483Y-17969D01*
X31513Y-17946D01*
X31586Y-17934D01*
X31614Y-17933D01*
X31745Y-17933D01*
X31768Y-18118D01*
X31778Y-18222D01*
X31778Y-18298D01*
X31773Y-18321D01*
X31725Y-18333D01*
X31643Y-18327D01*
X31549Y-18309D01*
X31467Y-18284D01*
X31420Y-18256D01*
X31417Y-18247D01*
X31390Y-18205D01*
X31367Y-18200D01*
X31327Y-18230D01*
X31317Y-18300D01*
X31317Y-18400D01*
X31718Y-18400D01*
X31903Y-18397D01*
X32029Y-18390D01*
X32093Y-18377D01*
X32100Y-18367D01*
X32100Y-18546D01*
X32004Y-18698D01*
X31799Y-18910D01*
X31560Y-19065D01*
X31352Y-19146D01*
X31183Y-19179D01*
X31183Y-18367D01*
X31156Y-18337D01*
X31133Y-18333D01*
X31089Y-18327D01*
X31083Y-18321D01*
X31077Y-18286D01*
X31060Y-18198D01*
X31034Y-18070D01*
X31003Y-17916D01*
X31000Y-17900D01*
X30964Y-17723D01*
X30939Y-17602D01*
X30926Y-17526D01*
X30923Y-17485D01*
X30929Y-17468D01*
X30944Y-17465D01*
X30967Y-17467D01*
X31011Y-17440D01*
X31017Y-17417D01*
X31006Y-17394D01*
X30968Y-17380D01*
X30892Y-17371D01*
X30768Y-17367D01*
X30639Y-17367D01*
X30261Y-17367D01*
X30276Y-17467D01*
X30299Y-17537D01*
X30335Y-17566D01*
X30336Y-17567D01*
X30366Y-17543D01*
X30362Y-17517D01*
X30363Y-17487D01*
X30401Y-17472D01*
X30490Y-17467D01*
X30528Y-17467D01*
X30632Y-17471D01*
X30706Y-17483D01*
X30729Y-17493D01*
X30743Y-17540D01*
X30759Y-17628D01*
X30769Y-17693D01*
X30792Y-17867D01*
X30677Y-17867D01*
X30588Y-17856D01*
X30526Y-17829D01*
X30524Y-17827D01*
X30480Y-17800D01*
X30465Y-17833D01*
X30473Y-17908D01*
X30500Y-17967D01*
X30539Y-18000D01*
X30573Y-17998D01*
X30583Y-17967D01*
X30611Y-17942D01*
X30676Y-17933D01*
X30751Y-17940D01*
X30811Y-17961D01*
X30827Y-17979D01*
X30842Y-18038D01*
X30860Y-18134D01*
X30868Y-18179D01*
X30878Y-18274D01*
X30871Y-18320D01*
X30841Y-18333D01*
X30837Y-18333D01*
X30790Y-18350D01*
X30783Y-18367D01*
X30814Y-18384D01*
X30893Y-18396D01*
X30983Y-18400D01*
X31090Y-18395D01*
X31162Y-18382D01*
X31183Y-18367D01*
X31183Y-19179D01*
X31175Y-19181D01*
X30970Y-19195D01*
X30765Y-19188D01*
X30589Y-19160D01*
X30559Y-19151D01*
X30324Y-19047D01*
X30102Y-18893D01*
X29912Y-18702D01*
X29769Y-18489D01*
X29757Y-18464D01*
X29681Y-18258D01*
X29635Y-18027D01*
X29625Y-17805D01*
X29630Y-17744D01*
X29651Y-17610D01*
X29678Y-17502D01*
X29707Y-17432D01*
X29735Y-17413D01*
X29743Y-17421D01*
X29794Y-17463D01*
X29814Y-17472D01*
X29844Y-17513D01*
X29880Y-17619D01*
X29920Y-17785D01*
X29937Y-17868D01*
X29973Y-18051D01*
X29996Y-18178D01*
X30008Y-18260D01*
X30009Y-18306D01*
X29999Y-18327D01*
X29980Y-18333D01*
X29967Y-18333D01*
X29922Y-18351D01*
X29917Y-18367D01*
X29947Y-18384D01*
X30026Y-18396D01*
X30117Y-18400D01*
X30230Y-18394D01*
X30300Y-18378D01*
X30319Y-18356D01*
X30280Y-18332D01*
X30256Y-18325D01*
X30225Y-18303D01*
X30198Y-18249D01*
X30171Y-18151D01*
X30141Y-17999D01*
X30138Y-17980D01*
X30111Y-17828D01*
X30086Y-17693D01*
X30067Y-17592D01*
X30061Y-17558D01*
X30056Y-17490D01*
X30087Y-17467D01*
X30095Y-17466D01*
X30132Y-17446D01*
X30129Y-17416D01*
X30095Y-17386D01*
X30018Y-17370D01*
X29910Y-17366D01*
X29711Y-17367D01*
X29786Y-17242D01*
X29935Y-17041D01*
X30126Y-16858D01*
X30337Y-16714D01*
X30383Y-16690D01*
X30483Y-16642D01*
X30566Y-16612D01*
X30652Y-16594D01*
X30759Y-16586D01*
X30908Y-16584D01*
X30966Y-16584D01*
X31133Y-16586D01*
X31253Y-16592D01*
X31344Y-16607D01*
X31425Y-16634D01*
X31516Y-16675D01*
X31531Y-16682D01*
X31741Y-16815D01*
X31936Y-16993D01*
X32098Y-17196D01*
X32171Y-17322D01*
X32214Y-17415D01*
X32242Y-17496D01*
X32257Y-17585D01*
X32265Y-17701D01*
X32266Y-17863D01*
X32267Y-17883D01*
X32267Y-17883D01*
X32267Y-17883D01*
G37*
M02*
