G04 (created by PCBNEW (2013-07-07 BZR 4022)-stable) date 16/12/2013 13:18:01*
%MOIN*%
G04 Gerber Fmt 3.4, Leading zero omitted, Abs format*
%FSLAX34Y34*%
G01*
G70*
G90*
G04 APERTURE LIST*
%ADD10C,0.00393701*%
%ADD11C,0.00688976*%
%ADD12C,0.00492126*%
%ADD13C,0.005*%
%ADD14C,0.0039*%
%ADD15C,0.00590551*%
%ADD16C,0.006*%
%ADD17C,0.0026*%
%ADD18C,0.004*%
%ADD19C,0.012*%
%ADD20C,0.015*%
%ADD21C,0.0079*%
%ADD22C,0.0043*%
%ADD23C,0.0035*%
%ADD24C,0.0047*%
%ADD25C,0.008*%
%ADD26C,0.01*%
G04 APERTURE END LIST*
G54D10*
G54D11*
X34333Y-21511D02*
X34333Y-21235D01*
X34490Y-21511D01*
X34490Y-21235D01*
X34779Y-21485D02*
X34766Y-21498D01*
X34727Y-21511D01*
X34700Y-21511D01*
X34661Y-21498D01*
X34635Y-21472D01*
X34622Y-21445D01*
X34609Y-21393D01*
X34609Y-21354D01*
X34622Y-21301D01*
X34635Y-21275D01*
X34661Y-21249D01*
X34700Y-21235D01*
X34727Y-21235D01*
X34766Y-21249D01*
X34779Y-21262D01*
X35333Y-21511D02*
X35333Y-21235D01*
X35490Y-21511D01*
X35490Y-21235D01*
X35779Y-21485D02*
X35766Y-21498D01*
X35727Y-21511D01*
X35700Y-21511D01*
X35661Y-21498D01*
X35635Y-21472D01*
X35622Y-21445D01*
X35609Y-21393D01*
X35609Y-21354D01*
X35622Y-21301D01*
X35635Y-21275D01*
X35661Y-21249D01*
X35700Y-21235D01*
X35727Y-21235D01*
X35766Y-21249D01*
X35779Y-21262D01*
X36333Y-21511D02*
X36333Y-21235D01*
X36490Y-21511D01*
X36490Y-21235D01*
X36779Y-21485D02*
X36766Y-21498D01*
X36727Y-21511D01*
X36700Y-21511D01*
X36661Y-21498D01*
X36635Y-21472D01*
X36622Y-21445D01*
X36609Y-21393D01*
X36609Y-21354D01*
X36622Y-21301D01*
X36635Y-21275D01*
X36661Y-21249D01*
X36700Y-21235D01*
X36727Y-21235D01*
X36766Y-21249D01*
X36779Y-21262D01*
X38333Y-18961D02*
X38333Y-18685D01*
X38490Y-18961D01*
X38490Y-18685D01*
X38779Y-18935D02*
X38766Y-18948D01*
X38727Y-18961D01*
X38700Y-18961D01*
X38661Y-18948D01*
X38635Y-18922D01*
X38622Y-18895D01*
X38609Y-18843D01*
X38609Y-18804D01*
X38622Y-18751D01*
X38635Y-18725D01*
X38661Y-18699D01*
X38700Y-18685D01*
X38727Y-18685D01*
X38766Y-18699D01*
X38779Y-18712D01*
X36333Y-18961D02*
X36333Y-18685D01*
X36490Y-18961D01*
X36490Y-18685D01*
X36779Y-18935D02*
X36766Y-18948D01*
X36727Y-18961D01*
X36700Y-18961D01*
X36661Y-18948D01*
X36635Y-18922D01*
X36622Y-18895D01*
X36609Y-18843D01*
X36609Y-18804D01*
X36622Y-18751D01*
X36635Y-18725D01*
X36661Y-18699D01*
X36700Y-18685D01*
X36727Y-18685D01*
X36766Y-18699D01*
X36779Y-18712D01*
G54D12*
X26940Y-13049D02*
X26913Y-13035D01*
X26874Y-13035D01*
X26835Y-13049D01*
X26808Y-13075D01*
X26795Y-13101D01*
X26782Y-13154D01*
X26782Y-13193D01*
X26795Y-13245D01*
X26808Y-13272D01*
X26835Y-13298D01*
X26874Y-13311D01*
X26900Y-13311D01*
X26940Y-13298D01*
X26953Y-13285D01*
X26953Y-13193D01*
X26900Y-13193D01*
X27071Y-13311D02*
X27071Y-13035D01*
X27228Y-13311D01*
X27228Y-13035D01*
X27359Y-13311D02*
X27359Y-13035D01*
X27425Y-13035D01*
X27464Y-13049D01*
X27491Y-13075D01*
X27504Y-13101D01*
X27517Y-13154D01*
X27517Y-13193D01*
X27504Y-13245D01*
X27491Y-13272D01*
X27464Y-13298D01*
X27425Y-13311D01*
X27359Y-13311D01*
X27924Y-19735D02*
X27976Y-19735D01*
X28003Y-19749D01*
X28029Y-19775D01*
X28042Y-19827D01*
X28042Y-19919D01*
X28029Y-19972D01*
X28003Y-19998D01*
X27976Y-20011D01*
X27924Y-20011D01*
X27898Y-19998D01*
X27871Y-19972D01*
X27858Y-19919D01*
X27858Y-19827D01*
X27871Y-19775D01*
X27898Y-19749D01*
X27924Y-19735D01*
X28160Y-19735D02*
X28160Y-19959D01*
X28173Y-19985D01*
X28186Y-19998D01*
X28213Y-20011D01*
X28265Y-20011D01*
X28291Y-19998D01*
X28304Y-19985D01*
X28318Y-19959D01*
X28318Y-19735D01*
X28409Y-19735D02*
X28567Y-19735D01*
X28488Y-20011D02*
X28488Y-19735D01*
X31377Y-20011D02*
X31377Y-19735D01*
X31377Y-19867D02*
X31535Y-19867D01*
X31535Y-20011D02*
X31535Y-19735D01*
X31718Y-19735D02*
X31771Y-19735D01*
X31797Y-19749D01*
X31823Y-19775D01*
X31836Y-19827D01*
X31836Y-19919D01*
X31823Y-19972D01*
X31797Y-19998D01*
X31771Y-20011D01*
X31718Y-20011D01*
X31692Y-19998D01*
X31666Y-19972D01*
X31653Y-19919D01*
X31653Y-19827D01*
X31666Y-19775D01*
X31692Y-19749D01*
X31718Y-19735D01*
X32086Y-20011D02*
X31954Y-20011D01*
X31954Y-19735D01*
X32178Y-20011D02*
X32178Y-19735D01*
X32243Y-19735D01*
X32283Y-19749D01*
X32309Y-19775D01*
X32322Y-19801D01*
X32335Y-19854D01*
X32335Y-19893D01*
X32322Y-19945D01*
X32309Y-19972D01*
X32283Y-19998D01*
X32243Y-20011D01*
X32178Y-20011D01*
X30160Y-19735D02*
X30317Y-19735D01*
X30239Y-20011D02*
X30239Y-19735D01*
X30409Y-19867D02*
X30501Y-19867D01*
X30540Y-20011D02*
X30409Y-20011D01*
X30409Y-19735D01*
X30540Y-19735D01*
X30645Y-19998D02*
X30685Y-20011D01*
X30750Y-20011D01*
X30777Y-19998D01*
X30790Y-19985D01*
X30803Y-19959D01*
X30803Y-19932D01*
X30790Y-19906D01*
X30777Y-19893D01*
X30750Y-19880D01*
X30698Y-19867D01*
X30672Y-19854D01*
X30659Y-19840D01*
X30645Y-19814D01*
X30645Y-19788D01*
X30659Y-19762D01*
X30672Y-19749D01*
X30698Y-19735D01*
X30764Y-19735D01*
X30803Y-19749D01*
X30882Y-19735D02*
X31039Y-19735D01*
X30960Y-20011D02*
X30960Y-19735D01*
X28990Y-19749D02*
X28963Y-19735D01*
X28924Y-19735D01*
X28885Y-19749D01*
X28858Y-19775D01*
X28845Y-19801D01*
X28832Y-19854D01*
X28832Y-19893D01*
X28845Y-19945D01*
X28858Y-19972D01*
X28885Y-19998D01*
X28924Y-20011D01*
X28950Y-20011D01*
X28990Y-19998D01*
X29003Y-19985D01*
X29003Y-19893D01*
X28950Y-19893D01*
X29121Y-20011D02*
X29121Y-19735D01*
X29278Y-20011D01*
X29278Y-19735D01*
X29409Y-20011D02*
X29409Y-19735D01*
X29475Y-19735D01*
X29514Y-19749D01*
X29541Y-19775D01*
X29554Y-19801D01*
X29567Y-19854D01*
X29567Y-19893D01*
X29554Y-19945D01*
X29541Y-19972D01*
X29514Y-19998D01*
X29475Y-20011D01*
X29409Y-20011D01*
G54D11*
X38245Y-21498D02*
X38285Y-21511D01*
X38350Y-21511D01*
X38376Y-21498D01*
X38390Y-21485D01*
X38403Y-21459D01*
X38403Y-21432D01*
X38390Y-21406D01*
X38376Y-21393D01*
X38350Y-21380D01*
X38298Y-21367D01*
X38271Y-21354D01*
X38258Y-21340D01*
X38245Y-21314D01*
X38245Y-21288D01*
X38258Y-21262D01*
X38271Y-21249D01*
X38298Y-21235D01*
X38363Y-21235D01*
X38403Y-21249D01*
X38678Y-21485D02*
X38665Y-21498D01*
X38626Y-21511D01*
X38600Y-21511D01*
X38560Y-21498D01*
X38534Y-21472D01*
X38521Y-21445D01*
X38508Y-21393D01*
X38508Y-21354D01*
X38521Y-21301D01*
X38534Y-21275D01*
X38560Y-21249D01*
X38600Y-21235D01*
X38626Y-21235D01*
X38665Y-21249D01*
X38678Y-21262D01*
X38796Y-21511D02*
X38796Y-21235D01*
X38954Y-21511D02*
X38836Y-21354D01*
X38954Y-21235D02*
X38796Y-21393D01*
X37326Y-21498D02*
X37366Y-21511D01*
X37431Y-21511D01*
X37458Y-21498D01*
X37471Y-21485D01*
X37484Y-21459D01*
X37484Y-21432D01*
X37471Y-21406D01*
X37458Y-21393D01*
X37431Y-21380D01*
X37379Y-21367D01*
X37353Y-21354D01*
X37340Y-21340D01*
X37326Y-21314D01*
X37326Y-21288D01*
X37340Y-21262D01*
X37353Y-21249D01*
X37379Y-21235D01*
X37445Y-21235D01*
X37484Y-21249D01*
X37654Y-21235D02*
X37707Y-21235D01*
X37733Y-21249D01*
X37759Y-21275D01*
X37773Y-21327D01*
X37773Y-21419D01*
X37759Y-21472D01*
X37733Y-21498D01*
X37707Y-21511D01*
X37654Y-21511D01*
X37628Y-21498D01*
X37602Y-21472D01*
X37589Y-21419D01*
X37589Y-21327D01*
X37602Y-21275D01*
X37628Y-21249D01*
X37654Y-21235D01*
X37405Y-18948D02*
X37445Y-18961D01*
X37510Y-18961D01*
X37536Y-18948D01*
X37550Y-18935D01*
X37563Y-18909D01*
X37563Y-18882D01*
X37550Y-18856D01*
X37536Y-18843D01*
X37510Y-18830D01*
X37458Y-18817D01*
X37431Y-18804D01*
X37418Y-18790D01*
X37405Y-18764D01*
X37405Y-18738D01*
X37418Y-18712D01*
X37431Y-18699D01*
X37458Y-18685D01*
X37523Y-18685D01*
X37563Y-18699D01*
X37681Y-18961D02*
X37681Y-18685D01*
X35504Y-18935D02*
X35490Y-18948D01*
X35451Y-18961D01*
X35425Y-18961D01*
X35385Y-18948D01*
X35359Y-18922D01*
X35346Y-18895D01*
X35333Y-18843D01*
X35333Y-18804D01*
X35346Y-18751D01*
X35359Y-18725D01*
X35385Y-18699D01*
X35425Y-18685D01*
X35451Y-18685D01*
X35490Y-18699D01*
X35504Y-18712D01*
X35609Y-18948D02*
X35648Y-18961D01*
X35714Y-18961D01*
X35740Y-18948D01*
X35753Y-18935D01*
X35766Y-18909D01*
X35766Y-18882D01*
X35753Y-18856D01*
X35740Y-18843D01*
X35714Y-18830D01*
X35661Y-18817D01*
X35635Y-18804D01*
X35622Y-18790D01*
X35609Y-18764D01*
X35609Y-18738D01*
X35622Y-18712D01*
X35635Y-18699D01*
X35661Y-18685D01*
X35727Y-18685D01*
X35766Y-18699D01*
G54D12*
X34340Y-18699D02*
X34313Y-18685D01*
X34274Y-18685D01*
X34235Y-18699D01*
X34208Y-18725D01*
X34195Y-18751D01*
X34182Y-18804D01*
X34182Y-18843D01*
X34195Y-18895D01*
X34208Y-18922D01*
X34235Y-18948D01*
X34274Y-18961D01*
X34300Y-18961D01*
X34340Y-18948D01*
X34353Y-18935D01*
X34353Y-18843D01*
X34300Y-18843D01*
X34471Y-18961D02*
X34471Y-18685D01*
X34628Y-18961D01*
X34628Y-18685D01*
X34759Y-18961D02*
X34759Y-18685D01*
X34825Y-18685D01*
X34864Y-18699D01*
X34891Y-18725D01*
X34904Y-18751D01*
X34917Y-18804D01*
X34917Y-18843D01*
X34904Y-18895D01*
X34891Y-18922D01*
X34864Y-18948D01*
X34825Y-18961D01*
X34759Y-18961D01*
G54D13*
X28643Y-11514D02*
X28443Y-11514D01*
X28443Y-11514D02*
X28443Y-11984D01*
X28643Y-11514D02*
X28643Y-11984D01*
X29233Y-11514D02*
X29233Y-11984D01*
X29033Y-11514D02*
X29033Y-11984D01*
X29233Y-11514D02*
X29033Y-11514D01*
X29823Y-11514D02*
X29623Y-11514D01*
X29623Y-11514D02*
X29623Y-11984D01*
X29823Y-11514D02*
X29823Y-11984D01*
X29488Y-13209D02*
X28778Y-13209D01*
X28778Y-13209D02*
X28778Y-13014D01*
X29488Y-13209D02*
X29488Y-13014D01*
X30038Y-11984D02*
X30038Y-13014D01*
X30038Y-13014D02*
X28228Y-13014D01*
X28228Y-13014D02*
X28228Y-11984D01*
X28228Y-11984D02*
X30038Y-11984D01*
X41150Y-16050D02*
X40250Y-16050D01*
X40250Y-16050D02*
X40250Y-16700D01*
X41150Y-17400D02*
X41150Y-18050D01*
X41150Y-18050D02*
X40250Y-18050D01*
X40250Y-18050D02*
X40250Y-17400D01*
X41150Y-16700D02*
X41150Y-16050D01*
X32150Y-17200D02*
X31250Y-17200D01*
X31250Y-17200D02*
X31250Y-17850D01*
X32150Y-18550D02*
X32150Y-19200D01*
X32150Y-19200D02*
X31250Y-19200D01*
X31250Y-19200D02*
X31250Y-18550D01*
X32150Y-17850D02*
X32150Y-17200D01*
X30350Y-13250D02*
X30350Y-14150D01*
X30350Y-14150D02*
X31000Y-14150D01*
X31700Y-13250D02*
X32350Y-13250D01*
X32350Y-13250D02*
X32350Y-14150D01*
X32350Y-14150D02*
X31700Y-14150D01*
X31000Y-13250D02*
X30350Y-13250D01*
X32700Y-13250D02*
X32700Y-14150D01*
X32700Y-14150D02*
X33350Y-14150D01*
X34050Y-13250D02*
X34700Y-13250D01*
X34700Y-13250D02*
X34700Y-14150D01*
X34700Y-14150D02*
X34050Y-14150D01*
X33350Y-13250D02*
X32700Y-13250D01*
X33500Y-8800D02*
X32600Y-8800D01*
X32600Y-8800D02*
X32600Y-9450D01*
X33500Y-10150D02*
X33500Y-10800D01*
X33500Y-10800D02*
X32600Y-10800D01*
X32600Y-10800D02*
X32600Y-10150D01*
X33500Y-9450D02*
X33500Y-8800D01*
X33200Y-17200D02*
X32300Y-17200D01*
X32300Y-17200D02*
X32300Y-17850D01*
X33200Y-18550D02*
X33200Y-19200D01*
X33200Y-19200D02*
X32300Y-19200D01*
X32300Y-19200D02*
X32300Y-18550D01*
X33200Y-17850D02*
X33200Y-17200D01*
X34250Y-11050D02*
X33350Y-11050D01*
X33350Y-11050D02*
X33350Y-11700D01*
X34250Y-12400D02*
X34250Y-13050D01*
X34250Y-13050D02*
X33350Y-13050D01*
X33350Y-13050D02*
X33350Y-12400D01*
X34250Y-11700D02*
X34250Y-11050D01*
X35100Y-10800D02*
X36000Y-10800D01*
X36000Y-10800D02*
X36000Y-10150D01*
X35100Y-9450D02*
X35100Y-8800D01*
X35100Y-8800D02*
X36000Y-8800D01*
X36000Y-8800D02*
X36000Y-9450D01*
X35100Y-10150D02*
X35100Y-10800D01*
X32950Y-16700D02*
X33850Y-16700D01*
X33850Y-16700D02*
X33850Y-16050D01*
X32950Y-15350D02*
X32950Y-14700D01*
X32950Y-14700D02*
X33850Y-14700D01*
X33850Y-14700D02*
X33850Y-15350D01*
X32950Y-16050D02*
X32950Y-16700D01*
X34400Y-13050D02*
X35300Y-13050D01*
X35300Y-13050D02*
X35300Y-12400D01*
X34400Y-11700D02*
X34400Y-11050D01*
X34400Y-11050D02*
X35300Y-11050D01*
X35300Y-11050D02*
X35300Y-11700D01*
X34400Y-12400D02*
X34400Y-13050D01*
X39900Y-14600D02*
X39900Y-15500D01*
X39900Y-15500D02*
X40550Y-15500D01*
X41250Y-14600D02*
X41900Y-14600D01*
X41900Y-14600D02*
X41900Y-15500D01*
X41900Y-15500D02*
X41250Y-15500D01*
X40550Y-14600D02*
X39900Y-14600D01*
X39900Y-13450D02*
X39900Y-14350D01*
X39900Y-14350D02*
X40550Y-14350D01*
X41250Y-13450D02*
X41900Y-13450D01*
X41900Y-13450D02*
X41900Y-14350D01*
X41900Y-14350D02*
X41250Y-14350D01*
X40550Y-13450D02*
X39900Y-13450D01*
X38600Y-11750D02*
X38600Y-12650D01*
X38600Y-12650D02*
X39250Y-12650D01*
X39950Y-11750D02*
X40600Y-11750D01*
X40600Y-11750D02*
X40600Y-12650D01*
X40600Y-12650D02*
X39950Y-12650D01*
X39250Y-11750D02*
X38600Y-11750D01*
X36300Y-11750D02*
X36300Y-12650D01*
X36300Y-12650D02*
X36950Y-12650D01*
X37650Y-11750D02*
X38300Y-11750D01*
X38300Y-11750D02*
X38300Y-12650D01*
X38300Y-12650D02*
X37650Y-12650D01*
X36950Y-11750D02*
X36300Y-11750D01*
X40600Y-11600D02*
X40600Y-10700D01*
X40600Y-10700D02*
X39950Y-10700D01*
X39250Y-11600D02*
X38600Y-11600D01*
X38600Y-11600D02*
X38600Y-10700D01*
X38600Y-10700D02*
X39250Y-10700D01*
X39950Y-11600D02*
X40600Y-11600D01*
X40600Y-10550D02*
X40600Y-9650D01*
X40600Y-9650D02*
X39950Y-9650D01*
X39250Y-10550D02*
X38600Y-10550D01*
X38600Y-10550D02*
X38600Y-9650D01*
X38600Y-9650D02*
X39250Y-9650D01*
X39950Y-10550D02*
X40600Y-10550D01*
X38300Y-10550D02*
X38300Y-9650D01*
X38300Y-9650D02*
X37650Y-9650D01*
X36950Y-10550D02*
X36300Y-10550D01*
X36300Y-10550D02*
X36300Y-9650D01*
X36300Y-9650D02*
X36950Y-9650D01*
X37650Y-10550D02*
X38300Y-10550D01*
X38300Y-11600D02*
X38300Y-10700D01*
X38300Y-10700D02*
X37650Y-10700D01*
X36950Y-11600D02*
X36300Y-11600D01*
X36300Y-11600D02*
X36300Y-10700D01*
X36300Y-10700D02*
X36950Y-10700D01*
X37650Y-11600D02*
X38300Y-11600D01*
G54D14*
X27700Y-14950D02*
G75*
G03X27700Y-14950I-50J0D01*
G74*
G01*
X28100Y-14950D02*
X27700Y-14950D01*
X27700Y-14950D02*
X27700Y-14350D01*
X27700Y-14350D02*
X28100Y-14350D01*
X28500Y-14350D02*
X28900Y-14350D01*
X28900Y-14350D02*
X28900Y-14950D01*
X28900Y-14950D02*
X28500Y-14950D01*
X31900Y-14350D02*
G75*
G03X31900Y-14350I-50J0D01*
G74*
G01*
X31400Y-14350D02*
X31800Y-14350D01*
X31800Y-14350D02*
X31800Y-14950D01*
X31800Y-14950D02*
X31400Y-14950D01*
X31000Y-14950D02*
X30600Y-14950D01*
X30600Y-14950D02*
X30600Y-14350D01*
X30600Y-14350D02*
X31000Y-14350D01*
G54D15*
X27800Y-15450D02*
X27800Y-15600D01*
X27800Y-16750D02*
X27800Y-16600D01*
X31700Y-16750D02*
X31700Y-16600D01*
X31700Y-15450D02*
X31700Y-15600D01*
X32000Y-15100D02*
X32000Y-15600D01*
X32000Y-17100D02*
X32000Y-16600D01*
X27500Y-17100D02*
X27500Y-16600D01*
X27500Y-15100D02*
X27500Y-15600D01*
X27800Y-16750D02*
X28050Y-17000D01*
X28050Y-17000D02*
X31450Y-17000D01*
X31450Y-17000D02*
X31700Y-16750D01*
X31700Y-15450D02*
X31450Y-15200D01*
X31450Y-15200D02*
X28050Y-15200D01*
X28050Y-15200D02*
X27800Y-15450D01*
X32000Y-17100D02*
X27500Y-17100D01*
X27500Y-15100D02*
X32000Y-15100D01*
G54D16*
X38450Y-9400D02*
X38450Y-8400D01*
X38450Y-8400D02*
X40450Y-8400D01*
X40450Y-8400D02*
X40450Y-9400D01*
X40450Y-9400D02*
X38450Y-9400D01*
X36450Y-9400D02*
X36450Y-8400D01*
X36450Y-8400D02*
X38450Y-8400D01*
X38450Y-8400D02*
X38450Y-9400D01*
X38450Y-9400D02*
X36450Y-9400D01*
X27665Y-12917D02*
X26665Y-12917D01*
X26665Y-12917D02*
X26665Y-10917D01*
X26665Y-10917D02*
X27665Y-10917D01*
X27665Y-10917D02*
X27665Y-12917D01*
G54D17*
X34361Y-9711D02*
X34361Y-9789D01*
X34361Y-9789D02*
X34439Y-9789D01*
X34439Y-9711D02*
X34439Y-9789D01*
X34361Y-9711D02*
X34439Y-9711D01*
X34125Y-9927D02*
X34125Y-10064D01*
X34125Y-10064D02*
X34223Y-10064D01*
X34223Y-9927D02*
X34223Y-10064D01*
X34125Y-9927D02*
X34223Y-9927D01*
X34125Y-10064D02*
X34125Y-10104D01*
X34125Y-10104D02*
X34596Y-10104D01*
X34596Y-10064D02*
X34596Y-10104D01*
X34125Y-10064D02*
X34596Y-10064D01*
X34616Y-10064D02*
X34616Y-10104D01*
X34616Y-10104D02*
X34675Y-10104D01*
X34675Y-10064D02*
X34675Y-10104D01*
X34616Y-10064D02*
X34675Y-10064D01*
X34125Y-9396D02*
X34125Y-9436D01*
X34125Y-9436D02*
X34596Y-9436D01*
X34596Y-9396D02*
X34596Y-9436D01*
X34125Y-9396D02*
X34596Y-9396D01*
X34616Y-9396D02*
X34616Y-9436D01*
X34616Y-9436D02*
X34675Y-9436D01*
X34675Y-9396D02*
X34675Y-9436D01*
X34616Y-9396D02*
X34675Y-9396D01*
X34125Y-9927D02*
X34125Y-9986D01*
X34125Y-9986D02*
X34223Y-9986D01*
X34223Y-9927D02*
X34223Y-9986D01*
X34125Y-9927D02*
X34223Y-9927D01*
G54D18*
X34105Y-10360D02*
X34105Y-9140D01*
X34105Y-9140D02*
X34695Y-9140D01*
X34695Y-9140D02*
X34695Y-10360D01*
X34695Y-10360D02*
X34105Y-10360D01*
X34203Y-9534D02*
G75*
G03X34204Y-9966I196J-215D01*
G74*
G01*
X34596Y-9534D02*
G75*
G03X34204Y-9533I-196J-215D01*
G74*
G01*
X34596Y-9965D02*
G75*
G03X34595Y-9533I-196J215D01*
G74*
G01*
X34203Y-9965D02*
G75*
G03X34595Y-9966I196J215D01*
G74*
G01*
G54D13*
X31700Y-10100D02*
X31700Y-9500D01*
X31650Y-9350D02*
X31650Y-10250D01*
X31600Y-10350D02*
X31600Y-9250D01*
X31550Y-9150D02*
X31550Y-10450D01*
X31500Y-10500D02*
X31500Y-9100D01*
X31750Y-9800D02*
G75*
G03X31750Y-9800I-1200J0D01*
G74*
G01*
X31850Y-11100D02*
X31850Y-8500D01*
X31850Y-8500D02*
X29550Y-8500D01*
X29550Y-8500D02*
X29250Y-8800D01*
X29250Y-8800D02*
X29250Y-10800D01*
X29250Y-10800D02*
X29550Y-11100D01*
X29550Y-11100D02*
X31850Y-11100D01*
X29700Y-9800D02*
X30000Y-9800D01*
X29850Y-9950D02*
X29850Y-9650D01*
X32350Y-12150D02*
X32050Y-12150D01*
X32200Y-12000D02*
X32200Y-12300D01*
X32300Y-13050D02*
X30800Y-13050D01*
X32600Y-11550D02*
X32600Y-12750D01*
X32300Y-13050D02*
X32600Y-12750D01*
X32300Y-11250D02*
X30800Y-11250D01*
X32300Y-11250D02*
X32600Y-11550D01*
X30900Y-12200D02*
X30900Y-12100D01*
X30950Y-11900D02*
X30950Y-12400D01*
X31000Y-12500D02*
X31000Y-11800D01*
X31050Y-12600D02*
X31050Y-11700D01*
X31100Y-11650D02*
X31100Y-12650D01*
X31150Y-12700D02*
X31150Y-11600D01*
X31200Y-11550D02*
X31200Y-12750D01*
X31250Y-11500D02*
X31250Y-12800D01*
X32500Y-12150D02*
G75*
G03X32500Y-12150I-800J0D01*
G74*
G01*
X30800Y-11250D02*
X30800Y-13050D01*
X26550Y-17900D02*
X26550Y-18800D01*
X26550Y-18800D02*
X27200Y-18800D01*
X27900Y-17900D02*
X28550Y-17900D01*
X28550Y-17900D02*
X28550Y-18800D01*
X28550Y-18800D02*
X27900Y-18800D01*
X27200Y-17900D02*
X26550Y-17900D01*
X28950Y-17900D02*
X28950Y-18800D01*
X28950Y-18800D02*
X29600Y-18800D01*
X30300Y-17900D02*
X30950Y-17900D01*
X30950Y-17900D02*
X30950Y-18800D01*
X30950Y-18800D02*
X30300Y-18800D01*
X29600Y-17900D02*
X28950Y-17900D01*
X35700Y-18150D02*
X38600Y-18150D01*
X38600Y-13150D02*
X35700Y-13150D01*
X35700Y-18150D02*
X35700Y-13150D01*
X38600Y-13150D02*
X38600Y-18150D01*
X37400Y-13150D02*
X37400Y-13650D01*
X37400Y-13650D02*
X36900Y-13650D01*
X36900Y-13650D02*
X36900Y-13150D01*
G54D19*
X34050Y-19100D02*
X39050Y-19100D01*
X39050Y-19100D02*
X39050Y-21100D01*
X39050Y-21100D02*
X34050Y-21100D01*
X34050Y-21100D02*
X34050Y-19100D01*
G54D16*
X30250Y-21100D02*
X30250Y-20100D01*
X30250Y-20100D02*
X32250Y-20100D01*
X32250Y-20100D02*
X32250Y-21100D01*
X32250Y-21100D02*
X30250Y-21100D01*
X29700Y-20100D02*
X29700Y-21100D01*
X29700Y-21100D02*
X27700Y-21100D01*
X27700Y-21100D02*
X27700Y-20100D01*
X27700Y-20100D02*
X29700Y-20100D01*
G54D20*
X41844Y-20472D02*
G75*
G03X41844Y-20472I-900J0D01*
G74*
G01*
X28459Y-9448D02*
G75*
G03X28459Y-9448I-900J0D01*
G74*
G01*
G54D21*
X27999Y-13115D02*
X27999Y-13434D01*
X28018Y-13471D01*
X28037Y-13490D01*
X28074Y-13509D01*
X28149Y-13509D01*
X28187Y-13490D01*
X28206Y-13471D01*
X28224Y-13434D01*
X28224Y-13115D01*
X28618Y-13509D02*
X28393Y-13509D01*
X28506Y-13509D02*
X28506Y-13115D01*
X28468Y-13171D01*
X28431Y-13209D01*
X28393Y-13228D01*
X30080Y-14436D02*
X30080Y-14173D01*
X30474Y-14342D01*
X30249Y-13967D02*
X30230Y-14004D01*
X30211Y-14023D01*
X30174Y-14042D01*
X30155Y-14042D01*
X30117Y-14023D01*
X30099Y-14004D01*
X30080Y-13967D01*
X30080Y-13892D01*
X30099Y-13854D01*
X30117Y-13835D01*
X30155Y-13817D01*
X30174Y-13817D01*
X30211Y-13835D01*
X30230Y-13854D01*
X30249Y-13892D01*
X30249Y-13967D01*
X30267Y-14004D01*
X30286Y-14023D01*
X30324Y-14042D01*
X30399Y-14042D01*
X30436Y-14023D01*
X30455Y-14004D01*
X30474Y-13967D01*
X30474Y-13892D01*
X30455Y-13854D01*
X30436Y-13835D01*
X30399Y-13817D01*
X30324Y-13817D01*
X30286Y-13835D01*
X30267Y-13854D01*
X30249Y-13892D01*
X30080Y-13573D02*
X30080Y-13535D01*
X30099Y-13498D01*
X30117Y-13479D01*
X30155Y-13460D01*
X30230Y-13441D01*
X30324Y-13441D01*
X30399Y-13460D01*
X30436Y-13479D01*
X30455Y-13498D01*
X30474Y-13535D01*
X30474Y-13573D01*
X30455Y-13610D01*
X30436Y-13629D01*
X30399Y-13648D01*
X30324Y-13666D01*
X30230Y-13666D01*
X30155Y-13648D01*
X30117Y-13629D01*
X30099Y-13610D01*
X30080Y-13573D01*
X30080Y-13085D02*
X30080Y-13272D01*
X30267Y-13291D01*
X30249Y-13272D01*
X30230Y-13235D01*
X30230Y-13141D01*
X30249Y-13104D01*
X30267Y-13085D01*
X30305Y-13066D01*
X30399Y-13066D01*
X30436Y-13085D01*
X30455Y-13104D01*
X30474Y-13141D01*
X30474Y-13235D01*
X30455Y-13272D01*
X30436Y-13291D01*
X30324Y-12897D02*
X30324Y-12597D01*
X30455Y-12428D02*
X30474Y-12372D01*
X30474Y-12278D01*
X30455Y-12241D01*
X30436Y-12222D01*
X30399Y-12203D01*
X30361Y-12203D01*
X30324Y-12222D01*
X30305Y-12241D01*
X30286Y-12278D01*
X30267Y-12353D01*
X30249Y-12391D01*
X30230Y-12409D01*
X30192Y-12428D01*
X30155Y-12428D01*
X30117Y-12409D01*
X30099Y-12391D01*
X30080Y-12353D01*
X30080Y-12259D01*
X30099Y-12203D01*
X30080Y-11959D02*
X30080Y-11884D01*
X30099Y-11847D01*
X30136Y-11809D01*
X30211Y-11790D01*
X30343Y-11790D01*
X30418Y-11809D01*
X30455Y-11847D01*
X30474Y-11884D01*
X30474Y-11959D01*
X30455Y-11997D01*
X30418Y-12034D01*
X30343Y-12053D01*
X30211Y-12053D01*
X30136Y-12034D01*
X30099Y-11997D01*
X30080Y-11959D01*
X30080Y-11678D02*
X30080Y-11453D01*
X30474Y-11565D02*
X30080Y-11565D01*
X30249Y-11265D02*
X30230Y-11302D01*
X30211Y-11321D01*
X30174Y-11340D01*
X30155Y-11340D01*
X30117Y-11321D01*
X30099Y-11302D01*
X30080Y-11265D01*
X30080Y-11190D01*
X30099Y-11152D01*
X30117Y-11134D01*
X30155Y-11115D01*
X30174Y-11115D01*
X30211Y-11134D01*
X30230Y-11152D01*
X30249Y-11190D01*
X30249Y-11265D01*
X30267Y-11302D01*
X30286Y-11321D01*
X30324Y-11340D01*
X30399Y-11340D01*
X30436Y-11321D01*
X30455Y-11302D01*
X30474Y-11265D01*
X30474Y-11190D01*
X30455Y-11152D01*
X30436Y-11134D01*
X30399Y-11115D01*
X30324Y-11115D01*
X30286Y-11134D01*
X30267Y-11152D01*
X30249Y-11190D01*
X30474Y-10927D02*
X30474Y-10852D01*
X30455Y-10815D01*
X30436Y-10796D01*
X30380Y-10758D01*
X30305Y-10740D01*
X30155Y-10740D01*
X30117Y-10758D01*
X30099Y-10777D01*
X30080Y-10815D01*
X30080Y-10890D01*
X30099Y-10927D01*
X30117Y-10946D01*
X30155Y-10965D01*
X30249Y-10965D01*
X30286Y-10946D01*
X30305Y-10927D01*
X30324Y-10890D01*
X30324Y-10815D01*
X30305Y-10777D01*
X30286Y-10758D01*
X30249Y-10740D01*
G54D13*
X40507Y-17171D02*
X40407Y-17028D01*
X40335Y-17171D02*
X40335Y-16871D01*
X40450Y-16871D01*
X40478Y-16885D01*
X40492Y-16900D01*
X40507Y-16928D01*
X40507Y-16971D01*
X40492Y-17000D01*
X40478Y-17014D01*
X40450Y-17028D01*
X40335Y-17028D01*
X40792Y-17171D02*
X40621Y-17171D01*
X40707Y-17171D02*
X40707Y-16871D01*
X40678Y-16914D01*
X40650Y-16942D01*
X40621Y-16957D01*
X41050Y-16971D02*
X41050Y-17171D01*
X40978Y-16857D02*
X40907Y-17071D01*
X41092Y-17071D01*
G54D12*
X31557Y-18371D02*
X31457Y-18228D01*
X31385Y-18371D02*
X31385Y-18071D01*
X31500Y-18071D01*
X31528Y-18085D01*
X31542Y-18100D01*
X31557Y-18128D01*
X31557Y-18171D01*
X31542Y-18200D01*
X31528Y-18214D01*
X31500Y-18228D01*
X31385Y-18228D01*
X31842Y-18371D02*
X31671Y-18371D01*
X31757Y-18371D02*
X31757Y-18071D01*
X31728Y-18114D01*
X31700Y-18142D01*
X31671Y-18157D01*
X31957Y-18100D02*
X31971Y-18085D01*
X32000Y-18071D01*
X32071Y-18071D01*
X32100Y-18085D01*
X32114Y-18100D01*
X32128Y-18128D01*
X32128Y-18157D01*
X32114Y-18200D01*
X31942Y-18371D01*
X32128Y-18371D01*
X31223Y-13779D02*
X31157Y-13685D01*
X31110Y-13779D02*
X31110Y-13582D01*
X31185Y-13582D01*
X31204Y-13592D01*
X31214Y-13601D01*
X31223Y-13620D01*
X31223Y-13648D01*
X31214Y-13667D01*
X31204Y-13676D01*
X31185Y-13685D01*
X31110Y-13685D01*
X31410Y-13779D02*
X31298Y-13779D01*
X31354Y-13779D02*
X31354Y-13582D01*
X31335Y-13610D01*
X31317Y-13629D01*
X31298Y-13639D01*
X31598Y-13779D02*
X31485Y-13779D01*
X31542Y-13779D02*
X31542Y-13582D01*
X31523Y-13610D01*
X31504Y-13629D01*
X31485Y-13639D01*
X33573Y-13779D02*
X33507Y-13685D01*
X33460Y-13779D02*
X33460Y-13582D01*
X33535Y-13582D01*
X33554Y-13592D01*
X33564Y-13601D01*
X33573Y-13620D01*
X33573Y-13648D01*
X33564Y-13667D01*
X33554Y-13676D01*
X33535Y-13685D01*
X33460Y-13685D01*
X33760Y-13779D02*
X33648Y-13779D01*
X33704Y-13779D02*
X33704Y-13582D01*
X33685Y-13610D01*
X33667Y-13629D01*
X33648Y-13639D01*
X33882Y-13582D02*
X33901Y-13582D01*
X33920Y-13592D01*
X33929Y-13601D01*
X33939Y-13620D01*
X33948Y-13657D01*
X33948Y-13704D01*
X33939Y-13742D01*
X33929Y-13760D01*
X33920Y-13770D01*
X33901Y-13779D01*
X33882Y-13779D01*
X33864Y-13770D01*
X33854Y-13760D01*
X33845Y-13742D01*
X33835Y-13704D01*
X33835Y-13657D01*
X33845Y-13620D01*
X33854Y-13601D01*
X33864Y-13592D01*
X33882Y-13582D01*
G54D13*
X33000Y-9921D02*
X32900Y-9778D01*
X32828Y-9921D02*
X32828Y-9621D01*
X32942Y-9621D01*
X32971Y-9635D01*
X32985Y-9650D01*
X33000Y-9678D01*
X33000Y-9721D01*
X32985Y-9750D01*
X32971Y-9764D01*
X32942Y-9778D01*
X32828Y-9778D01*
X33142Y-9921D02*
X33200Y-9921D01*
X33228Y-9907D01*
X33242Y-9892D01*
X33271Y-9850D01*
X33285Y-9792D01*
X33285Y-9678D01*
X33271Y-9650D01*
X33257Y-9635D01*
X33228Y-9621D01*
X33171Y-9621D01*
X33142Y-9635D01*
X33128Y-9650D01*
X33114Y-9678D01*
X33114Y-9750D01*
X33128Y-9778D01*
X33142Y-9792D01*
X33171Y-9807D01*
X33228Y-9807D01*
X33257Y-9792D01*
X33271Y-9778D01*
X33285Y-9750D01*
X32557Y-18371D02*
X32457Y-18228D01*
X32385Y-18371D02*
X32385Y-18071D01*
X32500Y-18071D01*
X32528Y-18085D01*
X32542Y-18100D01*
X32557Y-18128D01*
X32557Y-18171D01*
X32542Y-18200D01*
X32528Y-18214D01*
X32500Y-18228D01*
X32385Y-18228D01*
X32842Y-18371D02*
X32671Y-18371D01*
X32757Y-18371D02*
X32757Y-18071D01*
X32728Y-18114D01*
X32700Y-18142D01*
X32671Y-18157D01*
X32942Y-18071D02*
X33128Y-18071D01*
X33028Y-18185D01*
X33071Y-18185D01*
X33100Y-18200D01*
X33114Y-18214D01*
X33128Y-18242D01*
X33128Y-18314D01*
X33114Y-18342D01*
X33100Y-18357D01*
X33071Y-18371D01*
X32985Y-18371D01*
X32957Y-18357D01*
X32942Y-18342D01*
X33750Y-12171D02*
X33650Y-12028D01*
X33578Y-12171D02*
X33578Y-11871D01*
X33692Y-11871D01*
X33721Y-11885D01*
X33735Y-11900D01*
X33750Y-11928D01*
X33750Y-11971D01*
X33735Y-12000D01*
X33721Y-12014D01*
X33692Y-12028D01*
X33578Y-12028D01*
X34021Y-11871D02*
X33878Y-11871D01*
X33864Y-12014D01*
X33878Y-12000D01*
X33907Y-11985D01*
X33978Y-11985D01*
X34007Y-12000D01*
X34021Y-12014D01*
X34035Y-12042D01*
X34035Y-12114D01*
X34021Y-12142D01*
X34007Y-12157D01*
X33978Y-12171D01*
X33907Y-12171D01*
X33878Y-12157D01*
X33864Y-12142D01*
X35500Y-9892D02*
X35485Y-9907D01*
X35442Y-9921D01*
X35414Y-9921D01*
X35371Y-9907D01*
X35342Y-9878D01*
X35328Y-9850D01*
X35314Y-9792D01*
X35314Y-9750D01*
X35328Y-9692D01*
X35342Y-9664D01*
X35371Y-9635D01*
X35414Y-9621D01*
X35442Y-9621D01*
X35485Y-9635D01*
X35500Y-9650D01*
X35671Y-9750D02*
X35642Y-9735D01*
X35628Y-9721D01*
X35614Y-9692D01*
X35614Y-9678D01*
X35628Y-9650D01*
X35642Y-9635D01*
X35671Y-9621D01*
X35728Y-9621D01*
X35757Y-9635D01*
X35771Y-9650D01*
X35785Y-9678D01*
X35785Y-9692D01*
X35771Y-9721D01*
X35757Y-9735D01*
X35728Y-9750D01*
X35671Y-9750D01*
X35642Y-9764D01*
X35628Y-9778D01*
X35614Y-9807D01*
X35614Y-9864D01*
X35628Y-9892D01*
X35642Y-9907D01*
X35671Y-9921D01*
X35728Y-9921D01*
X35757Y-9907D01*
X35771Y-9892D01*
X35785Y-9864D01*
X35785Y-9807D01*
X35771Y-9778D01*
X35757Y-9764D01*
X35728Y-9750D01*
X33350Y-15821D02*
X33250Y-15678D01*
X33178Y-15821D02*
X33178Y-15521D01*
X33292Y-15521D01*
X33321Y-15535D01*
X33335Y-15550D01*
X33350Y-15578D01*
X33350Y-15621D01*
X33335Y-15650D01*
X33321Y-15664D01*
X33292Y-15678D01*
X33178Y-15678D01*
X33607Y-15521D02*
X33550Y-15521D01*
X33521Y-15535D01*
X33507Y-15550D01*
X33478Y-15592D01*
X33464Y-15650D01*
X33464Y-15764D01*
X33478Y-15792D01*
X33492Y-15807D01*
X33521Y-15821D01*
X33578Y-15821D01*
X33607Y-15807D01*
X33621Y-15792D01*
X33635Y-15764D01*
X33635Y-15692D01*
X33621Y-15664D01*
X33607Y-15650D01*
X33578Y-15635D01*
X33521Y-15635D01*
X33492Y-15650D01*
X33478Y-15664D01*
X33464Y-15692D01*
X35400Y-12142D02*
X35385Y-12157D01*
X35342Y-12171D01*
X35314Y-12171D01*
X35271Y-12157D01*
X35242Y-12128D01*
X35228Y-12100D01*
X35214Y-12042D01*
X35214Y-12000D01*
X35228Y-11942D01*
X35242Y-11914D01*
X35271Y-11885D01*
X35314Y-11871D01*
X35342Y-11871D01*
X35385Y-11885D01*
X35400Y-11900D01*
X35671Y-11871D02*
X35528Y-11871D01*
X35514Y-12014D01*
X35528Y-12000D01*
X35557Y-11985D01*
X35628Y-11985D01*
X35657Y-12000D01*
X35671Y-12014D01*
X35685Y-12042D01*
X35685Y-12114D01*
X35671Y-12142D01*
X35657Y-12157D01*
X35628Y-12171D01*
X35557Y-12171D01*
X35528Y-12157D01*
X35514Y-12142D01*
X40854Y-15161D02*
X40762Y-15030D01*
X40696Y-15161D02*
X40696Y-14885D01*
X40801Y-14885D01*
X40827Y-14899D01*
X40840Y-14912D01*
X40854Y-14938D01*
X40854Y-14977D01*
X40840Y-15004D01*
X40827Y-15017D01*
X40801Y-15030D01*
X40696Y-15030D01*
X41011Y-15004D02*
X40985Y-14990D01*
X40972Y-14977D01*
X40959Y-14951D01*
X40959Y-14938D01*
X40972Y-14912D01*
X40985Y-14899D01*
X41011Y-14885D01*
X41064Y-14885D01*
X41090Y-14899D01*
X41103Y-14912D01*
X41116Y-14938D01*
X41116Y-14951D01*
X41103Y-14977D01*
X41090Y-14990D01*
X41064Y-15004D01*
X41011Y-15004D01*
X40985Y-15017D01*
X40972Y-15030D01*
X40959Y-15056D01*
X40959Y-15109D01*
X40972Y-15135D01*
X40985Y-15148D01*
X41011Y-15161D01*
X41064Y-15161D01*
X41090Y-15148D01*
X41103Y-15135D01*
X41116Y-15109D01*
X41116Y-15056D01*
X41103Y-15030D01*
X41090Y-15017D01*
X41064Y-15004D01*
X40854Y-14011D02*
X40762Y-13880D01*
X40696Y-14011D02*
X40696Y-13735D01*
X40801Y-13735D01*
X40827Y-13749D01*
X40840Y-13762D01*
X40854Y-13788D01*
X40854Y-13827D01*
X40840Y-13854D01*
X40827Y-13867D01*
X40801Y-13880D01*
X40696Y-13880D01*
X40945Y-13735D02*
X41129Y-13735D01*
X41011Y-14011D01*
X39550Y-12321D02*
X39450Y-12178D01*
X39378Y-12321D02*
X39378Y-12021D01*
X39492Y-12021D01*
X39521Y-12035D01*
X39535Y-12050D01*
X39550Y-12078D01*
X39550Y-12121D01*
X39535Y-12150D01*
X39521Y-12164D01*
X39492Y-12178D01*
X39378Y-12178D01*
X39807Y-12121D02*
X39807Y-12321D01*
X39735Y-12007D02*
X39664Y-12221D01*
X39850Y-12221D01*
X37250Y-12321D02*
X37150Y-12178D01*
X37078Y-12321D02*
X37078Y-12021D01*
X37192Y-12021D01*
X37221Y-12035D01*
X37235Y-12050D01*
X37250Y-12078D01*
X37250Y-12121D01*
X37235Y-12150D01*
X37221Y-12164D01*
X37192Y-12178D01*
X37078Y-12178D01*
X37350Y-12021D02*
X37535Y-12021D01*
X37435Y-12135D01*
X37478Y-12135D01*
X37507Y-12150D01*
X37521Y-12164D01*
X37535Y-12192D01*
X37535Y-12264D01*
X37521Y-12292D01*
X37507Y-12307D01*
X37478Y-12321D01*
X37392Y-12321D01*
X37364Y-12307D01*
X37350Y-12292D01*
X39550Y-11242D02*
X39535Y-11257D01*
X39492Y-11271D01*
X39464Y-11271D01*
X39421Y-11257D01*
X39392Y-11228D01*
X39378Y-11200D01*
X39364Y-11142D01*
X39364Y-11100D01*
X39378Y-11042D01*
X39392Y-11014D01*
X39421Y-10985D01*
X39464Y-10971D01*
X39492Y-10971D01*
X39535Y-10985D01*
X39550Y-11000D01*
X39650Y-10971D02*
X39835Y-10971D01*
X39735Y-11085D01*
X39778Y-11085D01*
X39807Y-11100D01*
X39821Y-11114D01*
X39835Y-11142D01*
X39835Y-11214D01*
X39821Y-11242D01*
X39807Y-11257D01*
X39778Y-11271D01*
X39692Y-11271D01*
X39664Y-11257D01*
X39650Y-11242D01*
X39550Y-10221D02*
X39450Y-10078D01*
X39378Y-10221D02*
X39378Y-9921D01*
X39492Y-9921D01*
X39521Y-9935D01*
X39535Y-9950D01*
X39550Y-9978D01*
X39550Y-10021D01*
X39535Y-10050D01*
X39521Y-10064D01*
X39492Y-10078D01*
X39378Y-10078D01*
X39664Y-9950D02*
X39678Y-9935D01*
X39707Y-9921D01*
X39778Y-9921D01*
X39807Y-9935D01*
X39821Y-9950D01*
X39835Y-9978D01*
X39835Y-10007D01*
X39821Y-10050D01*
X39650Y-10221D01*
X39835Y-10221D01*
X37250Y-10221D02*
X37150Y-10078D01*
X37078Y-10221D02*
X37078Y-9921D01*
X37192Y-9921D01*
X37221Y-9935D01*
X37235Y-9950D01*
X37250Y-9978D01*
X37250Y-10021D01*
X37235Y-10050D01*
X37221Y-10064D01*
X37192Y-10078D01*
X37078Y-10078D01*
X37535Y-10221D02*
X37364Y-10221D01*
X37450Y-10221D02*
X37450Y-9921D01*
X37421Y-9964D01*
X37392Y-9992D01*
X37364Y-10007D01*
X37250Y-11242D02*
X37235Y-11257D01*
X37192Y-11271D01*
X37164Y-11271D01*
X37121Y-11257D01*
X37092Y-11228D01*
X37078Y-11200D01*
X37064Y-11142D01*
X37064Y-11100D01*
X37078Y-11042D01*
X37092Y-11014D01*
X37121Y-10985D01*
X37164Y-10971D01*
X37192Y-10971D01*
X37235Y-10985D01*
X37250Y-11000D01*
X37364Y-11000D02*
X37378Y-10985D01*
X37407Y-10971D01*
X37478Y-10971D01*
X37507Y-10985D01*
X37521Y-11000D01*
X37535Y-11028D01*
X37535Y-11057D01*
X37521Y-11100D01*
X37350Y-11271D01*
X37535Y-11271D01*
G54D22*
X27367Y-14710D02*
X27357Y-14720D01*
X27329Y-14729D01*
X27310Y-14729D01*
X27282Y-14720D01*
X27263Y-14701D01*
X27254Y-14682D01*
X27245Y-14645D01*
X27245Y-14617D01*
X27254Y-14579D01*
X27263Y-14560D01*
X27282Y-14542D01*
X27310Y-14532D01*
X27329Y-14532D01*
X27357Y-14542D01*
X27367Y-14551D01*
X27536Y-14532D02*
X27498Y-14532D01*
X27479Y-14542D01*
X27470Y-14551D01*
X27451Y-14579D01*
X27442Y-14617D01*
X27442Y-14692D01*
X27451Y-14710D01*
X27460Y-14720D01*
X27479Y-14729D01*
X27517Y-14729D01*
X27536Y-14720D01*
X27545Y-14710D01*
X27554Y-14692D01*
X27554Y-14645D01*
X27545Y-14626D01*
X27536Y-14617D01*
X27517Y-14607D01*
X27479Y-14607D01*
X27460Y-14617D01*
X27451Y-14626D01*
X27442Y-14645D01*
X27976Y-14701D02*
X27985Y-14692D01*
X28004Y-14682D01*
X28051Y-14682D01*
X28070Y-14692D01*
X28079Y-14701D01*
X28088Y-14720D01*
X28088Y-14739D01*
X28079Y-14767D01*
X27966Y-14879D01*
X28088Y-14879D01*
X28210Y-14682D02*
X28229Y-14682D01*
X28248Y-14692D01*
X28257Y-14701D01*
X28267Y-14720D01*
X28276Y-14757D01*
X28276Y-14804D01*
X28267Y-14842D01*
X28257Y-14860D01*
X28248Y-14870D01*
X28229Y-14879D01*
X28210Y-14879D01*
X28192Y-14870D01*
X28182Y-14860D01*
X28173Y-14842D01*
X28163Y-14804D01*
X28163Y-14757D01*
X28173Y-14720D01*
X28182Y-14701D01*
X28192Y-14692D01*
X28210Y-14682D01*
X28360Y-14748D02*
X28360Y-14945D01*
X28360Y-14757D02*
X28379Y-14748D01*
X28417Y-14748D01*
X28436Y-14757D01*
X28445Y-14767D01*
X28454Y-14785D01*
X28454Y-14842D01*
X28445Y-14860D01*
X28436Y-14870D01*
X28417Y-14879D01*
X28379Y-14879D01*
X28360Y-14870D01*
X28604Y-14776D02*
X28539Y-14776D01*
X28539Y-14879D02*
X28539Y-14682D01*
X28633Y-14682D01*
X30267Y-14710D02*
X30257Y-14720D01*
X30229Y-14729D01*
X30210Y-14729D01*
X30182Y-14720D01*
X30163Y-14701D01*
X30154Y-14682D01*
X30145Y-14645D01*
X30145Y-14617D01*
X30154Y-14579D01*
X30163Y-14560D01*
X30182Y-14542D01*
X30210Y-14532D01*
X30229Y-14532D01*
X30257Y-14542D01*
X30267Y-14551D01*
X30332Y-14532D02*
X30464Y-14532D01*
X30379Y-14729D01*
X30876Y-14401D02*
X30885Y-14392D01*
X30904Y-14382D01*
X30951Y-14382D01*
X30970Y-14392D01*
X30979Y-14401D01*
X30988Y-14420D01*
X30988Y-14439D01*
X30979Y-14467D01*
X30866Y-14579D01*
X30988Y-14579D01*
X31110Y-14382D02*
X31129Y-14382D01*
X31148Y-14392D01*
X31157Y-14401D01*
X31167Y-14420D01*
X31176Y-14457D01*
X31176Y-14504D01*
X31167Y-14542D01*
X31157Y-14560D01*
X31148Y-14570D01*
X31129Y-14579D01*
X31110Y-14579D01*
X31092Y-14570D01*
X31082Y-14560D01*
X31073Y-14542D01*
X31063Y-14504D01*
X31063Y-14457D01*
X31073Y-14420D01*
X31082Y-14401D01*
X31092Y-14392D01*
X31110Y-14382D01*
X31260Y-14448D02*
X31260Y-14645D01*
X31260Y-14457D02*
X31279Y-14448D01*
X31317Y-14448D01*
X31336Y-14457D01*
X31345Y-14467D01*
X31354Y-14485D01*
X31354Y-14542D01*
X31345Y-14560D01*
X31336Y-14570D01*
X31317Y-14579D01*
X31279Y-14579D01*
X31260Y-14570D01*
X31504Y-14476D02*
X31439Y-14476D01*
X31439Y-14579D02*
X31439Y-14382D01*
X31533Y-14382D01*
G54D15*
X29455Y-15282D02*
X29665Y-15597D01*
X29665Y-15282D02*
X29455Y-15597D01*
X29950Y-15597D02*
X29770Y-15597D01*
X29860Y-15597D02*
X29860Y-15282D01*
X29830Y-15327D01*
X29800Y-15357D01*
X29770Y-15372D01*
X29142Y-16926D02*
X29112Y-16911D01*
X29082Y-16881D01*
X29037Y-16836D01*
X29007Y-16821D01*
X28977Y-16821D01*
X28992Y-16896D02*
X28962Y-16881D01*
X28932Y-16851D01*
X28917Y-16791D01*
X28917Y-16686D01*
X28932Y-16626D01*
X28962Y-16596D01*
X28992Y-16581D01*
X29052Y-16581D01*
X29082Y-16596D01*
X29112Y-16626D01*
X29127Y-16686D01*
X29127Y-16791D01*
X29112Y-16851D01*
X29082Y-16881D01*
X29052Y-16896D01*
X28992Y-16896D01*
X29262Y-16581D02*
X29262Y-16836D01*
X29277Y-16866D01*
X29292Y-16881D01*
X29322Y-16896D01*
X29382Y-16896D01*
X29412Y-16881D01*
X29427Y-16866D01*
X29442Y-16836D01*
X29442Y-16581D01*
X29577Y-16806D02*
X29727Y-16806D01*
X29547Y-16896D02*
X29652Y-16581D01*
X29757Y-16896D01*
X30042Y-16896D02*
X29937Y-16746D01*
X29862Y-16896D02*
X29862Y-16581D01*
X29982Y-16581D01*
X30012Y-16596D01*
X30027Y-16611D01*
X30042Y-16641D01*
X30042Y-16686D01*
X30027Y-16716D01*
X30012Y-16731D01*
X29982Y-16746D01*
X29862Y-16746D01*
X30132Y-16581D02*
X30312Y-16581D01*
X30222Y-16896D02*
X30222Y-16581D01*
X30387Y-16581D02*
X30597Y-16581D01*
X30387Y-16896D01*
X30597Y-16896D01*
G54D16*
X40528Y-8671D02*
X40528Y-8371D01*
X40642Y-8371D01*
X40671Y-8385D01*
X40685Y-8400D01*
X40700Y-8428D01*
X40700Y-8471D01*
X40685Y-8500D01*
X40671Y-8514D01*
X40642Y-8528D01*
X40528Y-8528D01*
X40814Y-8400D02*
X40828Y-8385D01*
X40857Y-8371D01*
X40928Y-8371D01*
X40957Y-8385D01*
X40971Y-8400D01*
X40985Y-8428D01*
X40985Y-8457D01*
X40971Y-8500D01*
X40800Y-8671D01*
X40985Y-8671D01*
X35928Y-8671D02*
X35928Y-8371D01*
X36042Y-8371D01*
X36071Y-8385D01*
X36085Y-8400D01*
X36100Y-8428D01*
X36100Y-8471D01*
X36085Y-8500D01*
X36071Y-8514D01*
X36042Y-8528D01*
X35928Y-8528D01*
X36385Y-8671D02*
X36214Y-8671D01*
X36300Y-8671D02*
X36300Y-8371D01*
X36271Y-8414D01*
X36242Y-8442D01*
X36214Y-8457D01*
X26678Y-10821D02*
X26678Y-10521D01*
X26792Y-10521D01*
X26821Y-10535D01*
X26835Y-10550D01*
X26850Y-10578D01*
X26850Y-10621D01*
X26835Y-10650D01*
X26821Y-10664D01*
X26792Y-10678D01*
X26678Y-10678D01*
X26950Y-10521D02*
X27135Y-10521D01*
X27035Y-10635D01*
X27078Y-10635D01*
X27107Y-10650D01*
X27121Y-10664D01*
X27135Y-10692D01*
X27135Y-10764D01*
X27121Y-10792D01*
X27107Y-10807D01*
X27078Y-10821D01*
X26992Y-10821D01*
X26964Y-10807D01*
X26950Y-10792D01*
G54D23*
X34178Y-8721D02*
X34178Y-8421D01*
X34250Y-8421D01*
X34292Y-8435D01*
X34321Y-8464D01*
X34335Y-8492D01*
X34350Y-8550D01*
X34350Y-8592D01*
X34335Y-8650D01*
X34321Y-8678D01*
X34292Y-8707D01*
X34250Y-8721D01*
X34178Y-8721D01*
X34464Y-8450D02*
X34478Y-8435D01*
X34507Y-8421D01*
X34578Y-8421D01*
X34607Y-8435D01*
X34621Y-8450D01*
X34635Y-8478D01*
X34635Y-8507D01*
X34621Y-8550D01*
X34450Y-8721D01*
X34635Y-8721D01*
X33921Y-9942D02*
X33921Y-10085D01*
X33621Y-10085D01*
X33764Y-9842D02*
X33764Y-9742D01*
X33921Y-9700D02*
X33921Y-9842D01*
X33621Y-9842D01*
X33621Y-9700D01*
X33921Y-9571D02*
X33621Y-9571D01*
X33621Y-9500D01*
X33635Y-9457D01*
X33664Y-9428D01*
X33692Y-9414D01*
X33750Y-9400D01*
X33792Y-9400D01*
X33850Y-9414D01*
X33878Y-9428D01*
X33907Y-9457D01*
X33921Y-9500D01*
X33921Y-9571D01*
G54D24*
X30517Y-9860D02*
X30507Y-9870D01*
X30479Y-9879D01*
X30460Y-9879D01*
X30432Y-9870D01*
X30413Y-9851D01*
X30404Y-9832D01*
X30395Y-9795D01*
X30395Y-9767D01*
X30404Y-9729D01*
X30413Y-9710D01*
X30432Y-9692D01*
X30460Y-9682D01*
X30479Y-9682D01*
X30507Y-9692D01*
X30517Y-9701D01*
X30704Y-9879D02*
X30592Y-9879D01*
X30648Y-9879D02*
X30648Y-9682D01*
X30629Y-9710D01*
X30610Y-9729D01*
X30592Y-9739D01*
X31667Y-11610D02*
X31657Y-11620D01*
X31629Y-11629D01*
X31610Y-11629D01*
X31582Y-11620D01*
X31563Y-11601D01*
X31554Y-11582D01*
X31545Y-11545D01*
X31545Y-11517D01*
X31554Y-11479D01*
X31563Y-11460D01*
X31582Y-11442D01*
X31610Y-11432D01*
X31629Y-11432D01*
X31657Y-11442D01*
X31667Y-11451D01*
X31836Y-11498D02*
X31836Y-11629D01*
X31789Y-11423D02*
X31742Y-11564D01*
X31864Y-11564D01*
G54D13*
X27357Y-17771D02*
X27257Y-17628D01*
X27185Y-17771D02*
X27185Y-17471D01*
X27300Y-17471D01*
X27328Y-17485D01*
X27342Y-17500D01*
X27357Y-17528D01*
X27357Y-17571D01*
X27342Y-17600D01*
X27328Y-17614D01*
X27300Y-17628D01*
X27185Y-17628D01*
X27642Y-17771D02*
X27471Y-17771D01*
X27557Y-17771D02*
X27557Y-17471D01*
X27528Y-17514D01*
X27500Y-17542D01*
X27471Y-17557D01*
X27914Y-17471D02*
X27771Y-17471D01*
X27757Y-17614D01*
X27771Y-17600D01*
X27800Y-17585D01*
X27871Y-17585D01*
X27900Y-17600D01*
X27914Y-17614D01*
X27928Y-17642D01*
X27928Y-17714D01*
X27914Y-17742D01*
X27900Y-17757D01*
X27871Y-17771D01*
X27800Y-17771D01*
X27771Y-17757D01*
X27757Y-17742D01*
X29757Y-17771D02*
X29657Y-17628D01*
X29585Y-17771D02*
X29585Y-17471D01*
X29700Y-17471D01*
X29728Y-17485D01*
X29742Y-17500D01*
X29757Y-17528D01*
X29757Y-17571D01*
X29742Y-17600D01*
X29728Y-17614D01*
X29700Y-17628D01*
X29585Y-17628D01*
X30042Y-17771D02*
X29871Y-17771D01*
X29957Y-17771D02*
X29957Y-17471D01*
X29928Y-17514D01*
X29900Y-17542D01*
X29871Y-17557D01*
X30300Y-17471D02*
X30242Y-17471D01*
X30214Y-17485D01*
X30200Y-17500D01*
X30171Y-17542D01*
X30157Y-17600D01*
X30157Y-17714D01*
X30171Y-17742D01*
X30185Y-17757D01*
X30214Y-17771D01*
X30271Y-17771D01*
X30300Y-17757D01*
X30314Y-17742D01*
X30328Y-17714D01*
X30328Y-17642D01*
X30314Y-17614D01*
X30300Y-17600D01*
X30271Y-17585D01*
X30214Y-17585D01*
X30185Y-17600D01*
X30171Y-17614D01*
X30157Y-17642D01*
X37392Y-16692D02*
X36792Y-16692D01*
X36792Y-16550D01*
X36821Y-16464D01*
X36878Y-16407D01*
X36935Y-16378D01*
X37050Y-16350D01*
X37135Y-16350D01*
X37250Y-16378D01*
X37307Y-16407D01*
X37364Y-16464D01*
X37392Y-16550D01*
X37392Y-16692D01*
X37392Y-15778D02*
X37392Y-16121D01*
X37392Y-15950D02*
X36792Y-15950D01*
X36878Y-16007D01*
X36935Y-16064D01*
X36964Y-16121D01*
X36892Y-17114D02*
X36292Y-17114D01*
X36578Y-17114D02*
X36578Y-16828D01*
X36892Y-16828D02*
X36292Y-16828D01*
X36892Y-16590D02*
X36292Y-16590D01*
X36892Y-16352D02*
X36292Y-16352D01*
X36292Y-16161D01*
X36321Y-16114D01*
X36350Y-16090D01*
X36407Y-16066D01*
X36492Y-16066D01*
X36550Y-16090D01*
X36578Y-16114D01*
X36607Y-16161D01*
X36607Y-16352D01*
X36892Y-15828D02*
X36892Y-15733D01*
X36864Y-15685D01*
X36835Y-15661D01*
X36750Y-15614D01*
X36635Y-15590D01*
X36407Y-15590D01*
X36350Y-15614D01*
X36321Y-15638D01*
X36292Y-15685D01*
X36292Y-15780D01*
X36321Y-15828D01*
X36350Y-15852D01*
X36407Y-15876D01*
X36550Y-15876D01*
X36607Y-15852D01*
X36635Y-15828D01*
X36664Y-15780D01*
X36664Y-15685D01*
X36635Y-15638D01*
X36607Y-15614D01*
X36550Y-15590D01*
X36292Y-15280D02*
X36292Y-15233D01*
X36321Y-15185D01*
X36350Y-15161D01*
X36407Y-15138D01*
X36521Y-15114D01*
X36664Y-15114D01*
X36778Y-15138D01*
X36835Y-15161D01*
X36864Y-15185D01*
X36892Y-15233D01*
X36892Y-15280D01*
X36864Y-15328D01*
X36835Y-15352D01*
X36778Y-15376D01*
X36664Y-15400D01*
X36521Y-15400D01*
X36407Y-15376D01*
X36350Y-15352D01*
X36321Y-15328D01*
X36292Y-15280D01*
X36892Y-14638D02*
X36892Y-14923D01*
X36892Y-14780D02*
X36292Y-14780D01*
X36378Y-14828D01*
X36435Y-14876D01*
X36464Y-14923D01*
X36892Y-14161D02*
X36892Y-14447D01*
X36892Y-14304D02*
X36292Y-14304D01*
X36378Y-14352D01*
X36435Y-14400D01*
X36464Y-14447D01*
G54D25*
X39204Y-19711D02*
X39204Y-19311D01*
X39357Y-19311D01*
X39395Y-19330D01*
X39414Y-19350D01*
X39433Y-19388D01*
X39433Y-19445D01*
X39414Y-19483D01*
X39395Y-19502D01*
X39357Y-19521D01*
X39204Y-19521D01*
X39776Y-19445D02*
X39776Y-19711D01*
X39680Y-19292D02*
X39585Y-19578D01*
X39833Y-19578D01*
G54D16*
X31028Y-21471D02*
X31028Y-21171D01*
X31142Y-21171D01*
X31171Y-21185D01*
X31185Y-21200D01*
X31200Y-21228D01*
X31200Y-21271D01*
X31185Y-21300D01*
X31171Y-21314D01*
X31142Y-21328D01*
X31028Y-21328D01*
X31471Y-21171D02*
X31328Y-21171D01*
X31314Y-21314D01*
X31328Y-21300D01*
X31357Y-21285D01*
X31428Y-21285D01*
X31457Y-21300D01*
X31471Y-21314D01*
X31485Y-21342D01*
X31485Y-21414D01*
X31471Y-21442D01*
X31457Y-21457D01*
X31428Y-21471D01*
X31357Y-21471D01*
X31328Y-21457D01*
X31314Y-21442D01*
X28478Y-21471D02*
X28478Y-21171D01*
X28592Y-21171D01*
X28621Y-21185D01*
X28635Y-21200D01*
X28650Y-21228D01*
X28650Y-21271D01*
X28635Y-21300D01*
X28621Y-21314D01*
X28592Y-21328D01*
X28478Y-21328D01*
X28907Y-21171D02*
X28850Y-21171D01*
X28821Y-21185D01*
X28807Y-21200D01*
X28778Y-21242D01*
X28764Y-21300D01*
X28764Y-21414D01*
X28778Y-21442D01*
X28792Y-21457D01*
X28821Y-21471D01*
X28878Y-21471D01*
X28907Y-21457D01*
X28921Y-21442D01*
X28935Y-21414D01*
X28935Y-21342D01*
X28921Y-21314D01*
X28907Y-21300D01*
X28878Y-21285D01*
X28821Y-21285D01*
X28792Y-21300D01*
X28778Y-21314D01*
X28764Y-21342D01*
G54D26*
M02*
