G04 (created by PCBNEW (2013-07-07 BZR 4022)-stable) date 10/06/2014 08:12:37*
%MOIN*%
G04 Gerber Fmt 3.4, Leading zero omitted, Abs format*
%FSLAX34Y34*%
G01*
G70*
G90*
G04 APERTURE LIST*
%ADD10C,0.00590551*%
%ADD11C,0.08*%
%ADD12C,0.14063*%
%ADD13C,0.18*%
%ADD14C,0.0790551*%
%ADD15C,0.122362*%
%ADD16C,0.106614*%
%ADD17C,0.165669*%
G04 APERTURE END LIST*
G54D10*
G54D11*
X51500Y-32000D03*
X50500Y-32000D03*
X49500Y-32000D03*
X48500Y-32000D03*
X47500Y-32000D03*
X46500Y-32000D03*
X45500Y-32000D03*
X44500Y-32000D03*
X43500Y-32000D03*
X42500Y-32000D03*
X41500Y-32000D03*
X40500Y-32000D03*
X39500Y-32000D03*
X38500Y-32000D03*
X37500Y-32000D03*
X36500Y-32000D03*
X35500Y-32000D03*
X34500Y-32000D03*
X33500Y-32000D03*
X51500Y-33000D03*
X50500Y-33000D03*
X49500Y-33000D03*
X48500Y-33000D03*
X47500Y-33000D03*
X46500Y-33000D03*
X45500Y-33000D03*
X44500Y-33000D03*
X43500Y-33000D03*
X42500Y-33000D03*
X41500Y-33000D03*
X40500Y-33000D03*
X39500Y-33000D03*
X38500Y-33000D03*
X37500Y-33000D03*
X36500Y-33000D03*
X35500Y-33000D03*
X34500Y-33000D03*
X33500Y-33000D03*
X51500Y-29750D03*
X50500Y-29750D03*
X49500Y-29750D03*
X48500Y-29750D03*
X47500Y-29750D03*
X46500Y-29750D03*
X45500Y-29750D03*
X44500Y-29750D03*
X43500Y-29750D03*
X42500Y-29750D03*
X41500Y-29750D03*
X40500Y-29750D03*
X39500Y-29750D03*
X38500Y-29750D03*
X37500Y-29750D03*
X36500Y-29750D03*
X35500Y-29750D03*
X34500Y-29750D03*
X33500Y-29750D03*
X51500Y-30750D03*
X50500Y-30750D03*
X49500Y-30750D03*
X48500Y-30750D03*
X47500Y-30750D03*
X46500Y-30750D03*
X45500Y-30750D03*
X44500Y-30750D03*
X43500Y-30750D03*
X42500Y-30750D03*
X41500Y-30750D03*
X40500Y-30750D03*
X39500Y-30750D03*
X38500Y-30750D03*
X37500Y-30750D03*
X36500Y-30750D03*
X35500Y-30750D03*
X34500Y-30750D03*
X33500Y-30750D03*
X51500Y-27500D03*
X50500Y-27500D03*
X49500Y-27500D03*
X48500Y-27500D03*
X47500Y-27500D03*
X46500Y-27500D03*
X45500Y-27500D03*
X44500Y-27500D03*
X43500Y-27500D03*
X42500Y-27500D03*
X41500Y-27500D03*
X40500Y-27500D03*
X39500Y-27500D03*
X38500Y-27500D03*
X37500Y-27500D03*
X36500Y-27500D03*
X35500Y-27500D03*
X34500Y-27500D03*
X33500Y-27500D03*
X51500Y-28500D03*
X50500Y-28500D03*
X49500Y-28500D03*
X48500Y-28500D03*
X47500Y-28500D03*
X46500Y-28500D03*
X45500Y-28500D03*
X44500Y-28500D03*
X43500Y-28500D03*
X42500Y-28500D03*
X41500Y-28500D03*
X40500Y-28500D03*
X39500Y-28500D03*
X38500Y-28500D03*
X37500Y-28500D03*
X36500Y-28500D03*
X35500Y-28500D03*
X34500Y-28500D03*
X33500Y-28500D03*
X51500Y-25250D03*
X50500Y-25250D03*
X49500Y-25250D03*
X48500Y-25250D03*
X47500Y-25250D03*
X46500Y-25250D03*
X45500Y-25250D03*
X44500Y-25250D03*
X43500Y-25250D03*
X42500Y-25250D03*
X41500Y-25250D03*
X40500Y-25250D03*
X39500Y-25250D03*
X38500Y-25250D03*
X37500Y-25250D03*
X36500Y-25250D03*
X35500Y-25250D03*
X34500Y-25250D03*
X33500Y-25250D03*
X51500Y-26250D03*
X50500Y-26250D03*
X49500Y-26250D03*
X48500Y-26250D03*
X47500Y-26250D03*
X46500Y-26250D03*
X45500Y-26250D03*
X44500Y-26250D03*
X43500Y-26250D03*
X42500Y-26250D03*
X41500Y-26250D03*
X40500Y-26250D03*
X39500Y-26250D03*
X38500Y-26250D03*
X37500Y-26250D03*
X36500Y-26250D03*
X35500Y-26250D03*
X34500Y-26250D03*
X33500Y-26250D03*
G54D12*
X26500Y-28000D03*
X26500Y-26000D03*
X30500Y-28000D03*
X30500Y-26000D03*
X28500Y-30500D03*
X28500Y-32500D03*
X26500Y-32500D03*
X26500Y-30500D03*
X30500Y-30500D03*
X30500Y-32500D03*
G54D11*
X57750Y-28500D03*
X58750Y-28500D03*
X59750Y-28500D03*
X60750Y-28500D03*
X61750Y-28500D03*
X62750Y-28500D03*
X63750Y-28500D03*
X64750Y-28500D03*
X57750Y-27500D03*
X58750Y-27500D03*
X59750Y-27500D03*
X60750Y-27500D03*
X61750Y-27500D03*
X62750Y-27500D03*
X63750Y-27500D03*
X64750Y-27500D03*
X57750Y-30750D03*
X58750Y-30750D03*
X59750Y-30750D03*
X60750Y-30750D03*
X61750Y-30750D03*
X62750Y-30750D03*
X63750Y-30750D03*
X64750Y-30750D03*
X57750Y-29750D03*
X58750Y-29750D03*
X59750Y-29750D03*
X60750Y-29750D03*
X61750Y-29750D03*
X62750Y-29750D03*
X63750Y-29750D03*
X64750Y-29750D03*
X57750Y-33000D03*
X58750Y-33000D03*
X59750Y-33000D03*
X60750Y-33000D03*
X61750Y-33000D03*
X62750Y-33000D03*
X63750Y-33000D03*
X64750Y-33000D03*
X57750Y-32000D03*
X58750Y-32000D03*
X59750Y-32000D03*
X60750Y-32000D03*
X61750Y-32000D03*
X62750Y-32000D03*
X63750Y-32000D03*
X64750Y-32000D03*
X57750Y-26250D03*
X58750Y-26250D03*
X59750Y-26250D03*
X60750Y-26250D03*
X61750Y-26250D03*
X62750Y-26250D03*
X63750Y-26250D03*
X64750Y-26250D03*
X57750Y-25250D03*
X58750Y-25250D03*
X59750Y-25250D03*
X60750Y-25250D03*
X61750Y-25250D03*
X62750Y-25250D03*
X63750Y-25250D03*
X64750Y-25250D03*
G54D12*
X74000Y-28000D03*
X74000Y-26000D03*
X72000Y-32500D03*
X72000Y-30500D03*
X68000Y-32500D03*
X68000Y-30500D03*
X74000Y-32500D03*
X74000Y-30500D03*
X70000Y-32500D03*
X70000Y-30500D03*
X72000Y-28000D03*
X72000Y-26000D03*
X70000Y-26000D03*
X70000Y-28000D03*
X68000Y-28000D03*
X68000Y-26000D03*
X55000Y-26500D03*
X55000Y-28500D03*
G54D13*
X22750Y-24250D03*
X54750Y-24250D03*
X77750Y-24250D03*
X54750Y-32750D03*
G54D14*
X42522Y-40505D03*
X43522Y-40505D03*
X45522Y-40505D03*
X44522Y-40505D03*
X46522Y-40505D03*
X38522Y-40505D03*
X39522Y-40505D03*
X41522Y-40505D03*
X40522Y-40505D03*
X36522Y-40505D03*
X37522Y-40505D03*
X35522Y-40505D03*
X50522Y-37123D03*
X49522Y-37123D03*
X34522Y-40505D03*
X34522Y-39505D03*
X35522Y-39505D03*
X37522Y-39505D03*
X36522Y-39505D03*
X40522Y-39505D03*
X41522Y-39505D03*
X39522Y-39505D03*
X38522Y-39505D03*
X42522Y-36123D03*
X43522Y-36123D03*
X45522Y-36123D03*
X44522Y-36123D03*
X48522Y-36123D03*
X47522Y-36123D03*
X46522Y-36123D03*
X51522Y-37123D03*
G54D15*
X71357Y-38406D03*
X72499Y-39324D03*
X72499Y-36123D03*
X67892Y-36123D03*
X67892Y-39324D03*
X70176Y-36123D03*
X70176Y-39324D03*
X69034Y-38406D03*
G54D14*
X63810Y-36123D03*
X59810Y-36123D03*
X60810Y-36123D03*
X62810Y-36123D03*
X61810Y-36123D03*
X57810Y-36123D03*
X58810Y-36123D03*
X64810Y-36123D03*
X64810Y-37123D03*
X58810Y-37123D03*
X57810Y-37123D03*
X61810Y-37123D03*
X62810Y-37123D03*
X60810Y-37123D03*
X59810Y-37123D03*
X63810Y-37123D03*
X63810Y-40505D03*
X59810Y-40505D03*
X60810Y-40505D03*
X62810Y-40505D03*
X61810Y-40505D03*
X57810Y-40505D03*
X58810Y-40505D03*
X64810Y-40505D03*
X64810Y-39505D03*
X58810Y-39505D03*
X57810Y-39505D03*
X61810Y-39505D03*
X62810Y-39505D03*
X60810Y-39505D03*
X59810Y-39505D03*
X63810Y-39505D03*
X33522Y-39505D03*
X50522Y-39505D03*
X46522Y-39505D03*
X47522Y-39505D03*
X49522Y-39505D03*
X48522Y-39505D03*
X44522Y-39505D03*
X45522Y-39505D03*
X43522Y-39505D03*
X42522Y-39505D03*
X51522Y-39505D03*
X51522Y-40505D03*
X48522Y-40505D03*
X49522Y-40505D03*
X47522Y-40505D03*
X50522Y-40505D03*
X33522Y-40505D03*
X33522Y-37123D03*
X34522Y-37123D03*
X36522Y-37123D03*
X35522Y-37123D03*
X39522Y-37123D03*
X40522Y-37123D03*
X38522Y-37123D03*
X37522Y-37123D03*
X41522Y-37123D03*
X46522Y-37123D03*
X47522Y-37123D03*
X48522Y-37123D03*
X44522Y-37123D03*
X45522Y-37123D03*
X43522Y-37123D03*
X42522Y-37123D03*
X51522Y-36123D03*
X49522Y-36123D03*
X50522Y-36123D03*
X41522Y-36123D03*
X37522Y-36123D03*
X38522Y-36123D03*
X40522Y-36123D03*
X39522Y-36123D03*
X35522Y-36123D03*
X36522Y-36123D03*
X34522Y-36123D03*
X33522Y-36123D03*
G54D15*
X29270Y-38406D03*
X30412Y-39324D03*
X30412Y-36123D03*
G54D16*
X74251Y-38221D03*
X26298Y-38221D03*
G54D17*
X75215Y-41292D03*
G54D15*
X28129Y-39324D03*
X28129Y-36123D03*
G54D17*
X25333Y-41292D03*
G54D16*
X54664Y-41292D03*
M02*
