G04 (created by PCBNEW (2013-07-07 BZR 4022)-stable) date 28/05/2014 08:13:03*
%MOIN*%
G04 Gerber Fmt 3.4, Leading zero omitted, Abs format*
%FSLAX34Y34*%
G01*
G70*
G90*
G04 APERTURE LIST*
%ADD10C,0.00590551*%
%ADD11C,0.16*%
%ADD12C,0.1181*%
%ADD13R,0.055X0.055*%
%ADD14C,0.055*%
%ADD15R,0.035X0.055*%
%ADD16R,0.025X0.045*%
%ADD17C,0.02*%
%ADD18C,0.012*%
G04 APERTURE END LIST*
G54D10*
G54D11*
X38928Y-25707D03*
X43650Y-25650D03*
G54D12*
X44360Y-33507D03*
X38140Y-33507D03*
X43927Y-28193D03*
X38573Y-28193D03*
G54D13*
X40750Y-23750D03*
G54D14*
X41750Y-23750D03*
X42750Y-23750D03*
X43750Y-23750D03*
G54D13*
X38500Y-24000D03*
X41750Y-29000D03*
G54D14*
X40750Y-29000D03*
G54D15*
X41775Y-26000D03*
X41025Y-26000D03*
G54D16*
X41700Y-26000D03*
X41100Y-26000D03*
G54D17*
X42150Y-26000D03*
X42590Y-26160D03*
X41250Y-30750D03*
G54D18*
X41775Y-26000D02*
X42150Y-26000D01*
X42270Y-25560D02*
X42260Y-25560D01*
X42270Y-25560D02*
X42590Y-25880D01*
X42590Y-25880D02*
X42590Y-26160D01*
X41025Y-25675D02*
X41025Y-26000D01*
X41200Y-25500D02*
X41025Y-25675D01*
X42200Y-25500D02*
X41200Y-25500D01*
X42260Y-25560D02*
X42200Y-25500D01*
X41025Y-26000D02*
X41025Y-27225D01*
X40500Y-30750D02*
X41250Y-30750D01*
X39750Y-30000D02*
X40500Y-30750D01*
X39750Y-28500D02*
X39750Y-30000D01*
X41025Y-27225D02*
X39750Y-28500D01*
G54D10*
G36*
X44745Y-32832D02*
X44697Y-32812D01*
X44697Y-28040D01*
X44630Y-27877D01*
X44630Y-25455D01*
X44481Y-25095D01*
X44205Y-24819D01*
X43845Y-24670D01*
X43455Y-24669D01*
X43095Y-24818D01*
X42819Y-25094D01*
X42670Y-25454D01*
X42669Y-25844D01*
X42818Y-26204D01*
X43094Y-26480D01*
X43454Y-26629D01*
X43844Y-26630D01*
X44204Y-26481D01*
X44480Y-26205D01*
X44629Y-25845D01*
X44630Y-25455D01*
X44630Y-27877D01*
X44580Y-27757D01*
X44364Y-27540D01*
X44080Y-27422D01*
X43774Y-27422D01*
X43491Y-27539D01*
X43274Y-27755D01*
X43156Y-28039D01*
X43156Y-28345D01*
X43273Y-28628D01*
X43489Y-28845D01*
X43773Y-28963D01*
X44079Y-28963D01*
X44362Y-28846D01*
X44579Y-28630D01*
X44697Y-28346D01*
X44697Y-28040D01*
X44697Y-32812D01*
X44513Y-32736D01*
X44207Y-32736D01*
X43924Y-32853D01*
X43707Y-33069D01*
X43589Y-33353D01*
X43589Y-33659D01*
X43706Y-33942D01*
X43758Y-33995D01*
X42430Y-33995D01*
X42430Y-25944D01*
X42387Y-25841D01*
X42308Y-25762D01*
X42205Y-25720D01*
X42130Y-25719D01*
X42130Y-25689D01*
X42102Y-25623D01*
X42052Y-25572D01*
X41985Y-25545D01*
X41914Y-25544D01*
X41564Y-25544D01*
X41498Y-25572D01*
X41447Y-25622D01*
X41429Y-25665D01*
X41422Y-25672D01*
X41398Y-25729D01*
X41375Y-25673D01*
X41368Y-25666D01*
X41350Y-25623D01*
X41300Y-25573D01*
X41235Y-25546D01*
X41157Y-25546D01*
X41112Y-25591D01*
X41112Y-25862D01*
X41162Y-25862D01*
X41162Y-25887D01*
X41225Y-25887D01*
X41225Y-26112D01*
X41162Y-26112D01*
X41162Y-26137D01*
X41112Y-26137D01*
X41112Y-26408D01*
X41157Y-26453D01*
X41235Y-26453D01*
X41300Y-26426D01*
X41350Y-26376D01*
X41368Y-26333D01*
X41375Y-26326D01*
X41399Y-26270D01*
X41422Y-26326D01*
X41429Y-26334D01*
X41447Y-26376D01*
X41497Y-26427D01*
X41564Y-26454D01*
X41635Y-26455D01*
X41985Y-26455D01*
X42051Y-26427D01*
X42102Y-26377D01*
X42129Y-26310D01*
X42129Y-26279D01*
X42205Y-26280D01*
X42308Y-26237D01*
X42387Y-26158D01*
X42429Y-26055D01*
X42430Y-25944D01*
X42430Y-33995D01*
X42205Y-33995D01*
X42205Y-29239D01*
X42205Y-28689D01*
X42177Y-28623D01*
X42127Y-28572D01*
X42060Y-28545D01*
X41989Y-28544D01*
X41439Y-28544D01*
X41373Y-28572D01*
X41322Y-28622D01*
X41295Y-28689D01*
X41294Y-28760D01*
X41294Y-29310D01*
X41322Y-29376D01*
X41372Y-29427D01*
X41439Y-29454D01*
X41510Y-29455D01*
X42060Y-29455D01*
X42126Y-29427D01*
X42177Y-29377D01*
X42204Y-29310D01*
X42205Y-29239D01*
X42205Y-33995D01*
X41205Y-33995D01*
X41205Y-28909D01*
X41135Y-28742D01*
X41037Y-28643D01*
X41037Y-26358D01*
X41037Y-26112D01*
X41037Y-25887D01*
X41037Y-25641D01*
X40992Y-25596D01*
X40939Y-25596D01*
X40937Y-25597D01*
X40937Y-25591D01*
X40892Y-25546D01*
X40814Y-25546D01*
X40749Y-25573D01*
X40699Y-25623D01*
X40671Y-25689D01*
X40671Y-25760D01*
X40671Y-25817D01*
X40716Y-25862D01*
X40816Y-25862D01*
X40841Y-25887D01*
X41037Y-25887D01*
X41037Y-26112D01*
X40841Y-26112D01*
X40816Y-26137D01*
X40716Y-26137D01*
X40671Y-26182D01*
X40671Y-26239D01*
X40671Y-26310D01*
X40699Y-26376D01*
X40749Y-26426D01*
X40814Y-26453D01*
X40892Y-26453D01*
X40937Y-26408D01*
X40937Y-26402D01*
X40939Y-26403D01*
X40992Y-26403D01*
X41037Y-26358D01*
X41037Y-28643D01*
X41008Y-28614D01*
X40840Y-28545D01*
X40659Y-28544D01*
X40492Y-28614D01*
X40364Y-28741D01*
X40295Y-28909D01*
X40294Y-29090D01*
X40364Y-29257D01*
X40491Y-29385D01*
X40659Y-29454D01*
X40840Y-29455D01*
X41007Y-29385D01*
X41135Y-29258D01*
X41204Y-29090D01*
X41205Y-28909D01*
X41205Y-33995D01*
X39908Y-33995D01*
X39908Y-25512D01*
X39759Y-25152D01*
X39483Y-24876D01*
X39123Y-24727D01*
X38953Y-24727D01*
X38953Y-24239D01*
X38953Y-23760D01*
X38953Y-23689D01*
X38925Y-23623D01*
X38875Y-23573D01*
X38810Y-23546D01*
X38682Y-23546D01*
X38637Y-23591D01*
X38637Y-23862D01*
X38908Y-23862D01*
X38953Y-23817D01*
X38953Y-23760D01*
X38953Y-24239D01*
X38953Y-24182D01*
X38908Y-24137D01*
X38637Y-24137D01*
X38637Y-24408D01*
X38682Y-24453D01*
X38810Y-24453D01*
X38875Y-24426D01*
X38925Y-24376D01*
X38953Y-24310D01*
X38953Y-24239D01*
X38953Y-24727D01*
X38733Y-24726D01*
X38373Y-24875D01*
X38362Y-24886D01*
X38362Y-24408D01*
X38362Y-24137D01*
X38362Y-23862D01*
X38362Y-23591D01*
X38317Y-23546D01*
X38189Y-23546D01*
X38124Y-23573D01*
X38074Y-23623D01*
X38046Y-23689D01*
X38046Y-23760D01*
X38046Y-23817D01*
X38091Y-23862D01*
X38362Y-23862D01*
X38362Y-24137D01*
X38091Y-24137D01*
X38046Y-24182D01*
X38046Y-24239D01*
X38046Y-24310D01*
X38074Y-24376D01*
X38124Y-24426D01*
X38189Y-24453D01*
X38317Y-24453D01*
X38362Y-24408D01*
X38362Y-24886D01*
X38097Y-25151D01*
X37948Y-25511D01*
X37947Y-25901D01*
X38096Y-26261D01*
X38372Y-26537D01*
X38732Y-26686D01*
X39122Y-26687D01*
X39482Y-26538D01*
X39758Y-26262D01*
X39907Y-25902D01*
X39908Y-25512D01*
X39908Y-33995D01*
X39343Y-33995D01*
X39343Y-28040D01*
X39226Y-27757D01*
X39010Y-27540D01*
X38726Y-27422D01*
X38420Y-27422D01*
X38137Y-27539D01*
X37920Y-27755D01*
X37802Y-28039D01*
X37802Y-28345D01*
X37919Y-28628D01*
X38135Y-28845D01*
X38419Y-28963D01*
X38725Y-28963D01*
X39008Y-28846D01*
X39225Y-28630D01*
X39343Y-28346D01*
X39343Y-28040D01*
X39343Y-33995D01*
X38741Y-33995D01*
X38792Y-33944D01*
X38910Y-33660D01*
X38910Y-33354D01*
X38793Y-33071D01*
X38577Y-32854D01*
X38293Y-32736D01*
X37987Y-32736D01*
X37755Y-32832D01*
X37755Y-23505D01*
X40294Y-23505D01*
X40294Y-23510D01*
X40294Y-24060D01*
X40322Y-24126D01*
X40372Y-24177D01*
X40439Y-24204D01*
X40510Y-24205D01*
X41060Y-24205D01*
X41126Y-24177D01*
X41177Y-24127D01*
X41204Y-24060D01*
X41205Y-23989D01*
X41205Y-23505D01*
X41359Y-23505D01*
X41295Y-23659D01*
X41294Y-23840D01*
X41364Y-24007D01*
X41491Y-24135D01*
X41659Y-24204D01*
X41840Y-24205D01*
X42007Y-24135D01*
X42135Y-24008D01*
X42204Y-23840D01*
X42205Y-23659D01*
X42141Y-23505D01*
X42359Y-23505D01*
X42295Y-23659D01*
X42294Y-23840D01*
X42364Y-24007D01*
X42491Y-24135D01*
X42659Y-24204D01*
X42840Y-24205D01*
X43007Y-24135D01*
X43135Y-24008D01*
X43204Y-23840D01*
X43205Y-23659D01*
X43141Y-23505D01*
X43359Y-23505D01*
X43295Y-23659D01*
X43294Y-23840D01*
X43364Y-24007D01*
X43491Y-24135D01*
X43659Y-24204D01*
X43840Y-24205D01*
X44007Y-24135D01*
X44135Y-24008D01*
X44204Y-23840D01*
X44205Y-23659D01*
X44141Y-23505D01*
X44745Y-23505D01*
X44745Y-32832D01*
X44745Y-32832D01*
G37*
G54D18*
X44745Y-32832D02*
X44697Y-32812D01*
X44697Y-28040D01*
X44630Y-27877D01*
X44630Y-25455D01*
X44481Y-25095D01*
X44205Y-24819D01*
X43845Y-24670D01*
X43455Y-24669D01*
X43095Y-24818D01*
X42819Y-25094D01*
X42670Y-25454D01*
X42669Y-25844D01*
X42818Y-26204D01*
X43094Y-26480D01*
X43454Y-26629D01*
X43844Y-26630D01*
X44204Y-26481D01*
X44480Y-26205D01*
X44629Y-25845D01*
X44630Y-25455D01*
X44630Y-27877D01*
X44580Y-27757D01*
X44364Y-27540D01*
X44080Y-27422D01*
X43774Y-27422D01*
X43491Y-27539D01*
X43274Y-27755D01*
X43156Y-28039D01*
X43156Y-28345D01*
X43273Y-28628D01*
X43489Y-28845D01*
X43773Y-28963D01*
X44079Y-28963D01*
X44362Y-28846D01*
X44579Y-28630D01*
X44697Y-28346D01*
X44697Y-28040D01*
X44697Y-32812D01*
X44513Y-32736D01*
X44207Y-32736D01*
X43924Y-32853D01*
X43707Y-33069D01*
X43589Y-33353D01*
X43589Y-33659D01*
X43706Y-33942D01*
X43758Y-33995D01*
X42430Y-33995D01*
X42430Y-25944D01*
X42387Y-25841D01*
X42308Y-25762D01*
X42205Y-25720D01*
X42130Y-25719D01*
X42130Y-25689D01*
X42102Y-25623D01*
X42052Y-25572D01*
X41985Y-25545D01*
X41914Y-25544D01*
X41564Y-25544D01*
X41498Y-25572D01*
X41447Y-25622D01*
X41429Y-25665D01*
X41422Y-25672D01*
X41398Y-25729D01*
X41375Y-25673D01*
X41368Y-25666D01*
X41350Y-25623D01*
X41300Y-25573D01*
X41235Y-25546D01*
X41157Y-25546D01*
X41112Y-25591D01*
X41112Y-25862D01*
X41162Y-25862D01*
X41162Y-25887D01*
X41225Y-25887D01*
X41225Y-26112D01*
X41162Y-26112D01*
X41162Y-26137D01*
X41112Y-26137D01*
X41112Y-26408D01*
X41157Y-26453D01*
X41235Y-26453D01*
X41300Y-26426D01*
X41350Y-26376D01*
X41368Y-26333D01*
X41375Y-26326D01*
X41399Y-26270D01*
X41422Y-26326D01*
X41429Y-26334D01*
X41447Y-26376D01*
X41497Y-26427D01*
X41564Y-26454D01*
X41635Y-26455D01*
X41985Y-26455D01*
X42051Y-26427D01*
X42102Y-26377D01*
X42129Y-26310D01*
X42129Y-26279D01*
X42205Y-26280D01*
X42308Y-26237D01*
X42387Y-26158D01*
X42429Y-26055D01*
X42430Y-25944D01*
X42430Y-33995D01*
X42205Y-33995D01*
X42205Y-29239D01*
X42205Y-28689D01*
X42177Y-28623D01*
X42127Y-28572D01*
X42060Y-28545D01*
X41989Y-28544D01*
X41439Y-28544D01*
X41373Y-28572D01*
X41322Y-28622D01*
X41295Y-28689D01*
X41294Y-28760D01*
X41294Y-29310D01*
X41322Y-29376D01*
X41372Y-29427D01*
X41439Y-29454D01*
X41510Y-29455D01*
X42060Y-29455D01*
X42126Y-29427D01*
X42177Y-29377D01*
X42204Y-29310D01*
X42205Y-29239D01*
X42205Y-33995D01*
X41205Y-33995D01*
X41205Y-28909D01*
X41135Y-28742D01*
X41037Y-28643D01*
X41037Y-26358D01*
X41037Y-26112D01*
X41037Y-25887D01*
X41037Y-25641D01*
X40992Y-25596D01*
X40939Y-25596D01*
X40937Y-25597D01*
X40937Y-25591D01*
X40892Y-25546D01*
X40814Y-25546D01*
X40749Y-25573D01*
X40699Y-25623D01*
X40671Y-25689D01*
X40671Y-25760D01*
X40671Y-25817D01*
X40716Y-25862D01*
X40816Y-25862D01*
X40841Y-25887D01*
X41037Y-25887D01*
X41037Y-26112D01*
X40841Y-26112D01*
X40816Y-26137D01*
X40716Y-26137D01*
X40671Y-26182D01*
X40671Y-26239D01*
X40671Y-26310D01*
X40699Y-26376D01*
X40749Y-26426D01*
X40814Y-26453D01*
X40892Y-26453D01*
X40937Y-26408D01*
X40937Y-26402D01*
X40939Y-26403D01*
X40992Y-26403D01*
X41037Y-26358D01*
X41037Y-28643D01*
X41008Y-28614D01*
X40840Y-28545D01*
X40659Y-28544D01*
X40492Y-28614D01*
X40364Y-28741D01*
X40295Y-28909D01*
X40294Y-29090D01*
X40364Y-29257D01*
X40491Y-29385D01*
X40659Y-29454D01*
X40840Y-29455D01*
X41007Y-29385D01*
X41135Y-29258D01*
X41204Y-29090D01*
X41205Y-28909D01*
X41205Y-33995D01*
X39908Y-33995D01*
X39908Y-25512D01*
X39759Y-25152D01*
X39483Y-24876D01*
X39123Y-24727D01*
X38953Y-24727D01*
X38953Y-24239D01*
X38953Y-23760D01*
X38953Y-23689D01*
X38925Y-23623D01*
X38875Y-23573D01*
X38810Y-23546D01*
X38682Y-23546D01*
X38637Y-23591D01*
X38637Y-23862D01*
X38908Y-23862D01*
X38953Y-23817D01*
X38953Y-23760D01*
X38953Y-24239D01*
X38953Y-24182D01*
X38908Y-24137D01*
X38637Y-24137D01*
X38637Y-24408D01*
X38682Y-24453D01*
X38810Y-24453D01*
X38875Y-24426D01*
X38925Y-24376D01*
X38953Y-24310D01*
X38953Y-24239D01*
X38953Y-24727D01*
X38733Y-24726D01*
X38373Y-24875D01*
X38362Y-24886D01*
X38362Y-24408D01*
X38362Y-24137D01*
X38362Y-23862D01*
X38362Y-23591D01*
X38317Y-23546D01*
X38189Y-23546D01*
X38124Y-23573D01*
X38074Y-23623D01*
X38046Y-23689D01*
X38046Y-23760D01*
X38046Y-23817D01*
X38091Y-23862D01*
X38362Y-23862D01*
X38362Y-24137D01*
X38091Y-24137D01*
X38046Y-24182D01*
X38046Y-24239D01*
X38046Y-24310D01*
X38074Y-24376D01*
X38124Y-24426D01*
X38189Y-24453D01*
X38317Y-24453D01*
X38362Y-24408D01*
X38362Y-24886D01*
X38097Y-25151D01*
X37948Y-25511D01*
X37947Y-25901D01*
X38096Y-26261D01*
X38372Y-26537D01*
X38732Y-26686D01*
X39122Y-26687D01*
X39482Y-26538D01*
X39758Y-26262D01*
X39907Y-25902D01*
X39908Y-25512D01*
X39908Y-33995D01*
X39343Y-33995D01*
X39343Y-28040D01*
X39226Y-27757D01*
X39010Y-27540D01*
X38726Y-27422D01*
X38420Y-27422D01*
X38137Y-27539D01*
X37920Y-27755D01*
X37802Y-28039D01*
X37802Y-28345D01*
X37919Y-28628D01*
X38135Y-28845D01*
X38419Y-28963D01*
X38725Y-28963D01*
X39008Y-28846D01*
X39225Y-28630D01*
X39343Y-28346D01*
X39343Y-28040D01*
X39343Y-33995D01*
X38741Y-33995D01*
X38792Y-33944D01*
X38910Y-33660D01*
X38910Y-33354D01*
X38793Y-33071D01*
X38577Y-32854D01*
X38293Y-32736D01*
X37987Y-32736D01*
X37755Y-32832D01*
X37755Y-23505D01*
X40294Y-23505D01*
X40294Y-23510D01*
X40294Y-24060D01*
X40322Y-24126D01*
X40372Y-24177D01*
X40439Y-24204D01*
X40510Y-24205D01*
X41060Y-24205D01*
X41126Y-24177D01*
X41177Y-24127D01*
X41204Y-24060D01*
X41205Y-23989D01*
X41205Y-23505D01*
X41359Y-23505D01*
X41295Y-23659D01*
X41294Y-23840D01*
X41364Y-24007D01*
X41491Y-24135D01*
X41659Y-24204D01*
X41840Y-24205D01*
X42007Y-24135D01*
X42135Y-24008D01*
X42204Y-23840D01*
X42205Y-23659D01*
X42141Y-23505D01*
X42359Y-23505D01*
X42295Y-23659D01*
X42294Y-23840D01*
X42364Y-24007D01*
X42491Y-24135D01*
X42659Y-24204D01*
X42840Y-24205D01*
X43007Y-24135D01*
X43135Y-24008D01*
X43204Y-23840D01*
X43205Y-23659D01*
X43141Y-23505D01*
X43359Y-23505D01*
X43295Y-23659D01*
X43294Y-23840D01*
X43364Y-24007D01*
X43491Y-24135D01*
X43659Y-24204D01*
X43840Y-24205D01*
X44007Y-24135D01*
X44135Y-24008D01*
X44204Y-23840D01*
X44205Y-23659D01*
X44141Y-23505D01*
X44745Y-23505D01*
X44745Y-32832D01*
M02*
