G04 (created by PCBNEW (2013-07-07 BZR 4022)-stable) date 05/01/2015 10:26:05*
%MOIN*%
G04 Gerber Fmt 3.4, Leading zero omitted, Abs format*
%FSLAX34Y34*%
G01*
G70*
G90*
G04 APERTURE LIST*
%ADD10C,0.00590551*%
%ADD11C,0.005*%
%ADD12C,0.008*%
%ADD13C,0.0125*%
%ADD14C,0.012*%
%ADD15C,0.0075*%
G04 APERTURE END LIST*
G54D10*
G54D11*
X86450Y-61042D02*
X86464Y-61057D01*
X86507Y-61071D01*
X86535Y-61071D01*
X86578Y-61057D01*
X86607Y-61028D01*
X86621Y-61000D01*
X86635Y-60942D01*
X86635Y-60900D01*
X86621Y-60842D01*
X86607Y-60814D01*
X86578Y-60785D01*
X86535Y-60771D01*
X86507Y-60771D01*
X86464Y-60785D01*
X86450Y-60800D01*
X86335Y-61057D02*
X86292Y-61071D01*
X86221Y-61071D01*
X86192Y-61057D01*
X86178Y-61042D01*
X86164Y-61014D01*
X86164Y-60985D01*
X86178Y-60957D01*
X86192Y-60942D01*
X86221Y-60928D01*
X86278Y-60914D01*
X86307Y-60900D01*
X86321Y-60885D01*
X86335Y-60857D01*
X86335Y-60828D01*
X86321Y-60800D01*
X86307Y-60785D01*
X86278Y-60771D01*
X86207Y-60771D01*
X86164Y-60785D01*
X86728Y-55785D02*
X86757Y-55771D01*
X86800Y-55771D01*
X86842Y-55785D01*
X86871Y-55814D01*
X86885Y-55842D01*
X86900Y-55900D01*
X86900Y-55942D01*
X86885Y-56000D01*
X86871Y-56028D01*
X86842Y-56057D01*
X86800Y-56071D01*
X86771Y-56071D01*
X86728Y-56057D01*
X86714Y-56042D01*
X86714Y-55942D01*
X86771Y-55942D01*
X86585Y-56071D02*
X86585Y-55771D01*
X86414Y-56071D01*
X86414Y-55771D01*
X86271Y-56071D02*
X86271Y-55771D01*
X86200Y-55771D01*
X86157Y-55785D01*
X86128Y-55814D01*
X86114Y-55842D01*
X86100Y-55900D01*
X86100Y-55942D01*
X86114Y-56000D01*
X86128Y-56028D01*
X86157Y-56057D01*
X86200Y-56071D01*
X86271Y-56071D01*
X86749Y-59171D02*
X86749Y-58871D01*
X86607Y-59171D02*
X86607Y-58871D01*
X86435Y-59171D01*
X86435Y-58871D01*
X86135Y-59171D02*
X86307Y-59171D01*
X86221Y-59171D02*
X86221Y-58871D01*
X86249Y-58914D01*
X86278Y-58942D01*
X86307Y-58957D01*
X86749Y-58021D02*
X86749Y-57721D01*
X86607Y-58021D02*
X86607Y-57721D01*
X86435Y-58021D01*
X86435Y-57721D01*
X86307Y-57750D02*
X86292Y-57735D01*
X86264Y-57721D01*
X86192Y-57721D01*
X86164Y-57735D01*
X86149Y-57750D01*
X86135Y-57778D01*
X86135Y-57807D01*
X86149Y-57850D01*
X86321Y-58021D01*
X86135Y-58021D01*
X91352Y-56161D02*
X91485Y-55971D01*
X91580Y-56161D02*
X91580Y-55761D01*
X91428Y-55761D01*
X91390Y-55780D01*
X91371Y-55800D01*
X91352Y-55838D01*
X91352Y-55895D01*
X91371Y-55933D01*
X91390Y-55952D01*
X91428Y-55971D01*
X91580Y-55971D01*
X91104Y-55761D02*
X91066Y-55761D01*
X91028Y-55780D01*
X91009Y-55800D01*
X90990Y-55838D01*
X90971Y-55914D01*
X90971Y-56009D01*
X90990Y-56085D01*
X91009Y-56123D01*
X91028Y-56142D01*
X91066Y-56161D01*
X91104Y-56161D01*
X91142Y-56142D01*
X91161Y-56123D01*
X91180Y-56085D01*
X91200Y-56009D01*
X91200Y-55914D01*
X91180Y-55838D01*
X91161Y-55800D01*
X91142Y-55780D01*
X91104Y-55761D01*
X90800Y-56123D02*
X90780Y-56142D01*
X90800Y-56161D01*
X90819Y-56142D01*
X90800Y-56123D01*
X90800Y-56161D01*
X90400Y-56161D02*
X90628Y-56161D01*
X90514Y-56161D02*
X90514Y-55761D01*
X90552Y-55819D01*
X90590Y-55857D01*
X90628Y-55876D01*
X92761Y-56657D02*
X92571Y-56657D01*
X92799Y-56771D02*
X92666Y-56371D01*
X92533Y-56771D01*
X92342Y-56771D02*
X92380Y-56752D01*
X92399Y-56714D01*
X92399Y-56371D01*
X92247Y-56505D02*
X92095Y-56505D01*
X92190Y-56371D02*
X92190Y-56714D01*
X92171Y-56752D01*
X92133Y-56771D01*
X92095Y-56771D01*
X92057Y-56810D02*
X91752Y-56810D01*
X91657Y-56771D02*
X91657Y-56371D01*
X91657Y-56524D02*
X91619Y-56505D01*
X91542Y-56505D01*
X91504Y-56524D01*
X91485Y-56543D01*
X91466Y-56581D01*
X91466Y-56695D01*
X91485Y-56733D01*
X91504Y-56752D01*
X91542Y-56771D01*
X91619Y-56771D01*
X91657Y-56752D01*
X91295Y-56771D02*
X91295Y-56505D01*
X91295Y-56581D02*
X91276Y-56543D01*
X91257Y-56524D01*
X91219Y-56505D01*
X91180Y-56505D01*
X90895Y-56752D02*
X90933Y-56771D01*
X91009Y-56771D01*
X91047Y-56752D01*
X91066Y-56714D01*
X91066Y-56562D01*
X91047Y-56524D01*
X91009Y-56505D01*
X90933Y-56505D01*
X90895Y-56524D01*
X90876Y-56562D01*
X90876Y-56600D01*
X91066Y-56638D01*
X90533Y-56771D02*
X90533Y-56562D01*
X90552Y-56524D01*
X90590Y-56505D01*
X90666Y-56505D01*
X90704Y-56524D01*
X90533Y-56752D02*
X90571Y-56771D01*
X90666Y-56771D01*
X90704Y-56752D01*
X90723Y-56714D01*
X90723Y-56676D01*
X90704Y-56638D01*
X90666Y-56619D01*
X90571Y-56619D01*
X90533Y-56600D01*
X90342Y-56771D02*
X90342Y-56371D01*
X90304Y-56619D02*
X90190Y-56771D01*
X90190Y-56505D02*
X90342Y-56657D01*
X89961Y-56771D02*
X90000Y-56752D01*
X90019Y-56733D01*
X90038Y-56695D01*
X90038Y-56581D01*
X90019Y-56543D01*
X90000Y-56524D01*
X89961Y-56505D01*
X89904Y-56505D01*
X89866Y-56524D01*
X89847Y-56543D01*
X89828Y-56581D01*
X89828Y-56695D01*
X89847Y-56733D01*
X89866Y-56752D01*
X89904Y-56771D01*
X89961Y-56771D01*
X89485Y-56505D02*
X89485Y-56771D01*
X89657Y-56505D02*
X89657Y-56714D01*
X89638Y-56752D01*
X89600Y-56771D01*
X89542Y-56771D01*
X89504Y-56752D01*
X89485Y-56733D01*
X89352Y-56505D02*
X89200Y-56505D01*
X89295Y-56371D02*
X89295Y-56714D01*
X89276Y-56752D01*
X89238Y-56771D01*
X89200Y-56771D01*
G54D12*
X94783Y-56011D02*
X94649Y-56411D01*
X94516Y-56011D01*
X94154Y-56373D02*
X94173Y-56392D01*
X94230Y-56411D01*
X94269Y-56411D01*
X94326Y-56392D01*
X94364Y-56354D01*
X94383Y-56316D01*
X94402Y-56240D01*
X94402Y-56183D01*
X94383Y-56107D01*
X94364Y-56069D01*
X94326Y-56030D01*
X94269Y-56011D01*
X94230Y-56011D01*
X94173Y-56030D01*
X94154Y-56050D01*
X93754Y-56373D02*
X93773Y-56392D01*
X93830Y-56411D01*
X93869Y-56411D01*
X93926Y-56392D01*
X93964Y-56354D01*
X93983Y-56316D01*
X94002Y-56240D01*
X94002Y-56183D01*
X93983Y-56107D01*
X93964Y-56069D01*
X93926Y-56030D01*
X93869Y-56011D01*
X93830Y-56011D01*
X93773Y-56030D01*
X93754Y-56050D01*
X94478Y-57291D02*
X94402Y-57291D01*
X94364Y-57310D01*
X94326Y-57349D01*
X94307Y-57425D01*
X94307Y-57558D01*
X94326Y-57634D01*
X94364Y-57672D01*
X94402Y-57691D01*
X94478Y-57691D01*
X94516Y-57672D01*
X94554Y-57634D01*
X94573Y-57558D01*
X94573Y-57425D01*
X94554Y-57349D01*
X94516Y-57310D01*
X94478Y-57291D01*
X94154Y-57330D02*
X94135Y-57310D01*
X94097Y-57291D01*
X94002Y-57291D01*
X93964Y-57310D01*
X93945Y-57330D01*
X93926Y-57368D01*
X93926Y-57406D01*
X93945Y-57463D01*
X94173Y-57691D01*
X93926Y-57691D01*
X94478Y-59851D02*
X94402Y-59851D01*
X94364Y-59870D01*
X94326Y-59909D01*
X94307Y-59985D01*
X94307Y-60118D01*
X94326Y-60194D01*
X94364Y-60232D01*
X94402Y-60251D01*
X94478Y-60251D01*
X94516Y-60232D01*
X94554Y-60194D01*
X94573Y-60118D01*
X94573Y-59985D01*
X94554Y-59909D01*
X94516Y-59870D01*
X94478Y-59851D01*
X93926Y-60251D02*
X94154Y-60251D01*
X94040Y-60251D02*
X94040Y-59851D01*
X94078Y-59909D01*
X94116Y-59947D01*
X94154Y-59966D01*
X94554Y-61150D02*
X94592Y-61131D01*
X94650Y-61131D01*
X94707Y-61150D01*
X94745Y-61189D01*
X94764Y-61227D01*
X94783Y-61303D01*
X94783Y-61360D01*
X94764Y-61436D01*
X94745Y-61474D01*
X94707Y-61512D01*
X94650Y-61531D01*
X94611Y-61531D01*
X94554Y-61512D01*
X94535Y-61493D01*
X94535Y-61360D01*
X94611Y-61360D01*
X94364Y-61531D02*
X94364Y-61131D01*
X94135Y-61531D01*
X94135Y-61131D01*
X93945Y-61531D02*
X93945Y-61131D01*
X93849Y-61131D01*
X93792Y-61150D01*
X93754Y-61189D01*
X93735Y-61227D01*
X93716Y-61303D01*
X93716Y-61360D01*
X93735Y-61436D01*
X93754Y-61474D01*
X93792Y-61512D01*
X93849Y-61531D01*
X93945Y-61531D01*
G54D13*
X85000Y-59000D02*
X86000Y-59000D01*
X85000Y-60000D02*
X86000Y-60000D01*
G54D14*
X85000Y-59000D02*
X85000Y-60000D01*
X86000Y-60000D02*
X86000Y-59000D01*
G54D13*
X85000Y-61000D02*
X86000Y-61000D01*
X85000Y-62000D02*
X86000Y-62000D01*
G54D14*
X85000Y-61000D02*
X85000Y-62000D01*
X86000Y-62000D02*
X86000Y-61000D01*
G54D13*
X85000Y-56000D02*
X86000Y-56000D01*
X85000Y-57000D02*
X86000Y-57000D01*
G54D14*
X85000Y-56000D02*
X85000Y-57000D01*
X86000Y-57000D02*
X86000Y-56000D01*
G54D13*
X85000Y-57000D02*
X86000Y-57000D01*
X85000Y-58000D02*
X86000Y-58000D01*
G54D14*
X85000Y-57000D02*
X85000Y-58000D01*
X86000Y-58000D02*
X86000Y-57000D01*
X88250Y-61000D02*
X88250Y-62000D01*
X88250Y-62000D02*
X93250Y-62000D01*
X93250Y-62000D02*
X93250Y-61000D01*
X93250Y-61000D02*
X88250Y-61000D01*
X89250Y-61000D02*
X89250Y-62000D01*
G54D11*
X87157Y-59621D02*
X87157Y-59321D01*
X87042Y-59321D01*
X87014Y-59335D01*
X87000Y-59350D01*
X86985Y-59378D01*
X86985Y-59421D01*
X87000Y-59450D01*
X87014Y-59464D01*
X87042Y-59478D01*
X87157Y-59478D01*
X86700Y-59621D02*
X86871Y-59621D01*
X86785Y-59621D02*
X86785Y-59321D01*
X86814Y-59364D01*
X86842Y-59392D01*
X86871Y-59407D01*
X86514Y-59321D02*
X86485Y-59321D01*
X86457Y-59335D01*
X86442Y-59350D01*
X86428Y-59378D01*
X86414Y-59435D01*
X86414Y-59507D01*
X86428Y-59564D01*
X86442Y-59592D01*
X86457Y-59607D01*
X86485Y-59621D01*
X86514Y-59621D01*
X86542Y-59607D01*
X86557Y-59592D01*
X86571Y-59564D01*
X86585Y-59507D01*
X86585Y-59435D01*
X86571Y-59378D01*
X86557Y-59350D01*
X86542Y-59335D01*
X86514Y-59321D01*
X86314Y-59321D02*
X86128Y-59321D01*
X86228Y-59435D01*
X86185Y-59435D01*
X86157Y-59450D01*
X86142Y-59464D01*
X86128Y-59492D01*
X86128Y-59564D01*
X86142Y-59592D01*
X86157Y-59607D01*
X86185Y-59621D01*
X86271Y-59621D01*
X86300Y-59607D01*
X86314Y-59592D01*
X87157Y-61621D02*
X87157Y-61321D01*
X87042Y-61321D01*
X87014Y-61335D01*
X87000Y-61350D01*
X86985Y-61378D01*
X86985Y-61421D01*
X87000Y-61450D01*
X87014Y-61464D01*
X87042Y-61478D01*
X87157Y-61478D01*
X86700Y-61621D02*
X86871Y-61621D01*
X86785Y-61621D02*
X86785Y-61321D01*
X86814Y-61364D01*
X86842Y-61392D01*
X86871Y-61407D01*
X86514Y-61321D02*
X86485Y-61321D01*
X86457Y-61335D01*
X86442Y-61350D01*
X86428Y-61378D01*
X86414Y-61435D01*
X86414Y-61507D01*
X86428Y-61564D01*
X86442Y-61592D01*
X86457Y-61607D01*
X86485Y-61621D01*
X86514Y-61621D01*
X86542Y-61607D01*
X86557Y-61592D01*
X86571Y-61564D01*
X86585Y-61507D01*
X86585Y-61435D01*
X86571Y-61378D01*
X86557Y-61350D01*
X86542Y-61335D01*
X86514Y-61321D01*
X86157Y-61321D02*
X86214Y-61321D01*
X86242Y-61335D01*
X86257Y-61350D01*
X86285Y-61392D01*
X86300Y-61450D01*
X86300Y-61564D01*
X86285Y-61592D01*
X86271Y-61607D01*
X86242Y-61621D01*
X86185Y-61621D01*
X86157Y-61607D01*
X86142Y-61592D01*
X86128Y-61564D01*
X86128Y-61492D01*
X86142Y-61464D01*
X86157Y-61450D01*
X86185Y-61435D01*
X86242Y-61435D01*
X86271Y-61450D01*
X86285Y-61464D01*
X86300Y-61492D01*
X87107Y-56621D02*
X87107Y-56321D01*
X86992Y-56321D01*
X86964Y-56335D01*
X86950Y-56350D01*
X86935Y-56378D01*
X86935Y-56421D01*
X86950Y-56450D01*
X86964Y-56464D01*
X86992Y-56478D01*
X87107Y-56478D01*
X86650Y-56621D02*
X86821Y-56621D01*
X86735Y-56621D02*
X86735Y-56321D01*
X86764Y-56364D01*
X86792Y-56392D01*
X86821Y-56407D01*
X86464Y-56321D02*
X86435Y-56321D01*
X86407Y-56335D01*
X86392Y-56350D01*
X86378Y-56378D01*
X86364Y-56435D01*
X86364Y-56507D01*
X86378Y-56564D01*
X86392Y-56592D01*
X86407Y-56607D01*
X86435Y-56621D01*
X86464Y-56621D01*
X86492Y-56607D01*
X86507Y-56592D01*
X86521Y-56564D01*
X86535Y-56507D01*
X86535Y-56435D01*
X86521Y-56378D01*
X86507Y-56350D01*
X86492Y-56335D01*
X86464Y-56321D01*
X86078Y-56621D02*
X86250Y-56621D01*
X86164Y-56621D02*
X86164Y-56321D01*
X86192Y-56364D01*
X86221Y-56392D01*
X86250Y-56407D01*
X87157Y-57621D02*
X87157Y-57321D01*
X87042Y-57321D01*
X87014Y-57335D01*
X87000Y-57350D01*
X86985Y-57378D01*
X86985Y-57421D01*
X87000Y-57450D01*
X87014Y-57464D01*
X87042Y-57478D01*
X87157Y-57478D01*
X86700Y-57621D02*
X86871Y-57621D01*
X86785Y-57621D02*
X86785Y-57321D01*
X86814Y-57364D01*
X86842Y-57392D01*
X86871Y-57407D01*
X86514Y-57321D02*
X86485Y-57321D01*
X86457Y-57335D01*
X86442Y-57350D01*
X86428Y-57378D01*
X86414Y-57435D01*
X86414Y-57507D01*
X86428Y-57564D01*
X86442Y-57592D01*
X86457Y-57607D01*
X86485Y-57621D01*
X86514Y-57621D01*
X86542Y-57607D01*
X86557Y-57592D01*
X86571Y-57564D01*
X86585Y-57507D01*
X86585Y-57435D01*
X86571Y-57378D01*
X86557Y-57350D01*
X86542Y-57335D01*
X86514Y-57321D01*
X86300Y-57350D02*
X86285Y-57335D01*
X86257Y-57321D01*
X86185Y-57321D01*
X86157Y-57335D01*
X86142Y-57350D01*
X86128Y-57378D01*
X86128Y-57407D01*
X86142Y-57450D01*
X86314Y-57621D01*
X86128Y-57621D01*
G54D15*
X89257Y-60871D02*
X89257Y-60571D01*
X89142Y-60571D01*
X89114Y-60585D01*
X89100Y-60600D01*
X89085Y-60628D01*
X89085Y-60671D01*
X89100Y-60700D01*
X89114Y-60714D01*
X89142Y-60728D01*
X89257Y-60728D01*
X88800Y-60871D02*
X88971Y-60871D01*
X88885Y-60871D02*
X88885Y-60571D01*
X88914Y-60614D01*
X88942Y-60642D01*
X88971Y-60657D01*
X88614Y-60571D02*
X88585Y-60571D01*
X88557Y-60585D01*
X88542Y-60600D01*
X88528Y-60628D01*
X88514Y-60685D01*
X88514Y-60757D01*
X88528Y-60814D01*
X88542Y-60842D01*
X88557Y-60857D01*
X88585Y-60871D01*
X88614Y-60871D01*
X88642Y-60857D01*
X88657Y-60842D01*
X88671Y-60814D01*
X88685Y-60757D01*
X88685Y-60685D01*
X88671Y-60628D01*
X88657Y-60600D01*
X88642Y-60585D01*
X88614Y-60571D01*
X88257Y-60671D02*
X88257Y-60871D01*
X88328Y-60557D02*
X88400Y-60771D01*
X88214Y-60771D01*
M02*
