M48
;DRILL file {Pcbnew (2013-07-07 BZR 4022)-stable} date 05/01/2015 10:26:07
;FORMAT={-:-/ absolute / inch / decimal}
FMAT,2
INCH,TZ
T1C0.025
T2C0.040
%
G90
G05
M72
T1
X8.72Y-5.615
X8.72Y-5.675
X8.725Y-6.125
X8.73Y-5.975
X8.815Y-5.755
X8.9Y-5.6
X8.9Y-5.65
X8.975Y-5.75
X8.975Y-5.8
X8.975Y-5.85
X8.975Y-5.9
X8.975Y-5.95
X8.975Y-6.
X8.975Y-6.05
X9.Y-5.725
X9.Y-5.775
X9.Y-5.825
X9.Y-5.875
X9.Y-5.925
X9.Y-5.975
X9.Y-6.025
X9.Y-6.075
X9.025Y-5.75
X9.025Y-5.8
X9.025Y-5.85
X9.025Y-5.9
X9.025Y-5.95
X9.025Y-6.
X9.025Y-6.05
X9.05Y-5.725
X9.05Y-5.775
X9.05Y-5.825
X9.05Y-5.875
X9.05Y-5.925
X9.05Y-5.975
X9.05Y-6.025
X9.05Y-6.075
X9.075Y-5.75
X9.075Y-5.8
X9.075Y-5.85
X9.075Y-5.9
X9.075Y-5.95
X9.075Y-6.
X9.075Y-6.05
X9.1Y-5.725
X9.1Y-5.775
X9.1Y-5.825
X9.1Y-5.875
X9.1Y-5.925
X9.1Y-5.975
X9.1Y-6.025
X9.1Y-6.075
X9.125Y-5.75
X9.125Y-5.8
X9.125Y-5.85
X9.125Y-5.9
X9.125Y-5.95
X9.125Y-6.
X9.125Y-6.05
X9.15Y-5.725
X9.15Y-5.775
X9.15Y-5.825
X9.15Y-5.875
X9.15Y-5.925
X9.15Y-5.975
X9.15Y-6.025
X9.15Y-6.075
X9.175Y-5.75
X9.175Y-5.8
X9.175Y-5.85
X9.175Y-5.9
X9.175Y-5.95
X9.175Y-6.
X9.175Y-6.05
X9.2Y-5.725
X9.2Y-5.775
X9.2Y-5.825
X9.2Y-5.875
X9.2Y-5.925
X9.2Y-5.975
X9.2Y-6.025
X9.2Y-6.075
X9.35Y-6.125
X9.355Y-5.715
X9.455Y-5.715
T2
X8.55Y-5.65
X8.55Y-5.75
X8.55Y-5.95
X8.55Y-6.15
X8.875Y-6.15
X8.975Y-6.15
X9.075Y-6.15
X9.175Y-6.15
X9.275Y-6.15
X9.55Y-5.65
X9.55Y-5.75
X9.55Y-6.05
X9.55Y-6.15
T0
M30
