G04 (created by PCBNEW (2013-07-07 BZR 4022)-stable) date 05/01/2015 10:26:05*
%MOIN*%
G04 Gerber Fmt 3.4, Leading zero omitted, Abs format*
%FSLAX34Y34*%
G01*
G70*
G90*
G04 APERTURE LIST*
%ADD10C,0.00590551*%
%ADD11R,0.06X0.06*%
%ADD12C,0.06*%
%ADD13C,0.035*%
%ADD14C,0.012*%
%ADD15C,0.01*%
G04 APERTURE END LIST*
G54D10*
G54D11*
X85500Y-59500D03*
X85500Y-61500D03*
X85500Y-56500D03*
X85500Y-57500D03*
X95500Y-60500D03*
G54D12*
X95500Y-61500D03*
G54D11*
X95500Y-56500D03*
G54D12*
X95500Y-57500D03*
G54D11*
X88750Y-61500D03*
G54D12*
X89750Y-61500D03*
X90750Y-61500D03*
X91750Y-61500D03*
X92750Y-61500D03*
G54D13*
X90750Y-59000D03*
X90500Y-58750D03*
X90000Y-60750D03*
X90500Y-60750D03*
X91000Y-60750D03*
X91500Y-60750D03*
X92000Y-60750D03*
X91750Y-60500D03*
X91250Y-60500D03*
X90750Y-60500D03*
X90250Y-60500D03*
X89750Y-60500D03*
X90000Y-60250D03*
X90500Y-60250D03*
X91000Y-60250D03*
X91500Y-60250D03*
X92000Y-60250D03*
X91750Y-60000D03*
X91250Y-60000D03*
X90750Y-60000D03*
X90250Y-60000D03*
X89750Y-60000D03*
X90000Y-59750D03*
X90500Y-59750D03*
X91000Y-59750D03*
X91500Y-59750D03*
X92000Y-59750D03*
X91750Y-59500D03*
X91250Y-59500D03*
X90750Y-59500D03*
X90250Y-59500D03*
X89750Y-59500D03*
X92000Y-57250D03*
X90250Y-59000D03*
X90000Y-58750D03*
X89750Y-59000D03*
X90000Y-59250D03*
X90500Y-59250D03*
X91000Y-59250D03*
X91500Y-59250D03*
X92000Y-59250D03*
X91750Y-59000D03*
X91250Y-59000D03*
X91000Y-58750D03*
X91500Y-58750D03*
X92000Y-58750D03*
X91750Y-58500D03*
X91250Y-58500D03*
X90750Y-58500D03*
X90250Y-58500D03*
X89750Y-58500D03*
X90000Y-58250D03*
X90500Y-58250D03*
X91000Y-58250D03*
X91500Y-58250D03*
X92000Y-58250D03*
X91750Y-58000D03*
X91250Y-58000D03*
X90750Y-58000D03*
X90250Y-58000D03*
X89750Y-58000D03*
X90000Y-57750D03*
X90500Y-57750D03*
X91000Y-57750D03*
X91500Y-57750D03*
X92000Y-57750D03*
X91750Y-57500D03*
X91250Y-57500D03*
X90750Y-57500D03*
X90250Y-57500D03*
X89750Y-57500D03*
X90000Y-57250D03*
X90500Y-57250D03*
X91000Y-57250D03*
X91500Y-57250D03*
X93550Y-57150D03*
X94550Y-57150D03*
X87200Y-56750D03*
X87200Y-56150D03*
X87300Y-59750D03*
X87250Y-61250D03*
X89000Y-56000D03*
X89000Y-56500D03*
X93500Y-61250D03*
X88150Y-57550D03*
G54D14*
X90750Y-59000D02*
X90500Y-58750D01*
X90500Y-60750D02*
X90000Y-60750D01*
X91500Y-60750D02*
X91000Y-60750D01*
X91750Y-60500D02*
X92000Y-60750D01*
X90750Y-60500D02*
X91250Y-60500D01*
X89750Y-60500D02*
X90250Y-60500D01*
X90500Y-60250D02*
X90000Y-60250D01*
X91500Y-60250D02*
X91000Y-60250D01*
X91750Y-60000D02*
X92000Y-60250D01*
X90750Y-60000D02*
X91250Y-60000D01*
X89750Y-60000D02*
X90250Y-60000D01*
X90500Y-59750D02*
X90000Y-59750D01*
X91500Y-59750D02*
X91000Y-59750D01*
X91750Y-59500D02*
X92000Y-59750D01*
X90750Y-59500D02*
X91250Y-59500D01*
X89750Y-59500D02*
X90250Y-59500D01*
X90250Y-59000D02*
X90000Y-58750D01*
X89750Y-59000D02*
X90000Y-59250D01*
X90500Y-59250D02*
X91000Y-59250D01*
X91500Y-59250D02*
X92000Y-59250D01*
X91750Y-59000D02*
X91250Y-59000D01*
X91000Y-58750D02*
X91500Y-58750D01*
X92000Y-58750D02*
X91750Y-58500D01*
X91250Y-58500D02*
X90750Y-58500D01*
X90250Y-58500D02*
X89750Y-58500D01*
X90000Y-58250D02*
X90500Y-58250D01*
X91000Y-58250D02*
X91500Y-58250D01*
X92000Y-58250D02*
X91750Y-58000D01*
X91250Y-58000D02*
X90750Y-58000D01*
X90250Y-58000D02*
X89750Y-58000D01*
X90000Y-57750D02*
X90500Y-57750D01*
X91000Y-57750D02*
X91500Y-57750D01*
X92000Y-57750D02*
X91750Y-57500D01*
X91250Y-57500D02*
X90750Y-57500D01*
X90250Y-57500D02*
X89750Y-57500D01*
X90000Y-57250D02*
X90500Y-57250D01*
X91000Y-57250D02*
X91500Y-57250D01*
X87200Y-56150D02*
X87200Y-56750D01*
X89000Y-56000D02*
X89000Y-56500D01*
G54D10*
G36*
X95830Y-61830D02*
X95665Y-61830D01*
X95665Y-61140D01*
X95630Y-61086D01*
X95462Y-61068D01*
X95369Y-61086D01*
X95334Y-61140D01*
X95500Y-61305D01*
X95665Y-61140D01*
X95665Y-61830D01*
X95635Y-61830D01*
X95500Y-61694D01*
X95364Y-61830D01*
X95305Y-61830D01*
X95305Y-61500D01*
X95140Y-61334D01*
X95086Y-61369D01*
X95068Y-61537D01*
X95086Y-61630D01*
X95140Y-61665D01*
X95305Y-61500D01*
X95305Y-61830D01*
X93020Y-61830D01*
X93110Y-61741D01*
X93174Y-61584D01*
X93175Y-61415D01*
X93110Y-61259D01*
X92991Y-61139D01*
X92834Y-61075D01*
X92665Y-61074D01*
X92509Y-61139D01*
X92389Y-61258D01*
X92325Y-61415D01*
X92325Y-61435D01*
X92325Y-60685D01*
X92275Y-60566D01*
X92209Y-60499D01*
X92275Y-60434D01*
X92324Y-60314D01*
X92325Y-60185D01*
X92275Y-60066D01*
X92209Y-59999D01*
X92275Y-59934D01*
X92324Y-59814D01*
X92325Y-59685D01*
X92275Y-59566D01*
X92209Y-59499D01*
X92275Y-59434D01*
X92324Y-59314D01*
X92325Y-59185D01*
X92275Y-59066D01*
X92209Y-58999D01*
X92275Y-58934D01*
X92324Y-58814D01*
X92325Y-58685D01*
X92275Y-58566D01*
X92209Y-58499D01*
X92275Y-58434D01*
X92324Y-58314D01*
X92325Y-58185D01*
X92275Y-58066D01*
X92209Y-57999D01*
X92275Y-57934D01*
X92324Y-57814D01*
X92325Y-57685D01*
X92275Y-57566D01*
X92209Y-57499D01*
X92275Y-57434D01*
X92324Y-57314D01*
X92325Y-57185D01*
X92275Y-57066D01*
X92184Y-56974D01*
X92064Y-56925D01*
X91935Y-56924D01*
X91816Y-56974D01*
X91749Y-57040D01*
X91684Y-56974D01*
X91564Y-56925D01*
X91435Y-56924D01*
X91316Y-56974D01*
X91250Y-57040D01*
X91249Y-57040D01*
X91184Y-56974D01*
X91064Y-56925D01*
X90935Y-56924D01*
X90816Y-56974D01*
X90749Y-57040D01*
X90684Y-56974D01*
X90564Y-56925D01*
X90435Y-56924D01*
X90316Y-56974D01*
X90250Y-57040D01*
X90249Y-57040D01*
X90184Y-56974D01*
X90064Y-56925D01*
X89935Y-56924D01*
X89816Y-56974D01*
X89724Y-57065D01*
X89677Y-57178D01*
X89566Y-57224D01*
X89474Y-57315D01*
X89425Y-57435D01*
X89424Y-57564D01*
X89474Y-57683D01*
X89540Y-57750D01*
X89474Y-57815D01*
X89425Y-57935D01*
X89424Y-58064D01*
X89474Y-58183D01*
X89540Y-58250D01*
X89474Y-58315D01*
X89425Y-58435D01*
X89424Y-58564D01*
X89474Y-58683D01*
X89540Y-58750D01*
X89474Y-58815D01*
X89425Y-58935D01*
X89424Y-59064D01*
X89474Y-59183D01*
X89540Y-59250D01*
X89474Y-59315D01*
X89425Y-59435D01*
X89424Y-59564D01*
X89474Y-59683D01*
X89540Y-59750D01*
X89474Y-59815D01*
X89425Y-59935D01*
X89424Y-60064D01*
X89474Y-60183D01*
X89540Y-60250D01*
X89474Y-60315D01*
X89425Y-60435D01*
X89424Y-60564D01*
X89474Y-60683D01*
X89565Y-60775D01*
X89678Y-60822D01*
X89724Y-60933D01*
X89815Y-61025D01*
X89935Y-61074D01*
X90064Y-61075D01*
X90183Y-61025D01*
X90249Y-60960D01*
X90250Y-60960D01*
X90315Y-61025D01*
X90435Y-61074D01*
X90564Y-61075D01*
X90683Y-61025D01*
X90750Y-60959D01*
X90815Y-61025D01*
X90935Y-61074D01*
X91064Y-61075D01*
X91183Y-61025D01*
X91249Y-60960D01*
X91250Y-60960D01*
X91315Y-61025D01*
X91435Y-61074D01*
X91564Y-61075D01*
X91683Y-61025D01*
X91750Y-60959D01*
X91815Y-61025D01*
X91935Y-61074D01*
X92064Y-61075D01*
X92183Y-61025D01*
X92275Y-60934D01*
X92324Y-60814D01*
X92325Y-60685D01*
X92325Y-61435D01*
X92324Y-61584D01*
X92389Y-61740D01*
X92479Y-61830D01*
X92020Y-61830D01*
X92110Y-61741D01*
X92174Y-61584D01*
X92175Y-61415D01*
X92110Y-61259D01*
X91991Y-61139D01*
X91834Y-61075D01*
X91665Y-61074D01*
X91509Y-61139D01*
X91389Y-61258D01*
X91325Y-61415D01*
X91324Y-61584D01*
X91389Y-61740D01*
X91479Y-61830D01*
X91020Y-61830D01*
X91110Y-61741D01*
X91174Y-61584D01*
X91175Y-61415D01*
X91110Y-61259D01*
X90991Y-61139D01*
X90834Y-61075D01*
X90665Y-61074D01*
X90509Y-61139D01*
X90389Y-61258D01*
X90325Y-61415D01*
X90324Y-61584D01*
X90389Y-61740D01*
X90479Y-61830D01*
X90020Y-61830D01*
X90110Y-61741D01*
X90174Y-61584D01*
X90175Y-61415D01*
X90110Y-61259D01*
X89991Y-61139D01*
X89834Y-61075D01*
X89665Y-61074D01*
X89509Y-61139D01*
X89389Y-61258D01*
X89325Y-61415D01*
X89324Y-61584D01*
X89389Y-61740D01*
X89479Y-61830D01*
X89164Y-61830D01*
X89174Y-61804D01*
X89175Y-61745D01*
X89175Y-61195D01*
X89152Y-61140D01*
X89110Y-61097D01*
X89054Y-61075D01*
X88995Y-61074D01*
X88445Y-61074D01*
X88390Y-61097D01*
X88347Y-61139D01*
X88325Y-61195D01*
X88324Y-61254D01*
X88324Y-61804D01*
X88335Y-61830D01*
X85914Y-61830D01*
X85924Y-61804D01*
X85925Y-61745D01*
X85925Y-61195D01*
X85902Y-61140D01*
X85860Y-61097D01*
X85804Y-61075D01*
X85745Y-61074D01*
X85195Y-61074D01*
X85169Y-61085D01*
X85169Y-59914D01*
X85195Y-59924D01*
X85254Y-59925D01*
X85804Y-59925D01*
X85859Y-59902D01*
X85902Y-59860D01*
X85924Y-59804D01*
X85925Y-59745D01*
X85925Y-59195D01*
X85902Y-59140D01*
X85860Y-59097D01*
X85804Y-59075D01*
X85745Y-59074D01*
X85195Y-59074D01*
X85169Y-59085D01*
X85169Y-57914D01*
X85195Y-57924D01*
X85254Y-57925D01*
X85804Y-57925D01*
X85859Y-57902D01*
X85902Y-57860D01*
X85924Y-57804D01*
X85925Y-57745D01*
X85925Y-57195D01*
X85902Y-57140D01*
X85860Y-57097D01*
X85804Y-57075D01*
X85745Y-57074D01*
X85195Y-57074D01*
X85169Y-57085D01*
X85169Y-56914D01*
X85195Y-56924D01*
X85254Y-56925D01*
X85804Y-56925D01*
X85859Y-56902D01*
X85902Y-56860D01*
X85924Y-56804D01*
X85925Y-56745D01*
X85925Y-56195D01*
X85902Y-56140D01*
X85860Y-56097D01*
X85804Y-56075D01*
X85745Y-56074D01*
X85195Y-56074D01*
X85169Y-56085D01*
X85169Y-55669D01*
X95830Y-55669D01*
X95830Y-56085D01*
X95804Y-56075D01*
X95745Y-56074D01*
X95195Y-56074D01*
X95140Y-56097D01*
X95097Y-56139D01*
X95075Y-56195D01*
X95074Y-56254D01*
X95074Y-56804D01*
X95097Y-56859D01*
X95139Y-56902D01*
X95195Y-56924D01*
X95254Y-56925D01*
X95804Y-56925D01*
X95830Y-56914D01*
X95830Y-57229D01*
X95741Y-57139D01*
X95584Y-57075D01*
X95415Y-57074D01*
X95259Y-57139D01*
X95139Y-57258D01*
X95075Y-57415D01*
X95074Y-57584D01*
X95139Y-57740D01*
X95258Y-57860D01*
X95415Y-57924D01*
X95584Y-57925D01*
X95740Y-57860D01*
X95830Y-57770D01*
X95830Y-60085D01*
X95804Y-60075D01*
X95745Y-60074D01*
X95195Y-60074D01*
X95140Y-60097D01*
X95097Y-60139D01*
X95075Y-60195D01*
X95074Y-60254D01*
X95074Y-60804D01*
X95097Y-60859D01*
X95139Y-60902D01*
X95195Y-60924D01*
X95254Y-60925D01*
X95804Y-60925D01*
X95830Y-60914D01*
X95830Y-61364D01*
X95694Y-61500D01*
X95830Y-61635D01*
X95830Y-61750D01*
X95830Y-61830D01*
X95830Y-61830D01*
G37*
G54D15*
X95830Y-61830D02*
X95665Y-61830D01*
X95665Y-61140D01*
X95630Y-61086D01*
X95462Y-61068D01*
X95369Y-61086D01*
X95334Y-61140D01*
X95500Y-61305D01*
X95665Y-61140D01*
X95665Y-61830D01*
X95635Y-61830D01*
X95500Y-61694D01*
X95364Y-61830D01*
X95305Y-61830D01*
X95305Y-61500D01*
X95140Y-61334D01*
X95086Y-61369D01*
X95068Y-61537D01*
X95086Y-61630D01*
X95140Y-61665D01*
X95305Y-61500D01*
X95305Y-61830D01*
X93020Y-61830D01*
X93110Y-61741D01*
X93174Y-61584D01*
X93175Y-61415D01*
X93110Y-61259D01*
X92991Y-61139D01*
X92834Y-61075D01*
X92665Y-61074D01*
X92509Y-61139D01*
X92389Y-61258D01*
X92325Y-61415D01*
X92325Y-61435D01*
X92325Y-60685D01*
X92275Y-60566D01*
X92209Y-60499D01*
X92275Y-60434D01*
X92324Y-60314D01*
X92325Y-60185D01*
X92275Y-60066D01*
X92209Y-59999D01*
X92275Y-59934D01*
X92324Y-59814D01*
X92325Y-59685D01*
X92275Y-59566D01*
X92209Y-59499D01*
X92275Y-59434D01*
X92324Y-59314D01*
X92325Y-59185D01*
X92275Y-59066D01*
X92209Y-58999D01*
X92275Y-58934D01*
X92324Y-58814D01*
X92325Y-58685D01*
X92275Y-58566D01*
X92209Y-58499D01*
X92275Y-58434D01*
X92324Y-58314D01*
X92325Y-58185D01*
X92275Y-58066D01*
X92209Y-57999D01*
X92275Y-57934D01*
X92324Y-57814D01*
X92325Y-57685D01*
X92275Y-57566D01*
X92209Y-57499D01*
X92275Y-57434D01*
X92324Y-57314D01*
X92325Y-57185D01*
X92275Y-57066D01*
X92184Y-56974D01*
X92064Y-56925D01*
X91935Y-56924D01*
X91816Y-56974D01*
X91749Y-57040D01*
X91684Y-56974D01*
X91564Y-56925D01*
X91435Y-56924D01*
X91316Y-56974D01*
X91250Y-57040D01*
X91249Y-57040D01*
X91184Y-56974D01*
X91064Y-56925D01*
X90935Y-56924D01*
X90816Y-56974D01*
X90749Y-57040D01*
X90684Y-56974D01*
X90564Y-56925D01*
X90435Y-56924D01*
X90316Y-56974D01*
X90250Y-57040D01*
X90249Y-57040D01*
X90184Y-56974D01*
X90064Y-56925D01*
X89935Y-56924D01*
X89816Y-56974D01*
X89724Y-57065D01*
X89677Y-57178D01*
X89566Y-57224D01*
X89474Y-57315D01*
X89425Y-57435D01*
X89424Y-57564D01*
X89474Y-57683D01*
X89540Y-57750D01*
X89474Y-57815D01*
X89425Y-57935D01*
X89424Y-58064D01*
X89474Y-58183D01*
X89540Y-58250D01*
X89474Y-58315D01*
X89425Y-58435D01*
X89424Y-58564D01*
X89474Y-58683D01*
X89540Y-58750D01*
X89474Y-58815D01*
X89425Y-58935D01*
X89424Y-59064D01*
X89474Y-59183D01*
X89540Y-59250D01*
X89474Y-59315D01*
X89425Y-59435D01*
X89424Y-59564D01*
X89474Y-59683D01*
X89540Y-59750D01*
X89474Y-59815D01*
X89425Y-59935D01*
X89424Y-60064D01*
X89474Y-60183D01*
X89540Y-60250D01*
X89474Y-60315D01*
X89425Y-60435D01*
X89424Y-60564D01*
X89474Y-60683D01*
X89565Y-60775D01*
X89678Y-60822D01*
X89724Y-60933D01*
X89815Y-61025D01*
X89935Y-61074D01*
X90064Y-61075D01*
X90183Y-61025D01*
X90249Y-60960D01*
X90250Y-60960D01*
X90315Y-61025D01*
X90435Y-61074D01*
X90564Y-61075D01*
X90683Y-61025D01*
X90750Y-60959D01*
X90815Y-61025D01*
X90935Y-61074D01*
X91064Y-61075D01*
X91183Y-61025D01*
X91249Y-60960D01*
X91250Y-60960D01*
X91315Y-61025D01*
X91435Y-61074D01*
X91564Y-61075D01*
X91683Y-61025D01*
X91750Y-60959D01*
X91815Y-61025D01*
X91935Y-61074D01*
X92064Y-61075D01*
X92183Y-61025D01*
X92275Y-60934D01*
X92324Y-60814D01*
X92325Y-60685D01*
X92325Y-61435D01*
X92324Y-61584D01*
X92389Y-61740D01*
X92479Y-61830D01*
X92020Y-61830D01*
X92110Y-61741D01*
X92174Y-61584D01*
X92175Y-61415D01*
X92110Y-61259D01*
X91991Y-61139D01*
X91834Y-61075D01*
X91665Y-61074D01*
X91509Y-61139D01*
X91389Y-61258D01*
X91325Y-61415D01*
X91324Y-61584D01*
X91389Y-61740D01*
X91479Y-61830D01*
X91020Y-61830D01*
X91110Y-61741D01*
X91174Y-61584D01*
X91175Y-61415D01*
X91110Y-61259D01*
X90991Y-61139D01*
X90834Y-61075D01*
X90665Y-61074D01*
X90509Y-61139D01*
X90389Y-61258D01*
X90325Y-61415D01*
X90324Y-61584D01*
X90389Y-61740D01*
X90479Y-61830D01*
X90020Y-61830D01*
X90110Y-61741D01*
X90174Y-61584D01*
X90175Y-61415D01*
X90110Y-61259D01*
X89991Y-61139D01*
X89834Y-61075D01*
X89665Y-61074D01*
X89509Y-61139D01*
X89389Y-61258D01*
X89325Y-61415D01*
X89324Y-61584D01*
X89389Y-61740D01*
X89479Y-61830D01*
X89164Y-61830D01*
X89174Y-61804D01*
X89175Y-61745D01*
X89175Y-61195D01*
X89152Y-61140D01*
X89110Y-61097D01*
X89054Y-61075D01*
X88995Y-61074D01*
X88445Y-61074D01*
X88390Y-61097D01*
X88347Y-61139D01*
X88325Y-61195D01*
X88324Y-61254D01*
X88324Y-61804D01*
X88335Y-61830D01*
X85914Y-61830D01*
X85924Y-61804D01*
X85925Y-61745D01*
X85925Y-61195D01*
X85902Y-61140D01*
X85860Y-61097D01*
X85804Y-61075D01*
X85745Y-61074D01*
X85195Y-61074D01*
X85169Y-61085D01*
X85169Y-59914D01*
X85195Y-59924D01*
X85254Y-59925D01*
X85804Y-59925D01*
X85859Y-59902D01*
X85902Y-59860D01*
X85924Y-59804D01*
X85925Y-59745D01*
X85925Y-59195D01*
X85902Y-59140D01*
X85860Y-59097D01*
X85804Y-59075D01*
X85745Y-59074D01*
X85195Y-59074D01*
X85169Y-59085D01*
X85169Y-57914D01*
X85195Y-57924D01*
X85254Y-57925D01*
X85804Y-57925D01*
X85859Y-57902D01*
X85902Y-57860D01*
X85924Y-57804D01*
X85925Y-57745D01*
X85925Y-57195D01*
X85902Y-57140D01*
X85860Y-57097D01*
X85804Y-57075D01*
X85745Y-57074D01*
X85195Y-57074D01*
X85169Y-57085D01*
X85169Y-56914D01*
X85195Y-56924D01*
X85254Y-56925D01*
X85804Y-56925D01*
X85859Y-56902D01*
X85902Y-56860D01*
X85924Y-56804D01*
X85925Y-56745D01*
X85925Y-56195D01*
X85902Y-56140D01*
X85860Y-56097D01*
X85804Y-56075D01*
X85745Y-56074D01*
X85195Y-56074D01*
X85169Y-56085D01*
X85169Y-55669D01*
X95830Y-55669D01*
X95830Y-56085D01*
X95804Y-56075D01*
X95745Y-56074D01*
X95195Y-56074D01*
X95140Y-56097D01*
X95097Y-56139D01*
X95075Y-56195D01*
X95074Y-56254D01*
X95074Y-56804D01*
X95097Y-56859D01*
X95139Y-56902D01*
X95195Y-56924D01*
X95254Y-56925D01*
X95804Y-56925D01*
X95830Y-56914D01*
X95830Y-57229D01*
X95741Y-57139D01*
X95584Y-57075D01*
X95415Y-57074D01*
X95259Y-57139D01*
X95139Y-57258D01*
X95075Y-57415D01*
X95074Y-57584D01*
X95139Y-57740D01*
X95258Y-57860D01*
X95415Y-57924D01*
X95584Y-57925D01*
X95740Y-57860D01*
X95830Y-57770D01*
X95830Y-60085D01*
X95804Y-60075D01*
X95745Y-60074D01*
X95195Y-60074D01*
X95140Y-60097D01*
X95097Y-60139D01*
X95075Y-60195D01*
X95074Y-60254D01*
X95074Y-60804D01*
X95097Y-60859D01*
X95139Y-60902D01*
X95195Y-60924D01*
X95254Y-60925D01*
X95804Y-60925D01*
X95830Y-60914D01*
X95830Y-61364D01*
X95694Y-61500D01*
X95830Y-61635D01*
X95830Y-61750D01*
X95830Y-61830D01*
M02*
