G04 (created by PCBNEW (2013-07-07 BZR 4022)-stable) date 25/02/2014 10:24:33*
%MOIN*%
G04 Gerber Fmt 3.4, Leading zero omitted, Abs format*
%FSLAX34Y34*%
G01*
G70*
G90*
G04 APERTURE LIST*
%ADD10C,0.00590551*%
%ADD11R,0.06X0.06*%
%ADD12C,0.06*%
%ADD13C,0.11811*%
%ADD14R,0.055X0.055*%
%ADD15C,0.055*%
%ADD16R,0.1X0.1*%
%ADD17C,0.1*%
%ADD18C,0.035*%
%ADD19C,0.00984252*%
G04 APERTURE END LIST*
G54D10*
G54D11*
X53750Y-70675D03*
G54D12*
X53750Y-71675D03*
X53750Y-72675D03*
X53750Y-73675D03*
G54D11*
X61740Y-72160D03*
G54D12*
X61740Y-73160D03*
G54D13*
X59740Y-73680D03*
G54D14*
X60675Y-70675D03*
G54D15*
X61675Y-70675D03*
G54D16*
X63960Y-71160D03*
G54D17*
X63960Y-73160D03*
G54D18*
X58940Y-71320D03*
X55260Y-71200D03*
X56780Y-72660D03*
G54D10*
G36*
X65478Y-74128D02*
X64627Y-74128D01*
X64627Y-73027D01*
X64627Y-73027D01*
X64627Y-71626D01*
X64627Y-70626D01*
X64601Y-70565D01*
X64554Y-70518D01*
X64493Y-70492D01*
X64426Y-70492D01*
X63426Y-70492D01*
X63365Y-70518D01*
X63318Y-70565D01*
X63292Y-70626D01*
X63292Y-70693D01*
X63292Y-71693D01*
X63318Y-71754D01*
X63365Y-71801D01*
X63426Y-71827D01*
X63493Y-71827D01*
X64493Y-71827D01*
X64554Y-71801D01*
X64601Y-71754D01*
X64627Y-71693D01*
X64627Y-71626D01*
X64627Y-73027D01*
X64526Y-72782D01*
X64338Y-72594D01*
X64093Y-72492D01*
X63827Y-72492D01*
X63582Y-72593D01*
X63394Y-72781D01*
X63292Y-73026D01*
X63292Y-73292D01*
X63393Y-73537D01*
X63581Y-73725D01*
X63826Y-73827D01*
X64092Y-73827D01*
X64337Y-73726D01*
X64525Y-73538D01*
X64627Y-73293D01*
X64627Y-73027D01*
X64627Y-74128D01*
X62207Y-74128D01*
X62207Y-73067D01*
X62207Y-73067D01*
X62207Y-72426D01*
X62207Y-71826D01*
X62181Y-71765D01*
X62134Y-71718D01*
X62117Y-71710D01*
X62117Y-70587D01*
X62050Y-70424D01*
X61925Y-70300D01*
X61763Y-70232D01*
X61587Y-70232D01*
X61424Y-70299D01*
X61300Y-70424D01*
X61232Y-70586D01*
X61232Y-70762D01*
X61299Y-70925D01*
X61424Y-71049D01*
X61586Y-71117D01*
X61762Y-71117D01*
X61925Y-71050D01*
X62049Y-70925D01*
X62117Y-70763D01*
X62117Y-70587D01*
X62117Y-71710D01*
X62073Y-71692D01*
X62006Y-71692D01*
X61406Y-71692D01*
X61345Y-71718D01*
X61298Y-71765D01*
X61272Y-71826D01*
X61272Y-71893D01*
X61272Y-72493D01*
X61298Y-72554D01*
X61345Y-72601D01*
X61406Y-72627D01*
X61473Y-72627D01*
X62073Y-72627D01*
X62134Y-72601D01*
X62181Y-72554D01*
X62207Y-72493D01*
X62207Y-72426D01*
X62207Y-73067D01*
X62136Y-72895D01*
X62005Y-72764D01*
X61833Y-72692D01*
X61647Y-72692D01*
X61475Y-72763D01*
X61344Y-72894D01*
X61272Y-73066D01*
X61272Y-73252D01*
X61343Y-73424D01*
X61474Y-73555D01*
X61646Y-73627D01*
X61832Y-73627D01*
X62004Y-73556D01*
X62135Y-73425D01*
X62207Y-73253D01*
X62207Y-73067D01*
X62207Y-74128D01*
X61117Y-74128D01*
X61117Y-70916D01*
X61117Y-70366D01*
X61091Y-70305D01*
X61044Y-70258D01*
X60983Y-70232D01*
X60916Y-70232D01*
X60366Y-70232D01*
X60305Y-70258D01*
X60258Y-70305D01*
X60232Y-70366D01*
X60232Y-70433D01*
X60232Y-70983D01*
X60258Y-71044D01*
X60305Y-71091D01*
X60366Y-71117D01*
X60433Y-71117D01*
X60983Y-71117D01*
X61044Y-71091D01*
X61091Y-71044D01*
X61117Y-70983D01*
X61117Y-70916D01*
X61117Y-74128D01*
X60363Y-74128D01*
X60382Y-74109D01*
X60497Y-73831D01*
X60498Y-73529D01*
X60382Y-73251D01*
X60169Y-73037D01*
X59891Y-72922D01*
X59589Y-72921D01*
X59311Y-73037D01*
X59097Y-73250D01*
X58982Y-73528D01*
X58981Y-73830D01*
X59097Y-74108D01*
X59116Y-74128D01*
X54218Y-74128D01*
X54218Y-71590D01*
X54151Y-71417D01*
X54141Y-71402D01*
X54064Y-71374D01*
X54050Y-71388D01*
X54050Y-71360D01*
X54022Y-71283D01*
X53851Y-71209D01*
X53665Y-71206D01*
X53492Y-71273D01*
X53477Y-71283D01*
X53449Y-71360D01*
X53750Y-71661D01*
X54050Y-71360D01*
X54050Y-71388D01*
X53763Y-71675D01*
X54064Y-71975D01*
X54141Y-71947D01*
X54215Y-71776D01*
X54218Y-71590D01*
X54218Y-74128D01*
X53877Y-74128D01*
X54014Y-74071D01*
X54145Y-73940D01*
X54217Y-73768D01*
X54217Y-73582D01*
X54217Y-72582D01*
X54146Y-72410D01*
X54050Y-72314D01*
X54050Y-71989D01*
X53750Y-71688D01*
X53736Y-71702D01*
X53736Y-71675D01*
X53435Y-71374D01*
X53358Y-71402D01*
X53284Y-71573D01*
X53281Y-71759D01*
X53348Y-71932D01*
X53358Y-71947D01*
X53435Y-71975D01*
X53736Y-71675D01*
X53736Y-71702D01*
X53449Y-71989D01*
X53477Y-72066D01*
X53648Y-72140D01*
X53834Y-72143D01*
X54007Y-72076D01*
X54022Y-72066D01*
X54050Y-71989D01*
X54050Y-72314D01*
X54015Y-72279D01*
X53843Y-72207D01*
X53657Y-72207D01*
X53485Y-72278D01*
X53354Y-72409D01*
X53282Y-72581D01*
X53282Y-72767D01*
X53353Y-72939D01*
X53484Y-73070D01*
X53656Y-73142D01*
X53842Y-73142D01*
X54014Y-73071D01*
X54145Y-72940D01*
X54217Y-72768D01*
X54217Y-72582D01*
X54217Y-73582D01*
X54146Y-73410D01*
X54015Y-73279D01*
X53843Y-73207D01*
X53657Y-73207D01*
X53485Y-73278D01*
X53354Y-73409D01*
X53282Y-73581D01*
X53282Y-73767D01*
X53353Y-73939D01*
X53484Y-74070D01*
X53622Y-74128D01*
X53246Y-74128D01*
X53246Y-70221D01*
X53382Y-70221D01*
X53355Y-70233D01*
X53308Y-70280D01*
X53282Y-70341D01*
X53282Y-70408D01*
X53282Y-71008D01*
X53308Y-71069D01*
X53355Y-71116D01*
X53416Y-71142D01*
X53483Y-71142D01*
X54083Y-71142D01*
X54144Y-71116D01*
X54191Y-71069D01*
X54217Y-71008D01*
X54217Y-70941D01*
X54217Y-70341D01*
X54191Y-70280D01*
X54144Y-70233D01*
X54117Y-70221D01*
X65478Y-70221D01*
X65478Y-74128D01*
X65478Y-74128D01*
G37*
G54D19*
X65478Y-74128D02*
X64627Y-74128D01*
X64627Y-73027D01*
X64627Y-73027D01*
X64627Y-71626D01*
X64627Y-70626D01*
X64601Y-70565D01*
X64554Y-70518D01*
X64493Y-70492D01*
X64426Y-70492D01*
X63426Y-70492D01*
X63365Y-70518D01*
X63318Y-70565D01*
X63292Y-70626D01*
X63292Y-70693D01*
X63292Y-71693D01*
X63318Y-71754D01*
X63365Y-71801D01*
X63426Y-71827D01*
X63493Y-71827D01*
X64493Y-71827D01*
X64554Y-71801D01*
X64601Y-71754D01*
X64627Y-71693D01*
X64627Y-71626D01*
X64627Y-73027D01*
X64526Y-72782D01*
X64338Y-72594D01*
X64093Y-72492D01*
X63827Y-72492D01*
X63582Y-72593D01*
X63394Y-72781D01*
X63292Y-73026D01*
X63292Y-73292D01*
X63393Y-73537D01*
X63581Y-73725D01*
X63826Y-73827D01*
X64092Y-73827D01*
X64337Y-73726D01*
X64525Y-73538D01*
X64627Y-73293D01*
X64627Y-73027D01*
X64627Y-74128D01*
X62207Y-74128D01*
X62207Y-73067D01*
X62207Y-73067D01*
X62207Y-72426D01*
X62207Y-71826D01*
X62181Y-71765D01*
X62134Y-71718D01*
X62117Y-71710D01*
X62117Y-70587D01*
X62050Y-70424D01*
X61925Y-70300D01*
X61763Y-70232D01*
X61587Y-70232D01*
X61424Y-70299D01*
X61300Y-70424D01*
X61232Y-70586D01*
X61232Y-70762D01*
X61299Y-70925D01*
X61424Y-71049D01*
X61586Y-71117D01*
X61762Y-71117D01*
X61925Y-71050D01*
X62049Y-70925D01*
X62117Y-70763D01*
X62117Y-70587D01*
X62117Y-71710D01*
X62073Y-71692D01*
X62006Y-71692D01*
X61406Y-71692D01*
X61345Y-71718D01*
X61298Y-71765D01*
X61272Y-71826D01*
X61272Y-71893D01*
X61272Y-72493D01*
X61298Y-72554D01*
X61345Y-72601D01*
X61406Y-72627D01*
X61473Y-72627D01*
X62073Y-72627D01*
X62134Y-72601D01*
X62181Y-72554D01*
X62207Y-72493D01*
X62207Y-72426D01*
X62207Y-73067D01*
X62136Y-72895D01*
X62005Y-72764D01*
X61833Y-72692D01*
X61647Y-72692D01*
X61475Y-72763D01*
X61344Y-72894D01*
X61272Y-73066D01*
X61272Y-73252D01*
X61343Y-73424D01*
X61474Y-73555D01*
X61646Y-73627D01*
X61832Y-73627D01*
X62004Y-73556D01*
X62135Y-73425D01*
X62207Y-73253D01*
X62207Y-73067D01*
X62207Y-74128D01*
X61117Y-74128D01*
X61117Y-70916D01*
X61117Y-70366D01*
X61091Y-70305D01*
X61044Y-70258D01*
X60983Y-70232D01*
X60916Y-70232D01*
X60366Y-70232D01*
X60305Y-70258D01*
X60258Y-70305D01*
X60232Y-70366D01*
X60232Y-70433D01*
X60232Y-70983D01*
X60258Y-71044D01*
X60305Y-71091D01*
X60366Y-71117D01*
X60433Y-71117D01*
X60983Y-71117D01*
X61044Y-71091D01*
X61091Y-71044D01*
X61117Y-70983D01*
X61117Y-70916D01*
X61117Y-74128D01*
X60363Y-74128D01*
X60382Y-74109D01*
X60497Y-73831D01*
X60498Y-73529D01*
X60382Y-73251D01*
X60169Y-73037D01*
X59891Y-72922D01*
X59589Y-72921D01*
X59311Y-73037D01*
X59097Y-73250D01*
X58982Y-73528D01*
X58981Y-73830D01*
X59097Y-74108D01*
X59116Y-74128D01*
X54218Y-74128D01*
X54218Y-71590D01*
X54151Y-71417D01*
X54141Y-71402D01*
X54064Y-71374D01*
X54050Y-71388D01*
X54050Y-71360D01*
X54022Y-71283D01*
X53851Y-71209D01*
X53665Y-71206D01*
X53492Y-71273D01*
X53477Y-71283D01*
X53449Y-71360D01*
X53750Y-71661D01*
X54050Y-71360D01*
X54050Y-71388D01*
X53763Y-71675D01*
X54064Y-71975D01*
X54141Y-71947D01*
X54215Y-71776D01*
X54218Y-71590D01*
X54218Y-74128D01*
X53877Y-74128D01*
X54014Y-74071D01*
X54145Y-73940D01*
X54217Y-73768D01*
X54217Y-73582D01*
X54217Y-72582D01*
X54146Y-72410D01*
X54050Y-72314D01*
X54050Y-71989D01*
X53750Y-71688D01*
X53736Y-71702D01*
X53736Y-71675D01*
X53435Y-71374D01*
X53358Y-71402D01*
X53284Y-71573D01*
X53281Y-71759D01*
X53348Y-71932D01*
X53358Y-71947D01*
X53435Y-71975D01*
X53736Y-71675D01*
X53736Y-71702D01*
X53449Y-71989D01*
X53477Y-72066D01*
X53648Y-72140D01*
X53834Y-72143D01*
X54007Y-72076D01*
X54022Y-72066D01*
X54050Y-71989D01*
X54050Y-72314D01*
X54015Y-72279D01*
X53843Y-72207D01*
X53657Y-72207D01*
X53485Y-72278D01*
X53354Y-72409D01*
X53282Y-72581D01*
X53282Y-72767D01*
X53353Y-72939D01*
X53484Y-73070D01*
X53656Y-73142D01*
X53842Y-73142D01*
X54014Y-73071D01*
X54145Y-72940D01*
X54217Y-72768D01*
X54217Y-72582D01*
X54217Y-73582D01*
X54146Y-73410D01*
X54015Y-73279D01*
X53843Y-73207D01*
X53657Y-73207D01*
X53485Y-73278D01*
X53354Y-73409D01*
X53282Y-73581D01*
X53282Y-73767D01*
X53353Y-73939D01*
X53484Y-74070D01*
X53622Y-74128D01*
X53246Y-74128D01*
X53246Y-70221D01*
X53382Y-70221D01*
X53355Y-70233D01*
X53308Y-70280D01*
X53282Y-70341D01*
X53282Y-70408D01*
X53282Y-71008D01*
X53308Y-71069D01*
X53355Y-71116D01*
X53416Y-71142D01*
X53483Y-71142D01*
X54083Y-71142D01*
X54144Y-71116D01*
X54191Y-71069D01*
X54217Y-71008D01*
X54217Y-70941D01*
X54217Y-70341D01*
X54191Y-70280D01*
X54144Y-70233D01*
X54117Y-70221D01*
X65478Y-70221D01*
X65478Y-74128D01*
M02*
