G04 (created by PCBNEW (2013-07-07 BZR 4022)-stable) date 16/12/2013 13:18:01*
%MOIN*%
G04 Gerber Fmt 3.4, Leading zero omitted, Abs format*
%FSLAX34Y34*%
G01*
G70*
G90*
G04 APERTURE LIST*
%ADD10C,0.00393701*%
%ADD11R,0.06X0.06*%
%ADD12C,0.06*%
%ADD13C,0.16*%
%ADD14C,0.035*%
%ADD15C,0.019685*%
%ADD16C,0.0393701*%
%ADD17C,0.00984252*%
G04 APERTURE END LIST*
G54D10*
G54D11*
X38950Y-8900D03*
G54D12*
X39950Y-8900D03*
G54D11*
X36950Y-8900D03*
G54D12*
X37950Y-8900D03*
G54D11*
X27165Y-12417D03*
G54D12*
X27165Y-11417D03*
G54D11*
X34550Y-20600D03*
G54D12*
X34550Y-19600D03*
X35550Y-20600D03*
X35550Y-19600D03*
X36550Y-20600D03*
X36550Y-19600D03*
X37550Y-20600D03*
X37550Y-19600D03*
X38550Y-20600D03*
X38550Y-19600D03*
G54D11*
X30750Y-20600D03*
G54D12*
X31750Y-20600D03*
G54D11*
X29200Y-20600D03*
G54D12*
X28200Y-20600D03*
G54D13*
X40944Y-20472D03*
X27559Y-9448D03*
G54D14*
X41550Y-16400D03*
X34850Y-12050D03*
X37100Y-15600D03*
X29650Y-14650D03*
X33050Y-20600D03*
X36050Y-16400D03*
X36350Y-14900D03*
X27550Y-18350D03*
X37450Y-13400D03*
X38400Y-13400D03*
G54D15*
X41550Y-14950D02*
X41550Y-16400D01*
X38650Y-12050D02*
X41550Y-14950D01*
X34850Y-12050D02*
X38650Y-12050D01*
G54D16*
X37100Y-15600D02*
X37100Y-17050D01*
X29650Y-13650D02*
X30350Y-12950D01*
X30350Y-12950D02*
X35750Y-12950D01*
X35750Y-12950D02*
X37100Y-14300D01*
X37100Y-14300D02*
X37100Y-15600D01*
X27165Y-12417D02*
X28467Y-12417D01*
X29650Y-13600D02*
X29650Y-14650D01*
X28467Y-12417D02*
X29650Y-13600D01*
X29650Y-14650D02*
X29650Y-13650D01*
X37100Y-17050D02*
X34550Y-19600D01*
X29200Y-20600D02*
X29200Y-19900D01*
X27165Y-17434D02*
X27165Y-12417D01*
X26850Y-17750D02*
X27165Y-17434D01*
X26850Y-19050D02*
X26850Y-17750D01*
X27300Y-19500D02*
X26850Y-19050D01*
X28800Y-19500D02*
X27300Y-19500D01*
X29200Y-19900D02*
X28800Y-19500D01*
G54D15*
X36950Y-8900D02*
X36950Y-8800D01*
X38450Y-8400D02*
X38950Y-8900D01*
X37350Y-8400D02*
X38450Y-8400D01*
X36950Y-8800D02*
X37350Y-8400D01*
X33050Y-20600D02*
X33650Y-20000D01*
X33650Y-20000D02*
X33650Y-17250D01*
X33650Y-17250D02*
X34500Y-16400D01*
X34500Y-16400D02*
X36050Y-16400D01*
X31000Y-14900D02*
X36350Y-14900D01*
X27550Y-18350D02*
X31000Y-14900D01*
X38400Y-13400D02*
X37450Y-13400D01*
G54D10*
G36*
X41929Y-21456D02*
X41917Y-21456D01*
X41917Y-20308D01*
X41912Y-20295D01*
X41912Y-20280D01*
X41892Y-20232D01*
X41892Y-16332D01*
X41840Y-16206D01*
X41815Y-16181D01*
X41815Y-14950D01*
X41795Y-14848D01*
X41795Y-14848D01*
X41737Y-14762D01*
X38837Y-11862D01*
X38751Y-11804D01*
X38650Y-11784D01*
X35068Y-11784D01*
X35044Y-11759D01*
X34918Y-11707D01*
X34782Y-11707D01*
X34656Y-11759D01*
X34559Y-11855D01*
X34507Y-11981D01*
X34507Y-12117D01*
X34559Y-12243D01*
X34655Y-12340D01*
X34781Y-12392D01*
X34917Y-12392D01*
X35043Y-12340D01*
X35068Y-12315D01*
X38539Y-12315D01*
X41284Y-15060D01*
X41284Y-16181D01*
X41259Y-16205D01*
X41207Y-16331D01*
X41207Y-16467D01*
X41259Y-16593D01*
X41355Y-16690D01*
X41481Y-16742D01*
X41617Y-16742D01*
X41743Y-16690D01*
X41840Y-16594D01*
X41892Y-16468D01*
X41892Y-16332D01*
X41892Y-20232D01*
X41844Y-20115D01*
X41780Y-19948D01*
X41766Y-19927D01*
X41765Y-19925D01*
X41763Y-19923D01*
X41748Y-19900D01*
X41724Y-19883D01*
X41532Y-19692D01*
X41516Y-19668D01*
X41503Y-19662D01*
X41493Y-19652D01*
X41328Y-19584D01*
X41165Y-19511D01*
X41151Y-19510D01*
X41138Y-19505D01*
X40959Y-19505D01*
X40780Y-19499D01*
X40767Y-19504D01*
X40753Y-19504D01*
X40588Y-19573D01*
X40421Y-19636D01*
X40399Y-19651D01*
X40397Y-19651D01*
X40396Y-19653D01*
X40373Y-19668D01*
X40356Y-19693D01*
X40164Y-19884D01*
X40141Y-19900D01*
X40135Y-19913D01*
X40125Y-19923D01*
X40056Y-20088D01*
X39983Y-20251D01*
X39983Y-20266D01*
X39977Y-20279D01*
X39977Y-20457D01*
X39972Y-20636D01*
X39977Y-20649D01*
X39977Y-20664D01*
X40045Y-20829D01*
X40109Y-20996D01*
X40123Y-21017D01*
X40124Y-21019D01*
X40125Y-21021D01*
X40141Y-21044D01*
X40165Y-21061D01*
X40357Y-21252D01*
X40373Y-21276D01*
X40386Y-21281D01*
X40396Y-21292D01*
X40561Y-21360D01*
X40724Y-21433D01*
X40738Y-21434D01*
X40751Y-21439D01*
X40930Y-21439D01*
X41108Y-21444D01*
X41122Y-21439D01*
X41136Y-21439D01*
X41301Y-21371D01*
X41468Y-21308D01*
X41490Y-21293D01*
X41492Y-21292D01*
X41493Y-21291D01*
X41516Y-21276D01*
X41533Y-21251D01*
X41725Y-21060D01*
X41748Y-21044D01*
X41754Y-21031D01*
X41764Y-21021D01*
X41832Y-20856D01*
X41906Y-20693D01*
X41906Y-20678D01*
X41912Y-20665D01*
X41912Y-20487D01*
X41917Y-20308D01*
X41917Y-21456D01*
X39018Y-21456D01*
X39018Y-19515D01*
X39017Y-19511D01*
X39017Y-19507D01*
X38983Y-19425D01*
X38951Y-19342D01*
X38946Y-19336D01*
X38946Y-19335D01*
X38946Y-19335D01*
X38941Y-19327D01*
X38937Y-19326D01*
X38823Y-19212D01*
X38822Y-19208D01*
X38818Y-19207D01*
X38815Y-19204D01*
X38742Y-19173D01*
X38742Y-13332D01*
X38690Y-13206D01*
X38594Y-13109D01*
X38468Y-13057D01*
X38332Y-13057D01*
X38206Y-13109D01*
X38181Y-13134D01*
X37668Y-13134D01*
X37644Y-13109D01*
X37518Y-13057D01*
X37382Y-13057D01*
X37256Y-13109D01*
X37159Y-13205D01*
X37107Y-13331D01*
X37107Y-13467D01*
X37159Y-13593D01*
X37255Y-13690D01*
X37381Y-13742D01*
X37517Y-13742D01*
X37643Y-13690D01*
X37668Y-13665D01*
X38181Y-13665D01*
X38205Y-13690D01*
X38331Y-13742D01*
X38467Y-13742D01*
X38593Y-13690D01*
X38690Y-13594D01*
X38742Y-13468D01*
X38742Y-13332D01*
X38742Y-19173D01*
X38733Y-19169D01*
X38651Y-19134D01*
X38647Y-19134D01*
X38643Y-19132D01*
X38554Y-19132D01*
X38465Y-19131D01*
X38461Y-19132D01*
X38457Y-19132D01*
X38375Y-19166D01*
X38292Y-19198D01*
X38286Y-19203D01*
X38285Y-19203D01*
X38285Y-19203D01*
X38277Y-19208D01*
X38276Y-19212D01*
X38162Y-19326D01*
X38158Y-19327D01*
X38157Y-19331D01*
X38154Y-19334D01*
X38119Y-19416D01*
X38084Y-19498D01*
X38084Y-19502D01*
X38082Y-19506D01*
X38082Y-19595D01*
X38081Y-19684D01*
X38082Y-19688D01*
X38082Y-19692D01*
X38116Y-19774D01*
X38148Y-19857D01*
X38153Y-19863D01*
X38153Y-19864D01*
X38153Y-19864D01*
X38158Y-19872D01*
X38162Y-19873D01*
X38276Y-19987D01*
X38277Y-19991D01*
X38281Y-19992D01*
X38284Y-19995D01*
X38366Y-20030D01*
X38448Y-20065D01*
X38452Y-20065D01*
X38456Y-20067D01*
X38545Y-20067D01*
X38634Y-20068D01*
X38638Y-20067D01*
X38642Y-20067D01*
X38724Y-20033D01*
X38807Y-20001D01*
X38813Y-19996D01*
X38814Y-19996D01*
X38814Y-19996D01*
X38822Y-19991D01*
X38823Y-19987D01*
X38937Y-19873D01*
X38941Y-19872D01*
X38942Y-19868D01*
X38945Y-19865D01*
X38980Y-19783D01*
X39015Y-19701D01*
X39015Y-19697D01*
X39017Y-19693D01*
X39017Y-19604D01*
X39018Y-19515D01*
X39018Y-21456D01*
X39017Y-21456D01*
X39017Y-20507D01*
X38946Y-20335D01*
X38815Y-20204D01*
X38643Y-20132D01*
X38457Y-20132D01*
X38285Y-20203D01*
X38154Y-20334D01*
X38082Y-20506D01*
X38082Y-20692D01*
X38153Y-20864D01*
X38284Y-20995D01*
X38456Y-21067D01*
X38642Y-21067D01*
X38814Y-20996D01*
X38945Y-20865D01*
X39017Y-20693D01*
X39017Y-20507D01*
X39017Y-21456D01*
X38017Y-21456D01*
X38017Y-20507D01*
X38017Y-19507D01*
X37946Y-19335D01*
X37815Y-19204D01*
X37643Y-19132D01*
X37457Y-19132D01*
X37285Y-19203D01*
X37154Y-19334D01*
X37082Y-19506D01*
X37082Y-19692D01*
X37153Y-19864D01*
X37284Y-19995D01*
X37456Y-20067D01*
X37642Y-20067D01*
X37814Y-19996D01*
X37945Y-19865D01*
X38017Y-19693D01*
X38017Y-19507D01*
X38017Y-20507D01*
X37946Y-20335D01*
X37815Y-20204D01*
X37643Y-20132D01*
X37457Y-20132D01*
X37285Y-20203D01*
X37154Y-20334D01*
X37082Y-20506D01*
X37082Y-20692D01*
X37153Y-20864D01*
X37284Y-20995D01*
X37456Y-21067D01*
X37642Y-21067D01*
X37814Y-20996D01*
X37945Y-20865D01*
X38017Y-20693D01*
X38017Y-20507D01*
X38017Y-21456D01*
X37018Y-21456D01*
X37018Y-20515D01*
X37018Y-19515D01*
X37017Y-19511D01*
X37017Y-19507D01*
X36983Y-19425D01*
X36951Y-19342D01*
X36946Y-19336D01*
X36946Y-19335D01*
X36946Y-19335D01*
X36941Y-19327D01*
X36937Y-19326D01*
X36823Y-19212D01*
X36822Y-19208D01*
X36818Y-19207D01*
X36815Y-19204D01*
X36733Y-19169D01*
X36651Y-19134D01*
X36647Y-19134D01*
X36643Y-19132D01*
X36554Y-19132D01*
X36465Y-19131D01*
X36461Y-19132D01*
X36457Y-19132D01*
X36375Y-19166D01*
X36292Y-19198D01*
X36286Y-19203D01*
X36285Y-19203D01*
X36285Y-19203D01*
X36277Y-19208D01*
X36276Y-19212D01*
X36162Y-19326D01*
X36158Y-19327D01*
X36157Y-19331D01*
X36154Y-19334D01*
X36119Y-19416D01*
X36084Y-19498D01*
X36084Y-19502D01*
X36082Y-19506D01*
X36082Y-19595D01*
X36081Y-19684D01*
X36082Y-19688D01*
X36082Y-19692D01*
X36116Y-19774D01*
X36148Y-19857D01*
X36153Y-19863D01*
X36153Y-19864D01*
X36153Y-19864D01*
X36158Y-19872D01*
X36162Y-19873D01*
X36276Y-19987D01*
X36277Y-19991D01*
X36281Y-19992D01*
X36284Y-19995D01*
X36366Y-20030D01*
X36448Y-20065D01*
X36452Y-20065D01*
X36456Y-20067D01*
X36545Y-20067D01*
X36634Y-20068D01*
X36638Y-20067D01*
X36642Y-20067D01*
X36724Y-20033D01*
X36807Y-20001D01*
X36813Y-19996D01*
X36814Y-19996D01*
X36814Y-19996D01*
X36822Y-19991D01*
X36823Y-19987D01*
X36937Y-19873D01*
X36941Y-19872D01*
X36942Y-19868D01*
X36945Y-19865D01*
X36980Y-19783D01*
X37015Y-19701D01*
X37015Y-19697D01*
X37017Y-19693D01*
X37017Y-19604D01*
X37018Y-19515D01*
X37018Y-20515D01*
X37017Y-20511D01*
X37017Y-20507D01*
X36983Y-20425D01*
X36951Y-20342D01*
X36946Y-20336D01*
X36946Y-20335D01*
X36946Y-20335D01*
X36941Y-20327D01*
X36937Y-20326D01*
X36823Y-20212D01*
X36822Y-20208D01*
X36818Y-20207D01*
X36815Y-20204D01*
X36733Y-20169D01*
X36651Y-20134D01*
X36647Y-20134D01*
X36643Y-20132D01*
X36554Y-20132D01*
X36465Y-20131D01*
X36461Y-20132D01*
X36457Y-20132D01*
X36375Y-20166D01*
X36292Y-20198D01*
X36286Y-20203D01*
X36285Y-20203D01*
X36285Y-20203D01*
X36277Y-20208D01*
X36276Y-20212D01*
X36162Y-20326D01*
X36158Y-20327D01*
X36157Y-20331D01*
X36154Y-20334D01*
X36119Y-20416D01*
X36084Y-20498D01*
X36084Y-20502D01*
X36082Y-20506D01*
X36082Y-20595D01*
X36081Y-20684D01*
X36082Y-20688D01*
X36082Y-20692D01*
X36116Y-20774D01*
X36148Y-20857D01*
X36153Y-20863D01*
X36153Y-20864D01*
X36153Y-20864D01*
X36158Y-20872D01*
X36162Y-20873D01*
X36276Y-20987D01*
X36277Y-20991D01*
X36281Y-20992D01*
X36284Y-20995D01*
X36366Y-21030D01*
X36448Y-21065D01*
X36452Y-21065D01*
X36456Y-21067D01*
X36545Y-21067D01*
X36634Y-21068D01*
X36638Y-21067D01*
X36642Y-21067D01*
X36724Y-21033D01*
X36807Y-21001D01*
X36813Y-20996D01*
X36814Y-20996D01*
X36814Y-20996D01*
X36822Y-20991D01*
X36823Y-20987D01*
X36937Y-20873D01*
X36941Y-20872D01*
X36942Y-20868D01*
X36945Y-20865D01*
X36980Y-20783D01*
X37015Y-20701D01*
X37015Y-20697D01*
X37017Y-20693D01*
X37017Y-20604D01*
X37018Y-20515D01*
X37018Y-21456D01*
X36018Y-21456D01*
X36018Y-20515D01*
X36017Y-20511D01*
X36017Y-20507D01*
X35983Y-20425D01*
X35951Y-20342D01*
X35946Y-20336D01*
X35946Y-20335D01*
X35946Y-20335D01*
X35941Y-20327D01*
X35937Y-20326D01*
X35823Y-20212D01*
X35822Y-20208D01*
X35818Y-20207D01*
X35815Y-20204D01*
X35733Y-20169D01*
X35651Y-20134D01*
X35647Y-20134D01*
X35643Y-20132D01*
X35554Y-20132D01*
X35465Y-20131D01*
X35461Y-20132D01*
X35457Y-20132D01*
X35375Y-20166D01*
X35292Y-20198D01*
X35286Y-20203D01*
X35285Y-20203D01*
X35285Y-20203D01*
X35277Y-20208D01*
X35276Y-20212D01*
X35162Y-20326D01*
X35158Y-20327D01*
X35157Y-20331D01*
X35154Y-20334D01*
X35119Y-20416D01*
X35084Y-20498D01*
X35084Y-20502D01*
X35082Y-20506D01*
X35082Y-20595D01*
X35081Y-20684D01*
X35082Y-20688D01*
X35082Y-20692D01*
X35116Y-20774D01*
X35148Y-20857D01*
X35153Y-20863D01*
X35153Y-20864D01*
X35153Y-20864D01*
X35158Y-20872D01*
X35162Y-20873D01*
X35276Y-20987D01*
X35277Y-20991D01*
X35281Y-20992D01*
X35284Y-20995D01*
X35366Y-21030D01*
X35448Y-21065D01*
X35452Y-21065D01*
X35456Y-21067D01*
X35545Y-21067D01*
X35634Y-21068D01*
X35638Y-21067D01*
X35642Y-21067D01*
X35724Y-21033D01*
X35807Y-21001D01*
X35813Y-20996D01*
X35814Y-20996D01*
X35814Y-20996D01*
X35822Y-20991D01*
X35823Y-20987D01*
X35937Y-20873D01*
X35941Y-20872D01*
X35942Y-20868D01*
X35945Y-20865D01*
X35980Y-20783D01*
X36015Y-20701D01*
X36015Y-20697D01*
X36017Y-20693D01*
X36017Y-20604D01*
X36018Y-20515D01*
X36018Y-21456D01*
X35017Y-21456D01*
X35017Y-20866D01*
X35017Y-20333D01*
X35017Y-20266D01*
X35017Y-20266D01*
X35017Y-20266D01*
X35004Y-20235D01*
X34991Y-20205D01*
X34991Y-20205D01*
X34991Y-20205D01*
X34968Y-20181D01*
X34944Y-20158D01*
X34944Y-20158D01*
X34944Y-20158D01*
X34914Y-20145D01*
X34883Y-20132D01*
X34883Y-20132D01*
X34883Y-20132D01*
X34823Y-20132D01*
X34816Y-20132D01*
X34216Y-20132D01*
X34155Y-20158D01*
X34108Y-20205D01*
X34082Y-20266D01*
X34082Y-20333D01*
X34082Y-20866D01*
X34082Y-20933D01*
X34082Y-20933D01*
X34082Y-20933D01*
X34095Y-20964D01*
X34108Y-20994D01*
X34108Y-20994D01*
X34108Y-20994D01*
X34131Y-21018D01*
X34155Y-21041D01*
X34155Y-21041D01*
X34155Y-21041D01*
X34185Y-21054D01*
X34216Y-21067D01*
X34216Y-21067D01*
X34216Y-21067D01*
X34276Y-21067D01*
X34283Y-21067D01*
X34883Y-21067D01*
X34944Y-21041D01*
X34991Y-20994D01*
X35017Y-20933D01*
X35017Y-20866D01*
X35017Y-21456D01*
X32217Y-21456D01*
X32217Y-20507D01*
X32146Y-20335D01*
X32015Y-20204D01*
X31843Y-20132D01*
X31657Y-20132D01*
X31485Y-20203D01*
X31354Y-20334D01*
X31282Y-20506D01*
X31282Y-20692D01*
X31353Y-20864D01*
X31484Y-20995D01*
X31656Y-21067D01*
X31842Y-21067D01*
X32014Y-20996D01*
X32145Y-20865D01*
X32217Y-20693D01*
X32217Y-20507D01*
X32217Y-21456D01*
X31217Y-21456D01*
X31217Y-20866D01*
X31217Y-20266D01*
X31191Y-20205D01*
X31144Y-20158D01*
X31083Y-20132D01*
X31016Y-20132D01*
X30416Y-20132D01*
X30355Y-20158D01*
X30308Y-20205D01*
X30282Y-20266D01*
X30282Y-20333D01*
X30282Y-20933D01*
X30308Y-20994D01*
X30355Y-21041D01*
X30416Y-21067D01*
X30483Y-21067D01*
X31083Y-21067D01*
X31144Y-21041D01*
X31191Y-20994D01*
X31217Y-20933D01*
X31217Y-20866D01*
X31217Y-21456D01*
X28667Y-21456D01*
X28667Y-20507D01*
X28596Y-20335D01*
X28465Y-20204D01*
X28293Y-20132D01*
X28107Y-20132D01*
X27935Y-20203D01*
X27804Y-20334D01*
X27732Y-20506D01*
X27732Y-20692D01*
X27803Y-20864D01*
X27934Y-20995D01*
X28106Y-21067D01*
X28292Y-21067D01*
X28464Y-20996D01*
X28595Y-20865D01*
X28667Y-20693D01*
X28667Y-20507D01*
X28667Y-21456D01*
X26574Y-21456D01*
X26574Y-19291D01*
X26574Y-19281D01*
X26592Y-19307D01*
X27042Y-19757D01*
X27160Y-19836D01*
X27160Y-19836D01*
X27300Y-19864D01*
X28649Y-19864D01*
X28835Y-20050D01*
X28835Y-20145D01*
X28805Y-20158D01*
X28758Y-20205D01*
X28732Y-20266D01*
X28732Y-20333D01*
X28732Y-20933D01*
X28758Y-20994D01*
X28805Y-21041D01*
X28866Y-21067D01*
X28933Y-21067D01*
X29533Y-21067D01*
X29594Y-21041D01*
X29641Y-20994D01*
X29667Y-20933D01*
X29667Y-20866D01*
X29667Y-20266D01*
X29641Y-20205D01*
X29594Y-20158D01*
X29564Y-20145D01*
X29564Y-19900D01*
X29564Y-19899D01*
X29564Y-19899D01*
X29558Y-19872D01*
X29536Y-19760D01*
X29536Y-19760D01*
X29457Y-19642D01*
X29457Y-19642D01*
X29057Y-19242D01*
X28939Y-19163D01*
X28800Y-19135D01*
X27450Y-19135D01*
X27214Y-18899D01*
X27214Y-18433D01*
X27259Y-18543D01*
X27355Y-18640D01*
X27481Y-18692D01*
X27617Y-18692D01*
X27743Y-18640D01*
X27840Y-18544D01*
X27892Y-18418D01*
X27892Y-18383D01*
X31110Y-15165D01*
X36131Y-15165D01*
X36155Y-15190D01*
X36281Y-15242D01*
X36417Y-15242D01*
X36543Y-15190D01*
X36640Y-15094D01*
X36692Y-14968D01*
X36692Y-14832D01*
X36640Y-14706D01*
X36544Y-14609D01*
X36418Y-14557D01*
X36282Y-14557D01*
X36156Y-14609D01*
X36131Y-14634D01*
X31000Y-14634D01*
X30898Y-14654D01*
X30812Y-14712D01*
X27516Y-18007D01*
X27482Y-18007D01*
X27356Y-18059D01*
X27259Y-18155D01*
X27214Y-18266D01*
X27214Y-17900D01*
X27422Y-17692D01*
X27501Y-17574D01*
X27501Y-17574D01*
X27529Y-17434D01*
X27529Y-12871D01*
X27560Y-12859D01*
X27607Y-12812D01*
X27619Y-12781D01*
X28316Y-12781D01*
X29285Y-13750D01*
X29285Y-14650D01*
X29313Y-14789D01*
X29392Y-14907D01*
X29510Y-14986D01*
X29650Y-15014D01*
X29789Y-14986D01*
X29907Y-14907D01*
X29986Y-14789D01*
X30014Y-14650D01*
X30014Y-13800D01*
X30500Y-13314D01*
X35599Y-13314D01*
X36735Y-14450D01*
X36735Y-15600D01*
X36735Y-16899D01*
X36392Y-17242D01*
X36392Y-16332D01*
X36340Y-16206D01*
X36244Y-16109D01*
X36118Y-16057D01*
X35982Y-16057D01*
X35856Y-16109D01*
X35831Y-16134D01*
X34500Y-16134D01*
X34398Y-16154D01*
X34312Y-16212D01*
X33462Y-17062D01*
X33404Y-17148D01*
X33384Y-17250D01*
X33384Y-19889D01*
X33016Y-20257D01*
X32982Y-20257D01*
X32856Y-20309D01*
X32759Y-20405D01*
X32707Y-20531D01*
X32707Y-20667D01*
X32759Y-20793D01*
X32855Y-20890D01*
X32981Y-20942D01*
X33117Y-20942D01*
X33243Y-20890D01*
X33340Y-20794D01*
X33392Y-20668D01*
X33392Y-20633D01*
X33837Y-20187D01*
X33895Y-20101D01*
X33895Y-20101D01*
X33915Y-20000D01*
X33915Y-17360D01*
X34610Y-16665D01*
X35831Y-16665D01*
X35855Y-16690D01*
X35981Y-16742D01*
X36117Y-16742D01*
X36243Y-16690D01*
X36340Y-16594D01*
X36392Y-16468D01*
X36392Y-16332D01*
X36392Y-17242D01*
X34502Y-19132D01*
X34457Y-19132D01*
X34285Y-19203D01*
X34154Y-19334D01*
X34082Y-19506D01*
X34082Y-19692D01*
X34153Y-19864D01*
X34284Y-19995D01*
X34456Y-20067D01*
X34642Y-20067D01*
X34814Y-19996D01*
X34945Y-19865D01*
X35017Y-19693D01*
X35017Y-19647D01*
X35082Y-19582D01*
X35082Y-19692D01*
X35153Y-19864D01*
X35284Y-19995D01*
X35456Y-20067D01*
X35642Y-20067D01*
X35814Y-19996D01*
X35945Y-19865D01*
X36017Y-19693D01*
X36017Y-19507D01*
X35946Y-19335D01*
X35815Y-19204D01*
X35643Y-19132D01*
X35532Y-19132D01*
X37357Y-17307D01*
X37436Y-17189D01*
X37436Y-17189D01*
X37464Y-17050D01*
X37464Y-15600D01*
X37464Y-14300D01*
X37436Y-14160D01*
X37436Y-14160D01*
X37357Y-14042D01*
X36007Y-12692D01*
X35889Y-12613D01*
X35750Y-12585D01*
X30350Y-12585D01*
X30349Y-12585D01*
X30322Y-12591D01*
X30210Y-12613D01*
X30092Y-12692D01*
X30092Y-12692D01*
X29674Y-13109D01*
X28724Y-12159D01*
X28606Y-12080D01*
X28531Y-12065D01*
X28531Y-9284D01*
X28526Y-9271D01*
X28526Y-9257D01*
X28458Y-9092D01*
X28394Y-8925D01*
X28380Y-8903D01*
X28379Y-8901D01*
X28378Y-8900D01*
X28362Y-8877D01*
X28338Y-8860D01*
X28146Y-8668D01*
X28130Y-8645D01*
X28117Y-8639D01*
X28107Y-8629D01*
X27942Y-8560D01*
X27779Y-8487D01*
X27765Y-8487D01*
X27752Y-8481D01*
X27573Y-8481D01*
X27395Y-8476D01*
X27381Y-8481D01*
X27367Y-8481D01*
X27202Y-8549D01*
X27035Y-8613D01*
X27013Y-8627D01*
X27011Y-8628D01*
X27010Y-8629D01*
X26987Y-8645D01*
X26970Y-8669D01*
X26778Y-8860D01*
X26755Y-8877D01*
X26749Y-8890D01*
X26739Y-8900D01*
X26670Y-9065D01*
X26597Y-9228D01*
X26597Y-9242D01*
X26591Y-9255D01*
X26591Y-9434D01*
X26586Y-9612D01*
X26591Y-9626D01*
X26591Y-9640D01*
X26659Y-9805D01*
X26723Y-9972D01*
X26737Y-9994D01*
X26738Y-9996D01*
X26740Y-9997D01*
X26755Y-10020D01*
X26779Y-10037D01*
X26971Y-10229D01*
X26987Y-10252D01*
X27000Y-10258D01*
X27010Y-10268D01*
X27175Y-10336D01*
X27338Y-10410D01*
X27352Y-10410D01*
X27365Y-10415D01*
X27544Y-10416D01*
X27723Y-10421D01*
X27736Y-10416D01*
X27750Y-10416D01*
X27915Y-10348D01*
X28082Y-10284D01*
X28104Y-10270D01*
X28106Y-10269D01*
X28107Y-10267D01*
X28130Y-10252D01*
X28147Y-10228D01*
X28339Y-10036D01*
X28362Y-10020D01*
X28368Y-10007D01*
X28378Y-9997D01*
X28447Y-9832D01*
X28520Y-9669D01*
X28520Y-9655D01*
X28526Y-9642D01*
X28526Y-9463D01*
X28531Y-9284D01*
X28531Y-12065D01*
X28467Y-12053D01*
X27632Y-12053D01*
X27632Y-11324D01*
X27561Y-11152D01*
X27430Y-11021D01*
X27258Y-10950D01*
X27072Y-10949D01*
X26900Y-11020D01*
X26769Y-11152D01*
X26698Y-11323D01*
X26697Y-11509D01*
X26768Y-11681D01*
X26900Y-11813D01*
X27071Y-11884D01*
X27257Y-11884D01*
X27429Y-11813D01*
X27561Y-11682D01*
X27632Y-11510D01*
X27632Y-11324D01*
X27632Y-12053D01*
X27619Y-12053D01*
X27607Y-12022D01*
X27560Y-11975D01*
X27498Y-11950D01*
X27432Y-11949D01*
X26832Y-11949D01*
X26770Y-11975D01*
X26723Y-12022D01*
X26698Y-12083D01*
X26698Y-12150D01*
X26698Y-12750D01*
X26723Y-12811D01*
X26770Y-12859D01*
X26801Y-12871D01*
X26801Y-17283D01*
X26592Y-17492D01*
X26574Y-17518D01*
X26574Y-8464D01*
X36548Y-8464D01*
X36508Y-8505D01*
X36482Y-8566D01*
X36482Y-8633D01*
X36482Y-9233D01*
X36508Y-9294D01*
X36555Y-9341D01*
X36616Y-9367D01*
X36683Y-9367D01*
X37283Y-9367D01*
X37344Y-9341D01*
X37391Y-9294D01*
X37417Y-9233D01*
X37417Y-9166D01*
X37417Y-8708D01*
X37460Y-8665D01*
X37541Y-8665D01*
X37482Y-8806D01*
X37482Y-8992D01*
X37553Y-9164D01*
X37684Y-9295D01*
X37856Y-9367D01*
X38042Y-9367D01*
X38214Y-9296D01*
X38345Y-9165D01*
X38417Y-8993D01*
X38417Y-8807D01*
X38372Y-8698D01*
X38482Y-8808D01*
X38482Y-9233D01*
X38508Y-9294D01*
X38555Y-9341D01*
X38616Y-9367D01*
X38683Y-9367D01*
X39283Y-9367D01*
X39344Y-9341D01*
X39391Y-9294D01*
X39417Y-9233D01*
X39417Y-9166D01*
X39417Y-8566D01*
X39391Y-8505D01*
X39351Y-8464D01*
X39780Y-8464D01*
X39685Y-8503D01*
X39554Y-8634D01*
X39482Y-8806D01*
X39482Y-8992D01*
X39553Y-9164D01*
X39684Y-9295D01*
X39856Y-9367D01*
X40042Y-9367D01*
X40214Y-9296D01*
X40345Y-9165D01*
X40417Y-8993D01*
X40417Y-8807D01*
X40346Y-8635D01*
X40215Y-8504D01*
X40119Y-8464D01*
X40944Y-8464D01*
X41929Y-8464D01*
X41929Y-21456D01*
X41929Y-21456D01*
G37*
G54D17*
X41929Y-21456D02*
X41917Y-21456D01*
X41917Y-20308D01*
X41912Y-20295D01*
X41912Y-20280D01*
X41892Y-20232D01*
X41892Y-16332D01*
X41840Y-16206D01*
X41815Y-16181D01*
X41815Y-14950D01*
X41795Y-14848D01*
X41795Y-14848D01*
X41737Y-14762D01*
X38837Y-11862D01*
X38751Y-11804D01*
X38650Y-11784D01*
X35068Y-11784D01*
X35044Y-11759D01*
X34918Y-11707D01*
X34782Y-11707D01*
X34656Y-11759D01*
X34559Y-11855D01*
X34507Y-11981D01*
X34507Y-12117D01*
X34559Y-12243D01*
X34655Y-12340D01*
X34781Y-12392D01*
X34917Y-12392D01*
X35043Y-12340D01*
X35068Y-12315D01*
X38539Y-12315D01*
X41284Y-15060D01*
X41284Y-16181D01*
X41259Y-16205D01*
X41207Y-16331D01*
X41207Y-16467D01*
X41259Y-16593D01*
X41355Y-16690D01*
X41481Y-16742D01*
X41617Y-16742D01*
X41743Y-16690D01*
X41840Y-16594D01*
X41892Y-16468D01*
X41892Y-16332D01*
X41892Y-20232D01*
X41844Y-20115D01*
X41780Y-19948D01*
X41766Y-19927D01*
X41765Y-19925D01*
X41763Y-19923D01*
X41748Y-19900D01*
X41724Y-19883D01*
X41532Y-19692D01*
X41516Y-19668D01*
X41503Y-19662D01*
X41493Y-19652D01*
X41328Y-19584D01*
X41165Y-19511D01*
X41151Y-19510D01*
X41138Y-19505D01*
X40959Y-19505D01*
X40780Y-19499D01*
X40767Y-19504D01*
X40753Y-19504D01*
X40588Y-19573D01*
X40421Y-19636D01*
X40399Y-19651D01*
X40397Y-19651D01*
X40396Y-19653D01*
X40373Y-19668D01*
X40356Y-19693D01*
X40164Y-19884D01*
X40141Y-19900D01*
X40135Y-19913D01*
X40125Y-19923D01*
X40056Y-20088D01*
X39983Y-20251D01*
X39983Y-20266D01*
X39977Y-20279D01*
X39977Y-20457D01*
X39972Y-20636D01*
X39977Y-20649D01*
X39977Y-20664D01*
X40045Y-20829D01*
X40109Y-20996D01*
X40123Y-21017D01*
X40124Y-21019D01*
X40125Y-21021D01*
X40141Y-21044D01*
X40165Y-21061D01*
X40357Y-21252D01*
X40373Y-21276D01*
X40386Y-21281D01*
X40396Y-21292D01*
X40561Y-21360D01*
X40724Y-21433D01*
X40738Y-21434D01*
X40751Y-21439D01*
X40930Y-21439D01*
X41108Y-21444D01*
X41122Y-21439D01*
X41136Y-21439D01*
X41301Y-21371D01*
X41468Y-21308D01*
X41490Y-21293D01*
X41492Y-21292D01*
X41493Y-21291D01*
X41516Y-21276D01*
X41533Y-21251D01*
X41725Y-21060D01*
X41748Y-21044D01*
X41754Y-21031D01*
X41764Y-21021D01*
X41832Y-20856D01*
X41906Y-20693D01*
X41906Y-20678D01*
X41912Y-20665D01*
X41912Y-20487D01*
X41917Y-20308D01*
X41917Y-21456D01*
X39018Y-21456D01*
X39018Y-19515D01*
X39017Y-19511D01*
X39017Y-19507D01*
X38983Y-19425D01*
X38951Y-19342D01*
X38946Y-19336D01*
X38946Y-19335D01*
X38946Y-19335D01*
X38941Y-19327D01*
X38937Y-19326D01*
X38823Y-19212D01*
X38822Y-19208D01*
X38818Y-19207D01*
X38815Y-19204D01*
X38742Y-19173D01*
X38742Y-13332D01*
X38690Y-13206D01*
X38594Y-13109D01*
X38468Y-13057D01*
X38332Y-13057D01*
X38206Y-13109D01*
X38181Y-13134D01*
X37668Y-13134D01*
X37644Y-13109D01*
X37518Y-13057D01*
X37382Y-13057D01*
X37256Y-13109D01*
X37159Y-13205D01*
X37107Y-13331D01*
X37107Y-13467D01*
X37159Y-13593D01*
X37255Y-13690D01*
X37381Y-13742D01*
X37517Y-13742D01*
X37643Y-13690D01*
X37668Y-13665D01*
X38181Y-13665D01*
X38205Y-13690D01*
X38331Y-13742D01*
X38467Y-13742D01*
X38593Y-13690D01*
X38690Y-13594D01*
X38742Y-13468D01*
X38742Y-13332D01*
X38742Y-19173D01*
X38733Y-19169D01*
X38651Y-19134D01*
X38647Y-19134D01*
X38643Y-19132D01*
X38554Y-19132D01*
X38465Y-19131D01*
X38461Y-19132D01*
X38457Y-19132D01*
X38375Y-19166D01*
X38292Y-19198D01*
X38286Y-19203D01*
X38285Y-19203D01*
X38285Y-19203D01*
X38277Y-19208D01*
X38276Y-19212D01*
X38162Y-19326D01*
X38158Y-19327D01*
X38157Y-19331D01*
X38154Y-19334D01*
X38119Y-19416D01*
X38084Y-19498D01*
X38084Y-19502D01*
X38082Y-19506D01*
X38082Y-19595D01*
X38081Y-19684D01*
X38082Y-19688D01*
X38082Y-19692D01*
X38116Y-19774D01*
X38148Y-19857D01*
X38153Y-19863D01*
X38153Y-19864D01*
X38153Y-19864D01*
X38158Y-19872D01*
X38162Y-19873D01*
X38276Y-19987D01*
X38277Y-19991D01*
X38281Y-19992D01*
X38284Y-19995D01*
X38366Y-20030D01*
X38448Y-20065D01*
X38452Y-20065D01*
X38456Y-20067D01*
X38545Y-20067D01*
X38634Y-20068D01*
X38638Y-20067D01*
X38642Y-20067D01*
X38724Y-20033D01*
X38807Y-20001D01*
X38813Y-19996D01*
X38814Y-19996D01*
X38814Y-19996D01*
X38822Y-19991D01*
X38823Y-19987D01*
X38937Y-19873D01*
X38941Y-19872D01*
X38942Y-19868D01*
X38945Y-19865D01*
X38980Y-19783D01*
X39015Y-19701D01*
X39015Y-19697D01*
X39017Y-19693D01*
X39017Y-19604D01*
X39018Y-19515D01*
X39018Y-21456D01*
X39017Y-21456D01*
X39017Y-20507D01*
X38946Y-20335D01*
X38815Y-20204D01*
X38643Y-20132D01*
X38457Y-20132D01*
X38285Y-20203D01*
X38154Y-20334D01*
X38082Y-20506D01*
X38082Y-20692D01*
X38153Y-20864D01*
X38284Y-20995D01*
X38456Y-21067D01*
X38642Y-21067D01*
X38814Y-20996D01*
X38945Y-20865D01*
X39017Y-20693D01*
X39017Y-20507D01*
X39017Y-21456D01*
X38017Y-21456D01*
X38017Y-20507D01*
X38017Y-19507D01*
X37946Y-19335D01*
X37815Y-19204D01*
X37643Y-19132D01*
X37457Y-19132D01*
X37285Y-19203D01*
X37154Y-19334D01*
X37082Y-19506D01*
X37082Y-19692D01*
X37153Y-19864D01*
X37284Y-19995D01*
X37456Y-20067D01*
X37642Y-20067D01*
X37814Y-19996D01*
X37945Y-19865D01*
X38017Y-19693D01*
X38017Y-19507D01*
X38017Y-20507D01*
X37946Y-20335D01*
X37815Y-20204D01*
X37643Y-20132D01*
X37457Y-20132D01*
X37285Y-20203D01*
X37154Y-20334D01*
X37082Y-20506D01*
X37082Y-20692D01*
X37153Y-20864D01*
X37284Y-20995D01*
X37456Y-21067D01*
X37642Y-21067D01*
X37814Y-20996D01*
X37945Y-20865D01*
X38017Y-20693D01*
X38017Y-20507D01*
X38017Y-21456D01*
X37018Y-21456D01*
X37018Y-20515D01*
X37018Y-19515D01*
X37017Y-19511D01*
X37017Y-19507D01*
X36983Y-19425D01*
X36951Y-19342D01*
X36946Y-19336D01*
X36946Y-19335D01*
X36946Y-19335D01*
X36941Y-19327D01*
X36937Y-19326D01*
X36823Y-19212D01*
X36822Y-19208D01*
X36818Y-19207D01*
X36815Y-19204D01*
X36733Y-19169D01*
X36651Y-19134D01*
X36647Y-19134D01*
X36643Y-19132D01*
X36554Y-19132D01*
X36465Y-19131D01*
X36461Y-19132D01*
X36457Y-19132D01*
X36375Y-19166D01*
X36292Y-19198D01*
X36286Y-19203D01*
X36285Y-19203D01*
X36285Y-19203D01*
X36277Y-19208D01*
X36276Y-19212D01*
X36162Y-19326D01*
X36158Y-19327D01*
X36157Y-19331D01*
X36154Y-19334D01*
X36119Y-19416D01*
X36084Y-19498D01*
X36084Y-19502D01*
X36082Y-19506D01*
X36082Y-19595D01*
X36081Y-19684D01*
X36082Y-19688D01*
X36082Y-19692D01*
X36116Y-19774D01*
X36148Y-19857D01*
X36153Y-19863D01*
X36153Y-19864D01*
X36153Y-19864D01*
X36158Y-19872D01*
X36162Y-19873D01*
X36276Y-19987D01*
X36277Y-19991D01*
X36281Y-19992D01*
X36284Y-19995D01*
X36366Y-20030D01*
X36448Y-20065D01*
X36452Y-20065D01*
X36456Y-20067D01*
X36545Y-20067D01*
X36634Y-20068D01*
X36638Y-20067D01*
X36642Y-20067D01*
X36724Y-20033D01*
X36807Y-20001D01*
X36813Y-19996D01*
X36814Y-19996D01*
X36814Y-19996D01*
X36822Y-19991D01*
X36823Y-19987D01*
X36937Y-19873D01*
X36941Y-19872D01*
X36942Y-19868D01*
X36945Y-19865D01*
X36980Y-19783D01*
X37015Y-19701D01*
X37015Y-19697D01*
X37017Y-19693D01*
X37017Y-19604D01*
X37018Y-19515D01*
X37018Y-20515D01*
X37017Y-20511D01*
X37017Y-20507D01*
X36983Y-20425D01*
X36951Y-20342D01*
X36946Y-20336D01*
X36946Y-20335D01*
X36946Y-20335D01*
X36941Y-20327D01*
X36937Y-20326D01*
X36823Y-20212D01*
X36822Y-20208D01*
X36818Y-20207D01*
X36815Y-20204D01*
X36733Y-20169D01*
X36651Y-20134D01*
X36647Y-20134D01*
X36643Y-20132D01*
X36554Y-20132D01*
X36465Y-20131D01*
X36461Y-20132D01*
X36457Y-20132D01*
X36375Y-20166D01*
X36292Y-20198D01*
X36286Y-20203D01*
X36285Y-20203D01*
X36285Y-20203D01*
X36277Y-20208D01*
X36276Y-20212D01*
X36162Y-20326D01*
X36158Y-20327D01*
X36157Y-20331D01*
X36154Y-20334D01*
X36119Y-20416D01*
X36084Y-20498D01*
X36084Y-20502D01*
X36082Y-20506D01*
X36082Y-20595D01*
X36081Y-20684D01*
X36082Y-20688D01*
X36082Y-20692D01*
X36116Y-20774D01*
X36148Y-20857D01*
X36153Y-20863D01*
X36153Y-20864D01*
X36153Y-20864D01*
X36158Y-20872D01*
X36162Y-20873D01*
X36276Y-20987D01*
X36277Y-20991D01*
X36281Y-20992D01*
X36284Y-20995D01*
X36366Y-21030D01*
X36448Y-21065D01*
X36452Y-21065D01*
X36456Y-21067D01*
X36545Y-21067D01*
X36634Y-21068D01*
X36638Y-21067D01*
X36642Y-21067D01*
X36724Y-21033D01*
X36807Y-21001D01*
X36813Y-20996D01*
X36814Y-20996D01*
X36814Y-20996D01*
X36822Y-20991D01*
X36823Y-20987D01*
X36937Y-20873D01*
X36941Y-20872D01*
X36942Y-20868D01*
X36945Y-20865D01*
X36980Y-20783D01*
X37015Y-20701D01*
X37015Y-20697D01*
X37017Y-20693D01*
X37017Y-20604D01*
X37018Y-20515D01*
X37018Y-21456D01*
X36018Y-21456D01*
X36018Y-20515D01*
X36017Y-20511D01*
X36017Y-20507D01*
X35983Y-20425D01*
X35951Y-20342D01*
X35946Y-20336D01*
X35946Y-20335D01*
X35946Y-20335D01*
X35941Y-20327D01*
X35937Y-20326D01*
X35823Y-20212D01*
X35822Y-20208D01*
X35818Y-20207D01*
X35815Y-20204D01*
X35733Y-20169D01*
X35651Y-20134D01*
X35647Y-20134D01*
X35643Y-20132D01*
X35554Y-20132D01*
X35465Y-20131D01*
X35461Y-20132D01*
X35457Y-20132D01*
X35375Y-20166D01*
X35292Y-20198D01*
X35286Y-20203D01*
X35285Y-20203D01*
X35285Y-20203D01*
X35277Y-20208D01*
X35276Y-20212D01*
X35162Y-20326D01*
X35158Y-20327D01*
X35157Y-20331D01*
X35154Y-20334D01*
X35119Y-20416D01*
X35084Y-20498D01*
X35084Y-20502D01*
X35082Y-20506D01*
X35082Y-20595D01*
X35081Y-20684D01*
X35082Y-20688D01*
X35082Y-20692D01*
X35116Y-20774D01*
X35148Y-20857D01*
X35153Y-20863D01*
X35153Y-20864D01*
X35153Y-20864D01*
X35158Y-20872D01*
X35162Y-20873D01*
X35276Y-20987D01*
X35277Y-20991D01*
X35281Y-20992D01*
X35284Y-20995D01*
X35366Y-21030D01*
X35448Y-21065D01*
X35452Y-21065D01*
X35456Y-21067D01*
X35545Y-21067D01*
X35634Y-21068D01*
X35638Y-21067D01*
X35642Y-21067D01*
X35724Y-21033D01*
X35807Y-21001D01*
X35813Y-20996D01*
X35814Y-20996D01*
X35814Y-20996D01*
X35822Y-20991D01*
X35823Y-20987D01*
X35937Y-20873D01*
X35941Y-20872D01*
X35942Y-20868D01*
X35945Y-20865D01*
X35980Y-20783D01*
X36015Y-20701D01*
X36015Y-20697D01*
X36017Y-20693D01*
X36017Y-20604D01*
X36018Y-20515D01*
X36018Y-21456D01*
X35017Y-21456D01*
X35017Y-20866D01*
X35017Y-20333D01*
X35017Y-20266D01*
X35017Y-20266D01*
X35017Y-20266D01*
X35004Y-20235D01*
X34991Y-20205D01*
X34991Y-20205D01*
X34991Y-20205D01*
X34968Y-20181D01*
X34944Y-20158D01*
X34944Y-20158D01*
X34944Y-20158D01*
X34914Y-20145D01*
X34883Y-20132D01*
X34883Y-20132D01*
X34883Y-20132D01*
X34823Y-20132D01*
X34816Y-20132D01*
X34216Y-20132D01*
X34155Y-20158D01*
X34108Y-20205D01*
X34082Y-20266D01*
X34082Y-20333D01*
X34082Y-20866D01*
X34082Y-20933D01*
X34082Y-20933D01*
X34082Y-20933D01*
X34095Y-20964D01*
X34108Y-20994D01*
X34108Y-20994D01*
X34108Y-20994D01*
X34131Y-21018D01*
X34155Y-21041D01*
X34155Y-21041D01*
X34155Y-21041D01*
X34185Y-21054D01*
X34216Y-21067D01*
X34216Y-21067D01*
X34216Y-21067D01*
X34276Y-21067D01*
X34283Y-21067D01*
X34883Y-21067D01*
X34944Y-21041D01*
X34991Y-20994D01*
X35017Y-20933D01*
X35017Y-20866D01*
X35017Y-21456D01*
X32217Y-21456D01*
X32217Y-20507D01*
X32146Y-20335D01*
X32015Y-20204D01*
X31843Y-20132D01*
X31657Y-20132D01*
X31485Y-20203D01*
X31354Y-20334D01*
X31282Y-20506D01*
X31282Y-20692D01*
X31353Y-20864D01*
X31484Y-20995D01*
X31656Y-21067D01*
X31842Y-21067D01*
X32014Y-20996D01*
X32145Y-20865D01*
X32217Y-20693D01*
X32217Y-20507D01*
X32217Y-21456D01*
X31217Y-21456D01*
X31217Y-20866D01*
X31217Y-20266D01*
X31191Y-20205D01*
X31144Y-20158D01*
X31083Y-20132D01*
X31016Y-20132D01*
X30416Y-20132D01*
X30355Y-20158D01*
X30308Y-20205D01*
X30282Y-20266D01*
X30282Y-20333D01*
X30282Y-20933D01*
X30308Y-20994D01*
X30355Y-21041D01*
X30416Y-21067D01*
X30483Y-21067D01*
X31083Y-21067D01*
X31144Y-21041D01*
X31191Y-20994D01*
X31217Y-20933D01*
X31217Y-20866D01*
X31217Y-21456D01*
X28667Y-21456D01*
X28667Y-20507D01*
X28596Y-20335D01*
X28465Y-20204D01*
X28293Y-20132D01*
X28107Y-20132D01*
X27935Y-20203D01*
X27804Y-20334D01*
X27732Y-20506D01*
X27732Y-20692D01*
X27803Y-20864D01*
X27934Y-20995D01*
X28106Y-21067D01*
X28292Y-21067D01*
X28464Y-20996D01*
X28595Y-20865D01*
X28667Y-20693D01*
X28667Y-20507D01*
X28667Y-21456D01*
X26574Y-21456D01*
X26574Y-19291D01*
X26574Y-19281D01*
X26592Y-19307D01*
X27042Y-19757D01*
X27160Y-19836D01*
X27160Y-19836D01*
X27300Y-19864D01*
X28649Y-19864D01*
X28835Y-20050D01*
X28835Y-20145D01*
X28805Y-20158D01*
X28758Y-20205D01*
X28732Y-20266D01*
X28732Y-20333D01*
X28732Y-20933D01*
X28758Y-20994D01*
X28805Y-21041D01*
X28866Y-21067D01*
X28933Y-21067D01*
X29533Y-21067D01*
X29594Y-21041D01*
X29641Y-20994D01*
X29667Y-20933D01*
X29667Y-20866D01*
X29667Y-20266D01*
X29641Y-20205D01*
X29594Y-20158D01*
X29564Y-20145D01*
X29564Y-19900D01*
X29564Y-19899D01*
X29564Y-19899D01*
X29558Y-19872D01*
X29536Y-19760D01*
X29536Y-19760D01*
X29457Y-19642D01*
X29457Y-19642D01*
X29057Y-19242D01*
X28939Y-19163D01*
X28800Y-19135D01*
X27450Y-19135D01*
X27214Y-18899D01*
X27214Y-18433D01*
X27259Y-18543D01*
X27355Y-18640D01*
X27481Y-18692D01*
X27617Y-18692D01*
X27743Y-18640D01*
X27840Y-18544D01*
X27892Y-18418D01*
X27892Y-18383D01*
X31110Y-15165D01*
X36131Y-15165D01*
X36155Y-15190D01*
X36281Y-15242D01*
X36417Y-15242D01*
X36543Y-15190D01*
X36640Y-15094D01*
X36692Y-14968D01*
X36692Y-14832D01*
X36640Y-14706D01*
X36544Y-14609D01*
X36418Y-14557D01*
X36282Y-14557D01*
X36156Y-14609D01*
X36131Y-14634D01*
X31000Y-14634D01*
X30898Y-14654D01*
X30812Y-14712D01*
X27516Y-18007D01*
X27482Y-18007D01*
X27356Y-18059D01*
X27259Y-18155D01*
X27214Y-18266D01*
X27214Y-17900D01*
X27422Y-17692D01*
X27501Y-17574D01*
X27501Y-17574D01*
X27529Y-17434D01*
X27529Y-12871D01*
X27560Y-12859D01*
X27607Y-12812D01*
X27619Y-12781D01*
X28316Y-12781D01*
X29285Y-13750D01*
X29285Y-14650D01*
X29313Y-14789D01*
X29392Y-14907D01*
X29510Y-14986D01*
X29650Y-15014D01*
X29789Y-14986D01*
X29907Y-14907D01*
X29986Y-14789D01*
X30014Y-14650D01*
X30014Y-13800D01*
X30500Y-13314D01*
X35599Y-13314D01*
X36735Y-14450D01*
X36735Y-15600D01*
X36735Y-16899D01*
X36392Y-17242D01*
X36392Y-16332D01*
X36340Y-16206D01*
X36244Y-16109D01*
X36118Y-16057D01*
X35982Y-16057D01*
X35856Y-16109D01*
X35831Y-16134D01*
X34500Y-16134D01*
X34398Y-16154D01*
X34312Y-16212D01*
X33462Y-17062D01*
X33404Y-17148D01*
X33384Y-17250D01*
X33384Y-19889D01*
X33016Y-20257D01*
X32982Y-20257D01*
X32856Y-20309D01*
X32759Y-20405D01*
X32707Y-20531D01*
X32707Y-20667D01*
X32759Y-20793D01*
X32855Y-20890D01*
X32981Y-20942D01*
X33117Y-20942D01*
X33243Y-20890D01*
X33340Y-20794D01*
X33392Y-20668D01*
X33392Y-20633D01*
X33837Y-20187D01*
X33895Y-20101D01*
X33895Y-20101D01*
X33915Y-20000D01*
X33915Y-17360D01*
X34610Y-16665D01*
X35831Y-16665D01*
X35855Y-16690D01*
X35981Y-16742D01*
X36117Y-16742D01*
X36243Y-16690D01*
X36340Y-16594D01*
X36392Y-16468D01*
X36392Y-16332D01*
X36392Y-17242D01*
X34502Y-19132D01*
X34457Y-19132D01*
X34285Y-19203D01*
X34154Y-19334D01*
X34082Y-19506D01*
X34082Y-19692D01*
X34153Y-19864D01*
X34284Y-19995D01*
X34456Y-20067D01*
X34642Y-20067D01*
X34814Y-19996D01*
X34945Y-19865D01*
X35017Y-19693D01*
X35017Y-19647D01*
X35082Y-19582D01*
X35082Y-19692D01*
X35153Y-19864D01*
X35284Y-19995D01*
X35456Y-20067D01*
X35642Y-20067D01*
X35814Y-19996D01*
X35945Y-19865D01*
X36017Y-19693D01*
X36017Y-19507D01*
X35946Y-19335D01*
X35815Y-19204D01*
X35643Y-19132D01*
X35532Y-19132D01*
X37357Y-17307D01*
X37436Y-17189D01*
X37436Y-17189D01*
X37464Y-17050D01*
X37464Y-15600D01*
X37464Y-14300D01*
X37436Y-14160D01*
X37436Y-14160D01*
X37357Y-14042D01*
X36007Y-12692D01*
X35889Y-12613D01*
X35750Y-12585D01*
X30350Y-12585D01*
X30349Y-12585D01*
X30322Y-12591D01*
X30210Y-12613D01*
X30092Y-12692D01*
X30092Y-12692D01*
X29674Y-13109D01*
X28724Y-12159D01*
X28606Y-12080D01*
X28531Y-12065D01*
X28531Y-9284D01*
X28526Y-9271D01*
X28526Y-9257D01*
X28458Y-9092D01*
X28394Y-8925D01*
X28380Y-8903D01*
X28379Y-8901D01*
X28378Y-8900D01*
X28362Y-8877D01*
X28338Y-8860D01*
X28146Y-8668D01*
X28130Y-8645D01*
X28117Y-8639D01*
X28107Y-8629D01*
X27942Y-8560D01*
X27779Y-8487D01*
X27765Y-8487D01*
X27752Y-8481D01*
X27573Y-8481D01*
X27395Y-8476D01*
X27381Y-8481D01*
X27367Y-8481D01*
X27202Y-8549D01*
X27035Y-8613D01*
X27013Y-8627D01*
X27011Y-8628D01*
X27010Y-8629D01*
X26987Y-8645D01*
X26970Y-8669D01*
X26778Y-8860D01*
X26755Y-8877D01*
X26749Y-8890D01*
X26739Y-8900D01*
X26670Y-9065D01*
X26597Y-9228D01*
X26597Y-9242D01*
X26591Y-9255D01*
X26591Y-9434D01*
X26586Y-9612D01*
X26591Y-9626D01*
X26591Y-9640D01*
X26659Y-9805D01*
X26723Y-9972D01*
X26737Y-9994D01*
X26738Y-9996D01*
X26740Y-9997D01*
X26755Y-10020D01*
X26779Y-10037D01*
X26971Y-10229D01*
X26987Y-10252D01*
X27000Y-10258D01*
X27010Y-10268D01*
X27175Y-10336D01*
X27338Y-10410D01*
X27352Y-10410D01*
X27365Y-10415D01*
X27544Y-10416D01*
X27723Y-10421D01*
X27736Y-10416D01*
X27750Y-10416D01*
X27915Y-10348D01*
X28082Y-10284D01*
X28104Y-10270D01*
X28106Y-10269D01*
X28107Y-10267D01*
X28130Y-10252D01*
X28147Y-10228D01*
X28339Y-10036D01*
X28362Y-10020D01*
X28368Y-10007D01*
X28378Y-9997D01*
X28447Y-9832D01*
X28520Y-9669D01*
X28520Y-9655D01*
X28526Y-9642D01*
X28526Y-9463D01*
X28531Y-9284D01*
X28531Y-12065D01*
X28467Y-12053D01*
X27632Y-12053D01*
X27632Y-11324D01*
X27561Y-11152D01*
X27430Y-11021D01*
X27258Y-10950D01*
X27072Y-10949D01*
X26900Y-11020D01*
X26769Y-11152D01*
X26698Y-11323D01*
X26697Y-11509D01*
X26768Y-11681D01*
X26900Y-11813D01*
X27071Y-11884D01*
X27257Y-11884D01*
X27429Y-11813D01*
X27561Y-11682D01*
X27632Y-11510D01*
X27632Y-11324D01*
X27632Y-12053D01*
X27619Y-12053D01*
X27607Y-12022D01*
X27560Y-11975D01*
X27498Y-11950D01*
X27432Y-11949D01*
X26832Y-11949D01*
X26770Y-11975D01*
X26723Y-12022D01*
X26698Y-12083D01*
X26698Y-12150D01*
X26698Y-12750D01*
X26723Y-12811D01*
X26770Y-12859D01*
X26801Y-12871D01*
X26801Y-17283D01*
X26592Y-17492D01*
X26574Y-17518D01*
X26574Y-8464D01*
X36548Y-8464D01*
X36508Y-8505D01*
X36482Y-8566D01*
X36482Y-8633D01*
X36482Y-9233D01*
X36508Y-9294D01*
X36555Y-9341D01*
X36616Y-9367D01*
X36683Y-9367D01*
X37283Y-9367D01*
X37344Y-9341D01*
X37391Y-9294D01*
X37417Y-9233D01*
X37417Y-9166D01*
X37417Y-8708D01*
X37460Y-8665D01*
X37541Y-8665D01*
X37482Y-8806D01*
X37482Y-8992D01*
X37553Y-9164D01*
X37684Y-9295D01*
X37856Y-9367D01*
X38042Y-9367D01*
X38214Y-9296D01*
X38345Y-9165D01*
X38417Y-8993D01*
X38417Y-8807D01*
X38372Y-8698D01*
X38482Y-8808D01*
X38482Y-9233D01*
X38508Y-9294D01*
X38555Y-9341D01*
X38616Y-9367D01*
X38683Y-9367D01*
X39283Y-9367D01*
X39344Y-9341D01*
X39391Y-9294D01*
X39417Y-9233D01*
X39417Y-9166D01*
X39417Y-8566D01*
X39391Y-8505D01*
X39351Y-8464D01*
X39780Y-8464D01*
X39685Y-8503D01*
X39554Y-8634D01*
X39482Y-8806D01*
X39482Y-8992D01*
X39553Y-9164D01*
X39684Y-9295D01*
X39856Y-9367D01*
X40042Y-9367D01*
X40214Y-9296D01*
X40345Y-9165D01*
X40417Y-8993D01*
X40417Y-8807D01*
X40346Y-8635D01*
X40215Y-8504D01*
X40119Y-8464D01*
X40944Y-8464D01*
X41929Y-8464D01*
X41929Y-21456D01*
M02*
