M48
;DRILL file {Pcbnew (2013-07-07 BZR 4022)-stable} date 10/09/2014 21:53:49
;FORMAT={-:-/ absolute / inch / decimal}
FMAT,2
INCH,TZ
T1C0.025
T2C0.032
T3C0.040
T4C0.045
T5C0.048
T6C0.056
%
G90
G05
M72
T1
X5.725Y-3.47
X5.73Y-3.81
X6.11Y-4.215
X6.14Y-3.885
X6.285Y-4.185
X6.325Y-4.36
X6.345Y-3.645
X6.4Y-3.87
X6.41Y-3.365
X6.415Y-3.675
X6.42Y-3.535
X6.485Y-4.185
X6.52Y-3.845
X6.55Y-3.95
X6.61Y-4.025
X6.655Y-3.53
X6.71Y-4.06
X6.835Y-4.09
X6.95Y-3.855
X6.965Y-4.085
X6.975Y-4.315
X7.01Y-4.145
X7.06Y-4.315
X7.11Y-4.025
X7.145Y-3.975
X7.15Y-3.285
X7.185Y-3.925
X7.23Y-4.065
X7.26Y-3.55
X7.265Y-3.93
X7.27Y-4.19
X7.275Y-3.825
X7.275Y-4.12
X7.31Y-3.395
X7.325Y-4.35
X7.345Y-3.695
X7.35Y-3.545
X7.375Y-3.965
X7.395Y-4.065
X7.395Y-4.14
X7.43Y-3.345
X7.46Y-3.45
X7.46Y-4.235
X7.49Y-3.38
X7.605Y-4.3
X7.63Y-3.525
X7.665Y-3.785
X7.685Y-3.48
X7.73Y-3.555
X7.75Y-3.76
X7.845Y-3.52
X7.885Y-4.13
X7.895Y-3.77
X7.975Y-3.62
X7.985Y-4.3
X8.005Y-4.195
X8.05Y-4.26
X8.065Y-3.565
T2
X5.895Y-3.47
X5.895Y-3.77
X5.995Y-3.47
X5.995Y-3.77
X6.095Y-3.47
X6.095Y-3.77
X6.195Y-3.47
X6.195Y-3.77
X6.295Y-3.47
X6.295Y-3.77
X6.395Y-3.47
X6.395Y-3.77
X6.495Y-3.47
X6.495Y-3.77
X6.595Y-3.47
X6.595Y-3.77
X6.695Y-3.47
X6.695Y-3.77
X6.795Y-3.47
X6.795Y-3.77
X6.81Y-3.625
X6.895Y-3.47
X6.895Y-3.77
X6.995Y-3.47
X6.995Y-3.77
X7.01Y-3.625
X7.095Y-3.47
X7.095Y-3.77
X7.195Y-3.47
X7.195Y-3.77
X7.565Y-3.34
X7.665Y-3.34
X7.855Y-3.345
X7.955Y-3.345
T3
X5.645Y-3.51
X5.645Y-3.61
X5.645Y-3.71
X5.645Y-3.81
X6.17Y-4.27
X6.27Y-4.27
X6.37Y-4.27
T4
X6.67Y-4.25
X6.77Y-4.25
X6.87Y-4.25
T5
X5.73Y-4.525
X5.93Y-4.525
X6.155Y-4.57
X6.355Y-4.57
X6.555Y-4.57
X6.785Y-4.57
X6.985Y-4.57
X7.185Y-4.57
X7.41Y-4.57
X7.61Y-4.57
X7.83Y-4.515
X8.03Y-4.515
T6
X5.68Y-4.015
X5.88Y-4.015
X6.28Y-4.015
X6.48Y-4.015
T0
M30
