G04 (created by PCBNEW (2013-07-07 BZR 4022)-stable) date 10/09/2014 21:53:45*
%MOIN*%
G04 Gerber Fmt 3.4, Leading zero omitted, Abs format*
%FSLAX34Y34*%
G01*
G70*
G90*
G04 APERTURE LIST*
%ADD10C,0.00393701*%
%ADD11C,0.01*%
%ADD12C,0.012*%
%ADD13C,0.006*%
%ADD14C,0.015*%
%ADD15C,0.008*%
%ADD16C,0.01125*%
%ADD17C,0.0035*%
G04 APERTURE END LIST*
G54D10*
G54D11*
X69200Y-43300D02*
X66100Y-43300D01*
X69300Y-43200D02*
X69300Y-43400D01*
X69300Y-43400D02*
X66100Y-43400D01*
X66100Y-43400D02*
X66100Y-43200D01*
X69300Y-41800D02*
X69300Y-43200D01*
X69300Y-43200D02*
X66100Y-43200D01*
X66100Y-43200D02*
X66100Y-41800D01*
X66100Y-41800D02*
X69300Y-41800D01*
G54D12*
X55800Y-39150D02*
X65800Y-39150D01*
X65800Y-39150D02*
X65800Y-41150D01*
X65800Y-41150D02*
X55800Y-41150D01*
X55800Y-41150D02*
X55800Y-39150D01*
X58800Y-39150D02*
X58800Y-41150D01*
X62800Y-39150D02*
X62800Y-41150D01*
G54D13*
X66350Y-35750D02*
X66850Y-35250D01*
X71350Y-35250D02*
X71850Y-35750D01*
X71850Y-36750D02*
X71350Y-37250D01*
X66350Y-36750D02*
X66850Y-37250D01*
X66850Y-35250D02*
X71350Y-35250D01*
X66350Y-35750D02*
X66350Y-36750D01*
X66850Y-37250D02*
X71350Y-37250D01*
X71850Y-36750D02*
X71850Y-35750D01*
G54D14*
X57950Y-35200D02*
X72950Y-35200D01*
X72950Y-35200D02*
X72950Y-37200D01*
X72950Y-37200D02*
X57950Y-37200D01*
X57950Y-37200D02*
X57950Y-35200D01*
X57950Y-35700D02*
X58450Y-35700D01*
X58450Y-35700D02*
X58450Y-36700D01*
X58450Y-36700D02*
X57950Y-36700D01*
G54D11*
X56300Y-46750D02*
X56300Y-47050D01*
X56300Y-47050D02*
X60300Y-47050D01*
X60300Y-47050D02*
X60300Y-46750D01*
X56300Y-43450D02*
X60300Y-43450D01*
X60300Y-43450D02*
X60300Y-43850D01*
X60300Y-43850D02*
X56300Y-43850D01*
X56300Y-43850D02*
X56300Y-43450D01*
X56300Y-43750D02*
X56300Y-46750D01*
X60300Y-46750D02*
X60300Y-43750D01*
X72850Y-43900D02*
X72850Y-44300D01*
X72850Y-44300D02*
X66850Y-44300D01*
X66850Y-44300D02*
X66850Y-43900D01*
X66850Y-43900D02*
X72850Y-43900D01*
X72850Y-47500D02*
X72850Y-47200D01*
X72850Y-47500D02*
X66850Y-47500D01*
X66850Y-47500D02*
X66850Y-47200D01*
X72850Y-44200D02*
X72850Y-47200D01*
X66850Y-44200D02*
X66850Y-47200D01*
X66550Y-43900D02*
X66550Y-44300D01*
X66550Y-44300D02*
X60550Y-44300D01*
X60550Y-44300D02*
X60550Y-43900D01*
X60550Y-43900D02*
X66550Y-43900D01*
X66550Y-47500D02*
X66550Y-47200D01*
X66550Y-47500D02*
X60550Y-47500D01*
X60550Y-47500D02*
X60550Y-47200D01*
X66550Y-44200D02*
X66550Y-47200D01*
X60550Y-44200D02*
X60550Y-47200D01*
G54D14*
X56950Y-38600D02*
X56950Y-34450D01*
X55950Y-38600D02*
X55950Y-34450D01*
G54D12*
X55950Y-38600D02*
X56950Y-38600D01*
X56950Y-34450D02*
X55950Y-34450D01*
G54D11*
X77300Y-46650D02*
X77300Y-46950D01*
X77300Y-46950D02*
X81300Y-46950D01*
X81300Y-46950D02*
X81300Y-46650D01*
X77300Y-43350D02*
X81300Y-43350D01*
X81300Y-43350D02*
X81300Y-43750D01*
X81300Y-43750D02*
X77300Y-43750D01*
X77300Y-43750D02*
X77300Y-43350D01*
X77300Y-43650D02*
X77300Y-46650D01*
X81300Y-46650D02*
X81300Y-43650D01*
X79770Y-33950D02*
X79770Y-32950D01*
G54D13*
X78689Y-33065D02*
G75*
G03X78550Y-33450I460J-384D01*
G74*
G01*
X78550Y-33450D02*
G75*
G03X78701Y-33847I599J0D01*
G74*
G01*
X79749Y-33450D02*
G75*
G03X79605Y-33060I-599J0D01*
G74*
G01*
X79610Y-33834D02*
G75*
G03X79750Y-33450I-460J384D01*
G74*
G01*
X79637Y-33100D02*
G75*
G03X79150Y-32850I-487J-349D01*
G74*
G01*
X79150Y-32850D02*
G75*
G03X78670Y-33089I0J-600D01*
G74*
G01*
X79150Y-34049D02*
G75*
G03X79622Y-33818I0J599D01*
G74*
G01*
X78676Y-33818D02*
G75*
G03X79150Y-34050I473J368D01*
G74*
G01*
X79150Y-33200D02*
G75*
G03X78900Y-33450I0J-250D01*
G74*
G01*
X79150Y-33050D02*
G75*
G03X78750Y-33450I0J-400D01*
G74*
G01*
X79150Y-33700D02*
G75*
G03X79400Y-33450I0J250D01*
G74*
G01*
X79150Y-33850D02*
G75*
G03X79550Y-33450I0J400D01*
G74*
G01*
G54D11*
X79763Y-32936D02*
G75*
G03X79150Y-32650I-613J-513D01*
G74*
G01*
X79150Y-32651D02*
G75*
G03X78445Y-33073I0J-799D01*
G74*
G01*
X79151Y-34248D02*
G75*
G03X79760Y-33965I-1J798D01*
G74*
G01*
X78455Y-33847D02*
G75*
G03X79150Y-34250I694J397D01*
G74*
G01*
X78445Y-33070D02*
G75*
G03X78350Y-33450I704J-379D01*
G74*
G01*
X78350Y-33450D02*
G75*
G03X78468Y-33868I799J0D01*
G74*
G01*
X76870Y-33900D02*
X76870Y-32900D01*
G54D13*
X75789Y-33015D02*
G75*
G03X75650Y-33400I460J-384D01*
G74*
G01*
X75650Y-33400D02*
G75*
G03X75801Y-33797I599J0D01*
G74*
G01*
X76849Y-33400D02*
G75*
G03X76705Y-33010I-599J0D01*
G74*
G01*
X76710Y-33784D02*
G75*
G03X76850Y-33400I-460J384D01*
G74*
G01*
X76737Y-33050D02*
G75*
G03X76250Y-32800I-487J-349D01*
G74*
G01*
X76250Y-32800D02*
G75*
G03X75770Y-33039I0J-600D01*
G74*
G01*
X76250Y-33999D02*
G75*
G03X76722Y-33768I0J599D01*
G74*
G01*
X75776Y-33768D02*
G75*
G03X76250Y-34000I473J368D01*
G74*
G01*
X76250Y-33150D02*
G75*
G03X76000Y-33400I0J-250D01*
G74*
G01*
X76250Y-33000D02*
G75*
G03X75850Y-33400I0J-400D01*
G74*
G01*
X76250Y-33650D02*
G75*
G03X76500Y-33400I0J250D01*
G74*
G01*
X76250Y-33800D02*
G75*
G03X76650Y-33400I0J400D01*
G74*
G01*
G54D11*
X76863Y-32886D02*
G75*
G03X76250Y-32600I-613J-513D01*
G74*
G01*
X76250Y-32601D02*
G75*
G03X75545Y-33023I0J-799D01*
G74*
G01*
X76251Y-34198D02*
G75*
G03X76860Y-33915I-1J798D01*
G74*
G01*
X75555Y-33797D02*
G75*
G03X76250Y-34200I694J397D01*
G74*
G01*
X75545Y-33020D02*
G75*
G03X75450Y-33400I704J-379D01*
G74*
G01*
X75450Y-33400D02*
G75*
G03X75568Y-33818I799J0D01*
G74*
G01*
X73100Y-47200D02*
X73100Y-47500D01*
X73100Y-47500D02*
X77100Y-47500D01*
X77100Y-47500D02*
X77100Y-47200D01*
X73100Y-43900D02*
X77100Y-43900D01*
X77100Y-43900D02*
X77100Y-44300D01*
X77100Y-44300D02*
X73100Y-44300D01*
X73100Y-44300D02*
X73100Y-43900D01*
X73100Y-44200D02*
X73100Y-47200D01*
X77100Y-47200D02*
X77100Y-44200D01*
G54D14*
X64700Y-43450D02*
X64700Y-43700D01*
X64700Y-43700D02*
X60700Y-43700D01*
X60700Y-43700D02*
X60700Y-43450D01*
X64700Y-41950D02*
X64700Y-43450D01*
X64700Y-43450D02*
X60700Y-43450D01*
X60700Y-43450D02*
X60700Y-41950D01*
X60700Y-41950D02*
X64700Y-41950D01*
G54D15*
X67761Y-41400D02*
X67723Y-41371D01*
X67685Y-41314D01*
X67628Y-41228D01*
X67590Y-41200D01*
X67552Y-41200D01*
X67571Y-41342D02*
X67533Y-41314D01*
X67495Y-41257D01*
X67476Y-41142D01*
X67476Y-40942D01*
X67495Y-40828D01*
X67533Y-40771D01*
X67571Y-40742D01*
X67647Y-40742D01*
X67685Y-40771D01*
X67723Y-40828D01*
X67742Y-40942D01*
X67742Y-41142D01*
X67723Y-41257D01*
X67685Y-41314D01*
X67647Y-41342D01*
X67571Y-41342D01*
X68123Y-41342D02*
X67895Y-41342D01*
X68009Y-41342D02*
X68009Y-40742D01*
X67971Y-40828D01*
X67933Y-40885D01*
X67895Y-40914D01*
X66804Y-44242D02*
X66804Y-43642D01*
X66938Y-44071D01*
X67071Y-43642D01*
X67071Y-44242D01*
X67338Y-43642D02*
X67414Y-43642D01*
X67452Y-43671D01*
X67490Y-43728D01*
X67509Y-43842D01*
X67509Y-44042D01*
X67490Y-44157D01*
X67452Y-44214D01*
X67414Y-44242D01*
X67338Y-44242D01*
X67300Y-44214D01*
X67261Y-44157D01*
X67242Y-44042D01*
X67242Y-43842D01*
X67261Y-43728D01*
X67300Y-43671D01*
X67338Y-43642D01*
X67661Y-44214D02*
X67719Y-44242D01*
X67814Y-44242D01*
X67852Y-44214D01*
X67871Y-44185D01*
X67890Y-44128D01*
X67890Y-44071D01*
X67871Y-44014D01*
X67852Y-43985D01*
X67814Y-43957D01*
X67738Y-43928D01*
X67700Y-43900D01*
X67680Y-43871D01*
X67661Y-43814D01*
X67661Y-43757D01*
X67680Y-43700D01*
X67700Y-43671D01*
X67738Y-43642D01*
X67833Y-43642D01*
X67890Y-43671D01*
X67966Y-44300D02*
X68271Y-44300D01*
X68366Y-44242D02*
X68366Y-43642D01*
X68595Y-44242D01*
X68595Y-43642D01*
G54D12*
X60990Y-42017D02*
X60781Y-42017D01*
X60781Y-42601D02*
X60781Y-41485D01*
X61080Y-41485D01*
X61648Y-42601D02*
X61289Y-42601D01*
X61469Y-42601D02*
X61469Y-41485D01*
X61409Y-41645D01*
X61349Y-41751D01*
X61289Y-41804D01*
X60252Y-38030D02*
X59985Y-38030D01*
X59985Y-38554D02*
X59985Y-37554D01*
X60366Y-37554D01*
X60671Y-37554D02*
X60671Y-38364D01*
X60709Y-38459D01*
X60747Y-38507D01*
X60823Y-38554D01*
X60976Y-38554D01*
X61052Y-38507D01*
X61090Y-38459D01*
X61128Y-38364D01*
X61128Y-37554D01*
X61471Y-38507D02*
X61585Y-38554D01*
X61776Y-38554D01*
X61852Y-38507D01*
X61890Y-38459D01*
X61928Y-38364D01*
X61928Y-38269D01*
X61890Y-38173D01*
X61852Y-38126D01*
X61776Y-38078D01*
X61623Y-38030D01*
X61547Y-37983D01*
X61509Y-37935D01*
X61471Y-37840D01*
X61471Y-37745D01*
X61509Y-37650D01*
X61547Y-37602D01*
X61623Y-37554D01*
X61814Y-37554D01*
X61928Y-37602D01*
X62271Y-38030D02*
X62538Y-38030D01*
X62652Y-38554D02*
X62271Y-38554D01*
X62271Y-37554D01*
X62652Y-37554D01*
G54D13*
X68645Y-35282D02*
X68978Y-35732D01*
X68978Y-35282D02*
X68645Y-35732D01*
X69430Y-35732D02*
X69145Y-35732D01*
X69288Y-35732D02*
X69288Y-35282D01*
X69240Y-35346D01*
X69192Y-35389D01*
X69145Y-35410D01*
X68290Y-36825D02*
X68242Y-36803D01*
X68219Y-36782D01*
X68195Y-36739D01*
X68195Y-36717D01*
X68219Y-36675D01*
X68242Y-36653D01*
X68290Y-36632D01*
X68385Y-36632D01*
X68433Y-36653D01*
X68457Y-36675D01*
X68480Y-36717D01*
X68480Y-36739D01*
X68457Y-36782D01*
X68433Y-36803D01*
X68385Y-36825D01*
X68290Y-36825D01*
X68242Y-36846D01*
X68219Y-36867D01*
X68195Y-36910D01*
X68195Y-36996D01*
X68219Y-37039D01*
X68242Y-37060D01*
X68290Y-37082D01*
X68385Y-37082D01*
X68433Y-37060D01*
X68457Y-37039D01*
X68480Y-36996D01*
X68480Y-36910D01*
X68457Y-36867D01*
X68433Y-36846D01*
X68385Y-36825D01*
X68695Y-37082D02*
X68695Y-36782D01*
X68695Y-36825D02*
X68719Y-36803D01*
X68766Y-36782D01*
X68838Y-36782D01*
X68885Y-36803D01*
X68909Y-36846D01*
X68909Y-37082D01*
X68909Y-36846D02*
X68933Y-36803D01*
X68980Y-36782D01*
X69052Y-36782D01*
X69100Y-36803D01*
X69123Y-36846D01*
X69123Y-37082D01*
X69361Y-37082D02*
X69361Y-36632D01*
X69576Y-37082D02*
X69576Y-36846D01*
X69552Y-36803D01*
X69504Y-36782D01*
X69433Y-36782D01*
X69385Y-36803D01*
X69361Y-36825D01*
X69766Y-36782D02*
X70028Y-36782D01*
X69766Y-37082D01*
X70028Y-37082D01*
G54D16*
X60510Y-36442D02*
X60510Y-35842D01*
X60982Y-36385D02*
X60960Y-36414D01*
X60896Y-36442D01*
X60853Y-36442D01*
X60789Y-36414D01*
X60746Y-36357D01*
X60725Y-36300D01*
X60703Y-36185D01*
X60703Y-36100D01*
X60725Y-35985D01*
X60746Y-35928D01*
X60789Y-35871D01*
X60853Y-35842D01*
X60896Y-35842D01*
X60960Y-35871D01*
X60982Y-35900D01*
X61410Y-36442D02*
X61153Y-36442D01*
X61282Y-36442D02*
X61282Y-35842D01*
X61239Y-35928D01*
X61196Y-35985D01*
X61153Y-36014D01*
G54D12*
G54D16*
X66325Y-36271D02*
X66539Y-36271D01*
X66282Y-36442D02*
X66432Y-35842D01*
X66582Y-36442D01*
X66667Y-35842D02*
X66925Y-35842D01*
X66796Y-36442D02*
X66796Y-35842D01*
X67075Y-36442D02*
X67075Y-35842D01*
X67225Y-36271D01*
X67375Y-35842D01*
X67375Y-36442D01*
X67589Y-36128D02*
X67739Y-36128D01*
X67803Y-36442D02*
X67589Y-36442D01*
X67589Y-35842D01*
X67803Y-35842D01*
X68232Y-35871D02*
X68189Y-35842D01*
X68125Y-35842D01*
X68060Y-35871D01*
X68017Y-35928D01*
X67996Y-35985D01*
X67975Y-36100D01*
X67975Y-36185D01*
X67996Y-36300D01*
X68017Y-36357D01*
X68060Y-36414D01*
X68125Y-36442D01*
X68167Y-36442D01*
X68232Y-36414D01*
X68253Y-36385D01*
X68253Y-36185D01*
X68167Y-36185D01*
X68425Y-36271D02*
X68639Y-36271D01*
X68382Y-36442D02*
X68532Y-35842D01*
X68682Y-36442D01*
X68896Y-36100D02*
X68853Y-36071D01*
X68832Y-36042D01*
X68810Y-35985D01*
X68810Y-35957D01*
X68832Y-35900D01*
X68853Y-35871D01*
X68896Y-35842D01*
X68982Y-35842D01*
X69025Y-35871D01*
X69046Y-35900D01*
X69067Y-35957D01*
X69067Y-35985D01*
X69046Y-36042D01*
X69025Y-36071D01*
X68982Y-36100D01*
X68896Y-36100D01*
X68853Y-36128D01*
X68832Y-36157D01*
X68810Y-36214D01*
X68810Y-36328D01*
X68832Y-36385D01*
X68853Y-36414D01*
X68896Y-36442D01*
X68982Y-36442D01*
X69025Y-36414D01*
X69046Y-36385D01*
X69067Y-36328D01*
X69067Y-36214D01*
X69046Y-36157D01*
X69025Y-36128D01*
X68982Y-36100D01*
X69260Y-36214D02*
X69603Y-36214D01*
X69817Y-36442D02*
X69817Y-35842D01*
X69989Y-35842D01*
X70032Y-35871D01*
X70053Y-35900D01*
X70075Y-35957D01*
X70075Y-36042D01*
X70053Y-36100D01*
X70032Y-36128D01*
X69989Y-36157D01*
X69817Y-36157D01*
G54D12*
X57857Y-47792D02*
X57857Y-47192D01*
X58085Y-47192D01*
X58142Y-47221D01*
X58171Y-47250D01*
X58200Y-47307D01*
X58200Y-47392D01*
X58171Y-47450D01*
X58142Y-47478D01*
X58085Y-47507D01*
X57857Y-47507D01*
X58428Y-47250D02*
X58457Y-47221D01*
X58514Y-47192D01*
X58657Y-47192D01*
X58714Y-47221D01*
X58742Y-47250D01*
X58771Y-47307D01*
X58771Y-47364D01*
X58742Y-47450D01*
X58400Y-47792D01*
X58771Y-47792D01*
X57028Y-43135D02*
X57000Y-43164D01*
X56914Y-43192D01*
X56857Y-43192D01*
X56771Y-43164D01*
X56714Y-43107D01*
X56685Y-43050D01*
X56657Y-42935D01*
X56657Y-42850D01*
X56685Y-42735D01*
X56714Y-42678D01*
X56771Y-42621D01*
X56857Y-42592D01*
X56914Y-42592D01*
X57000Y-42621D01*
X57028Y-42650D01*
X57400Y-42592D02*
X57514Y-42592D01*
X57571Y-42621D01*
X57628Y-42678D01*
X57657Y-42792D01*
X57657Y-42992D01*
X57628Y-43107D01*
X57571Y-43164D01*
X57514Y-43192D01*
X57400Y-43192D01*
X57342Y-43164D01*
X57285Y-43107D01*
X57257Y-42992D01*
X57257Y-42792D01*
X57285Y-42678D01*
X57342Y-42621D01*
X57400Y-42592D01*
X57914Y-43192D02*
X57914Y-42592D01*
X58257Y-43192D01*
X58257Y-42592D01*
X58542Y-43192D02*
X58542Y-42592D01*
X58885Y-43192D01*
X58885Y-42592D01*
X59028Y-43250D02*
X59485Y-43250D01*
X59600Y-42650D02*
X59628Y-42621D01*
X59685Y-42592D01*
X59828Y-42592D01*
X59885Y-42621D01*
X59914Y-42650D01*
X59942Y-42707D01*
X59942Y-42764D01*
X59914Y-42850D01*
X59571Y-43192D01*
X59942Y-43192D01*
X69407Y-48242D02*
X69407Y-47642D01*
X69750Y-48242D02*
X69492Y-47900D01*
X69750Y-47642D02*
X69407Y-47985D01*
X69978Y-47700D02*
X70007Y-47671D01*
X70064Y-47642D01*
X70207Y-47642D01*
X70264Y-47671D01*
X70292Y-47700D01*
X70321Y-47757D01*
X70321Y-47814D01*
X70292Y-47900D01*
X69950Y-48242D01*
X70321Y-48242D01*
X68578Y-43585D02*
X68550Y-43614D01*
X68464Y-43642D01*
X68407Y-43642D01*
X68321Y-43614D01*
X68264Y-43557D01*
X68235Y-43500D01*
X68207Y-43385D01*
X68207Y-43300D01*
X68235Y-43185D01*
X68264Y-43128D01*
X68321Y-43071D01*
X68407Y-43042D01*
X68464Y-43042D01*
X68550Y-43071D01*
X68578Y-43100D01*
X68950Y-43042D02*
X69064Y-43042D01*
X69121Y-43071D01*
X69178Y-43128D01*
X69207Y-43242D01*
X69207Y-43442D01*
X69178Y-43557D01*
X69121Y-43614D01*
X69064Y-43642D01*
X68950Y-43642D01*
X68892Y-43614D01*
X68835Y-43557D01*
X68807Y-43442D01*
X68807Y-43242D01*
X68835Y-43128D01*
X68892Y-43071D01*
X68950Y-43042D01*
X69464Y-43642D02*
X69464Y-43042D01*
X69807Y-43642D01*
X69807Y-43042D01*
X70092Y-43642D02*
X70092Y-43042D01*
X70435Y-43642D01*
X70435Y-43042D01*
X70578Y-43700D02*
X71035Y-43700D01*
X71121Y-43042D02*
X71492Y-43042D01*
X71292Y-43271D01*
X71378Y-43271D01*
X71435Y-43300D01*
X71464Y-43328D01*
X71492Y-43385D01*
X71492Y-43528D01*
X71464Y-43585D01*
X71435Y-43614D01*
X71378Y-43642D01*
X71207Y-43642D01*
X71150Y-43614D01*
X71121Y-43585D01*
X63107Y-48242D02*
X63107Y-47642D01*
X63450Y-48242D02*
X63192Y-47900D01*
X63450Y-47642D02*
X63107Y-47985D01*
X64021Y-48242D02*
X63678Y-48242D01*
X63850Y-48242D02*
X63850Y-47642D01*
X63792Y-47728D01*
X63735Y-47785D01*
X63678Y-47814D01*
X62278Y-43585D02*
X62250Y-43614D01*
X62164Y-43642D01*
X62107Y-43642D01*
X62021Y-43614D01*
X61964Y-43557D01*
X61935Y-43500D01*
X61907Y-43385D01*
X61907Y-43300D01*
X61935Y-43185D01*
X61964Y-43128D01*
X62021Y-43071D01*
X62107Y-43042D01*
X62164Y-43042D01*
X62250Y-43071D01*
X62278Y-43100D01*
X62650Y-43042D02*
X62764Y-43042D01*
X62821Y-43071D01*
X62878Y-43128D01*
X62907Y-43242D01*
X62907Y-43442D01*
X62878Y-43557D01*
X62821Y-43614D01*
X62764Y-43642D01*
X62650Y-43642D01*
X62592Y-43614D01*
X62535Y-43557D01*
X62507Y-43442D01*
X62507Y-43242D01*
X62535Y-43128D01*
X62592Y-43071D01*
X62650Y-43042D01*
X63164Y-43642D02*
X63164Y-43042D01*
X63507Y-43642D01*
X63507Y-43042D01*
X63792Y-43642D02*
X63792Y-43042D01*
X64135Y-43642D01*
X64135Y-43042D01*
X64278Y-43700D02*
X64735Y-43700D01*
X64821Y-43042D02*
X65192Y-43042D01*
X64992Y-43271D01*
X65078Y-43271D01*
X65135Y-43300D01*
X65164Y-43328D01*
X65192Y-43385D01*
X65192Y-43528D01*
X65164Y-43585D01*
X65135Y-43614D01*
X65078Y-43642D01*
X64907Y-43642D01*
X64850Y-43614D01*
X64821Y-43585D01*
G54D15*
X55611Y-36395D02*
X55211Y-36395D01*
X55211Y-36242D01*
X55230Y-36204D01*
X55250Y-36185D01*
X55288Y-36166D01*
X55345Y-36166D01*
X55383Y-36185D01*
X55402Y-36204D01*
X55421Y-36242D01*
X55421Y-36395D01*
X55611Y-35785D02*
X55611Y-36014D01*
X55611Y-35899D02*
X55211Y-35899D01*
X55269Y-35938D01*
X55307Y-35976D01*
X55326Y-36014D01*
G54D12*
X78857Y-47692D02*
X78857Y-47092D01*
X79085Y-47092D01*
X79142Y-47121D01*
X79171Y-47150D01*
X79200Y-47207D01*
X79200Y-47292D01*
X79171Y-47350D01*
X79142Y-47378D01*
X79085Y-47407D01*
X78857Y-47407D01*
X79714Y-47092D02*
X79600Y-47092D01*
X79542Y-47121D01*
X79514Y-47150D01*
X79457Y-47235D01*
X79428Y-47350D01*
X79428Y-47578D01*
X79457Y-47635D01*
X79485Y-47664D01*
X79542Y-47692D01*
X79657Y-47692D01*
X79714Y-47664D01*
X79742Y-47635D01*
X79771Y-47578D01*
X79771Y-47435D01*
X79742Y-47378D01*
X79714Y-47350D01*
X79657Y-47321D01*
X79542Y-47321D01*
X79485Y-47350D01*
X79457Y-47378D01*
X79428Y-47435D01*
X78028Y-43035D02*
X78000Y-43064D01*
X77914Y-43092D01*
X77857Y-43092D01*
X77771Y-43064D01*
X77714Y-43007D01*
X77685Y-42950D01*
X77657Y-42835D01*
X77657Y-42750D01*
X77685Y-42635D01*
X77714Y-42578D01*
X77771Y-42521D01*
X77857Y-42492D01*
X77914Y-42492D01*
X78000Y-42521D01*
X78028Y-42550D01*
X78400Y-42492D02*
X78514Y-42492D01*
X78571Y-42521D01*
X78628Y-42578D01*
X78657Y-42692D01*
X78657Y-42892D01*
X78628Y-43007D01*
X78571Y-43064D01*
X78514Y-43092D01*
X78400Y-43092D01*
X78342Y-43064D01*
X78285Y-43007D01*
X78257Y-42892D01*
X78257Y-42692D01*
X78285Y-42578D01*
X78342Y-42521D01*
X78400Y-42492D01*
X78914Y-43092D02*
X78914Y-42492D01*
X79257Y-43092D01*
X79257Y-42492D01*
X79542Y-43092D02*
X79542Y-42492D01*
X79885Y-43092D01*
X79885Y-42492D01*
X80028Y-43150D02*
X80485Y-43150D01*
X80600Y-42550D02*
X80628Y-42521D01*
X80685Y-42492D01*
X80828Y-42492D01*
X80885Y-42521D01*
X80914Y-42550D01*
X80942Y-42607D01*
X80942Y-42664D01*
X80914Y-42750D01*
X80571Y-43092D01*
X80942Y-43092D01*
G54D17*
X79528Y-32471D02*
X79528Y-32171D01*
X79600Y-32171D01*
X79642Y-32185D01*
X79671Y-32214D01*
X79685Y-32242D01*
X79700Y-32300D01*
X79700Y-32342D01*
X79685Y-32400D01*
X79671Y-32428D01*
X79642Y-32457D01*
X79600Y-32471D01*
X79528Y-32471D01*
X79985Y-32471D02*
X79814Y-32471D01*
X79900Y-32471D02*
X79900Y-32171D01*
X79871Y-32214D01*
X79842Y-32242D01*
X79814Y-32257D01*
X78857Y-34571D02*
X78714Y-34571D01*
X78714Y-34271D01*
X78957Y-34414D02*
X79057Y-34414D01*
X79100Y-34571D02*
X78957Y-34571D01*
X78957Y-34271D01*
X79100Y-34271D01*
X79228Y-34571D02*
X79228Y-34271D01*
X79300Y-34271D01*
X79342Y-34285D01*
X79371Y-34314D01*
X79385Y-34342D01*
X79400Y-34400D01*
X79400Y-34442D01*
X79385Y-34500D01*
X79371Y-34528D01*
X79342Y-34557D01*
X79300Y-34571D01*
X79228Y-34571D01*
X76628Y-32421D02*
X76628Y-32121D01*
X76700Y-32121D01*
X76742Y-32135D01*
X76771Y-32164D01*
X76785Y-32192D01*
X76800Y-32250D01*
X76800Y-32292D01*
X76785Y-32350D01*
X76771Y-32378D01*
X76742Y-32407D01*
X76700Y-32421D01*
X76628Y-32421D01*
X76914Y-32150D02*
X76928Y-32135D01*
X76957Y-32121D01*
X77028Y-32121D01*
X77057Y-32135D01*
X77071Y-32150D01*
X77085Y-32178D01*
X77085Y-32207D01*
X77071Y-32250D01*
X76900Y-32421D01*
X77085Y-32421D01*
X75957Y-34521D02*
X75814Y-34521D01*
X75814Y-34221D01*
X76057Y-34364D02*
X76157Y-34364D01*
X76200Y-34521D02*
X76057Y-34521D01*
X76057Y-34221D01*
X76200Y-34221D01*
X76328Y-34521D02*
X76328Y-34221D01*
X76400Y-34221D01*
X76442Y-34235D01*
X76471Y-34264D01*
X76485Y-34292D01*
X76500Y-34350D01*
X76500Y-34392D01*
X76485Y-34450D01*
X76471Y-34478D01*
X76442Y-34507D01*
X76400Y-34521D01*
X76328Y-34521D01*
G54D12*
X74657Y-48242D02*
X74657Y-47642D01*
X74885Y-47642D01*
X74942Y-47671D01*
X74971Y-47700D01*
X75000Y-47757D01*
X75000Y-47842D01*
X74971Y-47900D01*
X74942Y-47928D01*
X74885Y-47957D01*
X74657Y-47957D01*
X75200Y-47642D02*
X75600Y-47642D01*
X75342Y-48242D01*
X73828Y-43585D02*
X73800Y-43614D01*
X73714Y-43642D01*
X73657Y-43642D01*
X73571Y-43614D01*
X73514Y-43557D01*
X73485Y-43500D01*
X73457Y-43385D01*
X73457Y-43300D01*
X73485Y-43185D01*
X73514Y-43128D01*
X73571Y-43071D01*
X73657Y-43042D01*
X73714Y-43042D01*
X73800Y-43071D01*
X73828Y-43100D01*
X74200Y-43042D02*
X74314Y-43042D01*
X74371Y-43071D01*
X74428Y-43128D01*
X74457Y-43242D01*
X74457Y-43442D01*
X74428Y-43557D01*
X74371Y-43614D01*
X74314Y-43642D01*
X74200Y-43642D01*
X74142Y-43614D01*
X74085Y-43557D01*
X74057Y-43442D01*
X74057Y-43242D01*
X74085Y-43128D01*
X74142Y-43071D01*
X74200Y-43042D01*
X74714Y-43642D02*
X74714Y-43042D01*
X75057Y-43642D01*
X75057Y-43042D01*
X75342Y-43642D02*
X75342Y-43042D01*
X75685Y-43642D01*
X75685Y-43042D01*
X75828Y-43700D02*
X76285Y-43700D01*
X76400Y-43100D02*
X76428Y-43071D01*
X76485Y-43042D01*
X76628Y-43042D01*
X76685Y-43071D01*
X76714Y-43100D01*
X76742Y-43157D01*
X76742Y-43214D01*
X76714Y-43300D01*
X76371Y-43642D01*
X76742Y-43642D01*
G54D15*
X62395Y-41092D02*
X62395Y-41578D01*
X62414Y-41635D01*
X62433Y-41664D01*
X62471Y-41692D01*
X62547Y-41692D01*
X62585Y-41664D01*
X62604Y-41635D01*
X62623Y-41578D01*
X62623Y-41092D01*
X62795Y-41150D02*
X62814Y-41121D01*
X62852Y-41092D01*
X62947Y-41092D01*
X62985Y-41121D01*
X63004Y-41150D01*
X63023Y-41207D01*
X63023Y-41264D01*
X63004Y-41350D01*
X62776Y-41692D01*
X63023Y-41692D01*
X64842Y-43654D02*
X64842Y-43388D01*
X65442Y-43559D01*
X65100Y-43178D02*
X65071Y-43216D01*
X65042Y-43235D01*
X64985Y-43254D01*
X64957Y-43254D01*
X64900Y-43235D01*
X64871Y-43216D01*
X64842Y-43178D01*
X64842Y-43102D01*
X64871Y-43064D01*
X64900Y-43045D01*
X64957Y-43026D01*
X64985Y-43026D01*
X65042Y-43045D01*
X65071Y-43064D01*
X65100Y-43102D01*
X65100Y-43178D01*
X65128Y-43216D01*
X65157Y-43235D01*
X65214Y-43254D01*
X65328Y-43254D01*
X65385Y-43235D01*
X65414Y-43216D01*
X65442Y-43178D01*
X65442Y-43102D01*
X65414Y-43064D01*
X65385Y-43045D01*
X65328Y-43026D01*
X65214Y-43026D01*
X65157Y-43045D01*
X65128Y-43064D01*
X65100Y-43102D01*
X64842Y-42778D02*
X64842Y-42740D01*
X64871Y-42702D01*
X64900Y-42683D01*
X64957Y-42664D01*
X65071Y-42645D01*
X65214Y-42645D01*
X65328Y-42664D01*
X65385Y-42683D01*
X65414Y-42702D01*
X65442Y-42740D01*
X65442Y-42778D01*
X65414Y-42816D01*
X65385Y-42835D01*
X65328Y-42854D01*
X65214Y-42873D01*
X65071Y-42873D01*
X64957Y-42854D01*
X64900Y-42835D01*
X64871Y-42816D01*
X64842Y-42778D01*
X64842Y-42283D02*
X64842Y-42473D01*
X65128Y-42492D01*
X65100Y-42473D01*
X65071Y-42435D01*
X65071Y-42340D01*
X65100Y-42302D01*
X65128Y-42283D01*
X65185Y-42264D01*
X65328Y-42264D01*
X65385Y-42283D01*
X65414Y-42302D01*
X65442Y-42340D01*
X65442Y-42435D01*
X65414Y-42473D01*
X65385Y-42492D01*
M02*
