G04 (created by PCBNEW (2013-mar-13)-testing) date Втр 25 Фев 2014 20:18:30*
%MOIN*%
G04 Gerber Fmt 3.4, Leading zero omitted, Abs format*
%FSLAX34Y34*%
G01*
G70*
G90*
G04 APERTURE LIST*
%ADD10C,0.005906*%
%ADD11R,0.129528X0.129528*%
%ADD12R,0.055000X0.055000*%
%ADD13C,0.055000*%
%ADD14R,0.060000X0.060000*%
%ADD15C,0.060000*%
%ADD16C,0.056000*%
%ADD17C,0.040000*%
%ADD18R,0.078740X0.059055*%
%ADD19C,0.035000*%
%ADD20C,0.010000*%
G04 APERTURE END LIST*
G54D10*
G54D11*
X46450Y-39853D03*
X46450Y-52046D03*
G54D12*
X39950Y-56900D03*
G54D13*
X39950Y-57900D03*
G54D12*
X41150Y-56900D03*
G54D13*
X41150Y-57900D03*
G54D12*
X42350Y-56900D03*
G54D13*
X42350Y-57900D03*
G54D12*
X43550Y-56900D03*
G54D13*
X43550Y-57900D03*
G54D12*
X52500Y-39600D03*
G54D13*
X51500Y-39600D03*
X50500Y-39600D03*
G54D14*
X36000Y-36800D03*
G54D15*
X37000Y-36800D03*
X36000Y-37800D03*
X37000Y-37800D03*
X36000Y-38800D03*
X37000Y-38800D03*
X36000Y-39800D03*
X37000Y-39800D03*
X36000Y-40800D03*
X37000Y-40800D03*
X36000Y-41800D03*
X37000Y-41800D03*
X36000Y-42800D03*
X37000Y-42800D03*
X36000Y-43800D03*
X37000Y-43800D03*
X36000Y-44800D03*
X37000Y-44800D03*
X36000Y-45800D03*
X37000Y-45800D03*
X36000Y-46800D03*
X37000Y-46800D03*
X36000Y-47800D03*
X37000Y-47800D03*
X36000Y-48800D03*
X37000Y-48800D03*
X36000Y-49800D03*
X37000Y-49800D03*
X36000Y-50800D03*
X37000Y-50800D03*
X36000Y-51800D03*
X37000Y-51800D03*
X36000Y-52800D03*
X37000Y-52800D03*
X36000Y-53800D03*
X37000Y-53800D03*
X36000Y-54800D03*
X37000Y-54800D03*
X36000Y-55800D03*
X37000Y-55800D03*
X36000Y-56800D03*
X37000Y-56800D03*
X36000Y-57800D03*
X37000Y-57800D03*
X36000Y-58800D03*
X37000Y-58800D03*
X36000Y-59800D03*
X37000Y-59800D03*
X36000Y-60800D03*
X37000Y-60800D03*
G54D14*
X56000Y-36800D03*
G54D15*
X57000Y-36800D03*
X56000Y-37800D03*
X57000Y-37800D03*
X56000Y-38800D03*
X57000Y-38800D03*
X56000Y-39800D03*
X57000Y-39800D03*
X56000Y-40800D03*
X57000Y-40800D03*
X56000Y-41800D03*
X57000Y-41800D03*
X56000Y-42800D03*
X57000Y-42800D03*
X56000Y-43800D03*
X57000Y-43800D03*
X56000Y-44800D03*
X57000Y-44800D03*
X56000Y-45800D03*
X57000Y-45800D03*
X56000Y-46800D03*
X57000Y-46800D03*
X56000Y-47800D03*
X57000Y-47800D03*
X56000Y-48800D03*
X57000Y-48800D03*
X56000Y-49800D03*
X57000Y-49800D03*
X56000Y-50800D03*
X57000Y-50800D03*
X56000Y-51800D03*
X57000Y-51800D03*
X56000Y-52800D03*
X57000Y-52800D03*
X56000Y-53800D03*
X57000Y-53800D03*
X56000Y-54800D03*
X57000Y-54800D03*
X56000Y-55800D03*
X57000Y-55800D03*
X56000Y-56800D03*
X57000Y-56800D03*
X56000Y-57800D03*
X57000Y-57800D03*
X56000Y-58800D03*
X57000Y-58800D03*
X56000Y-59800D03*
X57000Y-59800D03*
X56000Y-60800D03*
X57000Y-60800D03*
G54D14*
X46500Y-34200D03*
G54D15*
X45500Y-34200D03*
G54D14*
X36000Y-34200D03*
G54D15*
X37000Y-34200D03*
X38000Y-34200D03*
X39000Y-34200D03*
X40000Y-34200D03*
X41000Y-34200D03*
G54D16*
X44450Y-37550D03*
X46450Y-37550D03*
G54D17*
X45750Y-59800D03*
X47450Y-59800D03*
G54D18*
X48670Y-50464D03*
X51229Y-50464D03*
X51268Y-52235D03*
X48670Y-52235D03*
X41670Y-50464D03*
X44229Y-50464D03*
X44268Y-52235D03*
X41670Y-52235D03*
G54D19*
X54575Y-43900D03*
X47950Y-53750D03*
X50650Y-53275D03*
X51150Y-52925D03*
X48875Y-53950D03*
X48101Y-43558D03*
X48719Y-43211D03*
X41823Y-41384D03*
X39250Y-40096D03*
X38985Y-40845D03*
X49034Y-43569D03*
X45616Y-41474D03*
X38453Y-40310D03*
X46845Y-45896D03*
X52100Y-49650D03*
X54900Y-56100D03*
X47150Y-45137D03*
X49039Y-45335D03*
X48808Y-45767D03*
X49039Y-44459D03*
X48326Y-42354D03*
X47975Y-41950D03*
X43450Y-46875D03*
X50725Y-48925D03*
X50600Y-41250D03*
X45900Y-53100D03*
X42935Y-41700D03*
X45272Y-41739D03*
X39425Y-38690D03*
X48300Y-56250D03*
X48300Y-57625D03*
X54150Y-40300D03*
X54650Y-41725D03*
X38025Y-44300D03*
X39550Y-42575D03*
X53300Y-54975D03*
X52525Y-57650D03*
X53850Y-56000D03*
X54200Y-53100D03*
X40550Y-55300D03*
X39100Y-56125D03*
X43900Y-55400D03*
X40550Y-52700D03*
X45550Y-60500D03*
X46700Y-61300D03*
X51450Y-38750D03*
X48900Y-39700D03*
X48900Y-37500D03*
X44500Y-38550D03*
X54150Y-34900D03*
X56500Y-39300D03*
X42857Y-39592D03*
X40050Y-36200D03*
X43200Y-34850D03*
X42400Y-35650D03*
X40600Y-35200D03*
X40664Y-37208D03*
X46000Y-50100D03*
X38743Y-42665D03*
X44439Y-42183D03*
X40900Y-41431D03*
G54D20*
X57000Y-38800D02*
X56000Y-38800D01*
X57000Y-37800D02*
X56000Y-37800D01*
X55150Y-45950D02*
X56000Y-46800D01*
X55150Y-44475D02*
X55150Y-45950D01*
X54575Y-43900D02*
X55150Y-44475D01*
X51229Y-50464D02*
X51229Y-48679D01*
X37500Y-38800D02*
X37000Y-38800D01*
X47075Y-48375D02*
X37500Y-38800D01*
X50925Y-48375D02*
X47075Y-48375D01*
X51229Y-48679D02*
X50925Y-48375D01*
X48670Y-50464D02*
X51229Y-50464D01*
X48575Y-53750D02*
X47950Y-53750D01*
X49050Y-53275D02*
X48575Y-53750D01*
X50650Y-53275D02*
X49050Y-53275D01*
X51150Y-53375D02*
X51150Y-52925D01*
X50875Y-53650D02*
X51150Y-53375D01*
X50475Y-53650D02*
X50875Y-53650D01*
X50350Y-53525D02*
X50475Y-53650D01*
X49300Y-53525D02*
X50350Y-53525D01*
X48875Y-53950D02*
X49300Y-53525D01*
X48682Y-44139D02*
X48101Y-43558D01*
X51268Y-44139D02*
X48682Y-44139D01*
X55498Y-48369D02*
X51268Y-44139D01*
X56201Y-48369D02*
X55498Y-48369D01*
X56569Y-48738D02*
X56201Y-48369D01*
X56569Y-49001D02*
X56569Y-48738D01*
X56868Y-49300D02*
X56569Y-49001D01*
X57114Y-49300D02*
X56868Y-49300D01*
X57614Y-49800D02*
X57114Y-49300D01*
X57614Y-56185D02*
X57614Y-49800D01*
X57000Y-56800D02*
X57614Y-56185D01*
X48101Y-43527D02*
X48101Y-43558D01*
X39000Y-34426D02*
X48101Y-43527D01*
X39000Y-34200D02*
X39000Y-34426D01*
X47655Y-42147D02*
X48719Y-43211D01*
X47230Y-42147D02*
X47655Y-42147D01*
X45120Y-40038D02*
X47230Y-42147D01*
X45120Y-37458D02*
X45120Y-40038D01*
X41431Y-33768D02*
X45120Y-37458D01*
X38809Y-33768D02*
X41431Y-33768D01*
X38500Y-34078D02*
X38809Y-33768D01*
X38500Y-34309D02*
X38500Y-34078D01*
X38179Y-34630D02*
X38500Y-34309D01*
X37430Y-34630D02*
X38179Y-34630D01*
X37000Y-34200D02*
X37430Y-34630D01*
X37030Y-42800D02*
X37000Y-42800D01*
X38985Y-40845D02*
X37030Y-42800D01*
X40535Y-40096D02*
X41823Y-41384D01*
X39250Y-40096D02*
X40535Y-40096D01*
X48645Y-43569D02*
X49034Y-43569D01*
X47467Y-42391D02*
X48645Y-43569D01*
X47219Y-42391D02*
X47467Y-42391D01*
X41000Y-36171D02*
X47219Y-42391D01*
X41000Y-34200D02*
X41000Y-36171D01*
X41655Y-37513D02*
X45616Y-41474D01*
X40537Y-37513D02*
X41655Y-37513D01*
X40391Y-37367D02*
X40537Y-37513D01*
X35821Y-37367D02*
X40391Y-37367D01*
X35552Y-37635D02*
X35821Y-37367D01*
X35552Y-39352D02*
X35552Y-37635D01*
X36000Y-39800D02*
X35552Y-39352D01*
X37526Y-41237D02*
X38453Y-40310D01*
X36437Y-41237D02*
X37526Y-41237D01*
X36000Y-40800D02*
X36437Y-41237D01*
X52100Y-49484D02*
X52100Y-49650D01*
X52226Y-48086D02*
X52100Y-49484D01*
X49034Y-48086D02*
X52226Y-48086D01*
X46845Y-45896D02*
X49034Y-48086D01*
X56000Y-58800D02*
X54906Y-57706D01*
X54906Y-57706D02*
X54900Y-56100D01*
X47260Y-45027D02*
X47150Y-45137D01*
X50724Y-45027D02*
X47260Y-45027D01*
X55400Y-49702D02*
X50724Y-45027D01*
X55400Y-50814D02*
X55400Y-49702D01*
X55885Y-51300D02*
X55400Y-50814D01*
X56131Y-51300D02*
X55885Y-51300D01*
X56430Y-51598D02*
X56131Y-51300D01*
X56430Y-51861D02*
X56430Y-51598D01*
X56798Y-52230D02*
X56430Y-51861D01*
X57043Y-52230D02*
X56798Y-52230D01*
X57434Y-52621D02*
X57043Y-52230D01*
X57434Y-55975D02*
X57434Y-52621D01*
X57110Y-56300D02*
X57434Y-55975D01*
X56877Y-56300D02*
X57110Y-56300D01*
X56552Y-56625D02*
X56877Y-56300D01*
X56552Y-58352D02*
X56552Y-56625D01*
X57000Y-58800D02*
X56552Y-58352D01*
X50778Y-45335D02*
X49039Y-45335D01*
X55175Y-49732D02*
X50778Y-45335D01*
X55175Y-51589D02*
X55175Y-49732D01*
X55885Y-52300D02*
X55175Y-51589D01*
X56131Y-52300D02*
X55885Y-52300D01*
X56430Y-52598D02*
X56131Y-52300D01*
X56430Y-53230D02*
X56430Y-52598D01*
X57000Y-53800D02*
X56430Y-53230D01*
X50955Y-45767D02*
X48808Y-45767D01*
X54995Y-49807D02*
X50955Y-45767D01*
X54995Y-51795D02*
X54995Y-49807D01*
X56000Y-52800D02*
X54995Y-51795D01*
X41000Y-57400D02*
X41850Y-57400D01*
X41000Y-57400D02*
X38400Y-57400D01*
X37000Y-58800D02*
X38400Y-57400D01*
X41850Y-57400D02*
X42350Y-56900D01*
X36000Y-59800D02*
X36050Y-59800D01*
X43000Y-57450D02*
X43550Y-56900D01*
X43000Y-58600D02*
X43000Y-57450D01*
X41300Y-60300D02*
X43000Y-58600D01*
X36550Y-60300D02*
X41300Y-60300D01*
X36050Y-59800D02*
X36550Y-60300D01*
X56462Y-50337D02*
X56000Y-50800D01*
X56462Y-49631D02*
X56462Y-50337D01*
X56201Y-49369D02*
X56462Y-49631D01*
X55889Y-49369D02*
X56201Y-49369D01*
X50979Y-44459D02*
X55889Y-49369D01*
X49039Y-44459D02*
X50979Y-44459D01*
X56554Y-42354D02*
X48326Y-42354D01*
X57000Y-42800D02*
X56554Y-42354D01*
X55675Y-42125D02*
X56000Y-41800D01*
X48775Y-42125D02*
X55675Y-42125D01*
X48650Y-42000D02*
X48775Y-42125D01*
X48025Y-42000D02*
X48650Y-42000D01*
X47975Y-41950D02*
X48025Y-42000D01*
X45950Y-49375D02*
X47475Y-49375D01*
X43450Y-46875D02*
X45950Y-49375D01*
X50725Y-48925D02*
X50275Y-49375D01*
X50275Y-49375D02*
X47475Y-49375D01*
X47475Y-49375D02*
X44825Y-52025D01*
X52500Y-39600D02*
X52500Y-40575D01*
X51825Y-41250D02*
X52500Y-40575D01*
X50600Y-41250D02*
X51825Y-41250D01*
X45900Y-53100D02*
X44825Y-52025D01*
X44825Y-52025D02*
X44800Y-52025D01*
X44800Y-52025D02*
X44589Y-52235D01*
X44589Y-52235D02*
X44268Y-52235D01*
X44268Y-52235D02*
X41670Y-52235D01*
X36000Y-37800D02*
X37000Y-37800D01*
X45234Y-41700D02*
X42935Y-41700D01*
X45272Y-41739D02*
X45234Y-41700D01*
X39924Y-38690D02*
X39425Y-38690D01*
X42935Y-41700D02*
X39924Y-38690D01*
X38534Y-37800D02*
X39425Y-38690D01*
X37000Y-37800D02*
X38534Y-37800D01*
X48300Y-56250D02*
X48300Y-57625D01*
X54150Y-40300D02*
X54150Y-41225D01*
X54150Y-41225D02*
X54650Y-41725D01*
X38025Y-44300D02*
X38025Y-42600D01*
X36000Y-38850D02*
X36500Y-39350D01*
X36500Y-39350D02*
X36500Y-40050D01*
X36500Y-40050D02*
X36250Y-40300D01*
X36250Y-40300D02*
X35800Y-40300D01*
X35800Y-40300D02*
X35300Y-40800D01*
X35300Y-40800D02*
X35300Y-43925D01*
X35300Y-43925D02*
X35675Y-44300D01*
X35675Y-44300D02*
X38025Y-44300D01*
X36000Y-38800D02*
X36000Y-38850D01*
X39075Y-42100D02*
X39550Y-42575D01*
X38525Y-42100D02*
X39075Y-42100D01*
X38025Y-42600D02*
X38525Y-42100D01*
X53300Y-54975D02*
X53300Y-54000D01*
X53850Y-55525D02*
X53300Y-54975D01*
X52525Y-57650D02*
X52850Y-57000D01*
X52850Y-57000D02*
X53850Y-56000D01*
X53850Y-56000D02*
X53850Y-55525D01*
X53300Y-54000D02*
X54200Y-53100D01*
X40550Y-55300D02*
X39925Y-55300D01*
X39925Y-55300D02*
X39100Y-56125D01*
X40550Y-52700D02*
X40550Y-55300D01*
X40650Y-55400D02*
X40550Y-55300D01*
X43900Y-55400D02*
X40650Y-55400D01*
X45550Y-60500D02*
X46700Y-61300D01*
X51450Y-38750D02*
X51450Y-38850D01*
X49350Y-40150D02*
X48900Y-39700D01*
X50700Y-40150D02*
X49350Y-40150D01*
X51000Y-39850D02*
X50700Y-40150D01*
X51000Y-39300D02*
X51000Y-39850D01*
X51450Y-38850D02*
X51000Y-39300D01*
X57000Y-36800D02*
X57200Y-36800D01*
X57400Y-39300D02*
X56500Y-39300D01*
X58000Y-38700D02*
X57400Y-39300D01*
X58000Y-37600D02*
X58000Y-38700D01*
X57200Y-36800D02*
X58000Y-37600D01*
X42857Y-39592D02*
X42850Y-39600D01*
X40256Y-36800D02*
X40256Y-36406D01*
X40256Y-36406D02*
X40050Y-36200D01*
X43100Y-34750D02*
X43200Y-34850D01*
X43100Y-33587D02*
X43100Y-34750D01*
X47431Y-52250D02*
X47227Y-52046D01*
X48650Y-52250D02*
X47431Y-52250D01*
X46450Y-52046D02*
X47227Y-52046D01*
X57000Y-60800D02*
X56000Y-60800D01*
X37000Y-60800D02*
X36000Y-60800D01*
X57000Y-36800D02*
X56000Y-36800D01*
X48100Y-36800D02*
X45500Y-34200D01*
X56000Y-36800D02*
X48100Y-36800D01*
X38612Y-33587D02*
X38000Y-34200D01*
X44887Y-33587D02*
X43100Y-33587D01*
X43100Y-33587D02*
X38612Y-33587D01*
X45500Y-34200D02*
X44887Y-33587D01*
X36000Y-36800D02*
X37000Y-36800D01*
X40256Y-36800D02*
X40664Y-37208D01*
X37000Y-36800D02*
X40256Y-36800D01*
X50500Y-39600D02*
X50500Y-39250D01*
X47227Y-39853D02*
X46450Y-39853D01*
X50500Y-39250D02*
X47831Y-39250D01*
X47831Y-39250D02*
X47227Y-39853D01*
X44229Y-50464D02*
X45635Y-50464D01*
X45635Y-50464D02*
X46000Y-50100D01*
X41670Y-50464D02*
X44229Y-50464D01*
X38743Y-42665D02*
X38743Y-47537D01*
X38743Y-47537D02*
X41670Y-50464D01*
X41652Y-42183D02*
X40900Y-41431D01*
X44439Y-42183D02*
X41652Y-42183D01*
G54D10*
G36*
X40800Y-35943D02*
X39346Y-34490D01*
X39381Y-34455D01*
X39449Y-34289D01*
X39450Y-34110D01*
X39391Y-33968D01*
X39608Y-33968D01*
X39550Y-34110D01*
X39549Y-34289D01*
X39618Y-34454D01*
X39744Y-34581D01*
X39910Y-34649D01*
X40089Y-34650D01*
X40254Y-34581D01*
X40381Y-34455D01*
X40449Y-34289D01*
X40450Y-34110D01*
X40391Y-33968D01*
X40608Y-33968D01*
X40550Y-34110D01*
X40549Y-34289D01*
X40618Y-34454D01*
X40744Y-34581D01*
X40800Y-34604D01*
X40800Y-35943D01*
X40800Y-35943D01*
G37*
G54D20*
X40800Y-35943D02*
X39346Y-34490D01*
X39381Y-34455D01*
X39449Y-34289D01*
X39450Y-34110D01*
X39391Y-33968D01*
X39608Y-33968D01*
X39550Y-34110D01*
X39549Y-34289D01*
X39618Y-34454D01*
X39744Y-34581D01*
X39910Y-34649D01*
X40089Y-34650D01*
X40254Y-34581D01*
X40381Y-34455D01*
X40449Y-34289D01*
X40450Y-34110D01*
X40391Y-33968D01*
X40608Y-33968D01*
X40550Y-34110D01*
X40549Y-34289D01*
X40618Y-34454D01*
X40744Y-34581D01*
X40800Y-34604D01*
X40800Y-35943D01*
G54D10*
G36*
X44920Y-39809D02*
X41200Y-36088D01*
X41200Y-34604D01*
X41254Y-34581D01*
X41381Y-34455D01*
X41449Y-34289D01*
X41450Y-34110D01*
X41421Y-34041D01*
X44499Y-37120D01*
X44364Y-37119D01*
X44206Y-37185D01*
X44085Y-37306D01*
X44020Y-37464D01*
X44019Y-37635D01*
X44085Y-37793D01*
X44206Y-37914D01*
X44364Y-37979D01*
X44535Y-37980D01*
X44693Y-37914D01*
X44814Y-37793D01*
X44879Y-37635D01*
X44880Y-37500D01*
X44920Y-37541D01*
X44920Y-39809D01*
X44920Y-39809D01*
G37*
G54D20*
X44920Y-39809D02*
X41200Y-36088D01*
X41200Y-34604D01*
X41254Y-34581D01*
X41381Y-34455D01*
X41449Y-34289D01*
X41450Y-34110D01*
X41421Y-34041D01*
X44499Y-37120D01*
X44364Y-37119D01*
X44206Y-37185D01*
X44085Y-37306D01*
X44020Y-37464D01*
X44019Y-37635D01*
X44085Y-37793D01*
X44206Y-37914D01*
X44364Y-37979D01*
X44535Y-37980D01*
X44693Y-37914D01*
X44814Y-37793D01*
X44879Y-37635D01*
X44880Y-37500D01*
X44920Y-37541D01*
X44920Y-39809D01*
G54D10*
G36*
X45273Y-41414D02*
X45208Y-41414D01*
X45089Y-41463D01*
X45051Y-41500D01*
X43194Y-41500D01*
X43119Y-41425D01*
X43000Y-41376D01*
X42893Y-41375D01*
X40065Y-38548D01*
X40001Y-38505D01*
X39924Y-38490D01*
X39684Y-38490D01*
X39609Y-38414D01*
X39489Y-38365D01*
X39382Y-38365D01*
X38676Y-37658D01*
X38611Y-37615D01*
X38534Y-37600D01*
X37404Y-37600D01*
X37390Y-37567D01*
X40309Y-37567D01*
X40396Y-37654D01*
X40461Y-37698D01*
X40461Y-37698D01*
X40537Y-37713D01*
X41572Y-37713D01*
X45273Y-41414D01*
X45273Y-41414D01*
G37*
G54D20*
X45273Y-41414D02*
X45208Y-41414D01*
X45089Y-41463D01*
X45051Y-41500D01*
X43194Y-41500D01*
X43119Y-41425D01*
X43000Y-41376D01*
X42893Y-41375D01*
X40065Y-38548D01*
X40001Y-38505D01*
X39924Y-38490D01*
X39684Y-38490D01*
X39609Y-38414D01*
X39489Y-38365D01*
X39382Y-38365D01*
X38676Y-37658D01*
X38611Y-37615D01*
X38534Y-37600D01*
X37404Y-37600D01*
X37390Y-37567D01*
X40309Y-37567D01*
X40396Y-37654D01*
X40461Y-37698D01*
X40461Y-37698D01*
X40537Y-37713D01*
X41572Y-37713D01*
X45273Y-41414D01*
G54D10*
G36*
X58483Y-61470D02*
X57814Y-61470D01*
X57814Y-56185D01*
X57814Y-49800D01*
X57802Y-49736D01*
X57799Y-49723D01*
X57799Y-49723D01*
X57756Y-49659D01*
X57469Y-49372D01*
X57469Y-36716D01*
X57402Y-36542D01*
X57391Y-36526D01*
X57314Y-36498D01*
X57301Y-36511D01*
X57301Y-36485D01*
X57273Y-36408D01*
X57102Y-36333D01*
X56916Y-36330D01*
X56742Y-36397D01*
X56726Y-36408D01*
X56698Y-36485D01*
X57000Y-36787D01*
X57301Y-36485D01*
X57301Y-36511D01*
X57012Y-36800D01*
X57314Y-37101D01*
X57391Y-37073D01*
X57466Y-36902D01*
X57469Y-36716D01*
X57469Y-49372D01*
X57266Y-49169D01*
X57381Y-49055D01*
X57449Y-48889D01*
X57450Y-48710D01*
X57450Y-47710D01*
X57450Y-46710D01*
X57450Y-45710D01*
X57450Y-44710D01*
X57450Y-43710D01*
X57381Y-43545D01*
X57255Y-43418D01*
X57089Y-43350D01*
X56910Y-43349D01*
X56745Y-43418D01*
X56618Y-43544D01*
X56550Y-43710D01*
X56549Y-43889D01*
X56618Y-44054D01*
X56744Y-44181D01*
X56910Y-44249D01*
X57089Y-44250D01*
X57254Y-44181D01*
X57381Y-44055D01*
X57449Y-43889D01*
X57450Y-43710D01*
X57450Y-44710D01*
X57381Y-44545D01*
X57255Y-44418D01*
X57089Y-44350D01*
X56910Y-44349D01*
X56745Y-44418D01*
X56618Y-44544D01*
X56550Y-44710D01*
X56549Y-44889D01*
X56618Y-45054D01*
X56744Y-45181D01*
X56910Y-45249D01*
X57089Y-45250D01*
X57254Y-45181D01*
X57381Y-45055D01*
X57449Y-44889D01*
X57450Y-44710D01*
X57450Y-45710D01*
X57381Y-45545D01*
X57255Y-45418D01*
X57089Y-45350D01*
X56910Y-45349D01*
X56745Y-45418D01*
X56618Y-45544D01*
X56550Y-45710D01*
X56549Y-45889D01*
X56618Y-46054D01*
X56744Y-46181D01*
X56910Y-46249D01*
X57089Y-46250D01*
X57254Y-46181D01*
X57381Y-46055D01*
X57449Y-45889D01*
X57450Y-45710D01*
X57450Y-46710D01*
X57381Y-46545D01*
X57255Y-46418D01*
X57089Y-46350D01*
X56910Y-46349D01*
X56745Y-46418D01*
X56618Y-46544D01*
X56550Y-46710D01*
X56549Y-46889D01*
X56618Y-47054D01*
X56744Y-47181D01*
X56910Y-47249D01*
X57089Y-47250D01*
X57254Y-47181D01*
X57381Y-47055D01*
X57449Y-46889D01*
X57450Y-46710D01*
X57450Y-47710D01*
X57381Y-47545D01*
X57255Y-47418D01*
X57089Y-47350D01*
X56910Y-47349D01*
X56745Y-47418D01*
X56618Y-47544D01*
X56550Y-47710D01*
X56549Y-47889D01*
X56618Y-48054D01*
X56744Y-48181D01*
X56910Y-48249D01*
X57089Y-48250D01*
X57254Y-48181D01*
X57381Y-48055D01*
X57449Y-47889D01*
X57450Y-47710D01*
X57450Y-48710D01*
X57381Y-48545D01*
X57255Y-48418D01*
X57089Y-48350D01*
X56910Y-48349D01*
X56745Y-48418D01*
X56638Y-48524D01*
X56342Y-48228D01*
X56277Y-48185D01*
X56255Y-48180D01*
X56381Y-48055D01*
X56449Y-47889D01*
X56450Y-47710D01*
X56450Y-46710D01*
X56450Y-45710D01*
X56450Y-44710D01*
X56450Y-43710D01*
X56381Y-43545D01*
X56255Y-43418D01*
X56089Y-43350D01*
X55910Y-43349D01*
X55745Y-43418D01*
X55618Y-43544D01*
X55550Y-43710D01*
X55549Y-43889D01*
X55618Y-44054D01*
X55744Y-44181D01*
X55910Y-44249D01*
X56089Y-44250D01*
X56254Y-44181D01*
X56381Y-44055D01*
X56449Y-43889D01*
X56450Y-43710D01*
X56450Y-44710D01*
X56381Y-44545D01*
X56255Y-44418D01*
X56089Y-44350D01*
X55910Y-44349D01*
X55745Y-44418D01*
X55618Y-44544D01*
X55550Y-44710D01*
X55549Y-44889D01*
X55618Y-45054D01*
X55744Y-45181D01*
X55910Y-45249D01*
X56089Y-45250D01*
X56254Y-45181D01*
X56381Y-45055D01*
X56449Y-44889D01*
X56450Y-44710D01*
X56450Y-45710D01*
X56381Y-45545D01*
X56255Y-45418D01*
X56089Y-45350D01*
X55910Y-45349D01*
X55745Y-45418D01*
X55618Y-45544D01*
X55550Y-45710D01*
X55549Y-45889D01*
X55618Y-46054D01*
X55744Y-46181D01*
X55910Y-46249D01*
X56089Y-46250D01*
X56254Y-46181D01*
X56381Y-46055D01*
X56449Y-45889D01*
X56450Y-45710D01*
X56450Y-46710D01*
X56381Y-46545D01*
X56255Y-46418D01*
X56089Y-46350D01*
X55910Y-46349D01*
X55855Y-46372D01*
X55350Y-45867D01*
X55350Y-44475D01*
X55334Y-44398D01*
X55291Y-44333D01*
X54899Y-43942D01*
X54900Y-43835D01*
X54850Y-43716D01*
X54759Y-43624D01*
X54639Y-43575D01*
X54510Y-43574D01*
X54391Y-43624D01*
X54299Y-43715D01*
X54250Y-43835D01*
X54249Y-43964D01*
X54299Y-44083D01*
X54390Y-44175D01*
X54510Y-44224D01*
X54617Y-44225D01*
X54950Y-44557D01*
X54950Y-45950D01*
X54965Y-46026D01*
X55008Y-46091D01*
X55572Y-46655D01*
X55550Y-46710D01*
X55549Y-46889D01*
X55618Y-47054D01*
X55744Y-47181D01*
X55910Y-47249D01*
X56089Y-47250D01*
X56254Y-47181D01*
X56381Y-47055D01*
X56449Y-46889D01*
X56450Y-46710D01*
X56450Y-47710D01*
X56381Y-47545D01*
X56255Y-47418D01*
X56089Y-47350D01*
X55910Y-47349D01*
X55745Y-47418D01*
X55618Y-47544D01*
X55550Y-47710D01*
X55549Y-47889D01*
X55618Y-48054D01*
X55733Y-48169D01*
X55581Y-48169D01*
X51409Y-43997D01*
X51344Y-43954D01*
X51268Y-43939D01*
X48764Y-43939D01*
X48582Y-43756D01*
X48645Y-43769D01*
X48774Y-43769D01*
X48850Y-43844D01*
X48969Y-43894D01*
X49098Y-43894D01*
X49218Y-43844D01*
X49309Y-43753D01*
X49359Y-43634D01*
X49359Y-43504D01*
X49310Y-43385D01*
X49218Y-43293D01*
X49099Y-43244D01*
X49044Y-43244D01*
X49044Y-43147D01*
X48994Y-43027D01*
X48903Y-42936D01*
X48784Y-42886D01*
X48676Y-42886D01*
X48446Y-42656D01*
X48510Y-42629D01*
X48586Y-42554D01*
X55614Y-42554D01*
X55550Y-42710D01*
X55549Y-42889D01*
X55618Y-43054D01*
X55744Y-43181D01*
X55910Y-43249D01*
X56089Y-43250D01*
X56254Y-43181D01*
X56381Y-43055D01*
X56449Y-42889D01*
X56450Y-42710D01*
X56385Y-42554D01*
X56471Y-42554D01*
X56572Y-42655D01*
X56550Y-42710D01*
X56549Y-42889D01*
X56618Y-43054D01*
X56744Y-43181D01*
X56910Y-43249D01*
X57089Y-43250D01*
X57254Y-43181D01*
X57381Y-43055D01*
X57449Y-42889D01*
X57450Y-42710D01*
X57450Y-41710D01*
X57450Y-40710D01*
X57450Y-39710D01*
X57450Y-38710D01*
X57450Y-37710D01*
X57381Y-37545D01*
X57301Y-37464D01*
X57301Y-37114D01*
X57000Y-36812D01*
X56987Y-36825D01*
X56987Y-36800D01*
X56685Y-36498D01*
X56608Y-36526D01*
X56533Y-36697D01*
X56530Y-36883D01*
X56597Y-37057D01*
X56608Y-37073D01*
X56685Y-37101D01*
X56987Y-36800D01*
X56987Y-36825D01*
X56698Y-37114D01*
X56726Y-37191D01*
X56897Y-37266D01*
X57083Y-37269D01*
X57257Y-37202D01*
X57273Y-37191D01*
X57301Y-37114D01*
X57301Y-37464D01*
X57255Y-37418D01*
X57089Y-37350D01*
X56910Y-37349D01*
X56745Y-37418D01*
X56618Y-37544D01*
X56595Y-37600D01*
X56468Y-37600D01*
X56468Y-37133D01*
X56468Y-36851D01*
X56468Y-36748D01*
X56468Y-36466D01*
X56442Y-36404D01*
X56395Y-36357D01*
X56333Y-36331D01*
X56266Y-36331D01*
X56051Y-36331D01*
X56009Y-36373D01*
X56009Y-36790D01*
X56426Y-36790D01*
X56468Y-36748D01*
X56468Y-36851D01*
X56426Y-36809D01*
X56009Y-36809D01*
X56009Y-37226D01*
X56051Y-37268D01*
X56266Y-37268D01*
X56333Y-37268D01*
X56395Y-37242D01*
X56442Y-37195D01*
X56468Y-37133D01*
X56468Y-37600D01*
X56404Y-37600D01*
X56381Y-37545D01*
X56255Y-37418D01*
X56089Y-37350D01*
X55990Y-37349D01*
X55990Y-37226D01*
X55990Y-36809D01*
X55990Y-36790D01*
X55990Y-36373D01*
X55948Y-36331D01*
X55733Y-36331D01*
X55666Y-36331D01*
X55604Y-36357D01*
X55557Y-36404D01*
X55531Y-36466D01*
X55531Y-36748D01*
X55573Y-36790D01*
X55990Y-36790D01*
X55990Y-36809D01*
X55573Y-36809D01*
X55531Y-36851D01*
X55531Y-37133D01*
X55557Y-37195D01*
X55604Y-37242D01*
X55666Y-37268D01*
X55733Y-37268D01*
X55948Y-37268D01*
X55990Y-37226D01*
X55990Y-37349D01*
X55910Y-37349D01*
X55745Y-37418D01*
X55618Y-37544D01*
X55550Y-37710D01*
X55549Y-37889D01*
X55618Y-38054D01*
X55744Y-38181D01*
X55910Y-38249D01*
X56089Y-38250D01*
X56254Y-38181D01*
X56381Y-38055D01*
X56404Y-38000D01*
X56595Y-38000D01*
X56618Y-38054D01*
X56744Y-38181D01*
X56910Y-38249D01*
X57089Y-38250D01*
X57254Y-38181D01*
X57381Y-38055D01*
X57449Y-37889D01*
X57450Y-37710D01*
X57450Y-38710D01*
X57381Y-38545D01*
X57255Y-38418D01*
X57089Y-38350D01*
X56910Y-38349D01*
X56745Y-38418D01*
X56618Y-38544D01*
X56595Y-38600D01*
X56404Y-38600D01*
X56381Y-38545D01*
X56255Y-38418D01*
X56089Y-38350D01*
X55910Y-38349D01*
X55745Y-38418D01*
X55618Y-38544D01*
X55550Y-38710D01*
X55549Y-38889D01*
X55618Y-39054D01*
X55744Y-39181D01*
X55910Y-39249D01*
X56089Y-39250D01*
X56254Y-39181D01*
X56381Y-39055D01*
X56404Y-39000D01*
X56595Y-39000D01*
X56618Y-39054D01*
X56744Y-39181D01*
X56910Y-39249D01*
X57089Y-39250D01*
X57254Y-39181D01*
X57381Y-39055D01*
X57449Y-38889D01*
X57450Y-38710D01*
X57450Y-39710D01*
X57381Y-39545D01*
X57255Y-39418D01*
X57089Y-39350D01*
X56910Y-39349D01*
X56745Y-39418D01*
X56618Y-39544D01*
X56550Y-39710D01*
X56549Y-39889D01*
X56618Y-40054D01*
X56744Y-40181D01*
X56910Y-40249D01*
X57089Y-40250D01*
X57254Y-40181D01*
X57381Y-40055D01*
X57449Y-39889D01*
X57450Y-39710D01*
X57450Y-40710D01*
X57381Y-40545D01*
X57255Y-40418D01*
X57089Y-40350D01*
X56910Y-40349D01*
X56745Y-40418D01*
X56618Y-40544D01*
X56550Y-40710D01*
X56549Y-40889D01*
X56618Y-41054D01*
X56744Y-41181D01*
X56910Y-41249D01*
X57089Y-41250D01*
X57254Y-41181D01*
X57381Y-41055D01*
X57449Y-40889D01*
X57450Y-40710D01*
X57450Y-41710D01*
X57381Y-41545D01*
X57255Y-41418D01*
X57089Y-41350D01*
X56910Y-41349D01*
X56745Y-41418D01*
X56618Y-41544D01*
X56550Y-41710D01*
X56549Y-41889D01*
X56618Y-42054D01*
X56744Y-42181D01*
X56910Y-42249D01*
X57089Y-42250D01*
X57254Y-42181D01*
X57381Y-42055D01*
X57449Y-41889D01*
X57450Y-41710D01*
X57450Y-42710D01*
X57381Y-42545D01*
X57255Y-42418D01*
X57089Y-42350D01*
X56910Y-42349D01*
X56855Y-42372D01*
X56695Y-42212D01*
X56630Y-42169D01*
X56554Y-42154D01*
X56282Y-42154D01*
X56381Y-42055D01*
X56449Y-41889D01*
X56450Y-41710D01*
X56450Y-40710D01*
X56450Y-39710D01*
X56381Y-39545D01*
X56255Y-39418D01*
X56089Y-39350D01*
X55910Y-39349D01*
X55745Y-39418D01*
X55618Y-39544D01*
X55550Y-39710D01*
X55549Y-39889D01*
X55618Y-40054D01*
X55744Y-40181D01*
X55910Y-40249D01*
X56089Y-40250D01*
X56254Y-40181D01*
X56381Y-40055D01*
X56449Y-39889D01*
X56450Y-39710D01*
X56450Y-40710D01*
X56381Y-40545D01*
X56255Y-40418D01*
X56089Y-40350D01*
X55910Y-40349D01*
X55745Y-40418D01*
X55618Y-40544D01*
X55550Y-40710D01*
X55549Y-40889D01*
X55618Y-41054D01*
X55744Y-41181D01*
X55910Y-41249D01*
X56089Y-41250D01*
X56254Y-41181D01*
X56381Y-41055D01*
X56449Y-40889D01*
X56450Y-40710D01*
X56450Y-41710D01*
X56381Y-41545D01*
X56255Y-41418D01*
X56089Y-41350D01*
X55910Y-41349D01*
X55745Y-41418D01*
X55618Y-41544D01*
X55550Y-41710D01*
X55549Y-41889D01*
X55564Y-41925D01*
X52925Y-41925D01*
X52925Y-39904D01*
X52925Y-39845D01*
X52925Y-39295D01*
X52902Y-39240D01*
X52859Y-39197D01*
X52804Y-39175D01*
X52745Y-39175D01*
X52195Y-39175D01*
X52140Y-39197D01*
X52097Y-39240D01*
X52075Y-39295D01*
X52075Y-39354D01*
X52075Y-39904D01*
X52097Y-39959D01*
X52140Y-40002D01*
X52195Y-40025D01*
X52254Y-40025D01*
X52300Y-40025D01*
X52300Y-40492D01*
X51925Y-40867D01*
X51925Y-39515D01*
X51860Y-39359D01*
X51741Y-39239D01*
X51584Y-39175D01*
X51415Y-39174D01*
X51259Y-39239D01*
X51139Y-39358D01*
X51075Y-39515D01*
X51074Y-39684D01*
X51139Y-39840D01*
X51258Y-39960D01*
X51415Y-40024D01*
X51584Y-40025D01*
X51740Y-39960D01*
X51860Y-39841D01*
X51924Y-39684D01*
X51925Y-39515D01*
X51925Y-40867D01*
X51742Y-41050D01*
X50859Y-41050D01*
X50784Y-40974D01*
X50664Y-40925D01*
X50535Y-40924D01*
X50416Y-40974D01*
X50324Y-41065D01*
X50275Y-41185D01*
X50274Y-41314D01*
X50324Y-41433D01*
X50415Y-41525D01*
X50535Y-41574D01*
X50664Y-41575D01*
X50783Y-41525D01*
X50859Y-41450D01*
X51825Y-41450D01*
X51901Y-41434D01*
X51966Y-41391D01*
X52641Y-40716D01*
X52684Y-40651D01*
X52684Y-40651D01*
X52700Y-40575D01*
X52700Y-40025D01*
X52804Y-40025D01*
X52859Y-40002D01*
X52902Y-39959D01*
X52925Y-39904D01*
X52925Y-41925D01*
X48857Y-41925D01*
X48791Y-41858D01*
X48726Y-41815D01*
X48650Y-41800D01*
X48264Y-41800D01*
X48250Y-41766D01*
X48159Y-41674D01*
X48039Y-41625D01*
X47910Y-41624D01*
X47791Y-41674D01*
X47699Y-41765D01*
X47650Y-41885D01*
X47650Y-41947D01*
X47313Y-41947D01*
X46016Y-40651D01*
X47127Y-40651D01*
X47182Y-40628D01*
X47224Y-40586D01*
X47247Y-40531D01*
X47247Y-40471D01*
X47247Y-40049D01*
X47304Y-40038D01*
X47369Y-39994D01*
X47914Y-39450D01*
X50102Y-39450D01*
X50075Y-39515D01*
X50074Y-39684D01*
X50139Y-39840D01*
X50258Y-39960D01*
X50415Y-40024D01*
X50584Y-40025D01*
X50740Y-39960D01*
X50860Y-39841D01*
X50924Y-39684D01*
X50925Y-39515D01*
X50860Y-39359D01*
X50741Y-39239D01*
X50694Y-39220D01*
X50684Y-39173D01*
X50641Y-39108D01*
X50576Y-39065D01*
X50500Y-39050D01*
X47831Y-39050D01*
X47767Y-39062D01*
X47754Y-39065D01*
X47689Y-39108D01*
X47247Y-39550D01*
X47247Y-39176D01*
X47224Y-39120D01*
X47182Y-39078D01*
X47127Y-39055D01*
X47067Y-39055D01*
X46950Y-39055D01*
X46950Y-34529D01*
X46950Y-34470D01*
X46950Y-33870D01*
X46927Y-33815D01*
X46884Y-33772D01*
X46829Y-33750D01*
X46770Y-33750D01*
X46170Y-33750D01*
X46115Y-33772D01*
X46072Y-33815D01*
X46050Y-33870D01*
X46050Y-33929D01*
X46050Y-34529D01*
X46072Y-34584D01*
X46115Y-34627D01*
X46170Y-34650D01*
X46229Y-34650D01*
X46829Y-34650D01*
X46884Y-34627D01*
X46927Y-34584D01*
X46950Y-34529D01*
X46950Y-39055D01*
X46880Y-39055D01*
X46880Y-37464D01*
X46814Y-37306D01*
X46693Y-37185D01*
X46535Y-37120D01*
X46364Y-37119D01*
X46206Y-37185D01*
X46085Y-37306D01*
X46020Y-37464D01*
X46019Y-37635D01*
X46085Y-37793D01*
X46206Y-37914D01*
X46364Y-37979D01*
X46535Y-37980D01*
X46693Y-37914D01*
X46814Y-37793D01*
X46879Y-37635D01*
X46880Y-37464D01*
X46880Y-39055D01*
X45969Y-39055D01*
X45969Y-34116D01*
X45902Y-33942D01*
X45891Y-33926D01*
X45814Y-33898D01*
X45801Y-33911D01*
X45801Y-33885D01*
X45773Y-33808D01*
X45602Y-33733D01*
X45416Y-33730D01*
X45242Y-33797D01*
X45226Y-33808D01*
X45198Y-33885D01*
X45500Y-34187D01*
X45801Y-33885D01*
X45801Y-33911D01*
X45512Y-34200D01*
X45814Y-34501D01*
X45891Y-34473D01*
X45966Y-34302D01*
X45969Y-34116D01*
X45969Y-39055D01*
X45801Y-39055D01*
X45801Y-34514D01*
X45500Y-34212D01*
X45487Y-34225D01*
X45487Y-34200D01*
X45185Y-33898D01*
X45108Y-33926D01*
X45033Y-34097D01*
X45030Y-34283D01*
X45097Y-34457D01*
X45108Y-34473D01*
X45185Y-34501D01*
X45487Y-34200D01*
X45487Y-34225D01*
X45198Y-34514D01*
X45226Y-34591D01*
X45397Y-34666D01*
X45583Y-34669D01*
X45757Y-34602D01*
X45773Y-34591D01*
X45801Y-34514D01*
X45801Y-39055D01*
X45772Y-39055D01*
X45717Y-39078D01*
X45675Y-39120D01*
X45652Y-39176D01*
X45652Y-39235D01*
X45652Y-40286D01*
X45320Y-39955D01*
X45320Y-37458D01*
X45305Y-37381D01*
X45262Y-37316D01*
X41572Y-33627D01*
X41507Y-33583D01*
X41431Y-33568D01*
X38809Y-33568D01*
X38733Y-33583D01*
X38668Y-33627D01*
X38374Y-33920D01*
X38314Y-33898D01*
X38301Y-33911D01*
X38301Y-33885D01*
X38273Y-33808D01*
X38102Y-33733D01*
X37916Y-33730D01*
X37742Y-33797D01*
X37726Y-33808D01*
X37698Y-33885D01*
X38000Y-34187D01*
X38301Y-33885D01*
X38301Y-33911D01*
X38012Y-34200D01*
X38018Y-34205D01*
X38005Y-34218D01*
X38000Y-34212D01*
X37994Y-34218D01*
X37981Y-34205D01*
X37987Y-34200D01*
X37685Y-33898D01*
X37608Y-33926D01*
X37533Y-34097D01*
X37530Y-34283D01*
X37587Y-34430D01*
X37513Y-34430D01*
X37427Y-34344D01*
X37449Y-34289D01*
X37450Y-34110D01*
X37381Y-33945D01*
X37255Y-33818D01*
X37089Y-33750D01*
X36910Y-33749D01*
X36745Y-33818D01*
X36618Y-33944D01*
X36550Y-34110D01*
X36549Y-34289D01*
X36618Y-34454D01*
X36744Y-34581D01*
X36910Y-34649D01*
X37089Y-34650D01*
X37144Y-34627D01*
X37288Y-34771D01*
X37353Y-34814D01*
X37430Y-34830D01*
X38179Y-34830D01*
X38256Y-34814D01*
X38321Y-34771D01*
X38628Y-34464D01*
X38744Y-34581D01*
X38910Y-34649D01*
X38940Y-34649D01*
X41603Y-37313D01*
X40620Y-37313D01*
X40533Y-37225D01*
X40468Y-37182D01*
X40391Y-37167D01*
X37469Y-37167D01*
X37469Y-36716D01*
X37402Y-36542D01*
X37391Y-36526D01*
X37314Y-36498D01*
X37301Y-36511D01*
X37301Y-36485D01*
X37273Y-36408D01*
X37102Y-36333D01*
X36916Y-36330D01*
X36742Y-36397D01*
X36726Y-36408D01*
X36698Y-36485D01*
X37000Y-36787D01*
X37301Y-36485D01*
X37301Y-36511D01*
X37012Y-36800D01*
X37314Y-37101D01*
X37391Y-37073D01*
X37466Y-36902D01*
X37469Y-36716D01*
X37469Y-37167D01*
X37281Y-37167D01*
X37301Y-37114D01*
X37000Y-36812D01*
X36987Y-36825D01*
X36987Y-36800D01*
X36685Y-36498D01*
X36608Y-36526D01*
X36533Y-36697D01*
X36530Y-36883D01*
X36597Y-37057D01*
X36608Y-37073D01*
X36685Y-37101D01*
X36987Y-36800D01*
X36987Y-36825D01*
X36698Y-37114D01*
X36718Y-37167D01*
X36454Y-37167D01*
X36468Y-37133D01*
X36468Y-36851D01*
X36468Y-36748D01*
X36468Y-36466D01*
X36450Y-36422D01*
X36450Y-34529D01*
X36450Y-34470D01*
X36450Y-33870D01*
X36427Y-33815D01*
X36384Y-33772D01*
X36329Y-33750D01*
X36270Y-33750D01*
X35670Y-33750D01*
X35615Y-33772D01*
X35572Y-33815D01*
X35550Y-33870D01*
X35550Y-33929D01*
X35550Y-34529D01*
X35572Y-34584D01*
X35615Y-34627D01*
X35670Y-34650D01*
X35729Y-34650D01*
X36329Y-34650D01*
X36384Y-34627D01*
X36427Y-34584D01*
X36450Y-34529D01*
X36450Y-36422D01*
X36442Y-36404D01*
X36395Y-36357D01*
X36333Y-36331D01*
X36266Y-36331D01*
X36051Y-36331D01*
X36009Y-36373D01*
X36009Y-36790D01*
X36426Y-36790D01*
X36468Y-36748D01*
X36468Y-36851D01*
X36426Y-36809D01*
X36009Y-36809D01*
X36009Y-36816D01*
X35990Y-36816D01*
X35990Y-36809D01*
X35990Y-36790D01*
X35990Y-36373D01*
X35948Y-36331D01*
X35733Y-36331D01*
X35666Y-36331D01*
X35604Y-36357D01*
X35557Y-36404D01*
X35531Y-36466D01*
X35531Y-36748D01*
X35573Y-36790D01*
X35990Y-36790D01*
X35990Y-36809D01*
X35573Y-36809D01*
X35531Y-36851D01*
X35531Y-37133D01*
X35557Y-37195D01*
X35604Y-37242D01*
X35645Y-37259D01*
X35410Y-37494D01*
X35367Y-37559D01*
X35352Y-37635D01*
X35352Y-39352D01*
X35367Y-39428D01*
X35410Y-39493D01*
X35572Y-39655D01*
X35550Y-39710D01*
X35549Y-39889D01*
X35618Y-40054D01*
X35744Y-40181D01*
X35910Y-40249D01*
X36089Y-40250D01*
X36254Y-40181D01*
X36381Y-40055D01*
X36449Y-39889D01*
X36450Y-39710D01*
X36381Y-39545D01*
X36255Y-39418D01*
X36089Y-39350D01*
X35910Y-39349D01*
X35855Y-39372D01*
X35752Y-39269D01*
X35752Y-39202D01*
X35897Y-39266D01*
X36083Y-39269D01*
X36257Y-39202D01*
X36273Y-39191D01*
X36301Y-39114D01*
X36000Y-38812D01*
X35994Y-38818D01*
X35981Y-38805D01*
X35987Y-38800D01*
X35981Y-38794D01*
X35994Y-38781D01*
X36000Y-38787D01*
X36301Y-38485D01*
X36273Y-38408D01*
X36102Y-38333D01*
X35916Y-38330D01*
X35752Y-38394D01*
X35752Y-38184D01*
X35910Y-38249D01*
X36089Y-38250D01*
X36254Y-38181D01*
X36381Y-38055D01*
X36404Y-38000D01*
X36595Y-38000D01*
X36618Y-38054D01*
X36744Y-38181D01*
X36910Y-38249D01*
X37089Y-38250D01*
X37254Y-38181D01*
X37381Y-38055D01*
X37404Y-38000D01*
X38451Y-38000D01*
X39100Y-38648D01*
X39099Y-38754D01*
X39149Y-38874D01*
X39240Y-38965D01*
X39360Y-39015D01*
X39489Y-39015D01*
X39608Y-38965D01*
X39684Y-38890D01*
X39841Y-38890D01*
X42610Y-41658D01*
X42610Y-41765D01*
X42659Y-41884D01*
X42750Y-41976D01*
X42768Y-41983D01*
X41735Y-41983D01*
X41225Y-41473D01*
X41225Y-41367D01*
X41176Y-41247D01*
X41084Y-41156D01*
X40965Y-41106D01*
X40836Y-41106D01*
X40716Y-41155D01*
X40625Y-41247D01*
X40575Y-41366D01*
X40575Y-41495D01*
X40624Y-41615D01*
X40716Y-41706D01*
X40835Y-41756D01*
X40942Y-41756D01*
X41511Y-42324D01*
X41576Y-42368D01*
X41576Y-42368D01*
X41588Y-42370D01*
X41652Y-42383D01*
X44179Y-42383D01*
X44254Y-42458D01*
X44374Y-42508D01*
X44503Y-42508D01*
X44622Y-42459D01*
X44714Y-42367D01*
X44764Y-42248D01*
X44764Y-42119D01*
X44714Y-41999D01*
X44623Y-41908D01*
X44606Y-41900D01*
X44988Y-41900D01*
X44997Y-41923D01*
X45088Y-42014D01*
X45208Y-42064D01*
X45337Y-42064D01*
X45456Y-42015D01*
X45548Y-41923D01*
X45597Y-41804D01*
X45597Y-41799D01*
X45680Y-41799D01*
X45799Y-41749D01*
X45891Y-41658D01*
X45908Y-41617D01*
X47778Y-43488D01*
X47776Y-43493D01*
X47776Y-43622D01*
X47825Y-43742D01*
X47917Y-43833D01*
X48036Y-43883D01*
X48143Y-43883D01*
X48540Y-44280D01*
X48540Y-44280D01*
X48605Y-44324D01*
X48605Y-44324D01*
X48618Y-44326D01*
X48682Y-44339D01*
X48737Y-44339D01*
X48714Y-44394D01*
X48714Y-44523D01*
X48763Y-44643D01*
X48854Y-44734D01*
X48974Y-44784D01*
X49103Y-44784D01*
X49223Y-44734D01*
X49298Y-44659D01*
X50896Y-44659D01*
X55700Y-49463D01*
X55618Y-49544D01*
X55585Y-49625D01*
X55541Y-49561D01*
X50866Y-44885D01*
X50801Y-44842D01*
X50724Y-44827D01*
X47260Y-44827D01*
X47253Y-44828D01*
X47215Y-44812D01*
X47085Y-44812D01*
X46966Y-44861D01*
X46874Y-44952D01*
X46825Y-45072D01*
X46825Y-45201D01*
X46874Y-45321D01*
X46965Y-45412D01*
X47085Y-45462D01*
X47214Y-45462D01*
X47333Y-45412D01*
X47425Y-45321D01*
X47464Y-45227D01*
X48732Y-45227D01*
X48714Y-45270D01*
X48714Y-45399D01*
X48734Y-45446D01*
X48625Y-45491D01*
X48533Y-45582D01*
X48483Y-45702D01*
X48483Y-45831D01*
X48533Y-45951D01*
X48624Y-46042D01*
X48743Y-46092D01*
X48873Y-46092D01*
X48992Y-46042D01*
X49068Y-45967D01*
X50872Y-45967D01*
X54795Y-49889D01*
X54795Y-51795D01*
X54810Y-51871D01*
X54853Y-51936D01*
X55572Y-52655D01*
X55550Y-52710D01*
X55549Y-52889D01*
X55618Y-53054D01*
X55744Y-53181D01*
X55910Y-53249D01*
X56089Y-53250D01*
X56230Y-53191D01*
X56230Y-53230D01*
X56245Y-53306D01*
X56288Y-53371D01*
X56572Y-53655D01*
X56550Y-53710D01*
X56549Y-53889D01*
X56618Y-54054D01*
X56744Y-54181D01*
X56910Y-54249D01*
X57089Y-54250D01*
X57234Y-54189D01*
X57234Y-54410D01*
X57089Y-54350D01*
X56910Y-54349D01*
X56745Y-54418D01*
X56618Y-54544D01*
X56550Y-54710D01*
X56549Y-54889D01*
X56618Y-55054D01*
X56744Y-55181D01*
X56910Y-55249D01*
X57089Y-55250D01*
X57234Y-55189D01*
X57234Y-55410D01*
X57089Y-55350D01*
X56910Y-55349D01*
X56745Y-55418D01*
X56618Y-55544D01*
X56550Y-55710D01*
X56549Y-55889D01*
X56618Y-56054D01*
X56729Y-56165D01*
X56450Y-56444D01*
X56450Y-55710D01*
X56450Y-54710D01*
X56450Y-53710D01*
X56381Y-53545D01*
X56255Y-53418D01*
X56089Y-53350D01*
X55910Y-53349D01*
X55745Y-53418D01*
X55618Y-53544D01*
X55550Y-53710D01*
X55549Y-53889D01*
X55618Y-54054D01*
X55744Y-54181D01*
X55910Y-54249D01*
X56089Y-54250D01*
X56254Y-54181D01*
X56381Y-54055D01*
X56449Y-53889D01*
X56450Y-53710D01*
X56450Y-54710D01*
X56381Y-54545D01*
X56255Y-54418D01*
X56089Y-54350D01*
X55910Y-54349D01*
X55745Y-54418D01*
X55618Y-54544D01*
X55550Y-54710D01*
X55549Y-54889D01*
X55618Y-55054D01*
X55744Y-55181D01*
X55910Y-55249D01*
X56089Y-55250D01*
X56254Y-55181D01*
X56381Y-55055D01*
X56449Y-54889D01*
X56450Y-54710D01*
X56450Y-55710D01*
X56381Y-55545D01*
X56255Y-55418D01*
X56089Y-55350D01*
X55910Y-55349D01*
X55745Y-55418D01*
X55618Y-55544D01*
X55550Y-55710D01*
X55549Y-55889D01*
X55618Y-56054D01*
X55744Y-56181D01*
X55910Y-56249D01*
X56089Y-56250D01*
X56254Y-56181D01*
X56381Y-56055D01*
X56449Y-55889D01*
X56450Y-55710D01*
X56450Y-56444D01*
X56411Y-56483D01*
X56374Y-56538D01*
X56255Y-56418D01*
X56089Y-56350D01*
X55910Y-56349D01*
X55745Y-56418D01*
X55618Y-56544D01*
X55550Y-56710D01*
X55549Y-56889D01*
X55618Y-57054D01*
X55744Y-57181D01*
X55910Y-57249D01*
X56089Y-57250D01*
X56254Y-57181D01*
X56352Y-57083D01*
X56352Y-57516D01*
X56255Y-57418D01*
X56089Y-57350D01*
X55910Y-57349D01*
X55745Y-57418D01*
X55618Y-57544D01*
X55550Y-57710D01*
X55549Y-57889D01*
X55618Y-58054D01*
X55744Y-58181D01*
X55910Y-58249D01*
X56089Y-58250D01*
X56254Y-58181D01*
X56352Y-58083D01*
X56352Y-58352D01*
X56367Y-58429D01*
X56411Y-58494D01*
X56572Y-58655D01*
X56550Y-58710D01*
X56549Y-58889D01*
X56618Y-59054D01*
X56744Y-59181D01*
X56910Y-59249D01*
X57089Y-59250D01*
X57254Y-59181D01*
X57381Y-59055D01*
X57449Y-58889D01*
X57450Y-58710D01*
X57381Y-58545D01*
X57255Y-58418D01*
X57089Y-58350D01*
X56910Y-58349D01*
X56855Y-58372D01*
X56752Y-58269D01*
X56752Y-58184D01*
X56910Y-58249D01*
X57089Y-58250D01*
X57254Y-58181D01*
X57381Y-58055D01*
X57449Y-57889D01*
X57450Y-57710D01*
X57381Y-57545D01*
X57255Y-57418D01*
X57089Y-57350D01*
X56910Y-57349D01*
X56752Y-57415D01*
X56752Y-57184D01*
X56910Y-57249D01*
X57089Y-57250D01*
X57254Y-57181D01*
X57381Y-57055D01*
X57449Y-56889D01*
X57450Y-56710D01*
X57427Y-56655D01*
X57756Y-56326D01*
X57799Y-56261D01*
X57814Y-56185D01*
X57814Y-61470D01*
X57469Y-61470D01*
X57469Y-60716D01*
X57450Y-60665D01*
X57450Y-59710D01*
X57381Y-59545D01*
X57255Y-59418D01*
X57089Y-59350D01*
X56910Y-59349D01*
X56745Y-59418D01*
X56618Y-59544D01*
X56550Y-59710D01*
X56549Y-59889D01*
X56618Y-60054D01*
X56744Y-60181D01*
X56910Y-60249D01*
X57089Y-60250D01*
X57254Y-60181D01*
X57381Y-60055D01*
X57449Y-59889D01*
X57450Y-59710D01*
X57450Y-60665D01*
X57402Y-60542D01*
X57391Y-60526D01*
X57314Y-60498D01*
X57301Y-60511D01*
X57301Y-60485D01*
X57273Y-60408D01*
X57102Y-60333D01*
X56916Y-60330D01*
X56742Y-60397D01*
X56726Y-60408D01*
X56698Y-60485D01*
X57000Y-60787D01*
X57301Y-60485D01*
X57301Y-60511D01*
X57012Y-60800D01*
X57314Y-61101D01*
X57391Y-61073D01*
X57466Y-60902D01*
X57469Y-60716D01*
X57469Y-61470D01*
X57301Y-61470D01*
X57301Y-61114D01*
X57000Y-60812D01*
X56987Y-60825D01*
X56987Y-60800D01*
X56685Y-60498D01*
X56608Y-60526D01*
X56533Y-60697D01*
X56530Y-60883D01*
X56597Y-61057D01*
X56608Y-61073D01*
X56685Y-61101D01*
X56987Y-60800D01*
X56987Y-60825D01*
X56698Y-61114D01*
X56726Y-61191D01*
X56897Y-61266D01*
X57083Y-61269D01*
X57257Y-61202D01*
X57273Y-61191D01*
X57301Y-61114D01*
X57301Y-61470D01*
X56469Y-61470D01*
X56469Y-60716D01*
X56450Y-60665D01*
X56450Y-59710D01*
X56450Y-58710D01*
X56381Y-58545D01*
X56255Y-58418D01*
X56089Y-58350D01*
X55910Y-58349D01*
X55855Y-58372D01*
X55106Y-57623D01*
X55101Y-56358D01*
X55175Y-56284D01*
X55224Y-56164D01*
X55225Y-56035D01*
X55175Y-55916D01*
X55084Y-55824D01*
X54964Y-55775D01*
X54835Y-55774D01*
X54716Y-55824D01*
X54624Y-55915D01*
X54575Y-56035D01*
X54574Y-56164D01*
X54624Y-56283D01*
X54701Y-56360D01*
X54706Y-57707D01*
X54714Y-57745D01*
X54722Y-57783D01*
X54722Y-57783D01*
X54722Y-57784D01*
X54743Y-57816D01*
X54765Y-57848D01*
X55572Y-58655D01*
X55550Y-58710D01*
X55549Y-58889D01*
X55618Y-59054D01*
X55744Y-59181D01*
X55910Y-59249D01*
X56089Y-59250D01*
X56254Y-59181D01*
X56381Y-59055D01*
X56449Y-58889D01*
X56450Y-58710D01*
X56450Y-59710D01*
X56381Y-59545D01*
X56255Y-59418D01*
X56089Y-59350D01*
X55910Y-59349D01*
X55745Y-59418D01*
X55618Y-59544D01*
X55550Y-59710D01*
X55549Y-59889D01*
X55618Y-60054D01*
X55744Y-60181D01*
X55910Y-60249D01*
X56089Y-60250D01*
X56254Y-60181D01*
X56381Y-60055D01*
X56449Y-59889D01*
X56450Y-59710D01*
X56450Y-60665D01*
X56402Y-60542D01*
X56391Y-60526D01*
X56314Y-60498D01*
X56301Y-60511D01*
X56301Y-60485D01*
X56273Y-60408D01*
X56102Y-60333D01*
X55916Y-60330D01*
X55742Y-60397D01*
X55726Y-60408D01*
X55698Y-60485D01*
X56000Y-60787D01*
X56301Y-60485D01*
X56301Y-60511D01*
X56012Y-60800D01*
X56314Y-61101D01*
X56391Y-61073D01*
X56466Y-60902D01*
X56469Y-60716D01*
X56469Y-61470D01*
X56301Y-61470D01*
X56301Y-61114D01*
X56000Y-60812D01*
X55987Y-60825D01*
X55987Y-60800D01*
X55685Y-60498D01*
X55608Y-60526D01*
X55533Y-60697D01*
X55530Y-60883D01*
X55597Y-61057D01*
X55608Y-61073D01*
X55685Y-61101D01*
X55987Y-60800D01*
X55987Y-60825D01*
X55698Y-61114D01*
X55726Y-61191D01*
X55897Y-61266D01*
X56083Y-61269D01*
X56257Y-61202D01*
X56273Y-61191D01*
X56301Y-61114D01*
X56301Y-61470D01*
X52426Y-61470D01*
X52426Y-48086D01*
X52420Y-48056D01*
X52417Y-48026D01*
X52412Y-48018D01*
X52410Y-48009D01*
X52394Y-47984D01*
X52379Y-47958D01*
X52372Y-47952D01*
X52367Y-47944D01*
X52342Y-47928D01*
X52319Y-47909D01*
X52310Y-47906D01*
X52302Y-47901D01*
X52273Y-47895D01*
X52244Y-47887D01*
X52235Y-47887D01*
X52226Y-47886D01*
X49117Y-47886D01*
X47169Y-45938D01*
X47170Y-45832D01*
X47120Y-45712D01*
X47029Y-45621D01*
X46909Y-45571D01*
X46780Y-45571D01*
X46661Y-45620D01*
X46569Y-45712D01*
X46520Y-45831D01*
X46519Y-45961D01*
X46569Y-46080D01*
X46660Y-46172D01*
X46780Y-46221D01*
X46887Y-46221D01*
X48840Y-48175D01*
X47157Y-48175D01*
X39377Y-40395D01*
X39434Y-40371D01*
X39509Y-40296D01*
X40452Y-40296D01*
X41498Y-41342D01*
X41498Y-41448D01*
X41548Y-41567D01*
X41639Y-41659D01*
X41758Y-41709D01*
X41888Y-41709D01*
X42007Y-41659D01*
X42099Y-41568D01*
X42148Y-41449D01*
X42148Y-41319D01*
X42099Y-41200D01*
X42008Y-41108D01*
X41888Y-41059D01*
X41781Y-41059D01*
X40677Y-39954D01*
X40612Y-39911D01*
X40535Y-39896D01*
X39509Y-39896D01*
X39434Y-39820D01*
X39315Y-39771D01*
X39185Y-39771D01*
X39066Y-39820D01*
X38974Y-39911D01*
X38951Y-39968D01*
X37641Y-38658D01*
X37576Y-38615D01*
X37500Y-38600D01*
X37404Y-38600D01*
X37381Y-38545D01*
X37255Y-38418D01*
X37089Y-38350D01*
X36910Y-38349D01*
X36745Y-38418D01*
X36618Y-38544D01*
X36550Y-38710D01*
X36549Y-38889D01*
X36618Y-39054D01*
X36744Y-39181D01*
X36910Y-39249D01*
X37089Y-39250D01*
X37254Y-39181D01*
X37381Y-39055D01*
X37404Y-39000D01*
X37417Y-39000D01*
X38403Y-39985D01*
X38388Y-39985D01*
X38269Y-40035D01*
X38177Y-40126D01*
X38128Y-40246D01*
X38128Y-40353D01*
X37443Y-41037D01*
X37388Y-41037D01*
X37449Y-40889D01*
X37450Y-40710D01*
X37450Y-39710D01*
X37381Y-39545D01*
X37255Y-39418D01*
X37089Y-39350D01*
X36910Y-39349D01*
X36745Y-39418D01*
X36618Y-39544D01*
X36550Y-39710D01*
X36549Y-39889D01*
X36618Y-40054D01*
X36744Y-40181D01*
X36910Y-40249D01*
X37089Y-40250D01*
X37254Y-40181D01*
X37381Y-40055D01*
X37449Y-39889D01*
X37450Y-39710D01*
X37450Y-40710D01*
X37381Y-40545D01*
X37255Y-40418D01*
X37089Y-40350D01*
X36910Y-40349D01*
X36745Y-40418D01*
X36618Y-40544D01*
X36550Y-40710D01*
X36549Y-40889D01*
X36611Y-41037D01*
X36520Y-41037D01*
X36469Y-40987D01*
X36469Y-38716D01*
X36402Y-38542D01*
X36391Y-38526D01*
X36314Y-38498D01*
X36012Y-38800D01*
X36314Y-39101D01*
X36391Y-39073D01*
X36466Y-38902D01*
X36469Y-38716D01*
X36469Y-40987D01*
X36427Y-40944D01*
X36449Y-40889D01*
X36450Y-40710D01*
X36381Y-40545D01*
X36255Y-40418D01*
X36089Y-40350D01*
X35910Y-40349D01*
X35745Y-40418D01*
X35618Y-40544D01*
X35550Y-40710D01*
X35549Y-40889D01*
X35618Y-41054D01*
X35744Y-41181D01*
X35910Y-41249D01*
X36089Y-41250D01*
X36144Y-41227D01*
X36296Y-41378D01*
X36360Y-41422D01*
X36360Y-41422D01*
X36437Y-41437D01*
X36726Y-41437D01*
X36618Y-41544D01*
X36550Y-41710D01*
X36549Y-41889D01*
X36618Y-42054D01*
X36744Y-42181D01*
X36910Y-42249D01*
X37089Y-42250D01*
X37254Y-42181D01*
X37381Y-42055D01*
X37449Y-41889D01*
X37450Y-41710D01*
X37381Y-41545D01*
X37273Y-41437D01*
X37526Y-41437D01*
X37603Y-41422D01*
X37667Y-41378D01*
X38410Y-40635D01*
X38517Y-40636D01*
X38636Y-40586D01*
X38728Y-40495D01*
X38778Y-40375D01*
X38778Y-40360D01*
X38937Y-40519D01*
X38920Y-40519D01*
X38801Y-40569D01*
X38709Y-40660D01*
X38660Y-40780D01*
X38660Y-40887D01*
X37165Y-42381D01*
X37089Y-42350D01*
X36910Y-42349D01*
X36745Y-42418D01*
X36618Y-42544D01*
X36550Y-42710D01*
X36549Y-42889D01*
X36618Y-43054D01*
X36744Y-43181D01*
X36910Y-43249D01*
X37089Y-43250D01*
X37254Y-43181D01*
X37381Y-43055D01*
X37449Y-42889D01*
X37450Y-42710D01*
X37436Y-42677D01*
X38943Y-41170D01*
X39049Y-41170D01*
X39169Y-41120D01*
X39260Y-41029D01*
X39310Y-40909D01*
X39310Y-40893D01*
X46933Y-48516D01*
X46998Y-48559D01*
X47075Y-48575D01*
X50842Y-48575D01*
X51029Y-48762D01*
X51029Y-48810D01*
X51000Y-48741D01*
X50909Y-48649D01*
X50789Y-48600D01*
X50660Y-48599D01*
X50541Y-48649D01*
X50449Y-48740D01*
X50400Y-48860D01*
X50399Y-48967D01*
X50192Y-49175D01*
X47475Y-49175D01*
X46032Y-49175D01*
X43774Y-46917D01*
X43775Y-46810D01*
X43725Y-46691D01*
X43634Y-46599D01*
X43514Y-46550D01*
X43385Y-46549D01*
X43266Y-46599D01*
X43174Y-46690D01*
X43125Y-46810D01*
X43124Y-46939D01*
X43174Y-47058D01*
X43265Y-47150D01*
X43385Y-47199D01*
X43492Y-47200D01*
X45808Y-49516D01*
X45873Y-49559D01*
X45873Y-49559D01*
X45950Y-49575D01*
X46992Y-49575D01*
X46325Y-50242D01*
X46325Y-50035D01*
X46275Y-49916D01*
X46184Y-49824D01*
X46064Y-49775D01*
X45935Y-49774D01*
X45816Y-49824D01*
X45724Y-49915D01*
X45675Y-50035D01*
X45674Y-50142D01*
X45552Y-50264D01*
X44773Y-50264D01*
X44773Y-50139D01*
X44750Y-50083D01*
X44708Y-50041D01*
X44653Y-50018D01*
X44593Y-50018D01*
X43805Y-50018D01*
X43750Y-50041D01*
X43708Y-50083D01*
X43685Y-50139D01*
X43685Y-50198D01*
X43685Y-50264D01*
X42214Y-50264D01*
X42214Y-50139D01*
X42191Y-50083D01*
X42149Y-50041D01*
X42094Y-50018D01*
X42034Y-50018D01*
X41508Y-50018D01*
X38943Y-47454D01*
X38943Y-42925D01*
X39019Y-42850D01*
X39068Y-42730D01*
X39068Y-42601D01*
X39019Y-42482D01*
X38927Y-42390D01*
X38808Y-42341D01*
X38679Y-42340D01*
X38559Y-42390D01*
X38468Y-42481D01*
X38418Y-42601D01*
X38418Y-42730D01*
X38467Y-42849D01*
X38543Y-42925D01*
X38543Y-47537D01*
X38558Y-47613D01*
X38602Y-47678D01*
X41126Y-50203D01*
X41126Y-50789D01*
X41149Y-50844D01*
X41191Y-50886D01*
X41246Y-50909D01*
X41306Y-50909D01*
X42094Y-50909D01*
X42149Y-50886D01*
X42191Y-50844D01*
X42214Y-50789D01*
X42214Y-50729D01*
X42214Y-50664D01*
X43685Y-50664D01*
X43685Y-50789D01*
X43708Y-50844D01*
X43750Y-50886D01*
X43805Y-50909D01*
X43865Y-50909D01*
X44653Y-50909D01*
X44708Y-50886D01*
X44750Y-50844D01*
X44773Y-50789D01*
X44773Y-50729D01*
X44773Y-50664D01*
X45635Y-50664D01*
X45712Y-50648D01*
X45777Y-50605D01*
X45957Y-50424D01*
X46064Y-50425D01*
X46183Y-50375D01*
X46275Y-50284D01*
X46324Y-50164D01*
X46325Y-50035D01*
X46325Y-50242D01*
X44750Y-51816D01*
X44747Y-51813D01*
X44692Y-51790D01*
X44632Y-51790D01*
X43845Y-51790D01*
X43790Y-51813D01*
X43748Y-51855D01*
X43725Y-51910D01*
X43725Y-51970D01*
X43725Y-52035D01*
X42214Y-52035D01*
X42214Y-51910D01*
X42191Y-51855D01*
X42149Y-51813D01*
X42094Y-51790D01*
X42034Y-51790D01*
X41246Y-51790D01*
X41191Y-51813D01*
X41149Y-51855D01*
X41126Y-51910D01*
X41126Y-51970D01*
X41126Y-52560D01*
X41149Y-52616D01*
X41191Y-52658D01*
X41246Y-52681D01*
X41306Y-52681D01*
X42094Y-52681D01*
X42149Y-52658D01*
X42191Y-52616D01*
X42214Y-52560D01*
X42214Y-52501D01*
X42214Y-52435D01*
X43725Y-52435D01*
X43725Y-52560D01*
X43748Y-52616D01*
X43790Y-52658D01*
X43845Y-52681D01*
X43905Y-52681D01*
X44692Y-52681D01*
X44747Y-52658D01*
X44789Y-52616D01*
X44812Y-52560D01*
X44812Y-52501D01*
X44812Y-52295D01*
X45575Y-53057D01*
X45574Y-53164D01*
X45624Y-53283D01*
X45715Y-53375D01*
X45835Y-53424D01*
X45964Y-53425D01*
X46083Y-53375D01*
X46175Y-53284D01*
X46224Y-53164D01*
X46225Y-53035D01*
X46175Y-52916D01*
X46121Y-52862D01*
X46398Y-52862D01*
X46440Y-52820D01*
X46440Y-52055D01*
X45676Y-52055D01*
X45634Y-52097D01*
X45634Y-52551D01*
X45107Y-52025D01*
X45634Y-51498D01*
X45634Y-51995D01*
X45676Y-52037D01*
X46440Y-52037D01*
X46440Y-51272D01*
X46398Y-51230D01*
X45902Y-51230D01*
X47557Y-49575D01*
X50275Y-49575D01*
X50351Y-49559D01*
X50416Y-49516D01*
X50682Y-49249D01*
X50789Y-49250D01*
X50908Y-49200D01*
X51000Y-49109D01*
X51029Y-49039D01*
X51029Y-50018D01*
X50805Y-50018D01*
X50750Y-50041D01*
X50708Y-50083D01*
X50685Y-50139D01*
X50685Y-50198D01*
X50685Y-50264D01*
X49214Y-50264D01*
X49214Y-50139D01*
X49191Y-50083D01*
X49149Y-50041D01*
X49094Y-50018D01*
X49034Y-50018D01*
X48246Y-50018D01*
X48191Y-50041D01*
X48149Y-50083D01*
X48126Y-50139D01*
X48126Y-50198D01*
X48126Y-50789D01*
X48149Y-50844D01*
X48191Y-50886D01*
X48246Y-50909D01*
X48306Y-50909D01*
X49094Y-50909D01*
X49149Y-50886D01*
X49191Y-50844D01*
X49214Y-50789D01*
X49214Y-50729D01*
X49214Y-50664D01*
X50685Y-50664D01*
X50685Y-50789D01*
X50708Y-50844D01*
X50750Y-50886D01*
X50805Y-50909D01*
X50865Y-50909D01*
X51653Y-50909D01*
X51708Y-50886D01*
X51750Y-50844D01*
X51773Y-50789D01*
X51773Y-50729D01*
X51773Y-50139D01*
X51750Y-50083D01*
X51708Y-50041D01*
X51653Y-50018D01*
X51593Y-50018D01*
X51429Y-50018D01*
X51429Y-48679D01*
X51414Y-48602D01*
X51414Y-48602D01*
X51370Y-48538D01*
X51119Y-48286D01*
X52007Y-48286D01*
X51908Y-49382D01*
X51824Y-49465D01*
X51775Y-49585D01*
X51774Y-49714D01*
X51824Y-49833D01*
X51915Y-49925D01*
X52035Y-49974D01*
X52164Y-49975D01*
X52283Y-49925D01*
X52375Y-49834D01*
X52424Y-49714D01*
X52425Y-49585D01*
X52375Y-49466D01*
X52308Y-49398D01*
X52425Y-48104D01*
X52424Y-48095D01*
X52426Y-48086D01*
X52426Y-61470D01*
X51830Y-61470D01*
X51830Y-52564D01*
X51830Y-52497D01*
X51830Y-52286D01*
X51830Y-52184D01*
X51830Y-51973D01*
X51830Y-51907D01*
X51805Y-51845D01*
X51757Y-51798D01*
X51696Y-51772D01*
X51319Y-51772D01*
X51277Y-51814D01*
X51277Y-52226D01*
X51788Y-52226D01*
X51830Y-52184D01*
X51830Y-52286D01*
X51788Y-52244D01*
X51277Y-52244D01*
X51277Y-52252D01*
X51259Y-52252D01*
X51259Y-52244D01*
X51259Y-52226D01*
X51259Y-51814D01*
X51217Y-51772D01*
X50841Y-51772D01*
X50779Y-51798D01*
X50732Y-51845D01*
X50707Y-51907D01*
X50707Y-51973D01*
X50707Y-52184D01*
X50749Y-52226D01*
X51259Y-52226D01*
X51259Y-52244D01*
X50749Y-52244D01*
X50707Y-52286D01*
X50707Y-52497D01*
X50707Y-52564D01*
X50732Y-52626D01*
X50779Y-52673D01*
X50841Y-52699D01*
X50916Y-52699D01*
X50874Y-52740D01*
X50825Y-52860D01*
X50824Y-52989D01*
X50828Y-52997D01*
X50714Y-52950D01*
X50585Y-52949D01*
X50466Y-52999D01*
X50390Y-53075D01*
X49232Y-53075D01*
X49232Y-52564D01*
X49232Y-52497D01*
X49232Y-52286D01*
X49232Y-52184D01*
X49232Y-51973D01*
X49232Y-51907D01*
X49206Y-51845D01*
X49159Y-51798D01*
X49097Y-51772D01*
X48721Y-51772D01*
X48679Y-51814D01*
X48679Y-52226D01*
X49190Y-52226D01*
X49232Y-52184D01*
X49232Y-52286D01*
X49190Y-52244D01*
X48679Y-52244D01*
X48679Y-52657D01*
X48721Y-52699D01*
X49097Y-52699D01*
X49159Y-52673D01*
X49206Y-52626D01*
X49232Y-52564D01*
X49232Y-53075D01*
X49050Y-53075D01*
X48973Y-53090D01*
X48908Y-53133D01*
X48661Y-53380D01*
X48661Y-52657D01*
X48661Y-52244D01*
X48661Y-52226D01*
X48661Y-51814D01*
X48619Y-51772D01*
X48243Y-51772D01*
X48181Y-51798D01*
X48134Y-51845D01*
X48108Y-51907D01*
X48108Y-51973D01*
X48108Y-52184D01*
X48150Y-52226D01*
X48661Y-52226D01*
X48661Y-52244D01*
X48150Y-52244D01*
X48108Y-52286D01*
X48108Y-52497D01*
X48108Y-52564D01*
X48134Y-52626D01*
X48181Y-52673D01*
X48243Y-52699D01*
X48619Y-52699D01*
X48661Y-52657D01*
X48661Y-53380D01*
X48492Y-53550D01*
X48209Y-53550D01*
X48134Y-53474D01*
X48014Y-53425D01*
X47885Y-53424D01*
X47766Y-53474D01*
X47674Y-53565D01*
X47625Y-53685D01*
X47624Y-53814D01*
X47674Y-53933D01*
X47765Y-54025D01*
X47885Y-54074D01*
X48014Y-54075D01*
X48133Y-54025D01*
X48209Y-53950D01*
X48549Y-53950D01*
X48549Y-54014D01*
X48599Y-54133D01*
X48690Y-54225D01*
X48810Y-54274D01*
X48939Y-54275D01*
X49058Y-54225D01*
X49150Y-54134D01*
X49199Y-54014D01*
X49200Y-53907D01*
X49382Y-53725D01*
X50267Y-53725D01*
X50333Y-53791D01*
X50398Y-53834D01*
X50475Y-53850D01*
X50875Y-53850D01*
X50951Y-53834D01*
X51016Y-53791D01*
X51291Y-53516D01*
X51334Y-53451D01*
X51334Y-53451D01*
X51350Y-53375D01*
X51350Y-53184D01*
X51425Y-53109D01*
X51474Y-52989D01*
X51475Y-52860D01*
X51425Y-52741D01*
X51383Y-52699D01*
X51696Y-52699D01*
X51757Y-52673D01*
X51805Y-52626D01*
X51830Y-52564D01*
X51830Y-61470D01*
X48625Y-61470D01*
X48625Y-57560D01*
X48575Y-57441D01*
X48500Y-57365D01*
X48500Y-56509D01*
X48575Y-56434D01*
X48624Y-56314D01*
X48625Y-56185D01*
X48575Y-56066D01*
X48484Y-55974D01*
X48364Y-55925D01*
X48235Y-55924D01*
X48116Y-55974D01*
X48024Y-56065D01*
X47975Y-56185D01*
X47974Y-56314D01*
X48024Y-56433D01*
X48100Y-56509D01*
X48100Y-57365D01*
X48024Y-57440D01*
X47975Y-57560D01*
X47974Y-57689D01*
X48024Y-57808D01*
X48115Y-57900D01*
X48235Y-57949D01*
X48364Y-57950D01*
X48483Y-57900D01*
X48575Y-57809D01*
X48624Y-57689D01*
X48625Y-57560D01*
X48625Y-61470D01*
X47800Y-61470D01*
X47800Y-59730D01*
X47746Y-59602D01*
X47648Y-59503D01*
X47519Y-59450D01*
X47380Y-59449D01*
X47265Y-59497D01*
X47265Y-52727D01*
X47265Y-52097D01*
X47265Y-51995D01*
X47265Y-51365D01*
X47240Y-51303D01*
X47192Y-51256D01*
X47131Y-51230D01*
X47064Y-51230D01*
X46501Y-51230D01*
X46459Y-51272D01*
X46459Y-52037D01*
X47223Y-52037D01*
X47265Y-51995D01*
X47265Y-52097D01*
X47223Y-52055D01*
X46459Y-52055D01*
X46459Y-52820D01*
X46501Y-52862D01*
X47064Y-52862D01*
X47131Y-52862D01*
X47192Y-52836D01*
X47240Y-52789D01*
X47265Y-52727D01*
X47265Y-59497D01*
X47252Y-59503D01*
X47153Y-59601D01*
X47100Y-59730D01*
X47099Y-59869D01*
X47153Y-59998D01*
X47251Y-60096D01*
X47380Y-60149D01*
X47519Y-60150D01*
X47648Y-60096D01*
X47746Y-59998D01*
X47799Y-59869D01*
X47800Y-59730D01*
X47800Y-61470D01*
X46100Y-61470D01*
X46100Y-59730D01*
X46046Y-59602D01*
X45948Y-59503D01*
X45819Y-59450D01*
X45680Y-59449D01*
X45552Y-59503D01*
X45453Y-59601D01*
X45400Y-59730D01*
X45399Y-59869D01*
X45453Y-59998D01*
X45551Y-60096D01*
X45680Y-60149D01*
X45819Y-60150D01*
X45948Y-60096D01*
X46046Y-59998D01*
X46099Y-59869D01*
X46100Y-59730D01*
X46100Y-61470D01*
X43975Y-61470D01*
X43975Y-57815D01*
X43910Y-57659D01*
X43791Y-57539D01*
X43634Y-57475D01*
X43465Y-57474D01*
X43309Y-57539D01*
X43200Y-57648D01*
X43200Y-57532D01*
X43407Y-57325D01*
X43854Y-57325D01*
X43909Y-57302D01*
X43952Y-57259D01*
X43975Y-57204D01*
X43975Y-57145D01*
X43975Y-56595D01*
X43952Y-56540D01*
X43909Y-56497D01*
X43854Y-56475D01*
X43795Y-56475D01*
X43245Y-56475D01*
X43190Y-56497D01*
X43147Y-56540D01*
X43125Y-56595D01*
X43125Y-56654D01*
X43125Y-57042D01*
X42858Y-57308D01*
X42815Y-57373D01*
X42800Y-57450D01*
X42800Y-58517D01*
X42775Y-58542D01*
X42775Y-57815D01*
X42775Y-57815D01*
X42775Y-57204D01*
X42775Y-57145D01*
X42775Y-56595D01*
X42752Y-56540D01*
X42709Y-56497D01*
X42654Y-56475D01*
X42595Y-56475D01*
X42045Y-56475D01*
X41990Y-56497D01*
X41947Y-56540D01*
X41925Y-56595D01*
X41925Y-56654D01*
X41925Y-57042D01*
X41767Y-57200D01*
X41575Y-57200D01*
X41575Y-57145D01*
X41575Y-56595D01*
X41552Y-56540D01*
X41509Y-56497D01*
X41454Y-56475D01*
X41395Y-56475D01*
X40845Y-56475D01*
X40790Y-56497D01*
X40747Y-56540D01*
X40725Y-56595D01*
X40725Y-56654D01*
X40725Y-57200D01*
X40375Y-57200D01*
X40375Y-57145D01*
X40375Y-56595D01*
X40352Y-56540D01*
X40309Y-56497D01*
X40254Y-56475D01*
X40195Y-56475D01*
X39645Y-56475D01*
X39590Y-56497D01*
X39547Y-56540D01*
X39525Y-56595D01*
X39525Y-56654D01*
X39525Y-57200D01*
X38400Y-57200D01*
X38336Y-57212D01*
X38323Y-57215D01*
X38258Y-57258D01*
X37450Y-58067D01*
X37450Y-57710D01*
X37450Y-56710D01*
X37450Y-55710D01*
X37450Y-54710D01*
X37450Y-53710D01*
X37450Y-52710D01*
X37450Y-51710D01*
X37450Y-50710D01*
X37450Y-49710D01*
X37450Y-48710D01*
X37450Y-47710D01*
X37450Y-46710D01*
X37450Y-45710D01*
X37450Y-44710D01*
X37450Y-43710D01*
X37381Y-43545D01*
X37255Y-43418D01*
X37089Y-43350D01*
X36910Y-43349D01*
X36745Y-43418D01*
X36618Y-43544D01*
X36550Y-43710D01*
X36549Y-43889D01*
X36618Y-44054D01*
X36744Y-44181D01*
X36910Y-44249D01*
X37089Y-44250D01*
X37254Y-44181D01*
X37381Y-44055D01*
X37449Y-43889D01*
X37450Y-43710D01*
X37450Y-44710D01*
X37381Y-44545D01*
X37255Y-44418D01*
X37089Y-44350D01*
X36910Y-44349D01*
X36745Y-44418D01*
X36618Y-44544D01*
X36550Y-44710D01*
X36549Y-44889D01*
X36618Y-45054D01*
X36744Y-45181D01*
X36910Y-45249D01*
X37089Y-45250D01*
X37254Y-45181D01*
X37381Y-45055D01*
X37449Y-44889D01*
X37450Y-44710D01*
X37450Y-45710D01*
X37381Y-45545D01*
X37255Y-45418D01*
X37089Y-45350D01*
X36910Y-45349D01*
X36745Y-45418D01*
X36618Y-45544D01*
X36550Y-45710D01*
X36549Y-45889D01*
X36618Y-46054D01*
X36744Y-46181D01*
X36910Y-46249D01*
X37089Y-46250D01*
X37254Y-46181D01*
X37381Y-46055D01*
X37449Y-45889D01*
X37450Y-45710D01*
X37450Y-46710D01*
X37381Y-46545D01*
X37255Y-46418D01*
X37089Y-46350D01*
X36910Y-46349D01*
X36745Y-46418D01*
X36618Y-46544D01*
X36550Y-46710D01*
X36549Y-46889D01*
X36618Y-47054D01*
X36744Y-47181D01*
X36910Y-47249D01*
X37089Y-47250D01*
X37254Y-47181D01*
X37381Y-47055D01*
X37449Y-46889D01*
X37450Y-46710D01*
X37450Y-47710D01*
X37381Y-47545D01*
X37255Y-47418D01*
X37089Y-47350D01*
X36910Y-47349D01*
X36745Y-47418D01*
X36618Y-47544D01*
X36550Y-47710D01*
X36549Y-47889D01*
X36618Y-48054D01*
X36744Y-48181D01*
X36910Y-48249D01*
X37089Y-48250D01*
X37254Y-48181D01*
X37381Y-48055D01*
X37449Y-47889D01*
X37450Y-47710D01*
X37450Y-48710D01*
X37381Y-48545D01*
X37255Y-48418D01*
X37089Y-48350D01*
X36910Y-48349D01*
X36745Y-48418D01*
X36618Y-48544D01*
X36550Y-48710D01*
X36549Y-48889D01*
X36618Y-49054D01*
X36744Y-49181D01*
X36910Y-49249D01*
X37089Y-49250D01*
X37254Y-49181D01*
X37381Y-49055D01*
X37449Y-48889D01*
X37450Y-48710D01*
X37450Y-49710D01*
X37381Y-49545D01*
X37255Y-49418D01*
X37089Y-49350D01*
X36910Y-49349D01*
X36745Y-49418D01*
X36618Y-49544D01*
X36550Y-49710D01*
X36549Y-49889D01*
X36618Y-50054D01*
X36744Y-50181D01*
X36910Y-50249D01*
X37089Y-50250D01*
X37254Y-50181D01*
X37381Y-50055D01*
X37449Y-49889D01*
X37450Y-49710D01*
X37450Y-50710D01*
X37381Y-50545D01*
X37255Y-50418D01*
X37089Y-50350D01*
X36910Y-50349D01*
X36745Y-50418D01*
X36618Y-50544D01*
X36550Y-50710D01*
X36549Y-50889D01*
X36618Y-51054D01*
X36744Y-51181D01*
X36910Y-51249D01*
X37089Y-51250D01*
X37254Y-51181D01*
X37381Y-51055D01*
X37449Y-50889D01*
X37450Y-50710D01*
X37450Y-51710D01*
X37381Y-51545D01*
X37255Y-51418D01*
X37089Y-51350D01*
X36910Y-51349D01*
X36745Y-51418D01*
X36618Y-51544D01*
X36550Y-51710D01*
X36549Y-51889D01*
X36618Y-52054D01*
X36744Y-52181D01*
X36910Y-52249D01*
X37089Y-52250D01*
X37254Y-52181D01*
X37381Y-52055D01*
X37449Y-51889D01*
X37450Y-51710D01*
X37450Y-52710D01*
X37381Y-52545D01*
X37255Y-52418D01*
X37089Y-52350D01*
X36910Y-52349D01*
X36745Y-52418D01*
X36618Y-52544D01*
X36550Y-52710D01*
X36549Y-52889D01*
X36618Y-53054D01*
X36744Y-53181D01*
X36910Y-53249D01*
X37089Y-53250D01*
X37254Y-53181D01*
X37381Y-53055D01*
X37449Y-52889D01*
X37450Y-52710D01*
X37450Y-53710D01*
X37381Y-53545D01*
X37255Y-53418D01*
X37089Y-53350D01*
X36910Y-53349D01*
X36745Y-53418D01*
X36618Y-53544D01*
X36550Y-53710D01*
X36549Y-53889D01*
X36618Y-54054D01*
X36744Y-54181D01*
X36910Y-54249D01*
X37089Y-54250D01*
X37254Y-54181D01*
X37381Y-54055D01*
X37449Y-53889D01*
X37450Y-53710D01*
X37450Y-54710D01*
X37381Y-54545D01*
X37255Y-54418D01*
X37089Y-54350D01*
X36910Y-54349D01*
X36745Y-54418D01*
X36618Y-54544D01*
X36550Y-54710D01*
X36549Y-54889D01*
X36618Y-55054D01*
X36744Y-55181D01*
X36910Y-55249D01*
X37089Y-55250D01*
X37254Y-55181D01*
X37381Y-55055D01*
X37449Y-54889D01*
X37450Y-54710D01*
X37450Y-55710D01*
X37381Y-55545D01*
X37255Y-55418D01*
X37089Y-55350D01*
X36910Y-55349D01*
X36745Y-55418D01*
X36618Y-55544D01*
X36550Y-55710D01*
X36549Y-55889D01*
X36618Y-56054D01*
X36744Y-56181D01*
X36910Y-56249D01*
X37089Y-56250D01*
X37254Y-56181D01*
X37381Y-56055D01*
X37449Y-55889D01*
X37450Y-55710D01*
X37450Y-56710D01*
X37381Y-56545D01*
X37255Y-56418D01*
X37089Y-56350D01*
X36910Y-56349D01*
X36745Y-56418D01*
X36618Y-56544D01*
X36550Y-56710D01*
X36549Y-56889D01*
X36618Y-57054D01*
X36744Y-57181D01*
X36910Y-57249D01*
X37089Y-57250D01*
X37254Y-57181D01*
X37381Y-57055D01*
X37449Y-56889D01*
X37450Y-56710D01*
X37450Y-57710D01*
X37381Y-57545D01*
X37255Y-57418D01*
X37089Y-57350D01*
X36910Y-57349D01*
X36745Y-57418D01*
X36618Y-57544D01*
X36550Y-57710D01*
X36549Y-57889D01*
X36618Y-58054D01*
X36744Y-58181D01*
X36910Y-58249D01*
X37089Y-58250D01*
X37254Y-58181D01*
X37381Y-58055D01*
X37449Y-57889D01*
X37450Y-57710D01*
X37450Y-58067D01*
X37144Y-58372D01*
X37089Y-58350D01*
X36910Y-58349D01*
X36745Y-58418D01*
X36618Y-58544D01*
X36550Y-58710D01*
X36549Y-58889D01*
X36618Y-59054D01*
X36744Y-59181D01*
X36910Y-59249D01*
X37089Y-59250D01*
X37254Y-59181D01*
X37381Y-59055D01*
X37449Y-58889D01*
X37450Y-58710D01*
X37427Y-58655D01*
X38482Y-57600D01*
X39648Y-57600D01*
X39589Y-57658D01*
X39525Y-57815D01*
X39524Y-57984D01*
X39589Y-58140D01*
X39708Y-58260D01*
X39865Y-58324D01*
X40034Y-58325D01*
X40190Y-58260D01*
X40310Y-58141D01*
X40374Y-57984D01*
X40375Y-57815D01*
X40310Y-57659D01*
X40251Y-57600D01*
X40848Y-57600D01*
X40789Y-57658D01*
X40725Y-57815D01*
X40724Y-57984D01*
X40789Y-58140D01*
X40908Y-58260D01*
X41065Y-58324D01*
X41234Y-58325D01*
X41390Y-58260D01*
X41510Y-58141D01*
X41574Y-57984D01*
X41575Y-57815D01*
X41510Y-57659D01*
X41451Y-57600D01*
X41850Y-57600D01*
X41926Y-57584D01*
X41991Y-57541D01*
X42207Y-57325D01*
X42654Y-57325D01*
X42709Y-57302D01*
X42752Y-57259D01*
X42775Y-57204D01*
X42775Y-57815D01*
X42710Y-57659D01*
X42591Y-57539D01*
X42434Y-57475D01*
X42265Y-57474D01*
X42109Y-57539D01*
X41989Y-57658D01*
X41925Y-57815D01*
X41924Y-57984D01*
X41989Y-58140D01*
X42108Y-58260D01*
X42265Y-58324D01*
X42434Y-58325D01*
X42590Y-58260D01*
X42710Y-58141D01*
X42774Y-57984D01*
X42775Y-57815D01*
X42775Y-58542D01*
X41217Y-60100D01*
X37336Y-60100D01*
X37381Y-60055D01*
X37449Y-59889D01*
X37450Y-59710D01*
X37381Y-59545D01*
X37255Y-59418D01*
X37089Y-59350D01*
X36910Y-59349D01*
X36745Y-59418D01*
X36618Y-59544D01*
X36550Y-59710D01*
X36549Y-59889D01*
X36618Y-60054D01*
X36663Y-60100D01*
X36632Y-60100D01*
X36469Y-59937D01*
X36469Y-47716D01*
X36450Y-47665D01*
X36450Y-46710D01*
X36450Y-45710D01*
X36450Y-44710D01*
X36450Y-43710D01*
X36450Y-42710D01*
X36450Y-41710D01*
X36381Y-41545D01*
X36255Y-41418D01*
X36089Y-41350D01*
X35910Y-41349D01*
X35745Y-41418D01*
X35618Y-41544D01*
X35550Y-41710D01*
X35549Y-41889D01*
X35618Y-42054D01*
X35744Y-42181D01*
X35910Y-42249D01*
X36089Y-42250D01*
X36254Y-42181D01*
X36381Y-42055D01*
X36449Y-41889D01*
X36450Y-41710D01*
X36450Y-42710D01*
X36381Y-42545D01*
X36255Y-42418D01*
X36089Y-42350D01*
X35910Y-42349D01*
X35745Y-42418D01*
X35618Y-42544D01*
X35550Y-42710D01*
X35549Y-42889D01*
X35618Y-43054D01*
X35744Y-43181D01*
X35910Y-43249D01*
X36089Y-43250D01*
X36254Y-43181D01*
X36381Y-43055D01*
X36449Y-42889D01*
X36450Y-42710D01*
X36450Y-43710D01*
X36381Y-43545D01*
X36255Y-43418D01*
X36089Y-43350D01*
X35910Y-43349D01*
X35745Y-43418D01*
X35618Y-43544D01*
X35550Y-43710D01*
X35549Y-43889D01*
X35618Y-44054D01*
X35744Y-44181D01*
X35910Y-44249D01*
X36089Y-44250D01*
X36254Y-44181D01*
X36381Y-44055D01*
X36449Y-43889D01*
X36450Y-43710D01*
X36450Y-44710D01*
X36381Y-44545D01*
X36255Y-44418D01*
X36089Y-44350D01*
X35910Y-44349D01*
X35745Y-44418D01*
X35618Y-44544D01*
X35550Y-44710D01*
X35549Y-44889D01*
X35618Y-45054D01*
X35744Y-45181D01*
X35910Y-45249D01*
X36089Y-45250D01*
X36254Y-45181D01*
X36381Y-45055D01*
X36449Y-44889D01*
X36450Y-44710D01*
X36450Y-45710D01*
X36381Y-45545D01*
X36255Y-45418D01*
X36089Y-45350D01*
X35910Y-45349D01*
X35745Y-45418D01*
X35618Y-45544D01*
X35550Y-45710D01*
X35549Y-45889D01*
X35618Y-46054D01*
X35744Y-46181D01*
X35910Y-46249D01*
X36089Y-46250D01*
X36254Y-46181D01*
X36381Y-46055D01*
X36449Y-45889D01*
X36450Y-45710D01*
X36450Y-46710D01*
X36381Y-46545D01*
X36255Y-46418D01*
X36089Y-46350D01*
X35910Y-46349D01*
X35745Y-46418D01*
X35618Y-46544D01*
X35550Y-46710D01*
X35549Y-46889D01*
X35618Y-47054D01*
X35744Y-47181D01*
X35910Y-47249D01*
X36089Y-47250D01*
X36254Y-47181D01*
X36381Y-47055D01*
X36449Y-46889D01*
X36450Y-46710D01*
X36450Y-47665D01*
X36402Y-47542D01*
X36391Y-47526D01*
X36314Y-47498D01*
X36301Y-47511D01*
X36301Y-47485D01*
X36273Y-47408D01*
X36102Y-47333D01*
X35916Y-47330D01*
X35742Y-47397D01*
X35726Y-47408D01*
X35698Y-47485D01*
X36000Y-47787D01*
X36301Y-47485D01*
X36301Y-47511D01*
X36012Y-47800D01*
X36314Y-48101D01*
X36391Y-48073D01*
X36466Y-47902D01*
X36469Y-47716D01*
X36469Y-59937D01*
X36441Y-59909D01*
X36449Y-59889D01*
X36450Y-59710D01*
X36450Y-58710D01*
X36450Y-57710D01*
X36450Y-56710D01*
X36450Y-55710D01*
X36450Y-54710D01*
X36450Y-53710D01*
X36450Y-52710D01*
X36450Y-51710D01*
X36450Y-50710D01*
X36450Y-49710D01*
X36450Y-48710D01*
X36381Y-48545D01*
X36301Y-48464D01*
X36301Y-48114D01*
X36000Y-47812D01*
X35987Y-47825D01*
X35987Y-47800D01*
X35685Y-47498D01*
X35608Y-47526D01*
X35533Y-47697D01*
X35530Y-47883D01*
X35597Y-48057D01*
X35608Y-48073D01*
X35685Y-48101D01*
X35987Y-47800D01*
X35987Y-47825D01*
X35698Y-48114D01*
X35726Y-48191D01*
X35897Y-48266D01*
X36083Y-48269D01*
X36257Y-48202D01*
X36273Y-48191D01*
X36301Y-48114D01*
X36301Y-48464D01*
X36255Y-48418D01*
X36089Y-48350D01*
X35910Y-48349D01*
X35745Y-48418D01*
X35618Y-48544D01*
X35550Y-48710D01*
X35549Y-48889D01*
X35618Y-49054D01*
X35744Y-49181D01*
X35910Y-49249D01*
X36089Y-49250D01*
X36254Y-49181D01*
X36381Y-49055D01*
X36449Y-48889D01*
X36450Y-48710D01*
X36450Y-49710D01*
X36381Y-49545D01*
X36255Y-49418D01*
X36089Y-49350D01*
X35910Y-49349D01*
X35745Y-49418D01*
X35618Y-49544D01*
X35550Y-49710D01*
X35549Y-49889D01*
X35618Y-50054D01*
X35744Y-50181D01*
X35910Y-50249D01*
X36089Y-50250D01*
X36254Y-50181D01*
X36381Y-50055D01*
X36449Y-49889D01*
X36450Y-49710D01*
X36450Y-50710D01*
X36381Y-50545D01*
X36255Y-50418D01*
X36089Y-50350D01*
X35910Y-50349D01*
X35745Y-50418D01*
X35618Y-50544D01*
X35550Y-50710D01*
X35549Y-50889D01*
X35618Y-51054D01*
X35744Y-51181D01*
X35910Y-51249D01*
X36089Y-51250D01*
X36254Y-51181D01*
X36381Y-51055D01*
X36449Y-50889D01*
X36450Y-50710D01*
X36450Y-51710D01*
X36381Y-51545D01*
X36255Y-51418D01*
X36089Y-51350D01*
X35910Y-51349D01*
X35745Y-51418D01*
X35618Y-51544D01*
X35550Y-51710D01*
X35549Y-51889D01*
X35618Y-52054D01*
X35744Y-52181D01*
X35910Y-52249D01*
X36089Y-52250D01*
X36254Y-52181D01*
X36381Y-52055D01*
X36449Y-51889D01*
X36450Y-51710D01*
X36450Y-52710D01*
X36381Y-52545D01*
X36255Y-52418D01*
X36089Y-52350D01*
X35910Y-52349D01*
X35745Y-52418D01*
X35618Y-52544D01*
X35550Y-52710D01*
X35549Y-52889D01*
X35618Y-53054D01*
X35744Y-53181D01*
X35910Y-53249D01*
X36089Y-53250D01*
X36254Y-53181D01*
X36381Y-53055D01*
X36449Y-52889D01*
X36450Y-52710D01*
X36450Y-53710D01*
X36381Y-53545D01*
X36255Y-53418D01*
X36089Y-53350D01*
X35910Y-53349D01*
X35745Y-53418D01*
X35618Y-53544D01*
X35550Y-53710D01*
X35549Y-53889D01*
X35618Y-54054D01*
X35744Y-54181D01*
X35910Y-54249D01*
X36089Y-54250D01*
X36254Y-54181D01*
X36381Y-54055D01*
X36449Y-53889D01*
X36450Y-53710D01*
X36450Y-54710D01*
X36381Y-54545D01*
X36255Y-54418D01*
X36089Y-54350D01*
X35910Y-54349D01*
X35745Y-54418D01*
X35618Y-54544D01*
X35550Y-54710D01*
X35549Y-54889D01*
X35618Y-55054D01*
X35744Y-55181D01*
X35910Y-55249D01*
X36089Y-55250D01*
X36254Y-55181D01*
X36381Y-55055D01*
X36449Y-54889D01*
X36450Y-54710D01*
X36450Y-55710D01*
X36381Y-55545D01*
X36255Y-55418D01*
X36089Y-55350D01*
X35910Y-55349D01*
X35745Y-55418D01*
X35618Y-55544D01*
X35550Y-55710D01*
X35549Y-55889D01*
X35618Y-56054D01*
X35744Y-56181D01*
X35910Y-56249D01*
X36089Y-56250D01*
X36254Y-56181D01*
X36381Y-56055D01*
X36449Y-55889D01*
X36450Y-55710D01*
X36450Y-56710D01*
X36381Y-56545D01*
X36255Y-56418D01*
X36089Y-56350D01*
X35910Y-56349D01*
X35745Y-56418D01*
X35618Y-56544D01*
X35550Y-56710D01*
X35549Y-56889D01*
X35618Y-57054D01*
X35744Y-57181D01*
X35910Y-57249D01*
X36089Y-57250D01*
X36254Y-57181D01*
X36381Y-57055D01*
X36449Y-56889D01*
X36450Y-56710D01*
X36450Y-57710D01*
X36381Y-57545D01*
X36255Y-57418D01*
X36089Y-57350D01*
X35910Y-57349D01*
X35745Y-57418D01*
X35618Y-57544D01*
X35550Y-57710D01*
X35549Y-57889D01*
X35618Y-58054D01*
X35744Y-58181D01*
X35910Y-58249D01*
X36089Y-58250D01*
X36254Y-58181D01*
X36381Y-58055D01*
X36449Y-57889D01*
X36450Y-57710D01*
X36450Y-58710D01*
X36381Y-58545D01*
X36255Y-58418D01*
X36089Y-58350D01*
X35910Y-58349D01*
X35745Y-58418D01*
X35618Y-58544D01*
X35550Y-58710D01*
X35549Y-58889D01*
X35618Y-59054D01*
X35744Y-59181D01*
X35910Y-59249D01*
X36089Y-59250D01*
X36254Y-59181D01*
X36381Y-59055D01*
X36449Y-58889D01*
X36450Y-58710D01*
X36450Y-59710D01*
X36381Y-59545D01*
X36255Y-59418D01*
X36089Y-59350D01*
X35910Y-59349D01*
X35745Y-59418D01*
X35618Y-59544D01*
X35550Y-59710D01*
X35549Y-59889D01*
X35618Y-60054D01*
X35744Y-60181D01*
X35910Y-60249D01*
X36089Y-60250D01*
X36179Y-60212D01*
X36408Y-60441D01*
X36473Y-60484D01*
X36473Y-60484D01*
X36486Y-60487D01*
X36550Y-60500D01*
X36682Y-60500D01*
X36608Y-60526D01*
X36533Y-60697D01*
X36530Y-60883D01*
X36597Y-61057D01*
X36608Y-61073D01*
X36685Y-61101D01*
X36987Y-60800D01*
X36981Y-60794D01*
X36994Y-60781D01*
X37000Y-60787D01*
X37005Y-60781D01*
X37018Y-60794D01*
X37012Y-60800D01*
X37314Y-61101D01*
X37391Y-61073D01*
X37466Y-60902D01*
X37469Y-60716D01*
X37402Y-60542D01*
X37391Y-60526D01*
X37317Y-60500D01*
X41300Y-60500D01*
X41376Y-60484D01*
X41441Y-60441D01*
X43141Y-58741D01*
X43184Y-58676D01*
X43184Y-58676D01*
X43200Y-58600D01*
X43200Y-58150D01*
X43308Y-58260D01*
X43465Y-58324D01*
X43634Y-58325D01*
X43790Y-58260D01*
X43910Y-58141D01*
X43974Y-57984D01*
X43975Y-57815D01*
X43975Y-61470D01*
X37301Y-61470D01*
X37301Y-61114D01*
X37000Y-60812D01*
X36698Y-61114D01*
X36726Y-61191D01*
X36897Y-61266D01*
X37083Y-61269D01*
X37257Y-61202D01*
X37273Y-61191D01*
X37301Y-61114D01*
X37301Y-61470D01*
X36469Y-61470D01*
X36469Y-60716D01*
X36402Y-60542D01*
X36391Y-60526D01*
X36314Y-60498D01*
X36301Y-60511D01*
X36301Y-60485D01*
X36273Y-60408D01*
X36102Y-60333D01*
X35916Y-60330D01*
X35742Y-60397D01*
X35726Y-60408D01*
X35698Y-60485D01*
X36000Y-60787D01*
X36301Y-60485D01*
X36301Y-60511D01*
X36012Y-60800D01*
X36314Y-61101D01*
X36391Y-61073D01*
X36466Y-60902D01*
X36469Y-60716D01*
X36469Y-61470D01*
X36301Y-61470D01*
X36301Y-61114D01*
X36000Y-60812D01*
X35987Y-60825D01*
X35987Y-60800D01*
X35685Y-60498D01*
X35608Y-60526D01*
X35533Y-60697D01*
X35530Y-60883D01*
X35597Y-61057D01*
X35608Y-61073D01*
X35685Y-61101D01*
X35987Y-60800D01*
X35987Y-60825D01*
X35698Y-61114D01*
X35726Y-61191D01*
X35897Y-61266D01*
X36083Y-61269D01*
X36257Y-61202D01*
X36273Y-61191D01*
X36301Y-61114D01*
X36301Y-61470D01*
X34516Y-61470D01*
X34516Y-33029D01*
X58483Y-33029D01*
X58483Y-61470D01*
X58483Y-61470D01*
G37*
G54D20*
X58483Y-61470D02*
X57814Y-61470D01*
X57814Y-56185D01*
X57814Y-49800D01*
X57802Y-49736D01*
X57799Y-49723D01*
X57799Y-49723D01*
X57756Y-49659D01*
X57469Y-49372D01*
X57469Y-36716D01*
X57402Y-36542D01*
X57391Y-36526D01*
X57314Y-36498D01*
X57301Y-36511D01*
X57301Y-36485D01*
X57273Y-36408D01*
X57102Y-36333D01*
X56916Y-36330D01*
X56742Y-36397D01*
X56726Y-36408D01*
X56698Y-36485D01*
X57000Y-36787D01*
X57301Y-36485D01*
X57301Y-36511D01*
X57012Y-36800D01*
X57314Y-37101D01*
X57391Y-37073D01*
X57466Y-36902D01*
X57469Y-36716D01*
X57469Y-49372D01*
X57266Y-49169D01*
X57381Y-49055D01*
X57449Y-48889D01*
X57450Y-48710D01*
X57450Y-47710D01*
X57450Y-46710D01*
X57450Y-45710D01*
X57450Y-44710D01*
X57450Y-43710D01*
X57381Y-43545D01*
X57255Y-43418D01*
X57089Y-43350D01*
X56910Y-43349D01*
X56745Y-43418D01*
X56618Y-43544D01*
X56550Y-43710D01*
X56549Y-43889D01*
X56618Y-44054D01*
X56744Y-44181D01*
X56910Y-44249D01*
X57089Y-44250D01*
X57254Y-44181D01*
X57381Y-44055D01*
X57449Y-43889D01*
X57450Y-43710D01*
X57450Y-44710D01*
X57381Y-44545D01*
X57255Y-44418D01*
X57089Y-44350D01*
X56910Y-44349D01*
X56745Y-44418D01*
X56618Y-44544D01*
X56550Y-44710D01*
X56549Y-44889D01*
X56618Y-45054D01*
X56744Y-45181D01*
X56910Y-45249D01*
X57089Y-45250D01*
X57254Y-45181D01*
X57381Y-45055D01*
X57449Y-44889D01*
X57450Y-44710D01*
X57450Y-45710D01*
X57381Y-45545D01*
X57255Y-45418D01*
X57089Y-45350D01*
X56910Y-45349D01*
X56745Y-45418D01*
X56618Y-45544D01*
X56550Y-45710D01*
X56549Y-45889D01*
X56618Y-46054D01*
X56744Y-46181D01*
X56910Y-46249D01*
X57089Y-46250D01*
X57254Y-46181D01*
X57381Y-46055D01*
X57449Y-45889D01*
X57450Y-45710D01*
X57450Y-46710D01*
X57381Y-46545D01*
X57255Y-46418D01*
X57089Y-46350D01*
X56910Y-46349D01*
X56745Y-46418D01*
X56618Y-46544D01*
X56550Y-46710D01*
X56549Y-46889D01*
X56618Y-47054D01*
X56744Y-47181D01*
X56910Y-47249D01*
X57089Y-47250D01*
X57254Y-47181D01*
X57381Y-47055D01*
X57449Y-46889D01*
X57450Y-46710D01*
X57450Y-47710D01*
X57381Y-47545D01*
X57255Y-47418D01*
X57089Y-47350D01*
X56910Y-47349D01*
X56745Y-47418D01*
X56618Y-47544D01*
X56550Y-47710D01*
X56549Y-47889D01*
X56618Y-48054D01*
X56744Y-48181D01*
X56910Y-48249D01*
X57089Y-48250D01*
X57254Y-48181D01*
X57381Y-48055D01*
X57449Y-47889D01*
X57450Y-47710D01*
X57450Y-48710D01*
X57381Y-48545D01*
X57255Y-48418D01*
X57089Y-48350D01*
X56910Y-48349D01*
X56745Y-48418D01*
X56638Y-48524D01*
X56342Y-48228D01*
X56277Y-48185D01*
X56255Y-48180D01*
X56381Y-48055D01*
X56449Y-47889D01*
X56450Y-47710D01*
X56450Y-46710D01*
X56450Y-45710D01*
X56450Y-44710D01*
X56450Y-43710D01*
X56381Y-43545D01*
X56255Y-43418D01*
X56089Y-43350D01*
X55910Y-43349D01*
X55745Y-43418D01*
X55618Y-43544D01*
X55550Y-43710D01*
X55549Y-43889D01*
X55618Y-44054D01*
X55744Y-44181D01*
X55910Y-44249D01*
X56089Y-44250D01*
X56254Y-44181D01*
X56381Y-44055D01*
X56449Y-43889D01*
X56450Y-43710D01*
X56450Y-44710D01*
X56381Y-44545D01*
X56255Y-44418D01*
X56089Y-44350D01*
X55910Y-44349D01*
X55745Y-44418D01*
X55618Y-44544D01*
X55550Y-44710D01*
X55549Y-44889D01*
X55618Y-45054D01*
X55744Y-45181D01*
X55910Y-45249D01*
X56089Y-45250D01*
X56254Y-45181D01*
X56381Y-45055D01*
X56449Y-44889D01*
X56450Y-44710D01*
X56450Y-45710D01*
X56381Y-45545D01*
X56255Y-45418D01*
X56089Y-45350D01*
X55910Y-45349D01*
X55745Y-45418D01*
X55618Y-45544D01*
X55550Y-45710D01*
X55549Y-45889D01*
X55618Y-46054D01*
X55744Y-46181D01*
X55910Y-46249D01*
X56089Y-46250D01*
X56254Y-46181D01*
X56381Y-46055D01*
X56449Y-45889D01*
X56450Y-45710D01*
X56450Y-46710D01*
X56381Y-46545D01*
X56255Y-46418D01*
X56089Y-46350D01*
X55910Y-46349D01*
X55855Y-46372D01*
X55350Y-45867D01*
X55350Y-44475D01*
X55334Y-44398D01*
X55291Y-44333D01*
X54899Y-43942D01*
X54900Y-43835D01*
X54850Y-43716D01*
X54759Y-43624D01*
X54639Y-43575D01*
X54510Y-43574D01*
X54391Y-43624D01*
X54299Y-43715D01*
X54250Y-43835D01*
X54249Y-43964D01*
X54299Y-44083D01*
X54390Y-44175D01*
X54510Y-44224D01*
X54617Y-44225D01*
X54950Y-44557D01*
X54950Y-45950D01*
X54965Y-46026D01*
X55008Y-46091D01*
X55572Y-46655D01*
X55550Y-46710D01*
X55549Y-46889D01*
X55618Y-47054D01*
X55744Y-47181D01*
X55910Y-47249D01*
X56089Y-47250D01*
X56254Y-47181D01*
X56381Y-47055D01*
X56449Y-46889D01*
X56450Y-46710D01*
X56450Y-47710D01*
X56381Y-47545D01*
X56255Y-47418D01*
X56089Y-47350D01*
X55910Y-47349D01*
X55745Y-47418D01*
X55618Y-47544D01*
X55550Y-47710D01*
X55549Y-47889D01*
X55618Y-48054D01*
X55733Y-48169D01*
X55581Y-48169D01*
X51409Y-43997D01*
X51344Y-43954D01*
X51268Y-43939D01*
X48764Y-43939D01*
X48582Y-43756D01*
X48645Y-43769D01*
X48774Y-43769D01*
X48850Y-43844D01*
X48969Y-43894D01*
X49098Y-43894D01*
X49218Y-43844D01*
X49309Y-43753D01*
X49359Y-43634D01*
X49359Y-43504D01*
X49310Y-43385D01*
X49218Y-43293D01*
X49099Y-43244D01*
X49044Y-43244D01*
X49044Y-43147D01*
X48994Y-43027D01*
X48903Y-42936D01*
X48784Y-42886D01*
X48676Y-42886D01*
X48446Y-42656D01*
X48510Y-42629D01*
X48586Y-42554D01*
X55614Y-42554D01*
X55550Y-42710D01*
X55549Y-42889D01*
X55618Y-43054D01*
X55744Y-43181D01*
X55910Y-43249D01*
X56089Y-43250D01*
X56254Y-43181D01*
X56381Y-43055D01*
X56449Y-42889D01*
X56450Y-42710D01*
X56385Y-42554D01*
X56471Y-42554D01*
X56572Y-42655D01*
X56550Y-42710D01*
X56549Y-42889D01*
X56618Y-43054D01*
X56744Y-43181D01*
X56910Y-43249D01*
X57089Y-43250D01*
X57254Y-43181D01*
X57381Y-43055D01*
X57449Y-42889D01*
X57450Y-42710D01*
X57450Y-41710D01*
X57450Y-40710D01*
X57450Y-39710D01*
X57450Y-38710D01*
X57450Y-37710D01*
X57381Y-37545D01*
X57301Y-37464D01*
X57301Y-37114D01*
X57000Y-36812D01*
X56987Y-36825D01*
X56987Y-36800D01*
X56685Y-36498D01*
X56608Y-36526D01*
X56533Y-36697D01*
X56530Y-36883D01*
X56597Y-37057D01*
X56608Y-37073D01*
X56685Y-37101D01*
X56987Y-36800D01*
X56987Y-36825D01*
X56698Y-37114D01*
X56726Y-37191D01*
X56897Y-37266D01*
X57083Y-37269D01*
X57257Y-37202D01*
X57273Y-37191D01*
X57301Y-37114D01*
X57301Y-37464D01*
X57255Y-37418D01*
X57089Y-37350D01*
X56910Y-37349D01*
X56745Y-37418D01*
X56618Y-37544D01*
X56595Y-37600D01*
X56468Y-37600D01*
X56468Y-37133D01*
X56468Y-36851D01*
X56468Y-36748D01*
X56468Y-36466D01*
X56442Y-36404D01*
X56395Y-36357D01*
X56333Y-36331D01*
X56266Y-36331D01*
X56051Y-36331D01*
X56009Y-36373D01*
X56009Y-36790D01*
X56426Y-36790D01*
X56468Y-36748D01*
X56468Y-36851D01*
X56426Y-36809D01*
X56009Y-36809D01*
X56009Y-37226D01*
X56051Y-37268D01*
X56266Y-37268D01*
X56333Y-37268D01*
X56395Y-37242D01*
X56442Y-37195D01*
X56468Y-37133D01*
X56468Y-37600D01*
X56404Y-37600D01*
X56381Y-37545D01*
X56255Y-37418D01*
X56089Y-37350D01*
X55990Y-37349D01*
X55990Y-37226D01*
X55990Y-36809D01*
X55990Y-36790D01*
X55990Y-36373D01*
X55948Y-36331D01*
X55733Y-36331D01*
X55666Y-36331D01*
X55604Y-36357D01*
X55557Y-36404D01*
X55531Y-36466D01*
X55531Y-36748D01*
X55573Y-36790D01*
X55990Y-36790D01*
X55990Y-36809D01*
X55573Y-36809D01*
X55531Y-36851D01*
X55531Y-37133D01*
X55557Y-37195D01*
X55604Y-37242D01*
X55666Y-37268D01*
X55733Y-37268D01*
X55948Y-37268D01*
X55990Y-37226D01*
X55990Y-37349D01*
X55910Y-37349D01*
X55745Y-37418D01*
X55618Y-37544D01*
X55550Y-37710D01*
X55549Y-37889D01*
X55618Y-38054D01*
X55744Y-38181D01*
X55910Y-38249D01*
X56089Y-38250D01*
X56254Y-38181D01*
X56381Y-38055D01*
X56404Y-38000D01*
X56595Y-38000D01*
X56618Y-38054D01*
X56744Y-38181D01*
X56910Y-38249D01*
X57089Y-38250D01*
X57254Y-38181D01*
X57381Y-38055D01*
X57449Y-37889D01*
X57450Y-37710D01*
X57450Y-38710D01*
X57381Y-38545D01*
X57255Y-38418D01*
X57089Y-38350D01*
X56910Y-38349D01*
X56745Y-38418D01*
X56618Y-38544D01*
X56595Y-38600D01*
X56404Y-38600D01*
X56381Y-38545D01*
X56255Y-38418D01*
X56089Y-38350D01*
X55910Y-38349D01*
X55745Y-38418D01*
X55618Y-38544D01*
X55550Y-38710D01*
X55549Y-38889D01*
X55618Y-39054D01*
X55744Y-39181D01*
X55910Y-39249D01*
X56089Y-39250D01*
X56254Y-39181D01*
X56381Y-39055D01*
X56404Y-39000D01*
X56595Y-39000D01*
X56618Y-39054D01*
X56744Y-39181D01*
X56910Y-39249D01*
X57089Y-39250D01*
X57254Y-39181D01*
X57381Y-39055D01*
X57449Y-38889D01*
X57450Y-38710D01*
X57450Y-39710D01*
X57381Y-39545D01*
X57255Y-39418D01*
X57089Y-39350D01*
X56910Y-39349D01*
X56745Y-39418D01*
X56618Y-39544D01*
X56550Y-39710D01*
X56549Y-39889D01*
X56618Y-40054D01*
X56744Y-40181D01*
X56910Y-40249D01*
X57089Y-40250D01*
X57254Y-40181D01*
X57381Y-40055D01*
X57449Y-39889D01*
X57450Y-39710D01*
X57450Y-40710D01*
X57381Y-40545D01*
X57255Y-40418D01*
X57089Y-40350D01*
X56910Y-40349D01*
X56745Y-40418D01*
X56618Y-40544D01*
X56550Y-40710D01*
X56549Y-40889D01*
X56618Y-41054D01*
X56744Y-41181D01*
X56910Y-41249D01*
X57089Y-41250D01*
X57254Y-41181D01*
X57381Y-41055D01*
X57449Y-40889D01*
X57450Y-40710D01*
X57450Y-41710D01*
X57381Y-41545D01*
X57255Y-41418D01*
X57089Y-41350D01*
X56910Y-41349D01*
X56745Y-41418D01*
X56618Y-41544D01*
X56550Y-41710D01*
X56549Y-41889D01*
X56618Y-42054D01*
X56744Y-42181D01*
X56910Y-42249D01*
X57089Y-42250D01*
X57254Y-42181D01*
X57381Y-42055D01*
X57449Y-41889D01*
X57450Y-41710D01*
X57450Y-42710D01*
X57381Y-42545D01*
X57255Y-42418D01*
X57089Y-42350D01*
X56910Y-42349D01*
X56855Y-42372D01*
X56695Y-42212D01*
X56630Y-42169D01*
X56554Y-42154D01*
X56282Y-42154D01*
X56381Y-42055D01*
X56449Y-41889D01*
X56450Y-41710D01*
X56450Y-40710D01*
X56450Y-39710D01*
X56381Y-39545D01*
X56255Y-39418D01*
X56089Y-39350D01*
X55910Y-39349D01*
X55745Y-39418D01*
X55618Y-39544D01*
X55550Y-39710D01*
X55549Y-39889D01*
X55618Y-40054D01*
X55744Y-40181D01*
X55910Y-40249D01*
X56089Y-40250D01*
X56254Y-40181D01*
X56381Y-40055D01*
X56449Y-39889D01*
X56450Y-39710D01*
X56450Y-40710D01*
X56381Y-40545D01*
X56255Y-40418D01*
X56089Y-40350D01*
X55910Y-40349D01*
X55745Y-40418D01*
X55618Y-40544D01*
X55550Y-40710D01*
X55549Y-40889D01*
X55618Y-41054D01*
X55744Y-41181D01*
X55910Y-41249D01*
X56089Y-41250D01*
X56254Y-41181D01*
X56381Y-41055D01*
X56449Y-40889D01*
X56450Y-40710D01*
X56450Y-41710D01*
X56381Y-41545D01*
X56255Y-41418D01*
X56089Y-41350D01*
X55910Y-41349D01*
X55745Y-41418D01*
X55618Y-41544D01*
X55550Y-41710D01*
X55549Y-41889D01*
X55564Y-41925D01*
X52925Y-41925D01*
X52925Y-39904D01*
X52925Y-39845D01*
X52925Y-39295D01*
X52902Y-39240D01*
X52859Y-39197D01*
X52804Y-39175D01*
X52745Y-39175D01*
X52195Y-39175D01*
X52140Y-39197D01*
X52097Y-39240D01*
X52075Y-39295D01*
X52075Y-39354D01*
X52075Y-39904D01*
X52097Y-39959D01*
X52140Y-40002D01*
X52195Y-40025D01*
X52254Y-40025D01*
X52300Y-40025D01*
X52300Y-40492D01*
X51925Y-40867D01*
X51925Y-39515D01*
X51860Y-39359D01*
X51741Y-39239D01*
X51584Y-39175D01*
X51415Y-39174D01*
X51259Y-39239D01*
X51139Y-39358D01*
X51075Y-39515D01*
X51074Y-39684D01*
X51139Y-39840D01*
X51258Y-39960D01*
X51415Y-40024D01*
X51584Y-40025D01*
X51740Y-39960D01*
X51860Y-39841D01*
X51924Y-39684D01*
X51925Y-39515D01*
X51925Y-40867D01*
X51742Y-41050D01*
X50859Y-41050D01*
X50784Y-40974D01*
X50664Y-40925D01*
X50535Y-40924D01*
X50416Y-40974D01*
X50324Y-41065D01*
X50275Y-41185D01*
X50274Y-41314D01*
X50324Y-41433D01*
X50415Y-41525D01*
X50535Y-41574D01*
X50664Y-41575D01*
X50783Y-41525D01*
X50859Y-41450D01*
X51825Y-41450D01*
X51901Y-41434D01*
X51966Y-41391D01*
X52641Y-40716D01*
X52684Y-40651D01*
X52684Y-40651D01*
X52700Y-40575D01*
X52700Y-40025D01*
X52804Y-40025D01*
X52859Y-40002D01*
X52902Y-39959D01*
X52925Y-39904D01*
X52925Y-41925D01*
X48857Y-41925D01*
X48791Y-41858D01*
X48726Y-41815D01*
X48650Y-41800D01*
X48264Y-41800D01*
X48250Y-41766D01*
X48159Y-41674D01*
X48039Y-41625D01*
X47910Y-41624D01*
X47791Y-41674D01*
X47699Y-41765D01*
X47650Y-41885D01*
X47650Y-41947D01*
X47313Y-41947D01*
X46016Y-40651D01*
X47127Y-40651D01*
X47182Y-40628D01*
X47224Y-40586D01*
X47247Y-40531D01*
X47247Y-40471D01*
X47247Y-40049D01*
X47304Y-40038D01*
X47369Y-39994D01*
X47914Y-39450D01*
X50102Y-39450D01*
X50075Y-39515D01*
X50074Y-39684D01*
X50139Y-39840D01*
X50258Y-39960D01*
X50415Y-40024D01*
X50584Y-40025D01*
X50740Y-39960D01*
X50860Y-39841D01*
X50924Y-39684D01*
X50925Y-39515D01*
X50860Y-39359D01*
X50741Y-39239D01*
X50694Y-39220D01*
X50684Y-39173D01*
X50641Y-39108D01*
X50576Y-39065D01*
X50500Y-39050D01*
X47831Y-39050D01*
X47767Y-39062D01*
X47754Y-39065D01*
X47689Y-39108D01*
X47247Y-39550D01*
X47247Y-39176D01*
X47224Y-39120D01*
X47182Y-39078D01*
X47127Y-39055D01*
X47067Y-39055D01*
X46950Y-39055D01*
X46950Y-34529D01*
X46950Y-34470D01*
X46950Y-33870D01*
X46927Y-33815D01*
X46884Y-33772D01*
X46829Y-33750D01*
X46770Y-33750D01*
X46170Y-33750D01*
X46115Y-33772D01*
X46072Y-33815D01*
X46050Y-33870D01*
X46050Y-33929D01*
X46050Y-34529D01*
X46072Y-34584D01*
X46115Y-34627D01*
X46170Y-34650D01*
X46229Y-34650D01*
X46829Y-34650D01*
X46884Y-34627D01*
X46927Y-34584D01*
X46950Y-34529D01*
X46950Y-39055D01*
X46880Y-39055D01*
X46880Y-37464D01*
X46814Y-37306D01*
X46693Y-37185D01*
X46535Y-37120D01*
X46364Y-37119D01*
X46206Y-37185D01*
X46085Y-37306D01*
X46020Y-37464D01*
X46019Y-37635D01*
X46085Y-37793D01*
X46206Y-37914D01*
X46364Y-37979D01*
X46535Y-37980D01*
X46693Y-37914D01*
X46814Y-37793D01*
X46879Y-37635D01*
X46880Y-37464D01*
X46880Y-39055D01*
X45969Y-39055D01*
X45969Y-34116D01*
X45902Y-33942D01*
X45891Y-33926D01*
X45814Y-33898D01*
X45801Y-33911D01*
X45801Y-33885D01*
X45773Y-33808D01*
X45602Y-33733D01*
X45416Y-33730D01*
X45242Y-33797D01*
X45226Y-33808D01*
X45198Y-33885D01*
X45500Y-34187D01*
X45801Y-33885D01*
X45801Y-33911D01*
X45512Y-34200D01*
X45814Y-34501D01*
X45891Y-34473D01*
X45966Y-34302D01*
X45969Y-34116D01*
X45969Y-39055D01*
X45801Y-39055D01*
X45801Y-34514D01*
X45500Y-34212D01*
X45487Y-34225D01*
X45487Y-34200D01*
X45185Y-33898D01*
X45108Y-33926D01*
X45033Y-34097D01*
X45030Y-34283D01*
X45097Y-34457D01*
X45108Y-34473D01*
X45185Y-34501D01*
X45487Y-34200D01*
X45487Y-34225D01*
X45198Y-34514D01*
X45226Y-34591D01*
X45397Y-34666D01*
X45583Y-34669D01*
X45757Y-34602D01*
X45773Y-34591D01*
X45801Y-34514D01*
X45801Y-39055D01*
X45772Y-39055D01*
X45717Y-39078D01*
X45675Y-39120D01*
X45652Y-39176D01*
X45652Y-39235D01*
X45652Y-40286D01*
X45320Y-39955D01*
X45320Y-37458D01*
X45305Y-37381D01*
X45262Y-37316D01*
X41572Y-33627D01*
X41507Y-33583D01*
X41431Y-33568D01*
X38809Y-33568D01*
X38733Y-33583D01*
X38668Y-33627D01*
X38374Y-33920D01*
X38314Y-33898D01*
X38301Y-33911D01*
X38301Y-33885D01*
X38273Y-33808D01*
X38102Y-33733D01*
X37916Y-33730D01*
X37742Y-33797D01*
X37726Y-33808D01*
X37698Y-33885D01*
X38000Y-34187D01*
X38301Y-33885D01*
X38301Y-33911D01*
X38012Y-34200D01*
X38018Y-34205D01*
X38005Y-34218D01*
X38000Y-34212D01*
X37994Y-34218D01*
X37981Y-34205D01*
X37987Y-34200D01*
X37685Y-33898D01*
X37608Y-33926D01*
X37533Y-34097D01*
X37530Y-34283D01*
X37587Y-34430D01*
X37513Y-34430D01*
X37427Y-34344D01*
X37449Y-34289D01*
X37450Y-34110D01*
X37381Y-33945D01*
X37255Y-33818D01*
X37089Y-33750D01*
X36910Y-33749D01*
X36745Y-33818D01*
X36618Y-33944D01*
X36550Y-34110D01*
X36549Y-34289D01*
X36618Y-34454D01*
X36744Y-34581D01*
X36910Y-34649D01*
X37089Y-34650D01*
X37144Y-34627D01*
X37288Y-34771D01*
X37353Y-34814D01*
X37430Y-34830D01*
X38179Y-34830D01*
X38256Y-34814D01*
X38321Y-34771D01*
X38628Y-34464D01*
X38744Y-34581D01*
X38910Y-34649D01*
X38940Y-34649D01*
X41603Y-37313D01*
X40620Y-37313D01*
X40533Y-37225D01*
X40468Y-37182D01*
X40391Y-37167D01*
X37469Y-37167D01*
X37469Y-36716D01*
X37402Y-36542D01*
X37391Y-36526D01*
X37314Y-36498D01*
X37301Y-36511D01*
X37301Y-36485D01*
X37273Y-36408D01*
X37102Y-36333D01*
X36916Y-36330D01*
X36742Y-36397D01*
X36726Y-36408D01*
X36698Y-36485D01*
X37000Y-36787D01*
X37301Y-36485D01*
X37301Y-36511D01*
X37012Y-36800D01*
X37314Y-37101D01*
X37391Y-37073D01*
X37466Y-36902D01*
X37469Y-36716D01*
X37469Y-37167D01*
X37281Y-37167D01*
X37301Y-37114D01*
X37000Y-36812D01*
X36987Y-36825D01*
X36987Y-36800D01*
X36685Y-36498D01*
X36608Y-36526D01*
X36533Y-36697D01*
X36530Y-36883D01*
X36597Y-37057D01*
X36608Y-37073D01*
X36685Y-37101D01*
X36987Y-36800D01*
X36987Y-36825D01*
X36698Y-37114D01*
X36718Y-37167D01*
X36454Y-37167D01*
X36468Y-37133D01*
X36468Y-36851D01*
X36468Y-36748D01*
X36468Y-36466D01*
X36450Y-36422D01*
X36450Y-34529D01*
X36450Y-34470D01*
X36450Y-33870D01*
X36427Y-33815D01*
X36384Y-33772D01*
X36329Y-33750D01*
X36270Y-33750D01*
X35670Y-33750D01*
X35615Y-33772D01*
X35572Y-33815D01*
X35550Y-33870D01*
X35550Y-33929D01*
X35550Y-34529D01*
X35572Y-34584D01*
X35615Y-34627D01*
X35670Y-34650D01*
X35729Y-34650D01*
X36329Y-34650D01*
X36384Y-34627D01*
X36427Y-34584D01*
X36450Y-34529D01*
X36450Y-36422D01*
X36442Y-36404D01*
X36395Y-36357D01*
X36333Y-36331D01*
X36266Y-36331D01*
X36051Y-36331D01*
X36009Y-36373D01*
X36009Y-36790D01*
X36426Y-36790D01*
X36468Y-36748D01*
X36468Y-36851D01*
X36426Y-36809D01*
X36009Y-36809D01*
X36009Y-36816D01*
X35990Y-36816D01*
X35990Y-36809D01*
X35990Y-36790D01*
X35990Y-36373D01*
X35948Y-36331D01*
X35733Y-36331D01*
X35666Y-36331D01*
X35604Y-36357D01*
X35557Y-36404D01*
X35531Y-36466D01*
X35531Y-36748D01*
X35573Y-36790D01*
X35990Y-36790D01*
X35990Y-36809D01*
X35573Y-36809D01*
X35531Y-36851D01*
X35531Y-37133D01*
X35557Y-37195D01*
X35604Y-37242D01*
X35645Y-37259D01*
X35410Y-37494D01*
X35367Y-37559D01*
X35352Y-37635D01*
X35352Y-39352D01*
X35367Y-39428D01*
X35410Y-39493D01*
X35572Y-39655D01*
X35550Y-39710D01*
X35549Y-39889D01*
X35618Y-40054D01*
X35744Y-40181D01*
X35910Y-40249D01*
X36089Y-40250D01*
X36254Y-40181D01*
X36381Y-40055D01*
X36449Y-39889D01*
X36450Y-39710D01*
X36381Y-39545D01*
X36255Y-39418D01*
X36089Y-39350D01*
X35910Y-39349D01*
X35855Y-39372D01*
X35752Y-39269D01*
X35752Y-39202D01*
X35897Y-39266D01*
X36083Y-39269D01*
X36257Y-39202D01*
X36273Y-39191D01*
X36301Y-39114D01*
X36000Y-38812D01*
X35994Y-38818D01*
X35981Y-38805D01*
X35987Y-38800D01*
X35981Y-38794D01*
X35994Y-38781D01*
X36000Y-38787D01*
X36301Y-38485D01*
X36273Y-38408D01*
X36102Y-38333D01*
X35916Y-38330D01*
X35752Y-38394D01*
X35752Y-38184D01*
X35910Y-38249D01*
X36089Y-38250D01*
X36254Y-38181D01*
X36381Y-38055D01*
X36404Y-38000D01*
X36595Y-38000D01*
X36618Y-38054D01*
X36744Y-38181D01*
X36910Y-38249D01*
X37089Y-38250D01*
X37254Y-38181D01*
X37381Y-38055D01*
X37404Y-38000D01*
X38451Y-38000D01*
X39100Y-38648D01*
X39099Y-38754D01*
X39149Y-38874D01*
X39240Y-38965D01*
X39360Y-39015D01*
X39489Y-39015D01*
X39608Y-38965D01*
X39684Y-38890D01*
X39841Y-38890D01*
X42610Y-41658D01*
X42610Y-41765D01*
X42659Y-41884D01*
X42750Y-41976D01*
X42768Y-41983D01*
X41735Y-41983D01*
X41225Y-41473D01*
X41225Y-41367D01*
X41176Y-41247D01*
X41084Y-41156D01*
X40965Y-41106D01*
X40836Y-41106D01*
X40716Y-41155D01*
X40625Y-41247D01*
X40575Y-41366D01*
X40575Y-41495D01*
X40624Y-41615D01*
X40716Y-41706D01*
X40835Y-41756D01*
X40942Y-41756D01*
X41511Y-42324D01*
X41576Y-42368D01*
X41576Y-42368D01*
X41588Y-42370D01*
X41652Y-42383D01*
X44179Y-42383D01*
X44254Y-42458D01*
X44374Y-42508D01*
X44503Y-42508D01*
X44622Y-42459D01*
X44714Y-42367D01*
X44764Y-42248D01*
X44764Y-42119D01*
X44714Y-41999D01*
X44623Y-41908D01*
X44606Y-41900D01*
X44988Y-41900D01*
X44997Y-41923D01*
X45088Y-42014D01*
X45208Y-42064D01*
X45337Y-42064D01*
X45456Y-42015D01*
X45548Y-41923D01*
X45597Y-41804D01*
X45597Y-41799D01*
X45680Y-41799D01*
X45799Y-41749D01*
X45891Y-41658D01*
X45908Y-41617D01*
X47778Y-43488D01*
X47776Y-43493D01*
X47776Y-43622D01*
X47825Y-43742D01*
X47917Y-43833D01*
X48036Y-43883D01*
X48143Y-43883D01*
X48540Y-44280D01*
X48540Y-44280D01*
X48605Y-44324D01*
X48605Y-44324D01*
X48618Y-44326D01*
X48682Y-44339D01*
X48737Y-44339D01*
X48714Y-44394D01*
X48714Y-44523D01*
X48763Y-44643D01*
X48854Y-44734D01*
X48974Y-44784D01*
X49103Y-44784D01*
X49223Y-44734D01*
X49298Y-44659D01*
X50896Y-44659D01*
X55700Y-49463D01*
X55618Y-49544D01*
X55585Y-49625D01*
X55541Y-49561D01*
X50866Y-44885D01*
X50801Y-44842D01*
X50724Y-44827D01*
X47260Y-44827D01*
X47253Y-44828D01*
X47215Y-44812D01*
X47085Y-44812D01*
X46966Y-44861D01*
X46874Y-44952D01*
X46825Y-45072D01*
X46825Y-45201D01*
X46874Y-45321D01*
X46965Y-45412D01*
X47085Y-45462D01*
X47214Y-45462D01*
X47333Y-45412D01*
X47425Y-45321D01*
X47464Y-45227D01*
X48732Y-45227D01*
X48714Y-45270D01*
X48714Y-45399D01*
X48734Y-45446D01*
X48625Y-45491D01*
X48533Y-45582D01*
X48483Y-45702D01*
X48483Y-45831D01*
X48533Y-45951D01*
X48624Y-46042D01*
X48743Y-46092D01*
X48873Y-46092D01*
X48992Y-46042D01*
X49068Y-45967D01*
X50872Y-45967D01*
X54795Y-49889D01*
X54795Y-51795D01*
X54810Y-51871D01*
X54853Y-51936D01*
X55572Y-52655D01*
X55550Y-52710D01*
X55549Y-52889D01*
X55618Y-53054D01*
X55744Y-53181D01*
X55910Y-53249D01*
X56089Y-53250D01*
X56230Y-53191D01*
X56230Y-53230D01*
X56245Y-53306D01*
X56288Y-53371D01*
X56572Y-53655D01*
X56550Y-53710D01*
X56549Y-53889D01*
X56618Y-54054D01*
X56744Y-54181D01*
X56910Y-54249D01*
X57089Y-54250D01*
X57234Y-54189D01*
X57234Y-54410D01*
X57089Y-54350D01*
X56910Y-54349D01*
X56745Y-54418D01*
X56618Y-54544D01*
X56550Y-54710D01*
X56549Y-54889D01*
X56618Y-55054D01*
X56744Y-55181D01*
X56910Y-55249D01*
X57089Y-55250D01*
X57234Y-55189D01*
X57234Y-55410D01*
X57089Y-55350D01*
X56910Y-55349D01*
X56745Y-55418D01*
X56618Y-55544D01*
X56550Y-55710D01*
X56549Y-55889D01*
X56618Y-56054D01*
X56729Y-56165D01*
X56450Y-56444D01*
X56450Y-55710D01*
X56450Y-54710D01*
X56450Y-53710D01*
X56381Y-53545D01*
X56255Y-53418D01*
X56089Y-53350D01*
X55910Y-53349D01*
X55745Y-53418D01*
X55618Y-53544D01*
X55550Y-53710D01*
X55549Y-53889D01*
X55618Y-54054D01*
X55744Y-54181D01*
X55910Y-54249D01*
X56089Y-54250D01*
X56254Y-54181D01*
X56381Y-54055D01*
X56449Y-53889D01*
X56450Y-53710D01*
X56450Y-54710D01*
X56381Y-54545D01*
X56255Y-54418D01*
X56089Y-54350D01*
X55910Y-54349D01*
X55745Y-54418D01*
X55618Y-54544D01*
X55550Y-54710D01*
X55549Y-54889D01*
X55618Y-55054D01*
X55744Y-55181D01*
X55910Y-55249D01*
X56089Y-55250D01*
X56254Y-55181D01*
X56381Y-55055D01*
X56449Y-54889D01*
X56450Y-54710D01*
X56450Y-55710D01*
X56381Y-55545D01*
X56255Y-55418D01*
X56089Y-55350D01*
X55910Y-55349D01*
X55745Y-55418D01*
X55618Y-55544D01*
X55550Y-55710D01*
X55549Y-55889D01*
X55618Y-56054D01*
X55744Y-56181D01*
X55910Y-56249D01*
X56089Y-56250D01*
X56254Y-56181D01*
X56381Y-56055D01*
X56449Y-55889D01*
X56450Y-55710D01*
X56450Y-56444D01*
X56411Y-56483D01*
X56374Y-56538D01*
X56255Y-56418D01*
X56089Y-56350D01*
X55910Y-56349D01*
X55745Y-56418D01*
X55618Y-56544D01*
X55550Y-56710D01*
X55549Y-56889D01*
X55618Y-57054D01*
X55744Y-57181D01*
X55910Y-57249D01*
X56089Y-57250D01*
X56254Y-57181D01*
X56352Y-57083D01*
X56352Y-57516D01*
X56255Y-57418D01*
X56089Y-57350D01*
X55910Y-57349D01*
X55745Y-57418D01*
X55618Y-57544D01*
X55550Y-57710D01*
X55549Y-57889D01*
X55618Y-58054D01*
X55744Y-58181D01*
X55910Y-58249D01*
X56089Y-58250D01*
X56254Y-58181D01*
X56352Y-58083D01*
X56352Y-58352D01*
X56367Y-58429D01*
X56411Y-58494D01*
X56572Y-58655D01*
X56550Y-58710D01*
X56549Y-58889D01*
X56618Y-59054D01*
X56744Y-59181D01*
X56910Y-59249D01*
X57089Y-59250D01*
X57254Y-59181D01*
X57381Y-59055D01*
X57449Y-58889D01*
X57450Y-58710D01*
X57381Y-58545D01*
X57255Y-58418D01*
X57089Y-58350D01*
X56910Y-58349D01*
X56855Y-58372D01*
X56752Y-58269D01*
X56752Y-58184D01*
X56910Y-58249D01*
X57089Y-58250D01*
X57254Y-58181D01*
X57381Y-58055D01*
X57449Y-57889D01*
X57450Y-57710D01*
X57381Y-57545D01*
X57255Y-57418D01*
X57089Y-57350D01*
X56910Y-57349D01*
X56752Y-57415D01*
X56752Y-57184D01*
X56910Y-57249D01*
X57089Y-57250D01*
X57254Y-57181D01*
X57381Y-57055D01*
X57449Y-56889D01*
X57450Y-56710D01*
X57427Y-56655D01*
X57756Y-56326D01*
X57799Y-56261D01*
X57814Y-56185D01*
X57814Y-61470D01*
X57469Y-61470D01*
X57469Y-60716D01*
X57450Y-60665D01*
X57450Y-59710D01*
X57381Y-59545D01*
X57255Y-59418D01*
X57089Y-59350D01*
X56910Y-59349D01*
X56745Y-59418D01*
X56618Y-59544D01*
X56550Y-59710D01*
X56549Y-59889D01*
X56618Y-60054D01*
X56744Y-60181D01*
X56910Y-60249D01*
X57089Y-60250D01*
X57254Y-60181D01*
X57381Y-60055D01*
X57449Y-59889D01*
X57450Y-59710D01*
X57450Y-60665D01*
X57402Y-60542D01*
X57391Y-60526D01*
X57314Y-60498D01*
X57301Y-60511D01*
X57301Y-60485D01*
X57273Y-60408D01*
X57102Y-60333D01*
X56916Y-60330D01*
X56742Y-60397D01*
X56726Y-60408D01*
X56698Y-60485D01*
X57000Y-60787D01*
X57301Y-60485D01*
X57301Y-60511D01*
X57012Y-60800D01*
X57314Y-61101D01*
X57391Y-61073D01*
X57466Y-60902D01*
X57469Y-60716D01*
X57469Y-61470D01*
X57301Y-61470D01*
X57301Y-61114D01*
X57000Y-60812D01*
X56987Y-60825D01*
X56987Y-60800D01*
X56685Y-60498D01*
X56608Y-60526D01*
X56533Y-60697D01*
X56530Y-60883D01*
X56597Y-61057D01*
X56608Y-61073D01*
X56685Y-61101D01*
X56987Y-60800D01*
X56987Y-60825D01*
X56698Y-61114D01*
X56726Y-61191D01*
X56897Y-61266D01*
X57083Y-61269D01*
X57257Y-61202D01*
X57273Y-61191D01*
X57301Y-61114D01*
X57301Y-61470D01*
X56469Y-61470D01*
X56469Y-60716D01*
X56450Y-60665D01*
X56450Y-59710D01*
X56450Y-58710D01*
X56381Y-58545D01*
X56255Y-58418D01*
X56089Y-58350D01*
X55910Y-58349D01*
X55855Y-58372D01*
X55106Y-57623D01*
X55101Y-56358D01*
X55175Y-56284D01*
X55224Y-56164D01*
X55225Y-56035D01*
X55175Y-55916D01*
X55084Y-55824D01*
X54964Y-55775D01*
X54835Y-55774D01*
X54716Y-55824D01*
X54624Y-55915D01*
X54575Y-56035D01*
X54574Y-56164D01*
X54624Y-56283D01*
X54701Y-56360D01*
X54706Y-57707D01*
X54714Y-57745D01*
X54722Y-57783D01*
X54722Y-57783D01*
X54722Y-57784D01*
X54743Y-57816D01*
X54765Y-57848D01*
X55572Y-58655D01*
X55550Y-58710D01*
X55549Y-58889D01*
X55618Y-59054D01*
X55744Y-59181D01*
X55910Y-59249D01*
X56089Y-59250D01*
X56254Y-59181D01*
X56381Y-59055D01*
X56449Y-58889D01*
X56450Y-58710D01*
X56450Y-59710D01*
X56381Y-59545D01*
X56255Y-59418D01*
X56089Y-59350D01*
X55910Y-59349D01*
X55745Y-59418D01*
X55618Y-59544D01*
X55550Y-59710D01*
X55549Y-59889D01*
X55618Y-60054D01*
X55744Y-60181D01*
X55910Y-60249D01*
X56089Y-60250D01*
X56254Y-60181D01*
X56381Y-60055D01*
X56449Y-59889D01*
X56450Y-59710D01*
X56450Y-60665D01*
X56402Y-60542D01*
X56391Y-60526D01*
X56314Y-60498D01*
X56301Y-60511D01*
X56301Y-60485D01*
X56273Y-60408D01*
X56102Y-60333D01*
X55916Y-60330D01*
X55742Y-60397D01*
X55726Y-60408D01*
X55698Y-60485D01*
X56000Y-60787D01*
X56301Y-60485D01*
X56301Y-60511D01*
X56012Y-60800D01*
X56314Y-61101D01*
X56391Y-61073D01*
X56466Y-60902D01*
X56469Y-60716D01*
X56469Y-61470D01*
X56301Y-61470D01*
X56301Y-61114D01*
X56000Y-60812D01*
X55987Y-60825D01*
X55987Y-60800D01*
X55685Y-60498D01*
X55608Y-60526D01*
X55533Y-60697D01*
X55530Y-60883D01*
X55597Y-61057D01*
X55608Y-61073D01*
X55685Y-61101D01*
X55987Y-60800D01*
X55987Y-60825D01*
X55698Y-61114D01*
X55726Y-61191D01*
X55897Y-61266D01*
X56083Y-61269D01*
X56257Y-61202D01*
X56273Y-61191D01*
X56301Y-61114D01*
X56301Y-61470D01*
X52426Y-61470D01*
X52426Y-48086D01*
X52420Y-48056D01*
X52417Y-48026D01*
X52412Y-48018D01*
X52410Y-48009D01*
X52394Y-47984D01*
X52379Y-47958D01*
X52372Y-47952D01*
X52367Y-47944D01*
X52342Y-47928D01*
X52319Y-47909D01*
X52310Y-47906D01*
X52302Y-47901D01*
X52273Y-47895D01*
X52244Y-47887D01*
X52235Y-47887D01*
X52226Y-47886D01*
X49117Y-47886D01*
X47169Y-45938D01*
X47170Y-45832D01*
X47120Y-45712D01*
X47029Y-45621D01*
X46909Y-45571D01*
X46780Y-45571D01*
X46661Y-45620D01*
X46569Y-45712D01*
X46520Y-45831D01*
X46519Y-45961D01*
X46569Y-46080D01*
X46660Y-46172D01*
X46780Y-46221D01*
X46887Y-46221D01*
X48840Y-48175D01*
X47157Y-48175D01*
X39377Y-40395D01*
X39434Y-40371D01*
X39509Y-40296D01*
X40452Y-40296D01*
X41498Y-41342D01*
X41498Y-41448D01*
X41548Y-41567D01*
X41639Y-41659D01*
X41758Y-41709D01*
X41888Y-41709D01*
X42007Y-41659D01*
X42099Y-41568D01*
X42148Y-41449D01*
X42148Y-41319D01*
X42099Y-41200D01*
X42008Y-41108D01*
X41888Y-41059D01*
X41781Y-41059D01*
X40677Y-39954D01*
X40612Y-39911D01*
X40535Y-39896D01*
X39509Y-39896D01*
X39434Y-39820D01*
X39315Y-39771D01*
X39185Y-39771D01*
X39066Y-39820D01*
X38974Y-39911D01*
X38951Y-39968D01*
X37641Y-38658D01*
X37576Y-38615D01*
X37500Y-38600D01*
X37404Y-38600D01*
X37381Y-38545D01*
X37255Y-38418D01*
X37089Y-38350D01*
X36910Y-38349D01*
X36745Y-38418D01*
X36618Y-38544D01*
X36550Y-38710D01*
X36549Y-38889D01*
X36618Y-39054D01*
X36744Y-39181D01*
X36910Y-39249D01*
X37089Y-39250D01*
X37254Y-39181D01*
X37381Y-39055D01*
X37404Y-39000D01*
X37417Y-39000D01*
X38403Y-39985D01*
X38388Y-39985D01*
X38269Y-40035D01*
X38177Y-40126D01*
X38128Y-40246D01*
X38128Y-40353D01*
X37443Y-41037D01*
X37388Y-41037D01*
X37449Y-40889D01*
X37450Y-40710D01*
X37450Y-39710D01*
X37381Y-39545D01*
X37255Y-39418D01*
X37089Y-39350D01*
X36910Y-39349D01*
X36745Y-39418D01*
X36618Y-39544D01*
X36550Y-39710D01*
X36549Y-39889D01*
X36618Y-40054D01*
X36744Y-40181D01*
X36910Y-40249D01*
X37089Y-40250D01*
X37254Y-40181D01*
X37381Y-40055D01*
X37449Y-39889D01*
X37450Y-39710D01*
X37450Y-40710D01*
X37381Y-40545D01*
X37255Y-40418D01*
X37089Y-40350D01*
X36910Y-40349D01*
X36745Y-40418D01*
X36618Y-40544D01*
X36550Y-40710D01*
X36549Y-40889D01*
X36611Y-41037D01*
X36520Y-41037D01*
X36469Y-40987D01*
X36469Y-38716D01*
X36402Y-38542D01*
X36391Y-38526D01*
X36314Y-38498D01*
X36012Y-38800D01*
X36314Y-39101D01*
X36391Y-39073D01*
X36466Y-38902D01*
X36469Y-38716D01*
X36469Y-40987D01*
X36427Y-40944D01*
X36449Y-40889D01*
X36450Y-40710D01*
X36381Y-40545D01*
X36255Y-40418D01*
X36089Y-40350D01*
X35910Y-40349D01*
X35745Y-40418D01*
X35618Y-40544D01*
X35550Y-40710D01*
X35549Y-40889D01*
X35618Y-41054D01*
X35744Y-41181D01*
X35910Y-41249D01*
X36089Y-41250D01*
X36144Y-41227D01*
X36296Y-41378D01*
X36360Y-41422D01*
X36360Y-41422D01*
X36437Y-41437D01*
X36726Y-41437D01*
X36618Y-41544D01*
X36550Y-41710D01*
X36549Y-41889D01*
X36618Y-42054D01*
X36744Y-42181D01*
X36910Y-42249D01*
X37089Y-42250D01*
X37254Y-42181D01*
X37381Y-42055D01*
X37449Y-41889D01*
X37450Y-41710D01*
X37381Y-41545D01*
X37273Y-41437D01*
X37526Y-41437D01*
X37603Y-41422D01*
X37667Y-41378D01*
X38410Y-40635D01*
X38517Y-40636D01*
X38636Y-40586D01*
X38728Y-40495D01*
X38778Y-40375D01*
X38778Y-40360D01*
X38937Y-40519D01*
X38920Y-40519D01*
X38801Y-40569D01*
X38709Y-40660D01*
X38660Y-40780D01*
X38660Y-40887D01*
X37165Y-42381D01*
X37089Y-42350D01*
X36910Y-42349D01*
X36745Y-42418D01*
X36618Y-42544D01*
X36550Y-42710D01*
X36549Y-42889D01*
X36618Y-43054D01*
X36744Y-43181D01*
X36910Y-43249D01*
X37089Y-43250D01*
X37254Y-43181D01*
X37381Y-43055D01*
X37449Y-42889D01*
X37450Y-42710D01*
X37436Y-42677D01*
X38943Y-41170D01*
X39049Y-41170D01*
X39169Y-41120D01*
X39260Y-41029D01*
X39310Y-40909D01*
X39310Y-40893D01*
X46933Y-48516D01*
X46998Y-48559D01*
X47075Y-48575D01*
X50842Y-48575D01*
X51029Y-48762D01*
X51029Y-48810D01*
X51000Y-48741D01*
X50909Y-48649D01*
X50789Y-48600D01*
X50660Y-48599D01*
X50541Y-48649D01*
X50449Y-48740D01*
X50400Y-48860D01*
X50399Y-48967D01*
X50192Y-49175D01*
X47475Y-49175D01*
X46032Y-49175D01*
X43774Y-46917D01*
X43775Y-46810D01*
X43725Y-46691D01*
X43634Y-46599D01*
X43514Y-46550D01*
X43385Y-46549D01*
X43266Y-46599D01*
X43174Y-46690D01*
X43125Y-46810D01*
X43124Y-46939D01*
X43174Y-47058D01*
X43265Y-47150D01*
X43385Y-47199D01*
X43492Y-47200D01*
X45808Y-49516D01*
X45873Y-49559D01*
X45873Y-49559D01*
X45950Y-49575D01*
X46992Y-49575D01*
X46325Y-50242D01*
X46325Y-50035D01*
X46275Y-49916D01*
X46184Y-49824D01*
X46064Y-49775D01*
X45935Y-49774D01*
X45816Y-49824D01*
X45724Y-49915D01*
X45675Y-50035D01*
X45674Y-50142D01*
X45552Y-50264D01*
X44773Y-50264D01*
X44773Y-50139D01*
X44750Y-50083D01*
X44708Y-50041D01*
X44653Y-50018D01*
X44593Y-50018D01*
X43805Y-50018D01*
X43750Y-50041D01*
X43708Y-50083D01*
X43685Y-50139D01*
X43685Y-50198D01*
X43685Y-50264D01*
X42214Y-50264D01*
X42214Y-50139D01*
X42191Y-50083D01*
X42149Y-50041D01*
X42094Y-50018D01*
X42034Y-50018D01*
X41508Y-50018D01*
X38943Y-47454D01*
X38943Y-42925D01*
X39019Y-42850D01*
X39068Y-42730D01*
X39068Y-42601D01*
X39019Y-42482D01*
X38927Y-42390D01*
X38808Y-42341D01*
X38679Y-42340D01*
X38559Y-42390D01*
X38468Y-42481D01*
X38418Y-42601D01*
X38418Y-42730D01*
X38467Y-42849D01*
X38543Y-42925D01*
X38543Y-47537D01*
X38558Y-47613D01*
X38602Y-47678D01*
X41126Y-50203D01*
X41126Y-50789D01*
X41149Y-50844D01*
X41191Y-50886D01*
X41246Y-50909D01*
X41306Y-50909D01*
X42094Y-50909D01*
X42149Y-50886D01*
X42191Y-50844D01*
X42214Y-50789D01*
X42214Y-50729D01*
X42214Y-50664D01*
X43685Y-50664D01*
X43685Y-50789D01*
X43708Y-50844D01*
X43750Y-50886D01*
X43805Y-50909D01*
X43865Y-50909D01*
X44653Y-50909D01*
X44708Y-50886D01*
X44750Y-50844D01*
X44773Y-50789D01*
X44773Y-50729D01*
X44773Y-50664D01*
X45635Y-50664D01*
X45712Y-50648D01*
X45777Y-50605D01*
X45957Y-50424D01*
X46064Y-50425D01*
X46183Y-50375D01*
X46275Y-50284D01*
X46324Y-50164D01*
X46325Y-50035D01*
X46325Y-50242D01*
X44750Y-51816D01*
X44747Y-51813D01*
X44692Y-51790D01*
X44632Y-51790D01*
X43845Y-51790D01*
X43790Y-51813D01*
X43748Y-51855D01*
X43725Y-51910D01*
X43725Y-51970D01*
X43725Y-52035D01*
X42214Y-52035D01*
X42214Y-51910D01*
X42191Y-51855D01*
X42149Y-51813D01*
X42094Y-51790D01*
X42034Y-51790D01*
X41246Y-51790D01*
X41191Y-51813D01*
X41149Y-51855D01*
X41126Y-51910D01*
X41126Y-51970D01*
X41126Y-52560D01*
X41149Y-52616D01*
X41191Y-52658D01*
X41246Y-52681D01*
X41306Y-52681D01*
X42094Y-52681D01*
X42149Y-52658D01*
X42191Y-52616D01*
X42214Y-52560D01*
X42214Y-52501D01*
X42214Y-52435D01*
X43725Y-52435D01*
X43725Y-52560D01*
X43748Y-52616D01*
X43790Y-52658D01*
X43845Y-52681D01*
X43905Y-52681D01*
X44692Y-52681D01*
X44747Y-52658D01*
X44789Y-52616D01*
X44812Y-52560D01*
X44812Y-52501D01*
X44812Y-52295D01*
X45575Y-53057D01*
X45574Y-53164D01*
X45624Y-53283D01*
X45715Y-53375D01*
X45835Y-53424D01*
X45964Y-53425D01*
X46083Y-53375D01*
X46175Y-53284D01*
X46224Y-53164D01*
X46225Y-53035D01*
X46175Y-52916D01*
X46121Y-52862D01*
X46398Y-52862D01*
X46440Y-52820D01*
X46440Y-52055D01*
X45676Y-52055D01*
X45634Y-52097D01*
X45634Y-52551D01*
X45107Y-52025D01*
X45634Y-51498D01*
X45634Y-51995D01*
X45676Y-52037D01*
X46440Y-52037D01*
X46440Y-51272D01*
X46398Y-51230D01*
X45902Y-51230D01*
X47557Y-49575D01*
X50275Y-49575D01*
X50351Y-49559D01*
X50416Y-49516D01*
X50682Y-49249D01*
X50789Y-49250D01*
X50908Y-49200D01*
X51000Y-49109D01*
X51029Y-49039D01*
X51029Y-50018D01*
X50805Y-50018D01*
X50750Y-50041D01*
X50708Y-50083D01*
X50685Y-50139D01*
X50685Y-50198D01*
X50685Y-50264D01*
X49214Y-50264D01*
X49214Y-50139D01*
X49191Y-50083D01*
X49149Y-50041D01*
X49094Y-50018D01*
X49034Y-50018D01*
X48246Y-50018D01*
X48191Y-50041D01*
X48149Y-50083D01*
X48126Y-50139D01*
X48126Y-50198D01*
X48126Y-50789D01*
X48149Y-50844D01*
X48191Y-50886D01*
X48246Y-50909D01*
X48306Y-50909D01*
X49094Y-50909D01*
X49149Y-50886D01*
X49191Y-50844D01*
X49214Y-50789D01*
X49214Y-50729D01*
X49214Y-50664D01*
X50685Y-50664D01*
X50685Y-50789D01*
X50708Y-50844D01*
X50750Y-50886D01*
X50805Y-50909D01*
X50865Y-50909D01*
X51653Y-50909D01*
X51708Y-50886D01*
X51750Y-50844D01*
X51773Y-50789D01*
X51773Y-50729D01*
X51773Y-50139D01*
X51750Y-50083D01*
X51708Y-50041D01*
X51653Y-50018D01*
X51593Y-50018D01*
X51429Y-50018D01*
X51429Y-48679D01*
X51414Y-48602D01*
X51414Y-48602D01*
X51370Y-48538D01*
X51119Y-48286D01*
X52007Y-48286D01*
X51908Y-49382D01*
X51824Y-49465D01*
X51775Y-49585D01*
X51774Y-49714D01*
X51824Y-49833D01*
X51915Y-49925D01*
X52035Y-49974D01*
X52164Y-49975D01*
X52283Y-49925D01*
X52375Y-49834D01*
X52424Y-49714D01*
X52425Y-49585D01*
X52375Y-49466D01*
X52308Y-49398D01*
X52425Y-48104D01*
X52424Y-48095D01*
X52426Y-48086D01*
X52426Y-61470D01*
X51830Y-61470D01*
X51830Y-52564D01*
X51830Y-52497D01*
X51830Y-52286D01*
X51830Y-52184D01*
X51830Y-51973D01*
X51830Y-51907D01*
X51805Y-51845D01*
X51757Y-51798D01*
X51696Y-51772D01*
X51319Y-51772D01*
X51277Y-51814D01*
X51277Y-52226D01*
X51788Y-52226D01*
X51830Y-52184D01*
X51830Y-52286D01*
X51788Y-52244D01*
X51277Y-52244D01*
X51277Y-52252D01*
X51259Y-52252D01*
X51259Y-52244D01*
X51259Y-52226D01*
X51259Y-51814D01*
X51217Y-51772D01*
X50841Y-51772D01*
X50779Y-51798D01*
X50732Y-51845D01*
X50707Y-51907D01*
X50707Y-51973D01*
X50707Y-52184D01*
X50749Y-52226D01*
X51259Y-52226D01*
X51259Y-52244D01*
X50749Y-52244D01*
X50707Y-52286D01*
X50707Y-52497D01*
X50707Y-52564D01*
X50732Y-52626D01*
X50779Y-52673D01*
X50841Y-52699D01*
X50916Y-52699D01*
X50874Y-52740D01*
X50825Y-52860D01*
X50824Y-52989D01*
X50828Y-52997D01*
X50714Y-52950D01*
X50585Y-52949D01*
X50466Y-52999D01*
X50390Y-53075D01*
X49232Y-53075D01*
X49232Y-52564D01*
X49232Y-52497D01*
X49232Y-52286D01*
X49232Y-52184D01*
X49232Y-51973D01*
X49232Y-51907D01*
X49206Y-51845D01*
X49159Y-51798D01*
X49097Y-51772D01*
X48721Y-51772D01*
X48679Y-51814D01*
X48679Y-52226D01*
X49190Y-52226D01*
X49232Y-52184D01*
X49232Y-52286D01*
X49190Y-52244D01*
X48679Y-52244D01*
X48679Y-52657D01*
X48721Y-52699D01*
X49097Y-52699D01*
X49159Y-52673D01*
X49206Y-52626D01*
X49232Y-52564D01*
X49232Y-53075D01*
X49050Y-53075D01*
X48973Y-53090D01*
X48908Y-53133D01*
X48661Y-53380D01*
X48661Y-52657D01*
X48661Y-52244D01*
X48661Y-52226D01*
X48661Y-51814D01*
X48619Y-51772D01*
X48243Y-51772D01*
X48181Y-51798D01*
X48134Y-51845D01*
X48108Y-51907D01*
X48108Y-51973D01*
X48108Y-52184D01*
X48150Y-52226D01*
X48661Y-52226D01*
X48661Y-52244D01*
X48150Y-52244D01*
X48108Y-52286D01*
X48108Y-52497D01*
X48108Y-52564D01*
X48134Y-52626D01*
X48181Y-52673D01*
X48243Y-52699D01*
X48619Y-52699D01*
X48661Y-52657D01*
X48661Y-53380D01*
X48492Y-53550D01*
X48209Y-53550D01*
X48134Y-53474D01*
X48014Y-53425D01*
X47885Y-53424D01*
X47766Y-53474D01*
X47674Y-53565D01*
X47625Y-53685D01*
X47624Y-53814D01*
X47674Y-53933D01*
X47765Y-54025D01*
X47885Y-54074D01*
X48014Y-54075D01*
X48133Y-54025D01*
X48209Y-53950D01*
X48549Y-53950D01*
X48549Y-54014D01*
X48599Y-54133D01*
X48690Y-54225D01*
X48810Y-54274D01*
X48939Y-54275D01*
X49058Y-54225D01*
X49150Y-54134D01*
X49199Y-54014D01*
X49200Y-53907D01*
X49382Y-53725D01*
X50267Y-53725D01*
X50333Y-53791D01*
X50398Y-53834D01*
X50475Y-53850D01*
X50875Y-53850D01*
X50951Y-53834D01*
X51016Y-53791D01*
X51291Y-53516D01*
X51334Y-53451D01*
X51334Y-53451D01*
X51350Y-53375D01*
X51350Y-53184D01*
X51425Y-53109D01*
X51474Y-52989D01*
X51475Y-52860D01*
X51425Y-52741D01*
X51383Y-52699D01*
X51696Y-52699D01*
X51757Y-52673D01*
X51805Y-52626D01*
X51830Y-52564D01*
X51830Y-61470D01*
X48625Y-61470D01*
X48625Y-57560D01*
X48575Y-57441D01*
X48500Y-57365D01*
X48500Y-56509D01*
X48575Y-56434D01*
X48624Y-56314D01*
X48625Y-56185D01*
X48575Y-56066D01*
X48484Y-55974D01*
X48364Y-55925D01*
X48235Y-55924D01*
X48116Y-55974D01*
X48024Y-56065D01*
X47975Y-56185D01*
X47974Y-56314D01*
X48024Y-56433D01*
X48100Y-56509D01*
X48100Y-57365D01*
X48024Y-57440D01*
X47975Y-57560D01*
X47974Y-57689D01*
X48024Y-57808D01*
X48115Y-57900D01*
X48235Y-57949D01*
X48364Y-57950D01*
X48483Y-57900D01*
X48575Y-57809D01*
X48624Y-57689D01*
X48625Y-57560D01*
X48625Y-61470D01*
X47800Y-61470D01*
X47800Y-59730D01*
X47746Y-59602D01*
X47648Y-59503D01*
X47519Y-59450D01*
X47380Y-59449D01*
X47265Y-59497D01*
X47265Y-52727D01*
X47265Y-52097D01*
X47265Y-51995D01*
X47265Y-51365D01*
X47240Y-51303D01*
X47192Y-51256D01*
X47131Y-51230D01*
X47064Y-51230D01*
X46501Y-51230D01*
X46459Y-51272D01*
X46459Y-52037D01*
X47223Y-52037D01*
X47265Y-51995D01*
X47265Y-52097D01*
X47223Y-52055D01*
X46459Y-52055D01*
X46459Y-52820D01*
X46501Y-52862D01*
X47064Y-52862D01*
X47131Y-52862D01*
X47192Y-52836D01*
X47240Y-52789D01*
X47265Y-52727D01*
X47265Y-59497D01*
X47252Y-59503D01*
X47153Y-59601D01*
X47100Y-59730D01*
X47099Y-59869D01*
X47153Y-59998D01*
X47251Y-60096D01*
X47380Y-60149D01*
X47519Y-60150D01*
X47648Y-60096D01*
X47746Y-59998D01*
X47799Y-59869D01*
X47800Y-59730D01*
X47800Y-61470D01*
X46100Y-61470D01*
X46100Y-59730D01*
X46046Y-59602D01*
X45948Y-59503D01*
X45819Y-59450D01*
X45680Y-59449D01*
X45552Y-59503D01*
X45453Y-59601D01*
X45400Y-59730D01*
X45399Y-59869D01*
X45453Y-59998D01*
X45551Y-60096D01*
X45680Y-60149D01*
X45819Y-60150D01*
X45948Y-60096D01*
X46046Y-59998D01*
X46099Y-59869D01*
X46100Y-59730D01*
X46100Y-61470D01*
X43975Y-61470D01*
X43975Y-57815D01*
X43910Y-57659D01*
X43791Y-57539D01*
X43634Y-57475D01*
X43465Y-57474D01*
X43309Y-57539D01*
X43200Y-57648D01*
X43200Y-57532D01*
X43407Y-57325D01*
X43854Y-57325D01*
X43909Y-57302D01*
X43952Y-57259D01*
X43975Y-57204D01*
X43975Y-57145D01*
X43975Y-56595D01*
X43952Y-56540D01*
X43909Y-56497D01*
X43854Y-56475D01*
X43795Y-56475D01*
X43245Y-56475D01*
X43190Y-56497D01*
X43147Y-56540D01*
X43125Y-56595D01*
X43125Y-56654D01*
X43125Y-57042D01*
X42858Y-57308D01*
X42815Y-57373D01*
X42800Y-57450D01*
X42800Y-58517D01*
X42775Y-58542D01*
X42775Y-57815D01*
X42775Y-57815D01*
X42775Y-57204D01*
X42775Y-57145D01*
X42775Y-56595D01*
X42752Y-56540D01*
X42709Y-56497D01*
X42654Y-56475D01*
X42595Y-56475D01*
X42045Y-56475D01*
X41990Y-56497D01*
X41947Y-56540D01*
X41925Y-56595D01*
X41925Y-56654D01*
X41925Y-57042D01*
X41767Y-57200D01*
X41575Y-57200D01*
X41575Y-57145D01*
X41575Y-56595D01*
X41552Y-56540D01*
X41509Y-56497D01*
X41454Y-56475D01*
X41395Y-56475D01*
X40845Y-56475D01*
X40790Y-56497D01*
X40747Y-56540D01*
X40725Y-56595D01*
X40725Y-56654D01*
X40725Y-57200D01*
X40375Y-57200D01*
X40375Y-57145D01*
X40375Y-56595D01*
X40352Y-56540D01*
X40309Y-56497D01*
X40254Y-56475D01*
X40195Y-56475D01*
X39645Y-56475D01*
X39590Y-56497D01*
X39547Y-56540D01*
X39525Y-56595D01*
X39525Y-56654D01*
X39525Y-57200D01*
X38400Y-57200D01*
X38336Y-57212D01*
X38323Y-57215D01*
X38258Y-57258D01*
X37450Y-58067D01*
X37450Y-57710D01*
X37450Y-56710D01*
X37450Y-55710D01*
X37450Y-54710D01*
X37450Y-53710D01*
X37450Y-52710D01*
X37450Y-51710D01*
X37450Y-50710D01*
X37450Y-49710D01*
X37450Y-48710D01*
X37450Y-47710D01*
X37450Y-46710D01*
X37450Y-45710D01*
X37450Y-44710D01*
X37450Y-43710D01*
X37381Y-43545D01*
X37255Y-43418D01*
X37089Y-43350D01*
X36910Y-43349D01*
X36745Y-43418D01*
X36618Y-43544D01*
X36550Y-43710D01*
X36549Y-43889D01*
X36618Y-44054D01*
X36744Y-44181D01*
X36910Y-44249D01*
X37089Y-44250D01*
X37254Y-44181D01*
X37381Y-44055D01*
X37449Y-43889D01*
X37450Y-43710D01*
X37450Y-44710D01*
X37381Y-44545D01*
X37255Y-44418D01*
X37089Y-44350D01*
X36910Y-44349D01*
X36745Y-44418D01*
X36618Y-44544D01*
X36550Y-44710D01*
X36549Y-44889D01*
X36618Y-45054D01*
X36744Y-45181D01*
X36910Y-45249D01*
X37089Y-45250D01*
X37254Y-45181D01*
X37381Y-45055D01*
X37449Y-44889D01*
X37450Y-44710D01*
X37450Y-45710D01*
X37381Y-45545D01*
X37255Y-45418D01*
X37089Y-45350D01*
X36910Y-45349D01*
X36745Y-45418D01*
X36618Y-45544D01*
X36550Y-45710D01*
X36549Y-45889D01*
X36618Y-46054D01*
X36744Y-46181D01*
X36910Y-46249D01*
X37089Y-46250D01*
X37254Y-46181D01*
X37381Y-46055D01*
X37449Y-45889D01*
X37450Y-45710D01*
X37450Y-46710D01*
X37381Y-46545D01*
X37255Y-46418D01*
X37089Y-46350D01*
X36910Y-46349D01*
X36745Y-46418D01*
X36618Y-46544D01*
X36550Y-46710D01*
X36549Y-46889D01*
X36618Y-47054D01*
X36744Y-47181D01*
X36910Y-47249D01*
X37089Y-47250D01*
X37254Y-47181D01*
X37381Y-47055D01*
X37449Y-46889D01*
X37450Y-46710D01*
X37450Y-47710D01*
X37381Y-47545D01*
X37255Y-47418D01*
X37089Y-47350D01*
X36910Y-47349D01*
X36745Y-47418D01*
X36618Y-47544D01*
X36550Y-47710D01*
X36549Y-47889D01*
X36618Y-48054D01*
X36744Y-48181D01*
X36910Y-48249D01*
X37089Y-48250D01*
X37254Y-48181D01*
X37381Y-48055D01*
X37449Y-47889D01*
X37450Y-47710D01*
X37450Y-48710D01*
X37381Y-48545D01*
X37255Y-48418D01*
X37089Y-48350D01*
X36910Y-48349D01*
X36745Y-48418D01*
X36618Y-48544D01*
X36550Y-48710D01*
X36549Y-48889D01*
X36618Y-49054D01*
X36744Y-49181D01*
X36910Y-49249D01*
X37089Y-49250D01*
X37254Y-49181D01*
X37381Y-49055D01*
X37449Y-48889D01*
X37450Y-48710D01*
X37450Y-49710D01*
X37381Y-49545D01*
X37255Y-49418D01*
X37089Y-49350D01*
X36910Y-49349D01*
X36745Y-49418D01*
X36618Y-49544D01*
X36550Y-49710D01*
X36549Y-49889D01*
X36618Y-50054D01*
X36744Y-50181D01*
X36910Y-50249D01*
X37089Y-50250D01*
X37254Y-50181D01*
X37381Y-50055D01*
X37449Y-49889D01*
X37450Y-49710D01*
X37450Y-50710D01*
X37381Y-50545D01*
X37255Y-50418D01*
X37089Y-50350D01*
X36910Y-50349D01*
X36745Y-50418D01*
X36618Y-50544D01*
X36550Y-50710D01*
X36549Y-50889D01*
X36618Y-51054D01*
X36744Y-51181D01*
X36910Y-51249D01*
X37089Y-51250D01*
X37254Y-51181D01*
X37381Y-51055D01*
X37449Y-50889D01*
X37450Y-50710D01*
X37450Y-51710D01*
X37381Y-51545D01*
X37255Y-51418D01*
X37089Y-51350D01*
X36910Y-51349D01*
X36745Y-51418D01*
X36618Y-51544D01*
X36550Y-51710D01*
X36549Y-51889D01*
X36618Y-52054D01*
X36744Y-52181D01*
X36910Y-52249D01*
X37089Y-52250D01*
X37254Y-52181D01*
X37381Y-52055D01*
X37449Y-51889D01*
X37450Y-51710D01*
X37450Y-52710D01*
X37381Y-52545D01*
X37255Y-52418D01*
X37089Y-52350D01*
X36910Y-52349D01*
X36745Y-52418D01*
X36618Y-52544D01*
X36550Y-52710D01*
X36549Y-52889D01*
X36618Y-53054D01*
X36744Y-53181D01*
X36910Y-53249D01*
X37089Y-53250D01*
X37254Y-53181D01*
X37381Y-53055D01*
X37449Y-52889D01*
X37450Y-52710D01*
X37450Y-53710D01*
X37381Y-53545D01*
X37255Y-53418D01*
X37089Y-53350D01*
X36910Y-53349D01*
X36745Y-53418D01*
X36618Y-53544D01*
X36550Y-53710D01*
X36549Y-53889D01*
X36618Y-54054D01*
X36744Y-54181D01*
X36910Y-54249D01*
X37089Y-54250D01*
X37254Y-54181D01*
X37381Y-54055D01*
X37449Y-53889D01*
X37450Y-53710D01*
X37450Y-54710D01*
X37381Y-54545D01*
X37255Y-54418D01*
X37089Y-54350D01*
X36910Y-54349D01*
X36745Y-54418D01*
X36618Y-54544D01*
X36550Y-54710D01*
X36549Y-54889D01*
X36618Y-55054D01*
X36744Y-55181D01*
X36910Y-55249D01*
X37089Y-55250D01*
X37254Y-55181D01*
X37381Y-55055D01*
X37449Y-54889D01*
X37450Y-54710D01*
X37450Y-55710D01*
X37381Y-55545D01*
X37255Y-55418D01*
X37089Y-55350D01*
X36910Y-55349D01*
X36745Y-55418D01*
X36618Y-55544D01*
X36550Y-55710D01*
X36549Y-55889D01*
X36618Y-56054D01*
X36744Y-56181D01*
X36910Y-56249D01*
X37089Y-56250D01*
X37254Y-56181D01*
X37381Y-56055D01*
X37449Y-55889D01*
X37450Y-55710D01*
X37450Y-56710D01*
X37381Y-56545D01*
X37255Y-56418D01*
X37089Y-56350D01*
X36910Y-56349D01*
X36745Y-56418D01*
X36618Y-56544D01*
X36550Y-56710D01*
X36549Y-56889D01*
X36618Y-57054D01*
X36744Y-57181D01*
X36910Y-57249D01*
X37089Y-57250D01*
X37254Y-57181D01*
X37381Y-57055D01*
X37449Y-56889D01*
X37450Y-56710D01*
X37450Y-57710D01*
X37381Y-57545D01*
X37255Y-57418D01*
X37089Y-57350D01*
X36910Y-57349D01*
X36745Y-57418D01*
X36618Y-57544D01*
X36550Y-57710D01*
X36549Y-57889D01*
X36618Y-58054D01*
X36744Y-58181D01*
X36910Y-58249D01*
X37089Y-58250D01*
X37254Y-58181D01*
X37381Y-58055D01*
X37449Y-57889D01*
X37450Y-57710D01*
X37450Y-58067D01*
X37144Y-58372D01*
X37089Y-58350D01*
X36910Y-58349D01*
X36745Y-58418D01*
X36618Y-58544D01*
X36550Y-58710D01*
X36549Y-58889D01*
X36618Y-59054D01*
X36744Y-59181D01*
X36910Y-59249D01*
X37089Y-59250D01*
X37254Y-59181D01*
X37381Y-59055D01*
X37449Y-58889D01*
X37450Y-58710D01*
X37427Y-58655D01*
X38482Y-57600D01*
X39648Y-57600D01*
X39589Y-57658D01*
X39525Y-57815D01*
X39524Y-57984D01*
X39589Y-58140D01*
X39708Y-58260D01*
X39865Y-58324D01*
X40034Y-58325D01*
X40190Y-58260D01*
X40310Y-58141D01*
X40374Y-57984D01*
X40375Y-57815D01*
X40310Y-57659D01*
X40251Y-57600D01*
X40848Y-57600D01*
X40789Y-57658D01*
X40725Y-57815D01*
X40724Y-57984D01*
X40789Y-58140D01*
X40908Y-58260D01*
X41065Y-58324D01*
X41234Y-58325D01*
X41390Y-58260D01*
X41510Y-58141D01*
X41574Y-57984D01*
X41575Y-57815D01*
X41510Y-57659D01*
X41451Y-57600D01*
X41850Y-57600D01*
X41926Y-57584D01*
X41991Y-57541D01*
X42207Y-57325D01*
X42654Y-57325D01*
X42709Y-57302D01*
X42752Y-57259D01*
X42775Y-57204D01*
X42775Y-57815D01*
X42710Y-57659D01*
X42591Y-57539D01*
X42434Y-57475D01*
X42265Y-57474D01*
X42109Y-57539D01*
X41989Y-57658D01*
X41925Y-57815D01*
X41924Y-57984D01*
X41989Y-58140D01*
X42108Y-58260D01*
X42265Y-58324D01*
X42434Y-58325D01*
X42590Y-58260D01*
X42710Y-58141D01*
X42774Y-57984D01*
X42775Y-57815D01*
X42775Y-58542D01*
X41217Y-60100D01*
X37336Y-60100D01*
X37381Y-60055D01*
X37449Y-59889D01*
X37450Y-59710D01*
X37381Y-59545D01*
X37255Y-59418D01*
X37089Y-59350D01*
X36910Y-59349D01*
X36745Y-59418D01*
X36618Y-59544D01*
X36550Y-59710D01*
X36549Y-59889D01*
X36618Y-60054D01*
X36663Y-60100D01*
X36632Y-60100D01*
X36469Y-59937D01*
X36469Y-47716D01*
X36450Y-47665D01*
X36450Y-46710D01*
X36450Y-45710D01*
X36450Y-44710D01*
X36450Y-43710D01*
X36450Y-42710D01*
X36450Y-41710D01*
X36381Y-41545D01*
X36255Y-41418D01*
X36089Y-41350D01*
X35910Y-41349D01*
X35745Y-41418D01*
X35618Y-41544D01*
X35550Y-41710D01*
X35549Y-41889D01*
X35618Y-42054D01*
X35744Y-42181D01*
X35910Y-42249D01*
X36089Y-42250D01*
X36254Y-42181D01*
X36381Y-42055D01*
X36449Y-41889D01*
X36450Y-41710D01*
X36450Y-42710D01*
X36381Y-42545D01*
X36255Y-42418D01*
X36089Y-42350D01*
X35910Y-42349D01*
X35745Y-42418D01*
X35618Y-42544D01*
X35550Y-42710D01*
X35549Y-42889D01*
X35618Y-43054D01*
X35744Y-43181D01*
X35910Y-43249D01*
X36089Y-43250D01*
X36254Y-43181D01*
X36381Y-43055D01*
X36449Y-42889D01*
X36450Y-42710D01*
X36450Y-43710D01*
X36381Y-43545D01*
X36255Y-43418D01*
X36089Y-43350D01*
X35910Y-43349D01*
X35745Y-43418D01*
X35618Y-43544D01*
X35550Y-43710D01*
X35549Y-43889D01*
X35618Y-44054D01*
X35744Y-44181D01*
X35910Y-44249D01*
X36089Y-44250D01*
X36254Y-44181D01*
X36381Y-44055D01*
X36449Y-43889D01*
X36450Y-43710D01*
X36450Y-44710D01*
X36381Y-44545D01*
X36255Y-44418D01*
X36089Y-44350D01*
X35910Y-44349D01*
X35745Y-44418D01*
X35618Y-44544D01*
X35550Y-44710D01*
X35549Y-44889D01*
X35618Y-45054D01*
X35744Y-45181D01*
X35910Y-45249D01*
X36089Y-45250D01*
X36254Y-45181D01*
X36381Y-45055D01*
X36449Y-44889D01*
X36450Y-44710D01*
X36450Y-45710D01*
X36381Y-45545D01*
X36255Y-45418D01*
X36089Y-45350D01*
X35910Y-45349D01*
X35745Y-45418D01*
X35618Y-45544D01*
X35550Y-45710D01*
X35549Y-45889D01*
X35618Y-46054D01*
X35744Y-46181D01*
X35910Y-46249D01*
X36089Y-46250D01*
X36254Y-46181D01*
X36381Y-46055D01*
X36449Y-45889D01*
X36450Y-45710D01*
X36450Y-46710D01*
X36381Y-46545D01*
X36255Y-46418D01*
X36089Y-46350D01*
X35910Y-46349D01*
X35745Y-46418D01*
X35618Y-46544D01*
X35550Y-46710D01*
X35549Y-46889D01*
X35618Y-47054D01*
X35744Y-47181D01*
X35910Y-47249D01*
X36089Y-47250D01*
X36254Y-47181D01*
X36381Y-47055D01*
X36449Y-46889D01*
X36450Y-46710D01*
X36450Y-47665D01*
X36402Y-47542D01*
X36391Y-47526D01*
X36314Y-47498D01*
X36301Y-47511D01*
X36301Y-47485D01*
X36273Y-47408D01*
X36102Y-47333D01*
X35916Y-47330D01*
X35742Y-47397D01*
X35726Y-47408D01*
X35698Y-47485D01*
X36000Y-47787D01*
X36301Y-47485D01*
X36301Y-47511D01*
X36012Y-47800D01*
X36314Y-48101D01*
X36391Y-48073D01*
X36466Y-47902D01*
X36469Y-47716D01*
X36469Y-59937D01*
X36441Y-59909D01*
X36449Y-59889D01*
X36450Y-59710D01*
X36450Y-58710D01*
X36450Y-57710D01*
X36450Y-56710D01*
X36450Y-55710D01*
X36450Y-54710D01*
X36450Y-53710D01*
X36450Y-52710D01*
X36450Y-51710D01*
X36450Y-50710D01*
X36450Y-49710D01*
X36450Y-48710D01*
X36381Y-48545D01*
X36301Y-48464D01*
X36301Y-48114D01*
X36000Y-47812D01*
X35987Y-47825D01*
X35987Y-47800D01*
X35685Y-47498D01*
X35608Y-47526D01*
X35533Y-47697D01*
X35530Y-47883D01*
X35597Y-48057D01*
X35608Y-48073D01*
X35685Y-48101D01*
X35987Y-47800D01*
X35987Y-47825D01*
X35698Y-48114D01*
X35726Y-48191D01*
X35897Y-48266D01*
X36083Y-48269D01*
X36257Y-48202D01*
X36273Y-48191D01*
X36301Y-48114D01*
X36301Y-48464D01*
X36255Y-48418D01*
X36089Y-48350D01*
X35910Y-48349D01*
X35745Y-48418D01*
X35618Y-48544D01*
X35550Y-48710D01*
X35549Y-48889D01*
X35618Y-49054D01*
X35744Y-49181D01*
X35910Y-49249D01*
X36089Y-49250D01*
X36254Y-49181D01*
X36381Y-49055D01*
X36449Y-48889D01*
X36450Y-48710D01*
X36450Y-49710D01*
X36381Y-49545D01*
X36255Y-49418D01*
X36089Y-49350D01*
X35910Y-49349D01*
X35745Y-49418D01*
X35618Y-49544D01*
X35550Y-49710D01*
X35549Y-49889D01*
X35618Y-50054D01*
X35744Y-50181D01*
X35910Y-50249D01*
X36089Y-50250D01*
X36254Y-50181D01*
X36381Y-50055D01*
X36449Y-49889D01*
X36450Y-49710D01*
X36450Y-50710D01*
X36381Y-50545D01*
X36255Y-50418D01*
X36089Y-50350D01*
X35910Y-50349D01*
X35745Y-50418D01*
X35618Y-50544D01*
X35550Y-50710D01*
X35549Y-50889D01*
X35618Y-51054D01*
X35744Y-51181D01*
X35910Y-51249D01*
X36089Y-51250D01*
X36254Y-51181D01*
X36381Y-51055D01*
X36449Y-50889D01*
X36450Y-50710D01*
X36450Y-51710D01*
X36381Y-51545D01*
X36255Y-51418D01*
X36089Y-51350D01*
X35910Y-51349D01*
X35745Y-51418D01*
X35618Y-51544D01*
X35550Y-51710D01*
X35549Y-51889D01*
X35618Y-52054D01*
X35744Y-52181D01*
X35910Y-52249D01*
X36089Y-52250D01*
X36254Y-52181D01*
X36381Y-52055D01*
X36449Y-51889D01*
X36450Y-51710D01*
X36450Y-52710D01*
X36381Y-52545D01*
X36255Y-52418D01*
X36089Y-52350D01*
X35910Y-52349D01*
X35745Y-52418D01*
X35618Y-52544D01*
X35550Y-52710D01*
X35549Y-52889D01*
X35618Y-53054D01*
X35744Y-53181D01*
X35910Y-53249D01*
X36089Y-53250D01*
X36254Y-53181D01*
X36381Y-53055D01*
X36449Y-52889D01*
X36450Y-52710D01*
X36450Y-53710D01*
X36381Y-53545D01*
X36255Y-53418D01*
X36089Y-53350D01*
X35910Y-53349D01*
X35745Y-53418D01*
X35618Y-53544D01*
X35550Y-53710D01*
X35549Y-53889D01*
X35618Y-54054D01*
X35744Y-54181D01*
X35910Y-54249D01*
X36089Y-54250D01*
X36254Y-54181D01*
X36381Y-54055D01*
X36449Y-53889D01*
X36450Y-53710D01*
X36450Y-54710D01*
X36381Y-54545D01*
X36255Y-54418D01*
X36089Y-54350D01*
X35910Y-54349D01*
X35745Y-54418D01*
X35618Y-54544D01*
X35550Y-54710D01*
X35549Y-54889D01*
X35618Y-55054D01*
X35744Y-55181D01*
X35910Y-55249D01*
X36089Y-55250D01*
X36254Y-55181D01*
X36381Y-55055D01*
X36449Y-54889D01*
X36450Y-54710D01*
X36450Y-55710D01*
X36381Y-55545D01*
X36255Y-55418D01*
X36089Y-55350D01*
X35910Y-55349D01*
X35745Y-55418D01*
X35618Y-55544D01*
X35550Y-55710D01*
X35549Y-55889D01*
X35618Y-56054D01*
X35744Y-56181D01*
X35910Y-56249D01*
X36089Y-56250D01*
X36254Y-56181D01*
X36381Y-56055D01*
X36449Y-55889D01*
X36450Y-55710D01*
X36450Y-56710D01*
X36381Y-56545D01*
X36255Y-56418D01*
X36089Y-56350D01*
X35910Y-56349D01*
X35745Y-56418D01*
X35618Y-56544D01*
X35550Y-56710D01*
X35549Y-56889D01*
X35618Y-57054D01*
X35744Y-57181D01*
X35910Y-57249D01*
X36089Y-57250D01*
X36254Y-57181D01*
X36381Y-57055D01*
X36449Y-56889D01*
X36450Y-56710D01*
X36450Y-57710D01*
X36381Y-57545D01*
X36255Y-57418D01*
X36089Y-57350D01*
X35910Y-57349D01*
X35745Y-57418D01*
X35618Y-57544D01*
X35550Y-57710D01*
X35549Y-57889D01*
X35618Y-58054D01*
X35744Y-58181D01*
X35910Y-58249D01*
X36089Y-58250D01*
X36254Y-58181D01*
X36381Y-58055D01*
X36449Y-57889D01*
X36450Y-57710D01*
X36450Y-58710D01*
X36381Y-58545D01*
X36255Y-58418D01*
X36089Y-58350D01*
X35910Y-58349D01*
X35745Y-58418D01*
X35618Y-58544D01*
X35550Y-58710D01*
X35549Y-58889D01*
X35618Y-59054D01*
X35744Y-59181D01*
X35910Y-59249D01*
X36089Y-59250D01*
X36254Y-59181D01*
X36381Y-59055D01*
X36449Y-58889D01*
X36450Y-58710D01*
X36450Y-59710D01*
X36381Y-59545D01*
X36255Y-59418D01*
X36089Y-59350D01*
X35910Y-59349D01*
X35745Y-59418D01*
X35618Y-59544D01*
X35550Y-59710D01*
X35549Y-59889D01*
X35618Y-60054D01*
X35744Y-60181D01*
X35910Y-60249D01*
X36089Y-60250D01*
X36179Y-60212D01*
X36408Y-60441D01*
X36473Y-60484D01*
X36473Y-60484D01*
X36486Y-60487D01*
X36550Y-60500D01*
X36682Y-60500D01*
X36608Y-60526D01*
X36533Y-60697D01*
X36530Y-60883D01*
X36597Y-61057D01*
X36608Y-61073D01*
X36685Y-61101D01*
X36987Y-60800D01*
X36981Y-60794D01*
X36994Y-60781D01*
X37000Y-60787D01*
X37005Y-60781D01*
X37018Y-60794D01*
X37012Y-60800D01*
X37314Y-61101D01*
X37391Y-61073D01*
X37466Y-60902D01*
X37469Y-60716D01*
X37402Y-60542D01*
X37391Y-60526D01*
X37317Y-60500D01*
X41300Y-60500D01*
X41376Y-60484D01*
X41441Y-60441D01*
X43141Y-58741D01*
X43184Y-58676D01*
X43184Y-58676D01*
X43200Y-58600D01*
X43200Y-58150D01*
X43308Y-58260D01*
X43465Y-58324D01*
X43634Y-58325D01*
X43790Y-58260D01*
X43910Y-58141D01*
X43974Y-57984D01*
X43975Y-57815D01*
X43975Y-61470D01*
X37301Y-61470D01*
X37301Y-61114D01*
X37000Y-60812D01*
X36698Y-61114D01*
X36726Y-61191D01*
X36897Y-61266D01*
X37083Y-61269D01*
X37257Y-61202D01*
X37273Y-61191D01*
X37301Y-61114D01*
X37301Y-61470D01*
X36469Y-61470D01*
X36469Y-60716D01*
X36402Y-60542D01*
X36391Y-60526D01*
X36314Y-60498D01*
X36301Y-60511D01*
X36301Y-60485D01*
X36273Y-60408D01*
X36102Y-60333D01*
X35916Y-60330D01*
X35742Y-60397D01*
X35726Y-60408D01*
X35698Y-60485D01*
X36000Y-60787D01*
X36301Y-60485D01*
X36301Y-60511D01*
X36012Y-60800D01*
X36314Y-61101D01*
X36391Y-61073D01*
X36466Y-60902D01*
X36469Y-60716D01*
X36469Y-61470D01*
X36301Y-61470D01*
X36301Y-61114D01*
X36000Y-60812D01*
X35987Y-60825D01*
X35987Y-60800D01*
X35685Y-60498D01*
X35608Y-60526D01*
X35533Y-60697D01*
X35530Y-60883D01*
X35597Y-61057D01*
X35608Y-61073D01*
X35685Y-61101D01*
X35987Y-60800D01*
X35987Y-60825D01*
X35698Y-61114D01*
X35726Y-61191D01*
X35897Y-61266D01*
X36083Y-61269D01*
X36257Y-61202D01*
X36273Y-61191D01*
X36301Y-61114D01*
X36301Y-61470D01*
X34516Y-61470D01*
X34516Y-33029D01*
X58483Y-33029D01*
X58483Y-61470D01*
M02*
