G04 (created by PCBNEW (2013-07-07 BZR 4022)-stable) date 08/12/2013 20:44:26*
%MOIN*%
G04 Gerber Fmt 3.4, Leading zero omitted, Abs format*
%FSLAX34Y34*%
G01*
G70*
G90*
G04 APERTURE LIST*
%ADD10C,0.00590551*%
%ADD11C,0.011811*%
%ADD12C,0.006*%
%ADD13C,0.005*%
%ADD14C,0.015*%
%ADD15C,0.0026*%
%ADD16C,0.004*%
%ADD17C,0.012*%
%ADD18C,0.0001*%
%ADD19C,0.01*%
%ADD20C,0.0035*%
%ADD21C,0.0039*%
%ADD22C,0.008*%
%ADD23C,0.0059*%
G04 APERTURE END LIST*
G54D10*
G54D11*
X51098Y-60239D02*
X50901Y-59957D01*
X50761Y-60239D02*
X50761Y-59648D01*
X50986Y-59648D01*
X51042Y-59676D01*
X51070Y-59704D01*
X51098Y-59760D01*
X51098Y-59845D01*
X51070Y-59901D01*
X51042Y-59929D01*
X50986Y-59957D01*
X50761Y-59957D01*
X51351Y-59648D02*
X51351Y-60126D01*
X51379Y-60182D01*
X51408Y-60210D01*
X51464Y-60239D01*
X51576Y-60239D01*
X51633Y-60210D01*
X51661Y-60182D01*
X51689Y-60126D01*
X51689Y-59648D01*
X51942Y-60210D02*
X52026Y-60239D01*
X52167Y-60239D01*
X52223Y-60210D01*
X52251Y-60182D01*
X52279Y-60126D01*
X52279Y-60070D01*
X52251Y-60014D01*
X52223Y-59985D01*
X52167Y-59957D01*
X52054Y-59929D01*
X51998Y-59901D01*
X51970Y-59873D01*
X51942Y-59817D01*
X51942Y-59760D01*
X51970Y-59704D01*
X51998Y-59676D01*
X52054Y-59648D01*
X52195Y-59648D01*
X52279Y-59676D01*
X52532Y-59929D02*
X52729Y-59929D01*
X52814Y-60239D02*
X52532Y-60239D01*
X52532Y-59648D01*
X52814Y-59648D01*
X53264Y-59929D02*
X53067Y-59929D01*
X53067Y-60239D02*
X53067Y-59648D01*
X53348Y-59648D01*
X53573Y-60239D02*
X53573Y-59648D01*
X53854Y-60182D02*
X53882Y-60210D01*
X53854Y-60239D01*
X53826Y-60210D01*
X53854Y-60182D01*
X53854Y-60239D01*
X54473Y-60182D02*
X54445Y-60210D01*
X54360Y-60239D01*
X54304Y-60239D01*
X54220Y-60210D01*
X54163Y-60154D01*
X54135Y-60098D01*
X54107Y-59985D01*
X54107Y-59901D01*
X54135Y-59789D01*
X54163Y-59732D01*
X54220Y-59676D01*
X54304Y-59648D01*
X54360Y-59648D01*
X54445Y-59676D01*
X54473Y-59704D01*
X54838Y-59648D02*
X54951Y-59648D01*
X55007Y-59676D01*
X55063Y-59732D01*
X55091Y-59845D01*
X55091Y-60042D01*
X55063Y-60154D01*
X55007Y-60210D01*
X54951Y-60239D01*
X54838Y-60239D01*
X54782Y-60210D01*
X54726Y-60154D01*
X54698Y-60042D01*
X54698Y-59845D01*
X54726Y-59732D01*
X54782Y-59676D01*
X54838Y-59648D01*
X55345Y-60239D02*
X55345Y-59648D01*
X55541Y-60070D01*
X55738Y-59648D01*
X55738Y-60239D01*
X51984Y-61183D02*
X51787Y-60902D01*
X51647Y-61183D02*
X51647Y-60593D01*
X51872Y-60593D01*
X51928Y-60621D01*
X51956Y-60649D01*
X51984Y-60705D01*
X51984Y-60790D01*
X51956Y-60846D01*
X51928Y-60874D01*
X51872Y-60902D01*
X51647Y-60902D01*
X52237Y-60874D02*
X52434Y-60874D01*
X52518Y-61183D02*
X52237Y-61183D01*
X52237Y-60593D01*
X52518Y-60593D01*
X52687Y-60593D02*
X52884Y-61183D01*
X53081Y-60593D01*
X53728Y-61127D02*
X53756Y-61155D01*
X53728Y-61183D01*
X53699Y-61155D01*
X53728Y-61127D01*
X53728Y-61183D01*
X54121Y-60593D02*
X54178Y-60593D01*
X54234Y-60621D01*
X54262Y-60649D01*
X54290Y-60705D01*
X54318Y-60818D01*
X54318Y-60958D01*
X54290Y-61071D01*
X54262Y-61127D01*
X54234Y-61155D01*
X54178Y-61183D01*
X54121Y-61183D01*
X54065Y-61155D01*
X54037Y-61127D01*
X54009Y-61071D01*
X53981Y-60958D01*
X53981Y-60818D01*
X54009Y-60705D01*
X54037Y-60649D01*
X54065Y-60621D01*
X54121Y-60593D01*
X54543Y-60649D02*
X54571Y-60621D01*
X54627Y-60593D01*
X54768Y-60593D01*
X54824Y-60621D01*
X54852Y-60649D01*
X54881Y-60705D01*
X54881Y-60762D01*
X54852Y-60846D01*
X54515Y-61183D01*
X54881Y-61183D01*
G54D12*
X37000Y-67250D02*
X36000Y-67250D01*
X36000Y-66250D02*
X37000Y-66250D01*
X36000Y-67250D02*
X36000Y-66250D01*
X37000Y-66250D02*
X37000Y-67250D01*
X65000Y-47500D02*
X65000Y-48500D01*
X64000Y-48500D02*
X64000Y-47500D01*
X65000Y-48500D02*
X64000Y-48500D01*
X64000Y-47500D02*
X65000Y-47500D01*
X37000Y-47500D02*
X37000Y-48500D01*
X36000Y-48500D02*
X36000Y-47500D01*
X37000Y-48500D02*
X36000Y-48500D01*
X36000Y-47500D02*
X37000Y-47500D01*
G54D13*
X57800Y-66000D02*
X58700Y-66000D01*
X58700Y-66000D02*
X58700Y-65350D01*
X57800Y-64650D02*
X57800Y-64000D01*
X57800Y-64000D02*
X58700Y-64000D01*
X58700Y-64000D02*
X58700Y-64650D01*
X57800Y-65350D02*
X57800Y-66000D01*
X57450Y-64000D02*
X56550Y-64000D01*
X56550Y-64000D02*
X56550Y-64650D01*
X57450Y-65350D02*
X57450Y-66000D01*
X57450Y-66000D02*
X56550Y-66000D01*
X56550Y-66000D02*
X56550Y-65350D01*
X57450Y-64650D02*
X57450Y-64000D01*
G54D14*
X63500Y-67750D02*
X63500Y-57750D01*
X65500Y-57750D02*
X65500Y-67750D01*
X65500Y-57750D02*
X63500Y-57750D01*
X63500Y-67750D02*
X65500Y-67750D01*
G54D13*
X37800Y-67250D02*
X38700Y-67250D01*
X38700Y-67250D02*
X38700Y-66600D01*
X37800Y-65900D02*
X37800Y-65250D01*
X37800Y-65250D02*
X38700Y-65250D01*
X38700Y-65250D02*
X38700Y-65900D01*
X37800Y-66600D02*
X37800Y-67250D01*
X61200Y-64000D02*
X60300Y-64000D01*
X60300Y-64000D02*
X60300Y-64650D01*
X61200Y-65350D02*
X61200Y-66000D01*
X61200Y-66000D02*
X60300Y-66000D01*
X60300Y-66000D02*
X60300Y-65350D01*
X61200Y-64650D02*
X61200Y-64000D01*
X59050Y-66000D02*
X59950Y-66000D01*
X59950Y-66000D02*
X59950Y-65350D01*
X59050Y-64650D02*
X59050Y-64000D01*
X59050Y-64000D02*
X59950Y-64000D01*
X59950Y-64000D02*
X59950Y-64650D01*
X59050Y-65350D02*
X59050Y-66000D01*
X39050Y-66250D02*
X39950Y-66250D01*
X39950Y-66250D02*
X39950Y-65600D01*
X39050Y-64900D02*
X39050Y-64250D01*
X39050Y-64250D02*
X39950Y-64250D01*
X39950Y-64250D02*
X39950Y-64900D01*
X39050Y-65600D02*
X39050Y-66250D01*
X57800Y-63000D02*
X58700Y-63000D01*
X58700Y-63000D02*
X58700Y-62350D01*
X57800Y-61650D02*
X57800Y-61000D01*
X57800Y-61000D02*
X58700Y-61000D01*
X58700Y-61000D02*
X58700Y-61650D01*
X57800Y-62350D02*
X57800Y-63000D01*
X57450Y-61000D02*
X56550Y-61000D01*
X56550Y-61000D02*
X56550Y-61650D01*
X57450Y-62350D02*
X57450Y-63000D01*
X57450Y-63000D02*
X56550Y-63000D01*
X56550Y-63000D02*
X56550Y-62350D01*
X57450Y-61650D02*
X57450Y-61000D01*
X37800Y-64000D02*
X38700Y-64000D01*
X38700Y-64000D02*
X38700Y-63350D01*
X37800Y-62650D02*
X37800Y-62000D01*
X37800Y-62000D02*
X38700Y-62000D01*
X38700Y-62000D02*
X38700Y-62650D01*
X37800Y-63350D02*
X37800Y-64000D01*
X39050Y-62750D02*
X39950Y-62750D01*
X39950Y-62750D02*
X39950Y-62100D01*
X39050Y-61400D02*
X39050Y-60750D01*
X39050Y-60750D02*
X39950Y-60750D01*
X39950Y-60750D02*
X39950Y-61400D01*
X39050Y-62100D02*
X39050Y-62750D01*
X59050Y-63000D02*
X59950Y-63000D01*
X59950Y-63000D02*
X59950Y-62350D01*
X59050Y-61650D02*
X59050Y-61000D01*
X59050Y-61000D02*
X59950Y-61000D01*
X59950Y-61000D02*
X59950Y-61650D01*
X59050Y-62350D02*
X59050Y-63000D01*
X61200Y-61000D02*
X60300Y-61000D01*
X60300Y-61000D02*
X60300Y-61650D01*
X61200Y-62350D02*
X61200Y-63000D01*
X61200Y-63000D02*
X60300Y-63000D01*
X60300Y-63000D02*
X60300Y-62350D01*
X61200Y-61650D02*
X61200Y-61000D01*
X48050Y-66500D02*
X48950Y-66500D01*
X48950Y-66500D02*
X48950Y-65850D01*
X48050Y-65150D02*
X48050Y-64500D01*
X48050Y-64500D02*
X48950Y-64500D01*
X48950Y-64500D02*
X48950Y-65150D01*
X48050Y-65850D02*
X48050Y-66500D01*
X42450Y-65500D02*
X41550Y-65500D01*
X41550Y-65500D02*
X41550Y-66150D01*
X42450Y-66850D02*
X42450Y-67500D01*
X42450Y-67500D02*
X41550Y-67500D01*
X41550Y-67500D02*
X41550Y-66850D01*
X42450Y-66150D02*
X42450Y-65500D01*
X47700Y-65500D02*
X46800Y-65500D01*
X46800Y-65500D02*
X46800Y-66150D01*
X47700Y-66850D02*
X47700Y-67500D01*
X47700Y-67500D02*
X46800Y-67500D01*
X46800Y-67500D02*
X46800Y-66850D01*
X47700Y-66150D02*
X47700Y-65500D01*
X49300Y-66500D02*
X50200Y-66500D01*
X50200Y-66500D02*
X50200Y-65850D01*
X49300Y-65150D02*
X49300Y-64500D01*
X49300Y-64500D02*
X50200Y-64500D01*
X50200Y-64500D02*
X50200Y-65150D01*
X49300Y-65850D02*
X49300Y-66500D01*
X46450Y-65500D02*
X45550Y-65500D01*
X45550Y-65500D02*
X45550Y-66150D01*
X46450Y-66850D02*
X46450Y-67500D01*
X46450Y-67500D02*
X45550Y-67500D01*
X45550Y-67500D02*
X45550Y-66850D01*
X46450Y-66150D02*
X46450Y-65500D01*
X51950Y-62500D02*
X51050Y-62500D01*
X51050Y-62500D02*
X51050Y-63150D01*
X51950Y-63850D02*
X51950Y-64500D01*
X51950Y-64500D02*
X51050Y-64500D01*
X51050Y-64500D02*
X51050Y-63850D01*
X51950Y-63150D02*
X51950Y-62500D01*
X41200Y-65500D02*
X40300Y-65500D01*
X40300Y-65500D02*
X40300Y-66150D01*
X41200Y-66850D02*
X41200Y-67500D01*
X41200Y-67500D02*
X40300Y-67500D01*
X40300Y-67500D02*
X40300Y-66850D01*
X41200Y-66150D02*
X41200Y-65500D01*
X48050Y-63250D02*
X48950Y-63250D01*
X48950Y-63250D02*
X48950Y-62600D01*
X48050Y-61900D02*
X48050Y-61250D01*
X48050Y-61250D02*
X48950Y-61250D01*
X48950Y-61250D02*
X48950Y-61900D01*
X48050Y-62600D02*
X48050Y-63250D01*
X42450Y-62000D02*
X41550Y-62000D01*
X41550Y-62000D02*
X41550Y-62650D01*
X42450Y-63350D02*
X42450Y-64000D01*
X42450Y-64000D02*
X41550Y-64000D01*
X41550Y-64000D02*
X41550Y-63350D01*
X42450Y-62650D02*
X42450Y-62000D01*
X46450Y-62000D02*
X45550Y-62000D01*
X45550Y-62000D02*
X45550Y-62650D01*
X46450Y-63350D02*
X46450Y-64000D01*
X46450Y-64000D02*
X45550Y-64000D01*
X45550Y-64000D02*
X45550Y-63350D01*
X46450Y-62650D02*
X46450Y-62000D01*
X41200Y-62000D02*
X40300Y-62000D01*
X40300Y-62000D02*
X40300Y-62650D01*
X41200Y-63350D02*
X41200Y-64000D01*
X41200Y-64000D02*
X40300Y-64000D01*
X40300Y-64000D02*
X40300Y-63350D01*
X41200Y-62650D02*
X41200Y-62000D01*
X57800Y-59750D02*
X58700Y-59750D01*
X58700Y-59750D02*
X58700Y-59100D01*
X57800Y-58400D02*
X57800Y-57750D01*
X57800Y-57750D02*
X58700Y-57750D01*
X58700Y-57750D02*
X58700Y-58400D01*
X57800Y-59100D02*
X57800Y-59750D01*
X41200Y-58750D02*
X40300Y-58750D01*
X40300Y-58750D02*
X40300Y-59400D01*
X41200Y-60100D02*
X41200Y-60750D01*
X41200Y-60750D02*
X40300Y-60750D01*
X40300Y-60750D02*
X40300Y-60100D01*
X41200Y-59400D02*
X41200Y-58750D01*
X46450Y-58750D02*
X45550Y-58750D01*
X45550Y-58750D02*
X45550Y-59400D01*
X46450Y-60100D02*
X46450Y-60750D01*
X46450Y-60750D02*
X45550Y-60750D01*
X45550Y-60750D02*
X45550Y-60100D01*
X46450Y-59400D02*
X46450Y-58750D01*
X42450Y-58750D02*
X41550Y-58750D01*
X41550Y-58750D02*
X41550Y-59400D01*
X42450Y-60100D02*
X42450Y-60750D01*
X42450Y-60750D02*
X41550Y-60750D01*
X41550Y-60750D02*
X41550Y-60100D01*
X42450Y-59400D02*
X42450Y-58750D01*
X48050Y-60000D02*
X48950Y-60000D01*
X48950Y-60000D02*
X48950Y-59350D01*
X48050Y-58650D02*
X48050Y-58000D01*
X48050Y-58000D02*
X48950Y-58000D01*
X48950Y-58000D02*
X48950Y-58650D01*
X48050Y-59350D02*
X48050Y-60000D01*
X44250Y-64550D02*
X44250Y-65450D01*
X44250Y-65450D02*
X44900Y-65450D01*
X45600Y-64550D02*
X46250Y-64550D01*
X46250Y-64550D02*
X46250Y-65450D01*
X46250Y-65450D02*
X45600Y-65450D01*
X44900Y-64550D02*
X44250Y-64550D01*
X42000Y-64550D02*
X42000Y-65450D01*
X42000Y-65450D02*
X42650Y-65450D01*
X43350Y-64550D02*
X44000Y-64550D01*
X44000Y-64550D02*
X44000Y-65450D01*
X44000Y-65450D02*
X43350Y-65450D01*
X42650Y-64550D02*
X42000Y-64550D01*
X37800Y-60750D02*
X38700Y-60750D01*
X38700Y-60750D02*
X38700Y-60100D01*
X37800Y-59400D02*
X37800Y-58750D01*
X37800Y-58750D02*
X38700Y-58750D01*
X38700Y-58750D02*
X38700Y-59400D01*
X37800Y-60100D02*
X37800Y-60750D01*
X57450Y-57750D02*
X56550Y-57750D01*
X56550Y-57750D02*
X56550Y-58400D01*
X57450Y-59100D02*
X57450Y-59750D01*
X57450Y-59750D02*
X56550Y-59750D01*
X56550Y-59750D02*
X56550Y-59100D01*
X57450Y-58400D02*
X57450Y-57750D01*
X54250Y-54300D02*
X54250Y-55200D01*
X54250Y-55200D02*
X54900Y-55200D01*
X55600Y-54300D02*
X56250Y-54300D01*
X56250Y-54300D02*
X56250Y-55200D01*
X56250Y-55200D02*
X55600Y-55200D01*
X54900Y-54300D02*
X54250Y-54300D01*
G54D12*
X51000Y-55000D02*
X51000Y-54000D01*
X51000Y-54000D02*
X54000Y-54000D01*
X54000Y-54000D02*
X54000Y-55000D01*
X54000Y-55000D02*
X51000Y-55000D01*
X52000Y-54000D02*
X52000Y-55000D01*
G54D15*
X55711Y-53211D02*
X55711Y-53289D01*
X55711Y-53289D02*
X55789Y-53289D01*
X55789Y-53211D02*
X55789Y-53289D01*
X55711Y-53211D02*
X55789Y-53211D01*
X55475Y-53427D02*
X55475Y-53564D01*
X55475Y-53564D02*
X55573Y-53564D01*
X55573Y-53427D02*
X55573Y-53564D01*
X55475Y-53427D02*
X55573Y-53427D01*
X55475Y-53564D02*
X55475Y-53604D01*
X55475Y-53604D02*
X55946Y-53604D01*
X55946Y-53564D02*
X55946Y-53604D01*
X55475Y-53564D02*
X55946Y-53564D01*
X55966Y-53564D02*
X55966Y-53604D01*
X55966Y-53604D02*
X56025Y-53604D01*
X56025Y-53564D02*
X56025Y-53604D01*
X55966Y-53564D02*
X56025Y-53564D01*
X55475Y-52896D02*
X55475Y-52936D01*
X55475Y-52936D02*
X55946Y-52936D01*
X55946Y-52896D02*
X55946Y-52936D01*
X55475Y-52896D02*
X55946Y-52896D01*
X55966Y-52896D02*
X55966Y-52936D01*
X55966Y-52936D02*
X56025Y-52936D01*
X56025Y-52896D02*
X56025Y-52936D01*
X55966Y-52896D02*
X56025Y-52896D01*
X55475Y-53427D02*
X55475Y-53486D01*
X55475Y-53486D02*
X55573Y-53486D01*
X55573Y-53427D02*
X55573Y-53486D01*
X55475Y-53427D02*
X55573Y-53427D01*
G54D16*
X55455Y-53860D02*
X55455Y-52640D01*
X55455Y-52640D02*
X56045Y-52640D01*
X56045Y-52640D02*
X56045Y-53860D01*
X56045Y-53860D02*
X55455Y-53860D01*
X55553Y-53034D02*
G75*
G03X55554Y-53466I196J-215D01*
G74*
G01*
X55946Y-53034D02*
G75*
G03X55554Y-53033I-196J-215D01*
G74*
G01*
X55946Y-53465D02*
G75*
G03X55945Y-53033I-196J215D01*
G74*
G01*
X55553Y-53465D02*
G75*
G03X55945Y-53466I196J215D01*
G74*
G01*
G54D13*
X43625Y-63525D02*
X43625Y-63785D01*
X42875Y-63525D02*
X42875Y-63785D01*
X43250Y-62975D02*
X43250Y-62715D01*
X42660Y-62975D02*
X43840Y-62975D01*
X43840Y-62975D02*
X43840Y-63525D01*
X43840Y-63525D02*
X42660Y-63525D01*
X42660Y-63525D02*
X42660Y-62975D01*
X45125Y-53275D02*
X45125Y-53535D01*
X44375Y-53275D02*
X44375Y-53535D01*
X44750Y-52725D02*
X44750Y-52465D01*
X44160Y-52725D02*
X45340Y-52725D01*
X45340Y-52725D02*
X45340Y-53275D01*
X45340Y-53275D02*
X44160Y-53275D01*
X44160Y-53275D02*
X44160Y-52725D01*
X43625Y-53275D02*
X43625Y-53535D01*
X42875Y-53275D02*
X42875Y-53535D01*
X43250Y-52725D02*
X43250Y-52465D01*
X42660Y-52725D02*
X43840Y-52725D01*
X43840Y-52725D02*
X43840Y-53275D01*
X43840Y-53275D02*
X42660Y-53275D01*
X42660Y-53275D02*
X42660Y-52725D01*
X45125Y-66775D02*
X45125Y-67035D01*
X44375Y-66775D02*
X44375Y-67035D01*
X44750Y-66225D02*
X44750Y-65965D01*
X44160Y-66225D02*
X45340Y-66225D01*
X45340Y-66225D02*
X45340Y-66775D01*
X45340Y-66775D02*
X44160Y-66775D01*
X44160Y-66775D02*
X44160Y-66225D01*
X45125Y-63525D02*
X45125Y-63785D01*
X44375Y-63525D02*
X44375Y-63785D01*
X44750Y-62975D02*
X44750Y-62715D01*
X44160Y-62975D02*
X45340Y-62975D01*
X45340Y-62975D02*
X45340Y-63525D01*
X45340Y-63525D02*
X44160Y-63525D01*
X44160Y-63525D02*
X44160Y-62975D01*
X57800Y-53000D02*
X58700Y-53000D01*
X58700Y-53000D02*
X58700Y-52350D01*
X57800Y-51650D02*
X57800Y-51000D01*
X57800Y-51000D02*
X58700Y-51000D01*
X58700Y-51000D02*
X58700Y-51650D01*
X57800Y-52350D02*
X57800Y-53000D01*
X57450Y-51000D02*
X56550Y-51000D01*
X56550Y-51000D02*
X56550Y-51650D01*
X57450Y-52350D02*
X57450Y-53000D01*
X57450Y-53000D02*
X56550Y-53000D01*
X56550Y-53000D02*
X56550Y-52350D01*
X57450Y-51650D02*
X57450Y-51000D01*
X38700Y-51750D02*
X37800Y-51750D01*
X37800Y-51750D02*
X37800Y-52400D01*
X38700Y-53100D02*
X38700Y-53750D01*
X38700Y-53750D02*
X37800Y-53750D01*
X37800Y-53750D02*
X37800Y-53100D01*
X38700Y-52400D02*
X38700Y-51750D01*
X39050Y-52500D02*
X39950Y-52500D01*
X39950Y-52500D02*
X39950Y-51850D01*
X39050Y-51150D02*
X39050Y-50500D01*
X39050Y-50500D02*
X39950Y-50500D01*
X39950Y-50500D02*
X39950Y-51150D01*
X39050Y-51850D02*
X39050Y-52500D01*
X59050Y-53000D02*
X59950Y-53000D01*
X59950Y-53000D02*
X59950Y-52350D01*
X59050Y-51650D02*
X59050Y-51000D01*
X59050Y-51000D02*
X59950Y-51000D01*
X59950Y-51000D02*
X59950Y-51650D01*
X59050Y-52350D02*
X59050Y-53000D01*
X61200Y-51000D02*
X60300Y-51000D01*
X60300Y-51000D02*
X60300Y-51650D01*
X61200Y-52350D02*
X61200Y-53000D01*
X61200Y-53000D02*
X60300Y-53000D01*
X60300Y-53000D02*
X60300Y-52350D01*
X61200Y-51650D02*
X61200Y-51000D01*
X48050Y-53250D02*
X48950Y-53250D01*
X48950Y-53250D02*
X48950Y-52600D01*
X48050Y-51900D02*
X48050Y-51250D01*
X48050Y-51250D02*
X48950Y-51250D01*
X48950Y-51250D02*
X48950Y-51900D01*
X48050Y-52600D02*
X48050Y-53250D01*
X49300Y-53250D02*
X50200Y-53250D01*
X50200Y-53250D02*
X50200Y-52600D01*
X49300Y-51900D02*
X49300Y-51250D01*
X49300Y-51250D02*
X50200Y-51250D01*
X50200Y-51250D02*
X50200Y-51900D01*
X49300Y-52600D02*
X49300Y-53250D01*
X42450Y-51750D02*
X41550Y-51750D01*
X41550Y-51750D02*
X41550Y-52400D01*
X42450Y-53100D02*
X42450Y-53750D01*
X42450Y-53750D02*
X41550Y-53750D01*
X41550Y-53750D02*
X41550Y-53100D01*
X42450Y-52400D02*
X42450Y-51750D01*
X46450Y-51750D02*
X45550Y-51750D01*
X45550Y-51750D02*
X45550Y-52400D01*
X46450Y-53100D02*
X46450Y-53750D01*
X46450Y-53750D02*
X45550Y-53750D01*
X45550Y-53750D02*
X45550Y-53100D01*
X46450Y-52400D02*
X46450Y-51750D01*
X47700Y-51750D02*
X46800Y-51750D01*
X46800Y-51750D02*
X46800Y-52400D01*
X47700Y-53100D02*
X47700Y-53750D01*
X47700Y-53750D02*
X46800Y-53750D01*
X46800Y-53750D02*
X46800Y-53100D01*
X47700Y-52400D02*
X47700Y-51750D01*
X41200Y-51750D02*
X40300Y-51750D01*
X40300Y-51750D02*
X40300Y-52400D01*
X41200Y-53100D02*
X41200Y-53750D01*
X41200Y-53750D02*
X40300Y-53750D01*
X40300Y-53750D02*
X40300Y-53100D01*
X41200Y-52400D02*
X41200Y-51750D01*
X43625Y-66775D02*
X43625Y-67035D01*
X42875Y-66775D02*
X42875Y-67035D01*
X43250Y-66225D02*
X43250Y-65965D01*
X42660Y-66225D02*
X43840Y-66225D01*
X43840Y-66225D02*
X43840Y-66775D01*
X43840Y-66775D02*
X42660Y-66775D01*
X42660Y-66775D02*
X42660Y-66225D01*
G54D17*
X35750Y-49750D02*
X36750Y-49750D01*
X36750Y-49750D02*
X36750Y-55750D01*
X36750Y-55750D02*
X35750Y-55750D01*
X35750Y-55750D02*
X35750Y-49750D01*
X35750Y-50750D02*
X36750Y-50750D01*
G54D13*
X49300Y-63250D02*
X50200Y-63250D01*
X50200Y-63250D02*
X50200Y-62600D01*
X49300Y-61900D02*
X49300Y-61250D01*
X49300Y-61250D02*
X50200Y-61250D01*
X50200Y-61250D02*
X50200Y-61900D01*
X49300Y-62600D02*
X49300Y-63250D01*
X47700Y-62000D02*
X46800Y-62000D01*
X46800Y-62000D02*
X46800Y-62650D01*
X47700Y-63350D02*
X47700Y-64000D01*
X47700Y-64000D02*
X46800Y-64000D01*
X46800Y-64000D02*
X46800Y-63350D01*
X47700Y-62650D02*
X47700Y-62000D01*
X51050Y-51250D02*
X51950Y-51250D01*
X51950Y-51250D02*
X51950Y-50600D01*
X51050Y-49900D02*
X51050Y-49250D01*
X51050Y-49250D02*
X51950Y-49250D01*
X51950Y-49250D02*
X51950Y-49900D01*
X51050Y-50600D02*
X51050Y-51250D01*
X49300Y-60000D02*
X50200Y-60000D01*
X50200Y-60000D02*
X50200Y-59350D01*
X49300Y-58650D02*
X49300Y-58000D01*
X49300Y-58000D02*
X50200Y-58000D01*
X50200Y-58000D02*
X50200Y-58650D01*
X49300Y-59350D02*
X49300Y-60000D01*
X47700Y-58750D02*
X46800Y-58750D01*
X46800Y-58750D02*
X46800Y-59400D01*
X47700Y-60100D02*
X47700Y-60750D01*
X47700Y-60750D02*
X46800Y-60750D01*
X46800Y-60750D02*
X46800Y-60100D01*
X47700Y-59400D02*
X47700Y-58750D01*
X39050Y-59500D02*
X39950Y-59500D01*
X39950Y-59500D02*
X39950Y-58850D01*
X39050Y-58150D02*
X39050Y-57500D01*
X39050Y-57500D02*
X39950Y-57500D01*
X39950Y-57500D02*
X39950Y-58150D01*
X39050Y-58850D02*
X39050Y-59500D01*
X47700Y-55500D02*
X46800Y-55500D01*
X46800Y-55500D02*
X46800Y-56150D01*
X47700Y-56850D02*
X47700Y-57500D01*
X47700Y-57500D02*
X46800Y-57500D01*
X46800Y-57500D02*
X46800Y-56850D01*
X47700Y-56150D02*
X47700Y-55500D01*
X49300Y-56500D02*
X50200Y-56500D01*
X50200Y-56500D02*
X50200Y-55850D01*
X49300Y-55150D02*
X49300Y-54500D01*
X49300Y-54500D02*
X50200Y-54500D01*
X50200Y-54500D02*
X50200Y-55150D01*
X49300Y-55850D02*
X49300Y-56500D01*
X51950Y-56250D02*
X51050Y-56250D01*
X51050Y-56250D02*
X51050Y-56900D01*
X51950Y-57600D02*
X51950Y-58250D01*
X51950Y-58250D02*
X51050Y-58250D01*
X51050Y-58250D02*
X51050Y-57600D01*
X51950Y-56900D02*
X51950Y-56250D01*
X57450Y-54500D02*
X56550Y-54500D01*
X56550Y-54500D02*
X56550Y-55150D01*
X57450Y-55850D02*
X57450Y-56500D01*
X57450Y-56500D02*
X56550Y-56500D01*
X56550Y-56500D02*
X56550Y-55850D01*
X57450Y-55150D02*
X57450Y-54500D01*
X57800Y-56500D02*
X58700Y-56500D01*
X58700Y-56500D02*
X58700Y-55850D01*
X57800Y-55150D02*
X57800Y-54500D01*
X57800Y-54500D02*
X58700Y-54500D01*
X58700Y-54500D02*
X58700Y-55150D01*
X57800Y-55850D02*
X57800Y-56500D01*
X41200Y-55500D02*
X40300Y-55500D01*
X40300Y-55500D02*
X40300Y-56150D01*
X41200Y-56850D02*
X41200Y-57500D01*
X41200Y-57500D02*
X40300Y-57500D01*
X40300Y-57500D02*
X40300Y-56850D01*
X41200Y-56150D02*
X41200Y-55500D01*
X46450Y-55500D02*
X45550Y-55500D01*
X45550Y-55500D02*
X45550Y-56150D01*
X46450Y-56850D02*
X46450Y-57500D01*
X46450Y-57500D02*
X45550Y-57500D01*
X45550Y-57500D02*
X45550Y-56850D01*
X46450Y-56150D02*
X46450Y-55500D01*
X42450Y-55500D02*
X41550Y-55500D01*
X41550Y-55500D02*
X41550Y-56150D01*
X42450Y-56850D02*
X42450Y-57500D01*
X42450Y-57500D02*
X41550Y-57500D01*
X41550Y-57500D02*
X41550Y-56850D01*
X42450Y-56150D02*
X42450Y-55500D01*
X48050Y-56500D02*
X48950Y-56500D01*
X48950Y-56500D02*
X48950Y-55850D01*
X48050Y-55150D02*
X48050Y-54500D01*
X48050Y-54500D02*
X48950Y-54500D01*
X48950Y-54500D02*
X48950Y-55150D01*
X48050Y-55850D02*
X48050Y-56500D01*
X61200Y-54500D02*
X60300Y-54500D01*
X60300Y-54500D02*
X60300Y-55150D01*
X61200Y-55850D02*
X61200Y-56500D01*
X61200Y-56500D02*
X60300Y-56500D01*
X60300Y-56500D02*
X60300Y-55850D01*
X61200Y-55150D02*
X61200Y-54500D01*
X59050Y-56500D02*
X59950Y-56500D01*
X59950Y-56500D02*
X59950Y-55850D01*
X59050Y-55150D02*
X59050Y-54500D01*
X59050Y-54500D02*
X59950Y-54500D01*
X59950Y-54500D02*
X59950Y-55150D01*
X59050Y-55850D02*
X59050Y-56500D01*
X39050Y-56000D02*
X39950Y-56000D01*
X39950Y-56000D02*
X39950Y-55350D01*
X39050Y-54650D02*
X39050Y-54000D01*
X39050Y-54000D02*
X39950Y-54000D01*
X39950Y-54000D02*
X39950Y-54650D01*
X39050Y-55350D02*
X39050Y-56000D01*
X37800Y-57500D02*
X38700Y-57500D01*
X38700Y-57500D02*
X38700Y-56850D01*
X37800Y-56150D02*
X37800Y-55500D01*
X37800Y-55500D02*
X38700Y-55500D01*
X38700Y-55500D02*
X38700Y-56150D01*
X37800Y-56850D02*
X37800Y-57500D01*
X45125Y-60275D02*
X45125Y-60535D01*
X44375Y-60275D02*
X44375Y-60535D01*
X44750Y-59725D02*
X44750Y-59465D01*
X44160Y-59725D02*
X45340Y-59725D01*
X45340Y-59725D02*
X45340Y-60275D01*
X45340Y-60275D02*
X44160Y-60275D01*
X44160Y-60275D02*
X44160Y-59725D01*
X43625Y-60275D02*
X43625Y-60535D01*
X42875Y-60275D02*
X42875Y-60535D01*
X43250Y-59725D02*
X43250Y-59465D01*
X42660Y-59725D02*
X43840Y-59725D01*
X43840Y-59725D02*
X43840Y-60275D01*
X43840Y-60275D02*
X42660Y-60275D01*
X42660Y-60275D02*
X42660Y-59725D01*
X45125Y-56775D02*
X45125Y-57035D01*
X44375Y-56775D02*
X44375Y-57035D01*
X44750Y-56225D02*
X44750Y-55965D01*
X44160Y-56225D02*
X45340Y-56225D01*
X45340Y-56225D02*
X45340Y-56775D01*
X45340Y-56775D02*
X44160Y-56775D01*
X44160Y-56775D02*
X44160Y-56225D01*
X43625Y-56775D02*
X43625Y-57035D01*
X42875Y-56775D02*
X42875Y-57035D01*
X43250Y-56225D02*
X43250Y-55965D01*
X42660Y-56225D02*
X43840Y-56225D01*
X43840Y-56225D02*
X43840Y-56775D01*
X43840Y-56775D02*
X42660Y-56775D01*
X42660Y-56775D02*
X42660Y-56225D01*
X42000Y-61050D02*
X42000Y-61950D01*
X42000Y-61950D02*
X42650Y-61950D01*
X43350Y-61050D02*
X44000Y-61050D01*
X44000Y-61050D02*
X44000Y-61950D01*
X44000Y-61950D02*
X43350Y-61950D01*
X42650Y-61050D02*
X42000Y-61050D01*
X44250Y-61050D02*
X44250Y-61950D01*
X44250Y-61950D02*
X44900Y-61950D01*
X45600Y-61050D02*
X46250Y-61050D01*
X46250Y-61050D02*
X46250Y-61950D01*
X46250Y-61950D02*
X45600Y-61950D01*
X44900Y-61050D02*
X44250Y-61050D01*
X42000Y-57800D02*
X42000Y-58700D01*
X42000Y-58700D02*
X42650Y-58700D01*
X43350Y-57800D02*
X44000Y-57800D01*
X44000Y-57800D02*
X44000Y-58700D01*
X44000Y-58700D02*
X43350Y-58700D01*
X42650Y-57800D02*
X42000Y-57800D01*
X44250Y-57800D02*
X44250Y-58700D01*
X44250Y-58700D02*
X44900Y-58700D01*
X45600Y-57800D02*
X46250Y-57800D01*
X46250Y-57800D02*
X46250Y-58700D01*
X46250Y-58700D02*
X45600Y-58700D01*
X44900Y-57800D02*
X44250Y-57800D01*
X44250Y-50800D02*
X44250Y-51700D01*
X44250Y-51700D02*
X44900Y-51700D01*
X45600Y-50800D02*
X46250Y-50800D01*
X46250Y-50800D02*
X46250Y-51700D01*
X46250Y-51700D02*
X45600Y-51700D01*
X44900Y-50800D02*
X44250Y-50800D01*
X42000Y-50800D02*
X42000Y-51700D01*
X42000Y-51700D02*
X42650Y-51700D01*
X43350Y-50800D02*
X44000Y-50800D01*
X44000Y-50800D02*
X44000Y-51700D01*
X44000Y-51700D02*
X43350Y-51700D01*
X42650Y-50800D02*
X42000Y-50800D01*
X44250Y-54300D02*
X44250Y-55200D01*
X44250Y-55200D02*
X44900Y-55200D01*
X45600Y-54300D02*
X46250Y-54300D01*
X46250Y-54300D02*
X46250Y-55200D01*
X46250Y-55200D02*
X45600Y-55200D01*
X44900Y-54300D02*
X44250Y-54300D01*
X42000Y-54300D02*
X42000Y-55200D01*
X42000Y-55200D02*
X42650Y-55200D01*
X43350Y-54300D02*
X44000Y-54300D01*
X44000Y-54300D02*
X44000Y-55200D01*
X44000Y-55200D02*
X43350Y-55200D01*
X42650Y-54300D02*
X42000Y-54300D01*
X59050Y-59750D02*
X59950Y-59750D01*
X59950Y-59750D02*
X59950Y-59100D01*
X59050Y-58400D02*
X59050Y-57750D01*
X59050Y-57750D02*
X59950Y-57750D01*
X59950Y-57750D02*
X59950Y-58400D01*
X59050Y-59100D02*
X59050Y-59750D01*
X61200Y-57750D02*
X60300Y-57750D01*
X60300Y-57750D02*
X60300Y-58400D01*
X61200Y-59100D02*
X61200Y-59750D01*
X61200Y-59750D02*
X60300Y-59750D01*
X60300Y-59750D02*
X60300Y-59100D01*
X61200Y-58400D02*
X61200Y-57750D01*
X55700Y-64280D02*
X55700Y-62720D01*
X55700Y-62720D02*
X52300Y-62720D01*
X52300Y-62720D02*
X52300Y-64280D01*
X52300Y-64280D02*
X55700Y-64280D01*
X55000Y-64280D02*
X55000Y-64710D01*
X54500Y-64280D02*
X54500Y-64710D01*
X54000Y-64280D02*
X54000Y-64710D01*
X55500Y-64280D02*
X55500Y-64710D01*
X53500Y-64710D02*
X53500Y-64280D01*
X53000Y-64710D02*
X53000Y-64280D01*
X52500Y-64710D02*
X52500Y-64280D01*
X52500Y-62720D02*
X52500Y-62290D01*
X53000Y-62720D02*
X53000Y-62290D01*
X55500Y-62720D02*
X55500Y-62290D01*
X55000Y-62290D02*
X55000Y-62720D01*
X53500Y-62290D02*
X53500Y-62720D01*
X54000Y-62290D02*
X54000Y-62720D01*
X54500Y-62290D02*
X54500Y-62720D01*
X55596Y-63010D02*
G75*
G03X55596Y-63010I-186J0D01*
G74*
G01*
X55700Y-58030D02*
X55700Y-56470D01*
X55700Y-56470D02*
X52300Y-56470D01*
X52300Y-56470D02*
X52300Y-58030D01*
X52300Y-58030D02*
X55700Y-58030D01*
X55000Y-58030D02*
X55000Y-58460D01*
X54500Y-58030D02*
X54500Y-58460D01*
X54000Y-58030D02*
X54000Y-58460D01*
X55500Y-58030D02*
X55500Y-58460D01*
X53500Y-58460D02*
X53500Y-58030D01*
X53000Y-58460D02*
X53000Y-58030D01*
X52500Y-58460D02*
X52500Y-58030D01*
X52500Y-56470D02*
X52500Y-56040D01*
X53000Y-56470D02*
X53000Y-56040D01*
X55500Y-56470D02*
X55500Y-56040D01*
X55000Y-56040D02*
X55000Y-56470D01*
X53500Y-56040D02*
X53500Y-56470D01*
X54000Y-56040D02*
X54000Y-56470D01*
X54500Y-56040D02*
X54500Y-56470D01*
X55596Y-56760D02*
G75*
G03X55596Y-56760I-186J0D01*
G74*
G01*
X55700Y-51030D02*
X55700Y-49470D01*
X55700Y-49470D02*
X52300Y-49470D01*
X52300Y-49470D02*
X52300Y-51030D01*
X52300Y-51030D02*
X55700Y-51030D01*
X55000Y-51030D02*
X55000Y-51460D01*
X54500Y-51030D02*
X54500Y-51460D01*
X54000Y-51030D02*
X54000Y-51460D01*
X55500Y-51030D02*
X55500Y-51460D01*
X53500Y-51460D02*
X53500Y-51030D01*
X53000Y-51460D02*
X53000Y-51030D01*
X52500Y-51460D02*
X52500Y-51030D01*
X52500Y-49470D02*
X52500Y-49040D01*
X53000Y-49470D02*
X53000Y-49040D01*
X55500Y-49470D02*
X55500Y-49040D01*
X55000Y-49040D02*
X55000Y-49470D01*
X53500Y-49040D02*
X53500Y-49470D01*
X54000Y-49040D02*
X54000Y-49470D01*
X54500Y-49040D02*
X54500Y-49470D01*
X55596Y-49760D02*
G75*
G03X55596Y-49760I-186J0D01*
G74*
G01*
X43625Y-49775D02*
X43625Y-50035D01*
X42875Y-49775D02*
X42875Y-50035D01*
X43250Y-49225D02*
X43250Y-48965D01*
X42660Y-49225D02*
X43840Y-49225D01*
X43840Y-49225D02*
X43840Y-49775D01*
X43840Y-49775D02*
X42660Y-49775D01*
X42660Y-49775D02*
X42660Y-49225D01*
X45125Y-49775D02*
X45125Y-50035D01*
X44375Y-49775D02*
X44375Y-50035D01*
X44750Y-49225D02*
X44750Y-48965D01*
X44160Y-49225D02*
X45340Y-49225D01*
X45340Y-49225D02*
X45340Y-49775D01*
X45340Y-49775D02*
X44160Y-49775D01*
X44160Y-49775D02*
X44160Y-49225D01*
X57800Y-49750D02*
X58700Y-49750D01*
X58700Y-49750D02*
X58700Y-49100D01*
X57800Y-48400D02*
X57800Y-47750D01*
X57800Y-47750D02*
X58700Y-47750D01*
X58700Y-47750D02*
X58700Y-48400D01*
X57800Y-49100D02*
X57800Y-49750D01*
X57450Y-47750D02*
X56550Y-47750D01*
X56550Y-47750D02*
X56550Y-48400D01*
X57450Y-49100D02*
X57450Y-49750D01*
X57450Y-49750D02*
X56550Y-49750D01*
X56550Y-49750D02*
X56550Y-49100D01*
X57450Y-48400D02*
X57450Y-47750D01*
X38700Y-48250D02*
X37800Y-48250D01*
X37800Y-48250D02*
X37800Y-48900D01*
X38700Y-49600D02*
X38700Y-50250D01*
X38700Y-50250D02*
X37800Y-50250D01*
X37800Y-50250D02*
X37800Y-49600D01*
X38700Y-48900D02*
X38700Y-48250D01*
X39050Y-49250D02*
X39950Y-49250D01*
X39950Y-49250D02*
X39950Y-48600D01*
X39050Y-47900D02*
X39050Y-47250D01*
X39050Y-47250D02*
X39950Y-47250D01*
X39950Y-47250D02*
X39950Y-47900D01*
X39050Y-48600D02*
X39050Y-49250D01*
X59050Y-49750D02*
X59950Y-49750D01*
X59950Y-49750D02*
X59950Y-49100D01*
X59050Y-48400D02*
X59050Y-47750D01*
X59050Y-47750D02*
X59950Y-47750D01*
X59950Y-47750D02*
X59950Y-48400D01*
X59050Y-49100D02*
X59050Y-49750D01*
X61200Y-47750D02*
X60300Y-47750D01*
X60300Y-47750D02*
X60300Y-48400D01*
X61200Y-49100D02*
X61200Y-49750D01*
X61200Y-49750D02*
X60300Y-49750D01*
X60300Y-49750D02*
X60300Y-49100D01*
X61200Y-48400D02*
X61200Y-47750D01*
X48050Y-49750D02*
X48950Y-49750D01*
X48950Y-49750D02*
X48950Y-49100D01*
X48050Y-48400D02*
X48050Y-47750D01*
X48050Y-47750D02*
X48950Y-47750D01*
X48950Y-47750D02*
X48950Y-48400D01*
X48050Y-49100D02*
X48050Y-49750D01*
X49300Y-49750D02*
X50200Y-49750D01*
X50200Y-49750D02*
X50200Y-49100D01*
X49300Y-48400D02*
X49300Y-47750D01*
X49300Y-47750D02*
X50200Y-47750D01*
X50200Y-47750D02*
X50200Y-48400D01*
X49300Y-49100D02*
X49300Y-49750D01*
X42450Y-48250D02*
X41550Y-48250D01*
X41550Y-48250D02*
X41550Y-48900D01*
X42450Y-49600D02*
X42450Y-50250D01*
X42450Y-50250D02*
X41550Y-50250D01*
X41550Y-50250D02*
X41550Y-49600D01*
X42450Y-48900D02*
X42450Y-48250D01*
X46450Y-48250D02*
X45550Y-48250D01*
X45550Y-48250D02*
X45550Y-48900D01*
X46450Y-49600D02*
X46450Y-50250D01*
X46450Y-50250D02*
X45550Y-50250D01*
X45550Y-50250D02*
X45550Y-49600D01*
X46450Y-48900D02*
X46450Y-48250D01*
X47700Y-48250D02*
X46800Y-48250D01*
X46800Y-48250D02*
X46800Y-48900D01*
X47700Y-49600D02*
X47700Y-50250D01*
X47700Y-50250D02*
X46800Y-50250D01*
X46800Y-50250D02*
X46800Y-49600D01*
X47700Y-48900D02*
X47700Y-48250D01*
X41200Y-48250D02*
X40300Y-48250D01*
X40300Y-48250D02*
X40300Y-48900D01*
X41200Y-49600D02*
X41200Y-50250D01*
X41200Y-50250D02*
X40300Y-50250D01*
X40300Y-50250D02*
X40300Y-49600D01*
X41200Y-48900D02*
X41200Y-48250D01*
X44250Y-47300D02*
X44250Y-48200D01*
X44250Y-48200D02*
X44900Y-48200D01*
X45600Y-47300D02*
X46250Y-47300D01*
X46250Y-47300D02*
X46250Y-48200D01*
X46250Y-48200D02*
X45600Y-48200D01*
X44900Y-47300D02*
X44250Y-47300D01*
X42000Y-47300D02*
X42000Y-48200D01*
X42000Y-48200D02*
X42650Y-48200D01*
X43350Y-47300D02*
X44000Y-47300D01*
X44000Y-47300D02*
X44000Y-48200D01*
X44000Y-48200D02*
X43350Y-48200D01*
X42650Y-47300D02*
X42000Y-47300D01*
G54D12*
X63000Y-64900D02*
X62000Y-64900D01*
X62000Y-63900D02*
X63000Y-63900D01*
X62000Y-64900D02*
X62000Y-63900D01*
X63000Y-63900D02*
X63000Y-64900D01*
X64500Y-56250D02*
X63500Y-56250D01*
X63500Y-55250D02*
X64500Y-55250D01*
X63500Y-56250D02*
X63500Y-55250D01*
X64500Y-55250D02*
X64500Y-56250D01*
G54D17*
X35750Y-58500D02*
X36750Y-58500D01*
X36750Y-58500D02*
X36750Y-64500D01*
X36750Y-64500D02*
X35750Y-64500D01*
X35750Y-64500D02*
X35750Y-58500D01*
X35750Y-59500D02*
X36750Y-59500D01*
X52000Y-53250D02*
X52000Y-52250D01*
X52000Y-52250D02*
X54000Y-52250D01*
X54000Y-52250D02*
X54000Y-53250D01*
X54000Y-53250D02*
X52000Y-53250D01*
X54500Y-48000D02*
X54500Y-47000D01*
X54500Y-47000D02*
X56500Y-47000D01*
X56500Y-47000D02*
X56500Y-48000D01*
X56500Y-48000D02*
X54500Y-48000D01*
G54D12*
X50500Y-48000D02*
X50500Y-47000D01*
X50500Y-47000D02*
X53500Y-47000D01*
X53500Y-47000D02*
X53500Y-48000D01*
X53500Y-48000D02*
X50500Y-48000D01*
X51500Y-47000D02*
X51500Y-48000D01*
G54D17*
X64060Y-50353D02*
X63353Y-51060D01*
X63353Y-51060D02*
X61939Y-49646D01*
X61939Y-49646D02*
X62646Y-48939D01*
X62646Y-48939D02*
X64060Y-50353D01*
X63310Y-51103D02*
X62603Y-51810D01*
X62603Y-51810D02*
X61189Y-50396D01*
X61189Y-50396D02*
X61896Y-49689D01*
X61896Y-49689D02*
X63310Y-51103D01*
G54D18*
G36*
X52820Y-65844D02*
X52819Y-66118D01*
X52758Y-66390D01*
X52640Y-66647D01*
X52471Y-66874D01*
X52411Y-66936D01*
X52209Y-67100D01*
X52002Y-67209D01*
X51771Y-67270D01*
X51550Y-67289D01*
X51316Y-67287D01*
X51135Y-67260D01*
X51084Y-67246D01*
X50817Y-67127D01*
X50586Y-66952D01*
X50390Y-66721D01*
X50276Y-66530D01*
X50234Y-66444D01*
X50207Y-66366D01*
X50192Y-66279D01*
X50185Y-66165D01*
X50183Y-66004D01*
X50183Y-65983D01*
X50185Y-65816D01*
X50191Y-65696D01*
X50206Y-65605D01*
X50232Y-65523D01*
X50273Y-65432D01*
X50279Y-65422D01*
X50410Y-65214D01*
X50588Y-65018D01*
X50792Y-64856D01*
X50919Y-64782D01*
X51013Y-64739D01*
X51094Y-64710D01*
X51183Y-64694D01*
X51297Y-64686D01*
X51457Y-64684D01*
X51484Y-64684D01*
X51649Y-64685D01*
X51768Y-64691D01*
X51858Y-64705D01*
X51940Y-64731D01*
X52033Y-64773D01*
X52067Y-64790D01*
X52278Y-64923D01*
X52476Y-65099D01*
X52637Y-65298D01*
X52664Y-65342D01*
X52739Y-65467D01*
X52539Y-65467D01*
X52416Y-65472D01*
X52346Y-65490D01*
X52321Y-65516D01*
X52327Y-65559D01*
X52355Y-65566D01*
X52391Y-65583D01*
X52392Y-65643D01*
X52389Y-65658D01*
X52375Y-65730D01*
X52354Y-65848D01*
X52327Y-65993D01*
X52312Y-66080D01*
X52281Y-66238D01*
X52254Y-66341D01*
X52227Y-66400D01*
X52197Y-66424D01*
X52193Y-66425D01*
X52188Y-66427D01*
X52188Y-65467D01*
X51811Y-65467D01*
X51644Y-65468D01*
X51533Y-65473D01*
X51468Y-65483D01*
X51439Y-65499D01*
X51433Y-65517D01*
X51460Y-65561D01*
X51483Y-65567D01*
X51506Y-65565D01*
X51521Y-65568D01*
X51527Y-65585D01*
X51524Y-65626D01*
X51510Y-65703D01*
X51486Y-65824D01*
X51450Y-66000D01*
X51418Y-66156D01*
X51392Y-66287D01*
X51374Y-66379D01*
X51367Y-66420D01*
X51367Y-66421D01*
X51339Y-66432D01*
X51317Y-66433D01*
X51288Y-66444D01*
X51288Y-65467D01*
X50911Y-65467D01*
X50744Y-65468D01*
X50633Y-65473D01*
X50568Y-65483D01*
X50539Y-65499D01*
X50533Y-65517D01*
X50560Y-65560D01*
X50585Y-65567D01*
X50623Y-65589D01*
X50621Y-65625D01*
X50608Y-65680D01*
X50585Y-65785D01*
X50557Y-65923D01*
X50530Y-66058D01*
X50490Y-66246D01*
X50454Y-66370D01*
X50424Y-66428D01*
X50414Y-66433D01*
X50359Y-66456D01*
X50350Y-66467D01*
X50372Y-66482D01*
X50457Y-66493D01*
X50603Y-66499D01*
X50731Y-66500D01*
X51133Y-66500D01*
X51133Y-66400D01*
X51118Y-66320D01*
X51083Y-66300D01*
X51039Y-66325D01*
X51033Y-66347D01*
X51004Y-66374D01*
X50931Y-66401D01*
X50839Y-66422D01*
X50750Y-66433D01*
X50688Y-66428D01*
X50677Y-66421D01*
X50671Y-66381D01*
X50674Y-66295D01*
X50682Y-66218D01*
X50705Y-66033D01*
X50836Y-66033D01*
X50918Y-66041D01*
X50964Y-66062D01*
X50967Y-66069D01*
X50980Y-66102D01*
X51010Y-66088D01*
X51045Y-66041D01*
X51070Y-65973D01*
X51070Y-65972D01*
X51077Y-65896D01*
X51055Y-65867D01*
X51046Y-65867D01*
X51004Y-65886D01*
X51000Y-65900D01*
X50970Y-65921D01*
X50897Y-65933D01*
X50872Y-65933D01*
X50745Y-65933D01*
X50778Y-65750D01*
X50811Y-65566D01*
X51009Y-65567D01*
X51120Y-65569D01*
X51177Y-65580D01*
X51191Y-65603D01*
X51188Y-65617D01*
X51192Y-65660D01*
X51214Y-65667D01*
X51250Y-65637D01*
X51273Y-65568D01*
X51274Y-65567D01*
X51288Y-65467D01*
X51288Y-66444D01*
X51272Y-66451D01*
X51267Y-66467D01*
X51297Y-66484D01*
X51376Y-66496D01*
X51467Y-66500D01*
X51573Y-66495D01*
X51645Y-66482D01*
X51667Y-66467D01*
X51639Y-66438D01*
X51613Y-66433D01*
X51581Y-66423D01*
X51571Y-66381D01*
X51580Y-66292D01*
X51582Y-66279D01*
X51600Y-66176D01*
X51617Y-66098D01*
X51623Y-66079D01*
X51661Y-66051D01*
X51730Y-66035D01*
X51805Y-66035D01*
X51857Y-66050D01*
X51867Y-66067D01*
X51883Y-66102D01*
X51920Y-66095D01*
X51959Y-66054D01*
X51976Y-66008D01*
X51984Y-65924D01*
X51964Y-65900D01*
X51926Y-65927D01*
X51867Y-65954D01*
X51779Y-65966D01*
X51772Y-65967D01*
X51658Y-65967D01*
X51681Y-65793D01*
X51697Y-65690D01*
X51713Y-65615D01*
X51720Y-65593D01*
X51760Y-65579D01*
X51846Y-65569D01*
X51922Y-65567D01*
X52028Y-65570D01*
X52080Y-65582D01*
X52091Y-65606D01*
X52088Y-65616D01*
X52092Y-65660D01*
X52114Y-65667D01*
X52150Y-65637D01*
X52173Y-65568D01*
X52174Y-65567D01*
X52188Y-65467D01*
X52188Y-66427D01*
X52136Y-66449D01*
X52139Y-66472D01*
X52194Y-66490D01*
X52295Y-66499D01*
X52333Y-66500D01*
X52440Y-66495D01*
X52512Y-66482D01*
X52533Y-66467D01*
X52506Y-66437D01*
X52483Y-66433D01*
X52459Y-66431D01*
X52444Y-66419D01*
X52440Y-66387D01*
X52446Y-66324D01*
X52463Y-66221D01*
X52493Y-66068D01*
X52513Y-65968D01*
X52554Y-65778D01*
X52592Y-65648D01*
X52624Y-65581D01*
X52636Y-65572D01*
X52694Y-65535D01*
X52706Y-65521D01*
X52731Y-65518D01*
X52760Y-65570D01*
X52789Y-65665D01*
X52813Y-65790D01*
X52820Y-65844D01*
X52820Y-65844D01*
X52820Y-65844D01*
G37*
G54D12*
X35971Y-66121D02*
X35971Y-65821D01*
X36071Y-66035D01*
X36171Y-65821D01*
X36171Y-66121D01*
X36300Y-65850D02*
X36314Y-65835D01*
X36342Y-65821D01*
X36414Y-65821D01*
X36442Y-65835D01*
X36457Y-65850D01*
X36471Y-65878D01*
X36471Y-65907D01*
X36457Y-65950D01*
X36285Y-66121D01*
X36471Y-66121D01*
X36657Y-65821D02*
X36685Y-65821D01*
X36714Y-65835D01*
X36728Y-65850D01*
X36742Y-65878D01*
X36757Y-65935D01*
X36757Y-66007D01*
X36742Y-66064D01*
X36728Y-66092D01*
X36714Y-66107D01*
X36685Y-66121D01*
X36657Y-66121D01*
X36628Y-66107D01*
X36614Y-66092D01*
X36600Y-66064D01*
X36585Y-66007D01*
X36585Y-65935D01*
X36600Y-65878D01*
X36614Y-65850D01*
X36628Y-65835D01*
X36657Y-65821D01*
X36871Y-65850D02*
X36885Y-65835D01*
X36914Y-65821D01*
X36985Y-65821D01*
X37014Y-65835D01*
X37028Y-65850D01*
X37042Y-65878D01*
X37042Y-65907D01*
X37028Y-65950D01*
X36857Y-66121D01*
X37042Y-66121D01*
X63971Y-49121D02*
X63971Y-48821D01*
X64071Y-49035D01*
X64171Y-48821D01*
X64171Y-49121D01*
X64300Y-48850D02*
X64314Y-48835D01*
X64342Y-48821D01*
X64414Y-48821D01*
X64442Y-48835D01*
X64457Y-48850D01*
X64471Y-48878D01*
X64471Y-48907D01*
X64457Y-48950D01*
X64285Y-49121D01*
X64471Y-49121D01*
X64657Y-48821D02*
X64685Y-48821D01*
X64714Y-48835D01*
X64728Y-48850D01*
X64742Y-48878D01*
X64757Y-48935D01*
X64757Y-49007D01*
X64742Y-49064D01*
X64728Y-49092D01*
X64714Y-49107D01*
X64685Y-49121D01*
X64657Y-49121D01*
X64628Y-49107D01*
X64614Y-49092D01*
X64600Y-49064D01*
X64585Y-49007D01*
X64585Y-48935D01*
X64600Y-48878D01*
X64614Y-48850D01*
X64628Y-48835D01*
X64657Y-48821D01*
X65042Y-49121D02*
X64871Y-49121D01*
X64957Y-49121D02*
X64957Y-48821D01*
X64928Y-48864D01*
X64900Y-48892D01*
X64871Y-48907D01*
X35971Y-49121D02*
X35971Y-48821D01*
X36071Y-49035D01*
X36171Y-48821D01*
X36171Y-49121D01*
X36300Y-48850D02*
X36314Y-48835D01*
X36342Y-48821D01*
X36414Y-48821D01*
X36442Y-48835D01*
X36457Y-48850D01*
X36471Y-48878D01*
X36471Y-48907D01*
X36457Y-48950D01*
X36285Y-49121D01*
X36471Y-49121D01*
X36657Y-48821D02*
X36685Y-48821D01*
X36714Y-48835D01*
X36728Y-48850D01*
X36742Y-48878D01*
X36757Y-48935D01*
X36757Y-49007D01*
X36742Y-49064D01*
X36728Y-49092D01*
X36714Y-49107D01*
X36685Y-49121D01*
X36657Y-49121D01*
X36628Y-49107D01*
X36614Y-49092D01*
X36600Y-49064D01*
X36585Y-49007D01*
X36585Y-48935D01*
X36600Y-48878D01*
X36614Y-48850D01*
X36628Y-48835D01*
X36657Y-48821D01*
X36942Y-48821D02*
X36971Y-48821D01*
X37000Y-48835D01*
X37014Y-48850D01*
X37028Y-48878D01*
X37042Y-48935D01*
X37042Y-49007D01*
X37028Y-49064D01*
X37014Y-49092D01*
X37000Y-49107D01*
X36971Y-49121D01*
X36942Y-49121D01*
X36914Y-49107D01*
X36900Y-49092D01*
X36885Y-49064D01*
X36871Y-49007D01*
X36871Y-48935D01*
X36885Y-48878D01*
X36900Y-48850D01*
X36914Y-48835D01*
X36942Y-48821D01*
G54D13*
X57914Y-65121D02*
X57814Y-64978D01*
X57742Y-65121D02*
X57742Y-64821D01*
X57857Y-64821D01*
X57885Y-64835D01*
X57900Y-64850D01*
X57914Y-64878D01*
X57914Y-64921D01*
X57900Y-64950D01*
X57885Y-64964D01*
X57857Y-64978D01*
X57742Y-64978D01*
X58028Y-64850D02*
X58042Y-64835D01*
X58071Y-64821D01*
X58142Y-64821D01*
X58171Y-64835D01*
X58185Y-64850D01*
X58200Y-64878D01*
X58200Y-64907D01*
X58185Y-64950D01*
X58014Y-65121D01*
X58200Y-65121D01*
X58485Y-65121D02*
X58314Y-65121D01*
X58400Y-65121D02*
X58400Y-64821D01*
X58371Y-64864D01*
X58342Y-64892D01*
X58314Y-64907D01*
X58757Y-64821D02*
X58614Y-64821D01*
X58600Y-64964D01*
X58614Y-64950D01*
X58642Y-64935D01*
X58714Y-64935D01*
X58742Y-64950D01*
X58757Y-64964D01*
X58771Y-64992D01*
X58771Y-65064D01*
X58757Y-65092D01*
X58742Y-65107D01*
X58714Y-65121D01*
X58642Y-65121D01*
X58614Y-65107D01*
X58600Y-65092D01*
X56664Y-65121D02*
X56564Y-64978D01*
X56492Y-65121D02*
X56492Y-64821D01*
X56607Y-64821D01*
X56635Y-64835D01*
X56650Y-64850D01*
X56664Y-64878D01*
X56664Y-64921D01*
X56650Y-64950D01*
X56635Y-64964D01*
X56607Y-64978D01*
X56492Y-64978D01*
X56778Y-64850D02*
X56792Y-64835D01*
X56821Y-64821D01*
X56892Y-64821D01*
X56921Y-64835D01*
X56935Y-64850D01*
X56950Y-64878D01*
X56950Y-64907D01*
X56935Y-64950D01*
X56764Y-65121D01*
X56950Y-65121D01*
X57235Y-65121D02*
X57064Y-65121D01*
X57150Y-65121D02*
X57150Y-64821D01*
X57121Y-64864D01*
X57092Y-64892D01*
X57064Y-64907D01*
X57492Y-64921D02*
X57492Y-65121D01*
X57421Y-64807D02*
X57350Y-65021D01*
X57535Y-65021D01*
G54D19*
X64323Y-57411D02*
X64323Y-57011D01*
X64476Y-57011D01*
X64514Y-57030D01*
X64533Y-57050D01*
X64552Y-57088D01*
X64552Y-57145D01*
X64533Y-57183D01*
X64514Y-57202D01*
X64476Y-57221D01*
X64323Y-57221D01*
X64704Y-57050D02*
X64723Y-57030D01*
X64761Y-57011D01*
X64857Y-57011D01*
X64895Y-57030D01*
X64914Y-57050D01*
X64933Y-57088D01*
X64933Y-57126D01*
X64914Y-57183D01*
X64685Y-57411D01*
X64933Y-57411D01*
X65180Y-57011D02*
X65219Y-57011D01*
X65257Y-57030D01*
X65276Y-57050D01*
X65295Y-57088D01*
X65314Y-57164D01*
X65314Y-57259D01*
X65295Y-57335D01*
X65276Y-57373D01*
X65257Y-57392D01*
X65219Y-57411D01*
X65180Y-57411D01*
X65142Y-57392D01*
X65123Y-57373D01*
X65104Y-57335D01*
X65085Y-57259D01*
X65085Y-57164D01*
X65104Y-57088D01*
X65123Y-57050D01*
X65142Y-57030D01*
X65180Y-57011D01*
X65695Y-57411D02*
X65466Y-57411D01*
X65580Y-57411D02*
X65580Y-57011D01*
X65542Y-57069D01*
X65504Y-57107D01*
X65466Y-57126D01*
G54D13*
X37914Y-66371D02*
X37814Y-66228D01*
X37742Y-66371D02*
X37742Y-66071D01*
X37857Y-66071D01*
X37885Y-66085D01*
X37900Y-66100D01*
X37914Y-66128D01*
X37914Y-66171D01*
X37900Y-66200D01*
X37885Y-66214D01*
X37857Y-66228D01*
X37742Y-66228D01*
X38028Y-66100D02*
X38042Y-66085D01*
X38071Y-66071D01*
X38142Y-66071D01*
X38171Y-66085D01*
X38185Y-66100D01*
X38200Y-66128D01*
X38200Y-66157D01*
X38185Y-66200D01*
X38014Y-66371D01*
X38200Y-66371D01*
X38485Y-66371D02*
X38314Y-66371D01*
X38400Y-66371D02*
X38400Y-66071D01*
X38371Y-66114D01*
X38342Y-66142D01*
X38314Y-66157D01*
X38771Y-66371D02*
X38600Y-66371D01*
X38685Y-66371D02*
X38685Y-66071D01*
X38657Y-66114D01*
X38628Y-66142D01*
X38600Y-66157D01*
X60414Y-65121D02*
X60314Y-64978D01*
X60242Y-65121D02*
X60242Y-64821D01*
X60357Y-64821D01*
X60385Y-64835D01*
X60400Y-64850D01*
X60414Y-64878D01*
X60414Y-64921D01*
X60400Y-64950D01*
X60385Y-64964D01*
X60357Y-64978D01*
X60242Y-64978D01*
X60528Y-64850D02*
X60542Y-64835D01*
X60571Y-64821D01*
X60642Y-64821D01*
X60671Y-64835D01*
X60685Y-64850D01*
X60700Y-64878D01*
X60700Y-64907D01*
X60685Y-64950D01*
X60514Y-65121D01*
X60700Y-65121D01*
X60814Y-64850D02*
X60828Y-64835D01*
X60857Y-64821D01*
X60928Y-64821D01*
X60957Y-64835D01*
X60971Y-64850D01*
X60985Y-64878D01*
X60985Y-64907D01*
X60971Y-64950D01*
X60800Y-65121D01*
X60985Y-65121D01*
X61257Y-64821D02*
X61114Y-64821D01*
X61100Y-64964D01*
X61114Y-64950D01*
X61142Y-64935D01*
X61214Y-64935D01*
X61242Y-64950D01*
X61257Y-64964D01*
X61271Y-64992D01*
X61271Y-65064D01*
X61257Y-65092D01*
X61242Y-65107D01*
X61214Y-65121D01*
X61142Y-65121D01*
X61114Y-65107D01*
X61100Y-65092D01*
X59164Y-65121D02*
X59064Y-64978D01*
X58992Y-65121D02*
X58992Y-64821D01*
X59107Y-64821D01*
X59135Y-64835D01*
X59150Y-64850D01*
X59164Y-64878D01*
X59164Y-64921D01*
X59150Y-64950D01*
X59135Y-64964D01*
X59107Y-64978D01*
X58992Y-64978D01*
X59278Y-64850D02*
X59292Y-64835D01*
X59321Y-64821D01*
X59392Y-64821D01*
X59421Y-64835D01*
X59435Y-64850D01*
X59450Y-64878D01*
X59450Y-64907D01*
X59435Y-64950D01*
X59264Y-65121D01*
X59450Y-65121D01*
X59564Y-64850D02*
X59578Y-64835D01*
X59607Y-64821D01*
X59678Y-64821D01*
X59707Y-64835D01*
X59721Y-64850D01*
X59735Y-64878D01*
X59735Y-64907D01*
X59721Y-64950D01*
X59550Y-65121D01*
X59735Y-65121D01*
X59992Y-64921D02*
X59992Y-65121D01*
X59921Y-64807D02*
X59850Y-65021D01*
X60035Y-65021D01*
X39164Y-65371D02*
X39064Y-65228D01*
X38992Y-65371D02*
X38992Y-65071D01*
X39107Y-65071D01*
X39135Y-65085D01*
X39150Y-65100D01*
X39164Y-65128D01*
X39164Y-65171D01*
X39150Y-65200D01*
X39135Y-65214D01*
X39107Y-65228D01*
X38992Y-65228D01*
X39278Y-65100D02*
X39292Y-65085D01*
X39321Y-65071D01*
X39392Y-65071D01*
X39421Y-65085D01*
X39435Y-65100D01*
X39450Y-65128D01*
X39450Y-65157D01*
X39435Y-65200D01*
X39264Y-65371D01*
X39450Y-65371D01*
X39564Y-65100D02*
X39578Y-65085D01*
X39607Y-65071D01*
X39678Y-65071D01*
X39707Y-65085D01*
X39721Y-65100D01*
X39735Y-65128D01*
X39735Y-65157D01*
X39721Y-65200D01*
X39550Y-65371D01*
X39735Y-65371D01*
X40021Y-65371D02*
X39850Y-65371D01*
X39935Y-65371D02*
X39935Y-65071D01*
X39907Y-65114D01*
X39878Y-65142D01*
X39850Y-65157D01*
X57914Y-62121D02*
X57814Y-61978D01*
X57742Y-62121D02*
X57742Y-61821D01*
X57857Y-61821D01*
X57885Y-61835D01*
X57900Y-61850D01*
X57914Y-61878D01*
X57914Y-61921D01*
X57900Y-61950D01*
X57885Y-61964D01*
X57857Y-61978D01*
X57742Y-61978D01*
X58028Y-61850D02*
X58042Y-61835D01*
X58071Y-61821D01*
X58142Y-61821D01*
X58171Y-61835D01*
X58185Y-61850D01*
X58200Y-61878D01*
X58200Y-61907D01*
X58185Y-61950D01*
X58014Y-62121D01*
X58200Y-62121D01*
X58300Y-61821D02*
X58485Y-61821D01*
X58385Y-61935D01*
X58428Y-61935D01*
X58457Y-61950D01*
X58471Y-61964D01*
X58485Y-61992D01*
X58485Y-62064D01*
X58471Y-62092D01*
X58457Y-62107D01*
X58428Y-62121D01*
X58342Y-62121D01*
X58314Y-62107D01*
X58300Y-62092D01*
X58757Y-61821D02*
X58614Y-61821D01*
X58600Y-61964D01*
X58614Y-61950D01*
X58642Y-61935D01*
X58714Y-61935D01*
X58742Y-61950D01*
X58757Y-61964D01*
X58771Y-61992D01*
X58771Y-62064D01*
X58757Y-62092D01*
X58742Y-62107D01*
X58714Y-62121D01*
X58642Y-62121D01*
X58614Y-62107D01*
X58600Y-62092D01*
X56664Y-62121D02*
X56564Y-61978D01*
X56492Y-62121D02*
X56492Y-61821D01*
X56607Y-61821D01*
X56635Y-61835D01*
X56650Y-61850D01*
X56664Y-61878D01*
X56664Y-61921D01*
X56650Y-61950D01*
X56635Y-61964D01*
X56607Y-61978D01*
X56492Y-61978D01*
X56778Y-61850D02*
X56792Y-61835D01*
X56821Y-61821D01*
X56892Y-61821D01*
X56921Y-61835D01*
X56935Y-61850D01*
X56950Y-61878D01*
X56950Y-61907D01*
X56935Y-61950D01*
X56764Y-62121D01*
X56950Y-62121D01*
X57050Y-61821D02*
X57235Y-61821D01*
X57135Y-61935D01*
X57178Y-61935D01*
X57207Y-61950D01*
X57221Y-61964D01*
X57235Y-61992D01*
X57235Y-62064D01*
X57221Y-62092D01*
X57207Y-62107D01*
X57178Y-62121D01*
X57092Y-62121D01*
X57064Y-62107D01*
X57050Y-62092D01*
X57492Y-61921D02*
X57492Y-62121D01*
X57421Y-61807D02*
X57350Y-62021D01*
X57535Y-62021D01*
X37914Y-63121D02*
X37814Y-62978D01*
X37742Y-63121D02*
X37742Y-62821D01*
X37857Y-62821D01*
X37885Y-62835D01*
X37900Y-62850D01*
X37914Y-62878D01*
X37914Y-62921D01*
X37900Y-62950D01*
X37885Y-62964D01*
X37857Y-62978D01*
X37742Y-62978D01*
X38028Y-62850D02*
X38042Y-62835D01*
X38071Y-62821D01*
X38142Y-62821D01*
X38171Y-62835D01*
X38185Y-62850D01*
X38200Y-62878D01*
X38200Y-62907D01*
X38185Y-62950D01*
X38014Y-63121D01*
X38200Y-63121D01*
X38300Y-62821D02*
X38485Y-62821D01*
X38385Y-62935D01*
X38428Y-62935D01*
X38457Y-62950D01*
X38471Y-62964D01*
X38485Y-62992D01*
X38485Y-63064D01*
X38471Y-63092D01*
X38457Y-63107D01*
X38428Y-63121D01*
X38342Y-63121D01*
X38314Y-63107D01*
X38300Y-63092D01*
X38771Y-63121D02*
X38600Y-63121D01*
X38685Y-63121D02*
X38685Y-62821D01*
X38657Y-62864D01*
X38628Y-62892D01*
X38600Y-62907D01*
X39164Y-61871D02*
X39064Y-61728D01*
X38992Y-61871D02*
X38992Y-61571D01*
X39107Y-61571D01*
X39135Y-61585D01*
X39150Y-61600D01*
X39164Y-61628D01*
X39164Y-61671D01*
X39150Y-61700D01*
X39135Y-61714D01*
X39107Y-61728D01*
X38992Y-61728D01*
X39278Y-61600D02*
X39292Y-61585D01*
X39321Y-61571D01*
X39392Y-61571D01*
X39421Y-61585D01*
X39435Y-61600D01*
X39450Y-61628D01*
X39450Y-61657D01*
X39435Y-61700D01*
X39264Y-61871D01*
X39450Y-61871D01*
X39707Y-61671D02*
X39707Y-61871D01*
X39635Y-61557D02*
X39564Y-61771D01*
X39750Y-61771D01*
X40021Y-61871D02*
X39850Y-61871D01*
X39935Y-61871D02*
X39935Y-61571D01*
X39907Y-61614D01*
X39878Y-61642D01*
X39850Y-61657D01*
X59164Y-62121D02*
X59064Y-61978D01*
X58992Y-62121D02*
X58992Y-61821D01*
X59107Y-61821D01*
X59135Y-61835D01*
X59150Y-61850D01*
X59164Y-61878D01*
X59164Y-61921D01*
X59150Y-61950D01*
X59135Y-61964D01*
X59107Y-61978D01*
X58992Y-61978D01*
X59278Y-61850D02*
X59292Y-61835D01*
X59321Y-61821D01*
X59392Y-61821D01*
X59421Y-61835D01*
X59435Y-61850D01*
X59450Y-61878D01*
X59450Y-61907D01*
X59435Y-61950D01*
X59264Y-62121D01*
X59450Y-62121D01*
X59707Y-61921D02*
X59707Y-62121D01*
X59635Y-61807D02*
X59564Y-62021D01*
X59750Y-62021D01*
X59992Y-61921D02*
X59992Y-62121D01*
X59921Y-61807D02*
X59850Y-62021D01*
X60035Y-62021D01*
X60414Y-62121D02*
X60314Y-61978D01*
X60242Y-62121D02*
X60242Y-61821D01*
X60357Y-61821D01*
X60385Y-61835D01*
X60400Y-61850D01*
X60414Y-61878D01*
X60414Y-61921D01*
X60400Y-61950D01*
X60385Y-61964D01*
X60357Y-61978D01*
X60242Y-61978D01*
X60528Y-61850D02*
X60542Y-61835D01*
X60571Y-61821D01*
X60642Y-61821D01*
X60671Y-61835D01*
X60685Y-61850D01*
X60700Y-61878D01*
X60700Y-61907D01*
X60685Y-61950D01*
X60514Y-62121D01*
X60700Y-62121D01*
X60957Y-61921D02*
X60957Y-62121D01*
X60885Y-61807D02*
X60814Y-62021D01*
X61000Y-62021D01*
X61257Y-61821D02*
X61114Y-61821D01*
X61100Y-61964D01*
X61114Y-61950D01*
X61142Y-61935D01*
X61214Y-61935D01*
X61242Y-61950D01*
X61257Y-61964D01*
X61271Y-61992D01*
X61271Y-62064D01*
X61257Y-62092D01*
X61242Y-62107D01*
X61214Y-62121D01*
X61142Y-62121D01*
X61114Y-62107D01*
X61100Y-62092D01*
X48164Y-65621D02*
X48064Y-65478D01*
X47992Y-65621D02*
X47992Y-65321D01*
X48107Y-65321D01*
X48135Y-65335D01*
X48150Y-65350D01*
X48164Y-65378D01*
X48164Y-65421D01*
X48150Y-65450D01*
X48135Y-65464D01*
X48107Y-65478D01*
X47992Y-65478D01*
X48278Y-65350D02*
X48292Y-65335D01*
X48321Y-65321D01*
X48392Y-65321D01*
X48421Y-65335D01*
X48435Y-65350D01*
X48450Y-65378D01*
X48450Y-65407D01*
X48435Y-65450D01*
X48264Y-65621D01*
X48450Y-65621D01*
X48735Y-65621D02*
X48564Y-65621D01*
X48650Y-65621D02*
X48650Y-65321D01*
X48621Y-65364D01*
X48592Y-65392D01*
X48564Y-65407D01*
X48835Y-65321D02*
X49021Y-65321D01*
X48921Y-65435D01*
X48964Y-65435D01*
X48992Y-65450D01*
X49007Y-65464D01*
X49021Y-65492D01*
X49021Y-65564D01*
X49007Y-65592D01*
X48992Y-65607D01*
X48964Y-65621D01*
X48878Y-65621D01*
X48850Y-65607D01*
X48835Y-65592D01*
X41664Y-66621D02*
X41564Y-66478D01*
X41492Y-66621D02*
X41492Y-66321D01*
X41607Y-66321D01*
X41635Y-66335D01*
X41650Y-66350D01*
X41664Y-66378D01*
X41664Y-66421D01*
X41650Y-66450D01*
X41635Y-66464D01*
X41607Y-66478D01*
X41492Y-66478D01*
X41778Y-66350D02*
X41792Y-66335D01*
X41821Y-66321D01*
X41892Y-66321D01*
X41921Y-66335D01*
X41935Y-66350D01*
X41950Y-66378D01*
X41950Y-66407D01*
X41935Y-66450D01*
X41764Y-66621D01*
X41950Y-66621D01*
X42235Y-66621D02*
X42064Y-66621D01*
X42150Y-66621D02*
X42150Y-66321D01*
X42121Y-66364D01*
X42092Y-66392D01*
X42064Y-66407D01*
X42421Y-66321D02*
X42450Y-66321D01*
X42478Y-66335D01*
X42492Y-66350D01*
X42507Y-66378D01*
X42521Y-66435D01*
X42521Y-66507D01*
X42507Y-66564D01*
X42492Y-66592D01*
X42478Y-66607D01*
X42450Y-66621D01*
X42421Y-66621D01*
X42392Y-66607D01*
X42378Y-66592D01*
X42364Y-66564D01*
X42350Y-66507D01*
X42350Y-66435D01*
X42364Y-66378D01*
X42378Y-66350D01*
X42392Y-66335D01*
X42421Y-66321D01*
X46914Y-66592D02*
X46900Y-66607D01*
X46857Y-66621D01*
X46828Y-66621D01*
X46785Y-66607D01*
X46757Y-66578D01*
X46742Y-66550D01*
X46728Y-66492D01*
X46728Y-66450D01*
X46742Y-66392D01*
X46757Y-66364D01*
X46785Y-66335D01*
X46828Y-66321D01*
X46857Y-66321D01*
X46900Y-66335D01*
X46914Y-66350D01*
X47028Y-66350D02*
X47042Y-66335D01*
X47071Y-66321D01*
X47142Y-66321D01*
X47171Y-66335D01*
X47185Y-66350D01*
X47200Y-66378D01*
X47200Y-66407D01*
X47185Y-66450D01*
X47014Y-66621D01*
X47200Y-66621D01*
X47314Y-66350D02*
X47328Y-66335D01*
X47357Y-66321D01*
X47428Y-66321D01*
X47457Y-66335D01*
X47471Y-66350D01*
X47485Y-66378D01*
X47485Y-66407D01*
X47471Y-66450D01*
X47300Y-66621D01*
X47485Y-66621D01*
X47671Y-66321D02*
X47700Y-66321D01*
X47728Y-66335D01*
X47742Y-66350D01*
X47757Y-66378D01*
X47771Y-66435D01*
X47771Y-66507D01*
X47757Y-66564D01*
X47742Y-66592D01*
X47728Y-66607D01*
X47700Y-66621D01*
X47671Y-66621D01*
X47642Y-66607D01*
X47628Y-66592D01*
X47614Y-66564D01*
X47600Y-66507D01*
X47600Y-66435D01*
X47614Y-66378D01*
X47628Y-66350D01*
X47642Y-66335D01*
X47671Y-66321D01*
X49414Y-65592D02*
X49400Y-65607D01*
X49357Y-65621D01*
X49328Y-65621D01*
X49285Y-65607D01*
X49257Y-65578D01*
X49242Y-65550D01*
X49228Y-65492D01*
X49228Y-65450D01*
X49242Y-65392D01*
X49257Y-65364D01*
X49285Y-65335D01*
X49328Y-65321D01*
X49357Y-65321D01*
X49400Y-65335D01*
X49414Y-65350D01*
X49528Y-65350D02*
X49542Y-65335D01*
X49571Y-65321D01*
X49642Y-65321D01*
X49671Y-65335D01*
X49685Y-65350D01*
X49700Y-65378D01*
X49700Y-65407D01*
X49685Y-65450D01*
X49514Y-65621D01*
X49700Y-65621D01*
X49985Y-65621D02*
X49814Y-65621D01*
X49900Y-65621D02*
X49900Y-65321D01*
X49871Y-65364D01*
X49842Y-65392D01*
X49814Y-65407D01*
X50171Y-65321D02*
X50200Y-65321D01*
X50228Y-65335D01*
X50242Y-65350D01*
X50257Y-65378D01*
X50271Y-65435D01*
X50271Y-65507D01*
X50257Y-65564D01*
X50242Y-65592D01*
X50228Y-65607D01*
X50200Y-65621D01*
X50171Y-65621D01*
X50142Y-65607D01*
X50128Y-65592D01*
X50114Y-65564D01*
X50100Y-65507D01*
X50100Y-65435D01*
X50114Y-65378D01*
X50128Y-65350D01*
X50142Y-65335D01*
X50171Y-65321D01*
X45664Y-66621D02*
X45564Y-66478D01*
X45492Y-66621D02*
X45492Y-66321D01*
X45607Y-66321D01*
X45635Y-66335D01*
X45650Y-66350D01*
X45664Y-66378D01*
X45664Y-66421D01*
X45650Y-66450D01*
X45635Y-66464D01*
X45607Y-66478D01*
X45492Y-66478D01*
X45778Y-66350D02*
X45792Y-66335D01*
X45821Y-66321D01*
X45892Y-66321D01*
X45921Y-66335D01*
X45935Y-66350D01*
X45950Y-66378D01*
X45950Y-66407D01*
X45935Y-66450D01*
X45764Y-66621D01*
X45950Y-66621D01*
X46064Y-66350D02*
X46078Y-66335D01*
X46107Y-66321D01*
X46178Y-66321D01*
X46207Y-66335D01*
X46221Y-66350D01*
X46235Y-66378D01*
X46235Y-66407D01*
X46221Y-66450D01*
X46050Y-66621D01*
X46235Y-66621D01*
X46335Y-66321D02*
X46521Y-66321D01*
X46421Y-66435D01*
X46464Y-66435D01*
X46492Y-66450D01*
X46507Y-66464D01*
X46521Y-66492D01*
X46521Y-66564D01*
X46507Y-66592D01*
X46492Y-66607D01*
X46464Y-66621D01*
X46378Y-66621D01*
X46350Y-66607D01*
X46335Y-66592D01*
X51164Y-63592D02*
X51150Y-63607D01*
X51107Y-63621D01*
X51078Y-63621D01*
X51035Y-63607D01*
X51007Y-63578D01*
X50992Y-63550D01*
X50978Y-63492D01*
X50978Y-63450D01*
X50992Y-63392D01*
X51007Y-63364D01*
X51035Y-63335D01*
X51078Y-63321D01*
X51107Y-63321D01*
X51150Y-63335D01*
X51164Y-63350D01*
X51278Y-63350D02*
X51292Y-63335D01*
X51321Y-63321D01*
X51392Y-63321D01*
X51421Y-63335D01*
X51435Y-63350D01*
X51450Y-63378D01*
X51450Y-63407D01*
X51435Y-63450D01*
X51264Y-63621D01*
X51450Y-63621D01*
X51735Y-63621D02*
X51564Y-63621D01*
X51650Y-63621D02*
X51650Y-63321D01*
X51621Y-63364D01*
X51592Y-63392D01*
X51564Y-63407D01*
X52021Y-63621D02*
X51850Y-63621D01*
X51935Y-63621D02*
X51935Y-63321D01*
X51907Y-63364D01*
X51878Y-63392D01*
X51850Y-63407D01*
X40414Y-66621D02*
X40314Y-66478D01*
X40242Y-66621D02*
X40242Y-66321D01*
X40357Y-66321D01*
X40385Y-66335D01*
X40400Y-66350D01*
X40414Y-66378D01*
X40414Y-66421D01*
X40400Y-66450D01*
X40385Y-66464D01*
X40357Y-66478D01*
X40242Y-66478D01*
X40528Y-66350D02*
X40542Y-66335D01*
X40571Y-66321D01*
X40642Y-66321D01*
X40671Y-66335D01*
X40685Y-66350D01*
X40700Y-66378D01*
X40700Y-66407D01*
X40685Y-66450D01*
X40514Y-66621D01*
X40700Y-66621D01*
X40814Y-66350D02*
X40828Y-66335D01*
X40857Y-66321D01*
X40928Y-66321D01*
X40957Y-66335D01*
X40971Y-66350D01*
X40985Y-66378D01*
X40985Y-66407D01*
X40971Y-66450D01*
X40800Y-66621D01*
X40985Y-66621D01*
X41171Y-66321D02*
X41200Y-66321D01*
X41228Y-66335D01*
X41242Y-66350D01*
X41257Y-66378D01*
X41271Y-66435D01*
X41271Y-66507D01*
X41257Y-66564D01*
X41242Y-66592D01*
X41228Y-66607D01*
X41200Y-66621D01*
X41171Y-66621D01*
X41142Y-66607D01*
X41128Y-66592D01*
X41114Y-66564D01*
X41100Y-66507D01*
X41100Y-66435D01*
X41114Y-66378D01*
X41128Y-66350D01*
X41142Y-66335D01*
X41171Y-66321D01*
X48164Y-62371D02*
X48064Y-62228D01*
X47992Y-62371D02*
X47992Y-62071D01*
X48107Y-62071D01*
X48135Y-62085D01*
X48150Y-62100D01*
X48164Y-62128D01*
X48164Y-62171D01*
X48150Y-62200D01*
X48135Y-62214D01*
X48107Y-62228D01*
X47992Y-62228D01*
X48278Y-62100D02*
X48292Y-62085D01*
X48321Y-62071D01*
X48392Y-62071D01*
X48421Y-62085D01*
X48435Y-62100D01*
X48450Y-62128D01*
X48450Y-62157D01*
X48435Y-62200D01*
X48264Y-62371D01*
X48450Y-62371D01*
X48550Y-62071D02*
X48735Y-62071D01*
X48635Y-62185D01*
X48678Y-62185D01*
X48707Y-62200D01*
X48721Y-62214D01*
X48735Y-62242D01*
X48735Y-62314D01*
X48721Y-62342D01*
X48707Y-62357D01*
X48678Y-62371D01*
X48592Y-62371D01*
X48564Y-62357D01*
X48550Y-62342D01*
X48835Y-62071D02*
X49021Y-62071D01*
X48921Y-62185D01*
X48964Y-62185D01*
X48992Y-62200D01*
X49007Y-62214D01*
X49021Y-62242D01*
X49021Y-62314D01*
X49007Y-62342D01*
X48992Y-62357D01*
X48964Y-62371D01*
X48878Y-62371D01*
X48850Y-62357D01*
X48835Y-62342D01*
X41664Y-63121D02*
X41564Y-62978D01*
X41492Y-63121D02*
X41492Y-62821D01*
X41607Y-62821D01*
X41635Y-62835D01*
X41650Y-62850D01*
X41664Y-62878D01*
X41664Y-62921D01*
X41650Y-62950D01*
X41635Y-62964D01*
X41607Y-62978D01*
X41492Y-62978D01*
X41778Y-62850D02*
X41792Y-62835D01*
X41821Y-62821D01*
X41892Y-62821D01*
X41921Y-62835D01*
X41935Y-62850D01*
X41950Y-62878D01*
X41950Y-62907D01*
X41935Y-62950D01*
X41764Y-63121D01*
X41950Y-63121D01*
X42050Y-62821D02*
X42235Y-62821D01*
X42135Y-62935D01*
X42178Y-62935D01*
X42207Y-62950D01*
X42221Y-62964D01*
X42235Y-62992D01*
X42235Y-63064D01*
X42221Y-63092D01*
X42207Y-63107D01*
X42178Y-63121D01*
X42092Y-63121D01*
X42064Y-63107D01*
X42050Y-63092D01*
X42421Y-62821D02*
X42450Y-62821D01*
X42478Y-62835D01*
X42492Y-62850D01*
X42507Y-62878D01*
X42521Y-62935D01*
X42521Y-63007D01*
X42507Y-63064D01*
X42492Y-63092D01*
X42478Y-63107D01*
X42450Y-63121D01*
X42421Y-63121D01*
X42392Y-63107D01*
X42378Y-63092D01*
X42364Y-63064D01*
X42350Y-63007D01*
X42350Y-62935D01*
X42364Y-62878D01*
X42378Y-62850D01*
X42392Y-62835D01*
X42421Y-62821D01*
X45664Y-63121D02*
X45564Y-62978D01*
X45492Y-63121D02*
X45492Y-62821D01*
X45607Y-62821D01*
X45635Y-62835D01*
X45650Y-62850D01*
X45664Y-62878D01*
X45664Y-62921D01*
X45650Y-62950D01*
X45635Y-62964D01*
X45607Y-62978D01*
X45492Y-62978D01*
X45778Y-62850D02*
X45792Y-62835D01*
X45821Y-62821D01*
X45892Y-62821D01*
X45921Y-62835D01*
X45935Y-62850D01*
X45950Y-62878D01*
X45950Y-62907D01*
X45935Y-62950D01*
X45764Y-63121D01*
X45950Y-63121D01*
X46207Y-62921D02*
X46207Y-63121D01*
X46135Y-62807D02*
X46064Y-63021D01*
X46250Y-63021D01*
X46335Y-62821D02*
X46521Y-62821D01*
X46421Y-62935D01*
X46464Y-62935D01*
X46492Y-62950D01*
X46507Y-62964D01*
X46521Y-62992D01*
X46521Y-63064D01*
X46507Y-63092D01*
X46492Y-63107D01*
X46464Y-63121D01*
X46378Y-63121D01*
X46350Y-63107D01*
X46335Y-63092D01*
X40414Y-63121D02*
X40314Y-62978D01*
X40242Y-63121D02*
X40242Y-62821D01*
X40357Y-62821D01*
X40385Y-62835D01*
X40400Y-62850D01*
X40414Y-62878D01*
X40414Y-62921D01*
X40400Y-62950D01*
X40385Y-62964D01*
X40357Y-62978D01*
X40242Y-62978D01*
X40528Y-62850D02*
X40542Y-62835D01*
X40571Y-62821D01*
X40642Y-62821D01*
X40671Y-62835D01*
X40685Y-62850D01*
X40700Y-62878D01*
X40700Y-62907D01*
X40685Y-62950D01*
X40514Y-63121D01*
X40700Y-63121D01*
X40957Y-62921D02*
X40957Y-63121D01*
X40885Y-62807D02*
X40814Y-63021D01*
X41000Y-63021D01*
X41171Y-62821D02*
X41200Y-62821D01*
X41228Y-62835D01*
X41242Y-62850D01*
X41257Y-62878D01*
X41271Y-62935D01*
X41271Y-63007D01*
X41257Y-63064D01*
X41242Y-63092D01*
X41228Y-63107D01*
X41200Y-63121D01*
X41171Y-63121D01*
X41142Y-63107D01*
X41128Y-63092D01*
X41114Y-63064D01*
X41100Y-63007D01*
X41100Y-62935D01*
X41114Y-62878D01*
X41128Y-62850D01*
X41142Y-62835D01*
X41171Y-62821D01*
X57914Y-58871D02*
X57814Y-58728D01*
X57742Y-58871D02*
X57742Y-58571D01*
X57857Y-58571D01*
X57885Y-58585D01*
X57900Y-58600D01*
X57914Y-58628D01*
X57914Y-58671D01*
X57900Y-58700D01*
X57885Y-58714D01*
X57857Y-58728D01*
X57742Y-58728D01*
X58028Y-58600D02*
X58042Y-58585D01*
X58071Y-58571D01*
X58142Y-58571D01*
X58171Y-58585D01*
X58185Y-58600D01*
X58200Y-58628D01*
X58200Y-58657D01*
X58185Y-58700D01*
X58014Y-58871D01*
X58200Y-58871D01*
X58471Y-58571D02*
X58328Y-58571D01*
X58314Y-58714D01*
X58328Y-58700D01*
X58357Y-58685D01*
X58428Y-58685D01*
X58457Y-58700D01*
X58471Y-58714D01*
X58485Y-58742D01*
X58485Y-58814D01*
X58471Y-58842D01*
X58457Y-58857D01*
X58428Y-58871D01*
X58357Y-58871D01*
X58328Y-58857D01*
X58314Y-58842D01*
X58757Y-58571D02*
X58614Y-58571D01*
X58600Y-58714D01*
X58614Y-58700D01*
X58642Y-58685D01*
X58714Y-58685D01*
X58742Y-58700D01*
X58757Y-58714D01*
X58771Y-58742D01*
X58771Y-58814D01*
X58757Y-58842D01*
X58742Y-58857D01*
X58714Y-58871D01*
X58642Y-58871D01*
X58614Y-58857D01*
X58600Y-58842D01*
X40414Y-59871D02*
X40314Y-59728D01*
X40242Y-59871D02*
X40242Y-59571D01*
X40357Y-59571D01*
X40385Y-59585D01*
X40400Y-59600D01*
X40414Y-59628D01*
X40414Y-59671D01*
X40400Y-59700D01*
X40385Y-59714D01*
X40357Y-59728D01*
X40242Y-59728D01*
X40528Y-59600D02*
X40542Y-59585D01*
X40571Y-59571D01*
X40642Y-59571D01*
X40671Y-59585D01*
X40685Y-59600D01*
X40700Y-59628D01*
X40700Y-59657D01*
X40685Y-59700D01*
X40514Y-59871D01*
X40700Y-59871D01*
X40957Y-59571D02*
X40900Y-59571D01*
X40871Y-59585D01*
X40857Y-59600D01*
X40828Y-59642D01*
X40814Y-59700D01*
X40814Y-59814D01*
X40828Y-59842D01*
X40842Y-59857D01*
X40871Y-59871D01*
X40928Y-59871D01*
X40957Y-59857D01*
X40971Y-59842D01*
X40985Y-59814D01*
X40985Y-59742D01*
X40971Y-59714D01*
X40957Y-59700D01*
X40928Y-59685D01*
X40871Y-59685D01*
X40842Y-59700D01*
X40828Y-59714D01*
X40814Y-59742D01*
X41171Y-59571D02*
X41200Y-59571D01*
X41228Y-59585D01*
X41242Y-59600D01*
X41257Y-59628D01*
X41271Y-59685D01*
X41271Y-59757D01*
X41257Y-59814D01*
X41242Y-59842D01*
X41228Y-59857D01*
X41200Y-59871D01*
X41171Y-59871D01*
X41142Y-59857D01*
X41128Y-59842D01*
X41114Y-59814D01*
X41100Y-59757D01*
X41100Y-59685D01*
X41114Y-59628D01*
X41128Y-59600D01*
X41142Y-59585D01*
X41171Y-59571D01*
X45664Y-59871D02*
X45564Y-59728D01*
X45492Y-59871D02*
X45492Y-59571D01*
X45607Y-59571D01*
X45635Y-59585D01*
X45650Y-59600D01*
X45664Y-59628D01*
X45664Y-59671D01*
X45650Y-59700D01*
X45635Y-59714D01*
X45607Y-59728D01*
X45492Y-59728D01*
X45778Y-59600D02*
X45792Y-59585D01*
X45821Y-59571D01*
X45892Y-59571D01*
X45921Y-59585D01*
X45935Y-59600D01*
X45950Y-59628D01*
X45950Y-59657D01*
X45935Y-59700D01*
X45764Y-59871D01*
X45950Y-59871D01*
X46207Y-59571D02*
X46150Y-59571D01*
X46121Y-59585D01*
X46107Y-59600D01*
X46078Y-59642D01*
X46064Y-59700D01*
X46064Y-59814D01*
X46078Y-59842D01*
X46092Y-59857D01*
X46121Y-59871D01*
X46178Y-59871D01*
X46207Y-59857D01*
X46221Y-59842D01*
X46235Y-59814D01*
X46235Y-59742D01*
X46221Y-59714D01*
X46207Y-59700D01*
X46178Y-59685D01*
X46121Y-59685D01*
X46092Y-59700D01*
X46078Y-59714D01*
X46064Y-59742D01*
X46335Y-59571D02*
X46521Y-59571D01*
X46421Y-59685D01*
X46464Y-59685D01*
X46492Y-59700D01*
X46507Y-59714D01*
X46521Y-59742D01*
X46521Y-59814D01*
X46507Y-59842D01*
X46492Y-59857D01*
X46464Y-59871D01*
X46378Y-59871D01*
X46350Y-59857D01*
X46335Y-59842D01*
X41664Y-59871D02*
X41564Y-59728D01*
X41492Y-59871D02*
X41492Y-59571D01*
X41607Y-59571D01*
X41635Y-59585D01*
X41650Y-59600D01*
X41664Y-59628D01*
X41664Y-59671D01*
X41650Y-59700D01*
X41635Y-59714D01*
X41607Y-59728D01*
X41492Y-59728D01*
X41778Y-59600D02*
X41792Y-59585D01*
X41821Y-59571D01*
X41892Y-59571D01*
X41921Y-59585D01*
X41935Y-59600D01*
X41950Y-59628D01*
X41950Y-59657D01*
X41935Y-59700D01*
X41764Y-59871D01*
X41950Y-59871D01*
X42221Y-59571D02*
X42078Y-59571D01*
X42064Y-59714D01*
X42078Y-59700D01*
X42107Y-59685D01*
X42178Y-59685D01*
X42207Y-59700D01*
X42221Y-59714D01*
X42235Y-59742D01*
X42235Y-59814D01*
X42221Y-59842D01*
X42207Y-59857D01*
X42178Y-59871D01*
X42107Y-59871D01*
X42078Y-59857D01*
X42064Y-59842D01*
X42421Y-59571D02*
X42450Y-59571D01*
X42478Y-59585D01*
X42492Y-59600D01*
X42507Y-59628D01*
X42521Y-59685D01*
X42521Y-59757D01*
X42507Y-59814D01*
X42492Y-59842D01*
X42478Y-59857D01*
X42450Y-59871D01*
X42421Y-59871D01*
X42392Y-59857D01*
X42378Y-59842D01*
X42364Y-59814D01*
X42350Y-59757D01*
X42350Y-59685D01*
X42364Y-59628D01*
X42378Y-59600D01*
X42392Y-59585D01*
X42421Y-59571D01*
X48164Y-59121D02*
X48064Y-58978D01*
X47992Y-59121D02*
X47992Y-58821D01*
X48107Y-58821D01*
X48135Y-58835D01*
X48150Y-58850D01*
X48164Y-58878D01*
X48164Y-58921D01*
X48150Y-58950D01*
X48135Y-58964D01*
X48107Y-58978D01*
X47992Y-58978D01*
X48278Y-58850D02*
X48292Y-58835D01*
X48321Y-58821D01*
X48392Y-58821D01*
X48421Y-58835D01*
X48435Y-58850D01*
X48450Y-58878D01*
X48450Y-58907D01*
X48435Y-58950D01*
X48264Y-59121D01*
X48450Y-59121D01*
X48721Y-58821D02*
X48578Y-58821D01*
X48564Y-58964D01*
X48578Y-58950D01*
X48607Y-58935D01*
X48678Y-58935D01*
X48707Y-58950D01*
X48721Y-58964D01*
X48735Y-58992D01*
X48735Y-59064D01*
X48721Y-59092D01*
X48707Y-59107D01*
X48678Y-59121D01*
X48607Y-59121D01*
X48578Y-59107D01*
X48564Y-59092D01*
X48835Y-58821D02*
X49021Y-58821D01*
X48921Y-58935D01*
X48964Y-58935D01*
X48992Y-58950D01*
X49007Y-58964D01*
X49021Y-58992D01*
X49021Y-59064D01*
X49007Y-59092D01*
X48992Y-59107D01*
X48964Y-59121D01*
X48878Y-59121D01*
X48850Y-59107D01*
X48835Y-59092D01*
X45371Y-65335D02*
X45228Y-65435D01*
X45371Y-65507D02*
X45071Y-65507D01*
X45071Y-65392D01*
X45085Y-65364D01*
X45100Y-65350D01*
X45128Y-65335D01*
X45171Y-65335D01*
X45200Y-65350D01*
X45214Y-65364D01*
X45228Y-65392D01*
X45228Y-65507D01*
X45100Y-65221D02*
X45085Y-65207D01*
X45071Y-65178D01*
X45071Y-65107D01*
X45085Y-65078D01*
X45100Y-65064D01*
X45128Y-65050D01*
X45157Y-65050D01*
X45200Y-65064D01*
X45371Y-65235D01*
X45371Y-65050D01*
X45100Y-64935D02*
X45085Y-64921D01*
X45071Y-64892D01*
X45071Y-64821D01*
X45085Y-64792D01*
X45100Y-64778D01*
X45128Y-64764D01*
X45157Y-64764D01*
X45200Y-64778D01*
X45371Y-64950D01*
X45371Y-64764D01*
X45100Y-64650D02*
X45085Y-64635D01*
X45071Y-64607D01*
X45071Y-64535D01*
X45085Y-64507D01*
X45100Y-64492D01*
X45128Y-64478D01*
X45157Y-64478D01*
X45200Y-64492D01*
X45371Y-64664D01*
X45371Y-64478D01*
X43121Y-65335D02*
X42978Y-65435D01*
X43121Y-65507D02*
X42821Y-65507D01*
X42821Y-65392D01*
X42835Y-65364D01*
X42850Y-65350D01*
X42878Y-65335D01*
X42921Y-65335D01*
X42950Y-65350D01*
X42964Y-65364D01*
X42978Y-65392D01*
X42978Y-65507D01*
X42850Y-65221D02*
X42835Y-65207D01*
X42821Y-65178D01*
X42821Y-65107D01*
X42835Y-65078D01*
X42850Y-65064D01*
X42878Y-65050D01*
X42907Y-65050D01*
X42950Y-65064D01*
X43121Y-65235D01*
X43121Y-65050D01*
X43121Y-64764D02*
X43121Y-64935D01*
X43121Y-64850D02*
X42821Y-64850D01*
X42864Y-64878D01*
X42892Y-64907D01*
X42907Y-64935D01*
X42850Y-64650D02*
X42835Y-64635D01*
X42821Y-64607D01*
X42821Y-64535D01*
X42835Y-64507D01*
X42850Y-64492D01*
X42878Y-64478D01*
X42907Y-64478D01*
X42950Y-64492D01*
X43121Y-64664D01*
X43121Y-64478D01*
X37914Y-59871D02*
X37814Y-59728D01*
X37742Y-59871D02*
X37742Y-59571D01*
X37857Y-59571D01*
X37885Y-59585D01*
X37900Y-59600D01*
X37914Y-59628D01*
X37914Y-59671D01*
X37900Y-59700D01*
X37885Y-59714D01*
X37857Y-59728D01*
X37742Y-59728D01*
X38028Y-59600D02*
X38042Y-59585D01*
X38071Y-59571D01*
X38142Y-59571D01*
X38171Y-59585D01*
X38185Y-59600D01*
X38200Y-59628D01*
X38200Y-59657D01*
X38185Y-59700D01*
X38014Y-59871D01*
X38200Y-59871D01*
X38471Y-59571D02*
X38328Y-59571D01*
X38314Y-59714D01*
X38328Y-59700D01*
X38357Y-59685D01*
X38428Y-59685D01*
X38457Y-59700D01*
X38471Y-59714D01*
X38485Y-59742D01*
X38485Y-59814D01*
X38471Y-59842D01*
X38457Y-59857D01*
X38428Y-59871D01*
X38357Y-59871D01*
X38328Y-59857D01*
X38314Y-59842D01*
X38771Y-59871D02*
X38600Y-59871D01*
X38685Y-59871D02*
X38685Y-59571D01*
X38657Y-59614D01*
X38628Y-59642D01*
X38600Y-59657D01*
X56664Y-58871D02*
X56564Y-58728D01*
X56492Y-58871D02*
X56492Y-58571D01*
X56607Y-58571D01*
X56635Y-58585D01*
X56650Y-58600D01*
X56664Y-58628D01*
X56664Y-58671D01*
X56650Y-58700D01*
X56635Y-58714D01*
X56607Y-58728D01*
X56492Y-58728D01*
X56778Y-58600D02*
X56792Y-58585D01*
X56821Y-58571D01*
X56892Y-58571D01*
X56921Y-58585D01*
X56935Y-58600D01*
X56950Y-58628D01*
X56950Y-58657D01*
X56935Y-58700D01*
X56764Y-58871D01*
X56950Y-58871D01*
X57221Y-58571D02*
X57078Y-58571D01*
X57064Y-58714D01*
X57078Y-58700D01*
X57107Y-58685D01*
X57178Y-58685D01*
X57207Y-58700D01*
X57221Y-58714D01*
X57235Y-58742D01*
X57235Y-58814D01*
X57221Y-58842D01*
X57207Y-58857D01*
X57178Y-58871D01*
X57107Y-58871D01*
X57078Y-58857D01*
X57064Y-58842D01*
X57492Y-58671D02*
X57492Y-58871D01*
X57421Y-58557D02*
X57350Y-58771D01*
X57535Y-58771D01*
X55371Y-55085D02*
X55228Y-55185D01*
X55371Y-55257D02*
X55071Y-55257D01*
X55071Y-55142D01*
X55085Y-55114D01*
X55100Y-55100D01*
X55128Y-55085D01*
X55171Y-55085D01*
X55200Y-55100D01*
X55214Y-55114D01*
X55228Y-55142D01*
X55228Y-55257D01*
X55100Y-54971D02*
X55085Y-54957D01*
X55071Y-54928D01*
X55071Y-54857D01*
X55085Y-54828D01*
X55100Y-54814D01*
X55128Y-54800D01*
X55157Y-54800D01*
X55200Y-54814D01*
X55371Y-54985D01*
X55371Y-54800D01*
X55071Y-54614D02*
X55071Y-54585D01*
X55085Y-54557D01*
X55100Y-54542D01*
X55128Y-54528D01*
X55185Y-54514D01*
X55257Y-54514D01*
X55314Y-54528D01*
X55342Y-54542D01*
X55357Y-54557D01*
X55371Y-54585D01*
X55371Y-54614D01*
X55357Y-54642D01*
X55342Y-54657D01*
X55314Y-54671D01*
X55257Y-54685D01*
X55185Y-54685D01*
X55128Y-54671D01*
X55100Y-54657D01*
X55085Y-54642D01*
X55071Y-54614D01*
X55071Y-54328D02*
X55071Y-54300D01*
X55085Y-54271D01*
X55100Y-54257D01*
X55128Y-54242D01*
X55185Y-54228D01*
X55257Y-54228D01*
X55314Y-54242D01*
X55342Y-54257D01*
X55357Y-54271D01*
X55371Y-54300D01*
X55371Y-54328D01*
X55357Y-54357D01*
X55342Y-54371D01*
X55314Y-54385D01*
X55257Y-54400D01*
X55185Y-54400D01*
X55128Y-54385D01*
X55100Y-54371D01*
X55085Y-54357D01*
X55071Y-54328D01*
G54D12*
X53823Y-54161D02*
X53823Y-53761D01*
X53976Y-53761D01*
X54014Y-53780D01*
X54033Y-53800D01*
X54052Y-53838D01*
X54052Y-53895D01*
X54033Y-53933D01*
X54014Y-53952D01*
X53976Y-53971D01*
X53823Y-53971D01*
X54204Y-53800D02*
X54223Y-53780D01*
X54261Y-53761D01*
X54357Y-53761D01*
X54395Y-53780D01*
X54414Y-53800D01*
X54433Y-53838D01*
X54433Y-53876D01*
X54414Y-53933D01*
X54185Y-54161D01*
X54433Y-54161D01*
X54680Y-53761D02*
X54719Y-53761D01*
X54757Y-53780D01*
X54776Y-53800D01*
X54795Y-53838D01*
X54814Y-53914D01*
X54814Y-54009D01*
X54795Y-54085D01*
X54776Y-54123D01*
X54757Y-54142D01*
X54719Y-54161D01*
X54680Y-54161D01*
X54642Y-54142D01*
X54623Y-54123D01*
X54604Y-54085D01*
X54585Y-54009D01*
X54585Y-53914D01*
X54604Y-53838D01*
X54623Y-53800D01*
X54642Y-53780D01*
X54680Y-53761D01*
X54966Y-53800D02*
X54985Y-53780D01*
X55023Y-53761D01*
X55119Y-53761D01*
X55157Y-53780D01*
X55176Y-53800D01*
X55195Y-53838D01*
X55195Y-53876D01*
X55176Y-53933D01*
X54947Y-54161D01*
X55195Y-54161D01*
G54D20*
X56471Y-53835D02*
X56471Y-53978D01*
X56171Y-53978D01*
X56471Y-53735D02*
X56171Y-53735D01*
X56171Y-53664D01*
X56185Y-53621D01*
X56214Y-53592D01*
X56242Y-53578D01*
X56300Y-53564D01*
X56342Y-53564D01*
X56400Y-53578D01*
X56428Y-53592D01*
X56457Y-53621D01*
X56471Y-53664D01*
X56471Y-53735D01*
X56200Y-53449D02*
X56185Y-53435D01*
X56171Y-53407D01*
X56171Y-53335D01*
X56185Y-53307D01*
X56200Y-53292D01*
X56228Y-53278D01*
X56257Y-53278D01*
X56300Y-53292D01*
X56471Y-53464D01*
X56471Y-53278D01*
X56171Y-53092D02*
X56171Y-53064D01*
X56185Y-53035D01*
X56200Y-53021D01*
X56228Y-53007D01*
X56285Y-52992D01*
X56357Y-52992D01*
X56414Y-53007D01*
X56442Y-53021D01*
X56457Y-53035D01*
X56471Y-53064D01*
X56471Y-53092D01*
X56457Y-53121D01*
X56442Y-53135D01*
X56414Y-53149D01*
X56357Y-53164D01*
X56285Y-53164D01*
X56228Y-53149D01*
X56200Y-53135D01*
X56185Y-53121D01*
X56171Y-53092D01*
X56171Y-52807D02*
X56171Y-52778D01*
X56185Y-52750D01*
X56200Y-52735D01*
X56228Y-52721D01*
X56285Y-52707D01*
X56357Y-52707D01*
X56414Y-52721D01*
X56442Y-52735D01*
X56457Y-52750D01*
X56471Y-52778D01*
X56471Y-52807D01*
X56457Y-52835D01*
X56442Y-52850D01*
X56414Y-52864D01*
X56357Y-52878D01*
X56285Y-52878D01*
X56228Y-52864D01*
X56200Y-52850D01*
X56185Y-52835D01*
X56171Y-52807D01*
G54D21*
X42916Y-63329D02*
X42916Y-63132D01*
X42963Y-63132D01*
X42992Y-63142D01*
X43010Y-63160D01*
X43020Y-63179D01*
X43029Y-63217D01*
X43029Y-63245D01*
X43020Y-63282D01*
X43010Y-63301D01*
X42992Y-63320D01*
X42963Y-63329D01*
X42916Y-63329D01*
X43104Y-63151D02*
X43113Y-63142D01*
X43132Y-63132D01*
X43179Y-63132D01*
X43198Y-63142D01*
X43207Y-63151D01*
X43217Y-63170D01*
X43217Y-63189D01*
X43207Y-63217D01*
X43095Y-63329D01*
X43217Y-63329D01*
X43282Y-63132D02*
X43404Y-63132D01*
X43339Y-63207D01*
X43367Y-63207D01*
X43386Y-63217D01*
X43395Y-63226D01*
X43404Y-63245D01*
X43404Y-63292D01*
X43395Y-63310D01*
X43386Y-63320D01*
X43367Y-63329D01*
X43310Y-63329D01*
X43292Y-63320D01*
X43282Y-63310D01*
X43526Y-63132D02*
X43545Y-63132D01*
X43564Y-63142D01*
X43573Y-63151D01*
X43583Y-63170D01*
X43592Y-63207D01*
X43592Y-63254D01*
X43583Y-63292D01*
X43573Y-63310D01*
X43564Y-63320D01*
X43545Y-63329D01*
X43526Y-63329D01*
X43507Y-63320D01*
X43498Y-63310D01*
X43489Y-63292D01*
X43479Y-63254D01*
X43479Y-63207D01*
X43489Y-63170D01*
X43498Y-63151D01*
X43507Y-63142D01*
X43526Y-63132D01*
X44416Y-53079D02*
X44416Y-52882D01*
X44463Y-52882D01*
X44492Y-52892D01*
X44510Y-52910D01*
X44520Y-52929D01*
X44529Y-52967D01*
X44529Y-52995D01*
X44520Y-53032D01*
X44510Y-53051D01*
X44492Y-53070D01*
X44463Y-53079D01*
X44416Y-53079D01*
X44595Y-52882D02*
X44717Y-52882D01*
X44651Y-52957D01*
X44679Y-52957D01*
X44698Y-52967D01*
X44707Y-52976D01*
X44717Y-52995D01*
X44717Y-53042D01*
X44707Y-53060D01*
X44698Y-53070D01*
X44679Y-53079D01*
X44623Y-53079D01*
X44604Y-53070D01*
X44595Y-53060D01*
X44839Y-52882D02*
X44857Y-52882D01*
X44876Y-52892D01*
X44886Y-52901D01*
X44895Y-52920D01*
X44904Y-52957D01*
X44904Y-53004D01*
X44895Y-53042D01*
X44886Y-53060D01*
X44876Y-53070D01*
X44857Y-53079D01*
X44839Y-53079D01*
X44820Y-53070D01*
X44810Y-53060D01*
X44801Y-53042D01*
X44792Y-53004D01*
X44792Y-52957D01*
X44801Y-52920D01*
X44810Y-52901D01*
X44820Y-52892D01*
X44839Y-52882D01*
X45026Y-52882D02*
X45045Y-52882D01*
X45064Y-52892D01*
X45073Y-52901D01*
X45083Y-52920D01*
X45092Y-52957D01*
X45092Y-53004D01*
X45083Y-53042D01*
X45073Y-53060D01*
X45064Y-53070D01*
X45045Y-53079D01*
X45026Y-53079D01*
X45007Y-53070D01*
X44998Y-53060D01*
X44989Y-53042D01*
X44979Y-53004D01*
X44979Y-52957D01*
X44989Y-52920D01*
X44998Y-52901D01*
X45007Y-52892D01*
X45026Y-52882D01*
X42916Y-53079D02*
X42916Y-52882D01*
X42963Y-52882D01*
X42992Y-52892D01*
X43010Y-52910D01*
X43020Y-52929D01*
X43029Y-52967D01*
X43029Y-52995D01*
X43020Y-53032D01*
X43010Y-53051D01*
X42992Y-53070D01*
X42963Y-53079D01*
X42916Y-53079D01*
X43104Y-52901D02*
X43113Y-52892D01*
X43132Y-52882D01*
X43179Y-52882D01*
X43198Y-52892D01*
X43207Y-52901D01*
X43217Y-52920D01*
X43217Y-52939D01*
X43207Y-52967D01*
X43095Y-53079D01*
X43217Y-53079D01*
X43310Y-53079D02*
X43348Y-53079D01*
X43367Y-53070D01*
X43376Y-53060D01*
X43395Y-53032D01*
X43404Y-52995D01*
X43404Y-52920D01*
X43395Y-52901D01*
X43386Y-52892D01*
X43367Y-52882D01*
X43329Y-52882D01*
X43310Y-52892D01*
X43301Y-52901D01*
X43292Y-52920D01*
X43292Y-52967D01*
X43301Y-52985D01*
X43310Y-52995D01*
X43329Y-53004D01*
X43367Y-53004D01*
X43386Y-52995D01*
X43395Y-52985D01*
X43404Y-52967D01*
X43526Y-52882D02*
X43545Y-52882D01*
X43564Y-52892D01*
X43573Y-52901D01*
X43583Y-52920D01*
X43592Y-52957D01*
X43592Y-53004D01*
X43583Y-53042D01*
X43573Y-53060D01*
X43564Y-53070D01*
X43545Y-53079D01*
X43526Y-53079D01*
X43507Y-53070D01*
X43498Y-53060D01*
X43489Y-53042D01*
X43479Y-53004D01*
X43479Y-52957D01*
X43489Y-52920D01*
X43498Y-52901D01*
X43507Y-52892D01*
X43526Y-52882D01*
X44416Y-66579D02*
X44416Y-66382D01*
X44463Y-66382D01*
X44492Y-66392D01*
X44510Y-66410D01*
X44520Y-66429D01*
X44529Y-66467D01*
X44529Y-66495D01*
X44520Y-66532D01*
X44510Y-66551D01*
X44492Y-66570D01*
X44463Y-66579D01*
X44416Y-66579D01*
X44604Y-66401D02*
X44613Y-66392D01*
X44632Y-66382D01*
X44679Y-66382D01*
X44698Y-66392D01*
X44707Y-66401D01*
X44717Y-66420D01*
X44717Y-66439D01*
X44707Y-66467D01*
X44595Y-66579D01*
X44717Y-66579D01*
X44792Y-66401D02*
X44801Y-66392D01*
X44820Y-66382D01*
X44867Y-66382D01*
X44886Y-66392D01*
X44895Y-66401D01*
X44904Y-66420D01*
X44904Y-66439D01*
X44895Y-66467D01*
X44782Y-66579D01*
X44904Y-66579D01*
X45026Y-66382D02*
X45045Y-66382D01*
X45064Y-66392D01*
X45073Y-66401D01*
X45083Y-66420D01*
X45092Y-66457D01*
X45092Y-66504D01*
X45083Y-66542D01*
X45073Y-66560D01*
X45064Y-66570D01*
X45045Y-66579D01*
X45026Y-66579D01*
X45007Y-66570D01*
X44998Y-66560D01*
X44989Y-66542D01*
X44979Y-66504D01*
X44979Y-66457D01*
X44989Y-66420D01*
X44998Y-66401D01*
X45007Y-66392D01*
X45026Y-66382D01*
X44416Y-63329D02*
X44416Y-63132D01*
X44463Y-63132D01*
X44492Y-63142D01*
X44510Y-63160D01*
X44520Y-63179D01*
X44529Y-63217D01*
X44529Y-63245D01*
X44520Y-63282D01*
X44510Y-63301D01*
X44492Y-63320D01*
X44463Y-63329D01*
X44416Y-63329D01*
X44604Y-63151D02*
X44613Y-63142D01*
X44632Y-63132D01*
X44679Y-63132D01*
X44698Y-63142D01*
X44707Y-63151D01*
X44717Y-63170D01*
X44717Y-63189D01*
X44707Y-63217D01*
X44595Y-63329D01*
X44717Y-63329D01*
X44886Y-63198D02*
X44886Y-63329D01*
X44839Y-63123D02*
X44792Y-63264D01*
X44914Y-63264D01*
X45026Y-63132D02*
X45045Y-63132D01*
X45064Y-63142D01*
X45073Y-63151D01*
X45083Y-63170D01*
X45092Y-63207D01*
X45092Y-63254D01*
X45083Y-63292D01*
X45073Y-63310D01*
X45064Y-63320D01*
X45045Y-63329D01*
X45026Y-63329D01*
X45007Y-63320D01*
X44998Y-63310D01*
X44989Y-63292D01*
X44979Y-63254D01*
X44979Y-63207D01*
X44989Y-63170D01*
X44998Y-63151D01*
X45007Y-63142D01*
X45026Y-63132D01*
G54D13*
X57914Y-52121D02*
X57814Y-51978D01*
X57742Y-52121D02*
X57742Y-51821D01*
X57857Y-51821D01*
X57885Y-51835D01*
X57900Y-51850D01*
X57914Y-51878D01*
X57914Y-51921D01*
X57900Y-51950D01*
X57885Y-51964D01*
X57857Y-51978D01*
X57742Y-51978D01*
X58028Y-51850D02*
X58042Y-51835D01*
X58071Y-51821D01*
X58142Y-51821D01*
X58171Y-51835D01*
X58185Y-51850D01*
X58200Y-51878D01*
X58200Y-51907D01*
X58185Y-51950D01*
X58014Y-52121D01*
X58200Y-52121D01*
X58342Y-52121D02*
X58400Y-52121D01*
X58428Y-52107D01*
X58442Y-52092D01*
X58471Y-52050D01*
X58485Y-51992D01*
X58485Y-51878D01*
X58471Y-51850D01*
X58457Y-51835D01*
X58428Y-51821D01*
X58371Y-51821D01*
X58342Y-51835D01*
X58328Y-51850D01*
X58314Y-51878D01*
X58314Y-51950D01*
X58328Y-51978D01*
X58342Y-51992D01*
X58371Y-52007D01*
X58428Y-52007D01*
X58457Y-51992D01*
X58471Y-51978D01*
X58485Y-51950D01*
X58757Y-51821D02*
X58614Y-51821D01*
X58600Y-51964D01*
X58614Y-51950D01*
X58642Y-51935D01*
X58714Y-51935D01*
X58742Y-51950D01*
X58757Y-51964D01*
X58771Y-51992D01*
X58771Y-52064D01*
X58757Y-52092D01*
X58742Y-52107D01*
X58714Y-52121D01*
X58642Y-52121D01*
X58614Y-52107D01*
X58600Y-52092D01*
X56664Y-52121D02*
X56564Y-51978D01*
X56492Y-52121D02*
X56492Y-51821D01*
X56607Y-51821D01*
X56635Y-51835D01*
X56650Y-51850D01*
X56664Y-51878D01*
X56664Y-51921D01*
X56650Y-51950D01*
X56635Y-51964D01*
X56607Y-51978D01*
X56492Y-51978D01*
X56778Y-51850D02*
X56792Y-51835D01*
X56821Y-51821D01*
X56892Y-51821D01*
X56921Y-51835D01*
X56935Y-51850D01*
X56950Y-51878D01*
X56950Y-51907D01*
X56935Y-51950D01*
X56764Y-52121D01*
X56950Y-52121D01*
X57092Y-52121D02*
X57150Y-52121D01*
X57178Y-52107D01*
X57192Y-52092D01*
X57221Y-52050D01*
X57235Y-51992D01*
X57235Y-51878D01*
X57221Y-51850D01*
X57207Y-51835D01*
X57178Y-51821D01*
X57121Y-51821D01*
X57092Y-51835D01*
X57078Y-51850D01*
X57064Y-51878D01*
X57064Y-51950D01*
X57078Y-51978D01*
X57092Y-51992D01*
X57121Y-52007D01*
X57178Y-52007D01*
X57207Y-51992D01*
X57221Y-51978D01*
X57235Y-51950D01*
X57492Y-51921D02*
X57492Y-52121D01*
X57421Y-51807D02*
X57350Y-52021D01*
X57535Y-52021D01*
X37914Y-52871D02*
X37814Y-52728D01*
X37742Y-52871D02*
X37742Y-52571D01*
X37857Y-52571D01*
X37885Y-52585D01*
X37900Y-52600D01*
X37914Y-52628D01*
X37914Y-52671D01*
X37900Y-52700D01*
X37885Y-52714D01*
X37857Y-52728D01*
X37742Y-52728D01*
X38028Y-52600D02*
X38042Y-52585D01*
X38071Y-52571D01*
X38142Y-52571D01*
X38171Y-52585D01*
X38185Y-52600D01*
X38200Y-52628D01*
X38200Y-52657D01*
X38185Y-52700D01*
X38014Y-52871D01*
X38200Y-52871D01*
X38342Y-52871D02*
X38400Y-52871D01*
X38428Y-52857D01*
X38442Y-52842D01*
X38471Y-52800D01*
X38485Y-52742D01*
X38485Y-52628D01*
X38471Y-52600D01*
X38457Y-52585D01*
X38428Y-52571D01*
X38371Y-52571D01*
X38342Y-52585D01*
X38328Y-52600D01*
X38314Y-52628D01*
X38314Y-52700D01*
X38328Y-52728D01*
X38342Y-52742D01*
X38371Y-52757D01*
X38428Y-52757D01*
X38457Y-52742D01*
X38471Y-52728D01*
X38485Y-52700D01*
X38771Y-52871D02*
X38600Y-52871D01*
X38685Y-52871D02*
X38685Y-52571D01*
X38657Y-52614D01*
X38628Y-52642D01*
X38600Y-52657D01*
X39164Y-51621D02*
X39064Y-51478D01*
X38992Y-51621D02*
X38992Y-51321D01*
X39107Y-51321D01*
X39135Y-51335D01*
X39150Y-51350D01*
X39164Y-51378D01*
X39164Y-51421D01*
X39150Y-51450D01*
X39135Y-51464D01*
X39107Y-51478D01*
X38992Y-51478D01*
X39264Y-51321D02*
X39450Y-51321D01*
X39350Y-51435D01*
X39392Y-51435D01*
X39421Y-51450D01*
X39435Y-51464D01*
X39450Y-51492D01*
X39450Y-51564D01*
X39435Y-51592D01*
X39421Y-51607D01*
X39392Y-51621D01*
X39307Y-51621D01*
X39278Y-51607D01*
X39264Y-51592D01*
X39635Y-51321D02*
X39664Y-51321D01*
X39692Y-51335D01*
X39707Y-51350D01*
X39721Y-51378D01*
X39735Y-51435D01*
X39735Y-51507D01*
X39721Y-51564D01*
X39707Y-51592D01*
X39692Y-51607D01*
X39664Y-51621D01*
X39635Y-51621D01*
X39607Y-51607D01*
X39592Y-51592D01*
X39578Y-51564D01*
X39564Y-51507D01*
X39564Y-51435D01*
X39578Y-51378D01*
X39592Y-51350D01*
X39607Y-51335D01*
X39635Y-51321D01*
X40021Y-51621D02*
X39850Y-51621D01*
X39935Y-51621D02*
X39935Y-51321D01*
X39907Y-51364D01*
X39878Y-51392D01*
X39850Y-51407D01*
X59164Y-52121D02*
X59064Y-51978D01*
X58992Y-52121D02*
X58992Y-51821D01*
X59107Y-51821D01*
X59135Y-51835D01*
X59150Y-51850D01*
X59164Y-51878D01*
X59164Y-51921D01*
X59150Y-51950D01*
X59135Y-51964D01*
X59107Y-51978D01*
X58992Y-51978D01*
X59264Y-51821D02*
X59450Y-51821D01*
X59350Y-51935D01*
X59392Y-51935D01*
X59421Y-51950D01*
X59435Y-51964D01*
X59450Y-51992D01*
X59450Y-52064D01*
X59435Y-52092D01*
X59421Y-52107D01*
X59392Y-52121D01*
X59307Y-52121D01*
X59278Y-52107D01*
X59264Y-52092D01*
X59635Y-51821D02*
X59664Y-51821D01*
X59692Y-51835D01*
X59707Y-51850D01*
X59721Y-51878D01*
X59735Y-51935D01*
X59735Y-52007D01*
X59721Y-52064D01*
X59707Y-52092D01*
X59692Y-52107D01*
X59664Y-52121D01*
X59635Y-52121D01*
X59607Y-52107D01*
X59592Y-52092D01*
X59578Y-52064D01*
X59564Y-52007D01*
X59564Y-51935D01*
X59578Y-51878D01*
X59592Y-51850D01*
X59607Y-51835D01*
X59635Y-51821D01*
X59992Y-51921D02*
X59992Y-52121D01*
X59921Y-51807D02*
X59850Y-52021D01*
X60035Y-52021D01*
X60414Y-52121D02*
X60314Y-51978D01*
X60242Y-52121D02*
X60242Y-51821D01*
X60357Y-51821D01*
X60385Y-51835D01*
X60400Y-51850D01*
X60414Y-51878D01*
X60414Y-51921D01*
X60400Y-51950D01*
X60385Y-51964D01*
X60357Y-51978D01*
X60242Y-51978D01*
X60514Y-51821D02*
X60700Y-51821D01*
X60600Y-51935D01*
X60642Y-51935D01*
X60671Y-51950D01*
X60685Y-51964D01*
X60700Y-51992D01*
X60700Y-52064D01*
X60685Y-52092D01*
X60671Y-52107D01*
X60642Y-52121D01*
X60557Y-52121D01*
X60528Y-52107D01*
X60514Y-52092D01*
X60885Y-51821D02*
X60914Y-51821D01*
X60942Y-51835D01*
X60957Y-51850D01*
X60971Y-51878D01*
X60985Y-51935D01*
X60985Y-52007D01*
X60971Y-52064D01*
X60957Y-52092D01*
X60942Y-52107D01*
X60914Y-52121D01*
X60885Y-52121D01*
X60857Y-52107D01*
X60842Y-52092D01*
X60828Y-52064D01*
X60814Y-52007D01*
X60814Y-51935D01*
X60828Y-51878D01*
X60842Y-51850D01*
X60857Y-51835D01*
X60885Y-51821D01*
X61257Y-51821D02*
X61114Y-51821D01*
X61100Y-51964D01*
X61114Y-51950D01*
X61142Y-51935D01*
X61214Y-51935D01*
X61242Y-51950D01*
X61257Y-51964D01*
X61271Y-51992D01*
X61271Y-52064D01*
X61257Y-52092D01*
X61242Y-52107D01*
X61214Y-52121D01*
X61142Y-52121D01*
X61114Y-52107D01*
X61100Y-52092D01*
X48164Y-52371D02*
X48064Y-52228D01*
X47992Y-52371D02*
X47992Y-52071D01*
X48107Y-52071D01*
X48135Y-52085D01*
X48150Y-52100D01*
X48164Y-52128D01*
X48164Y-52171D01*
X48150Y-52200D01*
X48135Y-52214D01*
X48107Y-52228D01*
X47992Y-52228D01*
X48278Y-52100D02*
X48292Y-52085D01*
X48321Y-52071D01*
X48392Y-52071D01*
X48421Y-52085D01*
X48435Y-52100D01*
X48450Y-52128D01*
X48450Y-52157D01*
X48435Y-52200D01*
X48264Y-52371D01*
X48450Y-52371D01*
X48592Y-52371D02*
X48650Y-52371D01*
X48678Y-52357D01*
X48692Y-52342D01*
X48721Y-52300D01*
X48735Y-52242D01*
X48735Y-52128D01*
X48721Y-52100D01*
X48707Y-52085D01*
X48678Y-52071D01*
X48621Y-52071D01*
X48592Y-52085D01*
X48578Y-52100D01*
X48564Y-52128D01*
X48564Y-52200D01*
X48578Y-52228D01*
X48592Y-52242D01*
X48621Y-52257D01*
X48678Y-52257D01*
X48707Y-52242D01*
X48721Y-52228D01*
X48735Y-52200D01*
X48835Y-52071D02*
X49021Y-52071D01*
X48921Y-52185D01*
X48964Y-52185D01*
X48992Y-52200D01*
X49007Y-52214D01*
X49021Y-52242D01*
X49021Y-52314D01*
X49007Y-52342D01*
X48992Y-52357D01*
X48964Y-52371D01*
X48878Y-52371D01*
X48850Y-52357D01*
X48835Y-52342D01*
X49414Y-52342D02*
X49400Y-52357D01*
X49357Y-52371D01*
X49328Y-52371D01*
X49285Y-52357D01*
X49257Y-52328D01*
X49242Y-52300D01*
X49228Y-52242D01*
X49228Y-52200D01*
X49242Y-52142D01*
X49257Y-52114D01*
X49285Y-52085D01*
X49328Y-52071D01*
X49357Y-52071D01*
X49400Y-52085D01*
X49414Y-52100D01*
X49528Y-52100D02*
X49542Y-52085D01*
X49571Y-52071D01*
X49642Y-52071D01*
X49671Y-52085D01*
X49685Y-52100D01*
X49700Y-52128D01*
X49700Y-52157D01*
X49685Y-52200D01*
X49514Y-52371D01*
X49700Y-52371D01*
X49842Y-52371D02*
X49900Y-52371D01*
X49928Y-52357D01*
X49942Y-52342D01*
X49971Y-52300D01*
X49985Y-52242D01*
X49985Y-52128D01*
X49971Y-52100D01*
X49957Y-52085D01*
X49928Y-52071D01*
X49871Y-52071D01*
X49842Y-52085D01*
X49828Y-52100D01*
X49814Y-52128D01*
X49814Y-52200D01*
X49828Y-52228D01*
X49842Y-52242D01*
X49871Y-52257D01*
X49928Y-52257D01*
X49957Y-52242D01*
X49971Y-52228D01*
X49985Y-52200D01*
X50171Y-52071D02*
X50200Y-52071D01*
X50228Y-52085D01*
X50242Y-52100D01*
X50257Y-52128D01*
X50271Y-52185D01*
X50271Y-52257D01*
X50257Y-52314D01*
X50242Y-52342D01*
X50228Y-52357D01*
X50200Y-52371D01*
X50171Y-52371D01*
X50142Y-52357D01*
X50128Y-52342D01*
X50114Y-52314D01*
X50100Y-52257D01*
X50100Y-52185D01*
X50114Y-52128D01*
X50128Y-52100D01*
X50142Y-52085D01*
X50171Y-52071D01*
X41664Y-52871D02*
X41564Y-52728D01*
X41492Y-52871D02*
X41492Y-52571D01*
X41607Y-52571D01*
X41635Y-52585D01*
X41650Y-52600D01*
X41664Y-52628D01*
X41664Y-52671D01*
X41650Y-52700D01*
X41635Y-52714D01*
X41607Y-52728D01*
X41492Y-52728D01*
X41778Y-52600D02*
X41792Y-52585D01*
X41821Y-52571D01*
X41892Y-52571D01*
X41921Y-52585D01*
X41935Y-52600D01*
X41950Y-52628D01*
X41950Y-52657D01*
X41935Y-52700D01*
X41764Y-52871D01*
X41950Y-52871D01*
X42092Y-52871D02*
X42150Y-52871D01*
X42178Y-52857D01*
X42192Y-52842D01*
X42221Y-52800D01*
X42235Y-52742D01*
X42235Y-52628D01*
X42221Y-52600D01*
X42207Y-52585D01*
X42178Y-52571D01*
X42121Y-52571D01*
X42092Y-52585D01*
X42078Y-52600D01*
X42064Y-52628D01*
X42064Y-52700D01*
X42078Y-52728D01*
X42092Y-52742D01*
X42121Y-52757D01*
X42178Y-52757D01*
X42207Y-52742D01*
X42221Y-52728D01*
X42235Y-52700D01*
X42421Y-52571D02*
X42450Y-52571D01*
X42478Y-52585D01*
X42492Y-52600D01*
X42507Y-52628D01*
X42521Y-52685D01*
X42521Y-52757D01*
X42507Y-52814D01*
X42492Y-52842D01*
X42478Y-52857D01*
X42450Y-52871D01*
X42421Y-52871D01*
X42392Y-52857D01*
X42378Y-52842D01*
X42364Y-52814D01*
X42350Y-52757D01*
X42350Y-52685D01*
X42364Y-52628D01*
X42378Y-52600D01*
X42392Y-52585D01*
X42421Y-52571D01*
X45664Y-52871D02*
X45564Y-52728D01*
X45492Y-52871D02*
X45492Y-52571D01*
X45607Y-52571D01*
X45635Y-52585D01*
X45650Y-52600D01*
X45664Y-52628D01*
X45664Y-52671D01*
X45650Y-52700D01*
X45635Y-52714D01*
X45607Y-52728D01*
X45492Y-52728D01*
X45764Y-52571D02*
X45950Y-52571D01*
X45850Y-52685D01*
X45892Y-52685D01*
X45921Y-52700D01*
X45935Y-52714D01*
X45950Y-52742D01*
X45950Y-52814D01*
X45935Y-52842D01*
X45921Y-52857D01*
X45892Y-52871D01*
X45807Y-52871D01*
X45778Y-52857D01*
X45764Y-52842D01*
X46135Y-52571D02*
X46164Y-52571D01*
X46192Y-52585D01*
X46207Y-52600D01*
X46221Y-52628D01*
X46235Y-52685D01*
X46235Y-52757D01*
X46221Y-52814D01*
X46207Y-52842D01*
X46192Y-52857D01*
X46164Y-52871D01*
X46135Y-52871D01*
X46107Y-52857D01*
X46092Y-52842D01*
X46078Y-52814D01*
X46064Y-52757D01*
X46064Y-52685D01*
X46078Y-52628D01*
X46092Y-52600D01*
X46107Y-52585D01*
X46135Y-52571D01*
X46335Y-52571D02*
X46521Y-52571D01*
X46421Y-52685D01*
X46464Y-52685D01*
X46492Y-52700D01*
X46507Y-52714D01*
X46521Y-52742D01*
X46521Y-52814D01*
X46507Y-52842D01*
X46492Y-52857D01*
X46464Y-52871D01*
X46378Y-52871D01*
X46350Y-52857D01*
X46335Y-52842D01*
X46914Y-52842D02*
X46900Y-52857D01*
X46857Y-52871D01*
X46828Y-52871D01*
X46785Y-52857D01*
X46757Y-52828D01*
X46742Y-52800D01*
X46728Y-52742D01*
X46728Y-52700D01*
X46742Y-52642D01*
X46757Y-52614D01*
X46785Y-52585D01*
X46828Y-52571D01*
X46857Y-52571D01*
X46900Y-52585D01*
X46914Y-52600D01*
X47014Y-52571D02*
X47200Y-52571D01*
X47100Y-52685D01*
X47142Y-52685D01*
X47171Y-52700D01*
X47185Y-52714D01*
X47200Y-52742D01*
X47200Y-52814D01*
X47185Y-52842D01*
X47171Y-52857D01*
X47142Y-52871D01*
X47057Y-52871D01*
X47028Y-52857D01*
X47014Y-52842D01*
X47385Y-52571D02*
X47414Y-52571D01*
X47442Y-52585D01*
X47457Y-52600D01*
X47471Y-52628D01*
X47485Y-52685D01*
X47485Y-52757D01*
X47471Y-52814D01*
X47457Y-52842D01*
X47442Y-52857D01*
X47414Y-52871D01*
X47385Y-52871D01*
X47357Y-52857D01*
X47342Y-52842D01*
X47328Y-52814D01*
X47314Y-52757D01*
X47314Y-52685D01*
X47328Y-52628D01*
X47342Y-52600D01*
X47357Y-52585D01*
X47385Y-52571D01*
X47671Y-52571D02*
X47700Y-52571D01*
X47728Y-52585D01*
X47742Y-52600D01*
X47757Y-52628D01*
X47771Y-52685D01*
X47771Y-52757D01*
X47757Y-52814D01*
X47742Y-52842D01*
X47728Y-52857D01*
X47700Y-52871D01*
X47671Y-52871D01*
X47642Y-52857D01*
X47628Y-52842D01*
X47614Y-52814D01*
X47600Y-52757D01*
X47600Y-52685D01*
X47614Y-52628D01*
X47628Y-52600D01*
X47642Y-52585D01*
X47671Y-52571D01*
X40414Y-52871D02*
X40314Y-52728D01*
X40242Y-52871D02*
X40242Y-52571D01*
X40357Y-52571D01*
X40385Y-52585D01*
X40400Y-52600D01*
X40414Y-52628D01*
X40414Y-52671D01*
X40400Y-52700D01*
X40385Y-52714D01*
X40357Y-52728D01*
X40242Y-52728D01*
X40514Y-52571D02*
X40700Y-52571D01*
X40600Y-52685D01*
X40642Y-52685D01*
X40671Y-52700D01*
X40685Y-52714D01*
X40700Y-52742D01*
X40700Y-52814D01*
X40685Y-52842D01*
X40671Y-52857D01*
X40642Y-52871D01*
X40557Y-52871D01*
X40528Y-52857D01*
X40514Y-52842D01*
X40885Y-52571D02*
X40914Y-52571D01*
X40942Y-52585D01*
X40957Y-52600D01*
X40971Y-52628D01*
X40985Y-52685D01*
X40985Y-52757D01*
X40971Y-52814D01*
X40957Y-52842D01*
X40942Y-52857D01*
X40914Y-52871D01*
X40885Y-52871D01*
X40857Y-52857D01*
X40842Y-52842D01*
X40828Y-52814D01*
X40814Y-52757D01*
X40814Y-52685D01*
X40828Y-52628D01*
X40842Y-52600D01*
X40857Y-52585D01*
X40885Y-52571D01*
X41171Y-52571D02*
X41200Y-52571D01*
X41228Y-52585D01*
X41242Y-52600D01*
X41257Y-52628D01*
X41271Y-52685D01*
X41271Y-52757D01*
X41257Y-52814D01*
X41242Y-52842D01*
X41228Y-52857D01*
X41200Y-52871D01*
X41171Y-52871D01*
X41142Y-52857D01*
X41128Y-52842D01*
X41114Y-52814D01*
X41100Y-52757D01*
X41100Y-52685D01*
X41114Y-52628D01*
X41128Y-52600D01*
X41142Y-52585D01*
X41171Y-52571D01*
G54D21*
X42916Y-66579D02*
X42916Y-66382D01*
X42963Y-66382D01*
X42992Y-66392D01*
X43010Y-66410D01*
X43020Y-66429D01*
X43029Y-66467D01*
X43029Y-66495D01*
X43020Y-66532D01*
X43010Y-66551D01*
X42992Y-66570D01*
X42963Y-66579D01*
X42916Y-66579D01*
X43104Y-66401D02*
X43113Y-66392D01*
X43132Y-66382D01*
X43179Y-66382D01*
X43198Y-66392D01*
X43207Y-66401D01*
X43217Y-66420D01*
X43217Y-66439D01*
X43207Y-66467D01*
X43095Y-66579D01*
X43217Y-66579D01*
X43404Y-66579D02*
X43292Y-66579D01*
X43348Y-66579D02*
X43348Y-66382D01*
X43329Y-66410D01*
X43310Y-66429D01*
X43292Y-66439D01*
X43526Y-66382D02*
X43545Y-66382D01*
X43564Y-66392D01*
X43573Y-66401D01*
X43583Y-66420D01*
X43592Y-66457D01*
X43592Y-66504D01*
X43583Y-66542D01*
X43573Y-66560D01*
X43564Y-66570D01*
X43545Y-66579D01*
X43526Y-66579D01*
X43507Y-66570D01*
X43498Y-66560D01*
X43489Y-66542D01*
X43479Y-66504D01*
X43479Y-66457D01*
X43489Y-66420D01*
X43498Y-66401D01*
X43507Y-66392D01*
X43526Y-66382D01*
G54D22*
X35573Y-56411D02*
X35573Y-56011D01*
X35726Y-56011D01*
X35764Y-56030D01*
X35783Y-56050D01*
X35802Y-56088D01*
X35802Y-56145D01*
X35783Y-56183D01*
X35764Y-56202D01*
X35726Y-56221D01*
X35573Y-56221D01*
X35954Y-56050D02*
X35973Y-56030D01*
X36011Y-56011D01*
X36107Y-56011D01*
X36145Y-56030D01*
X36164Y-56050D01*
X36183Y-56088D01*
X36183Y-56126D01*
X36164Y-56183D01*
X35935Y-56411D01*
X36183Y-56411D01*
X36430Y-56011D02*
X36469Y-56011D01*
X36507Y-56030D01*
X36526Y-56050D01*
X36545Y-56088D01*
X36564Y-56164D01*
X36564Y-56259D01*
X36545Y-56335D01*
X36526Y-56373D01*
X36507Y-56392D01*
X36469Y-56411D01*
X36430Y-56411D01*
X36392Y-56392D01*
X36373Y-56373D01*
X36354Y-56335D01*
X36335Y-56259D01*
X36335Y-56164D01*
X36354Y-56088D01*
X36373Y-56050D01*
X36392Y-56030D01*
X36430Y-56011D01*
X36754Y-56411D02*
X36830Y-56411D01*
X36869Y-56392D01*
X36888Y-56373D01*
X36926Y-56316D01*
X36945Y-56240D01*
X36945Y-56088D01*
X36926Y-56050D01*
X36907Y-56030D01*
X36869Y-56011D01*
X36792Y-56011D01*
X36754Y-56030D01*
X36735Y-56050D01*
X36716Y-56088D01*
X36716Y-56183D01*
X36735Y-56221D01*
X36754Y-56240D01*
X36792Y-56259D01*
X36869Y-56259D01*
X36907Y-56240D01*
X36926Y-56221D01*
X36945Y-56183D01*
G54D13*
X49414Y-62342D02*
X49400Y-62357D01*
X49357Y-62371D01*
X49328Y-62371D01*
X49285Y-62357D01*
X49257Y-62328D01*
X49242Y-62300D01*
X49228Y-62242D01*
X49228Y-62200D01*
X49242Y-62142D01*
X49257Y-62114D01*
X49285Y-62085D01*
X49328Y-62071D01*
X49357Y-62071D01*
X49400Y-62085D01*
X49414Y-62100D01*
X49528Y-62100D02*
X49542Y-62085D01*
X49571Y-62071D01*
X49642Y-62071D01*
X49671Y-62085D01*
X49685Y-62100D01*
X49700Y-62128D01*
X49700Y-62157D01*
X49685Y-62200D01*
X49514Y-62371D01*
X49700Y-62371D01*
X49800Y-62071D02*
X49985Y-62071D01*
X49885Y-62185D01*
X49928Y-62185D01*
X49957Y-62200D01*
X49971Y-62214D01*
X49985Y-62242D01*
X49985Y-62314D01*
X49971Y-62342D01*
X49957Y-62357D01*
X49928Y-62371D01*
X49842Y-62371D01*
X49814Y-62357D01*
X49800Y-62342D01*
X50171Y-62071D02*
X50200Y-62071D01*
X50228Y-62085D01*
X50242Y-62100D01*
X50257Y-62128D01*
X50271Y-62185D01*
X50271Y-62257D01*
X50257Y-62314D01*
X50242Y-62342D01*
X50228Y-62357D01*
X50200Y-62371D01*
X50171Y-62371D01*
X50142Y-62357D01*
X50128Y-62342D01*
X50114Y-62314D01*
X50100Y-62257D01*
X50100Y-62185D01*
X50114Y-62128D01*
X50128Y-62100D01*
X50142Y-62085D01*
X50171Y-62071D01*
X46914Y-63092D02*
X46900Y-63107D01*
X46857Y-63121D01*
X46828Y-63121D01*
X46785Y-63107D01*
X46757Y-63078D01*
X46742Y-63050D01*
X46728Y-62992D01*
X46728Y-62950D01*
X46742Y-62892D01*
X46757Y-62864D01*
X46785Y-62835D01*
X46828Y-62821D01*
X46857Y-62821D01*
X46900Y-62835D01*
X46914Y-62850D01*
X47028Y-62850D02*
X47042Y-62835D01*
X47071Y-62821D01*
X47142Y-62821D01*
X47171Y-62835D01*
X47185Y-62850D01*
X47200Y-62878D01*
X47200Y-62907D01*
X47185Y-62950D01*
X47014Y-63121D01*
X47200Y-63121D01*
X47457Y-62921D02*
X47457Y-63121D01*
X47385Y-62807D02*
X47314Y-63021D01*
X47500Y-63021D01*
X47671Y-62821D02*
X47700Y-62821D01*
X47728Y-62835D01*
X47742Y-62850D01*
X47757Y-62878D01*
X47771Y-62935D01*
X47771Y-63007D01*
X47757Y-63064D01*
X47742Y-63092D01*
X47728Y-63107D01*
X47700Y-63121D01*
X47671Y-63121D01*
X47642Y-63107D01*
X47628Y-63092D01*
X47614Y-63064D01*
X47600Y-63007D01*
X47600Y-62935D01*
X47614Y-62878D01*
X47628Y-62850D01*
X47642Y-62835D01*
X47671Y-62821D01*
X51164Y-50342D02*
X51150Y-50357D01*
X51107Y-50371D01*
X51078Y-50371D01*
X51035Y-50357D01*
X51007Y-50328D01*
X50992Y-50300D01*
X50978Y-50242D01*
X50978Y-50200D01*
X50992Y-50142D01*
X51007Y-50114D01*
X51035Y-50085D01*
X51078Y-50071D01*
X51107Y-50071D01*
X51150Y-50085D01*
X51164Y-50100D01*
X51278Y-50100D02*
X51292Y-50085D01*
X51321Y-50071D01*
X51392Y-50071D01*
X51421Y-50085D01*
X51435Y-50100D01*
X51450Y-50128D01*
X51450Y-50157D01*
X51435Y-50200D01*
X51264Y-50371D01*
X51450Y-50371D01*
X51592Y-50371D02*
X51650Y-50371D01*
X51678Y-50357D01*
X51692Y-50342D01*
X51721Y-50300D01*
X51735Y-50242D01*
X51735Y-50128D01*
X51721Y-50100D01*
X51707Y-50085D01*
X51678Y-50071D01*
X51621Y-50071D01*
X51592Y-50085D01*
X51578Y-50100D01*
X51564Y-50128D01*
X51564Y-50200D01*
X51578Y-50228D01*
X51592Y-50242D01*
X51621Y-50257D01*
X51678Y-50257D01*
X51707Y-50242D01*
X51721Y-50228D01*
X51735Y-50200D01*
X52021Y-50371D02*
X51850Y-50371D01*
X51935Y-50371D02*
X51935Y-50071D01*
X51907Y-50114D01*
X51878Y-50142D01*
X51850Y-50157D01*
X49414Y-59092D02*
X49400Y-59107D01*
X49357Y-59121D01*
X49328Y-59121D01*
X49285Y-59107D01*
X49257Y-59078D01*
X49242Y-59050D01*
X49228Y-58992D01*
X49228Y-58950D01*
X49242Y-58892D01*
X49257Y-58864D01*
X49285Y-58835D01*
X49328Y-58821D01*
X49357Y-58821D01*
X49400Y-58835D01*
X49414Y-58850D01*
X49528Y-58850D02*
X49542Y-58835D01*
X49571Y-58821D01*
X49642Y-58821D01*
X49671Y-58835D01*
X49685Y-58850D01*
X49700Y-58878D01*
X49700Y-58907D01*
X49685Y-58950D01*
X49514Y-59121D01*
X49700Y-59121D01*
X49971Y-58821D02*
X49828Y-58821D01*
X49814Y-58964D01*
X49828Y-58950D01*
X49857Y-58935D01*
X49928Y-58935D01*
X49957Y-58950D01*
X49971Y-58964D01*
X49985Y-58992D01*
X49985Y-59064D01*
X49971Y-59092D01*
X49957Y-59107D01*
X49928Y-59121D01*
X49857Y-59121D01*
X49828Y-59107D01*
X49814Y-59092D01*
X50171Y-58821D02*
X50200Y-58821D01*
X50228Y-58835D01*
X50242Y-58850D01*
X50257Y-58878D01*
X50271Y-58935D01*
X50271Y-59007D01*
X50257Y-59064D01*
X50242Y-59092D01*
X50228Y-59107D01*
X50200Y-59121D01*
X50171Y-59121D01*
X50142Y-59107D01*
X50128Y-59092D01*
X50114Y-59064D01*
X50100Y-59007D01*
X50100Y-58935D01*
X50114Y-58878D01*
X50128Y-58850D01*
X50142Y-58835D01*
X50171Y-58821D01*
X46914Y-59842D02*
X46900Y-59857D01*
X46857Y-59871D01*
X46828Y-59871D01*
X46785Y-59857D01*
X46757Y-59828D01*
X46742Y-59800D01*
X46728Y-59742D01*
X46728Y-59700D01*
X46742Y-59642D01*
X46757Y-59614D01*
X46785Y-59585D01*
X46828Y-59571D01*
X46857Y-59571D01*
X46900Y-59585D01*
X46914Y-59600D01*
X47028Y-59600D02*
X47042Y-59585D01*
X47071Y-59571D01*
X47142Y-59571D01*
X47171Y-59585D01*
X47185Y-59600D01*
X47200Y-59628D01*
X47200Y-59657D01*
X47185Y-59700D01*
X47014Y-59871D01*
X47200Y-59871D01*
X47457Y-59571D02*
X47400Y-59571D01*
X47371Y-59585D01*
X47357Y-59600D01*
X47328Y-59642D01*
X47314Y-59700D01*
X47314Y-59814D01*
X47328Y-59842D01*
X47342Y-59857D01*
X47371Y-59871D01*
X47428Y-59871D01*
X47457Y-59857D01*
X47471Y-59842D01*
X47485Y-59814D01*
X47485Y-59742D01*
X47471Y-59714D01*
X47457Y-59700D01*
X47428Y-59685D01*
X47371Y-59685D01*
X47342Y-59700D01*
X47328Y-59714D01*
X47314Y-59742D01*
X47671Y-59571D02*
X47700Y-59571D01*
X47728Y-59585D01*
X47742Y-59600D01*
X47757Y-59628D01*
X47771Y-59685D01*
X47771Y-59757D01*
X47757Y-59814D01*
X47742Y-59842D01*
X47728Y-59857D01*
X47700Y-59871D01*
X47671Y-59871D01*
X47642Y-59857D01*
X47628Y-59842D01*
X47614Y-59814D01*
X47600Y-59757D01*
X47600Y-59685D01*
X47614Y-59628D01*
X47628Y-59600D01*
X47642Y-59585D01*
X47671Y-59571D01*
X39164Y-58621D02*
X39064Y-58478D01*
X38992Y-58621D02*
X38992Y-58321D01*
X39107Y-58321D01*
X39135Y-58335D01*
X39150Y-58350D01*
X39164Y-58378D01*
X39164Y-58421D01*
X39150Y-58450D01*
X39135Y-58464D01*
X39107Y-58478D01*
X38992Y-58478D01*
X39278Y-58350D02*
X39292Y-58335D01*
X39321Y-58321D01*
X39392Y-58321D01*
X39421Y-58335D01*
X39435Y-58350D01*
X39450Y-58378D01*
X39450Y-58407D01*
X39435Y-58450D01*
X39264Y-58621D01*
X39450Y-58621D01*
X39707Y-58321D02*
X39650Y-58321D01*
X39621Y-58335D01*
X39607Y-58350D01*
X39578Y-58392D01*
X39564Y-58450D01*
X39564Y-58564D01*
X39578Y-58592D01*
X39592Y-58607D01*
X39621Y-58621D01*
X39678Y-58621D01*
X39707Y-58607D01*
X39721Y-58592D01*
X39735Y-58564D01*
X39735Y-58492D01*
X39721Y-58464D01*
X39707Y-58450D01*
X39678Y-58435D01*
X39621Y-58435D01*
X39592Y-58450D01*
X39578Y-58464D01*
X39564Y-58492D01*
X40021Y-58621D02*
X39850Y-58621D01*
X39935Y-58621D02*
X39935Y-58321D01*
X39907Y-58364D01*
X39878Y-58392D01*
X39850Y-58407D01*
X46914Y-56592D02*
X46900Y-56607D01*
X46857Y-56621D01*
X46828Y-56621D01*
X46785Y-56607D01*
X46757Y-56578D01*
X46742Y-56550D01*
X46728Y-56492D01*
X46728Y-56450D01*
X46742Y-56392D01*
X46757Y-56364D01*
X46785Y-56335D01*
X46828Y-56321D01*
X46857Y-56321D01*
X46900Y-56335D01*
X46914Y-56350D01*
X47028Y-56350D02*
X47042Y-56335D01*
X47071Y-56321D01*
X47142Y-56321D01*
X47171Y-56335D01*
X47185Y-56350D01*
X47200Y-56378D01*
X47200Y-56407D01*
X47185Y-56450D01*
X47014Y-56621D01*
X47200Y-56621D01*
X47371Y-56450D02*
X47342Y-56435D01*
X47328Y-56421D01*
X47314Y-56392D01*
X47314Y-56378D01*
X47328Y-56350D01*
X47342Y-56335D01*
X47371Y-56321D01*
X47428Y-56321D01*
X47457Y-56335D01*
X47471Y-56350D01*
X47485Y-56378D01*
X47485Y-56392D01*
X47471Y-56421D01*
X47457Y-56435D01*
X47428Y-56450D01*
X47371Y-56450D01*
X47342Y-56464D01*
X47328Y-56478D01*
X47314Y-56507D01*
X47314Y-56564D01*
X47328Y-56592D01*
X47342Y-56607D01*
X47371Y-56621D01*
X47428Y-56621D01*
X47457Y-56607D01*
X47471Y-56592D01*
X47485Y-56564D01*
X47485Y-56507D01*
X47471Y-56478D01*
X47457Y-56464D01*
X47428Y-56450D01*
X47671Y-56321D02*
X47700Y-56321D01*
X47728Y-56335D01*
X47742Y-56350D01*
X47757Y-56378D01*
X47771Y-56435D01*
X47771Y-56507D01*
X47757Y-56564D01*
X47742Y-56592D01*
X47728Y-56607D01*
X47700Y-56621D01*
X47671Y-56621D01*
X47642Y-56607D01*
X47628Y-56592D01*
X47614Y-56564D01*
X47600Y-56507D01*
X47600Y-56435D01*
X47614Y-56378D01*
X47628Y-56350D01*
X47642Y-56335D01*
X47671Y-56321D01*
X49414Y-55592D02*
X49400Y-55607D01*
X49357Y-55621D01*
X49328Y-55621D01*
X49285Y-55607D01*
X49257Y-55578D01*
X49242Y-55550D01*
X49228Y-55492D01*
X49228Y-55450D01*
X49242Y-55392D01*
X49257Y-55364D01*
X49285Y-55335D01*
X49328Y-55321D01*
X49357Y-55321D01*
X49400Y-55335D01*
X49414Y-55350D01*
X49528Y-55350D02*
X49542Y-55335D01*
X49571Y-55321D01*
X49642Y-55321D01*
X49671Y-55335D01*
X49685Y-55350D01*
X49700Y-55378D01*
X49700Y-55407D01*
X49685Y-55450D01*
X49514Y-55621D01*
X49700Y-55621D01*
X49800Y-55321D02*
X50000Y-55321D01*
X49871Y-55621D01*
X50171Y-55321D02*
X50200Y-55321D01*
X50228Y-55335D01*
X50242Y-55350D01*
X50257Y-55378D01*
X50271Y-55435D01*
X50271Y-55507D01*
X50257Y-55564D01*
X50242Y-55592D01*
X50228Y-55607D01*
X50200Y-55621D01*
X50171Y-55621D01*
X50142Y-55607D01*
X50128Y-55592D01*
X50114Y-55564D01*
X50100Y-55507D01*
X50100Y-55435D01*
X50114Y-55378D01*
X50128Y-55350D01*
X50142Y-55335D01*
X50171Y-55321D01*
X51164Y-57342D02*
X51150Y-57357D01*
X51107Y-57371D01*
X51078Y-57371D01*
X51035Y-57357D01*
X51007Y-57328D01*
X50992Y-57300D01*
X50978Y-57242D01*
X50978Y-57200D01*
X50992Y-57142D01*
X51007Y-57114D01*
X51035Y-57085D01*
X51078Y-57071D01*
X51107Y-57071D01*
X51150Y-57085D01*
X51164Y-57100D01*
X51278Y-57100D02*
X51292Y-57085D01*
X51321Y-57071D01*
X51392Y-57071D01*
X51421Y-57085D01*
X51435Y-57100D01*
X51450Y-57128D01*
X51450Y-57157D01*
X51435Y-57200D01*
X51264Y-57371D01*
X51450Y-57371D01*
X51721Y-57071D02*
X51578Y-57071D01*
X51564Y-57214D01*
X51578Y-57200D01*
X51607Y-57185D01*
X51678Y-57185D01*
X51707Y-57200D01*
X51721Y-57214D01*
X51735Y-57242D01*
X51735Y-57314D01*
X51721Y-57342D01*
X51707Y-57357D01*
X51678Y-57371D01*
X51607Y-57371D01*
X51578Y-57357D01*
X51564Y-57342D01*
X52021Y-57371D02*
X51850Y-57371D01*
X51935Y-57371D02*
X51935Y-57071D01*
X51907Y-57114D01*
X51878Y-57142D01*
X51850Y-57157D01*
X56664Y-55621D02*
X56564Y-55478D01*
X56492Y-55621D02*
X56492Y-55321D01*
X56607Y-55321D01*
X56635Y-55335D01*
X56650Y-55350D01*
X56664Y-55378D01*
X56664Y-55421D01*
X56650Y-55450D01*
X56635Y-55464D01*
X56607Y-55478D01*
X56492Y-55478D01*
X56778Y-55350D02*
X56792Y-55335D01*
X56821Y-55321D01*
X56892Y-55321D01*
X56921Y-55335D01*
X56935Y-55350D01*
X56950Y-55378D01*
X56950Y-55407D01*
X56935Y-55450D01*
X56764Y-55621D01*
X56950Y-55621D01*
X57050Y-55321D02*
X57250Y-55321D01*
X57121Y-55621D01*
X57492Y-55421D02*
X57492Y-55621D01*
X57421Y-55307D02*
X57350Y-55521D01*
X57535Y-55521D01*
X57914Y-55621D02*
X57814Y-55478D01*
X57742Y-55621D02*
X57742Y-55321D01*
X57857Y-55321D01*
X57885Y-55335D01*
X57900Y-55350D01*
X57914Y-55378D01*
X57914Y-55421D01*
X57900Y-55450D01*
X57885Y-55464D01*
X57857Y-55478D01*
X57742Y-55478D01*
X58028Y-55350D02*
X58042Y-55335D01*
X58071Y-55321D01*
X58142Y-55321D01*
X58171Y-55335D01*
X58185Y-55350D01*
X58200Y-55378D01*
X58200Y-55407D01*
X58185Y-55450D01*
X58014Y-55621D01*
X58200Y-55621D01*
X58300Y-55321D02*
X58500Y-55321D01*
X58371Y-55621D01*
X58757Y-55321D02*
X58614Y-55321D01*
X58600Y-55464D01*
X58614Y-55450D01*
X58642Y-55435D01*
X58714Y-55435D01*
X58742Y-55450D01*
X58757Y-55464D01*
X58771Y-55492D01*
X58771Y-55564D01*
X58757Y-55592D01*
X58742Y-55607D01*
X58714Y-55621D01*
X58642Y-55621D01*
X58614Y-55607D01*
X58600Y-55592D01*
X40414Y-56621D02*
X40314Y-56478D01*
X40242Y-56621D02*
X40242Y-56321D01*
X40357Y-56321D01*
X40385Y-56335D01*
X40400Y-56350D01*
X40414Y-56378D01*
X40414Y-56421D01*
X40400Y-56450D01*
X40385Y-56464D01*
X40357Y-56478D01*
X40242Y-56478D01*
X40528Y-56350D02*
X40542Y-56335D01*
X40571Y-56321D01*
X40642Y-56321D01*
X40671Y-56335D01*
X40685Y-56350D01*
X40700Y-56378D01*
X40700Y-56407D01*
X40685Y-56450D01*
X40514Y-56621D01*
X40700Y-56621D01*
X40871Y-56450D02*
X40842Y-56435D01*
X40828Y-56421D01*
X40814Y-56392D01*
X40814Y-56378D01*
X40828Y-56350D01*
X40842Y-56335D01*
X40871Y-56321D01*
X40928Y-56321D01*
X40957Y-56335D01*
X40971Y-56350D01*
X40985Y-56378D01*
X40985Y-56392D01*
X40971Y-56421D01*
X40957Y-56435D01*
X40928Y-56450D01*
X40871Y-56450D01*
X40842Y-56464D01*
X40828Y-56478D01*
X40814Y-56507D01*
X40814Y-56564D01*
X40828Y-56592D01*
X40842Y-56607D01*
X40871Y-56621D01*
X40928Y-56621D01*
X40957Y-56607D01*
X40971Y-56592D01*
X40985Y-56564D01*
X40985Y-56507D01*
X40971Y-56478D01*
X40957Y-56464D01*
X40928Y-56450D01*
X41171Y-56321D02*
X41200Y-56321D01*
X41228Y-56335D01*
X41242Y-56350D01*
X41257Y-56378D01*
X41271Y-56435D01*
X41271Y-56507D01*
X41257Y-56564D01*
X41242Y-56592D01*
X41228Y-56607D01*
X41200Y-56621D01*
X41171Y-56621D01*
X41142Y-56607D01*
X41128Y-56592D01*
X41114Y-56564D01*
X41100Y-56507D01*
X41100Y-56435D01*
X41114Y-56378D01*
X41128Y-56350D01*
X41142Y-56335D01*
X41171Y-56321D01*
X45664Y-56621D02*
X45564Y-56478D01*
X45492Y-56621D02*
X45492Y-56321D01*
X45607Y-56321D01*
X45635Y-56335D01*
X45650Y-56350D01*
X45664Y-56378D01*
X45664Y-56421D01*
X45650Y-56450D01*
X45635Y-56464D01*
X45607Y-56478D01*
X45492Y-56478D01*
X45778Y-56350D02*
X45792Y-56335D01*
X45821Y-56321D01*
X45892Y-56321D01*
X45921Y-56335D01*
X45935Y-56350D01*
X45950Y-56378D01*
X45950Y-56407D01*
X45935Y-56450D01*
X45764Y-56621D01*
X45950Y-56621D01*
X46121Y-56450D02*
X46092Y-56435D01*
X46078Y-56421D01*
X46064Y-56392D01*
X46064Y-56378D01*
X46078Y-56350D01*
X46092Y-56335D01*
X46121Y-56321D01*
X46178Y-56321D01*
X46207Y-56335D01*
X46221Y-56350D01*
X46235Y-56378D01*
X46235Y-56392D01*
X46221Y-56421D01*
X46207Y-56435D01*
X46178Y-56450D01*
X46121Y-56450D01*
X46092Y-56464D01*
X46078Y-56478D01*
X46064Y-56507D01*
X46064Y-56564D01*
X46078Y-56592D01*
X46092Y-56607D01*
X46121Y-56621D01*
X46178Y-56621D01*
X46207Y-56607D01*
X46221Y-56592D01*
X46235Y-56564D01*
X46235Y-56507D01*
X46221Y-56478D01*
X46207Y-56464D01*
X46178Y-56450D01*
X46335Y-56321D02*
X46521Y-56321D01*
X46421Y-56435D01*
X46464Y-56435D01*
X46492Y-56450D01*
X46507Y-56464D01*
X46521Y-56492D01*
X46521Y-56564D01*
X46507Y-56592D01*
X46492Y-56607D01*
X46464Y-56621D01*
X46378Y-56621D01*
X46350Y-56607D01*
X46335Y-56592D01*
X41664Y-56621D02*
X41564Y-56478D01*
X41492Y-56621D02*
X41492Y-56321D01*
X41607Y-56321D01*
X41635Y-56335D01*
X41650Y-56350D01*
X41664Y-56378D01*
X41664Y-56421D01*
X41650Y-56450D01*
X41635Y-56464D01*
X41607Y-56478D01*
X41492Y-56478D01*
X41778Y-56350D02*
X41792Y-56335D01*
X41821Y-56321D01*
X41892Y-56321D01*
X41921Y-56335D01*
X41935Y-56350D01*
X41950Y-56378D01*
X41950Y-56407D01*
X41935Y-56450D01*
X41764Y-56621D01*
X41950Y-56621D01*
X42050Y-56321D02*
X42250Y-56321D01*
X42121Y-56621D01*
X42421Y-56321D02*
X42450Y-56321D01*
X42478Y-56335D01*
X42492Y-56350D01*
X42507Y-56378D01*
X42521Y-56435D01*
X42521Y-56507D01*
X42507Y-56564D01*
X42492Y-56592D01*
X42478Y-56607D01*
X42450Y-56621D01*
X42421Y-56621D01*
X42392Y-56607D01*
X42378Y-56592D01*
X42364Y-56564D01*
X42350Y-56507D01*
X42350Y-56435D01*
X42364Y-56378D01*
X42378Y-56350D01*
X42392Y-56335D01*
X42421Y-56321D01*
X48164Y-55621D02*
X48064Y-55478D01*
X47992Y-55621D02*
X47992Y-55321D01*
X48107Y-55321D01*
X48135Y-55335D01*
X48150Y-55350D01*
X48164Y-55378D01*
X48164Y-55421D01*
X48150Y-55450D01*
X48135Y-55464D01*
X48107Y-55478D01*
X47992Y-55478D01*
X48278Y-55350D02*
X48292Y-55335D01*
X48321Y-55321D01*
X48392Y-55321D01*
X48421Y-55335D01*
X48435Y-55350D01*
X48450Y-55378D01*
X48450Y-55407D01*
X48435Y-55450D01*
X48264Y-55621D01*
X48450Y-55621D01*
X48550Y-55321D02*
X48750Y-55321D01*
X48621Y-55621D01*
X48835Y-55321D02*
X49021Y-55321D01*
X48921Y-55435D01*
X48964Y-55435D01*
X48992Y-55450D01*
X49007Y-55464D01*
X49021Y-55492D01*
X49021Y-55564D01*
X49007Y-55592D01*
X48992Y-55607D01*
X48964Y-55621D01*
X48878Y-55621D01*
X48850Y-55607D01*
X48835Y-55592D01*
X60414Y-55621D02*
X60314Y-55478D01*
X60242Y-55621D02*
X60242Y-55321D01*
X60357Y-55321D01*
X60385Y-55335D01*
X60400Y-55350D01*
X60414Y-55378D01*
X60414Y-55421D01*
X60400Y-55450D01*
X60385Y-55464D01*
X60357Y-55478D01*
X60242Y-55478D01*
X60528Y-55350D02*
X60542Y-55335D01*
X60571Y-55321D01*
X60642Y-55321D01*
X60671Y-55335D01*
X60685Y-55350D01*
X60700Y-55378D01*
X60700Y-55407D01*
X60685Y-55450D01*
X60514Y-55621D01*
X60700Y-55621D01*
X60871Y-55450D02*
X60842Y-55435D01*
X60828Y-55421D01*
X60814Y-55392D01*
X60814Y-55378D01*
X60828Y-55350D01*
X60842Y-55335D01*
X60871Y-55321D01*
X60928Y-55321D01*
X60957Y-55335D01*
X60971Y-55350D01*
X60985Y-55378D01*
X60985Y-55392D01*
X60971Y-55421D01*
X60957Y-55435D01*
X60928Y-55450D01*
X60871Y-55450D01*
X60842Y-55464D01*
X60828Y-55478D01*
X60814Y-55507D01*
X60814Y-55564D01*
X60828Y-55592D01*
X60842Y-55607D01*
X60871Y-55621D01*
X60928Y-55621D01*
X60957Y-55607D01*
X60971Y-55592D01*
X60985Y-55564D01*
X60985Y-55507D01*
X60971Y-55478D01*
X60957Y-55464D01*
X60928Y-55450D01*
X61257Y-55321D02*
X61114Y-55321D01*
X61100Y-55464D01*
X61114Y-55450D01*
X61142Y-55435D01*
X61214Y-55435D01*
X61242Y-55450D01*
X61257Y-55464D01*
X61271Y-55492D01*
X61271Y-55564D01*
X61257Y-55592D01*
X61242Y-55607D01*
X61214Y-55621D01*
X61142Y-55621D01*
X61114Y-55607D01*
X61100Y-55592D01*
X59164Y-55621D02*
X59064Y-55478D01*
X58992Y-55621D02*
X58992Y-55321D01*
X59107Y-55321D01*
X59135Y-55335D01*
X59150Y-55350D01*
X59164Y-55378D01*
X59164Y-55421D01*
X59150Y-55450D01*
X59135Y-55464D01*
X59107Y-55478D01*
X58992Y-55478D01*
X59278Y-55350D02*
X59292Y-55335D01*
X59321Y-55321D01*
X59392Y-55321D01*
X59421Y-55335D01*
X59435Y-55350D01*
X59450Y-55378D01*
X59450Y-55407D01*
X59435Y-55450D01*
X59264Y-55621D01*
X59450Y-55621D01*
X59621Y-55450D02*
X59592Y-55435D01*
X59578Y-55421D01*
X59564Y-55392D01*
X59564Y-55378D01*
X59578Y-55350D01*
X59592Y-55335D01*
X59621Y-55321D01*
X59678Y-55321D01*
X59707Y-55335D01*
X59721Y-55350D01*
X59735Y-55378D01*
X59735Y-55392D01*
X59721Y-55421D01*
X59707Y-55435D01*
X59678Y-55450D01*
X59621Y-55450D01*
X59592Y-55464D01*
X59578Y-55478D01*
X59564Y-55507D01*
X59564Y-55564D01*
X59578Y-55592D01*
X59592Y-55607D01*
X59621Y-55621D01*
X59678Y-55621D01*
X59707Y-55607D01*
X59721Y-55592D01*
X59735Y-55564D01*
X59735Y-55507D01*
X59721Y-55478D01*
X59707Y-55464D01*
X59678Y-55450D01*
X59992Y-55421D02*
X59992Y-55621D01*
X59921Y-55307D02*
X59850Y-55521D01*
X60035Y-55521D01*
X39164Y-55121D02*
X39064Y-54978D01*
X38992Y-55121D02*
X38992Y-54821D01*
X39107Y-54821D01*
X39135Y-54835D01*
X39150Y-54850D01*
X39164Y-54878D01*
X39164Y-54921D01*
X39150Y-54950D01*
X39135Y-54964D01*
X39107Y-54978D01*
X38992Y-54978D01*
X39278Y-54850D02*
X39292Y-54835D01*
X39321Y-54821D01*
X39392Y-54821D01*
X39421Y-54835D01*
X39435Y-54850D01*
X39450Y-54878D01*
X39450Y-54907D01*
X39435Y-54950D01*
X39264Y-55121D01*
X39450Y-55121D01*
X39621Y-54950D02*
X39592Y-54935D01*
X39578Y-54921D01*
X39564Y-54892D01*
X39564Y-54878D01*
X39578Y-54850D01*
X39592Y-54835D01*
X39621Y-54821D01*
X39678Y-54821D01*
X39707Y-54835D01*
X39721Y-54850D01*
X39735Y-54878D01*
X39735Y-54892D01*
X39721Y-54921D01*
X39707Y-54935D01*
X39678Y-54950D01*
X39621Y-54950D01*
X39592Y-54964D01*
X39578Y-54978D01*
X39564Y-55007D01*
X39564Y-55064D01*
X39578Y-55092D01*
X39592Y-55107D01*
X39621Y-55121D01*
X39678Y-55121D01*
X39707Y-55107D01*
X39721Y-55092D01*
X39735Y-55064D01*
X39735Y-55007D01*
X39721Y-54978D01*
X39707Y-54964D01*
X39678Y-54950D01*
X40021Y-55121D02*
X39850Y-55121D01*
X39935Y-55121D02*
X39935Y-54821D01*
X39907Y-54864D01*
X39878Y-54892D01*
X39850Y-54907D01*
X37914Y-56621D02*
X37814Y-56478D01*
X37742Y-56621D02*
X37742Y-56321D01*
X37857Y-56321D01*
X37885Y-56335D01*
X37900Y-56350D01*
X37914Y-56378D01*
X37914Y-56421D01*
X37900Y-56450D01*
X37885Y-56464D01*
X37857Y-56478D01*
X37742Y-56478D01*
X38028Y-56350D02*
X38042Y-56335D01*
X38071Y-56321D01*
X38142Y-56321D01*
X38171Y-56335D01*
X38185Y-56350D01*
X38200Y-56378D01*
X38200Y-56407D01*
X38185Y-56450D01*
X38014Y-56621D01*
X38200Y-56621D01*
X38300Y-56321D02*
X38500Y-56321D01*
X38371Y-56621D01*
X38771Y-56621D02*
X38600Y-56621D01*
X38685Y-56621D02*
X38685Y-56321D01*
X38657Y-56364D01*
X38628Y-56392D01*
X38600Y-56407D01*
G54D21*
X44416Y-60079D02*
X44416Y-59882D01*
X44463Y-59882D01*
X44492Y-59892D01*
X44510Y-59910D01*
X44520Y-59929D01*
X44529Y-59967D01*
X44529Y-59995D01*
X44520Y-60032D01*
X44510Y-60051D01*
X44492Y-60070D01*
X44463Y-60079D01*
X44416Y-60079D01*
X44604Y-59901D02*
X44613Y-59892D01*
X44632Y-59882D01*
X44679Y-59882D01*
X44698Y-59892D01*
X44707Y-59901D01*
X44717Y-59920D01*
X44717Y-59939D01*
X44707Y-59967D01*
X44595Y-60079D01*
X44717Y-60079D01*
X44886Y-59882D02*
X44848Y-59882D01*
X44829Y-59892D01*
X44820Y-59901D01*
X44801Y-59929D01*
X44792Y-59967D01*
X44792Y-60042D01*
X44801Y-60060D01*
X44810Y-60070D01*
X44829Y-60079D01*
X44867Y-60079D01*
X44886Y-60070D01*
X44895Y-60060D01*
X44904Y-60042D01*
X44904Y-59995D01*
X44895Y-59976D01*
X44886Y-59967D01*
X44867Y-59957D01*
X44829Y-59957D01*
X44810Y-59967D01*
X44801Y-59976D01*
X44792Y-59995D01*
X45026Y-59882D02*
X45045Y-59882D01*
X45064Y-59892D01*
X45073Y-59901D01*
X45083Y-59920D01*
X45092Y-59957D01*
X45092Y-60004D01*
X45083Y-60042D01*
X45073Y-60060D01*
X45064Y-60070D01*
X45045Y-60079D01*
X45026Y-60079D01*
X45007Y-60070D01*
X44998Y-60060D01*
X44989Y-60042D01*
X44979Y-60004D01*
X44979Y-59957D01*
X44989Y-59920D01*
X44998Y-59901D01*
X45007Y-59892D01*
X45026Y-59882D01*
X42916Y-60079D02*
X42916Y-59882D01*
X42963Y-59882D01*
X42992Y-59892D01*
X43010Y-59910D01*
X43020Y-59929D01*
X43029Y-59967D01*
X43029Y-59995D01*
X43020Y-60032D01*
X43010Y-60051D01*
X42992Y-60070D01*
X42963Y-60079D01*
X42916Y-60079D01*
X43104Y-59901D02*
X43113Y-59892D01*
X43132Y-59882D01*
X43179Y-59882D01*
X43198Y-59892D01*
X43207Y-59901D01*
X43217Y-59920D01*
X43217Y-59939D01*
X43207Y-59967D01*
X43095Y-60079D01*
X43217Y-60079D01*
X43395Y-59882D02*
X43301Y-59882D01*
X43292Y-59976D01*
X43301Y-59967D01*
X43320Y-59957D01*
X43367Y-59957D01*
X43386Y-59967D01*
X43395Y-59976D01*
X43404Y-59995D01*
X43404Y-60042D01*
X43395Y-60060D01*
X43386Y-60070D01*
X43367Y-60079D01*
X43320Y-60079D01*
X43301Y-60070D01*
X43292Y-60060D01*
X43526Y-59882D02*
X43545Y-59882D01*
X43564Y-59892D01*
X43573Y-59901D01*
X43583Y-59920D01*
X43592Y-59957D01*
X43592Y-60004D01*
X43583Y-60042D01*
X43573Y-60060D01*
X43564Y-60070D01*
X43545Y-60079D01*
X43526Y-60079D01*
X43507Y-60070D01*
X43498Y-60060D01*
X43489Y-60042D01*
X43479Y-60004D01*
X43479Y-59957D01*
X43489Y-59920D01*
X43498Y-59901D01*
X43507Y-59892D01*
X43526Y-59882D01*
X44416Y-56579D02*
X44416Y-56382D01*
X44463Y-56382D01*
X44492Y-56392D01*
X44510Y-56410D01*
X44520Y-56429D01*
X44529Y-56467D01*
X44529Y-56495D01*
X44520Y-56532D01*
X44510Y-56551D01*
X44492Y-56570D01*
X44463Y-56579D01*
X44416Y-56579D01*
X44604Y-56401D02*
X44613Y-56392D01*
X44632Y-56382D01*
X44679Y-56382D01*
X44698Y-56392D01*
X44707Y-56401D01*
X44717Y-56420D01*
X44717Y-56439D01*
X44707Y-56467D01*
X44595Y-56579D01*
X44717Y-56579D01*
X44829Y-56467D02*
X44810Y-56457D01*
X44801Y-56448D01*
X44792Y-56429D01*
X44792Y-56420D01*
X44801Y-56401D01*
X44810Y-56392D01*
X44829Y-56382D01*
X44867Y-56382D01*
X44886Y-56392D01*
X44895Y-56401D01*
X44904Y-56420D01*
X44904Y-56429D01*
X44895Y-56448D01*
X44886Y-56457D01*
X44867Y-56467D01*
X44829Y-56467D01*
X44810Y-56476D01*
X44801Y-56485D01*
X44792Y-56504D01*
X44792Y-56542D01*
X44801Y-56560D01*
X44810Y-56570D01*
X44829Y-56579D01*
X44867Y-56579D01*
X44886Y-56570D01*
X44895Y-56560D01*
X44904Y-56542D01*
X44904Y-56504D01*
X44895Y-56485D01*
X44886Y-56476D01*
X44867Y-56467D01*
X45026Y-56382D02*
X45045Y-56382D01*
X45064Y-56392D01*
X45073Y-56401D01*
X45083Y-56420D01*
X45092Y-56457D01*
X45092Y-56504D01*
X45083Y-56542D01*
X45073Y-56560D01*
X45064Y-56570D01*
X45045Y-56579D01*
X45026Y-56579D01*
X45007Y-56570D01*
X44998Y-56560D01*
X44989Y-56542D01*
X44979Y-56504D01*
X44979Y-56457D01*
X44989Y-56420D01*
X44998Y-56401D01*
X45007Y-56392D01*
X45026Y-56382D01*
X42916Y-56579D02*
X42916Y-56382D01*
X42963Y-56382D01*
X42992Y-56392D01*
X43010Y-56410D01*
X43020Y-56429D01*
X43029Y-56467D01*
X43029Y-56495D01*
X43020Y-56532D01*
X43010Y-56551D01*
X42992Y-56570D01*
X42963Y-56579D01*
X42916Y-56579D01*
X43104Y-56401D02*
X43113Y-56392D01*
X43132Y-56382D01*
X43179Y-56382D01*
X43198Y-56392D01*
X43207Y-56401D01*
X43217Y-56420D01*
X43217Y-56439D01*
X43207Y-56467D01*
X43095Y-56579D01*
X43217Y-56579D01*
X43282Y-56382D02*
X43414Y-56382D01*
X43329Y-56579D01*
X43526Y-56382D02*
X43545Y-56382D01*
X43564Y-56392D01*
X43573Y-56401D01*
X43583Y-56420D01*
X43592Y-56457D01*
X43592Y-56504D01*
X43583Y-56542D01*
X43573Y-56560D01*
X43564Y-56570D01*
X43545Y-56579D01*
X43526Y-56579D01*
X43507Y-56570D01*
X43498Y-56560D01*
X43489Y-56542D01*
X43479Y-56504D01*
X43479Y-56457D01*
X43489Y-56420D01*
X43498Y-56401D01*
X43507Y-56392D01*
X43526Y-56382D01*
G54D13*
X43121Y-61835D02*
X42978Y-61935D01*
X43121Y-62007D02*
X42821Y-62007D01*
X42821Y-61892D01*
X42835Y-61864D01*
X42850Y-61850D01*
X42878Y-61835D01*
X42921Y-61835D01*
X42950Y-61850D01*
X42964Y-61864D01*
X42978Y-61892D01*
X42978Y-62007D01*
X42850Y-61721D02*
X42835Y-61707D01*
X42821Y-61678D01*
X42821Y-61607D01*
X42835Y-61578D01*
X42850Y-61564D01*
X42878Y-61550D01*
X42907Y-61550D01*
X42950Y-61564D01*
X43121Y-61735D01*
X43121Y-61550D01*
X42821Y-61450D02*
X42821Y-61264D01*
X42935Y-61364D01*
X42935Y-61321D01*
X42950Y-61292D01*
X42964Y-61278D01*
X42992Y-61264D01*
X43064Y-61264D01*
X43092Y-61278D01*
X43107Y-61292D01*
X43121Y-61321D01*
X43121Y-61407D01*
X43107Y-61435D01*
X43092Y-61450D01*
X42850Y-61150D02*
X42835Y-61135D01*
X42821Y-61107D01*
X42821Y-61035D01*
X42835Y-61007D01*
X42850Y-60992D01*
X42878Y-60978D01*
X42907Y-60978D01*
X42950Y-60992D01*
X43121Y-61164D01*
X43121Y-60978D01*
X45371Y-61835D02*
X45228Y-61935D01*
X45371Y-62007D02*
X45071Y-62007D01*
X45071Y-61892D01*
X45085Y-61864D01*
X45100Y-61850D01*
X45128Y-61835D01*
X45171Y-61835D01*
X45200Y-61850D01*
X45214Y-61864D01*
X45228Y-61892D01*
X45228Y-62007D01*
X45100Y-61721D02*
X45085Y-61707D01*
X45071Y-61678D01*
X45071Y-61607D01*
X45085Y-61578D01*
X45100Y-61564D01*
X45128Y-61550D01*
X45157Y-61550D01*
X45200Y-61564D01*
X45371Y-61735D01*
X45371Y-61550D01*
X45171Y-61292D02*
X45371Y-61292D01*
X45057Y-61364D02*
X45271Y-61435D01*
X45271Y-61250D01*
X45100Y-61150D02*
X45085Y-61135D01*
X45071Y-61107D01*
X45071Y-61035D01*
X45085Y-61007D01*
X45100Y-60992D01*
X45128Y-60978D01*
X45157Y-60978D01*
X45200Y-60992D01*
X45371Y-61164D01*
X45371Y-60978D01*
X43121Y-58585D02*
X42978Y-58685D01*
X43121Y-58757D02*
X42821Y-58757D01*
X42821Y-58642D01*
X42835Y-58614D01*
X42850Y-58600D01*
X42878Y-58585D01*
X42921Y-58585D01*
X42950Y-58600D01*
X42964Y-58614D01*
X42978Y-58642D01*
X42978Y-58757D01*
X42850Y-58471D02*
X42835Y-58457D01*
X42821Y-58428D01*
X42821Y-58357D01*
X42835Y-58328D01*
X42850Y-58314D01*
X42878Y-58300D01*
X42907Y-58300D01*
X42950Y-58314D01*
X43121Y-58485D01*
X43121Y-58300D01*
X42821Y-58028D02*
X42821Y-58171D01*
X42964Y-58185D01*
X42950Y-58171D01*
X42935Y-58142D01*
X42935Y-58071D01*
X42950Y-58042D01*
X42964Y-58028D01*
X42992Y-58014D01*
X43064Y-58014D01*
X43092Y-58028D01*
X43107Y-58042D01*
X43121Y-58071D01*
X43121Y-58142D01*
X43107Y-58171D01*
X43092Y-58185D01*
X42850Y-57900D02*
X42835Y-57885D01*
X42821Y-57857D01*
X42821Y-57785D01*
X42835Y-57757D01*
X42850Y-57742D01*
X42878Y-57728D01*
X42907Y-57728D01*
X42950Y-57742D01*
X43121Y-57914D01*
X43121Y-57728D01*
X45371Y-58585D02*
X45228Y-58685D01*
X45371Y-58757D02*
X45071Y-58757D01*
X45071Y-58642D01*
X45085Y-58614D01*
X45100Y-58600D01*
X45128Y-58585D01*
X45171Y-58585D01*
X45200Y-58600D01*
X45214Y-58614D01*
X45228Y-58642D01*
X45228Y-58757D01*
X45100Y-58471D02*
X45085Y-58457D01*
X45071Y-58428D01*
X45071Y-58357D01*
X45085Y-58328D01*
X45100Y-58314D01*
X45128Y-58300D01*
X45157Y-58300D01*
X45200Y-58314D01*
X45371Y-58485D01*
X45371Y-58300D01*
X45071Y-58042D02*
X45071Y-58100D01*
X45085Y-58128D01*
X45100Y-58142D01*
X45142Y-58171D01*
X45200Y-58185D01*
X45314Y-58185D01*
X45342Y-58171D01*
X45357Y-58157D01*
X45371Y-58128D01*
X45371Y-58071D01*
X45357Y-58042D01*
X45342Y-58028D01*
X45314Y-58014D01*
X45242Y-58014D01*
X45214Y-58028D01*
X45200Y-58042D01*
X45185Y-58071D01*
X45185Y-58128D01*
X45200Y-58157D01*
X45214Y-58171D01*
X45242Y-58185D01*
X45100Y-57900D02*
X45085Y-57885D01*
X45071Y-57857D01*
X45071Y-57785D01*
X45085Y-57757D01*
X45100Y-57742D01*
X45128Y-57728D01*
X45157Y-57728D01*
X45200Y-57742D01*
X45371Y-57914D01*
X45371Y-57728D01*
X45371Y-51585D02*
X45228Y-51685D01*
X45371Y-51757D02*
X45071Y-51757D01*
X45071Y-51642D01*
X45085Y-51614D01*
X45100Y-51600D01*
X45128Y-51585D01*
X45171Y-51585D01*
X45200Y-51600D01*
X45214Y-51614D01*
X45228Y-51642D01*
X45228Y-51757D01*
X45071Y-51485D02*
X45071Y-51300D01*
X45185Y-51400D01*
X45185Y-51357D01*
X45200Y-51328D01*
X45214Y-51314D01*
X45242Y-51300D01*
X45314Y-51300D01*
X45342Y-51314D01*
X45357Y-51328D01*
X45371Y-51357D01*
X45371Y-51442D01*
X45357Y-51471D01*
X45342Y-51485D01*
X45071Y-51114D02*
X45071Y-51085D01*
X45085Y-51057D01*
X45100Y-51042D01*
X45128Y-51028D01*
X45185Y-51014D01*
X45257Y-51014D01*
X45314Y-51028D01*
X45342Y-51042D01*
X45357Y-51057D01*
X45371Y-51085D01*
X45371Y-51114D01*
X45357Y-51142D01*
X45342Y-51157D01*
X45314Y-51171D01*
X45257Y-51185D01*
X45185Y-51185D01*
X45128Y-51171D01*
X45100Y-51157D01*
X45085Y-51142D01*
X45071Y-51114D01*
X45100Y-50900D02*
X45085Y-50885D01*
X45071Y-50857D01*
X45071Y-50785D01*
X45085Y-50757D01*
X45100Y-50742D01*
X45128Y-50728D01*
X45157Y-50728D01*
X45200Y-50742D01*
X45371Y-50914D01*
X45371Y-50728D01*
X43121Y-51585D02*
X42978Y-51685D01*
X43121Y-51757D02*
X42821Y-51757D01*
X42821Y-51642D01*
X42835Y-51614D01*
X42850Y-51600D01*
X42878Y-51585D01*
X42921Y-51585D01*
X42950Y-51600D01*
X42964Y-51614D01*
X42978Y-51642D01*
X42978Y-51757D01*
X42850Y-51471D02*
X42835Y-51457D01*
X42821Y-51428D01*
X42821Y-51357D01*
X42835Y-51328D01*
X42850Y-51314D01*
X42878Y-51300D01*
X42907Y-51300D01*
X42950Y-51314D01*
X43121Y-51485D01*
X43121Y-51300D01*
X43121Y-51157D02*
X43121Y-51100D01*
X43107Y-51071D01*
X43092Y-51057D01*
X43050Y-51028D01*
X42992Y-51014D01*
X42878Y-51014D01*
X42850Y-51028D01*
X42835Y-51042D01*
X42821Y-51071D01*
X42821Y-51128D01*
X42835Y-51157D01*
X42850Y-51171D01*
X42878Y-51185D01*
X42950Y-51185D01*
X42978Y-51171D01*
X42992Y-51157D01*
X43007Y-51128D01*
X43007Y-51071D01*
X42992Y-51042D01*
X42978Y-51028D01*
X42950Y-51014D01*
X42850Y-50900D02*
X42835Y-50885D01*
X42821Y-50857D01*
X42821Y-50785D01*
X42835Y-50757D01*
X42850Y-50742D01*
X42878Y-50728D01*
X42907Y-50728D01*
X42950Y-50742D01*
X43121Y-50914D01*
X43121Y-50728D01*
X45371Y-55085D02*
X45228Y-55185D01*
X45371Y-55257D02*
X45071Y-55257D01*
X45071Y-55142D01*
X45085Y-55114D01*
X45100Y-55100D01*
X45128Y-55085D01*
X45171Y-55085D01*
X45200Y-55100D01*
X45214Y-55114D01*
X45228Y-55142D01*
X45228Y-55257D01*
X45100Y-54971D02*
X45085Y-54957D01*
X45071Y-54928D01*
X45071Y-54857D01*
X45085Y-54828D01*
X45100Y-54814D01*
X45128Y-54800D01*
X45157Y-54800D01*
X45200Y-54814D01*
X45371Y-54985D01*
X45371Y-54800D01*
X45200Y-54628D02*
X45185Y-54657D01*
X45171Y-54671D01*
X45142Y-54685D01*
X45128Y-54685D01*
X45100Y-54671D01*
X45085Y-54657D01*
X45071Y-54628D01*
X45071Y-54571D01*
X45085Y-54542D01*
X45100Y-54528D01*
X45128Y-54514D01*
X45142Y-54514D01*
X45171Y-54528D01*
X45185Y-54542D01*
X45200Y-54571D01*
X45200Y-54628D01*
X45214Y-54657D01*
X45228Y-54671D01*
X45257Y-54685D01*
X45314Y-54685D01*
X45342Y-54671D01*
X45357Y-54657D01*
X45371Y-54628D01*
X45371Y-54571D01*
X45357Y-54542D01*
X45342Y-54528D01*
X45314Y-54514D01*
X45257Y-54514D01*
X45228Y-54528D01*
X45214Y-54542D01*
X45200Y-54571D01*
X45100Y-54400D02*
X45085Y-54385D01*
X45071Y-54357D01*
X45071Y-54285D01*
X45085Y-54257D01*
X45100Y-54242D01*
X45128Y-54228D01*
X45157Y-54228D01*
X45200Y-54242D01*
X45371Y-54414D01*
X45371Y-54228D01*
X43121Y-55085D02*
X42978Y-55185D01*
X43121Y-55257D02*
X42821Y-55257D01*
X42821Y-55142D01*
X42835Y-55114D01*
X42850Y-55100D01*
X42878Y-55085D01*
X42921Y-55085D01*
X42950Y-55100D01*
X42964Y-55114D01*
X42978Y-55142D01*
X42978Y-55257D01*
X42850Y-54971D02*
X42835Y-54957D01*
X42821Y-54928D01*
X42821Y-54857D01*
X42835Y-54828D01*
X42850Y-54814D01*
X42878Y-54800D01*
X42907Y-54800D01*
X42950Y-54814D01*
X43121Y-54985D01*
X43121Y-54800D01*
X42821Y-54700D02*
X42821Y-54500D01*
X43121Y-54628D01*
X42850Y-54400D02*
X42835Y-54385D01*
X42821Y-54357D01*
X42821Y-54285D01*
X42835Y-54257D01*
X42850Y-54242D01*
X42878Y-54228D01*
X42907Y-54228D01*
X42950Y-54242D01*
X43121Y-54414D01*
X43121Y-54228D01*
X59164Y-58871D02*
X59064Y-58728D01*
X58992Y-58871D02*
X58992Y-58571D01*
X59107Y-58571D01*
X59135Y-58585D01*
X59150Y-58600D01*
X59164Y-58628D01*
X59164Y-58671D01*
X59150Y-58700D01*
X59135Y-58714D01*
X59107Y-58728D01*
X58992Y-58728D01*
X59278Y-58600D02*
X59292Y-58585D01*
X59321Y-58571D01*
X59392Y-58571D01*
X59421Y-58585D01*
X59435Y-58600D01*
X59450Y-58628D01*
X59450Y-58657D01*
X59435Y-58700D01*
X59264Y-58871D01*
X59450Y-58871D01*
X59707Y-58571D02*
X59650Y-58571D01*
X59621Y-58585D01*
X59607Y-58600D01*
X59578Y-58642D01*
X59564Y-58700D01*
X59564Y-58814D01*
X59578Y-58842D01*
X59592Y-58857D01*
X59621Y-58871D01*
X59678Y-58871D01*
X59707Y-58857D01*
X59721Y-58842D01*
X59735Y-58814D01*
X59735Y-58742D01*
X59721Y-58714D01*
X59707Y-58700D01*
X59678Y-58685D01*
X59621Y-58685D01*
X59592Y-58700D01*
X59578Y-58714D01*
X59564Y-58742D01*
X59992Y-58671D02*
X59992Y-58871D01*
X59921Y-58557D02*
X59850Y-58771D01*
X60035Y-58771D01*
X60414Y-58871D02*
X60314Y-58728D01*
X60242Y-58871D02*
X60242Y-58571D01*
X60357Y-58571D01*
X60385Y-58585D01*
X60400Y-58600D01*
X60414Y-58628D01*
X60414Y-58671D01*
X60400Y-58700D01*
X60385Y-58714D01*
X60357Y-58728D01*
X60242Y-58728D01*
X60528Y-58600D02*
X60542Y-58585D01*
X60571Y-58571D01*
X60642Y-58571D01*
X60671Y-58585D01*
X60685Y-58600D01*
X60700Y-58628D01*
X60700Y-58657D01*
X60685Y-58700D01*
X60514Y-58871D01*
X60700Y-58871D01*
X60957Y-58571D02*
X60900Y-58571D01*
X60871Y-58585D01*
X60857Y-58600D01*
X60828Y-58642D01*
X60814Y-58700D01*
X60814Y-58814D01*
X60828Y-58842D01*
X60842Y-58857D01*
X60871Y-58871D01*
X60928Y-58871D01*
X60957Y-58857D01*
X60971Y-58842D01*
X60985Y-58814D01*
X60985Y-58742D01*
X60971Y-58714D01*
X60957Y-58700D01*
X60928Y-58685D01*
X60871Y-58685D01*
X60842Y-58700D01*
X60828Y-58714D01*
X60814Y-58742D01*
X61257Y-58571D02*
X61114Y-58571D01*
X61100Y-58714D01*
X61114Y-58700D01*
X61142Y-58685D01*
X61214Y-58685D01*
X61242Y-58700D01*
X61257Y-58714D01*
X61271Y-58742D01*
X61271Y-58814D01*
X61257Y-58842D01*
X61242Y-58857D01*
X61214Y-58871D01*
X61142Y-58871D01*
X61114Y-58857D01*
X61100Y-58842D01*
G54D23*
X54244Y-63824D02*
X54244Y-64063D01*
X54258Y-64091D01*
X54272Y-64105D01*
X54300Y-64119D01*
X54356Y-64119D01*
X54384Y-64105D01*
X54398Y-64091D01*
X54412Y-64063D01*
X54412Y-63824D01*
X54539Y-63852D02*
X54553Y-63838D01*
X54581Y-63824D01*
X54651Y-63824D01*
X54679Y-63838D01*
X54693Y-63852D01*
X54707Y-63880D01*
X54707Y-63908D01*
X54693Y-63950D01*
X54525Y-64119D01*
X54707Y-64119D01*
X54890Y-63824D02*
X54918Y-63824D01*
X54946Y-63838D01*
X54960Y-63852D01*
X54974Y-63880D01*
X54988Y-63936D01*
X54988Y-64007D01*
X54974Y-64063D01*
X54960Y-64091D01*
X54946Y-64105D01*
X54918Y-64119D01*
X54890Y-64119D01*
X54862Y-64105D01*
X54848Y-64091D01*
X54834Y-64063D01*
X54820Y-64007D01*
X54820Y-63936D01*
X54834Y-63880D01*
X54848Y-63852D01*
X54862Y-63838D01*
X54890Y-63824D01*
X55269Y-64119D02*
X55101Y-64119D01*
X55185Y-64119D02*
X55185Y-63824D01*
X55157Y-63866D01*
X55129Y-63894D01*
X55101Y-63908D01*
X53009Y-63219D02*
X52869Y-63219D01*
X52869Y-62924D01*
X53107Y-63219D02*
X53107Y-62924D01*
X53206Y-63135D01*
X53304Y-62924D01*
X53304Y-63219D01*
X53402Y-62924D02*
X53501Y-63219D01*
X53599Y-62924D01*
X53669Y-62924D02*
X53852Y-62924D01*
X53754Y-63036D01*
X53796Y-63036D01*
X53824Y-63050D01*
X53838Y-63064D01*
X53852Y-63092D01*
X53852Y-63163D01*
X53838Y-63191D01*
X53824Y-63205D01*
X53796Y-63219D01*
X53712Y-63219D01*
X53683Y-63205D01*
X53669Y-63191D01*
X53964Y-62952D02*
X53978Y-62938D01*
X54007Y-62924D01*
X54077Y-62924D01*
X54105Y-62938D01*
X54119Y-62952D01*
X54133Y-62980D01*
X54133Y-63008D01*
X54119Y-63050D01*
X53950Y-63219D01*
X54133Y-63219D01*
X54386Y-63022D02*
X54386Y-63219D01*
X54316Y-62910D02*
X54245Y-63121D01*
X54428Y-63121D01*
X54540Y-63219D02*
X54540Y-62924D01*
X54681Y-63219D02*
X54681Y-62924D01*
X54751Y-62924D01*
X54793Y-62938D01*
X54821Y-62966D01*
X54835Y-62994D01*
X54849Y-63050D01*
X54849Y-63092D01*
X54835Y-63149D01*
X54821Y-63177D01*
X54793Y-63205D01*
X54751Y-63219D01*
X54681Y-63219D01*
X55144Y-63219D02*
X55046Y-63078D01*
X54976Y-63219D02*
X54976Y-62924D01*
X55088Y-62924D01*
X55116Y-62938D01*
X55130Y-62952D01*
X55144Y-62980D01*
X55144Y-63022D01*
X55130Y-63050D01*
X55116Y-63064D01*
X55088Y-63078D01*
X54976Y-63078D01*
X54244Y-57574D02*
X54244Y-57813D01*
X54258Y-57841D01*
X54272Y-57855D01*
X54300Y-57869D01*
X54356Y-57869D01*
X54384Y-57855D01*
X54398Y-57841D01*
X54412Y-57813D01*
X54412Y-57574D01*
X54539Y-57602D02*
X54553Y-57588D01*
X54581Y-57574D01*
X54651Y-57574D01*
X54679Y-57588D01*
X54693Y-57602D01*
X54707Y-57630D01*
X54707Y-57658D01*
X54693Y-57700D01*
X54525Y-57869D01*
X54707Y-57869D01*
X54890Y-57574D02*
X54918Y-57574D01*
X54946Y-57588D01*
X54960Y-57602D01*
X54974Y-57630D01*
X54988Y-57686D01*
X54988Y-57757D01*
X54974Y-57813D01*
X54960Y-57841D01*
X54946Y-57855D01*
X54918Y-57869D01*
X54890Y-57869D01*
X54862Y-57855D01*
X54848Y-57841D01*
X54834Y-57813D01*
X54820Y-57757D01*
X54820Y-57686D01*
X54834Y-57630D01*
X54848Y-57602D01*
X54862Y-57588D01*
X54890Y-57574D01*
X55101Y-57602D02*
X55115Y-57588D01*
X55143Y-57574D01*
X55213Y-57574D01*
X55241Y-57588D01*
X55255Y-57602D01*
X55269Y-57630D01*
X55269Y-57658D01*
X55255Y-57700D01*
X55087Y-57869D01*
X55269Y-57869D01*
X53009Y-56969D02*
X52869Y-56969D01*
X52869Y-56674D01*
X53107Y-56969D02*
X53107Y-56674D01*
X53206Y-56885D01*
X53304Y-56674D01*
X53304Y-56969D01*
X53402Y-56674D02*
X53501Y-56969D01*
X53599Y-56674D01*
X53669Y-56674D02*
X53852Y-56674D01*
X53754Y-56786D01*
X53796Y-56786D01*
X53824Y-56800D01*
X53838Y-56814D01*
X53852Y-56842D01*
X53852Y-56913D01*
X53838Y-56941D01*
X53824Y-56955D01*
X53796Y-56969D01*
X53712Y-56969D01*
X53683Y-56955D01*
X53669Y-56941D01*
X53964Y-56702D02*
X53978Y-56688D01*
X54007Y-56674D01*
X54077Y-56674D01*
X54105Y-56688D01*
X54119Y-56702D01*
X54133Y-56730D01*
X54133Y-56758D01*
X54119Y-56800D01*
X53950Y-56969D01*
X54133Y-56969D01*
X54386Y-56772D02*
X54386Y-56969D01*
X54316Y-56660D02*
X54245Y-56871D01*
X54428Y-56871D01*
X54540Y-56969D02*
X54540Y-56674D01*
X54681Y-56969D02*
X54681Y-56674D01*
X54751Y-56674D01*
X54793Y-56688D01*
X54821Y-56716D01*
X54835Y-56744D01*
X54849Y-56800D01*
X54849Y-56842D01*
X54835Y-56899D01*
X54821Y-56927D01*
X54793Y-56955D01*
X54751Y-56969D01*
X54681Y-56969D01*
X55144Y-56969D02*
X55046Y-56828D01*
X54976Y-56969D02*
X54976Y-56674D01*
X55088Y-56674D01*
X55116Y-56688D01*
X55130Y-56702D01*
X55144Y-56730D01*
X55144Y-56772D01*
X55130Y-56800D01*
X55116Y-56814D01*
X55088Y-56828D01*
X54976Y-56828D01*
X52494Y-50324D02*
X52494Y-50563D01*
X52508Y-50591D01*
X52522Y-50605D01*
X52550Y-50619D01*
X52606Y-50619D01*
X52634Y-50605D01*
X52648Y-50591D01*
X52662Y-50563D01*
X52662Y-50324D01*
X52789Y-50352D02*
X52803Y-50338D01*
X52831Y-50324D01*
X52901Y-50324D01*
X52929Y-50338D01*
X52943Y-50352D01*
X52957Y-50380D01*
X52957Y-50408D01*
X52943Y-50450D01*
X52775Y-50619D01*
X52957Y-50619D01*
X53140Y-50324D02*
X53168Y-50324D01*
X53196Y-50338D01*
X53210Y-50352D01*
X53224Y-50380D01*
X53238Y-50436D01*
X53238Y-50507D01*
X53224Y-50563D01*
X53210Y-50591D01*
X53196Y-50605D01*
X53168Y-50619D01*
X53140Y-50619D01*
X53112Y-50605D01*
X53098Y-50591D01*
X53084Y-50563D01*
X53070Y-50507D01*
X53070Y-50436D01*
X53084Y-50380D01*
X53098Y-50352D01*
X53112Y-50338D01*
X53140Y-50324D01*
X53337Y-50324D02*
X53519Y-50324D01*
X53421Y-50436D01*
X53463Y-50436D01*
X53491Y-50450D01*
X53505Y-50464D01*
X53519Y-50492D01*
X53519Y-50563D01*
X53505Y-50591D01*
X53491Y-50605D01*
X53463Y-50619D01*
X53379Y-50619D01*
X53351Y-50605D01*
X53337Y-50591D01*
X53009Y-49969D02*
X52869Y-49969D01*
X52869Y-49674D01*
X53107Y-49969D02*
X53107Y-49674D01*
X53206Y-49885D01*
X53304Y-49674D01*
X53304Y-49969D01*
X53402Y-49674D02*
X53501Y-49969D01*
X53599Y-49674D01*
X53669Y-49674D02*
X53852Y-49674D01*
X53754Y-49786D01*
X53796Y-49786D01*
X53824Y-49800D01*
X53838Y-49814D01*
X53852Y-49842D01*
X53852Y-49913D01*
X53838Y-49941D01*
X53824Y-49955D01*
X53796Y-49969D01*
X53712Y-49969D01*
X53683Y-49955D01*
X53669Y-49941D01*
X53964Y-49702D02*
X53978Y-49688D01*
X54007Y-49674D01*
X54077Y-49674D01*
X54105Y-49688D01*
X54119Y-49702D01*
X54133Y-49730D01*
X54133Y-49758D01*
X54119Y-49800D01*
X53950Y-49969D01*
X54133Y-49969D01*
X54386Y-49772D02*
X54386Y-49969D01*
X54316Y-49660D02*
X54245Y-49871D01*
X54428Y-49871D01*
X54540Y-49969D02*
X54540Y-49674D01*
X54681Y-49969D02*
X54681Y-49674D01*
X54751Y-49674D01*
X54793Y-49688D01*
X54821Y-49716D01*
X54835Y-49744D01*
X54849Y-49800D01*
X54849Y-49842D01*
X54835Y-49899D01*
X54821Y-49927D01*
X54793Y-49955D01*
X54751Y-49969D01*
X54681Y-49969D01*
X55144Y-49969D02*
X55046Y-49828D01*
X54976Y-49969D02*
X54976Y-49674D01*
X55088Y-49674D01*
X55116Y-49688D01*
X55130Y-49702D01*
X55144Y-49730D01*
X55144Y-49772D01*
X55130Y-49800D01*
X55116Y-49814D01*
X55088Y-49828D01*
X54976Y-49828D01*
G54D21*
X42916Y-49579D02*
X42916Y-49382D01*
X42963Y-49382D01*
X42992Y-49392D01*
X43010Y-49410D01*
X43020Y-49429D01*
X43029Y-49467D01*
X43029Y-49495D01*
X43020Y-49532D01*
X43010Y-49551D01*
X42992Y-49570D01*
X42963Y-49579D01*
X42916Y-49579D01*
X43095Y-49382D02*
X43217Y-49382D01*
X43151Y-49457D01*
X43179Y-49457D01*
X43198Y-49467D01*
X43207Y-49476D01*
X43217Y-49495D01*
X43217Y-49542D01*
X43207Y-49560D01*
X43198Y-49570D01*
X43179Y-49579D01*
X43123Y-49579D01*
X43104Y-49570D01*
X43095Y-49560D01*
X43404Y-49579D02*
X43292Y-49579D01*
X43348Y-49579D02*
X43348Y-49382D01*
X43329Y-49410D01*
X43310Y-49429D01*
X43292Y-49439D01*
X43526Y-49382D02*
X43545Y-49382D01*
X43564Y-49392D01*
X43573Y-49401D01*
X43583Y-49420D01*
X43592Y-49457D01*
X43592Y-49504D01*
X43583Y-49542D01*
X43573Y-49560D01*
X43564Y-49570D01*
X43545Y-49579D01*
X43526Y-49579D01*
X43507Y-49570D01*
X43498Y-49560D01*
X43489Y-49542D01*
X43479Y-49504D01*
X43479Y-49457D01*
X43489Y-49420D01*
X43498Y-49401D01*
X43507Y-49392D01*
X43526Y-49382D01*
X44416Y-49579D02*
X44416Y-49382D01*
X44463Y-49382D01*
X44492Y-49392D01*
X44510Y-49410D01*
X44520Y-49429D01*
X44529Y-49467D01*
X44529Y-49495D01*
X44520Y-49532D01*
X44510Y-49551D01*
X44492Y-49570D01*
X44463Y-49579D01*
X44416Y-49579D01*
X44595Y-49382D02*
X44717Y-49382D01*
X44651Y-49457D01*
X44679Y-49457D01*
X44698Y-49467D01*
X44707Y-49476D01*
X44717Y-49495D01*
X44717Y-49542D01*
X44707Y-49560D01*
X44698Y-49570D01*
X44679Y-49579D01*
X44623Y-49579D01*
X44604Y-49570D01*
X44595Y-49560D01*
X44792Y-49401D02*
X44801Y-49392D01*
X44820Y-49382D01*
X44867Y-49382D01*
X44886Y-49392D01*
X44895Y-49401D01*
X44904Y-49420D01*
X44904Y-49439D01*
X44895Y-49467D01*
X44782Y-49579D01*
X44904Y-49579D01*
X45026Y-49382D02*
X45045Y-49382D01*
X45064Y-49392D01*
X45073Y-49401D01*
X45083Y-49420D01*
X45092Y-49457D01*
X45092Y-49504D01*
X45083Y-49542D01*
X45073Y-49560D01*
X45064Y-49570D01*
X45045Y-49579D01*
X45026Y-49579D01*
X45007Y-49570D01*
X44998Y-49560D01*
X44989Y-49542D01*
X44979Y-49504D01*
X44979Y-49457D01*
X44989Y-49420D01*
X44998Y-49401D01*
X45007Y-49392D01*
X45026Y-49382D01*
G54D13*
X57914Y-48871D02*
X57814Y-48728D01*
X57742Y-48871D02*
X57742Y-48571D01*
X57857Y-48571D01*
X57885Y-48585D01*
X57900Y-48600D01*
X57914Y-48628D01*
X57914Y-48671D01*
X57900Y-48700D01*
X57885Y-48714D01*
X57857Y-48728D01*
X57742Y-48728D01*
X58014Y-48571D02*
X58200Y-48571D01*
X58100Y-48685D01*
X58142Y-48685D01*
X58171Y-48700D01*
X58185Y-48714D01*
X58200Y-48742D01*
X58200Y-48814D01*
X58185Y-48842D01*
X58171Y-48857D01*
X58142Y-48871D01*
X58057Y-48871D01*
X58028Y-48857D01*
X58014Y-48842D01*
X58485Y-48871D02*
X58314Y-48871D01*
X58400Y-48871D02*
X58400Y-48571D01*
X58371Y-48614D01*
X58342Y-48642D01*
X58314Y-48657D01*
X58757Y-48571D02*
X58614Y-48571D01*
X58600Y-48714D01*
X58614Y-48700D01*
X58642Y-48685D01*
X58714Y-48685D01*
X58742Y-48700D01*
X58757Y-48714D01*
X58771Y-48742D01*
X58771Y-48814D01*
X58757Y-48842D01*
X58742Y-48857D01*
X58714Y-48871D01*
X58642Y-48871D01*
X58614Y-48857D01*
X58600Y-48842D01*
X56664Y-48871D02*
X56564Y-48728D01*
X56492Y-48871D02*
X56492Y-48571D01*
X56607Y-48571D01*
X56635Y-48585D01*
X56650Y-48600D01*
X56664Y-48628D01*
X56664Y-48671D01*
X56650Y-48700D01*
X56635Y-48714D01*
X56607Y-48728D01*
X56492Y-48728D01*
X56764Y-48571D02*
X56950Y-48571D01*
X56850Y-48685D01*
X56892Y-48685D01*
X56921Y-48700D01*
X56935Y-48714D01*
X56950Y-48742D01*
X56950Y-48814D01*
X56935Y-48842D01*
X56921Y-48857D01*
X56892Y-48871D01*
X56807Y-48871D01*
X56778Y-48857D01*
X56764Y-48842D01*
X57235Y-48871D02*
X57064Y-48871D01*
X57150Y-48871D02*
X57150Y-48571D01*
X57121Y-48614D01*
X57092Y-48642D01*
X57064Y-48657D01*
X57492Y-48671D02*
X57492Y-48871D01*
X57421Y-48557D02*
X57350Y-48771D01*
X57535Y-48771D01*
X37914Y-49371D02*
X37814Y-49228D01*
X37742Y-49371D02*
X37742Y-49071D01*
X37857Y-49071D01*
X37885Y-49085D01*
X37900Y-49100D01*
X37914Y-49128D01*
X37914Y-49171D01*
X37900Y-49200D01*
X37885Y-49214D01*
X37857Y-49228D01*
X37742Y-49228D01*
X38014Y-49071D02*
X38200Y-49071D01*
X38100Y-49185D01*
X38142Y-49185D01*
X38171Y-49200D01*
X38185Y-49214D01*
X38200Y-49242D01*
X38200Y-49314D01*
X38185Y-49342D01*
X38171Y-49357D01*
X38142Y-49371D01*
X38057Y-49371D01*
X38028Y-49357D01*
X38014Y-49342D01*
X38485Y-49371D02*
X38314Y-49371D01*
X38400Y-49371D02*
X38400Y-49071D01*
X38371Y-49114D01*
X38342Y-49142D01*
X38314Y-49157D01*
X38771Y-49371D02*
X38600Y-49371D01*
X38685Y-49371D02*
X38685Y-49071D01*
X38657Y-49114D01*
X38628Y-49142D01*
X38600Y-49157D01*
X39164Y-48371D02*
X39064Y-48228D01*
X38992Y-48371D02*
X38992Y-48071D01*
X39107Y-48071D01*
X39135Y-48085D01*
X39150Y-48100D01*
X39164Y-48128D01*
X39164Y-48171D01*
X39150Y-48200D01*
X39135Y-48214D01*
X39107Y-48228D01*
X38992Y-48228D01*
X39264Y-48071D02*
X39450Y-48071D01*
X39350Y-48185D01*
X39392Y-48185D01*
X39421Y-48200D01*
X39435Y-48214D01*
X39450Y-48242D01*
X39450Y-48314D01*
X39435Y-48342D01*
X39421Y-48357D01*
X39392Y-48371D01*
X39307Y-48371D01*
X39278Y-48357D01*
X39264Y-48342D01*
X39564Y-48100D02*
X39578Y-48085D01*
X39607Y-48071D01*
X39678Y-48071D01*
X39707Y-48085D01*
X39721Y-48100D01*
X39735Y-48128D01*
X39735Y-48157D01*
X39721Y-48200D01*
X39550Y-48371D01*
X39735Y-48371D01*
X40021Y-48371D02*
X39850Y-48371D01*
X39935Y-48371D02*
X39935Y-48071D01*
X39907Y-48114D01*
X39878Y-48142D01*
X39850Y-48157D01*
X59164Y-48871D02*
X59064Y-48728D01*
X58992Y-48871D02*
X58992Y-48571D01*
X59107Y-48571D01*
X59135Y-48585D01*
X59150Y-48600D01*
X59164Y-48628D01*
X59164Y-48671D01*
X59150Y-48700D01*
X59135Y-48714D01*
X59107Y-48728D01*
X58992Y-48728D01*
X59264Y-48571D02*
X59450Y-48571D01*
X59350Y-48685D01*
X59392Y-48685D01*
X59421Y-48700D01*
X59435Y-48714D01*
X59450Y-48742D01*
X59450Y-48814D01*
X59435Y-48842D01*
X59421Y-48857D01*
X59392Y-48871D01*
X59307Y-48871D01*
X59278Y-48857D01*
X59264Y-48842D01*
X59564Y-48600D02*
X59578Y-48585D01*
X59607Y-48571D01*
X59678Y-48571D01*
X59707Y-48585D01*
X59721Y-48600D01*
X59735Y-48628D01*
X59735Y-48657D01*
X59721Y-48700D01*
X59550Y-48871D01*
X59735Y-48871D01*
X59992Y-48671D02*
X59992Y-48871D01*
X59921Y-48557D02*
X59850Y-48771D01*
X60035Y-48771D01*
X60414Y-48871D02*
X60314Y-48728D01*
X60242Y-48871D02*
X60242Y-48571D01*
X60357Y-48571D01*
X60385Y-48585D01*
X60400Y-48600D01*
X60414Y-48628D01*
X60414Y-48671D01*
X60400Y-48700D01*
X60385Y-48714D01*
X60357Y-48728D01*
X60242Y-48728D01*
X60514Y-48571D02*
X60700Y-48571D01*
X60600Y-48685D01*
X60642Y-48685D01*
X60671Y-48700D01*
X60685Y-48714D01*
X60700Y-48742D01*
X60700Y-48814D01*
X60685Y-48842D01*
X60671Y-48857D01*
X60642Y-48871D01*
X60557Y-48871D01*
X60528Y-48857D01*
X60514Y-48842D01*
X60814Y-48600D02*
X60828Y-48585D01*
X60857Y-48571D01*
X60928Y-48571D01*
X60957Y-48585D01*
X60971Y-48600D01*
X60985Y-48628D01*
X60985Y-48657D01*
X60971Y-48700D01*
X60800Y-48871D01*
X60985Y-48871D01*
X61257Y-48571D02*
X61114Y-48571D01*
X61100Y-48714D01*
X61114Y-48700D01*
X61142Y-48685D01*
X61214Y-48685D01*
X61242Y-48700D01*
X61257Y-48714D01*
X61271Y-48742D01*
X61271Y-48814D01*
X61257Y-48842D01*
X61242Y-48857D01*
X61214Y-48871D01*
X61142Y-48871D01*
X61114Y-48857D01*
X61100Y-48842D01*
X48164Y-48871D02*
X48064Y-48728D01*
X47992Y-48871D02*
X47992Y-48571D01*
X48107Y-48571D01*
X48135Y-48585D01*
X48150Y-48600D01*
X48164Y-48628D01*
X48164Y-48671D01*
X48150Y-48700D01*
X48135Y-48714D01*
X48107Y-48728D01*
X47992Y-48728D01*
X48264Y-48571D02*
X48450Y-48571D01*
X48350Y-48685D01*
X48392Y-48685D01*
X48421Y-48700D01*
X48435Y-48714D01*
X48450Y-48742D01*
X48450Y-48814D01*
X48435Y-48842D01*
X48421Y-48857D01*
X48392Y-48871D01*
X48307Y-48871D01*
X48278Y-48857D01*
X48264Y-48842D01*
X48735Y-48871D02*
X48564Y-48871D01*
X48650Y-48871D02*
X48650Y-48571D01*
X48621Y-48614D01*
X48592Y-48642D01*
X48564Y-48657D01*
X48835Y-48571D02*
X49021Y-48571D01*
X48921Y-48685D01*
X48964Y-48685D01*
X48992Y-48700D01*
X49007Y-48714D01*
X49021Y-48742D01*
X49021Y-48814D01*
X49007Y-48842D01*
X48992Y-48857D01*
X48964Y-48871D01*
X48878Y-48871D01*
X48850Y-48857D01*
X48835Y-48842D01*
X49414Y-48842D02*
X49400Y-48857D01*
X49357Y-48871D01*
X49328Y-48871D01*
X49285Y-48857D01*
X49257Y-48828D01*
X49242Y-48800D01*
X49228Y-48742D01*
X49228Y-48700D01*
X49242Y-48642D01*
X49257Y-48614D01*
X49285Y-48585D01*
X49328Y-48571D01*
X49357Y-48571D01*
X49400Y-48585D01*
X49414Y-48600D01*
X49514Y-48571D02*
X49700Y-48571D01*
X49600Y-48685D01*
X49642Y-48685D01*
X49671Y-48700D01*
X49685Y-48714D01*
X49700Y-48742D01*
X49700Y-48814D01*
X49685Y-48842D01*
X49671Y-48857D01*
X49642Y-48871D01*
X49557Y-48871D01*
X49528Y-48857D01*
X49514Y-48842D01*
X49985Y-48871D02*
X49814Y-48871D01*
X49900Y-48871D02*
X49900Y-48571D01*
X49871Y-48614D01*
X49842Y-48642D01*
X49814Y-48657D01*
X50171Y-48571D02*
X50200Y-48571D01*
X50228Y-48585D01*
X50242Y-48600D01*
X50257Y-48628D01*
X50271Y-48685D01*
X50271Y-48757D01*
X50257Y-48814D01*
X50242Y-48842D01*
X50228Y-48857D01*
X50200Y-48871D01*
X50171Y-48871D01*
X50142Y-48857D01*
X50128Y-48842D01*
X50114Y-48814D01*
X50100Y-48757D01*
X50100Y-48685D01*
X50114Y-48628D01*
X50128Y-48600D01*
X50142Y-48585D01*
X50171Y-48571D01*
X41664Y-49371D02*
X41564Y-49228D01*
X41492Y-49371D02*
X41492Y-49071D01*
X41607Y-49071D01*
X41635Y-49085D01*
X41650Y-49100D01*
X41664Y-49128D01*
X41664Y-49171D01*
X41650Y-49200D01*
X41635Y-49214D01*
X41607Y-49228D01*
X41492Y-49228D01*
X41764Y-49071D02*
X41950Y-49071D01*
X41850Y-49185D01*
X41892Y-49185D01*
X41921Y-49200D01*
X41935Y-49214D01*
X41950Y-49242D01*
X41950Y-49314D01*
X41935Y-49342D01*
X41921Y-49357D01*
X41892Y-49371D01*
X41807Y-49371D01*
X41778Y-49357D01*
X41764Y-49342D01*
X42235Y-49371D02*
X42064Y-49371D01*
X42150Y-49371D02*
X42150Y-49071D01*
X42121Y-49114D01*
X42092Y-49142D01*
X42064Y-49157D01*
X42421Y-49071D02*
X42450Y-49071D01*
X42478Y-49085D01*
X42492Y-49100D01*
X42507Y-49128D01*
X42521Y-49185D01*
X42521Y-49257D01*
X42507Y-49314D01*
X42492Y-49342D01*
X42478Y-49357D01*
X42450Y-49371D01*
X42421Y-49371D01*
X42392Y-49357D01*
X42378Y-49342D01*
X42364Y-49314D01*
X42350Y-49257D01*
X42350Y-49185D01*
X42364Y-49128D01*
X42378Y-49100D01*
X42392Y-49085D01*
X42421Y-49071D01*
X45664Y-49371D02*
X45564Y-49228D01*
X45492Y-49371D02*
X45492Y-49071D01*
X45607Y-49071D01*
X45635Y-49085D01*
X45650Y-49100D01*
X45664Y-49128D01*
X45664Y-49171D01*
X45650Y-49200D01*
X45635Y-49214D01*
X45607Y-49228D01*
X45492Y-49228D01*
X45764Y-49071D02*
X45950Y-49071D01*
X45850Y-49185D01*
X45892Y-49185D01*
X45921Y-49200D01*
X45935Y-49214D01*
X45950Y-49242D01*
X45950Y-49314D01*
X45935Y-49342D01*
X45921Y-49357D01*
X45892Y-49371D01*
X45807Y-49371D01*
X45778Y-49357D01*
X45764Y-49342D01*
X46064Y-49100D02*
X46078Y-49085D01*
X46107Y-49071D01*
X46178Y-49071D01*
X46207Y-49085D01*
X46221Y-49100D01*
X46235Y-49128D01*
X46235Y-49157D01*
X46221Y-49200D01*
X46050Y-49371D01*
X46235Y-49371D01*
X46335Y-49071D02*
X46521Y-49071D01*
X46421Y-49185D01*
X46464Y-49185D01*
X46492Y-49200D01*
X46507Y-49214D01*
X46521Y-49242D01*
X46521Y-49314D01*
X46507Y-49342D01*
X46492Y-49357D01*
X46464Y-49371D01*
X46378Y-49371D01*
X46350Y-49357D01*
X46335Y-49342D01*
X46914Y-49342D02*
X46900Y-49357D01*
X46857Y-49371D01*
X46828Y-49371D01*
X46785Y-49357D01*
X46757Y-49328D01*
X46742Y-49300D01*
X46728Y-49242D01*
X46728Y-49200D01*
X46742Y-49142D01*
X46757Y-49114D01*
X46785Y-49085D01*
X46828Y-49071D01*
X46857Y-49071D01*
X46900Y-49085D01*
X46914Y-49100D01*
X47014Y-49071D02*
X47200Y-49071D01*
X47100Y-49185D01*
X47142Y-49185D01*
X47171Y-49200D01*
X47185Y-49214D01*
X47200Y-49242D01*
X47200Y-49314D01*
X47185Y-49342D01*
X47171Y-49357D01*
X47142Y-49371D01*
X47057Y-49371D01*
X47028Y-49357D01*
X47014Y-49342D01*
X47314Y-49100D02*
X47328Y-49085D01*
X47357Y-49071D01*
X47428Y-49071D01*
X47457Y-49085D01*
X47471Y-49100D01*
X47485Y-49128D01*
X47485Y-49157D01*
X47471Y-49200D01*
X47300Y-49371D01*
X47485Y-49371D01*
X47671Y-49071D02*
X47700Y-49071D01*
X47728Y-49085D01*
X47742Y-49100D01*
X47757Y-49128D01*
X47771Y-49185D01*
X47771Y-49257D01*
X47757Y-49314D01*
X47742Y-49342D01*
X47728Y-49357D01*
X47700Y-49371D01*
X47671Y-49371D01*
X47642Y-49357D01*
X47628Y-49342D01*
X47614Y-49314D01*
X47600Y-49257D01*
X47600Y-49185D01*
X47614Y-49128D01*
X47628Y-49100D01*
X47642Y-49085D01*
X47671Y-49071D01*
X40414Y-49371D02*
X40314Y-49228D01*
X40242Y-49371D02*
X40242Y-49071D01*
X40357Y-49071D01*
X40385Y-49085D01*
X40400Y-49100D01*
X40414Y-49128D01*
X40414Y-49171D01*
X40400Y-49200D01*
X40385Y-49214D01*
X40357Y-49228D01*
X40242Y-49228D01*
X40514Y-49071D02*
X40700Y-49071D01*
X40600Y-49185D01*
X40642Y-49185D01*
X40671Y-49200D01*
X40685Y-49214D01*
X40700Y-49242D01*
X40700Y-49314D01*
X40685Y-49342D01*
X40671Y-49357D01*
X40642Y-49371D01*
X40557Y-49371D01*
X40528Y-49357D01*
X40514Y-49342D01*
X40814Y-49100D02*
X40828Y-49085D01*
X40857Y-49071D01*
X40928Y-49071D01*
X40957Y-49085D01*
X40971Y-49100D01*
X40985Y-49128D01*
X40985Y-49157D01*
X40971Y-49200D01*
X40800Y-49371D01*
X40985Y-49371D01*
X41171Y-49071D02*
X41200Y-49071D01*
X41228Y-49085D01*
X41242Y-49100D01*
X41257Y-49128D01*
X41271Y-49185D01*
X41271Y-49257D01*
X41257Y-49314D01*
X41242Y-49342D01*
X41228Y-49357D01*
X41200Y-49371D01*
X41171Y-49371D01*
X41142Y-49357D01*
X41128Y-49342D01*
X41114Y-49314D01*
X41100Y-49257D01*
X41100Y-49185D01*
X41114Y-49128D01*
X41128Y-49100D01*
X41142Y-49085D01*
X41171Y-49071D01*
X45371Y-48085D02*
X45228Y-48185D01*
X45371Y-48257D02*
X45071Y-48257D01*
X45071Y-48142D01*
X45085Y-48114D01*
X45100Y-48100D01*
X45128Y-48085D01*
X45171Y-48085D01*
X45200Y-48100D01*
X45214Y-48114D01*
X45228Y-48142D01*
X45228Y-48257D01*
X45071Y-47985D02*
X45071Y-47800D01*
X45185Y-47900D01*
X45185Y-47857D01*
X45200Y-47828D01*
X45214Y-47814D01*
X45242Y-47800D01*
X45314Y-47800D01*
X45342Y-47814D01*
X45357Y-47828D01*
X45371Y-47857D01*
X45371Y-47942D01*
X45357Y-47971D01*
X45342Y-47985D01*
X45100Y-47685D02*
X45085Y-47671D01*
X45071Y-47642D01*
X45071Y-47571D01*
X45085Y-47542D01*
X45100Y-47528D01*
X45128Y-47514D01*
X45157Y-47514D01*
X45200Y-47528D01*
X45371Y-47700D01*
X45371Y-47514D01*
X45100Y-47400D02*
X45085Y-47385D01*
X45071Y-47357D01*
X45071Y-47285D01*
X45085Y-47257D01*
X45100Y-47242D01*
X45128Y-47228D01*
X45157Y-47228D01*
X45200Y-47242D01*
X45371Y-47414D01*
X45371Y-47228D01*
X43121Y-48085D02*
X42978Y-48185D01*
X43121Y-48257D02*
X42821Y-48257D01*
X42821Y-48142D01*
X42835Y-48114D01*
X42850Y-48100D01*
X42878Y-48085D01*
X42921Y-48085D01*
X42950Y-48100D01*
X42964Y-48114D01*
X42978Y-48142D01*
X42978Y-48257D01*
X42821Y-47985D02*
X42821Y-47800D01*
X42935Y-47900D01*
X42935Y-47857D01*
X42950Y-47828D01*
X42964Y-47814D01*
X42992Y-47800D01*
X43064Y-47800D01*
X43092Y-47814D01*
X43107Y-47828D01*
X43121Y-47857D01*
X43121Y-47942D01*
X43107Y-47971D01*
X43092Y-47985D01*
X43121Y-47514D02*
X43121Y-47685D01*
X43121Y-47600D02*
X42821Y-47600D01*
X42864Y-47628D01*
X42892Y-47657D01*
X42907Y-47685D01*
X42850Y-47400D02*
X42835Y-47385D01*
X42821Y-47357D01*
X42821Y-47285D01*
X42835Y-47257D01*
X42850Y-47242D01*
X42878Y-47228D01*
X42907Y-47228D01*
X42950Y-47242D01*
X43121Y-47414D01*
X43121Y-47228D01*
G54D12*
X61992Y-63771D02*
X61992Y-63471D01*
X62107Y-63471D01*
X62135Y-63485D01*
X62150Y-63500D01*
X62164Y-63528D01*
X62164Y-63571D01*
X62150Y-63600D01*
X62135Y-63614D01*
X62107Y-63628D01*
X61992Y-63628D01*
X62278Y-63500D02*
X62292Y-63485D01*
X62321Y-63471D01*
X62392Y-63471D01*
X62421Y-63485D01*
X62435Y-63500D01*
X62450Y-63528D01*
X62450Y-63557D01*
X62435Y-63600D01*
X62264Y-63771D01*
X62450Y-63771D01*
X62635Y-63471D02*
X62664Y-63471D01*
X62692Y-63485D01*
X62707Y-63500D01*
X62721Y-63528D01*
X62735Y-63585D01*
X62735Y-63657D01*
X62721Y-63714D01*
X62707Y-63742D01*
X62692Y-63757D01*
X62664Y-63771D01*
X62635Y-63771D01*
X62607Y-63757D01*
X62592Y-63742D01*
X62578Y-63714D01*
X62564Y-63657D01*
X62564Y-63585D01*
X62578Y-63528D01*
X62592Y-63500D01*
X62607Y-63485D01*
X62635Y-63471D01*
X62992Y-63571D02*
X62992Y-63771D01*
X62921Y-63457D02*
X62850Y-63671D01*
X63035Y-63671D01*
X63492Y-55121D02*
X63492Y-54821D01*
X63607Y-54821D01*
X63635Y-54835D01*
X63650Y-54850D01*
X63664Y-54878D01*
X63664Y-54921D01*
X63650Y-54950D01*
X63635Y-54964D01*
X63607Y-54978D01*
X63492Y-54978D01*
X63778Y-54850D02*
X63792Y-54835D01*
X63821Y-54821D01*
X63892Y-54821D01*
X63921Y-54835D01*
X63935Y-54850D01*
X63950Y-54878D01*
X63950Y-54907D01*
X63935Y-54950D01*
X63764Y-55121D01*
X63950Y-55121D01*
X64135Y-54821D02*
X64164Y-54821D01*
X64192Y-54835D01*
X64207Y-54850D01*
X64221Y-54878D01*
X64235Y-54935D01*
X64235Y-55007D01*
X64221Y-55064D01*
X64207Y-55092D01*
X64192Y-55107D01*
X64164Y-55121D01*
X64135Y-55121D01*
X64107Y-55107D01*
X64092Y-55092D01*
X64078Y-55064D01*
X64064Y-55007D01*
X64064Y-54935D01*
X64078Y-54878D01*
X64092Y-54850D01*
X64107Y-54835D01*
X64135Y-54821D01*
X64507Y-54821D02*
X64364Y-54821D01*
X64350Y-54964D01*
X64364Y-54950D01*
X64392Y-54935D01*
X64464Y-54935D01*
X64492Y-54950D01*
X64507Y-54964D01*
X64521Y-54992D01*
X64521Y-55064D01*
X64507Y-55092D01*
X64492Y-55107D01*
X64464Y-55121D01*
X64392Y-55121D01*
X64364Y-55107D01*
X64350Y-55092D01*
G54D22*
X35573Y-65161D02*
X35573Y-64761D01*
X35726Y-64761D01*
X35764Y-64780D01*
X35783Y-64800D01*
X35802Y-64838D01*
X35802Y-64895D01*
X35783Y-64933D01*
X35764Y-64952D01*
X35726Y-64971D01*
X35573Y-64971D01*
X35954Y-64800D02*
X35973Y-64780D01*
X36011Y-64761D01*
X36107Y-64761D01*
X36145Y-64780D01*
X36164Y-64800D01*
X36183Y-64838D01*
X36183Y-64876D01*
X36164Y-64933D01*
X35935Y-65161D01*
X36183Y-65161D01*
X36430Y-64761D02*
X36469Y-64761D01*
X36507Y-64780D01*
X36526Y-64800D01*
X36545Y-64838D01*
X36564Y-64914D01*
X36564Y-65009D01*
X36545Y-65085D01*
X36526Y-65123D01*
X36507Y-65142D01*
X36469Y-65161D01*
X36430Y-65161D01*
X36392Y-65142D01*
X36373Y-65123D01*
X36354Y-65085D01*
X36335Y-65009D01*
X36335Y-64914D01*
X36354Y-64838D01*
X36373Y-64800D01*
X36392Y-64780D01*
X36430Y-64761D01*
X36792Y-64933D02*
X36754Y-64914D01*
X36735Y-64895D01*
X36716Y-64857D01*
X36716Y-64838D01*
X36735Y-64800D01*
X36754Y-64780D01*
X36792Y-64761D01*
X36869Y-64761D01*
X36907Y-64780D01*
X36926Y-64800D01*
X36945Y-64838D01*
X36945Y-64857D01*
X36926Y-64895D01*
X36907Y-64914D01*
X36869Y-64933D01*
X36792Y-64933D01*
X36754Y-64952D01*
X36735Y-64971D01*
X36716Y-65009D01*
X36716Y-65085D01*
X36735Y-65123D01*
X36754Y-65142D01*
X36792Y-65161D01*
X36869Y-65161D01*
X36907Y-65142D01*
X36926Y-65123D01*
X36945Y-65085D01*
X36945Y-65009D01*
X36926Y-64971D01*
X36907Y-64952D01*
X36869Y-64933D01*
G54D12*
X53823Y-52911D02*
X53823Y-52511D01*
X53976Y-52511D01*
X54014Y-52530D01*
X54033Y-52550D01*
X54052Y-52588D01*
X54052Y-52645D01*
X54033Y-52683D01*
X54014Y-52702D01*
X53976Y-52721D01*
X53823Y-52721D01*
X54204Y-52550D02*
X54223Y-52530D01*
X54261Y-52511D01*
X54357Y-52511D01*
X54395Y-52530D01*
X54414Y-52550D01*
X54433Y-52588D01*
X54433Y-52626D01*
X54414Y-52683D01*
X54185Y-52911D01*
X54433Y-52911D01*
X54680Y-52511D02*
X54719Y-52511D01*
X54757Y-52530D01*
X54776Y-52550D01*
X54795Y-52588D01*
X54814Y-52664D01*
X54814Y-52759D01*
X54795Y-52835D01*
X54776Y-52873D01*
X54757Y-52892D01*
X54719Y-52911D01*
X54680Y-52911D01*
X54642Y-52892D01*
X54623Y-52873D01*
X54604Y-52835D01*
X54585Y-52759D01*
X54585Y-52664D01*
X54604Y-52588D01*
X54623Y-52550D01*
X54642Y-52530D01*
X54680Y-52511D01*
X54947Y-52511D02*
X55195Y-52511D01*
X55061Y-52664D01*
X55119Y-52664D01*
X55157Y-52683D01*
X55176Y-52702D01*
X55195Y-52740D01*
X55195Y-52835D01*
X55176Y-52873D01*
X55157Y-52892D01*
X55119Y-52911D01*
X55004Y-52911D01*
X54966Y-52892D01*
X54947Y-52873D01*
X55073Y-48661D02*
X55073Y-48261D01*
X55226Y-48261D01*
X55264Y-48280D01*
X55283Y-48300D01*
X55302Y-48338D01*
X55302Y-48395D01*
X55283Y-48433D01*
X55264Y-48452D01*
X55226Y-48471D01*
X55073Y-48471D01*
X55454Y-48300D02*
X55473Y-48280D01*
X55511Y-48261D01*
X55607Y-48261D01*
X55645Y-48280D01*
X55664Y-48300D01*
X55683Y-48338D01*
X55683Y-48376D01*
X55664Y-48433D01*
X55435Y-48661D01*
X55683Y-48661D01*
X55930Y-48261D02*
X55969Y-48261D01*
X56007Y-48280D01*
X56026Y-48300D01*
X56045Y-48338D01*
X56064Y-48414D01*
X56064Y-48509D01*
X56045Y-48585D01*
X56026Y-48623D01*
X56007Y-48642D01*
X55969Y-48661D01*
X55930Y-48661D01*
X55892Y-48642D01*
X55873Y-48623D01*
X55854Y-48585D01*
X55835Y-48509D01*
X55835Y-48414D01*
X55854Y-48338D01*
X55873Y-48300D01*
X55892Y-48280D01*
X55930Y-48261D01*
X56197Y-48261D02*
X56464Y-48261D01*
X56292Y-48661D01*
X51823Y-48661D02*
X51823Y-48261D01*
X51976Y-48261D01*
X52014Y-48280D01*
X52033Y-48300D01*
X52052Y-48338D01*
X52052Y-48395D01*
X52033Y-48433D01*
X52014Y-48452D01*
X51976Y-48471D01*
X51823Y-48471D01*
X52204Y-48300D02*
X52223Y-48280D01*
X52261Y-48261D01*
X52357Y-48261D01*
X52395Y-48280D01*
X52414Y-48300D01*
X52433Y-48338D01*
X52433Y-48376D01*
X52414Y-48433D01*
X52185Y-48661D01*
X52433Y-48661D01*
X52680Y-48261D02*
X52719Y-48261D01*
X52757Y-48280D01*
X52776Y-48300D01*
X52795Y-48338D01*
X52814Y-48414D01*
X52814Y-48509D01*
X52795Y-48585D01*
X52776Y-48623D01*
X52757Y-48642D01*
X52719Y-48661D01*
X52680Y-48661D01*
X52642Y-48642D01*
X52623Y-48623D01*
X52604Y-48585D01*
X52585Y-48509D01*
X52585Y-48414D01*
X52604Y-48338D01*
X52623Y-48300D01*
X52642Y-48280D01*
X52680Y-48261D01*
X53157Y-48261D02*
X53080Y-48261D01*
X53042Y-48280D01*
X53023Y-48300D01*
X52985Y-48357D01*
X52966Y-48433D01*
X52966Y-48585D01*
X52985Y-48623D01*
X53004Y-48642D01*
X53042Y-48661D01*
X53119Y-48661D01*
X53157Y-48642D01*
X53176Y-48623D01*
X53195Y-48585D01*
X53195Y-48490D01*
X53176Y-48452D01*
X53157Y-48433D01*
X53119Y-48414D01*
X53042Y-48414D01*
X53004Y-48433D01*
X52985Y-48452D01*
X52966Y-48490D01*
X63643Y-50556D02*
X63427Y-50906D01*
X63683Y-50758D01*
X63535Y-51014D01*
X63885Y-50798D01*
X63952Y-50920D02*
X63979Y-50920D01*
X64020Y-50933D01*
X64087Y-51000D01*
X64101Y-51041D01*
X64101Y-51068D01*
X64087Y-51108D01*
X64060Y-51135D01*
X64006Y-51162D01*
X63683Y-51162D01*
X63858Y-51337D01*
X64127Y-51606D02*
X63966Y-51445D01*
X64047Y-51526D02*
X64329Y-51243D01*
X64262Y-51256D01*
X64208Y-51256D01*
X64168Y-51243D01*
X64491Y-51458D02*
X64518Y-51458D01*
X64558Y-51472D01*
X64626Y-51539D01*
X64639Y-51579D01*
X64639Y-51606D01*
X64626Y-51647D01*
X64599Y-51674D01*
X64545Y-51701D01*
X64222Y-51701D01*
X64397Y-51876D01*
X62893Y-51306D02*
X62677Y-51656D01*
X62933Y-51508D01*
X62785Y-51764D01*
X63135Y-51548D01*
X63202Y-51670D02*
X63229Y-51670D01*
X63270Y-51683D01*
X63337Y-51750D01*
X63351Y-51791D01*
X63351Y-51818D01*
X63337Y-51858D01*
X63310Y-51885D01*
X63256Y-51912D01*
X62933Y-51912D01*
X63108Y-52087D01*
X63377Y-52356D02*
X63216Y-52195D01*
X63297Y-52276D02*
X63579Y-51993D01*
X63512Y-52006D01*
X63458Y-52006D01*
X63418Y-51993D01*
X63647Y-52626D02*
X63485Y-52464D01*
X63566Y-52545D02*
X63849Y-52262D01*
X63782Y-52276D01*
X63728Y-52276D01*
X63687Y-52262D01*
M02*
