G04 #@! TF.GenerationSoftware,KiCad,Pcbnew,(5.1.2)-1*
G04 #@! TF.CreationDate,2020-03-21T17:15:54+01:00*
G04 #@! TF.ProjectId,174917,31373439-3137-42e6-9b69-6361645f7063,R0.2*
G04 #@! TF.SameCoordinates,Original*
G04 #@! TF.FileFunction,Legend,Top*
G04 #@! TF.FilePolarity,Positive*
%FSLAX46Y46*%
G04 Gerber Fmt 4.6, Leading zero omitted, Abs format (unit mm)*
G04 Created by KiCad (PCBNEW (5.1.2)-1) date 2020-03-21 17:15:54*
%MOMM*%
%LPD*%
G04 APERTURE LIST*
%ADD10C,0.304800*%
%ADD11C,0.223520*%
%ADD12C,0.381000*%
%ADD13C,0.120000*%
%ADD14C,0.150000*%
G04 APERTURE END LIST*
D10*
X149157428Y-67919238D02*
X148649428Y-66951619D01*
X148286571Y-67919238D02*
X148286571Y-65887238D01*
X148867142Y-65887238D01*
X149012285Y-65984000D01*
X149084857Y-66080761D01*
X149157428Y-66274285D01*
X149157428Y-66564571D01*
X149084857Y-66758095D01*
X149012285Y-66854857D01*
X148867142Y-66951619D01*
X148286571Y-66951619D01*
X150100857Y-65887238D02*
X150246000Y-65887238D01*
X150391142Y-65984000D01*
X150463714Y-66080761D01*
X150536285Y-66274285D01*
X150608857Y-66661333D01*
X150608857Y-67145142D01*
X150536285Y-67532190D01*
X150463714Y-67725714D01*
X150391142Y-67822476D01*
X150246000Y-67919238D01*
X150100857Y-67919238D01*
X149955714Y-67822476D01*
X149883142Y-67725714D01*
X149810571Y-67532190D01*
X149738000Y-67145142D01*
X149738000Y-66661333D01*
X149810571Y-66274285D01*
X149883142Y-66080761D01*
X149955714Y-65984000D01*
X150100857Y-65887238D01*
X151262000Y-67725714D02*
X151334571Y-67822476D01*
X151262000Y-67919238D01*
X151189428Y-67822476D01*
X151262000Y-67725714D01*
X151262000Y-67919238D01*
X152786000Y-67919238D02*
X151915142Y-67919238D01*
X152350571Y-67919238D02*
X152350571Y-65887238D01*
X152205428Y-66177523D01*
X152060285Y-66371047D01*
X151915142Y-66467809D01*
D11*
X141115142Y-69142428D02*
X140776476Y-69142428D01*
X140776476Y-69674619D02*
X140776476Y-68658619D01*
X141260285Y-68658619D01*
X141115142Y-62157428D02*
X140776476Y-62157428D01*
X140776476Y-62689619D02*
X140776476Y-61673619D01*
X141260285Y-61673619D01*
X140752285Y-64697428D02*
X141090952Y-64697428D01*
X141236095Y-65229619D02*
X140752285Y-65229619D01*
X140752285Y-64213619D01*
X141236095Y-64213619D01*
X140752285Y-71682428D02*
X141090952Y-71682428D01*
X141236095Y-72214619D02*
X140752285Y-72214619D01*
X140752285Y-71198619D01*
X141236095Y-71198619D01*
X138853333Y-62308619D02*
X139482285Y-62308619D01*
X139143619Y-62695666D01*
X139288761Y-62695666D01*
X139385523Y-62744047D01*
X139433904Y-62792428D01*
X139482285Y-62889190D01*
X139482285Y-63131095D01*
X139433904Y-63227857D01*
X139385523Y-63276238D01*
X139288761Y-63324619D01*
X138998476Y-63324619D01*
X138901714Y-63276238D01*
X138853333Y-63227857D01*
X139917714Y-63324619D02*
X139917714Y-62308619D01*
X140159619Y-62308619D01*
X140304761Y-62357000D01*
X140401523Y-62453761D01*
X140449904Y-62550523D01*
X140498285Y-62744047D01*
X140498285Y-62889190D01*
X140449904Y-63082714D01*
X140401523Y-63179476D01*
X140304761Y-63276238D01*
X140159619Y-63324619D01*
X139917714Y-63324619D01*
X138853333Y-69293619D02*
X139482285Y-69293619D01*
X139143619Y-69680666D01*
X139288761Y-69680666D01*
X139385523Y-69729047D01*
X139433904Y-69777428D01*
X139482285Y-69874190D01*
X139482285Y-70116095D01*
X139433904Y-70212857D01*
X139385523Y-70261238D01*
X139288761Y-70309619D01*
X138998476Y-70309619D01*
X138901714Y-70261238D01*
X138853333Y-70212857D01*
X139917714Y-70309619D02*
X139917714Y-69293619D01*
X140159619Y-69293619D01*
X140304761Y-69342000D01*
X140401523Y-69438761D01*
X140449904Y-69535523D01*
X140498285Y-69729047D01*
X140498285Y-69874190D01*
X140449904Y-70067714D01*
X140401523Y-70164476D01*
X140304761Y-70261238D01*
X140159619Y-70309619D01*
X139917714Y-70309619D01*
X138853333Y-64848619D02*
X139482285Y-64848619D01*
X139143619Y-65235666D01*
X139288761Y-65235666D01*
X139385523Y-65284047D01*
X139433904Y-65332428D01*
X139482285Y-65429190D01*
X139482285Y-65671095D01*
X139433904Y-65767857D01*
X139385523Y-65816238D01*
X139288761Y-65864619D01*
X138998476Y-65864619D01*
X138901714Y-65816238D01*
X138853333Y-65767857D01*
X140498285Y-65767857D02*
X140449904Y-65816238D01*
X140304761Y-65864619D01*
X140208000Y-65864619D01*
X140062857Y-65816238D01*
X139966095Y-65719476D01*
X139917714Y-65622714D01*
X139869333Y-65429190D01*
X139869333Y-65284047D01*
X139917714Y-65090523D01*
X139966095Y-64993761D01*
X140062857Y-64897000D01*
X140208000Y-64848619D01*
X140304761Y-64848619D01*
X140449904Y-64897000D01*
X140498285Y-64945380D01*
X138853333Y-71833619D02*
X139482285Y-71833619D01*
X139143619Y-72220666D01*
X139288761Y-72220666D01*
X139385523Y-72269047D01*
X139433904Y-72317428D01*
X139482285Y-72414190D01*
X139482285Y-72656095D01*
X139433904Y-72752857D01*
X139385523Y-72801238D01*
X139288761Y-72849619D01*
X138998476Y-72849619D01*
X138901714Y-72801238D01*
X138853333Y-72752857D01*
X140498285Y-72752857D02*
X140449904Y-72801238D01*
X140304761Y-72849619D01*
X140208000Y-72849619D01*
X140062857Y-72801238D01*
X139966095Y-72704476D01*
X139917714Y-72607714D01*
X139869333Y-72414190D01*
X139869333Y-72269047D01*
X139917714Y-72075523D01*
X139966095Y-71978761D01*
X140062857Y-71882000D01*
X140208000Y-71833619D01*
X140304761Y-71833619D01*
X140449904Y-71882000D01*
X140498285Y-71930380D01*
X131305904Y-64213619D02*
X131934857Y-64213619D01*
X131596190Y-64600666D01*
X131741333Y-64600666D01*
X131838095Y-64649047D01*
X131886476Y-64697428D01*
X131934857Y-64794190D01*
X131934857Y-65036095D01*
X131886476Y-65132857D01*
X131838095Y-65181238D01*
X131741333Y-65229619D01*
X131451047Y-65229619D01*
X131354285Y-65181238D01*
X131305904Y-65132857D01*
X132321904Y-64939333D02*
X132805714Y-64939333D01*
X132225142Y-65229619D02*
X132563809Y-64213619D01*
X132902476Y-65229619D01*
X131233333Y-61673619D02*
X131862285Y-61673619D01*
X131523619Y-62060666D01*
X131668761Y-62060666D01*
X131765523Y-62109047D01*
X131813904Y-62157428D01*
X131862285Y-62254190D01*
X131862285Y-62496095D01*
X131813904Y-62592857D01*
X131765523Y-62641238D01*
X131668761Y-62689619D01*
X131378476Y-62689619D01*
X131281714Y-62641238D01*
X131233333Y-62592857D01*
X132636380Y-62157428D02*
X132781523Y-62205809D01*
X132829904Y-62254190D01*
X132878285Y-62350952D01*
X132878285Y-62496095D01*
X132829904Y-62592857D01*
X132781523Y-62641238D01*
X132684761Y-62689619D01*
X132297714Y-62689619D01*
X132297714Y-61673619D01*
X132636380Y-61673619D01*
X132733142Y-61722000D01*
X132781523Y-61770380D01*
X132829904Y-61867142D01*
X132829904Y-61963904D01*
X132781523Y-62060666D01*
X132733142Y-62109047D01*
X132636380Y-62157428D01*
X132297714Y-62157428D01*
X127471714Y-69390380D02*
X127520095Y-69342000D01*
X127616857Y-69293619D01*
X127858761Y-69293619D01*
X127955523Y-69342000D01*
X128003904Y-69390380D01*
X128052285Y-69487142D01*
X128052285Y-69583904D01*
X128003904Y-69729047D01*
X127423333Y-70309619D01*
X128052285Y-70309619D01*
X128487714Y-70309619D02*
X128487714Y-69293619D01*
X128874761Y-69293619D01*
X128971523Y-69342000D01*
X129019904Y-69390380D01*
X129068285Y-69487142D01*
X129068285Y-69632285D01*
X129019904Y-69729047D01*
X128971523Y-69777428D01*
X128874761Y-69825809D01*
X128487714Y-69825809D01*
X127447523Y-71930380D02*
X127495904Y-71882000D01*
X127592666Y-71833619D01*
X127834571Y-71833619D01*
X127931333Y-71882000D01*
X127979714Y-71930380D01*
X128028095Y-72027142D01*
X128028095Y-72123904D01*
X127979714Y-72269047D01*
X127399142Y-72849619D01*
X128028095Y-72849619D01*
X128657047Y-71833619D02*
X128850571Y-71833619D01*
X128947333Y-71882000D01*
X129044095Y-71978761D01*
X129092476Y-72172285D01*
X129092476Y-72510952D01*
X129044095Y-72704476D01*
X128947333Y-72801238D01*
X128850571Y-72849619D01*
X128657047Y-72849619D01*
X128560285Y-72801238D01*
X128463523Y-72704476D01*
X128415142Y-72510952D01*
X128415142Y-72172285D01*
X128463523Y-71978761D01*
X128560285Y-71882000D01*
X128657047Y-71833619D01*
X127447523Y-64310380D02*
X127495904Y-64262000D01*
X127592666Y-64213619D01*
X127834571Y-64213619D01*
X127931333Y-64262000D01*
X127979714Y-64310380D01*
X128028095Y-64407142D01*
X128028095Y-64503904D01*
X127979714Y-64649047D01*
X127399142Y-65229619D01*
X128028095Y-65229619D01*
X128657047Y-64213619D02*
X128850571Y-64213619D01*
X128947333Y-64262000D01*
X129044095Y-64358761D01*
X129092476Y-64552285D01*
X129092476Y-64890952D01*
X129044095Y-65084476D01*
X128947333Y-65181238D01*
X128850571Y-65229619D01*
X128657047Y-65229619D01*
X128560285Y-65181238D01*
X128463523Y-65084476D01*
X128415142Y-64890952D01*
X128415142Y-64552285D01*
X128463523Y-64358761D01*
X128560285Y-64262000D01*
X128657047Y-64213619D01*
X127471714Y-61770380D02*
X127520095Y-61722000D01*
X127616857Y-61673619D01*
X127858761Y-61673619D01*
X127955523Y-61722000D01*
X128003904Y-61770380D01*
X128052285Y-61867142D01*
X128052285Y-61963904D01*
X128003904Y-62109047D01*
X127423333Y-62689619D01*
X128052285Y-62689619D01*
X128487714Y-62689619D02*
X128487714Y-61673619D01*
X128874761Y-61673619D01*
X128971523Y-61722000D01*
X129019904Y-61770380D01*
X129068285Y-61867142D01*
X129068285Y-62012285D01*
X129019904Y-62109047D01*
X128971523Y-62157428D01*
X128874761Y-62205809D01*
X128487714Y-62205809D01*
X122264714Y-60784619D02*
X122264714Y-59768619D01*
X122845285Y-60784619D01*
X122845285Y-59768619D01*
X120329476Y-60784619D02*
X119845666Y-60784619D01*
X119845666Y-59768619D01*
X117620142Y-59768619D02*
X117620142Y-60494333D01*
X117571761Y-60639476D01*
X117475000Y-60736238D01*
X117329857Y-60784619D01*
X117233095Y-60784619D01*
X114644714Y-60784619D02*
X114644714Y-59768619D01*
X114644714Y-60252428D02*
X115225285Y-60252428D01*
X115225285Y-60784619D02*
X115225285Y-59768619D01*
X112540142Y-60252428D02*
X112201476Y-60252428D01*
X112201476Y-60784619D02*
X112201476Y-59768619D01*
X112685285Y-59768619D01*
X109588904Y-60784619D02*
X109588904Y-59768619D01*
X109830809Y-59768619D01*
X109975952Y-59817000D01*
X110072714Y-59913761D01*
X110121095Y-60010523D01*
X110169476Y-60204047D01*
X110169476Y-60349190D01*
X110121095Y-60542714D01*
X110072714Y-60639476D01*
X109975952Y-60736238D01*
X109830809Y-60784619D01*
X109588904Y-60784619D01*
X93024476Y-60784619D02*
X92685809Y-60300809D01*
X92443904Y-60784619D02*
X92443904Y-59768619D01*
X92830952Y-59768619D01*
X92927714Y-59817000D01*
X92976095Y-59865380D01*
X93024476Y-59962142D01*
X93024476Y-60107285D01*
X92976095Y-60204047D01*
X92927714Y-60252428D01*
X92830952Y-60300809D01*
X92443904Y-60300809D01*
X89903904Y-60784619D02*
X89903904Y-59768619D01*
X90290952Y-59768619D01*
X90387714Y-59817000D01*
X90436095Y-59865380D01*
X90484476Y-59962142D01*
X90484476Y-60107285D01*
X90436095Y-60204047D01*
X90387714Y-60252428D01*
X90290952Y-60300809D01*
X89903904Y-60300809D01*
X87339714Y-60784619D02*
X87339714Y-59768619D01*
X87920285Y-60784619D01*
X87920285Y-59768619D01*
X85404476Y-60784619D02*
X84920666Y-60784619D01*
X84920666Y-59768619D01*
X82695142Y-59768619D02*
X82695142Y-60494333D01*
X82646761Y-60639476D01*
X82550000Y-60736238D01*
X82404857Y-60784619D01*
X82308095Y-60784619D01*
X79719714Y-60784619D02*
X79719714Y-59768619D01*
X79719714Y-60252428D02*
X80300285Y-60252428D01*
X80300285Y-60784619D02*
X80300285Y-59768619D01*
X97499714Y-61673619D02*
X98080285Y-61673619D01*
X97790000Y-62689619D02*
X97790000Y-61673619D01*
X97499714Y-69293619D02*
X98080285Y-69293619D01*
X97790000Y-70309619D02*
X97790000Y-69293619D01*
X97499714Y-65181238D02*
X97644857Y-65229619D01*
X97886761Y-65229619D01*
X97983523Y-65181238D01*
X98031904Y-65132857D01*
X98080285Y-65036095D01*
X98080285Y-64939333D01*
X98031904Y-64842571D01*
X97983523Y-64794190D01*
X97886761Y-64745809D01*
X97693238Y-64697428D01*
X97596476Y-64649047D01*
X97548095Y-64600666D01*
X97499714Y-64503904D01*
X97499714Y-64407142D01*
X97548095Y-64310380D01*
X97596476Y-64262000D01*
X97693238Y-64213619D01*
X97935142Y-64213619D01*
X98080285Y-64262000D01*
X97499714Y-72801238D02*
X97644857Y-72849619D01*
X97886761Y-72849619D01*
X97983523Y-72801238D01*
X98031904Y-72752857D01*
X98080285Y-72656095D01*
X98080285Y-72559333D01*
X98031904Y-72462571D01*
X97983523Y-72414190D01*
X97886761Y-72365809D01*
X97693238Y-72317428D01*
X97596476Y-72269047D01*
X97548095Y-72220666D01*
X97499714Y-72123904D01*
X97499714Y-72027142D01*
X97548095Y-71930380D01*
X97596476Y-71882000D01*
X97693238Y-71833619D01*
X97935142Y-71833619D01*
X98080285Y-71882000D01*
X103166333Y-69293619D02*
X103505000Y-70309619D01*
X103843666Y-69293619D01*
X103166333Y-61673619D02*
X103505000Y-62689619D01*
X103843666Y-61673619D01*
X104611714Y-61770380D02*
X104660095Y-61722000D01*
X104756857Y-61673619D01*
X104998761Y-61673619D01*
X105095523Y-61722000D01*
X105143904Y-61770380D01*
X105192285Y-61867142D01*
X105192285Y-61963904D01*
X105143904Y-62109047D01*
X104563333Y-62689619D01*
X105192285Y-62689619D01*
X105966380Y-62157428D02*
X106111523Y-62205809D01*
X106159904Y-62254190D01*
X106208285Y-62350952D01*
X106208285Y-62496095D01*
X106159904Y-62592857D01*
X106111523Y-62641238D01*
X106014761Y-62689619D01*
X105627714Y-62689619D01*
X105627714Y-61673619D01*
X105966380Y-61673619D01*
X106063142Y-61722000D01*
X106111523Y-61770380D01*
X106159904Y-61867142D01*
X106159904Y-61963904D01*
X106111523Y-62060666D01*
X106063142Y-62109047D01*
X105966380Y-62157428D01*
X105627714Y-62157428D01*
X104611714Y-69390380D02*
X104660095Y-69342000D01*
X104756857Y-69293619D01*
X104998761Y-69293619D01*
X105095523Y-69342000D01*
X105143904Y-69390380D01*
X105192285Y-69487142D01*
X105192285Y-69583904D01*
X105143904Y-69729047D01*
X104563333Y-70309619D01*
X105192285Y-70309619D01*
X105966380Y-69777428D02*
X106111523Y-69825809D01*
X106159904Y-69874190D01*
X106208285Y-69970952D01*
X106208285Y-70116095D01*
X106159904Y-70212857D01*
X106111523Y-70261238D01*
X106014761Y-70309619D01*
X105627714Y-70309619D01*
X105627714Y-69293619D01*
X105966380Y-69293619D01*
X106063142Y-69342000D01*
X106111523Y-69390380D01*
X106159904Y-69487142D01*
X106159904Y-69583904D01*
X106111523Y-69680666D01*
X106063142Y-69729047D01*
X105966380Y-69777428D01*
X105627714Y-69777428D01*
X104684285Y-64945380D02*
X104732666Y-64897000D01*
X104829428Y-64848619D01*
X105071333Y-64848619D01*
X105168095Y-64897000D01*
X105216476Y-64945380D01*
X105264857Y-65042142D01*
X105264857Y-65138904D01*
X105216476Y-65284047D01*
X104635904Y-65864619D01*
X105264857Y-65864619D01*
X105651904Y-65574333D02*
X106135714Y-65574333D01*
X105555142Y-65864619D02*
X105893809Y-64848619D01*
X106232476Y-65864619D01*
X104684285Y-71930380D02*
X104732666Y-71882000D01*
X104829428Y-71833619D01*
X105071333Y-71833619D01*
X105168095Y-71882000D01*
X105216476Y-71930380D01*
X105264857Y-72027142D01*
X105264857Y-72123904D01*
X105216476Y-72269047D01*
X104635904Y-72849619D01*
X105264857Y-72849619D01*
X105651904Y-72559333D02*
X106135714Y-72559333D01*
X105555142Y-72849619D02*
X105893809Y-71833619D01*
X106232476Y-72849619D01*
X103214714Y-64848619D02*
X103214714Y-65671095D01*
X103263095Y-65767857D01*
X103311476Y-65816238D01*
X103408238Y-65864619D01*
X103601761Y-65864619D01*
X103698523Y-65816238D01*
X103746904Y-65767857D01*
X103795285Y-65671095D01*
X103795285Y-64848619D01*
X103214714Y-71833619D02*
X103214714Y-72656095D01*
X103263095Y-72752857D01*
X103311476Y-72801238D01*
X103408238Y-72849619D01*
X103601761Y-72849619D01*
X103698523Y-72801238D01*
X103746904Y-72752857D01*
X103795285Y-72656095D01*
X103795285Y-71833619D01*
X75347285Y-65332428D02*
X75685952Y-65332428D01*
X75831095Y-65864619D02*
X75347285Y-65864619D01*
X75347285Y-64848619D01*
X75831095Y-64848619D01*
X75710142Y-62157428D02*
X75371476Y-62157428D01*
X75371476Y-62689619D02*
X75371476Y-61673619D01*
X75855285Y-61673619D01*
X73442285Y-62689619D02*
X72861714Y-62689619D01*
X73152000Y-62689619D02*
X73152000Y-61673619D01*
X73055238Y-61818761D01*
X72958476Y-61915523D01*
X72861714Y-61963904D01*
X73877714Y-62689619D02*
X73877714Y-61673619D01*
X74119619Y-61673619D01*
X74264761Y-61722000D01*
X74361523Y-61818761D01*
X74409904Y-61915523D01*
X74458285Y-62109047D01*
X74458285Y-62254190D01*
X74409904Y-62447714D01*
X74361523Y-62544476D01*
X74264761Y-62641238D01*
X74119619Y-62689619D01*
X73877714Y-62689619D01*
X73442285Y-65864619D02*
X72861714Y-65864619D01*
X73152000Y-65864619D02*
X73152000Y-64848619D01*
X73055238Y-64993761D01*
X72958476Y-65090523D01*
X72861714Y-65138904D01*
X74458285Y-65767857D02*
X74409904Y-65816238D01*
X74264761Y-65864619D01*
X74168000Y-65864619D01*
X74022857Y-65816238D01*
X73926095Y-65719476D01*
X73877714Y-65622714D01*
X73829333Y-65429190D01*
X73829333Y-65284047D01*
X73877714Y-65090523D01*
X73926095Y-64993761D01*
X74022857Y-64897000D01*
X74168000Y-64848619D01*
X74264761Y-64848619D01*
X74409904Y-64897000D01*
X74458285Y-64945380D01*
X75710142Y-69142428D02*
X75371476Y-69142428D01*
X75371476Y-69674619D02*
X75371476Y-68658619D01*
X75855285Y-68658619D01*
X75347285Y-72317428D02*
X75685952Y-72317428D01*
X75831095Y-72849619D02*
X75347285Y-72849619D01*
X75347285Y-71833619D01*
X75831095Y-71833619D01*
X73442285Y-69674619D02*
X72861714Y-69674619D01*
X73152000Y-69674619D02*
X73152000Y-68658619D01*
X73055238Y-68803761D01*
X72958476Y-68900523D01*
X72861714Y-68948904D01*
X73877714Y-69674619D02*
X73877714Y-68658619D01*
X74119619Y-68658619D01*
X74264761Y-68707000D01*
X74361523Y-68803761D01*
X74409904Y-68900523D01*
X74458285Y-69094047D01*
X74458285Y-69239190D01*
X74409904Y-69432714D01*
X74361523Y-69529476D01*
X74264761Y-69626238D01*
X74119619Y-69674619D01*
X73877714Y-69674619D01*
X73442285Y-72849619D02*
X72861714Y-72849619D01*
X73152000Y-72849619D02*
X73152000Y-71833619D01*
X73055238Y-71978761D01*
X72958476Y-72075523D01*
X72861714Y-72123904D01*
X74458285Y-72752857D02*
X74409904Y-72801238D01*
X74264761Y-72849619D01*
X74168000Y-72849619D01*
X74022857Y-72801238D01*
X73926095Y-72704476D01*
X73877714Y-72607714D01*
X73829333Y-72414190D01*
X73829333Y-72269047D01*
X73877714Y-72075523D01*
X73926095Y-71978761D01*
X74022857Y-71882000D01*
X74168000Y-71833619D01*
X74264761Y-71833619D01*
X74409904Y-71882000D01*
X74458285Y-71930380D01*
X65822285Y-69674619D02*
X65241714Y-69674619D01*
X65532000Y-69674619D02*
X65532000Y-68658619D01*
X65435238Y-68803761D01*
X65338476Y-68900523D01*
X65241714Y-68948904D01*
X66596380Y-69142428D02*
X66741523Y-69190809D01*
X66789904Y-69239190D01*
X66838285Y-69335952D01*
X66838285Y-69481095D01*
X66789904Y-69577857D01*
X66741523Y-69626238D01*
X66644761Y-69674619D01*
X66257714Y-69674619D01*
X66257714Y-68658619D01*
X66596380Y-68658619D01*
X66693142Y-68707000D01*
X66741523Y-68755380D01*
X66789904Y-68852142D01*
X66789904Y-68948904D01*
X66741523Y-69045666D01*
X66693142Y-69094047D01*
X66596380Y-69142428D01*
X66257714Y-69142428D01*
X65822285Y-62689619D02*
X65241714Y-62689619D01*
X65532000Y-62689619D02*
X65532000Y-61673619D01*
X65435238Y-61818761D01*
X65338476Y-61915523D01*
X65241714Y-61963904D01*
X66596380Y-62157428D02*
X66741523Y-62205809D01*
X66789904Y-62254190D01*
X66838285Y-62350952D01*
X66838285Y-62496095D01*
X66789904Y-62592857D01*
X66741523Y-62641238D01*
X66644761Y-62689619D01*
X66257714Y-62689619D01*
X66257714Y-61673619D01*
X66596380Y-61673619D01*
X66693142Y-61722000D01*
X66741523Y-61770380D01*
X66789904Y-61867142D01*
X66789904Y-61963904D01*
X66741523Y-62060666D01*
X66693142Y-62109047D01*
X66596380Y-62157428D01*
X66257714Y-62157428D01*
X65894857Y-65229619D02*
X65314285Y-65229619D01*
X65604571Y-65229619D02*
X65604571Y-64213619D01*
X65507809Y-64358761D01*
X65411047Y-64455523D01*
X65314285Y-64503904D01*
X66281904Y-64939333D02*
X66765714Y-64939333D01*
X66185142Y-65229619D02*
X66523809Y-64213619D01*
X66862476Y-65229619D01*
X65894857Y-72849619D02*
X65314285Y-72849619D01*
X65604571Y-72849619D02*
X65604571Y-71833619D01*
X65507809Y-71978761D01*
X65411047Y-72075523D01*
X65314285Y-72123904D01*
X66281904Y-72559333D02*
X66765714Y-72559333D01*
X66185142Y-72849619D02*
X66523809Y-71833619D01*
X66862476Y-72849619D01*
X131233333Y-69293619D02*
X131862285Y-69293619D01*
X131523619Y-69680666D01*
X131668761Y-69680666D01*
X131765523Y-69729047D01*
X131813904Y-69777428D01*
X131862285Y-69874190D01*
X131862285Y-70116095D01*
X131813904Y-70212857D01*
X131765523Y-70261238D01*
X131668761Y-70309619D01*
X131378476Y-70309619D01*
X131281714Y-70261238D01*
X131233333Y-70212857D01*
X132636380Y-69777428D02*
X132781523Y-69825809D01*
X132829904Y-69874190D01*
X132878285Y-69970952D01*
X132878285Y-70116095D01*
X132829904Y-70212857D01*
X132781523Y-70261238D01*
X132684761Y-70309619D01*
X132297714Y-70309619D01*
X132297714Y-69293619D01*
X132636380Y-69293619D01*
X132733142Y-69342000D01*
X132781523Y-69390380D01*
X132829904Y-69487142D01*
X132829904Y-69583904D01*
X132781523Y-69680666D01*
X132733142Y-69729047D01*
X132636380Y-69777428D01*
X132297714Y-69777428D01*
X131305904Y-71833619D02*
X131934857Y-71833619D01*
X131596190Y-72220666D01*
X131741333Y-72220666D01*
X131838095Y-72269047D01*
X131886476Y-72317428D01*
X131934857Y-72414190D01*
X131934857Y-72656095D01*
X131886476Y-72752857D01*
X131838095Y-72801238D01*
X131741333Y-72849619D01*
X131451047Y-72849619D01*
X131354285Y-72801238D01*
X131305904Y-72752857D01*
X132321904Y-72559333D02*
X132805714Y-72559333D01*
X132225142Y-72849619D02*
X132563809Y-71833619D01*
X132902476Y-72849619D01*
D10*
X59782123Y-71968546D02*
X58515457Y-71968546D01*
X58877361Y-71968546D02*
X58696409Y-71901880D01*
X58605933Y-71835213D01*
X58515457Y-71701880D01*
X58515457Y-71568546D01*
X58515457Y-70501880D02*
X59782123Y-70501880D01*
X58515457Y-71101880D02*
X59510695Y-71101880D01*
X59691647Y-71035213D01*
X59782123Y-70901880D01*
X59782123Y-70701880D01*
X59691647Y-70568546D01*
X59601171Y-70501880D01*
X59691647Y-69901880D02*
X59782123Y-69768546D01*
X59782123Y-69501880D01*
X59691647Y-69368546D01*
X59510695Y-69301880D01*
X59420219Y-69301880D01*
X59239266Y-69368546D01*
X59148790Y-69501880D01*
X59148790Y-69701880D01*
X59058314Y-69835213D01*
X58877361Y-69901880D01*
X58786885Y-69901880D01*
X58605933Y-69835213D01*
X58515457Y-69701880D01*
X58515457Y-69501880D01*
X58605933Y-69368546D01*
X58786885Y-68701880D02*
X58786885Y-68235213D01*
X59782123Y-68035213D02*
X59782123Y-68701880D01*
X57882123Y-68701880D01*
X57882123Y-68035213D01*
X58786885Y-66968546D02*
X58786885Y-67435213D01*
X59782123Y-67435213D02*
X57882123Y-67435213D01*
X57882123Y-66768546D01*
X59782123Y-66235213D02*
X57882123Y-66235213D01*
X59782123Y-58101880D02*
X57882123Y-58101880D01*
X58605933Y-58101880D02*
X58515457Y-57968546D01*
X58515457Y-57701880D01*
X58605933Y-57568546D01*
X58696409Y-57501880D01*
X58877361Y-57435213D01*
X59420219Y-57435213D01*
X59601171Y-57501880D01*
X59691647Y-57568546D01*
X59782123Y-57701880D01*
X59782123Y-57968546D01*
X59691647Y-58101880D01*
X58515457Y-56968546D02*
X59782123Y-56635213D01*
X58515457Y-56301880D02*
X59782123Y-56635213D01*
X60234504Y-56768546D01*
X60324980Y-56835213D01*
X60415457Y-56968546D01*
X59601171Y-53901880D02*
X59691647Y-53968546D01*
X59782123Y-54168546D01*
X59782123Y-54301880D01*
X59691647Y-54501880D01*
X59510695Y-54635213D01*
X59329742Y-54701880D01*
X58967838Y-54768546D01*
X58696409Y-54768546D01*
X58334504Y-54701880D01*
X58153552Y-54635213D01*
X57972600Y-54501880D01*
X57882123Y-54301880D01*
X57882123Y-54168546D01*
X57972600Y-53968546D01*
X58063076Y-53901880D01*
X59782123Y-53301880D02*
X58515457Y-53301880D01*
X58877361Y-53301880D02*
X58696409Y-53235213D01*
X58605933Y-53168546D01*
X58515457Y-53035213D01*
X58515457Y-52901880D01*
X59782123Y-51835213D02*
X58786885Y-51835213D01*
X58605933Y-51901880D01*
X58515457Y-52035213D01*
X58515457Y-52301880D01*
X58605933Y-52435213D01*
X59691647Y-51835213D02*
X59782123Y-51968546D01*
X59782123Y-52301880D01*
X59691647Y-52435213D01*
X59510695Y-52501880D01*
X59329742Y-52501880D01*
X59148790Y-52435213D01*
X59058314Y-52301880D01*
X59058314Y-51968546D01*
X58967838Y-51835213D01*
X58515457Y-51301880D02*
X58515457Y-50568546D01*
X59782123Y-51301880D01*
X59782123Y-50568546D01*
X58515457Y-50168546D02*
X59782123Y-49835213D01*
X58515457Y-49501880D02*
X59782123Y-49835213D01*
X60234504Y-49968546D01*
X60324980Y-50035213D01*
X60415457Y-50168546D01*
X59691647Y-49035213D02*
X59782123Y-48835213D01*
X59782123Y-48501880D01*
X59691647Y-48368546D01*
X59601171Y-48301880D01*
X59420219Y-48235213D01*
X59239266Y-48235213D01*
X59058314Y-48301880D01*
X58967838Y-48368546D01*
X58877361Y-48501880D01*
X58786885Y-48768546D01*
X58696409Y-48901880D01*
X58605933Y-48968546D01*
X58424980Y-49035213D01*
X58244028Y-49035213D01*
X58063076Y-48968546D01*
X57972600Y-48901880D01*
X57882123Y-48768546D01*
X57882123Y-48435213D01*
X57972600Y-48235213D01*
X58515457Y-47835213D02*
X58515457Y-47301880D01*
X57882123Y-47635213D02*
X59510695Y-47635213D01*
X59691647Y-47568546D01*
X59782123Y-47435213D01*
X59782123Y-47301880D01*
X59782123Y-46835213D02*
X58515457Y-46835213D01*
X58877361Y-46835213D02*
X58696409Y-46768546D01*
X58605933Y-46701880D01*
X58515457Y-46568546D01*
X58515457Y-46435213D01*
X59782123Y-45968546D02*
X58515457Y-45968546D01*
X57882123Y-45968546D02*
X57972600Y-46035213D01*
X58063076Y-45968546D01*
X57972600Y-45901880D01*
X57882123Y-45968546D01*
X58063076Y-45968546D01*
X59782123Y-45301880D02*
X57882123Y-45301880D01*
X59058314Y-45168546D02*
X59782123Y-44768546D01*
X58515457Y-44768546D02*
X59239266Y-45301880D01*
X59691647Y-43635213D02*
X59782123Y-43768546D01*
X59782123Y-44035213D01*
X59691647Y-44168546D01*
X59510695Y-44235213D01*
X58786885Y-44235213D01*
X58605933Y-44168546D01*
X58515457Y-44035213D01*
X58515457Y-43768546D01*
X58605933Y-43635213D01*
X58786885Y-43568546D01*
X58967838Y-43568546D01*
X59148790Y-44235213D01*
X59782123Y-42968546D02*
X58515457Y-42968546D01*
X58877361Y-42968546D02*
X58696409Y-42901880D01*
X58605933Y-42835213D01*
X58515457Y-42701880D01*
X58515457Y-42568546D01*
X61036923Y-72168546D02*
X62936923Y-71701880D01*
X61036923Y-71235213D01*
X62936923Y-70768546D02*
X61670257Y-70768546D01*
X61036923Y-70768546D02*
X61127400Y-70835213D01*
X61217876Y-70768546D01*
X61127400Y-70701880D01*
X61036923Y-70768546D01*
X61217876Y-70768546D01*
X62846447Y-70168546D02*
X62936923Y-70035213D01*
X62936923Y-69768546D01*
X62846447Y-69635213D01*
X62665495Y-69568546D01*
X62575019Y-69568546D01*
X62394066Y-69635213D01*
X62303590Y-69768546D01*
X62303590Y-69968546D01*
X62213114Y-70101880D01*
X62032161Y-70168546D01*
X61941685Y-70168546D01*
X61760733Y-70101880D01*
X61670257Y-69968546D01*
X61670257Y-69768546D01*
X61760733Y-69635213D01*
X62936923Y-68968546D02*
X61670257Y-68968546D01*
X61036923Y-68968546D02*
X61127400Y-69035213D01*
X61217876Y-68968546D01*
X61127400Y-68901880D01*
X61036923Y-68968546D01*
X61217876Y-68968546D01*
X61670257Y-68501880D02*
X61670257Y-67968546D01*
X61036923Y-68301880D02*
X62665495Y-68301880D01*
X62846447Y-68235213D01*
X62936923Y-68101880D01*
X62936923Y-67968546D01*
X62936923Y-66435213D02*
X61670257Y-66435213D01*
X62032161Y-66435213D02*
X61851209Y-66368546D01*
X61760733Y-66301880D01*
X61670257Y-66168546D01*
X61670257Y-66035213D01*
X61670257Y-64968546D02*
X62936923Y-64968546D01*
X61670257Y-65568546D02*
X62665495Y-65568546D01*
X62846447Y-65501880D01*
X62936923Y-65368546D01*
X62936923Y-65168546D01*
X62846447Y-65035213D01*
X62755971Y-64968546D01*
X62846447Y-64368546D02*
X62936923Y-64235213D01*
X62936923Y-63968546D01*
X62846447Y-63835213D01*
X62665495Y-63768546D01*
X62575019Y-63768546D01*
X62394066Y-63835213D01*
X62303590Y-63968546D01*
X62303590Y-64168546D01*
X62213114Y-64301880D01*
X62032161Y-64368546D01*
X61941685Y-64368546D01*
X61760733Y-64301880D01*
X61670257Y-64168546D01*
X61670257Y-63968546D01*
X61760733Y-63835213D01*
X61941685Y-63168546D02*
X61941685Y-62701880D01*
X62936923Y-62501880D02*
X62936923Y-63168546D01*
X61036923Y-63168546D01*
X61036923Y-62501880D01*
X61941685Y-61435213D02*
X61941685Y-61901880D01*
X62936923Y-61901880D02*
X61036923Y-61901880D01*
X61036923Y-61235213D01*
X62936923Y-60701880D02*
X61036923Y-60701880D01*
X62755971Y-60035213D02*
X62846447Y-59968546D01*
X62936923Y-60035213D01*
X62846447Y-60101880D01*
X62755971Y-60035213D01*
X62936923Y-60035213D01*
X62846447Y-58768546D02*
X62936923Y-58901880D01*
X62936923Y-59168546D01*
X62846447Y-59301880D01*
X62755971Y-59368546D01*
X62575019Y-59435213D01*
X62032161Y-59435213D01*
X61851209Y-59368546D01*
X61760733Y-59301880D01*
X61670257Y-59168546D01*
X61670257Y-58901880D01*
X61760733Y-58768546D01*
X62936923Y-57968546D02*
X62846447Y-58101880D01*
X62755971Y-58168546D01*
X62575019Y-58235213D01*
X62032161Y-58235213D01*
X61851209Y-58168546D01*
X61760733Y-58101880D01*
X61670257Y-57968546D01*
X61670257Y-57768546D01*
X61760733Y-57635213D01*
X61851209Y-57568546D01*
X62032161Y-57501880D01*
X62575019Y-57501880D01*
X62755971Y-57568546D01*
X62846447Y-57635213D01*
X62936923Y-57768546D01*
X62936923Y-57968546D01*
X62936923Y-56901880D02*
X61670257Y-56901880D01*
X61851209Y-56901880D02*
X61760733Y-56835213D01*
X61670257Y-56701880D01*
X61670257Y-56501880D01*
X61760733Y-56368546D01*
X61941685Y-56301880D01*
X62936923Y-56301880D01*
X61941685Y-56301880D02*
X61760733Y-56235213D01*
X61670257Y-56101880D01*
X61670257Y-55901880D01*
X61760733Y-55768546D01*
X61941685Y-55701880D01*
X62936923Y-55701880D01*
D12*
X65872360Y-32285940D02*
X148178520Y-32285940D01*
X65872360Y-32285940D02*
X65872360Y-42285920D01*
X148178520Y-32285940D02*
X148178520Y-42285920D01*
X61473080Y-42285920D02*
X70873620Y-42285920D01*
X61473080Y-50784760D02*
X70873620Y-50784760D01*
X61473080Y-50784760D02*
X61473080Y-42285920D01*
X70873620Y-50784760D02*
X70873620Y-42285920D01*
X97777300Y-50784760D02*
X97777300Y-42285920D01*
X109278420Y-50784760D02*
X97777300Y-50784760D01*
X109278420Y-42285920D02*
X97777300Y-42285920D01*
X109278420Y-42285920D02*
X109278420Y-50784760D01*
X152577800Y-50784760D02*
X143177260Y-50784760D01*
X143177260Y-50784760D02*
X143177260Y-42285920D01*
X143177260Y-42285920D02*
X152577800Y-42285920D01*
X152577800Y-42285920D02*
X152577800Y-50784760D01*
X60166000Y-62230000D02*
G75*
G03X60166000Y-62230000I-2286000J0D01*
G01*
X150876000Y-62230000D02*
G75*
G03X150876000Y-62230000I-2286000J0D01*
G01*
D13*
X133290000Y-70806000D02*
X133290000Y-73466000D01*
X138430000Y-70806000D02*
X133290000Y-70806000D01*
X138430000Y-73466000D02*
X133290000Y-73466000D01*
X138430000Y-70806000D02*
X138430000Y-73466000D01*
X139700000Y-70806000D02*
X141030000Y-70806000D01*
X141030000Y-70806000D02*
X141030000Y-72136000D01*
X141030000Y-68139000D02*
X141030000Y-69469000D01*
X139700000Y-68139000D02*
X141030000Y-68139000D01*
X138430000Y-68139000D02*
X138430000Y-70799000D01*
X138430000Y-70799000D02*
X133290000Y-70799000D01*
X138430000Y-68139000D02*
X133290000Y-68139000D01*
X133290000Y-68139000D02*
X133290000Y-70799000D01*
X108906000Y-73466000D02*
X111566000Y-73466000D01*
X108906000Y-73406000D02*
X108906000Y-73466000D01*
X111566000Y-73406000D02*
X111566000Y-73466000D01*
X108906000Y-73406000D02*
X111566000Y-73406000D01*
X108906000Y-72136000D02*
X108906000Y-70806000D01*
X108906000Y-70806000D02*
X110236000Y-70806000D01*
X106366000Y-73466000D02*
X109026000Y-73466000D01*
X106366000Y-73406000D02*
X106366000Y-73466000D01*
X109026000Y-73406000D02*
X109026000Y-73466000D01*
X106366000Y-73406000D02*
X109026000Y-73406000D01*
X106366000Y-72136000D02*
X106366000Y-70806000D01*
X106366000Y-70806000D02*
X107696000Y-70806000D01*
X108906000Y-68266000D02*
X110236000Y-68266000D01*
X108906000Y-69596000D02*
X108906000Y-68266000D01*
X108906000Y-70866000D02*
X111566000Y-70866000D01*
X111566000Y-70866000D02*
X111566000Y-70926000D01*
X108906000Y-70866000D02*
X108906000Y-70926000D01*
X108906000Y-70926000D02*
X111566000Y-70926000D01*
X106366000Y-70926000D02*
X109026000Y-70926000D01*
X106366000Y-70866000D02*
X106366000Y-70926000D01*
X109026000Y-70866000D02*
X109026000Y-70926000D01*
X106366000Y-70866000D02*
X109026000Y-70866000D01*
X106366000Y-69596000D02*
X106366000Y-68266000D01*
X106366000Y-68266000D02*
X107696000Y-68266000D01*
X100016000Y-73466000D02*
X102676000Y-73466000D01*
X100016000Y-73406000D02*
X100016000Y-73466000D01*
X102676000Y-73406000D02*
X102676000Y-73466000D01*
X100016000Y-73406000D02*
X102676000Y-73406000D01*
X100016000Y-72136000D02*
X100016000Y-70806000D01*
X100016000Y-70806000D02*
X101346000Y-70806000D01*
X100016000Y-68266000D02*
X101346000Y-68266000D01*
X100016000Y-69596000D02*
X100016000Y-68266000D01*
X100016000Y-70866000D02*
X102676000Y-70866000D01*
X102676000Y-70866000D02*
X102676000Y-70926000D01*
X100016000Y-70866000D02*
X100016000Y-70926000D01*
X100016000Y-70926000D02*
X102676000Y-70926000D01*
X70044000Y-70806000D02*
X71374000Y-70806000D01*
X70044000Y-72136000D02*
X70044000Y-70806000D01*
X70044000Y-73406000D02*
X72704000Y-73406000D01*
X72704000Y-73406000D02*
X72704000Y-73466000D01*
X70044000Y-73406000D02*
X70044000Y-73466000D01*
X70044000Y-73466000D02*
X72704000Y-73466000D01*
X67504000Y-73466000D02*
X70164000Y-73466000D01*
X67504000Y-73406000D02*
X67504000Y-73466000D01*
X70164000Y-73406000D02*
X70164000Y-73466000D01*
X67504000Y-73406000D02*
X70164000Y-73406000D01*
X67504000Y-72136000D02*
X67504000Y-70806000D01*
X67504000Y-70806000D02*
X68834000Y-70806000D01*
X70044000Y-70926000D02*
X72704000Y-70926000D01*
X70044000Y-70866000D02*
X70044000Y-70926000D01*
X72704000Y-70866000D02*
X72704000Y-70926000D01*
X70044000Y-70866000D02*
X72704000Y-70866000D01*
X70044000Y-69596000D02*
X70044000Y-68266000D01*
X70044000Y-68266000D02*
X71374000Y-68266000D01*
X67504000Y-68266000D02*
X68834000Y-68266000D01*
X67504000Y-69596000D02*
X67504000Y-68266000D01*
X67504000Y-70866000D02*
X70164000Y-70866000D01*
X70164000Y-70866000D02*
X70164000Y-70926000D01*
X67504000Y-70866000D02*
X67504000Y-70926000D01*
X67504000Y-70926000D02*
X70164000Y-70926000D01*
X141030000Y-63440000D02*
X141030000Y-64770000D01*
X139700000Y-63440000D02*
X141030000Y-63440000D01*
X138430000Y-63440000D02*
X138430000Y-66100000D01*
X138430000Y-66100000D02*
X133290000Y-66100000D01*
X138430000Y-63440000D02*
X133290000Y-63440000D01*
X133290000Y-63440000D02*
X133290000Y-66100000D01*
X133290000Y-60900000D02*
X133290000Y-63560000D01*
X138430000Y-60900000D02*
X133290000Y-60900000D01*
X138430000Y-63560000D02*
X133290000Y-63560000D01*
X138430000Y-60900000D02*
X138430000Y-63560000D01*
X139700000Y-60900000D02*
X141030000Y-60900000D01*
X141030000Y-60900000D02*
X141030000Y-62230000D01*
X108906000Y-63440000D02*
X110236000Y-63440000D01*
X108906000Y-64770000D02*
X108906000Y-63440000D01*
X108906000Y-66040000D02*
X111566000Y-66040000D01*
X111566000Y-66040000D02*
X111566000Y-66100000D01*
X108906000Y-66040000D02*
X108906000Y-66100000D01*
X108906000Y-66100000D02*
X111566000Y-66100000D01*
X106239000Y-63440000D02*
X107569000Y-63440000D01*
X106239000Y-64770000D02*
X106239000Y-63440000D01*
X106239000Y-66040000D02*
X108899000Y-66040000D01*
X108899000Y-66040000D02*
X108899000Y-66100000D01*
X106239000Y-66040000D02*
X106239000Y-66100000D01*
X106239000Y-66100000D02*
X108899000Y-66100000D01*
X108906000Y-60900000D02*
X110236000Y-60900000D01*
X108906000Y-62230000D02*
X108906000Y-60900000D01*
X108906000Y-63500000D02*
X111566000Y-63500000D01*
X111566000Y-63500000D02*
X111566000Y-63560000D01*
X108906000Y-63500000D02*
X108906000Y-63560000D01*
X108906000Y-63560000D02*
X111566000Y-63560000D01*
X106366000Y-63560000D02*
X109026000Y-63560000D01*
X106366000Y-63500000D02*
X106366000Y-63560000D01*
X109026000Y-63500000D02*
X109026000Y-63560000D01*
X106366000Y-63500000D02*
X109026000Y-63500000D01*
X106366000Y-62230000D02*
X106366000Y-60900000D01*
X106366000Y-60900000D02*
X107696000Y-60900000D01*
X100016000Y-66100000D02*
X102676000Y-66100000D01*
X100016000Y-66040000D02*
X100016000Y-66100000D01*
X102676000Y-66040000D02*
X102676000Y-66100000D01*
X100016000Y-66040000D02*
X102676000Y-66040000D01*
X100016000Y-64770000D02*
X100016000Y-63440000D01*
X100016000Y-63440000D02*
X101346000Y-63440000D01*
X100016000Y-60900000D02*
X101346000Y-60900000D01*
X100016000Y-62230000D02*
X100016000Y-60900000D01*
X100016000Y-63500000D02*
X102676000Y-63500000D01*
X102676000Y-63500000D02*
X102676000Y-63560000D01*
X100016000Y-63500000D02*
X100016000Y-63560000D01*
X100016000Y-63560000D02*
X102676000Y-63560000D01*
X70044000Y-66100000D02*
X72704000Y-66100000D01*
X70044000Y-66040000D02*
X70044000Y-66100000D01*
X72704000Y-66040000D02*
X72704000Y-66100000D01*
X70044000Y-66040000D02*
X72704000Y-66040000D01*
X70044000Y-64770000D02*
X70044000Y-63440000D01*
X70044000Y-63440000D02*
X71374000Y-63440000D01*
X67504000Y-63440000D02*
X68834000Y-63440000D01*
X67504000Y-64770000D02*
X67504000Y-63440000D01*
X67504000Y-66040000D02*
X70164000Y-66040000D01*
X70164000Y-66040000D02*
X70164000Y-66100000D01*
X67504000Y-66040000D02*
X67504000Y-66100000D01*
X67504000Y-66100000D02*
X70164000Y-66100000D01*
X70044000Y-60900000D02*
X71374000Y-60900000D01*
X70044000Y-62230000D02*
X70044000Y-60900000D01*
X70044000Y-63500000D02*
X72704000Y-63500000D01*
X72704000Y-63500000D02*
X72704000Y-63560000D01*
X70044000Y-63500000D02*
X70044000Y-63560000D01*
X70044000Y-63560000D02*
X72704000Y-63560000D01*
X67504000Y-63560000D02*
X70164000Y-63560000D01*
X67504000Y-63500000D02*
X67504000Y-63560000D01*
X70164000Y-63500000D02*
X70164000Y-63560000D01*
X67504000Y-63500000D02*
X70164000Y-63500000D01*
X67504000Y-62230000D02*
X67504000Y-60900000D01*
X67504000Y-60900000D02*
X68834000Y-60900000D01*
X111446000Y-70806000D02*
X111446000Y-73466000D01*
X129286000Y-70806000D02*
X111446000Y-70806000D01*
X129286000Y-73466000D02*
X111446000Y-73466000D01*
X129286000Y-70806000D02*
X129286000Y-73466000D01*
X130556000Y-70806000D02*
X131886000Y-70806000D01*
X131886000Y-70806000D02*
X131886000Y-72136000D01*
X131886000Y-68266000D02*
X131886000Y-69596000D01*
X130556000Y-68266000D02*
X131886000Y-68266000D01*
X129286000Y-68266000D02*
X129286000Y-70926000D01*
X129286000Y-70926000D02*
X111446000Y-70926000D01*
X129286000Y-68266000D02*
X111446000Y-68266000D01*
X111446000Y-68266000D02*
X111446000Y-70926000D01*
X76394000Y-63440000D02*
X76394000Y-66100000D01*
X94234000Y-63440000D02*
X76394000Y-63440000D01*
X94234000Y-66100000D02*
X76394000Y-66100000D01*
X94234000Y-63440000D02*
X94234000Y-66100000D01*
X95504000Y-63440000D02*
X96834000Y-63440000D01*
X96834000Y-63440000D02*
X96834000Y-64770000D01*
X96834000Y-60900000D02*
X96834000Y-62230000D01*
X95504000Y-60900000D02*
X96834000Y-60900000D01*
X94234000Y-60900000D02*
X94234000Y-63560000D01*
X94234000Y-63560000D02*
X76394000Y-63560000D01*
X94234000Y-60900000D02*
X76394000Y-60900000D01*
X76394000Y-60900000D02*
X76394000Y-63560000D01*
X131886000Y-63440000D02*
X131886000Y-64770000D01*
X130556000Y-63440000D02*
X131886000Y-63440000D01*
X129286000Y-63440000D02*
X129286000Y-66100000D01*
X129286000Y-66100000D02*
X111446000Y-66100000D01*
X129286000Y-63440000D02*
X111446000Y-63440000D01*
X111446000Y-63440000D02*
X111446000Y-66100000D01*
X111446000Y-60900000D02*
X111446000Y-63560000D01*
X129286000Y-60900000D02*
X111446000Y-60900000D01*
X129286000Y-63560000D02*
X111446000Y-63560000D01*
X129286000Y-60900000D02*
X129286000Y-63560000D01*
X130556000Y-60900000D02*
X131886000Y-60900000D01*
X131886000Y-60900000D02*
X131886000Y-62230000D01*
X96834000Y-70806000D02*
X96834000Y-72136000D01*
X95504000Y-70806000D02*
X96834000Y-70806000D01*
X94234000Y-70806000D02*
X94234000Y-73466000D01*
X94234000Y-73466000D02*
X76394000Y-73466000D01*
X94234000Y-70806000D02*
X76394000Y-70806000D01*
X76394000Y-70806000D02*
X76394000Y-73466000D01*
X76394000Y-68266000D02*
X76394000Y-70926000D01*
X94234000Y-68266000D02*
X76394000Y-68266000D01*
X94234000Y-70926000D02*
X76394000Y-70926000D01*
X94234000Y-68266000D02*
X94234000Y-70926000D01*
X95504000Y-68266000D02*
X96834000Y-68266000D01*
X96834000Y-68266000D02*
X96834000Y-69596000D01*
X145101000Y-71942000D02*
X147761000Y-71942000D01*
X145101000Y-71882000D02*
X145101000Y-71942000D01*
X147761000Y-71882000D02*
X147761000Y-71942000D01*
X145101000Y-71882000D02*
X147761000Y-71882000D01*
X145101000Y-70612000D02*
X145101000Y-69282000D01*
X145101000Y-69282000D02*
X146431000Y-69282000D01*
X146498000Y-54296000D02*
X147828000Y-54296000D01*
X146498000Y-55626000D02*
X146498000Y-54296000D01*
X146498000Y-56896000D02*
X149158000Y-56896000D01*
X149158000Y-56896000D02*
X149158000Y-56956000D01*
X146498000Y-56896000D02*
X146498000Y-56956000D01*
X146498000Y-56956000D02*
X149158000Y-56956000D01*
X101794000Y-54296000D02*
X103124000Y-54296000D01*
X101794000Y-55626000D02*
X101794000Y-54296000D01*
X101794000Y-56896000D02*
X104454000Y-56896000D01*
X104454000Y-56896000D02*
X104454000Y-56956000D01*
X101794000Y-56896000D02*
X101794000Y-56956000D01*
X101794000Y-56956000D02*
X104454000Y-56956000D01*
X65726000Y-56956000D02*
X68386000Y-56956000D01*
X65726000Y-56896000D02*
X65726000Y-56956000D01*
X68386000Y-56896000D02*
X68386000Y-56956000D01*
X65726000Y-56896000D02*
X68386000Y-56896000D01*
X65726000Y-55626000D02*
X65726000Y-54296000D01*
X65726000Y-54296000D02*
X67056000Y-54296000D01*
D14*
X112380809Y-46180428D02*
X112380809Y-47513761D01*
X111904619Y-45418523D02*
X111428428Y-46847095D01*
X112666523Y-46847095D01*
X113714142Y-46370904D02*
X113523666Y-46275666D01*
X113428428Y-46180428D01*
X113333190Y-45989952D01*
X113333190Y-45894714D01*
X113428428Y-45704238D01*
X113523666Y-45609000D01*
X113714142Y-45513761D01*
X114095095Y-45513761D01*
X114285571Y-45609000D01*
X114380809Y-45704238D01*
X114476047Y-45894714D01*
X114476047Y-45989952D01*
X114380809Y-46180428D01*
X114285571Y-46275666D01*
X114095095Y-46370904D01*
X113714142Y-46370904D01*
X113523666Y-46466142D01*
X113428428Y-46561380D01*
X113333190Y-46751857D01*
X113333190Y-47132809D01*
X113428428Y-47323285D01*
X113523666Y-47418523D01*
X113714142Y-47513761D01*
X114095095Y-47513761D01*
X114285571Y-47418523D01*
X114380809Y-47323285D01*
X114476047Y-47132809D01*
X114476047Y-46751857D01*
X114380809Y-46561380D01*
X114285571Y-46466142D01*
X114095095Y-46370904D01*
X116857000Y-47513761D02*
X116857000Y-45513761D01*
X117618904Y-45513761D01*
X117809380Y-45609000D01*
X117904619Y-45704238D01*
X117999857Y-45894714D01*
X117999857Y-46180428D01*
X117904619Y-46370904D01*
X117809380Y-46466142D01*
X117618904Y-46561380D01*
X116857000Y-46561380D01*
X118857000Y-47513761D02*
X118857000Y-45513761D01*
X119809380Y-47513761D02*
X119809380Y-45513761D01*
X120952238Y-47513761D01*
X120952238Y-45513761D01*
X124571285Y-47323285D02*
X124476047Y-47418523D01*
X124190333Y-47513761D01*
X123999857Y-47513761D01*
X123714142Y-47418523D01*
X123523666Y-47228047D01*
X123428428Y-47037571D01*
X123333190Y-46656619D01*
X123333190Y-46370904D01*
X123428428Y-45989952D01*
X123523666Y-45799476D01*
X123714142Y-45609000D01*
X123999857Y-45513761D01*
X124190333Y-45513761D01*
X124476047Y-45609000D01*
X124571285Y-45704238D01*
X125809380Y-45513761D02*
X126190333Y-45513761D01*
X126380809Y-45609000D01*
X126571285Y-45799476D01*
X126666523Y-46180428D01*
X126666523Y-46847095D01*
X126571285Y-47228047D01*
X126380809Y-47418523D01*
X126190333Y-47513761D01*
X125809380Y-47513761D01*
X125618904Y-47418523D01*
X125428428Y-47228047D01*
X125333190Y-46847095D01*
X125333190Y-46180428D01*
X125428428Y-45799476D01*
X125618904Y-45609000D01*
X125809380Y-45513761D01*
X127523666Y-47513761D02*
X127523666Y-45513761D01*
X128666523Y-47513761D01*
X128666523Y-45513761D01*
X129618904Y-47513761D02*
X129618904Y-45513761D01*
X130761761Y-47513761D01*
X130761761Y-45513761D01*
X131714142Y-46466142D02*
X132380809Y-46466142D01*
X132666523Y-47513761D02*
X131714142Y-47513761D01*
X131714142Y-45513761D01*
X132666523Y-45513761D01*
X134666523Y-47323285D02*
X134571285Y-47418523D01*
X134285571Y-47513761D01*
X134095095Y-47513761D01*
X133809380Y-47418523D01*
X133618904Y-47228047D01*
X133523666Y-47037571D01*
X133428428Y-46656619D01*
X133428428Y-46370904D01*
X133523666Y-45989952D01*
X133618904Y-45799476D01*
X133809380Y-45609000D01*
X134095095Y-45513761D01*
X134285571Y-45513761D01*
X134571285Y-45609000D01*
X134666523Y-45704238D01*
X135237952Y-45513761D02*
X136380809Y-45513761D01*
X135809380Y-47513761D02*
X135809380Y-45513761D01*
X137428428Y-45513761D02*
X137809380Y-45513761D01*
X137999857Y-45609000D01*
X138190333Y-45799476D01*
X138285571Y-46180428D01*
X138285571Y-46847095D01*
X138190333Y-47228047D01*
X137999857Y-47418523D01*
X137809380Y-47513761D01*
X137428428Y-47513761D01*
X137237952Y-47418523D01*
X137047476Y-47228047D01*
X136952238Y-46847095D01*
X136952238Y-46180428D01*
X137047476Y-45799476D01*
X137237952Y-45609000D01*
X137428428Y-45513761D01*
X140285571Y-47513761D02*
X139618904Y-46561380D01*
X139142714Y-47513761D02*
X139142714Y-45513761D01*
X139904619Y-45513761D01*
X140095095Y-45609000D01*
X140190333Y-45704238D01*
X140285571Y-45894714D01*
X140285571Y-46180428D01*
X140190333Y-46370904D01*
X140095095Y-46466142D01*
X139904619Y-46561380D01*
X139142714Y-46561380D01*
X75264571Y-47839142D02*
X73550285Y-47839142D01*
X74407428Y-47839142D02*
X74407428Y-44839142D01*
X74121714Y-45267714D01*
X73835999Y-45553428D01*
X73550285Y-45696285D01*
X76264571Y-44839142D02*
X78264571Y-44839142D01*
X76978857Y-47839142D01*
X80693142Y-45839142D02*
X80693142Y-47839142D01*
X79978857Y-44696285D02*
X79264571Y-46839142D01*
X81121714Y-46839142D01*
X82407428Y-47839142D02*
X82978857Y-47839142D01*
X83264571Y-47696285D01*
X83407428Y-47553428D01*
X83693142Y-47124857D01*
X83835999Y-46553428D01*
X83835999Y-45410571D01*
X83693142Y-45124857D01*
X83550285Y-44982000D01*
X83264571Y-44839142D01*
X82693142Y-44839142D01*
X82407428Y-44982000D01*
X82264571Y-45124857D01*
X82121714Y-45410571D01*
X82121714Y-46124857D01*
X82264571Y-46410571D01*
X82407428Y-46553428D01*
X82693142Y-46696285D01*
X83264571Y-46696285D01*
X83550285Y-46553428D01*
X83693142Y-46410571D01*
X83835999Y-46124857D01*
X86693142Y-47839142D02*
X84978857Y-47839142D01*
X85835999Y-47839142D02*
X85835999Y-44839142D01*
X85550285Y-45267714D01*
X85264571Y-45553428D01*
X84978857Y-45696285D01*
X87693142Y-44839142D02*
X89693142Y-44839142D01*
X88407428Y-47839142D01*
X90835999Y-46696285D02*
X93121714Y-46696285D01*
X95836000Y-44839142D02*
X95264571Y-44839142D01*
X94978857Y-44982000D01*
X94836000Y-45124857D01*
X94550285Y-45553428D01*
X94407428Y-46124857D01*
X94407428Y-47267714D01*
X94550285Y-47553428D01*
X94693142Y-47696285D01*
X94978857Y-47839142D01*
X95550285Y-47839142D01*
X95836000Y-47696285D01*
X95978857Y-47553428D01*
X96121714Y-47267714D01*
X96121714Y-46553428D01*
X95978857Y-46267714D01*
X95836000Y-46124857D01*
X95550285Y-45982000D01*
X94978857Y-45982000D01*
X94693142Y-46124857D01*
X94550285Y-46267714D01*
X94407428Y-46553428D01*
X144526095Y-51490619D02*
X144573714Y-51443000D01*
X144668952Y-51395380D01*
X144907047Y-51395380D01*
X145002285Y-51443000D01*
X145049904Y-51490619D01*
X145097523Y-51585857D01*
X145097523Y-51681095D01*
X145049904Y-51823952D01*
X144478476Y-52395380D01*
X145097523Y-52395380D01*
X145430857Y-51395380D02*
X146097523Y-51395380D01*
X145430857Y-52395380D01*
X146097523Y-52395380D01*
X143430714Y-55491619D02*
X143478333Y-55444000D01*
X143573571Y-55396380D01*
X143811666Y-55396380D01*
X143906904Y-55444000D01*
X143954523Y-55491619D01*
X144002142Y-55586857D01*
X144002142Y-55682095D01*
X143954523Y-55824952D01*
X143383095Y-56396380D01*
X144002142Y-56396380D01*
X144621190Y-55920190D02*
X144621190Y-56396380D01*
X144287857Y-55396380D02*
X144621190Y-55920190D01*
X144954523Y-55396380D01*
X139700095Y-51038619D02*
X139747714Y-50991000D01*
X139842952Y-50943380D01*
X140081047Y-50943380D01*
X140176285Y-50991000D01*
X140223904Y-51038619D01*
X140271523Y-51133857D01*
X140271523Y-51229095D01*
X140223904Y-51371952D01*
X139652476Y-51943380D01*
X140271523Y-51943380D01*
X140604857Y-50943380D02*
X141271523Y-51943380D01*
X141271523Y-50943380D02*
X140604857Y-51943380D01*
X139858857Y-55491619D02*
X139906476Y-55444000D01*
X140001714Y-55396380D01*
X140239809Y-55396380D01*
X140335047Y-55444000D01*
X140382666Y-55491619D01*
X140430285Y-55586857D01*
X140430285Y-55682095D01*
X140382666Y-55824952D01*
X139811238Y-56396380D01*
X140430285Y-56396380D01*
X140763619Y-55396380D02*
X141001714Y-56396380D01*
X141192190Y-55682095D01*
X141382666Y-56396380D01*
X141620761Y-55396380D01*
X136572714Y-51038619D02*
X136620333Y-50991000D01*
X136715571Y-50943380D01*
X136953666Y-50943380D01*
X137048904Y-50991000D01*
X137096523Y-51038619D01*
X137144142Y-51133857D01*
X137144142Y-51229095D01*
X137096523Y-51371952D01*
X136525095Y-51943380D01*
X137144142Y-51943380D01*
X137429857Y-50943380D02*
X137763190Y-51943380D01*
X138096523Y-50943380D01*
X136604476Y-55491619D02*
X136652095Y-55444000D01*
X136747333Y-55396380D01*
X136985428Y-55396380D01*
X137080666Y-55444000D01*
X137128285Y-55491619D01*
X137175904Y-55586857D01*
X137175904Y-55682095D01*
X137128285Y-55824952D01*
X136556857Y-56396380D01*
X137175904Y-56396380D01*
X137604476Y-55396380D02*
X137604476Y-56205904D01*
X137652095Y-56301142D01*
X137699714Y-56348761D01*
X137794952Y-56396380D01*
X137985428Y-56396380D01*
X138080666Y-56348761D01*
X138128285Y-56301142D01*
X138175904Y-56205904D01*
X138175904Y-55396380D01*
X133572333Y-51038619D02*
X133619952Y-50991000D01*
X133715190Y-50943380D01*
X133953285Y-50943380D01*
X134048523Y-50991000D01*
X134096142Y-51038619D01*
X134143761Y-51133857D01*
X134143761Y-51229095D01*
X134096142Y-51371952D01*
X133524714Y-51943380D01*
X134143761Y-51943380D01*
X134429476Y-50943380D02*
X135000904Y-50943380D01*
X134715190Y-51943380D02*
X134715190Y-50943380D01*
X133350095Y-55491619D02*
X133397714Y-55444000D01*
X133492952Y-55396380D01*
X133731047Y-55396380D01*
X133826285Y-55444000D01*
X133873904Y-55491619D01*
X133921523Y-55586857D01*
X133921523Y-55682095D01*
X133873904Y-55824952D01*
X133302476Y-56396380D01*
X133921523Y-56396380D01*
X134302476Y-56348761D02*
X134445333Y-56396380D01*
X134683428Y-56396380D01*
X134778666Y-56348761D01*
X134826285Y-56301142D01*
X134873904Y-56205904D01*
X134873904Y-56110666D01*
X134826285Y-56015428D01*
X134778666Y-55967809D01*
X134683428Y-55920190D01*
X134492952Y-55872571D01*
X134397714Y-55824952D01*
X134350095Y-55777333D01*
X134302476Y-55682095D01*
X134302476Y-55586857D01*
X134350095Y-55491619D01*
X134397714Y-55444000D01*
X134492952Y-55396380D01*
X134731047Y-55396380D01*
X134873904Y-55444000D01*
X130405285Y-51038619D02*
X130452904Y-50991000D01*
X130548142Y-50943380D01*
X130786238Y-50943380D01*
X130881476Y-50991000D01*
X130929095Y-51038619D01*
X130976714Y-51133857D01*
X130976714Y-51229095D01*
X130929095Y-51371952D01*
X130357666Y-51943380D01*
X130976714Y-51943380D01*
X131976714Y-51943380D02*
X131643380Y-51467190D01*
X131405285Y-51943380D02*
X131405285Y-50943380D01*
X131786238Y-50943380D01*
X131881476Y-50991000D01*
X131929095Y-51038619D01*
X131976714Y-51133857D01*
X131976714Y-51276714D01*
X131929095Y-51371952D01*
X131881476Y-51419571D01*
X131786238Y-51467190D01*
X131405285Y-51467190D01*
X130381476Y-55491619D02*
X130429095Y-55444000D01*
X130524333Y-55396380D01*
X130762428Y-55396380D01*
X130857666Y-55444000D01*
X130905285Y-55491619D01*
X130952904Y-55586857D01*
X130952904Y-55682095D01*
X130905285Y-55824952D01*
X130333857Y-56396380D01*
X130952904Y-56396380D01*
X132048142Y-56491619D02*
X131952904Y-56444000D01*
X131857666Y-56348761D01*
X131714809Y-56205904D01*
X131619571Y-56158285D01*
X131524333Y-56158285D01*
X131571952Y-56396380D02*
X131476714Y-56348761D01*
X131381476Y-56253523D01*
X131333857Y-56063047D01*
X131333857Y-55729714D01*
X131381476Y-55539238D01*
X131476714Y-55444000D01*
X131571952Y-55396380D01*
X131762428Y-55396380D01*
X131857666Y-55444000D01*
X131952904Y-55539238D01*
X132000523Y-55729714D01*
X132000523Y-56063047D01*
X131952904Y-56253523D01*
X131857666Y-56348761D01*
X131762428Y-56396380D01*
X131571952Y-56396380D01*
X127103285Y-51038619D02*
X127150904Y-50991000D01*
X127246142Y-50943380D01*
X127484238Y-50943380D01*
X127579476Y-50991000D01*
X127627095Y-51038619D01*
X127674714Y-51133857D01*
X127674714Y-51229095D01*
X127627095Y-51371952D01*
X127055666Y-51943380D01*
X127674714Y-51943380D01*
X128103285Y-51943380D02*
X128103285Y-50943380D01*
X128484238Y-50943380D01*
X128579476Y-50991000D01*
X128627095Y-51038619D01*
X128674714Y-51133857D01*
X128674714Y-51276714D01*
X128627095Y-51371952D01*
X128579476Y-51419571D01*
X128484238Y-51467190D01*
X128103285Y-51467190D01*
X127460476Y-55491619D02*
X127508095Y-55444000D01*
X127603333Y-55396380D01*
X127841428Y-55396380D01*
X127936666Y-55444000D01*
X127984285Y-55491619D01*
X128031904Y-55586857D01*
X128031904Y-55682095D01*
X127984285Y-55824952D01*
X127412857Y-56396380D01*
X128031904Y-56396380D01*
X128650952Y-55396380D02*
X128841428Y-55396380D01*
X128936666Y-55444000D01*
X129031904Y-55539238D01*
X129079523Y-55729714D01*
X129079523Y-56063047D01*
X129031904Y-56253523D01*
X128936666Y-56348761D01*
X128841428Y-56396380D01*
X128650952Y-56396380D01*
X128555714Y-56348761D01*
X128460476Y-56253523D01*
X128412857Y-56063047D01*
X128412857Y-55729714D01*
X128460476Y-55539238D01*
X128555714Y-55444000D01*
X128650952Y-55396380D01*
X124412476Y-51038619D02*
X124460095Y-50991000D01*
X124555333Y-50943380D01*
X124793428Y-50943380D01*
X124888666Y-50991000D01*
X124936285Y-51038619D01*
X124983904Y-51133857D01*
X124983904Y-51229095D01*
X124936285Y-51371952D01*
X124364857Y-51943380D01*
X124983904Y-51943380D01*
X125412476Y-51943380D02*
X125412476Y-50943380D01*
X125983904Y-51943380D01*
X125983904Y-50943380D01*
X124364857Y-55491619D02*
X124412476Y-55444000D01*
X124507714Y-55396380D01*
X124745809Y-55396380D01*
X124841047Y-55444000D01*
X124888666Y-55491619D01*
X124936285Y-55586857D01*
X124936285Y-55682095D01*
X124888666Y-55824952D01*
X124317238Y-56396380D01*
X124936285Y-56396380D01*
X125364857Y-56396380D02*
X125364857Y-55396380D01*
X125698190Y-56110666D01*
X126031523Y-55396380D01*
X126031523Y-56396380D01*
X121483523Y-51038619D02*
X121531142Y-50991000D01*
X121626380Y-50943380D01*
X121864476Y-50943380D01*
X121959714Y-50991000D01*
X122007333Y-51038619D01*
X122054952Y-51133857D01*
X122054952Y-51229095D01*
X122007333Y-51371952D01*
X121435904Y-51943380D01*
X122054952Y-51943380D01*
X122959714Y-51943380D02*
X122483523Y-51943380D01*
X122483523Y-50943380D01*
X121642285Y-55491619D02*
X121689904Y-55444000D01*
X121785142Y-55396380D01*
X122023238Y-55396380D01*
X122118476Y-55444000D01*
X122166095Y-55491619D01*
X122213714Y-55586857D01*
X122213714Y-55682095D01*
X122166095Y-55824952D01*
X121594666Y-56396380D01*
X122213714Y-56396380D01*
X122642285Y-56396380D02*
X122642285Y-55396380D01*
X123213714Y-56396380D02*
X122785142Y-55824952D01*
X123213714Y-55396380D02*
X122642285Y-55967809D01*
X118459333Y-51038619D02*
X118506952Y-50991000D01*
X118602190Y-50943380D01*
X118840285Y-50943380D01*
X118935523Y-50991000D01*
X118983142Y-51038619D01*
X119030761Y-51133857D01*
X119030761Y-51229095D01*
X118983142Y-51371952D01*
X118411714Y-51943380D01*
X119030761Y-51943380D01*
X119745047Y-50943380D02*
X119745047Y-51657666D01*
X119697428Y-51800523D01*
X119602190Y-51895761D01*
X119459333Y-51943380D01*
X119364095Y-51943380D01*
X118729190Y-55491619D02*
X118776809Y-55444000D01*
X118872047Y-55396380D01*
X119110142Y-55396380D01*
X119205380Y-55444000D01*
X119253000Y-55491619D01*
X119300619Y-55586857D01*
X119300619Y-55682095D01*
X119253000Y-55824952D01*
X118681571Y-56396380D01*
X119300619Y-56396380D01*
X119729190Y-56396380D02*
X119729190Y-55396380D01*
X115522476Y-51038619D02*
X115570095Y-50991000D01*
X115665333Y-50943380D01*
X115903428Y-50943380D01*
X115998666Y-50991000D01*
X116046285Y-51038619D01*
X116093904Y-51133857D01*
X116093904Y-51229095D01*
X116046285Y-51371952D01*
X115474857Y-51943380D01*
X116093904Y-51943380D01*
X116522476Y-51943380D02*
X116522476Y-50943380D01*
X116522476Y-51419571D02*
X117093904Y-51419571D01*
X117093904Y-51943380D02*
X117093904Y-50943380D01*
X115419285Y-55491619D02*
X115466904Y-55444000D01*
X115562142Y-55396380D01*
X115800238Y-55396380D01*
X115895476Y-55444000D01*
X115943095Y-55491619D01*
X115990714Y-55586857D01*
X115990714Y-55682095D01*
X115943095Y-55824952D01*
X115371666Y-56396380D01*
X115990714Y-56396380D01*
X116943095Y-55444000D02*
X116847857Y-55396380D01*
X116705000Y-55396380D01*
X116562142Y-55444000D01*
X116466904Y-55539238D01*
X116419285Y-55634476D01*
X116371666Y-55824952D01*
X116371666Y-55967809D01*
X116419285Y-56158285D01*
X116466904Y-56253523D01*
X116562142Y-56348761D01*
X116705000Y-56396380D01*
X116800238Y-56396380D01*
X116943095Y-56348761D01*
X116990714Y-56301142D01*
X116990714Y-55967809D01*
X116800238Y-55967809D01*
X112442714Y-51038619D02*
X112490333Y-50991000D01*
X112585571Y-50943380D01*
X112823666Y-50943380D01*
X112918904Y-50991000D01*
X112966523Y-51038619D01*
X113014142Y-51133857D01*
X113014142Y-51229095D01*
X112966523Y-51371952D01*
X112395095Y-51943380D01*
X113014142Y-51943380D01*
X113776047Y-51419571D02*
X113442714Y-51419571D01*
X113442714Y-51943380D02*
X113442714Y-50943380D01*
X113918904Y-50943380D01*
X112672904Y-55491619D02*
X112720523Y-55444000D01*
X112815761Y-55396380D01*
X113053857Y-55396380D01*
X113149095Y-55444000D01*
X113196714Y-55491619D01*
X113244333Y-55586857D01*
X113244333Y-55682095D01*
X113196714Y-55824952D01*
X112625285Y-56396380D01*
X113244333Y-56396380D01*
X113672904Y-55872571D02*
X114006238Y-55872571D01*
X114149095Y-56396380D02*
X113672904Y-56396380D01*
X113672904Y-55396380D01*
X114149095Y-55396380D01*
X109577285Y-51038619D02*
X109624904Y-50991000D01*
X109720142Y-50943380D01*
X109958238Y-50943380D01*
X110053476Y-50991000D01*
X110101095Y-51038619D01*
X110148714Y-51133857D01*
X110148714Y-51229095D01*
X110101095Y-51371952D01*
X109529666Y-51943380D01*
X110148714Y-51943380D01*
X110577285Y-51943380D02*
X110577285Y-50943380D01*
X110815380Y-50943380D01*
X110958238Y-50991000D01*
X111053476Y-51086238D01*
X111101095Y-51181476D01*
X111148714Y-51371952D01*
X111148714Y-51514809D01*
X111101095Y-51705285D01*
X111053476Y-51800523D01*
X110958238Y-51895761D01*
X110815380Y-51943380D01*
X110577285Y-51943380D01*
X109196285Y-55491619D02*
X109243904Y-55444000D01*
X109339142Y-55396380D01*
X109577238Y-55396380D01*
X109672476Y-55444000D01*
X109720095Y-55491619D01*
X109767714Y-55586857D01*
X109767714Y-55682095D01*
X109720095Y-55824952D01*
X109148666Y-56396380D01*
X109767714Y-56396380D01*
X110767714Y-56301142D02*
X110720095Y-56348761D01*
X110577238Y-56396380D01*
X110482000Y-56396380D01*
X110339142Y-56348761D01*
X110243904Y-56253523D01*
X110196285Y-56158285D01*
X110148666Y-55967809D01*
X110148666Y-55824952D01*
X110196285Y-55634476D01*
X110243904Y-55539238D01*
X110339142Y-55444000D01*
X110482000Y-55396380D01*
X110577238Y-55396380D01*
X110720095Y-55444000D01*
X110767714Y-55491619D01*
X105005285Y-51363619D02*
X105052904Y-51316000D01*
X105148142Y-51268380D01*
X105386238Y-51268380D01*
X105481476Y-51316000D01*
X105529095Y-51363619D01*
X105576714Y-51458857D01*
X105576714Y-51554095D01*
X105529095Y-51696952D01*
X104957666Y-52268380D01*
X105576714Y-52268380D01*
X106338619Y-51744571D02*
X106481476Y-51792190D01*
X106529095Y-51839809D01*
X106576714Y-51935047D01*
X106576714Y-52077904D01*
X106529095Y-52173142D01*
X106481476Y-52220761D01*
X106386238Y-52268380D01*
X106005285Y-52268380D01*
X106005285Y-51268380D01*
X106338619Y-51268380D01*
X106433857Y-51316000D01*
X106481476Y-51363619D01*
X106529095Y-51458857D01*
X106529095Y-51554095D01*
X106481476Y-51649333D01*
X106433857Y-51696952D01*
X106338619Y-51744571D01*
X106005285Y-51744571D01*
X105838714Y-55491619D02*
X105886333Y-55444000D01*
X105981571Y-55396380D01*
X106219666Y-55396380D01*
X106314904Y-55444000D01*
X106362523Y-55491619D01*
X106410142Y-55586857D01*
X106410142Y-55682095D01*
X106362523Y-55824952D01*
X105791095Y-56396380D01*
X106410142Y-56396380D01*
X106791095Y-56110666D02*
X107267285Y-56110666D01*
X106695857Y-56396380D02*
X107029190Y-55396380D01*
X107362523Y-56396380D01*
X100695142Y-52141380D02*
X100123714Y-52141380D01*
X100409428Y-52141380D02*
X100409428Y-51141380D01*
X100314190Y-51284238D01*
X100218952Y-51379476D01*
X100123714Y-51427095D01*
X100980857Y-51141380D02*
X101314190Y-52141380D01*
X101647523Y-51141380D01*
X100091904Y-56396380D02*
X99520476Y-56396380D01*
X99806190Y-56396380D02*
X99806190Y-55396380D01*
X99710952Y-55539238D01*
X99615714Y-55634476D01*
X99520476Y-55682095D01*
X100520476Y-55396380D02*
X100520476Y-56205904D01*
X100568095Y-56301142D01*
X100615714Y-56348761D01*
X100710952Y-56396380D01*
X100901428Y-56396380D01*
X100996666Y-56348761D01*
X101044285Y-56301142D01*
X101091904Y-56205904D01*
X101091904Y-55396380D01*
X96551761Y-51760380D02*
X95980333Y-51760380D01*
X96266047Y-51760380D02*
X96266047Y-50760380D01*
X96170809Y-50903238D01*
X96075571Y-50998476D01*
X95980333Y-51046095D01*
X96837476Y-50760380D02*
X97408904Y-50760380D01*
X97123190Y-51760380D02*
X97123190Y-50760380D01*
X97218523Y-56396380D02*
X96647095Y-56396380D01*
X96932809Y-56396380D02*
X96932809Y-55396380D01*
X96837571Y-55539238D01*
X96742333Y-55634476D01*
X96647095Y-55682095D01*
X97599476Y-56348761D02*
X97742333Y-56396380D01*
X97980428Y-56396380D01*
X98075666Y-56348761D01*
X98123285Y-56301142D01*
X98170904Y-56205904D01*
X98170904Y-56110666D01*
X98123285Y-56015428D01*
X98075666Y-55967809D01*
X97980428Y-55920190D01*
X97789952Y-55872571D01*
X97694714Y-55824952D01*
X97647095Y-55777333D01*
X97599476Y-55682095D01*
X97599476Y-55586857D01*
X97647095Y-55491619D01*
X97694714Y-55444000D01*
X97789952Y-55396380D01*
X98028047Y-55396380D01*
X98170904Y-55444000D01*
X94019714Y-51943380D02*
X93448285Y-51943380D01*
X93734000Y-51943380D02*
X93734000Y-50943380D01*
X93638761Y-51086238D01*
X93543523Y-51181476D01*
X93448285Y-51229095D01*
X95019714Y-51943380D02*
X94686380Y-51467190D01*
X94448285Y-51943380D02*
X94448285Y-50943380D01*
X94829238Y-50943380D01*
X94924476Y-50991000D01*
X94972095Y-51038619D01*
X95019714Y-51133857D01*
X95019714Y-51276714D01*
X94972095Y-51371952D01*
X94924476Y-51419571D01*
X94829238Y-51467190D01*
X94448285Y-51467190D01*
X94122904Y-56396380D02*
X93551476Y-56396380D01*
X93837190Y-56396380D02*
X93837190Y-55396380D01*
X93741952Y-55539238D01*
X93646714Y-55634476D01*
X93551476Y-55682095D01*
X95218142Y-56491619D02*
X95122904Y-56444000D01*
X95027666Y-56348761D01*
X94884809Y-56205904D01*
X94789571Y-56158285D01*
X94694333Y-56158285D01*
X94741952Y-56396380D02*
X94646714Y-56348761D01*
X94551476Y-56253523D01*
X94503857Y-56063047D01*
X94503857Y-55729714D01*
X94551476Y-55539238D01*
X94646714Y-55444000D01*
X94741952Y-55396380D01*
X94932428Y-55396380D01*
X95027666Y-55444000D01*
X95122904Y-55539238D01*
X95170523Y-55729714D01*
X95170523Y-56063047D01*
X95122904Y-56253523D01*
X95027666Y-56348761D01*
X94932428Y-56396380D01*
X94741952Y-56396380D01*
X91098714Y-51943380D02*
X90527285Y-51943380D01*
X90813000Y-51943380D02*
X90813000Y-50943380D01*
X90717761Y-51086238D01*
X90622523Y-51181476D01*
X90527285Y-51229095D01*
X91527285Y-51943380D02*
X91527285Y-50943380D01*
X91908238Y-50943380D01*
X92003476Y-50991000D01*
X92051095Y-51038619D01*
X92098714Y-51133857D01*
X92098714Y-51276714D01*
X92051095Y-51371952D01*
X92003476Y-51419571D01*
X91908238Y-51467190D01*
X91527285Y-51467190D01*
X91074904Y-56396380D02*
X90503476Y-56396380D01*
X90789190Y-56396380D02*
X90789190Y-55396380D01*
X90693952Y-55539238D01*
X90598714Y-55634476D01*
X90503476Y-55682095D01*
X91693952Y-55396380D02*
X91884428Y-55396380D01*
X91979666Y-55444000D01*
X92074904Y-55539238D01*
X92122523Y-55729714D01*
X92122523Y-56063047D01*
X92074904Y-56253523D01*
X91979666Y-56348761D01*
X91884428Y-56396380D01*
X91693952Y-56396380D01*
X91598714Y-56348761D01*
X91503476Y-56253523D01*
X91455857Y-56063047D01*
X91455857Y-55729714D01*
X91503476Y-55539238D01*
X91598714Y-55444000D01*
X91693952Y-55396380D01*
X88026904Y-51943380D02*
X87455476Y-51943380D01*
X87741190Y-51943380D02*
X87741190Y-50943380D01*
X87645952Y-51086238D01*
X87550714Y-51181476D01*
X87455476Y-51229095D01*
X88455476Y-51943380D02*
X88455476Y-50943380D01*
X89026904Y-51943380D01*
X89026904Y-50943380D01*
X87979285Y-56396380D02*
X87407857Y-56396380D01*
X87693571Y-56396380D02*
X87693571Y-55396380D01*
X87598333Y-55539238D01*
X87503095Y-55634476D01*
X87407857Y-55682095D01*
X88407857Y-56396380D02*
X88407857Y-55396380D01*
X88741190Y-56110666D01*
X89074523Y-55396380D01*
X89074523Y-56396380D01*
X85097952Y-51943380D02*
X84526523Y-51943380D01*
X84812238Y-51943380D02*
X84812238Y-50943380D01*
X84717000Y-51086238D01*
X84621761Y-51181476D01*
X84526523Y-51229095D01*
X86002714Y-51943380D02*
X85526523Y-51943380D01*
X85526523Y-50943380D01*
X85002714Y-56396380D02*
X84431285Y-56396380D01*
X84717000Y-56396380D02*
X84717000Y-55396380D01*
X84621761Y-55539238D01*
X84526523Y-55634476D01*
X84431285Y-55682095D01*
X85431285Y-56396380D02*
X85431285Y-55396380D01*
X86002714Y-56396380D02*
X85574142Y-55824952D01*
X86002714Y-55396380D02*
X85431285Y-55967809D01*
X82200761Y-51943380D02*
X81629333Y-51943380D01*
X81915047Y-51943380D02*
X81915047Y-50943380D01*
X81819809Y-51086238D01*
X81724571Y-51181476D01*
X81629333Y-51229095D01*
X82915047Y-50943380D02*
X82915047Y-51657666D01*
X82867428Y-51800523D01*
X82772190Y-51895761D01*
X82629333Y-51943380D01*
X82534095Y-51943380D01*
X82089619Y-56396380D02*
X81518190Y-56396380D01*
X81803904Y-56396380D02*
X81803904Y-55396380D01*
X81708666Y-55539238D01*
X81613428Y-55634476D01*
X81518190Y-55682095D01*
X82518190Y-56396380D02*
X82518190Y-55396380D01*
X78882904Y-51943380D02*
X78311476Y-51943380D01*
X78597190Y-51943380D02*
X78597190Y-50943380D01*
X78501952Y-51086238D01*
X78406714Y-51181476D01*
X78311476Y-51229095D01*
X79311476Y-51943380D02*
X79311476Y-50943380D01*
X79311476Y-51419571D02*
X79882904Y-51419571D01*
X79882904Y-51943380D02*
X79882904Y-50943380D01*
X79033714Y-56396380D02*
X78462285Y-56396380D01*
X78748000Y-56396380D02*
X78748000Y-55396380D01*
X78652761Y-55539238D01*
X78557523Y-55634476D01*
X78462285Y-55682095D01*
X79986095Y-55444000D02*
X79890857Y-55396380D01*
X79748000Y-55396380D01*
X79605142Y-55444000D01*
X79509904Y-55539238D01*
X79462285Y-55634476D01*
X79414666Y-55824952D01*
X79414666Y-55967809D01*
X79462285Y-56158285D01*
X79509904Y-56253523D01*
X79605142Y-56348761D01*
X79748000Y-56396380D01*
X79843238Y-56396380D01*
X79986095Y-56348761D01*
X80033714Y-56301142D01*
X80033714Y-55967809D01*
X79843238Y-55967809D01*
X76057142Y-51943380D02*
X75485714Y-51943380D01*
X75771428Y-51943380D02*
X75771428Y-50943380D01*
X75676190Y-51086238D01*
X75580952Y-51181476D01*
X75485714Y-51229095D01*
X76819047Y-51419571D02*
X76485714Y-51419571D01*
X76485714Y-51943380D02*
X76485714Y-50943380D01*
X76961904Y-50943380D01*
X76160333Y-56396380D02*
X75588904Y-56396380D01*
X75874619Y-56396380D02*
X75874619Y-55396380D01*
X75779380Y-55539238D01*
X75684142Y-55634476D01*
X75588904Y-55682095D01*
X76588904Y-55872571D02*
X76922238Y-55872571D01*
X77065095Y-56396380D02*
X76588904Y-56396380D01*
X76588904Y-55396380D01*
X77065095Y-55396380D01*
X73064714Y-51943380D02*
X72493285Y-51943380D01*
X72779000Y-51943380D02*
X72779000Y-50943380D01*
X72683761Y-51086238D01*
X72588523Y-51181476D01*
X72493285Y-51229095D01*
X73493285Y-51943380D02*
X73493285Y-50943380D01*
X73731380Y-50943380D01*
X73874238Y-50991000D01*
X73969476Y-51086238D01*
X74017095Y-51181476D01*
X74064714Y-51371952D01*
X74064714Y-51514809D01*
X74017095Y-51705285D01*
X73969476Y-51800523D01*
X73874238Y-51895761D01*
X73731380Y-51943380D01*
X73493285Y-51943380D01*
X73064714Y-56396380D02*
X72493285Y-56396380D01*
X72779000Y-56396380D02*
X72779000Y-55396380D01*
X72683761Y-55539238D01*
X72588523Y-55634476D01*
X72493285Y-55682095D01*
X74064714Y-56301142D02*
X74017095Y-56348761D01*
X73874238Y-56396380D01*
X73779000Y-56396380D01*
X73636142Y-56348761D01*
X73540904Y-56253523D01*
X73493285Y-56158285D01*
X73445666Y-55967809D01*
X73445666Y-55824952D01*
X73493285Y-55634476D01*
X73540904Y-55539238D01*
X73636142Y-55444000D01*
X73779000Y-55396380D01*
X73874238Y-55396380D01*
X74017095Y-55444000D01*
X74064714Y-55491619D01*
X68365714Y-52268380D02*
X67794285Y-52268380D01*
X68080000Y-52268380D02*
X68080000Y-51268380D01*
X67984761Y-51411238D01*
X67889523Y-51506476D01*
X67794285Y-51554095D01*
X69127619Y-51744571D02*
X69270476Y-51792190D01*
X69318095Y-51839809D01*
X69365714Y-51935047D01*
X69365714Y-52077904D01*
X69318095Y-52173142D01*
X69270476Y-52220761D01*
X69175238Y-52268380D01*
X68794285Y-52268380D01*
X68794285Y-51268380D01*
X69127619Y-51268380D01*
X69222857Y-51316000D01*
X69270476Y-51363619D01*
X69318095Y-51458857D01*
X69318095Y-51554095D01*
X69270476Y-51649333D01*
X69222857Y-51696952D01*
X69127619Y-51744571D01*
X68794285Y-51744571D01*
X69453142Y-56459380D02*
X68881714Y-56459380D01*
X69167428Y-56459380D02*
X69167428Y-55459380D01*
X69072190Y-55602238D01*
X68976952Y-55697476D01*
X68881714Y-55745095D01*
X69834095Y-56173666D02*
X70310285Y-56173666D01*
X69738857Y-56459380D02*
X70072190Y-55459380D01*
X70405523Y-56459380D01*
X142482380Y-72874095D02*
X141482380Y-72874095D01*
X141482380Y-72493142D01*
X141530000Y-72397904D01*
X141577619Y-72350285D01*
X141672857Y-72302666D01*
X141815714Y-72302666D01*
X141910952Y-72350285D01*
X141958571Y-72397904D01*
X142006190Y-72493142D01*
X142006190Y-72874095D01*
X142482380Y-71350285D02*
X142482380Y-71921714D01*
X142482380Y-71636000D02*
X141482380Y-71636000D01*
X141625238Y-71731238D01*
X141720476Y-71826476D01*
X141768095Y-71921714D01*
X142482380Y-70207095D02*
X141482380Y-70207095D01*
X141482380Y-69826142D01*
X141530000Y-69730904D01*
X141577619Y-69683285D01*
X141672857Y-69635666D01*
X141815714Y-69635666D01*
X141910952Y-69683285D01*
X141958571Y-69730904D01*
X142006190Y-69826142D01*
X142006190Y-70207095D01*
X141577619Y-69254714D02*
X141530000Y-69207095D01*
X141482380Y-69111857D01*
X141482380Y-68873761D01*
X141530000Y-68778523D01*
X141577619Y-68730904D01*
X141672857Y-68683285D01*
X141768095Y-68683285D01*
X141910952Y-68730904D01*
X142482380Y-69302333D01*
X142482380Y-68683285D01*
X109497904Y-70258380D02*
X109497904Y-69258380D01*
X109878857Y-69258380D01*
X109974095Y-69306000D01*
X110021714Y-69353619D01*
X110069333Y-69448857D01*
X110069333Y-69591714D01*
X110021714Y-69686952D01*
X109974095Y-69734571D01*
X109878857Y-69782190D01*
X109497904Y-69782190D01*
X110402666Y-69258380D02*
X111021714Y-69258380D01*
X110688380Y-69639333D01*
X110831238Y-69639333D01*
X110926476Y-69686952D01*
X110974095Y-69734571D01*
X111021714Y-69829809D01*
X111021714Y-70067904D01*
X110974095Y-70163142D01*
X110926476Y-70210761D01*
X110831238Y-70258380D01*
X110545523Y-70258380D01*
X110450285Y-70210761D01*
X110402666Y-70163142D01*
X106957904Y-70258380D02*
X106957904Y-69258380D01*
X107338857Y-69258380D01*
X107434095Y-69306000D01*
X107481714Y-69353619D01*
X107529333Y-69448857D01*
X107529333Y-69591714D01*
X107481714Y-69686952D01*
X107434095Y-69734571D01*
X107338857Y-69782190D01*
X106957904Y-69782190D01*
X108386476Y-69591714D02*
X108386476Y-70258380D01*
X108148380Y-69210761D02*
X107910285Y-69925047D01*
X108529333Y-69925047D01*
X109497904Y-67718380D02*
X109497904Y-66718380D01*
X109878857Y-66718380D01*
X109974095Y-66766000D01*
X110021714Y-66813619D01*
X110069333Y-66908857D01*
X110069333Y-67051714D01*
X110021714Y-67146952D01*
X109974095Y-67194571D01*
X109878857Y-67242190D01*
X109497904Y-67242190D01*
X110974095Y-66718380D02*
X110497904Y-66718380D01*
X110450285Y-67194571D01*
X110497904Y-67146952D01*
X110593142Y-67099333D01*
X110831238Y-67099333D01*
X110926476Y-67146952D01*
X110974095Y-67194571D01*
X111021714Y-67289809D01*
X111021714Y-67527904D01*
X110974095Y-67623142D01*
X110926476Y-67670761D01*
X110831238Y-67718380D01*
X110593142Y-67718380D01*
X110497904Y-67670761D01*
X110450285Y-67623142D01*
X106957904Y-67718380D02*
X106957904Y-66718380D01*
X107338857Y-66718380D01*
X107434095Y-66766000D01*
X107481714Y-66813619D01*
X107529333Y-66908857D01*
X107529333Y-67051714D01*
X107481714Y-67146952D01*
X107434095Y-67194571D01*
X107338857Y-67242190D01*
X106957904Y-67242190D01*
X108386476Y-66718380D02*
X108196000Y-66718380D01*
X108100761Y-66766000D01*
X108053142Y-66813619D01*
X107957904Y-66956476D01*
X107910285Y-67146952D01*
X107910285Y-67527904D01*
X107957904Y-67623142D01*
X108005523Y-67670761D01*
X108100761Y-67718380D01*
X108291238Y-67718380D01*
X108386476Y-67670761D01*
X108434095Y-67623142D01*
X108481714Y-67527904D01*
X108481714Y-67289809D01*
X108434095Y-67194571D01*
X108386476Y-67146952D01*
X108291238Y-67099333D01*
X108100761Y-67099333D01*
X108005523Y-67146952D01*
X107957904Y-67194571D01*
X107910285Y-67289809D01*
X100607904Y-70258380D02*
X100607904Y-69258380D01*
X100988857Y-69258380D01*
X101084095Y-69306000D01*
X101131714Y-69353619D01*
X101179333Y-69448857D01*
X101179333Y-69591714D01*
X101131714Y-69686952D01*
X101084095Y-69734571D01*
X100988857Y-69782190D01*
X100607904Y-69782190D01*
X101512666Y-69258380D02*
X102179333Y-69258380D01*
X101750761Y-70258380D01*
X100607904Y-67718380D02*
X100607904Y-66718380D01*
X100988857Y-66718380D01*
X101084095Y-66766000D01*
X101131714Y-66813619D01*
X101179333Y-66908857D01*
X101179333Y-67051714D01*
X101131714Y-67146952D01*
X101084095Y-67194571D01*
X100988857Y-67242190D01*
X100607904Y-67242190D01*
X101750761Y-67146952D02*
X101655523Y-67099333D01*
X101607904Y-67051714D01*
X101560285Y-66956476D01*
X101560285Y-66908857D01*
X101607904Y-66813619D01*
X101655523Y-66766000D01*
X101750761Y-66718380D01*
X101941238Y-66718380D01*
X102036476Y-66766000D01*
X102084095Y-66813619D01*
X102131714Y-66908857D01*
X102131714Y-66956476D01*
X102084095Y-67051714D01*
X102036476Y-67099333D01*
X101941238Y-67146952D01*
X101750761Y-67146952D01*
X101655523Y-67194571D01*
X101607904Y-67242190D01*
X101560285Y-67337428D01*
X101560285Y-67527904D01*
X101607904Y-67623142D01*
X101655523Y-67670761D01*
X101750761Y-67718380D01*
X101941238Y-67718380D01*
X102036476Y-67670761D01*
X102084095Y-67623142D01*
X102131714Y-67527904D01*
X102131714Y-67337428D01*
X102084095Y-67242190D01*
X102036476Y-67194571D01*
X101941238Y-67146952D01*
X70635904Y-70258380D02*
X70635904Y-69258380D01*
X71016857Y-69258380D01*
X71112095Y-69306000D01*
X71159714Y-69353619D01*
X71207333Y-69448857D01*
X71207333Y-69591714D01*
X71159714Y-69686952D01*
X71112095Y-69734571D01*
X71016857Y-69782190D01*
X70635904Y-69782190D01*
X71683523Y-70258380D02*
X71874000Y-70258380D01*
X71969238Y-70210761D01*
X72016857Y-70163142D01*
X72112095Y-70020285D01*
X72159714Y-69829809D01*
X72159714Y-69448857D01*
X72112095Y-69353619D01*
X72064476Y-69306000D01*
X71969238Y-69258380D01*
X71778761Y-69258380D01*
X71683523Y-69306000D01*
X71635904Y-69353619D01*
X71588285Y-69448857D01*
X71588285Y-69686952D01*
X71635904Y-69782190D01*
X71683523Y-69829809D01*
X71778761Y-69877428D01*
X71969238Y-69877428D01*
X72064476Y-69829809D01*
X72112095Y-69782190D01*
X72159714Y-69686952D01*
X67619714Y-70258380D02*
X67619714Y-69258380D01*
X68000666Y-69258380D01*
X68095904Y-69306000D01*
X68143523Y-69353619D01*
X68191142Y-69448857D01*
X68191142Y-69591714D01*
X68143523Y-69686952D01*
X68095904Y-69734571D01*
X68000666Y-69782190D01*
X67619714Y-69782190D01*
X69143523Y-70258380D02*
X68572095Y-70258380D01*
X68857809Y-70258380D02*
X68857809Y-69258380D01*
X68762571Y-69401238D01*
X68667333Y-69496476D01*
X68572095Y-69544095D01*
X69762571Y-69258380D02*
X69857809Y-69258380D01*
X69953047Y-69306000D01*
X70000666Y-69353619D01*
X70048285Y-69448857D01*
X70095904Y-69639333D01*
X70095904Y-69877428D01*
X70048285Y-70067904D01*
X70000666Y-70163142D01*
X69953047Y-70210761D01*
X69857809Y-70258380D01*
X69762571Y-70258380D01*
X69667333Y-70210761D01*
X69619714Y-70163142D01*
X69572095Y-70067904D01*
X69524476Y-69877428D01*
X69524476Y-69639333D01*
X69572095Y-69448857D01*
X69619714Y-69353619D01*
X69667333Y-69306000D01*
X69762571Y-69258380D01*
X70159714Y-67718380D02*
X70159714Y-66718380D01*
X70540666Y-66718380D01*
X70635904Y-66766000D01*
X70683523Y-66813619D01*
X70731142Y-66908857D01*
X70731142Y-67051714D01*
X70683523Y-67146952D01*
X70635904Y-67194571D01*
X70540666Y-67242190D01*
X70159714Y-67242190D01*
X71683523Y-67718380D02*
X71112095Y-67718380D01*
X71397809Y-67718380D02*
X71397809Y-66718380D01*
X71302571Y-66861238D01*
X71207333Y-66956476D01*
X71112095Y-67004095D01*
X72635904Y-67718380D02*
X72064476Y-67718380D01*
X72350190Y-67718380D02*
X72350190Y-66718380D01*
X72254952Y-66861238D01*
X72159714Y-66956476D01*
X72064476Y-67004095D01*
X67619714Y-67718380D02*
X67619714Y-66718380D01*
X68000666Y-66718380D01*
X68095904Y-66766000D01*
X68143523Y-66813619D01*
X68191142Y-66908857D01*
X68191142Y-67051714D01*
X68143523Y-67146952D01*
X68095904Y-67194571D01*
X68000666Y-67242190D01*
X67619714Y-67242190D01*
X69143523Y-67718380D02*
X68572095Y-67718380D01*
X68857809Y-67718380D02*
X68857809Y-66718380D01*
X68762571Y-66861238D01*
X68667333Y-66956476D01*
X68572095Y-67004095D01*
X69524476Y-66813619D02*
X69572095Y-66766000D01*
X69667333Y-66718380D01*
X69905428Y-66718380D01*
X70000666Y-66766000D01*
X70048285Y-66813619D01*
X70095904Y-66908857D01*
X70095904Y-67004095D01*
X70048285Y-67146952D01*
X69476857Y-67718380D01*
X70095904Y-67718380D01*
X142482380Y-65984285D02*
X141482380Y-65984285D01*
X141482380Y-65603333D01*
X141530000Y-65508095D01*
X141577619Y-65460476D01*
X141672857Y-65412857D01*
X141815714Y-65412857D01*
X141910952Y-65460476D01*
X141958571Y-65508095D01*
X142006190Y-65603333D01*
X142006190Y-65984285D01*
X142482380Y-64460476D02*
X142482380Y-65031904D01*
X142482380Y-64746190D02*
X141482380Y-64746190D01*
X141625238Y-64841428D01*
X141720476Y-64936666D01*
X141768095Y-65031904D01*
X141482380Y-64127142D02*
X141482380Y-63508095D01*
X141863333Y-63841428D01*
X141863333Y-63698571D01*
X141910952Y-63603333D01*
X141958571Y-63555714D01*
X142053809Y-63508095D01*
X142291904Y-63508095D01*
X142387142Y-63555714D01*
X142434761Y-63603333D01*
X142482380Y-63698571D01*
X142482380Y-63984285D01*
X142434761Y-64079523D01*
X142387142Y-64127142D01*
X142482380Y-63444285D02*
X141482380Y-63444285D01*
X141482380Y-63063333D01*
X141530000Y-62968095D01*
X141577619Y-62920476D01*
X141672857Y-62872857D01*
X141815714Y-62872857D01*
X141910952Y-62920476D01*
X141958571Y-62968095D01*
X142006190Y-63063333D01*
X142006190Y-63444285D01*
X142482380Y-61920476D02*
X142482380Y-62491904D01*
X142482380Y-62206190D02*
X141482380Y-62206190D01*
X141625238Y-62301428D01*
X141720476Y-62396666D01*
X141768095Y-62491904D01*
X141815714Y-61063333D02*
X142482380Y-61063333D01*
X141434761Y-61301428D02*
X142149047Y-61539523D01*
X142149047Y-60920476D01*
X109021714Y-62892380D02*
X109021714Y-61892380D01*
X109402666Y-61892380D01*
X109497904Y-61940000D01*
X109545523Y-61987619D01*
X109593142Y-62082857D01*
X109593142Y-62225714D01*
X109545523Y-62320952D01*
X109497904Y-62368571D01*
X109402666Y-62416190D01*
X109021714Y-62416190D01*
X110545523Y-62892380D02*
X109974095Y-62892380D01*
X110259809Y-62892380D02*
X110259809Y-61892380D01*
X110164571Y-62035238D01*
X110069333Y-62130476D01*
X109974095Y-62178095D01*
X111450285Y-61892380D02*
X110974095Y-61892380D01*
X110926476Y-62368571D01*
X110974095Y-62320952D01*
X111069333Y-62273333D01*
X111307428Y-62273333D01*
X111402666Y-62320952D01*
X111450285Y-62368571D01*
X111497904Y-62463809D01*
X111497904Y-62701904D01*
X111450285Y-62797142D01*
X111402666Y-62844761D01*
X111307428Y-62892380D01*
X111069333Y-62892380D01*
X110974095Y-62844761D01*
X110926476Y-62797142D01*
X106354714Y-62892380D02*
X106354714Y-61892380D01*
X106735666Y-61892380D01*
X106830904Y-61940000D01*
X106878523Y-61987619D01*
X106926142Y-62082857D01*
X106926142Y-62225714D01*
X106878523Y-62320952D01*
X106830904Y-62368571D01*
X106735666Y-62416190D01*
X106354714Y-62416190D01*
X107878523Y-62892380D02*
X107307095Y-62892380D01*
X107592809Y-62892380D02*
X107592809Y-61892380D01*
X107497571Y-62035238D01*
X107402333Y-62130476D01*
X107307095Y-62178095D01*
X108735666Y-61892380D02*
X108545190Y-61892380D01*
X108449952Y-61940000D01*
X108402333Y-61987619D01*
X108307095Y-62130476D01*
X108259476Y-62320952D01*
X108259476Y-62701904D01*
X108307095Y-62797142D01*
X108354714Y-62844761D01*
X108449952Y-62892380D01*
X108640428Y-62892380D01*
X108735666Y-62844761D01*
X108783285Y-62797142D01*
X108830904Y-62701904D01*
X108830904Y-62463809D01*
X108783285Y-62368571D01*
X108735666Y-62320952D01*
X108640428Y-62273333D01*
X108449952Y-62273333D01*
X108354714Y-62320952D01*
X108307095Y-62368571D01*
X108259476Y-62463809D01*
X109021714Y-60352380D02*
X109021714Y-59352380D01*
X109402666Y-59352380D01*
X109497904Y-59400000D01*
X109545523Y-59447619D01*
X109593142Y-59542857D01*
X109593142Y-59685714D01*
X109545523Y-59780952D01*
X109497904Y-59828571D01*
X109402666Y-59876190D01*
X109021714Y-59876190D01*
X110545523Y-60352380D02*
X109974095Y-60352380D01*
X110259809Y-60352380D02*
X110259809Y-59352380D01*
X110164571Y-59495238D01*
X110069333Y-59590476D01*
X109974095Y-59638095D01*
X110878857Y-59352380D02*
X111545523Y-59352380D01*
X111116952Y-60352380D01*
X106481714Y-60352380D02*
X106481714Y-59352380D01*
X106862666Y-59352380D01*
X106957904Y-59400000D01*
X107005523Y-59447619D01*
X107053142Y-59542857D01*
X107053142Y-59685714D01*
X107005523Y-59780952D01*
X106957904Y-59828571D01*
X106862666Y-59876190D01*
X106481714Y-59876190D01*
X108005523Y-60352380D02*
X107434095Y-60352380D01*
X107719809Y-60352380D02*
X107719809Y-59352380D01*
X107624571Y-59495238D01*
X107529333Y-59590476D01*
X107434095Y-59638095D01*
X108576952Y-59780952D02*
X108481714Y-59733333D01*
X108434095Y-59685714D01*
X108386476Y-59590476D01*
X108386476Y-59542857D01*
X108434095Y-59447619D01*
X108481714Y-59400000D01*
X108576952Y-59352380D01*
X108767428Y-59352380D01*
X108862666Y-59400000D01*
X108910285Y-59447619D01*
X108957904Y-59542857D01*
X108957904Y-59590476D01*
X108910285Y-59685714D01*
X108862666Y-59733333D01*
X108767428Y-59780952D01*
X108576952Y-59780952D01*
X108481714Y-59828571D01*
X108434095Y-59876190D01*
X108386476Y-59971428D01*
X108386476Y-60161904D01*
X108434095Y-60257142D01*
X108481714Y-60304761D01*
X108576952Y-60352380D01*
X108767428Y-60352380D01*
X108862666Y-60304761D01*
X108910285Y-60257142D01*
X108957904Y-60161904D01*
X108957904Y-59971428D01*
X108910285Y-59876190D01*
X108862666Y-59828571D01*
X108767428Y-59780952D01*
X100131714Y-62892380D02*
X100131714Y-61892380D01*
X100512666Y-61892380D01*
X100607904Y-61940000D01*
X100655523Y-61987619D01*
X100703142Y-62082857D01*
X100703142Y-62225714D01*
X100655523Y-62320952D01*
X100607904Y-62368571D01*
X100512666Y-62416190D01*
X100131714Y-62416190D01*
X101655523Y-62892380D02*
X101084095Y-62892380D01*
X101369809Y-62892380D02*
X101369809Y-61892380D01*
X101274571Y-62035238D01*
X101179333Y-62130476D01*
X101084095Y-62178095D01*
X102131714Y-62892380D02*
X102322190Y-62892380D01*
X102417428Y-62844761D01*
X102465047Y-62797142D01*
X102560285Y-62654285D01*
X102607904Y-62463809D01*
X102607904Y-62082857D01*
X102560285Y-61987619D01*
X102512666Y-61940000D01*
X102417428Y-61892380D01*
X102226952Y-61892380D01*
X102131714Y-61940000D01*
X102084095Y-61987619D01*
X102036476Y-62082857D01*
X102036476Y-62320952D01*
X102084095Y-62416190D01*
X102131714Y-62463809D01*
X102226952Y-62511428D01*
X102417428Y-62511428D01*
X102512666Y-62463809D01*
X102560285Y-62416190D01*
X102607904Y-62320952D01*
X100131714Y-60352380D02*
X100131714Y-59352380D01*
X100512666Y-59352380D01*
X100607904Y-59400000D01*
X100655523Y-59447619D01*
X100703142Y-59542857D01*
X100703142Y-59685714D01*
X100655523Y-59780952D01*
X100607904Y-59828571D01*
X100512666Y-59876190D01*
X100131714Y-59876190D01*
X101084095Y-59447619D02*
X101131714Y-59400000D01*
X101226952Y-59352380D01*
X101465047Y-59352380D01*
X101560285Y-59400000D01*
X101607904Y-59447619D01*
X101655523Y-59542857D01*
X101655523Y-59638095D01*
X101607904Y-59780952D01*
X101036476Y-60352380D01*
X101655523Y-60352380D01*
X102274571Y-59352380D02*
X102369809Y-59352380D01*
X102465047Y-59400000D01*
X102512666Y-59447619D01*
X102560285Y-59542857D01*
X102607904Y-59733333D01*
X102607904Y-59971428D01*
X102560285Y-60161904D01*
X102512666Y-60257142D01*
X102465047Y-60304761D01*
X102369809Y-60352380D01*
X102274571Y-60352380D01*
X102179333Y-60304761D01*
X102131714Y-60257142D01*
X102084095Y-60161904D01*
X102036476Y-59971428D01*
X102036476Y-59733333D01*
X102084095Y-59542857D01*
X102131714Y-59447619D01*
X102179333Y-59400000D01*
X102274571Y-59352380D01*
X70159714Y-62892380D02*
X70159714Y-61892380D01*
X70540666Y-61892380D01*
X70635904Y-61940000D01*
X70683523Y-61987619D01*
X70731142Y-62082857D01*
X70731142Y-62225714D01*
X70683523Y-62320952D01*
X70635904Y-62368571D01*
X70540666Y-62416190D01*
X70159714Y-62416190D01*
X71112095Y-61987619D02*
X71159714Y-61940000D01*
X71254952Y-61892380D01*
X71493047Y-61892380D01*
X71588285Y-61940000D01*
X71635904Y-61987619D01*
X71683523Y-62082857D01*
X71683523Y-62178095D01*
X71635904Y-62320952D01*
X71064476Y-62892380D01*
X71683523Y-62892380D01*
X72635904Y-62892380D02*
X72064476Y-62892380D01*
X72350190Y-62892380D02*
X72350190Y-61892380D01*
X72254952Y-62035238D01*
X72159714Y-62130476D01*
X72064476Y-62178095D01*
X67619714Y-62892380D02*
X67619714Y-61892380D01*
X68000666Y-61892380D01*
X68095904Y-61940000D01*
X68143523Y-61987619D01*
X68191142Y-62082857D01*
X68191142Y-62225714D01*
X68143523Y-62320952D01*
X68095904Y-62368571D01*
X68000666Y-62416190D01*
X67619714Y-62416190D01*
X68572095Y-61987619D02*
X68619714Y-61940000D01*
X68714952Y-61892380D01*
X68953047Y-61892380D01*
X69048285Y-61940000D01*
X69095904Y-61987619D01*
X69143523Y-62082857D01*
X69143523Y-62178095D01*
X69095904Y-62320952D01*
X68524476Y-62892380D01*
X69143523Y-62892380D01*
X69524476Y-61987619D02*
X69572095Y-61940000D01*
X69667333Y-61892380D01*
X69905428Y-61892380D01*
X70000666Y-61940000D01*
X70048285Y-61987619D01*
X70095904Y-62082857D01*
X70095904Y-62178095D01*
X70048285Y-62320952D01*
X69476857Y-62892380D01*
X70095904Y-62892380D01*
X70159714Y-60352380D02*
X70159714Y-59352380D01*
X70540666Y-59352380D01*
X70635904Y-59400000D01*
X70683523Y-59447619D01*
X70731142Y-59542857D01*
X70731142Y-59685714D01*
X70683523Y-59780952D01*
X70635904Y-59828571D01*
X70540666Y-59876190D01*
X70159714Y-59876190D01*
X71112095Y-59447619D02*
X71159714Y-59400000D01*
X71254952Y-59352380D01*
X71493047Y-59352380D01*
X71588285Y-59400000D01*
X71635904Y-59447619D01*
X71683523Y-59542857D01*
X71683523Y-59638095D01*
X71635904Y-59780952D01*
X71064476Y-60352380D01*
X71683523Y-60352380D01*
X72016857Y-59352380D02*
X72635904Y-59352380D01*
X72302571Y-59733333D01*
X72445428Y-59733333D01*
X72540666Y-59780952D01*
X72588285Y-59828571D01*
X72635904Y-59923809D01*
X72635904Y-60161904D01*
X72588285Y-60257142D01*
X72540666Y-60304761D01*
X72445428Y-60352380D01*
X72159714Y-60352380D01*
X72064476Y-60304761D01*
X72016857Y-60257142D01*
X67619714Y-60352380D02*
X67619714Y-59352380D01*
X68000666Y-59352380D01*
X68095904Y-59400000D01*
X68143523Y-59447619D01*
X68191142Y-59542857D01*
X68191142Y-59685714D01*
X68143523Y-59780952D01*
X68095904Y-59828571D01*
X68000666Y-59876190D01*
X67619714Y-59876190D01*
X68572095Y-59447619D02*
X68619714Y-59400000D01*
X68714952Y-59352380D01*
X68953047Y-59352380D01*
X69048285Y-59400000D01*
X69095904Y-59447619D01*
X69143523Y-59542857D01*
X69143523Y-59638095D01*
X69095904Y-59780952D01*
X68524476Y-60352380D01*
X69143523Y-60352380D01*
X70000666Y-59685714D02*
X70000666Y-60352380D01*
X69762571Y-59304761D02*
X69524476Y-60019047D01*
X70143523Y-60019047D01*
X133338380Y-73350285D02*
X132338380Y-73350285D01*
X132338380Y-72969333D01*
X132386000Y-72874095D01*
X132433619Y-72826476D01*
X132528857Y-72778857D01*
X132671714Y-72778857D01*
X132766952Y-72826476D01*
X132814571Y-72874095D01*
X132862190Y-72969333D01*
X132862190Y-73350285D01*
X132433619Y-72397904D02*
X132386000Y-72350285D01*
X132338380Y-72255047D01*
X132338380Y-72016952D01*
X132386000Y-71921714D01*
X132433619Y-71874095D01*
X132528857Y-71826476D01*
X132624095Y-71826476D01*
X132766952Y-71874095D01*
X133338380Y-72445523D01*
X133338380Y-71826476D01*
X132338380Y-70969333D02*
X132338380Y-71159809D01*
X132386000Y-71255047D01*
X132433619Y-71302666D01*
X132576476Y-71397904D01*
X132766952Y-71445523D01*
X133147904Y-71445523D01*
X133243142Y-71397904D01*
X133290761Y-71350285D01*
X133338380Y-71255047D01*
X133338380Y-71064571D01*
X133290761Y-70969333D01*
X133243142Y-70921714D01*
X133147904Y-70874095D01*
X132909809Y-70874095D01*
X132814571Y-70921714D01*
X132766952Y-70969333D01*
X132719333Y-71064571D01*
X132719333Y-71255047D01*
X132766952Y-71350285D01*
X132814571Y-71397904D01*
X132909809Y-71445523D01*
X133338380Y-70810285D02*
X132338380Y-70810285D01*
X132338380Y-70429333D01*
X132386000Y-70334095D01*
X132433619Y-70286476D01*
X132528857Y-70238857D01*
X132671714Y-70238857D01*
X132766952Y-70286476D01*
X132814571Y-70334095D01*
X132862190Y-70429333D01*
X132862190Y-70810285D01*
X132433619Y-69857904D02*
X132386000Y-69810285D01*
X132338380Y-69715047D01*
X132338380Y-69476952D01*
X132386000Y-69381714D01*
X132433619Y-69334095D01*
X132528857Y-69286476D01*
X132624095Y-69286476D01*
X132766952Y-69334095D01*
X133338380Y-69905523D01*
X133338380Y-69286476D01*
X132338380Y-68953142D02*
X132338380Y-68286476D01*
X133338380Y-68715047D01*
X98286380Y-65984285D02*
X97286380Y-65984285D01*
X97286380Y-65603333D01*
X97334000Y-65508095D01*
X97381619Y-65460476D01*
X97476857Y-65412857D01*
X97619714Y-65412857D01*
X97714952Y-65460476D01*
X97762571Y-65508095D01*
X97810190Y-65603333D01*
X97810190Y-65984285D01*
X97286380Y-65079523D02*
X97286380Y-64460476D01*
X97667333Y-64793809D01*
X97667333Y-64650952D01*
X97714952Y-64555714D01*
X97762571Y-64508095D01*
X97857809Y-64460476D01*
X98095904Y-64460476D01*
X98191142Y-64508095D01*
X98238761Y-64555714D01*
X98286380Y-64650952D01*
X98286380Y-64936666D01*
X98238761Y-65031904D01*
X98191142Y-65079523D01*
X97286380Y-63841428D02*
X97286380Y-63746190D01*
X97334000Y-63650952D01*
X97381619Y-63603333D01*
X97476857Y-63555714D01*
X97667333Y-63508095D01*
X97905428Y-63508095D01*
X98095904Y-63555714D01*
X98191142Y-63603333D01*
X98238761Y-63650952D01*
X98286380Y-63746190D01*
X98286380Y-63841428D01*
X98238761Y-63936666D01*
X98191142Y-63984285D01*
X98095904Y-64031904D01*
X97905428Y-64079523D01*
X97667333Y-64079523D01*
X97476857Y-64031904D01*
X97381619Y-63984285D01*
X97334000Y-63936666D01*
X97286380Y-63841428D01*
X98286380Y-63444285D02*
X97286380Y-63444285D01*
X97286380Y-63063333D01*
X97334000Y-62968095D01*
X97381619Y-62920476D01*
X97476857Y-62872857D01*
X97619714Y-62872857D01*
X97714952Y-62920476D01*
X97762571Y-62968095D01*
X97810190Y-63063333D01*
X97810190Y-63444285D01*
X97286380Y-62539523D02*
X97286380Y-61920476D01*
X97667333Y-62253809D01*
X97667333Y-62110952D01*
X97714952Y-62015714D01*
X97762571Y-61968095D01*
X97857809Y-61920476D01*
X98095904Y-61920476D01*
X98191142Y-61968095D01*
X98238761Y-62015714D01*
X98286380Y-62110952D01*
X98286380Y-62396666D01*
X98238761Y-62491904D01*
X98191142Y-62539523D01*
X98286380Y-60968095D02*
X98286380Y-61539523D01*
X98286380Y-61253809D02*
X97286380Y-61253809D01*
X97429238Y-61349047D01*
X97524476Y-61444285D01*
X97572095Y-61539523D01*
X133338380Y-65984285D02*
X132338380Y-65984285D01*
X132338380Y-65603333D01*
X132386000Y-65508095D01*
X132433619Y-65460476D01*
X132528857Y-65412857D01*
X132671714Y-65412857D01*
X132766952Y-65460476D01*
X132814571Y-65508095D01*
X132862190Y-65603333D01*
X132862190Y-65984285D01*
X132338380Y-65079523D02*
X132338380Y-64460476D01*
X132719333Y-64793809D01*
X132719333Y-64650952D01*
X132766952Y-64555714D01*
X132814571Y-64508095D01*
X132909809Y-64460476D01*
X133147904Y-64460476D01*
X133243142Y-64508095D01*
X133290761Y-64555714D01*
X133338380Y-64650952D01*
X133338380Y-64936666D01*
X133290761Y-65031904D01*
X133243142Y-65079523D01*
X132433619Y-64079523D02*
X132386000Y-64031904D01*
X132338380Y-63936666D01*
X132338380Y-63698571D01*
X132386000Y-63603333D01*
X132433619Y-63555714D01*
X132528857Y-63508095D01*
X132624095Y-63508095D01*
X132766952Y-63555714D01*
X133338380Y-64127142D01*
X133338380Y-63508095D01*
X133338380Y-63444285D02*
X132338380Y-63444285D01*
X132338380Y-63063333D01*
X132386000Y-62968095D01*
X132433619Y-62920476D01*
X132528857Y-62872857D01*
X132671714Y-62872857D01*
X132766952Y-62920476D01*
X132814571Y-62968095D01*
X132862190Y-63063333D01*
X132862190Y-63444285D01*
X132338380Y-62539523D02*
X132338380Y-61920476D01*
X132719333Y-62253809D01*
X132719333Y-62110952D01*
X132766952Y-62015714D01*
X132814571Y-61968095D01*
X132909809Y-61920476D01*
X133147904Y-61920476D01*
X133243142Y-61968095D01*
X133290761Y-62015714D01*
X133338380Y-62110952D01*
X133338380Y-62396666D01*
X133290761Y-62491904D01*
X133243142Y-62539523D01*
X132338380Y-61587142D02*
X132338380Y-60968095D01*
X132719333Y-61301428D01*
X132719333Y-61158571D01*
X132766952Y-61063333D01*
X132814571Y-61015714D01*
X132909809Y-60968095D01*
X133147904Y-60968095D01*
X133243142Y-61015714D01*
X133290761Y-61063333D01*
X133338380Y-61158571D01*
X133338380Y-61444285D01*
X133290761Y-61539523D01*
X133243142Y-61587142D01*
X98286380Y-73350285D02*
X97286380Y-73350285D01*
X97286380Y-72969333D01*
X97334000Y-72874095D01*
X97381619Y-72826476D01*
X97476857Y-72778857D01*
X97619714Y-72778857D01*
X97714952Y-72826476D01*
X97762571Y-72874095D01*
X97810190Y-72969333D01*
X97810190Y-73350285D01*
X97286380Y-72445523D02*
X97286380Y-71826476D01*
X97667333Y-72159809D01*
X97667333Y-72016952D01*
X97714952Y-71921714D01*
X97762571Y-71874095D01*
X97857809Y-71826476D01*
X98095904Y-71826476D01*
X98191142Y-71874095D01*
X98238761Y-71921714D01*
X98286380Y-72016952D01*
X98286380Y-72302666D01*
X98238761Y-72397904D01*
X98191142Y-72445523D01*
X97286380Y-70969333D02*
X97286380Y-71159809D01*
X97334000Y-71255047D01*
X97381619Y-71302666D01*
X97524476Y-71397904D01*
X97714952Y-71445523D01*
X98095904Y-71445523D01*
X98191142Y-71397904D01*
X98238761Y-71350285D01*
X98286380Y-71255047D01*
X98286380Y-71064571D01*
X98238761Y-70969333D01*
X98191142Y-70921714D01*
X98095904Y-70874095D01*
X97857809Y-70874095D01*
X97762571Y-70921714D01*
X97714952Y-70969333D01*
X97667333Y-71064571D01*
X97667333Y-71255047D01*
X97714952Y-71350285D01*
X97762571Y-71397904D01*
X97857809Y-71445523D01*
X98286380Y-70810285D02*
X97286380Y-70810285D01*
X97286380Y-70429333D01*
X97334000Y-70334095D01*
X97381619Y-70286476D01*
X97476857Y-70238857D01*
X97619714Y-70238857D01*
X97714952Y-70286476D01*
X97762571Y-70334095D01*
X97810190Y-70429333D01*
X97810190Y-70810285D01*
X97286380Y-69905523D02*
X97286380Y-69286476D01*
X97667333Y-69619809D01*
X97667333Y-69476952D01*
X97714952Y-69381714D01*
X97762571Y-69334095D01*
X97857809Y-69286476D01*
X98095904Y-69286476D01*
X98191142Y-69334095D01*
X98238761Y-69381714D01*
X98286380Y-69476952D01*
X98286380Y-69762666D01*
X98238761Y-69857904D01*
X98191142Y-69905523D01*
X97286380Y-68953142D02*
X97286380Y-68286476D01*
X98286380Y-68715047D01*
X145216714Y-68734380D02*
X145216714Y-67734380D01*
X145597666Y-67734380D01*
X145692904Y-67782000D01*
X145740523Y-67829619D01*
X145788142Y-67924857D01*
X145788142Y-68067714D01*
X145740523Y-68162952D01*
X145692904Y-68210571D01*
X145597666Y-68258190D01*
X145216714Y-68258190D01*
X146121476Y-67734380D02*
X146740523Y-67734380D01*
X146407190Y-68115333D01*
X146550047Y-68115333D01*
X146645285Y-68162952D01*
X146692904Y-68210571D01*
X146740523Y-68305809D01*
X146740523Y-68543904D01*
X146692904Y-68639142D01*
X146645285Y-68686761D01*
X146550047Y-68734380D01*
X146264333Y-68734380D01*
X146169095Y-68686761D01*
X146121476Y-68639142D01*
X147311952Y-68162952D02*
X147216714Y-68115333D01*
X147169095Y-68067714D01*
X147121476Y-67972476D01*
X147121476Y-67924857D01*
X147169095Y-67829619D01*
X147216714Y-67782000D01*
X147311952Y-67734380D01*
X147502428Y-67734380D01*
X147597666Y-67782000D01*
X147645285Y-67829619D01*
X147692904Y-67924857D01*
X147692904Y-67972476D01*
X147645285Y-68067714D01*
X147597666Y-68115333D01*
X147502428Y-68162952D01*
X147311952Y-68162952D01*
X147216714Y-68210571D01*
X147169095Y-68258190D01*
X147121476Y-68353428D01*
X147121476Y-68543904D01*
X147169095Y-68639142D01*
X147216714Y-68686761D01*
X147311952Y-68734380D01*
X147502428Y-68734380D01*
X147597666Y-68686761D01*
X147645285Y-68639142D01*
X147692904Y-68543904D01*
X147692904Y-68353428D01*
X147645285Y-68258190D01*
X147597666Y-68210571D01*
X147502428Y-68162952D01*
X146613714Y-53748380D02*
X146613714Y-52748380D01*
X146994666Y-52748380D01*
X147089904Y-52796000D01*
X147137523Y-52843619D01*
X147185142Y-52938857D01*
X147185142Y-53081714D01*
X147137523Y-53176952D01*
X147089904Y-53224571D01*
X146994666Y-53272190D01*
X146613714Y-53272190D01*
X147518476Y-52748380D02*
X148137523Y-52748380D01*
X147804190Y-53129333D01*
X147947047Y-53129333D01*
X148042285Y-53176952D01*
X148089904Y-53224571D01*
X148137523Y-53319809D01*
X148137523Y-53557904D01*
X148089904Y-53653142D01*
X148042285Y-53700761D01*
X147947047Y-53748380D01*
X147661333Y-53748380D01*
X147566095Y-53700761D01*
X147518476Y-53653142D01*
X148613714Y-53748380D02*
X148804190Y-53748380D01*
X148899428Y-53700761D01*
X148947047Y-53653142D01*
X149042285Y-53510285D01*
X149089904Y-53319809D01*
X149089904Y-52938857D01*
X149042285Y-52843619D01*
X148994666Y-52796000D01*
X148899428Y-52748380D01*
X148708952Y-52748380D01*
X148613714Y-52796000D01*
X148566095Y-52843619D01*
X148518476Y-52938857D01*
X148518476Y-53176952D01*
X148566095Y-53272190D01*
X148613714Y-53319809D01*
X148708952Y-53367428D01*
X148899428Y-53367428D01*
X148994666Y-53319809D01*
X149042285Y-53272190D01*
X149089904Y-53176952D01*
X101909714Y-53748380D02*
X101909714Y-52748380D01*
X102290666Y-52748380D01*
X102385904Y-52796000D01*
X102433523Y-52843619D01*
X102481142Y-52938857D01*
X102481142Y-53081714D01*
X102433523Y-53176952D01*
X102385904Y-53224571D01*
X102290666Y-53272190D01*
X101909714Y-53272190D01*
X103338285Y-53081714D02*
X103338285Y-53748380D01*
X103100190Y-52700761D02*
X102862095Y-53415047D01*
X103481142Y-53415047D01*
X104052571Y-52748380D02*
X104147809Y-52748380D01*
X104243047Y-52796000D01*
X104290666Y-52843619D01*
X104338285Y-52938857D01*
X104385904Y-53129333D01*
X104385904Y-53367428D01*
X104338285Y-53557904D01*
X104290666Y-53653142D01*
X104243047Y-53700761D01*
X104147809Y-53748380D01*
X104052571Y-53748380D01*
X103957333Y-53700761D01*
X103909714Y-53653142D01*
X103862095Y-53557904D01*
X103814476Y-53367428D01*
X103814476Y-53129333D01*
X103862095Y-52938857D01*
X103909714Y-52843619D01*
X103957333Y-52796000D01*
X104052571Y-52748380D01*
X65841714Y-53748380D02*
X65841714Y-52748380D01*
X66222666Y-52748380D01*
X66317904Y-52796000D01*
X66365523Y-52843619D01*
X66413142Y-52938857D01*
X66413142Y-53081714D01*
X66365523Y-53176952D01*
X66317904Y-53224571D01*
X66222666Y-53272190D01*
X65841714Y-53272190D01*
X67270285Y-53081714D02*
X67270285Y-53748380D01*
X67032190Y-52700761D02*
X66794095Y-53415047D01*
X67413142Y-53415047D01*
X68317904Y-53748380D02*
X67746476Y-53748380D01*
X68032190Y-53748380D02*
X68032190Y-52748380D01*
X67936952Y-52891238D01*
X67841714Y-52986476D01*
X67746476Y-53034095D01*
M02*
