M48
; DRILL file {KiCad (5.1.2)-1} date 21/03/2020 17:15:59
; FORMAT={-:-/ absolute / inch / decimal}
; #@! TF.CreationDate,2020-03-21T17:15:59+01:00
; #@! TF.GenerationSoftware,Kicad,Pcbnew,(5.1.2)-1
FMAT,2
INCH
T1C0.0394
T2C0.0433
T3C0.1200
T4C0.1378
%
G90
G05
T1
X2.81Y-2.74
X2.81Y-2.55
X4.24Y-2.74
X4.235Y-2.55
X3.99Y-2.74
X2.71Y-2.84
X4.06Y-2.19
X3.06Y-2.84
X3.16Y-2.84
X3.26Y-2.84
X3.36Y-2.84
X3.46Y-2.84
X3.56Y-2.84
X3.66Y-2.84
X3.76Y-2.84
X5.3Y-2.55
X5.4Y-2.55
X5.5Y-2.55
X4.34Y-2.55
X3.99Y-2.55
X5.3Y-2.84
X5.4Y-2.84
X5.5Y-2.84
X4.44Y-2.55
X4.54Y-2.55
X4.64Y-2.55
X4.74Y-2.55
X4.84Y-2.55
X4.94Y-2.55
X5.04Y-2.55
X5.14Y-2.55
X4.34Y-2.74
X2.71Y-2.45
X4.34Y-2.45
X4.24Y-2.45
X3.06Y-2.74
X3.16Y-2.74
X3.26Y-2.74
X3.36Y-2.74
X3.46Y-2.74
X3.56Y-2.74
X3.66Y-2.74
X3.76Y-2.74
X4.44Y-2.84
X4.54Y-2.84
X4.64Y-2.84
X4.74Y-2.84
X4.84Y-2.84
X4.94Y-2.84
X5.04Y-2.84
X5.14Y-2.84
X5.82Y-2.19
X3.06Y-2.55
X3.16Y-2.55
X3.26Y-2.55
X3.36Y-2.55
X3.46Y-2.55
X3.56Y-2.55
X3.66Y-2.55
X3.76Y-2.55
X4.44Y-2.45
X4.54Y-2.45
X4.64Y-2.45
X4.74Y-2.45
X4.84Y-2.45
X4.94Y-2.45
X5.04Y-2.45
X5.14Y-2.45
X2.64Y-2.19
X4.44Y-2.74
X4.54Y-2.74
X4.64Y-2.74
X4.74Y-2.74
X4.84Y-2.74
X4.94Y-2.74
X5.04Y-2.74
X5.14Y-2.74
X2.71Y-2.55
X5.3Y-2.735
X5.4Y-2.735
X5.5Y-2.735
X4.24Y-2.84
X5.765Y-2.78
X3.99Y-2.84
X2.81Y-2.84
X4.34Y-2.84
X3.06Y-2.45
X3.16Y-2.45
X3.26Y-2.45
X3.36Y-2.45
X3.46Y-2.45
X3.56Y-2.45
X3.66Y-2.45
X3.76Y-2.45
X2.81Y-2.45
X2.71Y-2.74
X5.3Y-2.45
X5.4Y-2.45
X5.5Y-2.45
X3.99Y-2.45
T2
X2.7451Y-2.0978
X2.7451Y-2.275
X2.8828Y-2.0978
X2.8828Y-2.275
X3.0049Y-2.0978
X3.0049Y-2.275
X3.123Y-2.0978
X3.123Y-2.275
X3.2411Y-2.0978
X3.2411Y-2.275
X3.3592Y-2.0978
X3.3592Y-2.275
X3.4773Y-2.0978
X3.4773Y-2.275
X3.5954Y-2.0978
X3.5954Y-2.275
X3.7135Y-2.0978
X3.7135Y-2.275
X3.8316Y-2.0978
X3.8316Y-2.275
X3.9537Y-2.0978
X3.9537Y-2.275
X4.1978Y-2.0978
X4.1978Y-2.275
X4.3356Y-2.0978
X4.3356Y-2.275
X4.4578Y-2.0978
X4.4578Y-2.275
X4.5759Y-2.0978
X4.5759Y-2.275
X4.694Y-2.0978
X4.694Y-2.275
X4.8121Y-2.0978
X4.8121Y-2.275
X4.9302Y-2.0978
X4.9302Y-2.275
X5.0483Y-2.0978
X5.0483Y-2.275
X5.1664Y-2.0978
X5.1664Y-2.275
X5.2845Y-2.0978
X5.2845Y-2.275
X5.4066Y-2.0978
X5.4066Y-2.275
X5.5444Y-2.0978
X5.5444Y-2.275
X5.6822Y-2.0978
X5.6822Y-2.275
T3
X2.2787Y-2.45
X5.85Y-2.45
T4
X2.5462Y-1.8734
X4.0759Y-1.8734
X5.881Y-1.8734
T0
M30
