M48
;DRILL file {Pcbnew (2013-07-07 BZR 4022)-stable} date 24/10/2014 07:26:08
;FORMAT={-:-/ absolute / inch / decimal}
FMAT,2
INCH,TZ
T1C0.025
T2C0.032
T3C0.052
%
G90
G05
M72
T1
X8.225Y-6.275
X8.225Y-6.375
X8.225Y-6.475
X8.25Y-6.325
X8.25Y-6.425
X8.275Y-6.275
X8.275Y-6.375
X8.275Y-6.475
X8.3Y-6.325
X8.3Y-6.425
X8.325Y-6.275
X8.325Y-6.375
X8.325Y-6.475
X8.35Y-6.325
X8.35Y-6.425
X8.375Y-6.275
X8.375Y-6.375
X8.375Y-6.475
X8.4Y-6.325
X8.4Y-6.425
X8.425Y-6.275
X8.425Y-6.375
X8.425Y-6.475
X8.425Y-6.625
X8.425Y-6.725
X8.425Y-6.825
X8.45Y-6.325
X8.45Y-6.425
X8.45Y-6.675
X8.45Y-6.775
X8.475Y-6.275
X8.475Y-6.375
X8.475Y-6.475
X8.475Y-6.625
X8.475Y-6.725
X8.475Y-6.825
X8.5Y-6.325
X8.5Y-6.425
X8.5Y-6.675
X8.525Y-6.275
X8.525Y-6.375
X8.525Y-6.475
X8.525Y-6.625
X8.525Y-6.725
X8.55Y-6.325
X8.55Y-6.425
X8.55Y-6.675
X8.575Y-6.275
X8.575Y-6.375
X8.575Y-6.475
X8.575Y-6.625
X8.575Y-6.725
X8.6Y-6.325
X8.6Y-6.425
X8.6Y-6.675
X8.625Y-6.275
X8.625Y-6.375
X8.625Y-6.475
X8.625Y-6.625
X8.625Y-6.725
X8.65Y-6.325
X8.65Y-6.425
X8.65Y-6.675
X8.675Y-6.275
X8.675Y-6.375
X8.675Y-6.625
X8.675Y-6.725
X8.7Y-6.325
X8.725Y-6.275
X8.725Y-6.375
X8.75Y-6.325
X8.775Y-6.275
X8.775Y-6.375
X8.8Y-6.325
X8.825Y-6.275
X8.825Y-6.375
T2
X8.54Y-6.8
X8.655Y-6.96
X8.79Y-6.84
X8.805Y-6.96
T3
X8.75Y-6.471
X8.75Y-6.668
T0
M30
