G04 (created by PCBNEW (2013-07-07 BZR 4022)-stable) date 16/01/2015 23:25:09*
%MOIN*%
G04 Gerber Fmt 3.4, Leading zero omitted, Abs format*
%FSLAX34Y34*%
G01*
G70*
G90*
G04 APERTURE LIST*
%ADD10C,0.00590551*%
%ADD11R,0.1X0.0598425*%
%ADD12R,0.06X0.06*%
%ADD13C,0.06*%
%ADD14R,0.0531496X0.0271654*%
%ADD15C,0.035*%
%ADD16C,0.01*%
G04 APERTURE END LIST*
G54D10*
G54D11*
X51700Y-24700D03*
X51700Y-25700D03*
X51700Y-26700D03*
X51700Y-27700D03*
X58300Y-27700D03*
X58300Y-26700D03*
X58300Y-25700D03*
X58300Y-24700D03*
G54D12*
X54000Y-29300D03*
G54D13*
X55000Y-29300D03*
X56000Y-29300D03*
G54D14*
X53100Y-26000D03*
X53100Y-26500D03*
X53100Y-27000D03*
X56975Y-27000D03*
X56975Y-26500D03*
X56975Y-26000D03*
X56975Y-25500D03*
X53100Y-25500D03*
G54D15*
X56050Y-25950D03*
X52750Y-27500D03*
G54D16*
X53100Y-26500D02*
X53700Y-26500D01*
X53700Y-26500D02*
X53750Y-26450D01*
X51700Y-26700D02*
X52250Y-26700D01*
X52450Y-26500D02*
X53100Y-26500D01*
X52250Y-26700D02*
X52450Y-26500D01*
X51700Y-25700D02*
X51900Y-25700D01*
X56000Y-26000D02*
X56050Y-25950D01*
X52200Y-26000D02*
X56000Y-26000D01*
X51900Y-25700D02*
X52200Y-26000D01*
X53100Y-27000D02*
X53100Y-27150D01*
X53100Y-27150D02*
X52750Y-27500D01*
X51700Y-27700D02*
X52550Y-27700D01*
X52550Y-27700D02*
X52750Y-27500D01*
G54D10*
G36*
X52610Y-26750D02*
X52584Y-26814D01*
X52584Y-26913D01*
X52584Y-27108D01*
X52509Y-27139D01*
X52400Y-27248D01*
X52352Y-27200D01*
X52412Y-27140D01*
X52450Y-27048D01*
X52450Y-26812D01*
X52387Y-26750D01*
X51750Y-26750D01*
X51750Y-26757D01*
X51650Y-26757D01*
X51650Y-26750D01*
X51642Y-26750D01*
X51642Y-26650D01*
X51650Y-26650D01*
X51650Y-26642D01*
X51750Y-26642D01*
X51750Y-26650D01*
X52387Y-26650D01*
X52450Y-26587D01*
X52450Y-26351D01*
X52428Y-26300D01*
X52590Y-26300D01*
X52584Y-26314D01*
X52584Y-26413D01*
X52584Y-26685D01*
X52610Y-26750D01*
X52610Y-26750D01*
G37*
G54D16*
X52610Y-26750D02*
X52584Y-26814D01*
X52584Y-26913D01*
X52584Y-27108D01*
X52509Y-27139D01*
X52400Y-27248D01*
X52352Y-27200D01*
X52412Y-27140D01*
X52450Y-27048D01*
X52450Y-26812D01*
X52387Y-26750D01*
X51750Y-26750D01*
X51750Y-26757D01*
X51650Y-26757D01*
X51650Y-26750D01*
X51642Y-26750D01*
X51642Y-26650D01*
X51650Y-26650D01*
X51650Y-26642D01*
X51750Y-26642D01*
X51750Y-26650D01*
X52387Y-26650D01*
X52450Y-26587D01*
X52450Y-26351D01*
X52428Y-26300D01*
X52590Y-26300D01*
X52584Y-26314D01*
X52584Y-26413D01*
X52584Y-26685D01*
X52610Y-26750D01*
G54D10*
G36*
X58730Y-29730D02*
X56347Y-29730D01*
X56465Y-29611D01*
X56549Y-29409D01*
X56550Y-29191D01*
X56466Y-28988D01*
X56311Y-28834D01*
X56109Y-28750D01*
X55891Y-28749D01*
X55688Y-28833D01*
X55534Y-28988D01*
X55502Y-29063D01*
X55481Y-29012D01*
X55385Y-28984D01*
X55315Y-29055D01*
X55315Y-28914D01*
X55287Y-28818D01*
X55081Y-28745D01*
X54863Y-28756D01*
X54712Y-28818D01*
X54684Y-28914D01*
X55000Y-29229D01*
X55315Y-28914D01*
X55315Y-29055D01*
X55070Y-29300D01*
X55385Y-29615D01*
X55481Y-29587D01*
X55500Y-29532D01*
X55533Y-29611D01*
X55652Y-29730D01*
X55302Y-29730D01*
X55315Y-29685D01*
X55000Y-29370D01*
X54684Y-29685D01*
X54697Y-29730D01*
X54516Y-29730D01*
X54549Y-29649D01*
X54550Y-29596D01*
X54614Y-29615D01*
X54929Y-29300D01*
X54614Y-28984D01*
X54550Y-29003D01*
X54550Y-28950D01*
X54512Y-28858D01*
X54441Y-28788D01*
X54349Y-28750D01*
X54250Y-28749D01*
X53650Y-28749D01*
X53558Y-28787D01*
X53488Y-28858D01*
X53450Y-28950D01*
X53449Y-29049D01*
X53449Y-29649D01*
X53483Y-29730D01*
X51269Y-29730D01*
X51269Y-28249D01*
X52249Y-28249D01*
X52341Y-28211D01*
X52411Y-28141D01*
X52449Y-28049D01*
X52449Y-28000D01*
X52550Y-28000D01*
X52550Y-27999D01*
X52664Y-27977D01*
X52664Y-27977D01*
X52742Y-27924D01*
X52834Y-27925D01*
X52990Y-27860D01*
X53110Y-27741D01*
X53174Y-27584D01*
X53175Y-27499D01*
X53288Y-27385D01*
X53415Y-27385D01*
X53507Y-27347D01*
X53577Y-27277D01*
X53615Y-27185D01*
X53615Y-27086D01*
X53615Y-26814D01*
X53589Y-26749D01*
X53615Y-26685D01*
X53615Y-26586D01*
X53615Y-26314D01*
X53609Y-26300D01*
X55798Y-26300D01*
X55808Y-26310D01*
X55965Y-26374D01*
X56134Y-26375D01*
X56290Y-26310D01*
X56410Y-26191D01*
X56459Y-26072D01*
X56459Y-26185D01*
X56485Y-26250D01*
X56459Y-26314D01*
X56459Y-26413D01*
X56459Y-26685D01*
X56485Y-26750D01*
X56459Y-26814D01*
X56459Y-26913D01*
X56459Y-27185D01*
X56497Y-27277D01*
X56567Y-27347D01*
X56659Y-27385D01*
X56758Y-27385D01*
X57290Y-27385D01*
X57382Y-27347D01*
X57452Y-27277D01*
X57490Y-27185D01*
X57490Y-27086D01*
X57490Y-26814D01*
X57464Y-26749D01*
X57490Y-26685D01*
X57490Y-26586D01*
X57490Y-26314D01*
X57464Y-26249D01*
X57490Y-26185D01*
X57490Y-26086D01*
X57490Y-25814D01*
X57464Y-25749D01*
X57490Y-25685D01*
X57490Y-25586D01*
X57490Y-25314D01*
X57452Y-25222D01*
X57382Y-25152D01*
X57290Y-25114D01*
X57191Y-25114D01*
X56659Y-25114D01*
X56567Y-25152D01*
X56497Y-25222D01*
X56459Y-25314D01*
X56459Y-25413D01*
X56459Y-25685D01*
X56485Y-25750D01*
X56459Y-25814D01*
X56459Y-25827D01*
X56410Y-25709D01*
X56291Y-25589D01*
X56134Y-25525D01*
X55965Y-25524D01*
X55809Y-25589D01*
X55698Y-25700D01*
X53609Y-25700D01*
X53615Y-25685D01*
X53615Y-25586D01*
X53615Y-25314D01*
X53577Y-25222D01*
X53507Y-25152D01*
X53415Y-25114D01*
X53316Y-25114D01*
X52784Y-25114D01*
X52692Y-25152D01*
X52622Y-25222D01*
X52584Y-25314D01*
X52584Y-25413D01*
X52584Y-25685D01*
X52590Y-25700D01*
X52450Y-25700D01*
X52450Y-25351D01*
X52412Y-25259D01*
X52352Y-25199D01*
X52411Y-25141D01*
X52449Y-25049D01*
X52450Y-24949D01*
X52450Y-24351D01*
X52412Y-24259D01*
X52341Y-24188D01*
X52249Y-24150D01*
X52150Y-24150D01*
X51269Y-24150D01*
X51269Y-23869D01*
X58730Y-23869D01*
X58730Y-24150D01*
X57750Y-24150D01*
X57658Y-24188D01*
X57588Y-24258D01*
X57550Y-24350D01*
X57549Y-24450D01*
X57549Y-25048D01*
X57587Y-25140D01*
X57647Y-25200D01*
X57588Y-25258D01*
X57550Y-25350D01*
X57549Y-25450D01*
X57549Y-26048D01*
X57587Y-26140D01*
X57647Y-26200D01*
X57588Y-26258D01*
X57550Y-26350D01*
X57549Y-26450D01*
X57549Y-27048D01*
X57587Y-27140D01*
X57647Y-27200D01*
X57588Y-27258D01*
X57550Y-27350D01*
X57549Y-27450D01*
X57549Y-28048D01*
X57587Y-28140D01*
X57658Y-28211D01*
X57750Y-28249D01*
X57849Y-28249D01*
X58730Y-28249D01*
X58730Y-29730D01*
X58730Y-29730D01*
G37*
G54D16*
X58730Y-29730D02*
X56347Y-29730D01*
X56465Y-29611D01*
X56549Y-29409D01*
X56550Y-29191D01*
X56466Y-28988D01*
X56311Y-28834D01*
X56109Y-28750D01*
X55891Y-28749D01*
X55688Y-28833D01*
X55534Y-28988D01*
X55502Y-29063D01*
X55481Y-29012D01*
X55385Y-28984D01*
X55315Y-29055D01*
X55315Y-28914D01*
X55287Y-28818D01*
X55081Y-28745D01*
X54863Y-28756D01*
X54712Y-28818D01*
X54684Y-28914D01*
X55000Y-29229D01*
X55315Y-28914D01*
X55315Y-29055D01*
X55070Y-29300D01*
X55385Y-29615D01*
X55481Y-29587D01*
X55500Y-29532D01*
X55533Y-29611D01*
X55652Y-29730D01*
X55302Y-29730D01*
X55315Y-29685D01*
X55000Y-29370D01*
X54684Y-29685D01*
X54697Y-29730D01*
X54516Y-29730D01*
X54549Y-29649D01*
X54550Y-29596D01*
X54614Y-29615D01*
X54929Y-29300D01*
X54614Y-28984D01*
X54550Y-29003D01*
X54550Y-28950D01*
X54512Y-28858D01*
X54441Y-28788D01*
X54349Y-28750D01*
X54250Y-28749D01*
X53650Y-28749D01*
X53558Y-28787D01*
X53488Y-28858D01*
X53450Y-28950D01*
X53449Y-29049D01*
X53449Y-29649D01*
X53483Y-29730D01*
X51269Y-29730D01*
X51269Y-28249D01*
X52249Y-28249D01*
X52341Y-28211D01*
X52411Y-28141D01*
X52449Y-28049D01*
X52449Y-28000D01*
X52550Y-28000D01*
X52550Y-27999D01*
X52664Y-27977D01*
X52664Y-27977D01*
X52742Y-27924D01*
X52834Y-27925D01*
X52990Y-27860D01*
X53110Y-27741D01*
X53174Y-27584D01*
X53175Y-27499D01*
X53288Y-27385D01*
X53415Y-27385D01*
X53507Y-27347D01*
X53577Y-27277D01*
X53615Y-27185D01*
X53615Y-27086D01*
X53615Y-26814D01*
X53589Y-26749D01*
X53615Y-26685D01*
X53615Y-26586D01*
X53615Y-26314D01*
X53609Y-26300D01*
X55798Y-26300D01*
X55808Y-26310D01*
X55965Y-26374D01*
X56134Y-26375D01*
X56290Y-26310D01*
X56410Y-26191D01*
X56459Y-26072D01*
X56459Y-26185D01*
X56485Y-26250D01*
X56459Y-26314D01*
X56459Y-26413D01*
X56459Y-26685D01*
X56485Y-26750D01*
X56459Y-26814D01*
X56459Y-26913D01*
X56459Y-27185D01*
X56497Y-27277D01*
X56567Y-27347D01*
X56659Y-27385D01*
X56758Y-27385D01*
X57290Y-27385D01*
X57382Y-27347D01*
X57452Y-27277D01*
X57490Y-27185D01*
X57490Y-27086D01*
X57490Y-26814D01*
X57464Y-26749D01*
X57490Y-26685D01*
X57490Y-26586D01*
X57490Y-26314D01*
X57464Y-26249D01*
X57490Y-26185D01*
X57490Y-26086D01*
X57490Y-25814D01*
X57464Y-25749D01*
X57490Y-25685D01*
X57490Y-25586D01*
X57490Y-25314D01*
X57452Y-25222D01*
X57382Y-25152D01*
X57290Y-25114D01*
X57191Y-25114D01*
X56659Y-25114D01*
X56567Y-25152D01*
X56497Y-25222D01*
X56459Y-25314D01*
X56459Y-25413D01*
X56459Y-25685D01*
X56485Y-25750D01*
X56459Y-25814D01*
X56459Y-25827D01*
X56410Y-25709D01*
X56291Y-25589D01*
X56134Y-25525D01*
X55965Y-25524D01*
X55809Y-25589D01*
X55698Y-25700D01*
X53609Y-25700D01*
X53615Y-25685D01*
X53615Y-25586D01*
X53615Y-25314D01*
X53577Y-25222D01*
X53507Y-25152D01*
X53415Y-25114D01*
X53316Y-25114D01*
X52784Y-25114D01*
X52692Y-25152D01*
X52622Y-25222D01*
X52584Y-25314D01*
X52584Y-25413D01*
X52584Y-25685D01*
X52590Y-25700D01*
X52450Y-25700D01*
X52450Y-25351D01*
X52412Y-25259D01*
X52352Y-25199D01*
X52411Y-25141D01*
X52449Y-25049D01*
X52450Y-24949D01*
X52450Y-24351D01*
X52412Y-24259D01*
X52341Y-24188D01*
X52249Y-24150D01*
X52150Y-24150D01*
X51269Y-24150D01*
X51269Y-23869D01*
X58730Y-23869D01*
X58730Y-24150D01*
X57750Y-24150D01*
X57658Y-24188D01*
X57588Y-24258D01*
X57550Y-24350D01*
X57549Y-24450D01*
X57549Y-25048D01*
X57587Y-25140D01*
X57647Y-25200D01*
X57588Y-25258D01*
X57550Y-25350D01*
X57549Y-25450D01*
X57549Y-26048D01*
X57587Y-26140D01*
X57647Y-26200D01*
X57588Y-26258D01*
X57550Y-26350D01*
X57549Y-26450D01*
X57549Y-27048D01*
X57587Y-27140D01*
X57647Y-27200D01*
X57588Y-27258D01*
X57550Y-27350D01*
X57549Y-27450D01*
X57549Y-28048D01*
X57587Y-28140D01*
X57658Y-28211D01*
X57750Y-28249D01*
X57849Y-28249D01*
X58730Y-28249D01*
X58730Y-29730D01*
M02*
