G04 (created by PCBNEW (2013-07-07 BZR 4022)-stable) date 02/05/2014 07:12:38*
%MOIN*%
G04 Gerber Fmt 3.4, Leading zero omitted, Abs format*
%FSLAX34Y34*%
G01*
G70*
G90*
G04 APERTURE LIST*
%ADD10C,0.00590551*%
%ADD11C,0.005*%
G04 APERTURE END LIST*
G54D10*
G54D11*
X77766Y-39808D02*
X77799Y-39791D01*
X77849Y-39791D01*
X77899Y-39808D01*
X77933Y-39841D01*
X77949Y-39875D01*
X77966Y-39941D01*
X77966Y-39991D01*
X77949Y-40058D01*
X77933Y-40091D01*
X77899Y-40125D01*
X77849Y-40141D01*
X77816Y-40141D01*
X77766Y-40125D01*
X77749Y-40108D01*
X77749Y-39991D01*
X77816Y-39991D01*
X77599Y-40141D02*
X77599Y-39791D01*
X77399Y-40141D01*
X77399Y-39791D01*
X77233Y-40141D02*
X77233Y-39791D01*
X77150Y-39791D01*
X77100Y-39808D01*
X77066Y-39841D01*
X77050Y-39875D01*
X77033Y-39941D01*
X77033Y-39991D01*
X77050Y-40058D01*
X77066Y-40091D01*
X77100Y-40125D01*
X77150Y-40141D01*
X77233Y-40141D01*
X77566Y-40871D02*
X77733Y-40871D01*
X77750Y-41038D01*
X77733Y-41021D01*
X77700Y-41005D01*
X77616Y-41005D01*
X77583Y-41021D01*
X77566Y-41038D01*
X77550Y-41071D01*
X77550Y-41155D01*
X77566Y-41188D01*
X77583Y-41205D01*
X77616Y-41221D01*
X77700Y-41221D01*
X77733Y-41205D01*
X77750Y-41188D01*
X77449Y-40871D02*
X77333Y-41221D01*
X77216Y-40871D01*
X66266Y-47308D02*
X66299Y-47291D01*
X66349Y-47291D01*
X66399Y-47308D01*
X66433Y-47341D01*
X66449Y-47375D01*
X66466Y-47441D01*
X66466Y-47491D01*
X66449Y-47558D01*
X66433Y-47591D01*
X66399Y-47625D01*
X66349Y-47641D01*
X66316Y-47641D01*
X66266Y-47625D01*
X66249Y-47608D01*
X66249Y-47491D01*
X66316Y-47491D01*
X66099Y-47641D02*
X66099Y-47291D01*
X65899Y-47641D01*
X65899Y-47291D01*
X65733Y-47641D02*
X65733Y-47291D01*
X65650Y-47291D01*
X65600Y-47308D01*
X65566Y-47341D01*
X65550Y-47375D01*
X65533Y-47441D01*
X65533Y-47491D01*
X65550Y-47558D01*
X65566Y-47591D01*
X65600Y-47625D01*
X65650Y-47641D01*
X65733Y-47641D01*
X66258Y-48538D02*
X66208Y-48555D01*
X66191Y-48571D01*
X66174Y-48605D01*
X66174Y-48655D01*
X66191Y-48688D01*
X66208Y-48705D01*
X66241Y-48721D01*
X66374Y-48721D01*
X66374Y-48371D01*
X66258Y-48371D01*
X66224Y-48388D01*
X66208Y-48405D01*
X66191Y-48438D01*
X66191Y-48471D01*
X66208Y-48505D01*
X66224Y-48521D01*
X66258Y-48538D01*
X66374Y-48538D01*
X66041Y-48621D02*
X65874Y-48621D01*
X66074Y-48721D02*
X65958Y-48371D01*
X65841Y-48721D01*
X65774Y-48371D02*
X65574Y-48371D01*
X65674Y-48721D02*
X65674Y-48371D01*
X78673Y-45892D02*
X78616Y-45911D01*
X78521Y-45911D01*
X78483Y-45892D01*
X78464Y-45873D01*
X78445Y-45835D01*
X78445Y-45797D01*
X78464Y-45759D01*
X78483Y-45740D01*
X78521Y-45721D01*
X78597Y-45702D01*
X78635Y-45683D01*
X78654Y-45664D01*
X78673Y-45626D01*
X78673Y-45588D01*
X78654Y-45550D01*
X78635Y-45530D01*
X78597Y-45511D01*
X78502Y-45511D01*
X78445Y-45530D01*
X78311Y-45645D02*
X78235Y-45911D01*
X78159Y-45721D01*
X78083Y-45911D01*
X78007Y-45645D01*
X77854Y-45911D02*
X77854Y-45645D01*
X77854Y-45511D02*
X77873Y-45530D01*
X77854Y-45550D01*
X77835Y-45530D01*
X77854Y-45511D01*
X77854Y-45550D01*
X77721Y-45645D02*
X77569Y-45645D01*
X77664Y-45511D02*
X77664Y-45854D01*
X77645Y-45892D01*
X77607Y-45911D01*
X77569Y-45911D01*
X77264Y-45892D02*
X77302Y-45911D01*
X77378Y-45911D01*
X77416Y-45892D01*
X77435Y-45873D01*
X77454Y-45835D01*
X77454Y-45721D01*
X77435Y-45683D01*
X77416Y-45664D01*
X77378Y-45645D01*
X77302Y-45645D01*
X77264Y-45664D01*
X77092Y-45911D02*
X77092Y-45511D01*
X76921Y-45911D02*
X76921Y-45702D01*
X76940Y-45664D01*
X76978Y-45645D01*
X77035Y-45645D01*
X77073Y-45664D01*
X77092Y-45683D01*
X76730Y-45911D02*
X76730Y-45645D01*
X76730Y-45511D02*
X76750Y-45530D01*
X76730Y-45550D01*
X76711Y-45530D01*
X76730Y-45511D01*
X76730Y-45550D01*
X76540Y-45645D02*
X76540Y-45911D01*
X76540Y-45683D02*
X76521Y-45664D01*
X76483Y-45645D01*
X76426Y-45645D01*
X76388Y-45664D01*
X76369Y-45702D01*
X76369Y-45911D01*
X76007Y-45645D02*
X76007Y-45969D01*
X76026Y-46007D01*
X76045Y-46026D01*
X76083Y-46045D01*
X76140Y-46045D01*
X76178Y-46026D01*
X76007Y-45892D02*
X76045Y-45911D01*
X76121Y-45911D01*
X76159Y-45892D01*
X76178Y-45873D01*
X76197Y-45835D01*
X76197Y-45721D01*
X76178Y-45683D01*
X76159Y-45664D01*
X76121Y-45645D01*
X76045Y-45645D01*
X76007Y-45664D01*
X75511Y-45911D02*
X75511Y-45511D01*
X75511Y-45664D02*
X75473Y-45645D01*
X75397Y-45645D01*
X75359Y-45664D01*
X75340Y-45683D01*
X75321Y-45721D01*
X75321Y-45835D01*
X75340Y-45873D01*
X75359Y-45892D01*
X75397Y-45911D01*
X75473Y-45911D01*
X75511Y-45892D01*
X74978Y-45645D02*
X74978Y-45911D01*
X75150Y-45645D02*
X75150Y-45854D01*
X75130Y-45892D01*
X75092Y-45911D01*
X75035Y-45911D01*
X74997Y-45892D01*
X74978Y-45873D01*
X74616Y-45892D02*
X74654Y-45911D01*
X74730Y-45911D01*
X74769Y-45892D01*
X74788Y-45873D01*
X74807Y-45835D01*
X74807Y-45721D01*
X74788Y-45683D01*
X74769Y-45664D01*
X74730Y-45645D01*
X74654Y-45645D01*
X74616Y-45664D01*
X74445Y-45911D02*
X74445Y-45511D01*
X74407Y-45759D02*
X74292Y-45911D01*
X74292Y-45645D02*
X74445Y-45797D01*
X73816Y-45911D02*
X73816Y-45645D01*
X73816Y-45721D02*
X73797Y-45683D01*
X73778Y-45664D01*
X73740Y-45645D01*
X73702Y-45645D01*
X73416Y-45892D02*
X73454Y-45911D01*
X73530Y-45911D01*
X73569Y-45892D01*
X73588Y-45854D01*
X73588Y-45702D01*
X73569Y-45664D01*
X73530Y-45645D01*
X73454Y-45645D01*
X73416Y-45664D01*
X73397Y-45702D01*
X73397Y-45740D01*
X73588Y-45778D01*
X73054Y-45645D02*
X73054Y-45969D01*
X73073Y-46007D01*
X73092Y-46026D01*
X73130Y-46045D01*
X73188Y-46045D01*
X73226Y-46026D01*
X73054Y-45892D02*
X73092Y-45911D01*
X73169Y-45911D01*
X73207Y-45892D01*
X73226Y-45873D01*
X73245Y-45835D01*
X73245Y-45721D01*
X73226Y-45683D01*
X73207Y-45664D01*
X73169Y-45645D01*
X73092Y-45645D01*
X73054Y-45664D01*
X72692Y-45645D02*
X72692Y-45911D01*
X72864Y-45645D02*
X72864Y-45854D01*
X72845Y-45892D01*
X72807Y-45911D01*
X72750Y-45911D01*
X72711Y-45892D01*
X72692Y-45873D01*
X72445Y-45911D02*
X72483Y-45892D01*
X72502Y-45854D01*
X72502Y-45511D01*
X72121Y-45911D02*
X72121Y-45702D01*
X72140Y-45664D01*
X72178Y-45645D01*
X72254Y-45645D01*
X72292Y-45664D01*
X72121Y-45892D02*
X72159Y-45911D01*
X72254Y-45911D01*
X72292Y-45892D01*
X72311Y-45854D01*
X72311Y-45816D01*
X72292Y-45778D01*
X72254Y-45759D01*
X72159Y-45759D01*
X72121Y-45740D01*
X71988Y-45645D02*
X71835Y-45645D01*
X71930Y-45511D02*
X71930Y-45854D01*
X71911Y-45892D01*
X71873Y-45911D01*
X71835Y-45911D01*
X71645Y-45911D02*
X71683Y-45892D01*
X71702Y-45873D01*
X71721Y-45835D01*
X71721Y-45721D01*
X71702Y-45683D01*
X71683Y-45664D01*
X71645Y-45645D01*
X71588Y-45645D01*
X71550Y-45664D01*
X71530Y-45683D01*
X71511Y-45721D01*
X71511Y-45835D01*
X71530Y-45873D01*
X71550Y-45892D01*
X71588Y-45911D01*
X71645Y-45911D01*
X71340Y-45911D02*
X71340Y-45645D01*
X71340Y-45721D02*
X71321Y-45683D01*
X71302Y-45664D01*
X71264Y-45645D01*
X71226Y-45645D01*
X70616Y-45911D02*
X70616Y-45702D01*
X70635Y-45664D01*
X70673Y-45645D01*
X70750Y-45645D01*
X70788Y-45664D01*
X70616Y-45892D02*
X70654Y-45911D01*
X70750Y-45911D01*
X70788Y-45892D01*
X70807Y-45854D01*
X70807Y-45816D01*
X70788Y-45778D01*
X70750Y-45759D01*
X70654Y-45759D01*
X70616Y-45740D01*
X70426Y-45645D02*
X70426Y-46045D01*
X70426Y-45664D02*
X70388Y-45645D01*
X70311Y-45645D01*
X70273Y-45664D01*
X70254Y-45683D01*
X70235Y-45721D01*
X70235Y-45835D01*
X70254Y-45873D01*
X70273Y-45892D01*
X70311Y-45911D01*
X70388Y-45911D01*
X70426Y-45892D01*
X70064Y-45911D02*
X70064Y-45645D01*
X70064Y-45721D02*
X70045Y-45683D01*
X70026Y-45664D01*
X69988Y-45645D01*
X69950Y-45645D01*
X69759Y-45911D02*
X69797Y-45892D01*
X69816Y-45873D01*
X69835Y-45835D01*
X69835Y-45721D01*
X69816Y-45683D01*
X69797Y-45664D01*
X69759Y-45645D01*
X69702Y-45645D01*
X69664Y-45664D01*
X69645Y-45683D01*
X69626Y-45721D01*
X69626Y-45835D01*
X69645Y-45873D01*
X69664Y-45892D01*
X69702Y-45911D01*
X69759Y-45911D01*
X69492Y-45911D02*
X69283Y-45645D01*
X69492Y-45645D02*
X69283Y-45911D01*
X68769Y-45683D02*
X68807Y-45664D01*
X68826Y-45645D01*
X68845Y-45607D01*
X68845Y-45588D01*
X68826Y-45550D01*
X68807Y-45530D01*
X68769Y-45511D01*
X68692Y-45511D01*
X68654Y-45530D01*
X68635Y-45550D01*
X68616Y-45588D01*
X68616Y-45607D01*
X68635Y-45645D01*
X68654Y-45664D01*
X68692Y-45683D01*
X68769Y-45683D01*
X68807Y-45702D01*
X68826Y-45721D01*
X68845Y-45759D01*
X68845Y-45835D01*
X68826Y-45873D01*
X68807Y-45892D01*
X68769Y-45911D01*
X68692Y-45911D01*
X68654Y-45892D01*
X68635Y-45873D01*
X68616Y-45835D01*
X68616Y-45759D01*
X68635Y-45721D01*
X68654Y-45702D01*
X68692Y-45683D01*
X68369Y-45511D02*
X68330Y-45511D01*
X68292Y-45530D01*
X68273Y-45550D01*
X68254Y-45588D01*
X68235Y-45664D01*
X68235Y-45759D01*
X68254Y-45835D01*
X68273Y-45873D01*
X68292Y-45892D01*
X68330Y-45911D01*
X68369Y-45911D01*
X68407Y-45892D01*
X68426Y-45873D01*
X68445Y-45835D01*
X68464Y-45759D01*
X68464Y-45664D01*
X68445Y-45588D01*
X68426Y-45550D01*
X68407Y-45530D01*
X68369Y-45511D01*
X68083Y-45911D02*
X67778Y-45511D01*
X68026Y-45511D02*
X67988Y-45530D01*
X67969Y-45569D01*
X67988Y-45607D01*
X68026Y-45626D01*
X68064Y-45607D01*
X68083Y-45569D01*
X68064Y-45530D01*
X68026Y-45511D01*
X67797Y-45892D02*
X67778Y-45854D01*
X67797Y-45816D01*
X67835Y-45797D01*
X67873Y-45816D01*
X67892Y-45854D01*
X67873Y-45892D01*
X67835Y-45911D01*
X67797Y-45892D01*
X67150Y-45892D02*
X67188Y-45911D01*
X67264Y-45911D01*
X67302Y-45892D01*
X67321Y-45854D01*
X67321Y-45702D01*
X67302Y-45664D01*
X67264Y-45645D01*
X67188Y-45645D01*
X67150Y-45664D01*
X67130Y-45702D01*
X67130Y-45740D01*
X67321Y-45778D01*
X67016Y-45645D02*
X66864Y-45645D01*
X66959Y-45911D02*
X66959Y-45569D01*
X66940Y-45530D01*
X66902Y-45511D01*
X66864Y-45511D01*
X66788Y-45645D02*
X66635Y-45645D01*
X66730Y-45911D02*
X66730Y-45569D01*
X66711Y-45530D01*
X66673Y-45511D01*
X66635Y-45511D01*
X78654Y-46521D02*
X78654Y-46121D01*
X78464Y-46255D02*
X78464Y-46521D01*
X78464Y-46293D02*
X78445Y-46274D01*
X78407Y-46255D01*
X78350Y-46255D01*
X78311Y-46274D01*
X78292Y-46312D01*
X78292Y-46521D01*
X78102Y-46255D02*
X78102Y-46655D01*
X78102Y-46274D02*
X78064Y-46255D01*
X77988Y-46255D01*
X77950Y-46274D01*
X77930Y-46293D01*
X77911Y-46331D01*
X77911Y-46445D01*
X77930Y-46483D01*
X77950Y-46502D01*
X77988Y-46521D01*
X78064Y-46521D01*
X78102Y-46502D01*
X77569Y-46255D02*
X77569Y-46521D01*
X77740Y-46255D02*
X77740Y-46464D01*
X77721Y-46502D01*
X77683Y-46521D01*
X77626Y-46521D01*
X77588Y-46502D01*
X77569Y-46483D01*
X77435Y-46255D02*
X77283Y-46255D01*
X77378Y-46121D02*
X77378Y-46464D01*
X77359Y-46502D01*
X77321Y-46521D01*
X77283Y-46521D01*
X76883Y-46121D02*
X76616Y-46121D01*
X76788Y-46521D01*
X76521Y-46121D02*
X76388Y-46521D01*
X76254Y-46121D01*
X75873Y-46255D02*
X75721Y-46255D01*
X75816Y-46121D02*
X75816Y-46464D01*
X75797Y-46502D01*
X75759Y-46521D01*
X75721Y-46521D01*
X75530Y-46521D02*
X75569Y-46502D01*
X75588Y-46483D01*
X75607Y-46445D01*
X75607Y-46331D01*
X75588Y-46293D01*
X75569Y-46274D01*
X75530Y-46255D01*
X75473Y-46255D01*
X75435Y-46274D01*
X75416Y-46293D01*
X75397Y-46331D01*
X75397Y-46445D01*
X75416Y-46483D01*
X75435Y-46502D01*
X75473Y-46521D01*
X75530Y-46521D01*
X74711Y-46521D02*
X74940Y-46521D01*
X74826Y-46521D02*
X74826Y-46121D01*
X74864Y-46179D01*
X74902Y-46217D01*
X74940Y-46236D01*
X74483Y-46293D02*
X74521Y-46274D01*
X74540Y-46255D01*
X74559Y-46217D01*
X74559Y-46198D01*
X74540Y-46160D01*
X74521Y-46140D01*
X74483Y-46121D01*
X74407Y-46121D01*
X74369Y-46140D01*
X74350Y-46160D01*
X74330Y-46198D01*
X74330Y-46217D01*
X74350Y-46255D01*
X74369Y-46274D01*
X74407Y-46293D01*
X74483Y-46293D01*
X74521Y-46312D01*
X74540Y-46331D01*
X74559Y-46369D01*
X74559Y-46445D01*
X74540Y-46483D01*
X74521Y-46502D01*
X74483Y-46521D01*
X74407Y-46521D01*
X74369Y-46502D01*
X74350Y-46483D01*
X74330Y-46445D01*
X74330Y-46369D01*
X74350Y-46331D01*
X74369Y-46312D01*
X74407Y-46293D01*
X74216Y-46121D02*
X74083Y-46521D01*
X73950Y-46121D01*
X73340Y-46502D02*
X73378Y-46521D01*
X73454Y-46521D01*
X73492Y-46502D01*
X73511Y-46483D01*
X73530Y-46445D01*
X73530Y-46331D01*
X73511Y-46293D01*
X73492Y-46274D01*
X73454Y-46255D01*
X73378Y-46255D01*
X73340Y-46274D01*
X73111Y-46521D02*
X73150Y-46502D01*
X73169Y-46483D01*
X73188Y-46445D01*
X73188Y-46331D01*
X73169Y-46293D01*
X73150Y-46274D01*
X73111Y-46255D01*
X73054Y-46255D01*
X73016Y-46274D01*
X72997Y-46293D01*
X72978Y-46331D01*
X72978Y-46445D01*
X72997Y-46483D01*
X73016Y-46502D01*
X73054Y-46521D01*
X73111Y-46521D01*
X72807Y-46255D02*
X72807Y-46521D01*
X72807Y-46293D02*
X72788Y-46274D01*
X72750Y-46255D01*
X72692Y-46255D01*
X72654Y-46274D01*
X72635Y-46312D01*
X72635Y-46521D01*
X72502Y-46255D02*
X72350Y-46255D01*
X72445Y-46121D02*
X72445Y-46464D01*
X72426Y-46502D01*
X72388Y-46521D01*
X72350Y-46521D01*
X72216Y-46521D02*
X72216Y-46255D01*
X72216Y-46121D02*
X72235Y-46140D01*
X72216Y-46160D01*
X72197Y-46140D01*
X72216Y-46121D01*
X72216Y-46160D01*
X72026Y-46255D02*
X72026Y-46521D01*
X72026Y-46293D02*
X72007Y-46274D01*
X71969Y-46255D01*
X71911Y-46255D01*
X71873Y-46274D01*
X71854Y-46312D01*
X71854Y-46521D01*
X71664Y-46521D02*
X71664Y-46255D01*
X71664Y-46121D02*
X71683Y-46140D01*
X71664Y-46160D01*
X71645Y-46140D01*
X71664Y-46121D01*
X71664Y-46160D01*
X71416Y-46521D02*
X71454Y-46502D01*
X71473Y-46483D01*
X71492Y-46445D01*
X71492Y-46331D01*
X71473Y-46293D01*
X71454Y-46274D01*
X71416Y-46255D01*
X71359Y-46255D01*
X71321Y-46274D01*
X71302Y-46293D01*
X71283Y-46331D01*
X71283Y-46445D01*
X71302Y-46483D01*
X71321Y-46502D01*
X71359Y-46521D01*
X71416Y-46521D01*
X70940Y-46255D02*
X70940Y-46521D01*
X71111Y-46255D02*
X71111Y-46464D01*
X71092Y-46502D01*
X71054Y-46521D01*
X70997Y-46521D01*
X70959Y-46502D01*
X70940Y-46483D01*
X70769Y-46502D02*
X70730Y-46521D01*
X70654Y-46521D01*
X70616Y-46502D01*
X70597Y-46464D01*
X70597Y-46445D01*
X70616Y-46407D01*
X70654Y-46388D01*
X70711Y-46388D01*
X70750Y-46369D01*
X70769Y-46331D01*
X70769Y-46312D01*
X70750Y-46274D01*
X70711Y-46255D01*
X70654Y-46255D01*
X70616Y-46274D01*
X70159Y-46121D02*
X69911Y-46121D01*
X70045Y-46274D01*
X69988Y-46274D01*
X69950Y-46293D01*
X69930Y-46312D01*
X69911Y-46350D01*
X69911Y-46445D01*
X69930Y-46483D01*
X69950Y-46502D01*
X69988Y-46521D01*
X70102Y-46521D01*
X70140Y-46502D01*
X70159Y-46483D01*
X69740Y-46483D02*
X69721Y-46502D01*
X69740Y-46521D01*
X69759Y-46502D01*
X69740Y-46483D01*
X69740Y-46521D01*
X69359Y-46121D02*
X69550Y-46121D01*
X69569Y-46312D01*
X69550Y-46293D01*
X69511Y-46274D01*
X69416Y-46274D01*
X69378Y-46293D01*
X69359Y-46312D01*
X69340Y-46350D01*
X69340Y-46445D01*
X69359Y-46483D01*
X69378Y-46502D01*
X69416Y-46521D01*
X69511Y-46521D01*
X69550Y-46502D01*
X69569Y-46483D01*
X69188Y-46407D02*
X68997Y-46407D01*
X69226Y-46521D02*
X69092Y-46121D01*
X68959Y-46521D01*
X68521Y-46521D02*
X68521Y-46255D01*
X68521Y-46293D02*
X68502Y-46274D01*
X68464Y-46255D01*
X68407Y-46255D01*
X68369Y-46274D01*
X68350Y-46312D01*
X68350Y-46521D01*
X68350Y-46312D02*
X68330Y-46274D01*
X68292Y-46255D01*
X68235Y-46255D01*
X68197Y-46274D01*
X68178Y-46312D01*
X68178Y-46521D01*
X67816Y-46521D02*
X67816Y-46312D01*
X67835Y-46274D01*
X67873Y-46255D01*
X67950Y-46255D01*
X67988Y-46274D01*
X67816Y-46502D02*
X67854Y-46521D01*
X67950Y-46521D01*
X67988Y-46502D01*
X68007Y-46464D01*
X68007Y-46426D01*
X67988Y-46388D01*
X67950Y-46369D01*
X67854Y-46369D01*
X67816Y-46350D01*
X67664Y-46521D02*
X67454Y-46255D01*
X67664Y-46255D02*
X67454Y-46521D01*
X78654Y-46865D02*
X78654Y-47265D01*
X78654Y-46884D02*
X78616Y-46865D01*
X78540Y-46865D01*
X78502Y-46884D01*
X78483Y-46903D01*
X78464Y-46941D01*
X78464Y-47055D01*
X78483Y-47093D01*
X78502Y-47112D01*
X78540Y-47131D01*
X78616Y-47131D01*
X78654Y-47112D01*
X78140Y-47112D02*
X78178Y-47131D01*
X78254Y-47131D01*
X78292Y-47112D01*
X78311Y-47074D01*
X78311Y-46922D01*
X78292Y-46884D01*
X78254Y-46865D01*
X78178Y-46865D01*
X78140Y-46884D01*
X78121Y-46922D01*
X78121Y-46960D01*
X78311Y-46998D01*
X77778Y-47131D02*
X77778Y-46922D01*
X77797Y-46884D01*
X77835Y-46865D01*
X77911Y-46865D01*
X77950Y-46884D01*
X77778Y-47112D02*
X77816Y-47131D01*
X77911Y-47131D01*
X77950Y-47112D01*
X77969Y-47074D01*
X77969Y-47036D01*
X77950Y-46998D01*
X77911Y-46979D01*
X77816Y-46979D01*
X77778Y-46960D01*
X77588Y-47131D02*
X77588Y-46731D01*
X77550Y-46979D02*
X77435Y-47131D01*
X77435Y-46865D02*
X77588Y-47017D01*
X76750Y-47131D02*
X76978Y-47131D01*
X76864Y-47131D02*
X76864Y-46731D01*
X76902Y-46789D01*
X76940Y-46827D01*
X76978Y-46846D01*
X76502Y-46731D02*
X76464Y-46731D01*
X76426Y-46750D01*
X76407Y-46770D01*
X76388Y-46808D01*
X76369Y-46884D01*
X76369Y-46979D01*
X76388Y-47055D01*
X76407Y-47093D01*
X76426Y-47112D01*
X76464Y-47131D01*
X76502Y-47131D01*
X76540Y-47112D01*
X76559Y-47093D01*
X76578Y-47055D01*
X76597Y-46979D01*
X76597Y-46884D01*
X76578Y-46808D01*
X76559Y-46770D01*
X76540Y-46750D01*
X76502Y-46731D01*
X76121Y-46731D02*
X76083Y-46731D01*
X76045Y-46750D01*
X76026Y-46770D01*
X76007Y-46808D01*
X75988Y-46884D01*
X75988Y-46979D01*
X76007Y-47055D01*
X76026Y-47093D01*
X76045Y-47112D01*
X76083Y-47131D01*
X76121Y-47131D01*
X76159Y-47112D01*
X76178Y-47093D01*
X76197Y-47055D01*
X76216Y-46979D01*
X76216Y-46884D01*
X76197Y-46808D01*
X76178Y-46770D01*
X76159Y-46750D01*
X76121Y-46731D01*
X75873Y-46731D02*
X75740Y-47131D01*
X75607Y-46731D01*
X75226Y-46865D02*
X75073Y-46865D01*
X75169Y-47131D02*
X75169Y-46789D01*
X75150Y-46750D01*
X75111Y-46731D01*
X75073Y-46731D01*
X74883Y-47131D02*
X74921Y-47112D01*
X74940Y-47093D01*
X74959Y-47055D01*
X74959Y-46941D01*
X74940Y-46903D01*
X74921Y-46884D01*
X74883Y-46865D01*
X74826Y-46865D01*
X74788Y-46884D01*
X74769Y-46903D01*
X74750Y-46941D01*
X74750Y-47055D01*
X74769Y-47093D01*
X74788Y-47112D01*
X74826Y-47131D01*
X74883Y-47131D01*
X74578Y-47131D02*
X74578Y-46865D01*
X74578Y-46941D02*
X74559Y-46903D01*
X74540Y-46884D01*
X74502Y-46865D01*
X74464Y-46865D01*
X73854Y-46865D02*
X73854Y-47131D01*
X73950Y-46712D02*
X74045Y-46998D01*
X73797Y-46998D01*
X73569Y-46731D02*
X73530Y-46731D01*
X73492Y-46750D01*
X73473Y-46770D01*
X73454Y-46808D01*
X73435Y-46884D01*
X73435Y-46979D01*
X73454Y-47055D01*
X73473Y-47093D01*
X73492Y-47112D01*
X73530Y-47131D01*
X73569Y-47131D01*
X73607Y-47112D01*
X73626Y-47093D01*
X73645Y-47055D01*
X73664Y-46979D01*
X73664Y-46884D01*
X73645Y-46808D01*
X73626Y-46770D01*
X73607Y-46750D01*
X73569Y-46731D01*
X73264Y-47131D02*
X73264Y-46865D01*
X73264Y-46903D02*
X73245Y-46884D01*
X73207Y-46865D01*
X73150Y-46865D01*
X73111Y-46884D01*
X73092Y-46922D01*
X73092Y-47131D01*
X73092Y-46922D02*
X73073Y-46884D01*
X73035Y-46865D01*
X72978Y-46865D01*
X72940Y-46884D01*
X72921Y-46922D01*
X72921Y-47131D01*
X72750Y-47112D02*
X72692Y-47131D01*
X72597Y-47131D01*
X72559Y-47112D01*
X72540Y-47093D01*
X72521Y-47055D01*
X72521Y-47017D01*
X72540Y-46979D01*
X72559Y-46960D01*
X72597Y-46941D01*
X72673Y-46922D01*
X72711Y-46903D01*
X72730Y-46884D01*
X72750Y-46846D01*
X72750Y-46808D01*
X72730Y-46770D01*
X72711Y-46750D01*
X72673Y-46731D01*
X72578Y-46731D01*
X72521Y-46750D01*
X72045Y-46865D02*
X72045Y-47265D01*
X72045Y-46884D02*
X72007Y-46865D01*
X71930Y-46865D01*
X71892Y-46884D01*
X71873Y-46903D01*
X71854Y-46941D01*
X71854Y-47055D01*
X71873Y-47093D01*
X71892Y-47112D01*
X71930Y-47131D01*
X72007Y-47131D01*
X72045Y-47112D01*
X71530Y-47112D02*
X71569Y-47131D01*
X71645Y-47131D01*
X71683Y-47112D01*
X71702Y-47074D01*
X71702Y-46922D01*
X71683Y-46884D01*
X71645Y-46865D01*
X71569Y-46865D01*
X71530Y-46884D01*
X71511Y-46922D01*
X71511Y-46960D01*
X71702Y-46998D01*
X71340Y-47131D02*
X71340Y-46865D01*
X71340Y-46941D02*
X71321Y-46903D01*
X71302Y-46884D01*
X71264Y-46865D01*
X71226Y-46865D01*
X70788Y-47131D02*
X70788Y-46731D01*
X70616Y-47112D02*
X70559Y-47131D01*
X70464Y-47131D01*
X70426Y-47112D01*
X70407Y-47093D01*
X70388Y-47055D01*
X70388Y-47017D01*
X70407Y-46979D01*
X70426Y-46960D01*
X70464Y-46941D01*
X70540Y-46922D01*
X70578Y-46903D01*
X70597Y-46884D01*
X70616Y-46846D01*
X70616Y-46808D01*
X70597Y-46770D01*
X70578Y-46750D01*
X70540Y-46731D01*
X70445Y-46731D01*
X70388Y-46750D01*
X70140Y-46731D02*
X70064Y-46731D01*
X70026Y-46750D01*
X69988Y-46789D01*
X69969Y-46865D01*
X69969Y-46998D01*
X69988Y-47074D01*
X70026Y-47112D01*
X70064Y-47131D01*
X70140Y-47131D01*
X70178Y-47112D01*
X70216Y-47074D01*
X70235Y-46998D01*
X70235Y-46865D01*
X70216Y-46789D01*
X70178Y-46750D01*
X70140Y-46731D01*
X69530Y-46731D02*
X69264Y-46731D01*
X69435Y-47131D01*
X68940Y-46731D02*
X69016Y-46731D01*
X69054Y-46750D01*
X69073Y-46770D01*
X69111Y-46827D01*
X69130Y-46903D01*
X69130Y-47055D01*
X69111Y-47093D01*
X69092Y-47112D01*
X69054Y-47131D01*
X68978Y-47131D01*
X68940Y-47112D01*
X68921Y-47093D01*
X68902Y-47055D01*
X68902Y-46960D01*
X68921Y-46922D01*
X68940Y-46903D01*
X68978Y-46884D01*
X69054Y-46884D01*
X69092Y-46903D01*
X69111Y-46922D01*
X69130Y-46960D01*
X68769Y-46731D02*
X68521Y-46731D01*
X68654Y-46884D01*
X68597Y-46884D01*
X68559Y-46903D01*
X68540Y-46922D01*
X68521Y-46960D01*
X68521Y-47055D01*
X68540Y-47093D01*
X68559Y-47112D01*
X68597Y-47131D01*
X68711Y-47131D01*
X68750Y-47112D01*
X68769Y-47093D01*
X68388Y-46731D02*
X68121Y-46731D01*
X68292Y-47131D01*
X67969Y-46979D02*
X67664Y-46979D01*
X67492Y-46770D02*
X67473Y-46750D01*
X67435Y-46731D01*
X67340Y-46731D01*
X67302Y-46750D01*
X67283Y-46770D01*
X67264Y-46808D01*
X67264Y-46846D01*
X67283Y-46903D01*
X67511Y-47131D01*
X67264Y-47131D01*
X78578Y-47951D02*
X78502Y-47951D01*
X78464Y-47970D01*
X78426Y-48009D01*
X78407Y-48085D01*
X78407Y-48218D01*
X78426Y-48294D01*
X78464Y-48332D01*
X78502Y-48351D01*
X78578Y-48351D01*
X78616Y-48332D01*
X78654Y-48294D01*
X78673Y-48218D01*
X78673Y-48085D01*
X78654Y-48009D01*
X78616Y-47970D01*
X78578Y-47951D01*
X78064Y-48085D02*
X78064Y-48351D01*
X78235Y-48085D02*
X78235Y-48294D01*
X78216Y-48332D01*
X78178Y-48351D01*
X78121Y-48351D01*
X78083Y-48332D01*
X78064Y-48313D01*
X77930Y-48085D02*
X77778Y-48085D01*
X77873Y-47951D02*
X77873Y-48294D01*
X77854Y-48332D01*
X77816Y-48351D01*
X77778Y-48351D01*
X77645Y-48085D02*
X77645Y-48485D01*
X77645Y-48104D02*
X77607Y-48085D01*
X77530Y-48085D01*
X77492Y-48104D01*
X77473Y-48123D01*
X77454Y-48161D01*
X77454Y-48275D01*
X77473Y-48313D01*
X77492Y-48332D01*
X77530Y-48351D01*
X77607Y-48351D01*
X77645Y-48332D01*
X77111Y-48085D02*
X77111Y-48351D01*
X77283Y-48085D02*
X77283Y-48294D01*
X77264Y-48332D01*
X77226Y-48351D01*
X77169Y-48351D01*
X77130Y-48332D01*
X77111Y-48313D01*
X76978Y-48085D02*
X76826Y-48085D01*
X76921Y-47951D02*
X76921Y-48294D01*
X76902Y-48332D01*
X76864Y-48351D01*
X76826Y-48351D01*
X76216Y-48085D02*
X76216Y-48351D01*
X76311Y-47932D02*
X76407Y-48218D01*
X76159Y-48218D01*
X76007Y-48313D02*
X75988Y-48332D01*
X76007Y-48351D01*
X76026Y-48332D01*
X76007Y-48313D01*
X76007Y-48351D01*
X75854Y-47951D02*
X75588Y-48351D01*
X75588Y-47951D02*
X75854Y-48351D01*
X75473Y-47951D02*
X75207Y-48351D01*
X75207Y-47951D02*
X75473Y-48351D01*
X75111Y-47951D02*
X74978Y-48351D01*
X74845Y-47951D01*
X74464Y-48085D02*
X74311Y-48085D01*
X74407Y-47951D02*
X74407Y-48294D01*
X74388Y-48332D01*
X74350Y-48351D01*
X74311Y-48351D01*
X74121Y-48351D02*
X74159Y-48332D01*
X74178Y-48313D01*
X74197Y-48275D01*
X74197Y-48161D01*
X74178Y-48123D01*
X74159Y-48104D01*
X74121Y-48085D01*
X74064Y-48085D01*
X74026Y-48104D01*
X74007Y-48123D01*
X73988Y-48161D01*
X73988Y-48275D01*
X74007Y-48313D01*
X74026Y-48332D01*
X74064Y-48351D01*
X74121Y-48351D01*
X73321Y-47951D02*
X73511Y-47951D01*
X73530Y-48142D01*
X73511Y-48123D01*
X73473Y-48104D01*
X73378Y-48104D01*
X73340Y-48123D01*
X73321Y-48142D01*
X73302Y-48180D01*
X73302Y-48275D01*
X73321Y-48313D01*
X73340Y-48332D01*
X73378Y-48351D01*
X73473Y-48351D01*
X73511Y-48332D01*
X73530Y-48313D01*
X73130Y-48313D02*
X73111Y-48332D01*
X73130Y-48351D01*
X73150Y-48332D01*
X73130Y-48313D01*
X73130Y-48351D01*
X72978Y-47951D02*
X72711Y-48351D01*
X72711Y-47951D02*
X72978Y-48351D01*
X72597Y-47951D02*
X72330Y-48351D01*
X72330Y-47951D02*
X72597Y-48351D01*
X72235Y-47951D02*
X72102Y-48351D01*
X71969Y-47951D01*
X78483Y-48961D02*
X78483Y-48752D01*
X78502Y-48714D01*
X78540Y-48695D01*
X78616Y-48695D01*
X78654Y-48714D01*
X78483Y-48942D02*
X78521Y-48961D01*
X78616Y-48961D01*
X78654Y-48942D01*
X78673Y-48904D01*
X78673Y-48866D01*
X78654Y-48828D01*
X78616Y-48809D01*
X78521Y-48809D01*
X78483Y-48790D01*
X78350Y-48695D02*
X78197Y-48695D01*
X78292Y-48561D02*
X78292Y-48904D01*
X78273Y-48942D01*
X78235Y-48961D01*
X78197Y-48961D01*
X77797Y-48561D02*
X77550Y-48561D01*
X77683Y-48714D01*
X77626Y-48714D01*
X77588Y-48733D01*
X77569Y-48752D01*
X77550Y-48790D01*
X77550Y-48885D01*
X77569Y-48923D01*
X77588Y-48942D01*
X77626Y-48961D01*
X77740Y-48961D01*
X77778Y-48942D01*
X77797Y-48923D01*
X77397Y-48847D02*
X77207Y-48847D01*
X77435Y-48961D02*
X77302Y-48561D01*
X77169Y-48961D01*
X76769Y-48695D02*
X76692Y-48961D01*
X76616Y-48771D01*
X76540Y-48961D01*
X76464Y-48695D01*
X76311Y-48961D02*
X76311Y-48695D01*
X76311Y-48561D02*
X76330Y-48580D01*
X76311Y-48600D01*
X76292Y-48580D01*
X76311Y-48561D01*
X76311Y-48600D01*
X76178Y-48695D02*
X76026Y-48695D01*
X76121Y-48561D02*
X76121Y-48904D01*
X76102Y-48942D01*
X76064Y-48961D01*
X76026Y-48961D01*
X75892Y-48961D02*
X75892Y-48561D01*
X75721Y-48961D02*
X75721Y-48752D01*
X75740Y-48714D01*
X75778Y-48695D01*
X75835Y-48695D01*
X75873Y-48714D01*
X75892Y-48733D01*
X75264Y-48561D02*
X74997Y-48961D01*
X74997Y-48561D02*
X75264Y-48961D01*
X74883Y-48561D02*
X74616Y-48961D01*
X74616Y-48561D02*
X74883Y-48961D01*
X74216Y-48561D02*
X74083Y-48961D01*
X73950Y-48561D01*
X73816Y-48961D02*
X73816Y-48695D01*
X73816Y-48771D02*
X73797Y-48733D01*
X73778Y-48714D01*
X73740Y-48695D01*
X73702Y-48695D01*
X73569Y-48961D02*
X73569Y-48695D01*
X73569Y-48561D02*
X73588Y-48580D01*
X73569Y-48600D01*
X73550Y-48580D01*
X73569Y-48561D01*
X73569Y-48600D01*
X73378Y-48695D02*
X73378Y-49095D01*
X73378Y-48714D02*
X73340Y-48695D01*
X73264Y-48695D01*
X73226Y-48714D01*
X73207Y-48733D01*
X73188Y-48771D01*
X73188Y-48885D01*
X73207Y-48923D01*
X73226Y-48942D01*
X73264Y-48961D01*
X73340Y-48961D01*
X73378Y-48942D01*
X73016Y-48695D02*
X73016Y-49095D01*
X73016Y-48714D02*
X72978Y-48695D01*
X72902Y-48695D01*
X72864Y-48714D01*
X72845Y-48733D01*
X72826Y-48771D01*
X72826Y-48885D01*
X72845Y-48923D01*
X72864Y-48942D01*
X72902Y-48961D01*
X72978Y-48961D01*
X73016Y-48942D01*
X72597Y-48961D02*
X72635Y-48942D01*
X72654Y-48904D01*
X72654Y-48561D01*
X72292Y-48942D02*
X72330Y-48961D01*
X72407Y-48961D01*
X72445Y-48942D01*
X72464Y-48904D01*
X72464Y-48752D01*
X72445Y-48714D01*
X72407Y-48695D01*
X72330Y-48695D01*
X72292Y-48714D01*
X72273Y-48752D01*
X72273Y-48790D01*
X72464Y-48828D01*
X78711Y-43895D02*
X78559Y-43895D01*
X78654Y-44161D02*
X78654Y-43819D01*
X78635Y-43780D01*
X78597Y-43761D01*
X78559Y-43761D01*
X78369Y-44161D02*
X78407Y-44142D01*
X78426Y-44123D01*
X78445Y-44085D01*
X78445Y-43971D01*
X78426Y-43933D01*
X78407Y-43914D01*
X78369Y-43895D01*
X78311Y-43895D01*
X78273Y-43914D01*
X78254Y-43933D01*
X78235Y-43971D01*
X78235Y-44085D01*
X78254Y-44123D01*
X78273Y-44142D01*
X78311Y-44161D01*
X78369Y-44161D01*
X78064Y-44161D02*
X78064Y-43895D01*
X78064Y-43971D02*
X78045Y-43933D01*
X78026Y-43914D01*
X77988Y-43895D01*
X77950Y-43895D01*
X77511Y-44161D02*
X77511Y-43895D01*
X77511Y-43971D02*
X77492Y-43933D01*
X77473Y-43914D01*
X77435Y-43895D01*
X77397Y-43895D01*
X77092Y-43895D02*
X77092Y-44161D01*
X77264Y-43895D02*
X77264Y-44104D01*
X77245Y-44142D01*
X77207Y-44161D01*
X77150Y-44161D01*
X77111Y-44142D01*
X77092Y-44123D01*
X76921Y-44142D02*
X76883Y-44161D01*
X76807Y-44161D01*
X76769Y-44142D01*
X76750Y-44104D01*
X76750Y-44085D01*
X76769Y-44047D01*
X76807Y-44028D01*
X76864Y-44028D01*
X76902Y-44009D01*
X76921Y-43971D01*
X76921Y-43952D01*
X76902Y-43914D01*
X76864Y-43895D01*
X76807Y-43895D01*
X76769Y-43914D01*
X76578Y-43952D02*
X76445Y-43952D01*
X76388Y-44161D02*
X76578Y-44161D01*
X76578Y-43761D01*
X76388Y-43761D01*
X76083Y-43952D02*
X76216Y-43952D01*
X76216Y-44161D02*
X76216Y-43761D01*
X76026Y-43761D01*
X75873Y-44161D02*
X75873Y-43761D01*
X78654Y-44771D02*
X78654Y-44371D01*
X78483Y-44771D02*
X78483Y-44562D01*
X78502Y-44524D01*
X78540Y-44505D01*
X78597Y-44505D01*
X78635Y-44524D01*
X78654Y-44543D01*
X78350Y-44505D02*
X78197Y-44505D01*
X78292Y-44371D02*
X78292Y-44714D01*
X78273Y-44752D01*
X78235Y-44771D01*
X78197Y-44771D01*
X78121Y-44505D02*
X77969Y-44505D01*
X78064Y-44371D02*
X78064Y-44714D01*
X78045Y-44752D01*
X78007Y-44771D01*
X77969Y-44771D01*
X77835Y-44505D02*
X77835Y-44905D01*
X77835Y-44524D02*
X77797Y-44505D01*
X77721Y-44505D01*
X77683Y-44524D01*
X77664Y-44543D01*
X77645Y-44581D01*
X77645Y-44695D01*
X77664Y-44733D01*
X77683Y-44752D01*
X77721Y-44771D01*
X77797Y-44771D01*
X77835Y-44752D01*
X77473Y-44733D02*
X77454Y-44752D01*
X77473Y-44771D01*
X77492Y-44752D01*
X77473Y-44733D01*
X77473Y-44771D01*
X77473Y-44524D02*
X77454Y-44543D01*
X77473Y-44562D01*
X77492Y-44543D01*
X77473Y-44524D01*
X77473Y-44562D01*
X76997Y-44352D02*
X77340Y-44867D01*
X76578Y-44352D02*
X76921Y-44867D01*
X76273Y-44752D02*
X76311Y-44771D01*
X76388Y-44771D01*
X76426Y-44752D01*
X76445Y-44733D01*
X76464Y-44695D01*
X76464Y-44581D01*
X76445Y-44543D01*
X76426Y-44524D01*
X76388Y-44505D01*
X76311Y-44505D01*
X76273Y-44524D01*
X76045Y-44771D02*
X76083Y-44752D01*
X76102Y-44733D01*
X76121Y-44695D01*
X76121Y-44581D01*
X76102Y-44543D01*
X76083Y-44524D01*
X76045Y-44505D01*
X75988Y-44505D01*
X75950Y-44524D01*
X75930Y-44543D01*
X75911Y-44581D01*
X75911Y-44695D01*
X75930Y-44733D01*
X75950Y-44752D01*
X75988Y-44771D01*
X76045Y-44771D01*
X75569Y-44771D02*
X75569Y-44371D01*
X75569Y-44752D02*
X75607Y-44771D01*
X75683Y-44771D01*
X75721Y-44752D01*
X75740Y-44733D01*
X75759Y-44695D01*
X75759Y-44581D01*
X75740Y-44543D01*
X75721Y-44524D01*
X75683Y-44505D01*
X75607Y-44505D01*
X75569Y-44524D01*
X75226Y-44752D02*
X75264Y-44771D01*
X75340Y-44771D01*
X75378Y-44752D01*
X75397Y-44714D01*
X75397Y-44562D01*
X75378Y-44524D01*
X75340Y-44505D01*
X75264Y-44505D01*
X75226Y-44524D01*
X75207Y-44562D01*
X75207Y-44600D01*
X75397Y-44638D01*
X75035Y-44733D02*
X75016Y-44752D01*
X75035Y-44771D01*
X75054Y-44752D01*
X75035Y-44733D01*
X75035Y-44771D01*
X74673Y-44505D02*
X74673Y-44829D01*
X74692Y-44867D01*
X74711Y-44886D01*
X74750Y-44905D01*
X74807Y-44905D01*
X74845Y-44886D01*
X74673Y-44752D02*
X74711Y-44771D01*
X74788Y-44771D01*
X74826Y-44752D01*
X74845Y-44733D01*
X74864Y-44695D01*
X74864Y-44581D01*
X74845Y-44543D01*
X74826Y-44524D01*
X74788Y-44505D01*
X74711Y-44505D01*
X74673Y-44524D01*
X74426Y-44771D02*
X74464Y-44752D01*
X74483Y-44733D01*
X74502Y-44695D01*
X74502Y-44581D01*
X74483Y-44543D01*
X74464Y-44524D01*
X74426Y-44505D01*
X74369Y-44505D01*
X74330Y-44524D01*
X74311Y-44543D01*
X74292Y-44581D01*
X74292Y-44695D01*
X74311Y-44733D01*
X74330Y-44752D01*
X74369Y-44771D01*
X74426Y-44771D01*
X74064Y-44771D02*
X74102Y-44752D01*
X74121Y-44733D01*
X74140Y-44695D01*
X74140Y-44581D01*
X74121Y-44543D01*
X74102Y-44524D01*
X74064Y-44505D01*
X74007Y-44505D01*
X73969Y-44524D01*
X73950Y-44543D01*
X73930Y-44581D01*
X73930Y-44695D01*
X73950Y-44733D01*
X73969Y-44752D01*
X74007Y-44771D01*
X74064Y-44771D01*
X73588Y-44505D02*
X73588Y-44829D01*
X73607Y-44867D01*
X73626Y-44886D01*
X73664Y-44905D01*
X73721Y-44905D01*
X73759Y-44886D01*
X73588Y-44752D02*
X73626Y-44771D01*
X73702Y-44771D01*
X73740Y-44752D01*
X73759Y-44733D01*
X73778Y-44695D01*
X73778Y-44581D01*
X73759Y-44543D01*
X73740Y-44524D01*
X73702Y-44505D01*
X73626Y-44505D01*
X73588Y-44524D01*
X73340Y-44771D02*
X73378Y-44752D01*
X73397Y-44714D01*
X73397Y-44371D01*
X73035Y-44752D02*
X73073Y-44771D01*
X73150Y-44771D01*
X73188Y-44752D01*
X73207Y-44714D01*
X73207Y-44562D01*
X73188Y-44524D01*
X73150Y-44505D01*
X73073Y-44505D01*
X73035Y-44524D01*
X73016Y-44562D01*
X73016Y-44600D01*
X73207Y-44638D01*
X72845Y-44733D02*
X72826Y-44752D01*
X72845Y-44771D01*
X72864Y-44752D01*
X72845Y-44733D01*
X72845Y-44771D01*
X72483Y-44752D02*
X72521Y-44771D01*
X72597Y-44771D01*
X72635Y-44752D01*
X72654Y-44733D01*
X72673Y-44695D01*
X72673Y-44581D01*
X72654Y-44543D01*
X72635Y-44524D01*
X72597Y-44505D01*
X72521Y-44505D01*
X72483Y-44524D01*
X72254Y-44771D02*
X72292Y-44752D01*
X72311Y-44733D01*
X72330Y-44695D01*
X72330Y-44581D01*
X72311Y-44543D01*
X72292Y-44524D01*
X72254Y-44505D01*
X72197Y-44505D01*
X72159Y-44524D01*
X72140Y-44543D01*
X72121Y-44581D01*
X72121Y-44695D01*
X72140Y-44733D01*
X72159Y-44752D01*
X72197Y-44771D01*
X72254Y-44771D01*
X71950Y-44771D02*
X71950Y-44505D01*
X71950Y-44543D02*
X71930Y-44524D01*
X71892Y-44505D01*
X71835Y-44505D01*
X71797Y-44524D01*
X71778Y-44562D01*
X71778Y-44771D01*
X71778Y-44562D02*
X71759Y-44524D01*
X71721Y-44505D01*
X71664Y-44505D01*
X71626Y-44524D01*
X71607Y-44562D01*
X71607Y-44771D01*
X71130Y-44352D02*
X71473Y-44867D01*
X70997Y-44505D02*
X70997Y-44905D01*
X70997Y-44524D02*
X70959Y-44505D01*
X70883Y-44505D01*
X70845Y-44524D01*
X70826Y-44543D01*
X70807Y-44581D01*
X70807Y-44695D01*
X70826Y-44733D01*
X70845Y-44752D01*
X70883Y-44771D01*
X70959Y-44771D01*
X70997Y-44752D01*
X70350Y-44352D02*
X70692Y-44867D01*
X70045Y-44771D02*
X70045Y-44371D01*
X70045Y-44752D02*
X70083Y-44771D01*
X70159Y-44771D01*
X70197Y-44752D01*
X70216Y-44733D01*
X70235Y-44695D01*
X70235Y-44581D01*
X70216Y-44543D01*
X70197Y-44524D01*
X70159Y-44505D01*
X70083Y-44505D01*
X70045Y-44524D01*
X69683Y-44771D02*
X69683Y-44562D01*
X69702Y-44524D01*
X69740Y-44505D01*
X69816Y-44505D01*
X69854Y-44524D01*
X69683Y-44752D02*
X69721Y-44771D01*
X69816Y-44771D01*
X69854Y-44752D01*
X69873Y-44714D01*
X69873Y-44676D01*
X69854Y-44638D01*
X69816Y-44619D01*
X69721Y-44619D01*
X69683Y-44600D01*
X69340Y-44752D02*
X69378Y-44771D01*
X69454Y-44771D01*
X69492Y-44752D01*
X69511Y-44714D01*
X69511Y-44562D01*
X69492Y-44524D01*
X69454Y-44505D01*
X69378Y-44505D01*
X69340Y-44524D01*
X69321Y-44562D01*
X69321Y-44600D01*
X69511Y-44638D01*
X68978Y-44752D02*
X69016Y-44771D01*
X69092Y-44771D01*
X69130Y-44752D01*
X69150Y-44733D01*
X69169Y-44695D01*
X69169Y-44581D01*
X69150Y-44543D01*
X69130Y-44524D01*
X69092Y-44505D01*
X69016Y-44505D01*
X68978Y-44524D01*
X68635Y-44505D02*
X68635Y-44771D01*
X68807Y-44505D02*
X68807Y-44714D01*
X68788Y-44752D01*
X68750Y-44771D01*
X68692Y-44771D01*
X68654Y-44752D01*
X68635Y-44733D01*
X68159Y-44352D02*
X68502Y-44867D01*
X66602Y-40411D02*
X66735Y-40221D01*
X66830Y-40411D02*
X66830Y-40011D01*
X66678Y-40011D01*
X66640Y-40030D01*
X66621Y-40050D01*
X66602Y-40088D01*
X66602Y-40145D01*
X66621Y-40183D01*
X66640Y-40202D01*
X66678Y-40221D01*
X66830Y-40221D01*
X66354Y-40011D02*
X66316Y-40011D01*
X66278Y-40030D01*
X66259Y-40050D01*
X66240Y-40088D01*
X66221Y-40164D01*
X66221Y-40259D01*
X66240Y-40335D01*
X66259Y-40373D01*
X66278Y-40392D01*
X66316Y-40411D01*
X66354Y-40411D01*
X66392Y-40392D01*
X66411Y-40373D01*
X66430Y-40335D01*
X66450Y-40259D01*
X66450Y-40164D01*
X66430Y-40088D01*
X66411Y-40050D01*
X66392Y-40030D01*
X66354Y-40011D01*
X66050Y-40373D02*
X66030Y-40392D01*
X66050Y-40411D01*
X66069Y-40392D01*
X66050Y-40373D01*
X66050Y-40411D01*
X65650Y-40411D02*
X65878Y-40411D01*
X65764Y-40411D02*
X65764Y-40011D01*
X65802Y-40069D01*
X65840Y-40107D01*
X65878Y-40126D01*
X78795Y-39411D02*
X78795Y-39011D01*
X78642Y-39011D01*
X78604Y-39030D01*
X78585Y-39050D01*
X78566Y-39088D01*
X78566Y-39145D01*
X78585Y-39183D01*
X78604Y-39202D01*
X78642Y-39221D01*
X78795Y-39221D01*
X78433Y-39011D02*
X78185Y-39011D01*
X78319Y-39164D01*
X78261Y-39164D01*
X78223Y-39183D01*
X78204Y-39202D01*
X78185Y-39240D01*
X78185Y-39335D01*
X78204Y-39373D01*
X78223Y-39392D01*
X78261Y-39411D01*
X78376Y-39411D01*
X78414Y-39392D01*
X78433Y-39373D01*
X73045Y-40911D02*
X73045Y-40511D01*
X72892Y-40511D01*
X72854Y-40530D01*
X72835Y-40550D01*
X72816Y-40588D01*
X72816Y-40645D01*
X72835Y-40683D01*
X72854Y-40702D01*
X72892Y-40721D01*
X73045Y-40721D01*
X72664Y-40550D02*
X72645Y-40530D01*
X72607Y-40511D01*
X72511Y-40511D01*
X72473Y-40530D01*
X72454Y-40550D01*
X72435Y-40588D01*
X72435Y-40626D01*
X72454Y-40683D01*
X72683Y-40911D01*
X72435Y-40911D01*
X74407Y-42341D02*
X74178Y-42341D01*
X74292Y-42741D02*
X74292Y-42341D01*
X74045Y-42532D02*
X73911Y-42532D01*
X73854Y-42741D02*
X74045Y-42741D01*
X74045Y-42341D01*
X73854Y-42341D01*
X73702Y-42722D02*
X73645Y-42741D01*
X73550Y-42741D01*
X73511Y-42722D01*
X73492Y-42703D01*
X73473Y-42665D01*
X73473Y-42627D01*
X73492Y-42589D01*
X73511Y-42570D01*
X73550Y-42551D01*
X73626Y-42532D01*
X73664Y-42513D01*
X73683Y-42494D01*
X73702Y-42456D01*
X73702Y-42418D01*
X73683Y-42380D01*
X73664Y-42360D01*
X73626Y-42341D01*
X73530Y-42341D01*
X73473Y-42360D01*
X73359Y-42341D02*
X73130Y-42341D01*
X73245Y-42741D02*
X73245Y-42341D01*
X72692Y-42741D02*
X72692Y-42341D01*
X72540Y-42341D01*
X72502Y-42360D01*
X72483Y-42380D01*
X72464Y-42418D01*
X72464Y-42475D01*
X72483Y-42513D01*
X72502Y-42532D01*
X72540Y-42551D01*
X72692Y-42551D01*
X72216Y-42341D02*
X72140Y-42341D01*
X72102Y-42360D01*
X72064Y-42399D01*
X72045Y-42475D01*
X72045Y-42608D01*
X72064Y-42684D01*
X72102Y-42722D01*
X72140Y-42741D01*
X72216Y-42741D01*
X72254Y-42722D01*
X72292Y-42684D01*
X72311Y-42608D01*
X72311Y-42475D01*
X72292Y-42399D01*
X72254Y-42360D01*
X72216Y-42341D01*
X71873Y-42741D02*
X71873Y-42341D01*
X71683Y-42741D02*
X71683Y-42341D01*
X71454Y-42741D01*
X71454Y-42341D01*
X71321Y-42341D02*
X71092Y-42341D01*
X71207Y-42741D02*
X71207Y-42341D01*
X65045Y-46661D02*
X65045Y-46261D01*
X64892Y-46261D01*
X64854Y-46280D01*
X64835Y-46300D01*
X64816Y-46338D01*
X64816Y-46395D01*
X64835Y-46433D01*
X64854Y-46452D01*
X64892Y-46471D01*
X65045Y-46471D01*
X64435Y-46661D02*
X64664Y-46661D01*
X64549Y-46661D02*
X64549Y-46261D01*
X64588Y-46319D01*
X64626Y-46357D01*
X64664Y-46376D01*
M02*
