G04 (created by PCBNEW (2013-07-07 BZR 4022)-stable) date 02/05/2014 07:12:38*
%MOIN*%
G04 Gerber Fmt 3.4, Leading zero omitted, Abs format*
%FSLAX34Y34*%
G01*
G70*
G90*
G04 APERTURE LIST*
%ADD10C,0.00590551*%
%ADD11C,0.0059*%
%ADD12C,0.005*%
%ADD13C,0.0039*%
%ADD14C,0.0026*%
%ADD15C,0.004*%
%ADD16C,0.002*%
%ADD17C,0.008*%
%ADD18C,0.0125*%
%ADD19C,0.012*%
%ADD20C,0.0031*%
%ADD21C,0.006*%
%ADD22C,0.0062*%
%ADD23C,0.0107*%
%ADD24C,0.0047*%
G04 APERTURE END LIST*
G54D10*
G54D11*
X71925Y-42173D02*
X71925Y-43827D01*
X71807Y-42173D02*
X71807Y-43827D01*
X75193Y-42173D02*
X75193Y-43827D01*
X74286Y-43829D02*
X75186Y-43829D01*
X75186Y-42171D02*
X74286Y-42171D01*
X72713Y-42171D02*
X71813Y-42171D01*
X71814Y-43829D02*
X72714Y-43829D01*
X75675Y-42173D02*
X75675Y-43827D01*
X75557Y-42173D02*
X75557Y-43827D01*
X78943Y-42173D02*
X78943Y-43827D01*
X78036Y-43829D02*
X78936Y-43829D01*
X78936Y-42171D02*
X78036Y-42171D01*
X76463Y-42171D02*
X75563Y-42171D01*
X75564Y-43829D02*
X76464Y-43829D01*
G54D12*
X72460Y-48960D02*
X67540Y-48960D01*
X67540Y-48960D02*
X67540Y-44040D01*
X67540Y-44040D02*
X72460Y-44040D01*
X72460Y-44040D02*
X72460Y-48960D01*
X78460Y-48960D02*
X73540Y-48960D01*
X73540Y-48960D02*
X73540Y-44040D01*
X73540Y-44040D02*
X78460Y-44040D01*
X78460Y-44040D02*
X78460Y-48960D01*
G54D13*
X74650Y-42050D02*
G75*
G03X74650Y-42050I-50J0D01*
G74*
G01*
X75050Y-42050D02*
X74650Y-42050D01*
X74650Y-42050D02*
X74650Y-41450D01*
X74650Y-41450D02*
X75050Y-41450D01*
X75450Y-41450D02*
X75850Y-41450D01*
X75850Y-41450D02*
X75850Y-42050D01*
X75850Y-42050D02*
X75450Y-42050D01*
G54D14*
X76946Y-41868D02*
X76946Y-41996D01*
X76946Y-41996D02*
X77143Y-41996D01*
X77143Y-41868D02*
X77143Y-41996D01*
X76946Y-41868D02*
X77143Y-41868D01*
X76946Y-41623D02*
X76946Y-41682D01*
X76946Y-41682D02*
X77045Y-41682D01*
X77045Y-41623D02*
X77045Y-41682D01*
X76946Y-41623D02*
X77045Y-41623D01*
X76946Y-41818D02*
X76946Y-41877D01*
X76946Y-41877D02*
X77045Y-41877D01*
X77045Y-41818D02*
X77045Y-41877D01*
X76946Y-41818D02*
X77045Y-41818D01*
X76946Y-41672D02*
X76946Y-41828D01*
X76946Y-41828D02*
X77015Y-41828D01*
X77015Y-41672D02*
X77015Y-41828D01*
X76946Y-41672D02*
X77015Y-41672D01*
X76357Y-41868D02*
X76357Y-41996D01*
X76357Y-41996D02*
X76554Y-41996D01*
X76554Y-41868D02*
X76554Y-41996D01*
X76357Y-41868D02*
X76554Y-41868D01*
X76357Y-41504D02*
X76357Y-41632D01*
X76357Y-41632D02*
X76554Y-41632D01*
X76554Y-41504D02*
X76554Y-41632D01*
X76357Y-41504D02*
X76554Y-41504D01*
X76455Y-41818D02*
X76455Y-41877D01*
X76455Y-41877D02*
X76554Y-41877D01*
X76554Y-41818D02*
X76554Y-41877D01*
X76455Y-41818D02*
X76554Y-41818D01*
X76455Y-41623D02*
X76455Y-41682D01*
X76455Y-41682D02*
X76554Y-41682D01*
X76554Y-41623D02*
X76554Y-41682D01*
X76455Y-41623D02*
X76554Y-41623D01*
X76485Y-41672D02*
X76485Y-41828D01*
X76485Y-41828D02*
X76554Y-41828D01*
X76554Y-41672D02*
X76554Y-41828D01*
X76485Y-41672D02*
X76554Y-41672D01*
X76750Y-41711D02*
X76750Y-41789D01*
X76750Y-41789D02*
X76828Y-41789D01*
X76828Y-41711D02*
X76828Y-41789D01*
X76750Y-41711D02*
X76828Y-41711D01*
X76946Y-41514D02*
X76946Y-41632D01*
X76946Y-41632D02*
X77064Y-41632D01*
X77064Y-41514D02*
X77064Y-41632D01*
X76946Y-41514D02*
X77064Y-41514D01*
X77114Y-41504D02*
X77114Y-41593D01*
X77114Y-41593D02*
X77143Y-41593D01*
X77143Y-41504D02*
X77143Y-41593D01*
X77114Y-41504D02*
X77143Y-41504D01*
G54D15*
X76956Y-41976D02*
X76544Y-41976D01*
X76554Y-41524D02*
X77114Y-41524D01*
G54D16*
X77112Y-41573D02*
G75*
G03X77112Y-41573I-28J0D01*
G74*
G01*
G54D15*
X77143Y-41613D02*
G75*
G03X77143Y-41887I0J-137D01*
G74*
G01*
X76357Y-41887D02*
G75*
G03X76357Y-41613I0J137D01*
G74*
G01*
G54D12*
X71100Y-42050D02*
X71100Y-43500D01*
X71100Y-43500D02*
X71600Y-43500D01*
X71600Y-43500D02*
X71600Y-42050D01*
X70450Y-42050D02*
X70450Y-43500D01*
X70450Y-43500D02*
X70950Y-43500D01*
X70950Y-43500D02*
X70950Y-42050D01*
X69750Y-42050D02*
X69750Y-43500D01*
X69750Y-43500D02*
X70250Y-43500D01*
X70250Y-43500D02*
X70250Y-42050D01*
X69100Y-42050D02*
X69100Y-43500D01*
X69100Y-43500D02*
X69550Y-43500D01*
X69550Y-43500D02*
X69600Y-43500D01*
X69600Y-43500D02*
X69600Y-42050D01*
X68400Y-42050D02*
X68400Y-43500D01*
X68400Y-43500D02*
X68900Y-43500D01*
X68900Y-43500D02*
X68900Y-42050D01*
X67900Y-42050D02*
X72100Y-42050D01*
X72100Y-42050D02*
X72100Y-38050D01*
X72100Y-38050D02*
X67900Y-38050D01*
X67900Y-38050D02*
X67900Y-42050D01*
X76150Y-39200D02*
X77400Y-39200D01*
X77400Y-39200D02*
X77400Y-38500D01*
X77400Y-38500D02*
X76150Y-38500D01*
X76150Y-41000D02*
X77400Y-41000D01*
X77400Y-41000D02*
X77400Y-40300D01*
X77400Y-40300D02*
X76150Y-40300D01*
X73750Y-38400D02*
X76150Y-38400D01*
X76150Y-38400D02*
X76150Y-41100D01*
X76150Y-41100D02*
X73050Y-41100D01*
X73000Y-41100D02*
X73000Y-38400D01*
X73050Y-38400D02*
X73750Y-38400D01*
G54D17*
X67150Y-42400D02*
X66050Y-42400D01*
X63850Y-42400D02*
X64950Y-42400D01*
X67550Y-38100D02*
X66050Y-38100D01*
X63450Y-38100D02*
X64950Y-38100D01*
X67429Y-40250D02*
G75*
G03X67429Y-40250I-1929J0D01*
G74*
G01*
X63453Y-38085D02*
X63453Y-42022D01*
X63453Y-42022D02*
X63846Y-42415D01*
X67154Y-42415D02*
X67547Y-42022D01*
X67547Y-42022D02*
X67547Y-38085D01*
G54D13*
X68100Y-43650D02*
G75*
G03X68100Y-43650I-50J0D01*
G74*
G01*
X68050Y-43200D02*
X68050Y-43600D01*
X68050Y-43600D02*
X67450Y-43600D01*
X67450Y-43600D02*
X67450Y-43200D01*
X67450Y-42800D02*
X67450Y-42400D01*
X67450Y-42400D02*
X68050Y-42400D01*
X68050Y-42400D02*
X68050Y-42800D01*
G54D18*
X73250Y-42000D02*
X73250Y-41000D01*
X72250Y-42000D02*
X72250Y-41000D01*
G54D19*
X73250Y-42000D02*
X72250Y-42000D01*
X72250Y-41000D02*
X73250Y-41000D01*
G54D12*
X66750Y-43950D02*
X66750Y-43050D01*
X66750Y-43050D02*
X66100Y-43050D01*
X65400Y-43950D02*
X64750Y-43950D01*
X64750Y-43950D02*
X64750Y-43050D01*
X64750Y-43050D02*
X65400Y-43050D01*
X66100Y-43950D02*
X66750Y-43950D01*
G54D20*
X66775Y-45612D02*
G75*
G03X66775Y-45612I-62J0D01*
G74*
G01*
X65750Y-45950D02*
X65750Y-45550D01*
X66775Y-45950D02*
X66775Y-45550D01*
X65750Y-45550D02*
X66775Y-45550D01*
X66775Y-45950D02*
X65750Y-45950D01*
G54D19*
X77000Y-38500D02*
X74000Y-38500D01*
X74000Y-38500D02*
X74000Y-37500D01*
X74000Y-37500D02*
X77000Y-37500D01*
X77000Y-37500D02*
X77000Y-38500D01*
X74250Y-38500D02*
X74250Y-37500D01*
X74500Y-37500D02*
X74500Y-38500D01*
X77000Y-38000D02*
X77500Y-38000D01*
X74000Y-38000D02*
X73500Y-38000D01*
G54D14*
X67250Y-52740D02*
X67250Y-51740D01*
X67250Y-51740D02*
X66150Y-51740D01*
X66150Y-52740D02*
X66150Y-51740D01*
X67250Y-52740D02*
X66150Y-52740D01*
X67250Y-50770D02*
X67250Y-49770D01*
X67250Y-49770D02*
X66150Y-49770D01*
X66150Y-50770D02*
X66150Y-49770D01*
X67250Y-50770D02*
X66150Y-50770D01*
G54D21*
X63800Y-49250D02*
X65000Y-49250D01*
X63800Y-49250D02*
X63800Y-53250D01*
X63800Y-49250D02*
X63800Y-49050D01*
X63800Y-49050D02*
X65700Y-49050D01*
X65700Y-49050D02*
X65600Y-49250D01*
X68400Y-49050D02*
X68300Y-49250D01*
X68300Y-49250D02*
X68700Y-49250D01*
X67750Y-49050D02*
X67850Y-49250D01*
X67850Y-49250D02*
X68300Y-49250D01*
X67750Y-49050D02*
X68400Y-49050D01*
X68700Y-51070D02*
X67950Y-51070D01*
X66150Y-49470D02*
X67950Y-49470D01*
X68700Y-51070D02*
X68700Y-49470D01*
X68700Y-49470D02*
X68700Y-49250D01*
X68700Y-51440D02*
X67950Y-51440D01*
X68700Y-51440D02*
X68700Y-51070D01*
X66150Y-53040D02*
X67950Y-53040D01*
X68700Y-53250D02*
X68700Y-53040D01*
X68700Y-53040D02*
X68700Y-51440D01*
X67950Y-51070D02*
X67950Y-49470D01*
X67950Y-51070D02*
X66150Y-51070D01*
X67950Y-49470D02*
X68700Y-49470D01*
X67950Y-51440D02*
X67950Y-53040D01*
X67950Y-51440D02*
X66150Y-51440D01*
X67950Y-53040D02*
X68700Y-53040D01*
X67700Y-49620D02*
X66450Y-49620D01*
X67700Y-49620D02*
X67700Y-50920D01*
X67700Y-50920D02*
X66450Y-50920D01*
X67700Y-51590D02*
X66450Y-51590D01*
X67700Y-51590D02*
X67700Y-52890D01*
X67700Y-52890D02*
X66450Y-52890D01*
X66450Y-52890D02*
X66450Y-52740D01*
X66450Y-51590D02*
X66450Y-51740D01*
X66450Y-50920D02*
X66450Y-50770D01*
X66450Y-49620D02*
X66450Y-49770D01*
X68700Y-53250D02*
X66000Y-53250D01*
X66000Y-53250D02*
X65000Y-53250D01*
X65600Y-49250D02*
X66000Y-49250D01*
X66000Y-49250D02*
X67850Y-49250D01*
X65000Y-53250D02*
X65000Y-49250D01*
X65000Y-53250D02*
X63800Y-53250D01*
X65000Y-49250D02*
X65600Y-49250D01*
X64900Y-51070D02*
X63900Y-51070D01*
X63900Y-51070D02*
X63900Y-49470D01*
X63900Y-49470D02*
X64900Y-49470D01*
X64900Y-49470D02*
X64900Y-51070D01*
X64900Y-51440D02*
X63900Y-51440D01*
X64900Y-51440D02*
X64900Y-53040D01*
X64900Y-53040D02*
X63900Y-53040D01*
X63900Y-51440D02*
X63900Y-53040D01*
X64500Y-50910D02*
X64250Y-49710D01*
X64550Y-50860D02*
X64300Y-49660D01*
X64500Y-52880D02*
X64250Y-51679D01*
X64550Y-52830D02*
X64300Y-51630D01*
X66150Y-53040D02*
X66150Y-52890D01*
X66150Y-51440D02*
X66150Y-51590D01*
X66150Y-51590D02*
X66150Y-52890D01*
X66000Y-53250D02*
X66000Y-52890D01*
X66000Y-52890D02*
X66000Y-51590D01*
X66000Y-51590D02*
X66000Y-50920D01*
X66000Y-49250D02*
X66000Y-49620D01*
X66000Y-49620D02*
X66000Y-50920D01*
X66150Y-49470D02*
X66150Y-49620D01*
X66150Y-51070D02*
X66150Y-50920D01*
X66150Y-50920D02*
X66150Y-49620D01*
X64641Y-49691D02*
G75*
G03X64261Y-49670I-200J-178D01*
G74*
G01*
X64609Y-50850D02*
G75*
G03X64629Y-49674I-749J600D01*
G74*
G01*
X64258Y-49669D02*
G75*
G03X64280Y-50910I531J-611D01*
G74*
G01*
X64260Y-50889D02*
G75*
G03X64624Y-50834I160J169D01*
G74*
G01*
X64642Y-51661D02*
G75*
G03X64260Y-51640I-201J-178D01*
G74*
G01*
X64609Y-52819D02*
G75*
G03X64629Y-51643I-749J600D01*
G74*
G01*
X64256Y-51637D02*
G75*
G03X64280Y-52880I533J-611D01*
G74*
G01*
X64261Y-52859D02*
G75*
G03X64624Y-52803I159J169D01*
G74*
G01*
G54D14*
X75500Y-49510D02*
X75500Y-50510D01*
X75500Y-50510D02*
X76600Y-50510D01*
X76600Y-49510D02*
X76600Y-50510D01*
X75500Y-49510D02*
X76600Y-49510D01*
X75500Y-51480D02*
X75500Y-52480D01*
X75500Y-52480D02*
X76600Y-52480D01*
X76600Y-51480D02*
X76600Y-52480D01*
X75500Y-51480D02*
X76600Y-51480D01*
G54D21*
X78950Y-53000D02*
X77750Y-53000D01*
X78950Y-53000D02*
X78950Y-49000D01*
X78950Y-53000D02*
X78950Y-53200D01*
X78950Y-53200D02*
X77050Y-53200D01*
X77050Y-53200D02*
X77150Y-53000D01*
X74350Y-53200D02*
X74450Y-53000D01*
X74450Y-53000D02*
X74050Y-53000D01*
X75000Y-53200D02*
X74900Y-53000D01*
X74900Y-53000D02*
X74450Y-53000D01*
X75000Y-53200D02*
X74350Y-53200D01*
X74050Y-51180D02*
X74800Y-51180D01*
X76600Y-52780D02*
X74800Y-52780D01*
X74050Y-51180D02*
X74050Y-52780D01*
X74050Y-52780D02*
X74050Y-53000D01*
X74050Y-50810D02*
X74800Y-50810D01*
X74050Y-50810D02*
X74050Y-51180D01*
X76600Y-49210D02*
X74800Y-49210D01*
X74050Y-49000D02*
X74050Y-49210D01*
X74050Y-49210D02*
X74050Y-50810D01*
X74800Y-51180D02*
X74800Y-52780D01*
X74800Y-51180D02*
X76600Y-51180D01*
X74800Y-52780D02*
X74050Y-52780D01*
X74800Y-50810D02*
X74800Y-49210D01*
X74800Y-50810D02*
X76600Y-50810D01*
X74800Y-49210D02*
X74050Y-49210D01*
X75050Y-52630D02*
X76300Y-52630D01*
X75050Y-52630D02*
X75050Y-51330D01*
X75050Y-51330D02*
X76300Y-51330D01*
X75050Y-50660D02*
X76300Y-50660D01*
X75050Y-50660D02*
X75050Y-49360D01*
X75050Y-49360D02*
X76300Y-49360D01*
X76300Y-49360D02*
X76300Y-49510D01*
X76300Y-50660D02*
X76300Y-50510D01*
X76300Y-51330D02*
X76300Y-51480D01*
X76300Y-52630D02*
X76300Y-52480D01*
X74050Y-49000D02*
X76750Y-49000D01*
X76750Y-49000D02*
X77750Y-49000D01*
X77150Y-53000D02*
X76750Y-53000D01*
X76750Y-53000D02*
X74900Y-53000D01*
X77750Y-49000D02*
X77750Y-53000D01*
X77750Y-49000D02*
X78950Y-49000D01*
X77750Y-53000D02*
X77150Y-53000D01*
X77850Y-51180D02*
X78850Y-51180D01*
X78850Y-51180D02*
X78850Y-52780D01*
X78850Y-52780D02*
X77850Y-52780D01*
X77850Y-52780D02*
X77850Y-51180D01*
X77850Y-50810D02*
X78850Y-50810D01*
X77850Y-50810D02*
X77850Y-49210D01*
X77850Y-49210D02*
X78850Y-49210D01*
X78850Y-50810D02*
X78850Y-49210D01*
X78250Y-51340D02*
X78500Y-52540D01*
X78200Y-51390D02*
X78450Y-52590D01*
X78250Y-49370D02*
X78500Y-50571D01*
X78200Y-49420D02*
X78450Y-50620D01*
X76600Y-49210D02*
X76600Y-49360D01*
X76600Y-50810D02*
X76600Y-50660D01*
X76600Y-50660D02*
X76600Y-49360D01*
X76750Y-49000D02*
X76750Y-49360D01*
X76750Y-49360D02*
X76750Y-50660D01*
X76750Y-50660D02*
X76750Y-51330D01*
X76750Y-53000D02*
X76750Y-52630D01*
X76750Y-52630D02*
X76750Y-51330D01*
X76600Y-52780D02*
X76600Y-52630D01*
X76600Y-51180D02*
X76600Y-51330D01*
X76600Y-51330D02*
X76600Y-52630D01*
X78108Y-52558D02*
G75*
G03X78488Y-52579I200J178D01*
G74*
G01*
X78140Y-51399D02*
G75*
G03X78120Y-52575I749J-600D01*
G74*
G01*
X78491Y-52580D02*
G75*
G03X78469Y-51339I-531J611D01*
G74*
G01*
X78489Y-51360D02*
G75*
G03X78125Y-51415I-160J-169D01*
G74*
G01*
X78107Y-50588D02*
G75*
G03X78489Y-50609I201J178D01*
G74*
G01*
X78140Y-49430D02*
G75*
G03X78120Y-50606I749J-600D01*
G74*
G01*
X78493Y-50612D02*
G75*
G03X78469Y-49369I-533J611D01*
G74*
G01*
X78488Y-49390D02*
G75*
G03X78125Y-49446I-159J-169D01*
G74*
G01*
G54D19*
X65366Y-46140D02*
X65492Y-46412D01*
X65492Y-46412D02*
X65130Y-46581D01*
X65130Y-46581D02*
X66144Y-48756D01*
X66144Y-48756D02*
X66507Y-48587D01*
X66507Y-48587D02*
X66633Y-48859D01*
X66507Y-48587D02*
X66869Y-48418D01*
X66869Y-48418D02*
X65855Y-46243D01*
X65855Y-46243D02*
X65492Y-46412D01*
X65214Y-46762D02*
X65939Y-46424D01*
X65982Y-46515D02*
X65257Y-46853D01*
X64500Y-47750D02*
X64500Y-47450D01*
X64500Y-47450D02*
X64900Y-47450D01*
X64900Y-47450D02*
X64900Y-45050D01*
X64900Y-45050D02*
X64500Y-45050D01*
X64500Y-45050D02*
X64500Y-44750D01*
X64500Y-45050D02*
X64100Y-45050D01*
X64100Y-45050D02*
X64100Y-47450D01*
X64100Y-47450D02*
X64500Y-47450D01*
X64900Y-47250D02*
X64100Y-47250D01*
X64100Y-47150D02*
X64900Y-47150D01*
X69000Y-50500D02*
X69000Y-49500D01*
X69000Y-49500D02*
X71000Y-49500D01*
X71000Y-49500D02*
X71000Y-50500D01*
X71000Y-50500D02*
X69000Y-50500D01*
G54D12*
X73293Y-43050D02*
X73310Y-43064D01*
X73326Y-43107D01*
X73326Y-43135D01*
X73310Y-43178D01*
X73276Y-43207D01*
X73243Y-43221D01*
X73176Y-43235D01*
X73126Y-43235D01*
X73060Y-43221D01*
X73026Y-43207D01*
X72993Y-43178D01*
X72976Y-43135D01*
X72976Y-43107D01*
X72993Y-43064D01*
X73010Y-43050D01*
X73010Y-42935D02*
X72993Y-42921D01*
X72976Y-42892D01*
X72976Y-42821D01*
X72993Y-42792D01*
X73010Y-42778D01*
X73043Y-42764D01*
X73076Y-42764D01*
X73126Y-42778D01*
X73326Y-42950D01*
X73326Y-42764D01*
G54D10*
X71584Y-43912D02*
X71793Y-43912D01*
X71689Y-44017D02*
X71689Y-43807D01*
G54D12*
X77608Y-43050D02*
X77625Y-43064D01*
X77641Y-43107D01*
X77641Y-43135D01*
X77625Y-43178D01*
X77591Y-43207D01*
X77558Y-43221D01*
X77491Y-43235D01*
X77441Y-43235D01*
X77375Y-43221D01*
X77341Y-43207D01*
X77308Y-43178D01*
X77291Y-43135D01*
X77291Y-43107D01*
X77308Y-43064D01*
X77325Y-43050D01*
X77291Y-42950D02*
X77291Y-42764D01*
X77425Y-42864D01*
X77425Y-42821D01*
X77441Y-42792D01*
X77458Y-42778D01*
X77491Y-42764D01*
X77575Y-42764D01*
X77608Y-42778D01*
X77625Y-42792D01*
X77641Y-42821D01*
X77641Y-42907D01*
X77625Y-42935D01*
X77608Y-42950D01*
G54D10*
X75334Y-43912D02*
X75543Y-43912D01*
X75439Y-44017D02*
X75439Y-43807D01*
G54D19*
X69900Y-45052D02*
X69614Y-45052D01*
X69614Y-44452D01*
X70414Y-45052D02*
X70071Y-45052D01*
X70242Y-45052D02*
X70242Y-44452D01*
X70185Y-44538D01*
X70128Y-44595D01*
X70071Y-44624D01*
X75900Y-45052D02*
X75614Y-45052D01*
X75614Y-44452D01*
X76071Y-44510D02*
X76100Y-44481D01*
X76157Y-44452D01*
X76300Y-44452D01*
X76357Y-44481D01*
X76385Y-44510D01*
X76414Y-44567D01*
X76414Y-44624D01*
X76385Y-44710D01*
X76042Y-45052D01*
X76414Y-45052D01*
G54D12*
X75330Y-41783D02*
X75235Y-41850D01*
X75330Y-41897D02*
X75130Y-41897D01*
X75130Y-41821D01*
X75140Y-41802D01*
X75150Y-41792D01*
X75169Y-41783D01*
X75197Y-41783D01*
X75216Y-41792D01*
X75226Y-41802D01*
X75235Y-41821D01*
X75235Y-41897D01*
X75150Y-41707D02*
X75140Y-41697D01*
X75130Y-41678D01*
X75130Y-41630D01*
X75140Y-41611D01*
X75150Y-41602D01*
X75169Y-41592D01*
X75188Y-41592D01*
X75216Y-41602D01*
X75330Y-41716D01*
X75330Y-41592D01*
X76528Y-41371D02*
X76528Y-41071D01*
X76600Y-41071D01*
X76642Y-41085D01*
X76671Y-41114D01*
X76685Y-41142D01*
X76700Y-41200D01*
X76700Y-41242D01*
X76685Y-41300D01*
X76671Y-41328D01*
X76642Y-41357D01*
X76600Y-41371D01*
X76528Y-41371D01*
X76971Y-41071D02*
X76828Y-41071D01*
X76814Y-41214D01*
X76828Y-41200D01*
X76857Y-41185D01*
X76928Y-41185D01*
X76957Y-41200D01*
X76971Y-41214D01*
X76985Y-41242D01*
X76985Y-41314D01*
X76971Y-41342D01*
X76957Y-41357D01*
X76928Y-41371D01*
X76857Y-41371D01*
X76828Y-41357D01*
X76814Y-41342D01*
G54D21*
X72202Y-39380D02*
X72607Y-39380D01*
X72654Y-39357D01*
X72678Y-39333D01*
X72702Y-39285D01*
X72702Y-39190D01*
X72678Y-39142D01*
X72654Y-39119D01*
X72607Y-39095D01*
X72202Y-39095D01*
X72702Y-38595D02*
X72702Y-38880D01*
X72702Y-38738D02*
X72202Y-38738D01*
X72273Y-38785D01*
X72321Y-38833D01*
X72345Y-38880D01*
X68916Y-41902D02*
X68678Y-41902D01*
X68678Y-41402D01*
X69083Y-41902D02*
X69083Y-41402D01*
X69249Y-41759D01*
X69416Y-41402D01*
X69416Y-41902D01*
X69630Y-41450D02*
X69654Y-41426D01*
X69702Y-41402D01*
X69821Y-41402D01*
X69869Y-41426D01*
X69892Y-41450D01*
X69916Y-41497D01*
X69916Y-41545D01*
X69892Y-41616D01*
X69607Y-41902D01*
X69916Y-41902D01*
X70369Y-41402D02*
X70130Y-41402D01*
X70107Y-41640D01*
X70130Y-41616D01*
X70178Y-41592D01*
X70297Y-41592D01*
X70345Y-41616D01*
X70369Y-41640D01*
X70392Y-41688D01*
X70392Y-41807D01*
X70369Y-41854D01*
X70345Y-41878D01*
X70297Y-41902D01*
X70178Y-41902D01*
X70130Y-41878D01*
X70107Y-41854D01*
X70630Y-41902D02*
X70726Y-41902D01*
X70773Y-41878D01*
X70797Y-41854D01*
X70845Y-41783D01*
X70869Y-41688D01*
X70869Y-41497D01*
X70845Y-41450D01*
X70821Y-41426D01*
X70773Y-41402D01*
X70678Y-41402D01*
X70630Y-41426D01*
X70607Y-41450D01*
X70583Y-41497D01*
X70583Y-41616D01*
X70607Y-41664D01*
X70630Y-41688D01*
X70678Y-41711D01*
X70773Y-41711D01*
X70821Y-41688D01*
X70845Y-41664D01*
X70869Y-41616D01*
X71297Y-41402D02*
X71202Y-41402D01*
X71154Y-41426D01*
X71130Y-41450D01*
X71083Y-41521D01*
X71059Y-41616D01*
X71059Y-41807D01*
X71083Y-41854D01*
X71107Y-41878D01*
X71154Y-41902D01*
X71250Y-41902D01*
X71297Y-41878D01*
X71321Y-41854D01*
X71345Y-41807D01*
X71345Y-41688D01*
X71321Y-41640D01*
X71297Y-41616D01*
X71250Y-41592D01*
X71154Y-41592D01*
X71107Y-41616D01*
X71083Y-41640D01*
X71059Y-41688D01*
G54D12*
X72952Y-40545D02*
X72452Y-40545D01*
X72452Y-40449D01*
X72476Y-40392D01*
X72523Y-40354D01*
X72571Y-40335D01*
X72666Y-40316D01*
X72738Y-40316D01*
X72833Y-40335D01*
X72880Y-40354D01*
X72928Y-40392D01*
X72952Y-40449D01*
X72952Y-40545D01*
X72619Y-39973D02*
X72952Y-39973D01*
X72428Y-40069D02*
X72785Y-40164D01*
X72785Y-39916D01*
G54D22*
X64773Y-40315D02*
X64792Y-40334D01*
X64811Y-40390D01*
X64811Y-40428D01*
X64792Y-40484D01*
X64754Y-40522D01*
X64716Y-40540D01*
X64640Y-40559D01*
X64583Y-40559D01*
X64507Y-40540D01*
X64469Y-40522D01*
X64430Y-40484D01*
X64411Y-40428D01*
X64411Y-40390D01*
X64430Y-40334D01*
X64450Y-40315D01*
X64811Y-39940D02*
X64811Y-40165D01*
X64811Y-40053D02*
X64411Y-40053D01*
X64469Y-40090D01*
X64507Y-40128D01*
X64526Y-40165D01*
G54D19*
X66264Y-41928D02*
X66264Y-41471D01*
X66492Y-41699D02*
X66035Y-41699D01*
G54D12*
X67716Y-43080D02*
X67650Y-42985D01*
X67602Y-43080D02*
X67602Y-42880D01*
X67678Y-42880D01*
X67697Y-42890D01*
X67707Y-42900D01*
X67716Y-42919D01*
X67716Y-42947D01*
X67707Y-42966D01*
X67697Y-42976D01*
X67678Y-42985D01*
X67602Y-42985D01*
X67907Y-43080D02*
X67792Y-43080D01*
X67850Y-43080D02*
X67850Y-42880D01*
X67830Y-42909D01*
X67811Y-42928D01*
X67792Y-42938D01*
G54D23*
X74275Y-41815D02*
X73594Y-41815D01*
X73594Y-41652D01*
X73627Y-41612D01*
X73659Y-41591D01*
X73724Y-41571D01*
X73821Y-41571D01*
X73886Y-41591D01*
X73918Y-41612D01*
X73951Y-41652D01*
X73951Y-41815D01*
X73659Y-41408D02*
X73627Y-41387D01*
X73594Y-41347D01*
X73594Y-41245D01*
X73627Y-41204D01*
X73659Y-41184D01*
X73724Y-41163D01*
X73789Y-41163D01*
X73886Y-41184D01*
X74275Y-41428D01*
X74275Y-41163D01*
G54D12*
X65528Y-43621D02*
X65528Y-43321D01*
X65600Y-43321D01*
X65642Y-43335D01*
X65671Y-43364D01*
X65685Y-43392D01*
X65700Y-43450D01*
X65700Y-43492D01*
X65685Y-43550D01*
X65671Y-43578D01*
X65642Y-43607D01*
X65600Y-43621D01*
X65528Y-43621D01*
X65985Y-43621D02*
X65814Y-43621D01*
X65900Y-43621D02*
X65900Y-43321D01*
X65871Y-43364D01*
X65842Y-43392D01*
X65814Y-43407D01*
G54D24*
X65613Y-45817D02*
X65598Y-45846D01*
X65570Y-45874D01*
X65527Y-45917D01*
X65513Y-45946D01*
X65513Y-45974D01*
X65584Y-45960D02*
X65570Y-45989D01*
X65541Y-46017D01*
X65484Y-46031D01*
X65384Y-46031D01*
X65327Y-46017D01*
X65298Y-45989D01*
X65284Y-45960D01*
X65284Y-45903D01*
X65298Y-45874D01*
X65327Y-45846D01*
X65384Y-45831D01*
X65484Y-45831D01*
X65541Y-45846D01*
X65570Y-45874D01*
X65584Y-45903D01*
X65584Y-45960D01*
X65584Y-45546D02*
X65584Y-45717D01*
X65584Y-45631D02*
X65284Y-45631D01*
X65327Y-45660D01*
X65355Y-45689D01*
X65370Y-45717D01*
G54D17*
X75204Y-38202D02*
X75204Y-37702D01*
X75300Y-37702D01*
X75357Y-37726D01*
X75395Y-37773D01*
X75414Y-37821D01*
X75433Y-37916D01*
X75433Y-37988D01*
X75414Y-38083D01*
X75395Y-38130D01*
X75357Y-38178D01*
X75300Y-38202D01*
X75204Y-38202D01*
X75776Y-37702D02*
X75700Y-37702D01*
X75661Y-37726D01*
X75642Y-37750D01*
X75604Y-37821D01*
X75585Y-37916D01*
X75585Y-38107D01*
X75604Y-38154D01*
X75623Y-38178D01*
X75661Y-38202D01*
X75738Y-38202D01*
X75776Y-38178D01*
X75795Y-38154D01*
X75814Y-38107D01*
X75814Y-37988D01*
X75795Y-37940D01*
X75776Y-37916D01*
X75738Y-37892D01*
X75661Y-37892D01*
X75623Y-37916D01*
X75604Y-37940D01*
X75585Y-37988D01*
G54D12*
X68983Y-52533D02*
X68983Y-51833D01*
X69250Y-51833D01*
X69316Y-51866D01*
X69350Y-51900D01*
X69383Y-51966D01*
X69383Y-52066D01*
X69350Y-52133D01*
X69316Y-52166D01*
X69250Y-52200D01*
X68983Y-52200D01*
X70050Y-52533D02*
X69650Y-52533D01*
X69850Y-52533D02*
X69850Y-51833D01*
X69783Y-51933D01*
X69716Y-52000D01*
X69650Y-52033D01*
X72983Y-52533D02*
X72983Y-51833D01*
X73250Y-51833D01*
X73316Y-51866D01*
X73350Y-51900D01*
X73383Y-51966D01*
X73383Y-52066D01*
X73350Y-52133D01*
X73316Y-52166D01*
X73250Y-52200D01*
X72983Y-52200D01*
X73616Y-51833D02*
X74050Y-51833D01*
X73816Y-52100D01*
X73916Y-52100D01*
X73983Y-52133D01*
X74016Y-52166D01*
X74050Y-52233D01*
X74050Y-52400D01*
X74016Y-52466D01*
X73983Y-52500D01*
X73916Y-52533D01*
X73716Y-52533D01*
X73650Y-52500D01*
X73616Y-52466D01*
G54D17*
X65728Y-47300D02*
X66091Y-47131D01*
X66131Y-47218D01*
X66138Y-47277D01*
X66119Y-47328D01*
X66093Y-47361D01*
X66032Y-47411D01*
X65980Y-47435D01*
X65903Y-47450D01*
X65860Y-47449D01*
X65810Y-47430D01*
X65768Y-47387D01*
X65728Y-47300D01*
X66243Y-47459D02*
X66348Y-47684D01*
X66154Y-47627D01*
X66178Y-47679D01*
X66177Y-47722D01*
X66167Y-47747D01*
X66141Y-47780D01*
X66055Y-47821D01*
X66012Y-47819D01*
X65987Y-47810D01*
X65953Y-47784D01*
X65905Y-47680D01*
X65906Y-47638D01*
X65915Y-47612D01*
X64661Y-46545D02*
X64261Y-46545D01*
X64261Y-46449D01*
X64280Y-46392D01*
X64319Y-46354D01*
X64357Y-46335D01*
X64433Y-46316D01*
X64490Y-46316D01*
X64566Y-46335D01*
X64604Y-46354D01*
X64642Y-46392D01*
X64661Y-46449D01*
X64661Y-46545D01*
X64300Y-46164D02*
X64280Y-46145D01*
X64261Y-46107D01*
X64261Y-46011D01*
X64280Y-45973D01*
X64300Y-45954D01*
X64338Y-45935D01*
X64376Y-45935D01*
X64433Y-45954D01*
X64661Y-46183D01*
X64661Y-45935D01*
G54D12*
X69866Y-50952D02*
X69733Y-50952D01*
X69733Y-51161D02*
X69733Y-50761D01*
X69923Y-50761D01*
X70285Y-51161D02*
X70057Y-51161D01*
X70171Y-51161D02*
X70171Y-50761D01*
X70133Y-50819D01*
X70095Y-50857D01*
X70057Y-50876D01*
M02*
