M48
;DRILL file {Pcbnew (2013-07-07 BZR 4022)-stable} date 22/01/2014 07:55:36
;FORMAT={-:-/ absolute / inch / decimal}
FMAT,2
INCH,TZ
T1C0.025
T2C0.032
T3C0.040
T4C0.118
%
G90
G05
M72
T1
X4.95Y-6.07
X5.01Y-4.315
X5.14Y-4.31
X5.15Y-6.03
X5.16Y-4.52
X5.16Y-6.135
X5.165Y-5.985
X5.17Y-5.575
X5.18Y-5.52
X5.18Y-5.705
X5.1972Y-4.7476
X5.2Y-5.77
X5.28Y-5.11
X5.3Y-4.785
X5.315Y-5.36
X5.325Y-6.
X5.34Y-4.6
X5.3496Y-5.1016
X5.355Y-4.91
X5.385Y-5.79
X5.3965Y-5.422
X5.4358Y-5.5965
X5.4634Y-5.3413
X5.485Y-4.93
X5.545Y-4.295
X5.545Y-5.295
X5.6697Y-4.4031
X5.69Y-5.91
X5.725Y-5.13
X5.739Y-4.2634
X5.79Y-5.375
X5.815Y-5.095
X5.82Y-4.92
X5.86Y-4.6
X5.87Y-4.285
X5.895Y-3.9475
X5.91Y-5.595
X5.915Y-4.27
X5.92Y-5.11
X5.955Y-5.995
X5.96Y-4.735
X5.961Y-5.8256
X5.97Y-4.925
X5.995Y-5.375
X6.01Y-4.09
X6.03Y-5.305
X6.05Y-4.285
X6.065Y-5.815
X6.07Y-5.53
X6.085Y-4.385
X6.11Y-4.08
X6.125Y-6.095
X6.145Y-4.55
X6.185Y-5.17
X6.2Y-6.14
X6.2384Y-4.6725
X6.245Y-4.94
X6.325Y-4.08
X6.3378Y-4.6173
X6.34Y-4.445
X6.37Y-4.48
X6.37Y-5.995
X6.38Y-4.905
X6.405Y-5.3
X6.43Y-4.585
X6.44Y-5.595
X6.45Y-3.91
X6.475Y-5.995
X6.5Y-4.27
X6.5Y-4.465
X6.5Y-5.805
X6.56Y-3.925
X6.56Y-4.64
X6.565Y-5.325
X6.61Y-5.625
X6.62Y-5.755
X6.635Y-5.
T2
X4.84Y-4.925
X4.84Y-5.025
X4.845Y-4.645
X4.845Y-4.745
X5.Y-4.9984
X6.28Y-3.8
X6.38Y-3.8
X6.54Y-3.8
X6.64Y-3.8
T3
X4.845Y-5.25
X4.85Y-5.615
X4.86Y-3.915
X4.86Y-4.015
X4.86Y-4.115
X4.86Y-4.215
X4.86Y-4.315
X4.86Y-4.415
X5.Y-5.0984
X5.Y-5.1984
X5.Y-5.2984
X5.Y-5.3984
X5.Y-5.4984
X5.Y-5.5984
X5.Y-5.6984
X5.Y-5.7984
X5.Y-5.8984
X5.1Y-4.9984
X5.1Y-5.0984
X5.1Y-5.1984
X5.1Y-5.2984
X5.1Y-5.3984
X5.1Y-5.4984
X5.1Y-5.5984
X5.1Y-5.6984
X5.1Y-5.7984
X5.1Y-5.8984
X5.235Y-3.795
X5.335Y-3.795
X5.435Y-3.795
X5.535Y-3.795
X5.635Y-3.795
X5.735Y-3.795
X5.91Y-3.79
X6.01Y-3.79
X6.11Y-3.79
T4
X4.84Y-6.255
X5.05Y-3.975
X6.76Y-5.4
T0
M30
