G04 (created by PCBNEW (2013-07-07 BZR 4022)-stable) date 16/12/2013 14:51:33*
%MOIN*%
G04 Gerber Fmt 3.4, Leading zero omitted, Abs format*
%FSLAX34Y34*%
G01*
G70*
G90*
G04 APERTURE LIST*
%ADD10C,0.00590551*%
%ADD11R,0.06X0.06*%
%ADD12C,0.06*%
%ADD13R,0.1X0.1*%
%ADD14C,0.1*%
%ADD15R,0.055X0.055*%
%ADD16C,0.055*%
%ADD17C,0.04*%
%ADD18C,0.065*%
%ADD19C,0.01*%
%ADD20C,0.0154*%
%ADD21C,0.02*%
%ADD22C,0.0544*%
G04 APERTURE END LIST*
G54D10*
G54D11*
X70000Y-49984D03*
G54D12*
X71000Y-49984D03*
X70000Y-50984D03*
X71000Y-50984D03*
X70000Y-51984D03*
X71000Y-51984D03*
X70000Y-52984D03*
X71000Y-52984D03*
X70000Y-53984D03*
X71000Y-53984D03*
X70000Y-54984D03*
X71000Y-54984D03*
X70000Y-55984D03*
X71000Y-55984D03*
X70000Y-56984D03*
X71000Y-56984D03*
X70000Y-57984D03*
X71000Y-57984D03*
X70000Y-58984D03*
X71000Y-58984D03*
G54D13*
X87550Y-54450D03*
G54D14*
X87550Y-52450D03*
X87550Y-50450D03*
G54D13*
X87550Y-58450D03*
G54D14*
X87550Y-56450D03*
G54D13*
X87550Y-48450D03*
G54D14*
X87550Y-46450D03*
G54D11*
X73850Y-49984D03*
G54D12*
X74850Y-49984D03*
X73850Y-50984D03*
X74850Y-50984D03*
X73850Y-51984D03*
X74850Y-51984D03*
X73850Y-52984D03*
X74850Y-52984D03*
X73850Y-53984D03*
X74850Y-53984D03*
X73850Y-54984D03*
X74850Y-54984D03*
X73850Y-55984D03*
X74850Y-55984D03*
X73850Y-56984D03*
X74850Y-56984D03*
X73850Y-57984D03*
X74850Y-57984D03*
X73850Y-58984D03*
X74850Y-58984D03*
G54D13*
X76550Y-46700D03*
G54D14*
X74550Y-46700D03*
X72550Y-46700D03*
G54D15*
X84600Y-47950D03*
G54D16*
X84600Y-46950D03*
G54D15*
X84750Y-49950D03*
G54D16*
X84750Y-48950D03*
G54D15*
X84350Y-51950D03*
G54D16*
X84350Y-50950D03*
G54D15*
X84350Y-52950D03*
G54D16*
X84350Y-53950D03*
G54D15*
X84350Y-54950D03*
G54D16*
X84350Y-55950D03*
G54D15*
X85000Y-56950D03*
G54D16*
X85000Y-57950D03*
G54D15*
X79550Y-45950D03*
G54D16*
X78550Y-45950D03*
G54D15*
X83800Y-46950D03*
G54D16*
X83800Y-47950D03*
G54D17*
X86550Y-58700D03*
X86050Y-58950D03*
X85550Y-58700D03*
X85050Y-58950D03*
G54D18*
X84300Y-58950D03*
X83550Y-58950D03*
X83550Y-58200D03*
X83300Y-57450D03*
X82550Y-57200D03*
X81800Y-57200D03*
X81050Y-57450D03*
X80550Y-58450D03*
X80050Y-58950D03*
X78050Y-46700D03*
G54D17*
X77050Y-58950D03*
X72060Y-58810D03*
X74450Y-57580D03*
G54D18*
X82225Y-49025D03*
X80375Y-48425D03*
G54D17*
X80850Y-47500D03*
X82900Y-48850D03*
X83000Y-52100D03*
X75850Y-55450D03*
X70050Y-48450D03*
X70050Y-47450D03*
X70550Y-47950D03*
X71050Y-47450D03*
X71550Y-46950D03*
X72300Y-45700D03*
X73050Y-45700D03*
X74800Y-45700D03*
X74050Y-45700D03*
X73550Y-46200D03*
X73550Y-46950D03*
X72550Y-47950D03*
X72050Y-48200D03*
X71550Y-48700D03*
X71800Y-50200D03*
X72050Y-49700D03*
X71800Y-49200D03*
X75050Y-47950D03*
X74550Y-49200D03*
X74050Y-48950D03*
X74550Y-48450D03*
X75050Y-48950D03*
X75550Y-49450D03*
X76450Y-57300D03*
X76100Y-52450D03*
X75850Y-54450D03*
X76450Y-56050D03*
X76900Y-58200D03*
X87800Y-57450D03*
X86800Y-57200D03*
X86550Y-56700D03*
X86300Y-57200D03*
X85800Y-56700D03*
X86550Y-55200D03*
X86050Y-54700D03*
X85550Y-55200D03*
X85050Y-54700D03*
X86800Y-53200D03*
X87550Y-53450D03*
X86550Y-52700D03*
X86050Y-52200D03*
X85050Y-52200D03*
X85550Y-51700D03*
X86550Y-51700D03*
X87550Y-51450D03*
X86300Y-48200D03*
X85800Y-47700D03*
X85300Y-48200D03*
X86050Y-49700D03*
X85550Y-50200D03*
X86050Y-53200D03*
X85550Y-52700D03*
X85050Y-53200D03*
G54D18*
X80375Y-51125D03*
X83050Y-46950D03*
X83550Y-46200D03*
X84050Y-45700D03*
X84550Y-46200D03*
X85050Y-45700D03*
X85550Y-46200D03*
X86050Y-45700D03*
X86550Y-46200D03*
X86800Y-45700D03*
X79550Y-46700D03*
X80300Y-46700D03*
X83050Y-47950D03*
X78550Y-56950D03*
X79300Y-56950D03*
X79550Y-56200D03*
X78800Y-56200D03*
X75550Y-47450D03*
X75550Y-48450D03*
X76050Y-48950D03*
X76550Y-48450D03*
X76050Y-47950D03*
X77050Y-47950D03*
X78925Y-48225D03*
X80375Y-54175D03*
G54D17*
X78275Y-53075D03*
G54D18*
X78925Y-54075D03*
X79475Y-51525D03*
X82275Y-55075D03*
X83075Y-55025D03*
X78775Y-51175D03*
X81425Y-49025D03*
X79575Y-54525D03*
G54D17*
X77875Y-50175D03*
G54D18*
X79625Y-48475D03*
X82175Y-52075D03*
X81475Y-55025D03*
X81425Y-52075D03*
G54D19*
X86300Y-58700D02*
X86550Y-58700D01*
X86050Y-58950D02*
X86300Y-58700D01*
X85300Y-58700D02*
X85550Y-58700D01*
X85050Y-58950D02*
X85300Y-58700D01*
X83550Y-58950D02*
X84300Y-58950D01*
X83550Y-57700D02*
X83550Y-58200D01*
X83300Y-57450D02*
X83550Y-57700D01*
X81800Y-57200D02*
X82550Y-57200D01*
X81050Y-57950D02*
X81050Y-57450D01*
X80550Y-58450D02*
X81050Y-57950D01*
X79300Y-58950D02*
X80050Y-58950D01*
X78050Y-57700D02*
X79300Y-58950D01*
G54D20*
X70500Y-50984D02*
X70500Y-58250D01*
X76600Y-58500D02*
X77050Y-58950D01*
X72600Y-58500D02*
X76600Y-58500D01*
X72450Y-58350D02*
X72600Y-58500D01*
X71700Y-58350D02*
X72450Y-58350D01*
X71550Y-58500D02*
X71700Y-58350D01*
X70870Y-58500D02*
X71550Y-58500D01*
X70750Y-58500D02*
X70870Y-58500D01*
X70500Y-58250D02*
X70750Y-58500D01*
G54D21*
X71000Y-50984D02*
X70500Y-50984D01*
X70500Y-50984D02*
X70550Y-50984D01*
X70550Y-50984D02*
X70000Y-50984D01*
X74850Y-50984D02*
X73850Y-50984D01*
G54D19*
X71886Y-58984D02*
X71000Y-58984D01*
X72060Y-58810D02*
X71886Y-58984D01*
X73116Y-57984D02*
X71000Y-57984D01*
X73610Y-57490D02*
X73116Y-57984D01*
X74360Y-57490D02*
X73610Y-57490D01*
X74450Y-57580D02*
X74360Y-57490D01*
G54D22*
X80375Y-48425D02*
X80375Y-47975D01*
X80375Y-47975D02*
X80850Y-47500D01*
X83050Y-47950D02*
X83050Y-48100D01*
X83050Y-48100D02*
X82600Y-48550D01*
G54D19*
X76400Y-54950D02*
X76350Y-54950D01*
X76350Y-54950D02*
X75850Y-55450D01*
X70050Y-47450D02*
X70050Y-48450D01*
X71050Y-47450D02*
X70550Y-47950D01*
X71550Y-46450D02*
X71550Y-46950D01*
X72300Y-45700D02*
X71550Y-46450D01*
X74800Y-45700D02*
X73050Y-45700D01*
X73550Y-46200D02*
X74050Y-45700D01*
X72550Y-47950D02*
X73550Y-46950D01*
X71550Y-48700D02*
X72050Y-48200D01*
X71000Y-49984D02*
X71016Y-49984D01*
X71800Y-49950D02*
X71800Y-50200D01*
X72050Y-49700D02*
X71800Y-49950D01*
X71016Y-49984D02*
X71800Y-49200D01*
X76050Y-48950D02*
X75550Y-49450D01*
X74300Y-49200D02*
X74550Y-49200D01*
X74050Y-48950D02*
X74300Y-49200D01*
X75050Y-48950D02*
X74550Y-48450D01*
X76450Y-57300D02*
X76450Y-57750D01*
X76400Y-54900D02*
X76400Y-54950D01*
X76400Y-54950D02*
X76400Y-56000D01*
X75950Y-54450D02*
X76400Y-54900D01*
X76100Y-52450D02*
X76100Y-54200D01*
X75284Y-49984D02*
X76100Y-50800D01*
X76100Y-50800D02*
X76100Y-52450D01*
X74850Y-49984D02*
X75284Y-49984D01*
X76100Y-54200D02*
X75850Y-54450D01*
X75850Y-54450D02*
X75950Y-54450D01*
X76400Y-56000D02*
X76450Y-56050D01*
X76450Y-57300D02*
X76450Y-56050D01*
X76450Y-57750D02*
X76900Y-58200D01*
X86800Y-56950D02*
X86800Y-57200D01*
X86550Y-56700D02*
X86800Y-56950D01*
X85800Y-56700D02*
X86300Y-57200D01*
X86050Y-54700D02*
X86550Y-55200D01*
X85050Y-54700D02*
X85550Y-55200D01*
X86800Y-53200D02*
X87300Y-53200D01*
X86550Y-52950D02*
X86800Y-53200D01*
X86550Y-52700D02*
X86550Y-52950D01*
X87300Y-53200D02*
X87550Y-53450D01*
X86050Y-52200D02*
X85050Y-52200D01*
X85550Y-51700D02*
X86550Y-51700D01*
X85300Y-48200D02*
X85800Y-47700D01*
X85550Y-50200D02*
X86050Y-49700D01*
X86050Y-53200D02*
X86550Y-52700D01*
X85050Y-53200D02*
X85550Y-52700D01*
G54D22*
X87550Y-52450D02*
X86800Y-52450D01*
G54D19*
X83050Y-47950D02*
X83050Y-46950D01*
X83550Y-46200D02*
X84050Y-45700D01*
X84550Y-46200D02*
X85050Y-45700D01*
X85550Y-46200D02*
X86050Y-45700D01*
X86550Y-46200D02*
X86800Y-45950D01*
X86800Y-45950D02*
X86800Y-45700D01*
X79550Y-46700D02*
X78800Y-46700D01*
X83050Y-47950D02*
X82800Y-48200D01*
X82800Y-48200D02*
X82800Y-48950D01*
X80300Y-46950D02*
X80300Y-46700D01*
X81050Y-47700D02*
X80300Y-46950D01*
X79300Y-56950D02*
X78550Y-56950D01*
X78800Y-56200D02*
X79550Y-56200D01*
G54D22*
X75550Y-48450D02*
X75550Y-47450D01*
X76550Y-48450D02*
X76050Y-48950D01*
X77050Y-47950D02*
X76050Y-47950D01*
G54D10*
G36*
X88100Y-57808D02*
X88079Y-57800D01*
X88020Y-57799D01*
X87020Y-57799D01*
X86965Y-57822D01*
X86922Y-57864D01*
X86900Y-57920D01*
X86899Y-57979D01*
X86899Y-58630D01*
X86846Y-58502D01*
X86748Y-58403D01*
X86619Y-58350D01*
X86480Y-58349D01*
X86352Y-58403D01*
X86253Y-58501D01*
X86249Y-58509D01*
X86223Y-58515D01*
X86201Y-58529D01*
X86158Y-58558D01*
X86117Y-58600D01*
X85980Y-58599D01*
X85900Y-58633D01*
X85900Y-58630D01*
X85846Y-58502D01*
X85748Y-58403D01*
X85619Y-58350D01*
X85480Y-58349D01*
X85425Y-58372D01*
X85425Y-57865D01*
X85425Y-57865D01*
X85425Y-57254D01*
X85425Y-56645D01*
X85402Y-56590D01*
X85360Y-56547D01*
X85304Y-56525D01*
X85245Y-56524D01*
X85175Y-56524D01*
X85175Y-48865D01*
X85110Y-48709D01*
X85025Y-48623D01*
X85025Y-46865D01*
X84960Y-46709D01*
X84841Y-46589D01*
X84684Y-46525D01*
X84515Y-46524D01*
X84359Y-46589D01*
X84239Y-46708D01*
X84225Y-46744D01*
X84225Y-46645D01*
X84202Y-46590D01*
X84160Y-46547D01*
X84104Y-46525D01*
X84045Y-46524D01*
X83495Y-46524D01*
X83440Y-46547D01*
X83397Y-46589D01*
X83375Y-46645D01*
X83374Y-46704D01*
X83374Y-47254D01*
X83397Y-47309D01*
X83439Y-47352D01*
X83495Y-47374D01*
X83554Y-47375D01*
X84104Y-47375D01*
X84159Y-47352D01*
X84202Y-47310D01*
X84224Y-47254D01*
X84225Y-47195D01*
X84225Y-47155D01*
X84239Y-47190D01*
X84358Y-47310D01*
X84515Y-47374D01*
X84684Y-47375D01*
X84840Y-47310D01*
X84960Y-47191D01*
X85024Y-47034D01*
X85025Y-46865D01*
X85025Y-48623D01*
X85025Y-48623D01*
X85025Y-48254D01*
X85025Y-47645D01*
X85002Y-47590D01*
X84960Y-47547D01*
X84904Y-47525D01*
X84845Y-47524D01*
X84687Y-47525D01*
X84650Y-47562D01*
X84650Y-47900D01*
X84987Y-47900D01*
X85025Y-47862D01*
X85025Y-47645D01*
X85025Y-48254D01*
X85025Y-48037D01*
X84987Y-48000D01*
X84650Y-48000D01*
X84650Y-48337D01*
X84687Y-48375D01*
X84845Y-48375D01*
X84904Y-48374D01*
X84960Y-48352D01*
X85002Y-48309D01*
X85025Y-48254D01*
X85025Y-48623D01*
X84991Y-48589D01*
X84834Y-48525D01*
X84665Y-48524D01*
X84550Y-48572D01*
X84550Y-48337D01*
X84550Y-48000D01*
X84542Y-48000D01*
X84542Y-47900D01*
X84550Y-47900D01*
X84550Y-47562D01*
X84512Y-47525D01*
X84354Y-47524D01*
X84295Y-47525D01*
X84239Y-47547D01*
X84197Y-47590D01*
X84174Y-47645D01*
X84174Y-47744D01*
X84160Y-47709D01*
X84041Y-47589D01*
X83884Y-47525D01*
X83715Y-47524D01*
X83559Y-47589D01*
X83439Y-47708D01*
X83375Y-47865D01*
X83374Y-48034D01*
X83439Y-48190D01*
X83558Y-48310D01*
X83715Y-48374D01*
X83884Y-48375D01*
X84040Y-48310D01*
X84160Y-48191D01*
X84174Y-48155D01*
X84174Y-48254D01*
X84197Y-48309D01*
X84239Y-48352D01*
X84295Y-48374D01*
X84354Y-48375D01*
X84512Y-48375D01*
X84550Y-48337D01*
X84550Y-48572D01*
X84509Y-48589D01*
X84389Y-48708D01*
X84325Y-48865D01*
X84324Y-49034D01*
X84389Y-49190D01*
X84508Y-49310D01*
X84665Y-49374D01*
X84834Y-49375D01*
X84990Y-49310D01*
X85110Y-49191D01*
X85174Y-49034D01*
X85175Y-48865D01*
X85175Y-56524D01*
X85175Y-56524D01*
X85175Y-50254D01*
X85175Y-49645D01*
X85152Y-49590D01*
X85110Y-49547D01*
X85054Y-49525D01*
X84995Y-49524D01*
X84837Y-49525D01*
X84800Y-49562D01*
X84800Y-49900D01*
X85137Y-49900D01*
X85175Y-49862D01*
X85175Y-49645D01*
X85175Y-50254D01*
X85175Y-50037D01*
X85137Y-50000D01*
X84800Y-50000D01*
X84800Y-50337D01*
X84837Y-50375D01*
X84995Y-50375D01*
X85054Y-50374D01*
X85110Y-50352D01*
X85152Y-50309D01*
X85175Y-50254D01*
X85175Y-56524D01*
X85087Y-56525D01*
X85050Y-56562D01*
X85050Y-56900D01*
X85387Y-56900D01*
X85425Y-56862D01*
X85425Y-56645D01*
X85425Y-57254D01*
X85425Y-57037D01*
X85387Y-57000D01*
X85050Y-57000D01*
X85050Y-57337D01*
X85087Y-57375D01*
X85245Y-57375D01*
X85304Y-57374D01*
X85360Y-57352D01*
X85402Y-57309D01*
X85425Y-57254D01*
X85425Y-57865D01*
X85360Y-57709D01*
X85241Y-57589D01*
X85084Y-57525D01*
X84950Y-57524D01*
X84950Y-57337D01*
X84950Y-57000D01*
X84950Y-56900D01*
X84950Y-56562D01*
X84912Y-56525D01*
X84775Y-56524D01*
X84775Y-55865D01*
X84775Y-53865D01*
X84775Y-50865D01*
X84710Y-50709D01*
X84700Y-50699D01*
X84700Y-50337D01*
X84700Y-50000D01*
X84700Y-49900D01*
X84700Y-49562D01*
X84662Y-49525D01*
X84504Y-49524D01*
X84445Y-49525D01*
X84389Y-49547D01*
X84347Y-49590D01*
X84324Y-49645D01*
X84325Y-49862D01*
X84362Y-49900D01*
X84700Y-49900D01*
X84700Y-50000D01*
X84362Y-50000D01*
X84325Y-50037D01*
X84324Y-50254D01*
X84347Y-50309D01*
X84389Y-50352D01*
X84445Y-50374D01*
X84504Y-50375D01*
X84662Y-50375D01*
X84700Y-50337D01*
X84700Y-50699D01*
X84591Y-50589D01*
X84434Y-50525D01*
X84265Y-50524D01*
X84109Y-50589D01*
X83989Y-50708D01*
X83925Y-50865D01*
X83924Y-51034D01*
X83989Y-51190D01*
X84108Y-51310D01*
X84265Y-51374D01*
X84434Y-51375D01*
X84590Y-51310D01*
X84710Y-51191D01*
X84774Y-51034D01*
X84775Y-50865D01*
X84775Y-53865D01*
X84775Y-53865D01*
X84775Y-53254D01*
X84775Y-52645D01*
X84775Y-52254D01*
X84775Y-51645D01*
X84752Y-51590D01*
X84710Y-51547D01*
X84654Y-51525D01*
X84595Y-51524D01*
X84437Y-51525D01*
X84400Y-51562D01*
X84400Y-51900D01*
X84737Y-51900D01*
X84775Y-51862D01*
X84775Y-51645D01*
X84775Y-52254D01*
X84775Y-52037D01*
X84737Y-52000D01*
X84400Y-52000D01*
X84400Y-52337D01*
X84437Y-52375D01*
X84595Y-52375D01*
X84654Y-52374D01*
X84710Y-52352D01*
X84752Y-52309D01*
X84775Y-52254D01*
X84775Y-52645D01*
X84752Y-52590D01*
X84710Y-52547D01*
X84654Y-52525D01*
X84595Y-52524D01*
X84437Y-52525D01*
X84400Y-52562D01*
X84400Y-52900D01*
X84737Y-52900D01*
X84775Y-52862D01*
X84775Y-52645D01*
X84775Y-53254D01*
X84775Y-53037D01*
X84737Y-53000D01*
X84400Y-53000D01*
X84400Y-53337D01*
X84437Y-53375D01*
X84595Y-53375D01*
X84654Y-53374D01*
X84710Y-53352D01*
X84752Y-53309D01*
X84775Y-53254D01*
X84775Y-53865D01*
X84710Y-53709D01*
X84591Y-53589D01*
X84434Y-53525D01*
X84300Y-53524D01*
X84300Y-53337D01*
X84300Y-53000D01*
X84300Y-52900D01*
X84300Y-52562D01*
X84300Y-52337D01*
X84300Y-52000D01*
X84300Y-51900D01*
X84300Y-51562D01*
X84262Y-51525D01*
X84104Y-51524D01*
X84045Y-51525D01*
X83989Y-51547D01*
X83947Y-51590D01*
X83924Y-51645D01*
X83925Y-51862D01*
X83962Y-51900D01*
X84300Y-51900D01*
X84300Y-52000D01*
X83962Y-52000D01*
X83925Y-52037D01*
X83924Y-52254D01*
X83947Y-52309D01*
X83989Y-52352D01*
X84045Y-52374D01*
X84104Y-52375D01*
X84262Y-52375D01*
X84300Y-52337D01*
X84300Y-52562D01*
X84262Y-52525D01*
X84104Y-52524D01*
X84045Y-52525D01*
X83989Y-52547D01*
X83947Y-52590D01*
X83924Y-52645D01*
X83925Y-52862D01*
X83962Y-52900D01*
X84300Y-52900D01*
X84300Y-53000D01*
X83962Y-53000D01*
X83925Y-53037D01*
X83924Y-53254D01*
X83947Y-53309D01*
X83989Y-53352D01*
X84045Y-53374D01*
X84104Y-53375D01*
X84262Y-53375D01*
X84300Y-53337D01*
X84300Y-53524D01*
X84265Y-53524D01*
X84109Y-53589D01*
X83989Y-53708D01*
X83925Y-53865D01*
X83924Y-54034D01*
X83989Y-54190D01*
X84108Y-54310D01*
X84265Y-54374D01*
X84434Y-54375D01*
X84590Y-54310D01*
X84710Y-54191D01*
X84774Y-54034D01*
X84775Y-53865D01*
X84775Y-55865D01*
X84775Y-55865D01*
X84775Y-55254D01*
X84775Y-54645D01*
X84752Y-54590D01*
X84710Y-54547D01*
X84654Y-54525D01*
X84595Y-54524D01*
X84437Y-54525D01*
X84400Y-54562D01*
X84400Y-54900D01*
X84737Y-54900D01*
X84775Y-54862D01*
X84775Y-54645D01*
X84775Y-55254D01*
X84775Y-55037D01*
X84737Y-55000D01*
X84400Y-55000D01*
X84400Y-55337D01*
X84437Y-55375D01*
X84595Y-55375D01*
X84654Y-55374D01*
X84710Y-55352D01*
X84752Y-55309D01*
X84775Y-55254D01*
X84775Y-55865D01*
X84710Y-55709D01*
X84591Y-55589D01*
X84434Y-55525D01*
X84300Y-55524D01*
X84300Y-55337D01*
X84300Y-55000D01*
X84300Y-54900D01*
X84300Y-54562D01*
X84262Y-54525D01*
X84104Y-54524D01*
X84045Y-54525D01*
X83989Y-54547D01*
X83947Y-54590D01*
X83924Y-54645D01*
X83925Y-54862D01*
X83962Y-54900D01*
X84300Y-54900D01*
X84300Y-55000D01*
X83962Y-55000D01*
X83925Y-55037D01*
X83924Y-55254D01*
X83947Y-55309D01*
X83989Y-55352D01*
X84045Y-55374D01*
X84104Y-55375D01*
X84262Y-55375D01*
X84300Y-55337D01*
X84300Y-55524D01*
X84265Y-55524D01*
X84109Y-55589D01*
X83989Y-55708D01*
X83925Y-55865D01*
X83924Y-56034D01*
X83989Y-56190D01*
X84108Y-56310D01*
X84265Y-56374D01*
X84434Y-56375D01*
X84590Y-56310D01*
X84710Y-56191D01*
X84774Y-56034D01*
X84775Y-55865D01*
X84775Y-56524D01*
X84754Y-56524D01*
X84695Y-56525D01*
X84639Y-56547D01*
X84597Y-56590D01*
X84574Y-56645D01*
X84575Y-56862D01*
X84612Y-56900D01*
X84950Y-56900D01*
X84950Y-57000D01*
X84612Y-57000D01*
X84575Y-57037D01*
X84574Y-57254D01*
X84597Y-57309D01*
X84639Y-57352D01*
X84695Y-57374D01*
X84754Y-57375D01*
X84912Y-57375D01*
X84950Y-57337D01*
X84950Y-57524D01*
X84915Y-57524D01*
X84759Y-57589D01*
X84639Y-57708D01*
X84575Y-57865D01*
X84574Y-58034D01*
X84639Y-58190D01*
X84758Y-58310D01*
X84915Y-58374D01*
X85084Y-58375D01*
X85240Y-58310D01*
X85360Y-58191D01*
X85424Y-58034D01*
X85425Y-57865D01*
X85425Y-58372D01*
X85352Y-58403D01*
X85253Y-58501D01*
X85249Y-58509D01*
X85223Y-58515D01*
X85201Y-58529D01*
X85158Y-58558D01*
X85117Y-58600D01*
X84980Y-58599D01*
X84852Y-58653D01*
X84753Y-58751D01*
X84742Y-58777D01*
X84702Y-58681D01*
X84569Y-58547D01*
X84394Y-58475D01*
X84205Y-58474D01*
X84031Y-58547D01*
X83924Y-58653D01*
X83846Y-58574D01*
X83952Y-58469D01*
X84024Y-58294D01*
X84025Y-58105D01*
X83952Y-57931D01*
X83819Y-57797D01*
X83750Y-57768D01*
X83750Y-57700D01*
X83737Y-57635D01*
X83774Y-57544D01*
X83775Y-57355D01*
X83702Y-57181D01*
X83569Y-57047D01*
X83394Y-56975D01*
X83205Y-56974D01*
X83031Y-57047D01*
X83009Y-57068D01*
X82952Y-56931D01*
X82819Y-56797D01*
X82644Y-56725D01*
X82455Y-56724D01*
X82281Y-56797D01*
X82174Y-56903D01*
X82069Y-56797D01*
X81894Y-56725D01*
X81705Y-56724D01*
X81531Y-56797D01*
X81397Y-56930D01*
X81340Y-57068D01*
X81319Y-57047D01*
X81144Y-56975D01*
X80955Y-56974D01*
X80781Y-57047D01*
X80647Y-57180D01*
X80575Y-57355D01*
X80574Y-57544D01*
X80647Y-57718D01*
X80780Y-57852D01*
X80840Y-57877D01*
X80713Y-58003D01*
X80644Y-57975D01*
X80455Y-57974D01*
X80281Y-58047D01*
X80147Y-58180D01*
X80075Y-58355D01*
X80074Y-58475D01*
X79975Y-58474D01*
X79975Y-46195D01*
X79975Y-45645D01*
X79952Y-45590D01*
X79910Y-45547D01*
X79854Y-45525D01*
X79795Y-45524D01*
X79245Y-45524D01*
X79190Y-45547D01*
X79147Y-45589D01*
X79125Y-45645D01*
X79124Y-45704D01*
X79124Y-46254D01*
X79147Y-46309D01*
X79189Y-46352D01*
X79245Y-46374D01*
X79304Y-46375D01*
X79854Y-46375D01*
X79909Y-46352D01*
X79952Y-46310D01*
X79974Y-46254D01*
X79975Y-46195D01*
X79975Y-58474D01*
X79955Y-58474D01*
X79781Y-58547D01*
X79647Y-58680D01*
X79618Y-58750D01*
X79382Y-58750D01*
X78975Y-58342D01*
X78975Y-45865D01*
X78910Y-45709D01*
X78791Y-45589D01*
X78634Y-45525D01*
X78465Y-45524D01*
X78309Y-45589D01*
X78189Y-45708D01*
X78125Y-45865D01*
X78124Y-46034D01*
X78189Y-46190D01*
X78280Y-46281D01*
X78144Y-46225D01*
X77955Y-46224D01*
X77781Y-46297D01*
X77647Y-46430D01*
X77575Y-46605D01*
X77574Y-46794D01*
X77647Y-46968D01*
X77780Y-47102D01*
X77955Y-47174D01*
X78144Y-47175D01*
X78318Y-47102D01*
X78452Y-46969D01*
X78524Y-46794D01*
X78525Y-46605D01*
X78452Y-46431D01*
X78348Y-46326D01*
X78465Y-46374D01*
X78634Y-46375D01*
X78790Y-46310D01*
X78910Y-46191D01*
X78974Y-46034D01*
X78975Y-45865D01*
X78975Y-58342D01*
X78191Y-57558D01*
X78126Y-57515D01*
X78050Y-57500D01*
X77973Y-57515D01*
X77908Y-57558D01*
X77865Y-57623D01*
X77850Y-57700D01*
X77865Y-57776D01*
X77908Y-57841D01*
X79158Y-59091D01*
X79223Y-59134D01*
X79300Y-59150D01*
X79618Y-59150D01*
X79647Y-59218D01*
X79678Y-59250D01*
X77240Y-59250D01*
X77248Y-59246D01*
X77346Y-59148D01*
X77399Y-59019D01*
X77400Y-58880D01*
X77346Y-58752D01*
X77248Y-58653D01*
X77200Y-58633D01*
X77200Y-47170D01*
X77200Y-46229D01*
X77199Y-46170D01*
X77177Y-46114D01*
X77134Y-46072D01*
X77079Y-46049D01*
X76637Y-46050D01*
X76600Y-46087D01*
X76600Y-46650D01*
X77162Y-46650D01*
X77200Y-46612D01*
X77200Y-46229D01*
X77200Y-47170D01*
X77200Y-46787D01*
X77162Y-46750D01*
X76600Y-46750D01*
X76600Y-47312D01*
X76637Y-47350D01*
X77079Y-47350D01*
X77134Y-47327D01*
X77177Y-47285D01*
X77199Y-47229D01*
X77200Y-47170D01*
X77200Y-58633D01*
X77119Y-58600D01*
X77021Y-58599D01*
X76760Y-58339D01*
X76686Y-58290D01*
X76672Y-58287D01*
X76600Y-58272D01*
X76599Y-58273D01*
X76500Y-58273D01*
X76500Y-47312D01*
X76500Y-46750D01*
X76500Y-46650D01*
X76500Y-46087D01*
X76462Y-46050D01*
X76020Y-46049D01*
X75965Y-46072D01*
X75922Y-46114D01*
X75900Y-46170D01*
X75899Y-46229D01*
X75900Y-46612D01*
X75937Y-46650D01*
X76500Y-46650D01*
X76500Y-46750D01*
X75937Y-46750D01*
X75900Y-46787D01*
X75899Y-47170D01*
X75900Y-47229D01*
X75922Y-47285D01*
X75965Y-47327D01*
X76020Y-47350D01*
X76462Y-47350D01*
X76500Y-47312D01*
X76500Y-58273D01*
X75305Y-58273D01*
X75305Y-50041D01*
X75292Y-49863D01*
X75248Y-49756D01*
X75200Y-49732D01*
X75200Y-46571D01*
X75101Y-46332D01*
X74918Y-46149D01*
X74679Y-46050D01*
X74421Y-46049D01*
X74182Y-46148D01*
X73999Y-46331D01*
X73900Y-46570D01*
X73899Y-46828D01*
X73998Y-47067D01*
X74181Y-47250D01*
X74420Y-47349D01*
X74678Y-47350D01*
X74917Y-47251D01*
X75100Y-47068D01*
X75199Y-46829D01*
X75200Y-46571D01*
X75200Y-49732D01*
X75181Y-49723D01*
X75110Y-49794D01*
X75110Y-49652D01*
X75077Y-49585D01*
X74907Y-49528D01*
X74729Y-49541D01*
X74622Y-49585D01*
X74589Y-49652D01*
X74850Y-49913D01*
X75110Y-49652D01*
X75110Y-49794D01*
X74920Y-49984D01*
X75181Y-50244D01*
X75248Y-50211D01*
X75305Y-50041D01*
X75305Y-58273D01*
X75197Y-58273D01*
X75231Y-58239D01*
X75299Y-58073D01*
X75300Y-57894D01*
X75231Y-57729D01*
X75105Y-57602D01*
X74939Y-57534D01*
X74800Y-57533D01*
X74800Y-57510D01*
X74768Y-57433D01*
X74939Y-57434D01*
X75104Y-57365D01*
X75231Y-57239D01*
X75299Y-57073D01*
X75300Y-56894D01*
X75300Y-55894D01*
X75300Y-54894D01*
X75300Y-53894D01*
X75300Y-52894D01*
X75300Y-51894D01*
X75300Y-50894D01*
X75231Y-50729D01*
X75110Y-50607D01*
X75110Y-50315D01*
X74850Y-50054D01*
X74779Y-50125D01*
X74779Y-49984D01*
X74518Y-49723D01*
X74451Y-49756D01*
X74394Y-49926D01*
X74407Y-50104D01*
X74451Y-50211D01*
X74518Y-50244D01*
X74779Y-49984D01*
X74779Y-50125D01*
X74589Y-50315D01*
X74622Y-50382D01*
X74792Y-50439D01*
X74970Y-50426D01*
X75077Y-50382D01*
X75110Y-50315D01*
X75110Y-50607D01*
X75105Y-50602D01*
X74939Y-50534D01*
X74760Y-50533D01*
X74595Y-50602D01*
X74468Y-50728D01*
X74466Y-50734D01*
X74300Y-50734D01*
X74300Y-50313D01*
X74300Y-49654D01*
X74277Y-49599D01*
X74235Y-49556D01*
X74179Y-49534D01*
X74120Y-49533D01*
X73937Y-49534D01*
X73900Y-49571D01*
X73900Y-49934D01*
X74262Y-49934D01*
X74300Y-49896D01*
X74300Y-49654D01*
X74300Y-50313D01*
X74300Y-50071D01*
X74262Y-50034D01*
X73900Y-50034D01*
X73900Y-50396D01*
X73937Y-50434D01*
X74120Y-50434D01*
X74179Y-50433D01*
X74235Y-50411D01*
X74277Y-50368D01*
X74300Y-50313D01*
X74300Y-50734D01*
X74233Y-50734D01*
X74231Y-50729D01*
X74105Y-50602D01*
X73939Y-50534D01*
X73800Y-50533D01*
X73800Y-50396D01*
X73800Y-50034D01*
X73800Y-49934D01*
X73800Y-49571D01*
X73762Y-49534D01*
X73579Y-49533D01*
X73520Y-49534D01*
X73464Y-49556D01*
X73422Y-49599D01*
X73399Y-49654D01*
X73400Y-49896D01*
X73437Y-49934D01*
X73800Y-49934D01*
X73800Y-50034D01*
X73437Y-50034D01*
X73400Y-50071D01*
X73399Y-50313D01*
X73422Y-50368D01*
X73464Y-50411D01*
X73520Y-50433D01*
X73579Y-50434D01*
X73762Y-50434D01*
X73800Y-50396D01*
X73800Y-50533D01*
X73760Y-50533D01*
X73595Y-50602D01*
X73468Y-50728D01*
X73400Y-50894D01*
X73399Y-51073D01*
X73468Y-51238D01*
X73594Y-51365D01*
X73760Y-51433D01*
X73939Y-51434D01*
X74104Y-51365D01*
X74231Y-51239D01*
X74233Y-51234D01*
X74466Y-51234D01*
X74468Y-51238D01*
X74594Y-51365D01*
X74760Y-51433D01*
X74939Y-51434D01*
X75104Y-51365D01*
X75231Y-51239D01*
X75299Y-51073D01*
X75300Y-50894D01*
X75300Y-51894D01*
X75231Y-51729D01*
X75105Y-51602D01*
X74939Y-51534D01*
X74760Y-51533D01*
X74595Y-51602D01*
X74468Y-51728D01*
X74400Y-51894D01*
X74399Y-52073D01*
X74468Y-52238D01*
X74594Y-52365D01*
X74760Y-52433D01*
X74939Y-52434D01*
X75104Y-52365D01*
X75231Y-52239D01*
X75299Y-52073D01*
X75300Y-51894D01*
X75300Y-52894D01*
X75231Y-52729D01*
X75105Y-52602D01*
X74939Y-52534D01*
X74760Y-52533D01*
X74595Y-52602D01*
X74468Y-52728D01*
X74400Y-52894D01*
X74399Y-53073D01*
X74468Y-53238D01*
X74594Y-53365D01*
X74760Y-53433D01*
X74939Y-53434D01*
X75104Y-53365D01*
X75231Y-53239D01*
X75299Y-53073D01*
X75300Y-52894D01*
X75300Y-53894D01*
X75231Y-53729D01*
X75105Y-53602D01*
X74939Y-53534D01*
X74760Y-53533D01*
X74595Y-53602D01*
X74468Y-53728D01*
X74400Y-53894D01*
X74399Y-54073D01*
X74468Y-54238D01*
X74594Y-54365D01*
X74760Y-54433D01*
X74939Y-54434D01*
X75104Y-54365D01*
X75231Y-54239D01*
X75299Y-54073D01*
X75300Y-53894D01*
X75300Y-54894D01*
X75231Y-54729D01*
X75105Y-54602D01*
X74939Y-54534D01*
X74760Y-54533D01*
X74595Y-54602D01*
X74468Y-54728D01*
X74400Y-54894D01*
X74399Y-55073D01*
X74468Y-55238D01*
X74594Y-55365D01*
X74760Y-55433D01*
X74939Y-55434D01*
X75104Y-55365D01*
X75231Y-55239D01*
X75299Y-55073D01*
X75300Y-54894D01*
X75300Y-55894D01*
X75231Y-55729D01*
X75105Y-55602D01*
X74939Y-55534D01*
X74760Y-55533D01*
X74595Y-55602D01*
X74468Y-55728D01*
X74400Y-55894D01*
X74399Y-56073D01*
X74468Y-56238D01*
X74594Y-56365D01*
X74760Y-56433D01*
X74939Y-56434D01*
X75104Y-56365D01*
X75231Y-56239D01*
X75299Y-56073D01*
X75300Y-55894D01*
X75300Y-56894D01*
X75231Y-56729D01*
X75105Y-56602D01*
X74939Y-56534D01*
X74760Y-56533D01*
X74595Y-56602D01*
X74468Y-56728D01*
X74400Y-56894D01*
X74399Y-57073D01*
X74464Y-57230D01*
X74380Y-57229D01*
X74252Y-57283D01*
X74245Y-57290D01*
X74180Y-57290D01*
X74231Y-57239D01*
X74299Y-57073D01*
X74300Y-56894D01*
X74300Y-55894D01*
X74300Y-54894D01*
X74300Y-53894D01*
X74300Y-52894D01*
X74300Y-51894D01*
X74231Y-51729D01*
X74105Y-51602D01*
X73939Y-51534D01*
X73760Y-51533D01*
X73595Y-51602D01*
X73468Y-51728D01*
X73400Y-51894D01*
X73399Y-52073D01*
X73468Y-52238D01*
X73594Y-52365D01*
X73760Y-52433D01*
X73939Y-52434D01*
X74104Y-52365D01*
X74231Y-52239D01*
X74299Y-52073D01*
X74300Y-51894D01*
X74300Y-52894D01*
X74231Y-52729D01*
X74105Y-52602D01*
X73939Y-52534D01*
X73760Y-52533D01*
X73595Y-52602D01*
X73468Y-52728D01*
X73400Y-52894D01*
X73399Y-53073D01*
X73468Y-53238D01*
X73594Y-53365D01*
X73760Y-53433D01*
X73939Y-53434D01*
X74104Y-53365D01*
X74231Y-53239D01*
X74299Y-53073D01*
X74300Y-52894D01*
X74300Y-53894D01*
X74231Y-53729D01*
X74105Y-53602D01*
X73939Y-53534D01*
X73760Y-53533D01*
X73595Y-53602D01*
X73468Y-53728D01*
X73400Y-53894D01*
X73399Y-54073D01*
X73468Y-54238D01*
X73594Y-54365D01*
X73760Y-54433D01*
X73939Y-54434D01*
X74104Y-54365D01*
X74231Y-54239D01*
X74299Y-54073D01*
X74300Y-53894D01*
X74300Y-54894D01*
X74231Y-54729D01*
X74105Y-54602D01*
X73939Y-54534D01*
X73760Y-54533D01*
X73595Y-54602D01*
X73468Y-54728D01*
X73400Y-54894D01*
X73399Y-55073D01*
X73468Y-55238D01*
X73594Y-55365D01*
X73760Y-55433D01*
X73939Y-55434D01*
X74104Y-55365D01*
X74231Y-55239D01*
X74299Y-55073D01*
X74300Y-54894D01*
X74300Y-55894D01*
X74231Y-55729D01*
X74105Y-55602D01*
X73939Y-55534D01*
X73760Y-55533D01*
X73595Y-55602D01*
X73468Y-55728D01*
X73400Y-55894D01*
X73399Y-56073D01*
X73468Y-56238D01*
X73594Y-56365D01*
X73760Y-56433D01*
X73939Y-56434D01*
X74104Y-56365D01*
X74231Y-56239D01*
X74299Y-56073D01*
X74300Y-55894D01*
X74300Y-56894D01*
X74231Y-56729D01*
X74105Y-56602D01*
X73939Y-56534D01*
X73760Y-56533D01*
X73595Y-56602D01*
X73468Y-56728D01*
X73400Y-56894D01*
X73399Y-57073D01*
X73468Y-57238D01*
X73534Y-57304D01*
X73533Y-57305D01*
X73511Y-57319D01*
X73468Y-57348D01*
X73200Y-57617D01*
X73200Y-46571D01*
X73101Y-46332D01*
X72918Y-46149D01*
X72679Y-46050D01*
X72421Y-46049D01*
X72182Y-46148D01*
X71999Y-46331D01*
X71900Y-46570D01*
X71899Y-46828D01*
X71998Y-47067D01*
X72181Y-47250D01*
X72420Y-47349D01*
X72678Y-47350D01*
X72917Y-47251D01*
X73100Y-47068D01*
X73199Y-46829D01*
X73200Y-46571D01*
X73200Y-57617D01*
X73033Y-57784D01*
X71455Y-57784D01*
X71455Y-50041D01*
X71442Y-49863D01*
X71398Y-49756D01*
X71331Y-49723D01*
X71260Y-49794D01*
X71260Y-49652D01*
X71227Y-49585D01*
X71057Y-49528D01*
X70879Y-49541D01*
X70772Y-49585D01*
X70739Y-49652D01*
X71000Y-49913D01*
X71260Y-49652D01*
X71260Y-49794D01*
X71070Y-49984D01*
X71331Y-50244D01*
X71398Y-50211D01*
X71455Y-50041D01*
X71455Y-57784D01*
X71404Y-57784D01*
X71381Y-57729D01*
X71255Y-57602D01*
X71089Y-57534D01*
X70910Y-57533D01*
X70745Y-57602D01*
X70727Y-57620D01*
X70727Y-57347D01*
X70744Y-57365D01*
X70910Y-57433D01*
X71089Y-57434D01*
X71254Y-57365D01*
X71381Y-57239D01*
X71449Y-57073D01*
X71450Y-56894D01*
X71381Y-56729D01*
X71255Y-56602D01*
X71089Y-56534D01*
X70910Y-56533D01*
X70745Y-56602D01*
X70727Y-56620D01*
X70727Y-56347D01*
X70744Y-56365D01*
X70910Y-56433D01*
X71089Y-56434D01*
X71254Y-56365D01*
X71381Y-56239D01*
X71449Y-56073D01*
X71450Y-55894D01*
X71381Y-55729D01*
X71255Y-55602D01*
X71089Y-55534D01*
X70910Y-55533D01*
X70745Y-55602D01*
X70727Y-55620D01*
X70727Y-55347D01*
X70744Y-55365D01*
X70910Y-55433D01*
X71089Y-55434D01*
X71254Y-55365D01*
X71381Y-55239D01*
X71449Y-55073D01*
X71450Y-54894D01*
X71381Y-54729D01*
X71255Y-54602D01*
X71089Y-54534D01*
X70910Y-54533D01*
X70745Y-54602D01*
X70727Y-54620D01*
X70727Y-54347D01*
X70744Y-54365D01*
X70910Y-54433D01*
X71089Y-54434D01*
X71254Y-54365D01*
X71381Y-54239D01*
X71449Y-54073D01*
X71450Y-53894D01*
X71381Y-53729D01*
X71255Y-53602D01*
X71089Y-53534D01*
X70910Y-53533D01*
X70745Y-53602D01*
X70727Y-53620D01*
X70727Y-53347D01*
X70744Y-53365D01*
X70910Y-53433D01*
X71089Y-53434D01*
X71254Y-53365D01*
X71381Y-53239D01*
X71449Y-53073D01*
X71450Y-52894D01*
X71381Y-52729D01*
X71255Y-52602D01*
X71089Y-52534D01*
X70910Y-52533D01*
X70745Y-52602D01*
X70727Y-52620D01*
X70727Y-52347D01*
X70744Y-52365D01*
X70910Y-52433D01*
X71089Y-52434D01*
X71254Y-52365D01*
X71381Y-52239D01*
X71449Y-52073D01*
X71450Y-51894D01*
X71381Y-51729D01*
X71255Y-51602D01*
X71089Y-51534D01*
X70910Y-51533D01*
X70745Y-51602D01*
X70727Y-51620D01*
X70727Y-51347D01*
X70744Y-51365D01*
X70910Y-51433D01*
X71089Y-51434D01*
X71254Y-51365D01*
X71381Y-51239D01*
X71449Y-51073D01*
X71450Y-50894D01*
X71381Y-50729D01*
X71260Y-50607D01*
X71260Y-50315D01*
X71000Y-50054D01*
X70929Y-50125D01*
X70929Y-49984D01*
X70668Y-49723D01*
X70601Y-49756D01*
X70544Y-49926D01*
X70557Y-50104D01*
X70601Y-50211D01*
X70668Y-50244D01*
X70929Y-49984D01*
X70929Y-50125D01*
X70739Y-50315D01*
X70772Y-50382D01*
X70942Y-50439D01*
X71120Y-50426D01*
X71227Y-50382D01*
X71260Y-50315D01*
X71260Y-50607D01*
X71255Y-50602D01*
X71089Y-50534D01*
X70910Y-50533D01*
X70745Y-50602D01*
X70618Y-50728D01*
X70616Y-50734D01*
X70550Y-50734D01*
X70500Y-50734D01*
X70450Y-50734D01*
X70450Y-50313D01*
X70450Y-49654D01*
X70427Y-49599D01*
X70385Y-49556D01*
X70329Y-49534D01*
X70270Y-49533D01*
X70087Y-49534D01*
X70050Y-49571D01*
X70050Y-49934D01*
X70412Y-49934D01*
X70450Y-49896D01*
X70450Y-49654D01*
X70450Y-50313D01*
X70450Y-50071D01*
X70412Y-50034D01*
X70050Y-50034D01*
X70050Y-50396D01*
X70087Y-50434D01*
X70270Y-50434D01*
X70329Y-50433D01*
X70385Y-50411D01*
X70427Y-50368D01*
X70450Y-50313D01*
X70450Y-50734D01*
X70383Y-50734D01*
X70381Y-50729D01*
X70255Y-50602D01*
X70089Y-50534D01*
X69910Y-50533D01*
X69750Y-50600D01*
X69750Y-50434D01*
X69912Y-50434D01*
X69950Y-50396D01*
X69950Y-50034D01*
X69942Y-50034D01*
X69942Y-49934D01*
X69950Y-49934D01*
X69950Y-49571D01*
X69912Y-49534D01*
X69750Y-49533D01*
X69750Y-46484D01*
X69834Y-46610D01*
X69889Y-46665D01*
X69890Y-46665D01*
X70083Y-46794D01*
X70084Y-46795D01*
X70156Y-46825D01*
X70385Y-46871D01*
X70463Y-46871D01*
X70464Y-46871D01*
X70692Y-46825D01*
X70693Y-46825D01*
X70765Y-46795D01*
X70960Y-46665D01*
X71015Y-46610D01*
X71015Y-46609D01*
X71144Y-46416D01*
X71145Y-46415D01*
X71175Y-46343D01*
X71221Y-46114D01*
X71221Y-46113D01*
X71221Y-46113D01*
X71221Y-46075D01*
X71221Y-46036D01*
X71221Y-46036D01*
X71221Y-46035D01*
X71175Y-45806D01*
X71145Y-45734D01*
X71144Y-45733D01*
X71015Y-45540D01*
X71015Y-45539D01*
X70960Y-45484D01*
X70834Y-45400D01*
X81766Y-45400D01*
X81640Y-45484D01*
X81639Y-45484D01*
X81584Y-45539D01*
X81454Y-45734D01*
X81424Y-45806D01*
X81424Y-45807D01*
X81378Y-46035D01*
X81378Y-46035D01*
X81378Y-46036D01*
X81378Y-46075D01*
X81378Y-46113D01*
X81378Y-46114D01*
X81378Y-46114D01*
X81424Y-46342D01*
X81424Y-46343D01*
X81454Y-46415D01*
X81584Y-46610D01*
X81639Y-46665D01*
X81640Y-46665D01*
X81833Y-46794D01*
X81834Y-46795D01*
X81906Y-46825D01*
X82135Y-46871D01*
X82213Y-46871D01*
X82214Y-46871D01*
X82442Y-46825D01*
X82443Y-46825D01*
X82515Y-46795D01*
X82710Y-46665D01*
X82765Y-46610D01*
X82765Y-46609D01*
X82894Y-46416D01*
X82895Y-46415D01*
X82925Y-46343D01*
X82971Y-46114D01*
X82971Y-46113D01*
X82971Y-46113D01*
X82971Y-46075D01*
X82971Y-46036D01*
X82971Y-46036D01*
X82971Y-46035D01*
X82925Y-45806D01*
X82895Y-45734D01*
X82894Y-45733D01*
X82765Y-45540D01*
X82765Y-45539D01*
X82710Y-45484D01*
X82584Y-45400D01*
X88100Y-45400D01*
X88100Y-46080D01*
X87918Y-45899D01*
X87679Y-45800D01*
X87421Y-45799D01*
X87182Y-45898D01*
X86999Y-46081D01*
X86900Y-46320D01*
X86899Y-46578D01*
X86998Y-46817D01*
X87181Y-47000D01*
X87420Y-47099D01*
X87678Y-47100D01*
X87917Y-47001D01*
X88100Y-46819D01*
X88100Y-47808D01*
X88079Y-47800D01*
X88020Y-47799D01*
X87020Y-47799D01*
X86965Y-47822D01*
X86922Y-47864D01*
X86900Y-47920D01*
X86899Y-47979D01*
X86899Y-48979D01*
X86922Y-49034D01*
X86964Y-49077D01*
X87020Y-49099D01*
X87079Y-49100D01*
X88079Y-49100D01*
X88100Y-49091D01*
X88100Y-50080D01*
X87918Y-49899D01*
X87679Y-49800D01*
X87421Y-49799D01*
X87182Y-49898D01*
X86999Y-50081D01*
X86900Y-50320D01*
X86899Y-50578D01*
X86998Y-50817D01*
X87181Y-51000D01*
X87420Y-51099D01*
X87678Y-51100D01*
X87917Y-51001D01*
X88100Y-50819D01*
X88100Y-52092D01*
X88026Y-52044D01*
X87955Y-52115D01*
X87955Y-51973D01*
X87897Y-51885D01*
X87655Y-51795D01*
X87397Y-51805D01*
X87202Y-51885D01*
X87144Y-51973D01*
X87550Y-52379D01*
X87955Y-51973D01*
X87955Y-52115D01*
X87620Y-52450D01*
X88026Y-52855D01*
X88100Y-52807D01*
X88100Y-53808D01*
X88079Y-53800D01*
X88020Y-53799D01*
X87955Y-53799D01*
X87955Y-52926D01*
X87550Y-52520D01*
X87479Y-52591D01*
X87479Y-52450D01*
X87073Y-52044D01*
X86985Y-52102D01*
X86895Y-52344D01*
X86905Y-52602D01*
X86985Y-52797D01*
X87073Y-52855D01*
X87479Y-52450D01*
X87479Y-52591D01*
X87144Y-52926D01*
X87202Y-53014D01*
X87444Y-53104D01*
X87702Y-53094D01*
X87897Y-53014D01*
X87955Y-52926D01*
X87955Y-53799D01*
X87020Y-53799D01*
X86965Y-53822D01*
X86922Y-53864D01*
X86900Y-53920D01*
X86899Y-53979D01*
X86899Y-54979D01*
X86922Y-55034D01*
X86964Y-55077D01*
X87020Y-55099D01*
X87079Y-55100D01*
X88079Y-55100D01*
X88100Y-55091D01*
X88100Y-56080D01*
X87918Y-55899D01*
X87679Y-55800D01*
X87421Y-55799D01*
X87182Y-55898D01*
X86999Y-56081D01*
X86900Y-56320D01*
X86899Y-56578D01*
X86998Y-56817D01*
X87181Y-57000D01*
X87420Y-57099D01*
X87678Y-57100D01*
X87917Y-57001D01*
X88100Y-56819D01*
X88100Y-57808D01*
X88100Y-57808D01*
G37*
G54D19*
X88100Y-57808D02*
X88079Y-57800D01*
X88020Y-57799D01*
X87020Y-57799D01*
X86965Y-57822D01*
X86922Y-57864D01*
X86900Y-57920D01*
X86899Y-57979D01*
X86899Y-58630D01*
X86846Y-58502D01*
X86748Y-58403D01*
X86619Y-58350D01*
X86480Y-58349D01*
X86352Y-58403D01*
X86253Y-58501D01*
X86249Y-58509D01*
X86223Y-58515D01*
X86201Y-58529D01*
X86158Y-58558D01*
X86117Y-58600D01*
X85980Y-58599D01*
X85900Y-58633D01*
X85900Y-58630D01*
X85846Y-58502D01*
X85748Y-58403D01*
X85619Y-58350D01*
X85480Y-58349D01*
X85425Y-58372D01*
X85425Y-57865D01*
X85425Y-57865D01*
X85425Y-57254D01*
X85425Y-56645D01*
X85402Y-56590D01*
X85360Y-56547D01*
X85304Y-56525D01*
X85245Y-56524D01*
X85175Y-56524D01*
X85175Y-48865D01*
X85110Y-48709D01*
X85025Y-48623D01*
X85025Y-46865D01*
X84960Y-46709D01*
X84841Y-46589D01*
X84684Y-46525D01*
X84515Y-46524D01*
X84359Y-46589D01*
X84239Y-46708D01*
X84225Y-46744D01*
X84225Y-46645D01*
X84202Y-46590D01*
X84160Y-46547D01*
X84104Y-46525D01*
X84045Y-46524D01*
X83495Y-46524D01*
X83440Y-46547D01*
X83397Y-46589D01*
X83375Y-46645D01*
X83374Y-46704D01*
X83374Y-47254D01*
X83397Y-47309D01*
X83439Y-47352D01*
X83495Y-47374D01*
X83554Y-47375D01*
X84104Y-47375D01*
X84159Y-47352D01*
X84202Y-47310D01*
X84224Y-47254D01*
X84225Y-47195D01*
X84225Y-47155D01*
X84239Y-47190D01*
X84358Y-47310D01*
X84515Y-47374D01*
X84684Y-47375D01*
X84840Y-47310D01*
X84960Y-47191D01*
X85024Y-47034D01*
X85025Y-46865D01*
X85025Y-48623D01*
X85025Y-48623D01*
X85025Y-48254D01*
X85025Y-47645D01*
X85002Y-47590D01*
X84960Y-47547D01*
X84904Y-47525D01*
X84845Y-47524D01*
X84687Y-47525D01*
X84650Y-47562D01*
X84650Y-47900D01*
X84987Y-47900D01*
X85025Y-47862D01*
X85025Y-47645D01*
X85025Y-48254D01*
X85025Y-48037D01*
X84987Y-48000D01*
X84650Y-48000D01*
X84650Y-48337D01*
X84687Y-48375D01*
X84845Y-48375D01*
X84904Y-48374D01*
X84960Y-48352D01*
X85002Y-48309D01*
X85025Y-48254D01*
X85025Y-48623D01*
X84991Y-48589D01*
X84834Y-48525D01*
X84665Y-48524D01*
X84550Y-48572D01*
X84550Y-48337D01*
X84550Y-48000D01*
X84542Y-48000D01*
X84542Y-47900D01*
X84550Y-47900D01*
X84550Y-47562D01*
X84512Y-47525D01*
X84354Y-47524D01*
X84295Y-47525D01*
X84239Y-47547D01*
X84197Y-47590D01*
X84174Y-47645D01*
X84174Y-47744D01*
X84160Y-47709D01*
X84041Y-47589D01*
X83884Y-47525D01*
X83715Y-47524D01*
X83559Y-47589D01*
X83439Y-47708D01*
X83375Y-47865D01*
X83374Y-48034D01*
X83439Y-48190D01*
X83558Y-48310D01*
X83715Y-48374D01*
X83884Y-48375D01*
X84040Y-48310D01*
X84160Y-48191D01*
X84174Y-48155D01*
X84174Y-48254D01*
X84197Y-48309D01*
X84239Y-48352D01*
X84295Y-48374D01*
X84354Y-48375D01*
X84512Y-48375D01*
X84550Y-48337D01*
X84550Y-48572D01*
X84509Y-48589D01*
X84389Y-48708D01*
X84325Y-48865D01*
X84324Y-49034D01*
X84389Y-49190D01*
X84508Y-49310D01*
X84665Y-49374D01*
X84834Y-49375D01*
X84990Y-49310D01*
X85110Y-49191D01*
X85174Y-49034D01*
X85175Y-48865D01*
X85175Y-56524D01*
X85175Y-56524D01*
X85175Y-50254D01*
X85175Y-49645D01*
X85152Y-49590D01*
X85110Y-49547D01*
X85054Y-49525D01*
X84995Y-49524D01*
X84837Y-49525D01*
X84800Y-49562D01*
X84800Y-49900D01*
X85137Y-49900D01*
X85175Y-49862D01*
X85175Y-49645D01*
X85175Y-50254D01*
X85175Y-50037D01*
X85137Y-50000D01*
X84800Y-50000D01*
X84800Y-50337D01*
X84837Y-50375D01*
X84995Y-50375D01*
X85054Y-50374D01*
X85110Y-50352D01*
X85152Y-50309D01*
X85175Y-50254D01*
X85175Y-56524D01*
X85087Y-56525D01*
X85050Y-56562D01*
X85050Y-56900D01*
X85387Y-56900D01*
X85425Y-56862D01*
X85425Y-56645D01*
X85425Y-57254D01*
X85425Y-57037D01*
X85387Y-57000D01*
X85050Y-57000D01*
X85050Y-57337D01*
X85087Y-57375D01*
X85245Y-57375D01*
X85304Y-57374D01*
X85360Y-57352D01*
X85402Y-57309D01*
X85425Y-57254D01*
X85425Y-57865D01*
X85360Y-57709D01*
X85241Y-57589D01*
X85084Y-57525D01*
X84950Y-57524D01*
X84950Y-57337D01*
X84950Y-57000D01*
X84950Y-56900D01*
X84950Y-56562D01*
X84912Y-56525D01*
X84775Y-56524D01*
X84775Y-55865D01*
X84775Y-53865D01*
X84775Y-50865D01*
X84710Y-50709D01*
X84700Y-50699D01*
X84700Y-50337D01*
X84700Y-50000D01*
X84700Y-49900D01*
X84700Y-49562D01*
X84662Y-49525D01*
X84504Y-49524D01*
X84445Y-49525D01*
X84389Y-49547D01*
X84347Y-49590D01*
X84324Y-49645D01*
X84325Y-49862D01*
X84362Y-49900D01*
X84700Y-49900D01*
X84700Y-50000D01*
X84362Y-50000D01*
X84325Y-50037D01*
X84324Y-50254D01*
X84347Y-50309D01*
X84389Y-50352D01*
X84445Y-50374D01*
X84504Y-50375D01*
X84662Y-50375D01*
X84700Y-50337D01*
X84700Y-50699D01*
X84591Y-50589D01*
X84434Y-50525D01*
X84265Y-50524D01*
X84109Y-50589D01*
X83989Y-50708D01*
X83925Y-50865D01*
X83924Y-51034D01*
X83989Y-51190D01*
X84108Y-51310D01*
X84265Y-51374D01*
X84434Y-51375D01*
X84590Y-51310D01*
X84710Y-51191D01*
X84774Y-51034D01*
X84775Y-50865D01*
X84775Y-53865D01*
X84775Y-53865D01*
X84775Y-53254D01*
X84775Y-52645D01*
X84775Y-52254D01*
X84775Y-51645D01*
X84752Y-51590D01*
X84710Y-51547D01*
X84654Y-51525D01*
X84595Y-51524D01*
X84437Y-51525D01*
X84400Y-51562D01*
X84400Y-51900D01*
X84737Y-51900D01*
X84775Y-51862D01*
X84775Y-51645D01*
X84775Y-52254D01*
X84775Y-52037D01*
X84737Y-52000D01*
X84400Y-52000D01*
X84400Y-52337D01*
X84437Y-52375D01*
X84595Y-52375D01*
X84654Y-52374D01*
X84710Y-52352D01*
X84752Y-52309D01*
X84775Y-52254D01*
X84775Y-52645D01*
X84752Y-52590D01*
X84710Y-52547D01*
X84654Y-52525D01*
X84595Y-52524D01*
X84437Y-52525D01*
X84400Y-52562D01*
X84400Y-52900D01*
X84737Y-52900D01*
X84775Y-52862D01*
X84775Y-52645D01*
X84775Y-53254D01*
X84775Y-53037D01*
X84737Y-53000D01*
X84400Y-53000D01*
X84400Y-53337D01*
X84437Y-53375D01*
X84595Y-53375D01*
X84654Y-53374D01*
X84710Y-53352D01*
X84752Y-53309D01*
X84775Y-53254D01*
X84775Y-53865D01*
X84710Y-53709D01*
X84591Y-53589D01*
X84434Y-53525D01*
X84300Y-53524D01*
X84300Y-53337D01*
X84300Y-53000D01*
X84300Y-52900D01*
X84300Y-52562D01*
X84300Y-52337D01*
X84300Y-52000D01*
X84300Y-51900D01*
X84300Y-51562D01*
X84262Y-51525D01*
X84104Y-51524D01*
X84045Y-51525D01*
X83989Y-51547D01*
X83947Y-51590D01*
X83924Y-51645D01*
X83925Y-51862D01*
X83962Y-51900D01*
X84300Y-51900D01*
X84300Y-52000D01*
X83962Y-52000D01*
X83925Y-52037D01*
X83924Y-52254D01*
X83947Y-52309D01*
X83989Y-52352D01*
X84045Y-52374D01*
X84104Y-52375D01*
X84262Y-52375D01*
X84300Y-52337D01*
X84300Y-52562D01*
X84262Y-52525D01*
X84104Y-52524D01*
X84045Y-52525D01*
X83989Y-52547D01*
X83947Y-52590D01*
X83924Y-52645D01*
X83925Y-52862D01*
X83962Y-52900D01*
X84300Y-52900D01*
X84300Y-53000D01*
X83962Y-53000D01*
X83925Y-53037D01*
X83924Y-53254D01*
X83947Y-53309D01*
X83989Y-53352D01*
X84045Y-53374D01*
X84104Y-53375D01*
X84262Y-53375D01*
X84300Y-53337D01*
X84300Y-53524D01*
X84265Y-53524D01*
X84109Y-53589D01*
X83989Y-53708D01*
X83925Y-53865D01*
X83924Y-54034D01*
X83989Y-54190D01*
X84108Y-54310D01*
X84265Y-54374D01*
X84434Y-54375D01*
X84590Y-54310D01*
X84710Y-54191D01*
X84774Y-54034D01*
X84775Y-53865D01*
X84775Y-55865D01*
X84775Y-55865D01*
X84775Y-55254D01*
X84775Y-54645D01*
X84752Y-54590D01*
X84710Y-54547D01*
X84654Y-54525D01*
X84595Y-54524D01*
X84437Y-54525D01*
X84400Y-54562D01*
X84400Y-54900D01*
X84737Y-54900D01*
X84775Y-54862D01*
X84775Y-54645D01*
X84775Y-55254D01*
X84775Y-55037D01*
X84737Y-55000D01*
X84400Y-55000D01*
X84400Y-55337D01*
X84437Y-55375D01*
X84595Y-55375D01*
X84654Y-55374D01*
X84710Y-55352D01*
X84752Y-55309D01*
X84775Y-55254D01*
X84775Y-55865D01*
X84710Y-55709D01*
X84591Y-55589D01*
X84434Y-55525D01*
X84300Y-55524D01*
X84300Y-55337D01*
X84300Y-55000D01*
X84300Y-54900D01*
X84300Y-54562D01*
X84262Y-54525D01*
X84104Y-54524D01*
X84045Y-54525D01*
X83989Y-54547D01*
X83947Y-54590D01*
X83924Y-54645D01*
X83925Y-54862D01*
X83962Y-54900D01*
X84300Y-54900D01*
X84300Y-55000D01*
X83962Y-55000D01*
X83925Y-55037D01*
X83924Y-55254D01*
X83947Y-55309D01*
X83989Y-55352D01*
X84045Y-55374D01*
X84104Y-55375D01*
X84262Y-55375D01*
X84300Y-55337D01*
X84300Y-55524D01*
X84265Y-55524D01*
X84109Y-55589D01*
X83989Y-55708D01*
X83925Y-55865D01*
X83924Y-56034D01*
X83989Y-56190D01*
X84108Y-56310D01*
X84265Y-56374D01*
X84434Y-56375D01*
X84590Y-56310D01*
X84710Y-56191D01*
X84774Y-56034D01*
X84775Y-55865D01*
X84775Y-56524D01*
X84754Y-56524D01*
X84695Y-56525D01*
X84639Y-56547D01*
X84597Y-56590D01*
X84574Y-56645D01*
X84575Y-56862D01*
X84612Y-56900D01*
X84950Y-56900D01*
X84950Y-57000D01*
X84612Y-57000D01*
X84575Y-57037D01*
X84574Y-57254D01*
X84597Y-57309D01*
X84639Y-57352D01*
X84695Y-57374D01*
X84754Y-57375D01*
X84912Y-57375D01*
X84950Y-57337D01*
X84950Y-57524D01*
X84915Y-57524D01*
X84759Y-57589D01*
X84639Y-57708D01*
X84575Y-57865D01*
X84574Y-58034D01*
X84639Y-58190D01*
X84758Y-58310D01*
X84915Y-58374D01*
X85084Y-58375D01*
X85240Y-58310D01*
X85360Y-58191D01*
X85424Y-58034D01*
X85425Y-57865D01*
X85425Y-58372D01*
X85352Y-58403D01*
X85253Y-58501D01*
X85249Y-58509D01*
X85223Y-58515D01*
X85201Y-58529D01*
X85158Y-58558D01*
X85117Y-58600D01*
X84980Y-58599D01*
X84852Y-58653D01*
X84753Y-58751D01*
X84742Y-58777D01*
X84702Y-58681D01*
X84569Y-58547D01*
X84394Y-58475D01*
X84205Y-58474D01*
X84031Y-58547D01*
X83924Y-58653D01*
X83846Y-58574D01*
X83952Y-58469D01*
X84024Y-58294D01*
X84025Y-58105D01*
X83952Y-57931D01*
X83819Y-57797D01*
X83750Y-57768D01*
X83750Y-57700D01*
X83737Y-57635D01*
X83774Y-57544D01*
X83775Y-57355D01*
X83702Y-57181D01*
X83569Y-57047D01*
X83394Y-56975D01*
X83205Y-56974D01*
X83031Y-57047D01*
X83009Y-57068D01*
X82952Y-56931D01*
X82819Y-56797D01*
X82644Y-56725D01*
X82455Y-56724D01*
X82281Y-56797D01*
X82174Y-56903D01*
X82069Y-56797D01*
X81894Y-56725D01*
X81705Y-56724D01*
X81531Y-56797D01*
X81397Y-56930D01*
X81340Y-57068D01*
X81319Y-57047D01*
X81144Y-56975D01*
X80955Y-56974D01*
X80781Y-57047D01*
X80647Y-57180D01*
X80575Y-57355D01*
X80574Y-57544D01*
X80647Y-57718D01*
X80780Y-57852D01*
X80840Y-57877D01*
X80713Y-58003D01*
X80644Y-57975D01*
X80455Y-57974D01*
X80281Y-58047D01*
X80147Y-58180D01*
X80075Y-58355D01*
X80074Y-58475D01*
X79975Y-58474D01*
X79975Y-46195D01*
X79975Y-45645D01*
X79952Y-45590D01*
X79910Y-45547D01*
X79854Y-45525D01*
X79795Y-45524D01*
X79245Y-45524D01*
X79190Y-45547D01*
X79147Y-45589D01*
X79125Y-45645D01*
X79124Y-45704D01*
X79124Y-46254D01*
X79147Y-46309D01*
X79189Y-46352D01*
X79245Y-46374D01*
X79304Y-46375D01*
X79854Y-46375D01*
X79909Y-46352D01*
X79952Y-46310D01*
X79974Y-46254D01*
X79975Y-46195D01*
X79975Y-58474D01*
X79955Y-58474D01*
X79781Y-58547D01*
X79647Y-58680D01*
X79618Y-58750D01*
X79382Y-58750D01*
X78975Y-58342D01*
X78975Y-45865D01*
X78910Y-45709D01*
X78791Y-45589D01*
X78634Y-45525D01*
X78465Y-45524D01*
X78309Y-45589D01*
X78189Y-45708D01*
X78125Y-45865D01*
X78124Y-46034D01*
X78189Y-46190D01*
X78280Y-46281D01*
X78144Y-46225D01*
X77955Y-46224D01*
X77781Y-46297D01*
X77647Y-46430D01*
X77575Y-46605D01*
X77574Y-46794D01*
X77647Y-46968D01*
X77780Y-47102D01*
X77955Y-47174D01*
X78144Y-47175D01*
X78318Y-47102D01*
X78452Y-46969D01*
X78524Y-46794D01*
X78525Y-46605D01*
X78452Y-46431D01*
X78348Y-46326D01*
X78465Y-46374D01*
X78634Y-46375D01*
X78790Y-46310D01*
X78910Y-46191D01*
X78974Y-46034D01*
X78975Y-45865D01*
X78975Y-58342D01*
X78191Y-57558D01*
X78126Y-57515D01*
X78050Y-57500D01*
X77973Y-57515D01*
X77908Y-57558D01*
X77865Y-57623D01*
X77850Y-57700D01*
X77865Y-57776D01*
X77908Y-57841D01*
X79158Y-59091D01*
X79223Y-59134D01*
X79300Y-59150D01*
X79618Y-59150D01*
X79647Y-59218D01*
X79678Y-59250D01*
X77240Y-59250D01*
X77248Y-59246D01*
X77346Y-59148D01*
X77399Y-59019D01*
X77400Y-58880D01*
X77346Y-58752D01*
X77248Y-58653D01*
X77200Y-58633D01*
X77200Y-47170D01*
X77200Y-46229D01*
X77199Y-46170D01*
X77177Y-46114D01*
X77134Y-46072D01*
X77079Y-46049D01*
X76637Y-46050D01*
X76600Y-46087D01*
X76600Y-46650D01*
X77162Y-46650D01*
X77200Y-46612D01*
X77200Y-46229D01*
X77200Y-47170D01*
X77200Y-46787D01*
X77162Y-46750D01*
X76600Y-46750D01*
X76600Y-47312D01*
X76637Y-47350D01*
X77079Y-47350D01*
X77134Y-47327D01*
X77177Y-47285D01*
X77199Y-47229D01*
X77200Y-47170D01*
X77200Y-58633D01*
X77119Y-58600D01*
X77021Y-58599D01*
X76760Y-58339D01*
X76686Y-58290D01*
X76672Y-58287D01*
X76600Y-58272D01*
X76599Y-58273D01*
X76500Y-58273D01*
X76500Y-47312D01*
X76500Y-46750D01*
X76500Y-46650D01*
X76500Y-46087D01*
X76462Y-46050D01*
X76020Y-46049D01*
X75965Y-46072D01*
X75922Y-46114D01*
X75900Y-46170D01*
X75899Y-46229D01*
X75900Y-46612D01*
X75937Y-46650D01*
X76500Y-46650D01*
X76500Y-46750D01*
X75937Y-46750D01*
X75900Y-46787D01*
X75899Y-47170D01*
X75900Y-47229D01*
X75922Y-47285D01*
X75965Y-47327D01*
X76020Y-47350D01*
X76462Y-47350D01*
X76500Y-47312D01*
X76500Y-58273D01*
X75305Y-58273D01*
X75305Y-50041D01*
X75292Y-49863D01*
X75248Y-49756D01*
X75200Y-49732D01*
X75200Y-46571D01*
X75101Y-46332D01*
X74918Y-46149D01*
X74679Y-46050D01*
X74421Y-46049D01*
X74182Y-46148D01*
X73999Y-46331D01*
X73900Y-46570D01*
X73899Y-46828D01*
X73998Y-47067D01*
X74181Y-47250D01*
X74420Y-47349D01*
X74678Y-47350D01*
X74917Y-47251D01*
X75100Y-47068D01*
X75199Y-46829D01*
X75200Y-46571D01*
X75200Y-49732D01*
X75181Y-49723D01*
X75110Y-49794D01*
X75110Y-49652D01*
X75077Y-49585D01*
X74907Y-49528D01*
X74729Y-49541D01*
X74622Y-49585D01*
X74589Y-49652D01*
X74850Y-49913D01*
X75110Y-49652D01*
X75110Y-49794D01*
X74920Y-49984D01*
X75181Y-50244D01*
X75248Y-50211D01*
X75305Y-50041D01*
X75305Y-58273D01*
X75197Y-58273D01*
X75231Y-58239D01*
X75299Y-58073D01*
X75300Y-57894D01*
X75231Y-57729D01*
X75105Y-57602D01*
X74939Y-57534D01*
X74800Y-57533D01*
X74800Y-57510D01*
X74768Y-57433D01*
X74939Y-57434D01*
X75104Y-57365D01*
X75231Y-57239D01*
X75299Y-57073D01*
X75300Y-56894D01*
X75300Y-55894D01*
X75300Y-54894D01*
X75300Y-53894D01*
X75300Y-52894D01*
X75300Y-51894D01*
X75300Y-50894D01*
X75231Y-50729D01*
X75110Y-50607D01*
X75110Y-50315D01*
X74850Y-50054D01*
X74779Y-50125D01*
X74779Y-49984D01*
X74518Y-49723D01*
X74451Y-49756D01*
X74394Y-49926D01*
X74407Y-50104D01*
X74451Y-50211D01*
X74518Y-50244D01*
X74779Y-49984D01*
X74779Y-50125D01*
X74589Y-50315D01*
X74622Y-50382D01*
X74792Y-50439D01*
X74970Y-50426D01*
X75077Y-50382D01*
X75110Y-50315D01*
X75110Y-50607D01*
X75105Y-50602D01*
X74939Y-50534D01*
X74760Y-50533D01*
X74595Y-50602D01*
X74468Y-50728D01*
X74466Y-50734D01*
X74300Y-50734D01*
X74300Y-50313D01*
X74300Y-49654D01*
X74277Y-49599D01*
X74235Y-49556D01*
X74179Y-49534D01*
X74120Y-49533D01*
X73937Y-49534D01*
X73900Y-49571D01*
X73900Y-49934D01*
X74262Y-49934D01*
X74300Y-49896D01*
X74300Y-49654D01*
X74300Y-50313D01*
X74300Y-50071D01*
X74262Y-50034D01*
X73900Y-50034D01*
X73900Y-50396D01*
X73937Y-50434D01*
X74120Y-50434D01*
X74179Y-50433D01*
X74235Y-50411D01*
X74277Y-50368D01*
X74300Y-50313D01*
X74300Y-50734D01*
X74233Y-50734D01*
X74231Y-50729D01*
X74105Y-50602D01*
X73939Y-50534D01*
X73800Y-50533D01*
X73800Y-50396D01*
X73800Y-50034D01*
X73800Y-49934D01*
X73800Y-49571D01*
X73762Y-49534D01*
X73579Y-49533D01*
X73520Y-49534D01*
X73464Y-49556D01*
X73422Y-49599D01*
X73399Y-49654D01*
X73400Y-49896D01*
X73437Y-49934D01*
X73800Y-49934D01*
X73800Y-50034D01*
X73437Y-50034D01*
X73400Y-50071D01*
X73399Y-50313D01*
X73422Y-50368D01*
X73464Y-50411D01*
X73520Y-50433D01*
X73579Y-50434D01*
X73762Y-50434D01*
X73800Y-50396D01*
X73800Y-50533D01*
X73760Y-50533D01*
X73595Y-50602D01*
X73468Y-50728D01*
X73400Y-50894D01*
X73399Y-51073D01*
X73468Y-51238D01*
X73594Y-51365D01*
X73760Y-51433D01*
X73939Y-51434D01*
X74104Y-51365D01*
X74231Y-51239D01*
X74233Y-51234D01*
X74466Y-51234D01*
X74468Y-51238D01*
X74594Y-51365D01*
X74760Y-51433D01*
X74939Y-51434D01*
X75104Y-51365D01*
X75231Y-51239D01*
X75299Y-51073D01*
X75300Y-50894D01*
X75300Y-51894D01*
X75231Y-51729D01*
X75105Y-51602D01*
X74939Y-51534D01*
X74760Y-51533D01*
X74595Y-51602D01*
X74468Y-51728D01*
X74400Y-51894D01*
X74399Y-52073D01*
X74468Y-52238D01*
X74594Y-52365D01*
X74760Y-52433D01*
X74939Y-52434D01*
X75104Y-52365D01*
X75231Y-52239D01*
X75299Y-52073D01*
X75300Y-51894D01*
X75300Y-52894D01*
X75231Y-52729D01*
X75105Y-52602D01*
X74939Y-52534D01*
X74760Y-52533D01*
X74595Y-52602D01*
X74468Y-52728D01*
X74400Y-52894D01*
X74399Y-53073D01*
X74468Y-53238D01*
X74594Y-53365D01*
X74760Y-53433D01*
X74939Y-53434D01*
X75104Y-53365D01*
X75231Y-53239D01*
X75299Y-53073D01*
X75300Y-52894D01*
X75300Y-53894D01*
X75231Y-53729D01*
X75105Y-53602D01*
X74939Y-53534D01*
X74760Y-53533D01*
X74595Y-53602D01*
X74468Y-53728D01*
X74400Y-53894D01*
X74399Y-54073D01*
X74468Y-54238D01*
X74594Y-54365D01*
X74760Y-54433D01*
X74939Y-54434D01*
X75104Y-54365D01*
X75231Y-54239D01*
X75299Y-54073D01*
X75300Y-53894D01*
X75300Y-54894D01*
X75231Y-54729D01*
X75105Y-54602D01*
X74939Y-54534D01*
X74760Y-54533D01*
X74595Y-54602D01*
X74468Y-54728D01*
X74400Y-54894D01*
X74399Y-55073D01*
X74468Y-55238D01*
X74594Y-55365D01*
X74760Y-55433D01*
X74939Y-55434D01*
X75104Y-55365D01*
X75231Y-55239D01*
X75299Y-55073D01*
X75300Y-54894D01*
X75300Y-55894D01*
X75231Y-55729D01*
X75105Y-55602D01*
X74939Y-55534D01*
X74760Y-55533D01*
X74595Y-55602D01*
X74468Y-55728D01*
X74400Y-55894D01*
X74399Y-56073D01*
X74468Y-56238D01*
X74594Y-56365D01*
X74760Y-56433D01*
X74939Y-56434D01*
X75104Y-56365D01*
X75231Y-56239D01*
X75299Y-56073D01*
X75300Y-55894D01*
X75300Y-56894D01*
X75231Y-56729D01*
X75105Y-56602D01*
X74939Y-56534D01*
X74760Y-56533D01*
X74595Y-56602D01*
X74468Y-56728D01*
X74400Y-56894D01*
X74399Y-57073D01*
X74464Y-57230D01*
X74380Y-57229D01*
X74252Y-57283D01*
X74245Y-57290D01*
X74180Y-57290D01*
X74231Y-57239D01*
X74299Y-57073D01*
X74300Y-56894D01*
X74300Y-55894D01*
X74300Y-54894D01*
X74300Y-53894D01*
X74300Y-52894D01*
X74300Y-51894D01*
X74231Y-51729D01*
X74105Y-51602D01*
X73939Y-51534D01*
X73760Y-51533D01*
X73595Y-51602D01*
X73468Y-51728D01*
X73400Y-51894D01*
X73399Y-52073D01*
X73468Y-52238D01*
X73594Y-52365D01*
X73760Y-52433D01*
X73939Y-52434D01*
X74104Y-52365D01*
X74231Y-52239D01*
X74299Y-52073D01*
X74300Y-51894D01*
X74300Y-52894D01*
X74231Y-52729D01*
X74105Y-52602D01*
X73939Y-52534D01*
X73760Y-52533D01*
X73595Y-52602D01*
X73468Y-52728D01*
X73400Y-52894D01*
X73399Y-53073D01*
X73468Y-53238D01*
X73594Y-53365D01*
X73760Y-53433D01*
X73939Y-53434D01*
X74104Y-53365D01*
X74231Y-53239D01*
X74299Y-53073D01*
X74300Y-52894D01*
X74300Y-53894D01*
X74231Y-53729D01*
X74105Y-53602D01*
X73939Y-53534D01*
X73760Y-53533D01*
X73595Y-53602D01*
X73468Y-53728D01*
X73400Y-53894D01*
X73399Y-54073D01*
X73468Y-54238D01*
X73594Y-54365D01*
X73760Y-54433D01*
X73939Y-54434D01*
X74104Y-54365D01*
X74231Y-54239D01*
X74299Y-54073D01*
X74300Y-53894D01*
X74300Y-54894D01*
X74231Y-54729D01*
X74105Y-54602D01*
X73939Y-54534D01*
X73760Y-54533D01*
X73595Y-54602D01*
X73468Y-54728D01*
X73400Y-54894D01*
X73399Y-55073D01*
X73468Y-55238D01*
X73594Y-55365D01*
X73760Y-55433D01*
X73939Y-55434D01*
X74104Y-55365D01*
X74231Y-55239D01*
X74299Y-55073D01*
X74300Y-54894D01*
X74300Y-55894D01*
X74231Y-55729D01*
X74105Y-55602D01*
X73939Y-55534D01*
X73760Y-55533D01*
X73595Y-55602D01*
X73468Y-55728D01*
X73400Y-55894D01*
X73399Y-56073D01*
X73468Y-56238D01*
X73594Y-56365D01*
X73760Y-56433D01*
X73939Y-56434D01*
X74104Y-56365D01*
X74231Y-56239D01*
X74299Y-56073D01*
X74300Y-55894D01*
X74300Y-56894D01*
X74231Y-56729D01*
X74105Y-56602D01*
X73939Y-56534D01*
X73760Y-56533D01*
X73595Y-56602D01*
X73468Y-56728D01*
X73400Y-56894D01*
X73399Y-57073D01*
X73468Y-57238D01*
X73534Y-57304D01*
X73533Y-57305D01*
X73511Y-57319D01*
X73468Y-57348D01*
X73200Y-57617D01*
X73200Y-46571D01*
X73101Y-46332D01*
X72918Y-46149D01*
X72679Y-46050D01*
X72421Y-46049D01*
X72182Y-46148D01*
X71999Y-46331D01*
X71900Y-46570D01*
X71899Y-46828D01*
X71998Y-47067D01*
X72181Y-47250D01*
X72420Y-47349D01*
X72678Y-47350D01*
X72917Y-47251D01*
X73100Y-47068D01*
X73199Y-46829D01*
X73200Y-46571D01*
X73200Y-57617D01*
X73033Y-57784D01*
X71455Y-57784D01*
X71455Y-50041D01*
X71442Y-49863D01*
X71398Y-49756D01*
X71331Y-49723D01*
X71260Y-49794D01*
X71260Y-49652D01*
X71227Y-49585D01*
X71057Y-49528D01*
X70879Y-49541D01*
X70772Y-49585D01*
X70739Y-49652D01*
X71000Y-49913D01*
X71260Y-49652D01*
X71260Y-49794D01*
X71070Y-49984D01*
X71331Y-50244D01*
X71398Y-50211D01*
X71455Y-50041D01*
X71455Y-57784D01*
X71404Y-57784D01*
X71381Y-57729D01*
X71255Y-57602D01*
X71089Y-57534D01*
X70910Y-57533D01*
X70745Y-57602D01*
X70727Y-57620D01*
X70727Y-57347D01*
X70744Y-57365D01*
X70910Y-57433D01*
X71089Y-57434D01*
X71254Y-57365D01*
X71381Y-57239D01*
X71449Y-57073D01*
X71450Y-56894D01*
X71381Y-56729D01*
X71255Y-56602D01*
X71089Y-56534D01*
X70910Y-56533D01*
X70745Y-56602D01*
X70727Y-56620D01*
X70727Y-56347D01*
X70744Y-56365D01*
X70910Y-56433D01*
X71089Y-56434D01*
X71254Y-56365D01*
X71381Y-56239D01*
X71449Y-56073D01*
X71450Y-55894D01*
X71381Y-55729D01*
X71255Y-55602D01*
X71089Y-55534D01*
X70910Y-55533D01*
X70745Y-55602D01*
X70727Y-55620D01*
X70727Y-55347D01*
X70744Y-55365D01*
X70910Y-55433D01*
X71089Y-55434D01*
X71254Y-55365D01*
X71381Y-55239D01*
X71449Y-55073D01*
X71450Y-54894D01*
X71381Y-54729D01*
X71255Y-54602D01*
X71089Y-54534D01*
X70910Y-54533D01*
X70745Y-54602D01*
X70727Y-54620D01*
X70727Y-54347D01*
X70744Y-54365D01*
X70910Y-54433D01*
X71089Y-54434D01*
X71254Y-54365D01*
X71381Y-54239D01*
X71449Y-54073D01*
X71450Y-53894D01*
X71381Y-53729D01*
X71255Y-53602D01*
X71089Y-53534D01*
X70910Y-53533D01*
X70745Y-53602D01*
X70727Y-53620D01*
X70727Y-53347D01*
X70744Y-53365D01*
X70910Y-53433D01*
X71089Y-53434D01*
X71254Y-53365D01*
X71381Y-53239D01*
X71449Y-53073D01*
X71450Y-52894D01*
X71381Y-52729D01*
X71255Y-52602D01*
X71089Y-52534D01*
X70910Y-52533D01*
X70745Y-52602D01*
X70727Y-52620D01*
X70727Y-52347D01*
X70744Y-52365D01*
X70910Y-52433D01*
X71089Y-52434D01*
X71254Y-52365D01*
X71381Y-52239D01*
X71449Y-52073D01*
X71450Y-51894D01*
X71381Y-51729D01*
X71255Y-51602D01*
X71089Y-51534D01*
X70910Y-51533D01*
X70745Y-51602D01*
X70727Y-51620D01*
X70727Y-51347D01*
X70744Y-51365D01*
X70910Y-51433D01*
X71089Y-51434D01*
X71254Y-51365D01*
X71381Y-51239D01*
X71449Y-51073D01*
X71450Y-50894D01*
X71381Y-50729D01*
X71260Y-50607D01*
X71260Y-50315D01*
X71000Y-50054D01*
X70929Y-50125D01*
X70929Y-49984D01*
X70668Y-49723D01*
X70601Y-49756D01*
X70544Y-49926D01*
X70557Y-50104D01*
X70601Y-50211D01*
X70668Y-50244D01*
X70929Y-49984D01*
X70929Y-50125D01*
X70739Y-50315D01*
X70772Y-50382D01*
X70942Y-50439D01*
X71120Y-50426D01*
X71227Y-50382D01*
X71260Y-50315D01*
X71260Y-50607D01*
X71255Y-50602D01*
X71089Y-50534D01*
X70910Y-50533D01*
X70745Y-50602D01*
X70618Y-50728D01*
X70616Y-50734D01*
X70550Y-50734D01*
X70500Y-50734D01*
X70450Y-50734D01*
X70450Y-50313D01*
X70450Y-49654D01*
X70427Y-49599D01*
X70385Y-49556D01*
X70329Y-49534D01*
X70270Y-49533D01*
X70087Y-49534D01*
X70050Y-49571D01*
X70050Y-49934D01*
X70412Y-49934D01*
X70450Y-49896D01*
X70450Y-49654D01*
X70450Y-50313D01*
X70450Y-50071D01*
X70412Y-50034D01*
X70050Y-50034D01*
X70050Y-50396D01*
X70087Y-50434D01*
X70270Y-50434D01*
X70329Y-50433D01*
X70385Y-50411D01*
X70427Y-50368D01*
X70450Y-50313D01*
X70450Y-50734D01*
X70383Y-50734D01*
X70381Y-50729D01*
X70255Y-50602D01*
X70089Y-50534D01*
X69910Y-50533D01*
X69750Y-50600D01*
X69750Y-50434D01*
X69912Y-50434D01*
X69950Y-50396D01*
X69950Y-50034D01*
X69942Y-50034D01*
X69942Y-49934D01*
X69950Y-49934D01*
X69950Y-49571D01*
X69912Y-49534D01*
X69750Y-49533D01*
X69750Y-46484D01*
X69834Y-46610D01*
X69889Y-46665D01*
X69890Y-46665D01*
X70083Y-46794D01*
X70084Y-46795D01*
X70156Y-46825D01*
X70385Y-46871D01*
X70463Y-46871D01*
X70464Y-46871D01*
X70692Y-46825D01*
X70693Y-46825D01*
X70765Y-46795D01*
X70960Y-46665D01*
X71015Y-46610D01*
X71015Y-46609D01*
X71144Y-46416D01*
X71145Y-46415D01*
X71175Y-46343D01*
X71221Y-46114D01*
X71221Y-46113D01*
X71221Y-46113D01*
X71221Y-46075D01*
X71221Y-46036D01*
X71221Y-46036D01*
X71221Y-46035D01*
X71175Y-45806D01*
X71145Y-45734D01*
X71144Y-45733D01*
X71015Y-45540D01*
X71015Y-45539D01*
X70960Y-45484D01*
X70834Y-45400D01*
X81766Y-45400D01*
X81640Y-45484D01*
X81639Y-45484D01*
X81584Y-45539D01*
X81454Y-45734D01*
X81424Y-45806D01*
X81424Y-45807D01*
X81378Y-46035D01*
X81378Y-46035D01*
X81378Y-46036D01*
X81378Y-46075D01*
X81378Y-46113D01*
X81378Y-46114D01*
X81378Y-46114D01*
X81424Y-46342D01*
X81424Y-46343D01*
X81454Y-46415D01*
X81584Y-46610D01*
X81639Y-46665D01*
X81640Y-46665D01*
X81833Y-46794D01*
X81834Y-46795D01*
X81906Y-46825D01*
X82135Y-46871D01*
X82213Y-46871D01*
X82214Y-46871D01*
X82442Y-46825D01*
X82443Y-46825D01*
X82515Y-46795D01*
X82710Y-46665D01*
X82765Y-46610D01*
X82765Y-46609D01*
X82894Y-46416D01*
X82895Y-46415D01*
X82925Y-46343D01*
X82971Y-46114D01*
X82971Y-46113D01*
X82971Y-46113D01*
X82971Y-46075D01*
X82971Y-46036D01*
X82971Y-46036D01*
X82971Y-46035D01*
X82925Y-45806D01*
X82895Y-45734D01*
X82894Y-45733D01*
X82765Y-45540D01*
X82765Y-45539D01*
X82710Y-45484D01*
X82584Y-45400D01*
X88100Y-45400D01*
X88100Y-46080D01*
X87918Y-45899D01*
X87679Y-45800D01*
X87421Y-45799D01*
X87182Y-45898D01*
X86999Y-46081D01*
X86900Y-46320D01*
X86899Y-46578D01*
X86998Y-46817D01*
X87181Y-47000D01*
X87420Y-47099D01*
X87678Y-47100D01*
X87917Y-47001D01*
X88100Y-46819D01*
X88100Y-47808D01*
X88079Y-47800D01*
X88020Y-47799D01*
X87020Y-47799D01*
X86965Y-47822D01*
X86922Y-47864D01*
X86900Y-47920D01*
X86899Y-47979D01*
X86899Y-48979D01*
X86922Y-49034D01*
X86964Y-49077D01*
X87020Y-49099D01*
X87079Y-49100D01*
X88079Y-49100D01*
X88100Y-49091D01*
X88100Y-50080D01*
X87918Y-49899D01*
X87679Y-49800D01*
X87421Y-49799D01*
X87182Y-49898D01*
X86999Y-50081D01*
X86900Y-50320D01*
X86899Y-50578D01*
X86998Y-50817D01*
X87181Y-51000D01*
X87420Y-51099D01*
X87678Y-51100D01*
X87917Y-51001D01*
X88100Y-50819D01*
X88100Y-52092D01*
X88026Y-52044D01*
X87955Y-52115D01*
X87955Y-51973D01*
X87897Y-51885D01*
X87655Y-51795D01*
X87397Y-51805D01*
X87202Y-51885D01*
X87144Y-51973D01*
X87550Y-52379D01*
X87955Y-51973D01*
X87955Y-52115D01*
X87620Y-52450D01*
X88026Y-52855D01*
X88100Y-52807D01*
X88100Y-53808D01*
X88079Y-53800D01*
X88020Y-53799D01*
X87955Y-53799D01*
X87955Y-52926D01*
X87550Y-52520D01*
X87479Y-52591D01*
X87479Y-52450D01*
X87073Y-52044D01*
X86985Y-52102D01*
X86895Y-52344D01*
X86905Y-52602D01*
X86985Y-52797D01*
X87073Y-52855D01*
X87479Y-52450D01*
X87479Y-52591D01*
X87144Y-52926D01*
X87202Y-53014D01*
X87444Y-53104D01*
X87702Y-53094D01*
X87897Y-53014D01*
X87955Y-52926D01*
X87955Y-53799D01*
X87020Y-53799D01*
X86965Y-53822D01*
X86922Y-53864D01*
X86900Y-53920D01*
X86899Y-53979D01*
X86899Y-54979D01*
X86922Y-55034D01*
X86964Y-55077D01*
X87020Y-55099D01*
X87079Y-55100D01*
X88079Y-55100D01*
X88100Y-55091D01*
X88100Y-56080D01*
X87918Y-55899D01*
X87679Y-55800D01*
X87421Y-55799D01*
X87182Y-55898D01*
X86999Y-56081D01*
X86900Y-56320D01*
X86899Y-56578D01*
X86998Y-56817D01*
X87181Y-57000D01*
X87420Y-57099D01*
X87678Y-57100D01*
X87917Y-57001D01*
X88100Y-56819D01*
X88100Y-57808D01*
M02*
