M48
;DRILL file {Pcbnew (2013-07-07 BZR 4022)-stable} date 17/06/2015 19:17:40
;FORMAT={-:-/ absolute / inch / decimal}
FMAT,2
INCH,TZ
T1C0.043
T2C0.059
%
G90
G05
M72
T1
X5.375Y-5.53
X5.375Y-6.2825
X5.43Y-5.38
X5.435Y-6.4325
X5.49Y-6.2825
X5.495Y-5.53
X5.55Y-5.38
X5.5575Y-6.4325
X5.61Y-6.2825
X5.6125Y-5.53
X5.67Y-5.38
X5.6725Y-6.4325
X5.7275Y-6.2825
X5.73Y-5.53
X5.795Y-6.4325
X5.7975Y-5.38
X5.8475Y-5.53
X5.8475Y-6.2825
X5.895Y-6.4325
X5.9025Y-5.38
X5.965Y-5.53
X5.965Y-6.285
X6.0175Y-6.4325
X6.0225Y-5.38
X6.0825Y-5.53
X6.0825Y-6.2825
X6.1325Y-6.4325
X6.145Y-5.38
X6.2Y-6.2825
X6.2025Y-5.53
X6.2575Y-5.38
X6.26Y-6.4325
X6.3175Y-6.285
X6.32Y-5.53
X6.3775Y-5.38
X6.38Y-6.4325
X6.4375Y-5.53
X6.4375Y-6.2825
T2
X5.374Y-5.6102
X5.374Y-6.2008
X5.4331Y-5.7874
X5.4331Y-6.0236
X5.4921Y-5.6102
X5.4921Y-6.2008
X5.5515Y-5.7874
X5.5515Y-6.0236
X5.6102Y-5.6102
X5.6102Y-6.2008
X5.6696Y-5.7874
X5.6696Y-6.0236
X5.7283Y-5.6102
X5.7283Y-6.2008
X5.7877Y-5.7874
X5.7877Y-6.0236
X5.8465Y-5.6102
X5.8465Y-6.2008
X5.9058Y-5.7874
X5.9058Y-6.0236
X5.9646Y-5.6102
X5.9646Y-6.2008
X6.0239Y-5.7874
X6.0239Y-6.0236
X6.0827Y-5.6102
X6.0827Y-6.2008
X6.142Y-5.7874
X6.142Y-6.0236
X6.2008Y-5.6102
X6.2008Y-6.2008
X6.2602Y-5.7874
X6.2602Y-6.0236
X6.3189Y-5.6102
X6.3189Y-6.2008
X6.3783Y-5.7874
X6.3783Y-6.0236
X6.437Y-5.6102
X6.437Y-6.2008
T0
M30
