M48
;DRILL file {Pcbnew (2013-07-07 BZR 4022)-stable} date 05/03/2014 08:07:52
;FORMAT={-:-/ absolute / inch / decimal}
FMAT,2
INCH,TZ
T1C0.025
T2C0.030
T3C0.032
T4C0.040
T5C0.118
%
G90
G05
M72
T1
X7.18Y-6.95
X7.185Y-6.555
X7.24Y-6.9
X7.24Y-6.95
X7.245Y-6.13
X7.25Y-6.055
X7.32Y-6.425
X7.41Y-6.55
X7.425Y-6.395
X7.4675Y-6.2975
X7.47Y-6.665
X7.495Y-6.55
X7.605Y-6.63
X7.615Y-6.2975
X7.69Y-6.695
X7.71Y-6.82
X7.73Y-6.505
X7.745Y-6.635
X7.76Y-6.85
X7.76Y-6.9
X7.76Y-6.95
X7.77Y-6.29
X7.77Y-6.545
X7.83Y-6.95
X7.84Y-6.76
X8.052Y-6.34
X8.055Y-6.13
X8.072Y-6.386
X8.165Y-6.805
X8.17Y-6.905
X8.21Y-6.39
X8.248Y-6.462
X8.25Y-6.905
X8.26Y-6.745
X8.26Y-6.96
X8.26Y-7.015
X8.388Y-6.988
X8.4425Y-6.525
X8.52Y-6.96
X8.52Y-7.015
X8.525Y-6.81
X8.53Y-6.905
X8.57Y-6.36
X8.595Y-6.81
X8.595Y-6.905
X8.6Y-6.475
X8.715Y-6.65
T2
X7.3076Y-6.9181
X7.6226Y-6.9181
X8.305Y-6.845
X8.475Y-6.845
T3
X7.Y-6.0984
X8.665Y-6.0984
T4
X7.Y-6.1984
X7.Y-6.2984
X7.Y-6.3984
X7.Y-6.4984
X7.Y-6.5984
X7.Y-6.6984
X7.Y-6.7984
X7.Y-6.8984
X7.Y-6.9984
X7.1Y-6.0984
X7.1Y-6.1984
X7.1Y-6.2984
X7.1Y-6.3984
X7.1Y-6.4984
X7.1Y-6.5984
X7.1Y-6.6984
X7.1Y-6.7984
X7.1Y-6.8984
X7.1Y-6.9984
X7.312Y-6.274
X7.506Y-6.08
X7.506Y-6.18
X7.606Y-6.08
X7.606Y-6.18
X7.706Y-6.08
X7.706Y-6.18
X7.806Y-6.08
X7.806Y-6.18
X7.906Y-6.08
X7.906Y-6.18
X7.91Y-6.99
X8.01Y-6.99
X8.11Y-6.99
X8.555Y-6.24
X8.665Y-6.1984
X8.665Y-6.2984
X8.665Y-6.3984
X8.665Y-6.4984
X8.665Y-6.5984
X8.665Y-6.6984
X8.665Y-6.7984
X8.665Y-6.8984
X8.665Y-6.9984
X8.765Y-6.0984
X8.765Y-6.1984
X8.765Y-6.2984
X8.765Y-6.3984
X8.765Y-6.4984
X8.765Y-6.5984
X8.765Y-6.6984
X8.765Y-6.7984
X8.765Y-6.8984
X8.765Y-6.9984
T5
X8.05Y-6.8375
X8.4975Y-6.045
T0
M30
