M48
;DRILL file {Pcbnew (2013-07-07 BZR 4022)-stable} date 08/01/2015 19:31:02
;FORMAT={-:-/ absolute / inch / decimal}
FMAT,2
INCH,TZ
T1C0.025
T2C0.030
T3C0.032
T4C0.040
%
G90
G05
M72
T1
X4.475Y-3.45
X4.57Y-3.74
X4.68Y-3.385
X4.999Y-3.498
X5.02Y-3.6575
X5.145Y-3.385
X5.1588Y-3.6119
X5.1637Y-3.6752
X5.175Y-3.835
X5.1901Y-3.3759
X5.2175Y-3.7125
X5.2432Y-3.5284
X5.2897Y-3.551
X5.295Y-3.86
X5.3108Y-3.4085
X5.362Y-3.555
X5.3698Y-3.4538
X5.375Y-3.365
X5.425Y-3.485
X5.455Y-3.56
X5.62Y-3.59
X5.6225Y-3.315
X5.6575Y-3.6384
X5.665Y-3.515
X5.675Y-3.32
X5.933Y-3.327
X5.943Y-3.596
X5.966Y-3.39
X6.162Y-3.252
X6.28Y-3.43
X6.28Y-3.645
X6.38Y-3.645
X6.42Y-3.192
X6.467Y-3.27
X6.495Y-3.405
X6.585Y-3.22
X6.76Y-3.25
X6.832Y-3.135
X6.9575Y-3.6375
X6.981Y-3.3
X7.01Y-3.425
X7.056Y-3.266
X7.187Y-3.721
X7.202Y-3.317
X7.298Y-3.15
T2
X4.725Y-3.47
X4.925Y-3.47
X7.195Y-3.425
X7.195Y-3.595
T3
X7.075Y-3.855
X7.085Y-3.145
X7.175Y-3.855
X7.185Y-3.145
X7.275Y-3.855
X7.375Y-3.855
T4
X4.42Y-3.2
X4.42Y-3.8
X4.52Y-3.2
X4.52Y-3.8
X4.62Y-3.2
X4.62Y-3.8
X4.72Y-3.2
X4.72Y-3.8
X4.82Y-3.2
X4.82Y-3.8
X4.92Y-3.2
X4.92Y-3.8
X5.02Y-3.2
X5.02Y-3.8
X5.12Y-3.2
X5.12Y-3.8
X5.22Y-3.2
X5.22Y-3.8
X5.32Y-3.2
X5.32Y-3.8
X5.42Y-3.2
X5.42Y-3.8
X5.52Y-3.2
X5.52Y-3.8
X5.62Y-3.2
X5.62Y-3.8
X5.72Y-3.2
X5.72Y-3.8
X5.82Y-3.2
X5.82Y-3.8
X5.92Y-3.2
X5.92Y-3.8
X6.02Y-3.2
X6.02Y-3.8
X6.12Y-3.2
X6.12Y-3.8
X6.22Y-3.2
X6.22Y-3.8
X6.32Y-3.2
X6.32Y-3.8
T0
M30
