G04 (created by PCBNEW (2013-07-07 BZR 4022)-stable) date 22/10/2014 07:02:39*
%MOIN*%
G04 Gerber Fmt 3.4, Leading zero omitted, Abs format*
%FSLAX34Y34*%
G01*
G70*
G90*
G04 APERTURE LIST*
%ADD10C,0.00590551*%
%ADD11C,0.011811*%
G04 APERTURE END LIST*
G54D10*
G54D11*
X69849Y-67054D02*
X69821Y-67026D01*
X69765Y-66998D01*
X69624Y-66998D01*
X69568Y-67026D01*
X69540Y-67054D01*
X69512Y-67110D01*
X69512Y-67167D01*
X69540Y-67251D01*
X69878Y-67589D01*
X69512Y-67589D01*
X69146Y-66998D02*
X69090Y-66998D01*
X69034Y-67026D01*
X69006Y-67054D01*
X68978Y-67110D01*
X68950Y-67223D01*
X68950Y-67364D01*
X68978Y-67476D01*
X69006Y-67532D01*
X69034Y-67560D01*
X69090Y-67589D01*
X69146Y-67589D01*
X69203Y-67560D01*
X69231Y-67532D01*
X69259Y-67476D01*
X69287Y-67364D01*
X69287Y-67223D01*
X69259Y-67110D01*
X69231Y-67054D01*
X69203Y-67026D01*
X69146Y-66998D01*
X70099Y-61954D02*
X70071Y-61926D01*
X70015Y-61898D01*
X69874Y-61898D01*
X69818Y-61926D01*
X69790Y-61954D01*
X69762Y-62010D01*
X69762Y-62067D01*
X69790Y-62151D01*
X70128Y-62489D01*
X69762Y-62489D01*
X69396Y-61898D02*
X69340Y-61898D01*
X69284Y-61926D01*
X69256Y-61954D01*
X69228Y-62010D01*
X69200Y-62123D01*
X69200Y-62264D01*
X69228Y-62376D01*
X69256Y-62432D01*
X69284Y-62460D01*
X69340Y-62489D01*
X69396Y-62489D01*
X69453Y-62460D01*
X69481Y-62432D01*
X69509Y-62376D01*
X69537Y-62264D01*
X69537Y-62123D01*
X69509Y-62010D01*
X69481Y-61954D01*
X69453Y-61926D01*
X69396Y-61898D01*
X59224Y-67304D02*
X59196Y-67276D01*
X59140Y-67248D01*
X58999Y-67248D01*
X58943Y-67276D01*
X58915Y-67304D01*
X58887Y-67360D01*
X58887Y-67417D01*
X58915Y-67501D01*
X59253Y-67839D01*
X58887Y-67839D01*
X58550Y-67501D02*
X58606Y-67473D01*
X58634Y-67445D01*
X58662Y-67389D01*
X58662Y-67360D01*
X58634Y-67304D01*
X58606Y-67276D01*
X58550Y-67248D01*
X58437Y-67248D01*
X58381Y-67276D01*
X58353Y-67304D01*
X58325Y-67360D01*
X58325Y-67389D01*
X58353Y-67445D01*
X58381Y-67473D01*
X58437Y-67501D01*
X58550Y-67501D01*
X58606Y-67529D01*
X58634Y-67557D01*
X58662Y-67614D01*
X58662Y-67726D01*
X58634Y-67782D01*
X58606Y-67810D01*
X58550Y-67839D01*
X58437Y-67839D01*
X58381Y-67810D01*
X58353Y-67782D01*
X58325Y-67726D01*
X58325Y-67614D01*
X58353Y-67557D01*
X58381Y-67529D01*
X58437Y-67501D01*
X58949Y-62729D02*
X58921Y-62701D01*
X58865Y-62673D01*
X58724Y-62673D01*
X58668Y-62701D01*
X58640Y-62729D01*
X58612Y-62785D01*
X58612Y-62842D01*
X58640Y-62926D01*
X58978Y-63264D01*
X58612Y-63264D01*
X58275Y-62926D02*
X58331Y-62898D01*
X58359Y-62870D01*
X58387Y-62814D01*
X58387Y-62785D01*
X58359Y-62729D01*
X58331Y-62701D01*
X58275Y-62673D01*
X58162Y-62673D01*
X58106Y-62701D01*
X58078Y-62729D01*
X58050Y-62785D01*
X58050Y-62814D01*
X58078Y-62870D01*
X58106Y-62898D01*
X58162Y-62926D01*
X58275Y-62926D01*
X58331Y-62954D01*
X58359Y-62982D01*
X58387Y-63039D01*
X58387Y-63151D01*
X58359Y-63207D01*
X58331Y-63235D01*
X58275Y-63264D01*
X58162Y-63264D01*
X58106Y-63235D01*
X58078Y-63207D01*
X58050Y-63151D01*
X58050Y-63039D01*
X58078Y-62982D01*
X58106Y-62954D01*
X58162Y-62926D01*
X70174Y-65404D02*
X70146Y-65376D01*
X70090Y-65348D01*
X69949Y-65348D01*
X69893Y-65376D01*
X69865Y-65404D01*
X69837Y-65460D01*
X69837Y-65517D01*
X69865Y-65601D01*
X70203Y-65939D01*
X69837Y-65939D01*
X69556Y-65939D02*
X69443Y-65939D01*
X69387Y-65910D01*
X69359Y-65882D01*
X69303Y-65798D01*
X69275Y-65685D01*
X69275Y-65460D01*
X69303Y-65404D01*
X69331Y-65376D01*
X69387Y-65348D01*
X69500Y-65348D01*
X69556Y-65376D01*
X69584Y-65404D01*
X69612Y-65460D01*
X69612Y-65601D01*
X69584Y-65657D01*
X69556Y-65685D01*
X69500Y-65714D01*
X69387Y-65714D01*
X69331Y-65685D01*
X69303Y-65657D01*
X69275Y-65601D01*
X70099Y-69704D02*
X70071Y-69676D01*
X70015Y-69648D01*
X69874Y-69648D01*
X69818Y-69676D01*
X69790Y-69704D01*
X69762Y-69760D01*
X69762Y-69817D01*
X69790Y-69901D01*
X70128Y-70239D01*
X69762Y-70239D01*
X69481Y-70239D02*
X69368Y-70239D01*
X69312Y-70210D01*
X69284Y-70182D01*
X69228Y-70098D01*
X69200Y-69985D01*
X69200Y-69760D01*
X69228Y-69704D01*
X69256Y-69676D01*
X69312Y-69648D01*
X69425Y-69648D01*
X69481Y-69676D01*
X69509Y-69704D01*
X69537Y-69760D01*
X69537Y-69901D01*
X69509Y-69957D01*
X69481Y-69985D01*
X69425Y-70014D01*
X69312Y-70014D01*
X69256Y-69985D01*
X69228Y-69957D01*
X69200Y-69901D01*
X58978Y-69498D02*
X58612Y-69498D01*
X58809Y-69723D01*
X58724Y-69723D01*
X58668Y-69751D01*
X58640Y-69779D01*
X58612Y-69835D01*
X58612Y-69976D01*
X58640Y-70032D01*
X58668Y-70060D01*
X58724Y-70089D01*
X58893Y-70089D01*
X58949Y-70060D01*
X58978Y-70032D01*
X58275Y-69751D02*
X58331Y-69723D01*
X58359Y-69695D01*
X58387Y-69639D01*
X58387Y-69610D01*
X58359Y-69554D01*
X58331Y-69526D01*
X58275Y-69498D01*
X58162Y-69498D01*
X58106Y-69526D01*
X58078Y-69554D01*
X58050Y-69610D01*
X58050Y-69639D01*
X58078Y-69695D01*
X58106Y-69723D01*
X58162Y-69751D01*
X58275Y-69751D01*
X58331Y-69779D01*
X58359Y-69807D01*
X58387Y-69864D01*
X58387Y-69976D01*
X58359Y-70032D01*
X58331Y-70060D01*
X58275Y-70089D01*
X58162Y-70089D01*
X58106Y-70060D01*
X58078Y-70032D01*
X58050Y-69976D01*
X58050Y-69864D01*
X58078Y-69807D01*
X58106Y-69779D01*
X58162Y-69751D01*
X69937Y-61389D02*
X70274Y-61389D01*
X70106Y-61389D02*
X70106Y-60798D01*
X70162Y-60882D01*
X70218Y-60939D01*
X70274Y-60967D01*
X69375Y-61389D02*
X69712Y-61389D01*
X69543Y-61389D02*
X69543Y-60798D01*
X69600Y-60882D01*
X69656Y-60939D01*
X69712Y-60967D01*
X69312Y-56414D02*
X69649Y-56414D01*
X69481Y-56414D02*
X69481Y-55823D01*
X69537Y-55907D01*
X69593Y-55964D01*
X69649Y-55992D01*
X68750Y-56414D02*
X69087Y-56414D01*
X68918Y-56414D02*
X68918Y-55823D01*
X68975Y-55907D01*
X69031Y-55964D01*
X69087Y-55992D01*
X69756Y-57839D02*
X70093Y-57839D01*
X69924Y-57839D02*
X69924Y-57248D01*
X69981Y-57332D01*
X70037Y-57389D01*
X70093Y-57417D01*
X69556Y-53789D02*
X69893Y-53789D01*
X69724Y-53789D02*
X69724Y-53198D01*
X69781Y-53282D01*
X69837Y-53339D01*
X69893Y-53367D01*
X59187Y-56289D02*
X59524Y-56289D01*
X59356Y-56289D02*
X59356Y-55698D01*
X59412Y-55782D01*
X59468Y-55839D01*
X59524Y-55867D01*
X58906Y-56289D02*
X58793Y-56289D01*
X58737Y-56260D01*
X58709Y-56232D01*
X58653Y-56148D01*
X58625Y-56035D01*
X58625Y-55810D01*
X58653Y-55754D01*
X58681Y-55726D01*
X58737Y-55698D01*
X58850Y-55698D01*
X58906Y-55726D01*
X58934Y-55754D01*
X58962Y-55810D01*
X58962Y-55951D01*
X58934Y-56007D01*
X58906Y-56035D01*
X58850Y-56064D01*
X58737Y-56064D01*
X58681Y-56035D01*
X58653Y-56007D01*
X58625Y-55951D01*
X58662Y-53789D02*
X58999Y-53789D01*
X58831Y-53789D02*
X58831Y-53198D01*
X58887Y-53282D01*
X58943Y-53339D01*
X58999Y-53367D01*
X58296Y-53198D02*
X58240Y-53198D01*
X58184Y-53226D01*
X58156Y-53254D01*
X58128Y-53310D01*
X58100Y-53423D01*
X58100Y-53564D01*
X58128Y-53676D01*
X58156Y-53732D01*
X58184Y-53760D01*
X58240Y-53789D01*
X58296Y-53789D01*
X58353Y-53760D01*
X58381Y-53732D01*
X58409Y-53676D01*
X58437Y-53564D01*
X58437Y-53423D01*
X58409Y-53310D01*
X58381Y-53254D01*
X58353Y-53226D01*
X58296Y-53198D01*
X58928Y-65473D02*
X58562Y-65473D01*
X58759Y-65698D01*
X58674Y-65698D01*
X58618Y-65726D01*
X58590Y-65754D01*
X58562Y-65810D01*
X58562Y-65951D01*
X58590Y-66007D01*
X58618Y-66035D01*
X58674Y-66064D01*
X58843Y-66064D01*
X58899Y-66035D01*
X58928Y-66007D01*
X58225Y-65726D02*
X58281Y-65698D01*
X58309Y-65670D01*
X58337Y-65614D01*
X58337Y-65585D01*
X58309Y-65529D01*
X58281Y-65501D01*
X58225Y-65473D01*
X58112Y-65473D01*
X58056Y-65501D01*
X58028Y-65529D01*
X58000Y-65585D01*
X58000Y-65614D01*
X58028Y-65670D01*
X58056Y-65698D01*
X58112Y-65726D01*
X58225Y-65726D01*
X58281Y-65754D01*
X58309Y-65782D01*
X58337Y-65839D01*
X58337Y-65951D01*
X58309Y-66007D01*
X58281Y-66035D01*
X58225Y-66064D01*
X58112Y-66064D01*
X58056Y-66035D01*
X58028Y-66007D01*
X58000Y-65951D01*
X58000Y-65839D01*
X58028Y-65782D01*
X58056Y-65754D01*
X58112Y-65726D01*
X58562Y-61039D02*
X58899Y-61039D01*
X58731Y-61039D02*
X58731Y-60448D01*
X58787Y-60532D01*
X58843Y-60589D01*
X58899Y-60617D01*
X58281Y-61039D02*
X58168Y-61039D01*
X58112Y-61010D01*
X58084Y-60982D01*
X58028Y-60898D01*
X58000Y-60785D01*
X58000Y-60560D01*
X58028Y-60504D01*
X58056Y-60476D01*
X58112Y-60448D01*
X58225Y-60448D01*
X58281Y-60476D01*
X58309Y-60504D01*
X58337Y-60560D01*
X58337Y-60701D01*
X58309Y-60757D01*
X58281Y-60785D01*
X58225Y-60814D01*
X58112Y-60814D01*
X58056Y-60785D01*
X58028Y-60757D01*
X58000Y-60701D01*
X58487Y-57814D02*
X58824Y-57814D01*
X58656Y-57814D02*
X58656Y-57223D01*
X58712Y-57307D01*
X58768Y-57364D01*
X58824Y-57392D01*
X58121Y-57223D02*
X58065Y-57223D01*
X58009Y-57251D01*
X57981Y-57279D01*
X57953Y-57335D01*
X57925Y-57448D01*
X57925Y-57589D01*
X57953Y-57701D01*
X57981Y-57757D01*
X58009Y-57785D01*
X58065Y-57814D01*
X58121Y-57814D01*
X58178Y-57785D01*
X58206Y-57757D01*
X58234Y-57701D01*
X58262Y-57589D01*
X58262Y-57448D01*
X58234Y-57335D01*
X58206Y-57279D01*
X58178Y-57251D01*
X58121Y-57223D01*
X68260Y-61989D02*
X68260Y-61398D01*
X67922Y-61989D01*
X67922Y-61398D01*
X67332Y-61426D02*
X67388Y-61398D01*
X67473Y-61398D01*
X67557Y-61426D01*
X67613Y-61482D01*
X67641Y-61539D01*
X67669Y-61651D01*
X67669Y-61735D01*
X67641Y-61848D01*
X67613Y-61904D01*
X67557Y-61960D01*
X67473Y-61989D01*
X67416Y-61989D01*
X67332Y-61960D01*
X67304Y-61932D01*
X67304Y-61735D01*
X67416Y-61735D01*
X66713Y-61932D02*
X66741Y-61960D01*
X66826Y-61989D01*
X66882Y-61989D01*
X66966Y-61960D01*
X67023Y-61904D01*
X67051Y-61848D01*
X67079Y-61735D01*
X67079Y-61651D01*
X67051Y-61539D01*
X67023Y-61482D01*
X66966Y-61426D01*
X66882Y-61398D01*
X66826Y-61398D01*
X66741Y-61426D01*
X66713Y-61454D01*
X66066Y-61398D02*
X65701Y-61398D01*
X65898Y-61623D01*
X65813Y-61623D01*
X65757Y-61651D01*
X65729Y-61679D01*
X65701Y-61735D01*
X65701Y-61876D01*
X65729Y-61932D01*
X65757Y-61960D01*
X65813Y-61989D01*
X65982Y-61989D01*
X66038Y-61960D01*
X66066Y-61932D01*
X65363Y-61651D02*
X65420Y-61623D01*
X65448Y-61595D01*
X65476Y-61539D01*
X65476Y-61510D01*
X65448Y-61454D01*
X65420Y-61426D01*
X65363Y-61398D01*
X65251Y-61398D01*
X65195Y-61426D01*
X65167Y-61454D01*
X65138Y-61510D01*
X65138Y-61539D01*
X65167Y-61595D01*
X65195Y-61623D01*
X65251Y-61651D01*
X65363Y-61651D01*
X65420Y-61679D01*
X65448Y-61707D01*
X65476Y-61764D01*
X65476Y-61876D01*
X65448Y-61932D01*
X65420Y-61960D01*
X65363Y-61989D01*
X65251Y-61989D01*
X65195Y-61960D01*
X65167Y-61932D01*
X65138Y-61876D01*
X65138Y-61764D01*
X65167Y-61707D01*
X65195Y-61679D01*
X65251Y-61651D01*
X64435Y-61595D02*
X64435Y-62185D01*
X64435Y-61623D02*
X64379Y-61595D01*
X64267Y-61595D01*
X64210Y-61623D01*
X64182Y-61651D01*
X64154Y-61707D01*
X64154Y-61876D01*
X64182Y-61932D01*
X64210Y-61960D01*
X64267Y-61989D01*
X64379Y-61989D01*
X64435Y-61960D01*
X63901Y-61989D02*
X63901Y-61595D01*
X63901Y-61398D02*
X63929Y-61426D01*
X63901Y-61454D01*
X63873Y-61426D01*
X63901Y-61398D01*
X63901Y-61454D01*
X63620Y-61595D02*
X63620Y-61989D01*
X63620Y-61651D02*
X63592Y-61623D01*
X63535Y-61595D01*
X63451Y-61595D01*
X63395Y-61623D01*
X63367Y-61679D01*
X63367Y-61989D01*
X62636Y-61989D02*
X62636Y-61595D01*
X62636Y-61707D02*
X62607Y-61651D01*
X62579Y-61623D01*
X62523Y-61595D01*
X62467Y-61595D01*
X62045Y-61960D02*
X62101Y-61989D01*
X62214Y-61989D01*
X62270Y-61960D01*
X62298Y-61904D01*
X62298Y-61679D01*
X62270Y-61623D01*
X62214Y-61595D01*
X62101Y-61595D01*
X62045Y-61623D01*
X62017Y-61679D01*
X62017Y-61735D01*
X62298Y-61792D01*
X61820Y-61595D02*
X61679Y-61989D01*
X61539Y-61595D01*
X60751Y-61398D02*
X60695Y-61398D01*
X60639Y-61426D01*
X60611Y-61454D01*
X60583Y-61510D01*
X60555Y-61623D01*
X60555Y-61764D01*
X60583Y-61876D01*
X60611Y-61932D01*
X60639Y-61960D01*
X60695Y-61989D01*
X60751Y-61989D01*
X60808Y-61960D01*
X60836Y-61932D01*
X60864Y-61876D01*
X60892Y-61764D01*
X60892Y-61623D01*
X60864Y-61510D01*
X60836Y-61454D01*
X60808Y-61426D01*
X60751Y-61398D01*
X60302Y-61932D02*
X60273Y-61960D01*
X60302Y-61989D01*
X60330Y-61960D01*
X60302Y-61932D01*
X60302Y-61989D01*
X59711Y-61989D02*
X60048Y-61989D01*
X59880Y-61989D02*
X59880Y-61398D01*
X59936Y-61482D01*
X59992Y-61539D01*
X60048Y-61567D01*
M02*
