G04 (created by PCBNEW (2013-07-07 BZR 4022)-stable) date 13/10/2014 15:08:58*
%MOIN*%
G04 Gerber Fmt 3.4, Leading zero omitted, Abs format*
%FSLAX34Y34*%
G01*
G70*
G90*
G04 APERTURE LIST*
%ADD10C,0.00590551*%
%ADD11C,0.011811*%
%ADD12C,0.012*%
G04 APERTURE END LIST*
G54D10*
G54D11*
X60038Y-67439D02*
X60038Y-66849D01*
X60376Y-67439D01*
X60376Y-66849D01*
X60966Y-66877D02*
X60910Y-66849D01*
X60826Y-66849D01*
X60741Y-66877D01*
X60685Y-66933D01*
X60657Y-66989D01*
X60629Y-67102D01*
X60629Y-67186D01*
X60657Y-67299D01*
X60685Y-67355D01*
X60741Y-67411D01*
X60826Y-67439D01*
X60882Y-67439D01*
X60966Y-67411D01*
X60994Y-67383D01*
X60994Y-67186D01*
X60882Y-67186D01*
X61585Y-67383D02*
X61557Y-67411D01*
X61473Y-67439D01*
X61416Y-67439D01*
X61332Y-67411D01*
X61276Y-67355D01*
X61248Y-67299D01*
X61219Y-67186D01*
X61219Y-67102D01*
X61248Y-66989D01*
X61276Y-66933D01*
X61332Y-66877D01*
X61416Y-66849D01*
X61473Y-66849D01*
X61557Y-66877D01*
X61585Y-66905D01*
X62232Y-66849D02*
X62597Y-66849D01*
X62401Y-67074D01*
X62485Y-67074D01*
X62541Y-67102D01*
X62569Y-67130D01*
X62597Y-67186D01*
X62597Y-67327D01*
X62569Y-67383D01*
X62541Y-67411D01*
X62485Y-67439D01*
X62316Y-67439D01*
X62260Y-67411D01*
X62232Y-67383D01*
X62935Y-67102D02*
X62879Y-67074D01*
X62850Y-67046D01*
X62822Y-66989D01*
X62822Y-66961D01*
X62850Y-66905D01*
X62879Y-66877D01*
X62935Y-66849D01*
X63047Y-66849D01*
X63104Y-66877D01*
X63132Y-66905D01*
X63160Y-66961D01*
X63160Y-66989D01*
X63132Y-67046D01*
X63104Y-67074D01*
X63047Y-67102D01*
X62935Y-67102D01*
X62879Y-67130D01*
X62850Y-67158D01*
X62822Y-67214D01*
X62822Y-67327D01*
X62850Y-67383D01*
X62879Y-67411D01*
X62935Y-67439D01*
X63047Y-67439D01*
X63104Y-67411D01*
X63132Y-67383D01*
X63160Y-67327D01*
X63160Y-67214D01*
X63132Y-67158D01*
X63104Y-67130D01*
X63047Y-67102D01*
X63863Y-67046D02*
X63863Y-67636D01*
X63863Y-67074D02*
X63919Y-67046D01*
X64032Y-67046D01*
X64088Y-67074D01*
X64116Y-67102D01*
X64144Y-67158D01*
X64144Y-67327D01*
X64116Y-67383D01*
X64088Y-67411D01*
X64032Y-67439D01*
X63919Y-67439D01*
X63863Y-67411D01*
X64397Y-67439D02*
X64397Y-67046D01*
X64397Y-66849D02*
X64369Y-66877D01*
X64397Y-66905D01*
X64425Y-66877D01*
X64397Y-66849D01*
X64397Y-66905D01*
X64678Y-67046D02*
X64678Y-67439D01*
X64678Y-67102D02*
X64706Y-67074D01*
X64763Y-67046D01*
X64847Y-67046D01*
X64903Y-67074D01*
X64931Y-67130D01*
X64931Y-67439D01*
X65663Y-67439D02*
X65663Y-67046D01*
X65663Y-67158D02*
X65691Y-67102D01*
X65719Y-67074D01*
X65775Y-67046D01*
X65831Y-67046D01*
X66253Y-67411D02*
X66197Y-67439D01*
X66084Y-67439D01*
X66028Y-67411D01*
X66000Y-67355D01*
X66000Y-67130D01*
X66028Y-67074D01*
X66084Y-67046D01*
X66197Y-67046D01*
X66253Y-67074D01*
X66281Y-67130D01*
X66281Y-67186D01*
X66000Y-67242D01*
X66478Y-67046D02*
X66619Y-67439D01*
X66759Y-67046D01*
X67547Y-66849D02*
X67603Y-66849D01*
X67659Y-66877D01*
X67687Y-66905D01*
X67715Y-66961D01*
X67744Y-67074D01*
X67744Y-67214D01*
X67715Y-67327D01*
X67687Y-67383D01*
X67659Y-67411D01*
X67603Y-67439D01*
X67547Y-67439D01*
X67491Y-67411D01*
X67462Y-67383D01*
X67434Y-67327D01*
X67406Y-67214D01*
X67406Y-67074D01*
X67434Y-66961D01*
X67462Y-66905D01*
X67491Y-66877D01*
X67547Y-66849D01*
X67997Y-67383D02*
X68025Y-67411D01*
X67997Y-67439D01*
X67969Y-67411D01*
X67997Y-67383D01*
X67997Y-67439D01*
X68587Y-67439D02*
X68250Y-67439D01*
X68419Y-67439D02*
X68419Y-66849D01*
X68362Y-66933D01*
X68306Y-66989D01*
X68250Y-67017D01*
G54D12*
X59299Y-57401D02*
X59299Y-56401D01*
X59299Y-56401D02*
X69299Y-56401D01*
X69299Y-56401D02*
X69299Y-57401D01*
X69299Y-57401D02*
X59299Y-57401D01*
X60299Y-57401D02*
X60299Y-56401D01*
G54D10*
X54827Y-55277D02*
X54827Y-54883D01*
X54977Y-54883D01*
X55014Y-54902D01*
X55033Y-54921D01*
X55052Y-54958D01*
X55052Y-55014D01*
X55033Y-55052D01*
X55014Y-55071D01*
X54977Y-55089D01*
X54827Y-55089D01*
X55427Y-55277D02*
X55202Y-55277D01*
X55314Y-55277D02*
X55314Y-54883D01*
X55277Y-54940D01*
X55239Y-54977D01*
X55202Y-54996D01*
X54386Y-55277D02*
X54386Y-54883D01*
X54480Y-54883D01*
X54536Y-54902D01*
X54574Y-54940D01*
X54593Y-54977D01*
X54611Y-55052D01*
X54611Y-55108D01*
X54593Y-55183D01*
X54574Y-55221D01*
X54536Y-55258D01*
X54480Y-55277D01*
X54386Y-55277D01*
X54780Y-55277D02*
X54780Y-54883D01*
X55155Y-55277D02*
X54968Y-55277D01*
X54968Y-54883D01*
X55249Y-54883D02*
X55493Y-54883D01*
X55361Y-55033D01*
X55418Y-55033D01*
X55455Y-55052D01*
X55474Y-55071D01*
X55493Y-55108D01*
X55493Y-55202D01*
X55474Y-55239D01*
X55455Y-55258D01*
X55418Y-55277D01*
X55305Y-55277D01*
X55268Y-55258D01*
X55249Y-55239D01*
X55718Y-55052D02*
X55680Y-55033D01*
X55661Y-55014D01*
X55643Y-54977D01*
X55643Y-54958D01*
X55661Y-54921D01*
X55680Y-54902D01*
X55718Y-54883D01*
X55793Y-54883D01*
X55830Y-54902D01*
X55849Y-54921D01*
X55868Y-54958D01*
X55868Y-54977D01*
X55849Y-55014D01*
X55830Y-55033D01*
X55793Y-55052D01*
X55718Y-55052D01*
X55680Y-55071D01*
X55661Y-55089D01*
X55643Y-55127D01*
X55643Y-55202D01*
X55661Y-55239D01*
X55680Y-55258D01*
X55718Y-55277D01*
X55793Y-55277D01*
X55830Y-55258D01*
X55849Y-55239D01*
X55868Y-55202D01*
X55868Y-55127D01*
X55849Y-55089D01*
X55830Y-55071D01*
X55793Y-55052D01*
M02*
