G04 (created by PCBNEW (2013-07-07 BZR 4022)-stable) date 05/11/2014 12:09:03*
%MOIN*%
G04 Gerber Fmt 3.4, Leading zero omitted, Abs format*
%FSLAX34Y34*%
G01*
G70*
G90*
G04 APERTURE LIST*
%ADD10C,0.00590551*%
%ADD11R,0.0551181X0.0669291*%
%ADD12C,0.0551181*%
%ADD13O,0.0669291X0.106299*%
G04 APERTURE END LIST*
G54D10*
G54D11*
X59750Y-54000D03*
G54D12*
X60750Y-54000D03*
X61750Y-54000D03*
X62750Y-54000D03*
X63750Y-54000D03*
X64750Y-54000D03*
X65750Y-54000D03*
X66750Y-54000D03*
X67750Y-54000D03*
X68750Y-54000D03*
G54D11*
X60250Y-66750D03*
G54D12*
X61250Y-66750D03*
X62250Y-66750D03*
X63250Y-66750D03*
X64250Y-66750D03*
X65250Y-66750D03*
X66250Y-66750D03*
X67250Y-66750D03*
X68250Y-66750D03*
G54D11*
X60250Y-56500D03*
G54D12*
X61250Y-56500D03*
X62250Y-56500D03*
X63250Y-56500D03*
X64250Y-56500D03*
X65250Y-56500D03*
X66250Y-56500D03*
X67250Y-56500D03*
X68250Y-56500D03*
G54D11*
X59750Y-69250D03*
G54D12*
X60750Y-69250D03*
X61750Y-69250D03*
X62750Y-69250D03*
X63750Y-69250D03*
X64750Y-69250D03*
X65750Y-69250D03*
X66750Y-69250D03*
X67750Y-69250D03*
X68750Y-69250D03*
G54D11*
X60250Y-55500D03*
G54D12*
X61250Y-55500D03*
X62250Y-55500D03*
X63250Y-55500D03*
X64250Y-55500D03*
X65250Y-55500D03*
X66250Y-55500D03*
X67250Y-55500D03*
X68250Y-55500D03*
G54D11*
X59750Y-53000D03*
G54D12*
X60750Y-53000D03*
X61750Y-53000D03*
X62750Y-53000D03*
X63750Y-53000D03*
X64750Y-53000D03*
X65750Y-53000D03*
X66750Y-53000D03*
X67750Y-53000D03*
X68750Y-53000D03*
G54D11*
X59750Y-70250D03*
G54D12*
X60750Y-70250D03*
X61750Y-70250D03*
X62750Y-70250D03*
X63750Y-70250D03*
X64750Y-70250D03*
X65750Y-70250D03*
X66750Y-70250D03*
X67750Y-70250D03*
X68750Y-70250D03*
G54D11*
X60250Y-67750D03*
G54D12*
X61250Y-67750D03*
X62250Y-67750D03*
X63250Y-67750D03*
X64250Y-67750D03*
X65250Y-67750D03*
X66250Y-67750D03*
X67250Y-67750D03*
X68250Y-67750D03*
G54D13*
X59000Y-58797D03*
X60181Y-58797D03*
X61362Y-58797D03*
X62543Y-58797D03*
X63724Y-58797D03*
X64905Y-58797D03*
X66086Y-58797D03*
X67267Y-58797D03*
X68448Y-58797D03*
X69629Y-58797D03*
X59000Y-64702D03*
X60181Y-64702D03*
X61362Y-64702D03*
X62543Y-64702D03*
X63724Y-64702D03*
X64905Y-64702D03*
X66086Y-64702D03*
X67267Y-64702D03*
X68448Y-64702D03*
X69629Y-64702D03*
X59590Y-60568D03*
X60774Y-60568D03*
X61955Y-60568D03*
X63137Y-60568D03*
X64318Y-60568D03*
X65499Y-60568D03*
X66680Y-60568D03*
X67861Y-60568D03*
X69042Y-60568D03*
X59590Y-62931D03*
X60774Y-62931D03*
X61955Y-62931D03*
X63137Y-62931D03*
X64318Y-62931D03*
X65499Y-62931D03*
X66680Y-62931D03*
X67861Y-62931D03*
X69042Y-62931D03*
M02*
