M48
;DRILL file {Pcbnew (2013-07-07 BZR 4022)-stable} date 22/10/2014 07:02:45
;FORMAT={-:-/ absolute / inch / decimal}
FMAT,2
INCH,TZ
T1C0.035
T2C0.059
%
G90
G05
M72
T1
X5.975Y-5.3
X5.975Y-5.4
X5.975Y-6.925
X5.975Y-7.025
X6.025Y-5.55
X6.025Y-5.65
X6.025Y-6.675
X6.025Y-6.775
X6.075Y-5.3
X6.075Y-5.4
X6.075Y-6.925
X6.075Y-7.025
X6.125Y-5.55
X6.125Y-5.65
X6.125Y-6.675
X6.125Y-6.775
X6.175Y-5.3
X6.175Y-5.4
X6.175Y-6.925
X6.175Y-7.025
X6.225Y-5.55
X6.225Y-5.65
X6.225Y-6.675
X6.225Y-6.775
X6.275Y-5.3
X6.275Y-5.4
X6.275Y-6.925
X6.275Y-7.025
X6.325Y-5.55
X6.325Y-5.65
X6.325Y-6.675
X6.325Y-6.775
X6.375Y-5.3
X6.375Y-5.4
X6.375Y-6.925
X6.375Y-7.025
X6.425Y-5.55
X6.425Y-5.65
X6.425Y-6.675
X6.425Y-6.775
X6.475Y-5.3
X6.475Y-5.4
X6.475Y-6.925
X6.475Y-7.025
X6.525Y-5.55
X6.525Y-5.65
X6.525Y-6.675
X6.525Y-6.775
X6.575Y-5.3
X6.575Y-5.4
X6.575Y-6.925
X6.575Y-7.025
X6.625Y-5.55
X6.625Y-5.65
X6.625Y-6.675
X6.625Y-6.775
X6.675Y-5.3
X6.675Y-5.4
X6.675Y-6.925
X6.675Y-7.025
X6.725Y-5.55
X6.725Y-5.65
X6.725Y-6.675
X6.725Y-6.775
X6.775Y-5.3
X6.775Y-5.4
X6.775Y-6.925
X6.775Y-7.025
X6.825Y-5.55
X6.825Y-5.65
X6.825Y-6.675
X6.825Y-6.775
X6.875Y-5.3
X6.875Y-5.4
X6.875Y-6.925
X6.875Y-7.025
T2
X5.9Y-5.8797
X5.9Y-6.4703
X5.9591Y-6.0569
X5.9591Y-6.2931
X6.0181Y-5.8797
X6.0181Y-6.4703
X6.0775Y-6.0569
X6.0775Y-6.2931
X6.1362Y-5.8797
X6.1362Y-6.4703
X6.1956Y-6.0569
X6.1956Y-6.2931
X6.2543Y-5.8797
X6.2543Y-6.4703
X6.3137Y-6.0569
X6.3137Y-6.2931
X6.3724Y-5.8797
X6.3724Y-6.4703
X6.4318Y-6.0569
X6.4318Y-6.2931
X6.4906Y-5.8797
X6.4906Y-6.4703
X6.5499Y-6.0569
X6.5499Y-6.2931
X6.6087Y-5.8797
X6.6087Y-6.4703
X6.668Y-6.0569
X6.668Y-6.2931
X6.7268Y-5.8797
X6.7268Y-6.4703
X6.7861Y-6.0569
X6.7861Y-6.2931
X6.8449Y-5.8797
X6.8449Y-6.4703
X6.9043Y-6.0569
X6.9043Y-6.2931
X6.963Y-5.8797
X6.963Y-6.4703
T0
M30
