G04 (created by PCBNEW (2013-07-07 BZR 4022)-stable) date 22/10/2014 07:02:39*
%MOIN*%
G04 Gerber Fmt 3.4, Leading zero omitted, Abs format*
%FSLAX34Y34*%
G01*
G70*
G90*
G04 APERTURE LIST*
%ADD10C,0.00590551*%
%ADD11R,0.055X0.055*%
%ADD12C,0.055*%
%ADD13O,0.0669291X0.106299*%
%ADD14C,0.024*%
G04 APERTURE END LIST*
G54D10*
G54D11*
X59750Y-54000D03*
G54D12*
X60750Y-54000D03*
X61750Y-54000D03*
X62750Y-54000D03*
X63750Y-54000D03*
X64750Y-54000D03*
X65750Y-54000D03*
X66750Y-54000D03*
X67750Y-54000D03*
X68750Y-54000D03*
G54D11*
X60250Y-66750D03*
G54D12*
X61250Y-66750D03*
X62250Y-66750D03*
X63250Y-66750D03*
X64250Y-66750D03*
X65250Y-66750D03*
X66250Y-66750D03*
X67250Y-66750D03*
X68250Y-66750D03*
G54D11*
X60250Y-56500D03*
G54D12*
X61250Y-56500D03*
X62250Y-56500D03*
X63250Y-56500D03*
X64250Y-56500D03*
X65250Y-56500D03*
X66250Y-56500D03*
X67250Y-56500D03*
X68250Y-56500D03*
G54D11*
X59750Y-69250D03*
G54D12*
X60750Y-69250D03*
X61750Y-69250D03*
X62750Y-69250D03*
X63750Y-69250D03*
X64750Y-69250D03*
X65750Y-69250D03*
X66750Y-69250D03*
X67750Y-69250D03*
X68750Y-69250D03*
G54D11*
X60250Y-55500D03*
G54D12*
X61250Y-55500D03*
X62250Y-55500D03*
X63250Y-55500D03*
X64250Y-55500D03*
X65250Y-55500D03*
X66250Y-55500D03*
X67250Y-55500D03*
X68250Y-55500D03*
G54D11*
X59750Y-53000D03*
G54D12*
X60750Y-53000D03*
X61750Y-53000D03*
X62750Y-53000D03*
X63750Y-53000D03*
X64750Y-53000D03*
X65750Y-53000D03*
X66750Y-53000D03*
X67750Y-53000D03*
X68750Y-53000D03*
G54D11*
X59750Y-70250D03*
G54D12*
X60750Y-70250D03*
X61750Y-70250D03*
X62750Y-70250D03*
X63750Y-70250D03*
X64750Y-70250D03*
X65750Y-70250D03*
X66750Y-70250D03*
X67750Y-70250D03*
X68750Y-70250D03*
G54D11*
X60250Y-67750D03*
G54D12*
X61250Y-67750D03*
X62250Y-67750D03*
X63250Y-67750D03*
X64250Y-67750D03*
X65250Y-67750D03*
X66250Y-67750D03*
X67250Y-67750D03*
X68250Y-67750D03*
G54D13*
X59000Y-58797D03*
X60181Y-58797D03*
X61362Y-58797D03*
X62543Y-58797D03*
X63724Y-58797D03*
X64905Y-58797D03*
X66086Y-58797D03*
X67267Y-58797D03*
X68448Y-58797D03*
X69629Y-58797D03*
X59000Y-64702D03*
X60181Y-64702D03*
X61362Y-64702D03*
X62543Y-64702D03*
X63724Y-64702D03*
X64905Y-64702D03*
X66086Y-64702D03*
X67267Y-64702D03*
X68448Y-64702D03*
X69629Y-64702D03*
X59590Y-60568D03*
X60774Y-60568D03*
X61955Y-60568D03*
X63137Y-60568D03*
X64318Y-60568D03*
X65499Y-60568D03*
X66680Y-60568D03*
X67861Y-60568D03*
X69042Y-60568D03*
X59590Y-62931D03*
X60774Y-62931D03*
X61955Y-62931D03*
X63137Y-62931D03*
X64318Y-62931D03*
X65499Y-62931D03*
X66680Y-62931D03*
X67861Y-62931D03*
X69042Y-62931D03*
G54D14*
X59000Y-58797D02*
X59000Y-54750D01*
X59000Y-54750D02*
X59750Y-54000D01*
X59750Y-53000D02*
X59750Y-54000D01*
X69629Y-58797D02*
X69629Y-54879D01*
X69629Y-54879D02*
X68750Y-54000D01*
X68750Y-53000D02*
X68750Y-54000D01*
X66680Y-60568D02*
X66680Y-57680D01*
X66250Y-57250D02*
X66250Y-56500D01*
X66680Y-57680D02*
X66250Y-57250D01*
X66250Y-55500D02*
X66250Y-56500D01*
X64318Y-62931D02*
X64318Y-66681D01*
X64318Y-66681D02*
X64250Y-66750D01*
X64250Y-67750D02*
X64250Y-66750D01*
X65499Y-62931D02*
X65499Y-65250D01*
X65250Y-65500D02*
X65250Y-66750D01*
X65499Y-65250D02*
X65250Y-65500D01*
X65250Y-67750D02*
X65250Y-66750D01*
X66680Y-62931D02*
X66680Y-65569D01*
X66250Y-66000D02*
X66250Y-66750D01*
X66680Y-65569D02*
X66250Y-66000D01*
X66250Y-67750D02*
X66250Y-66750D01*
X67861Y-62931D02*
X67861Y-65619D01*
X67250Y-66230D02*
X67250Y-66750D01*
X67861Y-65619D02*
X67250Y-66230D01*
X67250Y-67750D02*
X67250Y-66750D01*
X69042Y-62931D02*
X69042Y-65957D01*
X69042Y-65957D02*
X68250Y-66750D01*
X68250Y-67750D02*
X68250Y-66750D01*
X59590Y-60568D02*
X59590Y-57159D01*
X59590Y-57159D02*
X60250Y-56500D01*
X60250Y-55500D02*
X60250Y-56500D01*
X60774Y-60568D02*
X60774Y-57725D01*
X61250Y-57250D02*
X61250Y-56500D01*
X60774Y-57725D02*
X61250Y-57250D01*
X61250Y-55500D02*
X61250Y-56500D01*
X61955Y-60568D02*
X61955Y-57794D01*
X62250Y-57500D02*
X62250Y-56500D01*
X61955Y-57794D02*
X62250Y-57500D01*
X62250Y-55500D02*
X62250Y-56500D01*
X60750Y-54000D02*
X60750Y-57000D01*
X60181Y-57568D02*
X60181Y-58797D01*
X60750Y-57000D02*
X60181Y-57568D01*
X60750Y-53000D02*
X60750Y-54000D01*
X63137Y-60568D02*
X63137Y-56612D01*
X63137Y-56612D02*
X63250Y-56500D01*
X63250Y-55500D02*
X63250Y-56500D01*
X64318Y-60568D02*
X64318Y-56568D01*
X64318Y-56568D02*
X64250Y-56500D01*
X64250Y-55500D02*
X64250Y-56500D01*
X65499Y-60568D02*
X65499Y-57999D01*
X65250Y-57750D02*
X65250Y-56500D01*
X65499Y-57999D02*
X65250Y-57750D01*
X65250Y-55500D02*
X65250Y-56500D01*
X63137Y-62931D02*
X63137Y-66637D01*
X63137Y-66637D02*
X63250Y-66750D01*
X63250Y-67750D02*
X63250Y-66750D01*
X67861Y-60568D02*
X67861Y-57611D01*
X67250Y-57000D02*
X67250Y-56500D01*
X67861Y-57611D02*
X67250Y-57000D01*
X67250Y-55500D02*
X67250Y-56500D01*
X69042Y-60568D02*
X69042Y-57292D01*
X69042Y-57292D02*
X68250Y-56500D01*
X68250Y-55500D02*
X68250Y-56500D01*
X61750Y-69250D02*
X61750Y-65750D01*
X61362Y-65362D02*
X61362Y-64702D01*
X61750Y-65750D02*
X61362Y-65362D01*
X61750Y-70250D02*
X61750Y-69250D01*
X59750Y-70250D02*
X59750Y-69250D01*
X59000Y-64702D02*
X59000Y-68500D01*
X59000Y-68500D02*
X59750Y-69250D01*
X60750Y-69250D02*
X60750Y-66250D01*
X60181Y-65681D02*
X60181Y-64702D01*
X60750Y-66250D02*
X60181Y-65681D01*
X60750Y-70250D02*
X60750Y-69250D01*
X62750Y-69250D02*
X62750Y-64909D01*
X62750Y-64909D02*
X62543Y-64702D01*
X62750Y-70250D02*
X62750Y-69250D01*
X61750Y-54000D02*
X61750Y-57500D01*
X61362Y-57887D02*
X61362Y-58797D01*
X61750Y-57500D02*
X61362Y-57887D01*
X61750Y-53000D02*
X61750Y-54000D01*
X63750Y-69250D02*
X63750Y-64728D01*
X63750Y-64728D02*
X63724Y-64702D01*
X63750Y-70250D02*
X63750Y-69250D01*
X64750Y-69250D02*
X64750Y-64858D01*
X64750Y-64858D02*
X64905Y-64702D01*
X64750Y-70250D02*
X64750Y-69250D01*
X65750Y-69250D02*
X65750Y-65750D01*
X66086Y-65413D02*
X66086Y-64702D01*
X65750Y-65750D02*
X66086Y-65413D01*
X65750Y-70250D02*
X65750Y-69250D01*
X66750Y-69250D02*
X66750Y-66250D01*
X67267Y-65732D02*
X67267Y-64702D01*
X66750Y-66250D02*
X67267Y-65732D01*
X66750Y-70250D02*
X66750Y-69250D01*
X67750Y-69250D02*
X67750Y-66250D01*
X68448Y-65551D02*
X68448Y-64702D01*
X67750Y-66250D02*
X68448Y-65551D01*
X67750Y-70250D02*
X67750Y-69250D01*
X68750Y-70250D02*
X68750Y-69250D01*
X69629Y-64702D02*
X69629Y-68370D01*
X69629Y-68370D02*
X68750Y-69250D01*
X59590Y-62931D02*
X59590Y-66090D01*
X59590Y-66090D02*
X60250Y-66750D01*
X60250Y-67750D02*
X60250Y-66750D01*
X60774Y-62931D02*
X60774Y-65524D01*
X61250Y-66000D02*
X61250Y-66750D01*
X60774Y-65524D02*
X61250Y-66000D01*
X61250Y-67750D02*
X61250Y-66750D01*
X61955Y-62931D02*
X61955Y-65455D01*
X62250Y-65750D02*
X62250Y-66750D01*
X61955Y-65455D02*
X62250Y-65750D01*
X62250Y-67750D02*
X62250Y-66750D01*
X62750Y-54000D02*
X62750Y-57750D01*
X62543Y-57956D02*
X62543Y-58797D01*
X62750Y-57750D02*
X62543Y-57956D01*
X62750Y-53000D02*
X62750Y-54000D01*
X63750Y-54000D02*
X63750Y-58771D01*
X63750Y-58771D02*
X63724Y-58797D01*
X63750Y-53000D02*
X63750Y-54000D01*
X64750Y-54000D02*
X64750Y-58000D01*
X64905Y-58155D02*
X64905Y-58797D01*
X64750Y-58000D02*
X64905Y-58155D01*
X64750Y-53000D02*
X64750Y-54000D01*
X65750Y-54000D02*
X65750Y-57500D01*
X66086Y-57836D02*
X66086Y-58797D01*
X65750Y-57500D02*
X66086Y-57836D01*
X65750Y-53000D02*
X65750Y-54000D01*
X66750Y-54000D02*
X66750Y-57000D01*
X67267Y-57517D02*
X67267Y-58797D01*
X66750Y-57000D02*
X67267Y-57517D01*
X66750Y-53000D02*
X66750Y-54000D01*
X67750Y-54000D02*
X67750Y-56750D01*
X68448Y-57448D02*
X68448Y-58797D01*
X67750Y-56750D02*
X68448Y-57448D01*
X67750Y-53000D02*
X67750Y-54000D01*
M02*
