G04 (created by PCBNEW (2013-07-07 BZR 4022)-stable) date 13/10/2014 15:08:58*
%MOIN*%
G04 Gerber Fmt 3.4, Leading zero omitted, Abs format*
%FSLAX34Y34*%
G01*
G70*
G90*
G04 APERTURE LIST*
%ADD10C,0.00590551*%
%ADD11C,0.0590551*%
%ADD12R,0.055X0.055*%
%ADD13C,0.055*%
G04 APERTURE END LIST*
G54D10*
G54D11*
X59055Y-59055D03*
X60236Y-59055D03*
X61417Y-59055D03*
X62598Y-59055D03*
X63779Y-59055D03*
X64960Y-59055D03*
X66141Y-59055D03*
X67322Y-59055D03*
X68503Y-59055D03*
X69685Y-59055D03*
X59055Y-64960D03*
X60236Y-64960D03*
X61417Y-64960D03*
X62598Y-64960D03*
X63779Y-64960D03*
X64960Y-64960D03*
X66141Y-64960D03*
X67322Y-64960D03*
X68503Y-64960D03*
X69685Y-64960D03*
X59648Y-60923D03*
X60829Y-60923D03*
X62011Y-60923D03*
X63192Y-60923D03*
X64373Y-60923D03*
X65554Y-60923D03*
X66735Y-60923D03*
X67916Y-60923D03*
X69097Y-60923D03*
X59648Y-63092D03*
X60829Y-63092D03*
X62011Y-63092D03*
X63192Y-63092D03*
X64373Y-63092D03*
X65554Y-63092D03*
X66735Y-63092D03*
X67916Y-63092D03*
X69097Y-63092D03*
G54D12*
X59799Y-56901D03*
G54D13*
X60799Y-56901D03*
X61799Y-56901D03*
X62799Y-56901D03*
X63799Y-56901D03*
X64799Y-56901D03*
X65799Y-56901D03*
X66799Y-56901D03*
X67799Y-56901D03*
X68799Y-56901D03*
M02*
