G04 (created by PCBNEW (2013-07-07 BZR 4022)-stable) date 05/11/2014 12:09:02*
%MOIN*%
G04 Gerber Fmt 3.4, Leading zero omitted, Abs format*
%FSLAX34Y34*%
G01*
G70*
G90*
G04 APERTURE LIST*
%ADD10C,0.00590551*%
%ADD11C,0.011811*%
%ADD12C,0.012*%
G04 APERTURE END LIST*
G54D10*
G54D11*
X57990Y-62749D02*
X58021Y-62723D01*
X58085Y-62696D01*
X58245Y-62696D01*
X58308Y-62723D01*
X58340Y-62749D01*
X58372Y-62801D01*
X58372Y-62854D01*
X58340Y-62933D01*
X57958Y-63248D01*
X58372Y-63248D01*
X58754Y-62933D02*
X58691Y-62906D01*
X58659Y-62880D01*
X58627Y-62828D01*
X58627Y-62801D01*
X58659Y-62749D01*
X58691Y-62723D01*
X58754Y-62696D01*
X58882Y-62696D01*
X58946Y-62723D01*
X58978Y-62749D01*
X59009Y-62801D01*
X59009Y-62828D01*
X58978Y-62880D01*
X58946Y-62906D01*
X58882Y-62933D01*
X58754Y-62933D01*
X58691Y-62959D01*
X58659Y-62985D01*
X58627Y-63038D01*
X58627Y-63143D01*
X58659Y-63195D01*
X58691Y-63221D01*
X58754Y-63248D01*
X58882Y-63248D01*
X58946Y-63221D01*
X58978Y-63195D01*
X59009Y-63143D01*
X59009Y-63038D01*
X58978Y-62985D01*
X58946Y-62959D01*
X58882Y-62933D01*
X58265Y-67324D02*
X58296Y-67298D01*
X58360Y-67271D01*
X58520Y-67271D01*
X58583Y-67298D01*
X58615Y-67324D01*
X58647Y-67376D01*
X58647Y-67429D01*
X58615Y-67508D01*
X58233Y-67823D01*
X58647Y-67823D01*
X59029Y-67508D02*
X58966Y-67481D01*
X58934Y-67455D01*
X58902Y-67403D01*
X58902Y-67376D01*
X58934Y-67324D01*
X58966Y-67298D01*
X59029Y-67271D01*
X59157Y-67271D01*
X59221Y-67298D01*
X59253Y-67324D01*
X59284Y-67376D01*
X59284Y-67403D01*
X59253Y-67455D01*
X59221Y-67481D01*
X59157Y-67508D01*
X59029Y-67508D01*
X58966Y-67534D01*
X58934Y-67560D01*
X58902Y-67613D01*
X58902Y-67718D01*
X58934Y-67770D01*
X58966Y-67796D01*
X59029Y-67823D01*
X59157Y-67823D01*
X59221Y-67796D01*
X59253Y-67770D01*
X59284Y-67718D01*
X59284Y-67613D01*
X59253Y-67560D01*
X59221Y-67534D01*
X59157Y-67508D01*
X68890Y-67074D02*
X68921Y-67048D01*
X68985Y-67021D01*
X69145Y-67021D01*
X69208Y-67048D01*
X69240Y-67074D01*
X69272Y-67126D01*
X69272Y-67179D01*
X69240Y-67258D01*
X68858Y-67573D01*
X69272Y-67573D01*
X69686Y-67021D02*
X69750Y-67021D01*
X69814Y-67048D01*
X69846Y-67074D01*
X69878Y-67126D01*
X69909Y-67231D01*
X69909Y-67363D01*
X69878Y-67468D01*
X69846Y-67520D01*
X69814Y-67546D01*
X69750Y-67573D01*
X69686Y-67573D01*
X69623Y-67546D01*
X69591Y-67520D01*
X69559Y-67468D01*
X69527Y-67363D01*
X69527Y-67231D01*
X69559Y-67126D01*
X69591Y-67074D01*
X69623Y-67048D01*
X69686Y-67021D01*
X69140Y-61974D02*
X69171Y-61948D01*
X69235Y-61921D01*
X69395Y-61921D01*
X69458Y-61948D01*
X69490Y-61974D01*
X69522Y-62026D01*
X69522Y-62079D01*
X69490Y-62158D01*
X69108Y-62473D01*
X69522Y-62473D01*
X69936Y-61921D02*
X70000Y-61921D01*
X70064Y-61948D01*
X70096Y-61974D01*
X70128Y-62026D01*
X70159Y-62131D01*
X70159Y-62263D01*
X70128Y-62368D01*
X70096Y-62420D01*
X70064Y-62446D01*
X70000Y-62473D01*
X69936Y-62473D01*
X69873Y-62446D01*
X69841Y-62420D01*
X69809Y-62368D01*
X69777Y-62263D01*
X69777Y-62131D01*
X69809Y-62026D01*
X69841Y-61974D01*
X69873Y-61948D01*
X69936Y-61921D01*
X57908Y-65496D02*
X58322Y-65496D01*
X58099Y-65706D01*
X58195Y-65706D01*
X58258Y-65733D01*
X58290Y-65759D01*
X58322Y-65811D01*
X58322Y-65943D01*
X58290Y-65995D01*
X58258Y-66021D01*
X58195Y-66048D01*
X58003Y-66048D01*
X57940Y-66021D01*
X57908Y-65995D01*
X58704Y-65733D02*
X58641Y-65706D01*
X58609Y-65680D01*
X58577Y-65628D01*
X58577Y-65601D01*
X58609Y-65549D01*
X58641Y-65523D01*
X58704Y-65496D01*
X58832Y-65496D01*
X58896Y-65523D01*
X58928Y-65549D01*
X58959Y-65601D01*
X58959Y-65628D01*
X58928Y-65680D01*
X58896Y-65706D01*
X58832Y-65733D01*
X58704Y-65733D01*
X58641Y-65759D01*
X58609Y-65785D01*
X58577Y-65838D01*
X58577Y-65943D01*
X58609Y-65995D01*
X58641Y-66021D01*
X58704Y-66048D01*
X58832Y-66048D01*
X58896Y-66021D01*
X58928Y-65995D01*
X58959Y-65943D01*
X58959Y-65838D01*
X58928Y-65785D01*
X58896Y-65759D01*
X58832Y-65733D01*
X57958Y-69521D02*
X58372Y-69521D01*
X58149Y-69731D01*
X58245Y-69731D01*
X58308Y-69758D01*
X58340Y-69784D01*
X58372Y-69836D01*
X58372Y-69968D01*
X58340Y-70020D01*
X58308Y-70046D01*
X58245Y-70073D01*
X58053Y-70073D01*
X57990Y-70046D01*
X57958Y-70020D01*
X58754Y-69758D02*
X58691Y-69731D01*
X58659Y-69705D01*
X58627Y-69653D01*
X58627Y-69626D01*
X58659Y-69574D01*
X58691Y-69548D01*
X58754Y-69521D01*
X58882Y-69521D01*
X58946Y-69548D01*
X58978Y-69574D01*
X59009Y-69626D01*
X59009Y-69653D01*
X58978Y-69705D01*
X58946Y-69731D01*
X58882Y-69758D01*
X58754Y-69758D01*
X58691Y-69784D01*
X58659Y-69810D01*
X58627Y-69863D01*
X58627Y-69968D01*
X58659Y-70020D01*
X58691Y-70046D01*
X58754Y-70073D01*
X58882Y-70073D01*
X58946Y-70046D01*
X58978Y-70020D01*
X59009Y-69968D01*
X59009Y-69863D01*
X58978Y-69810D01*
X58946Y-69784D01*
X58882Y-69758D01*
X69140Y-69724D02*
X69171Y-69698D01*
X69235Y-69671D01*
X69395Y-69671D01*
X69458Y-69698D01*
X69490Y-69724D01*
X69522Y-69776D01*
X69522Y-69829D01*
X69490Y-69908D01*
X69108Y-70223D01*
X69522Y-70223D01*
X69841Y-70223D02*
X69968Y-70223D01*
X70032Y-70196D01*
X70064Y-70170D01*
X70128Y-70091D01*
X70159Y-69986D01*
X70159Y-69776D01*
X70128Y-69724D01*
X70096Y-69698D01*
X70032Y-69671D01*
X69904Y-69671D01*
X69841Y-69698D01*
X69809Y-69724D01*
X69777Y-69776D01*
X69777Y-69908D01*
X69809Y-69960D01*
X69841Y-69986D01*
X69904Y-70013D01*
X70032Y-70013D01*
X70096Y-69986D01*
X70128Y-69960D01*
X70159Y-69908D01*
X69215Y-65424D02*
X69246Y-65398D01*
X69310Y-65371D01*
X69470Y-65371D01*
X69533Y-65398D01*
X69565Y-65424D01*
X69597Y-65476D01*
X69597Y-65529D01*
X69565Y-65608D01*
X69183Y-65923D01*
X69597Y-65923D01*
X69916Y-65923D02*
X70043Y-65923D01*
X70107Y-65896D01*
X70139Y-65870D01*
X70203Y-65791D01*
X70234Y-65686D01*
X70234Y-65476D01*
X70203Y-65424D01*
X70171Y-65398D01*
X70107Y-65371D01*
X69979Y-65371D01*
X69916Y-65398D01*
X69884Y-65424D01*
X69852Y-65476D01*
X69852Y-65608D01*
X69884Y-65660D01*
X69916Y-65686D01*
X69979Y-65713D01*
X70107Y-65713D01*
X70171Y-65686D01*
X70203Y-65660D01*
X70234Y-65608D01*
X69697Y-61373D02*
X69315Y-61373D01*
X69506Y-61373D02*
X69506Y-60821D01*
X69442Y-60900D01*
X69378Y-60953D01*
X69315Y-60979D01*
X70334Y-61373D02*
X69952Y-61373D01*
X70143Y-61373D02*
X70143Y-60821D01*
X70079Y-60900D01*
X70016Y-60953D01*
X69952Y-60979D01*
X69072Y-56398D02*
X68690Y-56398D01*
X68881Y-56398D02*
X68881Y-55846D01*
X68817Y-55925D01*
X68753Y-55978D01*
X68690Y-56004D01*
X69709Y-56398D02*
X69327Y-56398D01*
X69518Y-56398D02*
X69518Y-55846D01*
X69454Y-55925D01*
X69391Y-55978D01*
X69327Y-56004D01*
X69916Y-53773D02*
X69533Y-53773D01*
X69725Y-53773D02*
X69725Y-53221D01*
X69661Y-53300D01*
X69597Y-53353D01*
X69533Y-53379D01*
X70116Y-57823D02*
X69733Y-57823D01*
X69925Y-57823D02*
X69925Y-57271D01*
X69861Y-57350D01*
X69797Y-57403D01*
X69733Y-57429D01*
X58422Y-53773D02*
X58040Y-53773D01*
X58231Y-53773D02*
X58231Y-53221D01*
X58167Y-53300D01*
X58103Y-53353D01*
X58040Y-53379D01*
X58836Y-53221D02*
X58900Y-53221D01*
X58964Y-53248D01*
X58996Y-53274D01*
X59028Y-53326D01*
X59059Y-53431D01*
X59059Y-53563D01*
X59028Y-53668D01*
X58996Y-53720D01*
X58964Y-53746D01*
X58900Y-53773D01*
X58836Y-53773D01*
X58773Y-53746D01*
X58741Y-53720D01*
X58709Y-53668D01*
X58677Y-53563D01*
X58677Y-53431D01*
X58709Y-53326D01*
X58741Y-53274D01*
X58773Y-53248D01*
X58836Y-53221D01*
X58947Y-56273D02*
X58565Y-56273D01*
X58756Y-56273D02*
X58756Y-55721D01*
X58692Y-55800D01*
X58628Y-55853D01*
X58565Y-55879D01*
X59266Y-56273D02*
X59393Y-56273D01*
X59457Y-56246D01*
X59489Y-56220D01*
X59553Y-56141D01*
X59584Y-56036D01*
X59584Y-55826D01*
X59553Y-55774D01*
X59521Y-55748D01*
X59457Y-55721D01*
X59329Y-55721D01*
X59266Y-55748D01*
X59234Y-55774D01*
X59202Y-55826D01*
X59202Y-55958D01*
X59234Y-56010D01*
X59266Y-56036D01*
X59329Y-56063D01*
X59457Y-56063D01*
X59521Y-56036D01*
X59553Y-56010D01*
X59584Y-55958D01*
X58322Y-61023D02*
X57940Y-61023D01*
X58131Y-61023D02*
X58131Y-60471D01*
X58067Y-60550D01*
X58003Y-60603D01*
X57940Y-60629D01*
X58641Y-61023D02*
X58768Y-61023D01*
X58832Y-60996D01*
X58864Y-60970D01*
X58928Y-60891D01*
X58959Y-60786D01*
X58959Y-60576D01*
X58928Y-60524D01*
X58896Y-60498D01*
X58832Y-60471D01*
X58704Y-60471D01*
X58641Y-60498D01*
X58609Y-60524D01*
X58577Y-60576D01*
X58577Y-60708D01*
X58609Y-60760D01*
X58641Y-60786D01*
X58704Y-60813D01*
X58832Y-60813D01*
X58896Y-60786D01*
X58928Y-60760D01*
X58959Y-60708D01*
X58247Y-57798D02*
X57865Y-57798D01*
X58056Y-57798D02*
X58056Y-57246D01*
X57992Y-57325D01*
X57928Y-57378D01*
X57865Y-57404D01*
X58661Y-57246D02*
X58725Y-57246D01*
X58789Y-57273D01*
X58821Y-57299D01*
X58853Y-57351D01*
X58884Y-57456D01*
X58884Y-57588D01*
X58853Y-57693D01*
X58821Y-57745D01*
X58789Y-57771D01*
X58725Y-57798D01*
X58661Y-57798D01*
X58598Y-57771D01*
X58566Y-57745D01*
X58534Y-57693D01*
X58502Y-57588D01*
X58502Y-57456D01*
X58534Y-57351D01*
X58566Y-57299D01*
X58598Y-57273D01*
X58661Y-57246D01*
X58852Y-61973D02*
X58852Y-61421D01*
X59235Y-61973D01*
X59235Y-61421D01*
X59904Y-61448D02*
X59840Y-61421D01*
X59745Y-61421D01*
X59649Y-61448D01*
X59585Y-61500D01*
X59553Y-61553D01*
X59522Y-61658D01*
X59522Y-61736D01*
X59553Y-61841D01*
X59585Y-61894D01*
X59649Y-61946D01*
X59745Y-61973D01*
X59808Y-61973D01*
X59904Y-61946D01*
X59936Y-61920D01*
X59936Y-61736D01*
X59808Y-61736D01*
X60605Y-61920D02*
X60573Y-61946D01*
X60478Y-61973D01*
X60414Y-61973D01*
X60318Y-61946D01*
X60255Y-61894D01*
X60223Y-61841D01*
X60191Y-61736D01*
X60191Y-61658D01*
X60223Y-61553D01*
X60255Y-61500D01*
X60318Y-61448D01*
X60414Y-61421D01*
X60478Y-61421D01*
X60573Y-61448D01*
X60605Y-61474D01*
X61338Y-61421D02*
X61753Y-61421D01*
X61529Y-61631D01*
X61625Y-61631D01*
X61689Y-61658D01*
X61721Y-61684D01*
X61753Y-61736D01*
X61753Y-61868D01*
X61721Y-61920D01*
X61689Y-61946D01*
X61625Y-61973D01*
X61434Y-61973D01*
X61370Y-61946D01*
X61338Y-61920D01*
X62135Y-61658D02*
X62071Y-61631D01*
X62039Y-61605D01*
X62008Y-61553D01*
X62008Y-61526D01*
X62039Y-61474D01*
X62071Y-61448D01*
X62135Y-61421D01*
X62263Y-61421D01*
X62326Y-61448D01*
X62358Y-61474D01*
X62390Y-61526D01*
X62390Y-61553D01*
X62358Y-61605D01*
X62326Y-61631D01*
X62263Y-61658D01*
X62135Y-61658D01*
X62071Y-61684D01*
X62039Y-61710D01*
X62008Y-61763D01*
X62008Y-61868D01*
X62039Y-61920D01*
X62071Y-61946D01*
X62135Y-61973D01*
X62263Y-61973D01*
X62326Y-61946D01*
X62358Y-61920D01*
X62390Y-61868D01*
X62390Y-61763D01*
X62358Y-61710D01*
X62326Y-61684D01*
X62263Y-61658D01*
X63187Y-61605D02*
X63187Y-62156D01*
X63187Y-61631D02*
X63251Y-61605D01*
X63378Y-61605D01*
X63442Y-61631D01*
X63474Y-61658D01*
X63505Y-61710D01*
X63505Y-61868D01*
X63474Y-61920D01*
X63442Y-61946D01*
X63378Y-61973D01*
X63251Y-61973D01*
X63187Y-61946D01*
X63792Y-61973D02*
X63792Y-61605D01*
X63792Y-61421D02*
X63760Y-61448D01*
X63792Y-61474D01*
X63824Y-61448D01*
X63792Y-61421D01*
X63792Y-61474D01*
X64111Y-61605D02*
X64111Y-61973D01*
X64111Y-61658D02*
X64143Y-61631D01*
X64207Y-61605D01*
X64302Y-61605D01*
X64366Y-61631D01*
X64398Y-61684D01*
X64398Y-61973D01*
X65227Y-61973D02*
X65227Y-61605D01*
X65227Y-61710D02*
X65258Y-61658D01*
X65290Y-61631D01*
X65354Y-61605D01*
X65418Y-61605D01*
X65896Y-61946D02*
X65832Y-61973D01*
X65705Y-61973D01*
X65641Y-61946D01*
X65609Y-61894D01*
X65609Y-61684D01*
X65641Y-61631D01*
X65705Y-61605D01*
X65832Y-61605D01*
X65896Y-61631D01*
X65928Y-61684D01*
X65928Y-61736D01*
X65609Y-61789D01*
X66151Y-61605D02*
X66310Y-61973D01*
X66470Y-61605D01*
X67362Y-61421D02*
X67426Y-61421D01*
X67489Y-61448D01*
X67521Y-61474D01*
X67553Y-61526D01*
X67585Y-61631D01*
X67585Y-61763D01*
X67553Y-61868D01*
X67521Y-61920D01*
X67489Y-61946D01*
X67426Y-61973D01*
X67362Y-61973D01*
X67298Y-61946D01*
X67266Y-61920D01*
X67234Y-61868D01*
X67203Y-61763D01*
X67203Y-61631D01*
X67234Y-61526D01*
X67266Y-61474D01*
X67298Y-61448D01*
X67362Y-61421D01*
X67872Y-61920D02*
X67904Y-61946D01*
X67872Y-61973D01*
X67840Y-61946D01*
X67872Y-61920D01*
X67872Y-61973D01*
X68541Y-61973D02*
X68159Y-61973D01*
X68350Y-61973D02*
X68350Y-61421D01*
X68286Y-61500D01*
X68222Y-61553D01*
X68159Y-61579D01*
X69179Y-61973D02*
X68796Y-61973D01*
X68987Y-61973D02*
X68987Y-61421D01*
X68924Y-61500D01*
X68860Y-61553D01*
X68796Y-61579D01*
G54D12*
X59250Y-54500D02*
X59250Y-53500D01*
X59250Y-53500D02*
X69250Y-53500D01*
X69250Y-53500D02*
X69250Y-54500D01*
X69250Y-54500D02*
X59250Y-54500D01*
X60250Y-54500D02*
X60250Y-53500D01*
X68750Y-66250D02*
X68750Y-67250D01*
X68750Y-67250D02*
X59750Y-67250D01*
X59750Y-67250D02*
X59750Y-66250D01*
X68750Y-66250D02*
X59750Y-66250D01*
X60750Y-66250D02*
X60750Y-67250D01*
X68750Y-56000D02*
X68750Y-57000D01*
X68750Y-57000D02*
X59750Y-57000D01*
X59750Y-57000D02*
X59750Y-56000D01*
X68750Y-56000D02*
X59750Y-56000D01*
X60750Y-56000D02*
X60750Y-57000D01*
X59250Y-69750D02*
X59250Y-68750D01*
X59250Y-68750D02*
X69250Y-68750D01*
X69250Y-68750D02*
X69250Y-69750D01*
X69250Y-69750D02*
X59250Y-69750D01*
X60250Y-69750D02*
X60250Y-68750D01*
X68750Y-55000D02*
X68750Y-56000D01*
X68750Y-56000D02*
X59750Y-56000D01*
X59750Y-56000D02*
X59750Y-55000D01*
X68750Y-55000D02*
X59750Y-55000D01*
X60750Y-55000D02*
X60750Y-56000D01*
X59250Y-53500D02*
X59250Y-52500D01*
X59250Y-52500D02*
X69250Y-52500D01*
X69250Y-52500D02*
X69250Y-53500D01*
X69250Y-53500D02*
X59250Y-53500D01*
X60250Y-53500D02*
X60250Y-52500D01*
X59250Y-70750D02*
X59250Y-69750D01*
X59250Y-69750D02*
X69250Y-69750D01*
X69250Y-69750D02*
X69250Y-70750D01*
X69250Y-70750D02*
X59250Y-70750D01*
X60250Y-70750D02*
X60250Y-69750D01*
X68750Y-67250D02*
X68750Y-68250D01*
X68750Y-68250D02*
X59750Y-68250D01*
X59750Y-68250D02*
X59750Y-67250D01*
X68750Y-67250D02*
X59750Y-67250D01*
X60750Y-67250D02*
X60750Y-68250D01*
M02*
