M48
;DRILL file {Pcbnew (2013-07-07 BZR 4022)-stable} date 30/05/2015 12:54:32
;FORMAT={-:-/ absolute / inch / decimal}
FMAT,2
INCH,TZ
T1C0.043
T2C0.059
%
G90
G05
M72
T1
X5.374Y-5.5605
X5.374Y-6.248
X5.43Y-5.38
X5.435Y-6.4325
X5.489Y-6.248
X5.494Y-5.5605
X5.55Y-5.38
X5.5575Y-6.4325
X5.609Y-6.248
X5.6115Y-5.5605
X5.67Y-5.38
X5.6725Y-6.4325
X5.7265Y-6.248
X5.729Y-5.5605
X5.795Y-6.4325
X5.7975Y-5.38
X5.8465Y-5.5605
X5.8465Y-6.248
X5.895Y-6.4325
X5.9025Y-5.38
X5.964Y-5.5605
X5.964Y-6.2505
X6.0175Y-6.4325
X6.0225Y-5.38
X6.0815Y-5.5605
X6.0815Y-6.248
X6.1325Y-6.4325
X6.145Y-5.38
X6.199Y-6.248
X6.2015Y-5.5605
X6.2575Y-5.38
X6.26Y-6.4325
X6.3165Y-6.2505
X6.319Y-5.5605
X6.3775Y-5.38
X6.38Y-6.4325
X6.4365Y-5.5605
X6.4365Y-6.248
T2
X5.374Y-5.6102
X5.374Y-6.2008
X5.4331Y-5.7874
X5.4331Y-6.0236
X5.4921Y-5.6102
X5.4921Y-6.2008
X5.5515Y-5.7874
X5.5515Y-6.0236
X5.6102Y-5.6102
X5.6102Y-6.2008
X5.6696Y-5.7874
X5.6696Y-6.0236
X5.7283Y-5.6102
X5.7283Y-6.2008
X5.7877Y-5.7874
X5.7877Y-6.0236
X5.8465Y-5.6102
X5.8465Y-6.2008
X5.9058Y-5.7874
X5.9058Y-6.0236
X5.9646Y-5.6102
X5.9646Y-6.2008
X6.0239Y-5.7874
X6.0239Y-6.0236
X6.0827Y-5.6102
X6.0827Y-6.2008
X6.142Y-5.7874
X6.142Y-6.0236
X6.2008Y-5.6102
X6.2008Y-6.2008
X6.2602Y-5.7874
X6.2602Y-6.0236
X6.3189Y-5.6102
X6.3189Y-6.2008
X6.3783Y-5.7874
X6.3783Y-6.0236
X6.437Y-5.6102
X6.437Y-6.2008
T0
M30
