M48
;DRILL file {Pcbnew (2013-07-07 BZR 4022)-stable} date 03/11/2014 14:59:02
;FORMAT={-:-/ absolute / inch / decimal}
FMAT,2
INCH,TZ
T1C0.012
T2C0.013
T3C0.027
T4C0.030
T5C0.032
T6C0.039
T7C0.039
T8C0.040
T9C0.043
T10C0.047
T11C0.070
T12C0.120
T13C0.138
%
G90
G05
M72
T1
X8.202Y-7.7953
X8.2335Y-7.8347
X8.265Y-7.7953
X8.2965Y-7.8347
X8.328Y-7.7953
X9.027Y-7.7953
X9.0585Y-7.8347
X9.09Y-7.7953
X9.1215Y-7.8347
X9.153Y-7.7953
T2
X4.475Y-3.825
X4.5Y-3.85
X4.525Y-3.875
X4.55Y-3.9
X4.575Y-3.925
X4.6Y-3.95
X4.9056Y-3.181
X4.9056Y-3.356
X5.0306Y-2.881
X5.1556Y-3.906
X5.2Y-5.65
X5.2056Y-2.981
X5.2056Y-3.131
X5.2056Y-3.281
X5.25Y-2.15
X5.25Y-5.525
X5.2806Y-3.056
X5.2806Y-3.206
X5.2806Y-3.356
X5.3556Y-2.981
X5.3556Y-3.131
X5.3556Y-3.281
X5.4Y-5.525
X5.4306Y-3.056
X5.4306Y-3.206
X5.4306Y-3.356
X5.5056Y-3.131
X5.5056Y-3.281
X5.5056Y-3.431
X5.575Y-5.625
X5.65Y-2.9556
X5.66Y-3.33
X5.66Y-3.385
X5.68Y-3.3556
X5.695Y-3.33
X5.695Y-3.385
X5.72Y-3.355
X5.735Y-3.33
X5.735Y-3.385
X5.74Y-3.2106
X5.74Y-3.5056
X5.755Y-3.355
X5.78Y-2.9506
X5.78Y-3.33
X5.78Y-3.385
X5.805Y-3.5306
X5.8375Y-3.9006
X5.84Y-3.2756
X5.84Y-3.4406
X5.865Y-3.225
X5.865Y-3.8506
X5.89Y-3.9006
X5.915Y-3.8506
X5.925Y-3.7306
X5.925Y-4.0256
X5.94Y-3.9006
X5.9475Y-2.9456
X5.95Y-3.5
X5.955Y-3.22
X5.96Y-3.4406
X5.965Y-3.2756
X5.965Y-3.8506
X5.995Y-3.5356
X6.025Y-3.8006
X6.0275Y-3.3856
X6.03Y-3.9506
X6.0525Y-3.3356
X6.0775Y-3.3856
X6.085Y-2.9506
X6.1025Y-3.3356
X6.11Y-3.2156
X6.11Y-3.5056
X6.1275Y-3.3856
X6.15Y-6.025
X6.15Y-6.175
X6.1525Y-3.3356
X6.2Y-3.375
X6.2Y-3.635
X6.28Y-4.055
X6.3Y-4.225
X6.3225Y-3.9475
X6.325Y-2.975
X6.325Y-6.225
X6.35Y-6.075
X6.4Y-4.15
X6.41Y-3.745
X6.415Y-3.89
X6.475Y-3.05
X6.475Y-4.075
X6.675Y-4.225
X6.72Y-2.985
X6.745Y-3.715
X6.745Y-4.645
X6.8Y-4.7
X6.825Y-3.375
X6.85Y-3.025
X6.85Y-3.8
X6.86Y-2.445
X6.865Y-7.49
X6.865Y-7.61
X6.875Y-2.9
X6.875Y-6.725
X6.875Y-6.875
X6.9Y-2.655
X6.925Y-1.75
X6.96Y-2.745
X6.975Y-2.635
X6.975Y-7.6
X7.025Y-2.635
X7.025Y-3.475
X7.025Y-6.9
X7.04Y-1.76
X7.04Y-3.605
X7.05Y-2.825
X7.05Y-3.695
X7.07Y-7.525
X7.07Y-7.59
X7.075Y-6.775
X7.075Y-7.63
X7.1Y-7.89
X7.1Y-7.94
X7.11Y-2.645
X7.11Y-2.68
X7.11Y-5.165
X7.12Y-7.85
X7.125Y-2.9
X7.135Y-7.74
X7.145Y-6.195
X7.145Y-6.3
X7.145Y-6.4
X7.145Y-6.505
X7.145Y-6.67
X7.15Y-3.025
X7.165Y-7.675
X7.18Y-1.76
X7.19Y-6.905
X7.22Y-6.425
X7.225Y-1.75
X7.225Y-6.325
X7.225Y-6.475
X7.225Y-6.51
X7.225Y-6.58
X7.235Y-5.78
X7.235Y-6.22
X7.255Y-6.555
X7.275Y-3.375
X7.29Y-6.64
X7.29Y-6.71
X7.31Y-3.4858
X7.335Y-3.04
X7.36Y-3.005
X7.37Y-2.955
X7.39Y-7.56
X7.395Y-2.985
X7.395Y-3.025
X7.41Y-3.165
X7.415Y-2.955
X7.43Y-3.1008
X7.435Y-2.8
X7.435Y-2.985
X7.435Y-3.025
X7.445Y-3.135
X7.45Y-7.585
X7.455Y-3.305
X7.46Y-2.955
X7.46Y-3.235
X7.475Y-4.775
X7.495Y-2.955
X7.5Y-3.31
X7.51Y-3.395
X7.51Y-3.4858
X7.53Y-2.955
X7.535Y-3.33
X7.545Y-3.005
X7.55Y-3.16
X7.565Y-2.955
X7.58Y-3.145
X7.58Y-4.1
X7.585Y-2.985
X7.595Y-3.17
X7.5975Y-5.2984
X7.6Y-2.92
X7.605Y-2.955
X7.615Y-3.145
X7.615Y-4.915
X7.617Y-5.9004
X7.62Y-2.985
X7.62Y-3.44
X7.625Y-3.34
X7.63Y-3.17
X7.63Y-3.37
X7.635Y-2.955
X7.64Y-3.41
X7.64Y-3.475
X7.65Y-3.145
X7.65Y-3.5
X7.655Y-2.985
X7.655Y-3.31
X7.66Y-3.34
X7.66Y-3.375
X7.66Y-3.44
X7.675Y-3.475
X7.68Y-5.085
X7.6875Y-3.9133
X7.69Y-3.31
X7.695Y-3.395
X7.6994Y-5.535
X7.71Y-3.4858
X7.7175Y-5.0459
X7.7235Y-5.3529
X7.725Y-3.31
X7.725Y-4.1
X7.73Y-3.395
X7.731Y-5.2344
X7.78Y-5.5259
X7.785Y-5.2564
X7.83Y-4.8884
X7.885Y-4.7884
X7.89Y-3.8758
X7.89Y-7.665
X7.8914Y-4.9892
X7.91Y-3.4858
X7.915Y-7.485
X7.9151Y-5.4115
X7.925Y-7.845
X7.975Y-2.995
X7.975Y-3.15
X7.9962Y-5.6816
X8.Y-7.415
X8.0074Y-5.4068
X8.02Y-3.355
X8.02Y-3.45
X8.025Y-7.57
X8.035Y-3.485
X8.04Y-3.335
X8.04Y-3.38
X8.04Y-3.415
X8.045Y-5.32
X8.055Y-3.45
X8.065Y-3.09
X8.065Y-3.14
X8.065Y-4.8334
X8.07Y-3.485
X8.075Y-7.725
X8.11Y-3.4858
X8.1107Y-5.2277
X8.1185Y-5.4385
X8.145Y-4.7534
X8.16Y-3.345
X8.17Y-5.9559
X8.225Y-3.1008
X8.225Y-7.33
X8.23Y-7.67
X8.24Y-3.8758
X8.245Y-5.575
X8.26Y-7.345
X8.2689Y-5.4868
X8.275Y-5.1234
X8.31Y-3.4858
X8.31Y-7.335
X8.3523Y-5.4423
X8.3866Y-5.4158
X8.4Y-4.1
X8.415Y-6.5784
X8.415Y-7.675
X8.42Y-7.365
X8.425Y-3.1008
X8.425Y-6.2784
X8.45Y-7.25
X8.461Y-7.366
X8.475Y-3.1
X8.475Y-3.15
X8.475Y-3.2
X8.5095Y-5.8581
X8.5125Y-3.9133
X8.54Y-5.7821
X8.545Y-6.175
X8.55Y-4.1
X8.56Y-3.4858
X8.6225Y-5.4634
X8.6351Y-5.6243
X8.655Y-3.1008
X8.6576Y-5.5038
X8.68Y-6.94
X8.6969Y-5.5896
X8.7059Y-5.8451
X8.715Y-3.8758
X8.715Y-5.0184
X8.725Y-3.01
X8.7284Y-5.6253
X8.7289Y-5.7143
X8.729Y-5.802
X8.73Y-7.58
X8.76Y-3.4858
X8.775Y-5.155
X8.79Y-7.03
X8.8Y-6.96
X8.81Y-7.325
X8.825Y-7.595
X8.825Y-7.895
X8.83Y-7.165
X8.865Y-7.05
X8.87Y-6.59
X8.88Y-3.1008
X8.885Y-5.3934
X8.895Y-7.285
X8.8975Y-6.1609
X8.905Y-6.565
X8.91Y-7.05
X8.93Y-6.7
X8.935Y-7.335
X8.96Y-3.4858
X8.96Y-6.9
X8.968Y-6.699
X8.975Y-7.245
X8.99Y-7.34
X8.99Y-7.64
X9.035Y-6.2334
X9.035Y-7.325
X9.055Y-7.45
X9.055Y-7.665
X9.065Y-3.8758
X9.075Y-5.125
X9.08Y-3.1058
X9.09Y-3.005
X9.1Y-7.45
X9.12Y-6.87
X9.125Y-7.155
X9.125Y-7.2
X9.125Y-7.255
X9.16Y-3.4858
X9.19Y-7.635
X9.225Y-7.22
X9.225Y-7.42
X9.237Y-6.4884
X9.24Y-4.7584
X9.24Y-5.2984
X9.265Y-2.75
X9.27Y-2.9
X9.275Y-2.975
X9.275Y-3.03
X9.28Y-3.1008
X9.2825Y-5.6584
X9.29Y-3.005
X9.29Y-5.4409
X9.295Y-2.95
X9.295Y-3.14
X9.295Y-3.17
X9.3Y-3.3633
X9.3Y-4.025
X9.31Y-3.03
X9.315Y-2.98
X9.315Y-3.12
X9.335Y-3.31
X9.3375Y-3.9158
X9.35Y-7.44
X9.35Y-7.575
X9.35Y-7.645
X9.36Y-3.4858
X9.365Y-3.325
X9.375Y-4.1
X9.385Y-7.575
X9.39Y-7.445
X9.4Y-3.29
X9.4Y-3.325
X9.4Y-3.475
X9.4Y-7.85
X9.4Y-7.9
X9.405Y-3.365
X9.41Y-3.155
X9.42Y-7.805
X9.425Y-7.41
X9.445Y-3.165
X9.465Y-2.8
X9.465Y-2.85
X9.47Y-5.005
X9.475Y-2.7
X9.475Y-2.75
X9.475Y-3.15
X9.475Y-3.445
X9.475Y-3.485
X9.475Y-4.575
X9.475Y-7.295
X9.475Y-7.41
X9.485Y-3.385
X9.485Y-3.415
X9.485Y-6.695
X9.49Y-2.775
X9.49Y-2.825
X9.49Y-2.875
X9.495Y-3.17
X9.5Y-2.91
X9.5Y-3.315
X9.5Y-3.35
X9.505Y-3.495
X9.51Y-3.43
X9.515Y-3.39
X9.52Y-3.465
X9.524Y-2.995
X9.5347Y-3.0253
X9.54Y-7.41
X9.55Y-2.97
X9.56Y-3.
X9.56Y-3.04
X9.56Y-3.4858
X9.5714Y-2.9464
X9.585Y-2.06
X9.585Y-2.975
X9.585Y-3.025
X9.595Y-2.09
X9.6Y-2.95
X9.605Y-2.91
X9.605Y-7.49
X9.61Y-2.865
X9.61Y-3.
X9.61Y-3.05
X9.615Y-2.06
X9.625Y-6.1
X9.63Y-2.09
X9.63Y-2.89
X9.64Y-7.52
X9.645Y-2.915
X9.65Y-2.06
X9.66Y-6.185
X9.665Y-2.09
X9.665Y-2.9
X9.675Y-6.425
X9.68Y-2.915
X9.68Y-3.34
X9.685Y-2.06
X9.685Y-3.125
X9.685Y-3.16
X9.685Y-5.885
X9.7Y-2.65
X9.7Y-2.7
X9.7Y-2.9
X9.705Y-2.09
X9.71Y-2.9838
X9.71Y-3.015
X9.71Y-3.045
X9.71Y-3.075
X9.715Y-2.92
X9.725Y-2.06
X9.725Y-2.625
X9.725Y-2.675
X9.725Y-3.875
X9.73Y-6.185
X9.74Y-2.09
X9.74Y-2.9
X9.745Y-2.93
X9.75Y-2.65
X9.75Y-2.7
X9.75Y-3.825
X9.76Y-2.06
X9.77Y-2.905
X9.775Y-2.625
X9.775Y-2.675
X9.775Y-2.965
X9.775Y-6.175
X9.775Y-6.35
X9.78Y-2.09
X9.78Y-3.01
X9.78Y-3.1
X9.795Y-2.945
X9.795Y-2.99
X9.8Y-2.65
X9.8Y-2.7
X9.805Y-2.23
X9.805Y-2.29
X9.805Y-2.35
X9.805Y-2.41
X9.805Y-6.32
X9.81Y-2.965
X9.81Y-6.2
X9.815Y-2.92
X9.815Y-3.01
X9.815Y-3.1
X9.825Y-2.26
X9.825Y-2.32
X9.825Y-2.38
X9.825Y-2.625
X9.825Y-2.675
X9.83Y-2.945
X9.83Y-2.99
X9.83Y-6.35
X9.84Y-2.23
X9.84Y-2.29
X9.84Y-2.35
X9.84Y-2.41
X9.84Y-5.145
X9.845Y-2.045
X9.845Y-2.92
X9.845Y-2.965
X9.845Y-3.01
X9.85Y-2.65
X9.85Y-2.7
X9.85Y-3.1
X9.855Y-6.29
X9.86Y-2.26
X9.86Y-2.32
X9.86Y-2.38
X9.86Y-2.945
X9.86Y-2.99
X9.865Y-3.21
X9.87Y-3.135
X9.875Y-2.29
X9.875Y-2.35
X9.875Y-2.41
X9.875Y-2.625
X9.875Y-2.675
X9.875Y-2.92
X9.875Y-2.965
X9.875Y-3.01
X9.875Y-4.225
X9.875Y-4.575
X9.88Y-2.045
X9.88Y-2.23
X9.88Y-6.15
X9.885Y-3.1
X9.89Y-2.945
X9.89Y-2.99
X9.89Y-3.175
X9.895Y-2.26
X9.895Y-2.32
X9.895Y-2.38
X9.9Y-3.01
X9.9Y-6.205
X9.9Y-6.3
X9.905Y-2.92
X9.905Y-2.965
X9.905Y-3.135
X9.905Y-3.21
X9.91Y-2.29
X9.91Y-2.35
X9.91Y-2.41
X9.91Y-6.48
X9.915Y-2.045
X9.92Y-2.945
X9.925Y-2.99
X9.925Y-3.17
X9.925Y-4.625
X9.93Y-3.105
X9.935Y-2.92
X9.94Y-2.435
X9.94Y-2.965
X9.945Y-3.135
X9.945Y-3.205
X9.95Y-2.045
X9.95Y-3.01
X9.96Y-2.465
X9.96Y-6.475
X9.965Y-2.985
X9.965Y-3.025
X9.965Y-3.085
X9.965Y-3.175
X9.975Y-2.435
X9.975Y-3.55
X9.975Y-6.35
X9.985Y-2.175
X9.985Y-3.215
X9.99Y-2.12
X9.99Y-3.14
X9.995Y-2.05
X9.995Y-2.47
X9.995Y-5.22
X10.Y-2.785
X10.005Y-2.215
X10.005Y-2.25
X10.005Y-2.285
X10.005Y-2.32
X10.005Y-2.355
X10.005Y-2.39
X10.01Y-2.435
X10.015Y-2.505
X10.02Y-2.09
X10.02Y-2.15
X10.025Y-2.55
X10.025Y-2.6
X10.025Y-2.65
X10.025Y-2.7
X10.025Y-2.75
X10.03Y-2.47
X10.035Y-2.06
X10.035Y-2.2
X10.035Y-2.235
X10.035Y-2.27
X10.035Y-2.3
X10.04Y-2.12
X10.05Y-2.505
X10.05Y-2.575
X10.05Y-2.625
X10.05Y-2.675
X10.05Y-2.725
X10.055Y-2.09
X10.055Y-2.15
X10.06Y-6.115
X10.07Y-2.06
X10.07Y-2.21
X10.07Y-2.245
X10.07Y-2.28
X10.075Y-2.12
X10.075Y-2.55
X10.075Y-2.6
X10.075Y-2.65
X10.075Y-2.7
X10.075Y-2.75
X10.09Y-2.09
X10.09Y-2.15
X10.1Y-2.575
X10.1Y-2.625
X10.1Y-2.675
X10.1Y-2.725
X10.1Y-3.425
X10.1Y-3.675
X10.105Y-2.2
X10.105Y-2.235
X10.105Y-2.27
X10.105Y-2.92
X10.11Y-2.06
X10.11Y-2.12
X10.12Y-2.875
X10.12Y-4.555
X10.125Y-2.09
X10.125Y-2.15
X10.125Y-6.475
X10.125Y-6.55
X10.13Y-3.
X10.135Y-2.215
X10.14Y-2.06
X10.14Y-3.095
X10.145Y-2.12
X10.16Y-2.09
X10.16Y-2.15
X10.17Y-2.215
X10.175Y-2.06
X10.18Y-2.12
X10.185Y-6.195
X10.195Y-2.09
X10.195Y-2.15
X10.2Y-2.22
X10.2Y-2.605
X10.2Y-2.75
X10.21Y-2.06
X10.215Y-2.12
X10.215Y-5.88
X10.225Y-2.675
X10.225Y-2.725
X10.225Y-3.13
X10.225Y-3.55
X10.23Y-2.09
X10.23Y-2.15
X10.23Y-2.235
X10.25Y-2.12
X10.265Y-2.15
X10.265Y-2.25
X10.27Y-2.09
X10.275Y-2.275
X10.29Y-2.12
X10.29Y-2.175
T3
X4.675Y-2.85
T4
X8.19Y-7.69
X8.27Y-5.0234
X8.36Y-7.69
X8.47Y-5.0234
X9.015Y-7.69
X9.185Y-7.69
X9.7576Y-5.8159
X10.0726Y-5.8159
T5
X4.325Y-3.475
X4.325Y-3.575
X4.4Y-2.65
X4.4197Y-2.8444
X4.425Y-4.45
X4.525Y-4.45
X4.5306Y-2.631
X4.6916Y-2.7176
X4.8306Y-2.631
X4.9Y-2.35
X4.9Y-2.45
X5.1556Y-3.456
X5.25Y-2.8
X5.275Y-5.275
X5.35Y-2.8
X5.375Y-5.275
X5.45Y-2.725
X5.475Y-2.475
X5.475Y-2.625
X5.55Y-2.725
X5.55Y-2.875
X5.6Y-2.475
X5.6Y-2.625
X5.675Y-2.725
X5.675Y-2.875
X5.7Y-3.75
X5.7Y-3.85
X5.7Y-3.95
X5.7Y-4.05
X5.725Y-2.475
X5.725Y-2.625
X5.8Y-2.725
X5.8Y-2.875
X5.85Y-2.475
X5.85Y-2.625
X5.9Y-6.05
X5.9Y-6.15
X5.925Y-2.725
X5.925Y-2.875
X5.975Y-2.475
X5.975Y-2.625
X6.05Y-2.725
X6.05Y-2.875
X6.1Y-2.475
X6.1Y-2.625
X6.175Y-2.725
X6.175Y-2.875
X6.225Y-2.475
X6.225Y-2.625
X6.3Y-2.725
X6.3Y-2.875
X6.35Y-2.475
X6.35Y-2.625
X6.425Y-2.725
X6.425Y-2.875
X6.475Y-2.475
X6.475Y-2.625
X6.55Y-2.725
X6.55Y-2.875
X6.6Y-2.475
X6.6Y-2.625
X6.625Y-6.75
X6.625Y-6.85
X6.625Y-7.5
X6.625Y-7.6
X6.675Y-2.725
X6.675Y-2.875
X6.725Y-2.475
X6.725Y-2.625
X6.8Y-2.725
X6.8Y-2.875
X6.95Y-3.125
X7.Y-1.975
X7.Y-2.075
X7.025Y-3.275
X7.025Y-3.375
X7.05Y-3.125
X7.1Y-4.63
X7.1Y-4.73
X7.125Y-3.275
X7.125Y-3.375
X7.15Y-1.975
X7.15Y-2.075
X7.175Y-3.85
X7.175Y-3.95
X7.25Y-2.495
X7.25Y-2.645
X7.25Y-2.725
X7.25Y-2.875
X7.35Y-2.475
X7.35Y-2.625
X7.375Y-2.725
X7.375Y-2.875
X7.425Y-3.75
X7.425Y-3.85
X7.45Y-2.475
X7.45Y-2.625
X7.5Y-2.725
X7.5Y-2.875
X7.55Y-2.475
X7.55Y-2.625
X7.61Y-6.035
X7.625Y-2.725
X7.625Y-2.875
X7.65Y-1.925
X7.65Y-2.075
X7.65Y-5.695
X7.665Y-6.57
X7.675Y-2.475
X7.675Y-2.625
X7.675Y-4.2
X7.75Y-1.925
X7.75Y-2.075
X7.75Y-2.725
X7.75Y-2.875
X7.775Y-4.2
X7.8Y-2.475
X7.8Y-2.625
X7.82Y-6.9584
X7.82Y-7.0584
X7.825Y-1.725
X7.825Y-1.875
X7.875Y-2.725
X7.875Y-2.875
X7.925Y-2.075
X7.925Y-2.225
X7.94Y-6.9584
X7.94Y-7.0584
X7.98Y-2.75
X7.98Y-2.85
X8.Y-2.475
X8.Y-2.625
X8.06Y-6.9584
X8.06Y-7.0584
X8.075Y-2.725
X8.075Y-2.875
X8.125Y-2.475
X8.125Y-2.625
X8.15Y-2.9625
X8.18Y-6.9584
X8.18Y-7.0584
X8.2Y-2.725
X8.2Y-2.875
X8.25Y-2.475
X8.25Y-2.625
X8.25Y-2.96
X8.325Y-2.725
X8.325Y-2.875
X8.375Y-2.475
X8.375Y-2.625
X8.45Y-2.725
X8.45Y-2.875
X8.5Y-2.475
X8.5Y-2.625
X8.575Y-2.725
X8.575Y-2.875
X8.625Y-2.475
X8.625Y-2.625
X8.675Y-7.325
X8.675Y-7.475
X8.7Y-2.725
X8.7Y-2.875
X8.75Y-2.475
X8.75Y-2.625
X8.825Y-2.725
X8.825Y-2.875
X8.875Y-2.475
X8.875Y-2.625
X8.875Y-5.2284
X8.95Y-2.725
X8.95Y-2.875
X8.975Y-5.2284
X8.985Y-6.755
X9.Y-2.475
X9.Y-2.625
X9.05Y-2.725
X9.05Y-2.875
X9.075Y-5.2284
X9.125Y-2.475
X9.125Y-2.625
X9.135Y-6.755
X9.175Y-1.675
X9.175Y-1.825
X9.2Y-2.725
X9.2Y-2.875
X9.215Y-6.85
X9.225Y-1.9
X9.225Y-2.05
X9.225Y-6.225
X9.235Y-6.565
X9.25Y-2.475
X9.25Y-2.625
X9.275Y-1.675
X9.275Y-1.825
X9.28Y-6.29
X9.28Y-6.395
X9.325Y-1.9
X9.325Y-2.05
X9.325Y-6.595
X9.33Y-6.975
X9.35Y-2.475
X9.35Y-2.625
X9.375Y-1.675
X9.375Y-1.825
X9.425Y-1.9
X9.425Y-2.05
X9.45Y-2.475
X9.45Y-2.625
X9.475Y-1.675
X9.475Y-1.825
X9.525Y-1.9
X9.525Y-2.05
X9.525Y-3.75
X9.525Y-3.85
X9.575Y-2.425
X9.575Y-2.575
X9.615Y-2.15
X9.63Y-5.95
X9.675Y-2.325
X9.675Y-2.475
X9.69Y-6.34
X9.765Y-2.15
X9.85Y-6.55
X9.85Y-6.65
X9.85Y-6.845
X9.85Y-6.945
X9.875Y-4.875
X9.875Y-4.975
X10.Y-4.15
X10.1Y-4.15
T6
X7.992Y-6.3148
X7.992Y-6.492
X8.248Y-6.3148
X8.2519Y-6.492
X8.692Y-6.3148
X8.692Y-6.492
X8.948Y-6.3148
X8.9519Y-6.492
T7
X7.2222Y-7.7073
X7.6278Y-7.7073
T8
X5.05Y-6.75
X5.05Y-6.85
X5.05Y-6.95
X5.05Y-7.05
X5.05Y-7.15
X5.05Y-7.25
X5.05Y-7.35
X5.05Y-7.45
X5.05Y-7.55
X5.05Y-7.65
X5.05Y-7.75
X5.05Y-7.85
X5.15Y-6.75
X5.15Y-6.85
X5.15Y-6.95
X5.15Y-7.05
X5.15Y-7.15
X5.15Y-7.25
X5.15Y-7.35
X5.15Y-7.45
X5.15Y-7.55
X5.15Y-7.65
X5.15Y-7.75
X5.15Y-7.85
X5.25Y-6.75
X5.25Y-6.85
X5.25Y-6.95
X5.25Y-7.05
X5.25Y-7.15
X5.25Y-7.25
X5.25Y-7.35
X5.25Y-7.45
X5.25Y-7.55
X5.25Y-7.65
X5.25Y-7.75
X5.25Y-7.85
X5.35Y-6.75
X5.35Y-6.85
X5.35Y-6.95
X5.35Y-7.05
X5.35Y-7.15
X5.35Y-7.25
X5.35Y-7.35
X5.35Y-7.45
X5.35Y-7.55
X5.35Y-7.65
X5.35Y-7.75
X5.35Y-7.85
X5.45Y-6.75
X5.45Y-6.85
X5.45Y-6.95
X5.45Y-7.05
X5.45Y-7.15
X5.45Y-7.25
X5.45Y-7.35
X5.45Y-7.45
X5.45Y-7.55
X5.45Y-7.65
X5.45Y-7.75
X5.45Y-7.85
X5.5056Y-3.531
X5.5056Y-3.931
X5.55Y-6.75
X5.55Y-6.85
X5.55Y-6.95
X5.55Y-7.05
X5.55Y-7.15
X5.55Y-7.25
X5.55Y-7.35
X5.55Y-7.45
X5.55Y-7.55
X5.55Y-7.65
X5.55Y-7.75
X5.55Y-7.85
X5.975Y-4.15
X5.975Y-4.65
X5.975Y-4.75
X5.975Y-4.85
X5.975Y-4.95
X5.975Y-5.05
X5.975Y-5.15
X6.075Y-4.15
X6.075Y-4.65
X6.075Y-4.75
X6.075Y-4.85
X6.075Y-4.95
X6.075Y-5.05
X6.075Y-5.15
X6.175Y-4.65
X6.175Y-4.75
X6.175Y-4.85
X6.175Y-4.95
X6.175Y-5.05
X6.175Y-5.15
X6.275Y-4.65
X6.275Y-4.75
X6.275Y-4.85
X6.275Y-4.95
X6.275Y-5.05
X6.275Y-5.15
X6.375Y-4.65
X6.375Y-4.75
X6.375Y-4.85
X6.375Y-4.95
X6.375Y-5.05
X6.375Y-5.15
X6.475Y-4.65
X6.475Y-4.75
X6.475Y-4.85
X6.475Y-4.95
X6.475Y-5.05
X6.475Y-5.15
X6.575Y-4.65
X6.575Y-4.75
X6.575Y-4.85
X6.575Y-4.95
X6.575Y-5.05
X6.575Y-5.15
X6.675Y-4.65
X6.675Y-4.75
X6.675Y-4.85
X6.675Y-4.95
X6.675Y-5.05
X6.675Y-5.15
X6.875Y-3.9
X6.875Y-4.
X6.95Y-4.475
X6.95Y-4.575
X6.95Y-4.675
X6.95Y-4.775
X6.95Y-4.875
X6.95Y-4.975
X6.95Y-5.075
X6.95Y-5.175
X6.95Y-5.275
X6.95Y-5.375
X6.95Y-5.475
X6.95Y-5.575
X6.95Y-5.675
X6.95Y-5.775
X6.95Y-5.875
X6.95Y-5.975
X7.425Y-4.6884
X7.425Y-4.9484
X7.425Y-5.0484
X7.425Y-5.1484
X7.425Y-5.2484
X7.425Y-5.3484
X7.425Y-5.4484
X7.425Y-5.5484
X7.425Y-5.6484
X7.425Y-5.7484
X7.425Y-5.8484
X7.425Y-5.9484
X7.425Y-6.0484
X7.425Y-6.1484
X7.425Y-6.2484
X7.425Y-6.3484
X7.425Y-6.4484
X7.425Y-6.5484
X7.425Y-6.6484
X7.425Y-6.7484
X7.425Y-6.8484
X7.425Y-6.9484
X7.425Y-7.0484
X7.425Y-7.1484
X7.425Y-7.2484
X7.425Y-7.3484
X7.525Y-4.6884
X7.525Y-4.9484
X7.525Y-5.0484
X7.525Y-5.1484
X7.525Y-5.2484
X7.525Y-5.3484
X7.525Y-5.4484
X7.525Y-5.5484
X7.525Y-5.6484
X7.525Y-5.7484
X7.525Y-5.8484
X7.525Y-5.9484
X7.525Y-6.0484
X7.525Y-6.1484
X7.525Y-6.2484
X7.525Y-6.3484
X7.525Y-6.4484
X7.525Y-6.5484
X7.525Y-6.6484
X7.525Y-6.7484
X7.525Y-6.8484
X7.525Y-6.9484
X7.525Y-7.0484
X7.525Y-7.1484
X7.525Y-7.2484
X7.525Y-7.3484
X7.625Y-4.6884
X7.725Y-4.6884
X7.825Y-4.6884
X7.925Y-4.6884
X8.375Y-4.6884
X8.475Y-4.6884
X9.425Y-4.9484
X9.425Y-5.0484
X9.425Y-5.1484
X9.425Y-5.2484
X9.425Y-5.3484
X9.425Y-5.4484
X9.425Y-5.5484
X9.425Y-5.6484
X9.425Y-5.7484
X9.425Y-5.8484
X9.425Y-5.9484
X9.425Y-6.0484
X9.425Y-6.1484
X9.425Y-6.2484
X9.425Y-6.3484
X9.425Y-6.4484
X9.425Y-6.5484
X9.425Y-6.6484
X9.425Y-6.7484
X9.425Y-6.8484
X9.425Y-6.9484
X9.425Y-7.0484
X9.425Y-7.1484
X9.425Y-7.2484
X9.425Y-7.3484
X9.525Y-4.9484
X9.525Y-5.0484
X9.525Y-5.1484
X9.525Y-5.2484
X9.525Y-5.3484
X9.525Y-5.4484
X9.525Y-5.5484
X9.525Y-5.6484
X9.525Y-5.7484
X9.525Y-5.8484
X9.525Y-5.9484
X9.525Y-6.0484
X9.525Y-6.1484
X9.525Y-6.2484
X9.525Y-6.3484
X9.525Y-6.4484
X9.525Y-6.5484
X9.525Y-6.6484
X9.525Y-6.7484
X9.525Y-6.8484
X9.525Y-6.9484
X9.525Y-7.0484
X9.525Y-7.1484
X9.525Y-7.2484
X9.525Y-7.3484
T9
X5.5621Y-2.1628
X5.5621Y-2.34
X5.6998Y-2.1628
X5.6998Y-2.34
X5.8219Y-2.1628
X5.8219Y-2.34
X5.94Y-2.1628
X5.94Y-2.34
X6.0581Y-2.1628
X6.0581Y-2.34
X6.1762Y-2.1628
X6.1762Y-2.34
X6.2943Y-2.1628
X6.2943Y-2.34
X6.4124Y-2.1628
X6.4124Y-2.34
X6.5305Y-2.1628
X6.5305Y-2.34
X6.6486Y-2.1628
X6.6486Y-2.34
X6.7707Y-2.1628
X6.7707Y-2.34
X7.0049Y-2.1628
X7.0049Y-2.34
X7.123Y-2.1628
X7.123Y-2.34
X7.2411Y-2.1628
X7.2411Y-2.34
X7.3592Y-2.1628
X7.3592Y-2.34
X7.4774Y-2.1628
X7.4774Y-2.34
X7.5955Y-2.1628
X7.5955Y-2.34
X7.7136Y-2.1628
X7.7136Y-2.34
X7.8317Y-2.1628
X7.8317Y-2.34
X8.0658Y-2.1628
X8.0658Y-2.34
X8.2036Y-2.1628
X8.2036Y-2.34
X8.3258Y-2.1628
X8.3258Y-2.34
X8.4439Y-2.1628
X8.4439Y-2.34
X8.562Y-2.1628
X8.562Y-2.34
X8.6801Y-2.1628
X8.6801Y-2.34
X8.7982Y-2.1628
X8.7982Y-2.34
X8.9163Y-2.1628
X8.9163Y-2.34
X9.0344Y-2.1628
X9.0344Y-2.34
X9.1525Y-2.1628
X9.1525Y-2.34
X9.2746Y-2.1628
X9.2746Y-2.34
X9.4124Y-2.1628
X9.4124Y-2.34
X9.5502Y-2.1628
X9.5502Y-2.34
T10
X7.2222Y-7.597
X7.2222Y-7.853
X7.6278Y-7.597
X7.6278Y-7.853
T11
X5.014Y-4.7093
X5.0573Y-5.2407
X5.3343Y-5.789
X5.3343Y-6.411
X5.5927Y-5.2407
X5.636Y-4.7093
X5.8657Y-5.8323
X5.8657Y-6.3677
X6.0593Y-6.489
X6.0593Y-7.111
X6.0593Y-7.239
X6.0593Y-7.861
X6.5907Y-6.5323
X6.5907Y-7.0677
X6.5907Y-7.2823
X6.5907Y-7.8177
T12
X4.375Y-5.9
X4.7845Y-4.175
X4.7846Y-7.8364
X4.825Y-7.35
X5.125Y-5.45
X5.525Y-5.45
X5.7295Y-4.2585
X5.7295Y-7.2112
X6.075Y-6.3
X6.8Y-6.6
X6.8Y-7.
X6.8Y-7.75
X6.95Y-7.2112
X6.95Y-7.8364
T13
X5.3632Y-1.9384
X6.8927Y-1.9384
X7.9439Y-1.9384
X9.749Y-1.9384
T4
X8.1637Y-7.7461G85X8.2167Y-7.7461
G05
X8.2385Y-7.8839G85X8.2915Y-7.8839
G05
X8.333Y-7.7461G85X8.386Y-7.7461
G05
X8.9887Y-7.7461G85X9.0417Y-7.7461
G05
X9.0635Y-7.8839G85X9.1165Y-7.8839
G05
X9.158Y-7.7461G85X9.211Y-7.7461
G05
T12
X6.95Y-4.1779G85X6.95Y-4.2556
G05
T0
M30
