G04 (created by PCBNEW (2013-07-07 BZR 4022)-stable) date 24/01/2014 20:14:09*
%MOIN*%
G04 Gerber Fmt 3.4, Leading zero omitted, Abs format*
%FSLAX34Y34*%
G01*
G70*
G90*
G04 APERTURE LIST*
%ADD10C,0.00590551*%
%ADD11R,0.06X0.06*%
%ADD12C,0.06*%
%ADD13C,0.04*%
%ADD14C,0.035*%
G04 APERTURE END LIST*
G54D10*
G54D11*
X81100Y-69900D03*
G54D12*
X80100Y-69900D03*
X79100Y-69900D03*
G54D11*
X70000Y-60984D03*
G54D12*
X71000Y-60984D03*
X70000Y-61984D03*
X71000Y-61984D03*
X70000Y-62984D03*
X71000Y-62984D03*
X70000Y-63984D03*
X71000Y-63984D03*
X70000Y-64984D03*
X71000Y-64984D03*
X70000Y-65984D03*
X71000Y-65984D03*
X70000Y-66984D03*
X71000Y-66984D03*
X70000Y-67984D03*
X71000Y-67984D03*
X70000Y-68984D03*
X71000Y-68984D03*
X70000Y-69984D03*
X71000Y-69984D03*
G54D11*
X86650Y-60984D03*
G54D12*
X87650Y-60984D03*
X86650Y-61984D03*
X87650Y-61984D03*
X86650Y-62984D03*
X87650Y-62984D03*
X86650Y-63984D03*
X87650Y-63984D03*
X86650Y-64984D03*
X87650Y-64984D03*
X86650Y-65984D03*
X87650Y-65984D03*
X86650Y-66984D03*
X87650Y-66984D03*
X86650Y-67984D03*
X87650Y-67984D03*
X86650Y-68984D03*
X87650Y-68984D03*
X86650Y-69984D03*
X87650Y-69984D03*
G54D11*
X85550Y-62400D03*
X75050Y-61800D03*
G54D12*
X75050Y-60800D03*
X76050Y-61800D03*
X76050Y-60800D03*
X77050Y-61800D03*
X77050Y-60800D03*
X78050Y-61800D03*
X78050Y-60800D03*
X79050Y-61800D03*
X79050Y-60800D03*
G54D11*
X72300Y-63100D03*
G54D13*
X83050Y-68450D03*
X84750Y-68450D03*
G54D14*
X73076Y-69191D03*
X76225Y-69191D03*
M02*
