G04 (created by PCBNEW (2013-jul-07)-stable) date Пт 28 фев 2014 10:34:58*
%MOIN*%
G04 Gerber Fmt 3.4, Leading zero omitted, Abs format*
%FSLAX34Y34*%
G01*
G70*
G90*
G04 APERTURE LIST*
%ADD10C,0.00590551*%
%ADD11C,0.005*%
%ADD12C,0.0039*%
%ADD13C,0.012*%
%ADD14C,0.0026*%
%ADD15C,0.008*%
%ADD16C,0.0001*%
%ADD17C,0.01*%
%ADD18C,0.006*%
%ADD19C,0.004*%
%ADD20C,0.002*%
%ADD21C,0.0043*%
%ADD22C,0.0035*%
G04 APERTURE END LIST*
G54D10*
G54D11*
X95061Y-26313D02*
X95080Y-26294D01*
X95137Y-26275D01*
X95175Y-26275D01*
X95232Y-26294D01*
X95270Y-26332D01*
X95289Y-26370D01*
X95308Y-26447D01*
X95308Y-26504D01*
X95289Y-26580D01*
X95270Y-26618D01*
X95232Y-26656D01*
X95175Y-26675D01*
X95137Y-26675D01*
X95080Y-26656D01*
X95061Y-26637D01*
X94908Y-26389D02*
X94718Y-26389D01*
X94947Y-26275D02*
X94813Y-26675D01*
X94680Y-26275D01*
X94547Y-26275D02*
X94547Y-26675D01*
X94413Y-26389D01*
X94280Y-26675D01*
X94280Y-26275D01*
X94089Y-26427D02*
X93785Y-26427D01*
X97311Y-26563D02*
X97330Y-26544D01*
X97387Y-26525D01*
X97425Y-26525D01*
X97482Y-26544D01*
X97520Y-26582D01*
X97539Y-26620D01*
X97558Y-26697D01*
X97558Y-26754D01*
X97539Y-26830D01*
X97520Y-26868D01*
X97482Y-26906D01*
X97425Y-26925D01*
X97387Y-26925D01*
X97330Y-26906D01*
X97311Y-26887D01*
X96911Y-26525D02*
X97044Y-26716D01*
X97139Y-26525D02*
X97139Y-26925D01*
X96987Y-26925D01*
X96949Y-26906D01*
X96930Y-26887D01*
X96911Y-26849D01*
X96911Y-26792D01*
X96930Y-26754D01*
X96949Y-26735D01*
X96987Y-26716D01*
X97139Y-26716D01*
X96739Y-26525D02*
X96739Y-26925D01*
X96511Y-26525D02*
X96682Y-26754D01*
X96511Y-26925D02*
X96739Y-26697D01*
X96339Y-26677D02*
X96035Y-26677D01*
X96187Y-26525D02*
X96187Y-26830D01*
G54D12*
X96087Y-22987D02*
G75*
G03X96087Y-22987I-50J0D01*
G74*
G01*
X96487Y-22987D02*
X96087Y-22987D01*
X96087Y-22987D02*
X96087Y-22387D01*
X96087Y-22387D02*
X96487Y-22387D01*
X96887Y-22387D02*
X97287Y-22387D01*
X97287Y-22387D02*
X97287Y-22987D01*
X97287Y-22987D02*
X96887Y-22987D01*
X93887Y-25387D02*
G75*
G03X93887Y-25387I-50J0D01*
G74*
G01*
X94287Y-25387D02*
X93887Y-25387D01*
X93887Y-25387D02*
X93887Y-24787D01*
X93887Y-24787D02*
X94287Y-24787D01*
X94687Y-24787D02*
X95087Y-24787D01*
X95087Y-24787D02*
X95087Y-25387D01*
X95087Y-25387D02*
X94687Y-25387D01*
X93837Y-22737D02*
G75*
G03X93837Y-22737I-50J0D01*
G74*
G01*
X93787Y-22287D02*
X93787Y-22687D01*
X93787Y-22687D02*
X93187Y-22687D01*
X93187Y-22687D02*
X93187Y-22287D01*
X93187Y-21887D02*
X93187Y-21487D01*
X93187Y-21487D02*
X93787Y-21487D01*
X93787Y-21487D02*
X93787Y-21887D01*
X91337Y-23887D02*
G75*
G03X91337Y-23887I-50J0D01*
G74*
G01*
X90837Y-23887D02*
X91237Y-23887D01*
X91237Y-23887D02*
X91237Y-24487D01*
X91237Y-24487D02*
X90837Y-24487D01*
X90437Y-24487D02*
X90037Y-24487D01*
X90037Y-24487D02*
X90037Y-23887D01*
X90037Y-23887D02*
X90437Y-23887D01*
X91337Y-24537D02*
G75*
G03X91337Y-24537I-50J0D01*
G74*
G01*
X90837Y-24537D02*
X91237Y-24537D01*
X91237Y-24537D02*
X91237Y-25137D01*
X91237Y-25137D02*
X90837Y-25137D01*
X90437Y-25137D02*
X90037Y-25137D01*
X90037Y-25137D02*
X90037Y-24537D01*
X90037Y-24537D02*
X90437Y-24537D01*
X89587Y-23812D02*
G75*
G03X89587Y-23812I-50J0D01*
G74*
G01*
X89087Y-23812D02*
X89487Y-23812D01*
X89487Y-23812D02*
X89487Y-24412D01*
X89487Y-24412D02*
X89087Y-24412D01*
X88687Y-24412D02*
X88287Y-24412D01*
X88287Y-24412D02*
X88287Y-23812D01*
X88287Y-23812D02*
X88687Y-23812D01*
X88212Y-23812D02*
G75*
G03X88212Y-23812I-50J0D01*
G74*
G01*
X87712Y-23812D02*
X88112Y-23812D01*
X88112Y-23812D02*
X88112Y-24412D01*
X88112Y-24412D02*
X87712Y-24412D01*
X87312Y-24412D02*
X86912Y-24412D01*
X86912Y-24412D02*
X86912Y-23812D01*
X86912Y-23812D02*
X87312Y-23812D01*
G54D13*
X91587Y-23637D02*
X86587Y-23637D01*
X86587Y-23637D02*
X86587Y-21637D01*
X86587Y-21637D02*
X91587Y-21637D01*
X91587Y-21637D02*
X91587Y-23637D01*
G54D12*
X98137Y-27137D02*
G75*
G03X98137Y-27137I-50J0D01*
G74*
G01*
X98087Y-26687D02*
X98087Y-27087D01*
X98087Y-27087D02*
X97487Y-27087D01*
X97487Y-27087D02*
X97487Y-26687D01*
X97487Y-26287D02*
X97487Y-25887D01*
X97487Y-25887D02*
X98087Y-25887D01*
X98087Y-25887D02*
X98087Y-26287D01*
X97087Y-26587D02*
G75*
G03X97087Y-26587I-50J0D01*
G74*
G01*
X97037Y-26137D02*
X97037Y-26537D01*
X97037Y-26537D02*
X96437Y-26537D01*
X96437Y-26537D02*
X96437Y-26137D01*
X96437Y-25737D02*
X96437Y-25337D01*
X96437Y-25337D02*
X97037Y-25337D01*
X97037Y-25337D02*
X97037Y-25737D01*
X94537Y-26162D02*
G75*
G03X94537Y-26162I-50J0D01*
G74*
G01*
X94937Y-26162D02*
X94537Y-26162D01*
X94537Y-26162D02*
X94537Y-25562D01*
X94537Y-25562D02*
X94937Y-25562D01*
X95337Y-25562D02*
X95737Y-25562D01*
X95737Y-25562D02*
X95737Y-26162D01*
X95737Y-26162D02*
X95337Y-26162D01*
X92387Y-22887D02*
G75*
G03X92387Y-22887I-50J0D01*
G74*
G01*
X92337Y-22437D02*
X92337Y-22837D01*
X92337Y-22837D02*
X91737Y-22837D01*
X91737Y-22837D02*
X91737Y-22437D01*
X91737Y-22037D02*
X91737Y-21637D01*
X91737Y-21637D02*
X92337Y-21637D01*
X92337Y-21637D02*
X92337Y-22037D01*
X93137Y-27037D02*
G75*
G03X93137Y-27037I-50J0D01*
G74*
G01*
X93087Y-26587D02*
X93087Y-26987D01*
X93087Y-26987D02*
X92487Y-26987D01*
X92487Y-26987D02*
X92487Y-26587D01*
X92487Y-26187D02*
X92487Y-25787D01*
X92487Y-25787D02*
X93087Y-25787D01*
X93087Y-25787D02*
X93087Y-26187D01*
X98137Y-25787D02*
G75*
G03X98137Y-25787I-50J0D01*
G74*
G01*
X98087Y-25337D02*
X98087Y-25737D01*
X98087Y-25737D02*
X97487Y-25737D01*
X97487Y-25737D02*
X97487Y-25337D01*
X97487Y-24937D02*
X97487Y-24537D01*
X97487Y-24537D02*
X98087Y-24537D01*
X98087Y-24537D02*
X98087Y-24937D01*
X97087Y-25187D02*
G75*
G03X97087Y-25187I-50J0D01*
G74*
G01*
X97037Y-24737D02*
X97037Y-25137D01*
X97037Y-25137D02*
X96437Y-25137D01*
X96437Y-25137D02*
X96437Y-24737D01*
X96437Y-24337D02*
X96437Y-23937D01*
X96437Y-23937D02*
X97037Y-23937D01*
X97037Y-23937D02*
X97037Y-24337D01*
X96087Y-25462D02*
G75*
G03X96087Y-25462I-50J0D01*
G74*
G01*
X96037Y-25012D02*
X96037Y-25412D01*
X96037Y-25412D02*
X95437Y-25412D01*
X95437Y-25412D02*
X95437Y-25012D01*
X95437Y-24612D02*
X95437Y-24212D01*
X95437Y-24212D02*
X96037Y-24212D01*
X96037Y-24212D02*
X96037Y-24612D01*
X93837Y-26237D02*
G75*
G03X93837Y-26237I-50J0D01*
G74*
G01*
X93787Y-25787D02*
X93787Y-26187D01*
X93787Y-26187D02*
X93187Y-26187D01*
X93187Y-26187D02*
X93187Y-25787D01*
X93187Y-25387D02*
X93187Y-24987D01*
X93187Y-24987D02*
X93787Y-24987D01*
X93787Y-24987D02*
X93787Y-25387D01*
X97387Y-23137D02*
G75*
G03X97387Y-23137I-50J0D01*
G74*
G01*
X96887Y-23137D02*
X97287Y-23137D01*
X97287Y-23137D02*
X97287Y-23737D01*
X97287Y-23737D02*
X96887Y-23737D01*
X96487Y-23737D02*
X96087Y-23737D01*
X96087Y-23737D02*
X96087Y-23137D01*
X96087Y-23137D02*
X96487Y-23137D01*
X93887Y-24687D02*
G75*
G03X93887Y-24687I-50J0D01*
G74*
G01*
X94287Y-24687D02*
X93887Y-24687D01*
X93887Y-24687D02*
X93887Y-24087D01*
X93887Y-24087D02*
X94287Y-24087D01*
X94687Y-24087D02*
X95087Y-24087D01*
X95087Y-24087D02*
X95087Y-24687D01*
X95087Y-24687D02*
X94687Y-24687D01*
X91400Y-21525D02*
G75*
G03X91400Y-21525I-50J0D01*
G74*
G01*
X91350Y-21075D02*
X91350Y-21475D01*
X91350Y-21475D02*
X90750Y-21475D01*
X90750Y-21475D02*
X90750Y-21075D01*
X90750Y-20675D02*
X90750Y-20275D01*
X90750Y-20275D02*
X91350Y-20275D01*
X91350Y-20275D02*
X91350Y-20675D01*
X92537Y-21587D02*
G75*
G03X92537Y-21587I-50J0D01*
G74*
G01*
X92487Y-22037D02*
X92487Y-21637D01*
X92487Y-21637D02*
X93087Y-21637D01*
X93087Y-21637D02*
X93087Y-22037D01*
X93087Y-22437D02*
X93087Y-22837D01*
X93087Y-22837D02*
X92487Y-22837D01*
X92487Y-22837D02*
X92487Y-22437D01*
X90687Y-26487D02*
G75*
G03X90687Y-26487I-50J0D01*
G74*
G01*
X90637Y-26037D02*
X90637Y-26437D01*
X90637Y-26437D02*
X90037Y-26437D01*
X90037Y-26437D02*
X90037Y-26037D01*
X90037Y-25637D02*
X90037Y-25237D01*
X90037Y-25237D02*
X90637Y-25237D01*
X90637Y-25237D02*
X90637Y-25637D01*
X89037Y-27362D02*
G75*
G03X89037Y-27362I-50J0D01*
G74*
G01*
X89437Y-27362D02*
X89037Y-27362D01*
X89037Y-27362D02*
X89037Y-26762D01*
X89037Y-26762D02*
X89437Y-26762D01*
X89837Y-26762D02*
X90237Y-26762D01*
X90237Y-26762D02*
X90237Y-27362D01*
X90237Y-27362D02*
X89837Y-27362D01*
X89587Y-24537D02*
G75*
G03X89587Y-24537I-50J0D01*
G74*
G01*
X89087Y-24537D02*
X89487Y-24537D01*
X89487Y-24537D02*
X89487Y-25137D01*
X89487Y-25137D02*
X89087Y-25137D01*
X88687Y-25137D02*
X88287Y-25137D01*
X88287Y-25137D02*
X88287Y-24537D01*
X88287Y-24537D02*
X88687Y-24537D01*
X86912Y-25137D02*
G75*
G03X86912Y-25137I-50J0D01*
G74*
G01*
X87312Y-25137D02*
X86912Y-25137D01*
X86912Y-25137D02*
X86912Y-24537D01*
X86912Y-24537D02*
X87312Y-24537D01*
X87712Y-24537D02*
X88112Y-24537D01*
X88112Y-24537D02*
X88112Y-25137D01*
X88112Y-25137D02*
X87712Y-25137D01*
G54D14*
X95821Y-21117D02*
X95702Y-21117D01*
X95702Y-21117D02*
X95702Y-21629D01*
X95821Y-21629D02*
X95702Y-21629D01*
X95821Y-21117D02*
X95821Y-21629D01*
X95571Y-21117D02*
X95452Y-21117D01*
X95452Y-21117D02*
X95452Y-21629D01*
X95571Y-21629D02*
X95452Y-21629D01*
X95571Y-21117D02*
X95571Y-21629D01*
X95321Y-21117D02*
X95202Y-21117D01*
X95202Y-21117D02*
X95202Y-21629D01*
X95321Y-21629D02*
X95202Y-21629D01*
X95321Y-21117D02*
X95321Y-21629D01*
X95071Y-21117D02*
X94952Y-21117D01*
X94952Y-21117D02*
X94952Y-21629D01*
X95071Y-21629D02*
X94952Y-21629D01*
X95071Y-21117D02*
X95071Y-21629D01*
X94822Y-21117D02*
X94703Y-21117D01*
X94703Y-21117D02*
X94703Y-21629D01*
X94822Y-21629D02*
X94703Y-21629D01*
X94822Y-21117D02*
X94822Y-21629D01*
X94572Y-21117D02*
X94453Y-21117D01*
X94453Y-21117D02*
X94453Y-21629D01*
X94572Y-21629D02*
X94453Y-21629D01*
X94572Y-21117D02*
X94572Y-21629D01*
X94322Y-21117D02*
X94203Y-21117D01*
X94203Y-21117D02*
X94203Y-21629D01*
X94322Y-21629D02*
X94203Y-21629D01*
X94322Y-21117D02*
X94322Y-21629D01*
X94072Y-21117D02*
X93953Y-21117D01*
X93953Y-21117D02*
X93953Y-21629D01*
X94072Y-21629D02*
X93953Y-21629D01*
X94072Y-21117D02*
X94072Y-21629D01*
X94072Y-23045D02*
X93953Y-23045D01*
X93953Y-23045D02*
X93953Y-23557D01*
X94072Y-23557D02*
X93953Y-23557D01*
X94072Y-23045D02*
X94072Y-23557D01*
X94322Y-23045D02*
X94203Y-23045D01*
X94203Y-23045D02*
X94203Y-23557D01*
X94322Y-23557D02*
X94203Y-23557D01*
X94322Y-23045D02*
X94322Y-23557D01*
X94572Y-23045D02*
X94453Y-23045D01*
X94453Y-23045D02*
X94453Y-23557D01*
X94572Y-23557D02*
X94453Y-23557D01*
X94572Y-23045D02*
X94572Y-23557D01*
X94822Y-23045D02*
X94703Y-23045D01*
X94703Y-23045D02*
X94703Y-23557D01*
X94822Y-23557D02*
X94703Y-23557D01*
X94822Y-23045D02*
X94822Y-23557D01*
X95071Y-23045D02*
X94952Y-23045D01*
X94952Y-23045D02*
X94952Y-23557D01*
X95071Y-23557D02*
X94952Y-23557D01*
X95071Y-23045D02*
X95071Y-23557D01*
X95321Y-23045D02*
X95202Y-23045D01*
X95202Y-23045D02*
X95202Y-23557D01*
X95321Y-23557D02*
X95202Y-23557D01*
X95321Y-23045D02*
X95321Y-23557D01*
X95571Y-23045D02*
X95452Y-23045D01*
X95452Y-23045D02*
X95452Y-23557D01*
X95571Y-23557D02*
X95452Y-23557D01*
X95571Y-23045D02*
X95571Y-23557D01*
X95821Y-23045D02*
X95702Y-23045D01*
X95702Y-23045D02*
X95702Y-23557D01*
X95821Y-23557D02*
X95702Y-23557D01*
X95821Y-23045D02*
X95821Y-23557D01*
G54D15*
X95859Y-21609D02*
X95859Y-23065D01*
X93915Y-23065D02*
X93915Y-21609D01*
X95859Y-21609D02*
X93915Y-21609D01*
X93915Y-23065D02*
X95859Y-23065D01*
G54D16*
X95619Y-21924D02*
G75*
G03X95619Y-21924I-83J0D01*
G74*
G01*
G54D11*
X88283Y-25249D02*
X88283Y-25499D01*
X88283Y-25499D02*
X87783Y-25499D01*
X87783Y-25499D02*
X87783Y-25249D01*
X89333Y-25249D02*
X89333Y-26349D01*
X89333Y-26349D02*
X86683Y-26349D01*
X86683Y-26349D02*
X86683Y-25249D01*
X86683Y-25249D02*
X89333Y-25249D01*
G54D17*
X97287Y-27687D02*
X93287Y-27687D01*
X97287Y-26687D02*
X93287Y-26687D01*
X93287Y-26687D02*
X93287Y-27687D01*
X97287Y-27687D02*
X97287Y-26687D01*
G54D12*
X91437Y-23937D02*
G75*
G03X91437Y-23937I-50J0D01*
G74*
G01*
X91387Y-24387D02*
X91387Y-23987D01*
X91387Y-23987D02*
X91987Y-23987D01*
X91987Y-23987D02*
X91987Y-24387D01*
X91987Y-24787D02*
X91987Y-25187D01*
X91987Y-25187D02*
X91387Y-25187D01*
X91387Y-25187D02*
X91387Y-24787D01*
X93137Y-22937D02*
G75*
G03X93137Y-22937I-50J0D01*
G74*
G01*
X92637Y-22937D02*
X93037Y-22937D01*
X93037Y-22937D02*
X93037Y-23537D01*
X93037Y-23537D02*
X92637Y-23537D01*
X92237Y-23537D02*
X91837Y-23537D01*
X91837Y-23537D02*
X91837Y-22937D01*
X91837Y-22937D02*
X92237Y-22937D01*
G54D18*
X86787Y-27737D02*
X86787Y-26737D01*
X86787Y-26737D02*
X88787Y-26737D01*
X88787Y-26737D02*
X88787Y-27737D01*
X88787Y-27737D02*
X86787Y-27737D01*
G54D14*
X92155Y-20691D02*
X92283Y-20691D01*
X92283Y-20691D02*
X92283Y-20494D01*
X92155Y-20494D02*
X92283Y-20494D01*
X92155Y-20691D02*
X92155Y-20494D01*
X91910Y-20691D02*
X91969Y-20691D01*
X91969Y-20691D02*
X91969Y-20592D01*
X91910Y-20592D02*
X91969Y-20592D01*
X91910Y-20691D02*
X91910Y-20592D01*
X92105Y-20691D02*
X92164Y-20691D01*
X92164Y-20691D02*
X92164Y-20592D01*
X92105Y-20592D02*
X92164Y-20592D01*
X92105Y-20691D02*
X92105Y-20592D01*
X91959Y-20691D02*
X92115Y-20691D01*
X92115Y-20691D02*
X92115Y-20622D01*
X91959Y-20622D02*
X92115Y-20622D01*
X91959Y-20691D02*
X91959Y-20622D01*
X92155Y-21280D02*
X92283Y-21280D01*
X92283Y-21280D02*
X92283Y-21083D01*
X92155Y-21083D02*
X92283Y-21083D01*
X92155Y-21280D02*
X92155Y-21083D01*
X91791Y-21280D02*
X91919Y-21280D01*
X91919Y-21280D02*
X91919Y-21083D01*
X91791Y-21083D02*
X91919Y-21083D01*
X91791Y-21280D02*
X91791Y-21083D01*
X92105Y-21182D02*
X92164Y-21182D01*
X92164Y-21182D02*
X92164Y-21083D01*
X92105Y-21083D02*
X92164Y-21083D01*
X92105Y-21182D02*
X92105Y-21083D01*
X91910Y-21182D02*
X91969Y-21182D01*
X91969Y-21182D02*
X91969Y-21083D01*
X91910Y-21083D02*
X91969Y-21083D01*
X91910Y-21182D02*
X91910Y-21083D01*
X91959Y-21152D02*
X92115Y-21152D01*
X92115Y-21152D02*
X92115Y-21083D01*
X91959Y-21083D02*
X92115Y-21083D01*
X91959Y-21152D02*
X91959Y-21083D01*
X91998Y-20887D02*
X92076Y-20887D01*
X92076Y-20887D02*
X92076Y-20809D01*
X91998Y-20809D02*
X92076Y-20809D01*
X91998Y-20887D02*
X91998Y-20809D01*
X91801Y-20691D02*
X91919Y-20691D01*
X91919Y-20691D02*
X91919Y-20573D01*
X91801Y-20573D02*
X91919Y-20573D01*
X91801Y-20691D02*
X91801Y-20573D01*
X91791Y-20523D02*
X91880Y-20523D01*
X91880Y-20523D02*
X91880Y-20494D01*
X91791Y-20494D02*
X91880Y-20494D01*
X91791Y-20523D02*
X91791Y-20494D01*
G54D19*
X92263Y-20681D02*
X92263Y-21093D01*
X91811Y-21083D02*
X91811Y-20523D01*
G54D20*
X91888Y-20553D02*
G75*
G03X91888Y-20553I-28J0D01*
G74*
G01*
G54D19*
X91900Y-20494D02*
G75*
G03X92174Y-20494I137J0D01*
G74*
G01*
X92174Y-21280D02*
G75*
G03X91900Y-21280I-137J0D01*
G74*
G01*
G54D14*
X92505Y-24041D02*
X92633Y-24041D01*
X92633Y-24041D02*
X92633Y-23844D01*
X92505Y-23844D02*
X92633Y-23844D01*
X92505Y-24041D02*
X92505Y-23844D01*
X92260Y-24041D02*
X92319Y-24041D01*
X92319Y-24041D02*
X92319Y-23942D01*
X92260Y-23942D02*
X92319Y-23942D01*
X92260Y-24041D02*
X92260Y-23942D01*
X92455Y-24041D02*
X92514Y-24041D01*
X92514Y-24041D02*
X92514Y-23942D01*
X92455Y-23942D02*
X92514Y-23942D01*
X92455Y-24041D02*
X92455Y-23942D01*
X92309Y-24041D02*
X92465Y-24041D01*
X92465Y-24041D02*
X92465Y-23972D01*
X92309Y-23972D02*
X92465Y-23972D01*
X92309Y-24041D02*
X92309Y-23972D01*
X92505Y-24630D02*
X92633Y-24630D01*
X92633Y-24630D02*
X92633Y-24433D01*
X92505Y-24433D02*
X92633Y-24433D01*
X92505Y-24630D02*
X92505Y-24433D01*
X92141Y-24630D02*
X92269Y-24630D01*
X92269Y-24630D02*
X92269Y-24433D01*
X92141Y-24433D02*
X92269Y-24433D01*
X92141Y-24630D02*
X92141Y-24433D01*
X92455Y-24532D02*
X92514Y-24532D01*
X92514Y-24532D02*
X92514Y-24433D01*
X92455Y-24433D02*
X92514Y-24433D01*
X92455Y-24532D02*
X92455Y-24433D01*
X92260Y-24532D02*
X92319Y-24532D01*
X92319Y-24532D02*
X92319Y-24433D01*
X92260Y-24433D02*
X92319Y-24433D01*
X92260Y-24532D02*
X92260Y-24433D01*
X92309Y-24502D02*
X92465Y-24502D01*
X92465Y-24502D02*
X92465Y-24433D01*
X92309Y-24433D02*
X92465Y-24433D01*
X92309Y-24502D02*
X92309Y-24433D01*
X92348Y-24237D02*
X92426Y-24237D01*
X92426Y-24237D02*
X92426Y-24159D01*
X92348Y-24159D02*
X92426Y-24159D01*
X92348Y-24237D02*
X92348Y-24159D01*
X92151Y-24041D02*
X92269Y-24041D01*
X92269Y-24041D02*
X92269Y-23923D01*
X92151Y-23923D02*
X92269Y-23923D01*
X92151Y-24041D02*
X92151Y-23923D01*
X92141Y-23873D02*
X92230Y-23873D01*
X92230Y-23873D02*
X92230Y-23844D01*
X92141Y-23844D02*
X92230Y-23844D01*
X92141Y-23873D02*
X92141Y-23844D01*
G54D19*
X92613Y-24031D02*
X92613Y-24443D01*
X92161Y-24433D02*
X92161Y-23873D01*
G54D20*
X92238Y-23903D02*
G75*
G03X92238Y-23903I-28J0D01*
G74*
G01*
G54D19*
X92250Y-23844D02*
G75*
G03X92524Y-23844I137J0D01*
G74*
G01*
X92524Y-24630D02*
G75*
G03X92250Y-24630I-137J0D01*
G74*
G01*
G54D21*
X96748Y-22782D02*
X96757Y-22792D01*
X96767Y-22820D01*
X96767Y-22839D01*
X96757Y-22867D01*
X96739Y-22886D01*
X96720Y-22895D01*
X96682Y-22904D01*
X96654Y-22904D01*
X96617Y-22895D01*
X96598Y-22886D01*
X96579Y-22867D01*
X96570Y-22839D01*
X96570Y-22820D01*
X96579Y-22792D01*
X96589Y-22782D01*
X96767Y-22595D02*
X96767Y-22707D01*
X96767Y-22651D02*
X96570Y-22651D01*
X96598Y-22670D01*
X96617Y-22689D01*
X96626Y-22707D01*
X96570Y-22473D02*
X96570Y-22454D01*
X96579Y-22435D01*
X96589Y-22426D01*
X96607Y-22417D01*
X96645Y-22407D01*
X96692Y-22407D01*
X96729Y-22417D01*
X96748Y-22426D01*
X96757Y-22435D01*
X96767Y-22454D01*
X96767Y-22473D01*
X96757Y-22492D01*
X96748Y-22501D01*
X96729Y-22510D01*
X96692Y-22520D01*
X96645Y-22520D01*
X96607Y-22510D01*
X96589Y-22501D01*
X96579Y-22492D01*
X96570Y-22473D01*
X96767Y-22220D02*
X96767Y-22332D01*
X96767Y-22276D02*
X96570Y-22276D01*
X96598Y-22295D01*
X96617Y-22313D01*
X96626Y-22332D01*
X94548Y-25182D02*
X94557Y-25192D01*
X94567Y-25220D01*
X94567Y-25239D01*
X94557Y-25267D01*
X94539Y-25286D01*
X94520Y-25295D01*
X94482Y-25304D01*
X94454Y-25304D01*
X94417Y-25295D01*
X94398Y-25286D01*
X94379Y-25267D01*
X94370Y-25239D01*
X94370Y-25220D01*
X94379Y-25192D01*
X94389Y-25182D01*
X94567Y-24995D02*
X94567Y-25107D01*
X94567Y-25051D02*
X94370Y-25051D01*
X94398Y-25070D01*
X94417Y-25089D01*
X94426Y-25107D01*
X94370Y-24873D02*
X94370Y-24854D01*
X94379Y-24835D01*
X94389Y-24826D01*
X94407Y-24817D01*
X94445Y-24807D01*
X94492Y-24807D01*
X94529Y-24817D01*
X94548Y-24826D01*
X94557Y-24835D01*
X94567Y-24854D01*
X94567Y-24873D01*
X94557Y-24892D01*
X94548Y-24901D01*
X94529Y-24910D01*
X94492Y-24920D01*
X94445Y-24920D01*
X94407Y-24910D01*
X94389Y-24901D01*
X94379Y-24892D01*
X94370Y-24873D01*
X94389Y-24732D02*
X94379Y-24723D01*
X94370Y-24704D01*
X94370Y-24657D01*
X94379Y-24638D01*
X94389Y-24629D01*
X94407Y-24620D01*
X94426Y-24620D01*
X94454Y-24629D01*
X94567Y-24742D01*
X94567Y-24620D01*
X93142Y-22148D02*
X93132Y-22157D01*
X93104Y-22167D01*
X93085Y-22167D01*
X93057Y-22157D01*
X93038Y-22139D01*
X93029Y-22120D01*
X93020Y-22082D01*
X93020Y-22054D01*
X93029Y-22017D01*
X93038Y-21998D01*
X93057Y-21979D01*
X93085Y-21970D01*
X93104Y-21970D01*
X93132Y-21979D01*
X93142Y-21989D01*
X93329Y-22167D02*
X93217Y-22167D01*
X93273Y-22167D02*
X93273Y-21970D01*
X93254Y-21998D01*
X93235Y-22017D01*
X93217Y-22026D01*
X93451Y-21970D02*
X93470Y-21970D01*
X93489Y-21979D01*
X93498Y-21989D01*
X93507Y-22007D01*
X93517Y-22045D01*
X93517Y-22092D01*
X93507Y-22129D01*
X93498Y-22148D01*
X93489Y-22157D01*
X93470Y-22167D01*
X93451Y-22167D01*
X93432Y-22157D01*
X93423Y-22148D01*
X93414Y-22129D01*
X93404Y-22092D01*
X93404Y-22045D01*
X93414Y-22007D01*
X93423Y-21989D01*
X93432Y-21979D01*
X93451Y-21970D01*
X93686Y-22035D02*
X93686Y-22167D01*
X93639Y-21960D02*
X93592Y-22101D01*
X93714Y-22101D01*
X90698Y-24532D02*
X90707Y-24542D01*
X90717Y-24570D01*
X90717Y-24589D01*
X90707Y-24617D01*
X90689Y-24636D01*
X90670Y-24645D01*
X90632Y-24654D01*
X90604Y-24654D01*
X90567Y-24645D01*
X90548Y-24636D01*
X90529Y-24617D01*
X90520Y-24589D01*
X90520Y-24570D01*
X90529Y-24542D01*
X90539Y-24532D01*
X90717Y-24345D02*
X90717Y-24457D01*
X90717Y-24401D02*
X90520Y-24401D01*
X90548Y-24420D01*
X90567Y-24439D01*
X90576Y-24457D01*
X90520Y-24223D02*
X90520Y-24204D01*
X90529Y-24185D01*
X90539Y-24176D01*
X90557Y-24167D01*
X90595Y-24157D01*
X90642Y-24157D01*
X90679Y-24167D01*
X90698Y-24176D01*
X90707Y-24185D01*
X90717Y-24204D01*
X90717Y-24223D01*
X90707Y-24242D01*
X90698Y-24251D01*
X90679Y-24260D01*
X90642Y-24270D01*
X90595Y-24270D01*
X90557Y-24260D01*
X90539Y-24251D01*
X90529Y-24242D01*
X90520Y-24223D01*
X90520Y-23979D02*
X90520Y-24073D01*
X90614Y-24082D01*
X90604Y-24073D01*
X90595Y-24054D01*
X90595Y-24007D01*
X90604Y-23988D01*
X90614Y-23979D01*
X90632Y-23970D01*
X90679Y-23970D01*
X90698Y-23979D01*
X90707Y-23988D01*
X90717Y-24007D01*
X90717Y-24054D01*
X90707Y-24073D01*
X90698Y-24082D01*
X90698Y-25182D02*
X90707Y-25192D01*
X90717Y-25220D01*
X90717Y-25239D01*
X90707Y-25267D01*
X90689Y-25286D01*
X90670Y-25295D01*
X90632Y-25304D01*
X90604Y-25304D01*
X90567Y-25295D01*
X90548Y-25286D01*
X90529Y-25267D01*
X90520Y-25239D01*
X90520Y-25220D01*
X90529Y-25192D01*
X90539Y-25182D01*
X90717Y-24995D02*
X90717Y-25107D01*
X90717Y-25051D02*
X90520Y-25051D01*
X90548Y-25070D01*
X90567Y-25089D01*
X90576Y-25107D01*
X90520Y-24873D02*
X90520Y-24854D01*
X90529Y-24835D01*
X90539Y-24826D01*
X90557Y-24817D01*
X90595Y-24807D01*
X90642Y-24807D01*
X90679Y-24817D01*
X90698Y-24826D01*
X90707Y-24835D01*
X90717Y-24854D01*
X90717Y-24873D01*
X90707Y-24892D01*
X90698Y-24901D01*
X90679Y-24910D01*
X90642Y-24920D01*
X90595Y-24920D01*
X90557Y-24910D01*
X90539Y-24901D01*
X90529Y-24892D01*
X90520Y-24873D01*
X90520Y-24638D02*
X90520Y-24676D01*
X90529Y-24695D01*
X90539Y-24704D01*
X90567Y-24723D01*
X90604Y-24732D01*
X90679Y-24732D01*
X90698Y-24723D01*
X90707Y-24713D01*
X90717Y-24695D01*
X90717Y-24657D01*
X90707Y-24638D01*
X90698Y-24629D01*
X90679Y-24620D01*
X90632Y-24620D01*
X90614Y-24629D01*
X90604Y-24638D01*
X90595Y-24657D01*
X90595Y-24695D01*
X90604Y-24713D01*
X90614Y-24723D01*
X90632Y-24732D01*
X88948Y-24457D02*
X88957Y-24467D01*
X88967Y-24495D01*
X88967Y-24514D01*
X88957Y-24542D01*
X88939Y-24561D01*
X88920Y-24570D01*
X88882Y-24579D01*
X88854Y-24579D01*
X88817Y-24570D01*
X88798Y-24561D01*
X88779Y-24542D01*
X88770Y-24514D01*
X88770Y-24495D01*
X88779Y-24467D01*
X88789Y-24457D01*
X88967Y-24270D02*
X88967Y-24382D01*
X88967Y-24326D02*
X88770Y-24326D01*
X88798Y-24345D01*
X88817Y-24364D01*
X88826Y-24382D01*
X88770Y-24148D02*
X88770Y-24129D01*
X88779Y-24110D01*
X88789Y-24101D01*
X88807Y-24092D01*
X88845Y-24082D01*
X88892Y-24082D01*
X88929Y-24092D01*
X88948Y-24101D01*
X88957Y-24110D01*
X88967Y-24129D01*
X88967Y-24148D01*
X88957Y-24167D01*
X88948Y-24176D01*
X88929Y-24185D01*
X88892Y-24195D01*
X88845Y-24195D01*
X88807Y-24185D01*
X88789Y-24176D01*
X88779Y-24167D01*
X88770Y-24148D01*
X88770Y-24017D02*
X88770Y-23885D01*
X88967Y-23970D01*
X87573Y-24457D02*
X87582Y-24467D01*
X87592Y-24495D01*
X87592Y-24514D01*
X87582Y-24542D01*
X87564Y-24561D01*
X87545Y-24570D01*
X87507Y-24579D01*
X87479Y-24579D01*
X87442Y-24570D01*
X87423Y-24561D01*
X87404Y-24542D01*
X87395Y-24514D01*
X87395Y-24495D01*
X87404Y-24467D01*
X87414Y-24457D01*
X87592Y-24270D02*
X87592Y-24382D01*
X87592Y-24326D02*
X87395Y-24326D01*
X87423Y-24345D01*
X87442Y-24364D01*
X87451Y-24382D01*
X87395Y-24148D02*
X87395Y-24129D01*
X87404Y-24110D01*
X87414Y-24101D01*
X87432Y-24092D01*
X87470Y-24082D01*
X87517Y-24082D01*
X87554Y-24092D01*
X87573Y-24101D01*
X87582Y-24110D01*
X87592Y-24129D01*
X87592Y-24148D01*
X87582Y-24167D01*
X87573Y-24176D01*
X87554Y-24185D01*
X87517Y-24195D01*
X87470Y-24195D01*
X87432Y-24185D01*
X87414Y-24176D01*
X87404Y-24167D01*
X87395Y-24148D01*
X87479Y-23970D02*
X87470Y-23988D01*
X87460Y-23998D01*
X87442Y-24007D01*
X87432Y-24007D01*
X87414Y-23998D01*
X87404Y-23988D01*
X87395Y-23970D01*
X87395Y-23932D01*
X87404Y-23913D01*
X87414Y-23904D01*
X87432Y-23895D01*
X87442Y-23895D01*
X87460Y-23904D01*
X87470Y-23913D01*
X87479Y-23932D01*
X87479Y-23970D01*
X87489Y-23988D01*
X87498Y-23998D01*
X87517Y-24007D01*
X87554Y-24007D01*
X87573Y-23998D01*
X87582Y-23988D01*
X87592Y-23970D01*
X87592Y-23932D01*
X87582Y-23913D01*
X87573Y-23904D01*
X87554Y-23895D01*
X87517Y-23895D01*
X87498Y-23904D01*
X87489Y-23913D01*
X87479Y-23932D01*
G54D15*
X87861Y-21349D02*
X87861Y-20949D01*
X88013Y-20949D01*
X88051Y-20968D01*
X88070Y-20987D01*
X88089Y-21025D01*
X88089Y-21082D01*
X88070Y-21120D01*
X88051Y-21139D01*
X88013Y-21158D01*
X87861Y-21158D01*
X88470Y-21349D02*
X88242Y-21349D01*
X88356Y-21349D02*
X88356Y-20949D01*
X88318Y-21006D01*
X88280Y-21044D01*
X88242Y-21063D01*
X88718Y-20949D02*
X88756Y-20949D01*
X88794Y-20968D01*
X88813Y-20987D01*
X88832Y-21025D01*
X88851Y-21101D01*
X88851Y-21197D01*
X88832Y-21273D01*
X88813Y-21311D01*
X88794Y-21330D01*
X88756Y-21349D01*
X88718Y-21349D01*
X88680Y-21330D01*
X88661Y-21311D01*
X88642Y-21273D01*
X88623Y-21197D01*
X88623Y-21101D01*
X88642Y-21025D01*
X88661Y-20987D01*
X88680Y-20968D01*
X88718Y-20949D01*
X88985Y-20949D02*
X89232Y-20949D01*
X89099Y-21101D01*
X89156Y-21101D01*
X89194Y-21120D01*
X89213Y-21139D01*
X89232Y-21177D01*
X89232Y-21273D01*
X89213Y-21311D01*
X89194Y-21330D01*
X89156Y-21349D01*
X89042Y-21349D01*
X89004Y-21330D01*
X88985Y-21311D01*
G54D21*
X97442Y-26567D02*
X97376Y-26473D01*
X97329Y-26567D02*
X97329Y-26370D01*
X97404Y-26370D01*
X97423Y-26379D01*
X97432Y-26389D01*
X97442Y-26407D01*
X97442Y-26435D01*
X97432Y-26454D01*
X97423Y-26464D01*
X97404Y-26473D01*
X97329Y-26473D01*
X97629Y-26567D02*
X97517Y-26567D01*
X97573Y-26567D02*
X97573Y-26370D01*
X97554Y-26398D01*
X97535Y-26417D01*
X97517Y-26426D01*
X97751Y-26370D02*
X97770Y-26370D01*
X97789Y-26379D01*
X97798Y-26389D01*
X97807Y-26407D01*
X97817Y-26445D01*
X97817Y-26492D01*
X97807Y-26529D01*
X97798Y-26548D01*
X97789Y-26557D01*
X97770Y-26567D01*
X97751Y-26567D01*
X97732Y-26557D01*
X97723Y-26548D01*
X97714Y-26529D01*
X97704Y-26492D01*
X97704Y-26445D01*
X97714Y-26407D01*
X97723Y-26389D01*
X97732Y-26379D01*
X97751Y-26370D01*
X97892Y-26389D02*
X97901Y-26379D01*
X97920Y-26370D01*
X97967Y-26370D01*
X97986Y-26379D01*
X97995Y-26389D01*
X98004Y-26407D01*
X98004Y-26426D01*
X97995Y-26454D01*
X97882Y-26567D01*
X98004Y-26567D01*
X96392Y-26017D02*
X96326Y-25923D01*
X96279Y-26017D02*
X96279Y-25820D01*
X96354Y-25820D01*
X96373Y-25829D01*
X96382Y-25839D01*
X96392Y-25857D01*
X96392Y-25885D01*
X96382Y-25904D01*
X96373Y-25914D01*
X96354Y-25923D01*
X96279Y-25923D01*
X96579Y-26017D02*
X96467Y-26017D01*
X96523Y-26017D02*
X96523Y-25820D01*
X96504Y-25848D01*
X96485Y-25867D01*
X96467Y-25876D01*
X96701Y-25820D02*
X96720Y-25820D01*
X96739Y-25829D01*
X96748Y-25839D01*
X96757Y-25857D01*
X96767Y-25895D01*
X96767Y-25942D01*
X96757Y-25979D01*
X96748Y-25998D01*
X96739Y-26007D01*
X96720Y-26017D01*
X96701Y-26017D01*
X96682Y-26007D01*
X96673Y-25998D01*
X96664Y-25979D01*
X96654Y-25942D01*
X96654Y-25895D01*
X96664Y-25857D01*
X96673Y-25839D01*
X96682Y-25829D01*
X96701Y-25820D01*
X96832Y-25820D02*
X96954Y-25820D01*
X96889Y-25895D01*
X96917Y-25895D01*
X96936Y-25904D01*
X96945Y-25914D01*
X96954Y-25932D01*
X96954Y-25979D01*
X96945Y-25998D01*
X96936Y-26007D01*
X96917Y-26017D01*
X96861Y-26017D01*
X96842Y-26007D01*
X96832Y-25998D01*
X95217Y-25957D02*
X95123Y-26023D01*
X95217Y-26070D02*
X95020Y-26070D01*
X95020Y-25995D01*
X95029Y-25976D01*
X95039Y-25967D01*
X95057Y-25957D01*
X95085Y-25957D01*
X95104Y-25967D01*
X95114Y-25976D01*
X95123Y-25995D01*
X95123Y-26070D01*
X95217Y-25770D02*
X95217Y-25882D01*
X95217Y-25826D02*
X95020Y-25826D01*
X95048Y-25845D01*
X95067Y-25864D01*
X95076Y-25882D01*
X95020Y-25648D02*
X95020Y-25629D01*
X95029Y-25610D01*
X95039Y-25601D01*
X95057Y-25592D01*
X95095Y-25582D01*
X95142Y-25582D01*
X95179Y-25592D01*
X95198Y-25601D01*
X95207Y-25610D01*
X95217Y-25629D01*
X95217Y-25648D01*
X95207Y-25667D01*
X95198Y-25676D01*
X95179Y-25685D01*
X95142Y-25695D01*
X95095Y-25695D01*
X95057Y-25685D01*
X95039Y-25676D01*
X95029Y-25667D01*
X95020Y-25648D01*
X95085Y-25413D02*
X95217Y-25413D01*
X95010Y-25460D02*
X95151Y-25507D01*
X95151Y-25385D01*
X91692Y-22317D02*
X91626Y-22223D01*
X91579Y-22317D02*
X91579Y-22120D01*
X91654Y-22120D01*
X91673Y-22129D01*
X91682Y-22139D01*
X91692Y-22157D01*
X91692Y-22185D01*
X91682Y-22204D01*
X91673Y-22214D01*
X91654Y-22223D01*
X91579Y-22223D01*
X91879Y-22317D02*
X91767Y-22317D01*
X91823Y-22317D02*
X91823Y-22120D01*
X91804Y-22148D01*
X91785Y-22167D01*
X91767Y-22176D01*
X92001Y-22120D02*
X92020Y-22120D01*
X92039Y-22129D01*
X92048Y-22139D01*
X92057Y-22157D01*
X92067Y-22195D01*
X92067Y-22242D01*
X92057Y-22279D01*
X92048Y-22298D01*
X92039Y-22307D01*
X92020Y-22317D01*
X92001Y-22317D01*
X91982Y-22307D01*
X91973Y-22298D01*
X91964Y-22279D01*
X91954Y-22242D01*
X91954Y-22195D01*
X91964Y-22157D01*
X91973Y-22139D01*
X91982Y-22129D01*
X92001Y-22120D01*
X92245Y-22120D02*
X92151Y-22120D01*
X92142Y-22214D01*
X92151Y-22204D01*
X92170Y-22195D01*
X92217Y-22195D01*
X92236Y-22204D01*
X92245Y-22214D01*
X92254Y-22232D01*
X92254Y-22279D01*
X92245Y-22298D01*
X92236Y-22307D01*
X92217Y-22317D01*
X92170Y-22317D01*
X92151Y-22307D01*
X92142Y-22298D01*
X92442Y-26467D02*
X92376Y-26373D01*
X92329Y-26467D02*
X92329Y-26270D01*
X92404Y-26270D01*
X92423Y-26279D01*
X92432Y-26289D01*
X92442Y-26307D01*
X92442Y-26335D01*
X92432Y-26354D01*
X92423Y-26364D01*
X92404Y-26373D01*
X92329Y-26373D01*
X92629Y-26467D02*
X92517Y-26467D01*
X92573Y-26467D02*
X92573Y-26270D01*
X92554Y-26298D01*
X92535Y-26317D01*
X92517Y-26326D01*
X92751Y-26270D02*
X92770Y-26270D01*
X92789Y-26279D01*
X92798Y-26289D01*
X92807Y-26307D01*
X92817Y-26345D01*
X92817Y-26392D01*
X92807Y-26429D01*
X92798Y-26448D01*
X92789Y-26457D01*
X92770Y-26467D01*
X92751Y-26467D01*
X92732Y-26457D01*
X92723Y-26448D01*
X92714Y-26429D01*
X92704Y-26392D01*
X92704Y-26345D01*
X92714Y-26307D01*
X92723Y-26289D01*
X92732Y-26279D01*
X92751Y-26270D01*
X92986Y-26270D02*
X92948Y-26270D01*
X92929Y-26279D01*
X92920Y-26289D01*
X92901Y-26317D01*
X92892Y-26354D01*
X92892Y-26429D01*
X92901Y-26448D01*
X92911Y-26457D01*
X92929Y-26467D01*
X92967Y-26467D01*
X92986Y-26457D01*
X92995Y-26448D01*
X93004Y-26429D01*
X93004Y-26382D01*
X92995Y-26364D01*
X92986Y-26354D01*
X92967Y-26345D01*
X92929Y-26345D01*
X92911Y-26354D01*
X92901Y-26364D01*
X92892Y-26382D01*
X97442Y-25217D02*
X97376Y-25123D01*
X97329Y-25217D02*
X97329Y-25020D01*
X97404Y-25020D01*
X97423Y-25029D01*
X97432Y-25039D01*
X97442Y-25057D01*
X97442Y-25085D01*
X97432Y-25104D01*
X97423Y-25114D01*
X97404Y-25123D01*
X97329Y-25123D01*
X97629Y-25217D02*
X97517Y-25217D01*
X97573Y-25217D02*
X97573Y-25020D01*
X97554Y-25048D01*
X97535Y-25067D01*
X97517Y-25076D01*
X97751Y-25020D02*
X97770Y-25020D01*
X97789Y-25029D01*
X97798Y-25039D01*
X97807Y-25057D01*
X97817Y-25095D01*
X97817Y-25142D01*
X97807Y-25179D01*
X97798Y-25198D01*
X97789Y-25207D01*
X97770Y-25217D01*
X97751Y-25217D01*
X97732Y-25207D01*
X97723Y-25198D01*
X97714Y-25179D01*
X97704Y-25142D01*
X97704Y-25095D01*
X97714Y-25057D01*
X97723Y-25039D01*
X97732Y-25029D01*
X97751Y-25020D01*
X97882Y-25020D02*
X98014Y-25020D01*
X97929Y-25217D01*
X96392Y-24617D02*
X96326Y-24523D01*
X96279Y-24617D02*
X96279Y-24420D01*
X96354Y-24420D01*
X96373Y-24429D01*
X96382Y-24439D01*
X96392Y-24457D01*
X96392Y-24485D01*
X96382Y-24504D01*
X96373Y-24514D01*
X96354Y-24523D01*
X96279Y-24523D01*
X96579Y-24617D02*
X96467Y-24617D01*
X96523Y-24617D02*
X96523Y-24420D01*
X96504Y-24448D01*
X96485Y-24467D01*
X96467Y-24476D01*
X96701Y-24420D02*
X96720Y-24420D01*
X96739Y-24429D01*
X96748Y-24439D01*
X96757Y-24457D01*
X96767Y-24495D01*
X96767Y-24542D01*
X96757Y-24579D01*
X96748Y-24598D01*
X96739Y-24607D01*
X96720Y-24617D01*
X96701Y-24617D01*
X96682Y-24607D01*
X96673Y-24598D01*
X96664Y-24579D01*
X96654Y-24542D01*
X96654Y-24495D01*
X96664Y-24457D01*
X96673Y-24439D01*
X96682Y-24429D01*
X96701Y-24420D01*
X96879Y-24504D02*
X96861Y-24495D01*
X96851Y-24485D01*
X96842Y-24467D01*
X96842Y-24457D01*
X96851Y-24439D01*
X96861Y-24429D01*
X96879Y-24420D01*
X96917Y-24420D01*
X96936Y-24429D01*
X96945Y-24439D01*
X96954Y-24457D01*
X96954Y-24467D01*
X96945Y-24485D01*
X96936Y-24495D01*
X96917Y-24504D01*
X96879Y-24504D01*
X96861Y-24514D01*
X96851Y-24523D01*
X96842Y-24542D01*
X96842Y-24579D01*
X96851Y-24598D01*
X96861Y-24607D01*
X96879Y-24617D01*
X96917Y-24617D01*
X96936Y-24607D01*
X96945Y-24598D01*
X96954Y-24579D01*
X96954Y-24542D01*
X96945Y-24523D01*
X96936Y-24514D01*
X96917Y-24504D01*
X95392Y-24892D02*
X95326Y-24798D01*
X95279Y-24892D02*
X95279Y-24695D01*
X95354Y-24695D01*
X95373Y-24704D01*
X95382Y-24714D01*
X95392Y-24732D01*
X95392Y-24760D01*
X95382Y-24779D01*
X95373Y-24789D01*
X95354Y-24798D01*
X95279Y-24798D01*
X95579Y-24892D02*
X95467Y-24892D01*
X95523Y-24892D02*
X95523Y-24695D01*
X95504Y-24723D01*
X95485Y-24742D01*
X95467Y-24751D01*
X95701Y-24695D02*
X95720Y-24695D01*
X95739Y-24704D01*
X95748Y-24714D01*
X95757Y-24732D01*
X95767Y-24770D01*
X95767Y-24817D01*
X95757Y-24854D01*
X95748Y-24873D01*
X95739Y-24882D01*
X95720Y-24892D01*
X95701Y-24892D01*
X95682Y-24882D01*
X95673Y-24873D01*
X95664Y-24854D01*
X95654Y-24817D01*
X95654Y-24770D01*
X95664Y-24732D01*
X95673Y-24714D01*
X95682Y-24704D01*
X95701Y-24695D01*
X95861Y-24892D02*
X95898Y-24892D01*
X95917Y-24882D01*
X95926Y-24873D01*
X95945Y-24845D01*
X95954Y-24807D01*
X95954Y-24732D01*
X95945Y-24714D01*
X95936Y-24704D01*
X95917Y-24695D01*
X95879Y-24695D01*
X95861Y-24704D01*
X95851Y-24714D01*
X95842Y-24732D01*
X95842Y-24779D01*
X95851Y-24798D01*
X95861Y-24807D01*
X95879Y-24817D01*
X95917Y-24817D01*
X95936Y-24807D01*
X95945Y-24798D01*
X95954Y-24779D01*
X93142Y-25667D02*
X93076Y-25573D01*
X93029Y-25667D02*
X93029Y-25470D01*
X93104Y-25470D01*
X93123Y-25479D01*
X93132Y-25489D01*
X93142Y-25507D01*
X93142Y-25535D01*
X93132Y-25554D01*
X93123Y-25564D01*
X93104Y-25573D01*
X93029Y-25573D01*
X93329Y-25667D02*
X93217Y-25667D01*
X93273Y-25667D02*
X93273Y-25470D01*
X93254Y-25498D01*
X93235Y-25517D01*
X93217Y-25526D01*
X93517Y-25667D02*
X93404Y-25667D01*
X93461Y-25667D02*
X93461Y-25470D01*
X93442Y-25498D01*
X93423Y-25517D01*
X93404Y-25526D01*
X93639Y-25470D02*
X93658Y-25470D01*
X93676Y-25479D01*
X93686Y-25489D01*
X93695Y-25507D01*
X93704Y-25545D01*
X93704Y-25592D01*
X93695Y-25629D01*
X93686Y-25648D01*
X93676Y-25657D01*
X93658Y-25667D01*
X93639Y-25667D01*
X93620Y-25657D01*
X93611Y-25648D01*
X93601Y-25629D01*
X93592Y-25592D01*
X93592Y-25545D01*
X93601Y-25507D01*
X93611Y-25489D01*
X93620Y-25479D01*
X93639Y-25470D01*
X96767Y-23782D02*
X96673Y-23848D01*
X96767Y-23895D02*
X96570Y-23895D01*
X96570Y-23820D01*
X96579Y-23801D01*
X96589Y-23792D01*
X96607Y-23782D01*
X96635Y-23782D01*
X96654Y-23792D01*
X96664Y-23801D01*
X96673Y-23820D01*
X96673Y-23895D01*
X96767Y-23595D02*
X96767Y-23707D01*
X96767Y-23651D02*
X96570Y-23651D01*
X96598Y-23670D01*
X96617Y-23689D01*
X96626Y-23707D01*
X96767Y-23407D02*
X96767Y-23520D01*
X96767Y-23464D02*
X96570Y-23464D01*
X96598Y-23482D01*
X96617Y-23501D01*
X96626Y-23520D01*
X96767Y-23220D02*
X96767Y-23332D01*
X96767Y-23276D02*
X96570Y-23276D01*
X96598Y-23295D01*
X96617Y-23313D01*
X96626Y-23332D01*
X94567Y-24482D02*
X94473Y-24548D01*
X94567Y-24595D02*
X94370Y-24595D01*
X94370Y-24520D01*
X94379Y-24501D01*
X94389Y-24492D01*
X94407Y-24482D01*
X94435Y-24482D01*
X94454Y-24492D01*
X94464Y-24501D01*
X94473Y-24520D01*
X94473Y-24595D01*
X94567Y-24295D02*
X94567Y-24407D01*
X94567Y-24351D02*
X94370Y-24351D01*
X94398Y-24370D01*
X94417Y-24389D01*
X94426Y-24407D01*
X94567Y-24107D02*
X94567Y-24220D01*
X94567Y-24164D02*
X94370Y-24164D01*
X94398Y-24182D01*
X94417Y-24201D01*
X94426Y-24220D01*
X94389Y-24032D02*
X94379Y-24023D01*
X94370Y-24004D01*
X94370Y-23957D01*
X94379Y-23938D01*
X94389Y-23929D01*
X94407Y-23920D01*
X94426Y-23920D01*
X94454Y-23929D01*
X94567Y-24042D01*
X94567Y-23920D01*
X90704Y-20954D02*
X90638Y-20860D01*
X90591Y-20954D02*
X90591Y-20757D01*
X90667Y-20757D01*
X90685Y-20767D01*
X90695Y-20776D01*
X90704Y-20795D01*
X90704Y-20823D01*
X90695Y-20842D01*
X90685Y-20851D01*
X90667Y-20860D01*
X90591Y-20860D01*
X90892Y-20954D02*
X90779Y-20954D01*
X90835Y-20954D02*
X90835Y-20757D01*
X90817Y-20785D01*
X90798Y-20804D01*
X90779Y-20814D01*
X91079Y-20954D02*
X90967Y-20954D01*
X91023Y-20954D02*
X91023Y-20757D01*
X91004Y-20785D01*
X90985Y-20804D01*
X90967Y-20814D01*
X91145Y-20757D02*
X91267Y-20757D01*
X91201Y-20832D01*
X91229Y-20832D01*
X91248Y-20842D01*
X91258Y-20851D01*
X91267Y-20870D01*
X91267Y-20917D01*
X91258Y-20935D01*
X91248Y-20945D01*
X91229Y-20954D01*
X91173Y-20954D01*
X91154Y-20945D01*
X91145Y-20935D01*
X92692Y-22317D02*
X92626Y-22223D01*
X92579Y-22317D02*
X92579Y-22120D01*
X92654Y-22120D01*
X92673Y-22129D01*
X92682Y-22139D01*
X92692Y-22157D01*
X92692Y-22185D01*
X92682Y-22204D01*
X92673Y-22214D01*
X92654Y-22223D01*
X92579Y-22223D01*
X92879Y-22317D02*
X92767Y-22317D01*
X92823Y-22317D02*
X92823Y-22120D01*
X92804Y-22148D01*
X92785Y-22167D01*
X92767Y-22176D01*
X93067Y-22317D02*
X92954Y-22317D01*
X93011Y-22317D02*
X93011Y-22120D01*
X92992Y-22148D01*
X92973Y-22167D01*
X92954Y-22176D01*
X93236Y-22185D02*
X93236Y-22317D01*
X93189Y-22110D02*
X93142Y-22251D01*
X93264Y-22251D01*
X89992Y-25917D02*
X89926Y-25823D01*
X89879Y-25917D02*
X89879Y-25720D01*
X89954Y-25720D01*
X89973Y-25729D01*
X89982Y-25739D01*
X89992Y-25757D01*
X89992Y-25785D01*
X89982Y-25804D01*
X89973Y-25814D01*
X89954Y-25823D01*
X89879Y-25823D01*
X90179Y-25917D02*
X90067Y-25917D01*
X90123Y-25917D02*
X90123Y-25720D01*
X90104Y-25748D01*
X90085Y-25767D01*
X90067Y-25776D01*
X90367Y-25917D02*
X90254Y-25917D01*
X90311Y-25917D02*
X90311Y-25720D01*
X90292Y-25748D01*
X90273Y-25767D01*
X90254Y-25776D01*
X90545Y-25720D02*
X90451Y-25720D01*
X90442Y-25814D01*
X90451Y-25804D01*
X90470Y-25795D01*
X90517Y-25795D01*
X90536Y-25804D01*
X90545Y-25814D01*
X90554Y-25832D01*
X90554Y-25879D01*
X90545Y-25898D01*
X90536Y-25907D01*
X90517Y-25917D01*
X90470Y-25917D01*
X90451Y-25907D01*
X90442Y-25898D01*
X89717Y-27157D02*
X89623Y-27223D01*
X89717Y-27270D02*
X89520Y-27270D01*
X89520Y-27195D01*
X89529Y-27176D01*
X89539Y-27167D01*
X89557Y-27157D01*
X89585Y-27157D01*
X89604Y-27167D01*
X89614Y-27176D01*
X89623Y-27195D01*
X89623Y-27270D01*
X89717Y-26970D02*
X89717Y-27082D01*
X89717Y-27026D02*
X89520Y-27026D01*
X89548Y-27045D01*
X89567Y-27064D01*
X89576Y-27082D01*
X89717Y-26782D02*
X89717Y-26895D01*
X89717Y-26839D02*
X89520Y-26839D01*
X89548Y-26857D01*
X89567Y-26876D01*
X89576Y-26895D01*
X89520Y-26613D02*
X89520Y-26651D01*
X89529Y-26670D01*
X89539Y-26679D01*
X89567Y-26698D01*
X89604Y-26707D01*
X89679Y-26707D01*
X89698Y-26698D01*
X89707Y-26688D01*
X89717Y-26670D01*
X89717Y-26632D01*
X89707Y-26613D01*
X89698Y-26604D01*
X89679Y-26595D01*
X89632Y-26595D01*
X89614Y-26604D01*
X89604Y-26613D01*
X89595Y-26632D01*
X89595Y-26670D01*
X89604Y-26688D01*
X89614Y-26698D01*
X89632Y-26707D01*
X88967Y-25182D02*
X88873Y-25248D01*
X88967Y-25295D02*
X88770Y-25295D01*
X88770Y-25220D01*
X88779Y-25201D01*
X88789Y-25192D01*
X88807Y-25182D01*
X88835Y-25182D01*
X88854Y-25192D01*
X88864Y-25201D01*
X88873Y-25220D01*
X88873Y-25295D01*
X88967Y-24995D02*
X88967Y-25107D01*
X88967Y-25051D02*
X88770Y-25051D01*
X88798Y-25070D01*
X88817Y-25089D01*
X88826Y-25107D01*
X88967Y-24807D02*
X88967Y-24920D01*
X88967Y-24864D02*
X88770Y-24864D01*
X88798Y-24882D01*
X88817Y-24901D01*
X88826Y-24920D01*
X88770Y-24742D02*
X88770Y-24610D01*
X88967Y-24695D01*
X87592Y-24932D02*
X87498Y-24998D01*
X87592Y-25045D02*
X87395Y-25045D01*
X87395Y-24970D01*
X87404Y-24951D01*
X87414Y-24942D01*
X87432Y-24932D01*
X87460Y-24932D01*
X87479Y-24942D01*
X87489Y-24951D01*
X87498Y-24970D01*
X87498Y-25045D01*
X87592Y-24745D02*
X87592Y-24857D01*
X87592Y-24801D02*
X87395Y-24801D01*
X87423Y-24820D01*
X87442Y-24839D01*
X87451Y-24857D01*
X87592Y-24557D02*
X87592Y-24670D01*
X87592Y-24614D02*
X87395Y-24614D01*
X87423Y-24632D01*
X87442Y-24651D01*
X87451Y-24670D01*
X87479Y-24445D02*
X87470Y-24463D01*
X87460Y-24473D01*
X87442Y-24482D01*
X87432Y-24482D01*
X87414Y-24473D01*
X87404Y-24463D01*
X87395Y-24445D01*
X87395Y-24407D01*
X87404Y-24388D01*
X87414Y-24379D01*
X87432Y-24370D01*
X87442Y-24370D01*
X87460Y-24379D01*
X87470Y-24388D01*
X87479Y-24407D01*
X87479Y-24445D01*
X87489Y-24463D01*
X87498Y-24473D01*
X87517Y-24482D01*
X87554Y-24482D01*
X87573Y-24473D01*
X87582Y-24463D01*
X87592Y-24445D01*
X87592Y-24407D01*
X87582Y-24388D01*
X87573Y-24379D01*
X87554Y-24370D01*
X87517Y-24370D01*
X87498Y-24379D01*
X87489Y-24388D01*
X87479Y-24407D01*
G54D22*
X93930Y-21889D02*
X93930Y-22294D01*
X93954Y-22342D01*
X93977Y-22366D01*
X94025Y-22389D01*
X94120Y-22389D01*
X94168Y-22366D01*
X94192Y-22342D01*
X94216Y-22294D01*
X94216Y-21889D01*
X94716Y-22389D02*
X94430Y-22389D01*
X94573Y-22389D02*
X94573Y-21889D01*
X94525Y-21961D01*
X94477Y-22008D01*
X94430Y-22032D01*
X95025Y-21889D02*
X95073Y-21889D01*
X95120Y-21913D01*
X95144Y-21937D01*
X95168Y-21985D01*
X95192Y-22080D01*
X95192Y-22199D01*
X95168Y-22294D01*
X95144Y-22342D01*
X95120Y-22366D01*
X95073Y-22389D01*
X95025Y-22389D01*
X94977Y-22366D01*
X94954Y-22342D01*
X94930Y-22294D01*
X94906Y-22199D01*
X94906Y-22080D01*
X94930Y-21985D01*
X94954Y-21937D01*
X94977Y-21913D01*
X95025Y-21889D01*
X95668Y-22389D02*
X95382Y-22389D01*
X95525Y-22389D02*
X95525Y-21889D01*
X95477Y-21961D01*
X95430Y-22008D01*
X95382Y-22032D01*
G54D11*
X87769Y-26201D02*
X88133Y-26201D01*
X88176Y-26187D01*
X88198Y-26173D01*
X88219Y-26144D01*
X88219Y-26087D01*
X88198Y-26058D01*
X88176Y-26044D01*
X88133Y-26030D01*
X87769Y-26030D01*
X88219Y-25730D02*
X88219Y-25901D01*
X88219Y-25816D02*
X87769Y-25816D01*
X87833Y-25844D01*
X87876Y-25873D01*
X87898Y-25901D01*
X87769Y-25544D02*
X87769Y-25516D01*
X87791Y-25487D01*
X87812Y-25473D01*
X87855Y-25458D01*
X87941Y-25444D01*
X88048Y-25444D01*
X88133Y-25458D01*
X88176Y-25473D01*
X88198Y-25487D01*
X88219Y-25516D01*
X88219Y-25544D01*
X88198Y-25573D01*
X88176Y-25587D01*
X88133Y-25601D01*
X88048Y-25616D01*
X87941Y-25616D01*
X87855Y-25601D01*
X87812Y-25587D01*
X87791Y-25573D01*
X87769Y-25544D01*
X87812Y-25330D02*
X87791Y-25316D01*
X87769Y-25287D01*
X87769Y-25216D01*
X87791Y-25187D01*
X87812Y-25173D01*
X87855Y-25158D01*
X87898Y-25158D01*
X87962Y-25173D01*
X88219Y-25344D01*
X88219Y-25158D01*
G54D15*
X97111Y-27599D02*
X97111Y-27199D01*
X97263Y-27199D01*
X97301Y-27218D01*
X97320Y-27237D01*
X97339Y-27275D01*
X97339Y-27332D01*
X97320Y-27370D01*
X97301Y-27389D01*
X97263Y-27408D01*
X97111Y-27408D01*
X97720Y-27599D02*
X97492Y-27599D01*
X97606Y-27599D02*
X97606Y-27199D01*
X97568Y-27256D01*
X97530Y-27294D01*
X97492Y-27313D01*
X97968Y-27199D02*
X98006Y-27199D01*
X98044Y-27218D01*
X98063Y-27237D01*
X98082Y-27275D01*
X98101Y-27351D01*
X98101Y-27447D01*
X98082Y-27523D01*
X98063Y-27561D01*
X98044Y-27580D01*
X98006Y-27599D01*
X97968Y-27599D01*
X97930Y-27580D01*
X97911Y-27561D01*
X97892Y-27523D01*
X97873Y-27447D01*
X97873Y-27351D01*
X97892Y-27275D01*
X97911Y-27237D01*
X97930Y-27218D01*
X97968Y-27199D01*
X98444Y-27332D02*
X98444Y-27599D01*
X98349Y-27180D02*
X98254Y-27466D01*
X98501Y-27466D01*
G54D21*
X91592Y-24667D02*
X91526Y-24573D01*
X91479Y-24667D02*
X91479Y-24470D01*
X91554Y-24470D01*
X91573Y-24479D01*
X91582Y-24489D01*
X91592Y-24507D01*
X91592Y-24535D01*
X91582Y-24554D01*
X91573Y-24564D01*
X91554Y-24573D01*
X91479Y-24573D01*
X91779Y-24667D02*
X91667Y-24667D01*
X91723Y-24667D02*
X91723Y-24470D01*
X91704Y-24498D01*
X91685Y-24517D01*
X91667Y-24526D01*
X91901Y-24470D02*
X91920Y-24470D01*
X91939Y-24479D01*
X91948Y-24489D01*
X91957Y-24507D01*
X91967Y-24545D01*
X91967Y-24592D01*
X91957Y-24629D01*
X91948Y-24648D01*
X91939Y-24657D01*
X91920Y-24667D01*
X91901Y-24667D01*
X91882Y-24657D01*
X91873Y-24648D01*
X91864Y-24629D01*
X91854Y-24592D01*
X91854Y-24545D01*
X91864Y-24507D01*
X91873Y-24489D01*
X91882Y-24479D01*
X91901Y-24470D01*
X92154Y-24667D02*
X92042Y-24667D01*
X92098Y-24667D02*
X92098Y-24470D01*
X92079Y-24498D01*
X92061Y-24517D01*
X92042Y-24526D01*
X92498Y-23582D02*
X92507Y-23592D01*
X92517Y-23620D01*
X92517Y-23639D01*
X92507Y-23667D01*
X92489Y-23686D01*
X92470Y-23695D01*
X92432Y-23704D01*
X92404Y-23704D01*
X92367Y-23695D01*
X92348Y-23686D01*
X92329Y-23667D01*
X92320Y-23639D01*
X92320Y-23620D01*
X92329Y-23592D01*
X92339Y-23582D01*
X92517Y-23395D02*
X92517Y-23507D01*
X92517Y-23451D02*
X92320Y-23451D01*
X92348Y-23470D01*
X92367Y-23489D01*
X92376Y-23507D01*
X92320Y-23273D02*
X92320Y-23254D01*
X92329Y-23235D01*
X92339Y-23226D01*
X92357Y-23217D01*
X92395Y-23207D01*
X92442Y-23207D01*
X92479Y-23217D01*
X92498Y-23226D01*
X92507Y-23235D01*
X92517Y-23254D01*
X92517Y-23273D01*
X92507Y-23292D01*
X92498Y-23301D01*
X92479Y-23310D01*
X92442Y-23320D01*
X92395Y-23320D01*
X92357Y-23310D01*
X92339Y-23301D01*
X92329Y-23292D01*
X92320Y-23273D01*
X92320Y-23142D02*
X92320Y-23020D01*
X92395Y-23085D01*
X92395Y-23057D01*
X92404Y-23038D01*
X92414Y-23029D01*
X92432Y-23020D01*
X92479Y-23020D01*
X92498Y-23029D01*
X92507Y-23038D01*
X92517Y-23057D01*
X92517Y-23113D01*
X92507Y-23132D01*
X92498Y-23142D01*
G54D18*
X87280Y-26608D02*
X87280Y-26308D01*
X87394Y-26308D01*
X87423Y-26323D01*
X87437Y-26337D01*
X87451Y-26366D01*
X87451Y-26408D01*
X87437Y-26437D01*
X87423Y-26451D01*
X87394Y-26466D01*
X87280Y-26466D01*
X87737Y-26608D02*
X87566Y-26608D01*
X87651Y-26608D02*
X87651Y-26308D01*
X87623Y-26351D01*
X87594Y-26380D01*
X87566Y-26394D01*
X87923Y-26308D02*
X87951Y-26308D01*
X87980Y-26323D01*
X87994Y-26337D01*
X88008Y-26366D01*
X88023Y-26423D01*
X88023Y-26494D01*
X88008Y-26551D01*
X87994Y-26580D01*
X87980Y-26594D01*
X87951Y-26608D01*
X87923Y-26608D01*
X87894Y-26594D01*
X87880Y-26580D01*
X87866Y-26551D01*
X87851Y-26494D01*
X87851Y-26423D01*
X87866Y-26366D01*
X87880Y-26337D01*
X87894Y-26323D01*
X87923Y-26308D01*
X88308Y-26608D02*
X88137Y-26608D01*
X88223Y-26608D02*
X88223Y-26308D01*
X88194Y-26351D01*
X88166Y-26380D01*
X88137Y-26394D01*
G54D21*
X92117Y-21220D02*
X91920Y-21220D01*
X91920Y-21173D01*
X91929Y-21145D01*
X91948Y-21126D01*
X91967Y-21117D01*
X92004Y-21107D01*
X92032Y-21107D01*
X92070Y-21117D01*
X92089Y-21126D01*
X92107Y-21145D01*
X92117Y-21173D01*
X92117Y-21220D01*
X92117Y-20920D02*
X92117Y-21032D01*
X92117Y-20976D02*
X91920Y-20976D01*
X91948Y-20995D01*
X91967Y-21014D01*
X91976Y-21032D01*
X91920Y-20798D02*
X91920Y-20779D01*
X91929Y-20760D01*
X91939Y-20751D01*
X91957Y-20742D01*
X91995Y-20732D01*
X92042Y-20732D01*
X92079Y-20742D01*
X92098Y-20751D01*
X92107Y-20760D01*
X92117Y-20779D01*
X92117Y-20798D01*
X92107Y-20817D01*
X92098Y-20826D01*
X92079Y-20835D01*
X92042Y-20845D01*
X91995Y-20845D01*
X91957Y-20835D01*
X91939Y-20826D01*
X91929Y-20817D01*
X91920Y-20798D01*
X92117Y-20545D02*
X92117Y-20657D01*
X92117Y-20601D02*
X91920Y-20601D01*
X91948Y-20620D01*
X91967Y-20638D01*
X91976Y-20657D01*
X92467Y-24570D02*
X92270Y-24570D01*
X92270Y-24523D01*
X92279Y-24495D01*
X92298Y-24476D01*
X92317Y-24467D01*
X92354Y-24457D01*
X92382Y-24457D01*
X92420Y-24467D01*
X92439Y-24476D01*
X92457Y-24495D01*
X92467Y-24523D01*
X92467Y-24570D01*
X92467Y-24270D02*
X92467Y-24382D01*
X92467Y-24326D02*
X92270Y-24326D01*
X92298Y-24345D01*
X92317Y-24364D01*
X92326Y-24382D01*
X92270Y-24148D02*
X92270Y-24129D01*
X92279Y-24110D01*
X92289Y-24101D01*
X92307Y-24092D01*
X92345Y-24082D01*
X92392Y-24082D01*
X92429Y-24092D01*
X92448Y-24101D01*
X92457Y-24110D01*
X92467Y-24129D01*
X92467Y-24148D01*
X92457Y-24167D01*
X92448Y-24176D01*
X92429Y-24185D01*
X92392Y-24195D01*
X92345Y-24195D01*
X92307Y-24185D01*
X92289Y-24176D01*
X92279Y-24167D01*
X92270Y-24148D01*
X92289Y-24007D02*
X92279Y-23998D01*
X92270Y-23979D01*
X92270Y-23932D01*
X92279Y-23913D01*
X92289Y-23904D01*
X92307Y-23895D01*
X92326Y-23895D01*
X92354Y-23904D01*
X92467Y-24017D01*
X92467Y-23895D01*
M02*
