M48
;DRILL file {Pcbnew (2013-07-07 BZR 4022)-stable} date 12/03/2014 13:56:14
;FORMAT={-:-/ absolute / inch / decimal}
FMAT,2
INCH,TZ
T1C0.025
T2C0.032
T3C0.040
T4C0.051
T5C0.060
T6C0.120
%
G90
G05
M72
T1
X6.925Y-5.85
X6.95Y-5.35
X7.15Y-5.25
X7.375Y-5.85
X7.425Y-3.95
X7.475Y-3.95
X7.475Y-5.9
X7.5Y-5.825
X7.525Y-3.95
X7.525Y-5.9
X7.55Y-4.
X7.55Y-5.85
X7.575Y-3.95
X7.575Y-4.125
X7.575Y-4.425
X7.575Y-4.725
X7.575Y-5.025
X7.575Y-5.325
X7.575Y-5.625
X7.575Y-5.9
X7.6Y-4.
X7.6Y-4.175
X7.6Y-4.475
X7.6Y-4.775
X7.6Y-5.075
X7.6Y-5.375
X7.6Y-5.675
X7.6Y-5.85
X7.625Y-3.95
X7.625Y-4.125
X7.625Y-4.425
X7.625Y-4.725
X7.625Y-5.025
X7.625Y-5.325
X7.625Y-5.625
X7.625Y-5.9
X7.65Y-4.
X7.65Y-4.175
X7.65Y-4.475
X7.65Y-4.775
X7.65Y-5.075
X7.65Y-5.375
X7.65Y-5.675
X7.65Y-5.85
X7.675Y-3.95
X7.675Y-4.125
X7.675Y-4.425
X7.675Y-4.725
X7.675Y-5.025
X7.675Y-5.325
X7.675Y-5.625
X7.675Y-5.9
X7.7Y-4.
X7.7Y-4.175
X7.7Y-4.475
X7.7Y-4.775
X7.7Y-5.075
X7.7Y-5.375
X7.7Y-5.675
X7.7Y-5.85
X7.725Y-3.95
X7.725Y-4.125
X7.725Y-4.425
X7.725Y-4.725
X7.725Y-5.025
X7.725Y-5.325
X7.725Y-5.625
X7.725Y-5.9
X7.75Y-4.
X7.75Y-4.175
X7.75Y-4.475
X7.75Y-4.775
X7.75Y-5.075
X7.75Y-5.375
X7.75Y-5.675
X7.775Y-4.075
X7.775Y-4.125
X7.775Y-4.425
X7.775Y-4.725
X7.775Y-5.025
X7.775Y-5.325
X7.775Y-5.625
X7.775Y-5.9
X7.78Y-3.895
X7.825Y-3.675
X7.825Y-4.05
X7.825Y-4.1
X7.825Y-4.225
X7.825Y-4.525
X7.825Y-4.825
X7.825Y-5.125
X7.825Y-5.425
X7.825Y-5.725
X7.85Y-3.75
X7.85Y-3.825
X7.875Y-4.25
X7.875Y-4.55
X7.875Y-4.85
X7.875Y-5.15
X7.875Y-5.45
X7.875Y-5.75
X7.9Y-3.675
X7.9Y-3.875
X7.925Y-4.225
X7.925Y-4.525
X7.925Y-4.825
X7.925Y-5.125
X7.925Y-5.425
X7.925Y-5.725
X7.975Y-3.675
X7.975Y-3.875
X7.975Y-4.25
X7.975Y-4.55
X7.975Y-4.85
X7.975Y-5.15
X7.975Y-5.45
X7.975Y-5.75
X8.025Y-4.05
X8.025Y-4.1
X8.025Y-4.15
X8.025Y-4.2
X8.025Y-4.475
X8.025Y-4.525
X8.025Y-4.775
X8.025Y-4.825
X8.025Y-5.075
X8.025Y-5.125
X8.025Y-5.375
X8.025Y-5.425
X8.025Y-5.675
X8.025Y-5.725
X8.05Y-3.7
X8.05Y-3.8
X8.05Y-3.875
X8.075Y-4.075
X8.075Y-4.175
X8.075Y-4.45
X8.075Y-4.5
X8.075Y-4.75
X8.075Y-4.8
X8.075Y-5.05
X8.075Y-5.1
X8.075Y-5.35
X8.075Y-5.4
X8.075Y-5.65
X8.075Y-5.7
X8.075Y-5.75
X8.1Y-3.75
X8.15Y-3.7
X8.15Y-3.8
X8.25Y-3.9
X8.3Y-4.74
X8.3Y-5.04
X8.32Y-4.36
X8.32Y-5.64
X8.32Y-5.86
X8.325Y-3.9
X8.325Y-3.975
X8.325Y-4.075
X8.34Y-4.7
X8.34Y-5.32
X8.34Y-5.58
X8.36Y-4.96
X8.36Y-5.02
X8.36Y-5.26
X8.36Y-5.9
X8.375Y-3.925
X8.375Y-4.025
X8.38Y-4.66
X8.38Y-5.64
X8.4Y-5.34
X8.4Y-5.58
X8.4Y-5.86
X8.42Y-4.62
X8.42Y-4.96
X8.42Y-5.28
X8.425Y-3.875
X8.425Y-3.975
X8.44Y-5.9
X8.45Y-3.675
X8.46Y-4.58
X8.46Y-5.24
X8.46Y-5.34
X8.46Y-5.58
X8.475Y-3.75
X8.475Y-3.825
X8.475Y-3.925
X8.48Y-5.86
X8.5Y-4.54
X8.5Y-5.28
X8.52Y-5.22
X8.52Y-5.9
X8.525Y-3.7
X8.525Y-3.875
X8.6Y-3.675
X8.62Y-5.22
X8.62Y-5.8
X8.62Y-5.9
T2
X7.Y-4.9984
X8.1475Y-4.185
X8.1475Y-4.41
X8.1475Y-4.51
X8.1475Y-5.31
X8.1475Y-5.41
X8.1475Y-5.61
X8.1475Y-5.71
X8.15Y-3.875
X8.1525Y-3.975
X8.1525Y-4.705
X8.1525Y-4.805
X8.1525Y-5.005
X8.1525Y-5.105
X8.2475Y-3.985
X8.2475Y-4.085
X8.2475Y-4.185
X8.2475Y-4.285
X8.2475Y-4.385
X8.2475Y-4.585
X8.2475Y-4.685
X8.2475Y-4.885
X8.2475Y-4.985
X8.2475Y-5.185
X8.2475Y-5.285
X8.2475Y-5.485
X8.2475Y-5.585
X8.2475Y-5.785
X8.2475Y-5.885
T3
X7.Y-5.0984
X7.Y-5.1984
X7.Y-5.2984
X7.Y-5.3984
X7.Y-5.4984
X7.Y-5.5984
X7.Y-5.6984
X7.Y-5.7984
X7.Y-5.8984
X7.1Y-4.9984
X7.1Y-5.0984
X7.1Y-5.1984
X7.1Y-5.2984
X7.1Y-5.3984
X7.1Y-5.4984
X7.1Y-5.5984
X7.1Y-5.6984
X7.1Y-5.7984
X7.1Y-5.8984
T4
X8.575Y-3.7915
X8.575Y-3.9293
X8.575Y-4.0671
X8.575Y-4.2049
X8.575Y-4.3427
X8.575Y-4.4805
X8.575Y-4.6183
X8.575Y-4.7561
X8.575Y-4.8939
X8.575Y-5.0317
X8.575Y-5.1695
X8.575Y-5.3073
X8.575Y-5.4451
X8.575Y-5.5829
X8.575Y-5.7207
X8.575Y-5.8585
T5
X7.5425Y-3.7775
X7.7425Y-3.7775
X7.9425Y-3.7775
T6
X8.3Y-3.75
T0
M30
