G04 (created by PCBNEW (2013-07-07 BZR 4022)-stable) date 05/03/2014 08:07:49*
%MOIN*%
G04 Gerber Fmt 3.4, Leading zero omitted, Abs format*
%FSLAX34Y34*%
G01*
G70*
G90*
G04 APERTURE LIST*
%ADD10C,0.00590551*%
%ADD11R,0.06X0.06*%
%ADD12C,0.06*%
%ADD13C,0.11811*%
%ADD14C,0.04*%
%ADD15C,0.035*%
%ADD16C,0.01*%
%ADD17C,0.00984252*%
G04 APERTURE END LIST*
G54D10*
G54D11*
X81100Y-69900D03*
G54D12*
X80100Y-69900D03*
X79100Y-69900D03*
G54D11*
X85550Y-62400D03*
X73120Y-62740D03*
G54D13*
X80500Y-68375D03*
X84975Y-60450D03*
G54D14*
X83050Y-68450D03*
X84750Y-68450D03*
G54D15*
X73076Y-69181D03*
X76225Y-69181D03*
G54D11*
X75060Y-61800D03*
G54D12*
X75060Y-60800D03*
X76060Y-61800D03*
X76060Y-60800D03*
X77060Y-61800D03*
X77060Y-60800D03*
X78060Y-61800D03*
X78060Y-60800D03*
X79060Y-61800D03*
X79060Y-60800D03*
G54D11*
X70000Y-60984D03*
G54D12*
X71000Y-60984D03*
X70000Y-61984D03*
X71000Y-61984D03*
X70000Y-62984D03*
X71000Y-62984D03*
X70000Y-63984D03*
X71000Y-63984D03*
X70000Y-64984D03*
X71000Y-64984D03*
X70000Y-65984D03*
X71000Y-65984D03*
X70000Y-66984D03*
X71000Y-66984D03*
X70000Y-67984D03*
X71000Y-67984D03*
X70000Y-68984D03*
X71000Y-68984D03*
X70000Y-69984D03*
X71000Y-69984D03*
G54D11*
X86650Y-60984D03*
G54D12*
X87650Y-60984D03*
X86650Y-61984D03*
X87650Y-61984D03*
X86650Y-62984D03*
X87650Y-62984D03*
X86650Y-63984D03*
X87650Y-63984D03*
X86650Y-64984D03*
X87650Y-64984D03*
X86650Y-65984D03*
X87650Y-65984D03*
X86650Y-66984D03*
X87650Y-66984D03*
X86650Y-67984D03*
X87650Y-67984D03*
X86650Y-68984D03*
X87650Y-68984D03*
X86650Y-69984D03*
X87650Y-69984D03*
G54D15*
X73200Y-64250D03*
X80550Y-61300D03*
X85700Y-63600D03*
X86000Y-64750D03*
X76900Y-66950D03*
X74250Y-63950D03*
X77700Y-62900D03*
X74950Y-65500D03*
X74100Y-65500D03*
X80520Y-63400D03*
X74700Y-66650D03*
X82100Y-63900D03*
X84425Y-65250D03*
X76050Y-66300D03*
X77450Y-66350D03*
X82480Y-64620D03*
X80720Y-63860D03*
X72400Y-69500D03*
X77600Y-69500D03*
X77600Y-68500D03*
X71850Y-65550D03*
X77300Y-65050D03*
X77700Y-65450D03*
X71800Y-69500D03*
X72400Y-69000D03*
X77600Y-69000D03*
X78300Y-69500D03*
X83880Y-69880D03*
X87150Y-66500D03*
X74675Y-62975D03*
X77100Y-68200D03*
X78400Y-67600D03*
X72500Y-60550D03*
X72450Y-61300D03*
X76150Y-62975D03*
X85200Y-70150D03*
X85200Y-69600D03*
X81700Y-69050D03*
X82500Y-69050D03*
X82600Y-69600D03*
X82600Y-70150D03*
X82600Y-67450D03*
X85250Y-68100D03*
X85950Y-69050D03*
X85300Y-69050D03*
X85950Y-68100D03*
X81650Y-68050D03*
G54D16*
X76050Y-60800D02*
X75850Y-60800D01*
X72350Y-61700D02*
X72700Y-61700D01*
X72700Y-61700D02*
X72900Y-61500D01*
X72900Y-61500D02*
X73750Y-61500D01*
X72150Y-61500D02*
X72350Y-61700D01*
X70650Y-61500D02*
X72150Y-61500D01*
X70500Y-62250D02*
X70500Y-61650D01*
X70000Y-62750D02*
X70500Y-62250D01*
X70000Y-62750D02*
X70000Y-62984D01*
X70500Y-61650D02*
X70650Y-61500D01*
X73950Y-61300D02*
X73750Y-61500D01*
X75350Y-61300D02*
X73950Y-61300D01*
X75850Y-60800D02*
X75350Y-61300D01*
X77550Y-60650D02*
X77550Y-60550D01*
X87134Y-61500D02*
X87650Y-60984D01*
X85300Y-61500D02*
X87134Y-61500D01*
X85150Y-61350D02*
X85300Y-61500D01*
X84450Y-61350D02*
X85150Y-61350D01*
X84000Y-60900D02*
X84450Y-61350D01*
X83300Y-60900D02*
X84000Y-60900D01*
X83100Y-60700D02*
X83300Y-60900D01*
X82050Y-60700D02*
X83100Y-60700D01*
X81650Y-60300D02*
X82050Y-60700D01*
X77800Y-60300D02*
X81650Y-60300D01*
X77550Y-60550D02*
X77800Y-60300D01*
X77050Y-61800D02*
X77050Y-61750D01*
X77550Y-61250D02*
X77550Y-60650D01*
X77550Y-60650D02*
X77550Y-60630D01*
X77050Y-61750D02*
X77550Y-61250D01*
X75500Y-62400D02*
X74650Y-62400D01*
X76950Y-60800D02*
X76450Y-61300D01*
X76450Y-61300D02*
X75800Y-61300D01*
X75800Y-61300D02*
X75500Y-61600D01*
X75500Y-61600D02*
X75500Y-62400D01*
X76950Y-60800D02*
X77050Y-60800D01*
X73200Y-63850D02*
X73200Y-64250D01*
X74650Y-62400D02*
X73200Y-63850D01*
X81065Y-61634D02*
X83784Y-61634D01*
X86150Y-62484D02*
X86650Y-61984D01*
X86150Y-62850D02*
X86150Y-62484D01*
X86000Y-63000D02*
X86150Y-62850D01*
X85000Y-63000D02*
X86000Y-63000D01*
X83784Y-61634D02*
X85000Y-63000D01*
X80550Y-61300D02*
X80430Y-61300D01*
X80730Y-61450D02*
X81065Y-61634D01*
X80580Y-61450D02*
X80730Y-61450D01*
X80430Y-61300D02*
X80580Y-61450D01*
X81065Y-61634D02*
X81080Y-61650D01*
X79050Y-60800D02*
X79800Y-60800D01*
X83650Y-61900D02*
X80975Y-61900D01*
X83650Y-61900D02*
X85300Y-63600D01*
X85300Y-63600D02*
X85700Y-63600D01*
X80975Y-61900D02*
X80675Y-61650D01*
X80350Y-61650D02*
X80675Y-61650D01*
X80100Y-61400D02*
X80350Y-61650D01*
X80100Y-61100D02*
X80100Y-61400D01*
X79800Y-60800D02*
X80100Y-61100D01*
X85200Y-64700D02*
X85950Y-64700D01*
X82850Y-63050D02*
X84645Y-64700D01*
X84645Y-64700D02*
X85200Y-64700D01*
X78180Y-63050D02*
X81100Y-63050D01*
X77880Y-63250D02*
X78180Y-63050D01*
X77450Y-63250D02*
X77880Y-63250D01*
X75300Y-65700D02*
X77450Y-63250D01*
X81100Y-63050D02*
X82850Y-63050D01*
X85950Y-64700D02*
X86000Y-64750D01*
X70000Y-64984D02*
X70434Y-64984D01*
X74750Y-66100D02*
X75300Y-65700D01*
X73650Y-66100D02*
X74750Y-66100D01*
X72750Y-65200D02*
X73650Y-66100D01*
X71550Y-65200D02*
X72750Y-65200D01*
X71250Y-65500D02*
X71550Y-65200D01*
X70750Y-65500D02*
X71250Y-65500D01*
X70550Y-65300D02*
X70750Y-65500D01*
X70550Y-65100D02*
X70550Y-65300D01*
X70434Y-64984D02*
X70550Y-65100D01*
X76900Y-66950D02*
X86650Y-66984D01*
X79450Y-61300D02*
X79700Y-61300D01*
X78150Y-61800D02*
X78650Y-61300D01*
X78650Y-61300D02*
X79450Y-61300D01*
X78050Y-61800D02*
X78150Y-61800D01*
X87166Y-63500D02*
X87650Y-63984D01*
X86350Y-63500D02*
X87166Y-63500D01*
X86150Y-63700D02*
X86350Y-63500D01*
X86150Y-63800D02*
X86150Y-63700D01*
X85980Y-63969D02*
X86150Y-63800D01*
X85350Y-63969D02*
X85980Y-63969D01*
X83480Y-62150D02*
X85350Y-63969D01*
X80500Y-62150D02*
X83480Y-62150D01*
X79700Y-61300D02*
X80500Y-62150D01*
X78050Y-61800D02*
X78050Y-62000D01*
X75800Y-63950D02*
X74250Y-63950D01*
X77500Y-62250D02*
X75800Y-63950D01*
X77800Y-62250D02*
X77500Y-62250D01*
X78050Y-62000D02*
X77800Y-62250D01*
X74950Y-65500D02*
X74950Y-65450D01*
X77500Y-62900D02*
X77700Y-62900D01*
X74950Y-65450D02*
X77500Y-62900D01*
X86650Y-64984D02*
X86650Y-64800D01*
X86650Y-64800D02*
X86250Y-64400D01*
X86250Y-64400D02*
X85150Y-64400D01*
X85150Y-64400D02*
X83500Y-62750D01*
X83500Y-62750D02*
X77850Y-62750D01*
X77850Y-62750D02*
X77700Y-62900D01*
X70500Y-64100D02*
X70500Y-62550D01*
X74650Y-65500D02*
X74250Y-65900D01*
X74250Y-65900D02*
X73750Y-65900D01*
X73750Y-65900D02*
X72850Y-65000D01*
X72850Y-65000D02*
X71800Y-65000D01*
X71800Y-65000D02*
X71300Y-64500D01*
X71300Y-64500D02*
X70900Y-64500D01*
X70900Y-64500D02*
X70500Y-64100D01*
X74950Y-65500D02*
X74650Y-65500D01*
X70500Y-62550D02*
X71000Y-62050D01*
X74950Y-65500D02*
X75000Y-65500D01*
X80850Y-62500D02*
X79950Y-62300D01*
X86650Y-63984D02*
X86484Y-64150D01*
X85200Y-64150D02*
X86484Y-64150D01*
X83580Y-62530D02*
X85200Y-64150D01*
X80850Y-62500D02*
X83580Y-62530D01*
X79050Y-62310D02*
X79050Y-62350D01*
X79950Y-62300D02*
X79050Y-62310D01*
X74100Y-65500D02*
X74250Y-65500D01*
X79050Y-62350D02*
X79050Y-61800D01*
X78900Y-62500D02*
X79050Y-62350D01*
X77600Y-62500D02*
X78900Y-62500D01*
X74950Y-65150D02*
X77600Y-62500D01*
X74600Y-65150D02*
X74950Y-65150D01*
X74250Y-65500D02*
X74600Y-65150D01*
X79050Y-61800D02*
X79045Y-61800D01*
X71000Y-62984D02*
X71000Y-63350D01*
X73650Y-65500D02*
X74100Y-65500D01*
X72950Y-64800D02*
X73650Y-65500D01*
X71880Y-64800D02*
X72950Y-64800D01*
X71500Y-64419D02*
X71880Y-64800D01*
X71500Y-63700D02*
X71500Y-64419D01*
X71350Y-63550D02*
X71500Y-63700D01*
X71200Y-63550D02*
X71350Y-63550D01*
X71000Y-63350D02*
X71200Y-63550D01*
X77550Y-63450D02*
X78550Y-63450D01*
X75700Y-65700D02*
X77550Y-63450D01*
X74700Y-66600D02*
X75700Y-65700D01*
X86650Y-65984D02*
X86384Y-65984D01*
X84540Y-64950D02*
X83400Y-64100D01*
X85250Y-64950D02*
X84540Y-64950D01*
X86384Y-65984D02*
X85250Y-64950D01*
X78550Y-63450D02*
X80400Y-63470D01*
X80250Y-63450D02*
X82650Y-63450D01*
X80400Y-63470D02*
X80400Y-63450D01*
X80400Y-63450D02*
X80250Y-63450D01*
X82650Y-63450D02*
X83400Y-64100D01*
X83990Y-65250D02*
X84425Y-65250D01*
X82620Y-63880D02*
X83990Y-65250D01*
X82120Y-63880D02*
X82620Y-63880D01*
X82100Y-63900D02*
X82120Y-63880D01*
X84425Y-65250D02*
X84425Y-66750D01*
X70500Y-68500D02*
X74250Y-68500D01*
X70000Y-68000D02*
X70500Y-68500D01*
X74900Y-68500D02*
X74250Y-68500D01*
X75600Y-67800D02*
X74900Y-68500D01*
X75600Y-66750D02*
X75600Y-67800D01*
X76050Y-66300D02*
X75600Y-66750D01*
X78200Y-66750D02*
X77850Y-66750D01*
X77850Y-66750D02*
X77450Y-66350D01*
X84425Y-66750D02*
X78200Y-66750D01*
X83900Y-68250D02*
X83880Y-69880D01*
X84650Y-67500D02*
X83900Y-68250D01*
X86950Y-67500D02*
X84650Y-67500D01*
X87150Y-67300D02*
X86950Y-67500D01*
X87150Y-66500D02*
X87150Y-67300D01*
X77800Y-68200D02*
X77100Y-68200D01*
X78400Y-67600D02*
X77800Y-68200D01*
X72500Y-61250D02*
X72500Y-60550D01*
X72450Y-61300D02*
X72500Y-61250D01*
X74675Y-62975D02*
X76150Y-62975D01*
G54D10*
G36*
X77276Y-61216D02*
X77157Y-61334D01*
X77153Y-61332D01*
X76967Y-61332D01*
X76795Y-61403D01*
X76664Y-61534D01*
X76592Y-61706D01*
X76592Y-61892D01*
X76663Y-62064D01*
X76794Y-62195D01*
X76966Y-62267D01*
X77152Y-62267D01*
X77191Y-62251D01*
X75709Y-63732D01*
X74516Y-63732D01*
X74444Y-63659D01*
X74318Y-63607D01*
X74182Y-63607D01*
X74056Y-63659D01*
X73959Y-63755D01*
X73907Y-63881D01*
X73907Y-64017D01*
X73959Y-64143D01*
X74055Y-64240D01*
X74181Y-64292D01*
X74317Y-64292D01*
X74443Y-64240D01*
X74516Y-64167D01*
X75625Y-64167D01*
X74859Y-64932D01*
X74600Y-64932D01*
X74516Y-64949D01*
X74446Y-64996D01*
X74446Y-64996D01*
X74446Y-64996D01*
X74250Y-65191D01*
X74168Y-65157D01*
X74032Y-65157D01*
X73906Y-65209D01*
X73833Y-65282D01*
X73740Y-65282D01*
X73103Y-64646D01*
X73033Y-64599D01*
X72950Y-64582D01*
X71970Y-64582D01*
X71717Y-64329D01*
X71717Y-63700D01*
X71700Y-63616D01*
X71700Y-63616D01*
X71653Y-63546D01*
X71503Y-63396D01*
X71433Y-63349D01*
X71350Y-63332D01*
X71312Y-63332D01*
X71395Y-63249D01*
X71467Y-63077D01*
X71467Y-62891D01*
X71396Y-62719D01*
X71265Y-62588D01*
X71093Y-62516D01*
X70907Y-62516D01*
X70793Y-62563D01*
X70906Y-62451D01*
X70906Y-62451D01*
X71092Y-62451D01*
X71264Y-62380D01*
X71395Y-62249D01*
X71467Y-62077D01*
X71467Y-61891D01*
X71396Y-61719D01*
X71394Y-61717D01*
X72059Y-61717D01*
X72196Y-61853D01*
X72266Y-61900D01*
X72266Y-61900D01*
X72350Y-61917D01*
X72700Y-61917D01*
X72783Y-61900D01*
X72783Y-61900D01*
X72853Y-61853D01*
X72990Y-61717D01*
X73750Y-61717D01*
X73833Y-61700D01*
X73833Y-61700D01*
X73903Y-61653D01*
X74040Y-61517D01*
X74592Y-61517D01*
X74592Y-61533D01*
X74592Y-62133D01*
X74615Y-62189D01*
X74566Y-62199D01*
X74496Y-62246D01*
X73587Y-63155D01*
X73587Y-63006D01*
X73587Y-62406D01*
X73561Y-62345D01*
X73514Y-62298D01*
X73453Y-62272D01*
X73386Y-62272D01*
X72786Y-62272D01*
X72725Y-62298D01*
X72678Y-62345D01*
X72652Y-62406D01*
X72652Y-62473D01*
X72652Y-63073D01*
X72678Y-63134D01*
X72725Y-63181D01*
X72786Y-63207D01*
X72853Y-63207D01*
X73453Y-63207D01*
X73514Y-63181D01*
X73561Y-63134D01*
X73587Y-63073D01*
X73587Y-63006D01*
X73587Y-63155D01*
X73046Y-63696D01*
X72999Y-63766D01*
X72982Y-63850D01*
X72982Y-63983D01*
X72909Y-64055D01*
X72857Y-64181D01*
X72857Y-64317D01*
X72909Y-64443D01*
X73005Y-64540D01*
X73131Y-64592D01*
X73267Y-64592D01*
X73393Y-64540D01*
X73490Y-64444D01*
X73542Y-64318D01*
X73542Y-64182D01*
X73490Y-64056D01*
X73417Y-63983D01*
X73417Y-63940D01*
X74740Y-62617D01*
X75500Y-62617D01*
X75583Y-62600D01*
X75653Y-62553D01*
X75700Y-62483D01*
X75717Y-62400D01*
X75717Y-62118D01*
X75794Y-62195D01*
X75966Y-62267D01*
X76152Y-62267D01*
X76324Y-62196D01*
X76455Y-62065D01*
X76527Y-61893D01*
X76527Y-61707D01*
X76456Y-61535D01*
X76438Y-61517D01*
X76450Y-61517D01*
X76533Y-61500D01*
X76533Y-61500D01*
X76603Y-61453D01*
X76841Y-61215D01*
X76966Y-61267D01*
X77152Y-61267D01*
X77276Y-61216D01*
X77276Y-61216D01*
G37*
G54D17*
X77276Y-61216D02*
X77157Y-61334D01*
X77153Y-61332D01*
X76967Y-61332D01*
X76795Y-61403D01*
X76664Y-61534D01*
X76592Y-61706D01*
X76592Y-61892D01*
X76663Y-62064D01*
X76794Y-62195D01*
X76966Y-62267D01*
X77152Y-62267D01*
X77191Y-62251D01*
X75709Y-63732D01*
X74516Y-63732D01*
X74444Y-63659D01*
X74318Y-63607D01*
X74182Y-63607D01*
X74056Y-63659D01*
X73959Y-63755D01*
X73907Y-63881D01*
X73907Y-64017D01*
X73959Y-64143D01*
X74055Y-64240D01*
X74181Y-64292D01*
X74317Y-64292D01*
X74443Y-64240D01*
X74516Y-64167D01*
X75625Y-64167D01*
X74859Y-64932D01*
X74600Y-64932D01*
X74516Y-64949D01*
X74446Y-64996D01*
X74446Y-64996D01*
X74446Y-64996D01*
X74250Y-65191D01*
X74168Y-65157D01*
X74032Y-65157D01*
X73906Y-65209D01*
X73833Y-65282D01*
X73740Y-65282D01*
X73103Y-64646D01*
X73033Y-64599D01*
X72950Y-64582D01*
X71970Y-64582D01*
X71717Y-64329D01*
X71717Y-63700D01*
X71700Y-63616D01*
X71700Y-63616D01*
X71653Y-63546D01*
X71503Y-63396D01*
X71433Y-63349D01*
X71350Y-63332D01*
X71312Y-63332D01*
X71395Y-63249D01*
X71467Y-63077D01*
X71467Y-62891D01*
X71396Y-62719D01*
X71265Y-62588D01*
X71093Y-62516D01*
X70907Y-62516D01*
X70793Y-62563D01*
X70906Y-62451D01*
X70906Y-62451D01*
X71092Y-62451D01*
X71264Y-62380D01*
X71395Y-62249D01*
X71467Y-62077D01*
X71467Y-61891D01*
X71396Y-61719D01*
X71394Y-61717D01*
X72059Y-61717D01*
X72196Y-61853D01*
X72266Y-61900D01*
X72266Y-61900D01*
X72350Y-61917D01*
X72700Y-61917D01*
X72783Y-61900D01*
X72783Y-61900D01*
X72853Y-61853D01*
X72990Y-61717D01*
X73750Y-61717D01*
X73833Y-61700D01*
X73833Y-61700D01*
X73903Y-61653D01*
X74040Y-61517D01*
X74592Y-61517D01*
X74592Y-61533D01*
X74592Y-62133D01*
X74615Y-62189D01*
X74566Y-62199D01*
X74496Y-62246D01*
X73587Y-63155D01*
X73587Y-63006D01*
X73587Y-62406D01*
X73561Y-62345D01*
X73514Y-62298D01*
X73453Y-62272D01*
X73386Y-62272D01*
X72786Y-62272D01*
X72725Y-62298D01*
X72678Y-62345D01*
X72652Y-62406D01*
X72652Y-62473D01*
X72652Y-63073D01*
X72678Y-63134D01*
X72725Y-63181D01*
X72786Y-63207D01*
X72853Y-63207D01*
X73453Y-63207D01*
X73514Y-63181D01*
X73561Y-63134D01*
X73587Y-63073D01*
X73587Y-63006D01*
X73587Y-63155D01*
X73046Y-63696D01*
X72999Y-63766D01*
X72982Y-63850D01*
X72982Y-63983D01*
X72909Y-64055D01*
X72857Y-64181D01*
X72857Y-64317D01*
X72909Y-64443D01*
X73005Y-64540D01*
X73131Y-64592D01*
X73267Y-64592D01*
X73393Y-64540D01*
X73490Y-64444D01*
X73542Y-64318D01*
X73542Y-64182D01*
X73490Y-64056D01*
X73417Y-63983D01*
X73417Y-63940D01*
X74740Y-62617D01*
X75500Y-62617D01*
X75583Y-62600D01*
X75653Y-62553D01*
X75700Y-62483D01*
X75717Y-62400D01*
X75717Y-62118D01*
X75794Y-62195D01*
X75966Y-62267D01*
X76152Y-62267D01*
X76324Y-62196D01*
X76455Y-62065D01*
X76527Y-61893D01*
X76527Y-61707D01*
X76456Y-61535D01*
X76438Y-61517D01*
X76450Y-61517D01*
X76533Y-61500D01*
X76533Y-61500D01*
X76603Y-61453D01*
X76841Y-61215D01*
X76966Y-61267D01*
X77152Y-61267D01*
X77276Y-61216D01*
G54D10*
G36*
X84642Y-61132D02*
X84540Y-61132D01*
X84153Y-60746D01*
X84083Y-60699D01*
X84000Y-60682D01*
X83390Y-60682D01*
X83253Y-60546D01*
X83183Y-60499D01*
X83100Y-60482D01*
X82140Y-60482D01*
X81803Y-60146D01*
X81733Y-60099D01*
X81650Y-60082D01*
X77800Y-60082D01*
X77716Y-60099D01*
X77646Y-60146D01*
X77396Y-60396D01*
X77364Y-60443D01*
X77325Y-60404D01*
X77153Y-60332D01*
X76967Y-60332D01*
X76795Y-60403D01*
X76664Y-60534D01*
X76592Y-60706D01*
X76592Y-60850D01*
X76511Y-60931D01*
X76527Y-60893D01*
X76527Y-60707D01*
X76456Y-60535D01*
X76325Y-60404D01*
X76153Y-60332D01*
X75967Y-60332D01*
X75795Y-60403D01*
X75664Y-60534D01*
X75592Y-60706D01*
X75592Y-60749D01*
X75527Y-60815D01*
X75528Y-60715D01*
X75461Y-60542D01*
X75451Y-60527D01*
X75374Y-60499D01*
X75360Y-60513D01*
X75360Y-60485D01*
X75332Y-60408D01*
X75161Y-60334D01*
X74975Y-60331D01*
X74802Y-60398D01*
X74787Y-60408D01*
X74759Y-60485D01*
X75060Y-60786D01*
X75360Y-60485D01*
X75360Y-60513D01*
X75073Y-60800D01*
X75079Y-60805D01*
X75065Y-60819D01*
X75060Y-60813D01*
X75054Y-60819D01*
X75040Y-60805D01*
X75046Y-60800D01*
X74745Y-60499D01*
X74668Y-60527D01*
X74594Y-60698D01*
X74591Y-60884D01*
X74658Y-61057D01*
X74668Y-61072D01*
X74697Y-61082D01*
X73950Y-61082D01*
X73866Y-61099D01*
X73796Y-61146D01*
X73659Y-61282D01*
X72900Y-61282D01*
X72816Y-61299D01*
X72746Y-61346D01*
X72609Y-61482D01*
X72440Y-61482D01*
X72303Y-61346D01*
X72233Y-61299D01*
X72150Y-61282D01*
X71362Y-61282D01*
X71395Y-61249D01*
X71467Y-61077D01*
X71467Y-60891D01*
X71396Y-60719D01*
X71265Y-60588D01*
X71093Y-60516D01*
X70907Y-60516D01*
X70735Y-60587D01*
X70604Y-60718D01*
X70532Y-60890D01*
X70532Y-61076D01*
X70603Y-61248D01*
X70639Y-61284D01*
X70566Y-61299D01*
X70496Y-61346D01*
X70346Y-61496D01*
X70299Y-61566D01*
X70290Y-61613D01*
X70265Y-61588D01*
X70093Y-61516D01*
X69907Y-61516D01*
X69735Y-61587D01*
X69646Y-61676D01*
X69646Y-61443D01*
X69666Y-61451D01*
X69733Y-61451D01*
X70333Y-61451D01*
X70394Y-61425D01*
X70441Y-61378D01*
X70467Y-61317D01*
X70467Y-61250D01*
X70467Y-60650D01*
X70441Y-60589D01*
X70394Y-60542D01*
X70333Y-60516D01*
X70266Y-60516D01*
X69666Y-60516D01*
X69646Y-60524D01*
X69646Y-59946D01*
X84406Y-59946D01*
X84332Y-60020D01*
X84217Y-60298D01*
X84216Y-60600D01*
X84332Y-60878D01*
X84545Y-61092D01*
X84642Y-61132D01*
X84642Y-61132D01*
G37*
G54D17*
X84642Y-61132D02*
X84540Y-61132D01*
X84153Y-60746D01*
X84083Y-60699D01*
X84000Y-60682D01*
X83390Y-60682D01*
X83253Y-60546D01*
X83183Y-60499D01*
X83100Y-60482D01*
X82140Y-60482D01*
X81803Y-60146D01*
X81733Y-60099D01*
X81650Y-60082D01*
X77800Y-60082D01*
X77716Y-60099D01*
X77646Y-60146D01*
X77396Y-60396D01*
X77364Y-60443D01*
X77325Y-60404D01*
X77153Y-60332D01*
X76967Y-60332D01*
X76795Y-60403D01*
X76664Y-60534D01*
X76592Y-60706D01*
X76592Y-60850D01*
X76511Y-60931D01*
X76527Y-60893D01*
X76527Y-60707D01*
X76456Y-60535D01*
X76325Y-60404D01*
X76153Y-60332D01*
X75967Y-60332D01*
X75795Y-60403D01*
X75664Y-60534D01*
X75592Y-60706D01*
X75592Y-60749D01*
X75527Y-60815D01*
X75528Y-60715D01*
X75461Y-60542D01*
X75451Y-60527D01*
X75374Y-60499D01*
X75360Y-60513D01*
X75360Y-60485D01*
X75332Y-60408D01*
X75161Y-60334D01*
X74975Y-60331D01*
X74802Y-60398D01*
X74787Y-60408D01*
X74759Y-60485D01*
X75060Y-60786D01*
X75360Y-60485D01*
X75360Y-60513D01*
X75073Y-60800D01*
X75079Y-60805D01*
X75065Y-60819D01*
X75060Y-60813D01*
X75054Y-60819D01*
X75040Y-60805D01*
X75046Y-60800D01*
X74745Y-60499D01*
X74668Y-60527D01*
X74594Y-60698D01*
X74591Y-60884D01*
X74658Y-61057D01*
X74668Y-61072D01*
X74697Y-61082D01*
X73950Y-61082D01*
X73866Y-61099D01*
X73796Y-61146D01*
X73659Y-61282D01*
X72900Y-61282D01*
X72816Y-61299D01*
X72746Y-61346D01*
X72609Y-61482D01*
X72440Y-61482D01*
X72303Y-61346D01*
X72233Y-61299D01*
X72150Y-61282D01*
X71362Y-61282D01*
X71395Y-61249D01*
X71467Y-61077D01*
X71467Y-60891D01*
X71396Y-60719D01*
X71265Y-60588D01*
X71093Y-60516D01*
X70907Y-60516D01*
X70735Y-60587D01*
X70604Y-60718D01*
X70532Y-60890D01*
X70532Y-61076D01*
X70603Y-61248D01*
X70639Y-61284D01*
X70566Y-61299D01*
X70496Y-61346D01*
X70346Y-61496D01*
X70299Y-61566D01*
X70290Y-61613D01*
X70265Y-61588D01*
X70093Y-61516D01*
X69907Y-61516D01*
X69735Y-61587D01*
X69646Y-61676D01*
X69646Y-61443D01*
X69666Y-61451D01*
X69733Y-61451D01*
X70333Y-61451D01*
X70394Y-61425D01*
X70441Y-61378D01*
X70467Y-61317D01*
X70467Y-61250D01*
X70467Y-60650D01*
X70441Y-60589D01*
X70394Y-60542D01*
X70333Y-60516D01*
X70266Y-60516D01*
X69666Y-60516D01*
X69646Y-60524D01*
X69646Y-59946D01*
X84406Y-59946D01*
X84332Y-60020D01*
X84217Y-60298D01*
X84216Y-60600D01*
X84332Y-60878D01*
X84545Y-61092D01*
X84642Y-61132D01*
G54D10*
G36*
X88003Y-69697D02*
X87964Y-69683D01*
X87950Y-69697D01*
X87950Y-69669D01*
X87922Y-69592D01*
X87751Y-69518D01*
X87565Y-69515D01*
X87392Y-69582D01*
X87377Y-69592D01*
X87349Y-69669D01*
X87650Y-69970D01*
X87950Y-69669D01*
X87950Y-69697D01*
X87663Y-69984D01*
X87669Y-69989D01*
X87655Y-70003D01*
X87650Y-69997D01*
X87644Y-70003D01*
X87636Y-69995D01*
X87630Y-69989D01*
X87636Y-69984D01*
X87335Y-69683D01*
X87258Y-69711D01*
X87184Y-69882D01*
X87181Y-70068D01*
X87248Y-70241D01*
X87258Y-70256D01*
X87335Y-70284D01*
X87316Y-70303D01*
X87118Y-70303D01*
X86983Y-70303D01*
X86964Y-70284D01*
X87041Y-70256D01*
X87115Y-70085D01*
X87118Y-69899D01*
X87051Y-69726D01*
X87041Y-69711D01*
X86964Y-69683D01*
X86950Y-69697D01*
X86950Y-69669D01*
X86922Y-69592D01*
X86751Y-69518D01*
X86565Y-69515D01*
X86392Y-69582D01*
X86377Y-69592D01*
X86349Y-69669D01*
X86650Y-69970D01*
X86950Y-69669D01*
X86950Y-69697D01*
X86663Y-69984D01*
X86669Y-69989D01*
X86655Y-70003D01*
X86650Y-69997D01*
X86644Y-70003D01*
X86636Y-69995D01*
X86630Y-69989D01*
X86636Y-69984D01*
X86335Y-69683D01*
X86258Y-69711D01*
X86184Y-69882D01*
X86181Y-70068D01*
X86248Y-70241D01*
X86258Y-70256D01*
X86335Y-70284D01*
X86316Y-70303D01*
X85507Y-70303D01*
X85542Y-70218D01*
X85542Y-70082D01*
X85490Y-69956D01*
X85409Y-69874D01*
X85490Y-69794D01*
X85542Y-69668D01*
X85542Y-69532D01*
X85490Y-69406D01*
X85444Y-69360D01*
X85493Y-69340D01*
X85590Y-69244D01*
X85625Y-69159D01*
X85659Y-69243D01*
X85755Y-69340D01*
X85881Y-69392D01*
X86017Y-69392D01*
X86143Y-69340D01*
X86240Y-69244D01*
X86245Y-69229D01*
X86253Y-69248D01*
X86384Y-69379D01*
X86556Y-69451D01*
X86742Y-69451D01*
X86914Y-69380D01*
X87045Y-69249D01*
X87117Y-69077D01*
X87117Y-68891D01*
X87117Y-67891D01*
X87046Y-67719D01*
X86915Y-67588D01*
X86743Y-67516D01*
X86557Y-67516D01*
X86385Y-67587D01*
X86254Y-67718D01*
X86195Y-67860D01*
X86144Y-67809D01*
X86018Y-67757D01*
X85882Y-67757D01*
X85756Y-67809D01*
X85659Y-67905D01*
X85607Y-68031D01*
X85607Y-68167D01*
X85659Y-68293D01*
X85755Y-68390D01*
X85881Y-68442D01*
X86017Y-68442D01*
X86143Y-68390D01*
X86240Y-68294D01*
X86257Y-68252D01*
X86384Y-68379D01*
X86556Y-68451D01*
X86742Y-68451D01*
X86914Y-68380D01*
X87045Y-68249D01*
X87117Y-68077D01*
X87117Y-67891D01*
X87117Y-68891D01*
X87046Y-68719D01*
X86915Y-68588D01*
X86743Y-68516D01*
X86557Y-68516D01*
X86385Y-68587D01*
X86254Y-68718D01*
X86209Y-68825D01*
X86144Y-68759D01*
X86018Y-68707D01*
X85882Y-68707D01*
X85756Y-68759D01*
X85659Y-68855D01*
X85624Y-68940D01*
X85592Y-68861D01*
X85592Y-68032D01*
X85540Y-67906D01*
X85444Y-67809D01*
X85318Y-67757D01*
X85182Y-67757D01*
X85056Y-67809D01*
X84959Y-67905D01*
X84907Y-68031D01*
X84907Y-68117D01*
X84823Y-68082D01*
X84677Y-68082D01*
X84542Y-68138D01*
X84438Y-68241D01*
X84382Y-68376D01*
X84382Y-68522D01*
X84438Y-68657D01*
X84541Y-68761D01*
X84676Y-68817D01*
X84822Y-68817D01*
X84957Y-68761D01*
X85061Y-68658D01*
X85117Y-68523D01*
X85117Y-68415D01*
X85181Y-68442D01*
X85317Y-68442D01*
X85443Y-68390D01*
X85540Y-68294D01*
X85592Y-68168D01*
X85592Y-68032D01*
X85592Y-68861D01*
X85590Y-68856D01*
X85494Y-68759D01*
X85368Y-68707D01*
X85232Y-68707D01*
X85106Y-68759D01*
X85009Y-68855D01*
X84957Y-68981D01*
X84957Y-69117D01*
X85009Y-69243D01*
X85055Y-69289D01*
X85006Y-69309D01*
X84909Y-69405D01*
X84857Y-69531D01*
X84857Y-69667D01*
X84909Y-69793D01*
X84990Y-69875D01*
X84909Y-69955D01*
X84857Y-70081D01*
X84857Y-70217D01*
X84892Y-70303D01*
X83417Y-70303D01*
X83417Y-68377D01*
X83361Y-68242D01*
X83258Y-68138D01*
X83123Y-68082D01*
X82977Y-68082D01*
X82842Y-68138D01*
X82738Y-68241D01*
X82682Y-68376D01*
X82682Y-68522D01*
X82738Y-68657D01*
X82841Y-68761D01*
X82976Y-68817D01*
X83122Y-68817D01*
X83257Y-68761D01*
X83361Y-68658D01*
X83417Y-68523D01*
X83417Y-68377D01*
X83417Y-70303D01*
X82907Y-70303D01*
X82942Y-70218D01*
X82942Y-70082D01*
X82890Y-69956D01*
X82809Y-69874D01*
X82890Y-69794D01*
X82942Y-69668D01*
X82942Y-69532D01*
X82890Y-69406D01*
X82794Y-69309D01*
X82744Y-69289D01*
X82790Y-69244D01*
X82842Y-69118D01*
X82842Y-68982D01*
X82790Y-68856D01*
X82694Y-68759D01*
X82568Y-68707D01*
X82432Y-68707D01*
X82306Y-68759D01*
X82209Y-68855D01*
X82157Y-68981D01*
X82157Y-69117D01*
X82209Y-69243D01*
X82305Y-69340D01*
X82355Y-69360D01*
X82309Y-69405D01*
X82257Y-69531D01*
X82257Y-69667D01*
X82309Y-69793D01*
X82390Y-69875D01*
X82309Y-69955D01*
X82257Y-70081D01*
X82257Y-70217D01*
X82292Y-70303D01*
X82042Y-70303D01*
X82042Y-68982D01*
X81992Y-68861D01*
X81992Y-67982D01*
X81940Y-67856D01*
X81844Y-67759D01*
X81718Y-67707D01*
X81582Y-67707D01*
X81456Y-67759D01*
X81359Y-67855D01*
X81307Y-67981D01*
X81307Y-68117D01*
X81359Y-68243D01*
X81455Y-68340D01*
X81581Y-68392D01*
X81717Y-68392D01*
X81843Y-68340D01*
X81940Y-68244D01*
X81992Y-68118D01*
X81992Y-67982D01*
X81992Y-68861D01*
X81990Y-68856D01*
X81894Y-68759D01*
X81768Y-68707D01*
X81632Y-68707D01*
X81506Y-68759D01*
X81409Y-68855D01*
X81357Y-68981D01*
X81357Y-69117D01*
X81409Y-69243D01*
X81505Y-69340D01*
X81631Y-69392D01*
X81767Y-69392D01*
X81893Y-69340D01*
X81990Y-69244D01*
X82042Y-69118D01*
X82042Y-68982D01*
X82042Y-70303D01*
X81533Y-70303D01*
X81541Y-70294D01*
X81567Y-70233D01*
X81567Y-70166D01*
X81567Y-69633D01*
X81567Y-69566D01*
X81541Y-69505D01*
X81494Y-69458D01*
X81433Y-69432D01*
X81258Y-69432D01*
X81258Y-68224D01*
X81142Y-67946D01*
X80929Y-67732D01*
X80651Y-67617D01*
X80349Y-67616D01*
X80071Y-67732D01*
X79857Y-67945D01*
X79742Y-68223D01*
X79741Y-68525D01*
X79857Y-68803D01*
X80070Y-69017D01*
X80348Y-69132D01*
X80650Y-69133D01*
X80928Y-69017D01*
X81142Y-68804D01*
X81257Y-68526D01*
X81258Y-68224D01*
X81258Y-69432D01*
X81151Y-69432D01*
X81109Y-69474D01*
X81109Y-69890D01*
X81525Y-69890D01*
X81567Y-69848D01*
X81567Y-69633D01*
X81567Y-70166D01*
X81567Y-69951D01*
X81525Y-69909D01*
X81109Y-69909D01*
X81109Y-69917D01*
X81090Y-69917D01*
X81090Y-69909D01*
X81090Y-69890D01*
X81090Y-69474D01*
X81048Y-69432D01*
X80766Y-69432D01*
X80705Y-69458D01*
X80658Y-69505D01*
X80632Y-69566D01*
X80632Y-69633D01*
X80632Y-69848D01*
X80674Y-69890D01*
X81090Y-69890D01*
X81090Y-69909D01*
X80674Y-69909D01*
X80632Y-69951D01*
X80632Y-70166D01*
X80632Y-70233D01*
X80658Y-70294D01*
X80666Y-70303D01*
X80348Y-70303D01*
X80364Y-70296D01*
X80495Y-70165D01*
X80567Y-69993D01*
X80567Y-69807D01*
X80496Y-69635D01*
X80365Y-69504D01*
X80193Y-69432D01*
X80007Y-69432D01*
X79835Y-69503D01*
X79704Y-69634D01*
X79632Y-69806D01*
X79632Y-69992D01*
X79703Y-70164D01*
X79834Y-70295D01*
X79852Y-70303D01*
X79348Y-70303D01*
X79364Y-70296D01*
X79495Y-70165D01*
X79567Y-69993D01*
X79567Y-69807D01*
X79496Y-69635D01*
X79365Y-69504D01*
X79193Y-69432D01*
X79007Y-69432D01*
X78835Y-69503D01*
X78704Y-69634D01*
X78632Y-69806D01*
X78632Y-69992D01*
X78703Y-70164D01*
X78834Y-70295D01*
X78852Y-70303D01*
X76568Y-70303D01*
X76568Y-69113D01*
X76516Y-68987D01*
X76420Y-68891D01*
X76294Y-68839D01*
X76158Y-68838D01*
X76032Y-68890D01*
X75935Y-68987D01*
X75883Y-69112D01*
X75883Y-69249D01*
X75935Y-69374D01*
X76031Y-69471D01*
X76157Y-69523D01*
X76293Y-69523D01*
X76419Y-69471D01*
X76516Y-69375D01*
X76568Y-69249D01*
X76568Y-69113D01*
X76568Y-70303D01*
X73418Y-70303D01*
X73418Y-69113D01*
X73366Y-68987D01*
X73270Y-68891D01*
X73144Y-68839D01*
X73008Y-68838D01*
X72882Y-68890D01*
X72786Y-68987D01*
X72734Y-69112D01*
X72733Y-69249D01*
X72786Y-69374D01*
X72882Y-69471D01*
X73007Y-69523D01*
X73144Y-69523D01*
X73270Y-69471D01*
X73366Y-69375D01*
X73418Y-69249D01*
X73418Y-69113D01*
X73418Y-70303D01*
X71341Y-70303D01*
X71395Y-70249D01*
X71467Y-70077D01*
X71467Y-69891D01*
X71396Y-69719D01*
X71265Y-69588D01*
X71093Y-69516D01*
X70907Y-69516D01*
X70735Y-69587D01*
X70604Y-69718D01*
X70532Y-69890D01*
X70532Y-70076D01*
X70603Y-70248D01*
X70658Y-70303D01*
X70341Y-70303D01*
X70395Y-70249D01*
X70467Y-70077D01*
X70467Y-69891D01*
X70396Y-69719D01*
X70265Y-69588D01*
X70093Y-69516D01*
X69907Y-69516D01*
X69735Y-69587D01*
X69646Y-69676D01*
X69646Y-69291D01*
X69734Y-69379D01*
X69906Y-69451D01*
X70092Y-69451D01*
X70264Y-69380D01*
X70395Y-69249D01*
X70467Y-69077D01*
X70467Y-68891D01*
X70396Y-68719D01*
X70265Y-68588D01*
X70093Y-68516D01*
X69907Y-68516D01*
X69735Y-68587D01*
X69646Y-68676D01*
X69646Y-68291D01*
X69734Y-68379D01*
X69906Y-68451D01*
X70092Y-68451D01*
X70129Y-68436D01*
X70346Y-68653D01*
X70416Y-68700D01*
X70416Y-68700D01*
X70500Y-68717D01*
X70605Y-68717D01*
X70604Y-68718D01*
X70532Y-68890D01*
X70532Y-69076D01*
X70603Y-69248D01*
X70734Y-69379D01*
X70906Y-69451D01*
X71092Y-69451D01*
X71264Y-69380D01*
X71395Y-69249D01*
X71467Y-69077D01*
X71467Y-68891D01*
X71396Y-68719D01*
X71394Y-68717D01*
X74250Y-68717D01*
X74900Y-68717D01*
X74983Y-68700D01*
X74983Y-68700D01*
X75053Y-68653D01*
X75753Y-67953D01*
X75753Y-67953D01*
X75753Y-67953D01*
X75800Y-67883D01*
X75800Y-67883D01*
X75814Y-67816D01*
X75817Y-67800D01*
X75817Y-67800D01*
X75817Y-67800D01*
X75817Y-66840D01*
X76015Y-66642D01*
X76117Y-66642D01*
X76243Y-66590D01*
X76340Y-66494D01*
X76392Y-66368D01*
X76392Y-66232D01*
X76340Y-66106D01*
X76244Y-66009D01*
X76118Y-65957D01*
X75982Y-65957D01*
X75856Y-66009D01*
X75759Y-66105D01*
X75707Y-66231D01*
X75707Y-66335D01*
X75446Y-66596D01*
X75399Y-66666D01*
X75382Y-66750D01*
X75382Y-67709D01*
X74809Y-68282D01*
X74250Y-68282D01*
X71362Y-68282D01*
X71395Y-68249D01*
X71467Y-68077D01*
X71467Y-67891D01*
X71467Y-66891D01*
X71396Y-66719D01*
X71265Y-66588D01*
X71093Y-66516D01*
X70907Y-66516D01*
X70735Y-66587D01*
X70604Y-66718D01*
X70532Y-66890D01*
X70532Y-67076D01*
X70603Y-67248D01*
X70734Y-67379D01*
X70906Y-67451D01*
X71092Y-67451D01*
X71264Y-67380D01*
X71395Y-67249D01*
X71467Y-67077D01*
X71467Y-66891D01*
X71467Y-67891D01*
X71396Y-67719D01*
X71265Y-67588D01*
X71093Y-67516D01*
X70907Y-67516D01*
X70735Y-67587D01*
X70604Y-67718D01*
X70532Y-67890D01*
X70532Y-68076D01*
X70603Y-68248D01*
X70637Y-68282D01*
X70590Y-68282D01*
X70443Y-68135D01*
X70467Y-68077D01*
X70467Y-67891D01*
X70396Y-67719D01*
X70265Y-67588D01*
X70093Y-67516D01*
X69907Y-67516D01*
X69735Y-67587D01*
X69646Y-67676D01*
X69646Y-67291D01*
X69734Y-67379D01*
X69906Y-67451D01*
X70092Y-67451D01*
X70264Y-67380D01*
X70395Y-67249D01*
X70467Y-67077D01*
X70467Y-66891D01*
X70396Y-66719D01*
X70265Y-66588D01*
X70093Y-66516D01*
X69907Y-66516D01*
X69735Y-66587D01*
X69646Y-66676D01*
X69646Y-66291D01*
X69734Y-66379D01*
X69906Y-66451D01*
X70092Y-66451D01*
X70264Y-66380D01*
X70395Y-66249D01*
X70467Y-66077D01*
X70467Y-65891D01*
X70396Y-65719D01*
X70265Y-65588D01*
X70093Y-65516D01*
X69907Y-65516D01*
X69735Y-65587D01*
X69646Y-65676D01*
X69646Y-65291D01*
X69734Y-65379D01*
X69906Y-65451D01*
X70092Y-65451D01*
X70264Y-65380D01*
X70334Y-65310D01*
X70349Y-65383D01*
X70396Y-65453D01*
X70596Y-65653D01*
X70640Y-65682D01*
X70604Y-65718D01*
X70532Y-65890D01*
X70532Y-66076D01*
X70603Y-66248D01*
X70734Y-66379D01*
X70906Y-66451D01*
X71092Y-66451D01*
X71264Y-66380D01*
X71395Y-66249D01*
X71467Y-66077D01*
X71467Y-65891D01*
X71396Y-65719D01*
X71359Y-65682D01*
X71403Y-65653D01*
X71640Y-65417D01*
X72659Y-65417D01*
X73496Y-66253D01*
X73566Y-66300D01*
X73566Y-66300D01*
X73650Y-66317D01*
X74608Y-66317D01*
X74506Y-66359D01*
X74409Y-66455D01*
X74357Y-66581D01*
X74357Y-66717D01*
X74409Y-66843D01*
X74505Y-66940D01*
X74631Y-66992D01*
X74767Y-66992D01*
X74893Y-66940D01*
X74990Y-66844D01*
X75042Y-66718D01*
X75042Y-66584D01*
X75845Y-65861D01*
X75854Y-65849D01*
X75867Y-65837D01*
X77650Y-63667D01*
X78548Y-63667D01*
X80321Y-63685D01*
X80325Y-63690D01*
X80451Y-63742D01*
X80587Y-63742D01*
X80713Y-63690D01*
X80736Y-63667D01*
X81848Y-63667D01*
X81809Y-63705D01*
X81757Y-63831D01*
X81757Y-63967D01*
X81809Y-64093D01*
X81905Y-64190D01*
X82031Y-64242D01*
X82167Y-64242D01*
X82293Y-64190D01*
X82386Y-64097D01*
X82529Y-64097D01*
X83836Y-65403D01*
X83906Y-65450D01*
X83906Y-65450D01*
X83990Y-65467D01*
X84158Y-65467D01*
X84207Y-65516D01*
X84207Y-66532D01*
X78200Y-66532D01*
X77940Y-66532D01*
X77792Y-66384D01*
X77792Y-66282D01*
X77740Y-66156D01*
X77644Y-66059D01*
X77518Y-66007D01*
X77382Y-66007D01*
X77256Y-66059D01*
X77159Y-66155D01*
X77107Y-66281D01*
X77107Y-66417D01*
X77159Y-66543D01*
X77255Y-66640D01*
X77381Y-66692D01*
X77485Y-66692D01*
X77527Y-66734D01*
X77167Y-66733D01*
X77094Y-66659D01*
X76968Y-66607D01*
X76832Y-66607D01*
X76706Y-66659D01*
X76609Y-66755D01*
X76557Y-66881D01*
X76557Y-67017D01*
X76609Y-67143D01*
X76705Y-67240D01*
X76831Y-67292D01*
X76967Y-67292D01*
X77093Y-67240D01*
X77165Y-67168D01*
X82379Y-67186D01*
X82309Y-67255D01*
X82257Y-67381D01*
X82257Y-67517D01*
X82309Y-67643D01*
X82405Y-67740D01*
X82531Y-67792D01*
X82667Y-67792D01*
X82793Y-67740D01*
X82890Y-67644D01*
X82942Y-67518D01*
X82942Y-67382D01*
X82890Y-67256D01*
X82822Y-67187D01*
X86233Y-67199D01*
X86253Y-67248D01*
X86384Y-67379D01*
X86556Y-67451D01*
X86742Y-67451D01*
X86914Y-67380D01*
X87045Y-67249D01*
X87117Y-67077D01*
X87117Y-66891D01*
X87046Y-66719D01*
X86915Y-66588D01*
X86743Y-66516D01*
X86557Y-66516D01*
X86385Y-66587D01*
X86254Y-66718D01*
X86234Y-66765D01*
X84640Y-66759D01*
X84642Y-66750D01*
X84642Y-65516D01*
X84715Y-65444D01*
X84767Y-65318D01*
X84767Y-65182D01*
X84761Y-65167D01*
X85165Y-65167D01*
X86195Y-66107D01*
X86253Y-66248D01*
X86384Y-66379D01*
X86556Y-66451D01*
X86742Y-66451D01*
X86914Y-66380D01*
X87045Y-66249D01*
X87117Y-66077D01*
X87117Y-65891D01*
X87046Y-65719D01*
X86915Y-65588D01*
X86743Y-65516D01*
X86557Y-65516D01*
X86385Y-65587D01*
X86330Y-65642D01*
X85536Y-64917D01*
X85698Y-64917D01*
X85709Y-64943D01*
X85805Y-65040D01*
X85931Y-65092D01*
X86067Y-65092D01*
X86182Y-65044D01*
X86182Y-65076D01*
X86253Y-65248D01*
X86384Y-65379D01*
X86556Y-65451D01*
X86742Y-65451D01*
X86914Y-65380D01*
X87045Y-65249D01*
X87117Y-65077D01*
X87117Y-64891D01*
X87046Y-64719D01*
X86915Y-64588D01*
X86743Y-64516D01*
X86674Y-64516D01*
X86608Y-64451D01*
X86742Y-64451D01*
X86914Y-64380D01*
X87045Y-64249D01*
X87117Y-64077D01*
X87117Y-63891D01*
X87046Y-63719D01*
X87044Y-63717D01*
X87075Y-63717D01*
X87202Y-63843D01*
X87182Y-63890D01*
X87182Y-64076D01*
X87253Y-64248D01*
X87384Y-64379D01*
X87556Y-64451D01*
X87742Y-64451D01*
X87914Y-64380D01*
X88003Y-64291D01*
X88003Y-64676D01*
X87915Y-64588D01*
X87743Y-64516D01*
X87557Y-64516D01*
X87385Y-64587D01*
X87254Y-64718D01*
X87182Y-64890D01*
X87182Y-65076D01*
X87253Y-65248D01*
X87384Y-65379D01*
X87556Y-65451D01*
X87742Y-65451D01*
X87914Y-65380D01*
X88003Y-65291D01*
X88003Y-65676D01*
X87915Y-65588D01*
X87743Y-65516D01*
X87557Y-65516D01*
X87385Y-65587D01*
X87254Y-65718D01*
X87182Y-65890D01*
X87182Y-66076D01*
X87253Y-66248D01*
X87384Y-66379D01*
X87556Y-66451D01*
X87742Y-66451D01*
X87914Y-66380D01*
X88003Y-66291D01*
X88003Y-66676D01*
X87915Y-66588D01*
X87743Y-66516D01*
X87557Y-66516D01*
X87385Y-66587D01*
X87254Y-66718D01*
X87182Y-66890D01*
X87182Y-67076D01*
X87253Y-67248D01*
X87384Y-67379D01*
X87556Y-67451D01*
X87742Y-67451D01*
X87914Y-67380D01*
X88003Y-67291D01*
X88003Y-67676D01*
X87915Y-67588D01*
X87743Y-67516D01*
X87557Y-67516D01*
X87385Y-67587D01*
X87254Y-67718D01*
X87182Y-67890D01*
X87182Y-68076D01*
X87253Y-68248D01*
X87384Y-68379D01*
X87556Y-68451D01*
X87742Y-68451D01*
X87914Y-68380D01*
X88003Y-68291D01*
X88003Y-68676D01*
X87915Y-68588D01*
X87743Y-68516D01*
X87557Y-68516D01*
X87385Y-68587D01*
X87254Y-68718D01*
X87182Y-68890D01*
X87182Y-69076D01*
X87253Y-69248D01*
X87384Y-69379D01*
X87556Y-69451D01*
X87742Y-69451D01*
X87914Y-69380D01*
X88003Y-69291D01*
X88003Y-69697D01*
X88003Y-69697D01*
G37*
G54D17*
X88003Y-69697D02*
X87964Y-69683D01*
X87950Y-69697D01*
X87950Y-69669D01*
X87922Y-69592D01*
X87751Y-69518D01*
X87565Y-69515D01*
X87392Y-69582D01*
X87377Y-69592D01*
X87349Y-69669D01*
X87650Y-69970D01*
X87950Y-69669D01*
X87950Y-69697D01*
X87663Y-69984D01*
X87669Y-69989D01*
X87655Y-70003D01*
X87650Y-69997D01*
X87644Y-70003D01*
X87636Y-69995D01*
X87630Y-69989D01*
X87636Y-69984D01*
X87335Y-69683D01*
X87258Y-69711D01*
X87184Y-69882D01*
X87181Y-70068D01*
X87248Y-70241D01*
X87258Y-70256D01*
X87335Y-70284D01*
X87316Y-70303D01*
X87118Y-70303D01*
X86983Y-70303D01*
X86964Y-70284D01*
X87041Y-70256D01*
X87115Y-70085D01*
X87118Y-69899D01*
X87051Y-69726D01*
X87041Y-69711D01*
X86964Y-69683D01*
X86950Y-69697D01*
X86950Y-69669D01*
X86922Y-69592D01*
X86751Y-69518D01*
X86565Y-69515D01*
X86392Y-69582D01*
X86377Y-69592D01*
X86349Y-69669D01*
X86650Y-69970D01*
X86950Y-69669D01*
X86950Y-69697D01*
X86663Y-69984D01*
X86669Y-69989D01*
X86655Y-70003D01*
X86650Y-69997D01*
X86644Y-70003D01*
X86636Y-69995D01*
X86630Y-69989D01*
X86636Y-69984D01*
X86335Y-69683D01*
X86258Y-69711D01*
X86184Y-69882D01*
X86181Y-70068D01*
X86248Y-70241D01*
X86258Y-70256D01*
X86335Y-70284D01*
X86316Y-70303D01*
X85507Y-70303D01*
X85542Y-70218D01*
X85542Y-70082D01*
X85490Y-69956D01*
X85409Y-69874D01*
X85490Y-69794D01*
X85542Y-69668D01*
X85542Y-69532D01*
X85490Y-69406D01*
X85444Y-69360D01*
X85493Y-69340D01*
X85590Y-69244D01*
X85625Y-69159D01*
X85659Y-69243D01*
X85755Y-69340D01*
X85881Y-69392D01*
X86017Y-69392D01*
X86143Y-69340D01*
X86240Y-69244D01*
X86245Y-69229D01*
X86253Y-69248D01*
X86384Y-69379D01*
X86556Y-69451D01*
X86742Y-69451D01*
X86914Y-69380D01*
X87045Y-69249D01*
X87117Y-69077D01*
X87117Y-68891D01*
X87117Y-67891D01*
X87046Y-67719D01*
X86915Y-67588D01*
X86743Y-67516D01*
X86557Y-67516D01*
X86385Y-67587D01*
X86254Y-67718D01*
X86195Y-67860D01*
X86144Y-67809D01*
X86018Y-67757D01*
X85882Y-67757D01*
X85756Y-67809D01*
X85659Y-67905D01*
X85607Y-68031D01*
X85607Y-68167D01*
X85659Y-68293D01*
X85755Y-68390D01*
X85881Y-68442D01*
X86017Y-68442D01*
X86143Y-68390D01*
X86240Y-68294D01*
X86257Y-68252D01*
X86384Y-68379D01*
X86556Y-68451D01*
X86742Y-68451D01*
X86914Y-68380D01*
X87045Y-68249D01*
X87117Y-68077D01*
X87117Y-67891D01*
X87117Y-68891D01*
X87046Y-68719D01*
X86915Y-68588D01*
X86743Y-68516D01*
X86557Y-68516D01*
X86385Y-68587D01*
X86254Y-68718D01*
X86209Y-68825D01*
X86144Y-68759D01*
X86018Y-68707D01*
X85882Y-68707D01*
X85756Y-68759D01*
X85659Y-68855D01*
X85624Y-68940D01*
X85592Y-68861D01*
X85592Y-68032D01*
X85540Y-67906D01*
X85444Y-67809D01*
X85318Y-67757D01*
X85182Y-67757D01*
X85056Y-67809D01*
X84959Y-67905D01*
X84907Y-68031D01*
X84907Y-68117D01*
X84823Y-68082D01*
X84677Y-68082D01*
X84542Y-68138D01*
X84438Y-68241D01*
X84382Y-68376D01*
X84382Y-68522D01*
X84438Y-68657D01*
X84541Y-68761D01*
X84676Y-68817D01*
X84822Y-68817D01*
X84957Y-68761D01*
X85061Y-68658D01*
X85117Y-68523D01*
X85117Y-68415D01*
X85181Y-68442D01*
X85317Y-68442D01*
X85443Y-68390D01*
X85540Y-68294D01*
X85592Y-68168D01*
X85592Y-68032D01*
X85592Y-68861D01*
X85590Y-68856D01*
X85494Y-68759D01*
X85368Y-68707D01*
X85232Y-68707D01*
X85106Y-68759D01*
X85009Y-68855D01*
X84957Y-68981D01*
X84957Y-69117D01*
X85009Y-69243D01*
X85055Y-69289D01*
X85006Y-69309D01*
X84909Y-69405D01*
X84857Y-69531D01*
X84857Y-69667D01*
X84909Y-69793D01*
X84990Y-69875D01*
X84909Y-69955D01*
X84857Y-70081D01*
X84857Y-70217D01*
X84892Y-70303D01*
X83417Y-70303D01*
X83417Y-68377D01*
X83361Y-68242D01*
X83258Y-68138D01*
X83123Y-68082D01*
X82977Y-68082D01*
X82842Y-68138D01*
X82738Y-68241D01*
X82682Y-68376D01*
X82682Y-68522D01*
X82738Y-68657D01*
X82841Y-68761D01*
X82976Y-68817D01*
X83122Y-68817D01*
X83257Y-68761D01*
X83361Y-68658D01*
X83417Y-68523D01*
X83417Y-68377D01*
X83417Y-70303D01*
X82907Y-70303D01*
X82942Y-70218D01*
X82942Y-70082D01*
X82890Y-69956D01*
X82809Y-69874D01*
X82890Y-69794D01*
X82942Y-69668D01*
X82942Y-69532D01*
X82890Y-69406D01*
X82794Y-69309D01*
X82744Y-69289D01*
X82790Y-69244D01*
X82842Y-69118D01*
X82842Y-68982D01*
X82790Y-68856D01*
X82694Y-68759D01*
X82568Y-68707D01*
X82432Y-68707D01*
X82306Y-68759D01*
X82209Y-68855D01*
X82157Y-68981D01*
X82157Y-69117D01*
X82209Y-69243D01*
X82305Y-69340D01*
X82355Y-69360D01*
X82309Y-69405D01*
X82257Y-69531D01*
X82257Y-69667D01*
X82309Y-69793D01*
X82390Y-69875D01*
X82309Y-69955D01*
X82257Y-70081D01*
X82257Y-70217D01*
X82292Y-70303D01*
X82042Y-70303D01*
X82042Y-68982D01*
X81992Y-68861D01*
X81992Y-67982D01*
X81940Y-67856D01*
X81844Y-67759D01*
X81718Y-67707D01*
X81582Y-67707D01*
X81456Y-67759D01*
X81359Y-67855D01*
X81307Y-67981D01*
X81307Y-68117D01*
X81359Y-68243D01*
X81455Y-68340D01*
X81581Y-68392D01*
X81717Y-68392D01*
X81843Y-68340D01*
X81940Y-68244D01*
X81992Y-68118D01*
X81992Y-67982D01*
X81992Y-68861D01*
X81990Y-68856D01*
X81894Y-68759D01*
X81768Y-68707D01*
X81632Y-68707D01*
X81506Y-68759D01*
X81409Y-68855D01*
X81357Y-68981D01*
X81357Y-69117D01*
X81409Y-69243D01*
X81505Y-69340D01*
X81631Y-69392D01*
X81767Y-69392D01*
X81893Y-69340D01*
X81990Y-69244D01*
X82042Y-69118D01*
X82042Y-68982D01*
X82042Y-70303D01*
X81533Y-70303D01*
X81541Y-70294D01*
X81567Y-70233D01*
X81567Y-70166D01*
X81567Y-69633D01*
X81567Y-69566D01*
X81541Y-69505D01*
X81494Y-69458D01*
X81433Y-69432D01*
X81258Y-69432D01*
X81258Y-68224D01*
X81142Y-67946D01*
X80929Y-67732D01*
X80651Y-67617D01*
X80349Y-67616D01*
X80071Y-67732D01*
X79857Y-67945D01*
X79742Y-68223D01*
X79741Y-68525D01*
X79857Y-68803D01*
X80070Y-69017D01*
X80348Y-69132D01*
X80650Y-69133D01*
X80928Y-69017D01*
X81142Y-68804D01*
X81257Y-68526D01*
X81258Y-68224D01*
X81258Y-69432D01*
X81151Y-69432D01*
X81109Y-69474D01*
X81109Y-69890D01*
X81525Y-69890D01*
X81567Y-69848D01*
X81567Y-69633D01*
X81567Y-70166D01*
X81567Y-69951D01*
X81525Y-69909D01*
X81109Y-69909D01*
X81109Y-69917D01*
X81090Y-69917D01*
X81090Y-69909D01*
X81090Y-69890D01*
X81090Y-69474D01*
X81048Y-69432D01*
X80766Y-69432D01*
X80705Y-69458D01*
X80658Y-69505D01*
X80632Y-69566D01*
X80632Y-69633D01*
X80632Y-69848D01*
X80674Y-69890D01*
X81090Y-69890D01*
X81090Y-69909D01*
X80674Y-69909D01*
X80632Y-69951D01*
X80632Y-70166D01*
X80632Y-70233D01*
X80658Y-70294D01*
X80666Y-70303D01*
X80348Y-70303D01*
X80364Y-70296D01*
X80495Y-70165D01*
X80567Y-69993D01*
X80567Y-69807D01*
X80496Y-69635D01*
X80365Y-69504D01*
X80193Y-69432D01*
X80007Y-69432D01*
X79835Y-69503D01*
X79704Y-69634D01*
X79632Y-69806D01*
X79632Y-69992D01*
X79703Y-70164D01*
X79834Y-70295D01*
X79852Y-70303D01*
X79348Y-70303D01*
X79364Y-70296D01*
X79495Y-70165D01*
X79567Y-69993D01*
X79567Y-69807D01*
X79496Y-69635D01*
X79365Y-69504D01*
X79193Y-69432D01*
X79007Y-69432D01*
X78835Y-69503D01*
X78704Y-69634D01*
X78632Y-69806D01*
X78632Y-69992D01*
X78703Y-70164D01*
X78834Y-70295D01*
X78852Y-70303D01*
X76568Y-70303D01*
X76568Y-69113D01*
X76516Y-68987D01*
X76420Y-68891D01*
X76294Y-68839D01*
X76158Y-68838D01*
X76032Y-68890D01*
X75935Y-68987D01*
X75883Y-69112D01*
X75883Y-69249D01*
X75935Y-69374D01*
X76031Y-69471D01*
X76157Y-69523D01*
X76293Y-69523D01*
X76419Y-69471D01*
X76516Y-69375D01*
X76568Y-69249D01*
X76568Y-69113D01*
X76568Y-70303D01*
X73418Y-70303D01*
X73418Y-69113D01*
X73366Y-68987D01*
X73270Y-68891D01*
X73144Y-68839D01*
X73008Y-68838D01*
X72882Y-68890D01*
X72786Y-68987D01*
X72734Y-69112D01*
X72733Y-69249D01*
X72786Y-69374D01*
X72882Y-69471D01*
X73007Y-69523D01*
X73144Y-69523D01*
X73270Y-69471D01*
X73366Y-69375D01*
X73418Y-69249D01*
X73418Y-69113D01*
X73418Y-70303D01*
X71341Y-70303D01*
X71395Y-70249D01*
X71467Y-70077D01*
X71467Y-69891D01*
X71396Y-69719D01*
X71265Y-69588D01*
X71093Y-69516D01*
X70907Y-69516D01*
X70735Y-69587D01*
X70604Y-69718D01*
X70532Y-69890D01*
X70532Y-70076D01*
X70603Y-70248D01*
X70658Y-70303D01*
X70341Y-70303D01*
X70395Y-70249D01*
X70467Y-70077D01*
X70467Y-69891D01*
X70396Y-69719D01*
X70265Y-69588D01*
X70093Y-69516D01*
X69907Y-69516D01*
X69735Y-69587D01*
X69646Y-69676D01*
X69646Y-69291D01*
X69734Y-69379D01*
X69906Y-69451D01*
X70092Y-69451D01*
X70264Y-69380D01*
X70395Y-69249D01*
X70467Y-69077D01*
X70467Y-68891D01*
X70396Y-68719D01*
X70265Y-68588D01*
X70093Y-68516D01*
X69907Y-68516D01*
X69735Y-68587D01*
X69646Y-68676D01*
X69646Y-68291D01*
X69734Y-68379D01*
X69906Y-68451D01*
X70092Y-68451D01*
X70129Y-68436D01*
X70346Y-68653D01*
X70416Y-68700D01*
X70416Y-68700D01*
X70500Y-68717D01*
X70605Y-68717D01*
X70604Y-68718D01*
X70532Y-68890D01*
X70532Y-69076D01*
X70603Y-69248D01*
X70734Y-69379D01*
X70906Y-69451D01*
X71092Y-69451D01*
X71264Y-69380D01*
X71395Y-69249D01*
X71467Y-69077D01*
X71467Y-68891D01*
X71396Y-68719D01*
X71394Y-68717D01*
X74250Y-68717D01*
X74900Y-68717D01*
X74983Y-68700D01*
X74983Y-68700D01*
X75053Y-68653D01*
X75753Y-67953D01*
X75753Y-67953D01*
X75753Y-67953D01*
X75800Y-67883D01*
X75800Y-67883D01*
X75814Y-67816D01*
X75817Y-67800D01*
X75817Y-67800D01*
X75817Y-67800D01*
X75817Y-66840D01*
X76015Y-66642D01*
X76117Y-66642D01*
X76243Y-66590D01*
X76340Y-66494D01*
X76392Y-66368D01*
X76392Y-66232D01*
X76340Y-66106D01*
X76244Y-66009D01*
X76118Y-65957D01*
X75982Y-65957D01*
X75856Y-66009D01*
X75759Y-66105D01*
X75707Y-66231D01*
X75707Y-66335D01*
X75446Y-66596D01*
X75399Y-66666D01*
X75382Y-66750D01*
X75382Y-67709D01*
X74809Y-68282D01*
X74250Y-68282D01*
X71362Y-68282D01*
X71395Y-68249D01*
X71467Y-68077D01*
X71467Y-67891D01*
X71467Y-66891D01*
X71396Y-66719D01*
X71265Y-66588D01*
X71093Y-66516D01*
X70907Y-66516D01*
X70735Y-66587D01*
X70604Y-66718D01*
X70532Y-66890D01*
X70532Y-67076D01*
X70603Y-67248D01*
X70734Y-67379D01*
X70906Y-67451D01*
X71092Y-67451D01*
X71264Y-67380D01*
X71395Y-67249D01*
X71467Y-67077D01*
X71467Y-66891D01*
X71467Y-67891D01*
X71396Y-67719D01*
X71265Y-67588D01*
X71093Y-67516D01*
X70907Y-67516D01*
X70735Y-67587D01*
X70604Y-67718D01*
X70532Y-67890D01*
X70532Y-68076D01*
X70603Y-68248D01*
X70637Y-68282D01*
X70590Y-68282D01*
X70443Y-68135D01*
X70467Y-68077D01*
X70467Y-67891D01*
X70396Y-67719D01*
X70265Y-67588D01*
X70093Y-67516D01*
X69907Y-67516D01*
X69735Y-67587D01*
X69646Y-67676D01*
X69646Y-67291D01*
X69734Y-67379D01*
X69906Y-67451D01*
X70092Y-67451D01*
X70264Y-67380D01*
X70395Y-67249D01*
X70467Y-67077D01*
X70467Y-66891D01*
X70396Y-66719D01*
X70265Y-66588D01*
X70093Y-66516D01*
X69907Y-66516D01*
X69735Y-66587D01*
X69646Y-66676D01*
X69646Y-66291D01*
X69734Y-66379D01*
X69906Y-66451D01*
X70092Y-66451D01*
X70264Y-66380D01*
X70395Y-66249D01*
X70467Y-66077D01*
X70467Y-65891D01*
X70396Y-65719D01*
X70265Y-65588D01*
X70093Y-65516D01*
X69907Y-65516D01*
X69735Y-65587D01*
X69646Y-65676D01*
X69646Y-65291D01*
X69734Y-65379D01*
X69906Y-65451D01*
X70092Y-65451D01*
X70264Y-65380D01*
X70334Y-65310D01*
X70349Y-65383D01*
X70396Y-65453D01*
X70596Y-65653D01*
X70640Y-65682D01*
X70604Y-65718D01*
X70532Y-65890D01*
X70532Y-66076D01*
X70603Y-66248D01*
X70734Y-66379D01*
X70906Y-66451D01*
X71092Y-66451D01*
X71264Y-66380D01*
X71395Y-66249D01*
X71467Y-66077D01*
X71467Y-65891D01*
X71396Y-65719D01*
X71359Y-65682D01*
X71403Y-65653D01*
X71640Y-65417D01*
X72659Y-65417D01*
X73496Y-66253D01*
X73566Y-66300D01*
X73566Y-66300D01*
X73650Y-66317D01*
X74608Y-66317D01*
X74506Y-66359D01*
X74409Y-66455D01*
X74357Y-66581D01*
X74357Y-66717D01*
X74409Y-66843D01*
X74505Y-66940D01*
X74631Y-66992D01*
X74767Y-66992D01*
X74893Y-66940D01*
X74990Y-66844D01*
X75042Y-66718D01*
X75042Y-66584D01*
X75845Y-65861D01*
X75854Y-65849D01*
X75867Y-65837D01*
X77650Y-63667D01*
X78548Y-63667D01*
X80321Y-63685D01*
X80325Y-63690D01*
X80451Y-63742D01*
X80587Y-63742D01*
X80713Y-63690D01*
X80736Y-63667D01*
X81848Y-63667D01*
X81809Y-63705D01*
X81757Y-63831D01*
X81757Y-63967D01*
X81809Y-64093D01*
X81905Y-64190D01*
X82031Y-64242D01*
X82167Y-64242D01*
X82293Y-64190D01*
X82386Y-64097D01*
X82529Y-64097D01*
X83836Y-65403D01*
X83906Y-65450D01*
X83906Y-65450D01*
X83990Y-65467D01*
X84158Y-65467D01*
X84207Y-65516D01*
X84207Y-66532D01*
X78200Y-66532D01*
X77940Y-66532D01*
X77792Y-66384D01*
X77792Y-66282D01*
X77740Y-66156D01*
X77644Y-66059D01*
X77518Y-66007D01*
X77382Y-66007D01*
X77256Y-66059D01*
X77159Y-66155D01*
X77107Y-66281D01*
X77107Y-66417D01*
X77159Y-66543D01*
X77255Y-66640D01*
X77381Y-66692D01*
X77485Y-66692D01*
X77527Y-66734D01*
X77167Y-66733D01*
X77094Y-66659D01*
X76968Y-66607D01*
X76832Y-66607D01*
X76706Y-66659D01*
X76609Y-66755D01*
X76557Y-66881D01*
X76557Y-67017D01*
X76609Y-67143D01*
X76705Y-67240D01*
X76831Y-67292D01*
X76967Y-67292D01*
X77093Y-67240D01*
X77165Y-67168D01*
X82379Y-67186D01*
X82309Y-67255D01*
X82257Y-67381D01*
X82257Y-67517D01*
X82309Y-67643D01*
X82405Y-67740D01*
X82531Y-67792D01*
X82667Y-67792D01*
X82793Y-67740D01*
X82890Y-67644D01*
X82942Y-67518D01*
X82942Y-67382D01*
X82890Y-67256D01*
X82822Y-67187D01*
X86233Y-67199D01*
X86253Y-67248D01*
X86384Y-67379D01*
X86556Y-67451D01*
X86742Y-67451D01*
X86914Y-67380D01*
X87045Y-67249D01*
X87117Y-67077D01*
X87117Y-66891D01*
X87046Y-66719D01*
X86915Y-66588D01*
X86743Y-66516D01*
X86557Y-66516D01*
X86385Y-66587D01*
X86254Y-66718D01*
X86234Y-66765D01*
X84640Y-66759D01*
X84642Y-66750D01*
X84642Y-65516D01*
X84715Y-65444D01*
X84767Y-65318D01*
X84767Y-65182D01*
X84761Y-65167D01*
X85165Y-65167D01*
X86195Y-66107D01*
X86253Y-66248D01*
X86384Y-66379D01*
X86556Y-66451D01*
X86742Y-66451D01*
X86914Y-66380D01*
X87045Y-66249D01*
X87117Y-66077D01*
X87117Y-65891D01*
X87046Y-65719D01*
X86915Y-65588D01*
X86743Y-65516D01*
X86557Y-65516D01*
X86385Y-65587D01*
X86330Y-65642D01*
X85536Y-64917D01*
X85698Y-64917D01*
X85709Y-64943D01*
X85805Y-65040D01*
X85931Y-65092D01*
X86067Y-65092D01*
X86182Y-65044D01*
X86182Y-65076D01*
X86253Y-65248D01*
X86384Y-65379D01*
X86556Y-65451D01*
X86742Y-65451D01*
X86914Y-65380D01*
X87045Y-65249D01*
X87117Y-65077D01*
X87117Y-64891D01*
X87046Y-64719D01*
X86915Y-64588D01*
X86743Y-64516D01*
X86674Y-64516D01*
X86608Y-64451D01*
X86742Y-64451D01*
X86914Y-64380D01*
X87045Y-64249D01*
X87117Y-64077D01*
X87117Y-63891D01*
X87046Y-63719D01*
X87044Y-63717D01*
X87075Y-63717D01*
X87202Y-63843D01*
X87182Y-63890D01*
X87182Y-64076D01*
X87253Y-64248D01*
X87384Y-64379D01*
X87556Y-64451D01*
X87742Y-64451D01*
X87914Y-64380D01*
X88003Y-64291D01*
X88003Y-64676D01*
X87915Y-64588D01*
X87743Y-64516D01*
X87557Y-64516D01*
X87385Y-64587D01*
X87254Y-64718D01*
X87182Y-64890D01*
X87182Y-65076D01*
X87253Y-65248D01*
X87384Y-65379D01*
X87556Y-65451D01*
X87742Y-65451D01*
X87914Y-65380D01*
X88003Y-65291D01*
X88003Y-65676D01*
X87915Y-65588D01*
X87743Y-65516D01*
X87557Y-65516D01*
X87385Y-65587D01*
X87254Y-65718D01*
X87182Y-65890D01*
X87182Y-66076D01*
X87253Y-66248D01*
X87384Y-66379D01*
X87556Y-66451D01*
X87742Y-66451D01*
X87914Y-66380D01*
X88003Y-66291D01*
X88003Y-66676D01*
X87915Y-66588D01*
X87743Y-66516D01*
X87557Y-66516D01*
X87385Y-66587D01*
X87254Y-66718D01*
X87182Y-66890D01*
X87182Y-67076D01*
X87253Y-67248D01*
X87384Y-67379D01*
X87556Y-67451D01*
X87742Y-67451D01*
X87914Y-67380D01*
X88003Y-67291D01*
X88003Y-67676D01*
X87915Y-67588D01*
X87743Y-67516D01*
X87557Y-67516D01*
X87385Y-67587D01*
X87254Y-67718D01*
X87182Y-67890D01*
X87182Y-68076D01*
X87253Y-68248D01*
X87384Y-68379D01*
X87556Y-68451D01*
X87742Y-68451D01*
X87914Y-68380D01*
X88003Y-68291D01*
X88003Y-68676D01*
X87915Y-68588D01*
X87743Y-68516D01*
X87557Y-68516D01*
X87385Y-68587D01*
X87254Y-68718D01*
X87182Y-68890D01*
X87182Y-69076D01*
X87253Y-69248D01*
X87384Y-69379D01*
X87556Y-69451D01*
X87742Y-69451D01*
X87914Y-69380D01*
X88003Y-69291D01*
X88003Y-69697D01*
M02*
