G04 (created by PCBNEW (2013-07-07 BZR 4022)-stable) date 05/03/2014 08:07:49*
%MOIN*%
G04 Gerber Fmt 3.4, Leading zero omitted, Abs format*
%FSLAX34Y34*%
G01*
G70*
G90*
G04 APERTURE LIST*
%ADD10C,0.00590551*%
%ADD11R,0.035X0.055*%
%ADD12R,0.055X0.035*%
%ADD13R,0.065X0.016*%
%ADD14R,0.06X0.06*%
%ADD15C,0.06*%
%ADD16C,0.11811*%
%ADD17R,0.0472X0.0472*%
%ADD18R,0.02X0.1*%
%ADD19R,0.0787402X0.11*%
%ADD20C,0.04*%
%ADD21R,0.03X0.06*%
%ADD22R,0.04X0.06*%
%ADD23R,0.06X0.08*%
%ADD24C,0.035*%
%ADD25C,0.01*%
%ADD26C,0.00984252*%
G04 APERTURE END LIST*
G54D10*
G54D11*
X81275Y-66400D03*
X82025Y-66400D03*
G54D12*
X82750Y-66275D03*
X82750Y-65525D03*
G54D11*
X83425Y-66200D03*
X84175Y-66200D03*
X80475Y-65300D03*
X79725Y-65300D03*
X79700Y-64475D03*
X80450Y-64475D03*
X81275Y-65600D03*
X82025Y-65600D03*
X81225Y-67200D03*
X80475Y-67200D03*
G54D12*
X85000Y-66275D03*
X85000Y-65525D03*
G54D11*
X78975Y-66100D03*
X79725Y-66100D03*
G54D13*
X81433Y-62972D03*
X81433Y-63228D03*
X81433Y-63484D03*
X81433Y-63740D03*
X84267Y-62204D03*
X81433Y-62204D03*
X81433Y-62460D03*
X81433Y-62716D03*
X84267Y-63996D03*
X84267Y-63740D03*
X84267Y-63484D03*
X84267Y-63228D03*
X84267Y-62972D03*
X84267Y-62716D03*
X81433Y-63996D03*
X84267Y-62460D03*
X84267Y-61948D03*
X84267Y-61693D03*
X84267Y-61437D03*
X81433Y-61437D03*
X81433Y-61693D03*
X81433Y-61948D03*
X81433Y-64252D03*
X81433Y-64507D03*
X81433Y-64763D03*
X84267Y-64763D03*
X84267Y-64507D03*
X84267Y-64252D03*
G54D11*
X75225Y-63800D03*
X75975Y-63800D03*
G54D14*
X81100Y-69900D03*
G54D15*
X80100Y-69900D03*
X79100Y-69900D03*
G54D14*
X85550Y-62400D03*
X73120Y-62740D03*
G54D11*
X79100Y-66975D03*
X78350Y-66975D03*
G54D12*
X78125Y-64425D03*
X78125Y-63675D03*
G54D16*
X80500Y-68375D03*
X84975Y-60450D03*
G54D17*
X85750Y-65587D03*
X85750Y-66413D03*
X78950Y-65363D03*
X78950Y-64537D03*
X76587Y-63800D03*
X77413Y-63800D03*
G54D18*
X83270Y-67350D03*
X83585Y-67350D03*
X83900Y-67350D03*
X84214Y-67350D03*
X84529Y-67350D03*
G54D19*
X82128Y-69631D03*
X85671Y-69631D03*
X82128Y-67465D03*
X85671Y-67465D03*
G54D20*
X83050Y-68450D03*
X84750Y-68450D03*
G54D21*
X75832Y-64890D03*
X75399Y-64890D03*
X74966Y-64890D03*
X74533Y-64890D03*
X74100Y-64890D03*
X73666Y-64890D03*
X73233Y-64890D03*
X72800Y-64890D03*
X72367Y-64890D03*
G54D22*
X71837Y-65126D03*
G54D23*
X71974Y-68973D03*
X78037Y-68973D03*
G54D14*
X77714Y-65044D03*
G54D24*
X73076Y-69181D03*
X76225Y-69181D03*
G54D14*
X75060Y-61800D03*
G54D15*
X75060Y-60800D03*
X76060Y-61800D03*
X76060Y-60800D03*
X77060Y-61800D03*
X77060Y-60800D03*
X78060Y-61800D03*
X78060Y-60800D03*
X79060Y-61800D03*
X79060Y-60800D03*
G54D14*
X70000Y-60984D03*
G54D15*
X71000Y-60984D03*
X70000Y-61984D03*
X71000Y-61984D03*
X70000Y-62984D03*
X71000Y-62984D03*
X70000Y-63984D03*
X71000Y-63984D03*
X70000Y-64984D03*
X71000Y-64984D03*
X70000Y-65984D03*
X71000Y-65984D03*
X70000Y-66984D03*
X71000Y-66984D03*
X70000Y-67984D03*
X71000Y-67984D03*
X70000Y-68984D03*
X71000Y-68984D03*
X70000Y-69984D03*
X71000Y-69984D03*
G54D14*
X86650Y-60984D03*
G54D15*
X87650Y-60984D03*
X86650Y-61984D03*
X87650Y-61984D03*
X86650Y-62984D03*
X87650Y-62984D03*
X86650Y-63984D03*
X87650Y-63984D03*
X86650Y-64984D03*
X87650Y-64984D03*
X86650Y-65984D03*
X87650Y-65984D03*
X86650Y-66984D03*
X87650Y-66984D03*
X86650Y-67984D03*
X87650Y-67984D03*
X86650Y-68984D03*
X87650Y-68984D03*
X86650Y-69984D03*
X87650Y-69984D03*
G54D24*
X73200Y-64250D03*
X80550Y-61300D03*
X85700Y-63600D03*
X86000Y-64750D03*
X76900Y-66950D03*
X74250Y-63950D03*
X77700Y-62900D03*
X74950Y-65500D03*
X74100Y-65500D03*
X80520Y-63400D03*
X74700Y-66650D03*
X82100Y-63900D03*
X84425Y-65250D03*
X76050Y-66300D03*
X77450Y-66350D03*
X82480Y-64620D03*
X80720Y-63860D03*
X72400Y-69500D03*
X77600Y-69500D03*
X77600Y-68500D03*
X71850Y-65550D03*
X77300Y-65050D03*
X77700Y-65450D03*
X71800Y-69500D03*
X72400Y-69000D03*
X77600Y-69000D03*
X78300Y-69500D03*
X83880Y-69880D03*
X87150Y-66500D03*
X74675Y-62975D03*
X77100Y-68200D03*
X78400Y-67600D03*
X72500Y-60550D03*
X72450Y-61300D03*
X76150Y-62975D03*
X85200Y-70150D03*
X85200Y-69600D03*
X81700Y-69050D03*
X82500Y-69050D03*
X82600Y-69600D03*
X82600Y-70150D03*
X82600Y-67450D03*
X85250Y-68100D03*
X85950Y-69050D03*
X85300Y-69050D03*
X85950Y-68100D03*
X81650Y-68050D03*
G54D25*
X78000Y-67900D02*
X78000Y-68300D01*
X78000Y-67075D02*
X78000Y-67900D01*
X78600Y-69400D02*
X79100Y-69900D01*
X78600Y-68575D02*
X78600Y-69400D01*
X78425Y-68400D02*
X78600Y-68575D01*
X78100Y-68400D02*
X78425Y-68400D01*
X78000Y-68300D02*
X78100Y-68400D01*
X78125Y-64425D02*
X76900Y-64425D01*
X76900Y-64425D02*
X76712Y-64612D01*
X78350Y-66975D02*
X78100Y-66975D01*
X78100Y-66975D02*
X78000Y-67075D01*
X75225Y-63800D02*
X75225Y-61975D01*
X75225Y-61975D02*
X75050Y-61800D01*
X75225Y-63800D02*
X75225Y-64350D01*
X75225Y-64350D02*
X75250Y-64350D01*
X75025Y-64350D02*
X74750Y-64350D01*
X75050Y-64350D02*
X75250Y-64350D01*
X75025Y-64350D02*
X75050Y-64350D01*
X74750Y-64350D02*
X74533Y-64566D01*
X74533Y-64566D02*
X74533Y-64900D01*
X76950Y-64850D02*
X76950Y-65300D01*
X76950Y-65300D02*
X77550Y-65900D01*
X77550Y-65900D02*
X78000Y-66350D01*
X78000Y-66350D02*
X78000Y-67075D01*
X75250Y-64350D02*
X76450Y-64350D01*
X76450Y-64350D02*
X76712Y-64612D01*
X76712Y-64612D02*
X76950Y-64850D01*
X81433Y-62204D02*
X81924Y-62204D01*
X82200Y-63340D02*
X82660Y-63800D01*
X82200Y-62480D02*
X82200Y-63340D01*
X81924Y-62204D02*
X82200Y-62480D01*
X82100Y-64800D02*
X82100Y-64360D01*
X82100Y-64800D02*
X81850Y-65050D01*
X81850Y-65050D02*
X80725Y-65050D01*
X80475Y-65300D02*
X80725Y-65050D01*
X83836Y-63484D02*
X84267Y-63484D01*
X83560Y-63760D02*
X83836Y-63484D01*
X82700Y-63760D02*
X83560Y-63760D01*
X82100Y-64360D02*
X82660Y-63800D01*
X82660Y-63800D02*
X82700Y-63760D01*
X78200Y-63300D02*
X79420Y-63300D01*
X76400Y-61800D02*
X76600Y-62000D01*
X76600Y-62000D02*
X76600Y-62200D01*
X76600Y-62200D02*
X76750Y-62350D01*
X76750Y-62350D02*
X77150Y-62350D01*
X77150Y-62350D02*
X77350Y-62550D01*
X77350Y-62550D02*
X77350Y-63100D01*
X77350Y-63100D02*
X77550Y-63300D01*
X77550Y-63300D02*
X77850Y-63300D01*
X78200Y-63300D02*
X78000Y-63300D01*
X78000Y-63300D02*
X77850Y-63300D01*
X76050Y-61800D02*
X76400Y-61800D01*
X80450Y-64330D02*
X80450Y-64475D01*
X79420Y-63300D02*
X80450Y-64330D01*
X79725Y-66100D02*
X79725Y-67625D01*
X79350Y-69150D02*
X80100Y-69900D01*
X79350Y-68000D02*
X79350Y-69150D01*
X79725Y-67625D02*
X79350Y-68000D01*
X80475Y-65300D02*
X80475Y-64500D01*
X80475Y-64500D02*
X80450Y-64475D01*
X79725Y-66100D02*
X80100Y-66100D01*
X80475Y-65725D02*
X80475Y-65300D01*
X80100Y-66100D02*
X80475Y-65725D01*
X70000Y-60984D02*
X70184Y-60984D01*
X73120Y-62440D02*
X73120Y-62740D01*
X71500Y-62450D02*
X73120Y-62440D01*
X71500Y-61750D02*
X71500Y-62450D01*
X71250Y-61500D02*
X71500Y-61750D01*
X70275Y-61500D02*
X71250Y-61500D01*
X70184Y-60984D02*
X70275Y-61500D01*
X83050Y-60050D02*
X83525Y-60525D01*
X83525Y-60525D02*
X84175Y-61175D01*
X84175Y-61175D02*
X84750Y-61175D01*
X84750Y-61175D02*
X84925Y-61350D01*
X84925Y-61350D02*
X86284Y-61350D01*
X86284Y-61350D02*
X86650Y-60984D01*
X76300Y-60800D02*
X77050Y-60050D01*
X77050Y-60050D02*
X83050Y-60050D01*
X76050Y-60800D02*
X76300Y-60800D01*
X76300Y-60850D02*
X76050Y-60850D01*
X71000Y-60984D02*
X73434Y-60984D01*
X76600Y-61300D02*
X77050Y-61800D01*
X73750Y-61300D02*
X76600Y-61300D01*
X73434Y-60984D02*
X73750Y-61300D01*
X70234Y-63984D02*
X70700Y-64450D01*
X70700Y-64450D02*
X71800Y-64450D01*
X71800Y-64450D02*
X72000Y-64250D01*
X70000Y-63984D02*
X70234Y-63984D01*
X72000Y-64250D02*
X73200Y-64250D01*
X79300Y-60250D02*
X79750Y-60250D01*
X77250Y-60800D02*
X77800Y-60250D01*
X77800Y-60250D02*
X79300Y-60250D01*
X77050Y-60800D02*
X77250Y-60800D01*
X80550Y-61050D02*
X80550Y-61300D01*
X79750Y-60250D02*
X80550Y-61050D01*
X80451Y-61300D02*
X80550Y-61300D01*
X85700Y-63600D02*
X85750Y-64150D01*
X86000Y-64750D02*
X85800Y-64200D01*
X85775Y-64175D02*
X86500Y-64500D01*
X86900Y-64500D02*
X87150Y-64750D01*
X87150Y-64750D02*
X87150Y-65484D01*
X87150Y-65484D02*
X87650Y-65984D01*
X86500Y-64500D02*
X86900Y-64500D01*
X75399Y-65999D02*
X75399Y-66549D01*
X75800Y-66950D02*
X76900Y-66950D01*
X75399Y-66549D02*
X75800Y-66950D01*
X71000Y-64984D02*
X71000Y-65300D01*
X71699Y-65999D02*
X75399Y-65999D01*
X75399Y-64900D02*
X75399Y-65999D01*
X71000Y-65300D02*
X71699Y-65999D01*
X84267Y-64763D02*
X84267Y-64833D01*
X84275Y-65725D02*
X84275Y-66200D01*
X84050Y-65500D02*
X84275Y-65725D01*
X84050Y-65050D02*
X84050Y-65500D01*
X84267Y-64833D02*
X84050Y-65050D01*
X84275Y-66200D02*
X84275Y-66379D01*
X83900Y-66754D02*
X83900Y-67350D01*
X84275Y-66379D02*
X83900Y-66754D01*
X82750Y-65525D02*
X83675Y-65525D01*
X83650Y-67285D02*
X83585Y-67350D01*
X83650Y-66750D02*
X83650Y-67285D01*
X83800Y-66600D02*
X83650Y-66750D01*
X83800Y-65650D02*
X83800Y-66600D01*
X83675Y-65525D02*
X83800Y-65650D01*
X82750Y-65525D02*
X82750Y-65150D01*
X83393Y-64507D02*
X84267Y-64507D01*
X82750Y-65150D02*
X83393Y-64507D01*
X73800Y-63950D02*
X73700Y-63950D01*
X74250Y-63950D02*
X73800Y-63950D01*
X71650Y-63000D02*
X71650Y-63719D01*
X71150Y-62500D02*
X71650Y-63000D01*
X70225Y-62500D02*
X71150Y-62500D01*
X70034Y-61984D02*
X70225Y-62500D01*
X73600Y-63850D02*
X73700Y-63950D01*
X72950Y-63850D02*
X73600Y-63850D01*
X72730Y-63869D02*
X72950Y-63850D01*
X72000Y-63869D02*
X72730Y-63869D01*
X71650Y-63719D02*
X72000Y-63869D01*
X73233Y-64900D02*
X73233Y-64666D01*
X73700Y-64200D02*
X73700Y-63950D01*
X73233Y-64666D02*
X73700Y-64200D01*
X77700Y-62900D02*
X77700Y-62700D01*
X77550Y-61300D02*
X78050Y-60800D01*
X77550Y-62550D02*
X77550Y-61300D01*
X77700Y-62700D02*
X77550Y-62550D01*
X74966Y-65262D02*
X74950Y-65500D01*
X74966Y-65200D02*
X74966Y-65262D01*
X74966Y-65150D02*
X74966Y-65200D01*
X74966Y-64900D02*
X74966Y-65150D01*
X74100Y-64900D02*
X74100Y-65150D01*
X74100Y-65150D02*
X74100Y-65200D01*
X74100Y-65200D02*
X74100Y-65262D01*
X74100Y-65262D02*
X74100Y-65500D01*
X81433Y-61437D02*
X81003Y-61437D01*
X80860Y-62540D02*
X80520Y-63400D01*
X80860Y-61580D02*
X80860Y-62540D01*
X81003Y-61437D02*
X80860Y-61580D01*
X71000Y-67984D02*
X73334Y-67984D01*
X73334Y-67984D02*
X74700Y-66668D01*
X81433Y-62460D02*
X81860Y-62460D01*
X81980Y-63780D02*
X82100Y-63900D01*
X81980Y-62580D02*
X81980Y-63780D01*
X81860Y-62460D02*
X81980Y-62580D01*
X85000Y-63450D02*
X85100Y-64975D01*
X85100Y-64975D02*
X85050Y-65025D01*
X85050Y-65025D02*
X84650Y-65025D01*
X84650Y-65025D02*
X84425Y-65250D01*
X77450Y-66350D02*
X76100Y-66350D01*
X85800Y-63200D02*
X86150Y-63450D01*
X86150Y-63450D02*
X86900Y-63450D01*
X85700Y-63200D02*
X85000Y-63450D01*
X87150Y-63700D02*
X86900Y-63450D01*
X87150Y-64450D02*
X87150Y-63700D01*
X87650Y-64950D02*
X87150Y-64450D01*
X85700Y-63200D02*
X85800Y-63200D01*
X84267Y-63996D02*
X83104Y-63996D01*
X83104Y-63996D02*
X82480Y-64620D01*
X81433Y-62972D02*
X81008Y-62972D01*
X80900Y-63680D02*
X80720Y-63860D01*
X80900Y-63080D02*
X80900Y-63680D01*
X81008Y-62972D02*
X80900Y-63080D01*
X71974Y-68983D02*
X71974Y-69074D01*
X71974Y-69074D02*
X72400Y-69500D01*
X78037Y-68983D02*
X78037Y-69062D01*
X78037Y-69062D02*
X77600Y-69500D01*
X78037Y-68983D02*
X78037Y-68937D01*
X78037Y-68937D02*
X77600Y-68500D01*
X71837Y-65136D02*
X71837Y-65537D01*
X71837Y-65537D02*
X71850Y-65550D01*
X77714Y-65054D02*
X77304Y-65054D01*
X77304Y-65054D02*
X77300Y-65050D01*
X77714Y-65054D02*
X77714Y-65435D01*
X77714Y-65435D02*
X77700Y-65450D01*
X71974Y-68983D02*
X71974Y-69325D01*
X71974Y-69325D02*
X71800Y-69500D01*
X71974Y-68983D02*
X72383Y-68983D01*
X72383Y-68983D02*
X72400Y-69000D01*
X78037Y-68983D02*
X77616Y-68983D01*
X77616Y-68983D02*
X77600Y-69000D01*
X78037Y-68983D02*
X78037Y-69237D01*
X78037Y-69237D02*
X78300Y-69500D01*
X73666Y-64900D02*
X73666Y-64583D01*
X73666Y-64583D02*
X73850Y-64400D01*
X85750Y-66413D02*
X86013Y-66413D01*
X86100Y-66500D02*
X87150Y-66500D01*
X86013Y-66413D02*
X86100Y-66500D01*
X74700Y-62980D02*
X74700Y-62980D01*
X78125Y-63675D02*
X77538Y-63675D01*
X77538Y-63675D02*
X77413Y-63800D01*
X78400Y-67600D02*
X79050Y-67600D01*
X77100Y-68150D02*
X77100Y-68200D01*
X79100Y-67550D02*
X79100Y-66975D01*
X79050Y-67600D02*
X79100Y-67550D01*
X72650Y-61500D02*
X72450Y-61300D01*
X74700Y-62980D02*
X73640Y-62160D01*
X75050Y-60800D02*
X74050Y-60500D01*
X72550Y-60500D02*
X74050Y-60500D01*
X72500Y-60550D02*
X72550Y-60500D01*
X73640Y-62160D02*
X72650Y-61500D01*
X76813Y-63200D02*
X77413Y-63800D01*
X76150Y-62975D02*
X76375Y-63200D01*
X76375Y-63200D02*
X76813Y-63200D01*
X85000Y-66275D02*
X85000Y-67850D01*
X83270Y-68020D02*
X83270Y-67350D01*
X83300Y-68050D02*
X83270Y-68020D01*
X84800Y-68050D02*
X83300Y-68050D01*
X85000Y-67850D02*
X84800Y-68050D01*
X85671Y-67465D02*
X85671Y-69631D01*
X85671Y-69631D02*
X85400Y-69902D01*
X82747Y-70250D02*
X82128Y-69631D01*
X85100Y-70250D02*
X82747Y-70250D01*
X85400Y-69950D02*
X85100Y-70250D01*
X85400Y-69902D02*
X85400Y-69950D01*
X82128Y-69631D02*
X82128Y-67465D01*
X85671Y-69631D02*
X85671Y-69678D01*
X85671Y-69678D02*
X85200Y-70150D01*
X85671Y-69631D02*
X85231Y-69631D01*
X85231Y-69631D02*
X85200Y-69600D01*
X82128Y-69631D02*
X82128Y-69478D01*
X82128Y-69478D02*
X81700Y-69050D01*
X82128Y-69631D02*
X82128Y-69421D01*
X82128Y-69421D02*
X82500Y-69050D01*
X82128Y-69631D02*
X82568Y-69631D01*
X82568Y-69631D02*
X82600Y-69600D01*
X82128Y-69631D02*
X82128Y-69678D01*
X82128Y-69678D02*
X82600Y-70150D01*
X82128Y-67465D02*
X82584Y-67465D01*
X82584Y-67465D02*
X82600Y-67450D01*
X85671Y-67465D02*
X85671Y-67678D01*
X85671Y-67678D02*
X85250Y-68100D01*
X85671Y-69631D02*
X85671Y-69328D01*
X85671Y-69328D02*
X85950Y-69050D01*
X85671Y-69631D02*
X85671Y-69421D01*
X85671Y-69421D02*
X85300Y-69050D01*
X85671Y-67465D02*
X85671Y-67821D01*
X85671Y-67821D02*
X85950Y-68100D01*
X82128Y-67465D02*
X82128Y-67571D01*
X82128Y-67571D02*
X81650Y-68050D01*
X81225Y-67200D02*
X81862Y-67200D01*
X81862Y-67200D02*
X82128Y-67465D01*
X82025Y-66350D02*
X82025Y-67362D01*
X82025Y-67362D02*
X82128Y-67465D01*
X85688Y-65525D02*
X85750Y-65587D01*
X85000Y-65525D02*
X85688Y-65525D01*
X76587Y-63800D02*
X75975Y-63800D01*
X78975Y-66100D02*
X78975Y-65388D01*
X78975Y-65388D02*
X78950Y-65363D01*
X85550Y-62400D02*
X85700Y-62550D01*
X85700Y-62550D02*
X86850Y-62550D01*
X86850Y-62550D02*
X87650Y-63000D01*
X82450Y-65100D02*
X82400Y-65100D01*
X83298Y-64252D02*
X82450Y-65100D01*
X84267Y-64252D02*
X83298Y-64252D01*
X82025Y-65475D02*
X82025Y-65600D01*
X82400Y-65100D02*
X82025Y-65475D01*
G54D10*
G36*
X73897Y-65781D02*
X71789Y-65781D01*
X71598Y-65591D01*
X71604Y-65593D01*
X71670Y-65593D01*
X71786Y-65593D01*
X71827Y-65551D01*
X71827Y-65136D01*
X71512Y-65136D01*
X71470Y-65177D01*
X71470Y-65459D01*
X71473Y-65465D01*
X71326Y-65318D01*
X71395Y-65249D01*
X71467Y-65077D01*
X71467Y-64891D01*
X71396Y-64719D01*
X71344Y-64667D01*
X71584Y-64667D01*
X71542Y-64684D01*
X71495Y-64731D01*
X71470Y-64793D01*
X71470Y-65074D01*
X71512Y-65116D01*
X71827Y-65116D01*
X71827Y-65108D01*
X71847Y-65108D01*
X71847Y-65116D01*
X71855Y-65116D01*
X71855Y-65136D01*
X71847Y-65136D01*
X71847Y-65551D01*
X71889Y-65593D01*
X72004Y-65593D01*
X72071Y-65593D01*
X72132Y-65567D01*
X72179Y-65520D01*
X72205Y-65459D01*
X72205Y-65357D01*
X72250Y-65357D01*
X72550Y-65357D01*
X72584Y-65343D01*
X72617Y-65357D01*
X72683Y-65357D01*
X72983Y-65357D01*
X73017Y-65343D01*
X73050Y-65357D01*
X73116Y-65357D01*
X73416Y-65357D01*
X73450Y-65343D01*
X73483Y-65357D01*
X73550Y-65357D01*
X73615Y-65357D01*
X73657Y-65315D01*
X73657Y-64899D01*
X73649Y-64899D01*
X73649Y-64880D01*
X73657Y-64880D01*
X73657Y-64872D01*
X73676Y-64872D01*
X73676Y-64880D01*
X73684Y-64880D01*
X73684Y-64899D01*
X73676Y-64899D01*
X73676Y-65315D01*
X73718Y-65357D01*
X73783Y-65357D01*
X73788Y-65357D01*
X73757Y-65431D01*
X73757Y-65567D01*
X73809Y-65693D01*
X73897Y-65781D01*
X73897Y-65781D01*
G37*
G54D26*
X73897Y-65781D02*
X71789Y-65781D01*
X71598Y-65591D01*
X71604Y-65593D01*
X71670Y-65593D01*
X71786Y-65593D01*
X71827Y-65551D01*
X71827Y-65136D01*
X71512Y-65136D01*
X71470Y-65177D01*
X71470Y-65459D01*
X71473Y-65465D01*
X71326Y-65318D01*
X71395Y-65249D01*
X71467Y-65077D01*
X71467Y-64891D01*
X71396Y-64719D01*
X71344Y-64667D01*
X71584Y-64667D01*
X71542Y-64684D01*
X71495Y-64731D01*
X71470Y-64793D01*
X71470Y-65074D01*
X71512Y-65116D01*
X71827Y-65116D01*
X71827Y-65108D01*
X71847Y-65108D01*
X71847Y-65116D01*
X71855Y-65116D01*
X71855Y-65136D01*
X71847Y-65136D01*
X71847Y-65551D01*
X71889Y-65593D01*
X72004Y-65593D01*
X72071Y-65593D01*
X72132Y-65567D01*
X72179Y-65520D01*
X72205Y-65459D01*
X72205Y-65357D01*
X72250Y-65357D01*
X72550Y-65357D01*
X72584Y-65343D01*
X72617Y-65357D01*
X72683Y-65357D01*
X72983Y-65357D01*
X73017Y-65343D01*
X73050Y-65357D01*
X73116Y-65357D01*
X73416Y-65357D01*
X73450Y-65343D01*
X73483Y-65357D01*
X73550Y-65357D01*
X73615Y-65357D01*
X73657Y-65315D01*
X73657Y-64899D01*
X73649Y-64899D01*
X73649Y-64880D01*
X73657Y-64880D01*
X73657Y-64872D01*
X73676Y-64872D01*
X73676Y-64880D01*
X73684Y-64880D01*
X73684Y-64899D01*
X73676Y-64899D01*
X73676Y-65315D01*
X73718Y-65357D01*
X73783Y-65357D01*
X73788Y-65357D01*
X73757Y-65431D01*
X73757Y-65567D01*
X73809Y-65693D01*
X73897Y-65781D01*
G54D10*
G36*
X75007Y-63361D02*
X74955Y-63383D01*
X74908Y-63430D01*
X74882Y-63491D01*
X74882Y-63558D01*
X74882Y-64108D01*
X74892Y-64132D01*
X74750Y-64132D01*
X74666Y-64149D01*
X74596Y-64196D01*
X74596Y-64196D01*
X74379Y-64413D01*
X74373Y-64422D01*
X74349Y-64422D01*
X74316Y-64436D01*
X74283Y-64422D01*
X74216Y-64422D01*
X73916Y-64422D01*
X73883Y-64436D01*
X73850Y-64422D01*
X73784Y-64422D01*
X73853Y-64353D01*
X73853Y-64353D01*
X73853Y-64353D01*
X73900Y-64283D01*
X73900Y-64283D01*
X73917Y-64200D01*
X73917Y-64200D01*
X73917Y-64167D01*
X73983Y-64167D01*
X74055Y-64240D01*
X74181Y-64292D01*
X74317Y-64292D01*
X74443Y-64240D01*
X74540Y-64144D01*
X74592Y-64018D01*
X74592Y-63882D01*
X74540Y-63756D01*
X74444Y-63659D01*
X74318Y-63607D01*
X74182Y-63607D01*
X74056Y-63659D01*
X73983Y-63732D01*
X73800Y-63732D01*
X73790Y-63732D01*
X73753Y-63696D01*
X73683Y-63649D01*
X73600Y-63632D01*
X72950Y-63632D01*
X72940Y-63634D01*
X72930Y-63633D01*
X72720Y-63652D01*
X72044Y-63652D01*
X71867Y-63576D01*
X71867Y-63000D01*
X71850Y-62916D01*
X71850Y-62916D01*
X71803Y-62846D01*
X71623Y-62666D01*
X72652Y-62659D01*
X72652Y-63073D01*
X72678Y-63134D01*
X72725Y-63181D01*
X72786Y-63207D01*
X72853Y-63207D01*
X73453Y-63207D01*
X73514Y-63181D01*
X73561Y-63134D01*
X73587Y-63073D01*
X73587Y-63006D01*
X73587Y-62406D01*
X73561Y-62345D01*
X73514Y-62298D01*
X73453Y-62272D01*
X73386Y-62272D01*
X73255Y-62272D01*
X73201Y-62237D01*
X73118Y-62221D01*
X71717Y-62231D01*
X71717Y-61750D01*
X71700Y-61666D01*
X71700Y-61666D01*
X71653Y-61596D01*
X71403Y-61346D01*
X71340Y-61304D01*
X71340Y-61304D01*
X71395Y-61249D01*
X71415Y-61201D01*
X73343Y-61201D01*
X73596Y-61453D01*
X73666Y-61500D01*
X73666Y-61500D01*
X73750Y-61517D01*
X74592Y-61517D01*
X74592Y-61533D01*
X74592Y-62133D01*
X74618Y-62194D01*
X74665Y-62241D01*
X74726Y-62267D01*
X74793Y-62267D01*
X75007Y-62267D01*
X75007Y-63361D01*
X75007Y-63361D01*
G37*
G54D26*
X75007Y-63361D02*
X74955Y-63383D01*
X74908Y-63430D01*
X74882Y-63491D01*
X74882Y-63558D01*
X74882Y-64108D01*
X74892Y-64132D01*
X74750Y-64132D01*
X74666Y-64149D01*
X74596Y-64196D01*
X74596Y-64196D01*
X74379Y-64413D01*
X74373Y-64422D01*
X74349Y-64422D01*
X74316Y-64436D01*
X74283Y-64422D01*
X74216Y-64422D01*
X73916Y-64422D01*
X73883Y-64436D01*
X73850Y-64422D01*
X73784Y-64422D01*
X73853Y-64353D01*
X73853Y-64353D01*
X73853Y-64353D01*
X73900Y-64283D01*
X73900Y-64283D01*
X73917Y-64200D01*
X73917Y-64200D01*
X73917Y-64167D01*
X73983Y-64167D01*
X74055Y-64240D01*
X74181Y-64292D01*
X74317Y-64292D01*
X74443Y-64240D01*
X74540Y-64144D01*
X74592Y-64018D01*
X74592Y-63882D01*
X74540Y-63756D01*
X74444Y-63659D01*
X74318Y-63607D01*
X74182Y-63607D01*
X74056Y-63659D01*
X73983Y-63732D01*
X73800Y-63732D01*
X73790Y-63732D01*
X73753Y-63696D01*
X73683Y-63649D01*
X73600Y-63632D01*
X72950Y-63632D01*
X72940Y-63634D01*
X72930Y-63633D01*
X72720Y-63652D01*
X72044Y-63652D01*
X71867Y-63576D01*
X71867Y-63000D01*
X71850Y-62916D01*
X71850Y-62916D01*
X71803Y-62846D01*
X71623Y-62666D01*
X72652Y-62659D01*
X72652Y-63073D01*
X72678Y-63134D01*
X72725Y-63181D01*
X72786Y-63207D01*
X72853Y-63207D01*
X73453Y-63207D01*
X73514Y-63181D01*
X73561Y-63134D01*
X73587Y-63073D01*
X73587Y-63006D01*
X73587Y-62406D01*
X73561Y-62345D01*
X73514Y-62298D01*
X73453Y-62272D01*
X73386Y-62272D01*
X73255Y-62272D01*
X73201Y-62237D01*
X73118Y-62221D01*
X71717Y-62231D01*
X71717Y-61750D01*
X71700Y-61666D01*
X71700Y-61666D01*
X71653Y-61596D01*
X71403Y-61346D01*
X71340Y-61304D01*
X71340Y-61304D01*
X71395Y-61249D01*
X71415Y-61201D01*
X73343Y-61201D01*
X73596Y-61453D01*
X73666Y-61500D01*
X73666Y-61500D01*
X73750Y-61517D01*
X74592Y-61517D01*
X74592Y-61533D01*
X74592Y-62133D01*
X74618Y-62194D01*
X74665Y-62241D01*
X74726Y-62267D01*
X74793Y-62267D01*
X75007Y-62267D01*
X75007Y-63361D01*
G54D10*
G36*
X76845Y-59946D02*
X76356Y-60435D01*
X76325Y-60404D01*
X76153Y-60332D01*
X75967Y-60332D01*
X75795Y-60403D01*
X75664Y-60534D01*
X75592Y-60706D01*
X75592Y-60892D01*
X75663Y-61064D01*
X75681Y-61082D01*
X75422Y-61082D01*
X75451Y-61072D01*
X75525Y-60901D01*
X75528Y-60715D01*
X75461Y-60542D01*
X75451Y-60527D01*
X75374Y-60499D01*
X75360Y-60513D01*
X75360Y-60485D01*
X75332Y-60408D01*
X75161Y-60334D01*
X74975Y-60331D01*
X74802Y-60398D01*
X74787Y-60408D01*
X74759Y-60485D01*
X75060Y-60786D01*
X75360Y-60485D01*
X75360Y-60513D01*
X75073Y-60800D01*
X75079Y-60805D01*
X75065Y-60819D01*
X75060Y-60813D01*
X75054Y-60819D01*
X75040Y-60805D01*
X75046Y-60800D01*
X74745Y-60499D01*
X74668Y-60527D01*
X74594Y-60698D01*
X74591Y-60884D01*
X74658Y-61057D01*
X74668Y-61072D01*
X74697Y-61082D01*
X73840Y-61082D01*
X73587Y-60830D01*
X73517Y-60783D01*
X73434Y-60766D01*
X71415Y-60766D01*
X71396Y-60719D01*
X71265Y-60588D01*
X71093Y-60516D01*
X70907Y-60516D01*
X70735Y-60587D01*
X70604Y-60718D01*
X70532Y-60890D01*
X70532Y-61076D01*
X70603Y-61248D01*
X70637Y-61282D01*
X70467Y-61282D01*
X70467Y-61250D01*
X70467Y-60650D01*
X70441Y-60589D01*
X70394Y-60542D01*
X70333Y-60516D01*
X70266Y-60516D01*
X69666Y-60516D01*
X69646Y-60524D01*
X69646Y-59946D01*
X76845Y-59946D01*
X76845Y-59946D01*
G37*
G54D26*
X76845Y-59946D02*
X76356Y-60435D01*
X76325Y-60404D01*
X76153Y-60332D01*
X75967Y-60332D01*
X75795Y-60403D01*
X75664Y-60534D01*
X75592Y-60706D01*
X75592Y-60892D01*
X75663Y-61064D01*
X75681Y-61082D01*
X75422Y-61082D01*
X75451Y-61072D01*
X75525Y-60901D01*
X75528Y-60715D01*
X75461Y-60542D01*
X75451Y-60527D01*
X75374Y-60499D01*
X75360Y-60513D01*
X75360Y-60485D01*
X75332Y-60408D01*
X75161Y-60334D01*
X74975Y-60331D01*
X74802Y-60398D01*
X74787Y-60408D01*
X74759Y-60485D01*
X75060Y-60786D01*
X75360Y-60485D01*
X75360Y-60513D01*
X75073Y-60800D01*
X75079Y-60805D01*
X75065Y-60819D01*
X75060Y-60813D01*
X75054Y-60819D01*
X75040Y-60805D01*
X75046Y-60800D01*
X74745Y-60499D01*
X74668Y-60527D01*
X74594Y-60698D01*
X74591Y-60884D01*
X74658Y-61057D01*
X74668Y-61072D01*
X74697Y-61082D01*
X73840Y-61082D01*
X73587Y-60830D01*
X73517Y-60783D01*
X73434Y-60766D01*
X71415Y-60766D01*
X71396Y-60719D01*
X71265Y-60588D01*
X71093Y-60516D01*
X70907Y-60516D01*
X70735Y-60587D01*
X70604Y-60718D01*
X70532Y-60890D01*
X70532Y-61076D01*
X70603Y-61248D01*
X70637Y-61282D01*
X70467Y-61282D01*
X70467Y-61250D01*
X70467Y-60650D01*
X70441Y-60589D01*
X70394Y-60542D01*
X70333Y-60516D01*
X70266Y-60516D01*
X69666Y-60516D01*
X69646Y-60524D01*
X69646Y-59946D01*
X76845Y-59946D01*
G54D10*
G36*
X77689Y-64200D02*
X77686Y-64207D01*
X77403Y-64207D01*
X77403Y-64161D01*
X77403Y-63809D01*
X77051Y-63809D01*
X77009Y-63851D01*
X77009Y-64002D01*
X77009Y-64069D01*
X77035Y-64130D01*
X77082Y-64177D01*
X77143Y-64203D01*
X77361Y-64203D01*
X77403Y-64161D01*
X77403Y-64207D01*
X76900Y-64207D01*
X76816Y-64224D01*
X76746Y-64271D01*
X76712Y-64305D01*
X76610Y-64203D01*
X76856Y-64203D01*
X76917Y-64177D01*
X76964Y-64130D01*
X76990Y-64069D01*
X76990Y-64002D01*
X76990Y-63530D01*
X76964Y-63469D01*
X76917Y-63422D01*
X76856Y-63396D01*
X76789Y-63396D01*
X76317Y-63396D01*
X76275Y-63414D01*
X76244Y-63383D01*
X76183Y-63357D01*
X76116Y-63357D01*
X75766Y-63357D01*
X75705Y-63383D01*
X75658Y-63430D01*
X75632Y-63491D01*
X75632Y-63558D01*
X75632Y-64108D01*
X75642Y-64132D01*
X75557Y-64132D01*
X75567Y-64108D01*
X75567Y-64041D01*
X75567Y-63491D01*
X75541Y-63430D01*
X75494Y-63383D01*
X75442Y-63361D01*
X75442Y-62247D01*
X75454Y-62241D01*
X75501Y-62194D01*
X75527Y-62133D01*
X75527Y-62066D01*
X75527Y-61517D01*
X75681Y-61517D01*
X75664Y-61534D01*
X75592Y-61706D01*
X75592Y-61892D01*
X75663Y-62064D01*
X75794Y-62195D01*
X75966Y-62267D01*
X76152Y-62267D01*
X76324Y-62196D01*
X76382Y-62138D01*
X76382Y-62200D01*
X76399Y-62283D01*
X76446Y-62353D01*
X76596Y-62503D01*
X76666Y-62550D01*
X76666Y-62550D01*
X76750Y-62567D01*
X77059Y-62567D01*
X77132Y-62640D01*
X77132Y-63100D01*
X77149Y-63183D01*
X77196Y-63253D01*
X77339Y-63396D01*
X77143Y-63396D01*
X77082Y-63422D01*
X77035Y-63469D01*
X77009Y-63530D01*
X77009Y-63597D01*
X77009Y-63748D01*
X77051Y-63790D01*
X77403Y-63790D01*
X77403Y-63782D01*
X77422Y-63782D01*
X77422Y-63790D01*
X77430Y-63790D01*
X77430Y-63809D01*
X77422Y-63809D01*
X77422Y-64161D01*
X77464Y-64203D01*
X77682Y-64203D01*
X77689Y-64200D01*
X77689Y-64200D01*
G37*
G54D26*
X77689Y-64200D02*
X77686Y-64207D01*
X77403Y-64207D01*
X77403Y-64161D01*
X77403Y-63809D01*
X77051Y-63809D01*
X77009Y-63851D01*
X77009Y-64002D01*
X77009Y-64069D01*
X77035Y-64130D01*
X77082Y-64177D01*
X77143Y-64203D01*
X77361Y-64203D01*
X77403Y-64161D01*
X77403Y-64207D01*
X76900Y-64207D01*
X76816Y-64224D01*
X76746Y-64271D01*
X76712Y-64305D01*
X76610Y-64203D01*
X76856Y-64203D01*
X76917Y-64177D01*
X76964Y-64130D01*
X76990Y-64069D01*
X76990Y-64002D01*
X76990Y-63530D01*
X76964Y-63469D01*
X76917Y-63422D01*
X76856Y-63396D01*
X76789Y-63396D01*
X76317Y-63396D01*
X76275Y-63414D01*
X76244Y-63383D01*
X76183Y-63357D01*
X76116Y-63357D01*
X75766Y-63357D01*
X75705Y-63383D01*
X75658Y-63430D01*
X75632Y-63491D01*
X75632Y-63558D01*
X75632Y-64108D01*
X75642Y-64132D01*
X75557Y-64132D01*
X75567Y-64108D01*
X75567Y-64041D01*
X75567Y-63491D01*
X75541Y-63430D01*
X75494Y-63383D01*
X75442Y-63361D01*
X75442Y-62247D01*
X75454Y-62241D01*
X75501Y-62194D01*
X75527Y-62133D01*
X75527Y-62066D01*
X75527Y-61517D01*
X75681Y-61517D01*
X75664Y-61534D01*
X75592Y-61706D01*
X75592Y-61892D01*
X75663Y-62064D01*
X75794Y-62195D01*
X75966Y-62267D01*
X76152Y-62267D01*
X76324Y-62196D01*
X76382Y-62138D01*
X76382Y-62200D01*
X76399Y-62283D01*
X76446Y-62353D01*
X76596Y-62503D01*
X76666Y-62550D01*
X76666Y-62550D01*
X76750Y-62567D01*
X77059Y-62567D01*
X77132Y-62640D01*
X77132Y-63100D01*
X77149Y-63183D01*
X77196Y-63253D01*
X77339Y-63396D01*
X77143Y-63396D01*
X77082Y-63422D01*
X77035Y-63469D01*
X77009Y-63530D01*
X77009Y-63597D01*
X77009Y-63748D01*
X77051Y-63790D01*
X77403Y-63790D01*
X77403Y-63782D01*
X77422Y-63782D01*
X77422Y-63790D01*
X77430Y-63790D01*
X77430Y-63809D01*
X77422Y-63809D01*
X77422Y-64161D01*
X77464Y-64203D01*
X77682Y-64203D01*
X77689Y-64200D01*
G54D10*
G36*
X78852Y-70303D02*
X78027Y-70303D01*
X78027Y-69499D01*
X78027Y-68983D01*
X77611Y-68983D01*
X77569Y-69025D01*
X77569Y-69406D01*
X77595Y-69468D01*
X77642Y-69515D01*
X77703Y-69541D01*
X77770Y-69541D01*
X77985Y-69541D01*
X78027Y-69499D01*
X78027Y-70303D01*
X76568Y-70303D01*
X76568Y-69113D01*
X76516Y-68987D01*
X76420Y-68891D01*
X76294Y-68839D01*
X76158Y-68838D01*
X76032Y-68890D01*
X75935Y-68987D01*
X75883Y-69112D01*
X75883Y-69249D01*
X75935Y-69374D01*
X76031Y-69471D01*
X76157Y-69523D01*
X76293Y-69523D01*
X76419Y-69471D01*
X76516Y-69375D01*
X76568Y-69249D01*
X76568Y-69113D01*
X76568Y-70303D01*
X75042Y-70303D01*
X75042Y-66582D01*
X74990Y-66456D01*
X74894Y-66359D01*
X74768Y-66307D01*
X74632Y-66307D01*
X74506Y-66359D01*
X74409Y-66455D01*
X74357Y-66581D01*
X74357Y-66697D01*
X73246Y-67766D01*
X71467Y-67766D01*
X71467Y-66891D01*
X71396Y-66719D01*
X71265Y-66588D01*
X71093Y-66516D01*
X70907Y-66516D01*
X70735Y-66587D01*
X70604Y-66718D01*
X70532Y-66890D01*
X70532Y-67076D01*
X70603Y-67248D01*
X70734Y-67379D01*
X70906Y-67451D01*
X71092Y-67451D01*
X71264Y-67380D01*
X71395Y-67249D01*
X71467Y-67077D01*
X71467Y-66891D01*
X71467Y-67766D01*
X71415Y-67766D01*
X71396Y-67719D01*
X71265Y-67588D01*
X71093Y-67516D01*
X70907Y-67516D01*
X70735Y-67587D01*
X70604Y-67718D01*
X70532Y-67890D01*
X70532Y-68076D01*
X70603Y-68248D01*
X70734Y-68379D01*
X70906Y-68451D01*
X71092Y-68451D01*
X71264Y-68380D01*
X71395Y-68249D01*
X71415Y-68201D01*
X73334Y-68201D01*
X73373Y-68193D01*
X73413Y-68186D01*
X73415Y-68185D01*
X73417Y-68184D01*
X73450Y-68162D01*
X73484Y-68140D01*
X74677Y-66992D01*
X74767Y-66992D01*
X74893Y-66940D01*
X74990Y-66844D01*
X75042Y-66718D01*
X75042Y-66582D01*
X75042Y-70303D01*
X73418Y-70303D01*
X73418Y-69113D01*
X73366Y-68987D01*
X73270Y-68891D01*
X73144Y-68839D01*
X73008Y-68838D01*
X72882Y-68890D01*
X72786Y-68987D01*
X72734Y-69112D01*
X72733Y-69249D01*
X72786Y-69374D01*
X72882Y-69471D01*
X73007Y-69523D01*
X73144Y-69523D01*
X73270Y-69471D01*
X73366Y-69375D01*
X73418Y-69249D01*
X73418Y-69113D01*
X73418Y-70303D01*
X72441Y-70303D01*
X72441Y-69406D01*
X72441Y-68540D01*
X72415Y-68479D01*
X72368Y-68432D01*
X72307Y-68406D01*
X72240Y-68406D01*
X72025Y-68406D01*
X71983Y-68448D01*
X71983Y-68964D01*
X72399Y-68964D01*
X72441Y-68922D01*
X72441Y-68540D01*
X72441Y-69406D01*
X72441Y-69025D01*
X72399Y-68983D01*
X71983Y-68983D01*
X71983Y-69499D01*
X72025Y-69541D01*
X72240Y-69541D01*
X72307Y-69541D01*
X72368Y-69515D01*
X72415Y-69468D01*
X72441Y-69406D01*
X72441Y-70303D01*
X71964Y-70303D01*
X71964Y-69499D01*
X71964Y-68983D01*
X71964Y-68964D01*
X71964Y-68448D01*
X71922Y-68406D01*
X71707Y-68406D01*
X71640Y-68406D01*
X71579Y-68432D01*
X71532Y-68479D01*
X71506Y-68540D01*
X71506Y-68922D01*
X71548Y-68964D01*
X71964Y-68964D01*
X71964Y-68983D01*
X71548Y-68983D01*
X71506Y-69025D01*
X71506Y-69406D01*
X71532Y-69468D01*
X71579Y-69515D01*
X71640Y-69541D01*
X71707Y-69541D01*
X71922Y-69541D01*
X71964Y-69499D01*
X71964Y-70303D01*
X71341Y-70303D01*
X71395Y-70249D01*
X71467Y-70077D01*
X71467Y-69891D01*
X71467Y-68891D01*
X71396Y-68719D01*
X71265Y-68588D01*
X71093Y-68516D01*
X70907Y-68516D01*
X70735Y-68587D01*
X70604Y-68718D01*
X70532Y-68890D01*
X70532Y-69076D01*
X70603Y-69248D01*
X70734Y-69379D01*
X70906Y-69451D01*
X71092Y-69451D01*
X71264Y-69380D01*
X71395Y-69249D01*
X71467Y-69077D01*
X71467Y-68891D01*
X71467Y-69891D01*
X71396Y-69719D01*
X71265Y-69588D01*
X71093Y-69516D01*
X70907Y-69516D01*
X70735Y-69587D01*
X70604Y-69718D01*
X70532Y-69890D01*
X70532Y-70076D01*
X70603Y-70248D01*
X70658Y-70303D01*
X70341Y-70303D01*
X70395Y-70249D01*
X70467Y-70077D01*
X70467Y-69891D01*
X70396Y-69719D01*
X70265Y-69588D01*
X70093Y-69516D01*
X69907Y-69516D01*
X69735Y-69587D01*
X69646Y-69676D01*
X69646Y-69291D01*
X69734Y-69379D01*
X69906Y-69451D01*
X70092Y-69451D01*
X70264Y-69380D01*
X70395Y-69249D01*
X70467Y-69077D01*
X70467Y-68891D01*
X70396Y-68719D01*
X70265Y-68588D01*
X70093Y-68516D01*
X69907Y-68516D01*
X69735Y-68587D01*
X69646Y-68676D01*
X69646Y-68291D01*
X69734Y-68379D01*
X69906Y-68451D01*
X70092Y-68451D01*
X70264Y-68380D01*
X70395Y-68249D01*
X70467Y-68077D01*
X70467Y-67891D01*
X70396Y-67719D01*
X70265Y-67588D01*
X70093Y-67516D01*
X69907Y-67516D01*
X69735Y-67587D01*
X69646Y-67676D01*
X69646Y-67291D01*
X69734Y-67379D01*
X69906Y-67451D01*
X70092Y-67451D01*
X70264Y-67380D01*
X70395Y-67249D01*
X70467Y-67077D01*
X70467Y-66891D01*
X70396Y-66719D01*
X70265Y-66588D01*
X70093Y-66516D01*
X69907Y-66516D01*
X69735Y-66587D01*
X69646Y-66676D01*
X69646Y-66291D01*
X69734Y-66379D01*
X69906Y-66451D01*
X70092Y-66451D01*
X70264Y-66380D01*
X70395Y-66249D01*
X70467Y-66077D01*
X70467Y-65891D01*
X70396Y-65719D01*
X70265Y-65588D01*
X70093Y-65516D01*
X69907Y-65516D01*
X69735Y-65587D01*
X69646Y-65676D01*
X69646Y-65291D01*
X69734Y-65379D01*
X69906Y-65451D01*
X70092Y-65451D01*
X70264Y-65380D01*
X70395Y-65249D01*
X70467Y-65077D01*
X70467Y-64891D01*
X70396Y-64719D01*
X70265Y-64588D01*
X70093Y-64516D01*
X69907Y-64516D01*
X69735Y-64587D01*
X69646Y-64676D01*
X69646Y-64291D01*
X69734Y-64379D01*
X69906Y-64451D01*
X70092Y-64451D01*
X70264Y-64380D01*
X70293Y-64351D01*
X70546Y-64603D01*
X70546Y-64603D01*
X70616Y-64650D01*
X70616Y-64650D01*
X70663Y-64659D01*
X70604Y-64718D01*
X70532Y-64890D01*
X70532Y-65076D01*
X70603Y-65248D01*
X70734Y-65379D01*
X70820Y-65415D01*
X70846Y-65453D01*
X70909Y-65516D01*
X70907Y-65516D01*
X70735Y-65587D01*
X70604Y-65718D01*
X70532Y-65890D01*
X70532Y-66076D01*
X70603Y-66248D01*
X70734Y-66379D01*
X70906Y-66451D01*
X71092Y-66451D01*
X71264Y-66380D01*
X71395Y-66249D01*
X71467Y-66077D01*
X71467Y-66074D01*
X71545Y-66152D01*
X71616Y-66199D01*
X71616Y-66199D01*
X71699Y-66216D01*
X75181Y-66216D01*
X75181Y-66549D01*
X75198Y-66632D01*
X75245Y-66702D01*
X75646Y-67103D01*
X75716Y-67150D01*
X75716Y-67150D01*
X75800Y-67167D01*
X76633Y-67167D01*
X76705Y-67240D01*
X76831Y-67292D01*
X76967Y-67292D01*
X77093Y-67240D01*
X77190Y-67144D01*
X77242Y-67018D01*
X77242Y-66882D01*
X77190Y-66756D01*
X77094Y-66659D01*
X76968Y-66607D01*
X76832Y-66607D01*
X76706Y-66659D01*
X76633Y-66732D01*
X75890Y-66732D01*
X75616Y-66459D01*
X75616Y-65999D01*
X75616Y-65343D01*
X75648Y-65357D01*
X75715Y-65357D01*
X76015Y-65357D01*
X76076Y-65331D01*
X76124Y-65284D01*
X76149Y-65223D01*
X76149Y-65156D01*
X76149Y-64567D01*
X76359Y-64567D01*
X76558Y-64766D01*
X76558Y-64766D01*
X76732Y-64940D01*
X76732Y-65300D01*
X76749Y-65383D01*
X76796Y-65453D01*
X77359Y-66016D01*
X77256Y-66059D01*
X77183Y-66132D01*
X76351Y-66132D01*
X76340Y-66106D01*
X76244Y-66009D01*
X76118Y-65957D01*
X75982Y-65957D01*
X75856Y-66009D01*
X75759Y-66105D01*
X75707Y-66231D01*
X75707Y-66367D01*
X75759Y-66493D01*
X75855Y-66590D01*
X75981Y-66642D01*
X76117Y-66642D01*
X76243Y-66590D01*
X76266Y-66567D01*
X77183Y-66567D01*
X77255Y-66640D01*
X77381Y-66692D01*
X77517Y-66692D01*
X77643Y-66640D01*
X77740Y-66544D01*
X77782Y-66441D01*
X77782Y-67075D01*
X77782Y-67900D01*
X77782Y-68300D01*
X77799Y-68383D01*
X77814Y-68406D01*
X77770Y-68406D01*
X77703Y-68406D01*
X77642Y-68432D01*
X77595Y-68479D01*
X77569Y-68540D01*
X77569Y-68922D01*
X77611Y-68964D01*
X78027Y-68964D01*
X78027Y-68956D01*
X78046Y-68956D01*
X78046Y-68964D01*
X78054Y-68964D01*
X78054Y-68983D01*
X78046Y-68983D01*
X78046Y-69499D01*
X78088Y-69541D01*
X78303Y-69541D01*
X78370Y-69541D01*
X78423Y-69519D01*
X78446Y-69553D01*
X78652Y-69759D01*
X78632Y-69806D01*
X78632Y-69992D01*
X78703Y-70164D01*
X78834Y-70295D01*
X78852Y-70303D01*
X78852Y-70303D01*
G37*
G54D26*
X78852Y-70303D02*
X78027Y-70303D01*
X78027Y-69499D01*
X78027Y-68983D01*
X77611Y-68983D01*
X77569Y-69025D01*
X77569Y-69406D01*
X77595Y-69468D01*
X77642Y-69515D01*
X77703Y-69541D01*
X77770Y-69541D01*
X77985Y-69541D01*
X78027Y-69499D01*
X78027Y-70303D01*
X76568Y-70303D01*
X76568Y-69113D01*
X76516Y-68987D01*
X76420Y-68891D01*
X76294Y-68839D01*
X76158Y-68838D01*
X76032Y-68890D01*
X75935Y-68987D01*
X75883Y-69112D01*
X75883Y-69249D01*
X75935Y-69374D01*
X76031Y-69471D01*
X76157Y-69523D01*
X76293Y-69523D01*
X76419Y-69471D01*
X76516Y-69375D01*
X76568Y-69249D01*
X76568Y-69113D01*
X76568Y-70303D01*
X75042Y-70303D01*
X75042Y-66582D01*
X74990Y-66456D01*
X74894Y-66359D01*
X74768Y-66307D01*
X74632Y-66307D01*
X74506Y-66359D01*
X74409Y-66455D01*
X74357Y-66581D01*
X74357Y-66697D01*
X73246Y-67766D01*
X71467Y-67766D01*
X71467Y-66891D01*
X71396Y-66719D01*
X71265Y-66588D01*
X71093Y-66516D01*
X70907Y-66516D01*
X70735Y-66587D01*
X70604Y-66718D01*
X70532Y-66890D01*
X70532Y-67076D01*
X70603Y-67248D01*
X70734Y-67379D01*
X70906Y-67451D01*
X71092Y-67451D01*
X71264Y-67380D01*
X71395Y-67249D01*
X71467Y-67077D01*
X71467Y-66891D01*
X71467Y-67766D01*
X71415Y-67766D01*
X71396Y-67719D01*
X71265Y-67588D01*
X71093Y-67516D01*
X70907Y-67516D01*
X70735Y-67587D01*
X70604Y-67718D01*
X70532Y-67890D01*
X70532Y-68076D01*
X70603Y-68248D01*
X70734Y-68379D01*
X70906Y-68451D01*
X71092Y-68451D01*
X71264Y-68380D01*
X71395Y-68249D01*
X71415Y-68201D01*
X73334Y-68201D01*
X73373Y-68193D01*
X73413Y-68186D01*
X73415Y-68185D01*
X73417Y-68184D01*
X73450Y-68162D01*
X73484Y-68140D01*
X74677Y-66992D01*
X74767Y-66992D01*
X74893Y-66940D01*
X74990Y-66844D01*
X75042Y-66718D01*
X75042Y-66582D01*
X75042Y-70303D01*
X73418Y-70303D01*
X73418Y-69113D01*
X73366Y-68987D01*
X73270Y-68891D01*
X73144Y-68839D01*
X73008Y-68838D01*
X72882Y-68890D01*
X72786Y-68987D01*
X72734Y-69112D01*
X72733Y-69249D01*
X72786Y-69374D01*
X72882Y-69471D01*
X73007Y-69523D01*
X73144Y-69523D01*
X73270Y-69471D01*
X73366Y-69375D01*
X73418Y-69249D01*
X73418Y-69113D01*
X73418Y-70303D01*
X72441Y-70303D01*
X72441Y-69406D01*
X72441Y-68540D01*
X72415Y-68479D01*
X72368Y-68432D01*
X72307Y-68406D01*
X72240Y-68406D01*
X72025Y-68406D01*
X71983Y-68448D01*
X71983Y-68964D01*
X72399Y-68964D01*
X72441Y-68922D01*
X72441Y-68540D01*
X72441Y-69406D01*
X72441Y-69025D01*
X72399Y-68983D01*
X71983Y-68983D01*
X71983Y-69499D01*
X72025Y-69541D01*
X72240Y-69541D01*
X72307Y-69541D01*
X72368Y-69515D01*
X72415Y-69468D01*
X72441Y-69406D01*
X72441Y-70303D01*
X71964Y-70303D01*
X71964Y-69499D01*
X71964Y-68983D01*
X71964Y-68964D01*
X71964Y-68448D01*
X71922Y-68406D01*
X71707Y-68406D01*
X71640Y-68406D01*
X71579Y-68432D01*
X71532Y-68479D01*
X71506Y-68540D01*
X71506Y-68922D01*
X71548Y-68964D01*
X71964Y-68964D01*
X71964Y-68983D01*
X71548Y-68983D01*
X71506Y-69025D01*
X71506Y-69406D01*
X71532Y-69468D01*
X71579Y-69515D01*
X71640Y-69541D01*
X71707Y-69541D01*
X71922Y-69541D01*
X71964Y-69499D01*
X71964Y-70303D01*
X71341Y-70303D01*
X71395Y-70249D01*
X71467Y-70077D01*
X71467Y-69891D01*
X71467Y-68891D01*
X71396Y-68719D01*
X71265Y-68588D01*
X71093Y-68516D01*
X70907Y-68516D01*
X70735Y-68587D01*
X70604Y-68718D01*
X70532Y-68890D01*
X70532Y-69076D01*
X70603Y-69248D01*
X70734Y-69379D01*
X70906Y-69451D01*
X71092Y-69451D01*
X71264Y-69380D01*
X71395Y-69249D01*
X71467Y-69077D01*
X71467Y-68891D01*
X71467Y-69891D01*
X71396Y-69719D01*
X71265Y-69588D01*
X71093Y-69516D01*
X70907Y-69516D01*
X70735Y-69587D01*
X70604Y-69718D01*
X70532Y-69890D01*
X70532Y-70076D01*
X70603Y-70248D01*
X70658Y-70303D01*
X70341Y-70303D01*
X70395Y-70249D01*
X70467Y-70077D01*
X70467Y-69891D01*
X70396Y-69719D01*
X70265Y-69588D01*
X70093Y-69516D01*
X69907Y-69516D01*
X69735Y-69587D01*
X69646Y-69676D01*
X69646Y-69291D01*
X69734Y-69379D01*
X69906Y-69451D01*
X70092Y-69451D01*
X70264Y-69380D01*
X70395Y-69249D01*
X70467Y-69077D01*
X70467Y-68891D01*
X70396Y-68719D01*
X70265Y-68588D01*
X70093Y-68516D01*
X69907Y-68516D01*
X69735Y-68587D01*
X69646Y-68676D01*
X69646Y-68291D01*
X69734Y-68379D01*
X69906Y-68451D01*
X70092Y-68451D01*
X70264Y-68380D01*
X70395Y-68249D01*
X70467Y-68077D01*
X70467Y-67891D01*
X70396Y-67719D01*
X70265Y-67588D01*
X70093Y-67516D01*
X69907Y-67516D01*
X69735Y-67587D01*
X69646Y-67676D01*
X69646Y-67291D01*
X69734Y-67379D01*
X69906Y-67451D01*
X70092Y-67451D01*
X70264Y-67380D01*
X70395Y-67249D01*
X70467Y-67077D01*
X70467Y-66891D01*
X70396Y-66719D01*
X70265Y-66588D01*
X70093Y-66516D01*
X69907Y-66516D01*
X69735Y-66587D01*
X69646Y-66676D01*
X69646Y-66291D01*
X69734Y-66379D01*
X69906Y-66451D01*
X70092Y-66451D01*
X70264Y-66380D01*
X70395Y-66249D01*
X70467Y-66077D01*
X70467Y-65891D01*
X70396Y-65719D01*
X70265Y-65588D01*
X70093Y-65516D01*
X69907Y-65516D01*
X69735Y-65587D01*
X69646Y-65676D01*
X69646Y-65291D01*
X69734Y-65379D01*
X69906Y-65451D01*
X70092Y-65451D01*
X70264Y-65380D01*
X70395Y-65249D01*
X70467Y-65077D01*
X70467Y-64891D01*
X70396Y-64719D01*
X70265Y-64588D01*
X70093Y-64516D01*
X69907Y-64516D01*
X69735Y-64587D01*
X69646Y-64676D01*
X69646Y-64291D01*
X69734Y-64379D01*
X69906Y-64451D01*
X70092Y-64451D01*
X70264Y-64380D01*
X70293Y-64351D01*
X70546Y-64603D01*
X70546Y-64603D01*
X70616Y-64650D01*
X70616Y-64650D01*
X70663Y-64659D01*
X70604Y-64718D01*
X70532Y-64890D01*
X70532Y-65076D01*
X70603Y-65248D01*
X70734Y-65379D01*
X70820Y-65415D01*
X70846Y-65453D01*
X70909Y-65516D01*
X70907Y-65516D01*
X70735Y-65587D01*
X70604Y-65718D01*
X70532Y-65890D01*
X70532Y-66076D01*
X70603Y-66248D01*
X70734Y-66379D01*
X70906Y-66451D01*
X71092Y-66451D01*
X71264Y-66380D01*
X71395Y-66249D01*
X71467Y-66077D01*
X71467Y-66074D01*
X71545Y-66152D01*
X71616Y-66199D01*
X71616Y-66199D01*
X71699Y-66216D01*
X75181Y-66216D01*
X75181Y-66549D01*
X75198Y-66632D01*
X75245Y-66702D01*
X75646Y-67103D01*
X75716Y-67150D01*
X75716Y-67150D01*
X75800Y-67167D01*
X76633Y-67167D01*
X76705Y-67240D01*
X76831Y-67292D01*
X76967Y-67292D01*
X77093Y-67240D01*
X77190Y-67144D01*
X77242Y-67018D01*
X77242Y-66882D01*
X77190Y-66756D01*
X77094Y-66659D01*
X76968Y-66607D01*
X76832Y-66607D01*
X76706Y-66659D01*
X76633Y-66732D01*
X75890Y-66732D01*
X75616Y-66459D01*
X75616Y-65999D01*
X75616Y-65343D01*
X75648Y-65357D01*
X75715Y-65357D01*
X76015Y-65357D01*
X76076Y-65331D01*
X76124Y-65284D01*
X76149Y-65223D01*
X76149Y-65156D01*
X76149Y-64567D01*
X76359Y-64567D01*
X76558Y-64766D01*
X76558Y-64766D01*
X76732Y-64940D01*
X76732Y-65300D01*
X76749Y-65383D01*
X76796Y-65453D01*
X77359Y-66016D01*
X77256Y-66059D01*
X77183Y-66132D01*
X76351Y-66132D01*
X76340Y-66106D01*
X76244Y-66009D01*
X76118Y-65957D01*
X75982Y-65957D01*
X75856Y-66009D01*
X75759Y-66105D01*
X75707Y-66231D01*
X75707Y-66367D01*
X75759Y-66493D01*
X75855Y-66590D01*
X75981Y-66642D01*
X76117Y-66642D01*
X76243Y-66590D01*
X76266Y-66567D01*
X77183Y-66567D01*
X77255Y-66640D01*
X77381Y-66692D01*
X77517Y-66692D01*
X77643Y-66640D01*
X77740Y-66544D01*
X77782Y-66441D01*
X77782Y-67075D01*
X77782Y-67900D01*
X77782Y-68300D01*
X77799Y-68383D01*
X77814Y-68406D01*
X77770Y-68406D01*
X77703Y-68406D01*
X77642Y-68432D01*
X77595Y-68479D01*
X77569Y-68540D01*
X77569Y-68922D01*
X77611Y-68964D01*
X78027Y-68964D01*
X78027Y-68956D01*
X78046Y-68956D01*
X78046Y-68964D01*
X78054Y-68964D01*
X78054Y-68983D01*
X78046Y-68983D01*
X78046Y-69499D01*
X78088Y-69541D01*
X78303Y-69541D01*
X78370Y-69541D01*
X78423Y-69519D01*
X78446Y-69553D01*
X78652Y-69759D01*
X78632Y-69806D01*
X78632Y-69992D01*
X78703Y-70164D01*
X78834Y-70295D01*
X78852Y-70303D01*
G54D10*
G36*
X80191Y-64896D02*
X80158Y-64930D01*
X80132Y-64991D01*
X80132Y-65058D01*
X80132Y-65608D01*
X80158Y-65669D01*
X80190Y-65702D01*
X80067Y-65825D01*
X80067Y-65791D01*
X80041Y-65730D01*
X80011Y-65699D01*
X80041Y-65669D01*
X80067Y-65608D01*
X80067Y-65541D01*
X80067Y-65058D01*
X80067Y-64991D01*
X80041Y-64930D01*
X79994Y-64883D01*
X79983Y-64878D01*
X80016Y-64844D01*
X80042Y-64783D01*
X80042Y-64716D01*
X80042Y-64526D01*
X80000Y-64484D01*
X79709Y-64484D01*
X79709Y-64492D01*
X79690Y-64492D01*
X79690Y-64484D01*
X79690Y-64465D01*
X79690Y-64074D01*
X79648Y-64032D01*
X79491Y-64032D01*
X79430Y-64058D01*
X79383Y-64105D01*
X79357Y-64166D01*
X79357Y-64233D01*
X79357Y-64423D01*
X79399Y-64465D01*
X79690Y-64465D01*
X79690Y-64484D01*
X79399Y-64484D01*
X79357Y-64526D01*
X79357Y-64716D01*
X79357Y-64783D01*
X79383Y-64844D01*
X79430Y-64891D01*
X79441Y-64896D01*
X79408Y-64930D01*
X79382Y-64991D01*
X79382Y-65058D01*
X79382Y-65248D01*
X79424Y-65290D01*
X79715Y-65290D01*
X79715Y-65282D01*
X79734Y-65282D01*
X79734Y-65290D01*
X80025Y-65290D01*
X80067Y-65248D01*
X80067Y-65058D01*
X80067Y-65541D01*
X80067Y-65351D01*
X80025Y-65309D01*
X79734Y-65309D01*
X79734Y-65317D01*
X79715Y-65317D01*
X79715Y-65309D01*
X79424Y-65309D01*
X79382Y-65351D01*
X79382Y-65541D01*
X79382Y-65608D01*
X79408Y-65669D01*
X79438Y-65700D01*
X79408Y-65730D01*
X79382Y-65791D01*
X79382Y-65858D01*
X79382Y-66408D01*
X79408Y-66469D01*
X79455Y-66516D01*
X79507Y-66538D01*
X79507Y-67534D01*
X79442Y-67600D01*
X79442Y-67216D01*
X79442Y-66733D01*
X79442Y-66666D01*
X79416Y-66605D01*
X79369Y-66558D01*
X79308Y-66532D01*
X79206Y-66532D01*
X79244Y-66516D01*
X79291Y-66469D01*
X79317Y-66408D01*
X79317Y-66341D01*
X79317Y-65791D01*
X79291Y-65730D01*
X79291Y-65730D01*
X79327Y-65693D01*
X79353Y-65632D01*
X79353Y-65565D01*
X79353Y-65093D01*
X79353Y-64806D01*
X79353Y-64267D01*
X79327Y-64206D01*
X79280Y-64159D01*
X79219Y-64133D01*
X79152Y-64133D01*
X79001Y-64133D01*
X78959Y-64175D01*
X78959Y-64527D01*
X79311Y-64527D01*
X79353Y-64485D01*
X79353Y-64267D01*
X79353Y-64806D01*
X79353Y-64588D01*
X79311Y-64546D01*
X78959Y-64546D01*
X78959Y-64898D01*
X79001Y-64940D01*
X79152Y-64940D01*
X79219Y-64940D01*
X79280Y-64914D01*
X79327Y-64867D01*
X79353Y-64806D01*
X79353Y-65093D01*
X79327Y-65032D01*
X79280Y-64985D01*
X79219Y-64959D01*
X79152Y-64959D01*
X78680Y-64959D01*
X78619Y-64985D01*
X78572Y-65032D01*
X78546Y-65093D01*
X78546Y-65160D01*
X78546Y-65632D01*
X78572Y-65693D01*
X78619Y-65740D01*
X78648Y-65753D01*
X78632Y-65791D01*
X78632Y-65858D01*
X78632Y-66408D01*
X78658Y-66469D01*
X78705Y-66516D01*
X78766Y-66542D01*
X78833Y-66542D01*
X78868Y-66542D01*
X78830Y-66558D01*
X78783Y-66605D01*
X78757Y-66666D01*
X78757Y-66733D01*
X78757Y-66923D01*
X78799Y-66965D01*
X79090Y-66965D01*
X79090Y-66957D01*
X79109Y-66957D01*
X79109Y-66965D01*
X79400Y-66965D01*
X79442Y-66923D01*
X79442Y-66733D01*
X79442Y-67216D01*
X79442Y-67026D01*
X79400Y-66984D01*
X79109Y-66984D01*
X79109Y-67375D01*
X79151Y-67417D01*
X79308Y-67417D01*
X79369Y-67391D01*
X79416Y-67344D01*
X79442Y-67283D01*
X79442Y-67216D01*
X79442Y-67600D01*
X79196Y-67846D01*
X79149Y-67916D01*
X79132Y-68000D01*
X79132Y-69150D01*
X79149Y-69233D01*
X79196Y-69303D01*
X79652Y-69759D01*
X79632Y-69806D01*
X79632Y-69992D01*
X79703Y-70164D01*
X79834Y-70295D01*
X79852Y-70303D01*
X79348Y-70303D01*
X79364Y-70296D01*
X79495Y-70165D01*
X79567Y-69993D01*
X79567Y-69807D01*
X79496Y-69635D01*
X79365Y-69504D01*
X79193Y-69432D01*
X79090Y-69432D01*
X79090Y-67375D01*
X79090Y-66984D01*
X78799Y-66984D01*
X78757Y-67026D01*
X78757Y-67216D01*
X78757Y-67283D01*
X78783Y-67344D01*
X78830Y-67391D01*
X78891Y-67417D01*
X79048Y-67417D01*
X79090Y-67375D01*
X79090Y-69432D01*
X79007Y-69432D01*
X78959Y-69452D01*
X78817Y-69309D01*
X78817Y-68575D01*
X78817Y-68574D01*
X78800Y-68491D01*
X78800Y-68491D01*
X78753Y-68421D01*
X78753Y-68421D01*
X78578Y-68246D01*
X78508Y-68199D01*
X78425Y-68182D01*
X78217Y-68182D01*
X78217Y-67900D01*
X78217Y-67417D01*
X78558Y-67417D01*
X78619Y-67391D01*
X78666Y-67344D01*
X78692Y-67283D01*
X78692Y-67216D01*
X78692Y-66666D01*
X78666Y-66605D01*
X78619Y-66558D01*
X78558Y-66532D01*
X78491Y-66532D01*
X78217Y-66532D01*
X78217Y-66350D01*
X78200Y-66266D01*
X78200Y-66266D01*
X78181Y-66238D01*
X78181Y-65377D01*
X78181Y-65096D01*
X78140Y-65054D01*
X77724Y-65054D01*
X77724Y-65469D01*
X77766Y-65511D01*
X77981Y-65511D01*
X78047Y-65511D01*
X78109Y-65486D01*
X78156Y-65438D01*
X78181Y-65377D01*
X78181Y-66238D01*
X78153Y-66196D01*
X77703Y-65746D01*
X77469Y-65511D01*
X77662Y-65511D01*
X77704Y-65469D01*
X77704Y-65054D01*
X77289Y-65054D01*
X77247Y-65096D01*
X77247Y-65289D01*
X77167Y-65209D01*
X77167Y-64850D01*
X77150Y-64766D01*
X77150Y-64766D01*
X77103Y-64696D01*
X77049Y-64642D01*
X77279Y-64642D01*
X77272Y-64649D01*
X77247Y-64711D01*
X77247Y-64992D01*
X77289Y-65034D01*
X77704Y-65034D01*
X77704Y-65026D01*
X77724Y-65026D01*
X77724Y-65034D01*
X78140Y-65034D01*
X78181Y-64992D01*
X78181Y-64767D01*
X78433Y-64767D01*
X78494Y-64741D01*
X78541Y-64694D01*
X78546Y-64683D01*
X78546Y-64806D01*
X78572Y-64867D01*
X78619Y-64914D01*
X78680Y-64940D01*
X78747Y-64940D01*
X78898Y-64940D01*
X78940Y-64898D01*
X78940Y-64546D01*
X78932Y-64546D01*
X78932Y-64527D01*
X78940Y-64527D01*
X78940Y-64175D01*
X78898Y-64133D01*
X78747Y-64133D01*
X78680Y-64133D01*
X78619Y-64159D01*
X78572Y-64206D01*
X78567Y-64217D01*
X78567Y-64216D01*
X78567Y-63883D01*
X78567Y-63726D01*
X78525Y-63684D01*
X78134Y-63684D01*
X78134Y-63975D01*
X78176Y-64017D01*
X78366Y-64017D01*
X78433Y-64017D01*
X78494Y-63991D01*
X78541Y-63944D01*
X78567Y-63883D01*
X78567Y-64216D01*
X78541Y-64155D01*
X78494Y-64108D01*
X78433Y-64082D01*
X78366Y-64082D01*
X77816Y-64082D01*
X77809Y-64085D01*
X77816Y-64069D01*
X77816Y-64017D01*
X77816Y-64017D01*
X77883Y-64017D01*
X78073Y-64017D01*
X78115Y-63975D01*
X78115Y-63684D01*
X78107Y-63684D01*
X78107Y-63665D01*
X78115Y-63665D01*
X78115Y-63657D01*
X78134Y-63657D01*
X78134Y-63665D01*
X78525Y-63665D01*
X78567Y-63623D01*
X78567Y-63517D01*
X79329Y-63517D01*
X79845Y-64032D01*
X79751Y-64032D01*
X79709Y-64074D01*
X79709Y-64465D01*
X80000Y-64465D01*
X80042Y-64423D01*
X80042Y-64233D01*
X80042Y-64229D01*
X80107Y-64294D01*
X80107Y-64783D01*
X80133Y-64844D01*
X80180Y-64891D01*
X80191Y-64896D01*
X80191Y-64896D01*
G37*
G54D26*
X80191Y-64896D02*
X80158Y-64930D01*
X80132Y-64991D01*
X80132Y-65058D01*
X80132Y-65608D01*
X80158Y-65669D01*
X80190Y-65702D01*
X80067Y-65825D01*
X80067Y-65791D01*
X80041Y-65730D01*
X80011Y-65699D01*
X80041Y-65669D01*
X80067Y-65608D01*
X80067Y-65541D01*
X80067Y-65058D01*
X80067Y-64991D01*
X80041Y-64930D01*
X79994Y-64883D01*
X79983Y-64878D01*
X80016Y-64844D01*
X80042Y-64783D01*
X80042Y-64716D01*
X80042Y-64526D01*
X80000Y-64484D01*
X79709Y-64484D01*
X79709Y-64492D01*
X79690Y-64492D01*
X79690Y-64484D01*
X79690Y-64465D01*
X79690Y-64074D01*
X79648Y-64032D01*
X79491Y-64032D01*
X79430Y-64058D01*
X79383Y-64105D01*
X79357Y-64166D01*
X79357Y-64233D01*
X79357Y-64423D01*
X79399Y-64465D01*
X79690Y-64465D01*
X79690Y-64484D01*
X79399Y-64484D01*
X79357Y-64526D01*
X79357Y-64716D01*
X79357Y-64783D01*
X79383Y-64844D01*
X79430Y-64891D01*
X79441Y-64896D01*
X79408Y-64930D01*
X79382Y-64991D01*
X79382Y-65058D01*
X79382Y-65248D01*
X79424Y-65290D01*
X79715Y-65290D01*
X79715Y-65282D01*
X79734Y-65282D01*
X79734Y-65290D01*
X80025Y-65290D01*
X80067Y-65248D01*
X80067Y-65058D01*
X80067Y-65541D01*
X80067Y-65351D01*
X80025Y-65309D01*
X79734Y-65309D01*
X79734Y-65317D01*
X79715Y-65317D01*
X79715Y-65309D01*
X79424Y-65309D01*
X79382Y-65351D01*
X79382Y-65541D01*
X79382Y-65608D01*
X79408Y-65669D01*
X79438Y-65700D01*
X79408Y-65730D01*
X79382Y-65791D01*
X79382Y-65858D01*
X79382Y-66408D01*
X79408Y-66469D01*
X79455Y-66516D01*
X79507Y-66538D01*
X79507Y-67534D01*
X79442Y-67600D01*
X79442Y-67216D01*
X79442Y-66733D01*
X79442Y-66666D01*
X79416Y-66605D01*
X79369Y-66558D01*
X79308Y-66532D01*
X79206Y-66532D01*
X79244Y-66516D01*
X79291Y-66469D01*
X79317Y-66408D01*
X79317Y-66341D01*
X79317Y-65791D01*
X79291Y-65730D01*
X79291Y-65730D01*
X79327Y-65693D01*
X79353Y-65632D01*
X79353Y-65565D01*
X79353Y-65093D01*
X79353Y-64806D01*
X79353Y-64267D01*
X79327Y-64206D01*
X79280Y-64159D01*
X79219Y-64133D01*
X79152Y-64133D01*
X79001Y-64133D01*
X78959Y-64175D01*
X78959Y-64527D01*
X79311Y-64527D01*
X79353Y-64485D01*
X79353Y-64267D01*
X79353Y-64806D01*
X79353Y-64588D01*
X79311Y-64546D01*
X78959Y-64546D01*
X78959Y-64898D01*
X79001Y-64940D01*
X79152Y-64940D01*
X79219Y-64940D01*
X79280Y-64914D01*
X79327Y-64867D01*
X79353Y-64806D01*
X79353Y-65093D01*
X79327Y-65032D01*
X79280Y-64985D01*
X79219Y-64959D01*
X79152Y-64959D01*
X78680Y-64959D01*
X78619Y-64985D01*
X78572Y-65032D01*
X78546Y-65093D01*
X78546Y-65160D01*
X78546Y-65632D01*
X78572Y-65693D01*
X78619Y-65740D01*
X78648Y-65753D01*
X78632Y-65791D01*
X78632Y-65858D01*
X78632Y-66408D01*
X78658Y-66469D01*
X78705Y-66516D01*
X78766Y-66542D01*
X78833Y-66542D01*
X78868Y-66542D01*
X78830Y-66558D01*
X78783Y-66605D01*
X78757Y-66666D01*
X78757Y-66733D01*
X78757Y-66923D01*
X78799Y-66965D01*
X79090Y-66965D01*
X79090Y-66957D01*
X79109Y-66957D01*
X79109Y-66965D01*
X79400Y-66965D01*
X79442Y-66923D01*
X79442Y-66733D01*
X79442Y-67216D01*
X79442Y-67026D01*
X79400Y-66984D01*
X79109Y-66984D01*
X79109Y-67375D01*
X79151Y-67417D01*
X79308Y-67417D01*
X79369Y-67391D01*
X79416Y-67344D01*
X79442Y-67283D01*
X79442Y-67216D01*
X79442Y-67600D01*
X79196Y-67846D01*
X79149Y-67916D01*
X79132Y-68000D01*
X79132Y-69150D01*
X79149Y-69233D01*
X79196Y-69303D01*
X79652Y-69759D01*
X79632Y-69806D01*
X79632Y-69992D01*
X79703Y-70164D01*
X79834Y-70295D01*
X79852Y-70303D01*
X79348Y-70303D01*
X79364Y-70296D01*
X79495Y-70165D01*
X79567Y-69993D01*
X79567Y-69807D01*
X79496Y-69635D01*
X79365Y-69504D01*
X79193Y-69432D01*
X79090Y-69432D01*
X79090Y-67375D01*
X79090Y-66984D01*
X78799Y-66984D01*
X78757Y-67026D01*
X78757Y-67216D01*
X78757Y-67283D01*
X78783Y-67344D01*
X78830Y-67391D01*
X78891Y-67417D01*
X79048Y-67417D01*
X79090Y-67375D01*
X79090Y-69432D01*
X79007Y-69432D01*
X78959Y-69452D01*
X78817Y-69309D01*
X78817Y-68575D01*
X78817Y-68574D01*
X78800Y-68491D01*
X78800Y-68491D01*
X78753Y-68421D01*
X78753Y-68421D01*
X78578Y-68246D01*
X78508Y-68199D01*
X78425Y-68182D01*
X78217Y-68182D01*
X78217Y-67900D01*
X78217Y-67417D01*
X78558Y-67417D01*
X78619Y-67391D01*
X78666Y-67344D01*
X78692Y-67283D01*
X78692Y-67216D01*
X78692Y-66666D01*
X78666Y-66605D01*
X78619Y-66558D01*
X78558Y-66532D01*
X78491Y-66532D01*
X78217Y-66532D01*
X78217Y-66350D01*
X78200Y-66266D01*
X78200Y-66266D01*
X78181Y-66238D01*
X78181Y-65377D01*
X78181Y-65096D01*
X78140Y-65054D01*
X77724Y-65054D01*
X77724Y-65469D01*
X77766Y-65511D01*
X77981Y-65511D01*
X78047Y-65511D01*
X78109Y-65486D01*
X78156Y-65438D01*
X78181Y-65377D01*
X78181Y-66238D01*
X78153Y-66196D01*
X77703Y-65746D01*
X77469Y-65511D01*
X77662Y-65511D01*
X77704Y-65469D01*
X77704Y-65054D01*
X77289Y-65054D01*
X77247Y-65096D01*
X77247Y-65289D01*
X77167Y-65209D01*
X77167Y-64850D01*
X77150Y-64766D01*
X77150Y-64766D01*
X77103Y-64696D01*
X77049Y-64642D01*
X77279Y-64642D01*
X77272Y-64649D01*
X77247Y-64711D01*
X77247Y-64992D01*
X77289Y-65034D01*
X77704Y-65034D01*
X77704Y-65026D01*
X77724Y-65026D01*
X77724Y-65034D01*
X78140Y-65034D01*
X78181Y-64992D01*
X78181Y-64767D01*
X78433Y-64767D01*
X78494Y-64741D01*
X78541Y-64694D01*
X78546Y-64683D01*
X78546Y-64806D01*
X78572Y-64867D01*
X78619Y-64914D01*
X78680Y-64940D01*
X78747Y-64940D01*
X78898Y-64940D01*
X78940Y-64898D01*
X78940Y-64546D01*
X78932Y-64546D01*
X78932Y-64527D01*
X78940Y-64527D01*
X78940Y-64175D01*
X78898Y-64133D01*
X78747Y-64133D01*
X78680Y-64133D01*
X78619Y-64159D01*
X78572Y-64206D01*
X78567Y-64217D01*
X78567Y-64216D01*
X78567Y-63883D01*
X78567Y-63726D01*
X78525Y-63684D01*
X78134Y-63684D01*
X78134Y-63975D01*
X78176Y-64017D01*
X78366Y-64017D01*
X78433Y-64017D01*
X78494Y-63991D01*
X78541Y-63944D01*
X78567Y-63883D01*
X78567Y-64216D01*
X78541Y-64155D01*
X78494Y-64108D01*
X78433Y-64082D01*
X78366Y-64082D01*
X77816Y-64082D01*
X77809Y-64085D01*
X77816Y-64069D01*
X77816Y-64017D01*
X77816Y-64017D01*
X77883Y-64017D01*
X78073Y-64017D01*
X78115Y-63975D01*
X78115Y-63684D01*
X78107Y-63684D01*
X78107Y-63665D01*
X78115Y-63665D01*
X78115Y-63657D01*
X78134Y-63657D01*
X78134Y-63665D01*
X78525Y-63665D01*
X78567Y-63623D01*
X78567Y-63517D01*
X79329Y-63517D01*
X79845Y-64032D01*
X79751Y-64032D01*
X79709Y-64074D01*
X79709Y-64465D01*
X80000Y-64465D01*
X80042Y-64423D01*
X80042Y-64233D01*
X80042Y-64229D01*
X80107Y-64294D01*
X80107Y-64783D01*
X80133Y-64844D01*
X80180Y-64891D01*
X80191Y-64896D01*
G54D10*
G36*
X81450Y-62980D02*
X81074Y-62980D01*
X81071Y-62981D01*
X80982Y-62981D01*
X80940Y-63023D01*
X80940Y-63085D01*
X80946Y-63099D01*
X80940Y-63114D01*
X80940Y-63181D01*
X80940Y-63341D01*
X80946Y-63355D01*
X80940Y-63370D01*
X80940Y-63437D01*
X80940Y-63597D01*
X80946Y-63611D01*
X80940Y-63626D01*
X80940Y-63693D01*
X80940Y-63853D01*
X80946Y-63867D01*
X80940Y-63882D01*
X80940Y-63949D01*
X80940Y-64109D01*
X80946Y-64123D01*
X80940Y-64138D01*
X80940Y-64205D01*
X80940Y-64365D01*
X80946Y-64379D01*
X80940Y-64393D01*
X80940Y-64460D01*
X80940Y-64620D01*
X80946Y-64634D01*
X80940Y-64649D01*
X80940Y-64716D01*
X80940Y-64832D01*
X80771Y-64832D01*
X80792Y-64783D01*
X80792Y-64716D01*
X80792Y-64166D01*
X80766Y-64105D01*
X80719Y-64058D01*
X80658Y-64032D01*
X80591Y-64032D01*
X80459Y-64032D01*
X79573Y-63146D01*
X79527Y-63115D01*
X79527Y-61707D01*
X79456Y-61535D01*
X79325Y-61404D01*
X79153Y-61332D01*
X78967Y-61332D01*
X78795Y-61403D01*
X78664Y-61534D01*
X78592Y-61706D01*
X78592Y-61892D01*
X78663Y-62064D01*
X78794Y-62195D01*
X78966Y-62267D01*
X79152Y-62267D01*
X79324Y-62196D01*
X79455Y-62065D01*
X79527Y-61893D01*
X79527Y-61707D01*
X79527Y-63115D01*
X79503Y-63099D01*
X79420Y-63082D01*
X78200Y-63082D01*
X78000Y-63082D01*
X77994Y-63082D01*
X78042Y-62968D01*
X78042Y-62832D01*
X77990Y-62706D01*
X77900Y-62616D01*
X77853Y-62546D01*
X77767Y-62459D01*
X77767Y-62168D01*
X77794Y-62195D01*
X77966Y-62267D01*
X78152Y-62267D01*
X78324Y-62196D01*
X78455Y-62065D01*
X78527Y-61893D01*
X78527Y-61707D01*
X78456Y-61535D01*
X78325Y-61404D01*
X78153Y-61332D01*
X77967Y-61332D01*
X77795Y-61403D01*
X77767Y-61431D01*
X77767Y-61390D01*
X77912Y-61244D01*
X77966Y-61267D01*
X78152Y-61267D01*
X78324Y-61196D01*
X78455Y-61065D01*
X78527Y-60893D01*
X78527Y-60707D01*
X78456Y-60535D01*
X78388Y-60467D01*
X78731Y-60467D01*
X78664Y-60534D01*
X78592Y-60706D01*
X78592Y-60892D01*
X78663Y-61064D01*
X78794Y-61195D01*
X78966Y-61267D01*
X79152Y-61267D01*
X79324Y-61196D01*
X79455Y-61065D01*
X79527Y-60893D01*
X79527Y-60707D01*
X79456Y-60535D01*
X79388Y-60467D01*
X79659Y-60467D01*
X80279Y-61086D01*
X80259Y-61105D01*
X80207Y-61231D01*
X80207Y-61367D01*
X80259Y-61493D01*
X80355Y-61590D01*
X80481Y-61642D01*
X80617Y-61642D01*
X80642Y-61632D01*
X80642Y-62499D01*
X80415Y-63072D01*
X80326Y-63109D01*
X80229Y-63205D01*
X80177Y-63331D01*
X80177Y-63467D01*
X80229Y-63593D01*
X80325Y-63690D01*
X80451Y-63742D01*
X80587Y-63742D01*
X80713Y-63690D01*
X80810Y-63594D01*
X80862Y-63468D01*
X80862Y-63332D01*
X80820Y-63231D01*
X80942Y-62922D01*
X80982Y-62962D01*
X81071Y-62962D01*
X81074Y-62963D01*
X81141Y-62963D01*
X81450Y-62963D01*
X81450Y-62980D01*
X81450Y-62980D01*
G37*
G54D26*
X81450Y-62980D02*
X81074Y-62980D01*
X81071Y-62981D01*
X80982Y-62981D01*
X80940Y-63023D01*
X80940Y-63085D01*
X80946Y-63099D01*
X80940Y-63114D01*
X80940Y-63181D01*
X80940Y-63341D01*
X80946Y-63355D01*
X80940Y-63370D01*
X80940Y-63437D01*
X80940Y-63597D01*
X80946Y-63611D01*
X80940Y-63626D01*
X80940Y-63693D01*
X80940Y-63853D01*
X80946Y-63867D01*
X80940Y-63882D01*
X80940Y-63949D01*
X80940Y-64109D01*
X80946Y-64123D01*
X80940Y-64138D01*
X80940Y-64205D01*
X80940Y-64365D01*
X80946Y-64379D01*
X80940Y-64393D01*
X80940Y-64460D01*
X80940Y-64620D01*
X80946Y-64634D01*
X80940Y-64649D01*
X80940Y-64716D01*
X80940Y-64832D01*
X80771Y-64832D01*
X80792Y-64783D01*
X80792Y-64716D01*
X80792Y-64166D01*
X80766Y-64105D01*
X80719Y-64058D01*
X80658Y-64032D01*
X80591Y-64032D01*
X80459Y-64032D01*
X79573Y-63146D01*
X79527Y-63115D01*
X79527Y-61707D01*
X79456Y-61535D01*
X79325Y-61404D01*
X79153Y-61332D01*
X78967Y-61332D01*
X78795Y-61403D01*
X78664Y-61534D01*
X78592Y-61706D01*
X78592Y-61892D01*
X78663Y-62064D01*
X78794Y-62195D01*
X78966Y-62267D01*
X79152Y-62267D01*
X79324Y-62196D01*
X79455Y-62065D01*
X79527Y-61893D01*
X79527Y-61707D01*
X79527Y-63115D01*
X79503Y-63099D01*
X79420Y-63082D01*
X78200Y-63082D01*
X78000Y-63082D01*
X77994Y-63082D01*
X78042Y-62968D01*
X78042Y-62832D01*
X77990Y-62706D01*
X77900Y-62616D01*
X77853Y-62546D01*
X77767Y-62459D01*
X77767Y-62168D01*
X77794Y-62195D01*
X77966Y-62267D01*
X78152Y-62267D01*
X78324Y-62196D01*
X78455Y-62065D01*
X78527Y-61893D01*
X78527Y-61707D01*
X78456Y-61535D01*
X78325Y-61404D01*
X78153Y-61332D01*
X77967Y-61332D01*
X77795Y-61403D01*
X77767Y-61431D01*
X77767Y-61390D01*
X77912Y-61244D01*
X77966Y-61267D01*
X78152Y-61267D01*
X78324Y-61196D01*
X78455Y-61065D01*
X78527Y-60893D01*
X78527Y-60707D01*
X78456Y-60535D01*
X78388Y-60467D01*
X78731Y-60467D01*
X78664Y-60534D01*
X78592Y-60706D01*
X78592Y-60892D01*
X78663Y-61064D01*
X78794Y-61195D01*
X78966Y-61267D01*
X79152Y-61267D01*
X79324Y-61196D01*
X79455Y-61065D01*
X79527Y-60893D01*
X79527Y-60707D01*
X79456Y-60535D01*
X79388Y-60467D01*
X79659Y-60467D01*
X80279Y-61086D01*
X80259Y-61105D01*
X80207Y-61231D01*
X80207Y-61367D01*
X80259Y-61493D01*
X80355Y-61590D01*
X80481Y-61642D01*
X80617Y-61642D01*
X80642Y-61632D01*
X80642Y-62499D01*
X80415Y-63072D01*
X80326Y-63109D01*
X80229Y-63205D01*
X80177Y-63331D01*
X80177Y-63467D01*
X80229Y-63593D01*
X80325Y-63690D01*
X80451Y-63742D01*
X80587Y-63742D01*
X80713Y-63690D01*
X80810Y-63594D01*
X80862Y-63468D01*
X80862Y-63332D01*
X80820Y-63231D01*
X80942Y-62922D01*
X80982Y-62962D01*
X81071Y-62962D01*
X81074Y-62963D01*
X81141Y-62963D01*
X81450Y-62963D01*
X81450Y-62980D01*
G54D10*
G36*
X81911Y-68776D02*
X81894Y-68759D01*
X81768Y-68707D01*
X81632Y-68707D01*
X81506Y-68759D01*
X81409Y-68855D01*
X81357Y-68981D01*
X81357Y-69117D01*
X81409Y-69243D01*
X81505Y-69340D01*
X81567Y-69365D01*
X81567Y-69567D01*
X81567Y-69566D01*
X81541Y-69505D01*
X81494Y-69458D01*
X81433Y-69432D01*
X81258Y-69432D01*
X81258Y-68224D01*
X81142Y-67946D01*
X80929Y-67732D01*
X80697Y-67636D01*
X80744Y-67616D01*
X80791Y-67569D01*
X80817Y-67508D01*
X80817Y-67441D01*
X80817Y-66958D01*
X80817Y-66891D01*
X80791Y-66830D01*
X80744Y-66783D01*
X80683Y-66757D01*
X80526Y-66757D01*
X80484Y-66799D01*
X80484Y-67190D01*
X80775Y-67190D01*
X80817Y-67148D01*
X80817Y-66958D01*
X80817Y-67441D01*
X80817Y-67251D01*
X80775Y-67209D01*
X80484Y-67209D01*
X80484Y-67217D01*
X80465Y-67217D01*
X80465Y-67209D01*
X80465Y-67190D01*
X80465Y-66799D01*
X80423Y-66757D01*
X80266Y-66757D01*
X80205Y-66783D01*
X80158Y-66830D01*
X80132Y-66891D01*
X80132Y-66958D01*
X80132Y-67148D01*
X80174Y-67190D01*
X80465Y-67190D01*
X80465Y-67209D01*
X80174Y-67209D01*
X80132Y-67251D01*
X80132Y-67441D01*
X80132Y-67508D01*
X80158Y-67569D01*
X80205Y-67616D01*
X80266Y-67642D01*
X80288Y-67642D01*
X80071Y-67732D01*
X79857Y-67945D01*
X79742Y-68223D01*
X79741Y-68525D01*
X79857Y-68803D01*
X80070Y-69017D01*
X80348Y-69132D01*
X80650Y-69133D01*
X80928Y-69017D01*
X81142Y-68804D01*
X81257Y-68526D01*
X81258Y-68224D01*
X81258Y-69432D01*
X81151Y-69432D01*
X81109Y-69474D01*
X81109Y-69890D01*
X81117Y-69890D01*
X81117Y-69909D01*
X81109Y-69909D01*
X81109Y-69917D01*
X81090Y-69917D01*
X81090Y-69909D01*
X81090Y-69890D01*
X81090Y-69474D01*
X81048Y-69432D01*
X80766Y-69432D01*
X80705Y-69458D01*
X80658Y-69505D01*
X80632Y-69566D01*
X80632Y-69633D01*
X80632Y-69848D01*
X80674Y-69890D01*
X81090Y-69890D01*
X81090Y-69909D01*
X80674Y-69909D01*
X80632Y-69951D01*
X80632Y-70166D01*
X80632Y-70233D01*
X80658Y-70294D01*
X80666Y-70303D01*
X80348Y-70303D01*
X80364Y-70296D01*
X80495Y-70165D01*
X80567Y-69993D01*
X80567Y-69807D01*
X80496Y-69635D01*
X80365Y-69504D01*
X80193Y-69432D01*
X80007Y-69432D01*
X79959Y-69452D01*
X79567Y-69059D01*
X79567Y-68090D01*
X79878Y-67778D01*
X79925Y-67708D01*
X79925Y-67708D01*
X79942Y-67625D01*
X79942Y-66538D01*
X79994Y-66516D01*
X80041Y-66469D01*
X80067Y-66408D01*
X80067Y-66341D01*
X80067Y-66317D01*
X80100Y-66317D01*
X80183Y-66300D01*
X80183Y-66300D01*
X80253Y-66253D01*
X80628Y-65878D01*
X80675Y-65808D01*
X80675Y-65808D01*
X80689Y-65739D01*
X80744Y-65716D01*
X80791Y-65669D01*
X80817Y-65608D01*
X80817Y-65541D01*
X80817Y-65267D01*
X80942Y-65267D01*
X80932Y-65291D01*
X80932Y-65358D01*
X80932Y-65548D01*
X80974Y-65590D01*
X81265Y-65590D01*
X81265Y-65582D01*
X81284Y-65582D01*
X81284Y-65590D01*
X81575Y-65590D01*
X81617Y-65548D01*
X81617Y-65358D01*
X81617Y-65291D01*
X81607Y-65267D01*
X81692Y-65267D01*
X81682Y-65291D01*
X81682Y-65358D01*
X81682Y-65908D01*
X81708Y-65969D01*
X81738Y-66000D01*
X81708Y-66030D01*
X81682Y-66091D01*
X81682Y-66158D01*
X81682Y-66708D01*
X81699Y-66749D01*
X81639Y-66773D01*
X81592Y-66820D01*
X81567Y-66882D01*
X81567Y-66891D01*
X81541Y-66830D01*
X81533Y-66821D01*
X81544Y-66816D01*
X81591Y-66769D01*
X81617Y-66708D01*
X81617Y-66641D01*
X81617Y-66158D01*
X81617Y-66091D01*
X81591Y-66030D01*
X81561Y-66000D01*
X81591Y-65969D01*
X81617Y-65908D01*
X81617Y-65841D01*
X81617Y-65651D01*
X81575Y-65609D01*
X81284Y-65609D01*
X81284Y-65999D01*
X81284Y-66000D01*
X81284Y-66390D01*
X81575Y-66390D01*
X81617Y-66348D01*
X81617Y-66158D01*
X81617Y-66641D01*
X81617Y-66451D01*
X81575Y-66409D01*
X81284Y-66409D01*
X81284Y-66417D01*
X81265Y-66417D01*
X81265Y-66409D01*
X81265Y-66390D01*
X81265Y-66000D01*
X81265Y-65999D01*
X81265Y-65609D01*
X80974Y-65609D01*
X80932Y-65651D01*
X80932Y-65841D01*
X80932Y-65908D01*
X80958Y-65969D01*
X80988Y-66000D01*
X80958Y-66030D01*
X80932Y-66091D01*
X80932Y-66158D01*
X80932Y-66348D01*
X80974Y-66390D01*
X81265Y-66390D01*
X81265Y-66409D01*
X80974Y-66409D01*
X80932Y-66451D01*
X80932Y-66641D01*
X80932Y-66708D01*
X80958Y-66769D01*
X80966Y-66778D01*
X80955Y-66783D01*
X80908Y-66830D01*
X80882Y-66891D01*
X80882Y-66958D01*
X80882Y-67508D01*
X80908Y-67569D01*
X80955Y-67616D01*
X81016Y-67642D01*
X81083Y-67642D01*
X81433Y-67642D01*
X81494Y-67616D01*
X81541Y-67569D01*
X81567Y-67508D01*
X81567Y-67507D01*
X81567Y-67713D01*
X81456Y-67759D01*
X81359Y-67855D01*
X81307Y-67981D01*
X81307Y-68117D01*
X81359Y-68243D01*
X81455Y-68340D01*
X81581Y-68392D01*
X81717Y-68392D01*
X81843Y-68340D01*
X81911Y-68273D01*
X81911Y-68776D01*
X81911Y-68776D01*
G37*
G54D26*
X81911Y-68776D02*
X81894Y-68759D01*
X81768Y-68707D01*
X81632Y-68707D01*
X81506Y-68759D01*
X81409Y-68855D01*
X81357Y-68981D01*
X81357Y-69117D01*
X81409Y-69243D01*
X81505Y-69340D01*
X81567Y-69365D01*
X81567Y-69567D01*
X81567Y-69566D01*
X81541Y-69505D01*
X81494Y-69458D01*
X81433Y-69432D01*
X81258Y-69432D01*
X81258Y-68224D01*
X81142Y-67946D01*
X80929Y-67732D01*
X80697Y-67636D01*
X80744Y-67616D01*
X80791Y-67569D01*
X80817Y-67508D01*
X80817Y-67441D01*
X80817Y-66958D01*
X80817Y-66891D01*
X80791Y-66830D01*
X80744Y-66783D01*
X80683Y-66757D01*
X80526Y-66757D01*
X80484Y-66799D01*
X80484Y-67190D01*
X80775Y-67190D01*
X80817Y-67148D01*
X80817Y-66958D01*
X80817Y-67441D01*
X80817Y-67251D01*
X80775Y-67209D01*
X80484Y-67209D01*
X80484Y-67217D01*
X80465Y-67217D01*
X80465Y-67209D01*
X80465Y-67190D01*
X80465Y-66799D01*
X80423Y-66757D01*
X80266Y-66757D01*
X80205Y-66783D01*
X80158Y-66830D01*
X80132Y-66891D01*
X80132Y-66958D01*
X80132Y-67148D01*
X80174Y-67190D01*
X80465Y-67190D01*
X80465Y-67209D01*
X80174Y-67209D01*
X80132Y-67251D01*
X80132Y-67441D01*
X80132Y-67508D01*
X80158Y-67569D01*
X80205Y-67616D01*
X80266Y-67642D01*
X80288Y-67642D01*
X80071Y-67732D01*
X79857Y-67945D01*
X79742Y-68223D01*
X79741Y-68525D01*
X79857Y-68803D01*
X80070Y-69017D01*
X80348Y-69132D01*
X80650Y-69133D01*
X80928Y-69017D01*
X81142Y-68804D01*
X81257Y-68526D01*
X81258Y-68224D01*
X81258Y-69432D01*
X81151Y-69432D01*
X81109Y-69474D01*
X81109Y-69890D01*
X81117Y-69890D01*
X81117Y-69909D01*
X81109Y-69909D01*
X81109Y-69917D01*
X81090Y-69917D01*
X81090Y-69909D01*
X81090Y-69890D01*
X81090Y-69474D01*
X81048Y-69432D01*
X80766Y-69432D01*
X80705Y-69458D01*
X80658Y-69505D01*
X80632Y-69566D01*
X80632Y-69633D01*
X80632Y-69848D01*
X80674Y-69890D01*
X81090Y-69890D01*
X81090Y-69909D01*
X80674Y-69909D01*
X80632Y-69951D01*
X80632Y-70166D01*
X80632Y-70233D01*
X80658Y-70294D01*
X80666Y-70303D01*
X80348Y-70303D01*
X80364Y-70296D01*
X80495Y-70165D01*
X80567Y-69993D01*
X80567Y-69807D01*
X80496Y-69635D01*
X80365Y-69504D01*
X80193Y-69432D01*
X80007Y-69432D01*
X79959Y-69452D01*
X79567Y-69059D01*
X79567Y-68090D01*
X79878Y-67778D01*
X79925Y-67708D01*
X79925Y-67708D01*
X79942Y-67625D01*
X79942Y-66538D01*
X79994Y-66516D01*
X80041Y-66469D01*
X80067Y-66408D01*
X80067Y-66341D01*
X80067Y-66317D01*
X80100Y-66317D01*
X80183Y-66300D01*
X80183Y-66300D01*
X80253Y-66253D01*
X80628Y-65878D01*
X80675Y-65808D01*
X80675Y-65808D01*
X80689Y-65739D01*
X80744Y-65716D01*
X80791Y-65669D01*
X80817Y-65608D01*
X80817Y-65541D01*
X80817Y-65267D01*
X80942Y-65267D01*
X80932Y-65291D01*
X80932Y-65358D01*
X80932Y-65548D01*
X80974Y-65590D01*
X81265Y-65590D01*
X81265Y-65582D01*
X81284Y-65582D01*
X81284Y-65590D01*
X81575Y-65590D01*
X81617Y-65548D01*
X81617Y-65358D01*
X81617Y-65291D01*
X81607Y-65267D01*
X81692Y-65267D01*
X81682Y-65291D01*
X81682Y-65358D01*
X81682Y-65908D01*
X81708Y-65969D01*
X81738Y-66000D01*
X81708Y-66030D01*
X81682Y-66091D01*
X81682Y-66158D01*
X81682Y-66708D01*
X81699Y-66749D01*
X81639Y-66773D01*
X81592Y-66820D01*
X81567Y-66882D01*
X81567Y-66891D01*
X81541Y-66830D01*
X81533Y-66821D01*
X81544Y-66816D01*
X81591Y-66769D01*
X81617Y-66708D01*
X81617Y-66641D01*
X81617Y-66158D01*
X81617Y-66091D01*
X81591Y-66030D01*
X81561Y-66000D01*
X81591Y-65969D01*
X81617Y-65908D01*
X81617Y-65841D01*
X81617Y-65651D01*
X81575Y-65609D01*
X81284Y-65609D01*
X81284Y-65999D01*
X81284Y-66000D01*
X81284Y-66390D01*
X81575Y-66390D01*
X81617Y-66348D01*
X81617Y-66158D01*
X81617Y-66641D01*
X81617Y-66451D01*
X81575Y-66409D01*
X81284Y-66409D01*
X81284Y-66417D01*
X81265Y-66417D01*
X81265Y-66409D01*
X81265Y-66390D01*
X81265Y-66000D01*
X81265Y-65999D01*
X81265Y-65609D01*
X80974Y-65609D01*
X80932Y-65651D01*
X80932Y-65841D01*
X80932Y-65908D01*
X80958Y-65969D01*
X80988Y-66000D01*
X80958Y-66030D01*
X80932Y-66091D01*
X80932Y-66158D01*
X80932Y-66348D01*
X80974Y-66390D01*
X81265Y-66390D01*
X81265Y-66409D01*
X80974Y-66409D01*
X80932Y-66451D01*
X80932Y-66641D01*
X80932Y-66708D01*
X80958Y-66769D01*
X80966Y-66778D01*
X80955Y-66783D01*
X80908Y-66830D01*
X80882Y-66891D01*
X80882Y-66958D01*
X80882Y-67508D01*
X80908Y-67569D01*
X80955Y-67616D01*
X81016Y-67642D01*
X81083Y-67642D01*
X81433Y-67642D01*
X81494Y-67616D01*
X81541Y-67569D01*
X81567Y-67508D01*
X81567Y-67507D01*
X81567Y-67713D01*
X81456Y-67759D01*
X81359Y-67855D01*
X81307Y-67981D01*
X81307Y-68117D01*
X81359Y-68243D01*
X81455Y-68340D01*
X81581Y-68392D01*
X81717Y-68392D01*
X81843Y-68340D01*
X81911Y-68273D01*
X81911Y-68776D01*
G54D10*
G36*
X85454Y-68743D02*
X85368Y-68707D01*
X85232Y-68707D01*
X85106Y-68759D01*
X85009Y-68855D01*
X84957Y-68981D01*
X84957Y-69117D01*
X85009Y-69243D01*
X85055Y-69289D01*
X85006Y-69309D01*
X84909Y-69405D01*
X84857Y-69531D01*
X84857Y-69667D01*
X84909Y-69793D01*
X84990Y-69875D01*
X84909Y-69955D01*
X84878Y-70032D01*
X82921Y-70032D01*
X82890Y-69956D01*
X82809Y-69874D01*
X82890Y-69794D01*
X82942Y-69668D01*
X82942Y-69532D01*
X82890Y-69406D01*
X82794Y-69309D01*
X82744Y-69289D01*
X82790Y-69244D01*
X82842Y-69118D01*
X82842Y-68982D01*
X82790Y-68856D01*
X82694Y-68759D01*
X82568Y-68707D01*
X82432Y-68707D01*
X82345Y-68743D01*
X82345Y-68183D01*
X82555Y-68183D01*
X82616Y-68157D01*
X82663Y-68110D01*
X82689Y-68049D01*
X82689Y-67982D01*
X82689Y-67783D01*
X82793Y-67740D01*
X82890Y-67644D01*
X82942Y-67518D01*
X82942Y-67382D01*
X82890Y-67256D01*
X82794Y-67159D01*
X82689Y-67116D01*
X82689Y-66882D01*
X82663Y-66821D01*
X82616Y-66773D01*
X82555Y-66748D01*
X82488Y-66748D01*
X82350Y-66748D01*
X82367Y-66708D01*
X82367Y-66641D01*
X82367Y-66579D01*
X82380Y-66591D01*
X82441Y-66617D01*
X82508Y-66617D01*
X82698Y-66617D01*
X82740Y-66575D01*
X82740Y-66284D01*
X82732Y-66284D01*
X82732Y-66265D01*
X82740Y-66265D01*
X82740Y-65974D01*
X82698Y-65932D01*
X82508Y-65932D01*
X82441Y-65932D01*
X82380Y-65958D01*
X82333Y-66005D01*
X82328Y-66016D01*
X82311Y-65999D01*
X82341Y-65969D01*
X82367Y-65908D01*
X82367Y-65841D01*
X82367Y-65829D01*
X82380Y-65841D01*
X82441Y-65867D01*
X82508Y-65867D01*
X83058Y-65867D01*
X83099Y-65850D01*
X83082Y-65891D01*
X83082Y-65942D01*
X83058Y-65932D01*
X82991Y-65932D01*
X82801Y-65932D01*
X82759Y-65974D01*
X82759Y-66265D01*
X82767Y-66265D01*
X82767Y-66284D01*
X82759Y-66284D01*
X82759Y-66575D01*
X82801Y-66617D01*
X82991Y-66617D01*
X83058Y-66617D01*
X83119Y-66591D01*
X83125Y-66586D01*
X83155Y-66616D01*
X83216Y-66642D01*
X83373Y-66642D01*
X83415Y-66600D01*
X83415Y-66209D01*
X83407Y-66209D01*
X83407Y-66190D01*
X83415Y-66190D01*
X83415Y-65799D01*
X83373Y-65757D01*
X83216Y-65757D01*
X83175Y-65774D01*
X83188Y-65742D01*
X83582Y-65742D01*
X83582Y-65757D01*
X83476Y-65757D01*
X83434Y-65799D01*
X83434Y-66190D01*
X83442Y-66190D01*
X83442Y-66209D01*
X83434Y-66209D01*
X83434Y-66600D01*
X83470Y-66635D01*
X83449Y-66666D01*
X83445Y-66685D01*
X83445Y-66685D01*
X83427Y-66692D01*
X83403Y-66682D01*
X83336Y-66682D01*
X83136Y-66682D01*
X83075Y-66708D01*
X83028Y-66755D01*
X83002Y-66816D01*
X83002Y-66883D01*
X83002Y-67883D01*
X83028Y-67944D01*
X83052Y-67969D01*
X83052Y-68020D01*
X83065Y-68082D01*
X82977Y-68082D01*
X82842Y-68138D01*
X82738Y-68241D01*
X82682Y-68376D01*
X82682Y-68522D01*
X82738Y-68657D01*
X82841Y-68761D01*
X82976Y-68817D01*
X83122Y-68817D01*
X83257Y-68761D01*
X83361Y-68658D01*
X83417Y-68523D01*
X83417Y-68377D01*
X83371Y-68267D01*
X84428Y-68267D01*
X84382Y-68376D01*
X84382Y-68522D01*
X84438Y-68657D01*
X84541Y-68761D01*
X84676Y-68817D01*
X84822Y-68817D01*
X84957Y-68761D01*
X85061Y-68658D01*
X85117Y-68523D01*
X85117Y-68415D01*
X85181Y-68442D01*
X85317Y-68442D01*
X85443Y-68390D01*
X85454Y-68379D01*
X85454Y-68743D01*
X85454Y-68743D01*
G37*
G54D26*
X85454Y-68743D02*
X85368Y-68707D01*
X85232Y-68707D01*
X85106Y-68759D01*
X85009Y-68855D01*
X84957Y-68981D01*
X84957Y-69117D01*
X85009Y-69243D01*
X85055Y-69289D01*
X85006Y-69309D01*
X84909Y-69405D01*
X84857Y-69531D01*
X84857Y-69667D01*
X84909Y-69793D01*
X84990Y-69875D01*
X84909Y-69955D01*
X84878Y-70032D01*
X82921Y-70032D01*
X82890Y-69956D01*
X82809Y-69874D01*
X82890Y-69794D01*
X82942Y-69668D01*
X82942Y-69532D01*
X82890Y-69406D01*
X82794Y-69309D01*
X82744Y-69289D01*
X82790Y-69244D01*
X82842Y-69118D01*
X82842Y-68982D01*
X82790Y-68856D01*
X82694Y-68759D01*
X82568Y-68707D01*
X82432Y-68707D01*
X82345Y-68743D01*
X82345Y-68183D01*
X82555Y-68183D01*
X82616Y-68157D01*
X82663Y-68110D01*
X82689Y-68049D01*
X82689Y-67982D01*
X82689Y-67783D01*
X82793Y-67740D01*
X82890Y-67644D01*
X82942Y-67518D01*
X82942Y-67382D01*
X82890Y-67256D01*
X82794Y-67159D01*
X82689Y-67116D01*
X82689Y-66882D01*
X82663Y-66821D01*
X82616Y-66773D01*
X82555Y-66748D01*
X82488Y-66748D01*
X82350Y-66748D01*
X82367Y-66708D01*
X82367Y-66641D01*
X82367Y-66579D01*
X82380Y-66591D01*
X82441Y-66617D01*
X82508Y-66617D01*
X82698Y-66617D01*
X82740Y-66575D01*
X82740Y-66284D01*
X82732Y-66284D01*
X82732Y-66265D01*
X82740Y-66265D01*
X82740Y-65974D01*
X82698Y-65932D01*
X82508Y-65932D01*
X82441Y-65932D01*
X82380Y-65958D01*
X82333Y-66005D01*
X82328Y-66016D01*
X82311Y-65999D01*
X82341Y-65969D01*
X82367Y-65908D01*
X82367Y-65841D01*
X82367Y-65829D01*
X82380Y-65841D01*
X82441Y-65867D01*
X82508Y-65867D01*
X83058Y-65867D01*
X83099Y-65850D01*
X83082Y-65891D01*
X83082Y-65942D01*
X83058Y-65932D01*
X82991Y-65932D01*
X82801Y-65932D01*
X82759Y-65974D01*
X82759Y-66265D01*
X82767Y-66265D01*
X82767Y-66284D01*
X82759Y-66284D01*
X82759Y-66575D01*
X82801Y-66617D01*
X82991Y-66617D01*
X83058Y-66617D01*
X83119Y-66591D01*
X83125Y-66586D01*
X83155Y-66616D01*
X83216Y-66642D01*
X83373Y-66642D01*
X83415Y-66600D01*
X83415Y-66209D01*
X83407Y-66209D01*
X83407Y-66190D01*
X83415Y-66190D01*
X83415Y-65799D01*
X83373Y-65757D01*
X83216Y-65757D01*
X83175Y-65774D01*
X83188Y-65742D01*
X83582Y-65742D01*
X83582Y-65757D01*
X83476Y-65757D01*
X83434Y-65799D01*
X83434Y-66190D01*
X83442Y-66190D01*
X83442Y-66209D01*
X83434Y-66209D01*
X83434Y-66600D01*
X83470Y-66635D01*
X83449Y-66666D01*
X83445Y-66685D01*
X83445Y-66685D01*
X83427Y-66692D01*
X83403Y-66682D01*
X83336Y-66682D01*
X83136Y-66682D01*
X83075Y-66708D01*
X83028Y-66755D01*
X83002Y-66816D01*
X83002Y-66883D01*
X83002Y-67883D01*
X83028Y-67944D01*
X83052Y-67969D01*
X83052Y-68020D01*
X83065Y-68082D01*
X82977Y-68082D01*
X82842Y-68138D01*
X82738Y-68241D01*
X82682Y-68376D01*
X82682Y-68522D01*
X82738Y-68657D01*
X82841Y-68761D01*
X82976Y-68817D01*
X83122Y-68817D01*
X83257Y-68761D01*
X83361Y-68658D01*
X83417Y-68523D01*
X83417Y-68377D01*
X83371Y-68267D01*
X84428Y-68267D01*
X84382Y-68376D01*
X84382Y-68522D01*
X84438Y-68657D01*
X84541Y-68761D01*
X84676Y-68817D01*
X84822Y-68817D01*
X84957Y-68761D01*
X85061Y-68658D01*
X85117Y-68523D01*
X85117Y-68415D01*
X85181Y-68442D01*
X85317Y-68442D01*
X85443Y-68390D01*
X85454Y-68379D01*
X85454Y-68743D01*
G54D10*
G36*
X88003Y-62676D02*
X87915Y-62588D01*
X87743Y-62516D01*
X87557Y-62516D01*
X87385Y-62587D01*
X87376Y-62597D01*
X86956Y-62360D01*
X86944Y-62356D01*
X86940Y-62354D01*
X87045Y-62249D01*
X87117Y-62077D01*
X87117Y-61891D01*
X87046Y-61719D01*
X86915Y-61588D01*
X86743Y-61516D01*
X86557Y-61516D01*
X86385Y-61587D01*
X86254Y-61718D01*
X86182Y-61890D01*
X86182Y-62076D01*
X86253Y-62248D01*
X86337Y-62332D01*
X86017Y-62332D01*
X86017Y-62066D01*
X85991Y-62005D01*
X85944Y-61958D01*
X85883Y-61932D01*
X85816Y-61932D01*
X85216Y-61932D01*
X85155Y-61958D01*
X85108Y-62005D01*
X85082Y-62066D01*
X85082Y-62133D01*
X85082Y-62733D01*
X85108Y-62794D01*
X85155Y-62841D01*
X85216Y-62867D01*
X85283Y-62867D01*
X85883Y-62867D01*
X85944Y-62841D01*
X85991Y-62794D01*
X86003Y-62767D01*
X86233Y-62767D01*
X86182Y-62890D01*
X86182Y-63076D01*
X86247Y-63232D01*
X86220Y-63232D01*
X85926Y-63023D01*
X85903Y-63012D01*
X85883Y-62999D01*
X85865Y-62995D01*
X85848Y-62988D01*
X85824Y-62987D01*
X85800Y-62982D01*
X85711Y-62982D01*
X85710Y-62982D01*
X85708Y-62982D01*
X85700Y-62982D01*
X85675Y-62987D01*
X85626Y-62994D01*
X84926Y-63245D01*
X84915Y-63251D01*
X84903Y-63255D01*
X84879Y-63273D01*
X84854Y-63289D01*
X84846Y-63299D01*
X84836Y-63306D01*
X84821Y-63332D01*
X84803Y-63357D01*
X84800Y-63369D01*
X84794Y-63380D01*
X84790Y-63410D01*
X84782Y-63439D01*
X84784Y-63451D01*
X84783Y-63464D01*
X84872Y-64807D01*
X84759Y-64807D01*
X84759Y-64649D01*
X84753Y-64635D01*
X84759Y-64620D01*
X84759Y-64553D01*
X84759Y-64393D01*
X84753Y-64379D01*
X84759Y-64365D01*
X84759Y-64298D01*
X84759Y-64138D01*
X84753Y-64124D01*
X84759Y-64109D01*
X84759Y-64047D01*
X84717Y-64005D01*
X84628Y-64005D01*
X84625Y-64004D01*
X84558Y-64004D01*
X83908Y-64004D01*
X83905Y-64005D01*
X83816Y-64005D01*
X83787Y-64034D01*
X83298Y-64034D01*
X83214Y-64051D01*
X83144Y-64098D01*
X83144Y-64098D01*
X83144Y-64098D01*
X82350Y-64892D01*
X82316Y-64899D01*
X82268Y-64931D01*
X82300Y-64883D01*
X82300Y-64883D01*
X82317Y-64800D01*
X82317Y-64450D01*
X82790Y-63977D01*
X83560Y-63977D01*
X83643Y-63960D01*
X83643Y-63960D01*
X83713Y-63913D01*
X83774Y-63852D01*
X83774Y-63853D01*
X83780Y-63868D01*
X83774Y-63882D01*
X83774Y-63944D01*
X83816Y-63986D01*
X83905Y-63986D01*
X83908Y-63987D01*
X83975Y-63987D01*
X84625Y-63987D01*
X84628Y-63986D01*
X84717Y-63986D01*
X84759Y-63944D01*
X84759Y-63882D01*
X84753Y-63868D01*
X84759Y-63853D01*
X84759Y-63786D01*
X84759Y-63626D01*
X84753Y-63612D01*
X84759Y-63597D01*
X84759Y-63530D01*
X84759Y-63370D01*
X84753Y-63356D01*
X84759Y-63341D01*
X84759Y-63114D01*
X84753Y-63100D01*
X84759Y-63085D01*
X84759Y-63018D01*
X84759Y-62858D01*
X84753Y-62844D01*
X84759Y-62829D01*
X84759Y-62762D01*
X84759Y-62602D01*
X84753Y-62588D01*
X84759Y-62573D01*
X84759Y-62506D01*
X84759Y-62346D01*
X84753Y-62332D01*
X84759Y-62317D01*
X84759Y-62090D01*
X84753Y-62076D01*
X84759Y-62061D01*
X84759Y-61999D01*
X84717Y-61957D01*
X84628Y-61957D01*
X84625Y-61956D01*
X84558Y-61956D01*
X84318Y-61956D01*
X84317Y-61957D01*
X84276Y-61957D01*
X84276Y-61998D01*
X84276Y-62153D01*
X84276Y-62194D01*
X84317Y-62194D01*
X84318Y-62195D01*
X84558Y-62195D01*
X84625Y-62195D01*
X84628Y-62194D01*
X84717Y-62194D01*
X84759Y-62152D01*
X84759Y-62090D01*
X84759Y-62317D01*
X84759Y-62255D01*
X84717Y-62213D01*
X84628Y-62213D01*
X84625Y-62212D01*
X84558Y-62212D01*
X84257Y-62212D01*
X84257Y-62194D01*
X84257Y-62153D01*
X84257Y-61998D01*
X84257Y-61957D01*
X84216Y-61957D01*
X84215Y-61956D01*
X83975Y-61956D01*
X83908Y-61956D01*
X83905Y-61957D01*
X83816Y-61957D01*
X83774Y-61999D01*
X83774Y-62061D01*
X83780Y-62076D01*
X83774Y-62090D01*
X83774Y-62152D01*
X83816Y-62194D01*
X83905Y-62194D01*
X83908Y-62195D01*
X83975Y-62195D01*
X84215Y-62195D01*
X84216Y-62194D01*
X84257Y-62194D01*
X84257Y-62212D01*
X83908Y-62212D01*
X83905Y-62213D01*
X83816Y-62213D01*
X83774Y-62255D01*
X83774Y-62317D01*
X83780Y-62331D01*
X83774Y-62346D01*
X83774Y-62413D01*
X83774Y-62573D01*
X83780Y-62587D01*
X83774Y-62602D01*
X83774Y-62669D01*
X83774Y-62829D01*
X83780Y-62843D01*
X83774Y-62858D01*
X83774Y-62925D01*
X83774Y-63085D01*
X83780Y-63100D01*
X83774Y-63114D01*
X83774Y-63176D01*
X83816Y-63218D01*
X83905Y-63218D01*
X83908Y-63219D01*
X83975Y-63219D01*
X84625Y-63219D01*
X84628Y-63218D01*
X84717Y-63218D01*
X84759Y-63176D01*
X84759Y-63114D01*
X84759Y-63341D01*
X84759Y-63279D01*
X84717Y-63237D01*
X84628Y-63237D01*
X84625Y-63236D01*
X84558Y-63236D01*
X83908Y-63236D01*
X83905Y-63237D01*
X83816Y-63237D01*
X83775Y-63278D01*
X83775Y-63278D01*
X83752Y-63283D01*
X83682Y-63330D01*
X83469Y-63542D01*
X82710Y-63542D01*
X82417Y-63249D01*
X82417Y-62480D01*
X82400Y-62396D01*
X82400Y-62396D01*
X82353Y-62326D01*
X82077Y-62050D01*
X82007Y-62003D01*
X81925Y-61986D01*
X81925Y-61834D01*
X81919Y-61820D01*
X81925Y-61806D01*
X81925Y-61739D01*
X81925Y-61579D01*
X81919Y-61565D01*
X81925Y-61550D01*
X81925Y-61483D01*
X81925Y-61323D01*
X81899Y-61262D01*
X81852Y-61215D01*
X81791Y-61189D01*
X81724Y-61189D01*
X81074Y-61189D01*
X81013Y-61215D01*
X81008Y-61219D01*
X81003Y-61219D01*
X80919Y-61236D01*
X80892Y-61254D01*
X80892Y-61232D01*
X80840Y-61106D01*
X80763Y-61028D01*
X80750Y-60966D01*
X80750Y-60966D01*
X80703Y-60896D01*
X80703Y-60896D01*
X80074Y-60267D01*
X82959Y-60267D01*
X83371Y-60678D01*
X83371Y-60678D01*
X83890Y-61197D01*
X83847Y-61215D01*
X83800Y-61262D01*
X83774Y-61323D01*
X83774Y-61390D01*
X83774Y-61550D01*
X83780Y-61564D01*
X83774Y-61579D01*
X83774Y-61646D01*
X83774Y-61806D01*
X83780Y-61820D01*
X83774Y-61834D01*
X83774Y-61896D01*
X83816Y-61938D01*
X83903Y-61938D01*
X83908Y-61940D01*
X83975Y-61940D01*
X84625Y-61940D01*
X84630Y-61938D01*
X84717Y-61938D01*
X84759Y-61896D01*
X84759Y-61834D01*
X84753Y-61820D01*
X84759Y-61806D01*
X84759Y-61739D01*
X84759Y-61579D01*
X84753Y-61565D01*
X84759Y-61550D01*
X84759Y-61491D01*
X84771Y-61503D01*
X84771Y-61503D01*
X84841Y-61550D01*
X84841Y-61550D01*
X84924Y-61567D01*
X84925Y-61567D01*
X86284Y-61567D01*
X86367Y-61550D01*
X86367Y-61550D01*
X86437Y-61503D01*
X86489Y-61451D01*
X86983Y-61451D01*
X87044Y-61425D01*
X87091Y-61378D01*
X87117Y-61317D01*
X87117Y-61250D01*
X87117Y-60650D01*
X87091Y-60589D01*
X87044Y-60542D01*
X86983Y-60516D01*
X86916Y-60516D01*
X86316Y-60516D01*
X86255Y-60542D01*
X86208Y-60589D01*
X86182Y-60650D01*
X86182Y-60717D01*
X86182Y-61132D01*
X85307Y-61132D01*
X85403Y-61092D01*
X85617Y-60879D01*
X85732Y-60601D01*
X85733Y-60299D01*
X85617Y-60021D01*
X85543Y-59946D01*
X88003Y-59946D01*
X88003Y-60676D01*
X87915Y-60588D01*
X87743Y-60516D01*
X87557Y-60516D01*
X87385Y-60587D01*
X87254Y-60718D01*
X87182Y-60890D01*
X87182Y-61076D01*
X87253Y-61248D01*
X87384Y-61379D01*
X87556Y-61451D01*
X87742Y-61451D01*
X87914Y-61380D01*
X88003Y-61291D01*
X88003Y-61676D01*
X87915Y-61588D01*
X87743Y-61516D01*
X87557Y-61516D01*
X87385Y-61587D01*
X87254Y-61718D01*
X87182Y-61890D01*
X87182Y-62076D01*
X87253Y-62248D01*
X87384Y-62379D01*
X87556Y-62451D01*
X87742Y-62451D01*
X87914Y-62380D01*
X88003Y-62291D01*
X88003Y-62676D01*
X88003Y-62676D01*
G37*
G54D26*
X88003Y-62676D02*
X87915Y-62588D01*
X87743Y-62516D01*
X87557Y-62516D01*
X87385Y-62587D01*
X87376Y-62597D01*
X86956Y-62360D01*
X86944Y-62356D01*
X86940Y-62354D01*
X87045Y-62249D01*
X87117Y-62077D01*
X87117Y-61891D01*
X87046Y-61719D01*
X86915Y-61588D01*
X86743Y-61516D01*
X86557Y-61516D01*
X86385Y-61587D01*
X86254Y-61718D01*
X86182Y-61890D01*
X86182Y-62076D01*
X86253Y-62248D01*
X86337Y-62332D01*
X86017Y-62332D01*
X86017Y-62066D01*
X85991Y-62005D01*
X85944Y-61958D01*
X85883Y-61932D01*
X85816Y-61932D01*
X85216Y-61932D01*
X85155Y-61958D01*
X85108Y-62005D01*
X85082Y-62066D01*
X85082Y-62133D01*
X85082Y-62733D01*
X85108Y-62794D01*
X85155Y-62841D01*
X85216Y-62867D01*
X85283Y-62867D01*
X85883Y-62867D01*
X85944Y-62841D01*
X85991Y-62794D01*
X86003Y-62767D01*
X86233Y-62767D01*
X86182Y-62890D01*
X86182Y-63076D01*
X86247Y-63232D01*
X86220Y-63232D01*
X85926Y-63023D01*
X85903Y-63012D01*
X85883Y-62999D01*
X85865Y-62995D01*
X85848Y-62988D01*
X85824Y-62987D01*
X85800Y-62982D01*
X85711Y-62982D01*
X85710Y-62982D01*
X85708Y-62982D01*
X85700Y-62982D01*
X85675Y-62987D01*
X85626Y-62994D01*
X84926Y-63245D01*
X84915Y-63251D01*
X84903Y-63255D01*
X84879Y-63273D01*
X84854Y-63289D01*
X84846Y-63299D01*
X84836Y-63306D01*
X84821Y-63332D01*
X84803Y-63357D01*
X84800Y-63369D01*
X84794Y-63380D01*
X84790Y-63410D01*
X84782Y-63439D01*
X84784Y-63451D01*
X84783Y-63464D01*
X84872Y-64807D01*
X84759Y-64807D01*
X84759Y-64649D01*
X84753Y-64635D01*
X84759Y-64620D01*
X84759Y-64553D01*
X84759Y-64393D01*
X84753Y-64379D01*
X84759Y-64365D01*
X84759Y-64298D01*
X84759Y-64138D01*
X84753Y-64124D01*
X84759Y-64109D01*
X84759Y-64047D01*
X84717Y-64005D01*
X84628Y-64005D01*
X84625Y-64004D01*
X84558Y-64004D01*
X83908Y-64004D01*
X83905Y-64005D01*
X83816Y-64005D01*
X83787Y-64034D01*
X83298Y-64034D01*
X83214Y-64051D01*
X83144Y-64098D01*
X83144Y-64098D01*
X83144Y-64098D01*
X82350Y-64892D01*
X82316Y-64899D01*
X82268Y-64931D01*
X82300Y-64883D01*
X82300Y-64883D01*
X82317Y-64800D01*
X82317Y-64450D01*
X82790Y-63977D01*
X83560Y-63977D01*
X83643Y-63960D01*
X83643Y-63960D01*
X83713Y-63913D01*
X83774Y-63852D01*
X83774Y-63853D01*
X83780Y-63868D01*
X83774Y-63882D01*
X83774Y-63944D01*
X83816Y-63986D01*
X83905Y-63986D01*
X83908Y-63987D01*
X83975Y-63987D01*
X84625Y-63987D01*
X84628Y-63986D01*
X84717Y-63986D01*
X84759Y-63944D01*
X84759Y-63882D01*
X84753Y-63868D01*
X84759Y-63853D01*
X84759Y-63786D01*
X84759Y-63626D01*
X84753Y-63612D01*
X84759Y-63597D01*
X84759Y-63530D01*
X84759Y-63370D01*
X84753Y-63356D01*
X84759Y-63341D01*
X84759Y-63114D01*
X84753Y-63100D01*
X84759Y-63085D01*
X84759Y-63018D01*
X84759Y-62858D01*
X84753Y-62844D01*
X84759Y-62829D01*
X84759Y-62762D01*
X84759Y-62602D01*
X84753Y-62588D01*
X84759Y-62573D01*
X84759Y-62506D01*
X84759Y-62346D01*
X84753Y-62332D01*
X84759Y-62317D01*
X84759Y-62090D01*
X84753Y-62076D01*
X84759Y-62061D01*
X84759Y-61999D01*
X84717Y-61957D01*
X84628Y-61957D01*
X84625Y-61956D01*
X84558Y-61956D01*
X84318Y-61956D01*
X84317Y-61957D01*
X84276Y-61957D01*
X84276Y-61998D01*
X84276Y-62153D01*
X84276Y-62194D01*
X84317Y-62194D01*
X84318Y-62195D01*
X84558Y-62195D01*
X84625Y-62195D01*
X84628Y-62194D01*
X84717Y-62194D01*
X84759Y-62152D01*
X84759Y-62090D01*
X84759Y-62317D01*
X84759Y-62255D01*
X84717Y-62213D01*
X84628Y-62213D01*
X84625Y-62212D01*
X84558Y-62212D01*
X84257Y-62212D01*
X84257Y-62194D01*
X84257Y-62153D01*
X84257Y-61998D01*
X84257Y-61957D01*
X84216Y-61957D01*
X84215Y-61956D01*
X83975Y-61956D01*
X83908Y-61956D01*
X83905Y-61957D01*
X83816Y-61957D01*
X83774Y-61999D01*
X83774Y-62061D01*
X83780Y-62076D01*
X83774Y-62090D01*
X83774Y-62152D01*
X83816Y-62194D01*
X83905Y-62194D01*
X83908Y-62195D01*
X83975Y-62195D01*
X84215Y-62195D01*
X84216Y-62194D01*
X84257Y-62194D01*
X84257Y-62212D01*
X83908Y-62212D01*
X83905Y-62213D01*
X83816Y-62213D01*
X83774Y-62255D01*
X83774Y-62317D01*
X83780Y-62331D01*
X83774Y-62346D01*
X83774Y-62413D01*
X83774Y-62573D01*
X83780Y-62587D01*
X83774Y-62602D01*
X83774Y-62669D01*
X83774Y-62829D01*
X83780Y-62843D01*
X83774Y-62858D01*
X83774Y-62925D01*
X83774Y-63085D01*
X83780Y-63100D01*
X83774Y-63114D01*
X83774Y-63176D01*
X83816Y-63218D01*
X83905Y-63218D01*
X83908Y-63219D01*
X83975Y-63219D01*
X84625Y-63219D01*
X84628Y-63218D01*
X84717Y-63218D01*
X84759Y-63176D01*
X84759Y-63114D01*
X84759Y-63341D01*
X84759Y-63279D01*
X84717Y-63237D01*
X84628Y-63237D01*
X84625Y-63236D01*
X84558Y-63236D01*
X83908Y-63236D01*
X83905Y-63237D01*
X83816Y-63237D01*
X83775Y-63278D01*
X83775Y-63278D01*
X83752Y-63283D01*
X83682Y-63330D01*
X83469Y-63542D01*
X82710Y-63542D01*
X82417Y-63249D01*
X82417Y-62480D01*
X82400Y-62396D01*
X82400Y-62396D01*
X82353Y-62326D01*
X82077Y-62050D01*
X82007Y-62003D01*
X81925Y-61986D01*
X81925Y-61834D01*
X81919Y-61820D01*
X81925Y-61806D01*
X81925Y-61739D01*
X81925Y-61579D01*
X81919Y-61565D01*
X81925Y-61550D01*
X81925Y-61483D01*
X81925Y-61323D01*
X81899Y-61262D01*
X81852Y-61215D01*
X81791Y-61189D01*
X81724Y-61189D01*
X81074Y-61189D01*
X81013Y-61215D01*
X81008Y-61219D01*
X81003Y-61219D01*
X80919Y-61236D01*
X80892Y-61254D01*
X80892Y-61232D01*
X80840Y-61106D01*
X80763Y-61028D01*
X80750Y-60966D01*
X80750Y-60966D01*
X80703Y-60896D01*
X80703Y-60896D01*
X80074Y-60267D01*
X82959Y-60267D01*
X83371Y-60678D01*
X83371Y-60678D01*
X83890Y-61197D01*
X83847Y-61215D01*
X83800Y-61262D01*
X83774Y-61323D01*
X83774Y-61390D01*
X83774Y-61550D01*
X83780Y-61564D01*
X83774Y-61579D01*
X83774Y-61646D01*
X83774Y-61806D01*
X83780Y-61820D01*
X83774Y-61834D01*
X83774Y-61896D01*
X83816Y-61938D01*
X83903Y-61938D01*
X83908Y-61940D01*
X83975Y-61940D01*
X84625Y-61940D01*
X84630Y-61938D01*
X84717Y-61938D01*
X84759Y-61896D01*
X84759Y-61834D01*
X84753Y-61820D01*
X84759Y-61806D01*
X84759Y-61739D01*
X84759Y-61579D01*
X84753Y-61565D01*
X84759Y-61550D01*
X84759Y-61491D01*
X84771Y-61503D01*
X84771Y-61503D01*
X84841Y-61550D01*
X84841Y-61550D01*
X84924Y-61567D01*
X84925Y-61567D01*
X86284Y-61567D01*
X86367Y-61550D01*
X86367Y-61550D01*
X86437Y-61503D01*
X86489Y-61451D01*
X86983Y-61451D01*
X87044Y-61425D01*
X87091Y-61378D01*
X87117Y-61317D01*
X87117Y-61250D01*
X87117Y-60650D01*
X87091Y-60589D01*
X87044Y-60542D01*
X86983Y-60516D01*
X86916Y-60516D01*
X86316Y-60516D01*
X86255Y-60542D01*
X86208Y-60589D01*
X86182Y-60650D01*
X86182Y-60717D01*
X86182Y-61132D01*
X85307Y-61132D01*
X85403Y-61092D01*
X85617Y-60879D01*
X85732Y-60601D01*
X85733Y-60299D01*
X85617Y-60021D01*
X85543Y-59946D01*
X88003Y-59946D01*
X88003Y-60676D01*
X87915Y-60588D01*
X87743Y-60516D01*
X87557Y-60516D01*
X87385Y-60587D01*
X87254Y-60718D01*
X87182Y-60890D01*
X87182Y-61076D01*
X87253Y-61248D01*
X87384Y-61379D01*
X87556Y-61451D01*
X87742Y-61451D01*
X87914Y-61380D01*
X88003Y-61291D01*
X88003Y-61676D01*
X87915Y-61588D01*
X87743Y-61516D01*
X87557Y-61516D01*
X87385Y-61587D01*
X87254Y-61718D01*
X87182Y-61890D01*
X87182Y-62076D01*
X87253Y-62248D01*
X87384Y-62379D01*
X87556Y-62451D01*
X87742Y-62451D01*
X87914Y-62380D01*
X88003Y-62291D01*
X88003Y-62676D01*
G54D10*
G36*
X88003Y-69697D02*
X87964Y-69683D01*
X87950Y-69697D01*
X87950Y-69669D01*
X87922Y-69592D01*
X87751Y-69518D01*
X87565Y-69515D01*
X87392Y-69582D01*
X87377Y-69592D01*
X87349Y-69669D01*
X87650Y-69970D01*
X87950Y-69669D01*
X87950Y-69697D01*
X87663Y-69984D01*
X87669Y-69989D01*
X87655Y-70003D01*
X87650Y-69997D01*
X87644Y-70003D01*
X87636Y-69995D01*
X87630Y-69989D01*
X87636Y-69984D01*
X87335Y-69683D01*
X87258Y-69711D01*
X87184Y-69882D01*
X87181Y-70068D01*
X87248Y-70241D01*
X87258Y-70256D01*
X87335Y-70284D01*
X87316Y-70303D01*
X87118Y-70303D01*
X86983Y-70303D01*
X86964Y-70284D01*
X87041Y-70256D01*
X87115Y-70085D01*
X87118Y-69899D01*
X87051Y-69726D01*
X87041Y-69711D01*
X86964Y-69683D01*
X86950Y-69697D01*
X86950Y-69669D01*
X86922Y-69592D01*
X86751Y-69518D01*
X86565Y-69515D01*
X86392Y-69582D01*
X86377Y-69592D01*
X86349Y-69669D01*
X86650Y-69970D01*
X86950Y-69669D01*
X86950Y-69697D01*
X86663Y-69984D01*
X86669Y-69989D01*
X86655Y-70003D01*
X86650Y-69997D01*
X86644Y-70003D01*
X86630Y-69989D01*
X86636Y-69984D01*
X86335Y-69683D01*
X86258Y-69711D01*
X86232Y-69771D01*
X86232Y-69251D01*
X86240Y-69244D01*
X86245Y-69229D01*
X86253Y-69248D01*
X86384Y-69379D01*
X86556Y-69451D01*
X86742Y-69451D01*
X86914Y-69380D01*
X87045Y-69249D01*
X87117Y-69077D01*
X87117Y-68891D01*
X87046Y-68719D01*
X86915Y-68588D01*
X86743Y-68516D01*
X86557Y-68516D01*
X86385Y-68587D01*
X86254Y-68718D01*
X86209Y-68825D01*
X86144Y-68759D01*
X86018Y-68707D01*
X85888Y-68707D01*
X85888Y-68442D01*
X86017Y-68442D01*
X86143Y-68390D01*
X86240Y-68294D01*
X86257Y-68252D01*
X86384Y-68379D01*
X86556Y-68451D01*
X86742Y-68451D01*
X86914Y-68380D01*
X87045Y-68249D01*
X87117Y-68077D01*
X87117Y-67891D01*
X87046Y-67719D01*
X86915Y-67588D01*
X86743Y-67516D01*
X86557Y-67516D01*
X86385Y-67587D01*
X86254Y-67718D01*
X86232Y-67770D01*
X86232Y-67197D01*
X86253Y-67248D01*
X86384Y-67379D01*
X86556Y-67451D01*
X86742Y-67451D01*
X86914Y-67380D01*
X87045Y-67249D01*
X87117Y-67077D01*
X87117Y-66891D01*
X87117Y-65891D01*
X87046Y-65719D01*
X86915Y-65588D01*
X86743Y-65516D01*
X86557Y-65516D01*
X86385Y-65587D01*
X86254Y-65718D01*
X86182Y-65890D01*
X86182Y-66076D01*
X86253Y-66248D01*
X86384Y-66379D01*
X86556Y-66451D01*
X86742Y-66451D01*
X86914Y-66380D01*
X87045Y-66249D01*
X87117Y-66077D01*
X87117Y-65891D01*
X87117Y-66891D01*
X87046Y-66719D01*
X86915Y-66588D01*
X86743Y-66516D01*
X86557Y-66516D01*
X86385Y-66587D01*
X86254Y-66718D01*
X86209Y-66826D01*
X86207Y-66821D01*
X86160Y-66773D01*
X86116Y-66755D01*
X86127Y-66743D01*
X86153Y-66682D01*
X86153Y-66143D01*
X86127Y-66082D01*
X86080Y-66035D01*
X86019Y-66009D01*
X85952Y-66009D01*
X85801Y-66009D01*
X85759Y-66051D01*
X85759Y-66403D01*
X86111Y-66403D01*
X86153Y-66361D01*
X86153Y-66143D01*
X86153Y-66682D01*
X86153Y-66464D01*
X86111Y-66422D01*
X85759Y-66422D01*
X85759Y-66430D01*
X85740Y-66430D01*
X85740Y-66422D01*
X85732Y-66422D01*
X85732Y-66403D01*
X85740Y-66403D01*
X85740Y-66051D01*
X85698Y-66009D01*
X85547Y-66009D01*
X85480Y-66009D01*
X85427Y-66031D01*
X85416Y-66005D01*
X85369Y-65958D01*
X85308Y-65932D01*
X85241Y-65932D01*
X84691Y-65932D01*
X84630Y-65958D01*
X84583Y-66005D01*
X84557Y-66066D01*
X84557Y-66133D01*
X84557Y-66483D01*
X84583Y-66544D01*
X84630Y-66591D01*
X84691Y-66617D01*
X84758Y-66617D01*
X84782Y-66617D01*
X84782Y-66781D01*
X84771Y-66755D01*
X84724Y-66708D01*
X84663Y-66682D01*
X84581Y-66682D01*
X84539Y-66724D01*
X84539Y-67340D01*
X84547Y-67340D01*
X84547Y-67359D01*
X84539Y-67359D01*
X84539Y-67367D01*
X84520Y-67367D01*
X84520Y-67359D01*
X84512Y-67359D01*
X84512Y-67340D01*
X84520Y-67340D01*
X84520Y-66724D01*
X84478Y-66682D01*
X84396Y-66682D01*
X84372Y-66692D01*
X84348Y-66682D01*
X84281Y-66682D01*
X84279Y-66682D01*
X84319Y-66642D01*
X84383Y-66642D01*
X84444Y-66616D01*
X84491Y-66569D01*
X84517Y-66508D01*
X84517Y-66441D01*
X84517Y-65891D01*
X84492Y-65831D01*
X84492Y-65725D01*
X84475Y-65641D01*
X84475Y-65641D01*
X84442Y-65592D01*
X84492Y-65592D01*
X84557Y-65565D01*
X84557Y-65733D01*
X84583Y-65794D01*
X84630Y-65841D01*
X84691Y-65867D01*
X84758Y-65867D01*
X85308Y-65867D01*
X85346Y-65851D01*
X85346Y-65856D01*
X85372Y-65917D01*
X85419Y-65964D01*
X85480Y-65990D01*
X85547Y-65990D01*
X86019Y-65990D01*
X86080Y-65964D01*
X86127Y-65917D01*
X86153Y-65856D01*
X86153Y-65789D01*
X86153Y-65317D01*
X86127Y-65256D01*
X86080Y-65209D01*
X86019Y-65183D01*
X85952Y-65183D01*
X85480Y-65183D01*
X85419Y-65209D01*
X85394Y-65233D01*
X85369Y-65208D01*
X85308Y-65182D01*
X85241Y-65182D01*
X85197Y-65182D01*
X85203Y-65178D01*
X85253Y-65128D01*
X85256Y-65124D01*
X85264Y-65118D01*
X85290Y-65074D01*
X85300Y-65058D01*
X85301Y-65054D01*
X85307Y-65044D01*
X85314Y-64990D01*
X85317Y-64975D01*
X85316Y-64971D01*
X85318Y-64960D01*
X85227Y-63599D01*
X85357Y-63552D01*
X85357Y-63667D01*
X85409Y-63793D01*
X85505Y-63890D01*
X85508Y-63891D01*
X85533Y-64169D01*
X85557Y-64251D01*
X85610Y-64316D01*
X85611Y-64317D01*
X85703Y-64570D01*
X85657Y-64681D01*
X85657Y-64817D01*
X85709Y-64943D01*
X85805Y-65040D01*
X85931Y-65092D01*
X86067Y-65092D01*
X86182Y-65044D01*
X86182Y-65076D01*
X86253Y-65248D01*
X86384Y-65379D01*
X86556Y-65451D01*
X86742Y-65451D01*
X86914Y-65380D01*
X86932Y-65362D01*
X86932Y-65484D01*
X86949Y-65567D01*
X86996Y-65637D01*
X87202Y-65843D01*
X87182Y-65890D01*
X87182Y-66076D01*
X87253Y-66248D01*
X87384Y-66379D01*
X87556Y-66451D01*
X87742Y-66451D01*
X87914Y-66380D01*
X88003Y-66291D01*
X88003Y-66676D01*
X87915Y-66588D01*
X87743Y-66516D01*
X87557Y-66516D01*
X87385Y-66587D01*
X87254Y-66718D01*
X87182Y-66890D01*
X87182Y-67076D01*
X87253Y-67248D01*
X87384Y-67379D01*
X87556Y-67451D01*
X87742Y-67451D01*
X87914Y-67380D01*
X88003Y-67291D01*
X88003Y-67676D01*
X87915Y-67588D01*
X87743Y-67516D01*
X87557Y-67516D01*
X87385Y-67587D01*
X87254Y-67718D01*
X87182Y-67890D01*
X87182Y-68076D01*
X87253Y-68248D01*
X87384Y-68379D01*
X87556Y-68451D01*
X87742Y-68451D01*
X87914Y-68380D01*
X88003Y-68291D01*
X88003Y-68676D01*
X87915Y-68588D01*
X87743Y-68516D01*
X87557Y-68516D01*
X87385Y-68587D01*
X87254Y-68718D01*
X87182Y-68890D01*
X87182Y-69076D01*
X87253Y-69248D01*
X87384Y-69379D01*
X87556Y-69451D01*
X87742Y-69451D01*
X87914Y-69380D01*
X88003Y-69291D01*
X88003Y-69697D01*
X88003Y-69697D01*
G37*
G54D26*
X88003Y-69697D02*
X87964Y-69683D01*
X87950Y-69697D01*
X87950Y-69669D01*
X87922Y-69592D01*
X87751Y-69518D01*
X87565Y-69515D01*
X87392Y-69582D01*
X87377Y-69592D01*
X87349Y-69669D01*
X87650Y-69970D01*
X87950Y-69669D01*
X87950Y-69697D01*
X87663Y-69984D01*
X87669Y-69989D01*
X87655Y-70003D01*
X87650Y-69997D01*
X87644Y-70003D01*
X87636Y-69995D01*
X87630Y-69989D01*
X87636Y-69984D01*
X87335Y-69683D01*
X87258Y-69711D01*
X87184Y-69882D01*
X87181Y-70068D01*
X87248Y-70241D01*
X87258Y-70256D01*
X87335Y-70284D01*
X87316Y-70303D01*
X87118Y-70303D01*
X86983Y-70303D01*
X86964Y-70284D01*
X87041Y-70256D01*
X87115Y-70085D01*
X87118Y-69899D01*
X87051Y-69726D01*
X87041Y-69711D01*
X86964Y-69683D01*
X86950Y-69697D01*
X86950Y-69669D01*
X86922Y-69592D01*
X86751Y-69518D01*
X86565Y-69515D01*
X86392Y-69582D01*
X86377Y-69592D01*
X86349Y-69669D01*
X86650Y-69970D01*
X86950Y-69669D01*
X86950Y-69697D01*
X86663Y-69984D01*
X86669Y-69989D01*
X86655Y-70003D01*
X86650Y-69997D01*
X86644Y-70003D01*
X86630Y-69989D01*
X86636Y-69984D01*
X86335Y-69683D01*
X86258Y-69711D01*
X86232Y-69771D01*
X86232Y-69251D01*
X86240Y-69244D01*
X86245Y-69229D01*
X86253Y-69248D01*
X86384Y-69379D01*
X86556Y-69451D01*
X86742Y-69451D01*
X86914Y-69380D01*
X87045Y-69249D01*
X87117Y-69077D01*
X87117Y-68891D01*
X87046Y-68719D01*
X86915Y-68588D01*
X86743Y-68516D01*
X86557Y-68516D01*
X86385Y-68587D01*
X86254Y-68718D01*
X86209Y-68825D01*
X86144Y-68759D01*
X86018Y-68707D01*
X85888Y-68707D01*
X85888Y-68442D01*
X86017Y-68442D01*
X86143Y-68390D01*
X86240Y-68294D01*
X86257Y-68252D01*
X86384Y-68379D01*
X86556Y-68451D01*
X86742Y-68451D01*
X86914Y-68380D01*
X87045Y-68249D01*
X87117Y-68077D01*
X87117Y-67891D01*
X87046Y-67719D01*
X86915Y-67588D01*
X86743Y-67516D01*
X86557Y-67516D01*
X86385Y-67587D01*
X86254Y-67718D01*
X86232Y-67770D01*
X86232Y-67197D01*
X86253Y-67248D01*
X86384Y-67379D01*
X86556Y-67451D01*
X86742Y-67451D01*
X86914Y-67380D01*
X87045Y-67249D01*
X87117Y-67077D01*
X87117Y-66891D01*
X87117Y-65891D01*
X87046Y-65719D01*
X86915Y-65588D01*
X86743Y-65516D01*
X86557Y-65516D01*
X86385Y-65587D01*
X86254Y-65718D01*
X86182Y-65890D01*
X86182Y-66076D01*
X86253Y-66248D01*
X86384Y-66379D01*
X86556Y-66451D01*
X86742Y-66451D01*
X86914Y-66380D01*
X87045Y-66249D01*
X87117Y-66077D01*
X87117Y-65891D01*
X87117Y-66891D01*
X87046Y-66719D01*
X86915Y-66588D01*
X86743Y-66516D01*
X86557Y-66516D01*
X86385Y-66587D01*
X86254Y-66718D01*
X86209Y-66826D01*
X86207Y-66821D01*
X86160Y-66773D01*
X86116Y-66755D01*
X86127Y-66743D01*
X86153Y-66682D01*
X86153Y-66143D01*
X86127Y-66082D01*
X86080Y-66035D01*
X86019Y-66009D01*
X85952Y-66009D01*
X85801Y-66009D01*
X85759Y-66051D01*
X85759Y-66403D01*
X86111Y-66403D01*
X86153Y-66361D01*
X86153Y-66143D01*
X86153Y-66682D01*
X86153Y-66464D01*
X86111Y-66422D01*
X85759Y-66422D01*
X85759Y-66430D01*
X85740Y-66430D01*
X85740Y-66422D01*
X85732Y-66422D01*
X85732Y-66403D01*
X85740Y-66403D01*
X85740Y-66051D01*
X85698Y-66009D01*
X85547Y-66009D01*
X85480Y-66009D01*
X85427Y-66031D01*
X85416Y-66005D01*
X85369Y-65958D01*
X85308Y-65932D01*
X85241Y-65932D01*
X84691Y-65932D01*
X84630Y-65958D01*
X84583Y-66005D01*
X84557Y-66066D01*
X84557Y-66133D01*
X84557Y-66483D01*
X84583Y-66544D01*
X84630Y-66591D01*
X84691Y-66617D01*
X84758Y-66617D01*
X84782Y-66617D01*
X84782Y-66781D01*
X84771Y-66755D01*
X84724Y-66708D01*
X84663Y-66682D01*
X84581Y-66682D01*
X84539Y-66724D01*
X84539Y-67340D01*
X84547Y-67340D01*
X84547Y-67359D01*
X84539Y-67359D01*
X84539Y-67367D01*
X84520Y-67367D01*
X84520Y-67359D01*
X84512Y-67359D01*
X84512Y-67340D01*
X84520Y-67340D01*
X84520Y-66724D01*
X84478Y-66682D01*
X84396Y-66682D01*
X84372Y-66692D01*
X84348Y-66682D01*
X84281Y-66682D01*
X84279Y-66682D01*
X84319Y-66642D01*
X84383Y-66642D01*
X84444Y-66616D01*
X84491Y-66569D01*
X84517Y-66508D01*
X84517Y-66441D01*
X84517Y-65891D01*
X84492Y-65831D01*
X84492Y-65725D01*
X84475Y-65641D01*
X84475Y-65641D01*
X84442Y-65592D01*
X84492Y-65592D01*
X84557Y-65565D01*
X84557Y-65733D01*
X84583Y-65794D01*
X84630Y-65841D01*
X84691Y-65867D01*
X84758Y-65867D01*
X85308Y-65867D01*
X85346Y-65851D01*
X85346Y-65856D01*
X85372Y-65917D01*
X85419Y-65964D01*
X85480Y-65990D01*
X85547Y-65990D01*
X86019Y-65990D01*
X86080Y-65964D01*
X86127Y-65917D01*
X86153Y-65856D01*
X86153Y-65789D01*
X86153Y-65317D01*
X86127Y-65256D01*
X86080Y-65209D01*
X86019Y-65183D01*
X85952Y-65183D01*
X85480Y-65183D01*
X85419Y-65209D01*
X85394Y-65233D01*
X85369Y-65208D01*
X85308Y-65182D01*
X85241Y-65182D01*
X85197Y-65182D01*
X85203Y-65178D01*
X85253Y-65128D01*
X85256Y-65124D01*
X85264Y-65118D01*
X85290Y-65074D01*
X85300Y-65058D01*
X85301Y-65054D01*
X85307Y-65044D01*
X85314Y-64990D01*
X85317Y-64975D01*
X85316Y-64971D01*
X85318Y-64960D01*
X85227Y-63599D01*
X85357Y-63552D01*
X85357Y-63667D01*
X85409Y-63793D01*
X85505Y-63890D01*
X85508Y-63891D01*
X85533Y-64169D01*
X85557Y-64251D01*
X85610Y-64316D01*
X85611Y-64317D01*
X85703Y-64570D01*
X85657Y-64681D01*
X85657Y-64817D01*
X85709Y-64943D01*
X85805Y-65040D01*
X85931Y-65092D01*
X86067Y-65092D01*
X86182Y-65044D01*
X86182Y-65076D01*
X86253Y-65248D01*
X86384Y-65379D01*
X86556Y-65451D01*
X86742Y-65451D01*
X86914Y-65380D01*
X86932Y-65362D01*
X86932Y-65484D01*
X86949Y-65567D01*
X86996Y-65637D01*
X87202Y-65843D01*
X87182Y-65890D01*
X87182Y-66076D01*
X87253Y-66248D01*
X87384Y-66379D01*
X87556Y-66451D01*
X87742Y-66451D01*
X87914Y-66380D01*
X88003Y-66291D01*
X88003Y-66676D01*
X87915Y-66588D01*
X87743Y-66516D01*
X87557Y-66516D01*
X87385Y-66587D01*
X87254Y-66718D01*
X87182Y-66890D01*
X87182Y-67076D01*
X87253Y-67248D01*
X87384Y-67379D01*
X87556Y-67451D01*
X87742Y-67451D01*
X87914Y-67380D01*
X88003Y-67291D01*
X88003Y-67676D01*
X87915Y-67588D01*
X87743Y-67516D01*
X87557Y-67516D01*
X87385Y-67587D01*
X87254Y-67718D01*
X87182Y-67890D01*
X87182Y-68076D01*
X87253Y-68248D01*
X87384Y-68379D01*
X87556Y-68451D01*
X87742Y-68451D01*
X87914Y-68380D01*
X88003Y-68291D01*
X88003Y-68676D01*
X87915Y-68588D01*
X87743Y-68516D01*
X87557Y-68516D01*
X87385Y-68587D01*
X87254Y-68718D01*
X87182Y-68890D01*
X87182Y-69076D01*
X87253Y-69248D01*
X87384Y-69379D01*
X87556Y-69451D01*
X87742Y-69451D01*
X87914Y-69380D01*
X88003Y-69291D01*
X88003Y-69697D01*
M02*
