M48
;DRILL file {Pcbnew (2013-07-07 BZR 4022)-stable} date 03/12/2013 21:27:07
;FORMAT={-:-/ absolute / inch / decimal}
FMAT,2
INCH,TZ
T1C0.025
T2C0.040
%
G90
G05
M72
T1
X8.575Y-2.625
X8.675Y-2.55
X8.8Y-2.725
X8.825Y-2.525
X8.85Y-2.45
X9.025Y-2.8
X9.05Y-2.275
X9.3Y-2.175
T2
X8.475Y-2.125
X8.575Y-2.125
X8.675Y-2.125
X8.775Y-2.125
X9.045Y-2.53
X9.045Y-2.63
X9.145Y-2.53
X9.145Y-2.63
X9.245Y-2.53
X9.245Y-2.63
X9.32Y-2.12
X9.345Y-2.53
X9.345Y-2.63
X9.4275Y-2.12
X9.445Y-2.53
X9.445Y-2.63
T0
M30
