G04 (created by PCBNEW (2013-07-07 BZR 4022)-stable) date 03/12/2013 21:27:05*
%MOIN*%
G04 Gerber Fmt 3.4, Leading zero omitted, Abs format*
%FSLAX34Y34*%
G01*
G70*
G90*
G04 APERTURE LIST*
%ADD10C,0.00590551*%
%ADD11C,0.005*%
%ADD12C,0.0039*%
%ADD13C,0.012*%
%ADD14C,0.0026*%
%ADD15C,0.008*%
%ADD16C,0.0001*%
%ADD17C,0.01*%
%ADD18C,0.006*%
%ADD19C,0.0043*%
%ADD20C,0.0035*%
G04 APERTURE END LIST*
G54D10*
G54D11*
X86476Y-22123D02*
X86457Y-22142D01*
X86400Y-22161D01*
X86361Y-22161D01*
X86304Y-22142D01*
X86266Y-22104D01*
X86247Y-22066D01*
X86228Y-21990D01*
X86228Y-21933D01*
X86247Y-21857D01*
X86266Y-21819D01*
X86304Y-21780D01*
X86361Y-21761D01*
X86400Y-21761D01*
X86457Y-21780D01*
X86476Y-21800D01*
X86628Y-22047D02*
X86819Y-22047D01*
X86590Y-22161D02*
X86723Y-21761D01*
X86857Y-22161D01*
X86990Y-22161D02*
X86990Y-21761D01*
X87123Y-22047D01*
X87257Y-21761D01*
X87257Y-22161D01*
X87447Y-22009D02*
X87752Y-22009D01*
X84226Y-21873D02*
X84207Y-21892D01*
X84150Y-21911D01*
X84111Y-21911D01*
X84054Y-21892D01*
X84016Y-21854D01*
X83997Y-21816D01*
X83978Y-21740D01*
X83978Y-21683D01*
X83997Y-21607D01*
X84016Y-21569D01*
X84054Y-21530D01*
X84111Y-21511D01*
X84150Y-21511D01*
X84207Y-21530D01*
X84226Y-21550D01*
X84626Y-21911D02*
X84492Y-21721D01*
X84397Y-21911D02*
X84397Y-21511D01*
X84550Y-21511D01*
X84588Y-21530D01*
X84607Y-21550D01*
X84626Y-21588D01*
X84626Y-21645D01*
X84607Y-21683D01*
X84588Y-21702D01*
X84550Y-21721D01*
X84397Y-21721D01*
X84797Y-21911D02*
X84797Y-21511D01*
X85026Y-21911D02*
X84854Y-21683D01*
X85026Y-21511D02*
X84797Y-21740D01*
X85197Y-21759D02*
X85502Y-21759D01*
X85350Y-21911D02*
X85350Y-21607D01*
G54D12*
X85550Y-25450D02*
G75*
G03X85550Y-25450I-50J0D01*
G74*
G01*
X85050Y-25450D02*
X85450Y-25450D01*
X85450Y-25450D02*
X85450Y-26050D01*
X85450Y-26050D02*
X85050Y-26050D01*
X84650Y-26050D02*
X84250Y-26050D01*
X84250Y-26050D02*
X84250Y-25450D01*
X84250Y-25450D02*
X84650Y-25450D01*
X87750Y-23050D02*
G75*
G03X87750Y-23050I-50J0D01*
G74*
G01*
X87250Y-23050D02*
X87650Y-23050D01*
X87650Y-23050D02*
X87650Y-23650D01*
X87650Y-23650D02*
X87250Y-23650D01*
X86850Y-23650D02*
X86450Y-23650D01*
X86450Y-23650D02*
X86450Y-23050D01*
X86450Y-23050D02*
X86850Y-23050D01*
X87800Y-25700D02*
G75*
G03X87800Y-25700I-50J0D01*
G74*
G01*
X87750Y-26150D02*
X87750Y-25750D01*
X87750Y-25750D02*
X88350Y-25750D01*
X88350Y-25750D02*
X88350Y-26150D01*
X88350Y-26550D02*
X88350Y-26950D01*
X88350Y-26950D02*
X87750Y-26950D01*
X87750Y-26950D02*
X87750Y-26550D01*
X90300Y-24550D02*
G75*
G03X90300Y-24550I-50J0D01*
G74*
G01*
X90700Y-24550D02*
X90300Y-24550D01*
X90300Y-24550D02*
X90300Y-23950D01*
X90300Y-23950D02*
X90700Y-23950D01*
X91100Y-23950D02*
X91500Y-23950D01*
X91500Y-23950D02*
X91500Y-24550D01*
X91500Y-24550D02*
X91100Y-24550D01*
X90300Y-23900D02*
G75*
G03X90300Y-23900I-50J0D01*
G74*
G01*
X90700Y-23900D02*
X90300Y-23900D01*
X90300Y-23900D02*
X90300Y-23300D01*
X90300Y-23300D02*
X90700Y-23300D01*
X91100Y-23300D02*
X91500Y-23300D01*
X91500Y-23300D02*
X91500Y-23900D01*
X91500Y-23900D02*
X91100Y-23900D01*
X92050Y-24625D02*
G75*
G03X92050Y-24625I-50J0D01*
G74*
G01*
X92450Y-24625D02*
X92050Y-24625D01*
X92050Y-24625D02*
X92050Y-24025D01*
X92050Y-24025D02*
X92450Y-24025D01*
X92850Y-24025D02*
X93250Y-24025D01*
X93250Y-24025D02*
X93250Y-24625D01*
X93250Y-24625D02*
X92850Y-24625D01*
X93425Y-24625D02*
G75*
G03X93425Y-24625I-50J0D01*
G74*
G01*
X93825Y-24625D02*
X93425Y-24625D01*
X93425Y-24625D02*
X93425Y-24025D01*
X93425Y-24025D02*
X93825Y-24025D01*
X94225Y-24025D02*
X94625Y-24025D01*
X94625Y-24025D02*
X94625Y-24625D01*
X94625Y-24625D02*
X94225Y-24625D01*
G54D13*
X89950Y-24800D02*
X94950Y-24800D01*
X94950Y-24800D02*
X94950Y-26800D01*
X94950Y-26800D02*
X89950Y-26800D01*
X89950Y-26800D02*
X89950Y-24800D01*
G54D12*
X83500Y-21300D02*
G75*
G03X83500Y-21300I-50J0D01*
G74*
G01*
X83450Y-21750D02*
X83450Y-21350D01*
X83450Y-21350D02*
X84050Y-21350D01*
X84050Y-21350D02*
X84050Y-21750D01*
X84050Y-22150D02*
X84050Y-22550D01*
X84050Y-22550D02*
X83450Y-22550D01*
X83450Y-22550D02*
X83450Y-22150D01*
X84550Y-21850D02*
G75*
G03X84550Y-21850I-50J0D01*
G74*
G01*
X84500Y-22300D02*
X84500Y-21900D01*
X84500Y-21900D02*
X85100Y-21900D01*
X85100Y-21900D02*
X85100Y-22300D01*
X85100Y-22700D02*
X85100Y-23100D01*
X85100Y-23100D02*
X84500Y-23100D01*
X84500Y-23100D02*
X84500Y-22700D01*
X87100Y-22275D02*
G75*
G03X87100Y-22275I-50J0D01*
G74*
G01*
X86600Y-22275D02*
X87000Y-22275D01*
X87000Y-22275D02*
X87000Y-22875D01*
X87000Y-22875D02*
X86600Y-22875D01*
X86200Y-22875D02*
X85800Y-22875D01*
X85800Y-22875D02*
X85800Y-22275D01*
X85800Y-22275D02*
X86200Y-22275D01*
X89250Y-25550D02*
G75*
G03X89250Y-25550I-50J0D01*
G74*
G01*
X89200Y-26000D02*
X89200Y-25600D01*
X89200Y-25600D02*
X89800Y-25600D01*
X89800Y-25600D02*
X89800Y-26000D01*
X89800Y-26400D02*
X89800Y-26800D01*
X89800Y-26800D02*
X89200Y-26800D01*
X89200Y-26800D02*
X89200Y-26400D01*
X88500Y-21400D02*
G75*
G03X88500Y-21400I-50J0D01*
G74*
G01*
X88450Y-21850D02*
X88450Y-21450D01*
X88450Y-21450D02*
X89050Y-21450D01*
X89050Y-21450D02*
X89050Y-21850D01*
X89050Y-22250D02*
X89050Y-22650D01*
X89050Y-22650D02*
X88450Y-22650D01*
X88450Y-22650D02*
X88450Y-22250D01*
X83500Y-22650D02*
G75*
G03X83500Y-22650I-50J0D01*
G74*
G01*
X83450Y-23100D02*
X83450Y-22700D01*
X83450Y-22700D02*
X84050Y-22700D01*
X84050Y-22700D02*
X84050Y-23100D01*
X84050Y-23500D02*
X84050Y-23900D01*
X84050Y-23900D02*
X83450Y-23900D01*
X83450Y-23900D02*
X83450Y-23500D01*
X84550Y-23250D02*
G75*
G03X84550Y-23250I-50J0D01*
G74*
G01*
X84500Y-23700D02*
X84500Y-23300D01*
X84500Y-23300D02*
X85100Y-23300D01*
X85100Y-23300D02*
X85100Y-23700D01*
X85100Y-24100D02*
X85100Y-24500D01*
X85100Y-24500D02*
X84500Y-24500D01*
X84500Y-24500D02*
X84500Y-24100D01*
X85550Y-22975D02*
G75*
G03X85550Y-22975I-50J0D01*
G74*
G01*
X85500Y-23425D02*
X85500Y-23025D01*
X85500Y-23025D02*
X86100Y-23025D01*
X86100Y-23025D02*
X86100Y-23425D01*
X86100Y-23825D02*
X86100Y-24225D01*
X86100Y-24225D02*
X85500Y-24225D01*
X85500Y-24225D02*
X85500Y-23825D01*
X87800Y-22200D02*
G75*
G03X87800Y-22200I-50J0D01*
G74*
G01*
X87750Y-22650D02*
X87750Y-22250D01*
X87750Y-22250D02*
X88350Y-22250D01*
X88350Y-22250D02*
X88350Y-22650D01*
X88350Y-23050D02*
X88350Y-23450D01*
X88350Y-23450D02*
X87750Y-23450D01*
X87750Y-23450D02*
X87750Y-23050D01*
X84250Y-25300D02*
G75*
G03X84250Y-25300I-50J0D01*
G74*
G01*
X84650Y-25300D02*
X84250Y-25300D01*
X84250Y-25300D02*
X84250Y-24700D01*
X84250Y-24700D02*
X84650Y-24700D01*
X85050Y-24700D02*
X85450Y-24700D01*
X85450Y-24700D02*
X85450Y-25300D01*
X85450Y-25300D02*
X85050Y-25300D01*
X87750Y-23750D02*
G75*
G03X87750Y-23750I-50J0D01*
G74*
G01*
X87250Y-23750D02*
X87650Y-23750D01*
X87650Y-23750D02*
X87650Y-24350D01*
X87650Y-24350D02*
X87250Y-24350D01*
X86850Y-24350D02*
X86450Y-24350D01*
X86450Y-24350D02*
X86450Y-23750D01*
X86450Y-23750D02*
X86850Y-23750D01*
X90750Y-27700D02*
G75*
G03X90750Y-27700I-50J0D01*
G74*
G01*
X91150Y-27700D02*
X90750Y-27700D01*
X90750Y-27700D02*
X90750Y-27100D01*
X90750Y-27100D02*
X91150Y-27100D01*
X91550Y-27100D02*
X91950Y-27100D01*
X91950Y-27100D02*
X91950Y-27700D01*
X91950Y-27700D02*
X91550Y-27700D01*
X89100Y-26850D02*
G75*
G03X89100Y-26850I-50J0D01*
G74*
G01*
X89050Y-26400D02*
X89050Y-26800D01*
X89050Y-26800D02*
X88450Y-26800D01*
X88450Y-26800D02*
X88450Y-26400D01*
X88450Y-26000D02*
X88450Y-25600D01*
X88450Y-25600D02*
X89050Y-25600D01*
X89050Y-25600D02*
X89050Y-26000D01*
X90950Y-21950D02*
G75*
G03X90950Y-21950I-50J0D01*
G74*
G01*
X90900Y-22400D02*
X90900Y-22000D01*
X90900Y-22000D02*
X91500Y-22000D01*
X91500Y-22000D02*
X91500Y-22400D01*
X91500Y-22800D02*
X91500Y-23200D01*
X91500Y-23200D02*
X90900Y-23200D01*
X90900Y-23200D02*
X90900Y-22800D01*
X92600Y-21075D02*
G75*
G03X92600Y-21075I-50J0D01*
G74*
G01*
X92100Y-21075D02*
X92500Y-21075D01*
X92500Y-21075D02*
X92500Y-21675D01*
X92500Y-21675D02*
X92100Y-21675D01*
X91700Y-21675D02*
X91300Y-21675D01*
X91300Y-21675D02*
X91300Y-21075D01*
X91300Y-21075D02*
X91700Y-21075D01*
X92050Y-23900D02*
G75*
G03X92050Y-23900I-50J0D01*
G74*
G01*
X92450Y-23900D02*
X92050Y-23900D01*
X92050Y-23900D02*
X92050Y-23300D01*
X92050Y-23300D02*
X92450Y-23300D01*
X92850Y-23300D02*
X93250Y-23300D01*
X93250Y-23300D02*
X93250Y-23900D01*
X93250Y-23900D02*
X92850Y-23900D01*
X94725Y-23300D02*
G75*
G03X94725Y-23300I-50J0D01*
G74*
G01*
X94225Y-23300D02*
X94625Y-23300D01*
X94625Y-23300D02*
X94625Y-23900D01*
X94625Y-23900D02*
X94225Y-23900D01*
X93825Y-23900D02*
X93425Y-23900D01*
X93425Y-23900D02*
X93425Y-23300D01*
X93425Y-23300D02*
X93825Y-23300D01*
G54D14*
X85716Y-27320D02*
X85835Y-27320D01*
X85835Y-27320D02*
X85835Y-26808D01*
X85716Y-26808D02*
X85835Y-26808D01*
X85716Y-27320D02*
X85716Y-26808D01*
X85966Y-27320D02*
X86085Y-27320D01*
X86085Y-27320D02*
X86085Y-26808D01*
X85966Y-26808D02*
X86085Y-26808D01*
X85966Y-27320D02*
X85966Y-26808D01*
X86216Y-27320D02*
X86335Y-27320D01*
X86335Y-27320D02*
X86335Y-26808D01*
X86216Y-26808D02*
X86335Y-26808D01*
X86216Y-27320D02*
X86216Y-26808D01*
X86466Y-27320D02*
X86585Y-27320D01*
X86585Y-27320D02*
X86585Y-26808D01*
X86466Y-26808D02*
X86585Y-26808D01*
X86466Y-27320D02*
X86466Y-26808D01*
X86715Y-27320D02*
X86834Y-27320D01*
X86834Y-27320D02*
X86834Y-26808D01*
X86715Y-26808D02*
X86834Y-26808D01*
X86715Y-27320D02*
X86715Y-26808D01*
X86965Y-27320D02*
X87084Y-27320D01*
X87084Y-27320D02*
X87084Y-26808D01*
X86965Y-26808D02*
X87084Y-26808D01*
X86965Y-27320D02*
X86965Y-26808D01*
X87215Y-27320D02*
X87334Y-27320D01*
X87334Y-27320D02*
X87334Y-26808D01*
X87215Y-26808D02*
X87334Y-26808D01*
X87215Y-27320D02*
X87215Y-26808D01*
X87465Y-27320D02*
X87584Y-27320D01*
X87584Y-27320D02*
X87584Y-26808D01*
X87465Y-26808D02*
X87584Y-26808D01*
X87465Y-27320D02*
X87465Y-26808D01*
X87465Y-25392D02*
X87584Y-25392D01*
X87584Y-25392D02*
X87584Y-24880D01*
X87465Y-24880D02*
X87584Y-24880D01*
X87465Y-25392D02*
X87465Y-24880D01*
X87215Y-25392D02*
X87334Y-25392D01*
X87334Y-25392D02*
X87334Y-24880D01*
X87215Y-24880D02*
X87334Y-24880D01*
X87215Y-25392D02*
X87215Y-24880D01*
X86965Y-25392D02*
X87084Y-25392D01*
X87084Y-25392D02*
X87084Y-24880D01*
X86965Y-24880D02*
X87084Y-24880D01*
X86965Y-25392D02*
X86965Y-24880D01*
X86715Y-25392D02*
X86834Y-25392D01*
X86834Y-25392D02*
X86834Y-24880D01*
X86715Y-24880D02*
X86834Y-24880D01*
X86715Y-25392D02*
X86715Y-24880D01*
X86466Y-25392D02*
X86585Y-25392D01*
X86585Y-25392D02*
X86585Y-24880D01*
X86466Y-24880D02*
X86585Y-24880D01*
X86466Y-25392D02*
X86466Y-24880D01*
X86216Y-25392D02*
X86335Y-25392D01*
X86335Y-25392D02*
X86335Y-24880D01*
X86216Y-24880D02*
X86335Y-24880D01*
X86216Y-25392D02*
X86216Y-24880D01*
X85966Y-25392D02*
X86085Y-25392D01*
X86085Y-25392D02*
X86085Y-24880D01*
X85966Y-24880D02*
X86085Y-24880D01*
X85966Y-25392D02*
X85966Y-24880D01*
X85716Y-25392D02*
X85835Y-25392D01*
X85835Y-25392D02*
X85835Y-24880D01*
X85716Y-24880D02*
X85835Y-24880D01*
X85716Y-25392D02*
X85716Y-24880D01*
G54D15*
X85678Y-26828D02*
X85678Y-25372D01*
X87622Y-25372D02*
X87622Y-26828D01*
X85678Y-26828D02*
X87622Y-26828D01*
X87622Y-25372D02*
X85678Y-25372D01*
G54D16*
X86084Y-26513D02*
G75*
G03X86084Y-26513I-83J0D01*
G74*
G01*
G54D11*
X93253Y-23187D02*
X93253Y-22937D01*
X93253Y-22937D02*
X93753Y-22937D01*
X93753Y-22937D02*
X93753Y-23187D01*
X92203Y-23187D02*
X92203Y-22087D01*
X92203Y-22087D02*
X94853Y-22087D01*
X94853Y-22087D02*
X94853Y-23187D01*
X94853Y-23187D02*
X92203Y-23187D01*
G54D12*
X89250Y-26900D02*
G75*
G03X89250Y-26900I-50J0D01*
G74*
G01*
X89200Y-27350D02*
X89200Y-26950D01*
X89200Y-26950D02*
X89800Y-26950D01*
X89800Y-26950D02*
X89800Y-27350D01*
X89800Y-27750D02*
X89800Y-28150D01*
X89800Y-28150D02*
X89200Y-28150D01*
X89200Y-28150D02*
X89200Y-27750D01*
G54D17*
X84250Y-20750D02*
X88250Y-20750D01*
X84250Y-21750D02*
X88250Y-21750D01*
X88250Y-21750D02*
X88250Y-20750D01*
X84250Y-20750D02*
X84250Y-21750D01*
G54D12*
X88900Y-23550D02*
G75*
G03X88900Y-23550I-50J0D01*
G74*
G01*
X88850Y-24000D02*
X88850Y-23600D01*
X88850Y-23600D02*
X89450Y-23600D01*
X89450Y-23600D02*
X89450Y-24000D01*
X89450Y-24400D02*
X89450Y-24800D01*
X89450Y-24800D02*
X88850Y-24800D01*
X88850Y-24800D02*
X88850Y-24400D01*
X90200Y-24500D02*
G75*
G03X90200Y-24500I-50J0D01*
G74*
G01*
X90150Y-24050D02*
X90150Y-24450D01*
X90150Y-24450D02*
X89550Y-24450D01*
X89550Y-24450D02*
X89550Y-24050D01*
X89550Y-23650D02*
X89550Y-23250D01*
X89550Y-23250D02*
X90150Y-23250D01*
X90150Y-23250D02*
X90150Y-23650D01*
G54D18*
X93775Y-20700D02*
X94775Y-20700D01*
X94775Y-21700D02*
X93775Y-21700D01*
X94775Y-20700D02*
X94775Y-21700D01*
X93775Y-21700D02*
X93775Y-20700D01*
X93700Y-21700D02*
X92700Y-21700D01*
X92700Y-20700D02*
X93700Y-20700D01*
X92700Y-21700D02*
X92700Y-20700D01*
X93700Y-20700D02*
X93700Y-21700D01*
G54D12*
X88500Y-25500D02*
G75*
G03X88500Y-25500I-50J0D01*
G74*
G01*
X88900Y-25500D02*
X88500Y-25500D01*
X88500Y-25500D02*
X88500Y-24900D01*
X88500Y-24900D02*
X88900Y-24900D01*
X89300Y-24900D02*
X89700Y-24900D01*
X89700Y-24900D02*
X89700Y-25500D01*
X89700Y-25500D02*
X89300Y-25500D01*
G54D19*
X84910Y-25907D02*
X84920Y-25917D01*
X84929Y-25945D01*
X84929Y-25964D01*
X84920Y-25992D01*
X84901Y-26011D01*
X84882Y-26020D01*
X84845Y-26029D01*
X84817Y-26029D01*
X84779Y-26020D01*
X84760Y-26011D01*
X84742Y-25992D01*
X84732Y-25964D01*
X84732Y-25945D01*
X84742Y-25917D01*
X84751Y-25907D01*
X84732Y-25729D02*
X84732Y-25823D01*
X84826Y-25832D01*
X84817Y-25823D01*
X84807Y-25804D01*
X84807Y-25757D01*
X84817Y-25738D01*
X84826Y-25729D01*
X84845Y-25720D01*
X84892Y-25720D01*
X84910Y-25729D01*
X84920Y-25738D01*
X84929Y-25757D01*
X84929Y-25804D01*
X84920Y-25823D01*
X84910Y-25832D01*
X87110Y-23507D02*
X87120Y-23517D01*
X87129Y-23545D01*
X87129Y-23564D01*
X87120Y-23592D01*
X87101Y-23611D01*
X87082Y-23620D01*
X87045Y-23629D01*
X87017Y-23629D01*
X86979Y-23620D01*
X86960Y-23611D01*
X86942Y-23592D01*
X86932Y-23564D01*
X86932Y-23545D01*
X86942Y-23517D01*
X86951Y-23507D01*
X86932Y-23338D02*
X86932Y-23376D01*
X86942Y-23395D01*
X86951Y-23404D01*
X86979Y-23423D01*
X87017Y-23432D01*
X87092Y-23432D01*
X87110Y-23423D01*
X87120Y-23414D01*
X87129Y-23395D01*
X87129Y-23357D01*
X87120Y-23338D01*
X87110Y-23329D01*
X87092Y-23320D01*
X87045Y-23320D01*
X87026Y-23329D01*
X87017Y-23338D01*
X87007Y-23357D01*
X87007Y-23395D01*
X87017Y-23414D01*
X87026Y-23423D01*
X87045Y-23432D01*
X88048Y-26410D02*
X88038Y-26420D01*
X88010Y-26429D01*
X87992Y-26429D01*
X87963Y-26420D01*
X87945Y-26401D01*
X87935Y-26382D01*
X87926Y-26345D01*
X87926Y-26317D01*
X87935Y-26279D01*
X87945Y-26260D01*
X87963Y-26242D01*
X87992Y-26232D01*
X88010Y-26232D01*
X88038Y-26242D01*
X88048Y-26251D01*
X88235Y-26429D02*
X88123Y-26429D01*
X88179Y-26429D02*
X88179Y-26232D01*
X88160Y-26260D01*
X88142Y-26279D01*
X88123Y-26289D01*
X88301Y-26232D02*
X88423Y-26232D01*
X88357Y-26307D01*
X88386Y-26307D01*
X88404Y-26317D01*
X88414Y-26326D01*
X88423Y-26345D01*
X88423Y-26392D01*
X88414Y-26410D01*
X88404Y-26420D01*
X88386Y-26429D01*
X88329Y-26429D01*
X88311Y-26420D01*
X88301Y-26410D01*
X90960Y-24251D02*
X90970Y-24261D01*
X90979Y-24289D01*
X90979Y-24307D01*
X90970Y-24336D01*
X90951Y-24354D01*
X90932Y-24364D01*
X90895Y-24373D01*
X90867Y-24373D01*
X90829Y-24364D01*
X90810Y-24354D01*
X90792Y-24336D01*
X90782Y-24307D01*
X90782Y-24289D01*
X90792Y-24261D01*
X90801Y-24251D01*
X90782Y-24185D02*
X90782Y-24064D01*
X90857Y-24129D01*
X90857Y-24101D01*
X90867Y-24082D01*
X90876Y-24073D01*
X90895Y-24064D01*
X90942Y-24064D01*
X90960Y-24073D01*
X90970Y-24082D01*
X90979Y-24101D01*
X90979Y-24157D01*
X90970Y-24176D01*
X90960Y-24185D01*
X90979Y-23876D02*
X90979Y-23988D01*
X90979Y-23932D02*
X90782Y-23932D01*
X90810Y-23951D01*
X90829Y-23970D01*
X90839Y-23988D01*
X90960Y-23601D02*
X90970Y-23611D01*
X90979Y-23639D01*
X90979Y-23657D01*
X90970Y-23686D01*
X90951Y-23704D01*
X90932Y-23714D01*
X90895Y-23723D01*
X90867Y-23723D01*
X90829Y-23714D01*
X90810Y-23704D01*
X90792Y-23686D01*
X90782Y-23657D01*
X90782Y-23639D01*
X90792Y-23611D01*
X90801Y-23601D01*
X90782Y-23535D02*
X90782Y-23414D01*
X90857Y-23479D01*
X90857Y-23451D01*
X90867Y-23432D01*
X90876Y-23423D01*
X90895Y-23414D01*
X90942Y-23414D01*
X90960Y-23423D01*
X90970Y-23432D01*
X90979Y-23451D01*
X90979Y-23507D01*
X90970Y-23526D01*
X90960Y-23535D01*
X90801Y-23338D02*
X90792Y-23329D01*
X90782Y-23310D01*
X90782Y-23263D01*
X90792Y-23245D01*
X90801Y-23235D01*
X90820Y-23226D01*
X90839Y-23226D01*
X90867Y-23235D01*
X90979Y-23348D01*
X90979Y-23226D01*
X92710Y-24326D02*
X92720Y-24336D01*
X92729Y-24364D01*
X92729Y-24382D01*
X92720Y-24411D01*
X92701Y-24429D01*
X92682Y-24439D01*
X92645Y-24448D01*
X92617Y-24448D01*
X92579Y-24439D01*
X92560Y-24429D01*
X92542Y-24411D01*
X92532Y-24382D01*
X92532Y-24364D01*
X92542Y-24336D01*
X92551Y-24326D01*
X92532Y-24260D02*
X92532Y-24139D01*
X92607Y-24204D01*
X92607Y-24176D01*
X92617Y-24157D01*
X92626Y-24148D01*
X92645Y-24139D01*
X92692Y-24139D01*
X92710Y-24148D01*
X92720Y-24157D01*
X92729Y-24176D01*
X92729Y-24232D01*
X92720Y-24251D01*
X92710Y-24260D01*
X92532Y-24073D02*
X92532Y-23951D01*
X92607Y-24017D01*
X92607Y-23988D01*
X92617Y-23970D01*
X92626Y-23960D01*
X92645Y-23951D01*
X92692Y-23951D01*
X92710Y-23960D01*
X92720Y-23970D01*
X92729Y-23988D01*
X92729Y-24045D01*
X92720Y-24063D01*
X92710Y-24073D01*
X94085Y-24326D02*
X94095Y-24336D01*
X94104Y-24364D01*
X94104Y-24382D01*
X94095Y-24411D01*
X94076Y-24429D01*
X94057Y-24439D01*
X94020Y-24448D01*
X93992Y-24448D01*
X93954Y-24439D01*
X93935Y-24429D01*
X93917Y-24411D01*
X93907Y-24382D01*
X93907Y-24364D01*
X93917Y-24336D01*
X93926Y-24326D01*
X93907Y-24260D02*
X93907Y-24139D01*
X93982Y-24204D01*
X93982Y-24176D01*
X93992Y-24157D01*
X94001Y-24148D01*
X94020Y-24139D01*
X94067Y-24139D01*
X94085Y-24148D01*
X94095Y-24157D01*
X94104Y-24176D01*
X94104Y-24232D01*
X94095Y-24251D01*
X94085Y-24260D01*
X93973Y-23970D02*
X94104Y-23970D01*
X93898Y-24017D02*
X94039Y-24063D01*
X94039Y-23942D01*
G54D15*
X92704Y-27411D02*
X92704Y-27011D01*
X92857Y-27011D01*
X92895Y-27030D01*
X92914Y-27050D01*
X92933Y-27088D01*
X92933Y-27145D01*
X92914Y-27183D01*
X92895Y-27202D01*
X92857Y-27221D01*
X92704Y-27221D01*
X93066Y-27011D02*
X93314Y-27011D01*
X93180Y-27164D01*
X93238Y-27164D01*
X93276Y-27183D01*
X93295Y-27202D01*
X93314Y-27240D01*
X93314Y-27335D01*
X93295Y-27373D01*
X93276Y-27392D01*
X93238Y-27411D01*
X93123Y-27411D01*
X93085Y-27392D01*
X93066Y-27373D01*
G54D19*
X83748Y-22029D02*
X83682Y-21935D01*
X83635Y-22029D02*
X83635Y-21832D01*
X83710Y-21832D01*
X83729Y-21842D01*
X83738Y-21851D01*
X83748Y-21870D01*
X83748Y-21898D01*
X83738Y-21917D01*
X83729Y-21926D01*
X83710Y-21935D01*
X83635Y-21935D01*
X83814Y-21832D02*
X83935Y-21832D01*
X83870Y-21907D01*
X83898Y-21907D01*
X83917Y-21917D01*
X83926Y-21926D01*
X83935Y-21945D01*
X83935Y-21992D01*
X83926Y-22010D01*
X83917Y-22020D01*
X83898Y-22029D01*
X83842Y-22029D01*
X83823Y-22020D01*
X83814Y-22010D01*
X84048Y-21917D02*
X84029Y-21907D01*
X84020Y-21898D01*
X84011Y-21879D01*
X84011Y-21870D01*
X84020Y-21851D01*
X84029Y-21842D01*
X84048Y-21832D01*
X84086Y-21832D01*
X84104Y-21842D01*
X84114Y-21851D01*
X84123Y-21870D01*
X84123Y-21879D01*
X84114Y-21898D01*
X84104Y-21907D01*
X84086Y-21917D01*
X84048Y-21917D01*
X84029Y-21926D01*
X84020Y-21935D01*
X84011Y-21954D01*
X84011Y-21992D01*
X84020Y-22010D01*
X84029Y-22020D01*
X84048Y-22029D01*
X84086Y-22029D01*
X84104Y-22020D01*
X84114Y-22010D01*
X84123Y-21992D01*
X84123Y-21954D01*
X84114Y-21935D01*
X84104Y-21926D01*
X84086Y-21917D01*
X84798Y-22579D02*
X84732Y-22485D01*
X84685Y-22579D02*
X84685Y-22382D01*
X84760Y-22382D01*
X84779Y-22392D01*
X84788Y-22401D01*
X84798Y-22420D01*
X84798Y-22448D01*
X84788Y-22467D01*
X84779Y-22476D01*
X84760Y-22485D01*
X84685Y-22485D01*
X84864Y-22382D02*
X84985Y-22382D01*
X84920Y-22457D01*
X84948Y-22457D01*
X84967Y-22467D01*
X84976Y-22476D01*
X84985Y-22495D01*
X84985Y-22542D01*
X84976Y-22560D01*
X84967Y-22570D01*
X84948Y-22579D01*
X84892Y-22579D01*
X84873Y-22570D01*
X84864Y-22560D01*
X85079Y-22579D02*
X85117Y-22579D01*
X85136Y-22570D01*
X85145Y-22560D01*
X85164Y-22532D01*
X85173Y-22495D01*
X85173Y-22420D01*
X85164Y-22401D01*
X85154Y-22392D01*
X85136Y-22382D01*
X85098Y-22382D01*
X85079Y-22392D01*
X85070Y-22401D01*
X85061Y-22420D01*
X85061Y-22467D01*
X85070Y-22485D01*
X85079Y-22495D01*
X85098Y-22504D01*
X85136Y-22504D01*
X85154Y-22495D01*
X85164Y-22485D01*
X85173Y-22467D01*
X86479Y-22826D02*
X86385Y-22892D01*
X86479Y-22939D02*
X86282Y-22939D01*
X86282Y-22864D01*
X86292Y-22845D01*
X86301Y-22836D01*
X86320Y-22826D01*
X86348Y-22826D01*
X86367Y-22836D01*
X86376Y-22845D01*
X86385Y-22864D01*
X86385Y-22939D01*
X86348Y-22657D02*
X86479Y-22657D01*
X86273Y-22704D02*
X86414Y-22751D01*
X86414Y-22629D01*
X86282Y-22517D02*
X86282Y-22498D01*
X86292Y-22479D01*
X86301Y-22470D01*
X86320Y-22460D01*
X86357Y-22451D01*
X86404Y-22451D01*
X86442Y-22460D01*
X86460Y-22470D01*
X86470Y-22479D01*
X86479Y-22498D01*
X86479Y-22517D01*
X86470Y-22535D01*
X86460Y-22545D01*
X86442Y-22554D01*
X86404Y-22563D01*
X86357Y-22563D01*
X86320Y-22554D01*
X86301Y-22545D01*
X86292Y-22535D01*
X86282Y-22517D01*
X89498Y-26279D02*
X89432Y-26185D01*
X89385Y-26279D02*
X89385Y-26082D01*
X89460Y-26082D01*
X89479Y-26092D01*
X89488Y-26101D01*
X89498Y-26120D01*
X89498Y-26148D01*
X89488Y-26167D01*
X89479Y-26176D01*
X89460Y-26185D01*
X89385Y-26185D01*
X89667Y-26148D02*
X89667Y-26279D01*
X89620Y-26073D02*
X89573Y-26214D01*
X89695Y-26214D01*
X89873Y-26279D02*
X89761Y-26279D01*
X89817Y-26279D02*
X89817Y-26082D01*
X89798Y-26110D01*
X89779Y-26129D01*
X89761Y-26139D01*
X88748Y-22129D02*
X88682Y-22035D01*
X88635Y-22129D02*
X88635Y-21932D01*
X88710Y-21932D01*
X88729Y-21942D01*
X88738Y-21951D01*
X88748Y-21970D01*
X88748Y-21998D01*
X88738Y-22017D01*
X88729Y-22026D01*
X88710Y-22035D01*
X88635Y-22035D01*
X88917Y-21998D02*
X88917Y-22129D01*
X88870Y-21923D02*
X88823Y-22064D01*
X88945Y-22064D01*
X89011Y-21951D02*
X89020Y-21942D01*
X89039Y-21932D01*
X89086Y-21932D01*
X89104Y-21942D01*
X89114Y-21951D01*
X89123Y-21970D01*
X89123Y-21989D01*
X89114Y-22017D01*
X89001Y-22129D01*
X89123Y-22129D01*
X83748Y-23379D02*
X83682Y-23285D01*
X83635Y-23379D02*
X83635Y-23182D01*
X83710Y-23182D01*
X83729Y-23192D01*
X83738Y-23201D01*
X83748Y-23220D01*
X83748Y-23248D01*
X83738Y-23267D01*
X83729Y-23276D01*
X83710Y-23285D01*
X83635Y-23285D01*
X83917Y-23248D02*
X83917Y-23379D01*
X83870Y-23173D02*
X83823Y-23314D01*
X83945Y-23314D01*
X84001Y-23182D02*
X84123Y-23182D01*
X84057Y-23257D01*
X84086Y-23257D01*
X84104Y-23267D01*
X84114Y-23276D01*
X84123Y-23295D01*
X84123Y-23342D01*
X84114Y-23360D01*
X84104Y-23370D01*
X84086Y-23379D01*
X84029Y-23379D01*
X84011Y-23370D01*
X84001Y-23360D01*
X84798Y-23979D02*
X84732Y-23885D01*
X84685Y-23979D02*
X84685Y-23782D01*
X84760Y-23782D01*
X84779Y-23792D01*
X84788Y-23801D01*
X84798Y-23820D01*
X84798Y-23848D01*
X84788Y-23867D01*
X84779Y-23876D01*
X84760Y-23885D01*
X84685Y-23885D01*
X84967Y-23848D02*
X84967Y-23979D01*
X84920Y-23773D02*
X84873Y-23914D01*
X84995Y-23914D01*
X85154Y-23848D02*
X85154Y-23979D01*
X85107Y-23773D02*
X85061Y-23914D01*
X85182Y-23914D01*
X85798Y-23704D02*
X85732Y-23610D01*
X85685Y-23704D02*
X85685Y-23507D01*
X85760Y-23507D01*
X85779Y-23517D01*
X85788Y-23526D01*
X85798Y-23545D01*
X85798Y-23573D01*
X85788Y-23592D01*
X85779Y-23601D01*
X85760Y-23610D01*
X85685Y-23610D01*
X85967Y-23573D02*
X85967Y-23704D01*
X85920Y-23498D02*
X85873Y-23639D01*
X85995Y-23639D01*
X86164Y-23507D02*
X86070Y-23507D01*
X86061Y-23601D01*
X86070Y-23592D01*
X86089Y-23582D01*
X86136Y-23582D01*
X86154Y-23592D01*
X86164Y-23601D01*
X86173Y-23620D01*
X86173Y-23667D01*
X86164Y-23685D01*
X86154Y-23695D01*
X86136Y-23704D01*
X86089Y-23704D01*
X86070Y-23695D01*
X86061Y-23685D01*
X88048Y-22929D02*
X87982Y-22835D01*
X87935Y-22929D02*
X87935Y-22732D01*
X88010Y-22732D01*
X88029Y-22742D01*
X88038Y-22751D01*
X88048Y-22770D01*
X88048Y-22798D01*
X88038Y-22817D01*
X88029Y-22826D01*
X88010Y-22835D01*
X87935Y-22835D01*
X88217Y-22798D02*
X88217Y-22929D01*
X88170Y-22723D02*
X88123Y-22864D01*
X88245Y-22864D01*
X88404Y-22732D02*
X88367Y-22732D01*
X88348Y-22742D01*
X88339Y-22751D01*
X88320Y-22779D01*
X88311Y-22817D01*
X88311Y-22892D01*
X88320Y-22910D01*
X88329Y-22920D01*
X88348Y-22929D01*
X88386Y-22929D01*
X88404Y-22920D01*
X88414Y-22910D01*
X88423Y-22892D01*
X88423Y-22845D01*
X88414Y-22826D01*
X88404Y-22817D01*
X88386Y-22807D01*
X88348Y-22807D01*
X88329Y-22817D01*
X88320Y-22826D01*
X88311Y-22845D01*
X84929Y-25001D02*
X84835Y-25067D01*
X84929Y-25114D02*
X84732Y-25114D01*
X84732Y-25039D01*
X84742Y-25020D01*
X84751Y-25011D01*
X84770Y-25001D01*
X84798Y-25001D01*
X84817Y-25011D01*
X84826Y-25020D01*
X84835Y-25039D01*
X84835Y-25114D01*
X84798Y-24832D02*
X84929Y-24832D01*
X84723Y-24879D02*
X84864Y-24926D01*
X84864Y-24804D01*
X84817Y-24701D02*
X84807Y-24720D01*
X84798Y-24729D01*
X84779Y-24738D01*
X84770Y-24738D01*
X84751Y-24729D01*
X84742Y-24720D01*
X84732Y-24701D01*
X84732Y-24663D01*
X84742Y-24645D01*
X84751Y-24635D01*
X84770Y-24626D01*
X84779Y-24626D01*
X84798Y-24635D01*
X84807Y-24645D01*
X84817Y-24663D01*
X84817Y-24701D01*
X84826Y-24720D01*
X84835Y-24729D01*
X84854Y-24738D01*
X84892Y-24738D01*
X84910Y-24729D01*
X84920Y-24720D01*
X84929Y-24701D01*
X84929Y-24663D01*
X84920Y-24645D01*
X84910Y-24635D01*
X84892Y-24626D01*
X84854Y-24626D01*
X84835Y-24635D01*
X84826Y-24645D01*
X84817Y-24663D01*
X87129Y-24301D02*
X87035Y-24367D01*
X87129Y-24414D02*
X86932Y-24414D01*
X86932Y-24339D01*
X86942Y-24320D01*
X86951Y-24311D01*
X86970Y-24301D01*
X86998Y-24301D01*
X87017Y-24311D01*
X87026Y-24320D01*
X87035Y-24339D01*
X87035Y-24414D01*
X86998Y-24132D02*
X87129Y-24132D01*
X86923Y-24179D02*
X87064Y-24226D01*
X87064Y-24104D01*
X87129Y-24020D02*
X87129Y-23982D01*
X87120Y-23963D01*
X87110Y-23954D01*
X87082Y-23935D01*
X87045Y-23926D01*
X86970Y-23926D01*
X86951Y-23935D01*
X86942Y-23945D01*
X86932Y-23963D01*
X86932Y-24001D01*
X86942Y-24020D01*
X86951Y-24029D01*
X86970Y-24038D01*
X87017Y-24038D01*
X87035Y-24029D01*
X87045Y-24020D01*
X87054Y-24001D01*
X87054Y-23963D01*
X87045Y-23945D01*
X87035Y-23935D01*
X87017Y-23926D01*
X91429Y-27401D02*
X91335Y-27467D01*
X91429Y-27514D02*
X91232Y-27514D01*
X91232Y-27439D01*
X91242Y-27420D01*
X91251Y-27411D01*
X91270Y-27401D01*
X91298Y-27401D01*
X91317Y-27411D01*
X91326Y-27420D01*
X91335Y-27439D01*
X91335Y-27514D01*
X91232Y-27223D02*
X91232Y-27317D01*
X91326Y-27326D01*
X91317Y-27317D01*
X91307Y-27298D01*
X91307Y-27251D01*
X91317Y-27232D01*
X91326Y-27223D01*
X91345Y-27214D01*
X91392Y-27214D01*
X91410Y-27223D01*
X91420Y-27232D01*
X91429Y-27251D01*
X91429Y-27298D01*
X91420Y-27317D01*
X91410Y-27326D01*
X91251Y-27138D02*
X91242Y-27129D01*
X91232Y-27110D01*
X91232Y-27063D01*
X91242Y-27045D01*
X91251Y-27035D01*
X91270Y-27026D01*
X91289Y-27026D01*
X91317Y-27035D01*
X91429Y-27148D01*
X91429Y-27026D01*
X88498Y-26279D02*
X88432Y-26185D01*
X88385Y-26279D02*
X88385Y-26082D01*
X88460Y-26082D01*
X88479Y-26092D01*
X88488Y-26101D01*
X88498Y-26120D01*
X88498Y-26148D01*
X88488Y-26167D01*
X88479Y-26176D01*
X88460Y-26185D01*
X88385Y-26185D01*
X88676Y-26082D02*
X88582Y-26082D01*
X88573Y-26176D01*
X88582Y-26167D01*
X88601Y-26157D01*
X88648Y-26157D01*
X88667Y-26167D01*
X88676Y-26176D01*
X88685Y-26195D01*
X88685Y-26242D01*
X88676Y-26260D01*
X88667Y-26270D01*
X88648Y-26279D01*
X88601Y-26279D01*
X88582Y-26270D01*
X88573Y-26260D01*
X88751Y-26082D02*
X88873Y-26082D01*
X88807Y-26157D01*
X88836Y-26157D01*
X88854Y-26167D01*
X88864Y-26176D01*
X88873Y-26195D01*
X88873Y-26242D01*
X88864Y-26260D01*
X88854Y-26270D01*
X88836Y-26279D01*
X88779Y-26279D01*
X88761Y-26270D01*
X88751Y-26260D01*
X91198Y-22679D02*
X91132Y-22585D01*
X91085Y-22679D02*
X91085Y-22482D01*
X91160Y-22482D01*
X91179Y-22492D01*
X91188Y-22501D01*
X91198Y-22520D01*
X91198Y-22548D01*
X91188Y-22567D01*
X91179Y-22576D01*
X91160Y-22585D01*
X91085Y-22585D01*
X91367Y-22482D02*
X91329Y-22482D01*
X91310Y-22492D01*
X91301Y-22501D01*
X91282Y-22529D01*
X91273Y-22567D01*
X91273Y-22642D01*
X91282Y-22660D01*
X91292Y-22670D01*
X91310Y-22679D01*
X91348Y-22679D01*
X91367Y-22670D01*
X91376Y-22660D01*
X91385Y-22642D01*
X91385Y-22595D01*
X91376Y-22576D01*
X91367Y-22567D01*
X91348Y-22557D01*
X91310Y-22557D01*
X91292Y-22567D01*
X91282Y-22576D01*
X91273Y-22595D01*
X91461Y-22501D02*
X91470Y-22492D01*
X91489Y-22482D01*
X91536Y-22482D01*
X91554Y-22492D01*
X91564Y-22501D01*
X91573Y-22520D01*
X91573Y-22539D01*
X91564Y-22567D01*
X91451Y-22679D01*
X91573Y-22679D01*
X91979Y-21626D02*
X91885Y-21692D01*
X91979Y-21739D02*
X91782Y-21739D01*
X91782Y-21664D01*
X91792Y-21645D01*
X91801Y-21636D01*
X91820Y-21626D01*
X91848Y-21626D01*
X91867Y-21636D01*
X91876Y-21645D01*
X91885Y-21664D01*
X91885Y-21739D01*
X91782Y-21457D02*
X91782Y-21495D01*
X91792Y-21514D01*
X91801Y-21523D01*
X91829Y-21542D01*
X91867Y-21551D01*
X91942Y-21551D01*
X91960Y-21542D01*
X91970Y-21532D01*
X91979Y-21514D01*
X91979Y-21476D01*
X91970Y-21457D01*
X91960Y-21448D01*
X91942Y-21439D01*
X91895Y-21439D01*
X91876Y-21448D01*
X91867Y-21457D01*
X91857Y-21476D01*
X91857Y-21514D01*
X91867Y-21532D01*
X91876Y-21542D01*
X91895Y-21551D01*
X91848Y-21270D02*
X91979Y-21270D01*
X91773Y-21317D02*
X91914Y-21363D01*
X91914Y-21242D01*
X92729Y-23601D02*
X92635Y-23667D01*
X92729Y-23714D02*
X92532Y-23714D01*
X92532Y-23639D01*
X92542Y-23620D01*
X92551Y-23611D01*
X92570Y-23601D01*
X92598Y-23601D01*
X92617Y-23611D01*
X92626Y-23620D01*
X92635Y-23639D01*
X92635Y-23714D01*
X92532Y-23432D02*
X92532Y-23470D01*
X92542Y-23489D01*
X92551Y-23498D01*
X92579Y-23517D01*
X92617Y-23526D01*
X92692Y-23526D01*
X92710Y-23517D01*
X92720Y-23507D01*
X92729Y-23489D01*
X92729Y-23451D01*
X92720Y-23432D01*
X92710Y-23423D01*
X92692Y-23414D01*
X92645Y-23414D01*
X92626Y-23423D01*
X92617Y-23432D01*
X92607Y-23451D01*
X92607Y-23489D01*
X92617Y-23507D01*
X92626Y-23517D01*
X92645Y-23526D01*
X92532Y-23235D02*
X92532Y-23329D01*
X92626Y-23338D01*
X92617Y-23329D01*
X92607Y-23310D01*
X92607Y-23263D01*
X92617Y-23245D01*
X92626Y-23235D01*
X92645Y-23226D01*
X92692Y-23226D01*
X92710Y-23235D01*
X92720Y-23245D01*
X92729Y-23263D01*
X92729Y-23310D01*
X92720Y-23329D01*
X92710Y-23338D01*
X94104Y-23851D02*
X94010Y-23917D01*
X94104Y-23964D02*
X93907Y-23964D01*
X93907Y-23889D01*
X93917Y-23870D01*
X93926Y-23861D01*
X93945Y-23851D01*
X93973Y-23851D01*
X93992Y-23861D01*
X94001Y-23870D01*
X94010Y-23889D01*
X94010Y-23964D01*
X93907Y-23682D02*
X93907Y-23720D01*
X93917Y-23739D01*
X93926Y-23748D01*
X93954Y-23767D01*
X93992Y-23776D01*
X94067Y-23776D01*
X94085Y-23767D01*
X94095Y-23757D01*
X94104Y-23739D01*
X94104Y-23701D01*
X94095Y-23682D01*
X94085Y-23673D01*
X94067Y-23664D01*
X94020Y-23664D01*
X94001Y-23673D01*
X93992Y-23682D01*
X93982Y-23701D01*
X93982Y-23739D01*
X93992Y-23757D01*
X94001Y-23767D01*
X94020Y-23776D01*
X93907Y-23495D02*
X93907Y-23532D01*
X93917Y-23551D01*
X93926Y-23560D01*
X93954Y-23579D01*
X93992Y-23588D01*
X94067Y-23588D01*
X94085Y-23579D01*
X94095Y-23570D01*
X94104Y-23551D01*
X94104Y-23513D01*
X94095Y-23495D01*
X94085Y-23485D01*
X94067Y-23476D01*
X94020Y-23476D01*
X94001Y-23485D01*
X93992Y-23495D01*
X93982Y-23513D01*
X93982Y-23551D01*
X93992Y-23570D01*
X94001Y-23579D01*
X94020Y-23588D01*
G54D20*
X86130Y-25952D02*
X86130Y-26357D01*
X86154Y-26404D01*
X86178Y-26428D01*
X86226Y-26452D01*
X86321Y-26452D01*
X86369Y-26428D01*
X86392Y-26404D01*
X86416Y-26357D01*
X86416Y-25952D01*
X86630Y-26000D02*
X86654Y-25976D01*
X86702Y-25952D01*
X86821Y-25952D01*
X86869Y-25976D01*
X86892Y-26000D01*
X86916Y-26047D01*
X86916Y-26095D01*
X86892Y-26166D01*
X86607Y-26452D01*
X86916Y-26452D01*
X87226Y-25952D02*
X87273Y-25952D01*
X87321Y-25976D01*
X87345Y-26000D01*
X87369Y-26047D01*
X87392Y-26142D01*
X87392Y-26261D01*
X87369Y-26357D01*
X87345Y-26404D01*
X87321Y-26428D01*
X87273Y-26452D01*
X87226Y-26452D01*
X87178Y-26428D01*
X87154Y-26404D01*
X87130Y-26357D01*
X87107Y-26261D01*
X87107Y-26142D01*
X87130Y-26047D01*
X87154Y-26000D01*
X87178Y-25976D01*
X87226Y-25952D01*
G54D11*
X93232Y-23121D02*
X93596Y-23121D01*
X93639Y-23107D01*
X93660Y-23092D01*
X93682Y-23064D01*
X93682Y-23007D01*
X93660Y-22978D01*
X93639Y-22964D01*
X93596Y-22950D01*
X93232Y-22950D01*
X93275Y-22821D02*
X93253Y-22807D01*
X93232Y-22778D01*
X93232Y-22707D01*
X93253Y-22678D01*
X93275Y-22664D01*
X93317Y-22650D01*
X93360Y-22650D01*
X93425Y-22664D01*
X93682Y-22835D01*
X93682Y-22650D01*
X93382Y-22392D02*
X93682Y-22392D01*
X93210Y-22464D02*
X93532Y-22535D01*
X93532Y-22350D01*
G54D19*
X89479Y-27629D02*
X89479Y-27432D01*
X89526Y-27432D01*
X89554Y-27442D01*
X89573Y-27460D01*
X89582Y-27479D01*
X89592Y-27517D01*
X89592Y-27545D01*
X89582Y-27582D01*
X89573Y-27601D01*
X89554Y-27620D01*
X89526Y-27629D01*
X89479Y-27629D01*
X89779Y-27629D02*
X89667Y-27629D01*
X89723Y-27629D02*
X89723Y-27432D01*
X89704Y-27460D01*
X89685Y-27479D01*
X89667Y-27489D01*
G54D15*
X83454Y-21161D02*
X83454Y-20761D01*
X83607Y-20761D01*
X83645Y-20780D01*
X83664Y-20800D01*
X83683Y-20838D01*
X83683Y-20895D01*
X83664Y-20933D01*
X83645Y-20952D01*
X83607Y-20971D01*
X83454Y-20971D01*
X84026Y-20895D02*
X84026Y-21161D01*
X83930Y-20742D02*
X83835Y-21028D01*
X84083Y-21028D01*
G54D19*
X89129Y-24279D02*
X89129Y-24082D01*
X89176Y-24082D01*
X89204Y-24092D01*
X89223Y-24110D01*
X89232Y-24129D01*
X89242Y-24167D01*
X89242Y-24195D01*
X89232Y-24232D01*
X89223Y-24251D01*
X89204Y-24270D01*
X89176Y-24279D01*
X89129Y-24279D01*
X89317Y-24101D02*
X89326Y-24092D01*
X89345Y-24082D01*
X89392Y-24082D01*
X89411Y-24092D01*
X89420Y-24101D01*
X89429Y-24120D01*
X89429Y-24139D01*
X89420Y-24167D01*
X89307Y-24279D01*
X89429Y-24279D01*
X89692Y-23929D02*
X89626Y-23835D01*
X89579Y-23929D02*
X89579Y-23732D01*
X89654Y-23732D01*
X89673Y-23742D01*
X89682Y-23751D01*
X89692Y-23770D01*
X89692Y-23798D01*
X89682Y-23817D01*
X89673Y-23826D01*
X89654Y-23835D01*
X89579Y-23835D01*
X89879Y-23929D02*
X89767Y-23929D01*
X89823Y-23929D02*
X89823Y-23732D01*
X89804Y-23760D01*
X89785Y-23779D01*
X89767Y-23789D01*
G54D18*
X94053Y-22071D02*
X94053Y-21771D01*
X94167Y-21771D01*
X94196Y-21785D01*
X94210Y-21800D01*
X94225Y-21828D01*
X94225Y-21871D01*
X94210Y-21900D01*
X94196Y-21914D01*
X94167Y-21928D01*
X94053Y-21928D01*
X94510Y-22071D02*
X94339Y-22071D01*
X94425Y-22071D02*
X94425Y-21771D01*
X94396Y-21814D01*
X94367Y-21842D01*
X94339Y-21857D01*
X92278Y-21121D02*
X92278Y-20821D01*
X92392Y-20821D01*
X92421Y-20835D01*
X92435Y-20850D01*
X92450Y-20878D01*
X92450Y-20921D01*
X92435Y-20950D01*
X92421Y-20964D01*
X92392Y-20978D01*
X92278Y-20978D01*
X92564Y-20850D02*
X92578Y-20835D01*
X92607Y-20821D01*
X92678Y-20821D01*
X92707Y-20835D01*
X92721Y-20850D01*
X92735Y-20878D01*
X92735Y-20907D01*
X92721Y-20950D01*
X92550Y-21121D01*
X92735Y-21121D01*
G54D19*
X89160Y-25201D02*
X89170Y-25211D01*
X89179Y-25239D01*
X89179Y-25257D01*
X89170Y-25286D01*
X89151Y-25304D01*
X89132Y-25314D01*
X89095Y-25323D01*
X89067Y-25323D01*
X89029Y-25314D01*
X89010Y-25304D01*
X88992Y-25286D01*
X88982Y-25257D01*
X88982Y-25239D01*
X88992Y-25211D01*
X89001Y-25201D01*
X89179Y-25014D02*
X89179Y-25126D01*
X89179Y-25070D02*
X88982Y-25070D01*
X89010Y-25089D01*
X89029Y-25107D01*
X89039Y-25126D01*
X88982Y-24892D02*
X88982Y-24873D01*
X88992Y-24854D01*
X89001Y-24845D01*
X89020Y-24835D01*
X89057Y-24826D01*
X89104Y-24826D01*
X89142Y-24835D01*
X89160Y-24845D01*
X89170Y-24854D01*
X89179Y-24873D01*
X89179Y-24892D01*
X89170Y-24910D01*
X89160Y-24920D01*
X89142Y-24929D01*
X89104Y-24938D01*
X89057Y-24938D01*
X89020Y-24929D01*
X89001Y-24920D01*
X88992Y-24910D01*
X88982Y-24892D01*
M02*
