G04 (created by PCBNEW (2013-07-07 BZR 4022)-stable) date 03/12/2013 21:27:05*
%MOIN*%
G04 Gerber Fmt 3.4, Leading zero omitted, Abs format*
%FSLAX34Y34*%
G01*
G70*
G90*
G04 APERTURE LIST*
%ADD10C,0.00590551*%
%ADD11C,0.015*%
%ADD12C,0.0001*%
G04 APERTURE END LIST*
G54D10*
G54D11*
X93471Y-22823D02*
X93471Y-22290D01*
X93471Y-22442D02*
X93442Y-22366D01*
X93414Y-22328D01*
X93357Y-22290D01*
X93299Y-22290D01*
X92842Y-22290D02*
X92842Y-22823D01*
X93099Y-22290D02*
X93099Y-22709D01*
X93071Y-22785D01*
X93014Y-22823D01*
X92928Y-22823D01*
X92871Y-22785D01*
X92842Y-22747D01*
X92585Y-22785D02*
X92528Y-22823D01*
X92414Y-22823D01*
X92357Y-22785D01*
X92328Y-22709D01*
X92328Y-22671D01*
X92357Y-22595D01*
X92414Y-22557D01*
X92499Y-22557D01*
X92557Y-22519D01*
X92585Y-22442D01*
X92585Y-22404D01*
X92557Y-22328D01*
X92499Y-22290D01*
X92414Y-22290D01*
X92357Y-22328D01*
X92071Y-22404D02*
X91871Y-22404D01*
X91785Y-22823D02*
X92071Y-22823D01*
X92071Y-22023D01*
X91785Y-22023D01*
X91614Y-22290D02*
X91385Y-22290D01*
X91528Y-22823D02*
X91528Y-22138D01*
X91499Y-22061D01*
X91442Y-22023D01*
X91385Y-22023D01*
X91185Y-22823D02*
X91185Y-22290D01*
X91185Y-22023D02*
X91214Y-22061D01*
X91185Y-22100D01*
X91157Y-22061D01*
X91185Y-22023D01*
X91185Y-22100D01*
X90900Y-22747D02*
X90871Y-22785D01*
X90900Y-22823D01*
X90928Y-22785D01*
X90900Y-22747D01*
X90900Y-22823D01*
X90357Y-22785D02*
X90414Y-22823D01*
X90528Y-22823D01*
X90585Y-22785D01*
X90614Y-22747D01*
X90642Y-22671D01*
X90642Y-22442D01*
X90614Y-22366D01*
X90585Y-22328D01*
X90528Y-22290D01*
X90414Y-22290D01*
X90357Y-22328D01*
X90014Y-22823D02*
X90071Y-22785D01*
X90100Y-22747D01*
X90128Y-22671D01*
X90128Y-22442D01*
X90100Y-22366D01*
X90071Y-22328D01*
X90014Y-22290D01*
X89928Y-22290D01*
X89871Y-22328D01*
X89842Y-22366D01*
X89814Y-22442D01*
X89814Y-22671D01*
X89842Y-22747D01*
X89871Y-22785D01*
X89928Y-22823D01*
X90014Y-22823D01*
X89557Y-22823D02*
X89557Y-22290D01*
X89557Y-22366D02*
X89528Y-22328D01*
X89471Y-22290D01*
X89385Y-22290D01*
X89328Y-22328D01*
X89300Y-22404D01*
X89300Y-22823D01*
X89300Y-22404D02*
X89271Y-22328D01*
X89214Y-22290D01*
X89128Y-22290D01*
X89071Y-22328D01*
X89042Y-22404D01*
X89042Y-22823D01*
X88385Y-22023D02*
X88185Y-22823D01*
X87985Y-22023D01*
X87442Y-22823D02*
X87642Y-22442D01*
X87785Y-22823D02*
X87785Y-22023D01*
X87557Y-22023D01*
X87500Y-22061D01*
X87471Y-22100D01*
X87442Y-22176D01*
X87442Y-22290D01*
X87471Y-22366D01*
X87500Y-22404D01*
X87557Y-22442D01*
X87785Y-22442D01*
X87185Y-22519D02*
X86728Y-22519D01*
X86957Y-22823D02*
X86957Y-22214D01*
X86442Y-22823D02*
X86442Y-22023D01*
X86300Y-22023D01*
X86214Y-22061D01*
X86157Y-22138D01*
X86128Y-22214D01*
X86100Y-22366D01*
X86100Y-22480D01*
X86128Y-22633D01*
X86157Y-22709D01*
X86214Y-22785D01*
X86300Y-22823D01*
X86442Y-22823D01*
X85842Y-22823D02*
X85842Y-22023D01*
X85700Y-22023D01*
X85614Y-22061D01*
X85557Y-22138D01*
X85528Y-22214D01*
X85500Y-22366D01*
X85500Y-22480D01*
X85528Y-22633D01*
X85557Y-22709D01*
X85614Y-22785D01*
X85700Y-22823D01*
X85842Y-22823D01*
X91028Y-23560D02*
X90885Y-24093D01*
X90742Y-23560D01*
X90285Y-24055D02*
X90342Y-24093D01*
X90457Y-24093D01*
X90514Y-24055D01*
X90542Y-23979D01*
X90542Y-23674D01*
X90514Y-23598D01*
X90457Y-23560D01*
X90342Y-23560D01*
X90285Y-23598D01*
X90257Y-23674D01*
X90257Y-23750D01*
X90542Y-23827D01*
X90000Y-24093D02*
X90000Y-23560D01*
X90000Y-23712D02*
X89971Y-23636D01*
X89942Y-23598D01*
X89885Y-23560D01*
X89828Y-23560D01*
X89057Y-23293D02*
X88999Y-23293D01*
X88942Y-23331D01*
X88914Y-23370D01*
X88885Y-23446D01*
X88857Y-23598D01*
X88857Y-23789D01*
X88885Y-23941D01*
X88914Y-24017D01*
X88942Y-24055D01*
X88999Y-24093D01*
X89057Y-24093D01*
X89114Y-24055D01*
X89142Y-24017D01*
X89171Y-23941D01*
X89199Y-23789D01*
X89199Y-23598D01*
X89171Y-23446D01*
X89142Y-23370D01*
X89114Y-23331D01*
X89057Y-23293D01*
X88599Y-24017D02*
X88571Y-24055D01*
X88599Y-24093D01*
X88628Y-24055D01*
X88599Y-24017D01*
X88599Y-24093D01*
X87999Y-24093D02*
X88342Y-24093D01*
X88171Y-24093D02*
X88171Y-23293D01*
X88228Y-23408D01*
X88285Y-23484D01*
X88342Y-23522D01*
G54D12*
G36*
X87817Y-26483D02*
X87815Y-26650D01*
X87809Y-26769D01*
X87794Y-26858D01*
X87769Y-26935D01*
X87729Y-27020D01*
X87724Y-27030D01*
X87650Y-27146D01*
X87650Y-26967D01*
X87601Y-26935D01*
X87586Y-26933D01*
X87558Y-26900D01*
X87524Y-26802D01*
X87485Y-26638D01*
X87469Y-26558D01*
X87438Y-26403D01*
X87411Y-26268D01*
X87390Y-26169D01*
X87379Y-26125D01*
X87385Y-26076D01*
X87414Y-26067D01*
X87460Y-26041D01*
X87467Y-26017D01*
X87456Y-25994D01*
X87418Y-25980D01*
X87342Y-25971D01*
X87218Y-25967D01*
X87089Y-25967D01*
X86711Y-25967D01*
X86726Y-26067D01*
X86749Y-26137D01*
X86785Y-26166D01*
X86786Y-26167D01*
X86816Y-26143D01*
X86812Y-26116D01*
X86812Y-26088D01*
X86850Y-26073D01*
X86936Y-26067D01*
X86991Y-26067D01*
X87189Y-26067D01*
X87222Y-26250D01*
X87255Y-26433D01*
X87127Y-26433D01*
X87046Y-26425D01*
X87002Y-26406D01*
X87000Y-26400D01*
X86973Y-26370D01*
X86954Y-26367D01*
X86925Y-26385D01*
X86926Y-26450D01*
X86930Y-26472D01*
X86955Y-26540D01*
X86989Y-26588D01*
X87020Y-26602D01*
X87033Y-26570D01*
X87033Y-26569D01*
X87063Y-26546D01*
X87136Y-26534D01*
X87164Y-26533D01*
X87295Y-26533D01*
X87318Y-26718D01*
X87328Y-26822D01*
X87328Y-26898D01*
X87323Y-26921D01*
X87275Y-26933D01*
X87193Y-26927D01*
X87099Y-26909D01*
X87017Y-26884D01*
X86970Y-26856D01*
X86967Y-26847D01*
X86940Y-26805D01*
X86917Y-26800D01*
X86877Y-26830D01*
X86867Y-26900D01*
X86867Y-27000D01*
X87268Y-27000D01*
X87453Y-26997D01*
X87579Y-26990D01*
X87643Y-26977D01*
X87650Y-26967D01*
X87650Y-27146D01*
X87554Y-27298D01*
X87349Y-27510D01*
X87110Y-27665D01*
X86902Y-27746D01*
X86733Y-27779D01*
X86733Y-26967D01*
X86706Y-26937D01*
X86683Y-26933D01*
X86639Y-26927D01*
X86633Y-26921D01*
X86627Y-26886D01*
X86610Y-26798D01*
X86584Y-26670D01*
X86553Y-26516D01*
X86550Y-26500D01*
X86514Y-26323D01*
X86489Y-26202D01*
X86476Y-26126D01*
X86473Y-26085D01*
X86479Y-26068D01*
X86494Y-26065D01*
X86517Y-26067D01*
X86561Y-26040D01*
X86567Y-26017D01*
X86556Y-25994D01*
X86518Y-25980D01*
X86442Y-25971D01*
X86318Y-25967D01*
X86189Y-25967D01*
X85811Y-25967D01*
X85826Y-26067D01*
X85849Y-26137D01*
X85885Y-26166D01*
X85886Y-26167D01*
X85916Y-26143D01*
X85912Y-26117D01*
X85913Y-26087D01*
X85951Y-26072D01*
X86040Y-26067D01*
X86078Y-26067D01*
X86182Y-26071D01*
X86256Y-26083D01*
X86279Y-26093D01*
X86293Y-26140D01*
X86309Y-26228D01*
X86319Y-26293D01*
X86342Y-26467D01*
X86227Y-26467D01*
X86138Y-26456D01*
X86076Y-26429D01*
X86074Y-26427D01*
X86030Y-26400D01*
X86015Y-26433D01*
X86023Y-26508D01*
X86050Y-26567D01*
X86089Y-26600D01*
X86123Y-26598D01*
X86133Y-26567D01*
X86161Y-26542D01*
X86226Y-26533D01*
X86301Y-26540D01*
X86361Y-26561D01*
X86377Y-26579D01*
X86392Y-26638D01*
X86410Y-26734D01*
X86418Y-26779D01*
X86428Y-26874D01*
X86421Y-26920D01*
X86391Y-26933D01*
X86387Y-26933D01*
X86340Y-26950D01*
X86333Y-26967D01*
X86364Y-26984D01*
X86443Y-26996D01*
X86533Y-27000D01*
X86640Y-26995D01*
X86712Y-26982D01*
X86733Y-26967D01*
X86733Y-27779D01*
X86725Y-27781D01*
X86520Y-27795D01*
X86315Y-27788D01*
X86139Y-27760D01*
X86109Y-27751D01*
X85874Y-27647D01*
X85652Y-27493D01*
X85462Y-27302D01*
X85319Y-27089D01*
X85307Y-27064D01*
X85231Y-26858D01*
X85185Y-26627D01*
X85175Y-26405D01*
X85180Y-26344D01*
X85201Y-26210D01*
X85228Y-26102D01*
X85257Y-26032D01*
X85285Y-26013D01*
X85293Y-26021D01*
X85344Y-26063D01*
X85364Y-26072D01*
X85394Y-26113D01*
X85430Y-26219D01*
X85470Y-26385D01*
X85487Y-26468D01*
X85523Y-26651D01*
X85546Y-26778D01*
X85558Y-26860D01*
X85559Y-26906D01*
X85549Y-26927D01*
X85530Y-26933D01*
X85517Y-26933D01*
X85472Y-26951D01*
X85467Y-26967D01*
X85497Y-26984D01*
X85576Y-26996D01*
X85667Y-27000D01*
X85780Y-26994D01*
X85850Y-26978D01*
X85869Y-26956D01*
X85830Y-26932D01*
X85806Y-26925D01*
X85775Y-26903D01*
X85748Y-26849D01*
X85721Y-26751D01*
X85691Y-26599D01*
X85688Y-26580D01*
X85661Y-26428D01*
X85636Y-26293D01*
X85617Y-26192D01*
X85611Y-26158D01*
X85606Y-26090D01*
X85637Y-26067D01*
X85645Y-26066D01*
X85682Y-26046D01*
X85679Y-26016D01*
X85645Y-25986D01*
X85568Y-25970D01*
X85460Y-25966D01*
X85261Y-25967D01*
X85336Y-25842D01*
X85485Y-25641D01*
X85676Y-25458D01*
X85887Y-25314D01*
X85933Y-25290D01*
X86033Y-25242D01*
X86116Y-25212D01*
X86202Y-25194D01*
X86309Y-25186D01*
X86458Y-25184D01*
X86516Y-25184D01*
X86683Y-25186D01*
X86803Y-25192D01*
X86894Y-25207D01*
X86975Y-25234D01*
X87066Y-25275D01*
X87081Y-25282D01*
X87291Y-25415D01*
X87486Y-25593D01*
X87648Y-25796D01*
X87721Y-25922D01*
X87764Y-26015D01*
X87792Y-26096D01*
X87807Y-26185D01*
X87815Y-26301D01*
X87816Y-26463D01*
X87817Y-26483D01*
X87817Y-26483D01*
X87817Y-26483D01*
G37*
M02*
