M48
;DRILL file {Pcbnew (2013-07-07 BZR 4022)-stable} date 10/7/2013 2:25:58 PM
;FORMAT={-:-/ absolute / inch / decimal}
FMAT,2
INCH,TZ
T1C0.025
T2C0.032
T3C0.040
T4C0.118
%
G90
G05
M72
T1
X4.0084Y-5.3229
X4.0084Y-6.2719
X4.0084Y-6.5727
X4.0234Y-4.4723
X4.0246Y-4.973
X4.0574Y-4.3018
X4.2822Y-6.2995
X4.3313Y-4.9776
X4.3321Y-4.0455
X4.3324Y-4.3402
X4.335Y-5.3562
X4.335Y-5.6438
X4.35Y-5.9831
X4.35Y-6.5274
X4.3709Y-4.8231
X4.5691Y-6.7666
X4.594Y-6.1445
X4.6319Y-4.4633
X4.6322Y-4.6342
X4.6324Y-4.1726
X4.6637Y-6.4738
X4.6637Y-5.8169
X4.7Y-5.1729
X4.7175Y-6.7166
X4.777Y-6.6521
X4.7783Y-5.2617
X4.7938Y-4.0317
X4.7983Y-5.8787
X4.8162Y-6.1598
X4.8273Y-5.0827
X4.8362Y-6.3429
X4.8422Y-5.7059
X4.8494Y-4.7919
X4.8524Y-3.9866
X4.9079Y-4.584
X4.9425Y-5.1125
X4.9429Y-4.3895
X5.0768Y-4.6481
X5.0769Y-5.3013
X5.0771Y-6.3629
X5.0773Y-4.4988
X5.0867Y-5.8398
X5.1163Y-5.6942
X5.1169Y-6.0078
X5.1173Y-5.9588
X5.1175Y-6.2001
X5.135Y-3.9812
X5.1491Y-5.1687
X5.1821Y-4.2877
X5.263Y-4.875
X5.2783Y-5.19
X5.2783Y-5.375
X5.3212Y-4.5585
X5.3226Y-6.8006
X5.386Y-4.9773
T2
X4.95Y-6.9
T3
X4.05Y-6.9
X4.05Y-7.
X4.15Y-6.9
X4.15Y-7.
X4.25Y-6.9
X4.25Y-7.
X4.35Y-6.9
X4.35Y-7.
X4.45Y-6.9
X4.45Y-7.
X4.55Y-6.9
X4.55Y-7.
X4.65Y-6.9
X4.65Y-7.
X4.75Y-6.9
X4.75Y-7.
X4.85Y-6.9
X4.85Y-7.
X4.95Y-7.
X5.45Y-4.25
X5.45Y-4.35
X5.45Y-4.45
X5.45Y-4.55
X5.45Y-5.5
X5.45Y-5.6
X5.45Y-5.7
X5.45Y-6.
X5.45Y-6.1
X5.45Y-6.2
X5.45Y-6.3
X5.45Y-6.4
X5.45Y-6.5
T4
X4.05Y-4.1
X5.4Y-6.95
T0
M30
