G04 (created by PCBNEW (2013-07-07 BZR 4022)-stable) date 10/7/2013 2:25:56 PM*
%MOIN*%
G04 Gerber Fmt 3.4, Leading zero omitted, Abs format*
%FSLAX34Y34*%
G01*
G70*
G90*
G04 APERTURE LIST*
%ADD10C,0.00590551*%
%ADD11R,0.06X0.08*%
%ADD12R,0.06X0.06*%
%ADD13C,0.06*%
%ADD14R,0.08X0.06*%
%ADD15R,0.025X0.05*%
%ADD16R,0.0709X0.0629*%
%ADD17R,0.0394X0.0236*%
%ADD18R,0.055X0.035*%
%ADD19R,0.035X0.055*%
%ADD20C,0.11811*%
%ADD21C,0.035*%
%ADD22C,0.01*%
G04 APERTURE END LIST*
G54D10*
G54D11*
X52650Y-40500D03*
X51350Y-40500D03*
X51350Y-42000D03*
X52650Y-42000D03*
G54D12*
X54500Y-45500D03*
G54D13*
X54500Y-44500D03*
X54500Y-43500D03*
X54500Y-42500D03*
G54D12*
X49500Y-69000D03*
G54D13*
X49500Y-70000D03*
X48500Y-69000D03*
X48500Y-70000D03*
X47500Y-69000D03*
X47500Y-70000D03*
X46500Y-69000D03*
X46500Y-70000D03*
X45500Y-69000D03*
X45500Y-70000D03*
X44500Y-69000D03*
X44500Y-70000D03*
X43500Y-69000D03*
X43500Y-70000D03*
X42500Y-69000D03*
X42500Y-70000D03*
X41500Y-69000D03*
X41500Y-70000D03*
X40500Y-69000D03*
X40500Y-70000D03*
G54D14*
X47000Y-40350D03*
X47000Y-41650D03*
G54D11*
X52650Y-45000D03*
X51350Y-45000D03*
X51350Y-43500D03*
X52650Y-43500D03*
G54D14*
X44000Y-44650D03*
X44000Y-43350D03*
G54D11*
X52650Y-46500D03*
X51350Y-46500D03*
X51350Y-48000D03*
X52650Y-48000D03*
G54D14*
X44000Y-46350D03*
X44000Y-47650D03*
X44000Y-51150D03*
X44000Y-49850D03*
G54D11*
X51350Y-49500D03*
X52650Y-49500D03*
X52650Y-51000D03*
X51350Y-51000D03*
G54D14*
X42500Y-40350D03*
X42500Y-41650D03*
X45500Y-40350D03*
X45500Y-41650D03*
X47000Y-44650D03*
X47000Y-43350D03*
X44000Y-40350D03*
X44000Y-41650D03*
X45500Y-44650D03*
X45500Y-43350D03*
G54D11*
X50150Y-44000D03*
X48850Y-44000D03*
G54D14*
X42500Y-44650D03*
X42500Y-43350D03*
X45500Y-46350D03*
X45500Y-47650D03*
X42500Y-46350D03*
X42500Y-47650D03*
X45500Y-51150D03*
X45500Y-49850D03*
X42500Y-51150D03*
X42500Y-49850D03*
G54D15*
X50250Y-47400D03*
X49750Y-47400D03*
X49250Y-47400D03*
X48750Y-47400D03*
X48750Y-49600D03*
X49250Y-49600D03*
X49750Y-49600D03*
X50250Y-49600D03*
X50250Y-40400D03*
X49750Y-40400D03*
X49250Y-40400D03*
X48750Y-40400D03*
X48750Y-42600D03*
X49250Y-42600D03*
X49750Y-42600D03*
X50250Y-42600D03*
X49750Y-57900D03*
X49250Y-57900D03*
X48750Y-57900D03*
X48250Y-57900D03*
X48250Y-60100D03*
X48750Y-60100D03*
X49250Y-60100D03*
X49750Y-60100D03*
X49750Y-52900D03*
X49250Y-52900D03*
X48750Y-52900D03*
X48250Y-52900D03*
X48250Y-55100D03*
X48750Y-55100D03*
X49250Y-55100D03*
X49750Y-55100D03*
G54D11*
X52650Y-53000D03*
X51350Y-53000D03*
G54D14*
X42000Y-57150D03*
X42000Y-55850D03*
X45000Y-57150D03*
X45000Y-55850D03*
X42000Y-52850D03*
X42000Y-54150D03*
X45000Y-52850D03*
X45000Y-54150D03*
X40500Y-48650D03*
X40500Y-47350D03*
X54500Y-46850D03*
X54500Y-48150D03*
X43500Y-52850D03*
X43500Y-54150D03*
G54D11*
X51350Y-54500D03*
X52650Y-54500D03*
G54D14*
X54000Y-53650D03*
X54000Y-52350D03*
G54D12*
X54500Y-57000D03*
G54D13*
X54500Y-56000D03*
X54500Y-55000D03*
G54D16*
X54500Y-49441D03*
X54500Y-50559D03*
G54D17*
X40084Y-50125D03*
X40916Y-50500D03*
X40084Y-50875D03*
X40084Y-66125D03*
X40916Y-66500D03*
X40084Y-66875D03*
X40084Y-63125D03*
X40916Y-63500D03*
X40084Y-63875D03*
X40084Y-45125D03*
X40916Y-45500D03*
X40084Y-45875D03*
X40084Y-53625D03*
X40916Y-54000D03*
X40084Y-54375D03*
G54D15*
X49750Y-62900D03*
X49250Y-62900D03*
X48750Y-62900D03*
X48250Y-62900D03*
X48250Y-65100D03*
X48750Y-65100D03*
X49250Y-65100D03*
X49750Y-65100D03*
G54D11*
X52650Y-63500D03*
X51350Y-63500D03*
X51350Y-65000D03*
X52650Y-65000D03*
G54D14*
X43500Y-64150D03*
X43500Y-62850D03*
X43500Y-67150D03*
X43500Y-65850D03*
G54D11*
X51350Y-66500D03*
X52650Y-66500D03*
X51350Y-68000D03*
X52650Y-68000D03*
G54D14*
X45000Y-64150D03*
X45000Y-62850D03*
X46500Y-64150D03*
X46500Y-62850D03*
X42000Y-64150D03*
X42000Y-62850D03*
X45000Y-67150D03*
X45000Y-65850D03*
X46500Y-67150D03*
X46500Y-65850D03*
X42000Y-67150D03*
X42000Y-65850D03*
G54D17*
X40084Y-43125D03*
X40916Y-43500D03*
X40084Y-43875D03*
G54D12*
X54500Y-65000D03*
G54D13*
X54500Y-64000D03*
X54500Y-63000D03*
X54500Y-62000D03*
X54500Y-61000D03*
X54500Y-60000D03*
G54D18*
X46500Y-61375D03*
X46500Y-60625D03*
G54D14*
X47000Y-46350D03*
X47000Y-47650D03*
X47000Y-51150D03*
X47000Y-49850D03*
G54D11*
X48350Y-66500D03*
X49650Y-66500D03*
G54D14*
X47000Y-52850D03*
X47000Y-54150D03*
X47000Y-57150D03*
X47000Y-55850D03*
G54D11*
X50150Y-51000D03*
X48850Y-51000D03*
G54D19*
X51625Y-59000D03*
X52375Y-59000D03*
X52375Y-60000D03*
X51625Y-60000D03*
G54D18*
X42000Y-61375D03*
X42000Y-60625D03*
X45000Y-61375D03*
X45000Y-60625D03*
X42000Y-58625D03*
X42000Y-59375D03*
X46500Y-58625D03*
X46500Y-59375D03*
X45000Y-58625D03*
X45000Y-59375D03*
G54D19*
X52375Y-62000D03*
X51625Y-62000D03*
X52375Y-61000D03*
X51625Y-61000D03*
G54D18*
X43500Y-61375D03*
X43500Y-60625D03*
X43500Y-58625D03*
X43500Y-59375D03*
G54D19*
X49375Y-56500D03*
X48625Y-56500D03*
X49375Y-61500D03*
X48625Y-61500D03*
G54D14*
X43500Y-57150D03*
X43500Y-55850D03*
G54D19*
X51625Y-56000D03*
X52375Y-56000D03*
X52375Y-57000D03*
X51625Y-57000D03*
G54D20*
X40500Y-41000D03*
X54000Y-69500D03*
G54D21*
X47938Y-40317D03*
X45691Y-67665D03*
X49079Y-45839D03*
X48272Y-50827D03*
X47982Y-58786D03*
X51821Y-42877D03*
X53212Y-45585D03*
X52629Y-48750D03*
X52783Y-51899D03*
X52783Y-53750D03*
X50867Y-58398D03*
X51173Y-59587D03*
X40573Y-43018D03*
X40084Y-53228D03*
X40084Y-62718D03*
X40084Y-65727D03*
X53860Y-49772D03*
X47000Y-51728D03*
X43349Y-53562D03*
X43312Y-49775D03*
X43708Y-48231D03*
X43323Y-43401D03*
X48493Y-47918D03*
X51174Y-62000D03*
X51162Y-56941D03*
X46322Y-46342D03*
X46318Y-44632D03*
X49425Y-51125D03*
X49428Y-43895D03*
X50767Y-46481D03*
X50769Y-53012D03*
X51350Y-39811D03*
X53225Y-68005D03*
X40233Y-44722D03*
X43349Y-56437D03*
X51169Y-60078D03*
X46323Y-41726D03*
X46637Y-58168D03*
X50773Y-44987D03*
X46637Y-64737D03*
X48361Y-63429D03*
X40246Y-49730D03*
X47782Y-52617D03*
X48422Y-57058D03*
X43500Y-65274D03*
X47770Y-66520D03*
X50770Y-63628D03*
X43500Y-59830D03*
X51491Y-51687D03*
X47175Y-67165D03*
X42822Y-62994D03*
X45939Y-61445D03*
X48162Y-61597D03*
X48524Y-39865D03*
X43321Y-40454D03*
G54D22*
X45500Y-40350D02*
X47000Y-40350D01*
X47582Y-40317D02*
X47550Y-40350D01*
X47938Y-40317D02*
X47582Y-40317D01*
X47000Y-40350D02*
X47550Y-40350D01*
X54950Y-45949D02*
X54500Y-46399D01*
X54950Y-42950D02*
X54950Y-45949D01*
X54500Y-42500D02*
X54950Y-42950D01*
X54500Y-46850D02*
X54500Y-46399D01*
X41067Y-66768D02*
X41449Y-67150D01*
X40915Y-66768D02*
X41067Y-66768D01*
X40915Y-66500D02*
X40915Y-66768D01*
X42000Y-67150D02*
X41449Y-67150D01*
X44393Y-67206D02*
X44449Y-67150D01*
X43500Y-67206D02*
X44393Y-67206D01*
X45000Y-67150D02*
X44449Y-67150D01*
X43500Y-67150D02*
X43500Y-67178D01*
X43500Y-67178D02*
X43500Y-67206D01*
X42578Y-67178D02*
X42550Y-67150D01*
X43500Y-67178D02*
X42578Y-67178D01*
X42000Y-67150D02*
X42550Y-67150D01*
X45550Y-67524D02*
X45550Y-67150D01*
X45691Y-67665D02*
X45550Y-67524D01*
X45000Y-67150D02*
X45550Y-67150D01*
X50014Y-45100D02*
X44000Y-45100D01*
X50792Y-44321D02*
X50014Y-45100D01*
X51450Y-44321D02*
X50792Y-44321D01*
X52199Y-43572D02*
X51450Y-44321D01*
X52199Y-43030D02*
X52199Y-43572D01*
X52282Y-42947D02*
X52199Y-43030D01*
X53947Y-42947D02*
X52282Y-42947D01*
X54500Y-43500D02*
X53947Y-42947D01*
X44000Y-44650D02*
X44000Y-45100D01*
X40500Y-48650D02*
X40500Y-48199D01*
X44000Y-44650D02*
X42500Y-44650D01*
X40584Y-48199D02*
X40500Y-48199D01*
X41349Y-47434D02*
X40584Y-48199D01*
X41349Y-46250D02*
X41349Y-47434D01*
X42500Y-45100D02*
X41349Y-46250D01*
X42500Y-44650D02*
X42500Y-45100D01*
X42415Y-46800D02*
X42500Y-46800D01*
X41949Y-47265D02*
X42415Y-46800D01*
X41949Y-49198D02*
X41949Y-47265D01*
X40915Y-50231D02*
X41949Y-49198D01*
X40915Y-50500D02*
X40915Y-50231D01*
X44000Y-46350D02*
X45500Y-46350D01*
X45500Y-46350D02*
X45500Y-45899D01*
X49019Y-45899D02*
X49079Y-45839D01*
X45500Y-45899D02*
X49019Y-45899D01*
X42500Y-46350D02*
X42500Y-46575D01*
X42500Y-46575D02*
X42500Y-46800D01*
X43224Y-46575D02*
X43449Y-46350D01*
X42500Y-46575D02*
X43224Y-46575D01*
X44000Y-46350D02*
X43449Y-46350D01*
X42331Y-51600D02*
X42500Y-51600D01*
X40915Y-53015D02*
X42331Y-51600D01*
X40915Y-54000D02*
X40915Y-53015D01*
X42500Y-51150D02*
X42500Y-51375D01*
X42500Y-51375D02*
X42500Y-51600D01*
X43224Y-51375D02*
X43449Y-51150D01*
X42500Y-51375D02*
X43224Y-51375D01*
X44000Y-51150D02*
X43449Y-51150D01*
X44000Y-51150D02*
X45500Y-51150D01*
X48145Y-50699D02*
X48272Y-50827D01*
X45500Y-50699D02*
X48145Y-50699D01*
X45500Y-51150D02*
X45500Y-50699D01*
X45000Y-52850D02*
X45000Y-52926D01*
X42000Y-52850D02*
X43500Y-52850D01*
X44127Y-52926D02*
X45000Y-52926D01*
X44050Y-52850D02*
X44127Y-52926D01*
X43500Y-52850D02*
X44050Y-52850D01*
X45112Y-52286D02*
X45000Y-52399D01*
X49737Y-52286D02*
X45112Y-52286D01*
X50105Y-52655D02*
X49737Y-52286D01*
X50105Y-52810D02*
X50105Y-52655D01*
X50849Y-53554D02*
X50105Y-52810D01*
X51316Y-53554D02*
X50849Y-53554D01*
X52055Y-54293D02*
X51316Y-53554D01*
X52055Y-54824D02*
X52055Y-54293D01*
X52605Y-55374D02*
X52055Y-54824D01*
X52741Y-55374D02*
X52605Y-55374D01*
X53477Y-56110D02*
X52741Y-55374D01*
X53477Y-58977D02*
X53477Y-56110D01*
X54500Y-60000D02*
X53477Y-58977D01*
X45000Y-52850D02*
X45000Y-52399D01*
X44337Y-57262D02*
X44449Y-57150D01*
X43500Y-57262D02*
X44337Y-57262D01*
X45000Y-57150D02*
X44449Y-57150D01*
X43500Y-57150D02*
X43500Y-57206D01*
X43500Y-57206D02*
X43500Y-57262D01*
X42606Y-57206D02*
X42550Y-57150D01*
X43500Y-57206D02*
X42606Y-57206D01*
X42000Y-57150D02*
X42550Y-57150D01*
X47737Y-56699D02*
X45000Y-56699D01*
X48362Y-56074D02*
X47737Y-56699D01*
X48868Y-56074D02*
X48362Y-56074D01*
X48950Y-56156D02*
X48868Y-56074D01*
X48950Y-56749D02*
X48950Y-56156D01*
X49384Y-57183D02*
X48950Y-56749D01*
X49636Y-57183D02*
X49384Y-57183D01*
X50043Y-57590D02*
X49636Y-57183D01*
X50043Y-58044D02*
X50043Y-57590D01*
X50734Y-58735D02*
X50043Y-58044D01*
X51187Y-58735D02*
X50734Y-58735D01*
X51349Y-58573D02*
X51187Y-58735D01*
X52621Y-58573D02*
X51349Y-58573D01*
X52802Y-58754D02*
X52621Y-58573D01*
X52802Y-59302D02*
X52802Y-58754D01*
X54500Y-61000D02*
X52802Y-59302D01*
X45000Y-57150D02*
X45000Y-56699D01*
X42000Y-58625D02*
X43500Y-58625D01*
X43500Y-58625D02*
X45000Y-58625D01*
X47819Y-58950D02*
X47982Y-58786D01*
X45000Y-58950D02*
X47819Y-58950D01*
X45000Y-58625D02*
X45000Y-58950D01*
X42000Y-61375D02*
X43500Y-61375D01*
X43500Y-61375D02*
X43925Y-61375D01*
X43925Y-61375D02*
X45000Y-61375D01*
X54200Y-62700D02*
X54500Y-63000D01*
X50875Y-62700D02*
X54200Y-62700D01*
X50129Y-61954D02*
X50875Y-62700D01*
X45253Y-61954D02*
X50129Y-61954D01*
X45000Y-61700D02*
X45253Y-61954D01*
X45000Y-61375D02*
X45000Y-61700D01*
X41067Y-63768D02*
X41449Y-64150D01*
X40915Y-63768D02*
X41067Y-63768D01*
X40915Y-63500D02*
X40915Y-63768D01*
X42000Y-64150D02*
X41449Y-64150D01*
X45000Y-64150D02*
X45000Y-63699D01*
X42000Y-64150D02*
X43500Y-64150D01*
X43500Y-64150D02*
X44050Y-64150D01*
X44050Y-64150D02*
X44707Y-63492D01*
X44915Y-63699D02*
X45000Y-63699D01*
X44707Y-63492D02*
X44915Y-63699D01*
X53449Y-62949D02*
X54500Y-64000D01*
X50558Y-62949D02*
X53449Y-62949D01*
X49908Y-62299D02*
X50558Y-62949D01*
X44618Y-62299D02*
X49908Y-62299D01*
X44449Y-62468D02*
X44618Y-62299D01*
X44449Y-63234D02*
X44449Y-62468D01*
X44707Y-63492D02*
X44449Y-63234D01*
X52650Y-42000D02*
X52650Y-40500D01*
X52147Y-42550D02*
X52650Y-42550D01*
X51821Y-42877D02*
X52147Y-42550D01*
X52650Y-42000D02*
X52650Y-42550D01*
X51800Y-67900D02*
X52650Y-67050D01*
X51800Y-68000D02*
X51800Y-67900D01*
X51350Y-68000D02*
X51800Y-68000D01*
X52650Y-66500D02*
X52650Y-67050D01*
X50496Y-68403D02*
X50899Y-68000D01*
X46458Y-68403D02*
X50496Y-68403D01*
X46000Y-68861D02*
X46458Y-68403D01*
X46000Y-69136D02*
X46000Y-68861D01*
X45686Y-69450D02*
X46000Y-69136D01*
X45049Y-69450D02*
X45686Y-69450D01*
X44500Y-70000D02*
X45049Y-69450D01*
X51350Y-68000D02*
X50899Y-68000D01*
X52650Y-43500D02*
X52650Y-45000D01*
X53212Y-45112D02*
X53100Y-45000D01*
X53212Y-45585D02*
X53212Y-45112D01*
X52650Y-45000D02*
X53100Y-45000D01*
X52629Y-48570D02*
X52629Y-48750D01*
X52650Y-48550D02*
X52629Y-48570D01*
X52650Y-48275D02*
X52650Y-48550D01*
X52650Y-48275D02*
X52650Y-48000D01*
X52650Y-48000D02*
X52650Y-46500D01*
X52650Y-51000D02*
X52650Y-49500D01*
X52783Y-51683D02*
X52650Y-51550D01*
X52783Y-51899D02*
X52783Y-51683D01*
X52650Y-51000D02*
X52650Y-51550D01*
X52650Y-53883D02*
X52650Y-54500D01*
X52783Y-53750D02*
X52650Y-53883D01*
X52650Y-53616D02*
X52650Y-53000D01*
X52783Y-53750D02*
X52650Y-53616D01*
X52375Y-56000D02*
X52375Y-57000D01*
X50921Y-58398D02*
X50867Y-58398D01*
X52049Y-57270D02*
X50921Y-58398D01*
X52049Y-57000D02*
X52049Y-57270D01*
X52375Y-57000D02*
X52049Y-57000D01*
X51186Y-59574D02*
X51173Y-59587D01*
X52375Y-59574D02*
X51186Y-59574D01*
X52375Y-60000D02*
X52375Y-59574D01*
X52375Y-59574D02*
X52375Y-59000D01*
X52375Y-62000D02*
X52700Y-62000D01*
X52049Y-61762D02*
X52049Y-62000D01*
X51712Y-61425D02*
X52049Y-61762D01*
X51625Y-61425D02*
X51712Y-61425D01*
X51625Y-61000D02*
X51625Y-61425D01*
X52375Y-62000D02*
X52049Y-62000D01*
X44000Y-69500D02*
X43500Y-70000D01*
X44640Y-69500D02*
X44000Y-69500D01*
X45004Y-69136D02*
X44640Y-69500D01*
X45004Y-68848D02*
X45004Y-69136D01*
X45648Y-68203D02*
X45004Y-68848D01*
X49718Y-68203D02*
X45648Y-68203D01*
X50616Y-67305D02*
X49718Y-68203D01*
X51749Y-67305D02*
X50616Y-67305D01*
X52199Y-66854D02*
X51749Y-67305D01*
X52199Y-66019D02*
X52199Y-66854D01*
X52469Y-65750D02*
X52199Y-66019D01*
X52918Y-65750D02*
X52469Y-65750D01*
X54118Y-64549D02*
X52918Y-65750D01*
X54601Y-64549D02*
X54118Y-64549D01*
X54950Y-64201D02*
X54601Y-64549D01*
X54950Y-62789D02*
X54950Y-64201D01*
X54661Y-62500D02*
X54950Y-62789D01*
X53200Y-62500D02*
X54661Y-62500D01*
X52700Y-62000D02*
X53200Y-62500D01*
X52650Y-65000D02*
X52650Y-63500D01*
X52650Y-65000D02*
X52199Y-65000D01*
X45496Y-68003D02*
X44500Y-69000D01*
X49636Y-68003D02*
X45496Y-68003D01*
X50568Y-67070D02*
X49636Y-68003D01*
X51697Y-67070D02*
X50568Y-67070D01*
X51819Y-66949D02*
X51697Y-67070D01*
X51819Y-65380D02*
X51819Y-66949D01*
X52199Y-65000D02*
X51819Y-65380D01*
X40538Y-43018D02*
X40431Y-43125D01*
X40573Y-43018D02*
X40538Y-43018D01*
X40084Y-43125D02*
X40431Y-43125D01*
X40084Y-53625D02*
X40084Y-53228D01*
X40084Y-62718D02*
X40084Y-63125D01*
X40084Y-65727D02*
X40084Y-66125D01*
X53995Y-49637D02*
X53995Y-49440D01*
X53860Y-49772D02*
X53995Y-49637D01*
X54500Y-49440D02*
X53995Y-49440D01*
X47000Y-51150D02*
X47000Y-51600D01*
X43500Y-54150D02*
X43500Y-53699D01*
X43487Y-53699D02*
X43500Y-53699D01*
X43349Y-53562D02*
X43487Y-53699D01*
X44000Y-49850D02*
X43449Y-49850D01*
X43375Y-49775D02*
X43449Y-49850D01*
X43312Y-49775D02*
X43375Y-49775D01*
X44000Y-47650D02*
X44000Y-48100D01*
X43839Y-48100D02*
X44000Y-48100D01*
X43708Y-48231D02*
X43839Y-48100D01*
X44000Y-43350D02*
X43449Y-43350D01*
X43397Y-43401D02*
X43449Y-43350D01*
X43323Y-43401D02*
X43397Y-43401D01*
X48750Y-47400D02*
X48750Y-47800D01*
X48612Y-47800D02*
X48750Y-47800D01*
X48493Y-47918D02*
X48612Y-47800D01*
X51625Y-62000D02*
X51299Y-62000D01*
X51299Y-62000D02*
X51299Y-62000D01*
X51174Y-62000D02*
X51299Y-62000D01*
X51625Y-57000D02*
X51299Y-57000D01*
X51241Y-56941D02*
X51299Y-57000D01*
X51162Y-56941D02*
X51241Y-56941D01*
X47000Y-51600D02*
X47000Y-51728D01*
X47000Y-46350D02*
X46449Y-46350D01*
X46441Y-46342D02*
X46449Y-46350D01*
X46322Y-46342D02*
X46441Y-46342D01*
X47000Y-44650D02*
X46449Y-44650D01*
X46432Y-44632D02*
X46449Y-44650D01*
X46318Y-44632D02*
X46432Y-44632D01*
X48850Y-51000D02*
X49300Y-51000D01*
X49300Y-51000D02*
X49425Y-51125D01*
X48850Y-44000D02*
X49300Y-44000D01*
X49404Y-43895D02*
X49300Y-44000D01*
X49428Y-43895D02*
X49404Y-43895D01*
X51350Y-46500D02*
X50899Y-46500D01*
X50881Y-46481D02*
X50899Y-46500D01*
X50767Y-46481D02*
X50881Y-46481D01*
X51350Y-53000D02*
X50899Y-53000D01*
X50887Y-53012D02*
X50899Y-53000D01*
X50769Y-53012D02*
X50887Y-53012D01*
X51350Y-40500D02*
X51350Y-39811D01*
X52650Y-68000D02*
X53100Y-68000D01*
X53105Y-68005D02*
X53100Y-68000D01*
X53225Y-68005D02*
X53105Y-68005D01*
X40084Y-45125D02*
X40084Y-44856D01*
X40099Y-44856D02*
X40084Y-44856D01*
X40233Y-44722D02*
X40099Y-44856D01*
X43500Y-55850D02*
X43500Y-56300D01*
X43487Y-56300D02*
X43500Y-56300D01*
X43349Y-56437D02*
X43487Y-56300D01*
X51221Y-60078D02*
X51299Y-60000D01*
X51169Y-60078D02*
X51221Y-60078D01*
X51625Y-60000D02*
X51299Y-60000D01*
X47000Y-41650D02*
X46449Y-41650D01*
X46373Y-41726D02*
X46449Y-41650D01*
X46323Y-41726D02*
X46373Y-41726D01*
X46500Y-58625D02*
X46500Y-58299D01*
X46506Y-58299D02*
X46637Y-58168D01*
X46500Y-58299D02*
X46506Y-58299D01*
X47000Y-57806D02*
X47000Y-57150D01*
X46637Y-58168D02*
X47000Y-57806D01*
X50887Y-44987D02*
X50899Y-45000D01*
X50773Y-44987D02*
X50887Y-44987D01*
X51350Y-45000D02*
X50899Y-45000D01*
X46500Y-64150D02*
X46500Y-64600D01*
X46637Y-64737D02*
X46500Y-64600D01*
X48250Y-52900D02*
X48250Y-52499D01*
X47000Y-52850D02*
X47550Y-52850D01*
X48361Y-63412D02*
X48250Y-63300D01*
X48361Y-63429D02*
X48361Y-63412D01*
X48250Y-62900D02*
X48250Y-63300D01*
X40084Y-50125D02*
X40084Y-49856D01*
X40119Y-49856D02*
X40084Y-49856D01*
X40246Y-49730D02*
X40119Y-49856D01*
X47782Y-52617D02*
X47782Y-52617D01*
X47782Y-52617D02*
X47782Y-52617D01*
X47550Y-52850D02*
X47782Y-52617D01*
X47900Y-52499D02*
X48250Y-52499D01*
X47782Y-52617D02*
X47900Y-52499D01*
X48625Y-56500D02*
X48625Y-56925D01*
X48556Y-56925D02*
X48422Y-57058D01*
X48625Y-56925D02*
X48556Y-56925D01*
X48250Y-57231D02*
X48250Y-57900D01*
X48422Y-57058D02*
X48250Y-57231D01*
X43500Y-65850D02*
X43500Y-65274D01*
X48350Y-66500D02*
X47899Y-66500D01*
X47879Y-66520D02*
X47899Y-66500D01*
X47770Y-66520D02*
X47879Y-66520D01*
X51350Y-63500D02*
X50899Y-63500D01*
X50770Y-63628D02*
X50899Y-63500D01*
X43500Y-59375D02*
X43500Y-59830D01*
X43500Y-59830D02*
X43500Y-60625D01*
X51350Y-51000D02*
X51350Y-51550D01*
X51354Y-51550D02*
X51350Y-51550D01*
X51491Y-51687D02*
X51354Y-51550D01*
X46500Y-67150D02*
X47050Y-67150D01*
X47065Y-67165D02*
X47050Y-67150D01*
X47175Y-67165D02*
X47065Y-67165D01*
X43500Y-62850D02*
X42949Y-62850D01*
X42949Y-62867D02*
X42949Y-62850D01*
X42822Y-62994D02*
X42949Y-62867D01*
X46500Y-61375D02*
X46074Y-61375D01*
X46004Y-61445D02*
X46074Y-61375D01*
X45939Y-61445D02*
X46004Y-61445D01*
X48625Y-61500D02*
X48299Y-61500D01*
X48202Y-61597D02*
X48299Y-61500D01*
X48162Y-61597D02*
X48202Y-61597D01*
X48750Y-40400D02*
X48750Y-39999D01*
X48658Y-39999D02*
X48750Y-39999D01*
X48524Y-39865D02*
X48658Y-39999D01*
X44000Y-40350D02*
X43449Y-40350D01*
X43345Y-40454D02*
X43449Y-40350D01*
X43321Y-40454D02*
X43345Y-40454D01*
X54000Y-51523D02*
X54000Y-52350D01*
X54500Y-51023D02*
X54000Y-51523D01*
X54500Y-50559D02*
X54500Y-51023D01*
X51350Y-54500D02*
X50899Y-54500D01*
X49250Y-53300D02*
X49750Y-53300D01*
X49250Y-52900D02*
X49250Y-53300D01*
X49750Y-52900D02*
X49750Y-53300D01*
X49750Y-53350D02*
X50899Y-54500D01*
X49750Y-53300D02*
X49750Y-53350D01*
X49750Y-47800D02*
X50250Y-47800D01*
X49750Y-47400D02*
X49750Y-47800D01*
X50250Y-47400D02*
X50250Y-47600D01*
X50250Y-47600D02*
X50250Y-47800D01*
X50500Y-47600D02*
X50899Y-48000D01*
X50250Y-47600D02*
X50500Y-47600D01*
X51350Y-48000D02*
X50899Y-48000D01*
X49750Y-49600D02*
X49750Y-49399D01*
X49250Y-49600D02*
X49250Y-49199D01*
X49549Y-49199D02*
X49250Y-49199D01*
X49750Y-49399D02*
X49549Y-49199D01*
X51350Y-49500D02*
X50899Y-49500D01*
X50599Y-49199D02*
X50899Y-49500D01*
X49950Y-49199D02*
X50599Y-49199D01*
X49750Y-49399D02*
X49950Y-49199D01*
X50600Y-42199D02*
X51350Y-42949D01*
X49750Y-42199D02*
X50600Y-42199D01*
X51350Y-43500D02*
X51350Y-42949D01*
X49750Y-42600D02*
X49750Y-42399D01*
X49750Y-42399D02*
X49750Y-42199D01*
X49549Y-42199D02*
X49250Y-42199D01*
X49750Y-42399D02*
X49549Y-42199D01*
X49250Y-42600D02*
X49250Y-42199D01*
X49750Y-40800D02*
X50250Y-40800D01*
X49750Y-40400D02*
X49750Y-40800D01*
X50250Y-40400D02*
X50250Y-40750D01*
X50250Y-40750D02*
X50250Y-40800D01*
X50250Y-41350D02*
X50899Y-42000D01*
X50250Y-40800D02*
X50250Y-41350D01*
X51350Y-42000D02*
X50899Y-42000D01*
X49750Y-57900D02*
X49750Y-58100D01*
X49549Y-58300D02*
X49250Y-58300D01*
X49750Y-58100D02*
X49549Y-58300D01*
X49250Y-57900D02*
X49250Y-58300D01*
X51625Y-59000D02*
X51299Y-59000D01*
X50649Y-59000D02*
X51299Y-59000D01*
X49750Y-58100D02*
X50649Y-59000D01*
X48750Y-60100D02*
X48750Y-59699D01*
X49250Y-60100D02*
X49250Y-59899D01*
X49049Y-59699D02*
X49250Y-59899D01*
X48750Y-59699D02*
X49049Y-59699D01*
X49450Y-59699D02*
X49250Y-59899D01*
X50007Y-59699D02*
X49450Y-59699D01*
X50739Y-60431D02*
X50007Y-59699D01*
X51725Y-60431D02*
X50739Y-60431D01*
X52049Y-60756D02*
X51725Y-60431D01*
X52049Y-61000D02*
X52049Y-60756D01*
X52375Y-61000D02*
X52049Y-61000D01*
X49250Y-55100D02*
X49250Y-55300D01*
X48750Y-55100D02*
X48750Y-55500D01*
X49049Y-55500D02*
X48750Y-55500D01*
X49250Y-55300D02*
X49049Y-55500D01*
X49949Y-56000D02*
X49250Y-55300D01*
X51299Y-56000D02*
X49949Y-56000D01*
X51625Y-56000D02*
X51299Y-56000D01*
X49250Y-62900D02*
X49250Y-63300D01*
X49750Y-62900D02*
X49750Y-63300D01*
X51350Y-65000D02*
X50899Y-65000D01*
X49750Y-63300D02*
X49250Y-63300D01*
X49750Y-63850D02*
X50899Y-65000D01*
X49750Y-63300D02*
X49750Y-63850D01*
X49250Y-65100D02*
X49250Y-64944D01*
X51350Y-66500D02*
X51350Y-65949D01*
X49005Y-64699D02*
X49250Y-64944D01*
X48750Y-64699D02*
X49005Y-64699D01*
X50099Y-64699D02*
X51350Y-65949D01*
X49494Y-64699D02*
X50099Y-64699D01*
X49250Y-64944D02*
X49494Y-64699D01*
X48750Y-65100D02*
X48750Y-64699D01*
X45000Y-65850D02*
X45550Y-65850D01*
X46500Y-65850D02*
X45550Y-65850D01*
X47400Y-65500D02*
X47050Y-65850D01*
X48250Y-65500D02*
X47400Y-65500D01*
X48250Y-65100D02*
X48250Y-65500D01*
X46500Y-65850D02*
X47050Y-65850D01*
X40500Y-47350D02*
X40500Y-46899D01*
X40915Y-46483D02*
X40915Y-45500D01*
X40500Y-46899D02*
X40915Y-46483D01*
X41947Y-44199D02*
X45500Y-44199D01*
X40915Y-45231D02*
X41947Y-44199D01*
X40915Y-45500D02*
X40915Y-45231D01*
X45500Y-44650D02*
X45500Y-44199D01*
X42500Y-40350D02*
X42500Y-40800D01*
X41189Y-41743D02*
X41189Y-43500D01*
X42132Y-40800D02*
X41189Y-41743D01*
X42500Y-40800D02*
X42132Y-40800D01*
X40915Y-43500D02*
X41052Y-43500D01*
X41052Y-43500D02*
X41189Y-43500D01*
X54500Y-48150D02*
X54500Y-47699D01*
X54415Y-47699D02*
X54500Y-47699D01*
X53650Y-46934D02*
X54415Y-47699D01*
X53650Y-46578D02*
X53650Y-46934D01*
X52821Y-45750D02*
X53650Y-46578D01*
X50953Y-45750D02*
X52821Y-45750D01*
X50714Y-45511D02*
X50953Y-45750D01*
X42418Y-45511D02*
X50714Y-45511D01*
X41579Y-46350D02*
X42418Y-45511D01*
X41579Y-48487D02*
X41579Y-46350D01*
X40946Y-49119D02*
X41579Y-48487D01*
X40051Y-49119D02*
X40946Y-49119D01*
X39928Y-48996D02*
X40051Y-49119D01*
X39928Y-46680D02*
X39928Y-48996D01*
X40568Y-46040D02*
X39928Y-46680D01*
X40568Y-43984D02*
X40568Y-46040D01*
X41052Y-43500D02*
X40568Y-43984D01*
X46500Y-62850D02*
X45000Y-62850D01*
X47400Y-62499D02*
X47050Y-62850D01*
X48750Y-62499D02*
X47400Y-62499D01*
X48750Y-62900D02*
X48750Y-62499D01*
X46500Y-62850D02*
X47050Y-62850D01*
X47900Y-43000D02*
X47550Y-43350D01*
X48750Y-43000D02*
X47900Y-43000D01*
X48750Y-42600D02*
X48750Y-43000D01*
X47000Y-43350D02*
X47550Y-43350D01*
X45500Y-43350D02*
X47000Y-43350D01*
X49250Y-40400D02*
X49250Y-40800D01*
X42500Y-41650D02*
X43050Y-41650D01*
X44849Y-40800D02*
X44000Y-41650D01*
X49250Y-40800D02*
X44849Y-40800D01*
X44000Y-41650D02*
X43050Y-41650D01*
X47000Y-47650D02*
X47000Y-47424D01*
X46275Y-47424D02*
X46050Y-47650D01*
X47000Y-47424D02*
X46275Y-47424D01*
X45500Y-47650D02*
X46050Y-47650D01*
X47425Y-46999D02*
X47000Y-47424D01*
X49250Y-46999D02*
X47425Y-46999D01*
X49250Y-47400D02*
X49250Y-46999D01*
X47000Y-54150D02*
X47000Y-54081D01*
X45619Y-54081D02*
X45550Y-54150D01*
X47000Y-54081D02*
X45619Y-54081D01*
X45000Y-54150D02*
X45550Y-54150D01*
X47780Y-53300D02*
X47000Y-54081D01*
X48750Y-53300D02*
X47780Y-53300D01*
X48750Y-52900D02*
X48750Y-53300D01*
X47000Y-55850D02*
X45000Y-55850D01*
X47900Y-55500D02*
X47550Y-55850D01*
X48250Y-55500D02*
X47900Y-55500D01*
X48250Y-55100D02*
X48250Y-55500D01*
X47000Y-55850D02*
X47550Y-55850D01*
X47000Y-49850D02*
X45500Y-49850D01*
X47700Y-50000D02*
X47550Y-49850D01*
X48750Y-50000D02*
X47700Y-50000D01*
X48750Y-49600D02*
X48750Y-50000D01*
X47000Y-49850D02*
X47550Y-49850D01*
X45000Y-59375D02*
X46500Y-59375D01*
X48750Y-57900D02*
X48750Y-58300D01*
X48750Y-58501D02*
X48750Y-58300D01*
X47876Y-59375D02*
X48750Y-58501D01*
X46500Y-59375D02*
X47876Y-59375D01*
X48125Y-60625D02*
X48250Y-60500D01*
X46500Y-60625D02*
X48125Y-60625D01*
X48250Y-60100D02*
X48250Y-60500D01*
X45000Y-60625D02*
X46500Y-60625D01*
X42000Y-62850D02*
X42000Y-62399D01*
X54500Y-56000D02*
X54500Y-57000D01*
X50250Y-50349D02*
X50150Y-50449D01*
X50250Y-49600D02*
X50250Y-50349D01*
X50150Y-50724D02*
X50150Y-50449D01*
X50150Y-50724D02*
X50150Y-51000D01*
X54500Y-57000D02*
X54500Y-57450D01*
X40084Y-63875D02*
X40084Y-64143D01*
X40084Y-66875D02*
X40084Y-66606D01*
X54000Y-53650D02*
X54000Y-53199D01*
X50150Y-51000D02*
X50600Y-51000D01*
X40084Y-63875D02*
X40084Y-63606D01*
X39720Y-44506D02*
X40084Y-44143D01*
X39720Y-45310D02*
X39720Y-44506D01*
X40016Y-45606D02*
X39720Y-45310D01*
X40084Y-45606D02*
X40016Y-45606D01*
X40084Y-45875D02*
X40084Y-45606D01*
X42500Y-49850D02*
X42224Y-49850D01*
X42224Y-48375D02*
X42500Y-48100D01*
X42224Y-49850D02*
X42224Y-48375D01*
X42500Y-47650D02*
X42500Y-48100D01*
X49375Y-56500D02*
X49700Y-56500D01*
X49750Y-55100D02*
X49750Y-55500D01*
X42000Y-55850D02*
X42000Y-55399D01*
X49750Y-55100D02*
X49750Y-54699D01*
X53762Y-53199D02*
X54000Y-53199D01*
X53012Y-52449D02*
X53762Y-53199D01*
X51761Y-52449D02*
X53012Y-52449D01*
X50600Y-51288D02*
X51761Y-52449D01*
X50600Y-51000D02*
X50600Y-51288D01*
X50250Y-43349D02*
X50250Y-42600D01*
X50150Y-43449D02*
X50250Y-43349D01*
X50150Y-43450D02*
X50150Y-43449D01*
X50150Y-44000D02*
X50150Y-43450D01*
X45500Y-41650D02*
X45500Y-42100D01*
X49824Y-55574D02*
X49750Y-55500D01*
X51950Y-55574D02*
X49824Y-55574D01*
X39727Y-46499D02*
X40084Y-46143D01*
X39727Y-50317D02*
X39727Y-46499D01*
X40016Y-50606D02*
X39727Y-50317D01*
X40084Y-50606D02*
X40016Y-50606D01*
X40084Y-50875D02*
X40084Y-50606D01*
X40084Y-45875D02*
X40084Y-46143D01*
X42500Y-43350D02*
X42500Y-42899D01*
X42500Y-42899D02*
X44949Y-42899D01*
X44949Y-43725D02*
X44949Y-42899D01*
X45026Y-43802D02*
X44949Y-43725D01*
X48097Y-43802D02*
X45026Y-43802D01*
X48450Y-43449D02*
X48097Y-43802D01*
X50150Y-43449D02*
X48450Y-43449D01*
X44949Y-42650D02*
X45500Y-42100D01*
X44949Y-42899D02*
X44949Y-42650D01*
X40084Y-43942D02*
X40084Y-44143D01*
X40084Y-43942D02*
X40084Y-43875D01*
X41938Y-42338D02*
X42500Y-42899D01*
X41938Y-41277D02*
X41938Y-42338D01*
X42206Y-41009D02*
X41938Y-41277D01*
X44273Y-41009D02*
X42206Y-41009D01*
X44565Y-40717D02*
X44273Y-41009D01*
X44565Y-39998D02*
X44565Y-40717D01*
X44466Y-39899D02*
X44565Y-39998D01*
X42010Y-39899D02*
X44466Y-39899D01*
X41407Y-40502D02*
X42010Y-39899D01*
X41407Y-41186D02*
X41407Y-40502D01*
X39736Y-42856D02*
X41407Y-41186D01*
X39736Y-43326D02*
X39736Y-42856D01*
X40016Y-43606D02*
X39736Y-43326D01*
X40084Y-43606D02*
X40016Y-43606D01*
X40084Y-43875D02*
X40084Y-43606D01*
X40084Y-50875D02*
X40084Y-51143D01*
X54500Y-56000D02*
X54500Y-55000D01*
X54500Y-54600D02*
X54000Y-54100D01*
X54500Y-55000D02*
X54500Y-54600D01*
X54000Y-53650D02*
X54000Y-54100D01*
X40084Y-54375D02*
X40084Y-54643D01*
X42000Y-54150D02*
X42000Y-54600D01*
X40170Y-54729D02*
X40084Y-54643D01*
X41870Y-54729D02*
X40170Y-54729D01*
X41870Y-54729D02*
X42000Y-54600D01*
X42270Y-55129D02*
X41870Y-54729D01*
X42000Y-55399D02*
X42270Y-55129D01*
X42000Y-55399D02*
X42000Y-55399D01*
X42700Y-54699D02*
X49750Y-54699D01*
X42270Y-55129D02*
X42700Y-54699D01*
X40084Y-54375D02*
X40084Y-54106D01*
X40151Y-54106D02*
X40084Y-54106D01*
X40431Y-53825D02*
X40151Y-54106D01*
X40431Y-51491D02*
X40431Y-53825D01*
X40583Y-51491D02*
X40431Y-51491D01*
X42224Y-49850D02*
X40583Y-51491D01*
X40431Y-51491D02*
X40084Y-51143D01*
X51800Y-56500D02*
X49700Y-56500D01*
X51950Y-56349D02*
X51800Y-56500D01*
X51950Y-55574D02*
X51950Y-56349D01*
X41813Y-62399D02*
X41574Y-62161D01*
X42000Y-62399D02*
X41813Y-62399D01*
X40129Y-63606D02*
X40084Y-63606D01*
X41574Y-62161D02*
X40129Y-63606D01*
X41574Y-61131D02*
X41574Y-62161D01*
X41756Y-60950D02*
X41574Y-61131D01*
X42000Y-60950D02*
X41756Y-60950D01*
X52643Y-55574D02*
X51950Y-55574D01*
X53105Y-56036D02*
X52643Y-55574D01*
X53105Y-59260D02*
X53105Y-56036D01*
X54307Y-60462D02*
X53105Y-59260D01*
X54688Y-60462D02*
X54307Y-60462D01*
X54950Y-60201D02*
X54688Y-60462D01*
X54950Y-57900D02*
X54950Y-60201D01*
X54500Y-57450D02*
X54950Y-57900D01*
X42000Y-65850D02*
X41449Y-65850D01*
X40452Y-65850D02*
X41449Y-65850D01*
X40452Y-64511D02*
X40452Y-65850D01*
X40084Y-64143D02*
X40452Y-64511D01*
X40151Y-66606D02*
X40084Y-66606D01*
X40452Y-66305D02*
X40151Y-66606D01*
X40452Y-65850D02*
X40452Y-66305D01*
X49750Y-65849D02*
X49650Y-65949D01*
X49750Y-65100D02*
X49750Y-65849D01*
X49650Y-66500D02*
X49650Y-65999D01*
X49650Y-65999D02*
X49650Y-65949D01*
X47444Y-66300D02*
X42000Y-66300D01*
X47795Y-65949D02*
X47444Y-66300D01*
X49650Y-65949D02*
X47795Y-65949D01*
X42000Y-65850D02*
X42000Y-66300D01*
X49700Y-60550D02*
X49750Y-60500D01*
X49700Y-61500D02*
X49700Y-60550D01*
X49375Y-61500D02*
X49700Y-61500D01*
X49750Y-60100D02*
X49750Y-60500D01*
X42000Y-60900D02*
X42000Y-60950D01*
X49049Y-61256D02*
X49049Y-61500D01*
X48831Y-61037D02*
X49049Y-61256D01*
X42137Y-61037D02*
X48831Y-61037D01*
X42000Y-60900D02*
X42137Y-61037D01*
X49375Y-61500D02*
X49049Y-61500D01*
X42000Y-60762D02*
X42000Y-60900D01*
X42000Y-60762D02*
X42000Y-60625D01*
X42000Y-55850D02*
X42000Y-56300D01*
X42000Y-60625D02*
X42000Y-59375D01*
X41915Y-56300D02*
X42000Y-56300D01*
X41449Y-56765D02*
X41915Y-56300D01*
X41449Y-58743D02*
X41449Y-56765D01*
X41756Y-59049D02*
X41449Y-58743D01*
X42000Y-59049D02*
X41756Y-59049D01*
X42000Y-59375D02*
X42000Y-59049D01*
M02*
