G04 (created by PCBNEW (2013-jul-07)-stable) date Пт 28 фев 2014 10:34:58*
%MOIN*%
G04 Gerber Fmt 3.4, Leading zero omitted, Abs format*
%FSLAX34Y34*%
G01*
G70*
G90*
G04 APERTURE LIST*
%ADD10C,0.00590551*%
%ADD11R,0.035X0.055*%
%ADD12R,0.055X0.035*%
%ADD13R,0.06X0.06*%
%ADD14C,0.06*%
%ADD15R,0.0177X0.059*%
%ADD16R,0.075X0.0098*%
%ADD17R,0.0472X0.0472*%
%ADD18C,0.035*%
%ADD19C,0.01*%
%ADD20C,0.00984252*%
G04 APERTURE END LIST*
G54D10*
G54D11*
X96312Y-22687D03*
X97062Y-22687D03*
X94112Y-25087D03*
X94862Y-25087D03*
G54D12*
X93487Y-22462D03*
X93487Y-21712D03*
G54D11*
X91012Y-24187D03*
X90262Y-24187D03*
X91012Y-24837D03*
X90262Y-24837D03*
X89262Y-24112D03*
X88512Y-24112D03*
X87887Y-24112D03*
X87137Y-24112D03*
G54D13*
X91087Y-22137D03*
G54D14*
X91087Y-23137D03*
X90087Y-22137D03*
X90087Y-23137D03*
X89087Y-22137D03*
X89087Y-23137D03*
X88087Y-22137D03*
X88087Y-23137D03*
X87087Y-22137D03*
X87087Y-23137D03*
G54D12*
X97787Y-26862D03*
X97787Y-26112D03*
X96737Y-26312D03*
X96737Y-25562D03*
G54D11*
X94762Y-25862D03*
X95512Y-25862D03*
G54D12*
X92037Y-22612D03*
X92037Y-21862D03*
X92787Y-26762D03*
X92787Y-26012D03*
X97787Y-25512D03*
X97787Y-24762D03*
X96737Y-24912D03*
X96737Y-24162D03*
X95737Y-25187D03*
X95737Y-24437D03*
X93487Y-25962D03*
X93487Y-25212D03*
G54D11*
X97062Y-23437D03*
X96312Y-23437D03*
X94112Y-24387D03*
X94862Y-24387D03*
G54D12*
X91050Y-21250D03*
X91050Y-20500D03*
X92787Y-21862D03*
X92787Y-22612D03*
X90337Y-26212D03*
X90337Y-25462D03*
G54D11*
X89262Y-27062D03*
X90012Y-27062D03*
X89262Y-24837D03*
X88512Y-24837D03*
X87137Y-24837D03*
X87887Y-24837D03*
G54D15*
X95762Y-21278D03*
X95512Y-21278D03*
X95262Y-21278D03*
X95012Y-21278D03*
X94762Y-21278D03*
X94512Y-21278D03*
X94262Y-21278D03*
X94012Y-21278D03*
X94012Y-23396D03*
X94262Y-23396D03*
X94512Y-23396D03*
X94762Y-23396D03*
X95012Y-23396D03*
X95262Y-23396D03*
X95512Y-23396D03*
X95762Y-23396D03*
G54D16*
X87206Y-25405D03*
X87206Y-25602D03*
X87206Y-25799D03*
X87206Y-25996D03*
X87206Y-26193D03*
X88860Y-26193D03*
X88860Y-25996D03*
X88860Y-25799D03*
X88860Y-25602D03*
X88860Y-25405D03*
G54D13*
X93787Y-27187D03*
G54D14*
X94787Y-27187D03*
X95787Y-27187D03*
X96787Y-27187D03*
G54D12*
X91687Y-24212D03*
X91687Y-24962D03*
G54D11*
X92812Y-23237D03*
X92062Y-23237D03*
G54D13*
X87287Y-27237D03*
G54D14*
X88287Y-27237D03*
G54D17*
X92037Y-21300D03*
X92037Y-20474D03*
X92387Y-24650D03*
X92387Y-23824D03*
G54D18*
X95750Y-21900D03*
X94500Y-21900D03*
X92650Y-20225D03*
X88537Y-26687D03*
X91037Y-25687D03*
X93037Y-23937D03*
X93287Y-23187D03*
X93537Y-21187D03*
X94787Y-22937D03*
G54D19*
X90575Y-21399D02*
X90900Y-21399D01*
X90900Y-21399D02*
X91050Y-21250D01*
X92037Y-22612D02*
X92037Y-23212D01*
X92037Y-23212D02*
X92062Y-23237D01*
X93487Y-22462D02*
X92937Y-22462D01*
X92937Y-22462D02*
X92787Y-22612D01*
X93487Y-22462D02*
X93412Y-22462D01*
X93262Y-22612D02*
X93487Y-22462D01*
X93412Y-22462D02*
X93262Y-22612D01*
X92787Y-22612D02*
X95212Y-22612D01*
X95212Y-22612D02*
X95262Y-22662D01*
X95262Y-22662D02*
X95262Y-23396D01*
X91087Y-23137D02*
X90587Y-22437D01*
X92037Y-22612D02*
X92787Y-22612D01*
X92037Y-22612D02*
X91462Y-22612D01*
X91462Y-22612D02*
X91087Y-23137D01*
X90587Y-22437D02*
X90575Y-21399D01*
X91687Y-24212D02*
X91687Y-23987D01*
X91387Y-23687D02*
X89962Y-23687D01*
X91687Y-23987D02*
X91387Y-23687D01*
X90087Y-23137D02*
X90112Y-23537D01*
X90112Y-23537D02*
X89962Y-23687D01*
X89962Y-23687D02*
X89837Y-23812D01*
X89837Y-24187D02*
X90262Y-24187D01*
X89837Y-24787D02*
X90212Y-24787D01*
X88860Y-25602D02*
X89497Y-25602D01*
X89837Y-24187D02*
X89837Y-23812D01*
X89837Y-25262D02*
X89837Y-24787D01*
X89837Y-24787D02*
X89837Y-24187D01*
X89497Y-25602D02*
X89837Y-25262D01*
X94762Y-21278D02*
X94762Y-20912D01*
X92787Y-21087D02*
X92787Y-21862D01*
X93087Y-20787D02*
X92787Y-21087D01*
X94637Y-20787D02*
X93087Y-20787D01*
X94762Y-20912D02*
X94637Y-20787D01*
X92787Y-21862D02*
X92787Y-22237D01*
X92787Y-22237D02*
X91437Y-22237D01*
X91137Y-22137D02*
X91437Y-22237D01*
X92787Y-26762D02*
X92787Y-26937D01*
X92787Y-26937D02*
X93037Y-27187D01*
X93037Y-27187D02*
X93787Y-27187D01*
X94787Y-27187D02*
X94787Y-25887D01*
X94787Y-25887D02*
X94762Y-25862D01*
X90850Y-20425D02*
X90937Y-20587D01*
X90125Y-20650D02*
X90850Y-20425D01*
X90937Y-20587D02*
X91237Y-20887D01*
X91237Y-20887D02*
X92487Y-20887D01*
X95012Y-20812D02*
X95012Y-21278D01*
X94787Y-20587D02*
X95012Y-20812D01*
X92907Y-20587D02*
X94787Y-20587D01*
X92487Y-20887D02*
X92907Y-20587D01*
X90087Y-22087D02*
X90112Y-20637D01*
X96787Y-27187D02*
X97462Y-27187D01*
X97462Y-27187D02*
X97787Y-26862D01*
X95787Y-27187D02*
X95787Y-26662D01*
X95787Y-26662D02*
X96137Y-26312D01*
X96137Y-26312D02*
X96737Y-26312D01*
X95787Y-27187D02*
X96012Y-27187D01*
X89612Y-25187D02*
X89612Y-22462D01*
X89394Y-25405D02*
X89612Y-25187D01*
X88860Y-25405D02*
X89394Y-25405D01*
X89612Y-22462D02*
X89087Y-22137D01*
X87206Y-25602D02*
X86702Y-25602D01*
X86612Y-22762D02*
X87087Y-22137D01*
X86612Y-25512D02*
X86612Y-22762D01*
X86702Y-25602D02*
X86612Y-25512D01*
X87087Y-23137D02*
X87028Y-23137D01*
X86794Y-25405D02*
X87206Y-25405D01*
X86787Y-25412D02*
X86794Y-25405D01*
X86787Y-23662D02*
X86787Y-25412D01*
X87028Y-23137D02*
X86787Y-23662D01*
X89262Y-24112D02*
X89237Y-23287D01*
X89237Y-23287D02*
X89087Y-23137D01*
X89262Y-24837D02*
X89262Y-24112D01*
X87137Y-24112D02*
X87137Y-23937D01*
X87137Y-23937D02*
X88087Y-23137D01*
X87137Y-24837D02*
X87137Y-24112D01*
X87206Y-26193D02*
X87793Y-26193D01*
X88049Y-26449D02*
X88099Y-27150D01*
X87793Y-26193D02*
X88049Y-26449D01*
X87206Y-25996D02*
X86646Y-25996D01*
X86637Y-27037D02*
X87262Y-27237D01*
X86637Y-26005D02*
X86637Y-27037D01*
X86646Y-25996D02*
X86637Y-26005D01*
X95262Y-21278D02*
X95262Y-21837D01*
X95325Y-21900D02*
X95750Y-21900D01*
X95262Y-21837D02*
X95325Y-21900D01*
X94000Y-21700D02*
X94000Y-21750D01*
X94500Y-21900D02*
X94512Y-21278D01*
X94150Y-21900D02*
X94500Y-21900D01*
X94000Y-21750D02*
X94150Y-21900D01*
X92037Y-20512D02*
X92725Y-20300D01*
X87206Y-25799D02*
X87649Y-25799D01*
X87649Y-25799D02*
X88537Y-26687D01*
X91012Y-24837D02*
X91012Y-25662D01*
X92387Y-23862D02*
X92962Y-23862D01*
X92812Y-23237D02*
X93237Y-23237D01*
X93237Y-23237D02*
X93287Y-23187D01*
X93487Y-21712D02*
X93487Y-21237D01*
X93487Y-21237D02*
X93537Y-21187D01*
X94762Y-23396D02*
X94762Y-22962D01*
X94762Y-22962D02*
X94787Y-22937D01*
X94012Y-21278D02*
X94000Y-21700D01*
X94000Y-21700D02*
X94000Y-21700D01*
X95762Y-21278D02*
X95737Y-21912D01*
X94512Y-23396D02*
X94512Y-22837D01*
X94512Y-22837D02*
X94787Y-22837D01*
X94762Y-23396D02*
X94762Y-22837D01*
X94787Y-22862D02*
X94787Y-22837D01*
X94762Y-22837D02*
X94787Y-22862D01*
X95012Y-23396D02*
X95012Y-22912D01*
X94937Y-22837D02*
X94787Y-22837D01*
X95012Y-22912D02*
X94937Y-22837D01*
X87649Y-25799D02*
X87787Y-25937D01*
X90337Y-26212D02*
X90337Y-26737D01*
X90337Y-26737D02*
X90012Y-27062D01*
X88860Y-25996D02*
X89596Y-25996D01*
X89812Y-26212D02*
X90337Y-26212D01*
X89596Y-25996D02*
X89812Y-26212D01*
X92387Y-24612D02*
X92037Y-24612D01*
X92037Y-24612D02*
X91687Y-24962D01*
X92037Y-21862D02*
X92037Y-21262D01*
X97787Y-26112D02*
X97787Y-25512D01*
X95512Y-25862D02*
X95512Y-25412D01*
X95512Y-25412D02*
X95737Y-25187D01*
X88860Y-25799D02*
X88374Y-25799D01*
X88237Y-25112D02*
X88512Y-24837D01*
X88237Y-25662D02*
X88237Y-25112D01*
X88374Y-25799D02*
X88237Y-25662D01*
X88860Y-25799D02*
X89625Y-25799D01*
X89962Y-25462D02*
X90337Y-25462D01*
X89625Y-25799D02*
X89962Y-25462D01*
X92787Y-26012D02*
X93437Y-26012D01*
X93437Y-26012D02*
X93487Y-25962D01*
X96737Y-25562D02*
X96737Y-24912D01*
X96737Y-24162D02*
X96887Y-24162D01*
X96887Y-24162D02*
X97062Y-23987D01*
X97062Y-23987D02*
X97062Y-23437D01*
X95512Y-23396D02*
X95512Y-23762D01*
X96512Y-23937D02*
X96737Y-24162D01*
X95687Y-23937D02*
X96512Y-23937D01*
X95512Y-23762D02*
X95687Y-23937D01*
X95512Y-23396D02*
X95512Y-22812D01*
X95637Y-22687D02*
X96312Y-22687D01*
X95512Y-22812D02*
X95637Y-22687D01*
X97062Y-22687D02*
X97512Y-22687D01*
X97512Y-22687D02*
X97787Y-22962D01*
X97787Y-22962D02*
X97787Y-24762D01*
X96312Y-23437D02*
X97062Y-22687D01*
X96312Y-23437D02*
X95803Y-23437D01*
X95803Y-23437D02*
X95762Y-23396D01*
X94112Y-25087D02*
X94112Y-24387D01*
X93487Y-25212D02*
X93987Y-25212D01*
X93987Y-25212D02*
X94112Y-25087D01*
X94012Y-23862D02*
X94012Y-23396D01*
X94112Y-23962D02*
X94012Y-23862D01*
X94112Y-24387D02*
X94112Y-23962D01*
X94737Y-23937D02*
X94862Y-24062D01*
X94387Y-23937D02*
X94737Y-23937D01*
X94262Y-23812D02*
X94387Y-23937D01*
X94912Y-24437D02*
X94862Y-24387D01*
X94862Y-24062D02*
X94862Y-24387D01*
X94862Y-25087D02*
X94862Y-24387D01*
X95737Y-24437D02*
X94912Y-24437D01*
X94262Y-23396D02*
X94262Y-23812D01*
X89262Y-27062D02*
X89262Y-26595D01*
X89262Y-26595D02*
X88860Y-26193D01*
X87937Y-25687D02*
X87937Y-24887D01*
X88860Y-26193D02*
X88443Y-26193D01*
X88443Y-26193D02*
X87937Y-25687D01*
X87937Y-24887D02*
X87887Y-24837D01*
X87712Y-25037D02*
X87887Y-24837D01*
G54D10*
G36*
X94780Y-23406D02*
X94772Y-23406D01*
X94772Y-23414D01*
X94752Y-23414D01*
X94752Y-23406D01*
X94744Y-23406D01*
X94744Y-23386D01*
X94752Y-23386D01*
X94752Y-23360D01*
X94762Y-23350D01*
X94772Y-23360D01*
X94772Y-23386D01*
X94780Y-23386D01*
X94780Y-23406D01*
X94780Y-23406D01*
G37*
G54D20*
X94780Y-23406D02*
X94772Y-23406D01*
X94772Y-23414D01*
X94752Y-23414D01*
X94752Y-23406D01*
X94744Y-23406D01*
X94744Y-23386D01*
X94752Y-23386D01*
X94752Y-23360D01*
X94762Y-23350D01*
X94772Y-23360D01*
X94772Y-23386D01*
X94780Y-23386D01*
X94780Y-23406D01*
G54D10*
G36*
X95045Y-22953D02*
X95022Y-22976D01*
X95022Y-23030D01*
X95013Y-23051D01*
X95012Y-23056D01*
X95011Y-23051D01*
X95002Y-23030D01*
X95002Y-22976D01*
X94960Y-22934D01*
X94907Y-22934D01*
X94887Y-22938D01*
X94867Y-22934D01*
X94814Y-22934D01*
X94772Y-22976D01*
X94772Y-23030D01*
X94763Y-23051D01*
X94762Y-23056D01*
X94761Y-23051D01*
X94752Y-23030D01*
X94752Y-22976D01*
X94710Y-22934D01*
X94657Y-22934D01*
X94637Y-22938D01*
X94617Y-22934D01*
X94564Y-22934D01*
X94522Y-22976D01*
X94522Y-23030D01*
X94513Y-23051D01*
X94512Y-23055D01*
X94511Y-23052D01*
X94502Y-23030D01*
X94502Y-22976D01*
X94460Y-22934D01*
X94407Y-22934D01*
X94387Y-22938D01*
X94368Y-22934D01*
X94335Y-22934D01*
X94157Y-22934D01*
X94137Y-22938D01*
X94118Y-22934D01*
X94085Y-22934D01*
X93907Y-22934D01*
X93875Y-22940D01*
X93845Y-22953D01*
X93817Y-22971D01*
X93794Y-22994D01*
X93776Y-23021D01*
X93763Y-23051D01*
X93756Y-23083D01*
X93756Y-23116D01*
X93756Y-23707D01*
X93763Y-23740D01*
X93775Y-23770D01*
X93793Y-23797D01*
X93795Y-23799D01*
X93795Y-23862D01*
X93797Y-23882D01*
X93798Y-23902D01*
X93799Y-23903D01*
X93799Y-23904D01*
X93805Y-23923D01*
X93810Y-23943D01*
X93811Y-23944D01*
X93811Y-23945D01*
X93821Y-23963D01*
X93830Y-23980D01*
X93830Y-23981D01*
X93831Y-23982D01*
X93807Y-24005D01*
X93789Y-24032D01*
X93776Y-24062D01*
X93770Y-24094D01*
X93770Y-24127D01*
X93770Y-24158D01*
X93258Y-24137D01*
X92437Y-25687D01*
X92433Y-25689D01*
X92406Y-25707D01*
X92382Y-25730D01*
X92364Y-25757D01*
X92351Y-25787D01*
X92345Y-25819D01*
X92345Y-25852D01*
X92345Y-25862D01*
X91952Y-26604D01*
X91939Y-26594D01*
X91922Y-26583D01*
X91906Y-26572D01*
X91903Y-26571D01*
X91903Y-26571D01*
X91816Y-26527D01*
X91797Y-26520D01*
X91779Y-26512D01*
X91776Y-26512D01*
X91682Y-26485D01*
X91663Y-26482D01*
X91644Y-26478D01*
X91640Y-26478D01*
X91640Y-26478D01*
X91543Y-26470D01*
X91524Y-26471D01*
X91504Y-26471D01*
X91501Y-26471D01*
X91404Y-26483D01*
X91385Y-26487D01*
X91365Y-26491D01*
X91362Y-26492D01*
X91270Y-26522D01*
X91252Y-26530D01*
X91233Y-26538D01*
X91231Y-26539D01*
X91231Y-26539D01*
X91231Y-26539D01*
X91146Y-26587D01*
X91129Y-26598D01*
X91113Y-26609D01*
X91111Y-26611D01*
X91036Y-26674D01*
X91023Y-26688D01*
X91009Y-26702D01*
X91007Y-26705D01*
X90946Y-26781D01*
X90936Y-26798D01*
X90925Y-26814D01*
X90923Y-26817D01*
X90879Y-26904D01*
X90872Y-26922D01*
X90864Y-26940D01*
X90863Y-26943D01*
X90836Y-27037D01*
X90833Y-27056D01*
X90829Y-27076D01*
X90829Y-27079D01*
X90820Y-27176D01*
X90821Y-27196D01*
X90821Y-27215D01*
X90821Y-27218D01*
X90832Y-27315D01*
X90836Y-27334D01*
X90840Y-27354D01*
X90841Y-27357D01*
X90870Y-27450D01*
X90878Y-27468D01*
X90886Y-27486D01*
X90887Y-27489D01*
X90934Y-27574D01*
X90945Y-27590D01*
X90956Y-27607D01*
X90958Y-27609D01*
X91021Y-27684D01*
X91035Y-27698D01*
X91049Y-27712D01*
X91051Y-27714D01*
X91051Y-27714D01*
X91059Y-27720D01*
X86504Y-27720D01*
X86504Y-27208D01*
X86505Y-27209D01*
X86515Y-27217D01*
X86523Y-27221D01*
X86529Y-27226D01*
X86541Y-27231D01*
X86553Y-27237D01*
X86561Y-27240D01*
X86568Y-27243D01*
X86571Y-27244D01*
X86820Y-27323D01*
X86820Y-27553D01*
X86826Y-27586D01*
X86839Y-27616D01*
X86857Y-27643D01*
X86880Y-27667D01*
X86907Y-27685D01*
X86937Y-27698D01*
X86969Y-27704D01*
X87002Y-27704D01*
X87603Y-27704D01*
X87636Y-27698D01*
X87666Y-27685D01*
X87693Y-27667D01*
X87717Y-27644D01*
X87735Y-27617D01*
X87748Y-27587D01*
X87754Y-27555D01*
X87754Y-27522D01*
X87754Y-26921D01*
X87748Y-26888D01*
X87735Y-26858D01*
X87717Y-26831D01*
X87694Y-26807D01*
X87667Y-26789D01*
X87637Y-26776D01*
X87605Y-26770D01*
X87572Y-26770D01*
X86971Y-26770D01*
X86938Y-26776D01*
X86908Y-26789D01*
X86881Y-26807D01*
X86857Y-26830D01*
X86854Y-26834D01*
X86854Y-26410D01*
X87195Y-26410D01*
X87203Y-26411D01*
X87206Y-26411D01*
X87703Y-26411D01*
X87838Y-26545D01*
X87872Y-27019D01*
X87839Y-27095D01*
X87820Y-27185D01*
X87819Y-27276D01*
X87836Y-27366D01*
X87869Y-27452D01*
X87919Y-27529D01*
X87983Y-27595D01*
X88058Y-27647D01*
X88142Y-27684D01*
X88231Y-27703D01*
X88323Y-27705D01*
X88413Y-27689D01*
X88499Y-27656D01*
X88576Y-27607D01*
X88642Y-27544D01*
X88695Y-27469D01*
X88733Y-27385D01*
X88753Y-27296D01*
X88754Y-27191D01*
X88737Y-27101D01*
X88702Y-27017D01*
X88651Y-26940D01*
X88586Y-26875D01*
X88510Y-26824D01*
X88426Y-26788D01*
X88336Y-26770D01*
X88290Y-26770D01*
X88266Y-26433D01*
X88264Y-26421D01*
X88262Y-26409D01*
X88260Y-26400D01*
X88258Y-26391D01*
X88254Y-26380D01*
X88251Y-26368D01*
X88246Y-26360D01*
X88243Y-26352D01*
X88237Y-26341D01*
X88231Y-26330D01*
X88226Y-26323D01*
X88221Y-26316D01*
X88212Y-26307D01*
X88205Y-26297D01*
X88202Y-26295D01*
X87947Y-26040D01*
X87931Y-26027D01*
X87916Y-26014D01*
X87915Y-26013D01*
X87914Y-26013D01*
X87896Y-26003D01*
X87879Y-25993D01*
X87878Y-25993D01*
X87877Y-25993D01*
X87858Y-25987D01*
X87838Y-25981D01*
X87837Y-25981D01*
X87836Y-25980D01*
X87816Y-25978D01*
X87796Y-25976D01*
X87794Y-25976D01*
X87794Y-25976D01*
X87794Y-25976D01*
X87793Y-25976D01*
X87748Y-25976D01*
X87748Y-25931D01*
X87742Y-25899D01*
X87742Y-25898D01*
X87742Y-25897D01*
X87748Y-25865D01*
X87748Y-25851D01*
X87707Y-25809D01*
X87675Y-25809D01*
X87661Y-25799D01*
X87661Y-25799D01*
X87675Y-25789D01*
X87707Y-25789D01*
X87734Y-25762D01*
X87735Y-25768D01*
X87736Y-25769D01*
X87736Y-25770D01*
X87746Y-25788D01*
X87755Y-25805D01*
X87755Y-25806D01*
X87756Y-25807D01*
X87769Y-25823D01*
X87781Y-25839D01*
X87783Y-25840D01*
X87783Y-25840D01*
X87783Y-25840D01*
X87783Y-25841D01*
X88290Y-26347D01*
X88305Y-26360D01*
X88320Y-26373D01*
X88321Y-26373D01*
X88322Y-26374D01*
X88340Y-26383D01*
X88358Y-26393D01*
X88359Y-26393D01*
X88360Y-26394D01*
X88379Y-26400D01*
X88398Y-26406D01*
X88399Y-26406D01*
X88400Y-26406D01*
X88420Y-26408D01*
X88440Y-26411D01*
X88442Y-26411D01*
X88442Y-26411D01*
X88442Y-26411D01*
X88443Y-26411D01*
X88770Y-26411D01*
X89002Y-26643D01*
X88981Y-26657D01*
X88957Y-26680D01*
X88939Y-26707D01*
X88926Y-26737D01*
X88920Y-26769D01*
X88920Y-26802D01*
X88920Y-27353D01*
X88926Y-27386D01*
X88939Y-27416D01*
X88957Y-27443D01*
X88980Y-27467D01*
X89007Y-27485D01*
X89037Y-27498D01*
X89069Y-27504D01*
X89102Y-27504D01*
X89453Y-27504D01*
X89486Y-27498D01*
X89516Y-27485D01*
X89543Y-27467D01*
X89567Y-27444D01*
X89585Y-27417D01*
X89598Y-27387D01*
X89604Y-27355D01*
X89604Y-27322D01*
X89604Y-26771D01*
X89598Y-26738D01*
X89585Y-26708D01*
X89567Y-26681D01*
X89544Y-26657D01*
X89517Y-26639D01*
X89487Y-26626D01*
X89479Y-26625D01*
X89479Y-26595D01*
X89477Y-26575D01*
X89476Y-26555D01*
X89475Y-26554D01*
X89475Y-26553D01*
X89469Y-26534D01*
X89464Y-26514D01*
X89463Y-26513D01*
X89463Y-26512D01*
X89453Y-26495D01*
X89444Y-26477D01*
X89444Y-26476D01*
X89443Y-26475D01*
X89430Y-26459D01*
X89418Y-26444D01*
X89416Y-26442D01*
X89416Y-26442D01*
X89416Y-26442D01*
X89416Y-26441D01*
X89344Y-26370D01*
X89365Y-26349D01*
X89383Y-26322D01*
X89396Y-26292D01*
X89402Y-26260D01*
X89403Y-26227D01*
X89402Y-26214D01*
X89506Y-26214D01*
X89658Y-26366D01*
X89674Y-26378D01*
X89689Y-26391D01*
X89690Y-26392D01*
X89691Y-26393D01*
X89709Y-26402D01*
X89726Y-26412D01*
X89727Y-26412D01*
X89728Y-26413D01*
X89748Y-26418D01*
X89767Y-26425D01*
X89768Y-26425D01*
X89769Y-26425D01*
X89789Y-26427D01*
X89809Y-26429D01*
X89811Y-26429D01*
X89811Y-26429D01*
X89811Y-26429D01*
X89812Y-26429D01*
X89900Y-26429D01*
X89901Y-26436D01*
X89914Y-26466D01*
X89932Y-26493D01*
X89955Y-26517D01*
X89982Y-26535D01*
X90012Y-26548D01*
X90044Y-26554D01*
X90077Y-26554D01*
X90120Y-26554D01*
X90120Y-26620D01*
X89821Y-26620D01*
X89788Y-26626D01*
X89758Y-26639D01*
X89731Y-26657D01*
X89707Y-26680D01*
X89689Y-26707D01*
X89676Y-26737D01*
X89670Y-26769D01*
X89670Y-26802D01*
X89670Y-27353D01*
X89676Y-27386D01*
X89689Y-27416D01*
X89707Y-27443D01*
X89730Y-27467D01*
X89757Y-27485D01*
X89787Y-27498D01*
X89819Y-27504D01*
X89852Y-27504D01*
X90203Y-27504D01*
X90236Y-27498D01*
X90266Y-27485D01*
X90293Y-27467D01*
X90317Y-27444D01*
X90335Y-27417D01*
X90348Y-27387D01*
X90354Y-27355D01*
X90354Y-27322D01*
X90354Y-27027D01*
X90491Y-26891D01*
X90503Y-26875D01*
X90516Y-26860D01*
X90517Y-26859D01*
X90518Y-26858D01*
X90527Y-26840D01*
X90537Y-26823D01*
X90537Y-26822D01*
X90538Y-26821D01*
X90544Y-26801D01*
X90550Y-26782D01*
X90550Y-26781D01*
X90550Y-26780D01*
X90552Y-26760D01*
X90554Y-26740D01*
X90554Y-26738D01*
X90554Y-26738D01*
X90554Y-26738D01*
X90554Y-26737D01*
X90554Y-26554D01*
X90628Y-26554D01*
X90661Y-26548D01*
X90691Y-26535D01*
X90718Y-26517D01*
X90742Y-26494D01*
X90760Y-26467D01*
X90773Y-26437D01*
X90779Y-26405D01*
X90779Y-26372D01*
X90779Y-26021D01*
X90773Y-25988D01*
X90760Y-25958D01*
X90742Y-25931D01*
X90719Y-25907D01*
X90692Y-25889D01*
X90662Y-25876D01*
X90630Y-25870D01*
X90597Y-25870D01*
X90046Y-25870D01*
X90013Y-25876D01*
X89983Y-25889D01*
X89956Y-25907D01*
X89932Y-25930D01*
X89914Y-25957D01*
X89901Y-25987D01*
X89900Y-25993D01*
X89819Y-25912D01*
X89961Y-25771D01*
X89982Y-25785D01*
X90012Y-25798D01*
X90044Y-25804D01*
X90077Y-25804D01*
X90628Y-25804D01*
X90661Y-25798D01*
X90691Y-25785D01*
X90718Y-25767D01*
X90742Y-25744D01*
X90760Y-25717D01*
X90773Y-25687D01*
X90779Y-25655D01*
X90779Y-25622D01*
X90779Y-25271D01*
X90779Y-25269D01*
X90788Y-25273D01*
X90821Y-25279D01*
X90960Y-25279D01*
X91002Y-25237D01*
X91002Y-24847D01*
X91002Y-24827D01*
X91002Y-24587D01*
X91002Y-24437D01*
X91002Y-24197D01*
X90712Y-24197D01*
X90670Y-24239D01*
X90670Y-24447D01*
X90670Y-24480D01*
X90676Y-24512D01*
X90677Y-24512D01*
X90676Y-24512D01*
X90670Y-24544D01*
X90670Y-24577D01*
X90670Y-24785D01*
X90712Y-24827D01*
X91002Y-24827D01*
X91002Y-24847D01*
X90712Y-24847D01*
X90670Y-24889D01*
X90670Y-25097D01*
X90670Y-25130D01*
X90670Y-25130D01*
X90662Y-25126D01*
X90630Y-25120D01*
X90604Y-25120D01*
X90604Y-25097D01*
X90604Y-24546D01*
X90598Y-24513D01*
X90597Y-24512D01*
X90598Y-24512D01*
X90604Y-24480D01*
X90604Y-24447D01*
X90604Y-23904D01*
X90670Y-23904D01*
X90670Y-23927D01*
X90670Y-24135D01*
X90712Y-24177D01*
X91002Y-24177D01*
X91002Y-24169D01*
X91022Y-24169D01*
X91022Y-24177D01*
X91030Y-24177D01*
X91030Y-24197D01*
X91022Y-24197D01*
X91022Y-24437D01*
X91022Y-24587D01*
X91022Y-24827D01*
X91030Y-24827D01*
X91030Y-24847D01*
X91022Y-24847D01*
X91022Y-25237D01*
X91064Y-25279D01*
X91203Y-25279D01*
X91236Y-25273D01*
X91266Y-25260D01*
X91286Y-25247D01*
X91305Y-25267D01*
X91332Y-25285D01*
X91362Y-25298D01*
X91394Y-25304D01*
X91427Y-25304D01*
X91978Y-25304D01*
X92011Y-25298D01*
X92041Y-25285D01*
X92068Y-25267D01*
X92092Y-25244D01*
X92110Y-25217D01*
X92123Y-25187D01*
X92129Y-25155D01*
X92129Y-25122D01*
X92129Y-24954D01*
X92678Y-24954D01*
X92711Y-24948D01*
X92741Y-24935D01*
X92768Y-24917D01*
X92792Y-24894D01*
X92810Y-24867D01*
X92823Y-24837D01*
X92829Y-24805D01*
X92829Y-24772D01*
X92829Y-24421D01*
X92829Y-24053D01*
X92829Y-23914D01*
X92787Y-23872D01*
X92397Y-23872D01*
X92397Y-24162D01*
X92439Y-24204D01*
X92647Y-24204D01*
X92680Y-24204D01*
X92712Y-24198D01*
X92742Y-24185D01*
X92769Y-24167D01*
X92792Y-24143D01*
X92810Y-24116D01*
X92823Y-24086D01*
X92829Y-24053D01*
X92829Y-24421D01*
X92823Y-24388D01*
X92810Y-24358D01*
X92792Y-24331D01*
X92769Y-24307D01*
X92742Y-24289D01*
X92712Y-24276D01*
X92680Y-24270D01*
X92647Y-24270D01*
X92129Y-24270D01*
X92129Y-24204D01*
X92335Y-24204D01*
X92377Y-24162D01*
X92377Y-23872D01*
X91990Y-23872D01*
X91980Y-23870D01*
X91947Y-23870D01*
X91870Y-23870D01*
X91869Y-23869D01*
X91869Y-23868D01*
X91868Y-23867D01*
X91855Y-23851D01*
X91843Y-23835D01*
X91841Y-23834D01*
X91841Y-23834D01*
X91841Y-23834D01*
X91841Y-23833D01*
X91541Y-23533D01*
X91525Y-23521D01*
X91510Y-23508D01*
X91509Y-23507D01*
X91508Y-23506D01*
X91490Y-23497D01*
X91473Y-23487D01*
X91472Y-23487D01*
X91471Y-23486D01*
X91451Y-23480D01*
X91432Y-23474D01*
X91431Y-23474D01*
X91430Y-23474D01*
X91413Y-23472D01*
X91442Y-23444D01*
X91495Y-23369D01*
X91533Y-23285D01*
X91553Y-23196D01*
X91554Y-23091D01*
X91537Y-23001D01*
X91505Y-22925D01*
X91573Y-22829D01*
X91600Y-22829D01*
X91601Y-22836D01*
X91614Y-22866D01*
X91632Y-22893D01*
X91655Y-22917D01*
X91682Y-22935D01*
X91712Y-22948D01*
X91720Y-22949D01*
X91720Y-22977D01*
X91720Y-23528D01*
X91726Y-23561D01*
X91739Y-23591D01*
X91757Y-23618D01*
X91780Y-23642D01*
X91807Y-23660D01*
X91837Y-23673D01*
X91869Y-23679D01*
X91902Y-23679D01*
X91945Y-23679D01*
X91945Y-23810D01*
X91987Y-23852D01*
X92377Y-23852D01*
X92377Y-23844D01*
X92397Y-23844D01*
X92397Y-23852D01*
X92787Y-23852D01*
X92829Y-23810D01*
X92829Y-23671D01*
X92823Y-23639D01*
X92864Y-23679D01*
X93003Y-23679D01*
X93036Y-23673D01*
X93066Y-23660D01*
X93093Y-23642D01*
X93117Y-23619D01*
X93135Y-23592D01*
X93148Y-23562D01*
X93154Y-23530D01*
X93154Y-23497D01*
X93154Y-23289D01*
X93112Y-23247D01*
X92822Y-23247D01*
X92822Y-23255D01*
X92802Y-23255D01*
X92802Y-23247D01*
X92512Y-23247D01*
X92470Y-23289D01*
X92470Y-23497D01*
X92470Y-23520D01*
X92439Y-23520D01*
X92398Y-23560D01*
X92404Y-23530D01*
X92404Y-23497D01*
X92404Y-22946D01*
X92401Y-22929D01*
X92412Y-22921D01*
X92432Y-22935D01*
X92462Y-22948D01*
X92470Y-22949D01*
X92470Y-22977D01*
X92470Y-23185D01*
X92512Y-23227D01*
X92802Y-23227D01*
X92802Y-23219D01*
X92822Y-23219D01*
X92822Y-23227D01*
X93112Y-23227D01*
X93154Y-23185D01*
X93154Y-22977D01*
X93154Y-22944D01*
X93151Y-22929D01*
X93168Y-22917D01*
X93192Y-22894D01*
X93210Y-22867D01*
X93223Y-22837D01*
X93224Y-22829D01*
X95045Y-22829D01*
X95045Y-22953D01*
X95045Y-22953D01*
G37*
G54D20*
X95045Y-22953D02*
X95022Y-22976D01*
X95022Y-23030D01*
X95013Y-23051D01*
X95012Y-23056D01*
X95011Y-23051D01*
X95002Y-23030D01*
X95002Y-22976D01*
X94960Y-22934D01*
X94907Y-22934D01*
X94887Y-22938D01*
X94867Y-22934D01*
X94814Y-22934D01*
X94772Y-22976D01*
X94772Y-23030D01*
X94763Y-23051D01*
X94762Y-23056D01*
X94761Y-23051D01*
X94752Y-23030D01*
X94752Y-22976D01*
X94710Y-22934D01*
X94657Y-22934D01*
X94637Y-22938D01*
X94617Y-22934D01*
X94564Y-22934D01*
X94522Y-22976D01*
X94522Y-23030D01*
X94513Y-23051D01*
X94512Y-23055D01*
X94511Y-23052D01*
X94502Y-23030D01*
X94502Y-22976D01*
X94460Y-22934D01*
X94407Y-22934D01*
X94387Y-22938D01*
X94368Y-22934D01*
X94335Y-22934D01*
X94157Y-22934D01*
X94137Y-22938D01*
X94118Y-22934D01*
X94085Y-22934D01*
X93907Y-22934D01*
X93875Y-22940D01*
X93845Y-22953D01*
X93817Y-22971D01*
X93794Y-22994D01*
X93776Y-23021D01*
X93763Y-23051D01*
X93756Y-23083D01*
X93756Y-23116D01*
X93756Y-23707D01*
X93763Y-23740D01*
X93775Y-23770D01*
X93793Y-23797D01*
X93795Y-23799D01*
X93795Y-23862D01*
X93797Y-23882D01*
X93798Y-23902D01*
X93799Y-23903D01*
X93799Y-23904D01*
X93805Y-23923D01*
X93810Y-23943D01*
X93811Y-23944D01*
X93811Y-23945D01*
X93821Y-23963D01*
X93830Y-23980D01*
X93830Y-23981D01*
X93831Y-23982D01*
X93807Y-24005D01*
X93789Y-24032D01*
X93776Y-24062D01*
X93770Y-24094D01*
X93770Y-24127D01*
X93770Y-24158D01*
X93258Y-24137D01*
X92437Y-25687D01*
X92433Y-25689D01*
X92406Y-25707D01*
X92382Y-25730D01*
X92364Y-25757D01*
X92351Y-25787D01*
X92345Y-25819D01*
X92345Y-25852D01*
X92345Y-25862D01*
X91952Y-26604D01*
X91939Y-26594D01*
X91922Y-26583D01*
X91906Y-26572D01*
X91903Y-26571D01*
X91903Y-26571D01*
X91816Y-26527D01*
X91797Y-26520D01*
X91779Y-26512D01*
X91776Y-26512D01*
X91682Y-26485D01*
X91663Y-26482D01*
X91644Y-26478D01*
X91640Y-26478D01*
X91640Y-26478D01*
X91543Y-26470D01*
X91524Y-26471D01*
X91504Y-26471D01*
X91501Y-26471D01*
X91404Y-26483D01*
X91385Y-26487D01*
X91365Y-26491D01*
X91362Y-26492D01*
X91270Y-26522D01*
X91252Y-26530D01*
X91233Y-26538D01*
X91231Y-26539D01*
X91231Y-26539D01*
X91231Y-26539D01*
X91146Y-26587D01*
X91129Y-26598D01*
X91113Y-26609D01*
X91111Y-26611D01*
X91036Y-26674D01*
X91023Y-26688D01*
X91009Y-26702D01*
X91007Y-26705D01*
X90946Y-26781D01*
X90936Y-26798D01*
X90925Y-26814D01*
X90923Y-26817D01*
X90879Y-26904D01*
X90872Y-26922D01*
X90864Y-26940D01*
X90863Y-26943D01*
X90836Y-27037D01*
X90833Y-27056D01*
X90829Y-27076D01*
X90829Y-27079D01*
X90820Y-27176D01*
X90821Y-27196D01*
X90821Y-27215D01*
X90821Y-27218D01*
X90832Y-27315D01*
X90836Y-27334D01*
X90840Y-27354D01*
X90841Y-27357D01*
X90870Y-27450D01*
X90878Y-27468D01*
X90886Y-27486D01*
X90887Y-27489D01*
X90934Y-27574D01*
X90945Y-27590D01*
X90956Y-27607D01*
X90958Y-27609D01*
X91021Y-27684D01*
X91035Y-27698D01*
X91049Y-27712D01*
X91051Y-27714D01*
X91051Y-27714D01*
X91059Y-27720D01*
X86504Y-27720D01*
X86504Y-27208D01*
X86505Y-27209D01*
X86515Y-27217D01*
X86523Y-27221D01*
X86529Y-27226D01*
X86541Y-27231D01*
X86553Y-27237D01*
X86561Y-27240D01*
X86568Y-27243D01*
X86571Y-27244D01*
X86820Y-27323D01*
X86820Y-27553D01*
X86826Y-27586D01*
X86839Y-27616D01*
X86857Y-27643D01*
X86880Y-27667D01*
X86907Y-27685D01*
X86937Y-27698D01*
X86969Y-27704D01*
X87002Y-27704D01*
X87603Y-27704D01*
X87636Y-27698D01*
X87666Y-27685D01*
X87693Y-27667D01*
X87717Y-27644D01*
X87735Y-27617D01*
X87748Y-27587D01*
X87754Y-27555D01*
X87754Y-27522D01*
X87754Y-26921D01*
X87748Y-26888D01*
X87735Y-26858D01*
X87717Y-26831D01*
X87694Y-26807D01*
X87667Y-26789D01*
X87637Y-26776D01*
X87605Y-26770D01*
X87572Y-26770D01*
X86971Y-26770D01*
X86938Y-26776D01*
X86908Y-26789D01*
X86881Y-26807D01*
X86857Y-26830D01*
X86854Y-26834D01*
X86854Y-26410D01*
X87195Y-26410D01*
X87203Y-26411D01*
X87206Y-26411D01*
X87703Y-26411D01*
X87838Y-26545D01*
X87872Y-27019D01*
X87839Y-27095D01*
X87820Y-27185D01*
X87819Y-27276D01*
X87836Y-27366D01*
X87869Y-27452D01*
X87919Y-27529D01*
X87983Y-27595D01*
X88058Y-27647D01*
X88142Y-27684D01*
X88231Y-27703D01*
X88323Y-27705D01*
X88413Y-27689D01*
X88499Y-27656D01*
X88576Y-27607D01*
X88642Y-27544D01*
X88695Y-27469D01*
X88733Y-27385D01*
X88753Y-27296D01*
X88754Y-27191D01*
X88737Y-27101D01*
X88702Y-27017D01*
X88651Y-26940D01*
X88586Y-26875D01*
X88510Y-26824D01*
X88426Y-26788D01*
X88336Y-26770D01*
X88290Y-26770D01*
X88266Y-26433D01*
X88264Y-26421D01*
X88262Y-26409D01*
X88260Y-26400D01*
X88258Y-26391D01*
X88254Y-26380D01*
X88251Y-26368D01*
X88246Y-26360D01*
X88243Y-26352D01*
X88237Y-26341D01*
X88231Y-26330D01*
X88226Y-26323D01*
X88221Y-26316D01*
X88212Y-26307D01*
X88205Y-26297D01*
X88202Y-26295D01*
X87947Y-26040D01*
X87931Y-26027D01*
X87916Y-26014D01*
X87915Y-26013D01*
X87914Y-26013D01*
X87896Y-26003D01*
X87879Y-25993D01*
X87878Y-25993D01*
X87877Y-25993D01*
X87858Y-25987D01*
X87838Y-25981D01*
X87837Y-25981D01*
X87836Y-25980D01*
X87816Y-25978D01*
X87796Y-25976D01*
X87794Y-25976D01*
X87794Y-25976D01*
X87794Y-25976D01*
X87793Y-25976D01*
X87748Y-25976D01*
X87748Y-25931D01*
X87742Y-25899D01*
X87742Y-25898D01*
X87742Y-25897D01*
X87748Y-25865D01*
X87748Y-25851D01*
X87707Y-25809D01*
X87675Y-25809D01*
X87661Y-25799D01*
X87661Y-25799D01*
X87675Y-25789D01*
X87707Y-25789D01*
X87734Y-25762D01*
X87735Y-25768D01*
X87736Y-25769D01*
X87736Y-25770D01*
X87746Y-25788D01*
X87755Y-25805D01*
X87755Y-25806D01*
X87756Y-25807D01*
X87769Y-25823D01*
X87781Y-25839D01*
X87783Y-25840D01*
X87783Y-25840D01*
X87783Y-25840D01*
X87783Y-25841D01*
X88290Y-26347D01*
X88305Y-26360D01*
X88320Y-26373D01*
X88321Y-26373D01*
X88322Y-26374D01*
X88340Y-26383D01*
X88358Y-26393D01*
X88359Y-26393D01*
X88360Y-26394D01*
X88379Y-26400D01*
X88398Y-26406D01*
X88399Y-26406D01*
X88400Y-26406D01*
X88420Y-26408D01*
X88440Y-26411D01*
X88442Y-26411D01*
X88442Y-26411D01*
X88442Y-26411D01*
X88443Y-26411D01*
X88770Y-26411D01*
X89002Y-26643D01*
X88981Y-26657D01*
X88957Y-26680D01*
X88939Y-26707D01*
X88926Y-26737D01*
X88920Y-26769D01*
X88920Y-26802D01*
X88920Y-27353D01*
X88926Y-27386D01*
X88939Y-27416D01*
X88957Y-27443D01*
X88980Y-27467D01*
X89007Y-27485D01*
X89037Y-27498D01*
X89069Y-27504D01*
X89102Y-27504D01*
X89453Y-27504D01*
X89486Y-27498D01*
X89516Y-27485D01*
X89543Y-27467D01*
X89567Y-27444D01*
X89585Y-27417D01*
X89598Y-27387D01*
X89604Y-27355D01*
X89604Y-27322D01*
X89604Y-26771D01*
X89598Y-26738D01*
X89585Y-26708D01*
X89567Y-26681D01*
X89544Y-26657D01*
X89517Y-26639D01*
X89487Y-26626D01*
X89479Y-26625D01*
X89479Y-26595D01*
X89477Y-26575D01*
X89476Y-26555D01*
X89475Y-26554D01*
X89475Y-26553D01*
X89469Y-26534D01*
X89464Y-26514D01*
X89463Y-26513D01*
X89463Y-26512D01*
X89453Y-26495D01*
X89444Y-26477D01*
X89444Y-26476D01*
X89443Y-26475D01*
X89430Y-26459D01*
X89418Y-26444D01*
X89416Y-26442D01*
X89416Y-26442D01*
X89416Y-26442D01*
X89416Y-26441D01*
X89344Y-26370D01*
X89365Y-26349D01*
X89383Y-26322D01*
X89396Y-26292D01*
X89402Y-26260D01*
X89403Y-26227D01*
X89402Y-26214D01*
X89506Y-26214D01*
X89658Y-26366D01*
X89674Y-26378D01*
X89689Y-26391D01*
X89690Y-26392D01*
X89691Y-26393D01*
X89709Y-26402D01*
X89726Y-26412D01*
X89727Y-26412D01*
X89728Y-26413D01*
X89748Y-26418D01*
X89767Y-26425D01*
X89768Y-26425D01*
X89769Y-26425D01*
X89789Y-26427D01*
X89809Y-26429D01*
X89811Y-26429D01*
X89811Y-26429D01*
X89811Y-26429D01*
X89812Y-26429D01*
X89900Y-26429D01*
X89901Y-26436D01*
X89914Y-26466D01*
X89932Y-26493D01*
X89955Y-26517D01*
X89982Y-26535D01*
X90012Y-26548D01*
X90044Y-26554D01*
X90077Y-26554D01*
X90120Y-26554D01*
X90120Y-26620D01*
X89821Y-26620D01*
X89788Y-26626D01*
X89758Y-26639D01*
X89731Y-26657D01*
X89707Y-26680D01*
X89689Y-26707D01*
X89676Y-26737D01*
X89670Y-26769D01*
X89670Y-26802D01*
X89670Y-27353D01*
X89676Y-27386D01*
X89689Y-27416D01*
X89707Y-27443D01*
X89730Y-27467D01*
X89757Y-27485D01*
X89787Y-27498D01*
X89819Y-27504D01*
X89852Y-27504D01*
X90203Y-27504D01*
X90236Y-27498D01*
X90266Y-27485D01*
X90293Y-27467D01*
X90317Y-27444D01*
X90335Y-27417D01*
X90348Y-27387D01*
X90354Y-27355D01*
X90354Y-27322D01*
X90354Y-27027D01*
X90491Y-26891D01*
X90503Y-26875D01*
X90516Y-26860D01*
X90517Y-26859D01*
X90518Y-26858D01*
X90527Y-26840D01*
X90537Y-26823D01*
X90537Y-26822D01*
X90538Y-26821D01*
X90544Y-26801D01*
X90550Y-26782D01*
X90550Y-26781D01*
X90550Y-26780D01*
X90552Y-26760D01*
X90554Y-26740D01*
X90554Y-26738D01*
X90554Y-26738D01*
X90554Y-26738D01*
X90554Y-26737D01*
X90554Y-26554D01*
X90628Y-26554D01*
X90661Y-26548D01*
X90691Y-26535D01*
X90718Y-26517D01*
X90742Y-26494D01*
X90760Y-26467D01*
X90773Y-26437D01*
X90779Y-26405D01*
X90779Y-26372D01*
X90779Y-26021D01*
X90773Y-25988D01*
X90760Y-25958D01*
X90742Y-25931D01*
X90719Y-25907D01*
X90692Y-25889D01*
X90662Y-25876D01*
X90630Y-25870D01*
X90597Y-25870D01*
X90046Y-25870D01*
X90013Y-25876D01*
X89983Y-25889D01*
X89956Y-25907D01*
X89932Y-25930D01*
X89914Y-25957D01*
X89901Y-25987D01*
X89900Y-25993D01*
X89819Y-25912D01*
X89961Y-25771D01*
X89982Y-25785D01*
X90012Y-25798D01*
X90044Y-25804D01*
X90077Y-25804D01*
X90628Y-25804D01*
X90661Y-25798D01*
X90691Y-25785D01*
X90718Y-25767D01*
X90742Y-25744D01*
X90760Y-25717D01*
X90773Y-25687D01*
X90779Y-25655D01*
X90779Y-25622D01*
X90779Y-25271D01*
X90779Y-25269D01*
X90788Y-25273D01*
X90821Y-25279D01*
X90960Y-25279D01*
X91002Y-25237D01*
X91002Y-24847D01*
X91002Y-24827D01*
X91002Y-24587D01*
X91002Y-24437D01*
X91002Y-24197D01*
X90712Y-24197D01*
X90670Y-24239D01*
X90670Y-24447D01*
X90670Y-24480D01*
X90676Y-24512D01*
X90677Y-24512D01*
X90676Y-24512D01*
X90670Y-24544D01*
X90670Y-24577D01*
X90670Y-24785D01*
X90712Y-24827D01*
X91002Y-24827D01*
X91002Y-24847D01*
X90712Y-24847D01*
X90670Y-24889D01*
X90670Y-25097D01*
X90670Y-25130D01*
X90670Y-25130D01*
X90662Y-25126D01*
X90630Y-25120D01*
X90604Y-25120D01*
X90604Y-25097D01*
X90604Y-24546D01*
X90598Y-24513D01*
X90597Y-24512D01*
X90598Y-24512D01*
X90604Y-24480D01*
X90604Y-24447D01*
X90604Y-23904D01*
X90670Y-23904D01*
X90670Y-23927D01*
X90670Y-24135D01*
X90712Y-24177D01*
X91002Y-24177D01*
X91002Y-24169D01*
X91022Y-24169D01*
X91022Y-24177D01*
X91030Y-24177D01*
X91030Y-24197D01*
X91022Y-24197D01*
X91022Y-24437D01*
X91022Y-24587D01*
X91022Y-24827D01*
X91030Y-24827D01*
X91030Y-24847D01*
X91022Y-24847D01*
X91022Y-25237D01*
X91064Y-25279D01*
X91203Y-25279D01*
X91236Y-25273D01*
X91266Y-25260D01*
X91286Y-25247D01*
X91305Y-25267D01*
X91332Y-25285D01*
X91362Y-25298D01*
X91394Y-25304D01*
X91427Y-25304D01*
X91978Y-25304D01*
X92011Y-25298D01*
X92041Y-25285D01*
X92068Y-25267D01*
X92092Y-25244D01*
X92110Y-25217D01*
X92123Y-25187D01*
X92129Y-25155D01*
X92129Y-25122D01*
X92129Y-24954D01*
X92678Y-24954D01*
X92711Y-24948D01*
X92741Y-24935D01*
X92768Y-24917D01*
X92792Y-24894D01*
X92810Y-24867D01*
X92823Y-24837D01*
X92829Y-24805D01*
X92829Y-24772D01*
X92829Y-24421D01*
X92829Y-24053D01*
X92829Y-23914D01*
X92787Y-23872D01*
X92397Y-23872D01*
X92397Y-24162D01*
X92439Y-24204D01*
X92647Y-24204D01*
X92680Y-24204D01*
X92712Y-24198D01*
X92742Y-24185D01*
X92769Y-24167D01*
X92792Y-24143D01*
X92810Y-24116D01*
X92823Y-24086D01*
X92829Y-24053D01*
X92829Y-24421D01*
X92823Y-24388D01*
X92810Y-24358D01*
X92792Y-24331D01*
X92769Y-24307D01*
X92742Y-24289D01*
X92712Y-24276D01*
X92680Y-24270D01*
X92647Y-24270D01*
X92129Y-24270D01*
X92129Y-24204D01*
X92335Y-24204D01*
X92377Y-24162D01*
X92377Y-23872D01*
X91990Y-23872D01*
X91980Y-23870D01*
X91947Y-23870D01*
X91870Y-23870D01*
X91869Y-23869D01*
X91869Y-23868D01*
X91868Y-23867D01*
X91855Y-23851D01*
X91843Y-23835D01*
X91841Y-23834D01*
X91841Y-23834D01*
X91841Y-23834D01*
X91841Y-23833D01*
X91541Y-23533D01*
X91525Y-23521D01*
X91510Y-23508D01*
X91509Y-23507D01*
X91508Y-23506D01*
X91490Y-23497D01*
X91473Y-23487D01*
X91472Y-23487D01*
X91471Y-23486D01*
X91451Y-23480D01*
X91432Y-23474D01*
X91431Y-23474D01*
X91430Y-23474D01*
X91413Y-23472D01*
X91442Y-23444D01*
X91495Y-23369D01*
X91533Y-23285D01*
X91553Y-23196D01*
X91554Y-23091D01*
X91537Y-23001D01*
X91505Y-22925D01*
X91573Y-22829D01*
X91600Y-22829D01*
X91601Y-22836D01*
X91614Y-22866D01*
X91632Y-22893D01*
X91655Y-22917D01*
X91682Y-22935D01*
X91712Y-22948D01*
X91720Y-22949D01*
X91720Y-22977D01*
X91720Y-23528D01*
X91726Y-23561D01*
X91739Y-23591D01*
X91757Y-23618D01*
X91780Y-23642D01*
X91807Y-23660D01*
X91837Y-23673D01*
X91869Y-23679D01*
X91902Y-23679D01*
X91945Y-23679D01*
X91945Y-23810D01*
X91987Y-23852D01*
X92377Y-23852D01*
X92377Y-23844D01*
X92397Y-23844D01*
X92397Y-23852D01*
X92787Y-23852D01*
X92829Y-23810D01*
X92829Y-23671D01*
X92823Y-23639D01*
X92864Y-23679D01*
X93003Y-23679D01*
X93036Y-23673D01*
X93066Y-23660D01*
X93093Y-23642D01*
X93117Y-23619D01*
X93135Y-23592D01*
X93148Y-23562D01*
X93154Y-23530D01*
X93154Y-23497D01*
X93154Y-23289D01*
X93112Y-23247D01*
X92822Y-23247D01*
X92822Y-23255D01*
X92802Y-23255D01*
X92802Y-23247D01*
X92512Y-23247D01*
X92470Y-23289D01*
X92470Y-23497D01*
X92470Y-23520D01*
X92439Y-23520D01*
X92398Y-23560D01*
X92404Y-23530D01*
X92404Y-23497D01*
X92404Y-22946D01*
X92401Y-22929D01*
X92412Y-22921D01*
X92432Y-22935D01*
X92462Y-22948D01*
X92470Y-22949D01*
X92470Y-22977D01*
X92470Y-23185D01*
X92512Y-23227D01*
X92802Y-23227D01*
X92802Y-23219D01*
X92822Y-23219D01*
X92822Y-23227D01*
X93112Y-23227D01*
X93154Y-23185D01*
X93154Y-22977D01*
X93154Y-22944D01*
X93151Y-22929D01*
X93168Y-22917D01*
X93192Y-22894D01*
X93210Y-22867D01*
X93223Y-22837D01*
X93224Y-22829D01*
X95045Y-22829D01*
X95045Y-22953D01*
G54D10*
G36*
X98320Y-24347D02*
X98004Y-24334D01*
X98004Y-22962D01*
X98002Y-22942D01*
X98001Y-22922D01*
X98000Y-22921D01*
X98000Y-22920D01*
X97994Y-22901D01*
X97989Y-22881D01*
X97988Y-22880D01*
X97988Y-22879D01*
X97978Y-22861D01*
X97969Y-22844D01*
X97969Y-22843D01*
X97968Y-22842D01*
X97955Y-22826D01*
X97943Y-22810D01*
X97941Y-22809D01*
X97941Y-22809D01*
X97941Y-22809D01*
X97941Y-22808D01*
X97666Y-22533D01*
X97650Y-22521D01*
X97635Y-22508D01*
X97634Y-22507D01*
X97633Y-22506D01*
X97615Y-22497D01*
X97598Y-22487D01*
X97597Y-22487D01*
X97596Y-22486D01*
X97576Y-22480D01*
X97557Y-22474D01*
X97556Y-22474D01*
X97555Y-22474D01*
X97535Y-22472D01*
X97515Y-22470D01*
X97513Y-22470D01*
X97513Y-22470D01*
X97513Y-22470D01*
X97512Y-22470D01*
X97404Y-22470D01*
X97404Y-22396D01*
X97398Y-22363D01*
X97385Y-22333D01*
X97367Y-22306D01*
X97344Y-22282D01*
X97317Y-22264D01*
X97287Y-22251D01*
X97255Y-22245D01*
X97222Y-22245D01*
X96871Y-22245D01*
X96838Y-22251D01*
X96808Y-22264D01*
X96781Y-22282D01*
X96757Y-22305D01*
X96739Y-22332D01*
X96726Y-22362D01*
X96720Y-22394D01*
X96720Y-22427D01*
X96720Y-22722D01*
X96654Y-22787D01*
X96654Y-22396D01*
X96648Y-22363D01*
X96635Y-22333D01*
X96617Y-22306D01*
X96594Y-22282D01*
X96567Y-22264D01*
X96537Y-22251D01*
X96505Y-22245D01*
X96472Y-22245D01*
X96121Y-22245D01*
X96088Y-22251D01*
X96058Y-22264D01*
X96031Y-22282D01*
X96018Y-22294D01*
X96018Y-21558D01*
X96018Y-20998D01*
X96018Y-20965D01*
X96011Y-20933D01*
X95998Y-20903D01*
X95980Y-20876D01*
X95957Y-20853D01*
X95929Y-20835D01*
X95899Y-20822D01*
X95867Y-20816D01*
X95814Y-20816D01*
X95772Y-20858D01*
X95772Y-21268D01*
X95976Y-21268D01*
X96018Y-21226D01*
X96018Y-20998D01*
X96018Y-21558D01*
X96018Y-21330D01*
X95976Y-21288D01*
X95772Y-21288D01*
X95772Y-21698D01*
X95814Y-21740D01*
X95867Y-21740D01*
X95899Y-21734D01*
X95929Y-21721D01*
X95957Y-21703D01*
X95980Y-21680D01*
X95998Y-21653D01*
X96011Y-21623D01*
X96018Y-21591D01*
X96018Y-21558D01*
X96018Y-22294D01*
X96007Y-22305D01*
X95989Y-22332D01*
X95976Y-22362D01*
X95970Y-22394D01*
X95970Y-22427D01*
X95970Y-22470D01*
X95637Y-22470D01*
X95617Y-22472D01*
X95597Y-22473D01*
X95596Y-22474D01*
X95595Y-22474D01*
X95576Y-22480D01*
X95556Y-22485D01*
X95555Y-22486D01*
X95554Y-22486D01*
X95536Y-22496D01*
X95519Y-22505D01*
X95518Y-22505D01*
X95517Y-22506D01*
X95501Y-22519D01*
X95485Y-22531D01*
X95484Y-22533D01*
X95484Y-22533D01*
X95484Y-22533D01*
X95483Y-22533D01*
X95454Y-22563D01*
X95453Y-22561D01*
X95444Y-22544D01*
X95444Y-22543D01*
X95443Y-22542D01*
X95430Y-22526D01*
X95418Y-22510D01*
X95416Y-22509D01*
X95416Y-22509D01*
X95416Y-22509D01*
X95416Y-22508D01*
X95366Y-22458D01*
X95350Y-22446D01*
X95335Y-22433D01*
X95334Y-22432D01*
X95333Y-22431D01*
X95315Y-22422D01*
X95298Y-22412D01*
X95297Y-22412D01*
X95296Y-22411D01*
X95276Y-22405D01*
X95257Y-22399D01*
X95256Y-22399D01*
X95255Y-22399D01*
X95235Y-22397D01*
X95215Y-22395D01*
X95213Y-22395D01*
X95213Y-22395D01*
X95213Y-22395D01*
X95212Y-22395D01*
X94002Y-22395D01*
X94002Y-21698D01*
X94002Y-21288D01*
X93798Y-21288D01*
X93756Y-21330D01*
X93756Y-21370D01*
X93747Y-21370D01*
X93539Y-21370D01*
X93497Y-21412D01*
X93497Y-21702D01*
X93505Y-21702D01*
X93505Y-21722D01*
X93497Y-21722D01*
X93497Y-22012D01*
X93539Y-22054D01*
X93747Y-22054D01*
X93780Y-22054D01*
X93812Y-22048D01*
X93842Y-22035D01*
X93869Y-22017D01*
X93892Y-21993D01*
X93910Y-21966D01*
X93923Y-21936D01*
X93929Y-21903D01*
X93929Y-21764D01*
X93906Y-21740D01*
X93907Y-21740D01*
X93960Y-21740D01*
X94002Y-21698D01*
X94002Y-22395D01*
X93929Y-22395D01*
X93929Y-22271D01*
X93923Y-22238D01*
X93910Y-22208D01*
X93892Y-22181D01*
X93869Y-22157D01*
X93842Y-22139D01*
X93812Y-22126D01*
X93780Y-22120D01*
X93747Y-22120D01*
X93208Y-22120D01*
X93210Y-22117D01*
X93223Y-22087D01*
X93229Y-22055D01*
X93229Y-22054D01*
X93435Y-22054D01*
X93477Y-22012D01*
X93477Y-21722D01*
X93469Y-21722D01*
X93469Y-21702D01*
X93477Y-21702D01*
X93477Y-21412D01*
X93435Y-21370D01*
X93227Y-21370D01*
X93194Y-21370D01*
X93162Y-21376D01*
X93132Y-21389D01*
X93105Y-21407D01*
X93082Y-21431D01*
X93064Y-21458D01*
X93051Y-21488D01*
X93045Y-21520D01*
X93004Y-21520D01*
X93004Y-21177D01*
X93177Y-21004D01*
X93756Y-21004D01*
X93756Y-21226D01*
X93798Y-21268D01*
X94002Y-21268D01*
X94002Y-21260D01*
X94006Y-21260D01*
X94006Y-21589D01*
X94013Y-21622D01*
X94022Y-21644D01*
X94022Y-21698D01*
X94064Y-21740D01*
X94117Y-21740D01*
X94137Y-21736D01*
X94156Y-21740D01*
X94189Y-21740D01*
X94367Y-21740D01*
X94387Y-21736D01*
X94407Y-21740D01*
X94460Y-21740D01*
X94502Y-21698D01*
X94502Y-21644D01*
X94511Y-21623D01*
X94512Y-21619D01*
X94513Y-21622D01*
X94522Y-21644D01*
X94522Y-21698D01*
X94564Y-21740D01*
X94617Y-21740D01*
X94637Y-21736D01*
X94656Y-21740D01*
X94689Y-21740D01*
X94867Y-21740D01*
X94887Y-21736D01*
X94906Y-21740D01*
X94939Y-21740D01*
X95117Y-21740D01*
X95137Y-21736D01*
X95157Y-21740D01*
X95210Y-21740D01*
X95252Y-21698D01*
X95252Y-21644D01*
X95261Y-21623D01*
X95262Y-21619D01*
X95263Y-21622D01*
X95272Y-21644D01*
X95272Y-21698D01*
X95314Y-21740D01*
X95367Y-21740D01*
X95387Y-21736D01*
X95406Y-21740D01*
X95439Y-21740D01*
X95617Y-21740D01*
X95637Y-21736D01*
X95657Y-21740D01*
X95710Y-21740D01*
X95752Y-21698D01*
X95752Y-21644D01*
X95761Y-21623D01*
X95768Y-21591D01*
X95768Y-21558D01*
X95768Y-20967D01*
X95761Y-20934D01*
X95752Y-20912D01*
X95752Y-20858D01*
X95710Y-20816D01*
X95657Y-20816D01*
X95637Y-20820D01*
X95618Y-20816D01*
X95585Y-20816D01*
X95407Y-20816D01*
X95387Y-20820D01*
X95367Y-20816D01*
X95314Y-20816D01*
X95272Y-20858D01*
X95272Y-20912D01*
X95263Y-20933D01*
X95262Y-20937D01*
X95261Y-20934D01*
X95252Y-20912D01*
X95252Y-20858D01*
X95229Y-20835D01*
X95229Y-20812D01*
X95227Y-20792D01*
X95226Y-20772D01*
X95225Y-20771D01*
X95225Y-20770D01*
X95219Y-20751D01*
X95214Y-20731D01*
X95213Y-20730D01*
X95213Y-20729D01*
X95203Y-20711D01*
X95194Y-20694D01*
X95194Y-20693D01*
X95193Y-20692D01*
X95180Y-20676D01*
X95168Y-20660D01*
X95166Y-20659D01*
X95166Y-20659D01*
X95166Y-20659D01*
X95166Y-20658D01*
X94941Y-20433D01*
X94925Y-20421D01*
X94910Y-20408D01*
X94909Y-20407D01*
X94908Y-20406D01*
X94890Y-20397D01*
X94873Y-20387D01*
X94872Y-20387D01*
X94871Y-20386D01*
X94851Y-20380D01*
X94832Y-20374D01*
X94831Y-20374D01*
X94830Y-20374D01*
X94810Y-20372D01*
X94790Y-20370D01*
X94788Y-20370D01*
X94788Y-20370D01*
X94788Y-20370D01*
X94787Y-20370D01*
X92907Y-20370D01*
X92903Y-20370D01*
X92903Y-20370D01*
X92899Y-20370D01*
X92865Y-20374D01*
X92861Y-20375D01*
X92861Y-20375D01*
X92859Y-20376D01*
X92824Y-20386D01*
X92821Y-20388D01*
X92821Y-20388D01*
X92819Y-20389D01*
X92787Y-20406D01*
X92784Y-20409D01*
X92783Y-20409D01*
X92781Y-20410D01*
X92479Y-20626D01*
X92479Y-20321D01*
X92473Y-20288D01*
X92460Y-20258D01*
X92442Y-20231D01*
X92419Y-20207D01*
X92392Y-20189D01*
X92362Y-20176D01*
X92330Y-20170D01*
X92297Y-20170D01*
X92089Y-20170D01*
X92047Y-20212D01*
X92047Y-20502D01*
X92437Y-20502D01*
X92479Y-20460D01*
X92479Y-20321D01*
X92479Y-20626D01*
X92479Y-20626D01*
X92479Y-20564D01*
X92437Y-20522D01*
X92047Y-20522D01*
X92047Y-20530D01*
X92027Y-20530D01*
X92027Y-20522D01*
X92027Y-20502D01*
X92027Y-20212D01*
X91985Y-20170D01*
X91777Y-20170D01*
X91744Y-20170D01*
X91712Y-20176D01*
X91682Y-20189D01*
X91655Y-20207D01*
X91632Y-20231D01*
X91614Y-20258D01*
X91601Y-20288D01*
X91595Y-20321D01*
X91595Y-20460D01*
X91637Y-20502D01*
X92027Y-20502D01*
X92027Y-20522D01*
X91637Y-20522D01*
X91595Y-20564D01*
X91595Y-20670D01*
X91492Y-20670D01*
X91492Y-20659D01*
X91492Y-20308D01*
X91485Y-20276D01*
X91473Y-20246D01*
X91455Y-20218D01*
X91432Y-20195D01*
X91404Y-20177D01*
X91374Y-20164D01*
X91342Y-20157D01*
X91309Y-20157D01*
X90758Y-20157D01*
X90726Y-20164D01*
X90696Y-20176D01*
X90668Y-20194D01*
X90645Y-20217D01*
X90627Y-20245D01*
X90616Y-20270D01*
X90128Y-20421D01*
X90118Y-20420D01*
X90075Y-20423D01*
X90034Y-20434D01*
X89997Y-20453D01*
X89963Y-20479D01*
X89935Y-20511D01*
X89914Y-20548D01*
X89901Y-20588D01*
X89895Y-20630D01*
X89895Y-20633D01*
X89876Y-21718D01*
X89869Y-21721D01*
X89793Y-21771D01*
X89727Y-21835D01*
X89676Y-21911D01*
X89639Y-21995D01*
X89620Y-22085D01*
X89619Y-22176D01*
X89626Y-22216D01*
X89553Y-22170D01*
X89554Y-22091D01*
X89537Y-22001D01*
X89502Y-21917D01*
X89451Y-21840D01*
X89386Y-21775D01*
X89310Y-21724D01*
X89226Y-21688D01*
X89136Y-21670D01*
X89044Y-21669D01*
X88954Y-21687D01*
X88869Y-21721D01*
X88793Y-21771D01*
X88727Y-21835D01*
X88676Y-21911D01*
X88639Y-21995D01*
X88620Y-22085D01*
X88619Y-22176D01*
X88636Y-22266D01*
X88669Y-22352D01*
X88719Y-22429D01*
X88783Y-22495D01*
X88858Y-22547D01*
X88942Y-22584D01*
X89031Y-22603D01*
X89123Y-22605D01*
X89213Y-22589D01*
X89299Y-22556D01*
X89324Y-22540D01*
X89395Y-22583D01*
X89395Y-22784D01*
X89386Y-22775D01*
X89310Y-22724D01*
X89226Y-22688D01*
X89136Y-22670D01*
X89044Y-22669D01*
X88954Y-22687D01*
X88869Y-22721D01*
X88793Y-22771D01*
X88727Y-22835D01*
X88676Y-22911D01*
X88639Y-22995D01*
X88620Y-23085D01*
X88619Y-23176D01*
X88636Y-23266D01*
X88669Y-23352D01*
X88719Y-23429D01*
X88783Y-23495D01*
X88858Y-23547D01*
X88942Y-23584D01*
X89029Y-23603D01*
X89031Y-23679D01*
X89008Y-23689D01*
X88981Y-23707D01*
X88957Y-23730D01*
X88939Y-23757D01*
X88926Y-23787D01*
X88920Y-23819D01*
X88920Y-23852D01*
X88920Y-24403D01*
X88926Y-24436D01*
X88939Y-24466D01*
X88944Y-24474D01*
X88939Y-24482D01*
X88926Y-24512D01*
X88920Y-24544D01*
X88920Y-24577D01*
X88920Y-25128D01*
X88926Y-25161D01*
X88937Y-25188D01*
X88860Y-25188D01*
X88851Y-25189D01*
X88836Y-25189D01*
X88848Y-25162D01*
X88854Y-25130D01*
X88854Y-25097D01*
X88854Y-24546D01*
X88848Y-24513D01*
X88835Y-24483D01*
X88830Y-24475D01*
X88835Y-24467D01*
X88848Y-24437D01*
X88854Y-24405D01*
X88854Y-24372D01*
X88854Y-23852D01*
X88854Y-23819D01*
X88848Y-23787D01*
X88835Y-23757D01*
X88817Y-23730D01*
X88793Y-23707D01*
X88766Y-23689D01*
X88736Y-23676D01*
X88703Y-23670D01*
X88564Y-23670D01*
X88556Y-23677D01*
X88556Y-22147D01*
X88549Y-22055D01*
X88525Y-21967D01*
X88483Y-21885D01*
X88473Y-21869D01*
X88396Y-21842D01*
X88382Y-21855D01*
X88382Y-21828D01*
X88355Y-21751D01*
X88275Y-21707D01*
X88188Y-21678D01*
X88097Y-21668D01*
X88005Y-21675D01*
X87917Y-21699D01*
X87835Y-21741D01*
X87819Y-21751D01*
X87792Y-21828D01*
X88087Y-22123D01*
X88382Y-21828D01*
X88382Y-21855D01*
X88101Y-22137D01*
X88396Y-22432D01*
X88473Y-22405D01*
X88517Y-22325D01*
X88546Y-22238D01*
X88556Y-22147D01*
X88556Y-23677D01*
X88522Y-23712D01*
X88522Y-24102D01*
X88812Y-24102D01*
X88854Y-24060D01*
X88854Y-23852D01*
X88854Y-24372D01*
X88854Y-24164D01*
X88812Y-24122D01*
X88522Y-24122D01*
X88522Y-24130D01*
X88502Y-24130D01*
X88502Y-24122D01*
X88502Y-24102D01*
X88502Y-23712D01*
X88460Y-23670D01*
X88321Y-23670D01*
X88288Y-23676D01*
X88258Y-23689D01*
X88231Y-23707D01*
X88207Y-23730D01*
X88200Y-23742D01*
X88192Y-23730D01*
X88168Y-23707D01*
X88141Y-23689D01*
X88111Y-23676D01*
X88078Y-23670D01*
X87939Y-23670D01*
X87897Y-23712D01*
X87897Y-24102D01*
X88187Y-24102D01*
X88200Y-24090D01*
X88212Y-24102D01*
X88502Y-24102D01*
X88502Y-24122D01*
X88212Y-24122D01*
X88200Y-24134D01*
X88187Y-24122D01*
X87897Y-24122D01*
X87897Y-24130D01*
X87877Y-24130D01*
X87877Y-24122D01*
X87587Y-24122D01*
X87545Y-24164D01*
X87545Y-24372D01*
X87545Y-24405D01*
X87551Y-24437D01*
X87564Y-24467D01*
X87569Y-24475D01*
X87564Y-24482D01*
X87551Y-24512D01*
X87545Y-24544D01*
X87545Y-24577D01*
X87545Y-24899D01*
X87524Y-24928D01*
X87506Y-24967D01*
X87497Y-25008D01*
X87495Y-25051D01*
X87502Y-25093D01*
X87517Y-25132D01*
X87539Y-25168D01*
X87558Y-25189D01*
X87461Y-25189D01*
X87473Y-25162D01*
X87479Y-25130D01*
X87479Y-25097D01*
X87479Y-24546D01*
X87473Y-24513D01*
X87460Y-24483D01*
X87455Y-24475D01*
X87460Y-24467D01*
X87473Y-24437D01*
X87479Y-24405D01*
X87479Y-24372D01*
X87479Y-23933D01*
X87545Y-23878D01*
X87545Y-24060D01*
X87587Y-24102D01*
X87877Y-24102D01*
X87877Y-23712D01*
X87835Y-23670D01*
X87792Y-23670D01*
X87910Y-23570D01*
X87942Y-23584D01*
X88031Y-23603D01*
X88123Y-23605D01*
X88213Y-23589D01*
X88299Y-23556D01*
X88376Y-23507D01*
X88442Y-23444D01*
X88495Y-23369D01*
X88533Y-23285D01*
X88553Y-23196D01*
X88554Y-23091D01*
X88537Y-23001D01*
X88502Y-22917D01*
X88451Y-22840D01*
X88386Y-22775D01*
X88382Y-22773D01*
X88382Y-22446D01*
X88087Y-22151D01*
X88073Y-22165D01*
X88073Y-22137D01*
X87778Y-21842D01*
X87701Y-21869D01*
X87657Y-21949D01*
X87628Y-22036D01*
X87618Y-22127D01*
X87625Y-22219D01*
X87649Y-22307D01*
X87691Y-22389D01*
X87701Y-22405D01*
X87778Y-22432D01*
X88073Y-22137D01*
X88073Y-22165D01*
X87792Y-22446D01*
X87819Y-22523D01*
X87899Y-22567D01*
X87986Y-22596D01*
X88077Y-22606D01*
X88169Y-22599D01*
X88257Y-22575D01*
X88339Y-22533D01*
X88355Y-22523D01*
X88382Y-22446D01*
X88382Y-22773D01*
X88310Y-22724D01*
X88226Y-22688D01*
X88136Y-22670D01*
X88044Y-22669D01*
X87954Y-22687D01*
X87869Y-22721D01*
X87793Y-22771D01*
X87727Y-22835D01*
X87676Y-22911D01*
X87639Y-22995D01*
X87620Y-23085D01*
X87619Y-23176D01*
X87630Y-23237D01*
X87508Y-23341D01*
X87533Y-23285D01*
X87553Y-23196D01*
X87554Y-23091D01*
X87537Y-23001D01*
X87502Y-22917D01*
X87451Y-22840D01*
X87386Y-22775D01*
X87310Y-22724D01*
X87226Y-22688D01*
X87136Y-22670D01*
X87044Y-22669D01*
X86954Y-22687D01*
X86937Y-22694D01*
X87009Y-22598D01*
X87031Y-22603D01*
X87123Y-22605D01*
X87213Y-22589D01*
X87299Y-22556D01*
X87376Y-22507D01*
X87442Y-22444D01*
X87495Y-22369D01*
X87533Y-22285D01*
X87553Y-22196D01*
X87554Y-22091D01*
X87537Y-22001D01*
X87502Y-21917D01*
X87451Y-21840D01*
X87386Y-21775D01*
X87310Y-21724D01*
X87226Y-21688D01*
X87136Y-21670D01*
X87044Y-21669D01*
X86954Y-21687D01*
X86869Y-21721D01*
X86793Y-21771D01*
X86727Y-21835D01*
X86676Y-21911D01*
X86639Y-21995D01*
X86620Y-22085D01*
X86619Y-22176D01*
X86636Y-22266D01*
X86663Y-22335D01*
X86504Y-22544D01*
X86504Y-21164D01*
X86528Y-21191D01*
X86542Y-21205D01*
X86556Y-21218D01*
X86558Y-21220D01*
X86635Y-21280D01*
X86652Y-21291D01*
X86668Y-21302D01*
X86671Y-21303D01*
X86671Y-21303D01*
X86671Y-21303D01*
X86671Y-21303D01*
X86758Y-21347D01*
X86777Y-21354D01*
X86795Y-21362D01*
X86798Y-21362D01*
X86798Y-21362D01*
X86892Y-21389D01*
X86911Y-21392D01*
X86930Y-21396D01*
X86934Y-21396D01*
X86934Y-21396D01*
X87031Y-21404D01*
X87051Y-21403D01*
X87070Y-21403D01*
X87073Y-21403D01*
X87073Y-21403D01*
X87170Y-21391D01*
X87189Y-21387D01*
X87209Y-21383D01*
X87212Y-21382D01*
X87304Y-21352D01*
X87322Y-21344D01*
X87341Y-21336D01*
X87343Y-21335D01*
X87343Y-21335D01*
X87428Y-21287D01*
X87445Y-21276D01*
X87461Y-21265D01*
X87463Y-21263D01*
X87463Y-21263D01*
X87463Y-21263D01*
X87463Y-21263D01*
X87538Y-21200D01*
X87551Y-21186D01*
X87565Y-21172D01*
X87567Y-21169D01*
X87628Y-21093D01*
X87638Y-21076D01*
X87649Y-21060D01*
X87651Y-21057D01*
X87651Y-21057D01*
X87695Y-20970D01*
X87702Y-20952D01*
X87710Y-20934D01*
X87711Y-20931D01*
X87738Y-20837D01*
X87741Y-20818D01*
X87745Y-20798D01*
X87745Y-20795D01*
X87745Y-20795D01*
X87754Y-20698D01*
X87753Y-20678D01*
X87753Y-20659D01*
X87753Y-20656D01*
X87753Y-20656D01*
X87742Y-20559D01*
X87738Y-20540D01*
X87734Y-20520D01*
X87733Y-20517D01*
X87704Y-20424D01*
X87696Y-20406D01*
X87688Y-20388D01*
X87687Y-20385D01*
X87687Y-20385D01*
X87640Y-20300D01*
X87629Y-20284D01*
X87618Y-20267D01*
X87616Y-20265D01*
X87616Y-20265D01*
X87553Y-20190D01*
X87539Y-20176D01*
X87525Y-20162D01*
X87523Y-20160D01*
X87515Y-20154D01*
X96559Y-20154D01*
X96544Y-20167D01*
X96530Y-20181D01*
X96516Y-20195D01*
X96514Y-20197D01*
X96452Y-20273D01*
X96441Y-20289D01*
X96430Y-20306D01*
X96429Y-20308D01*
X96383Y-20394D01*
X96375Y-20413D01*
X96368Y-20431D01*
X96367Y-20434D01*
X96338Y-20527D01*
X96335Y-20546D01*
X96331Y-20566D01*
X96330Y-20569D01*
X96321Y-20666D01*
X96321Y-20676D01*
X96320Y-20687D01*
X96320Y-20690D01*
X96320Y-20704D01*
X96321Y-20715D01*
X96321Y-20725D01*
X96322Y-20728D01*
X96334Y-20825D01*
X96338Y-20844D01*
X96342Y-20863D01*
X96343Y-20866D01*
X96374Y-20959D01*
X96382Y-20977D01*
X96390Y-20995D01*
X96391Y-20998D01*
X96439Y-21083D01*
X96451Y-21099D01*
X96462Y-21115D01*
X96464Y-21117D01*
X96464Y-21117D01*
X96464Y-21117D01*
X96464Y-21117D01*
X96528Y-21191D01*
X96542Y-21205D01*
X96556Y-21218D01*
X96558Y-21220D01*
X96635Y-21280D01*
X96652Y-21291D01*
X96668Y-21302D01*
X96671Y-21303D01*
X96671Y-21303D01*
X96671Y-21303D01*
X96671Y-21303D01*
X96758Y-21347D01*
X96777Y-21354D01*
X96795Y-21362D01*
X96798Y-21362D01*
X96798Y-21362D01*
X96892Y-21389D01*
X96911Y-21392D01*
X96930Y-21396D01*
X96934Y-21396D01*
X96934Y-21396D01*
X97031Y-21404D01*
X97051Y-21403D01*
X97070Y-21403D01*
X97073Y-21403D01*
X97073Y-21403D01*
X97170Y-21391D01*
X97189Y-21387D01*
X97209Y-21383D01*
X97212Y-21382D01*
X97304Y-21352D01*
X97322Y-21344D01*
X97341Y-21336D01*
X97343Y-21335D01*
X97343Y-21335D01*
X97428Y-21287D01*
X97445Y-21276D01*
X97461Y-21265D01*
X97463Y-21263D01*
X97463Y-21263D01*
X97463Y-21263D01*
X97463Y-21263D01*
X97538Y-21200D01*
X97551Y-21186D01*
X97565Y-21172D01*
X97567Y-21169D01*
X97628Y-21093D01*
X97638Y-21076D01*
X97649Y-21060D01*
X97651Y-21057D01*
X97651Y-21057D01*
X97695Y-20970D01*
X97702Y-20952D01*
X97710Y-20934D01*
X97711Y-20931D01*
X97738Y-20837D01*
X97741Y-20818D01*
X97745Y-20798D01*
X97745Y-20795D01*
X97745Y-20795D01*
X97754Y-20698D01*
X97753Y-20678D01*
X97753Y-20659D01*
X97753Y-20656D01*
X97753Y-20656D01*
X97742Y-20559D01*
X97738Y-20540D01*
X97734Y-20520D01*
X97733Y-20517D01*
X97704Y-20424D01*
X97696Y-20406D01*
X97688Y-20388D01*
X97687Y-20385D01*
X97687Y-20385D01*
X97640Y-20300D01*
X97629Y-20284D01*
X97618Y-20267D01*
X97616Y-20265D01*
X97616Y-20265D01*
X97553Y-20190D01*
X97539Y-20176D01*
X97525Y-20162D01*
X97523Y-20160D01*
X97515Y-20154D01*
X98320Y-20154D01*
X98320Y-24347D01*
X98320Y-24347D01*
G37*
G54D20*
X98320Y-24347D02*
X98004Y-24334D01*
X98004Y-22962D01*
X98002Y-22942D01*
X98001Y-22922D01*
X98000Y-22921D01*
X98000Y-22920D01*
X97994Y-22901D01*
X97989Y-22881D01*
X97988Y-22880D01*
X97988Y-22879D01*
X97978Y-22861D01*
X97969Y-22844D01*
X97969Y-22843D01*
X97968Y-22842D01*
X97955Y-22826D01*
X97943Y-22810D01*
X97941Y-22809D01*
X97941Y-22809D01*
X97941Y-22809D01*
X97941Y-22808D01*
X97666Y-22533D01*
X97650Y-22521D01*
X97635Y-22508D01*
X97634Y-22507D01*
X97633Y-22506D01*
X97615Y-22497D01*
X97598Y-22487D01*
X97597Y-22487D01*
X97596Y-22486D01*
X97576Y-22480D01*
X97557Y-22474D01*
X97556Y-22474D01*
X97555Y-22474D01*
X97535Y-22472D01*
X97515Y-22470D01*
X97513Y-22470D01*
X97513Y-22470D01*
X97513Y-22470D01*
X97512Y-22470D01*
X97404Y-22470D01*
X97404Y-22396D01*
X97398Y-22363D01*
X97385Y-22333D01*
X97367Y-22306D01*
X97344Y-22282D01*
X97317Y-22264D01*
X97287Y-22251D01*
X97255Y-22245D01*
X97222Y-22245D01*
X96871Y-22245D01*
X96838Y-22251D01*
X96808Y-22264D01*
X96781Y-22282D01*
X96757Y-22305D01*
X96739Y-22332D01*
X96726Y-22362D01*
X96720Y-22394D01*
X96720Y-22427D01*
X96720Y-22722D01*
X96654Y-22787D01*
X96654Y-22396D01*
X96648Y-22363D01*
X96635Y-22333D01*
X96617Y-22306D01*
X96594Y-22282D01*
X96567Y-22264D01*
X96537Y-22251D01*
X96505Y-22245D01*
X96472Y-22245D01*
X96121Y-22245D01*
X96088Y-22251D01*
X96058Y-22264D01*
X96031Y-22282D01*
X96018Y-22294D01*
X96018Y-21558D01*
X96018Y-20998D01*
X96018Y-20965D01*
X96011Y-20933D01*
X95998Y-20903D01*
X95980Y-20876D01*
X95957Y-20853D01*
X95929Y-20835D01*
X95899Y-20822D01*
X95867Y-20816D01*
X95814Y-20816D01*
X95772Y-20858D01*
X95772Y-21268D01*
X95976Y-21268D01*
X96018Y-21226D01*
X96018Y-20998D01*
X96018Y-21558D01*
X96018Y-21330D01*
X95976Y-21288D01*
X95772Y-21288D01*
X95772Y-21698D01*
X95814Y-21740D01*
X95867Y-21740D01*
X95899Y-21734D01*
X95929Y-21721D01*
X95957Y-21703D01*
X95980Y-21680D01*
X95998Y-21653D01*
X96011Y-21623D01*
X96018Y-21591D01*
X96018Y-21558D01*
X96018Y-22294D01*
X96007Y-22305D01*
X95989Y-22332D01*
X95976Y-22362D01*
X95970Y-22394D01*
X95970Y-22427D01*
X95970Y-22470D01*
X95637Y-22470D01*
X95617Y-22472D01*
X95597Y-22473D01*
X95596Y-22474D01*
X95595Y-22474D01*
X95576Y-22480D01*
X95556Y-22485D01*
X95555Y-22486D01*
X95554Y-22486D01*
X95536Y-22496D01*
X95519Y-22505D01*
X95518Y-22505D01*
X95517Y-22506D01*
X95501Y-22519D01*
X95485Y-22531D01*
X95484Y-22533D01*
X95484Y-22533D01*
X95484Y-22533D01*
X95483Y-22533D01*
X95454Y-22563D01*
X95453Y-22561D01*
X95444Y-22544D01*
X95444Y-22543D01*
X95443Y-22542D01*
X95430Y-22526D01*
X95418Y-22510D01*
X95416Y-22509D01*
X95416Y-22509D01*
X95416Y-22509D01*
X95416Y-22508D01*
X95366Y-22458D01*
X95350Y-22446D01*
X95335Y-22433D01*
X95334Y-22432D01*
X95333Y-22431D01*
X95315Y-22422D01*
X95298Y-22412D01*
X95297Y-22412D01*
X95296Y-22411D01*
X95276Y-22405D01*
X95257Y-22399D01*
X95256Y-22399D01*
X95255Y-22399D01*
X95235Y-22397D01*
X95215Y-22395D01*
X95213Y-22395D01*
X95213Y-22395D01*
X95213Y-22395D01*
X95212Y-22395D01*
X94002Y-22395D01*
X94002Y-21698D01*
X94002Y-21288D01*
X93798Y-21288D01*
X93756Y-21330D01*
X93756Y-21370D01*
X93747Y-21370D01*
X93539Y-21370D01*
X93497Y-21412D01*
X93497Y-21702D01*
X93505Y-21702D01*
X93505Y-21722D01*
X93497Y-21722D01*
X93497Y-22012D01*
X93539Y-22054D01*
X93747Y-22054D01*
X93780Y-22054D01*
X93812Y-22048D01*
X93842Y-22035D01*
X93869Y-22017D01*
X93892Y-21993D01*
X93910Y-21966D01*
X93923Y-21936D01*
X93929Y-21903D01*
X93929Y-21764D01*
X93906Y-21740D01*
X93907Y-21740D01*
X93960Y-21740D01*
X94002Y-21698D01*
X94002Y-22395D01*
X93929Y-22395D01*
X93929Y-22271D01*
X93923Y-22238D01*
X93910Y-22208D01*
X93892Y-22181D01*
X93869Y-22157D01*
X93842Y-22139D01*
X93812Y-22126D01*
X93780Y-22120D01*
X93747Y-22120D01*
X93208Y-22120D01*
X93210Y-22117D01*
X93223Y-22087D01*
X93229Y-22055D01*
X93229Y-22054D01*
X93435Y-22054D01*
X93477Y-22012D01*
X93477Y-21722D01*
X93469Y-21722D01*
X93469Y-21702D01*
X93477Y-21702D01*
X93477Y-21412D01*
X93435Y-21370D01*
X93227Y-21370D01*
X93194Y-21370D01*
X93162Y-21376D01*
X93132Y-21389D01*
X93105Y-21407D01*
X93082Y-21431D01*
X93064Y-21458D01*
X93051Y-21488D01*
X93045Y-21520D01*
X93004Y-21520D01*
X93004Y-21177D01*
X93177Y-21004D01*
X93756Y-21004D01*
X93756Y-21226D01*
X93798Y-21268D01*
X94002Y-21268D01*
X94002Y-21260D01*
X94006Y-21260D01*
X94006Y-21589D01*
X94013Y-21622D01*
X94022Y-21644D01*
X94022Y-21698D01*
X94064Y-21740D01*
X94117Y-21740D01*
X94137Y-21736D01*
X94156Y-21740D01*
X94189Y-21740D01*
X94367Y-21740D01*
X94387Y-21736D01*
X94407Y-21740D01*
X94460Y-21740D01*
X94502Y-21698D01*
X94502Y-21644D01*
X94511Y-21623D01*
X94512Y-21619D01*
X94513Y-21622D01*
X94522Y-21644D01*
X94522Y-21698D01*
X94564Y-21740D01*
X94617Y-21740D01*
X94637Y-21736D01*
X94656Y-21740D01*
X94689Y-21740D01*
X94867Y-21740D01*
X94887Y-21736D01*
X94906Y-21740D01*
X94939Y-21740D01*
X95117Y-21740D01*
X95137Y-21736D01*
X95157Y-21740D01*
X95210Y-21740D01*
X95252Y-21698D01*
X95252Y-21644D01*
X95261Y-21623D01*
X95262Y-21619D01*
X95263Y-21622D01*
X95272Y-21644D01*
X95272Y-21698D01*
X95314Y-21740D01*
X95367Y-21740D01*
X95387Y-21736D01*
X95406Y-21740D01*
X95439Y-21740D01*
X95617Y-21740D01*
X95637Y-21736D01*
X95657Y-21740D01*
X95710Y-21740D01*
X95752Y-21698D01*
X95752Y-21644D01*
X95761Y-21623D01*
X95768Y-21591D01*
X95768Y-21558D01*
X95768Y-20967D01*
X95761Y-20934D01*
X95752Y-20912D01*
X95752Y-20858D01*
X95710Y-20816D01*
X95657Y-20816D01*
X95637Y-20820D01*
X95618Y-20816D01*
X95585Y-20816D01*
X95407Y-20816D01*
X95387Y-20820D01*
X95367Y-20816D01*
X95314Y-20816D01*
X95272Y-20858D01*
X95272Y-20912D01*
X95263Y-20933D01*
X95262Y-20937D01*
X95261Y-20934D01*
X95252Y-20912D01*
X95252Y-20858D01*
X95229Y-20835D01*
X95229Y-20812D01*
X95227Y-20792D01*
X95226Y-20772D01*
X95225Y-20771D01*
X95225Y-20770D01*
X95219Y-20751D01*
X95214Y-20731D01*
X95213Y-20730D01*
X95213Y-20729D01*
X95203Y-20711D01*
X95194Y-20694D01*
X95194Y-20693D01*
X95193Y-20692D01*
X95180Y-20676D01*
X95168Y-20660D01*
X95166Y-20659D01*
X95166Y-20659D01*
X95166Y-20659D01*
X95166Y-20658D01*
X94941Y-20433D01*
X94925Y-20421D01*
X94910Y-20408D01*
X94909Y-20407D01*
X94908Y-20406D01*
X94890Y-20397D01*
X94873Y-20387D01*
X94872Y-20387D01*
X94871Y-20386D01*
X94851Y-20380D01*
X94832Y-20374D01*
X94831Y-20374D01*
X94830Y-20374D01*
X94810Y-20372D01*
X94790Y-20370D01*
X94788Y-20370D01*
X94788Y-20370D01*
X94788Y-20370D01*
X94787Y-20370D01*
X92907Y-20370D01*
X92903Y-20370D01*
X92903Y-20370D01*
X92899Y-20370D01*
X92865Y-20374D01*
X92861Y-20375D01*
X92861Y-20375D01*
X92859Y-20376D01*
X92824Y-20386D01*
X92821Y-20388D01*
X92821Y-20388D01*
X92819Y-20389D01*
X92787Y-20406D01*
X92784Y-20409D01*
X92783Y-20409D01*
X92781Y-20410D01*
X92479Y-20626D01*
X92479Y-20321D01*
X92473Y-20288D01*
X92460Y-20258D01*
X92442Y-20231D01*
X92419Y-20207D01*
X92392Y-20189D01*
X92362Y-20176D01*
X92330Y-20170D01*
X92297Y-20170D01*
X92089Y-20170D01*
X92047Y-20212D01*
X92047Y-20502D01*
X92437Y-20502D01*
X92479Y-20460D01*
X92479Y-20321D01*
X92479Y-20626D01*
X92479Y-20626D01*
X92479Y-20564D01*
X92437Y-20522D01*
X92047Y-20522D01*
X92047Y-20530D01*
X92027Y-20530D01*
X92027Y-20522D01*
X92027Y-20502D01*
X92027Y-20212D01*
X91985Y-20170D01*
X91777Y-20170D01*
X91744Y-20170D01*
X91712Y-20176D01*
X91682Y-20189D01*
X91655Y-20207D01*
X91632Y-20231D01*
X91614Y-20258D01*
X91601Y-20288D01*
X91595Y-20321D01*
X91595Y-20460D01*
X91637Y-20502D01*
X92027Y-20502D01*
X92027Y-20522D01*
X91637Y-20522D01*
X91595Y-20564D01*
X91595Y-20670D01*
X91492Y-20670D01*
X91492Y-20659D01*
X91492Y-20308D01*
X91485Y-20276D01*
X91473Y-20246D01*
X91455Y-20218D01*
X91432Y-20195D01*
X91404Y-20177D01*
X91374Y-20164D01*
X91342Y-20157D01*
X91309Y-20157D01*
X90758Y-20157D01*
X90726Y-20164D01*
X90696Y-20176D01*
X90668Y-20194D01*
X90645Y-20217D01*
X90627Y-20245D01*
X90616Y-20270D01*
X90128Y-20421D01*
X90118Y-20420D01*
X90075Y-20423D01*
X90034Y-20434D01*
X89997Y-20453D01*
X89963Y-20479D01*
X89935Y-20511D01*
X89914Y-20548D01*
X89901Y-20588D01*
X89895Y-20630D01*
X89895Y-20633D01*
X89876Y-21718D01*
X89869Y-21721D01*
X89793Y-21771D01*
X89727Y-21835D01*
X89676Y-21911D01*
X89639Y-21995D01*
X89620Y-22085D01*
X89619Y-22176D01*
X89626Y-22216D01*
X89553Y-22170D01*
X89554Y-22091D01*
X89537Y-22001D01*
X89502Y-21917D01*
X89451Y-21840D01*
X89386Y-21775D01*
X89310Y-21724D01*
X89226Y-21688D01*
X89136Y-21670D01*
X89044Y-21669D01*
X88954Y-21687D01*
X88869Y-21721D01*
X88793Y-21771D01*
X88727Y-21835D01*
X88676Y-21911D01*
X88639Y-21995D01*
X88620Y-22085D01*
X88619Y-22176D01*
X88636Y-22266D01*
X88669Y-22352D01*
X88719Y-22429D01*
X88783Y-22495D01*
X88858Y-22547D01*
X88942Y-22584D01*
X89031Y-22603D01*
X89123Y-22605D01*
X89213Y-22589D01*
X89299Y-22556D01*
X89324Y-22540D01*
X89395Y-22583D01*
X89395Y-22784D01*
X89386Y-22775D01*
X89310Y-22724D01*
X89226Y-22688D01*
X89136Y-22670D01*
X89044Y-22669D01*
X88954Y-22687D01*
X88869Y-22721D01*
X88793Y-22771D01*
X88727Y-22835D01*
X88676Y-22911D01*
X88639Y-22995D01*
X88620Y-23085D01*
X88619Y-23176D01*
X88636Y-23266D01*
X88669Y-23352D01*
X88719Y-23429D01*
X88783Y-23495D01*
X88858Y-23547D01*
X88942Y-23584D01*
X89029Y-23603D01*
X89031Y-23679D01*
X89008Y-23689D01*
X88981Y-23707D01*
X88957Y-23730D01*
X88939Y-23757D01*
X88926Y-23787D01*
X88920Y-23819D01*
X88920Y-23852D01*
X88920Y-24403D01*
X88926Y-24436D01*
X88939Y-24466D01*
X88944Y-24474D01*
X88939Y-24482D01*
X88926Y-24512D01*
X88920Y-24544D01*
X88920Y-24577D01*
X88920Y-25128D01*
X88926Y-25161D01*
X88937Y-25188D01*
X88860Y-25188D01*
X88851Y-25189D01*
X88836Y-25189D01*
X88848Y-25162D01*
X88854Y-25130D01*
X88854Y-25097D01*
X88854Y-24546D01*
X88848Y-24513D01*
X88835Y-24483D01*
X88830Y-24475D01*
X88835Y-24467D01*
X88848Y-24437D01*
X88854Y-24405D01*
X88854Y-24372D01*
X88854Y-23852D01*
X88854Y-23819D01*
X88848Y-23787D01*
X88835Y-23757D01*
X88817Y-23730D01*
X88793Y-23707D01*
X88766Y-23689D01*
X88736Y-23676D01*
X88703Y-23670D01*
X88564Y-23670D01*
X88556Y-23677D01*
X88556Y-22147D01*
X88549Y-22055D01*
X88525Y-21967D01*
X88483Y-21885D01*
X88473Y-21869D01*
X88396Y-21842D01*
X88382Y-21855D01*
X88382Y-21828D01*
X88355Y-21751D01*
X88275Y-21707D01*
X88188Y-21678D01*
X88097Y-21668D01*
X88005Y-21675D01*
X87917Y-21699D01*
X87835Y-21741D01*
X87819Y-21751D01*
X87792Y-21828D01*
X88087Y-22123D01*
X88382Y-21828D01*
X88382Y-21855D01*
X88101Y-22137D01*
X88396Y-22432D01*
X88473Y-22405D01*
X88517Y-22325D01*
X88546Y-22238D01*
X88556Y-22147D01*
X88556Y-23677D01*
X88522Y-23712D01*
X88522Y-24102D01*
X88812Y-24102D01*
X88854Y-24060D01*
X88854Y-23852D01*
X88854Y-24372D01*
X88854Y-24164D01*
X88812Y-24122D01*
X88522Y-24122D01*
X88522Y-24130D01*
X88502Y-24130D01*
X88502Y-24122D01*
X88502Y-24102D01*
X88502Y-23712D01*
X88460Y-23670D01*
X88321Y-23670D01*
X88288Y-23676D01*
X88258Y-23689D01*
X88231Y-23707D01*
X88207Y-23730D01*
X88200Y-23742D01*
X88192Y-23730D01*
X88168Y-23707D01*
X88141Y-23689D01*
X88111Y-23676D01*
X88078Y-23670D01*
X87939Y-23670D01*
X87897Y-23712D01*
X87897Y-24102D01*
X88187Y-24102D01*
X88200Y-24090D01*
X88212Y-24102D01*
X88502Y-24102D01*
X88502Y-24122D01*
X88212Y-24122D01*
X88200Y-24134D01*
X88187Y-24122D01*
X87897Y-24122D01*
X87897Y-24130D01*
X87877Y-24130D01*
X87877Y-24122D01*
X87587Y-24122D01*
X87545Y-24164D01*
X87545Y-24372D01*
X87545Y-24405D01*
X87551Y-24437D01*
X87564Y-24467D01*
X87569Y-24475D01*
X87564Y-24482D01*
X87551Y-24512D01*
X87545Y-24544D01*
X87545Y-24577D01*
X87545Y-24899D01*
X87524Y-24928D01*
X87506Y-24967D01*
X87497Y-25008D01*
X87495Y-25051D01*
X87502Y-25093D01*
X87517Y-25132D01*
X87539Y-25168D01*
X87558Y-25189D01*
X87461Y-25189D01*
X87473Y-25162D01*
X87479Y-25130D01*
X87479Y-25097D01*
X87479Y-24546D01*
X87473Y-24513D01*
X87460Y-24483D01*
X87455Y-24475D01*
X87460Y-24467D01*
X87473Y-24437D01*
X87479Y-24405D01*
X87479Y-24372D01*
X87479Y-23933D01*
X87545Y-23878D01*
X87545Y-24060D01*
X87587Y-24102D01*
X87877Y-24102D01*
X87877Y-23712D01*
X87835Y-23670D01*
X87792Y-23670D01*
X87910Y-23570D01*
X87942Y-23584D01*
X88031Y-23603D01*
X88123Y-23605D01*
X88213Y-23589D01*
X88299Y-23556D01*
X88376Y-23507D01*
X88442Y-23444D01*
X88495Y-23369D01*
X88533Y-23285D01*
X88553Y-23196D01*
X88554Y-23091D01*
X88537Y-23001D01*
X88502Y-22917D01*
X88451Y-22840D01*
X88386Y-22775D01*
X88382Y-22773D01*
X88382Y-22446D01*
X88087Y-22151D01*
X88073Y-22165D01*
X88073Y-22137D01*
X87778Y-21842D01*
X87701Y-21869D01*
X87657Y-21949D01*
X87628Y-22036D01*
X87618Y-22127D01*
X87625Y-22219D01*
X87649Y-22307D01*
X87691Y-22389D01*
X87701Y-22405D01*
X87778Y-22432D01*
X88073Y-22137D01*
X88073Y-22165D01*
X87792Y-22446D01*
X87819Y-22523D01*
X87899Y-22567D01*
X87986Y-22596D01*
X88077Y-22606D01*
X88169Y-22599D01*
X88257Y-22575D01*
X88339Y-22533D01*
X88355Y-22523D01*
X88382Y-22446D01*
X88382Y-22773D01*
X88310Y-22724D01*
X88226Y-22688D01*
X88136Y-22670D01*
X88044Y-22669D01*
X87954Y-22687D01*
X87869Y-22721D01*
X87793Y-22771D01*
X87727Y-22835D01*
X87676Y-22911D01*
X87639Y-22995D01*
X87620Y-23085D01*
X87619Y-23176D01*
X87630Y-23237D01*
X87508Y-23341D01*
X87533Y-23285D01*
X87553Y-23196D01*
X87554Y-23091D01*
X87537Y-23001D01*
X87502Y-22917D01*
X87451Y-22840D01*
X87386Y-22775D01*
X87310Y-22724D01*
X87226Y-22688D01*
X87136Y-22670D01*
X87044Y-22669D01*
X86954Y-22687D01*
X86937Y-22694D01*
X87009Y-22598D01*
X87031Y-22603D01*
X87123Y-22605D01*
X87213Y-22589D01*
X87299Y-22556D01*
X87376Y-22507D01*
X87442Y-22444D01*
X87495Y-22369D01*
X87533Y-22285D01*
X87553Y-22196D01*
X87554Y-22091D01*
X87537Y-22001D01*
X87502Y-21917D01*
X87451Y-21840D01*
X87386Y-21775D01*
X87310Y-21724D01*
X87226Y-21688D01*
X87136Y-21670D01*
X87044Y-21669D01*
X86954Y-21687D01*
X86869Y-21721D01*
X86793Y-21771D01*
X86727Y-21835D01*
X86676Y-21911D01*
X86639Y-21995D01*
X86620Y-22085D01*
X86619Y-22176D01*
X86636Y-22266D01*
X86663Y-22335D01*
X86504Y-22544D01*
X86504Y-21164D01*
X86528Y-21191D01*
X86542Y-21205D01*
X86556Y-21218D01*
X86558Y-21220D01*
X86635Y-21280D01*
X86652Y-21291D01*
X86668Y-21302D01*
X86671Y-21303D01*
X86671Y-21303D01*
X86671Y-21303D01*
X86671Y-21303D01*
X86758Y-21347D01*
X86777Y-21354D01*
X86795Y-21362D01*
X86798Y-21362D01*
X86798Y-21362D01*
X86892Y-21389D01*
X86911Y-21392D01*
X86930Y-21396D01*
X86934Y-21396D01*
X86934Y-21396D01*
X87031Y-21404D01*
X87051Y-21403D01*
X87070Y-21403D01*
X87073Y-21403D01*
X87073Y-21403D01*
X87170Y-21391D01*
X87189Y-21387D01*
X87209Y-21383D01*
X87212Y-21382D01*
X87304Y-21352D01*
X87322Y-21344D01*
X87341Y-21336D01*
X87343Y-21335D01*
X87343Y-21335D01*
X87428Y-21287D01*
X87445Y-21276D01*
X87461Y-21265D01*
X87463Y-21263D01*
X87463Y-21263D01*
X87463Y-21263D01*
X87463Y-21263D01*
X87538Y-21200D01*
X87551Y-21186D01*
X87565Y-21172D01*
X87567Y-21169D01*
X87628Y-21093D01*
X87638Y-21076D01*
X87649Y-21060D01*
X87651Y-21057D01*
X87651Y-21057D01*
X87695Y-20970D01*
X87702Y-20952D01*
X87710Y-20934D01*
X87711Y-20931D01*
X87738Y-20837D01*
X87741Y-20818D01*
X87745Y-20798D01*
X87745Y-20795D01*
X87745Y-20795D01*
X87754Y-20698D01*
X87753Y-20678D01*
X87753Y-20659D01*
X87753Y-20656D01*
X87753Y-20656D01*
X87742Y-20559D01*
X87738Y-20540D01*
X87734Y-20520D01*
X87733Y-20517D01*
X87704Y-20424D01*
X87696Y-20406D01*
X87688Y-20388D01*
X87687Y-20385D01*
X87687Y-20385D01*
X87640Y-20300D01*
X87629Y-20284D01*
X87618Y-20267D01*
X87616Y-20265D01*
X87616Y-20265D01*
X87553Y-20190D01*
X87539Y-20176D01*
X87525Y-20162D01*
X87523Y-20160D01*
X87515Y-20154D01*
X96559Y-20154D01*
X96544Y-20167D01*
X96530Y-20181D01*
X96516Y-20195D01*
X96514Y-20197D01*
X96452Y-20273D01*
X96441Y-20289D01*
X96430Y-20306D01*
X96429Y-20308D01*
X96383Y-20394D01*
X96375Y-20413D01*
X96368Y-20431D01*
X96367Y-20434D01*
X96338Y-20527D01*
X96335Y-20546D01*
X96331Y-20566D01*
X96330Y-20569D01*
X96321Y-20666D01*
X96321Y-20676D01*
X96320Y-20687D01*
X96320Y-20690D01*
X96320Y-20704D01*
X96321Y-20715D01*
X96321Y-20725D01*
X96322Y-20728D01*
X96334Y-20825D01*
X96338Y-20844D01*
X96342Y-20863D01*
X96343Y-20866D01*
X96374Y-20959D01*
X96382Y-20977D01*
X96390Y-20995D01*
X96391Y-20998D01*
X96439Y-21083D01*
X96451Y-21099D01*
X96462Y-21115D01*
X96464Y-21117D01*
X96464Y-21117D01*
X96464Y-21117D01*
X96464Y-21117D01*
X96528Y-21191D01*
X96542Y-21205D01*
X96556Y-21218D01*
X96558Y-21220D01*
X96635Y-21280D01*
X96652Y-21291D01*
X96668Y-21302D01*
X96671Y-21303D01*
X96671Y-21303D01*
X96671Y-21303D01*
X96671Y-21303D01*
X96758Y-21347D01*
X96777Y-21354D01*
X96795Y-21362D01*
X96798Y-21362D01*
X96798Y-21362D01*
X96892Y-21389D01*
X96911Y-21392D01*
X96930Y-21396D01*
X96934Y-21396D01*
X96934Y-21396D01*
X97031Y-21404D01*
X97051Y-21403D01*
X97070Y-21403D01*
X97073Y-21403D01*
X97073Y-21403D01*
X97170Y-21391D01*
X97189Y-21387D01*
X97209Y-21383D01*
X97212Y-21382D01*
X97304Y-21352D01*
X97322Y-21344D01*
X97341Y-21336D01*
X97343Y-21335D01*
X97343Y-21335D01*
X97428Y-21287D01*
X97445Y-21276D01*
X97461Y-21265D01*
X97463Y-21263D01*
X97463Y-21263D01*
X97463Y-21263D01*
X97463Y-21263D01*
X97538Y-21200D01*
X97551Y-21186D01*
X97565Y-21172D01*
X97567Y-21169D01*
X97628Y-21093D01*
X97638Y-21076D01*
X97649Y-21060D01*
X97651Y-21057D01*
X97651Y-21057D01*
X97695Y-20970D01*
X97702Y-20952D01*
X97710Y-20934D01*
X97711Y-20931D01*
X97738Y-20837D01*
X97741Y-20818D01*
X97745Y-20798D01*
X97745Y-20795D01*
X97745Y-20795D01*
X97754Y-20698D01*
X97753Y-20678D01*
X97753Y-20659D01*
X97753Y-20656D01*
X97753Y-20656D01*
X97742Y-20559D01*
X97738Y-20540D01*
X97734Y-20520D01*
X97733Y-20517D01*
X97704Y-20424D01*
X97696Y-20406D01*
X97688Y-20388D01*
X97687Y-20385D01*
X97687Y-20385D01*
X97640Y-20300D01*
X97629Y-20284D01*
X97618Y-20267D01*
X97616Y-20265D01*
X97616Y-20265D01*
X97553Y-20190D01*
X97539Y-20176D01*
X97525Y-20162D01*
X97523Y-20160D01*
X97515Y-20154D01*
X98320Y-20154D01*
X98320Y-24347D01*
M02*
