G04 #@! TF.FileFunction,Legend,Top*
%FSLAX46Y46*%
G04 Gerber Fmt 4.6, Leading zero omitted, Abs format (unit mm)*
G04 Created by KiCad (PCBNEW (2015-07-02 BZR 5871, Git 766da1e)-product) date 7/17/2015 2:49:37 PM*
%MOMM*%
G01*
G04 APERTURE LIST*
%ADD10C,0.100000*%
%ADD11C,0.300000*%
%ADD12C,0.150000*%
%ADD13C,0.062500*%
G04 APERTURE END LIST*
D10*
D11*
X164469071Y-116435000D02*
X164469071Y-116149286D01*
X164540500Y-116006428D01*
X164683357Y-115863571D01*
X164969071Y-115792143D01*
X165469071Y-115792143D01*
X165754786Y-115863571D01*
X165897643Y-116006428D01*
X165969071Y-116149286D01*
X165969071Y-116435000D01*
X165897643Y-116577857D01*
X165754786Y-116720714D01*
X165469071Y-116792143D01*
X164969071Y-116792143D01*
X164683357Y-116720714D01*
X164540500Y-116577857D01*
X164469071Y-116435000D01*
X164469071Y-115149285D02*
X165683357Y-115149285D01*
X165826214Y-115077857D01*
X165897643Y-115006428D01*
X165969071Y-114863571D01*
X165969071Y-114577857D01*
X165897643Y-114434999D01*
X165826214Y-114363571D01*
X165683357Y-114292142D01*
X164469071Y-114292142D01*
X164469071Y-113792142D02*
X164469071Y-112934999D01*
X165969071Y-113363570D02*
X164469071Y-113363570D01*
X157396571Y-115863571D02*
X157396571Y-116720714D01*
X157396571Y-116292142D02*
X155896571Y-116292142D01*
X156110857Y-116434999D01*
X156253714Y-116577857D01*
X156325143Y-116720714D01*
X156039429Y-115292143D02*
X155968000Y-115220714D01*
X155896571Y-115077857D01*
X155896571Y-114720714D01*
X155968000Y-114577857D01*
X156039429Y-114506428D01*
X156182286Y-114435000D01*
X156325143Y-114435000D01*
X156539429Y-114506428D01*
X157396571Y-115363571D01*
X157396571Y-114435000D01*
X155896571Y-114006429D02*
X157396571Y-113506429D01*
X155896571Y-113006429D01*
D12*
X163235640Y-107739180D02*
X163235640Y-111389180D01*
X163245800Y-111394240D02*
X158245800Y-111394240D01*
X158242000Y-107744260D02*
X158242000Y-111394260D01*
X163243260Y-107744260D02*
X158243260Y-107744260D01*
X161758000Y-103878000D02*
X161758000Y-102878000D01*
X163108000Y-102878000D02*
X163108000Y-103878000D01*
X160107000Y-103878000D02*
X160107000Y-102878000D01*
X161457000Y-102878000D02*
X161457000Y-103878000D01*
X155351000Y-121628500D02*
X155351000Y-120078500D01*
X154051000Y-121628500D02*
X155351000Y-121628500D01*
X149860000Y-120205500D02*
X144018000Y-120205500D01*
X144018000Y-120205500D02*
X144018000Y-119951500D01*
X144018000Y-119951500D02*
X149860000Y-119951500D01*
X149860000Y-119951500D02*
X149860000Y-120078500D01*
X149860000Y-120078500D02*
X144018000Y-120078500D01*
X152527000Y-102552500D02*
X152908000Y-102552500D01*
X152527000Y-102044500D02*
X152908000Y-102044500D01*
X152527000Y-120332500D02*
X152908000Y-120332500D01*
X152527000Y-119824500D02*
X152908000Y-119824500D01*
X152527000Y-117792500D02*
X152908000Y-117792500D01*
X152527000Y-117284500D02*
X152908000Y-117284500D01*
X152527000Y-115252500D02*
X152908000Y-115252500D01*
X152527000Y-114744500D02*
X152908000Y-114744500D01*
X152527000Y-104584500D02*
X152908000Y-104584500D01*
X152527000Y-105092500D02*
X152908000Y-105092500D01*
X152527000Y-107124500D02*
X152908000Y-107124500D01*
X152527000Y-107632500D02*
X152908000Y-107632500D01*
X152527000Y-109664500D02*
X152908000Y-109664500D01*
X152527000Y-110172500D02*
X152908000Y-110172500D01*
X152527000Y-112204500D02*
X152908000Y-112204500D01*
X152527000Y-112712500D02*
X152908000Y-112712500D01*
X152527000Y-106108500D02*
X149987000Y-106108500D01*
X152527000Y-106108500D02*
X152527000Y-103568500D01*
X152527000Y-103568500D02*
X149987000Y-103568500D01*
X149987000Y-105092500D02*
X143891000Y-105092500D01*
X143891000Y-105092500D02*
X143891000Y-104584500D01*
X143891000Y-104584500D02*
X149987000Y-104584500D01*
X149987000Y-103568500D02*
X149987000Y-106108500D01*
X149987000Y-101028500D02*
X149987000Y-103568500D01*
X143891000Y-102044500D02*
X149987000Y-102044500D01*
X143891000Y-102552500D02*
X143891000Y-102044500D01*
X149987000Y-102552500D02*
X143891000Y-102552500D01*
X152527000Y-103568500D02*
X152527000Y-101028500D01*
X152527000Y-103568500D02*
X149987000Y-103568500D01*
X152527000Y-101028500D02*
X149987000Y-101028500D01*
X152527000Y-121348500D02*
X149987000Y-121348500D01*
X152527000Y-118808500D02*
X149987000Y-118808500D01*
X152527000Y-118808500D02*
X152527000Y-116268500D01*
X152527000Y-116268500D02*
X149987000Y-116268500D01*
X149987000Y-117792500D02*
X143891000Y-117792500D01*
X143891000Y-117792500D02*
X143891000Y-117284500D01*
X143891000Y-117284500D02*
X149987000Y-117284500D01*
X149987000Y-116268500D02*
X149987000Y-118808500D01*
X149987000Y-118808500D02*
X149987000Y-121348500D01*
X143891000Y-119824500D02*
X149987000Y-119824500D01*
X143891000Y-120332500D02*
X143891000Y-119824500D01*
X149987000Y-120332500D02*
X143891000Y-120332500D01*
X152527000Y-118808500D02*
X149987000Y-118808500D01*
X152527000Y-121348500D02*
X152527000Y-118808500D01*
X152527000Y-111188500D02*
X149987000Y-111188500D01*
X152527000Y-111188500D02*
X152527000Y-108648500D01*
X152527000Y-108648500D02*
X149987000Y-108648500D01*
X149987000Y-110172500D02*
X143891000Y-110172500D01*
X143891000Y-110172500D02*
X143891000Y-109664500D01*
X143891000Y-109664500D02*
X149987000Y-109664500D01*
X149987000Y-108648500D02*
X149987000Y-111188500D01*
X149987000Y-106108500D02*
X149987000Y-108648500D01*
X143891000Y-107124500D02*
X149987000Y-107124500D01*
X143891000Y-107632500D02*
X143891000Y-107124500D01*
X149987000Y-107632500D02*
X143891000Y-107632500D01*
X152527000Y-106108500D02*
X149987000Y-106108500D01*
X152527000Y-108648500D02*
X152527000Y-106108500D01*
X152527000Y-108648500D02*
X149987000Y-108648500D01*
X152527000Y-113728500D02*
X149987000Y-113728500D01*
X152527000Y-113728500D02*
X152527000Y-111188500D01*
X152527000Y-111188500D02*
X149987000Y-111188500D01*
X149987000Y-112712500D02*
X143891000Y-112712500D01*
X143891000Y-112712500D02*
X143891000Y-112204500D01*
X143891000Y-112204500D02*
X149987000Y-112204500D01*
X149987000Y-111188500D02*
X149987000Y-113728500D01*
X149987000Y-113728500D02*
X149987000Y-116268500D01*
X143891000Y-114744500D02*
X149987000Y-114744500D01*
X143891000Y-115252500D02*
X143891000Y-114744500D01*
X149987000Y-115252500D02*
X143891000Y-115252500D01*
X152527000Y-113728500D02*
X149987000Y-113728500D01*
X152527000Y-116268500D02*
X152527000Y-113728500D01*
X152527000Y-116268500D02*
X149987000Y-116268500D01*
X157075500Y-102878000D02*
X157075500Y-103878000D01*
X155725500Y-103878000D02*
X155725500Y-102878000D01*
X158726500Y-102878000D02*
X158726500Y-103878000D01*
X157376500Y-103878000D02*
X157376500Y-102878000D01*
D10*
X154203400Y-116724900D02*
X153898600Y-116724900D01*
X154203400Y-118352100D02*
X153898600Y-118352100D01*
X153898600Y-116724900D02*
G75*
G03X153898600Y-118352100I0J-813600D01*
G01*
X154203400Y-118352100D02*
G75*
G03X154203400Y-116724900I0J813600D01*
G01*
X154203400Y-114184900D02*
X153898600Y-114184900D01*
X154203400Y-115812100D02*
X153898600Y-115812100D01*
X153898600Y-114184900D02*
G75*
G03X153898600Y-115812100I0J-813600D01*
G01*
X154203400Y-115812100D02*
G75*
G03X154203400Y-114184900I0J813600D01*
G01*
X154203400Y-111644900D02*
X153898600Y-111644900D01*
X154203400Y-113272100D02*
X153898600Y-113272100D01*
X153898600Y-111644900D02*
G75*
G03X153898600Y-113272100I0J-813600D01*
G01*
X154203400Y-113272100D02*
G75*
G03X154203400Y-111644900I0J813600D01*
G01*
X154203400Y-109104900D02*
X153898600Y-109104900D01*
X154203400Y-110732100D02*
X153898600Y-110732100D01*
X153898600Y-109104900D02*
G75*
G03X153898600Y-110732100I0J-813600D01*
G01*
X154203400Y-110732100D02*
G75*
G03X154203400Y-109104900I0J813600D01*
G01*
X154203400Y-106564900D02*
X153898600Y-106564900D01*
X154203400Y-108192100D02*
X153898600Y-108192100D01*
X153898600Y-106564900D02*
G75*
G03X153898600Y-108192100I0J-813600D01*
G01*
X154203400Y-108192100D02*
G75*
G03X154203400Y-106564900I0J813600D01*
G01*
X154203400Y-104024900D02*
X153898600Y-104024900D01*
X154203400Y-105652100D02*
X153898600Y-105652100D01*
X153898600Y-104024900D02*
G75*
G03X153898600Y-105652100I0J-813600D01*
G01*
X154203400Y-105652100D02*
G75*
G03X154203400Y-104024900I0J813600D01*
G01*
X154203400Y-101484900D02*
X153898600Y-101484900D01*
X154203400Y-103112100D02*
X153898600Y-103112100D01*
X153898600Y-101484900D02*
G75*
G03X153898600Y-103112100I0J-813600D01*
G01*
X154203400Y-103112100D02*
G75*
G03X154203400Y-101484900I0J813600D01*
G01*
X164274500Y-120358500D02*
X164274500Y-120358500D01*
X164274500Y-117258500D02*
X164274500Y-117258500D01*
X164274500Y-120358500D02*
G75*
G03X164274500Y-117258500I0J1550000D01*
G01*
X164274500Y-117258500D02*
G75*
G03X164274500Y-120358500I0J-1550000D01*
G01*
D12*
X161583619Y-109569238D02*
X161536000Y-109664476D01*
X161440762Y-109759714D01*
X161297905Y-109902571D01*
X161250286Y-109997810D01*
X161250286Y-110093048D01*
X161488381Y-110045429D02*
X161440762Y-110140667D01*
X161345524Y-110235905D01*
X161155048Y-110283524D01*
X160821714Y-110283524D01*
X160631238Y-110235905D01*
X160536000Y-110140667D01*
X160488381Y-110045429D01*
X160488381Y-109854952D01*
X160536000Y-109759714D01*
X160631238Y-109664476D01*
X160821714Y-109616857D01*
X161155048Y-109616857D01*
X161345524Y-109664476D01*
X161440762Y-109759714D01*
X161488381Y-109854952D01*
X161488381Y-110045429D01*
X161488381Y-108664476D02*
X161488381Y-109235905D01*
X161488381Y-108950191D02*
X160488381Y-108950191D01*
X160631238Y-109045429D01*
X160726476Y-109140667D01*
X160774095Y-109235905D01*
D13*
X162887790Y-108066223D02*
X162887790Y-108351937D01*
X162887790Y-108209080D02*
X162387790Y-108209080D01*
X162459219Y-108256699D01*
X162506838Y-108304318D01*
X162530648Y-108351937D01*
D12*
X162964834Y-101226881D02*
X162631500Y-100750690D01*
X162393405Y-101226881D02*
X162393405Y-100226881D01*
X162774358Y-100226881D01*
X162869596Y-100274500D01*
X162917215Y-100322119D01*
X162964834Y-100417357D01*
X162964834Y-100560214D01*
X162917215Y-100655452D01*
X162869596Y-100703071D01*
X162774358Y-100750690D01*
X162393405Y-100750690D01*
X163917215Y-101226881D02*
X163345786Y-101226881D01*
X163631500Y-101226881D02*
X163631500Y-100226881D01*
X163536262Y-100369738D01*
X163441024Y-100464976D01*
X163345786Y-100512595D01*
X160424834Y-101226881D02*
X160091500Y-100750690D01*
X159853405Y-101226881D02*
X159853405Y-100226881D01*
X160234358Y-100226881D01*
X160329596Y-100274500D01*
X160377215Y-100322119D01*
X160424834Y-100417357D01*
X160424834Y-100560214D01*
X160377215Y-100655452D01*
X160329596Y-100703071D01*
X160234358Y-100750690D01*
X159853405Y-100750690D01*
X160805786Y-100322119D02*
X160853405Y-100274500D01*
X160948643Y-100226881D01*
X161186739Y-100226881D01*
X161281977Y-100274500D01*
X161329596Y-100322119D01*
X161377215Y-100417357D01*
X161377215Y-100512595D01*
X161329596Y-100655452D01*
X160758167Y-101226881D01*
X161377215Y-101226881D01*
X158011834Y-101226881D02*
X157678500Y-100750690D01*
X157440405Y-101226881D02*
X157440405Y-100226881D01*
X157821358Y-100226881D01*
X157916596Y-100274500D01*
X157964215Y-100322119D01*
X158011834Y-100417357D01*
X158011834Y-100560214D01*
X157964215Y-100655452D01*
X157916596Y-100703071D01*
X157821358Y-100750690D01*
X157440405Y-100750690D01*
X158345167Y-100226881D02*
X158964215Y-100226881D01*
X158630881Y-100607833D01*
X158773739Y-100607833D01*
X158868977Y-100655452D01*
X158916596Y-100703071D01*
X158964215Y-100798310D01*
X158964215Y-101036405D01*
X158916596Y-101131643D01*
X158868977Y-101179262D01*
X158773739Y-101226881D01*
X158488024Y-101226881D01*
X158392786Y-101179262D01*
X158345167Y-101131643D01*
X155662334Y-101226881D02*
X155329000Y-100750690D01*
X155090905Y-101226881D02*
X155090905Y-100226881D01*
X155471858Y-100226881D01*
X155567096Y-100274500D01*
X155614715Y-100322119D01*
X155662334Y-100417357D01*
X155662334Y-100560214D01*
X155614715Y-100655452D01*
X155567096Y-100703071D01*
X155471858Y-100750690D01*
X155090905Y-100750690D01*
X156519477Y-100560214D02*
X156519477Y-101226881D01*
X156281381Y-100179262D02*
X156043286Y-100893548D01*
X156662334Y-100893548D01*
M02*
