M48
INCH,TZ
T1C0.008
T2C0.016
T3C0.031
T4C0.040
T5C0.063
%
G90
G05
T1
X61775Y-42775
X62275Y-42775
X62275Y-43325
X62517Y-44160
X62775Y-42775
X62775Y-43325
X63517Y-44160
X63520Y-43750
X63525Y-44600
X63580Y-45190
X63750Y-43750
X63750Y-44150
X63750Y-44600
X64030Y-44830
X64850Y-45550
X64860Y-45050
T2
X61275Y-46300
X61275Y-46770
X61320Y-45900
X61335Y-47620
X61600Y-44625
X61600Y-45025
X61600Y-45425
X61750Y-45875
X62025Y-43475
X62025Y-43850
X62025Y-44225
X62025Y-44625
X62025Y-45025
X62025Y-45425
X62175Y-45865
X62175Y-47670
X62350Y-45200
X62625Y-45850
X63050Y-47620
X63075Y-45875
X63075Y-46325
X63090Y-46775
X63700Y-45900
X63790Y-46780
X63825Y-46240
X64000Y-39700
X64025Y-45193
X64025Y-45725
X64055Y-47460
X64175Y-46000
X64500Y-45725
X64525Y-45175
X64680Y-47650
X65320Y-47450
X65395Y-46175
T3
X62025Y-43050
X62525Y-43050
X63025Y-43050
X64625Y-40300
X64625Y-40800
X64625Y-41300
X64625Y-41800
X65125Y-40300
X65125Y-40800
X65125Y-41300
X65125Y-41800
X65125Y-42300
X65125Y-42800
X65125Y-43300
X65125Y-43800
X65125Y-44300
X65125Y-44800
X65125Y-45300
X65125Y-45800
T4
X60650Y-40275
X60650Y-41275
X60650Y-42275
X60650Y-43275
X60650Y-44275
X60650Y-45275
X60650Y-46275
X60650Y-47275
T5
X62175Y-46775
X64675Y-46775
T0
M30
