G04 #@! TF.FileFunction,Copper,L1,Top,Signal*
%FSLAX46Y46*%
G04 Gerber Fmt 4.6, Leading zero omitted, Abs format (unit mm)*
G04 Created by KiCad (PCBNEW (2015-07-02 BZR 5871, Git 766da1e)-product) date 7/17/2015 2:49:37 PM*
%MOMM*%
G01*
G04 APERTURE LIST*
%ADD10C,0.100000*%
%ADD11R,0.510000X1.300000*%
%ADD12R,0.900000X1.200000*%
%ADD13R,2.032000X1.727200*%
%ADD14O,2.032000X1.727200*%
%ADD15R,3.200000X3.200000*%
%ADD16O,3.200000X3.200000*%
%ADD17C,0.600000*%
%ADD18C,1.000000*%
%ADD19C,0.400000*%
%ADD20C,0.250000*%
%ADD21C,0.125000*%
G04 APERTURE END LIST*
D10*
D11*
X162604100Y-106966780D03*
X161334100Y-106966780D03*
X160064100Y-106966780D03*
X158794100Y-106966780D03*
X158794100Y-112166780D03*
X160064100Y-112166780D03*
X161334100Y-112166780D03*
X162604100Y-112166780D03*
D12*
X162433000Y-102278000D03*
X162433000Y-104478000D03*
X160782000Y-102278000D03*
X160782000Y-104478000D03*
D13*
X154051000Y-120078500D03*
D14*
X154051000Y-117538500D03*
X154051000Y-114998500D03*
X154051000Y-112458500D03*
X154051000Y-109918500D03*
X154051000Y-107378500D03*
X154051000Y-104838500D03*
X154051000Y-102298500D03*
D12*
X156400500Y-104478000D03*
X156400500Y-102278000D03*
X158051500Y-104478000D03*
X158051500Y-102278000D03*
D15*
X157924500Y-118808500D03*
D16*
X164274500Y-118808500D03*
D17*
X161798000Y-116586000D03*
X163004500Y-116840000D03*
X163830000Y-116141500D03*
X162623500Y-116141500D03*
D18*
X165417500Y-115062000D03*
X165417500Y-113792000D03*
X165417500Y-116332000D03*
D19*
X164719000Y-115697000D03*
X164744400Y-114427000D03*
D17*
X163893500Y-114744500D03*
X162623500Y-114789320D03*
X166103300Y-117284500D03*
X165912800Y-120523000D03*
X164287200Y-121031000D03*
X162699700Y-120548400D03*
X162026600Y-118821200D03*
X162115500Y-117449600D03*
D19*
X161493200Y-114782600D03*
X162636200Y-113868200D03*
X161925000Y-111125000D03*
X161925000Y-112141000D03*
X161340800Y-111125000D03*
X161353500Y-113284000D03*
X161925000Y-113284000D03*
X161334100Y-112166780D03*
D18*
X165417500Y-112522000D03*
X165417500Y-102362000D03*
X165417500Y-103632000D03*
X164147500Y-102362000D03*
X165417500Y-104902000D03*
X164147500Y-103632000D03*
X164147500Y-104902000D03*
X165417500Y-106172000D03*
X164147500Y-106172000D03*
X165417500Y-107442000D03*
X165417500Y-109982000D03*
X165417500Y-111252000D03*
X165417500Y-108712000D03*
D17*
X155638500Y-118795800D03*
X155638500Y-117602000D03*
X160248600Y-118808500D03*
X160210500Y-117665500D03*
X157924500Y-116497100D03*
X156845000Y-116522500D03*
X160210500Y-116522500D03*
X159067500Y-116459000D03*
X158369000Y-114808000D03*
X157543500Y-115379500D03*
X156464000Y-115379500D03*
X156464000Y-114363500D03*
X156464000Y-113347500D03*
X157543500Y-114363500D03*
X155790900Y-120954800D03*
X160147000Y-120954800D03*
X155752800Y-116586000D03*
X157924500Y-121081800D03*
D19*
X158178500Y-108648500D03*
X158178500Y-110045500D03*
D18*
X158813500Y-109347000D03*
D19*
X156908500Y-108648500D03*
X159448500Y-110045500D03*
D18*
X160083500Y-109347000D03*
D19*
X159448500Y-108648500D03*
X158794100Y-112166780D03*
D17*
X157543500Y-112331500D03*
X157543500Y-111379000D03*
D18*
X157543500Y-109347000D03*
D17*
X157543500Y-110426500D03*
X157543500Y-113347500D03*
X162560000Y-100838000D03*
D20*
X162623500Y-116141500D02*
X162242500Y-116141500D01*
X162242500Y-116141500D02*
X161798000Y-116586000D01*
X163830000Y-116141500D02*
X162623500Y-116141500D01*
X165417500Y-115062000D02*
X165417500Y-113792000D01*
X165417500Y-116332000D02*
X165417500Y-115062000D01*
X165404800Y-115697000D02*
X164719000Y-115697000D01*
X165417500Y-115684300D02*
X165404800Y-115697000D01*
X165417500Y-115684300D02*
X165417500Y-115062000D01*
X165417500Y-113792000D02*
X165417500Y-114058700D01*
X165417500Y-114058700D02*
X165049200Y-114427000D01*
X165049200Y-114427000D02*
X164744400Y-114427000D01*
X162623500Y-114789320D02*
X163848680Y-114789320D01*
X163848680Y-114789320D02*
X163893500Y-114744500D01*
X162623500Y-114789320D02*
X162623500Y-114808000D01*
X164274500Y-118808500D02*
X164579300Y-118808500D01*
X164579300Y-118808500D02*
X166103300Y-117284500D01*
X164287200Y-121031000D02*
X163182300Y-121031000D01*
X163182300Y-121031000D02*
X162699700Y-120548400D01*
X164274500Y-118808500D02*
X163474400Y-118808500D01*
X163474400Y-118808500D02*
X162115500Y-117449600D01*
X162623500Y-114808000D02*
X162623500Y-113880900D01*
X162623500Y-113880900D02*
X162636200Y-113868200D01*
X161340800Y-111125000D02*
X161925000Y-111125000D01*
X161925000Y-111125000D02*
X161925000Y-112141000D01*
X161334100Y-112166780D02*
X161334100Y-113264600D01*
X161334100Y-113264600D02*
X161353500Y-113284000D01*
X161925000Y-113284000D02*
X161925000Y-112141000D01*
X161899220Y-112166780D02*
X161925000Y-112141000D01*
X161899220Y-112166780D02*
X161334100Y-112166780D01*
X165417500Y-113792000D02*
X165417500Y-112522000D01*
X164147500Y-102362000D02*
X165417500Y-102362000D01*
X165417500Y-102362000D02*
X165417500Y-103632000D01*
X164147500Y-103632000D02*
X165417500Y-103632000D01*
X165417500Y-103632000D02*
X165417500Y-104902000D01*
X165417500Y-104902000D02*
X164147500Y-104902000D01*
X165417500Y-106172000D02*
X164147500Y-106172000D01*
X165417500Y-106172000D02*
X165417500Y-107442000D01*
X165417500Y-108712000D02*
X165417500Y-109982000D01*
X165417500Y-111252000D02*
X165417500Y-112522000D01*
X164274500Y-115506500D02*
X165417500Y-114363500D01*
X164274500Y-115506500D02*
X164274500Y-118808500D01*
X165417500Y-114363500D02*
X165417500Y-112522000D01*
X165417500Y-109982000D02*
X165417500Y-111252000D01*
X165417500Y-107442000D02*
X165417500Y-108712000D01*
X165417500Y-104902000D02*
X165417500Y-106172000D01*
X164274500Y-118808500D02*
X164211000Y-118808500D01*
X160248600Y-118808500D02*
X160248600Y-117703600D01*
X157924500Y-118808500D02*
X160248600Y-118808500D01*
X160248600Y-117703600D02*
X160210500Y-117665500D01*
X157924500Y-118808500D02*
X160210500Y-116522500D01*
X157543500Y-114363500D02*
X157924500Y-114363500D01*
X157924500Y-114363500D02*
X158369000Y-114808000D01*
X157543500Y-115379500D02*
X157543500Y-114363500D01*
X156464000Y-113347500D02*
X156464000Y-114363500D01*
X156464000Y-114363500D02*
X157543500Y-114363500D01*
X157924500Y-118808500D02*
X157924500Y-118821200D01*
X157924500Y-118821200D02*
X155790900Y-120954800D01*
X157924500Y-118808500D02*
X157924500Y-118757700D01*
X157924500Y-118757700D02*
X155752800Y-116586000D01*
X157924500Y-118808500D02*
X157924500Y-121081800D01*
X158178500Y-108648500D02*
X158178500Y-110045500D01*
X156908500Y-108648500D02*
X158178500Y-108648500D01*
X158178500Y-109347000D02*
X158178500Y-108648500D01*
X158178500Y-109347000D02*
X158813500Y-109347000D01*
X159448500Y-108648500D02*
X159448500Y-110045500D01*
X159448500Y-109347000D02*
X159448500Y-110045500D01*
X160083500Y-109347000D02*
X158813500Y-109347000D01*
X160083500Y-109347000D02*
X159448500Y-109347000D01*
X158794100Y-109366400D02*
X158794100Y-112166780D01*
X158813500Y-109347000D02*
X158794100Y-109366400D01*
X156591000Y-115443000D02*
X156591000Y-113919000D01*
X157543500Y-114363500D02*
X157543500Y-114490500D01*
X157543500Y-109347000D02*
X157543500Y-113347500D01*
X158813500Y-109347000D02*
X157543500Y-109347000D01*
X157543500Y-114490500D02*
X156591000Y-115443000D01*
X157543500Y-112966500D02*
X157543500Y-110426500D01*
X156591000Y-113919000D02*
X157543500Y-112966500D01*
X157543500Y-111379000D02*
X157543500Y-110426500D01*
X157543500Y-112331500D02*
X157543500Y-111379000D01*
X162433000Y-100965000D02*
X162433000Y-102278000D01*
X162560000Y-100838000D02*
X162433000Y-100965000D01*
X154051000Y-107378500D02*
X154157500Y-107378500D01*
X162433000Y-104478000D02*
X162433000Y-106795680D01*
X162433000Y-106795680D02*
X162604100Y-106966780D01*
X160782000Y-104478000D02*
X160782000Y-105346500D01*
X161334100Y-105898600D02*
X161334100Y-106966780D01*
X160782000Y-105346500D02*
X161334100Y-105898600D01*
X161334100Y-106445400D02*
X161334100Y-106966780D01*
X156400500Y-102278000D02*
X158051500Y-102278000D01*
X158051500Y-102278000D02*
X159385000Y-103611500D01*
X159385000Y-103611500D02*
X159385000Y-105346500D01*
X159385000Y-105346500D02*
X160064100Y-106025600D01*
X160064100Y-106025600D02*
X160064100Y-106966780D01*
X154051000Y-112458500D02*
X154051000Y-112204500D01*
X154051000Y-112204500D02*
X155702000Y-110553500D01*
X155702000Y-110553500D02*
X155702000Y-105176500D01*
X155702000Y-105176500D02*
X156400500Y-104478000D01*
X154051000Y-109918500D02*
X153352500Y-109918500D01*
X153352500Y-109918500D02*
X151701500Y-108267500D01*
X151701500Y-108267500D02*
X151701500Y-102362000D01*
X151701500Y-102362000D02*
X153289000Y-100774500D01*
X153289000Y-100774500D02*
X159278500Y-100774500D01*
X159278500Y-100774500D02*
X160782000Y-102278000D01*
X154051000Y-114998500D02*
X154051000Y-114744500D01*
X154051000Y-114744500D02*
X156210000Y-112585500D01*
X158051500Y-106045000D02*
X158051500Y-104478000D01*
X156210000Y-107886500D02*
X158051500Y-106045000D01*
X156210000Y-112585500D02*
X156210000Y-107886500D01*
X154051000Y-114998500D02*
X154241500Y-114998500D01*
D21*
G36*
X151260000Y-108267495D02*
X151259999Y-108267500D01*
X151293607Y-108436455D01*
X151389312Y-108579688D01*
X152698323Y-109888698D01*
X152692395Y-109918500D01*
X152782225Y-110370105D01*
X153038038Y-110752957D01*
X153420890Y-111008770D01*
X153872495Y-111098600D01*
X154229505Y-111098600D01*
X154607765Y-111023359D01*
X154332281Y-111298843D01*
X154229505Y-111278400D01*
X153872495Y-111278400D01*
X153420890Y-111368230D01*
X153038038Y-111624043D01*
X152782225Y-112006895D01*
X152692395Y-112458500D01*
X152782225Y-112910105D01*
X153038038Y-113292957D01*
X153420890Y-113548770D01*
X153872495Y-113638600D01*
X154229505Y-113638600D01*
X154607765Y-113563359D01*
X154332281Y-113838843D01*
X154229505Y-113818400D01*
X153872495Y-113818400D01*
X153420890Y-113908230D01*
X153038038Y-114164043D01*
X152782225Y-114546895D01*
X152692395Y-114998500D01*
X152782225Y-115450105D01*
X153038038Y-115832957D01*
X153420890Y-116088770D01*
X153872495Y-116178600D01*
X154229505Y-116178600D01*
X154681110Y-116088770D01*
X155063962Y-115832957D01*
X155319775Y-115450105D01*
X155409605Y-114998500D01*
X155319775Y-114546895D01*
X155140815Y-114279061D01*
X156522188Y-112897688D01*
X156617893Y-112754455D01*
X156651500Y-112585500D01*
X156651500Y-112358280D01*
X158301725Y-112358280D01*
X158222600Y-112437405D01*
X158222600Y-112879736D01*
X158270784Y-112996063D01*
X158359817Y-113085096D01*
X158476144Y-113133280D01*
X158587475Y-113133280D01*
X158666600Y-113054155D01*
X158666600Y-112358280D01*
X158301725Y-112358280D01*
X156651500Y-112358280D01*
X156651500Y-111200280D01*
X158476144Y-111200280D01*
X158359817Y-111248464D01*
X158270784Y-111337497D01*
X158222600Y-111453824D01*
X158222600Y-111896155D01*
X158301725Y-111975280D01*
X158666600Y-111975280D01*
X158666600Y-111279405D01*
X158587475Y-111200280D01*
X158476144Y-111200280D01*
X156651500Y-111200280D01*
X156651500Y-108069376D01*
X156708376Y-108012500D01*
X163894500Y-108012500D01*
X163894500Y-113285000D01*
X162495500Y-113285000D01*
X162495500Y-112358280D01*
X162731600Y-112358280D01*
X162731600Y-113054155D01*
X162810725Y-113133280D01*
X162922056Y-113133280D01*
X163038383Y-113085096D01*
X163127416Y-112996063D01*
X163175600Y-112879736D01*
X163175600Y-112437405D01*
X163096475Y-112358280D01*
X162731600Y-112358280D01*
X162495500Y-112358280D01*
X162495500Y-111200280D01*
X162810725Y-111200280D01*
X162731600Y-111279405D01*
X162731600Y-111975280D01*
X163096475Y-111975280D01*
X163175600Y-111896155D01*
X163175600Y-111453824D01*
X163127416Y-111337497D01*
X163038383Y-111248464D01*
X162922056Y-111200280D01*
X162810725Y-111200280D01*
X162495500Y-111200280D01*
X162495500Y-110680500D01*
X162490742Y-110656582D01*
X162477194Y-110636306D01*
X162456918Y-110622758D01*
X162433000Y-110618000D01*
X162050851Y-110618000D01*
X162028189Y-110608590D01*
X161822713Y-110608410D01*
X161799503Y-110618000D01*
X161466651Y-110618000D01*
X161443989Y-110608590D01*
X161238513Y-110608410D01*
X161215303Y-110618000D01*
X158940500Y-110618000D01*
X158916582Y-110622758D01*
X158896306Y-110636306D01*
X158882758Y-110656582D01*
X158878000Y-110680500D01*
X158878000Y-115951000D01*
X158882758Y-115974918D01*
X158896306Y-115995194D01*
X158916582Y-116008742D01*
X158940500Y-116013500D01*
X160910000Y-116013500D01*
X160910000Y-121476500D01*
X150430792Y-121476500D01*
X150442868Y-118892199D01*
X153035000Y-118892199D01*
X152914320Y-118915614D01*
X152808253Y-118985289D01*
X152737252Y-119090473D01*
X152712299Y-119214900D01*
X152712299Y-120942100D01*
X152735714Y-121062780D01*
X152805389Y-121168847D01*
X152910573Y-121239848D01*
X153035000Y-121264801D01*
X155067000Y-121264801D01*
X155187680Y-121241386D01*
X155293747Y-121171711D01*
X155364748Y-121066527D01*
X155389701Y-120942100D01*
X155389701Y-119214900D01*
X155366286Y-119094220D01*
X155304394Y-119000000D01*
X156087125Y-119000000D01*
X156008000Y-119079125D01*
X156008000Y-120471456D01*
X156056184Y-120587783D01*
X156145217Y-120676816D01*
X156261544Y-120725000D01*
X157653875Y-120725000D01*
X157733000Y-120645875D01*
X157733000Y-119000000D01*
X158116000Y-119000000D01*
X157733000Y-119000000D01*
X157733000Y-119000000D01*
X158116000Y-119000000D01*
X158116000Y-120645875D01*
X158195125Y-120725000D01*
X159587456Y-120725000D01*
X159703783Y-120676816D01*
X159792816Y-120587783D01*
X159841000Y-120471456D01*
X159841000Y-119079125D01*
X159761875Y-119000000D01*
X158116000Y-119000000D01*
X157733000Y-119000000D01*
X157733000Y-119000000D01*
X156087125Y-119000000D01*
X155304394Y-119000000D01*
X155296611Y-118988153D01*
X155191427Y-118917152D01*
X155067000Y-118892199D01*
X153035000Y-118892199D01*
X150442868Y-118892199D01*
X150454708Y-116358400D01*
X153872495Y-116358400D01*
X153420890Y-116448230D01*
X153038038Y-116704043D01*
X152782225Y-117086895D01*
X152692395Y-117538500D01*
X152782225Y-117990105D01*
X153038038Y-118372957D01*
X153420890Y-118628770D01*
X153872495Y-118718600D01*
X154229505Y-118718600D01*
X154681110Y-118628770D01*
X155063962Y-118372957D01*
X155319775Y-117990105D01*
X155409605Y-117538500D01*
X155319775Y-117086895D01*
X155189551Y-116892000D01*
X156261544Y-116892000D01*
X156145217Y-116940184D01*
X156056184Y-117029217D01*
X156008000Y-117145544D01*
X156008000Y-118537875D01*
X156087125Y-118617000D01*
X157733000Y-118617000D01*
X157733000Y-116971125D01*
X157653875Y-116892000D01*
X158195125Y-116892000D01*
X157653875Y-116892000D01*
X157653875Y-116892000D01*
X158195125Y-116892000D01*
X158116000Y-116971125D01*
X158116000Y-118617000D01*
X159761875Y-118617000D01*
X159841000Y-118537875D01*
X159841000Y-117145544D01*
X159792816Y-117029217D01*
X159703783Y-116940184D01*
X159587456Y-116892000D01*
X158195125Y-116892000D01*
X157653875Y-116892000D01*
X157653875Y-116892000D01*
X156261544Y-116892000D01*
X155189551Y-116892000D01*
X155063962Y-116704043D01*
X154681110Y-116448230D01*
X154229505Y-116358400D01*
X153872495Y-116358400D01*
X150454708Y-116358400D01*
X150493708Y-108012500D01*
X151260000Y-108012500D01*
X151260000Y-108267495D01*
X151260000Y-108267495D01*
G37*
X151260000Y-108267495D02*
X151259999Y-108267500D01*
X151293607Y-108436455D01*
X151389312Y-108579688D01*
X152698323Y-109888698D01*
X152692395Y-109918500D01*
X152782225Y-110370105D01*
X153038038Y-110752957D01*
X153420890Y-111008770D01*
X153872495Y-111098600D01*
X154229505Y-111098600D01*
X154607765Y-111023359D01*
X154332281Y-111298843D01*
X154229505Y-111278400D01*
X153872495Y-111278400D01*
X153420890Y-111368230D01*
X153038038Y-111624043D01*
X152782225Y-112006895D01*
X152692395Y-112458500D01*
X152782225Y-112910105D01*
X153038038Y-113292957D01*
X153420890Y-113548770D01*
X153872495Y-113638600D01*
X154229505Y-113638600D01*
X154607765Y-113563359D01*
X154332281Y-113838843D01*
X154229505Y-113818400D01*
X153872495Y-113818400D01*
X153420890Y-113908230D01*
X153038038Y-114164043D01*
X152782225Y-114546895D01*
X152692395Y-114998500D01*
X152782225Y-115450105D01*
X153038038Y-115832957D01*
X153420890Y-116088770D01*
X153872495Y-116178600D01*
X154229505Y-116178600D01*
X154681110Y-116088770D01*
X155063962Y-115832957D01*
X155319775Y-115450105D01*
X155409605Y-114998500D01*
X155319775Y-114546895D01*
X155140815Y-114279061D01*
X156522188Y-112897688D01*
X156617893Y-112754455D01*
X156651500Y-112585500D01*
X156651500Y-112358280D01*
X158301725Y-112358280D01*
X158222600Y-112437405D01*
X158222600Y-112879736D01*
X158270784Y-112996063D01*
X158359817Y-113085096D01*
X158476144Y-113133280D01*
X158587475Y-113133280D01*
X158666600Y-113054155D01*
X158666600Y-112358280D01*
X158301725Y-112358280D01*
X156651500Y-112358280D01*
X156651500Y-111200280D01*
X158476144Y-111200280D01*
X158359817Y-111248464D01*
X158270784Y-111337497D01*
X158222600Y-111453824D01*
X158222600Y-111896155D01*
X158301725Y-111975280D01*
X158666600Y-111975280D01*
X158666600Y-111279405D01*
X158587475Y-111200280D01*
X158476144Y-111200280D01*
X156651500Y-111200280D01*
X156651500Y-108069376D01*
X156708376Y-108012500D01*
X163894500Y-108012500D01*
X163894500Y-113285000D01*
X162495500Y-113285000D01*
X162495500Y-112358280D01*
X162731600Y-112358280D01*
X162731600Y-113054155D01*
X162810725Y-113133280D01*
X162922056Y-113133280D01*
X163038383Y-113085096D01*
X163127416Y-112996063D01*
X163175600Y-112879736D01*
X163175600Y-112437405D01*
X163096475Y-112358280D01*
X162731600Y-112358280D01*
X162495500Y-112358280D01*
X162495500Y-111200280D01*
X162810725Y-111200280D01*
X162731600Y-111279405D01*
X162731600Y-111975280D01*
X163096475Y-111975280D01*
X163175600Y-111896155D01*
X163175600Y-111453824D01*
X163127416Y-111337497D01*
X163038383Y-111248464D01*
X162922056Y-111200280D01*
X162810725Y-111200280D01*
X162495500Y-111200280D01*
X162495500Y-110680500D01*
X162490742Y-110656582D01*
X162477194Y-110636306D01*
X162456918Y-110622758D01*
X162433000Y-110618000D01*
X162050851Y-110618000D01*
X162028189Y-110608590D01*
X161822713Y-110608410D01*
X161799503Y-110618000D01*
X161466651Y-110618000D01*
X161443989Y-110608590D01*
X161238513Y-110608410D01*
X161215303Y-110618000D01*
X158940500Y-110618000D01*
X158916582Y-110622758D01*
X158896306Y-110636306D01*
X158882758Y-110656582D01*
X158878000Y-110680500D01*
X158878000Y-115951000D01*
X158882758Y-115974918D01*
X158896306Y-115995194D01*
X158916582Y-116008742D01*
X158940500Y-116013500D01*
X160910000Y-116013500D01*
X160910000Y-121476500D01*
X150430792Y-121476500D01*
X150442868Y-118892199D01*
X153035000Y-118892199D01*
X152914320Y-118915614D01*
X152808253Y-118985289D01*
X152737252Y-119090473D01*
X152712299Y-119214900D01*
X152712299Y-120942100D01*
X152735714Y-121062780D01*
X152805389Y-121168847D01*
X152910573Y-121239848D01*
X153035000Y-121264801D01*
X155067000Y-121264801D01*
X155187680Y-121241386D01*
X155293747Y-121171711D01*
X155364748Y-121066527D01*
X155389701Y-120942100D01*
X155389701Y-119214900D01*
X155366286Y-119094220D01*
X155304394Y-119000000D01*
X156087125Y-119000000D01*
X156008000Y-119079125D01*
X156008000Y-120471456D01*
X156056184Y-120587783D01*
X156145217Y-120676816D01*
X156261544Y-120725000D01*
X157653875Y-120725000D01*
X157733000Y-120645875D01*
X157733000Y-119000000D01*
X158116000Y-119000000D01*
X157733000Y-119000000D01*
X157733000Y-119000000D01*
X158116000Y-119000000D01*
X158116000Y-120645875D01*
X158195125Y-120725000D01*
X159587456Y-120725000D01*
X159703783Y-120676816D01*
X159792816Y-120587783D01*
X159841000Y-120471456D01*
X159841000Y-119079125D01*
X159761875Y-119000000D01*
X158116000Y-119000000D01*
X157733000Y-119000000D01*
X157733000Y-119000000D01*
X156087125Y-119000000D01*
X155304394Y-119000000D01*
X155296611Y-118988153D01*
X155191427Y-118917152D01*
X155067000Y-118892199D01*
X153035000Y-118892199D01*
X150442868Y-118892199D01*
X150454708Y-116358400D01*
X153872495Y-116358400D01*
X153420890Y-116448230D01*
X153038038Y-116704043D01*
X152782225Y-117086895D01*
X152692395Y-117538500D01*
X152782225Y-117990105D01*
X153038038Y-118372957D01*
X153420890Y-118628770D01*
X153872495Y-118718600D01*
X154229505Y-118718600D01*
X154681110Y-118628770D01*
X155063962Y-118372957D01*
X155319775Y-117990105D01*
X155409605Y-117538500D01*
X155319775Y-117086895D01*
X155189551Y-116892000D01*
X156261544Y-116892000D01*
X156145217Y-116940184D01*
X156056184Y-117029217D01*
X156008000Y-117145544D01*
X156008000Y-118537875D01*
X156087125Y-118617000D01*
X157733000Y-118617000D01*
X157733000Y-116971125D01*
X157653875Y-116892000D01*
X158195125Y-116892000D01*
X157653875Y-116892000D01*
X157653875Y-116892000D01*
X158195125Y-116892000D01*
X158116000Y-116971125D01*
X158116000Y-118617000D01*
X159761875Y-118617000D01*
X159841000Y-118537875D01*
X159841000Y-117145544D01*
X159792816Y-117029217D01*
X159703783Y-116940184D01*
X159587456Y-116892000D01*
X158195125Y-116892000D01*
X157653875Y-116892000D01*
X157653875Y-116892000D01*
X156261544Y-116892000D01*
X155189551Y-116892000D01*
X155063962Y-116704043D01*
X154681110Y-116448230D01*
X154229505Y-116358400D01*
X153872495Y-116358400D01*
X150454708Y-116358400D01*
X150493708Y-108012500D01*
X151260000Y-108012500D01*
X151260000Y-108267495D01*
G36*
X166561500Y-121476500D02*
X161352500Y-121476500D01*
X161352500Y-119000000D01*
X162446705Y-119000000D01*
X162421015Y-119295950D01*
X162748642Y-119968143D01*
X163308567Y-120463791D01*
X163787052Y-120661974D01*
X164083000Y-120635868D01*
X164083000Y-119000000D01*
X164466000Y-119000000D01*
X164466000Y-120635868D01*
X164761948Y-120661974D01*
X165240433Y-120463791D01*
X165800358Y-119968143D01*
X166127985Y-119295950D01*
X166102295Y-119000000D01*
X164466000Y-119000000D01*
X164083000Y-119000000D01*
X164083000Y-119000000D01*
X162446705Y-119000000D01*
X161352500Y-119000000D01*
X161352500Y-117153209D01*
X163308567Y-117153209D01*
X162748642Y-117648857D01*
X162421015Y-118321050D01*
X162446705Y-118617000D01*
X164083000Y-118617000D01*
X164083000Y-116981132D01*
X164466000Y-116981132D01*
X164466000Y-118617000D01*
X166102295Y-118617000D01*
X166127985Y-118321050D01*
X165800358Y-117648857D01*
X165240433Y-117153209D01*
X164761948Y-116955026D01*
X164466000Y-116981132D01*
X164083000Y-116981132D01*
X164083000Y-116981132D01*
X163787052Y-116955026D01*
X163308567Y-117153209D01*
X161352500Y-117153209D01*
X161352500Y-115633500D01*
X161347742Y-115609582D01*
X161334194Y-115589306D01*
X161313918Y-115575758D01*
X161290000Y-115571000D01*
X159320500Y-115571000D01*
X159320500Y-112980240D01*
X159346848Y-112941207D01*
X159371801Y-112816780D01*
X159371801Y-112358280D01*
X159571725Y-112358280D01*
X159492600Y-112437405D01*
X159492600Y-112879736D01*
X159540784Y-112996063D01*
X159629817Y-113085096D01*
X159746144Y-113133280D01*
X159857475Y-113133280D01*
X159936600Y-113054155D01*
X159936600Y-112358280D01*
X160191600Y-112358280D01*
X160191600Y-113054155D01*
X160270725Y-113133280D01*
X160382056Y-113133280D01*
X160498383Y-113085096D01*
X160587416Y-112996063D01*
X160635600Y-112879736D01*
X160635600Y-112437405D01*
X160556475Y-112358280D01*
X160841725Y-112358280D01*
X160762600Y-112437405D01*
X160762600Y-112879736D01*
X160810784Y-112996063D01*
X160899817Y-113085096D01*
X161016144Y-113133280D01*
X161127475Y-113133280D01*
X161206600Y-113054155D01*
X161206600Y-112358280D01*
X161461600Y-112358280D01*
X161206600Y-112358280D01*
X161206600Y-112358280D01*
X161461600Y-112358280D01*
X161461600Y-113054155D01*
X161540725Y-113133280D01*
X161652056Y-113133280D01*
X161768383Y-113085096D01*
X161857416Y-112996063D01*
X161905600Y-112879736D01*
X161905600Y-112437405D01*
X161826475Y-112358280D01*
X161461600Y-112358280D01*
X161206600Y-112358280D01*
X161206600Y-112358280D01*
X160841725Y-112358280D01*
X160556475Y-112358280D01*
X160556475Y-112358280D01*
X160191600Y-112358280D01*
X159936600Y-112358280D01*
X159936600Y-112358280D01*
X159571725Y-112358280D01*
X159371801Y-112358280D01*
X159371801Y-111516780D01*
X159348386Y-111396100D01*
X159320500Y-111353649D01*
X159320500Y-111200280D01*
X159746144Y-111200280D01*
X159629817Y-111248464D01*
X159540784Y-111337497D01*
X159492600Y-111453824D01*
X159492600Y-111896155D01*
X159571725Y-111975280D01*
X159936600Y-111975280D01*
X159936600Y-111279405D01*
X159857475Y-111200280D01*
X160270725Y-111200280D01*
X159857475Y-111200280D01*
X159857475Y-111200280D01*
X160270725Y-111200280D01*
X160191600Y-111279405D01*
X160191600Y-111975280D01*
X160556475Y-111975280D01*
X160635600Y-111896155D01*
X160635600Y-111453824D01*
X160587416Y-111337497D01*
X160498383Y-111248464D01*
X160382056Y-111200280D01*
X161016144Y-111200280D01*
X160382056Y-111200280D01*
X160382056Y-111200280D01*
X161016144Y-111200280D01*
X160899817Y-111248464D01*
X160810784Y-111337497D01*
X160762600Y-111453824D01*
X160762600Y-111896155D01*
X160841725Y-111975280D01*
X161206600Y-111975280D01*
X161206600Y-111279405D01*
X161127475Y-111200280D01*
X161540725Y-111200280D01*
X161127475Y-111200280D01*
X161127475Y-111200280D01*
X161540725Y-111200280D01*
X161461600Y-111279405D01*
X161461600Y-111975280D01*
X161826475Y-111975280D01*
X161905600Y-111896155D01*
X161905600Y-111453824D01*
X161857416Y-111337497D01*
X161768383Y-111248464D01*
X161652056Y-111200280D01*
X161540725Y-111200280D01*
X161127475Y-111200280D01*
X161127475Y-111200280D01*
X161016144Y-111200280D01*
X160382056Y-111200280D01*
X160382056Y-111200280D01*
X160270725Y-111200280D01*
X159857475Y-111200280D01*
X159857475Y-111200280D01*
X159746144Y-111200280D01*
X159320500Y-111200280D01*
X159320500Y-111060500D01*
X162053000Y-111060500D01*
X162053000Y-111389912D01*
X162051352Y-111392353D01*
X162026399Y-111516780D01*
X162026399Y-112816780D01*
X162049814Y-112937460D01*
X162053000Y-112942310D01*
X162053000Y-113665000D01*
X162057758Y-113688918D01*
X162071306Y-113709194D01*
X162091582Y-113722742D01*
X162115500Y-113727500D01*
X164274500Y-113727500D01*
X164298418Y-113722742D01*
X164318694Y-113709194D01*
X164332242Y-113688918D01*
X164337000Y-113665000D01*
X164337000Y-107632500D01*
X164332242Y-107608582D01*
X164318694Y-107588306D01*
X164298418Y-107574758D01*
X164274500Y-107570000D01*
X163181801Y-107570000D01*
X163181801Y-106316780D01*
X163158386Y-106196100D01*
X163088711Y-106090033D01*
X162983527Y-106019032D01*
X162874500Y-105997167D01*
X162874500Y-105400701D01*
X162883000Y-105400701D01*
X163003680Y-105377286D01*
X163109747Y-105307611D01*
X163180748Y-105202427D01*
X163205701Y-105078000D01*
X163205701Y-103878000D01*
X163182286Y-103757320D01*
X163112611Y-103651253D01*
X163007427Y-103580252D01*
X162883000Y-103555299D01*
X161983000Y-103555299D01*
X161862320Y-103578714D01*
X161756253Y-103648389D01*
X161685252Y-103753573D01*
X161660299Y-103878000D01*
X161660299Y-105078000D01*
X161683714Y-105198680D01*
X161753389Y-105304747D01*
X161858573Y-105375748D01*
X161983000Y-105400701D01*
X161991500Y-105400701D01*
X161991500Y-106795675D01*
X161991499Y-106795680D01*
X162025107Y-106964635D01*
X162026399Y-106966569D01*
X162026399Y-107570000D01*
X161911801Y-107570000D01*
X161911801Y-106316780D01*
X161888386Y-106196100D01*
X161818711Y-106090033D01*
X161775600Y-106060932D01*
X161775600Y-105898600D01*
X161741993Y-105729645D01*
X161646288Y-105586412D01*
X161646285Y-105586410D01*
X161403668Y-105343792D01*
X161458747Y-105307611D01*
X161529748Y-105202427D01*
X161554701Y-105078000D01*
X161554701Y-103878000D01*
X161531286Y-103757320D01*
X161461611Y-103651253D01*
X161356427Y-103580252D01*
X161232000Y-103555299D01*
X160332000Y-103555299D01*
X160211320Y-103578714D01*
X160105253Y-103648389D01*
X160034252Y-103753573D01*
X160009299Y-103878000D01*
X160009299Y-105078000D01*
X160032714Y-105198680D01*
X160102389Y-105304747D01*
X160207573Y-105375748D01*
X160332000Y-105400701D01*
X160351280Y-105400701D01*
X160374107Y-105515455D01*
X160469812Y-105658688D01*
X160880080Y-106068955D01*
X160852353Y-106087169D01*
X160781352Y-106192353D01*
X160756399Y-106316780D01*
X160756399Y-107570000D01*
X160641801Y-107570000D01*
X160641801Y-106316780D01*
X160618386Y-106196100D01*
X160548711Y-106090033D01*
X160505600Y-106060932D01*
X160505600Y-106025600D01*
X160471993Y-105856645D01*
X160376288Y-105713412D01*
X160376285Y-105713410D01*
X159826500Y-105163624D01*
X159826500Y-103611505D01*
X159826501Y-103611500D01*
X159792893Y-103442545D01*
X159756962Y-103388770D01*
X159697188Y-103299312D01*
X159697185Y-103299310D01*
X158824201Y-102426325D01*
X158824201Y-101678000D01*
X158800786Y-101557320D01*
X158731111Y-101451253D01*
X158625927Y-101380252D01*
X158501500Y-101355299D01*
X157601500Y-101355299D01*
X157480820Y-101378714D01*
X157374753Y-101448389D01*
X157303752Y-101553573D01*
X157278799Y-101678000D01*
X157278799Y-101836500D01*
X157173201Y-101836500D01*
X157173201Y-101678000D01*
X157149786Y-101557320D01*
X157080111Y-101451253D01*
X156974927Y-101380252D01*
X156850500Y-101355299D01*
X155950500Y-101355299D01*
X155829820Y-101378714D01*
X155723753Y-101448389D01*
X155652752Y-101553573D01*
X155627799Y-101678000D01*
X155627799Y-102878000D01*
X155651214Y-102998680D01*
X155720889Y-103104747D01*
X155826073Y-103175748D01*
X155950500Y-103200701D01*
X156850500Y-103200701D01*
X156971180Y-103177286D01*
X157077247Y-103107611D01*
X157148248Y-103002427D01*
X157173201Y-102878000D01*
X157173201Y-102719500D01*
X157278799Y-102719500D01*
X157278799Y-102878000D01*
X157302214Y-102998680D01*
X157371889Y-103104747D01*
X157477073Y-103175748D01*
X157601500Y-103200701D01*
X158349825Y-103200701D01*
X158943500Y-103794375D01*
X158943500Y-105346495D01*
X158943499Y-105346500D01*
X158977107Y-105515455D01*
X159072812Y-105658688D01*
X159549687Y-106135562D01*
X159511352Y-106192353D01*
X159486399Y-106316780D01*
X159486399Y-107570000D01*
X159371801Y-107570000D01*
X159371801Y-106316780D01*
X159348386Y-106196100D01*
X159278711Y-106090033D01*
X159173527Y-106019032D01*
X159049100Y-105994079D01*
X158539100Y-105994079D01*
X158493000Y-106003024D01*
X158493000Y-105400701D01*
X158501500Y-105400701D01*
X158622180Y-105377286D01*
X158728247Y-105307611D01*
X158799248Y-105202427D01*
X158824201Y-105078000D01*
X158824201Y-103878000D01*
X158800786Y-103757320D01*
X158731111Y-103651253D01*
X158625927Y-103580252D01*
X158501500Y-103555299D01*
X157601500Y-103555299D01*
X157480820Y-103578714D01*
X157374753Y-103648389D01*
X157303752Y-103753573D01*
X157278799Y-103878000D01*
X157278799Y-105078000D01*
X157302214Y-105198680D01*
X157371889Y-105304747D01*
X157477073Y-105375748D01*
X157601500Y-105400701D01*
X157610000Y-105400701D01*
X157610000Y-105862125D01*
X156143500Y-107328624D01*
X156143500Y-105400701D01*
X156850500Y-105400701D01*
X156971180Y-105377286D01*
X157077247Y-105307611D01*
X157148248Y-105202427D01*
X157173201Y-105078000D01*
X157173201Y-103878000D01*
X157149786Y-103757320D01*
X157080111Y-103651253D01*
X156974927Y-103580252D01*
X156850500Y-103555299D01*
X155950500Y-103555299D01*
X155829820Y-103578714D01*
X155723753Y-103648389D01*
X155652752Y-103753573D01*
X155627799Y-103878000D01*
X155627799Y-104626325D01*
X155408110Y-104846014D01*
X155409605Y-104838500D01*
X155319775Y-104386895D01*
X155063962Y-104004043D01*
X154681110Y-103748230D01*
X154229505Y-103658400D01*
X153872495Y-103658400D01*
X153420890Y-103748230D01*
X153038038Y-104004043D01*
X152782225Y-104386895D01*
X152692395Y-104838500D01*
X152782225Y-105290105D01*
X153038038Y-105672957D01*
X153420890Y-105928770D01*
X153872495Y-106018600D01*
X154229505Y-106018600D01*
X154681110Y-105928770D01*
X155063962Y-105672957D01*
X155260500Y-105378816D01*
X155260500Y-106838184D01*
X155063962Y-106544043D01*
X154681110Y-106288230D01*
X154229505Y-106198400D01*
X153872495Y-106198400D01*
X153420890Y-106288230D01*
X153038038Y-106544043D01*
X152782225Y-106926895D01*
X152692395Y-107378500D01*
X152730487Y-107570000D01*
X152143000Y-107570000D01*
X152143000Y-102544876D01*
X152767636Y-101920240D01*
X152692395Y-102298500D01*
X152782225Y-102750105D01*
X153038038Y-103132957D01*
X153420890Y-103388770D01*
X153872495Y-103478600D01*
X154229505Y-103478600D01*
X154681110Y-103388770D01*
X155063962Y-103132957D01*
X155319775Y-102750105D01*
X155409605Y-102298500D01*
X155319775Y-101846895D01*
X155063962Y-101464043D01*
X154692739Y-101216000D01*
X159095624Y-101216000D01*
X160009299Y-102129675D01*
X160009299Y-102878000D01*
X160032714Y-102998680D01*
X160102389Y-103104747D01*
X160207573Y-103175748D01*
X160332000Y-103200701D01*
X161232000Y-103200701D01*
X161352680Y-103177286D01*
X161458747Y-103107611D01*
X161529748Y-103002427D01*
X161554701Y-102878000D01*
X161554701Y-101678000D01*
X161531286Y-101557320D01*
X161461611Y-101451253D01*
X161356427Y-101380252D01*
X161232000Y-101355299D01*
X160483675Y-101355299D01*
X159590688Y-100462312D01*
X159581241Y-100456000D01*
X162070043Y-100456000D01*
X162037661Y-100488325D01*
X161943607Y-100714833D01*
X161943393Y-100960091D01*
X161991500Y-101076519D01*
X161991500Y-101355299D01*
X161983000Y-101355299D01*
X161862320Y-101378714D01*
X161756253Y-101448389D01*
X161685252Y-101553573D01*
X161660299Y-101678000D01*
X161660299Y-102878000D01*
X161683714Y-102998680D01*
X161753389Y-103104747D01*
X161858573Y-103175748D01*
X161983000Y-103200701D01*
X162883000Y-103200701D01*
X163003680Y-103177286D01*
X163109747Y-103107611D01*
X163180748Y-103002427D01*
X163205701Y-102878000D01*
X163205701Y-101678000D01*
X163182286Y-101557320D01*
X163112611Y-101451253D01*
X163007427Y-101380252D01*
X162909165Y-101360546D01*
X163082339Y-101187675D01*
X163176393Y-100961167D01*
X163176607Y-100715909D01*
X163082948Y-100489237D01*
X163049769Y-100456000D01*
X166561500Y-100456000D01*
X166561500Y-121476500D01*
X166561500Y-121476500D01*
G37*
X166561500Y-121476500D02*
X161352500Y-121476500D01*
X161352500Y-119000000D01*
X162446705Y-119000000D01*
X162421015Y-119295950D01*
X162748642Y-119968143D01*
X163308567Y-120463791D01*
X163787052Y-120661974D01*
X164083000Y-120635868D01*
X164083000Y-119000000D01*
X164466000Y-119000000D01*
X164466000Y-120635868D01*
X164761948Y-120661974D01*
X165240433Y-120463791D01*
X165800358Y-119968143D01*
X166127985Y-119295950D01*
X166102295Y-119000000D01*
X164466000Y-119000000D01*
X164083000Y-119000000D01*
X164083000Y-119000000D01*
X162446705Y-119000000D01*
X161352500Y-119000000D01*
X161352500Y-117153209D01*
X163308567Y-117153209D01*
X162748642Y-117648857D01*
X162421015Y-118321050D01*
X162446705Y-118617000D01*
X164083000Y-118617000D01*
X164083000Y-116981132D01*
X164466000Y-116981132D01*
X164466000Y-118617000D01*
X166102295Y-118617000D01*
X166127985Y-118321050D01*
X165800358Y-117648857D01*
X165240433Y-117153209D01*
X164761948Y-116955026D01*
X164466000Y-116981132D01*
X164083000Y-116981132D01*
X164083000Y-116981132D01*
X163787052Y-116955026D01*
X163308567Y-117153209D01*
X161352500Y-117153209D01*
X161352500Y-115633500D01*
X161347742Y-115609582D01*
X161334194Y-115589306D01*
X161313918Y-115575758D01*
X161290000Y-115571000D01*
X159320500Y-115571000D01*
X159320500Y-112980240D01*
X159346848Y-112941207D01*
X159371801Y-112816780D01*
X159371801Y-112358280D01*
X159571725Y-112358280D01*
X159492600Y-112437405D01*
X159492600Y-112879736D01*
X159540784Y-112996063D01*
X159629817Y-113085096D01*
X159746144Y-113133280D01*
X159857475Y-113133280D01*
X159936600Y-113054155D01*
X159936600Y-112358280D01*
X160191600Y-112358280D01*
X160191600Y-113054155D01*
X160270725Y-113133280D01*
X160382056Y-113133280D01*
X160498383Y-113085096D01*
X160587416Y-112996063D01*
X160635600Y-112879736D01*
X160635600Y-112437405D01*
X160556475Y-112358280D01*
X160841725Y-112358280D01*
X160762600Y-112437405D01*
X160762600Y-112879736D01*
X160810784Y-112996063D01*
X160899817Y-113085096D01*
X161016144Y-113133280D01*
X161127475Y-113133280D01*
X161206600Y-113054155D01*
X161206600Y-112358280D01*
X161461600Y-112358280D01*
X161206600Y-112358280D01*
X161206600Y-112358280D01*
X161461600Y-112358280D01*
X161461600Y-113054155D01*
X161540725Y-113133280D01*
X161652056Y-113133280D01*
X161768383Y-113085096D01*
X161857416Y-112996063D01*
X161905600Y-112879736D01*
X161905600Y-112437405D01*
X161826475Y-112358280D01*
X161461600Y-112358280D01*
X161206600Y-112358280D01*
X161206600Y-112358280D01*
X160841725Y-112358280D01*
X160556475Y-112358280D01*
X160556475Y-112358280D01*
X160191600Y-112358280D01*
X159936600Y-112358280D01*
X159936600Y-112358280D01*
X159571725Y-112358280D01*
X159371801Y-112358280D01*
X159371801Y-111516780D01*
X159348386Y-111396100D01*
X159320500Y-111353649D01*
X159320500Y-111200280D01*
X159746144Y-111200280D01*
X159629817Y-111248464D01*
X159540784Y-111337497D01*
X159492600Y-111453824D01*
X159492600Y-111896155D01*
X159571725Y-111975280D01*
X159936600Y-111975280D01*
X159936600Y-111279405D01*
X159857475Y-111200280D01*
X160270725Y-111200280D01*
X159857475Y-111200280D01*
X159857475Y-111200280D01*
X160270725Y-111200280D01*
X160191600Y-111279405D01*
X160191600Y-111975280D01*
X160556475Y-111975280D01*
X160635600Y-111896155D01*
X160635600Y-111453824D01*
X160587416Y-111337497D01*
X160498383Y-111248464D01*
X160382056Y-111200280D01*
X161016144Y-111200280D01*
X160382056Y-111200280D01*
X160382056Y-111200280D01*
X161016144Y-111200280D01*
X160899817Y-111248464D01*
X160810784Y-111337497D01*
X160762600Y-111453824D01*
X160762600Y-111896155D01*
X160841725Y-111975280D01*
X161206600Y-111975280D01*
X161206600Y-111279405D01*
X161127475Y-111200280D01*
X161540725Y-111200280D01*
X161127475Y-111200280D01*
X161127475Y-111200280D01*
X161540725Y-111200280D01*
X161461600Y-111279405D01*
X161461600Y-111975280D01*
X161826475Y-111975280D01*
X161905600Y-111896155D01*
X161905600Y-111453824D01*
X161857416Y-111337497D01*
X161768383Y-111248464D01*
X161652056Y-111200280D01*
X161540725Y-111200280D01*
X161127475Y-111200280D01*
X161127475Y-111200280D01*
X161016144Y-111200280D01*
X160382056Y-111200280D01*
X160382056Y-111200280D01*
X160270725Y-111200280D01*
X159857475Y-111200280D01*
X159857475Y-111200280D01*
X159746144Y-111200280D01*
X159320500Y-111200280D01*
X159320500Y-111060500D01*
X162053000Y-111060500D01*
X162053000Y-111389912D01*
X162051352Y-111392353D01*
X162026399Y-111516780D01*
X162026399Y-112816780D01*
X162049814Y-112937460D01*
X162053000Y-112942310D01*
X162053000Y-113665000D01*
X162057758Y-113688918D01*
X162071306Y-113709194D01*
X162091582Y-113722742D01*
X162115500Y-113727500D01*
X164274500Y-113727500D01*
X164298418Y-113722742D01*
X164318694Y-113709194D01*
X164332242Y-113688918D01*
X164337000Y-113665000D01*
X164337000Y-107632500D01*
X164332242Y-107608582D01*
X164318694Y-107588306D01*
X164298418Y-107574758D01*
X164274500Y-107570000D01*
X163181801Y-107570000D01*
X163181801Y-106316780D01*
X163158386Y-106196100D01*
X163088711Y-106090033D01*
X162983527Y-106019032D01*
X162874500Y-105997167D01*
X162874500Y-105400701D01*
X162883000Y-105400701D01*
X163003680Y-105377286D01*
X163109747Y-105307611D01*
X163180748Y-105202427D01*
X163205701Y-105078000D01*
X163205701Y-103878000D01*
X163182286Y-103757320D01*
X163112611Y-103651253D01*
X163007427Y-103580252D01*
X162883000Y-103555299D01*
X161983000Y-103555299D01*
X161862320Y-103578714D01*
X161756253Y-103648389D01*
X161685252Y-103753573D01*
X161660299Y-103878000D01*
X161660299Y-105078000D01*
X161683714Y-105198680D01*
X161753389Y-105304747D01*
X161858573Y-105375748D01*
X161983000Y-105400701D01*
X161991500Y-105400701D01*
X161991500Y-106795675D01*
X161991499Y-106795680D01*
X162025107Y-106964635D01*
X162026399Y-106966569D01*
X162026399Y-107570000D01*
X161911801Y-107570000D01*
X161911801Y-106316780D01*
X161888386Y-106196100D01*
X161818711Y-106090033D01*
X161775600Y-106060932D01*
X161775600Y-105898600D01*
X161741993Y-105729645D01*
X161646288Y-105586412D01*
X161646285Y-105586410D01*
X161403668Y-105343792D01*
X161458747Y-105307611D01*
X161529748Y-105202427D01*
X161554701Y-105078000D01*
X161554701Y-103878000D01*
X161531286Y-103757320D01*
X161461611Y-103651253D01*
X161356427Y-103580252D01*
X161232000Y-103555299D01*
X160332000Y-103555299D01*
X160211320Y-103578714D01*
X160105253Y-103648389D01*
X160034252Y-103753573D01*
X160009299Y-103878000D01*
X160009299Y-105078000D01*
X160032714Y-105198680D01*
X160102389Y-105304747D01*
X160207573Y-105375748D01*
X160332000Y-105400701D01*
X160351280Y-105400701D01*
X160374107Y-105515455D01*
X160469812Y-105658688D01*
X160880080Y-106068955D01*
X160852353Y-106087169D01*
X160781352Y-106192353D01*
X160756399Y-106316780D01*
X160756399Y-107570000D01*
X160641801Y-107570000D01*
X160641801Y-106316780D01*
X160618386Y-106196100D01*
X160548711Y-106090033D01*
X160505600Y-106060932D01*
X160505600Y-106025600D01*
X160471993Y-105856645D01*
X160376288Y-105713412D01*
X160376285Y-105713410D01*
X159826500Y-105163624D01*
X159826500Y-103611505D01*
X159826501Y-103611500D01*
X159792893Y-103442545D01*
X159756962Y-103388770D01*
X159697188Y-103299312D01*
X159697185Y-103299310D01*
X158824201Y-102426325D01*
X158824201Y-101678000D01*
X158800786Y-101557320D01*
X158731111Y-101451253D01*
X158625927Y-101380252D01*
X158501500Y-101355299D01*
X157601500Y-101355299D01*
X157480820Y-101378714D01*
X157374753Y-101448389D01*
X157303752Y-101553573D01*
X157278799Y-101678000D01*
X157278799Y-101836500D01*
X157173201Y-101836500D01*
X157173201Y-101678000D01*
X157149786Y-101557320D01*
X157080111Y-101451253D01*
X156974927Y-101380252D01*
X156850500Y-101355299D01*
X155950500Y-101355299D01*
X155829820Y-101378714D01*
X155723753Y-101448389D01*
X155652752Y-101553573D01*
X155627799Y-101678000D01*
X155627799Y-102878000D01*
X155651214Y-102998680D01*
X155720889Y-103104747D01*
X155826073Y-103175748D01*
X155950500Y-103200701D01*
X156850500Y-103200701D01*
X156971180Y-103177286D01*
X157077247Y-103107611D01*
X157148248Y-103002427D01*
X157173201Y-102878000D01*
X157173201Y-102719500D01*
X157278799Y-102719500D01*
X157278799Y-102878000D01*
X157302214Y-102998680D01*
X157371889Y-103104747D01*
X157477073Y-103175748D01*
X157601500Y-103200701D01*
X158349825Y-103200701D01*
X158943500Y-103794375D01*
X158943500Y-105346495D01*
X158943499Y-105346500D01*
X158977107Y-105515455D01*
X159072812Y-105658688D01*
X159549687Y-106135562D01*
X159511352Y-106192353D01*
X159486399Y-106316780D01*
X159486399Y-107570000D01*
X159371801Y-107570000D01*
X159371801Y-106316780D01*
X159348386Y-106196100D01*
X159278711Y-106090033D01*
X159173527Y-106019032D01*
X159049100Y-105994079D01*
X158539100Y-105994079D01*
X158493000Y-106003024D01*
X158493000Y-105400701D01*
X158501500Y-105400701D01*
X158622180Y-105377286D01*
X158728247Y-105307611D01*
X158799248Y-105202427D01*
X158824201Y-105078000D01*
X158824201Y-103878000D01*
X158800786Y-103757320D01*
X158731111Y-103651253D01*
X158625927Y-103580252D01*
X158501500Y-103555299D01*
X157601500Y-103555299D01*
X157480820Y-103578714D01*
X157374753Y-103648389D01*
X157303752Y-103753573D01*
X157278799Y-103878000D01*
X157278799Y-105078000D01*
X157302214Y-105198680D01*
X157371889Y-105304747D01*
X157477073Y-105375748D01*
X157601500Y-105400701D01*
X157610000Y-105400701D01*
X157610000Y-105862125D01*
X156143500Y-107328624D01*
X156143500Y-105400701D01*
X156850500Y-105400701D01*
X156971180Y-105377286D01*
X157077247Y-105307611D01*
X157148248Y-105202427D01*
X157173201Y-105078000D01*
X157173201Y-103878000D01*
X157149786Y-103757320D01*
X157080111Y-103651253D01*
X156974927Y-103580252D01*
X156850500Y-103555299D01*
X155950500Y-103555299D01*
X155829820Y-103578714D01*
X155723753Y-103648389D01*
X155652752Y-103753573D01*
X155627799Y-103878000D01*
X155627799Y-104626325D01*
X155408110Y-104846014D01*
X155409605Y-104838500D01*
X155319775Y-104386895D01*
X155063962Y-104004043D01*
X154681110Y-103748230D01*
X154229505Y-103658400D01*
X153872495Y-103658400D01*
X153420890Y-103748230D01*
X153038038Y-104004043D01*
X152782225Y-104386895D01*
X152692395Y-104838500D01*
X152782225Y-105290105D01*
X153038038Y-105672957D01*
X153420890Y-105928770D01*
X153872495Y-106018600D01*
X154229505Y-106018600D01*
X154681110Y-105928770D01*
X155063962Y-105672957D01*
X155260500Y-105378816D01*
X155260500Y-106838184D01*
X155063962Y-106544043D01*
X154681110Y-106288230D01*
X154229505Y-106198400D01*
X153872495Y-106198400D01*
X153420890Y-106288230D01*
X153038038Y-106544043D01*
X152782225Y-106926895D01*
X152692395Y-107378500D01*
X152730487Y-107570000D01*
X152143000Y-107570000D01*
X152143000Y-102544876D01*
X152767636Y-101920240D01*
X152692395Y-102298500D01*
X152782225Y-102750105D01*
X153038038Y-103132957D01*
X153420890Y-103388770D01*
X153872495Y-103478600D01*
X154229505Y-103478600D01*
X154681110Y-103388770D01*
X155063962Y-103132957D01*
X155319775Y-102750105D01*
X155409605Y-102298500D01*
X155319775Y-101846895D01*
X155063962Y-101464043D01*
X154692739Y-101216000D01*
X159095624Y-101216000D01*
X160009299Y-102129675D01*
X160009299Y-102878000D01*
X160032714Y-102998680D01*
X160102389Y-103104747D01*
X160207573Y-103175748D01*
X160332000Y-103200701D01*
X161232000Y-103200701D01*
X161352680Y-103177286D01*
X161458747Y-103107611D01*
X161529748Y-103002427D01*
X161554701Y-102878000D01*
X161554701Y-101678000D01*
X161531286Y-101557320D01*
X161461611Y-101451253D01*
X161356427Y-101380252D01*
X161232000Y-101355299D01*
X160483675Y-101355299D01*
X159590688Y-100462312D01*
X159581241Y-100456000D01*
X162070043Y-100456000D01*
X162037661Y-100488325D01*
X161943607Y-100714833D01*
X161943393Y-100960091D01*
X161991500Y-101076519D01*
X161991500Y-101355299D01*
X161983000Y-101355299D01*
X161862320Y-101378714D01*
X161756253Y-101448389D01*
X161685252Y-101553573D01*
X161660299Y-101678000D01*
X161660299Y-102878000D01*
X161683714Y-102998680D01*
X161753389Y-103104747D01*
X161858573Y-103175748D01*
X161983000Y-103200701D01*
X162883000Y-103200701D01*
X163003680Y-103177286D01*
X163109747Y-103107611D01*
X163180748Y-103002427D01*
X163205701Y-102878000D01*
X163205701Y-101678000D01*
X163182286Y-101557320D01*
X163112611Y-101451253D01*
X163007427Y-101380252D01*
X162909165Y-101360546D01*
X163082339Y-101187675D01*
X163176393Y-100961167D01*
X163176607Y-100715909D01*
X163082948Y-100489237D01*
X163049769Y-100456000D01*
X166561500Y-100456000D01*
X166561500Y-121476500D01*
M02*
