G04 #@! TF.FileFunction,Copper,L2,Bot,Signal*
%FSLAX46Y46*%
G04 Gerber Fmt 4.6, Leading zero omitted, Abs format (unit mm)*
G04 Created by KiCad (PCBNEW (2015-07-02 BZR 5871, Git 766da1e)-product) date 7/17/2015 2:49:37 PM*
%MOMM*%
G01*
G04 APERTURE LIST*
%ADD10C,0.100000*%
%ADD11R,1.600000X1.700000*%
%ADD12R,2.032000X1.727200*%
%ADD13O,2.032000X1.727200*%
%ADD14R,3.200000X3.200000*%
%ADD15O,3.200000X3.200000*%
%ADD16C,0.600000*%
%ADD17C,1.000000*%
%ADD18C,0.400000*%
%ADD19C,0.250000*%
%ADD20C,0.125000*%
G04 APERTURE END LIST*
D10*
D11*
X162623500Y-114789320D03*
X159148880Y-114789320D03*
D12*
X154051000Y-120078500D03*
D13*
X154051000Y-117538500D03*
X154051000Y-114998500D03*
X154051000Y-112458500D03*
X154051000Y-109918500D03*
X154051000Y-107378500D03*
X154051000Y-104838500D03*
X154051000Y-102298500D03*
D14*
X157924500Y-118808500D03*
D15*
X164274500Y-118808500D03*
D16*
X161798000Y-116586000D03*
X163004500Y-116840000D03*
X163830000Y-116141500D03*
X162623500Y-116141500D03*
D17*
X165417500Y-115062000D03*
X165417500Y-113792000D03*
X165417500Y-116332000D03*
D18*
X164719000Y-115697000D03*
X164744400Y-114427000D03*
D16*
X163893500Y-114744500D03*
X162623500Y-114789320D03*
X166103300Y-117284500D03*
X165912800Y-120523000D03*
X164287200Y-121031000D03*
X162699700Y-120548400D03*
X162026600Y-118821200D03*
X162115500Y-117449600D03*
D18*
X161493200Y-114782600D03*
X162636200Y-113868200D03*
X161925000Y-111125000D03*
X161925000Y-112141000D03*
X161340800Y-111125000D03*
X161353500Y-113284000D03*
X161925000Y-113284000D03*
X161334100Y-112166780D03*
D17*
X165417500Y-112522000D03*
X165417500Y-102362000D03*
X165417500Y-103632000D03*
X164147500Y-102362000D03*
X165417500Y-104902000D03*
X164147500Y-103632000D03*
X164147500Y-104902000D03*
X165417500Y-106172000D03*
X164147500Y-106172000D03*
X165417500Y-107442000D03*
X165417500Y-109982000D03*
X165417500Y-111252000D03*
X165417500Y-108712000D03*
D16*
X155638500Y-118795800D03*
X155638500Y-117602000D03*
X160248600Y-118808500D03*
X160210500Y-117665500D03*
X157924500Y-116497100D03*
X156845000Y-116522500D03*
X160210500Y-116522500D03*
X159067500Y-116459000D03*
X158369000Y-114808000D03*
X157543500Y-115379500D03*
X156464000Y-115379500D03*
X156464000Y-114363500D03*
X156464000Y-113347500D03*
X157543500Y-114363500D03*
X155790900Y-120954800D03*
X160147000Y-120954800D03*
X155752800Y-116586000D03*
X157924500Y-121081800D03*
D18*
X158178500Y-108648500D03*
X158178500Y-110045500D03*
D17*
X158813500Y-109347000D03*
D18*
X156908500Y-108648500D03*
X159448500Y-110045500D03*
D17*
X160083500Y-109347000D03*
D18*
X159448500Y-108648500D03*
X158794100Y-112166780D03*
D16*
X157543500Y-112331500D03*
X157543500Y-111379000D03*
D17*
X157543500Y-109347000D03*
D16*
X157543500Y-110426500D03*
X157543500Y-113347500D03*
X162560000Y-100838000D03*
D19*
X164274500Y-118808500D02*
X164274500Y-118110000D01*
X164274500Y-118110000D02*
X163004500Y-116840000D01*
X162623500Y-114789320D02*
X162623500Y-116141500D01*
X164287200Y-121031000D02*
X165404800Y-121031000D01*
X165404800Y-121031000D02*
X165912800Y-120523000D01*
X164274500Y-121018300D02*
X164287200Y-121031000D01*
X164274500Y-118808500D02*
X164274500Y-121018300D01*
X162026600Y-117538500D02*
X162026600Y-118821200D01*
X162115500Y-117449600D02*
X162026600Y-117538500D01*
X162623500Y-114789320D02*
X161499920Y-114789320D01*
X161499920Y-114789320D02*
X161493200Y-114782600D01*
X161290000Y-112141000D02*
X161308320Y-112141000D01*
X161308320Y-112141000D02*
X161334100Y-112166780D01*
X155638500Y-117602000D02*
X155638500Y-118795800D01*
X155651200Y-118808500D02*
X155638500Y-118795800D01*
X155651200Y-118808500D02*
X157924500Y-118808500D01*
X157924500Y-116497100D02*
X156870400Y-116497100D01*
X156870400Y-116497100D02*
X156845000Y-116522500D01*
X157924500Y-116497100D02*
X159029400Y-116497100D01*
X157924500Y-118808500D02*
X157924500Y-116497100D01*
X159029400Y-116497100D02*
X159067500Y-116459000D01*
X158369000Y-114808000D02*
X158387680Y-114789320D01*
X158387680Y-114789320D02*
X159148880Y-114789320D01*
X156464000Y-115379500D02*
X157543500Y-115379500D01*
X157543500Y-113347500D02*
X157543500Y-114363500D01*
X157924500Y-118808500D02*
X158000700Y-118808500D01*
X158000700Y-118808500D02*
X160147000Y-120954800D01*
X157924500Y-121081800D02*
X157924500Y-121094500D01*
X158813500Y-112147380D02*
X158813500Y-112141000D01*
X158794100Y-112166780D02*
X158813500Y-112147380D01*
X157543500Y-112331500D02*
X157543500Y-113347500D01*
X154051000Y-107378500D02*
X156019500Y-107378500D01*
X156019500Y-107378500D02*
X162560000Y-100838000D01*
D20*
G36*
X160910000Y-101863624D02*
X155836624Y-106937000D01*
X155321785Y-106937000D01*
X155319775Y-106926895D01*
X155063962Y-106544043D01*
X154681110Y-106288230D01*
X154229505Y-106198400D01*
X153872495Y-106198400D01*
X153420890Y-106288230D01*
X153038038Y-106544043D01*
X152782225Y-106926895D01*
X152692395Y-107378500D01*
X152782225Y-107830105D01*
X153038038Y-108212957D01*
X153420890Y-108468770D01*
X153872495Y-108558600D01*
X154229505Y-108558600D01*
X154681110Y-108468770D01*
X155063962Y-108212957D01*
X155319775Y-107830105D01*
X155321785Y-107820000D01*
X156019495Y-107820000D01*
X156019500Y-107820001D01*
X156188455Y-107786393D01*
X156331688Y-107690688D01*
X160910000Y-103112376D01*
X160910000Y-110825244D01*
X160903188Y-110832044D01*
X160824390Y-111021811D01*
X160824210Y-111227287D01*
X160902677Y-111417192D01*
X160910000Y-111424528D01*
X160910000Y-111860336D01*
X160896488Y-111873824D01*
X160817690Y-112063591D01*
X160817510Y-112269067D01*
X160895977Y-112458972D01*
X160910000Y-112473019D01*
X160910000Y-113005224D01*
X160837090Y-113180811D01*
X160836910Y-113386287D01*
X160910000Y-113563179D01*
X160910000Y-121476500D01*
X150494000Y-121476500D01*
X150494000Y-118892199D01*
X153035000Y-118892199D01*
X152914320Y-118915614D01*
X152808253Y-118985289D01*
X152737252Y-119090473D01*
X152712299Y-119214900D01*
X152712299Y-120942100D01*
X152735714Y-121062780D01*
X152805389Y-121168847D01*
X152910573Y-121239848D01*
X153035000Y-121264801D01*
X155067000Y-121264801D01*
X155187680Y-121241386D01*
X155293747Y-121171711D01*
X155364748Y-121066527D01*
X155389701Y-120942100D01*
X155389701Y-119214900D01*
X155366286Y-119094220D01*
X155304394Y-119000000D01*
X156087125Y-119000000D01*
X156008000Y-119079125D01*
X156008000Y-120471456D01*
X156056184Y-120587783D01*
X156145217Y-120676816D01*
X156261544Y-120725000D01*
X157653875Y-120725000D01*
X157733000Y-120645875D01*
X157733000Y-119000000D01*
X158116000Y-119000000D01*
X157733000Y-119000000D01*
X157733000Y-119000000D01*
X158116000Y-119000000D01*
X158116000Y-120645875D01*
X158195125Y-120725000D01*
X159587456Y-120725000D01*
X159703783Y-120676816D01*
X159792816Y-120587783D01*
X159841000Y-120471456D01*
X159841000Y-119079125D01*
X159761875Y-119000000D01*
X158116000Y-119000000D01*
X157733000Y-119000000D01*
X157733000Y-119000000D01*
X156087125Y-119000000D01*
X155304394Y-119000000D01*
X155296611Y-118988153D01*
X155191427Y-118917152D01*
X155067000Y-118892199D01*
X153035000Y-118892199D01*
X150494000Y-118892199D01*
X150494000Y-116358400D01*
X153872495Y-116358400D01*
X153420890Y-116448230D01*
X153038038Y-116704043D01*
X152782225Y-117086895D01*
X152692395Y-117538500D01*
X152782225Y-117990105D01*
X153038038Y-118372957D01*
X153420890Y-118628770D01*
X153872495Y-118718600D01*
X154229505Y-118718600D01*
X154681110Y-118628770D01*
X155063962Y-118372957D01*
X155319775Y-117990105D01*
X155409605Y-117538500D01*
X155319775Y-117086895D01*
X155189551Y-116892000D01*
X156261544Y-116892000D01*
X156145217Y-116940184D01*
X156056184Y-117029217D01*
X156008000Y-117145544D01*
X156008000Y-118537875D01*
X156087125Y-118617000D01*
X157733000Y-118617000D01*
X157733000Y-116971125D01*
X157653875Y-116892000D01*
X158195125Y-116892000D01*
X157653875Y-116892000D01*
X157653875Y-116892000D01*
X158195125Y-116892000D01*
X158116000Y-116971125D01*
X158116000Y-118617000D01*
X159761875Y-118617000D01*
X159841000Y-118537875D01*
X159841000Y-117145544D01*
X159792816Y-117029217D01*
X159703783Y-116940184D01*
X159587456Y-116892000D01*
X158195125Y-116892000D01*
X157653875Y-116892000D01*
X157653875Y-116892000D01*
X156261544Y-116892000D01*
X155189551Y-116892000D01*
X155063962Y-116704043D01*
X154681110Y-116448230D01*
X154229505Y-116358400D01*
X153872495Y-116358400D01*
X150494000Y-116358400D01*
X150494000Y-113818400D01*
X153872495Y-113818400D01*
X153420890Y-113908230D01*
X153038038Y-114164043D01*
X152782225Y-114546895D01*
X152692395Y-114998500D01*
X152782225Y-115450105D01*
X153038038Y-115832957D01*
X153420890Y-116088770D01*
X153872495Y-116178600D01*
X154229505Y-116178600D01*
X154681110Y-116088770D01*
X155063962Y-115832957D01*
X155319775Y-115450105D01*
X155409605Y-114998500D01*
X155406089Y-114980820D01*
X158111505Y-114980820D01*
X158032380Y-115059945D01*
X158032380Y-115702276D01*
X158080564Y-115818603D01*
X158169597Y-115907636D01*
X158285924Y-115955820D01*
X158878255Y-115955820D01*
X158957380Y-115876695D01*
X158957380Y-114980820D01*
X159340380Y-114980820D01*
X159340380Y-115876695D01*
X159419505Y-115955820D01*
X160011836Y-115955820D01*
X160128163Y-115907636D01*
X160217196Y-115818603D01*
X160265380Y-115702276D01*
X160265380Y-115059945D01*
X160186255Y-114980820D01*
X159340380Y-114980820D01*
X158957380Y-114980820D01*
X158957380Y-114980820D01*
X158111505Y-114980820D01*
X155406089Y-114980820D01*
X155319775Y-114546895D01*
X155063962Y-114164043D01*
X154681110Y-113908230D01*
X154229505Y-113818400D01*
X153872495Y-113818400D01*
X150494000Y-113818400D01*
X150494000Y-113671004D01*
X158169597Y-113671004D01*
X158080564Y-113760037D01*
X158032380Y-113876364D01*
X158032380Y-114518695D01*
X158111505Y-114597820D01*
X158957380Y-114597820D01*
X158957380Y-113701945D01*
X158878255Y-113622820D01*
X159419505Y-113622820D01*
X159340380Y-113701945D01*
X159340380Y-114597820D01*
X160186255Y-114597820D01*
X160265380Y-114518695D01*
X160265380Y-113876364D01*
X160217196Y-113760037D01*
X160128163Y-113671004D01*
X160011836Y-113622820D01*
X159419505Y-113622820D01*
X158878255Y-113622820D01*
X158878255Y-113622820D01*
X158285924Y-113622820D01*
X154308836Y-113622820D01*
X154681110Y-113548770D01*
X155063962Y-113292957D01*
X155319775Y-112910105D01*
X155409605Y-112458500D01*
X155319775Y-112006895D01*
X155063962Y-111624043D01*
X154681110Y-111368230D01*
X154229505Y-111278400D01*
X153872495Y-111278400D01*
X153420890Y-111368230D01*
X153038038Y-111624043D01*
X152782225Y-112006895D01*
X152692395Y-112458500D01*
X152782225Y-112910105D01*
X153038038Y-113292957D01*
X153420890Y-113548770D01*
X153872495Y-113638600D01*
X154229505Y-113638600D01*
X154308836Y-113622820D01*
X158285924Y-113622820D01*
X154308836Y-113622820D01*
X154308836Y-113622820D01*
X158285924Y-113622820D01*
X158169597Y-113671004D01*
X150494000Y-113671004D01*
X150494000Y-108738400D01*
X153872495Y-108738400D01*
X153420890Y-108828230D01*
X153038038Y-109084043D01*
X152782225Y-109466895D01*
X152692395Y-109918500D01*
X152782225Y-110370105D01*
X153038038Y-110752957D01*
X153420890Y-111008770D01*
X153872495Y-111098600D01*
X154229505Y-111098600D01*
X154681110Y-111008770D01*
X155063962Y-110752957D01*
X155319775Y-110370105D01*
X155409605Y-109918500D01*
X155319775Y-109466895D01*
X155063962Y-109084043D01*
X154681110Y-108828230D01*
X154229505Y-108738400D01*
X153872495Y-108738400D01*
X150494000Y-108738400D01*
X150494000Y-103658400D01*
X153872495Y-103658400D01*
X153420890Y-103748230D01*
X153038038Y-104004043D01*
X152782225Y-104386895D01*
X152692395Y-104838500D01*
X152782225Y-105290105D01*
X153038038Y-105672957D01*
X153420890Y-105928770D01*
X153872495Y-106018600D01*
X154229505Y-106018600D01*
X154681110Y-105928770D01*
X155063962Y-105672957D01*
X155319775Y-105290105D01*
X155409605Y-104838500D01*
X155319775Y-104386895D01*
X155063962Y-104004043D01*
X154681110Y-103748230D01*
X154229505Y-103658400D01*
X153872495Y-103658400D01*
X150494000Y-103658400D01*
X150494000Y-101118400D01*
X153872495Y-101118400D01*
X153420890Y-101208230D01*
X153038038Y-101464043D01*
X152782225Y-101846895D01*
X152692395Y-102298500D01*
X152782225Y-102750105D01*
X153038038Y-103132957D01*
X153420890Y-103388770D01*
X153872495Y-103478600D01*
X154229505Y-103478600D01*
X154681110Y-103388770D01*
X155063962Y-103132957D01*
X155319775Y-102750105D01*
X155409605Y-102298500D01*
X155319775Y-101846895D01*
X155063962Y-101464043D01*
X154681110Y-101208230D01*
X154229505Y-101118400D01*
X153872495Y-101118400D01*
X150494000Y-101118400D01*
X150494000Y-100519500D01*
X160910000Y-100519500D01*
X160910000Y-101863624D01*
X160910000Y-101863624D01*
G37*
X160910000Y-101863624D02*
X155836624Y-106937000D01*
X155321785Y-106937000D01*
X155319775Y-106926895D01*
X155063962Y-106544043D01*
X154681110Y-106288230D01*
X154229505Y-106198400D01*
X153872495Y-106198400D01*
X153420890Y-106288230D01*
X153038038Y-106544043D01*
X152782225Y-106926895D01*
X152692395Y-107378500D01*
X152782225Y-107830105D01*
X153038038Y-108212957D01*
X153420890Y-108468770D01*
X153872495Y-108558600D01*
X154229505Y-108558600D01*
X154681110Y-108468770D01*
X155063962Y-108212957D01*
X155319775Y-107830105D01*
X155321785Y-107820000D01*
X156019495Y-107820000D01*
X156019500Y-107820001D01*
X156188455Y-107786393D01*
X156331688Y-107690688D01*
X160910000Y-103112376D01*
X160910000Y-110825244D01*
X160903188Y-110832044D01*
X160824390Y-111021811D01*
X160824210Y-111227287D01*
X160902677Y-111417192D01*
X160910000Y-111424528D01*
X160910000Y-111860336D01*
X160896488Y-111873824D01*
X160817690Y-112063591D01*
X160817510Y-112269067D01*
X160895977Y-112458972D01*
X160910000Y-112473019D01*
X160910000Y-113005224D01*
X160837090Y-113180811D01*
X160836910Y-113386287D01*
X160910000Y-113563179D01*
X160910000Y-121476500D01*
X150494000Y-121476500D01*
X150494000Y-118892199D01*
X153035000Y-118892199D01*
X152914320Y-118915614D01*
X152808253Y-118985289D01*
X152737252Y-119090473D01*
X152712299Y-119214900D01*
X152712299Y-120942100D01*
X152735714Y-121062780D01*
X152805389Y-121168847D01*
X152910573Y-121239848D01*
X153035000Y-121264801D01*
X155067000Y-121264801D01*
X155187680Y-121241386D01*
X155293747Y-121171711D01*
X155364748Y-121066527D01*
X155389701Y-120942100D01*
X155389701Y-119214900D01*
X155366286Y-119094220D01*
X155304394Y-119000000D01*
X156087125Y-119000000D01*
X156008000Y-119079125D01*
X156008000Y-120471456D01*
X156056184Y-120587783D01*
X156145217Y-120676816D01*
X156261544Y-120725000D01*
X157653875Y-120725000D01*
X157733000Y-120645875D01*
X157733000Y-119000000D01*
X158116000Y-119000000D01*
X157733000Y-119000000D01*
X157733000Y-119000000D01*
X158116000Y-119000000D01*
X158116000Y-120645875D01*
X158195125Y-120725000D01*
X159587456Y-120725000D01*
X159703783Y-120676816D01*
X159792816Y-120587783D01*
X159841000Y-120471456D01*
X159841000Y-119079125D01*
X159761875Y-119000000D01*
X158116000Y-119000000D01*
X157733000Y-119000000D01*
X157733000Y-119000000D01*
X156087125Y-119000000D01*
X155304394Y-119000000D01*
X155296611Y-118988153D01*
X155191427Y-118917152D01*
X155067000Y-118892199D01*
X153035000Y-118892199D01*
X150494000Y-118892199D01*
X150494000Y-116358400D01*
X153872495Y-116358400D01*
X153420890Y-116448230D01*
X153038038Y-116704043D01*
X152782225Y-117086895D01*
X152692395Y-117538500D01*
X152782225Y-117990105D01*
X153038038Y-118372957D01*
X153420890Y-118628770D01*
X153872495Y-118718600D01*
X154229505Y-118718600D01*
X154681110Y-118628770D01*
X155063962Y-118372957D01*
X155319775Y-117990105D01*
X155409605Y-117538500D01*
X155319775Y-117086895D01*
X155189551Y-116892000D01*
X156261544Y-116892000D01*
X156145217Y-116940184D01*
X156056184Y-117029217D01*
X156008000Y-117145544D01*
X156008000Y-118537875D01*
X156087125Y-118617000D01*
X157733000Y-118617000D01*
X157733000Y-116971125D01*
X157653875Y-116892000D01*
X158195125Y-116892000D01*
X157653875Y-116892000D01*
X157653875Y-116892000D01*
X158195125Y-116892000D01*
X158116000Y-116971125D01*
X158116000Y-118617000D01*
X159761875Y-118617000D01*
X159841000Y-118537875D01*
X159841000Y-117145544D01*
X159792816Y-117029217D01*
X159703783Y-116940184D01*
X159587456Y-116892000D01*
X158195125Y-116892000D01*
X157653875Y-116892000D01*
X157653875Y-116892000D01*
X156261544Y-116892000D01*
X155189551Y-116892000D01*
X155063962Y-116704043D01*
X154681110Y-116448230D01*
X154229505Y-116358400D01*
X153872495Y-116358400D01*
X150494000Y-116358400D01*
X150494000Y-113818400D01*
X153872495Y-113818400D01*
X153420890Y-113908230D01*
X153038038Y-114164043D01*
X152782225Y-114546895D01*
X152692395Y-114998500D01*
X152782225Y-115450105D01*
X153038038Y-115832957D01*
X153420890Y-116088770D01*
X153872495Y-116178600D01*
X154229505Y-116178600D01*
X154681110Y-116088770D01*
X155063962Y-115832957D01*
X155319775Y-115450105D01*
X155409605Y-114998500D01*
X155406089Y-114980820D01*
X158111505Y-114980820D01*
X158032380Y-115059945D01*
X158032380Y-115702276D01*
X158080564Y-115818603D01*
X158169597Y-115907636D01*
X158285924Y-115955820D01*
X158878255Y-115955820D01*
X158957380Y-115876695D01*
X158957380Y-114980820D01*
X159340380Y-114980820D01*
X159340380Y-115876695D01*
X159419505Y-115955820D01*
X160011836Y-115955820D01*
X160128163Y-115907636D01*
X160217196Y-115818603D01*
X160265380Y-115702276D01*
X160265380Y-115059945D01*
X160186255Y-114980820D01*
X159340380Y-114980820D01*
X158957380Y-114980820D01*
X158957380Y-114980820D01*
X158111505Y-114980820D01*
X155406089Y-114980820D01*
X155319775Y-114546895D01*
X155063962Y-114164043D01*
X154681110Y-113908230D01*
X154229505Y-113818400D01*
X153872495Y-113818400D01*
X150494000Y-113818400D01*
X150494000Y-113671004D01*
X158169597Y-113671004D01*
X158080564Y-113760037D01*
X158032380Y-113876364D01*
X158032380Y-114518695D01*
X158111505Y-114597820D01*
X158957380Y-114597820D01*
X158957380Y-113701945D01*
X158878255Y-113622820D01*
X159419505Y-113622820D01*
X159340380Y-113701945D01*
X159340380Y-114597820D01*
X160186255Y-114597820D01*
X160265380Y-114518695D01*
X160265380Y-113876364D01*
X160217196Y-113760037D01*
X160128163Y-113671004D01*
X160011836Y-113622820D01*
X159419505Y-113622820D01*
X158878255Y-113622820D01*
X158878255Y-113622820D01*
X158285924Y-113622820D01*
X154308836Y-113622820D01*
X154681110Y-113548770D01*
X155063962Y-113292957D01*
X155319775Y-112910105D01*
X155409605Y-112458500D01*
X155319775Y-112006895D01*
X155063962Y-111624043D01*
X154681110Y-111368230D01*
X154229505Y-111278400D01*
X153872495Y-111278400D01*
X153420890Y-111368230D01*
X153038038Y-111624043D01*
X152782225Y-112006895D01*
X152692395Y-112458500D01*
X152782225Y-112910105D01*
X153038038Y-113292957D01*
X153420890Y-113548770D01*
X153872495Y-113638600D01*
X154229505Y-113638600D01*
X154308836Y-113622820D01*
X158285924Y-113622820D01*
X154308836Y-113622820D01*
X154308836Y-113622820D01*
X158285924Y-113622820D01*
X158169597Y-113671004D01*
X150494000Y-113671004D01*
X150494000Y-108738400D01*
X153872495Y-108738400D01*
X153420890Y-108828230D01*
X153038038Y-109084043D01*
X152782225Y-109466895D01*
X152692395Y-109918500D01*
X152782225Y-110370105D01*
X153038038Y-110752957D01*
X153420890Y-111008770D01*
X153872495Y-111098600D01*
X154229505Y-111098600D01*
X154681110Y-111008770D01*
X155063962Y-110752957D01*
X155319775Y-110370105D01*
X155409605Y-109918500D01*
X155319775Y-109466895D01*
X155063962Y-109084043D01*
X154681110Y-108828230D01*
X154229505Y-108738400D01*
X153872495Y-108738400D01*
X150494000Y-108738400D01*
X150494000Y-103658400D01*
X153872495Y-103658400D01*
X153420890Y-103748230D01*
X153038038Y-104004043D01*
X152782225Y-104386895D01*
X152692395Y-104838500D01*
X152782225Y-105290105D01*
X153038038Y-105672957D01*
X153420890Y-105928770D01*
X153872495Y-106018600D01*
X154229505Y-106018600D01*
X154681110Y-105928770D01*
X155063962Y-105672957D01*
X155319775Y-105290105D01*
X155409605Y-104838500D01*
X155319775Y-104386895D01*
X155063962Y-104004043D01*
X154681110Y-103748230D01*
X154229505Y-103658400D01*
X153872495Y-103658400D01*
X150494000Y-103658400D01*
X150494000Y-101118400D01*
X153872495Y-101118400D01*
X153420890Y-101208230D01*
X153038038Y-101464043D01*
X152782225Y-101846895D01*
X152692395Y-102298500D01*
X152782225Y-102750105D01*
X153038038Y-103132957D01*
X153420890Y-103388770D01*
X153872495Y-103478600D01*
X154229505Y-103478600D01*
X154681110Y-103388770D01*
X155063962Y-103132957D01*
X155319775Y-102750105D01*
X155409605Y-102298500D01*
X155319775Y-101846895D01*
X155063962Y-101464043D01*
X154681110Y-101208230D01*
X154229505Y-101118400D01*
X153872495Y-101118400D01*
X150494000Y-101118400D01*
X150494000Y-100519500D01*
X160910000Y-100519500D01*
X160910000Y-101863624D01*
G36*
X166561500Y-121476500D02*
X161352500Y-121476500D01*
X161352500Y-119000000D01*
X162446705Y-119000000D01*
X162421015Y-119295950D01*
X162748642Y-119968143D01*
X163308567Y-120463791D01*
X163787052Y-120661974D01*
X164083000Y-120635868D01*
X164083000Y-119000000D01*
X164466000Y-119000000D01*
X164083000Y-119000000D01*
X164083000Y-119000000D01*
X164466000Y-119000000D01*
X164466000Y-120635868D01*
X164761948Y-120661974D01*
X165240433Y-120463791D01*
X165800358Y-119968143D01*
X166127985Y-119295950D01*
X166102295Y-119000000D01*
X164466000Y-119000000D01*
X164083000Y-119000000D01*
X164083000Y-119000000D01*
X162446705Y-119000000D01*
X161352500Y-119000000D01*
X161352500Y-117153209D01*
X163308567Y-117153209D01*
X162748642Y-117648857D01*
X162421015Y-118321050D01*
X162446705Y-118617000D01*
X164083000Y-118617000D01*
X164083000Y-116981132D01*
X164466000Y-116981132D01*
X164466000Y-118617000D01*
X166102295Y-118617000D01*
X166127985Y-118321050D01*
X165800358Y-117648857D01*
X165240433Y-117153209D01*
X164761948Y-116955026D01*
X164466000Y-116981132D01*
X164083000Y-116981132D01*
X164083000Y-116981132D01*
X163787052Y-116955026D01*
X163308567Y-117153209D01*
X161352500Y-117153209D01*
X161352500Y-114980820D01*
X161586125Y-114980820D01*
X161507000Y-115059945D01*
X161507000Y-115702276D01*
X161555184Y-115818603D01*
X161644217Y-115907636D01*
X161760544Y-115955820D01*
X162352875Y-115955820D01*
X162432000Y-115876695D01*
X162432000Y-114980820D01*
X162815000Y-114980820D01*
X162432000Y-114980820D01*
X162432000Y-114980820D01*
X162815000Y-114980820D01*
X162815000Y-115876695D01*
X162894125Y-115955820D01*
X163486456Y-115955820D01*
X163602783Y-115907636D01*
X163691816Y-115818603D01*
X163740000Y-115702276D01*
X163740000Y-115059945D01*
X163660875Y-114980820D01*
X162815000Y-114980820D01*
X162432000Y-114980820D01*
X162432000Y-114980820D01*
X161586125Y-114980820D01*
X161352500Y-114980820D01*
X161352500Y-113622820D01*
X161760544Y-113622820D01*
X161644217Y-113671004D01*
X161555184Y-113760037D01*
X161507000Y-113876364D01*
X161507000Y-114518695D01*
X161586125Y-114597820D01*
X162432000Y-114597820D01*
X162432000Y-113701945D01*
X162352875Y-113622820D01*
X162894125Y-113622820D01*
X162815000Y-113701945D01*
X162815000Y-114597820D01*
X163660875Y-114597820D01*
X163740000Y-114518695D01*
X163740000Y-113876364D01*
X163691816Y-113760037D01*
X163602783Y-113671004D01*
X163486456Y-113622820D01*
X162894125Y-113622820D01*
X162352875Y-113622820D01*
X162352875Y-113622820D01*
X161760544Y-113622820D01*
X161352500Y-113622820D01*
X161352500Y-102669876D01*
X162567869Y-101454507D01*
X162682091Y-101454607D01*
X162908763Y-101360948D01*
X163082339Y-101187675D01*
X163176393Y-100961167D01*
X163176607Y-100715909D01*
X163082948Y-100489237D01*
X163049769Y-100456000D01*
X166561500Y-100456000D01*
X166561500Y-121476500D01*
X166561500Y-121476500D01*
G37*
X166561500Y-121476500D02*
X161352500Y-121476500D01*
X161352500Y-119000000D01*
X162446705Y-119000000D01*
X162421015Y-119295950D01*
X162748642Y-119968143D01*
X163308567Y-120463791D01*
X163787052Y-120661974D01*
X164083000Y-120635868D01*
X164083000Y-119000000D01*
X164466000Y-119000000D01*
X164083000Y-119000000D01*
X164083000Y-119000000D01*
X164466000Y-119000000D01*
X164466000Y-120635868D01*
X164761948Y-120661974D01*
X165240433Y-120463791D01*
X165800358Y-119968143D01*
X166127985Y-119295950D01*
X166102295Y-119000000D01*
X164466000Y-119000000D01*
X164083000Y-119000000D01*
X164083000Y-119000000D01*
X162446705Y-119000000D01*
X161352500Y-119000000D01*
X161352500Y-117153209D01*
X163308567Y-117153209D01*
X162748642Y-117648857D01*
X162421015Y-118321050D01*
X162446705Y-118617000D01*
X164083000Y-118617000D01*
X164083000Y-116981132D01*
X164466000Y-116981132D01*
X164466000Y-118617000D01*
X166102295Y-118617000D01*
X166127985Y-118321050D01*
X165800358Y-117648857D01*
X165240433Y-117153209D01*
X164761948Y-116955026D01*
X164466000Y-116981132D01*
X164083000Y-116981132D01*
X164083000Y-116981132D01*
X163787052Y-116955026D01*
X163308567Y-117153209D01*
X161352500Y-117153209D01*
X161352500Y-114980820D01*
X161586125Y-114980820D01*
X161507000Y-115059945D01*
X161507000Y-115702276D01*
X161555184Y-115818603D01*
X161644217Y-115907636D01*
X161760544Y-115955820D01*
X162352875Y-115955820D01*
X162432000Y-115876695D01*
X162432000Y-114980820D01*
X162815000Y-114980820D01*
X162432000Y-114980820D01*
X162432000Y-114980820D01*
X162815000Y-114980820D01*
X162815000Y-115876695D01*
X162894125Y-115955820D01*
X163486456Y-115955820D01*
X163602783Y-115907636D01*
X163691816Y-115818603D01*
X163740000Y-115702276D01*
X163740000Y-115059945D01*
X163660875Y-114980820D01*
X162815000Y-114980820D01*
X162432000Y-114980820D01*
X162432000Y-114980820D01*
X161586125Y-114980820D01*
X161352500Y-114980820D01*
X161352500Y-113622820D01*
X161760544Y-113622820D01*
X161644217Y-113671004D01*
X161555184Y-113760037D01*
X161507000Y-113876364D01*
X161507000Y-114518695D01*
X161586125Y-114597820D01*
X162432000Y-114597820D01*
X162432000Y-113701945D01*
X162352875Y-113622820D01*
X162894125Y-113622820D01*
X162815000Y-113701945D01*
X162815000Y-114597820D01*
X163660875Y-114597820D01*
X163740000Y-114518695D01*
X163740000Y-113876364D01*
X163691816Y-113760037D01*
X163602783Y-113671004D01*
X163486456Y-113622820D01*
X162894125Y-113622820D01*
X162352875Y-113622820D01*
X162352875Y-113622820D01*
X161760544Y-113622820D01*
X161352500Y-113622820D01*
X161352500Y-102669876D01*
X162567869Y-101454507D01*
X162682091Y-101454607D01*
X162908763Y-101360948D01*
X163082339Y-101187675D01*
X163176393Y-100961167D01*
X163176607Y-100715909D01*
X163082948Y-100489237D01*
X163049769Y-100456000D01*
X166561500Y-100456000D01*
X166561500Y-121476500D01*
M02*
