G04 (created by PCBNEW (2013-07-07 BZR 4022)-stable) date 08/12/2013 20:44:26*
%MOIN*%
G04 Gerber Fmt 3.4, Leading zero omitted, Abs format*
%FSLAX34Y34*%
G01*
G70*
G90*
G04 APERTURE LIST*
%ADD10C,0.00590551*%
%ADD11C,0.0001*%
G04 APERTURE END LIST*
G54D10*
G54D11*
G36*
X41317Y-51983D02*
X41315Y-52150D01*
X41309Y-52269D01*
X41294Y-52358D01*
X41269Y-52435D01*
X41229Y-52520D01*
X41224Y-52530D01*
X41150Y-52646D01*
X41150Y-52467D01*
X41101Y-52435D01*
X41086Y-52433D01*
X41058Y-52400D01*
X41024Y-52302D01*
X40985Y-52138D01*
X40969Y-52058D01*
X40938Y-51903D01*
X40911Y-51768D01*
X40890Y-51669D01*
X40879Y-51625D01*
X40885Y-51576D01*
X40914Y-51567D01*
X40960Y-51541D01*
X40967Y-51517D01*
X40956Y-51494D01*
X40918Y-51480D01*
X40842Y-51471D01*
X40718Y-51467D01*
X40589Y-51467D01*
X40211Y-51467D01*
X40226Y-51567D01*
X40249Y-51637D01*
X40285Y-51666D01*
X40286Y-51667D01*
X40316Y-51643D01*
X40312Y-51616D01*
X40312Y-51588D01*
X40350Y-51573D01*
X40436Y-51567D01*
X40491Y-51567D01*
X40689Y-51567D01*
X40722Y-51750D01*
X40755Y-51933D01*
X40627Y-51933D01*
X40546Y-51925D01*
X40502Y-51906D01*
X40500Y-51900D01*
X40473Y-51870D01*
X40454Y-51867D01*
X40425Y-51885D01*
X40426Y-51950D01*
X40430Y-51972D01*
X40455Y-52040D01*
X40489Y-52088D01*
X40520Y-52102D01*
X40533Y-52070D01*
X40533Y-52069D01*
X40563Y-52046D01*
X40636Y-52034D01*
X40664Y-52033D01*
X40795Y-52033D01*
X40818Y-52218D01*
X40828Y-52322D01*
X40828Y-52398D01*
X40823Y-52421D01*
X40775Y-52433D01*
X40693Y-52427D01*
X40599Y-52409D01*
X40517Y-52384D01*
X40470Y-52356D01*
X40467Y-52347D01*
X40440Y-52305D01*
X40417Y-52300D01*
X40377Y-52330D01*
X40367Y-52400D01*
X40367Y-52500D01*
X40768Y-52500D01*
X40953Y-52497D01*
X41079Y-52490D01*
X41143Y-52477D01*
X41150Y-52467D01*
X41150Y-52646D01*
X41054Y-52798D01*
X40849Y-53010D01*
X40610Y-53165D01*
X40402Y-53246D01*
X40233Y-53279D01*
X40233Y-52467D01*
X40206Y-52437D01*
X40183Y-52433D01*
X40139Y-52427D01*
X40133Y-52421D01*
X40127Y-52386D01*
X40110Y-52298D01*
X40084Y-52170D01*
X40053Y-52016D01*
X40050Y-52000D01*
X40014Y-51823D01*
X39989Y-51702D01*
X39976Y-51626D01*
X39973Y-51585D01*
X39979Y-51568D01*
X39994Y-51565D01*
X40017Y-51567D01*
X40061Y-51540D01*
X40067Y-51517D01*
X40056Y-51494D01*
X40018Y-51480D01*
X39942Y-51471D01*
X39818Y-51467D01*
X39689Y-51467D01*
X39311Y-51467D01*
X39326Y-51567D01*
X39349Y-51637D01*
X39385Y-51666D01*
X39386Y-51667D01*
X39416Y-51643D01*
X39412Y-51617D01*
X39413Y-51587D01*
X39451Y-51572D01*
X39540Y-51567D01*
X39578Y-51567D01*
X39682Y-51571D01*
X39756Y-51583D01*
X39779Y-51593D01*
X39793Y-51640D01*
X39809Y-51728D01*
X39819Y-51793D01*
X39842Y-51967D01*
X39727Y-51967D01*
X39638Y-51956D01*
X39576Y-51929D01*
X39574Y-51927D01*
X39530Y-51900D01*
X39515Y-51933D01*
X39523Y-52008D01*
X39550Y-52067D01*
X39589Y-52100D01*
X39623Y-52098D01*
X39633Y-52067D01*
X39661Y-52042D01*
X39726Y-52033D01*
X39801Y-52040D01*
X39861Y-52061D01*
X39877Y-52079D01*
X39892Y-52138D01*
X39910Y-52234D01*
X39918Y-52279D01*
X39928Y-52374D01*
X39921Y-52420D01*
X39891Y-52433D01*
X39887Y-52433D01*
X39840Y-52450D01*
X39833Y-52467D01*
X39864Y-52484D01*
X39943Y-52496D01*
X40033Y-52500D01*
X40140Y-52495D01*
X40212Y-52482D01*
X40233Y-52467D01*
X40233Y-53279D01*
X40225Y-53281D01*
X40020Y-53295D01*
X39815Y-53288D01*
X39639Y-53260D01*
X39609Y-53251D01*
X39374Y-53147D01*
X39152Y-52993D01*
X38962Y-52802D01*
X38819Y-52589D01*
X38807Y-52564D01*
X38731Y-52358D01*
X38685Y-52127D01*
X38675Y-51905D01*
X38680Y-51844D01*
X38701Y-51710D01*
X38728Y-51602D01*
X38757Y-51532D01*
X38785Y-51513D01*
X38793Y-51521D01*
X38844Y-51563D01*
X38864Y-51572D01*
X38894Y-51613D01*
X38930Y-51719D01*
X38970Y-51885D01*
X38987Y-51968D01*
X39023Y-52151D01*
X39046Y-52278D01*
X39058Y-52360D01*
X39059Y-52406D01*
X39049Y-52427D01*
X39030Y-52433D01*
X39017Y-52433D01*
X38972Y-52451D01*
X38967Y-52467D01*
X38997Y-52484D01*
X39076Y-52496D01*
X39167Y-52500D01*
X39280Y-52494D01*
X39350Y-52478D01*
X39369Y-52456D01*
X39330Y-52432D01*
X39306Y-52425D01*
X39275Y-52403D01*
X39248Y-52349D01*
X39221Y-52251D01*
X39191Y-52099D01*
X39188Y-52080D01*
X39161Y-51928D01*
X39136Y-51793D01*
X39117Y-51692D01*
X39111Y-51658D01*
X39106Y-51590D01*
X39137Y-51567D01*
X39145Y-51566D01*
X39182Y-51546D01*
X39179Y-51516D01*
X39145Y-51486D01*
X39068Y-51470D01*
X38960Y-51466D01*
X38761Y-51467D01*
X38836Y-51342D01*
X38985Y-51141D01*
X39176Y-50958D01*
X39387Y-50814D01*
X39433Y-50790D01*
X39533Y-50742D01*
X39616Y-50712D01*
X39702Y-50694D01*
X39809Y-50686D01*
X39958Y-50684D01*
X40016Y-50684D01*
X40183Y-50686D01*
X40303Y-50692D01*
X40394Y-50707D01*
X40475Y-50734D01*
X40566Y-50775D01*
X40581Y-50782D01*
X40791Y-50915D01*
X40986Y-51093D01*
X41148Y-51296D01*
X41221Y-51422D01*
X41264Y-51515D01*
X41292Y-51596D01*
X41307Y-51685D01*
X41315Y-51801D01*
X41316Y-51963D01*
X41317Y-51983D01*
X41317Y-51983D01*
X41317Y-51983D01*
G37*
G36*
X61317Y-60483D02*
X61315Y-60650D01*
X61309Y-60769D01*
X61294Y-60858D01*
X61269Y-60935D01*
X61229Y-61020D01*
X61224Y-61030D01*
X61150Y-61146D01*
X61150Y-60967D01*
X61101Y-60935D01*
X61086Y-60933D01*
X61058Y-60900D01*
X61024Y-60802D01*
X60985Y-60638D01*
X60969Y-60558D01*
X60938Y-60403D01*
X60911Y-60268D01*
X60890Y-60169D01*
X60879Y-60125D01*
X60885Y-60076D01*
X60914Y-60067D01*
X60960Y-60041D01*
X60967Y-60017D01*
X60956Y-59994D01*
X60918Y-59980D01*
X60842Y-59971D01*
X60718Y-59967D01*
X60589Y-59967D01*
X60211Y-59967D01*
X60226Y-60067D01*
X60249Y-60137D01*
X60285Y-60166D01*
X60286Y-60167D01*
X60316Y-60143D01*
X60312Y-60116D01*
X60312Y-60088D01*
X60350Y-60073D01*
X60436Y-60067D01*
X60491Y-60067D01*
X60689Y-60067D01*
X60722Y-60250D01*
X60755Y-60433D01*
X60627Y-60433D01*
X60546Y-60425D01*
X60502Y-60406D01*
X60500Y-60400D01*
X60473Y-60370D01*
X60454Y-60367D01*
X60425Y-60385D01*
X60426Y-60450D01*
X60430Y-60472D01*
X60455Y-60540D01*
X60489Y-60588D01*
X60520Y-60602D01*
X60533Y-60570D01*
X60533Y-60569D01*
X60563Y-60546D01*
X60636Y-60534D01*
X60664Y-60533D01*
X60795Y-60533D01*
X60818Y-60718D01*
X60828Y-60822D01*
X60828Y-60898D01*
X60823Y-60921D01*
X60775Y-60933D01*
X60693Y-60927D01*
X60599Y-60909D01*
X60517Y-60884D01*
X60470Y-60856D01*
X60467Y-60847D01*
X60440Y-60805D01*
X60417Y-60800D01*
X60377Y-60830D01*
X60367Y-60900D01*
X60367Y-61000D01*
X60768Y-61000D01*
X60953Y-60997D01*
X61079Y-60990D01*
X61143Y-60977D01*
X61150Y-60967D01*
X61150Y-61146D01*
X61054Y-61298D01*
X60849Y-61510D01*
X60610Y-61665D01*
X60402Y-61746D01*
X60233Y-61779D01*
X60233Y-60967D01*
X60206Y-60937D01*
X60183Y-60933D01*
X60139Y-60927D01*
X60133Y-60921D01*
X60127Y-60886D01*
X60110Y-60798D01*
X60084Y-60670D01*
X60053Y-60516D01*
X60050Y-60500D01*
X60014Y-60323D01*
X59989Y-60202D01*
X59976Y-60126D01*
X59973Y-60085D01*
X59979Y-60068D01*
X59994Y-60065D01*
X60017Y-60067D01*
X60061Y-60040D01*
X60067Y-60017D01*
X60056Y-59994D01*
X60018Y-59980D01*
X59942Y-59971D01*
X59818Y-59967D01*
X59689Y-59967D01*
X59311Y-59967D01*
X59326Y-60067D01*
X59349Y-60137D01*
X59385Y-60166D01*
X59386Y-60167D01*
X59416Y-60143D01*
X59412Y-60117D01*
X59413Y-60087D01*
X59451Y-60072D01*
X59540Y-60067D01*
X59578Y-60067D01*
X59682Y-60071D01*
X59756Y-60083D01*
X59779Y-60093D01*
X59793Y-60140D01*
X59809Y-60228D01*
X59819Y-60293D01*
X59842Y-60467D01*
X59727Y-60467D01*
X59638Y-60456D01*
X59576Y-60429D01*
X59574Y-60427D01*
X59530Y-60400D01*
X59515Y-60433D01*
X59523Y-60508D01*
X59550Y-60567D01*
X59589Y-60600D01*
X59623Y-60598D01*
X59633Y-60567D01*
X59661Y-60542D01*
X59726Y-60533D01*
X59801Y-60540D01*
X59861Y-60561D01*
X59877Y-60579D01*
X59892Y-60638D01*
X59910Y-60734D01*
X59918Y-60779D01*
X59928Y-60874D01*
X59921Y-60920D01*
X59891Y-60933D01*
X59887Y-60933D01*
X59840Y-60950D01*
X59833Y-60967D01*
X59864Y-60984D01*
X59943Y-60996D01*
X60033Y-61000D01*
X60140Y-60995D01*
X60212Y-60982D01*
X60233Y-60967D01*
X60233Y-61779D01*
X60225Y-61781D01*
X60020Y-61795D01*
X59815Y-61788D01*
X59639Y-61760D01*
X59609Y-61751D01*
X59374Y-61647D01*
X59152Y-61493D01*
X58962Y-61302D01*
X58819Y-61089D01*
X58807Y-61064D01*
X58731Y-60858D01*
X58685Y-60627D01*
X58675Y-60405D01*
X58680Y-60344D01*
X58701Y-60210D01*
X58728Y-60102D01*
X58757Y-60032D01*
X58785Y-60013D01*
X58793Y-60021D01*
X58844Y-60063D01*
X58864Y-60072D01*
X58894Y-60113D01*
X58930Y-60219D01*
X58970Y-60385D01*
X58987Y-60468D01*
X59023Y-60651D01*
X59046Y-60778D01*
X59058Y-60860D01*
X59059Y-60906D01*
X59049Y-60927D01*
X59030Y-60933D01*
X59017Y-60933D01*
X58972Y-60951D01*
X58967Y-60967D01*
X58997Y-60984D01*
X59076Y-60996D01*
X59167Y-61000D01*
X59280Y-60994D01*
X59350Y-60978D01*
X59369Y-60956D01*
X59330Y-60932D01*
X59306Y-60925D01*
X59275Y-60903D01*
X59248Y-60849D01*
X59221Y-60751D01*
X59191Y-60599D01*
X59188Y-60580D01*
X59161Y-60428D01*
X59136Y-60293D01*
X59117Y-60192D01*
X59111Y-60158D01*
X59106Y-60090D01*
X59137Y-60067D01*
X59145Y-60066D01*
X59182Y-60046D01*
X59179Y-60016D01*
X59145Y-59986D01*
X59068Y-59970D01*
X58960Y-59966D01*
X58761Y-59967D01*
X58836Y-59842D01*
X58985Y-59641D01*
X59176Y-59458D01*
X59387Y-59314D01*
X59433Y-59290D01*
X59533Y-59242D01*
X59616Y-59212D01*
X59702Y-59194D01*
X59809Y-59186D01*
X59958Y-59184D01*
X60016Y-59184D01*
X60183Y-59186D01*
X60303Y-59192D01*
X60394Y-59207D01*
X60475Y-59234D01*
X60566Y-59275D01*
X60581Y-59282D01*
X60791Y-59415D01*
X60986Y-59593D01*
X61148Y-59796D01*
X61221Y-59922D01*
X61264Y-60015D01*
X61292Y-60096D01*
X61307Y-60185D01*
X61315Y-60301D01*
X61316Y-60463D01*
X61317Y-60483D01*
X61317Y-60483D01*
X61317Y-60483D01*
G37*
M02*
