G04 (created by PCBNEW (2013-07-07 BZR 4022)-stable) date 08/12/2013 20:44:26*
%MOIN*%
G04 Gerber Fmt 3.4, Leading zero omitted, Abs format*
%FSLAX34Y34*%
G01*
G70*
G90*
G04 APERTURE LIST*
%ADD10C,0.00590551*%
%ADD11C,0.11811*%
%ADD12R,0.08X0.06*%
%ADD13R,0.06X0.06*%
%ADD14C,0.06*%
%ADD15R,0.06X0.08*%
%ADD16R,0.0709X0.0629*%
%ADD17R,0.0236X0.0394*%
%ADD18R,0.025X0.05*%
%ADD19R,0.055X0.055*%
%ADD20C,0.055*%
G04 APERTURE END LIST*
G54D10*
G54D11*
X36500Y-66750D03*
X64500Y-48000D03*
X36500Y-48000D03*
G54D12*
X58250Y-65650D03*
X58250Y-64350D03*
X57000Y-64350D03*
X57000Y-65650D03*
G54D13*
X64000Y-58250D03*
G54D14*
X65000Y-58250D03*
X64000Y-59250D03*
X65000Y-59250D03*
X64000Y-60250D03*
X65000Y-60250D03*
X64000Y-61250D03*
X65000Y-61250D03*
X64000Y-62250D03*
X65000Y-62250D03*
X64000Y-63250D03*
X65000Y-63250D03*
X64000Y-64250D03*
X65000Y-64250D03*
X64000Y-65250D03*
X65000Y-65250D03*
X64000Y-66250D03*
X65000Y-66250D03*
X64000Y-67250D03*
X65000Y-67250D03*
G54D12*
X38250Y-66900D03*
X38250Y-65600D03*
X60750Y-64350D03*
X60750Y-65650D03*
X59500Y-65650D03*
X59500Y-64350D03*
X39500Y-65900D03*
X39500Y-64600D03*
X58250Y-62650D03*
X58250Y-61350D03*
X57000Y-61350D03*
X57000Y-62650D03*
X38250Y-63650D03*
X38250Y-62350D03*
X39500Y-62400D03*
X39500Y-61100D03*
X59500Y-62650D03*
X59500Y-61350D03*
X60750Y-61350D03*
X60750Y-62650D03*
X48500Y-66150D03*
X48500Y-64850D03*
X42000Y-65850D03*
X42000Y-67150D03*
X47250Y-65850D03*
X47250Y-67150D03*
X49750Y-66150D03*
X49750Y-64850D03*
X46000Y-65850D03*
X46000Y-67150D03*
X51500Y-62850D03*
X51500Y-64150D03*
X40750Y-65850D03*
X40750Y-67150D03*
X48500Y-62900D03*
X48500Y-61600D03*
X42000Y-62350D03*
X42000Y-63650D03*
X46000Y-62350D03*
X46000Y-63650D03*
X40750Y-62350D03*
X40750Y-63650D03*
X58250Y-59400D03*
X58250Y-58100D03*
X40750Y-59100D03*
X40750Y-60400D03*
X46000Y-59100D03*
X46000Y-60400D03*
X42000Y-59100D03*
X42000Y-60400D03*
X48500Y-59650D03*
X48500Y-58350D03*
G54D15*
X44600Y-65000D03*
X45900Y-65000D03*
X42350Y-65000D03*
X43650Y-65000D03*
G54D12*
X38250Y-60400D03*
X38250Y-59100D03*
X57000Y-58100D03*
X57000Y-59400D03*
G54D15*
X54600Y-54750D03*
X55900Y-54750D03*
G54D13*
X51500Y-54500D03*
G54D14*
X52500Y-54500D03*
X53500Y-54500D03*
G54D16*
X55750Y-52691D03*
X55750Y-53809D03*
G54D17*
X42875Y-63666D03*
X43250Y-62834D03*
X43625Y-63666D03*
X44375Y-53416D03*
X44750Y-52584D03*
X45125Y-53416D03*
X42875Y-53416D03*
X43250Y-52584D03*
X43625Y-53416D03*
X44375Y-66916D03*
X44750Y-66084D03*
X45125Y-66916D03*
X44375Y-63666D03*
X44750Y-62834D03*
X45125Y-63666D03*
G54D12*
X58250Y-52650D03*
X58250Y-51350D03*
X57000Y-51350D03*
X57000Y-52650D03*
X38250Y-52100D03*
X38250Y-53400D03*
X39500Y-52150D03*
X39500Y-50850D03*
X59500Y-52650D03*
X59500Y-51350D03*
X60750Y-51350D03*
X60750Y-52650D03*
X48500Y-52900D03*
X48500Y-51600D03*
X49750Y-52900D03*
X49750Y-51600D03*
X42000Y-52100D03*
X42000Y-53400D03*
X46000Y-52100D03*
X46000Y-53400D03*
X47250Y-52100D03*
X47250Y-53400D03*
X40750Y-52100D03*
X40750Y-53400D03*
G54D17*
X42875Y-66916D03*
X43250Y-66084D03*
X43625Y-66916D03*
G54D13*
X36250Y-50250D03*
G54D14*
X36250Y-51250D03*
X36250Y-52250D03*
X36250Y-53250D03*
X36250Y-54250D03*
X36250Y-55250D03*
G54D12*
X49750Y-62900D03*
X49750Y-61600D03*
X47250Y-62350D03*
X47250Y-63650D03*
X51500Y-50900D03*
X51500Y-49600D03*
X49750Y-59650D03*
X49750Y-58350D03*
X47250Y-59100D03*
X47250Y-60400D03*
X39500Y-59150D03*
X39500Y-57850D03*
X47250Y-55850D03*
X47250Y-57150D03*
X49750Y-56150D03*
X49750Y-54850D03*
X51500Y-56600D03*
X51500Y-57900D03*
X57000Y-54850D03*
X57000Y-56150D03*
X58250Y-56150D03*
X58250Y-54850D03*
X40750Y-55850D03*
X40750Y-57150D03*
X46000Y-55850D03*
X46000Y-57150D03*
X42000Y-55850D03*
X42000Y-57150D03*
X48500Y-56150D03*
X48500Y-54850D03*
X60750Y-54850D03*
X60750Y-56150D03*
X59500Y-56150D03*
X59500Y-54850D03*
X39500Y-55650D03*
X39500Y-54350D03*
X38250Y-57150D03*
X38250Y-55850D03*
G54D17*
X44375Y-60416D03*
X44750Y-59584D03*
X45125Y-60416D03*
X42875Y-60416D03*
X43250Y-59584D03*
X43625Y-60416D03*
X44375Y-56916D03*
X44750Y-56084D03*
X45125Y-56916D03*
X42875Y-56916D03*
X43250Y-56084D03*
X43625Y-56916D03*
G54D15*
X42350Y-61500D03*
X43650Y-61500D03*
X44600Y-61500D03*
X45900Y-61500D03*
X42350Y-58250D03*
X43650Y-58250D03*
X44600Y-58250D03*
X45900Y-58250D03*
X44600Y-51250D03*
X45900Y-51250D03*
X42350Y-51250D03*
X43650Y-51250D03*
X44600Y-54750D03*
X45900Y-54750D03*
X42350Y-54750D03*
X43650Y-54750D03*
G54D12*
X59500Y-59400D03*
X59500Y-58100D03*
X60750Y-58100D03*
X60750Y-59400D03*
G54D18*
X55500Y-62400D03*
X55000Y-62400D03*
X54500Y-62400D03*
X54000Y-62400D03*
X53500Y-62400D03*
X53000Y-62400D03*
X52500Y-62400D03*
X52500Y-64600D03*
X53000Y-64600D03*
X53500Y-64600D03*
X54000Y-64600D03*
X54500Y-64600D03*
X55000Y-64600D03*
X55500Y-64600D03*
X55500Y-56150D03*
X55000Y-56150D03*
X54500Y-56150D03*
X54000Y-56150D03*
X53500Y-56150D03*
X53000Y-56150D03*
X52500Y-56150D03*
X52500Y-58350D03*
X53000Y-58350D03*
X53500Y-58350D03*
X54000Y-58350D03*
X54500Y-58350D03*
X55000Y-58350D03*
X55500Y-58350D03*
X55500Y-49150D03*
X55000Y-49150D03*
X54500Y-49150D03*
X54000Y-49150D03*
X53500Y-49150D03*
X53000Y-49150D03*
X52500Y-49150D03*
X52500Y-51350D03*
X53000Y-51350D03*
X53500Y-51350D03*
X54000Y-51350D03*
X54500Y-51350D03*
X55000Y-51350D03*
X55500Y-51350D03*
G54D17*
X42875Y-49916D03*
X43250Y-49084D03*
X43625Y-49916D03*
X44375Y-49916D03*
X44750Y-49084D03*
X45125Y-49916D03*
G54D12*
X58250Y-49400D03*
X58250Y-48100D03*
X57000Y-48100D03*
X57000Y-49400D03*
X38250Y-48600D03*
X38250Y-49900D03*
X39500Y-48900D03*
X39500Y-47600D03*
X59500Y-49400D03*
X59500Y-48100D03*
X60750Y-48100D03*
X60750Y-49400D03*
X48500Y-49400D03*
X48500Y-48100D03*
X49750Y-49400D03*
X49750Y-48100D03*
X42000Y-48600D03*
X42000Y-49900D03*
X46000Y-48600D03*
X46000Y-49900D03*
X47250Y-48600D03*
X47250Y-49900D03*
X40750Y-48600D03*
X40750Y-49900D03*
G54D15*
X44600Y-47750D03*
X45900Y-47750D03*
X42350Y-47750D03*
X43650Y-47750D03*
G54D13*
X62500Y-64400D03*
X64000Y-55750D03*
X36250Y-59000D03*
G54D14*
X36250Y-60000D03*
X36250Y-61000D03*
X36250Y-62000D03*
X36250Y-63000D03*
X36250Y-64000D03*
G54D19*
X52500Y-52750D03*
G54D20*
X53500Y-52750D03*
G54D19*
X55000Y-47500D03*
G54D20*
X56000Y-47500D03*
G54D13*
X51000Y-47500D03*
G54D14*
X52000Y-47500D03*
X53000Y-47500D03*
G54D10*
G36*
X63742Y-50353D02*
X63353Y-50742D01*
X62964Y-50353D01*
X63353Y-49964D01*
X63742Y-50353D01*
X63742Y-50353D01*
G37*
G54D20*
X62646Y-49646D03*
G54D10*
G36*
X62992Y-51103D02*
X62603Y-51492D01*
X62214Y-51103D01*
X62603Y-50714D01*
X62992Y-51103D01*
X62992Y-51103D01*
G37*
G54D20*
X61896Y-50396D03*
M02*
