G04 (created by PCBNEW (2013-07-07 BZR 4022)-stable) date 16/12/2013 13:18:01*
%MOIN*%
G04 Gerber Fmt 3.4, Leading zero omitted, Abs format*
%FSLAX34Y34*%
G01*
G70*
G90*
G04 APERTURE LIST*
%ADD10C,0.00393701*%
%ADD11R,0.0276X0.063*%
%ADD12R,0.0276X0.0827*%
%ADD13R,0.0787X0.1083*%
%ADD14R,0.08X0.06*%
%ADD15R,0.06X0.08*%
%ADD16R,0.035X0.055*%
%ADD17R,0.2165X0.0787*%
%ADD18R,0.06X0.06*%
%ADD19C,0.06*%
%ADD20R,0.0709X0.0629*%
%ADD21R,0.1417X0.063*%
%ADD22R,0.1024X0.063*%
%ADD23R,0.05X0.02*%
%ADD24C,0.16*%
%ADD25C,0.035*%
%ADD26C,0.019685*%
%ADD27C,0.011811*%
%ADD28C,0.00984252*%
G04 APERTURE END LIST*
G54D10*
G54D11*
X29724Y-11751D03*
G54D12*
X29133Y-11849D03*
G54D11*
X28542Y-11751D03*
G54D13*
X29133Y-12794D03*
G54D14*
X40700Y-16400D03*
X40700Y-17700D03*
X31700Y-17550D03*
X31700Y-18850D03*
G54D15*
X30700Y-13700D03*
X32000Y-13700D03*
X33050Y-13700D03*
X34350Y-13700D03*
G54D14*
X33050Y-9150D03*
X33050Y-10450D03*
X32750Y-17550D03*
X32750Y-18850D03*
X33800Y-11400D03*
X33800Y-12700D03*
X35550Y-10450D03*
X35550Y-9150D03*
X33400Y-16350D03*
X33400Y-15050D03*
X34850Y-12700D03*
X34850Y-11400D03*
G54D15*
X40250Y-15050D03*
X41550Y-15050D03*
X40250Y-13900D03*
X41550Y-13900D03*
X38950Y-12200D03*
X40250Y-12200D03*
X36650Y-12200D03*
X37950Y-12200D03*
X40250Y-11150D03*
X38950Y-11150D03*
X40250Y-10100D03*
X38950Y-10100D03*
X37950Y-10100D03*
X36650Y-10100D03*
X37950Y-11150D03*
X36650Y-11150D03*
G54D16*
X27925Y-14650D03*
X28675Y-14650D03*
X31575Y-14650D03*
X30825Y-14650D03*
G54D17*
X27900Y-16100D03*
X31600Y-16100D03*
G54D18*
X38950Y-8900D03*
G54D19*
X39950Y-8900D03*
G54D18*
X36950Y-8900D03*
G54D19*
X37950Y-8900D03*
G54D18*
X27165Y-12417D03*
G54D19*
X27165Y-11417D03*
G54D20*
X34400Y-9191D03*
X34400Y-10309D03*
G54D21*
X29467Y-9800D03*
X31633Y-9800D03*
G54D22*
X32409Y-12150D03*
X30991Y-12150D03*
G54D15*
X26900Y-18350D03*
X28200Y-18350D03*
X29300Y-18350D03*
X30600Y-18350D03*
G54D23*
X39050Y-17900D03*
X39050Y-17400D03*
X39050Y-16900D03*
X39050Y-16400D03*
X39050Y-15900D03*
X39050Y-15400D03*
X39050Y-14900D03*
X39050Y-14400D03*
X39050Y-13900D03*
X39050Y-13400D03*
X35250Y-13400D03*
X35250Y-13900D03*
X35250Y-14400D03*
X35250Y-14900D03*
X35250Y-15400D03*
X35250Y-15900D03*
X35250Y-16400D03*
X35250Y-16900D03*
X35250Y-17400D03*
X35250Y-17900D03*
G54D18*
X34550Y-20600D03*
G54D19*
X34550Y-19600D03*
X35550Y-20600D03*
X35550Y-19600D03*
X36550Y-20600D03*
X36550Y-19600D03*
X37550Y-20600D03*
X37550Y-19600D03*
X38550Y-20600D03*
X38550Y-19600D03*
G54D18*
X30750Y-20600D03*
G54D19*
X31750Y-20600D03*
G54D18*
X29200Y-20600D03*
G54D19*
X28200Y-20600D03*
G54D24*
X40944Y-20472D03*
X27559Y-9448D03*
G54D25*
X41550Y-16400D03*
X34850Y-12050D03*
X37100Y-15600D03*
X29650Y-14650D03*
X33050Y-20600D03*
X36050Y-16400D03*
X36350Y-14900D03*
X27550Y-18350D03*
X37450Y-13400D03*
X38400Y-13400D03*
G54D26*
X28542Y-11751D02*
X28542Y-11257D01*
X29467Y-10333D02*
X29467Y-9800D01*
X28542Y-11257D02*
X29467Y-10333D01*
X27165Y-11417D02*
X27817Y-11417D01*
X28151Y-11751D02*
X28542Y-11751D01*
X27817Y-11417D02*
X28151Y-11751D01*
X34850Y-12700D02*
X34850Y-12050D01*
X41550Y-16400D02*
X40700Y-16400D01*
X33800Y-12700D02*
X34850Y-12700D01*
X34850Y-12700D02*
X35250Y-13100D01*
X35250Y-13100D02*
X35250Y-13400D01*
X33050Y-13700D02*
X33050Y-13050D01*
X30700Y-13700D02*
X30700Y-13150D01*
X33400Y-12700D02*
X33800Y-12700D01*
X33050Y-13050D02*
X33400Y-12700D01*
X30800Y-13050D02*
X33050Y-13050D01*
X30700Y-13150D02*
X30800Y-13050D01*
X31700Y-17550D02*
X31100Y-17550D01*
X30200Y-13700D02*
X30700Y-13700D01*
X29800Y-14100D02*
X30200Y-13700D01*
X26900Y-14100D02*
X29800Y-14100D01*
X26600Y-14400D02*
X26900Y-14100D01*
X26600Y-16900D02*
X26600Y-14400D01*
X26900Y-17200D02*
X26600Y-16900D01*
X30750Y-17200D02*
X26900Y-17200D01*
X31100Y-17550D02*
X30750Y-17200D01*
X32750Y-17550D02*
X31700Y-17550D01*
X35250Y-16900D02*
X35750Y-16900D01*
X35900Y-19250D02*
X35550Y-19600D01*
X35900Y-17050D02*
X35900Y-19250D01*
X35750Y-16900D02*
X35900Y-17050D01*
X35250Y-16900D02*
X34750Y-16900D01*
X32750Y-14450D02*
X32000Y-13700D01*
X34000Y-14450D02*
X32750Y-14450D01*
X34400Y-14850D02*
X34000Y-14450D01*
X34400Y-16550D02*
X34400Y-14850D01*
X34750Y-16900D02*
X34400Y-16550D01*
X31750Y-20600D02*
X32250Y-20600D01*
X36050Y-16400D02*
X35250Y-16400D01*
X32250Y-20600D02*
X33050Y-20600D01*
X34350Y-13700D02*
X34350Y-14100D01*
X34850Y-16400D02*
X35250Y-16400D01*
X34750Y-16300D02*
X34850Y-16400D01*
X34750Y-14500D02*
X34750Y-16300D01*
X34350Y-14100D02*
X34750Y-14500D01*
X26900Y-18350D02*
X27550Y-18350D01*
X36350Y-14900D02*
X35250Y-14900D01*
X28200Y-20600D02*
X28200Y-18350D01*
G54D27*
X28750Y-18400D02*
X28750Y-18350D01*
X28750Y-18350D02*
X28750Y-18400D01*
X28750Y-18400D02*
X28750Y-18350D01*
G54D26*
X28200Y-18350D02*
X28750Y-18350D01*
X28750Y-18350D02*
X29300Y-18350D01*
X38550Y-20600D02*
X37850Y-21300D01*
X33600Y-19700D02*
X32750Y-18850D01*
X33600Y-20850D02*
X33600Y-19700D01*
X34050Y-21300D02*
X33600Y-20850D01*
X37850Y-21300D02*
X34050Y-21300D01*
X39050Y-16900D02*
X39650Y-16900D01*
X39300Y-19850D02*
X38550Y-20600D01*
X39300Y-19350D02*
X39300Y-19850D01*
X40000Y-18650D02*
X39300Y-19350D01*
X40950Y-18650D02*
X40000Y-18650D01*
X41450Y-18150D02*
X40950Y-18650D01*
X41450Y-17200D02*
X41450Y-18150D01*
X41300Y-17050D02*
X41450Y-17200D01*
X39800Y-17050D02*
X41300Y-17050D01*
X39650Y-16900D02*
X39800Y-17050D01*
X37550Y-19600D02*
X37550Y-18500D01*
X38650Y-17400D02*
X39050Y-17400D01*
X37550Y-18500D02*
X38650Y-17400D01*
X40700Y-17700D02*
X39850Y-17700D01*
X39550Y-17400D02*
X39050Y-17400D01*
X39850Y-17700D02*
X39550Y-17400D01*
X37550Y-20600D02*
X38050Y-20100D01*
X38050Y-18900D02*
X39050Y-17900D01*
X38050Y-20100D02*
X38050Y-18900D01*
X31700Y-18850D02*
X31700Y-18350D01*
X38300Y-16400D02*
X39050Y-16400D01*
X37050Y-17650D02*
X38300Y-16400D01*
X37050Y-19950D02*
X37050Y-17650D01*
X36900Y-20100D02*
X37050Y-19950D01*
X34250Y-20100D02*
X36900Y-20100D01*
X33950Y-19800D02*
X34250Y-20100D01*
X33950Y-18700D02*
X33950Y-19800D01*
X33450Y-18200D02*
X33950Y-18700D01*
X31850Y-18200D02*
X33450Y-18200D01*
X31700Y-18350D02*
X31850Y-18200D01*
X30750Y-20600D02*
X30750Y-19800D01*
X30750Y-19800D02*
X31700Y-18850D01*
X35250Y-17400D02*
X34700Y-17400D01*
X33900Y-15050D02*
X33400Y-15050D01*
X34050Y-15200D02*
X33900Y-15050D01*
X34050Y-16750D02*
X34050Y-15200D01*
X34700Y-17400D02*
X34050Y-16750D01*
X31600Y-16100D02*
X31600Y-14675D01*
X31600Y-14675D02*
X31575Y-14650D01*
X33400Y-15050D02*
X32570Y-15050D01*
X32170Y-14650D02*
X31575Y-14650D01*
X32570Y-15050D02*
X32170Y-14650D01*
X40250Y-10100D02*
X40250Y-11150D01*
X39950Y-8900D02*
X40250Y-9200D01*
X40250Y-9200D02*
X40250Y-10100D01*
X38950Y-11150D02*
X38950Y-12200D01*
X35250Y-17900D02*
X34300Y-17900D01*
X33400Y-17000D02*
X33400Y-16350D01*
X34300Y-17900D02*
X33400Y-17000D01*
X33400Y-16350D02*
X33310Y-16350D01*
X27900Y-16660D02*
X27900Y-16100D01*
X28090Y-16850D02*
X27900Y-16660D01*
X32810Y-16850D02*
X28090Y-16850D01*
X33310Y-16350D02*
X32810Y-16850D01*
X27925Y-14650D02*
X27925Y-16075D01*
X27925Y-16075D02*
X27900Y-16100D01*
X35550Y-10450D02*
X35650Y-10450D01*
X36100Y-13100D02*
X36950Y-13950D01*
X36100Y-10900D02*
X36100Y-13100D01*
X35650Y-10450D02*
X36100Y-10900D01*
X39050Y-13400D02*
X38400Y-13400D01*
X36950Y-13900D02*
X36950Y-13950D01*
X36950Y-13950D02*
X36950Y-14400D01*
X37450Y-13400D02*
X36950Y-13900D01*
X39050Y-15900D02*
X38500Y-15900D01*
X37000Y-14400D02*
X36950Y-14400D01*
X36950Y-14400D02*
X36075Y-14400D01*
X36075Y-14400D02*
X35900Y-14400D01*
X35900Y-14400D02*
X35250Y-14400D01*
X38500Y-15900D02*
X37000Y-14400D01*
X39050Y-15400D02*
X38600Y-15400D01*
X37950Y-14750D02*
X37950Y-12200D01*
X38600Y-15400D02*
X37950Y-14750D01*
X39050Y-15400D02*
X39500Y-15400D01*
X41550Y-15700D02*
X41550Y-15050D01*
X41450Y-15800D02*
X41550Y-15700D01*
X39750Y-15800D02*
X41450Y-15800D01*
X39650Y-15700D02*
X39750Y-15800D01*
X39650Y-15550D02*
X39650Y-15700D01*
X39500Y-15400D02*
X39650Y-15550D01*
X39050Y-14900D02*
X39500Y-14900D01*
X39650Y-15050D02*
X40250Y-15050D01*
X39500Y-14900D02*
X39650Y-15050D01*
X39050Y-14400D02*
X39250Y-14400D01*
X39750Y-13900D02*
X40250Y-13900D01*
X39250Y-14400D02*
X39750Y-13900D01*
X40250Y-12200D02*
X40250Y-13050D01*
X39050Y-13900D02*
X39300Y-13900D01*
X41550Y-13150D02*
X41550Y-13900D01*
X41450Y-13050D02*
X41550Y-13150D01*
X39800Y-13050D02*
X40250Y-13050D01*
X40250Y-13050D02*
X41450Y-13050D01*
X39650Y-13200D02*
X39800Y-13050D01*
X39650Y-13550D02*
X39650Y-13200D01*
X39300Y-13900D02*
X39650Y-13550D01*
X36650Y-11150D02*
X36650Y-12200D01*
X37950Y-8900D02*
X37950Y-10100D01*
X37950Y-10100D02*
X37950Y-11150D01*
X33050Y-9150D02*
X34359Y-9150D01*
X34359Y-9150D02*
X34400Y-9191D01*
X32409Y-12150D02*
X32409Y-11400D01*
X32400Y-11450D02*
X32400Y-11400D01*
X32400Y-11409D02*
X32400Y-11450D01*
X32409Y-11400D02*
X32400Y-11409D01*
X29724Y-11751D02*
X30048Y-11751D01*
X30400Y-11400D02*
X32400Y-11400D01*
X32400Y-11400D02*
X32650Y-11400D01*
X30048Y-11751D02*
X30400Y-11400D01*
X32800Y-11400D02*
X32650Y-11400D01*
X33800Y-11400D02*
X32800Y-11400D01*
X32850Y-11350D02*
X32850Y-10500D01*
X32800Y-11400D02*
X32850Y-11350D01*
G54D10*
G36*
X31571Y-14207D02*
X31366Y-14207D01*
X31305Y-14233D01*
X31258Y-14280D01*
X31232Y-14341D01*
X31232Y-14408D01*
X31232Y-14958D01*
X31258Y-15019D01*
X31305Y-15066D01*
X31334Y-15078D01*
X31334Y-15539D01*
X31167Y-15539D01*
X31167Y-14891D01*
X31167Y-14701D01*
X31125Y-14659D01*
X30834Y-14659D01*
X30834Y-15050D01*
X30876Y-15092D01*
X31033Y-15092D01*
X31094Y-15066D01*
X31141Y-15019D01*
X31167Y-14958D01*
X31167Y-14891D01*
X31167Y-15539D01*
X30815Y-15539D01*
X30815Y-15050D01*
X30815Y-14659D01*
X30524Y-14659D01*
X30482Y-14701D01*
X30482Y-14891D01*
X30482Y-14958D01*
X30508Y-15019D01*
X30555Y-15066D01*
X30616Y-15092D01*
X30773Y-15092D01*
X30815Y-15050D01*
X30815Y-15539D01*
X30484Y-15539D01*
X30422Y-15564D01*
X30375Y-15611D01*
X30350Y-15673D01*
X30350Y-15739D01*
X30350Y-16526D01*
X30373Y-16584D01*
X29125Y-16584D01*
X29149Y-16526D01*
X29149Y-16460D01*
X29149Y-15673D01*
X29124Y-15611D01*
X29077Y-15564D01*
X29017Y-15539D01*
X29017Y-14891D01*
X29017Y-14701D01*
X28975Y-14659D01*
X28684Y-14659D01*
X28684Y-15050D01*
X28726Y-15092D01*
X28883Y-15092D01*
X28944Y-15066D01*
X28991Y-15019D01*
X29017Y-14958D01*
X29017Y-14891D01*
X29017Y-15539D01*
X29015Y-15539D01*
X28949Y-15539D01*
X28665Y-15539D01*
X28665Y-15050D01*
X28665Y-14659D01*
X28374Y-14659D01*
X28332Y-14701D01*
X28332Y-14891D01*
X28332Y-14958D01*
X28358Y-15019D01*
X28405Y-15066D01*
X28466Y-15092D01*
X28623Y-15092D01*
X28665Y-15050D01*
X28665Y-15539D01*
X28190Y-15539D01*
X28190Y-15068D01*
X28194Y-15066D01*
X28241Y-15019D01*
X28267Y-14958D01*
X28267Y-14891D01*
X28267Y-14365D01*
X28332Y-14365D01*
X28332Y-14408D01*
X28332Y-14598D01*
X28374Y-14640D01*
X28665Y-14640D01*
X28665Y-14632D01*
X28684Y-14632D01*
X28684Y-14640D01*
X28975Y-14640D01*
X29017Y-14598D01*
X29017Y-14408D01*
X29017Y-14365D01*
X29800Y-14365D01*
X29901Y-14345D01*
X29901Y-14345D01*
X29987Y-14287D01*
X30232Y-14043D01*
X30232Y-14133D01*
X30258Y-14194D01*
X30305Y-14241D01*
X30366Y-14267D01*
X30433Y-14267D01*
X30520Y-14267D01*
X30508Y-14280D01*
X30482Y-14341D01*
X30482Y-14408D01*
X30482Y-14598D01*
X30524Y-14640D01*
X30815Y-14640D01*
X30815Y-14632D01*
X30834Y-14632D01*
X30834Y-14640D01*
X31125Y-14640D01*
X31167Y-14598D01*
X31167Y-14408D01*
X31167Y-14341D01*
X31141Y-14280D01*
X31099Y-14237D01*
X31141Y-14194D01*
X31167Y-14133D01*
X31167Y-14066D01*
X31167Y-13315D01*
X31532Y-13315D01*
X31532Y-13333D01*
X31532Y-14133D01*
X31558Y-14194D01*
X31571Y-14207D01*
X31571Y-14207D01*
G37*
G54D28*
X31571Y-14207D02*
X31366Y-14207D01*
X31305Y-14233D01*
X31258Y-14280D01*
X31232Y-14341D01*
X31232Y-14408D01*
X31232Y-14958D01*
X31258Y-15019D01*
X31305Y-15066D01*
X31334Y-15078D01*
X31334Y-15539D01*
X31167Y-15539D01*
X31167Y-14891D01*
X31167Y-14701D01*
X31125Y-14659D01*
X30834Y-14659D01*
X30834Y-15050D01*
X30876Y-15092D01*
X31033Y-15092D01*
X31094Y-15066D01*
X31141Y-15019D01*
X31167Y-14958D01*
X31167Y-14891D01*
X31167Y-15539D01*
X30815Y-15539D01*
X30815Y-15050D01*
X30815Y-14659D01*
X30524Y-14659D01*
X30482Y-14701D01*
X30482Y-14891D01*
X30482Y-14958D01*
X30508Y-15019D01*
X30555Y-15066D01*
X30616Y-15092D01*
X30773Y-15092D01*
X30815Y-15050D01*
X30815Y-15539D01*
X30484Y-15539D01*
X30422Y-15564D01*
X30375Y-15611D01*
X30350Y-15673D01*
X30350Y-15739D01*
X30350Y-16526D01*
X30373Y-16584D01*
X29125Y-16584D01*
X29149Y-16526D01*
X29149Y-16460D01*
X29149Y-15673D01*
X29124Y-15611D01*
X29077Y-15564D01*
X29017Y-15539D01*
X29017Y-14891D01*
X29017Y-14701D01*
X28975Y-14659D01*
X28684Y-14659D01*
X28684Y-15050D01*
X28726Y-15092D01*
X28883Y-15092D01*
X28944Y-15066D01*
X28991Y-15019D01*
X29017Y-14958D01*
X29017Y-14891D01*
X29017Y-15539D01*
X29015Y-15539D01*
X28949Y-15539D01*
X28665Y-15539D01*
X28665Y-15050D01*
X28665Y-14659D01*
X28374Y-14659D01*
X28332Y-14701D01*
X28332Y-14891D01*
X28332Y-14958D01*
X28358Y-15019D01*
X28405Y-15066D01*
X28466Y-15092D01*
X28623Y-15092D01*
X28665Y-15050D01*
X28665Y-15539D01*
X28190Y-15539D01*
X28190Y-15068D01*
X28194Y-15066D01*
X28241Y-15019D01*
X28267Y-14958D01*
X28267Y-14891D01*
X28267Y-14365D01*
X28332Y-14365D01*
X28332Y-14408D01*
X28332Y-14598D01*
X28374Y-14640D01*
X28665Y-14640D01*
X28665Y-14632D01*
X28684Y-14632D01*
X28684Y-14640D01*
X28975Y-14640D01*
X29017Y-14598D01*
X29017Y-14408D01*
X29017Y-14365D01*
X29800Y-14365D01*
X29901Y-14345D01*
X29901Y-14345D01*
X29987Y-14287D01*
X30232Y-14043D01*
X30232Y-14133D01*
X30258Y-14194D01*
X30305Y-14241D01*
X30366Y-14267D01*
X30433Y-14267D01*
X30520Y-14267D01*
X30508Y-14280D01*
X30482Y-14341D01*
X30482Y-14408D01*
X30482Y-14598D01*
X30524Y-14640D01*
X30815Y-14640D01*
X30815Y-14632D01*
X30834Y-14632D01*
X30834Y-14640D01*
X31125Y-14640D01*
X31167Y-14598D01*
X31167Y-14408D01*
X31167Y-14341D01*
X31141Y-14280D01*
X31099Y-14237D01*
X31141Y-14194D01*
X31167Y-14133D01*
X31167Y-14066D01*
X31167Y-13315D01*
X31532Y-13315D01*
X31532Y-13333D01*
X31532Y-14133D01*
X31558Y-14194D01*
X31571Y-14207D01*
G54D10*
G36*
X33830Y-21456D02*
X29667Y-21456D01*
X29667Y-20866D01*
X29667Y-20333D01*
X29667Y-20266D01*
X29641Y-20205D01*
X29594Y-20158D01*
X29533Y-20132D01*
X29251Y-20132D01*
X29209Y-20174D01*
X29209Y-20590D01*
X29625Y-20590D01*
X29667Y-20548D01*
X29667Y-20333D01*
X29667Y-20866D01*
X29667Y-20651D01*
X29625Y-20609D01*
X29209Y-20609D01*
X29209Y-21025D01*
X29251Y-21067D01*
X29533Y-21067D01*
X29594Y-21041D01*
X29641Y-20994D01*
X29667Y-20933D01*
X29667Y-20866D01*
X29667Y-21456D01*
X29190Y-21456D01*
X29190Y-21025D01*
X29190Y-20609D01*
X29190Y-20590D01*
X29190Y-20174D01*
X29148Y-20132D01*
X28866Y-20132D01*
X28805Y-20158D01*
X28758Y-20205D01*
X28732Y-20266D01*
X28732Y-20333D01*
X28732Y-20548D01*
X28774Y-20590D01*
X29190Y-20590D01*
X29190Y-20609D01*
X28774Y-20609D01*
X28732Y-20651D01*
X28732Y-20866D01*
X28732Y-20933D01*
X28758Y-20994D01*
X28805Y-21041D01*
X28866Y-21067D01*
X29148Y-21067D01*
X29190Y-21025D01*
X29190Y-21456D01*
X26574Y-21456D01*
X26574Y-19291D01*
X26574Y-18917D01*
X26633Y-18917D01*
X27233Y-18917D01*
X27294Y-18891D01*
X27341Y-18844D01*
X27367Y-18783D01*
X27367Y-18716D01*
X27367Y-18644D01*
X27481Y-18692D01*
X27617Y-18692D01*
X27732Y-18644D01*
X27732Y-18783D01*
X27758Y-18844D01*
X27805Y-18891D01*
X27866Y-18917D01*
X27933Y-18917D01*
X27934Y-18917D01*
X27934Y-20204D01*
X27804Y-20334D01*
X27732Y-20506D01*
X27732Y-20692D01*
X27803Y-20864D01*
X27934Y-20995D01*
X28106Y-21067D01*
X28292Y-21067D01*
X28464Y-20996D01*
X28595Y-20865D01*
X28667Y-20693D01*
X28667Y-20507D01*
X28596Y-20335D01*
X28465Y-20204D01*
X28465Y-18917D01*
X28533Y-18917D01*
X28594Y-18891D01*
X28641Y-18844D01*
X28667Y-18783D01*
X28667Y-18716D01*
X28667Y-18615D01*
X28696Y-18615D01*
X28750Y-18626D01*
X28803Y-18615D01*
X28832Y-18615D01*
X28832Y-18783D01*
X28858Y-18844D01*
X28905Y-18891D01*
X28966Y-18917D01*
X29033Y-18917D01*
X29633Y-18917D01*
X29694Y-18891D01*
X29741Y-18844D01*
X29767Y-18783D01*
X29767Y-18716D01*
X29767Y-17916D01*
X29741Y-17855D01*
X29694Y-17808D01*
X29633Y-17782D01*
X29566Y-17782D01*
X28966Y-17782D01*
X28905Y-17808D01*
X28858Y-17855D01*
X28832Y-17916D01*
X28832Y-17983D01*
X28832Y-18084D01*
X28750Y-18084D01*
X28667Y-18084D01*
X28667Y-17916D01*
X28641Y-17855D01*
X28594Y-17808D01*
X28533Y-17782D01*
X28466Y-17782D01*
X27866Y-17782D01*
X27805Y-17808D01*
X27758Y-17855D01*
X27732Y-17916D01*
X27732Y-17983D01*
X27732Y-18055D01*
X27618Y-18007D01*
X27482Y-18007D01*
X27367Y-18055D01*
X27367Y-17916D01*
X27341Y-17855D01*
X27294Y-17808D01*
X27233Y-17782D01*
X27166Y-17782D01*
X26574Y-17782D01*
X26574Y-17250D01*
X26712Y-17387D01*
X26712Y-17387D01*
X26769Y-17426D01*
X26798Y-17445D01*
X26798Y-17445D01*
X26899Y-17465D01*
X26900Y-17465D01*
X30639Y-17465D01*
X30912Y-17737D01*
X30912Y-17737D01*
X30998Y-17795D01*
X30998Y-17795D01*
X31099Y-17815D01*
X31100Y-17815D01*
X31132Y-17815D01*
X31132Y-17883D01*
X31158Y-17944D01*
X31205Y-17991D01*
X31266Y-18017D01*
X31333Y-18017D01*
X31656Y-18017D01*
X31512Y-18162D01*
X31454Y-18248D01*
X31434Y-18350D01*
X31434Y-18382D01*
X31266Y-18382D01*
X31205Y-18408D01*
X31158Y-18455D01*
X31132Y-18516D01*
X31132Y-18583D01*
X31132Y-19041D01*
X31067Y-19106D01*
X31067Y-18716D01*
X31067Y-17983D01*
X31067Y-17916D01*
X31041Y-17855D01*
X30994Y-17808D01*
X30933Y-17782D01*
X30651Y-17782D01*
X30609Y-17824D01*
X30609Y-18340D01*
X31025Y-18340D01*
X31067Y-18298D01*
X31067Y-17983D01*
X31067Y-18716D01*
X31067Y-18401D01*
X31025Y-18359D01*
X30609Y-18359D01*
X30609Y-18875D01*
X30651Y-18917D01*
X30933Y-18917D01*
X30994Y-18891D01*
X31041Y-18844D01*
X31067Y-18783D01*
X31067Y-18716D01*
X31067Y-19106D01*
X30590Y-19584D01*
X30590Y-18875D01*
X30590Y-18359D01*
X30590Y-18340D01*
X30590Y-17824D01*
X30548Y-17782D01*
X30266Y-17782D01*
X30205Y-17808D01*
X30158Y-17855D01*
X30132Y-17916D01*
X30132Y-17983D01*
X30132Y-18298D01*
X30174Y-18340D01*
X30590Y-18340D01*
X30590Y-18359D01*
X30174Y-18359D01*
X30132Y-18401D01*
X30132Y-18716D01*
X30132Y-18783D01*
X30158Y-18844D01*
X30205Y-18891D01*
X30266Y-18917D01*
X30548Y-18917D01*
X30590Y-18875D01*
X30590Y-19584D01*
X30562Y-19612D01*
X30504Y-19698D01*
X30484Y-19800D01*
X30484Y-20132D01*
X30416Y-20132D01*
X30355Y-20158D01*
X30308Y-20205D01*
X30282Y-20266D01*
X30282Y-20333D01*
X30282Y-20933D01*
X30308Y-20994D01*
X30355Y-21041D01*
X30416Y-21067D01*
X30483Y-21067D01*
X31083Y-21067D01*
X31144Y-21041D01*
X31191Y-20994D01*
X31217Y-20933D01*
X31217Y-20866D01*
X31217Y-20266D01*
X31191Y-20205D01*
X31144Y-20158D01*
X31083Y-20132D01*
X31016Y-20132D01*
X31015Y-20132D01*
X31015Y-19910D01*
X31608Y-19317D01*
X32133Y-19317D01*
X32194Y-19291D01*
X32225Y-19261D01*
X32255Y-19291D01*
X32316Y-19317D01*
X32383Y-19317D01*
X32841Y-19317D01*
X33334Y-19810D01*
X33334Y-20400D01*
X33244Y-20309D01*
X33118Y-20257D01*
X32982Y-20257D01*
X32856Y-20309D01*
X32831Y-20334D01*
X32250Y-20334D01*
X32145Y-20334D01*
X32015Y-20204D01*
X31843Y-20132D01*
X31657Y-20132D01*
X31485Y-20203D01*
X31354Y-20334D01*
X31282Y-20506D01*
X31282Y-20692D01*
X31353Y-20864D01*
X31484Y-20995D01*
X31656Y-21067D01*
X31842Y-21067D01*
X32014Y-20996D01*
X32145Y-20865D01*
X32250Y-20865D01*
X32831Y-20865D01*
X32855Y-20890D01*
X32981Y-20942D01*
X33117Y-20942D01*
X33243Y-20890D01*
X33334Y-20799D01*
X33334Y-20850D01*
X33354Y-20951D01*
X33412Y-21037D01*
X33830Y-21456D01*
X33830Y-21456D01*
G37*
G54D28*
X33830Y-21456D02*
X29667Y-21456D01*
X29667Y-20866D01*
X29667Y-20333D01*
X29667Y-20266D01*
X29641Y-20205D01*
X29594Y-20158D01*
X29533Y-20132D01*
X29251Y-20132D01*
X29209Y-20174D01*
X29209Y-20590D01*
X29625Y-20590D01*
X29667Y-20548D01*
X29667Y-20333D01*
X29667Y-20866D01*
X29667Y-20651D01*
X29625Y-20609D01*
X29209Y-20609D01*
X29209Y-21025D01*
X29251Y-21067D01*
X29533Y-21067D01*
X29594Y-21041D01*
X29641Y-20994D01*
X29667Y-20933D01*
X29667Y-20866D01*
X29667Y-21456D01*
X29190Y-21456D01*
X29190Y-21025D01*
X29190Y-20609D01*
X29190Y-20590D01*
X29190Y-20174D01*
X29148Y-20132D01*
X28866Y-20132D01*
X28805Y-20158D01*
X28758Y-20205D01*
X28732Y-20266D01*
X28732Y-20333D01*
X28732Y-20548D01*
X28774Y-20590D01*
X29190Y-20590D01*
X29190Y-20609D01*
X28774Y-20609D01*
X28732Y-20651D01*
X28732Y-20866D01*
X28732Y-20933D01*
X28758Y-20994D01*
X28805Y-21041D01*
X28866Y-21067D01*
X29148Y-21067D01*
X29190Y-21025D01*
X29190Y-21456D01*
X26574Y-21456D01*
X26574Y-19291D01*
X26574Y-18917D01*
X26633Y-18917D01*
X27233Y-18917D01*
X27294Y-18891D01*
X27341Y-18844D01*
X27367Y-18783D01*
X27367Y-18716D01*
X27367Y-18644D01*
X27481Y-18692D01*
X27617Y-18692D01*
X27732Y-18644D01*
X27732Y-18783D01*
X27758Y-18844D01*
X27805Y-18891D01*
X27866Y-18917D01*
X27933Y-18917D01*
X27934Y-18917D01*
X27934Y-20204D01*
X27804Y-20334D01*
X27732Y-20506D01*
X27732Y-20692D01*
X27803Y-20864D01*
X27934Y-20995D01*
X28106Y-21067D01*
X28292Y-21067D01*
X28464Y-20996D01*
X28595Y-20865D01*
X28667Y-20693D01*
X28667Y-20507D01*
X28596Y-20335D01*
X28465Y-20204D01*
X28465Y-18917D01*
X28533Y-18917D01*
X28594Y-18891D01*
X28641Y-18844D01*
X28667Y-18783D01*
X28667Y-18716D01*
X28667Y-18615D01*
X28696Y-18615D01*
X28750Y-18626D01*
X28803Y-18615D01*
X28832Y-18615D01*
X28832Y-18783D01*
X28858Y-18844D01*
X28905Y-18891D01*
X28966Y-18917D01*
X29033Y-18917D01*
X29633Y-18917D01*
X29694Y-18891D01*
X29741Y-18844D01*
X29767Y-18783D01*
X29767Y-18716D01*
X29767Y-17916D01*
X29741Y-17855D01*
X29694Y-17808D01*
X29633Y-17782D01*
X29566Y-17782D01*
X28966Y-17782D01*
X28905Y-17808D01*
X28858Y-17855D01*
X28832Y-17916D01*
X28832Y-17983D01*
X28832Y-18084D01*
X28750Y-18084D01*
X28667Y-18084D01*
X28667Y-17916D01*
X28641Y-17855D01*
X28594Y-17808D01*
X28533Y-17782D01*
X28466Y-17782D01*
X27866Y-17782D01*
X27805Y-17808D01*
X27758Y-17855D01*
X27732Y-17916D01*
X27732Y-17983D01*
X27732Y-18055D01*
X27618Y-18007D01*
X27482Y-18007D01*
X27367Y-18055D01*
X27367Y-17916D01*
X27341Y-17855D01*
X27294Y-17808D01*
X27233Y-17782D01*
X27166Y-17782D01*
X26574Y-17782D01*
X26574Y-17250D01*
X26712Y-17387D01*
X26712Y-17387D01*
X26769Y-17426D01*
X26798Y-17445D01*
X26798Y-17445D01*
X26899Y-17465D01*
X26900Y-17465D01*
X30639Y-17465D01*
X30912Y-17737D01*
X30912Y-17737D01*
X30998Y-17795D01*
X30998Y-17795D01*
X31099Y-17815D01*
X31100Y-17815D01*
X31132Y-17815D01*
X31132Y-17883D01*
X31158Y-17944D01*
X31205Y-17991D01*
X31266Y-18017D01*
X31333Y-18017D01*
X31656Y-18017D01*
X31512Y-18162D01*
X31454Y-18248D01*
X31434Y-18350D01*
X31434Y-18382D01*
X31266Y-18382D01*
X31205Y-18408D01*
X31158Y-18455D01*
X31132Y-18516D01*
X31132Y-18583D01*
X31132Y-19041D01*
X31067Y-19106D01*
X31067Y-18716D01*
X31067Y-17983D01*
X31067Y-17916D01*
X31041Y-17855D01*
X30994Y-17808D01*
X30933Y-17782D01*
X30651Y-17782D01*
X30609Y-17824D01*
X30609Y-18340D01*
X31025Y-18340D01*
X31067Y-18298D01*
X31067Y-17983D01*
X31067Y-18716D01*
X31067Y-18401D01*
X31025Y-18359D01*
X30609Y-18359D01*
X30609Y-18875D01*
X30651Y-18917D01*
X30933Y-18917D01*
X30994Y-18891D01*
X31041Y-18844D01*
X31067Y-18783D01*
X31067Y-18716D01*
X31067Y-19106D01*
X30590Y-19584D01*
X30590Y-18875D01*
X30590Y-18359D01*
X30590Y-18340D01*
X30590Y-17824D01*
X30548Y-17782D01*
X30266Y-17782D01*
X30205Y-17808D01*
X30158Y-17855D01*
X30132Y-17916D01*
X30132Y-17983D01*
X30132Y-18298D01*
X30174Y-18340D01*
X30590Y-18340D01*
X30590Y-18359D01*
X30174Y-18359D01*
X30132Y-18401D01*
X30132Y-18716D01*
X30132Y-18783D01*
X30158Y-18844D01*
X30205Y-18891D01*
X30266Y-18917D01*
X30548Y-18917D01*
X30590Y-18875D01*
X30590Y-19584D01*
X30562Y-19612D01*
X30504Y-19698D01*
X30484Y-19800D01*
X30484Y-20132D01*
X30416Y-20132D01*
X30355Y-20158D01*
X30308Y-20205D01*
X30282Y-20266D01*
X30282Y-20333D01*
X30282Y-20933D01*
X30308Y-20994D01*
X30355Y-21041D01*
X30416Y-21067D01*
X30483Y-21067D01*
X31083Y-21067D01*
X31144Y-21041D01*
X31191Y-20994D01*
X31217Y-20933D01*
X31217Y-20866D01*
X31217Y-20266D01*
X31191Y-20205D01*
X31144Y-20158D01*
X31083Y-20132D01*
X31016Y-20132D01*
X31015Y-20132D01*
X31015Y-19910D01*
X31608Y-19317D01*
X32133Y-19317D01*
X32194Y-19291D01*
X32225Y-19261D01*
X32255Y-19291D01*
X32316Y-19317D01*
X32383Y-19317D01*
X32841Y-19317D01*
X33334Y-19810D01*
X33334Y-20400D01*
X33244Y-20309D01*
X33118Y-20257D01*
X32982Y-20257D01*
X32856Y-20309D01*
X32831Y-20334D01*
X32250Y-20334D01*
X32145Y-20334D01*
X32015Y-20204D01*
X31843Y-20132D01*
X31657Y-20132D01*
X31485Y-20203D01*
X31354Y-20334D01*
X31282Y-20506D01*
X31282Y-20692D01*
X31353Y-20864D01*
X31484Y-20995D01*
X31656Y-21067D01*
X31842Y-21067D01*
X32014Y-20996D01*
X32145Y-20865D01*
X32250Y-20865D01*
X32831Y-20865D01*
X32855Y-20890D01*
X32981Y-20942D01*
X33117Y-20942D01*
X33243Y-20890D01*
X33334Y-20799D01*
X33334Y-20850D01*
X33354Y-20951D01*
X33412Y-21037D01*
X33830Y-21456D01*
G54D10*
G36*
X35634Y-19132D02*
X35457Y-19132D01*
X35285Y-19203D01*
X35154Y-19334D01*
X35082Y-19506D01*
X35082Y-19692D01*
X35141Y-19834D01*
X34957Y-19834D01*
X35015Y-19701D01*
X35018Y-19515D01*
X34951Y-19342D01*
X34941Y-19327D01*
X34864Y-19299D01*
X34850Y-19313D01*
X34563Y-19600D01*
X34569Y-19605D01*
X34555Y-19619D01*
X34550Y-19613D01*
X34544Y-19619D01*
X34530Y-19605D01*
X34536Y-19600D01*
X34530Y-19594D01*
X34544Y-19580D01*
X34550Y-19586D01*
X34850Y-19285D01*
X34822Y-19208D01*
X34651Y-19134D01*
X34465Y-19131D01*
X34292Y-19198D01*
X34277Y-19208D01*
X34249Y-19285D01*
X34220Y-19256D01*
X34215Y-19261D01*
X34215Y-18700D01*
X34195Y-18598D01*
X34195Y-18598D01*
X34137Y-18512D01*
X33637Y-18012D01*
X33551Y-17954D01*
X33450Y-17934D01*
X33296Y-17934D01*
X33317Y-17883D01*
X33317Y-17816D01*
X33317Y-17293D01*
X34112Y-18087D01*
X34198Y-18145D01*
X34198Y-18145D01*
X34300Y-18165D01*
X34962Y-18165D01*
X34966Y-18167D01*
X35033Y-18167D01*
X35533Y-18167D01*
X35594Y-18141D01*
X35634Y-18102D01*
X35634Y-19132D01*
X35634Y-19132D01*
G37*
G54D28*
X35634Y-19132D02*
X35457Y-19132D01*
X35285Y-19203D01*
X35154Y-19334D01*
X35082Y-19506D01*
X35082Y-19692D01*
X35141Y-19834D01*
X34957Y-19834D01*
X35015Y-19701D01*
X35018Y-19515D01*
X34951Y-19342D01*
X34941Y-19327D01*
X34864Y-19299D01*
X34850Y-19313D01*
X34563Y-19600D01*
X34569Y-19605D01*
X34555Y-19619D01*
X34550Y-19613D01*
X34544Y-19619D01*
X34530Y-19605D01*
X34536Y-19600D01*
X34530Y-19594D01*
X34544Y-19580D01*
X34550Y-19586D01*
X34850Y-19285D01*
X34822Y-19208D01*
X34651Y-19134D01*
X34465Y-19131D01*
X34292Y-19198D01*
X34277Y-19208D01*
X34249Y-19285D01*
X34220Y-19256D01*
X34215Y-19261D01*
X34215Y-18700D01*
X34195Y-18598D01*
X34195Y-18598D01*
X34137Y-18512D01*
X33637Y-18012D01*
X33551Y-17954D01*
X33450Y-17934D01*
X33296Y-17934D01*
X33317Y-17883D01*
X33317Y-17816D01*
X33317Y-17293D01*
X34112Y-18087D01*
X34198Y-18145D01*
X34198Y-18145D01*
X34300Y-18165D01*
X34962Y-18165D01*
X34966Y-18167D01*
X35033Y-18167D01*
X35533Y-18167D01*
X35594Y-18141D01*
X35634Y-18102D01*
X35634Y-19132D01*
G54D10*
G36*
X37780Y-8464D02*
X37685Y-8503D01*
X37554Y-8634D01*
X37482Y-8806D01*
X37482Y-8992D01*
X37553Y-9164D01*
X37684Y-9295D01*
X37684Y-9532D01*
X37616Y-9532D01*
X37555Y-9558D01*
X37508Y-9605D01*
X37482Y-9666D01*
X37482Y-9733D01*
X37482Y-10533D01*
X37508Y-10594D01*
X37538Y-10625D01*
X37508Y-10655D01*
X37482Y-10716D01*
X37482Y-10783D01*
X37482Y-11583D01*
X37508Y-11644D01*
X37538Y-11675D01*
X37508Y-11705D01*
X37482Y-11766D01*
X37482Y-11833D01*
X37482Y-12633D01*
X37508Y-12694D01*
X37555Y-12741D01*
X37616Y-12767D01*
X37683Y-12767D01*
X37684Y-12767D01*
X37684Y-13150D01*
X37644Y-13109D01*
X37518Y-13057D01*
X37417Y-13057D01*
X37417Y-9166D01*
X37417Y-8951D01*
X37375Y-8909D01*
X36959Y-8909D01*
X36959Y-9325D01*
X37001Y-9367D01*
X37283Y-9367D01*
X37344Y-9341D01*
X37391Y-9294D01*
X37417Y-9233D01*
X37417Y-9166D01*
X37417Y-13057D01*
X37382Y-13057D01*
X37256Y-13109D01*
X37159Y-13205D01*
X37107Y-13331D01*
X37107Y-13366D01*
X36925Y-13549D01*
X36365Y-12989D01*
X36365Y-12767D01*
X36383Y-12767D01*
X36983Y-12767D01*
X37044Y-12741D01*
X37091Y-12694D01*
X37117Y-12633D01*
X37117Y-12566D01*
X37117Y-11766D01*
X37091Y-11705D01*
X37061Y-11674D01*
X37091Y-11644D01*
X37117Y-11583D01*
X37117Y-11516D01*
X37117Y-10716D01*
X37091Y-10655D01*
X37061Y-10624D01*
X37091Y-10594D01*
X37117Y-10533D01*
X37117Y-10466D01*
X37117Y-9733D01*
X37117Y-9666D01*
X37091Y-9605D01*
X37044Y-9558D01*
X36983Y-9532D01*
X36940Y-9532D01*
X36940Y-9325D01*
X36940Y-8909D01*
X36524Y-8909D01*
X36482Y-8951D01*
X36482Y-9166D01*
X36482Y-9233D01*
X36508Y-9294D01*
X36555Y-9341D01*
X36616Y-9367D01*
X36898Y-9367D01*
X36940Y-9325D01*
X36940Y-9532D01*
X36701Y-9532D01*
X36659Y-9574D01*
X36659Y-10090D01*
X37075Y-10090D01*
X37117Y-10048D01*
X37117Y-9733D01*
X37117Y-10466D01*
X37117Y-10151D01*
X37075Y-10109D01*
X36659Y-10109D01*
X36659Y-10117D01*
X36640Y-10117D01*
X36640Y-10109D01*
X36640Y-10090D01*
X36640Y-9574D01*
X36598Y-9532D01*
X36316Y-9532D01*
X36255Y-9558D01*
X36208Y-9605D01*
X36182Y-9666D01*
X36182Y-9733D01*
X36182Y-10048D01*
X36224Y-10090D01*
X36640Y-10090D01*
X36640Y-10109D01*
X36224Y-10109D01*
X36182Y-10151D01*
X36182Y-10466D01*
X36182Y-10533D01*
X36208Y-10594D01*
X36238Y-10625D01*
X36219Y-10643D01*
X36117Y-10541D01*
X36117Y-10116D01*
X36117Y-9483D01*
X36117Y-8816D01*
X36091Y-8755D01*
X36044Y-8708D01*
X35983Y-8682D01*
X35916Y-8682D01*
X35601Y-8682D01*
X35559Y-8724D01*
X35559Y-9140D01*
X36075Y-9140D01*
X36117Y-9098D01*
X36117Y-8816D01*
X36117Y-9483D01*
X36117Y-9201D01*
X36075Y-9159D01*
X35559Y-9159D01*
X35559Y-9575D01*
X35601Y-9617D01*
X35916Y-9617D01*
X35983Y-9617D01*
X36044Y-9591D01*
X36091Y-9544D01*
X36117Y-9483D01*
X36117Y-10116D01*
X36091Y-10055D01*
X36044Y-10008D01*
X35983Y-9982D01*
X35916Y-9982D01*
X35540Y-9982D01*
X35540Y-9575D01*
X35540Y-9159D01*
X35540Y-9140D01*
X35540Y-8724D01*
X35498Y-8682D01*
X35183Y-8682D01*
X35116Y-8682D01*
X35055Y-8708D01*
X35008Y-8755D01*
X34982Y-8816D01*
X34982Y-9098D01*
X35024Y-9140D01*
X35540Y-9140D01*
X35540Y-9159D01*
X35024Y-9159D01*
X34982Y-9201D01*
X34982Y-9483D01*
X35008Y-9544D01*
X35055Y-9591D01*
X35116Y-9617D01*
X35183Y-9617D01*
X35498Y-9617D01*
X35540Y-9575D01*
X35540Y-9982D01*
X35116Y-9982D01*
X35055Y-10008D01*
X35008Y-10055D01*
X34982Y-10116D01*
X34982Y-10183D01*
X34982Y-10783D01*
X35008Y-10844D01*
X35055Y-10891D01*
X35116Y-10917D01*
X35183Y-10917D01*
X35741Y-10917D01*
X35834Y-11010D01*
X35834Y-13100D01*
X35854Y-13201D01*
X35912Y-13287D01*
X36684Y-14060D01*
X36684Y-14134D01*
X36075Y-14134D01*
X35900Y-14134D01*
X35602Y-14134D01*
X35641Y-14094D01*
X35667Y-14033D01*
X35667Y-13951D01*
X35625Y-13909D01*
X35259Y-13909D01*
X35259Y-13917D01*
X35240Y-13917D01*
X35240Y-13909D01*
X34874Y-13909D01*
X34832Y-13951D01*
X34832Y-14033D01*
X34858Y-14094D01*
X34905Y-14141D01*
X34924Y-14149D01*
X34905Y-14158D01*
X34858Y-14205D01*
X34850Y-14224D01*
X34800Y-14174D01*
X34817Y-14133D01*
X34817Y-14066D01*
X34817Y-13266D01*
X34791Y-13205D01*
X34754Y-13167D01*
X34896Y-13167D01*
X34858Y-13205D01*
X34832Y-13266D01*
X34832Y-13333D01*
X34832Y-13533D01*
X34858Y-13594D01*
X34905Y-13641D01*
X34924Y-13650D01*
X34905Y-13658D01*
X34858Y-13705D01*
X34832Y-13766D01*
X34832Y-13848D01*
X34874Y-13890D01*
X35240Y-13890D01*
X35240Y-13882D01*
X35259Y-13882D01*
X35259Y-13890D01*
X35625Y-13890D01*
X35667Y-13848D01*
X35667Y-13766D01*
X35641Y-13705D01*
X35594Y-13658D01*
X35575Y-13650D01*
X35594Y-13641D01*
X35641Y-13594D01*
X35667Y-13533D01*
X35667Y-13466D01*
X35667Y-13266D01*
X35641Y-13205D01*
X35594Y-13158D01*
X35533Y-13132D01*
X35515Y-13132D01*
X35515Y-13100D01*
X35515Y-13099D01*
X35495Y-12998D01*
X35495Y-12998D01*
X35437Y-12912D01*
X35437Y-12912D01*
X35417Y-12891D01*
X35417Y-12366D01*
X35391Y-12305D01*
X35344Y-12258D01*
X35283Y-12232D01*
X35216Y-12232D01*
X35144Y-12232D01*
X35192Y-12118D01*
X35192Y-11982D01*
X35144Y-11867D01*
X35216Y-11867D01*
X35283Y-11867D01*
X35344Y-11841D01*
X35391Y-11794D01*
X35417Y-11733D01*
X35417Y-11066D01*
X35391Y-11005D01*
X35344Y-10958D01*
X35283Y-10932D01*
X35216Y-10932D01*
X34921Y-10932D01*
X34921Y-10656D01*
X34921Y-9961D01*
X34921Y-9472D01*
X34921Y-8843D01*
X34896Y-8781D01*
X34849Y-8734D01*
X34787Y-8709D01*
X34721Y-8709D01*
X34012Y-8709D01*
X33950Y-8734D01*
X33903Y-8781D01*
X33878Y-8843D01*
X33878Y-8884D01*
X33617Y-8884D01*
X33617Y-8816D01*
X33591Y-8755D01*
X33544Y-8708D01*
X33483Y-8682D01*
X33416Y-8682D01*
X32616Y-8682D01*
X32555Y-8708D01*
X32508Y-8755D01*
X32482Y-8816D01*
X32482Y-8883D01*
X32482Y-9389D01*
X32436Y-9343D01*
X32374Y-9317D01*
X31684Y-9317D01*
X31642Y-9359D01*
X31642Y-9790D01*
X32466Y-9790D01*
X32508Y-9748D01*
X32508Y-9545D01*
X32555Y-9591D01*
X32616Y-9617D01*
X32683Y-9617D01*
X33483Y-9617D01*
X33544Y-9591D01*
X33591Y-9544D01*
X33617Y-9483D01*
X33617Y-9416D01*
X33617Y-9415D01*
X33878Y-9415D01*
X33878Y-9538D01*
X33903Y-9600D01*
X33950Y-9647D01*
X34012Y-9672D01*
X34078Y-9672D01*
X34787Y-9672D01*
X34849Y-9647D01*
X34896Y-9600D01*
X34921Y-9538D01*
X34921Y-9472D01*
X34921Y-9961D01*
X34896Y-9899D01*
X34849Y-9852D01*
X34787Y-9827D01*
X34721Y-9827D01*
X34451Y-9827D01*
X34409Y-9869D01*
X34409Y-10299D01*
X34879Y-10299D01*
X34921Y-10257D01*
X34921Y-9961D01*
X34921Y-10656D01*
X34921Y-10360D01*
X34879Y-10318D01*
X34409Y-10318D01*
X34409Y-10748D01*
X34451Y-10790D01*
X34721Y-10790D01*
X34787Y-10790D01*
X34849Y-10765D01*
X34896Y-10718D01*
X34921Y-10656D01*
X34921Y-10932D01*
X34901Y-10932D01*
X34859Y-10974D01*
X34859Y-11390D01*
X35375Y-11390D01*
X35417Y-11348D01*
X35417Y-11066D01*
X35417Y-11733D01*
X35417Y-11451D01*
X35375Y-11409D01*
X34859Y-11409D01*
X34859Y-11417D01*
X34840Y-11417D01*
X34840Y-11409D01*
X34832Y-11409D01*
X34832Y-11390D01*
X34840Y-11390D01*
X34840Y-10974D01*
X34798Y-10932D01*
X34483Y-10932D01*
X34416Y-10932D01*
X34390Y-10943D01*
X34390Y-10748D01*
X34390Y-10318D01*
X34390Y-10299D01*
X34390Y-9869D01*
X34348Y-9827D01*
X34078Y-9827D01*
X34012Y-9827D01*
X33950Y-9852D01*
X33903Y-9899D01*
X33878Y-9961D01*
X33878Y-10257D01*
X33920Y-10299D01*
X34390Y-10299D01*
X34390Y-10318D01*
X33920Y-10318D01*
X33878Y-10360D01*
X33878Y-10656D01*
X33903Y-10718D01*
X33950Y-10765D01*
X34012Y-10790D01*
X34078Y-10790D01*
X34348Y-10790D01*
X34390Y-10748D01*
X34390Y-10943D01*
X34355Y-10958D01*
X34325Y-10988D01*
X34294Y-10958D01*
X34233Y-10932D01*
X34166Y-10932D01*
X33366Y-10932D01*
X33305Y-10958D01*
X33258Y-11005D01*
X33232Y-11066D01*
X33232Y-11133D01*
X33232Y-11134D01*
X33115Y-11134D01*
X33115Y-10917D01*
X33483Y-10917D01*
X33544Y-10891D01*
X33591Y-10844D01*
X33617Y-10783D01*
X33617Y-10716D01*
X33617Y-10116D01*
X33591Y-10055D01*
X33544Y-10008D01*
X33483Y-9982D01*
X33416Y-9982D01*
X32616Y-9982D01*
X32555Y-10008D01*
X32508Y-10054D01*
X32508Y-9851D01*
X32466Y-9809D01*
X31642Y-9809D01*
X31642Y-10240D01*
X31684Y-10282D01*
X32374Y-10282D01*
X32436Y-10256D01*
X32482Y-10210D01*
X32482Y-10783D01*
X32508Y-10844D01*
X32555Y-10891D01*
X32584Y-10903D01*
X32584Y-11134D01*
X32409Y-11134D01*
X32400Y-11134D01*
X31623Y-11134D01*
X31623Y-10240D01*
X31623Y-9809D01*
X31623Y-9790D01*
X31623Y-9359D01*
X31581Y-9317D01*
X30891Y-9317D01*
X30829Y-9343D01*
X30782Y-9390D01*
X30757Y-9451D01*
X30757Y-9518D01*
X30757Y-9748D01*
X30799Y-9790D01*
X31623Y-9790D01*
X31623Y-9809D01*
X30799Y-9809D01*
X30757Y-9851D01*
X30757Y-10081D01*
X30757Y-10148D01*
X30782Y-10209D01*
X30829Y-10256D01*
X30891Y-10282D01*
X31581Y-10282D01*
X31623Y-10240D01*
X31623Y-11134D01*
X30400Y-11134D01*
X30342Y-11145D01*
X30342Y-10081D01*
X30342Y-9451D01*
X30317Y-9390D01*
X30270Y-9343D01*
X30208Y-9317D01*
X30142Y-9317D01*
X28725Y-9317D01*
X28663Y-9343D01*
X28616Y-9390D01*
X28591Y-9451D01*
X28591Y-9518D01*
X28591Y-10148D01*
X28616Y-10209D01*
X28663Y-10256D01*
X28725Y-10282D01*
X28791Y-10282D01*
X29141Y-10282D01*
X28526Y-10897D01*
X28526Y-9257D01*
X28379Y-8901D01*
X28107Y-8629D01*
X27752Y-8481D01*
X27367Y-8481D01*
X27011Y-8628D01*
X26739Y-8900D01*
X26591Y-9255D01*
X26591Y-9640D01*
X26738Y-9996D01*
X27010Y-10268D01*
X27365Y-10415D01*
X27750Y-10416D01*
X28106Y-10269D01*
X28378Y-9997D01*
X28526Y-9642D01*
X28526Y-9257D01*
X28526Y-10897D01*
X28354Y-11069D01*
X28297Y-11155D01*
X28277Y-11257D01*
X28277Y-11327D01*
X28263Y-11341D01*
X28237Y-11403D01*
X28237Y-11461D01*
X28005Y-11229D01*
X27919Y-11171D01*
X27817Y-11151D01*
X27560Y-11151D01*
X27430Y-11021D01*
X27258Y-10950D01*
X27072Y-10949D01*
X26900Y-11020D01*
X26769Y-11152D01*
X26698Y-11323D01*
X26697Y-11509D01*
X26768Y-11681D01*
X26900Y-11813D01*
X27071Y-11884D01*
X27257Y-11884D01*
X27429Y-11813D01*
X27560Y-11683D01*
X27707Y-11683D01*
X27963Y-11939D01*
X27963Y-11939D01*
X28021Y-11978D01*
X28050Y-11997D01*
X28050Y-11997D01*
X28151Y-12017D01*
X28151Y-12017D01*
X28237Y-12017D01*
X28237Y-12099D01*
X28262Y-12161D01*
X28309Y-12208D01*
X28371Y-12234D01*
X28437Y-12234D01*
X28573Y-12234D01*
X28573Y-12286D01*
X28573Y-12743D01*
X28614Y-12784D01*
X29124Y-12784D01*
X29124Y-12388D01*
X29124Y-12127D01*
X29124Y-11859D01*
X29116Y-11859D01*
X29116Y-11839D01*
X29124Y-11839D01*
X29124Y-11310D01*
X29082Y-11268D01*
X28962Y-11268D01*
X28901Y-11294D01*
X28854Y-11341D01*
X28838Y-11379D01*
X28825Y-11349D01*
X29654Y-10520D01*
X29654Y-10520D01*
X29693Y-10463D01*
X29712Y-10434D01*
X29712Y-10434D01*
X29732Y-10333D01*
X29732Y-10333D01*
X29732Y-10282D01*
X30208Y-10282D01*
X30270Y-10256D01*
X30317Y-10209D01*
X30342Y-10148D01*
X30342Y-10081D01*
X30342Y-11145D01*
X30298Y-11154D01*
X30212Y-11212D01*
X30027Y-11396D01*
X30004Y-11342D01*
X29957Y-11294D01*
X29896Y-11269D01*
X29829Y-11269D01*
X29553Y-11269D01*
X29492Y-11294D01*
X29445Y-11341D01*
X29429Y-11379D01*
X29413Y-11341D01*
X29366Y-11294D01*
X29304Y-11268D01*
X29185Y-11268D01*
X29143Y-11310D01*
X29143Y-11839D01*
X29151Y-11839D01*
X29151Y-11859D01*
X29143Y-11859D01*
X29143Y-12127D01*
X29143Y-12388D01*
X29143Y-12784D01*
X29652Y-12784D01*
X29694Y-12743D01*
X29694Y-12286D01*
X29694Y-12234D01*
X29895Y-12234D01*
X29957Y-12208D01*
X30004Y-12161D01*
X30030Y-12100D01*
X30030Y-12033D01*
X30030Y-12017D01*
X30048Y-12017D01*
X30149Y-11997D01*
X30149Y-11997D01*
X30236Y-11939D01*
X30311Y-11864D01*
X30311Y-11868D01*
X30311Y-12098D01*
X30353Y-12140D01*
X30981Y-12140D01*
X30981Y-11709D01*
X30939Y-11667D01*
X30508Y-11667D01*
X30510Y-11665D01*
X32143Y-11665D01*
X32143Y-11667D01*
X31863Y-11667D01*
X31802Y-11693D01*
X31755Y-11740D01*
X31729Y-11801D01*
X31729Y-11868D01*
X31729Y-12498D01*
X31755Y-12559D01*
X31802Y-12606D01*
X31863Y-12632D01*
X31930Y-12632D01*
X32954Y-12632D01*
X33015Y-12606D01*
X33062Y-12559D01*
X33088Y-12498D01*
X33088Y-12431D01*
X33088Y-11801D01*
X33062Y-11740D01*
X33015Y-11693D01*
X32954Y-11667D01*
X32887Y-11667D01*
X32674Y-11667D01*
X32674Y-11665D01*
X32800Y-11665D01*
X33232Y-11665D01*
X33232Y-11733D01*
X33258Y-11794D01*
X33305Y-11841D01*
X33366Y-11867D01*
X33433Y-11867D01*
X34233Y-11867D01*
X34294Y-11841D01*
X34325Y-11811D01*
X34355Y-11841D01*
X34416Y-11867D01*
X34483Y-11867D01*
X34555Y-11867D01*
X34507Y-11981D01*
X34507Y-12117D01*
X34555Y-12232D01*
X34416Y-12232D01*
X34355Y-12258D01*
X34324Y-12288D01*
X34294Y-12258D01*
X34233Y-12232D01*
X34166Y-12232D01*
X33366Y-12232D01*
X33305Y-12258D01*
X33258Y-12305D01*
X33232Y-12366D01*
X33232Y-12433D01*
X33232Y-12498D01*
X33212Y-12512D01*
X33212Y-12512D01*
X33212Y-12512D01*
X32939Y-12784D01*
X31670Y-12784D01*
X31670Y-12431D01*
X31670Y-11868D01*
X31670Y-11801D01*
X31644Y-11740D01*
X31597Y-11693D01*
X31536Y-11667D01*
X31042Y-11667D01*
X31000Y-11709D01*
X31000Y-12140D01*
X31628Y-12140D01*
X31670Y-12098D01*
X31670Y-11868D01*
X31670Y-12431D01*
X31670Y-12201D01*
X31628Y-12159D01*
X31000Y-12159D01*
X31000Y-12590D01*
X31042Y-12632D01*
X31536Y-12632D01*
X31597Y-12606D01*
X31644Y-12559D01*
X31670Y-12498D01*
X31670Y-12431D01*
X31670Y-12784D01*
X30981Y-12784D01*
X30981Y-12590D01*
X30981Y-12159D01*
X30353Y-12159D01*
X30311Y-12201D01*
X30311Y-12431D01*
X30311Y-12498D01*
X30337Y-12559D01*
X30384Y-12606D01*
X30445Y-12632D01*
X30939Y-12632D01*
X30981Y-12590D01*
X30981Y-12784D01*
X30800Y-12784D01*
X30698Y-12804D01*
X30612Y-12862D01*
X30512Y-12962D01*
X30454Y-13048D01*
X30437Y-13132D01*
X30366Y-13132D01*
X30305Y-13158D01*
X30258Y-13205D01*
X30232Y-13266D01*
X30232Y-13333D01*
X30232Y-13434D01*
X30200Y-13434D01*
X30098Y-13454D01*
X30012Y-13512D01*
X30012Y-13512D01*
X30012Y-13512D01*
X29694Y-13829D01*
X29694Y-13303D01*
X29694Y-12846D01*
X29652Y-12804D01*
X29143Y-12804D01*
X29143Y-13461D01*
X29185Y-13503D01*
X29560Y-13503D01*
X29622Y-13478D01*
X29669Y-13431D01*
X29694Y-13369D01*
X29694Y-13303D01*
X29694Y-13829D01*
X29689Y-13834D01*
X29124Y-13834D01*
X29124Y-13461D01*
X29124Y-12804D01*
X28614Y-12804D01*
X28573Y-12846D01*
X28573Y-13303D01*
X28573Y-13369D01*
X28598Y-13431D01*
X28645Y-13478D01*
X28707Y-13503D01*
X29082Y-13503D01*
X29124Y-13461D01*
X29124Y-13834D01*
X27632Y-13834D01*
X27632Y-12750D01*
X27632Y-12084D01*
X27607Y-12022D01*
X27560Y-11975D01*
X27498Y-11950D01*
X27432Y-11949D01*
X27217Y-11950D01*
X27175Y-11991D01*
X27175Y-12407D01*
X27590Y-12407D01*
X27632Y-12365D01*
X27632Y-12084D01*
X27632Y-12750D01*
X27632Y-12468D01*
X27590Y-12427D01*
X27175Y-12427D01*
X27175Y-12842D01*
X27217Y-12884D01*
X27432Y-12884D01*
X27498Y-12884D01*
X27560Y-12859D01*
X27607Y-12811D01*
X27632Y-12750D01*
X27632Y-13834D01*
X27155Y-13834D01*
X27155Y-12842D01*
X27155Y-12427D01*
X27155Y-12407D01*
X27155Y-11991D01*
X27113Y-11950D01*
X26898Y-11949D01*
X26831Y-11950D01*
X26770Y-11975D01*
X26723Y-12022D01*
X26698Y-12084D01*
X26698Y-12365D01*
X26739Y-12407D01*
X27155Y-12407D01*
X27155Y-12427D01*
X26739Y-12427D01*
X26698Y-12468D01*
X26698Y-12750D01*
X26723Y-12811D01*
X26770Y-12859D01*
X26831Y-12884D01*
X26898Y-12884D01*
X27113Y-12884D01*
X27155Y-12842D01*
X27155Y-13834D01*
X26900Y-13834D01*
X26798Y-13854D01*
X26769Y-13873D01*
X26712Y-13912D01*
X26574Y-14049D01*
X26574Y-8464D01*
X36548Y-8464D01*
X36508Y-8505D01*
X36482Y-8566D01*
X36482Y-8633D01*
X36482Y-8848D01*
X36524Y-8890D01*
X36940Y-8890D01*
X36940Y-8882D01*
X36959Y-8882D01*
X36959Y-8890D01*
X37375Y-8890D01*
X37417Y-8848D01*
X37417Y-8633D01*
X37417Y-8566D01*
X37391Y-8505D01*
X37351Y-8464D01*
X37780Y-8464D01*
X37780Y-8464D01*
G37*
G54D28*
X37780Y-8464D02*
X37685Y-8503D01*
X37554Y-8634D01*
X37482Y-8806D01*
X37482Y-8992D01*
X37553Y-9164D01*
X37684Y-9295D01*
X37684Y-9532D01*
X37616Y-9532D01*
X37555Y-9558D01*
X37508Y-9605D01*
X37482Y-9666D01*
X37482Y-9733D01*
X37482Y-10533D01*
X37508Y-10594D01*
X37538Y-10625D01*
X37508Y-10655D01*
X37482Y-10716D01*
X37482Y-10783D01*
X37482Y-11583D01*
X37508Y-11644D01*
X37538Y-11675D01*
X37508Y-11705D01*
X37482Y-11766D01*
X37482Y-11833D01*
X37482Y-12633D01*
X37508Y-12694D01*
X37555Y-12741D01*
X37616Y-12767D01*
X37683Y-12767D01*
X37684Y-12767D01*
X37684Y-13150D01*
X37644Y-13109D01*
X37518Y-13057D01*
X37417Y-13057D01*
X37417Y-9166D01*
X37417Y-8951D01*
X37375Y-8909D01*
X36959Y-8909D01*
X36959Y-9325D01*
X37001Y-9367D01*
X37283Y-9367D01*
X37344Y-9341D01*
X37391Y-9294D01*
X37417Y-9233D01*
X37417Y-9166D01*
X37417Y-13057D01*
X37382Y-13057D01*
X37256Y-13109D01*
X37159Y-13205D01*
X37107Y-13331D01*
X37107Y-13366D01*
X36925Y-13549D01*
X36365Y-12989D01*
X36365Y-12767D01*
X36383Y-12767D01*
X36983Y-12767D01*
X37044Y-12741D01*
X37091Y-12694D01*
X37117Y-12633D01*
X37117Y-12566D01*
X37117Y-11766D01*
X37091Y-11705D01*
X37061Y-11674D01*
X37091Y-11644D01*
X37117Y-11583D01*
X37117Y-11516D01*
X37117Y-10716D01*
X37091Y-10655D01*
X37061Y-10624D01*
X37091Y-10594D01*
X37117Y-10533D01*
X37117Y-10466D01*
X37117Y-9733D01*
X37117Y-9666D01*
X37091Y-9605D01*
X37044Y-9558D01*
X36983Y-9532D01*
X36940Y-9532D01*
X36940Y-9325D01*
X36940Y-8909D01*
X36524Y-8909D01*
X36482Y-8951D01*
X36482Y-9166D01*
X36482Y-9233D01*
X36508Y-9294D01*
X36555Y-9341D01*
X36616Y-9367D01*
X36898Y-9367D01*
X36940Y-9325D01*
X36940Y-9532D01*
X36701Y-9532D01*
X36659Y-9574D01*
X36659Y-10090D01*
X37075Y-10090D01*
X37117Y-10048D01*
X37117Y-9733D01*
X37117Y-10466D01*
X37117Y-10151D01*
X37075Y-10109D01*
X36659Y-10109D01*
X36659Y-10117D01*
X36640Y-10117D01*
X36640Y-10109D01*
X36640Y-10090D01*
X36640Y-9574D01*
X36598Y-9532D01*
X36316Y-9532D01*
X36255Y-9558D01*
X36208Y-9605D01*
X36182Y-9666D01*
X36182Y-9733D01*
X36182Y-10048D01*
X36224Y-10090D01*
X36640Y-10090D01*
X36640Y-10109D01*
X36224Y-10109D01*
X36182Y-10151D01*
X36182Y-10466D01*
X36182Y-10533D01*
X36208Y-10594D01*
X36238Y-10625D01*
X36219Y-10643D01*
X36117Y-10541D01*
X36117Y-10116D01*
X36117Y-9483D01*
X36117Y-8816D01*
X36091Y-8755D01*
X36044Y-8708D01*
X35983Y-8682D01*
X35916Y-8682D01*
X35601Y-8682D01*
X35559Y-8724D01*
X35559Y-9140D01*
X36075Y-9140D01*
X36117Y-9098D01*
X36117Y-8816D01*
X36117Y-9483D01*
X36117Y-9201D01*
X36075Y-9159D01*
X35559Y-9159D01*
X35559Y-9575D01*
X35601Y-9617D01*
X35916Y-9617D01*
X35983Y-9617D01*
X36044Y-9591D01*
X36091Y-9544D01*
X36117Y-9483D01*
X36117Y-10116D01*
X36091Y-10055D01*
X36044Y-10008D01*
X35983Y-9982D01*
X35916Y-9982D01*
X35540Y-9982D01*
X35540Y-9575D01*
X35540Y-9159D01*
X35540Y-9140D01*
X35540Y-8724D01*
X35498Y-8682D01*
X35183Y-8682D01*
X35116Y-8682D01*
X35055Y-8708D01*
X35008Y-8755D01*
X34982Y-8816D01*
X34982Y-9098D01*
X35024Y-9140D01*
X35540Y-9140D01*
X35540Y-9159D01*
X35024Y-9159D01*
X34982Y-9201D01*
X34982Y-9483D01*
X35008Y-9544D01*
X35055Y-9591D01*
X35116Y-9617D01*
X35183Y-9617D01*
X35498Y-9617D01*
X35540Y-9575D01*
X35540Y-9982D01*
X35116Y-9982D01*
X35055Y-10008D01*
X35008Y-10055D01*
X34982Y-10116D01*
X34982Y-10183D01*
X34982Y-10783D01*
X35008Y-10844D01*
X35055Y-10891D01*
X35116Y-10917D01*
X35183Y-10917D01*
X35741Y-10917D01*
X35834Y-11010D01*
X35834Y-13100D01*
X35854Y-13201D01*
X35912Y-13287D01*
X36684Y-14060D01*
X36684Y-14134D01*
X36075Y-14134D01*
X35900Y-14134D01*
X35602Y-14134D01*
X35641Y-14094D01*
X35667Y-14033D01*
X35667Y-13951D01*
X35625Y-13909D01*
X35259Y-13909D01*
X35259Y-13917D01*
X35240Y-13917D01*
X35240Y-13909D01*
X34874Y-13909D01*
X34832Y-13951D01*
X34832Y-14033D01*
X34858Y-14094D01*
X34905Y-14141D01*
X34924Y-14149D01*
X34905Y-14158D01*
X34858Y-14205D01*
X34850Y-14224D01*
X34800Y-14174D01*
X34817Y-14133D01*
X34817Y-14066D01*
X34817Y-13266D01*
X34791Y-13205D01*
X34754Y-13167D01*
X34896Y-13167D01*
X34858Y-13205D01*
X34832Y-13266D01*
X34832Y-13333D01*
X34832Y-13533D01*
X34858Y-13594D01*
X34905Y-13641D01*
X34924Y-13650D01*
X34905Y-13658D01*
X34858Y-13705D01*
X34832Y-13766D01*
X34832Y-13848D01*
X34874Y-13890D01*
X35240Y-13890D01*
X35240Y-13882D01*
X35259Y-13882D01*
X35259Y-13890D01*
X35625Y-13890D01*
X35667Y-13848D01*
X35667Y-13766D01*
X35641Y-13705D01*
X35594Y-13658D01*
X35575Y-13650D01*
X35594Y-13641D01*
X35641Y-13594D01*
X35667Y-13533D01*
X35667Y-13466D01*
X35667Y-13266D01*
X35641Y-13205D01*
X35594Y-13158D01*
X35533Y-13132D01*
X35515Y-13132D01*
X35515Y-13100D01*
X35515Y-13099D01*
X35495Y-12998D01*
X35495Y-12998D01*
X35437Y-12912D01*
X35437Y-12912D01*
X35417Y-12891D01*
X35417Y-12366D01*
X35391Y-12305D01*
X35344Y-12258D01*
X35283Y-12232D01*
X35216Y-12232D01*
X35144Y-12232D01*
X35192Y-12118D01*
X35192Y-11982D01*
X35144Y-11867D01*
X35216Y-11867D01*
X35283Y-11867D01*
X35344Y-11841D01*
X35391Y-11794D01*
X35417Y-11733D01*
X35417Y-11066D01*
X35391Y-11005D01*
X35344Y-10958D01*
X35283Y-10932D01*
X35216Y-10932D01*
X34921Y-10932D01*
X34921Y-10656D01*
X34921Y-9961D01*
X34921Y-9472D01*
X34921Y-8843D01*
X34896Y-8781D01*
X34849Y-8734D01*
X34787Y-8709D01*
X34721Y-8709D01*
X34012Y-8709D01*
X33950Y-8734D01*
X33903Y-8781D01*
X33878Y-8843D01*
X33878Y-8884D01*
X33617Y-8884D01*
X33617Y-8816D01*
X33591Y-8755D01*
X33544Y-8708D01*
X33483Y-8682D01*
X33416Y-8682D01*
X32616Y-8682D01*
X32555Y-8708D01*
X32508Y-8755D01*
X32482Y-8816D01*
X32482Y-8883D01*
X32482Y-9389D01*
X32436Y-9343D01*
X32374Y-9317D01*
X31684Y-9317D01*
X31642Y-9359D01*
X31642Y-9790D01*
X32466Y-9790D01*
X32508Y-9748D01*
X32508Y-9545D01*
X32555Y-9591D01*
X32616Y-9617D01*
X32683Y-9617D01*
X33483Y-9617D01*
X33544Y-9591D01*
X33591Y-9544D01*
X33617Y-9483D01*
X33617Y-9416D01*
X33617Y-9415D01*
X33878Y-9415D01*
X33878Y-9538D01*
X33903Y-9600D01*
X33950Y-9647D01*
X34012Y-9672D01*
X34078Y-9672D01*
X34787Y-9672D01*
X34849Y-9647D01*
X34896Y-9600D01*
X34921Y-9538D01*
X34921Y-9472D01*
X34921Y-9961D01*
X34896Y-9899D01*
X34849Y-9852D01*
X34787Y-9827D01*
X34721Y-9827D01*
X34451Y-9827D01*
X34409Y-9869D01*
X34409Y-10299D01*
X34879Y-10299D01*
X34921Y-10257D01*
X34921Y-9961D01*
X34921Y-10656D01*
X34921Y-10360D01*
X34879Y-10318D01*
X34409Y-10318D01*
X34409Y-10748D01*
X34451Y-10790D01*
X34721Y-10790D01*
X34787Y-10790D01*
X34849Y-10765D01*
X34896Y-10718D01*
X34921Y-10656D01*
X34921Y-10932D01*
X34901Y-10932D01*
X34859Y-10974D01*
X34859Y-11390D01*
X35375Y-11390D01*
X35417Y-11348D01*
X35417Y-11066D01*
X35417Y-11733D01*
X35417Y-11451D01*
X35375Y-11409D01*
X34859Y-11409D01*
X34859Y-11417D01*
X34840Y-11417D01*
X34840Y-11409D01*
X34832Y-11409D01*
X34832Y-11390D01*
X34840Y-11390D01*
X34840Y-10974D01*
X34798Y-10932D01*
X34483Y-10932D01*
X34416Y-10932D01*
X34390Y-10943D01*
X34390Y-10748D01*
X34390Y-10318D01*
X34390Y-10299D01*
X34390Y-9869D01*
X34348Y-9827D01*
X34078Y-9827D01*
X34012Y-9827D01*
X33950Y-9852D01*
X33903Y-9899D01*
X33878Y-9961D01*
X33878Y-10257D01*
X33920Y-10299D01*
X34390Y-10299D01*
X34390Y-10318D01*
X33920Y-10318D01*
X33878Y-10360D01*
X33878Y-10656D01*
X33903Y-10718D01*
X33950Y-10765D01*
X34012Y-10790D01*
X34078Y-10790D01*
X34348Y-10790D01*
X34390Y-10748D01*
X34390Y-10943D01*
X34355Y-10958D01*
X34325Y-10988D01*
X34294Y-10958D01*
X34233Y-10932D01*
X34166Y-10932D01*
X33366Y-10932D01*
X33305Y-10958D01*
X33258Y-11005D01*
X33232Y-11066D01*
X33232Y-11133D01*
X33232Y-11134D01*
X33115Y-11134D01*
X33115Y-10917D01*
X33483Y-10917D01*
X33544Y-10891D01*
X33591Y-10844D01*
X33617Y-10783D01*
X33617Y-10716D01*
X33617Y-10116D01*
X33591Y-10055D01*
X33544Y-10008D01*
X33483Y-9982D01*
X33416Y-9982D01*
X32616Y-9982D01*
X32555Y-10008D01*
X32508Y-10054D01*
X32508Y-9851D01*
X32466Y-9809D01*
X31642Y-9809D01*
X31642Y-10240D01*
X31684Y-10282D01*
X32374Y-10282D01*
X32436Y-10256D01*
X32482Y-10210D01*
X32482Y-10783D01*
X32508Y-10844D01*
X32555Y-10891D01*
X32584Y-10903D01*
X32584Y-11134D01*
X32409Y-11134D01*
X32400Y-11134D01*
X31623Y-11134D01*
X31623Y-10240D01*
X31623Y-9809D01*
X31623Y-9790D01*
X31623Y-9359D01*
X31581Y-9317D01*
X30891Y-9317D01*
X30829Y-9343D01*
X30782Y-9390D01*
X30757Y-9451D01*
X30757Y-9518D01*
X30757Y-9748D01*
X30799Y-9790D01*
X31623Y-9790D01*
X31623Y-9809D01*
X30799Y-9809D01*
X30757Y-9851D01*
X30757Y-10081D01*
X30757Y-10148D01*
X30782Y-10209D01*
X30829Y-10256D01*
X30891Y-10282D01*
X31581Y-10282D01*
X31623Y-10240D01*
X31623Y-11134D01*
X30400Y-11134D01*
X30342Y-11145D01*
X30342Y-10081D01*
X30342Y-9451D01*
X30317Y-9390D01*
X30270Y-9343D01*
X30208Y-9317D01*
X30142Y-9317D01*
X28725Y-9317D01*
X28663Y-9343D01*
X28616Y-9390D01*
X28591Y-9451D01*
X28591Y-9518D01*
X28591Y-10148D01*
X28616Y-10209D01*
X28663Y-10256D01*
X28725Y-10282D01*
X28791Y-10282D01*
X29141Y-10282D01*
X28526Y-10897D01*
X28526Y-9257D01*
X28379Y-8901D01*
X28107Y-8629D01*
X27752Y-8481D01*
X27367Y-8481D01*
X27011Y-8628D01*
X26739Y-8900D01*
X26591Y-9255D01*
X26591Y-9640D01*
X26738Y-9996D01*
X27010Y-10268D01*
X27365Y-10415D01*
X27750Y-10416D01*
X28106Y-10269D01*
X28378Y-9997D01*
X28526Y-9642D01*
X28526Y-9257D01*
X28526Y-10897D01*
X28354Y-11069D01*
X28297Y-11155D01*
X28277Y-11257D01*
X28277Y-11327D01*
X28263Y-11341D01*
X28237Y-11403D01*
X28237Y-11461D01*
X28005Y-11229D01*
X27919Y-11171D01*
X27817Y-11151D01*
X27560Y-11151D01*
X27430Y-11021D01*
X27258Y-10950D01*
X27072Y-10949D01*
X26900Y-11020D01*
X26769Y-11152D01*
X26698Y-11323D01*
X26697Y-11509D01*
X26768Y-11681D01*
X26900Y-11813D01*
X27071Y-11884D01*
X27257Y-11884D01*
X27429Y-11813D01*
X27560Y-11683D01*
X27707Y-11683D01*
X27963Y-11939D01*
X27963Y-11939D01*
X28021Y-11978D01*
X28050Y-11997D01*
X28050Y-11997D01*
X28151Y-12017D01*
X28151Y-12017D01*
X28237Y-12017D01*
X28237Y-12099D01*
X28262Y-12161D01*
X28309Y-12208D01*
X28371Y-12234D01*
X28437Y-12234D01*
X28573Y-12234D01*
X28573Y-12286D01*
X28573Y-12743D01*
X28614Y-12784D01*
X29124Y-12784D01*
X29124Y-12388D01*
X29124Y-12127D01*
X29124Y-11859D01*
X29116Y-11859D01*
X29116Y-11839D01*
X29124Y-11839D01*
X29124Y-11310D01*
X29082Y-11268D01*
X28962Y-11268D01*
X28901Y-11294D01*
X28854Y-11341D01*
X28838Y-11379D01*
X28825Y-11349D01*
X29654Y-10520D01*
X29654Y-10520D01*
X29693Y-10463D01*
X29712Y-10434D01*
X29712Y-10434D01*
X29732Y-10333D01*
X29732Y-10333D01*
X29732Y-10282D01*
X30208Y-10282D01*
X30270Y-10256D01*
X30317Y-10209D01*
X30342Y-10148D01*
X30342Y-10081D01*
X30342Y-11145D01*
X30298Y-11154D01*
X30212Y-11212D01*
X30027Y-11396D01*
X30004Y-11342D01*
X29957Y-11294D01*
X29896Y-11269D01*
X29829Y-11269D01*
X29553Y-11269D01*
X29492Y-11294D01*
X29445Y-11341D01*
X29429Y-11379D01*
X29413Y-11341D01*
X29366Y-11294D01*
X29304Y-11268D01*
X29185Y-11268D01*
X29143Y-11310D01*
X29143Y-11839D01*
X29151Y-11839D01*
X29151Y-11859D01*
X29143Y-11859D01*
X29143Y-12127D01*
X29143Y-12388D01*
X29143Y-12784D01*
X29652Y-12784D01*
X29694Y-12743D01*
X29694Y-12286D01*
X29694Y-12234D01*
X29895Y-12234D01*
X29957Y-12208D01*
X30004Y-12161D01*
X30030Y-12100D01*
X30030Y-12033D01*
X30030Y-12017D01*
X30048Y-12017D01*
X30149Y-11997D01*
X30149Y-11997D01*
X30236Y-11939D01*
X30311Y-11864D01*
X30311Y-11868D01*
X30311Y-12098D01*
X30353Y-12140D01*
X30981Y-12140D01*
X30981Y-11709D01*
X30939Y-11667D01*
X30508Y-11667D01*
X30510Y-11665D01*
X32143Y-11665D01*
X32143Y-11667D01*
X31863Y-11667D01*
X31802Y-11693D01*
X31755Y-11740D01*
X31729Y-11801D01*
X31729Y-11868D01*
X31729Y-12498D01*
X31755Y-12559D01*
X31802Y-12606D01*
X31863Y-12632D01*
X31930Y-12632D01*
X32954Y-12632D01*
X33015Y-12606D01*
X33062Y-12559D01*
X33088Y-12498D01*
X33088Y-12431D01*
X33088Y-11801D01*
X33062Y-11740D01*
X33015Y-11693D01*
X32954Y-11667D01*
X32887Y-11667D01*
X32674Y-11667D01*
X32674Y-11665D01*
X32800Y-11665D01*
X33232Y-11665D01*
X33232Y-11733D01*
X33258Y-11794D01*
X33305Y-11841D01*
X33366Y-11867D01*
X33433Y-11867D01*
X34233Y-11867D01*
X34294Y-11841D01*
X34325Y-11811D01*
X34355Y-11841D01*
X34416Y-11867D01*
X34483Y-11867D01*
X34555Y-11867D01*
X34507Y-11981D01*
X34507Y-12117D01*
X34555Y-12232D01*
X34416Y-12232D01*
X34355Y-12258D01*
X34324Y-12288D01*
X34294Y-12258D01*
X34233Y-12232D01*
X34166Y-12232D01*
X33366Y-12232D01*
X33305Y-12258D01*
X33258Y-12305D01*
X33232Y-12366D01*
X33232Y-12433D01*
X33232Y-12498D01*
X33212Y-12512D01*
X33212Y-12512D01*
X33212Y-12512D01*
X32939Y-12784D01*
X31670Y-12784D01*
X31670Y-12431D01*
X31670Y-11868D01*
X31670Y-11801D01*
X31644Y-11740D01*
X31597Y-11693D01*
X31536Y-11667D01*
X31042Y-11667D01*
X31000Y-11709D01*
X31000Y-12140D01*
X31628Y-12140D01*
X31670Y-12098D01*
X31670Y-11868D01*
X31670Y-12431D01*
X31670Y-12201D01*
X31628Y-12159D01*
X31000Y-12159D01*
X31000Y-12590D01*
X31042Y-12632D01*
X31536Y-12632D01*
X31597Y-12606D01*
X31644Y-12559D01*
X31670Y-12498D01*
X31670Y-12431D01*
X31670Y-12784D01*
X30981Y-12784D01*
X30981Y-12590D01*
X30981Y-12159D01*
X30353Y-12159D01*
X30311Y-12201D01*
X30311Y-12431D01*
X30311Y-12498D01*
X30337Y-12559D01*
X30384Y-12606D01*
X30445Y-12632D01*
X30939Y-12632D01*
X30981Y-12590D01*
X30981Y-12784D01*
X30800Y-12784D01*
X30698Y-12804D01*
X30612Y-12862D01*
X30512Y-12962D01*
X30454Y-13048D01*
X30437Y-13132D01*
X30366Y-13132D01*
X30305Y-13158D01*
X30258Y-13205D01*
X30232Y-13266D01*
X30232Y-13333D01*
X30232Y-13434D01*
X30200Y-13434D01*
X30098Y-13454D01*
X30012Y-13512D01*
X30012Y-13512D01*
X30012Y-13512D01*
X29694Y-13829D01*
X29694Y-13303D01*
X29694Y-12846D01*
X29652Y-12804D01*
X29143Y-12804D01*
X29143Y-13461D01*
X29185Y-13503D01*
X29560Y-13503D01*
X29622Y-13478D01*
X29669Y-13431D01*
X29694Y-13369D01*
X29694Y-13303D01*
X29694Y-13829D01*
X29689Y-13834D01*
X29124Y-13834D01*
X29124Y-13461D01*
X29124Y-12804D01*
X28614Y-12804D01*
X28573Y-12846D01*
X28573Y-13303D01*
X28573Y-13369D01*
X28598Y-13431D01*
X28645Y-13478D01*
X28707Y-13503D01*
X29082Y-13503D01*
X29124Y-13461D01*
X29124Y-13834D01*
X27632Y-13834D01*
X27632Y-12750D01*
X27632Y-12084D01*
X27607Y-12022D01*
X27560Y-11975D01*
X27498Y-11950D01*
X27432Y-11949D01*
X27217Y-11950D01*
X27175Y-11991D01*
X27175Y-12407D01*
X27590Y-12407D01*
X27632Y-12365D01*
X27632Y-12084D01*
X27632Y-12750D01*
X27632Y-12468D01*
X27590Y-12427D01*
X27175Y-12427D01*
X27175Y-12842D01*
X27217Y-12884D01*
X27432Y-12884D01*
X27498Y-12884D01*
X27560Y-12859D01*
X27607Y-12811D01*
X27632Y-12750D01*
X27632Y-13834D01*
X27155Y-13834D01*
X27155Y-12842D01*
X27155Y-12427D01*
X27155Y-12407D01*
X27155Y-11991D01*
X27113Y-11950D01*
X26898Y-11949D01*
X26831Y-11950D01*
X26770Y-11975D01*
X26723Y-12022D01*
X26698Y-12084D01*
X26698Y-12365D01*
X26739Y-12407D01*
X27155Y-12407D01*
X27155Y-12427D01*
X26739Y-12427D01*
X26698Y-12468D01*
X26698Y-12750D01*
X26723Y-12811D01*
X26770Y-12859D01*
X26831Y-12884D01*
X26898Y-12884D01*
X27113Y-12884D01*
X27155Y-12842D01*
X27155Y-13834D01*
X26900Y-13834D01*
X26798Y-13854D01*
X26769Y-13873D01*
X26712Y-13912D01*
X26574Y-14049D01*
X26574Y-8464D01*
X36548Y-8464D01*
X36508Y-8505D01*
X36482Y-8566D01*
X36482Y-8633D01*
X36482Y-8848D01*
X36524Y-8890D01*
X36940Y-8890D01*
X36940Y-8882D01*
X36959Y-8882D01*
X36959Y-8890D01*
X37375Y-8890D01*
X37417Y-8848D01*
X37417Y-8633D01*
X37417Y-8566D01*
X37391Y-8505D01*
X37351Y-8464D01*
X37780Y-8464D01*
G54D10*
G36*
X38381Y-16134D02*
X38300Y-16134D01*
X38198Y-16154D01*
X38112Y-16212D01*
X36862Y-17462D01*
X36804Y-17548D01*
X36784Y-17650D01*
X36784Y-19191D01*
X36643Y-19132D01*
X36457Y-19132D01*
X36285Y-19203D01*
X36154Y-19334D01*
X36082Y-19506D01*
X36082Y-19692D01*
X36141Y-19834D01*
X35958Y-19834D01*
X36017Y-19693D01*
X36017Y-19508D01*
X36087Y-19437D01*
X36087Y-19437D01*
X36087Y-19437D01*
X36145Y-19351D01*
X36145Y-19351D01*
X36165Y-19250D01*
X36165Y-19250D01*
X36165Y-17050D01*
X36145Y-16948D01*
X36145Y-16948D01*
X36087Y-16862D01*
X35958Y-16732D01*
X35981Y-16742D01*
X36117Y-16742D01*
X36243Y-16690D01*
X36340Y-16594D01*
X36392Y-16468D01*
X36392Y-16332D01*
X36340Y-16206D01*
X36244Y-16109D01*
X36118Y-16057D01*
X35982Y-16057D01*
X35856Y-16109D01*
X35831Y-16134D01*
X35602Y-16134D01*
X35641Y-16094D01*
X35667Y-16033D01*
X35667Y-15966D01*
X35667Y-15766D01*
X35641Y-15705D01*
X35594Y-15658D01*
X35575Y-15650D01*
X35594Y-15641D01*
X35641Y-15594D01*
X35667Y-15533D01*
X35667Y-15466D01*
X35667Y-15266D01*
X35641Y-15205D01*
X35602Y-15165D01*
X36131Y-15165D01*
X36155Y-15190D01*
X36281Y-15242D01*
X36417Y-15242D01*
X36543Y-15190D01*
X36640Y-15094D01*
X36692Y-14968D01*
X36692Y-14832D01*
X36640Y-14706D01*
X36599Y-14665D01*
X36889Y-14665D01*
X38312Y-16087D01*
X38312Y-16087D01*
X38369Y-16126D01*
X38381Y-16134D01*
X38381Y-16134D01*
G37*
G54D28*
X38381Y-16134D02*
X38300Y-16134D01*
X38198Y-16154D01*
X38112Y-16212D01*
X36862Y-17462D01*
X36804Y-17548D01*
X36784Y-17650D01*
X36784Y-19191D01*
X36643Y-19132D01*
X36457Y-19132D01*
X36285Y-19203D01*
X36154Y-19334D01*
X36082Y-19506D01*
X36082Y-19692D01*
X36141Y-19834D01*
X35958Y-19834D01*
X36017Y-19693D01*
X36017Y-19508D01*
X36087Y-19437D01*
X36087Y-19437D01*
X36087Y-19437D01*
X36145Y-19351D01*
X36145Y-19351D01*
X36165Y-19250D01*
X36165Y-19250D01*
X36165Y-17050D01*
X36145Y-16948D01*
X36145Y-16948D01*
X36087Y-16862D01*
X35958Y-16732D01*
X35981Y-16742D01*
X36117Y-16742D01*
X36243Y-16690D01*
X36340Y-16594D01*
X36392Y-16468D01*
X36392Y-16332D01*
X36340Y-16206D01*
X36244Y-16109D01*
X36118Y-16057D01*
X35982Y-16057D01*
X35856Y-16109D01*
X35831Y-16134D01*
X35602Y-16134D01*
X35641Y-16094D01*
X35667Y-16033D01*
X35667Y-15966D01*
X35667Y-15766D01*
X35641Y-15705D01*
X35594Y-15658D01*
X35575Y-15650D01*
X35594Y-15641D01*
X35641Y-15594D01*
X35667Y-15533D01*
X35667Y-15466D01*
X35667Y-15266D01*
X35641Y-15205D01*
X35602Y-15165D01*
X36131Y-15165D01*
X36155Y-15190D01*
X36281Y-15242D01*
X36417Y-15242D01*
X36543Y-15190D01*
X36640Y-15094D01*
X36692Y-14968D01*
X36692Y-14832D01*
X36640Y-14706D01*
X36599Y-14665D01*
X36889Y-14665D01*
X38312Y-16087D01*
X38312Y-16087D01*
X38369Y-16126D01*
X38381Y-16134D01*
G54D10*
G36*
X39984Y-12784D02*
X39800Y-12784D01*
X39698Y-12804D01*
X39612Y-12862D01*
X39462Y-13012D01*
X39417Y-13079D01*
X39417Y-12566D01*
X39417Y-11766D01*
X39391Y-11705D01*
X39361Y-11674D01*
X39391Y-11644D01*
X39417Y-11583D01*
X39417Y-11516D01*
X39417Y-10716D01*
X39391Y-10655D01*
X39361Y-10624D01*
X39391Y-10594D01*
X39417Y-10533D01*
X39417Y-10466D01*
X39417Y-9733D01*
X39417Y-9166D01*
X39417Y-8951D01*
X39375Y-8909D01*
X38959Y-8909D01*
X38959Y-9325D01*
X39001Y-9367D01*
X39283Y-9367D01*
X39344Y-9341D01*
X39391Y-9294D01*
X39417Y-9233D01*
X39417Y-9166D01*
X39417Y-9733D01*
X39417Y-9666D01*
X39391Y-9605D01*
X39344Y-9558D01*
X39283Y-9532D01*
X39001Y-9532D01*
X38959Y-9574D01*
X38959Y-10090D01*
X39375Y-10090D01*
X39417Y-10048D01*
X39417Y-9733D01*
X39417Y-10466D01*
X39417Y-10151D01*
X39375Y-10109D01*
X38959Y-10109D01*
X38959Y-10117D01*
X38940Y-10117D01*
X38940Y-10109D01*
X38940Y-10090D01*
X38940Y-9574D01*
X38940Y-9325D01*
X38940Y-8909D01*
X38524Y-8909D01*
X38482Y-8951D01*
X38482Y-9166D01*
X38482Y-9233D01*
X38508Y-9294D01*
X38555Y-9341D01*
X38616Y-9367D01*
X38898Y-9367D01*
X38940Y-9325D01*
X38940Y-9574D01*
X38898Y-9532D01*
X38616Y-9532D01*
X38555Y-9558D01*
X38508Y-9605D01*
X38482Y-9666D01*
X38482Y-9733D01*
X38482Y-10048D01*
X38524Y-10090D01*
X38940Y-10090D01*
X38940Y-10109D01*
X38524Y-10109D01*
X38482Y-10151D01*
X38482Y-10466D01*
X38482Y-10533D01*
X38508Y-10594D01*
X38538Y-10625D01*
X38508Y-10655D01*
X38482Y-10716D01*
X38482Y-10783D01*
X38482Y-11583D01*
X38508Y-11644D01*
X38538Y-11675D01*
X38508Y-11705D01*
X38482Y-11766D01*
X38482Y-11833D01*
X38482Y-12633D01*
X38508Y-12694D01*
X38555Y-12741D01*
X38616Y-12767D01*
X38683Y-12767D01*
X39283Y-12767D01*
X39344Y-12741D01*
X39391Y-12694D01*
X39417Y-12633D01*
X39417Y-12566D01*
X39417Y-13079D01*
X39404Y-13098D01*
X39392Y-13157D01*
X39333Y-13132D01*
X39266Y-13132D01*
X38766Y-13132D01*
X38762Y-13134D01*
X38618Y-13134D01*
X38594Y-13109D01*
X38468Y-13057D01*
X38332Y-13057D01*
X38215Y-13105D01*
X38215Y-12767D01*
X38283Y-12767D01*
X38344Y-12741D01*
X38391Y-12694D01*
X38417Y-12633D01*
X38417Y-12566D01*
X38417Y-11766D01*
X38391Y-11705D01*
X38361Y-11674D01*
X38391Y-11644D01*
X38417Y-11583D01*
X38417Y-11516D01*
X38417Y-10716D01*
X38391Y-10655D01*
X38361Y-10624D01*
X38391Y-10594D01*
X38417Y-10533D01*
X38417Y-10466D01*
X38417Y-9666D01*
X38391Y-9605D01*
X38344Y-9558D01*
X38283Y-9532D01*
X38216Y-9532D01*
X38215Y-9532D01*
X38215Y-9295D01*
X38345Y-9165D01*
X38417Y-8993D01*
X38417Y-8807D01*
X38346Y-8635D01*
X38215Y-8504D01*
X38119Y-8464D01*
X38548Y-8464D01*
X38508Y-8505D01*
X38482Y-8566D01*
X38482Y-8633D01*
X38482Y-8848D01*
X38524Y-8890D01*
X38940Y-8890D01*
X38940Y-8882D01*
X38959Y-8882D01*
X38959Y-8890D01*
X39375Y-8890D01*
X39417Y-8848D01*
X39417Y-8633D01*
X39417Y-8566D01*
X39391Y-8505D01*
X39351Y-8464D01*
X39780Y-8464D01*
X39685Y-8503D01*
X39554Y-8634D01*
X39482Y-8806D01*
X39482Y-8992D01*
X39553Y-9164D01*
X39684Y-9295D01*
X39856Y-9367D01*
X39984Y-9367D01*
X39984Y-9532D01*
X39916Y-9532D01*
X39855Y-9558D01*
X39808Y-9605D01*
X39782Y-9666D01*
X39782Y-9733D01*
X39782Y-10533D01*
X39808Y-10594D01*
X39838Y-10625D01*
X39808Y-10655D01*
X39782Y-10716D01*
X39782Y-10783D01*
X39782Y-11583D01*
X39808Y-11644D01*
X39838Y-11675D01*
X39808Y-11705D01*
X39782Y-11766D01*
X39782Y-11833D01*
X39782Y-12633D01*
X39808Y-12694D01*
X39855Y-12741D01*
X39916Y-12767D01*
X39983Y-12767D01*
X39984Y-12767D01*
X39984Y-12784D01*
X39984Y-12784D01*
G37*
G54D28*
X39984Y-12784D02*
X39800Y-12784D01*
X39698Y-12804D01*
X39612Y-12862D01*
X39462Y-13012D01*
X39417Y-13079D01*
X39417Y-12566D01*
X39417Y-11766D01*
X39391Y-11705D01*
X39361Y-11674D01*
X39391Y-11644D01*
X39417Y-11583D01*
X39417Y-11516D01*
X39417Y-10716D01*
X39391Y-10655D01*
X39361Y-10624D01*
X39391Y-10594D01*
X39417Y-10533D01*
X39417Y-10466D01*
X39417Y-9733D01*
X39417Y-9166D01*
X39417Y-8951D01*
X39375Y-8909D01*
X38959Y-8909D01*
X38959Y-9325D01*
X39001Y-9367D01*
X39283Y-9367D01*
X39344Y-9341D01*
X39391Y-9294D01*
X39417Y-9233D01*
X39417Y-9166D01*
X39417Y-9733D01*
X39417Y-9666D01*
X39391Y-9605D01*
X39344Y-9558D01*
X39283Y-9532D01*
X39001Y-9532D01*
X38959Y-9574D01*
X38959Y-10090D01*
X39375Y-10090D01*
X39417Y-10048D01*
X39417Y-9733D01*
X39417Y-10466D01*
X39417Y-10151D01*
X39375Y-10109D01*
X38959Y-10109D01*
X38959Y-10117D01*
X38940Y-10117D01*
X38940Y-10109D01*
X38940Y-10090D01*
X38940Y-9574D01*
X38940Y-9325D01*
X38940Y-8909D01*
X38524Y-8909D01*
X38482Y-8951D01*
X38482Y-9166D01*
X38482Y-9233D01*
X38508Y-9294D01*
X38555Y-9341D01*
X38616Y-9367D01*
X38898Y-9367D01*
X38940Y-9325D01*
X38940Y-9574D01*
X38898Y-9532D01*
X38616Y-9532D01*
X38555Y-9558D01*
X38508Y-9605D01*
X38482Y-9666D01*
X38482Y-9733D01*
X38482Y-10048D01*
X38524Y-10090D01*
X38940Y-10090D01*
X38940Y-10109D01*
X38524Y-10109D01*
X38482Y-10151D01*
X38482Y-10466D01*
X38482Y-10533D01*
X38508Y-10594D01*
X38538Y-10625D01*
X38508Y-10655D01*
X38482Y-10716D01*
X38482Y-10783D01*
X38482Y-11583D01*
X38508Y-11644D01*
X38538Y-11675D01*
X38508Y-11705D01*
X38482Y-11766D01*
X38482Y-11833D01*
X38482Y-12633D01*
X38508Y-12694D01*
X38555Y-12741D01*
X38616Y-12767D01*
X38683Y-12767D01*
X39283Y-12767D01*
X39344Y-12741D01*
X39391Y-12694D01*
X39417Y-12633D01*
X39417Y-12566D01*
X39417Y-13079D01*
X39404Y-13098D01*
X39392Y-13157D01*
X39333Y-13132D01*
X39266Y-13132D01*
X38766Y-13132D01*
X38762Y-13134D01*
X38618Y-13134D01*
X38594Y-13109D01*
X38468Y-13057D01*
X38332Y-13057D01*
X38215Y-13105D01*
X38215Y-12767D01*
X38283Y-12767D01*
X38344Y-12741D01*
X38391Y-12694D01*
X38417Y-12633D01*
X38417Y-12566D01*
X38417Y-11766D01*
X38391Y-11705D01*
X38361Y-11674D01*
X38391Y-11644D01*
X38417Y-11583D01*
X38417Y-11516D01*
X38417Y-10716D01*
X38391Y-10655D01*
X38361Y-10624D01*
X38391Y-10594D01*
X38417Y-10533D01*
X38417Y-10466D01*
X38417Y-9666D01*
X38391Y-9605D01*
X38344Y-9558D01*
X38283Y-9532D01*
X38216Y-9532D01*
X38215Y-9532D01*
X38215Y-9295D01*
X38345Y-9165D01*
X38417Y-8993D01*
X38417Y-8807D01*
X38346Y-8635D01*
X38215Y-8504D01*
X38119Y-8464D01*
X38548Y-8464D01*
X38508Y-8505D01*
X38482Y-8566D01*
X38482Y-8633D01*
X38482Y-8848D01*
X38524Y-8890D01*
X38940Y-8890D01*
X38940Y-8882D01*
X38959Y-8882D01*
X38959Y-8890D01*
X39375Y-8890D01*
X39417Y-8848D01*
X39417Y-8633D01*
X39417Y-8566D01*
X39391Y-8505D01*
X39351Y-8464D01*
X39780Y-8464D01*
X39685Y-8503D01*
X39554Y-8634D01*
X39482Y-8806D01*
X39482Y-8992D01*
X39553Y-9164D01*
X39684Y-9295D01*
X39856Y-9367D01*
X39984Y-9367D01*
X39984Y-9532D01*
X39916Y-9532D01*
X39855Y-9558D01*
X39808Y-9605D01*
X39782Y-9666D01*
X39782Y-9733D01*
X39782Y-10533D01*
X39808Y-10594D01*
X39838Y-10625D01*
X39808Y-10655D01*
X39782Y-10716D01*
X39782Y-10783D01*
X39782Y-11583D01*
X39808Y-11644D01*
X39838Y-11675D01*
X39808Y-11705D01*
X39782Y-11766D01*
X39782Y-11833D01*
X39782Y-12633D01*
X39808Y-12694D01*
X39855Y-12741D01*
X39916Y-12767D01*
X39983Y-12767D01*
X39984Y-12767D01*
X39984Y-12784D01*
M02*
