G04 (created by PCBNEW (2013-07-07 BZR 4022)-stable) date 16/12/2013 14:51:33*
%MOIN*%
G04 Gerber Fmt 3.4, Leading zero omitted, Abs format*
%FSLAX34Y34*%
G01*
G70*
G90*
G04 APERTURE LIST*
%ADD10C,0.00590551*%
%ADD11C,0.005*%
%ADD12C,0.01*%
%ADD13C,0.0045*%
%ADD14C,0.012*%
G04 APERTURE END LIST*
G54D10*
G54D11*
X72288Y-47740D02*
X72486Y-47740D01*
X72379Y-47618D01*
X72425Y-47618D01*
X72455Y-47603D01*
X72470Y-47588D01*
X72486Y-47557D01*
X72486Y-47481D01*
X72470Y-47450D01*
X72455Y-47435D01*
X72425Y-47420D01*
X72333Y-47420D01*
X72303Y-47435D01*
X72288Y-47450D01*
X72577Y-47740D02*
X72684Y-47420D01*
X72790Y-47740D01*
X74269Y-47740D02*
X74116Y-47740D01*
X74101Y-47588D01*
X74116Y-47603D01*
X74147Y-47618D01*
X74223Y-47618D01*
X74253Y-47603D01*
X74269Y-47588D01*
X74284Y-47557D01*
X74284Y-47481D01*
X74269Y-47450D01*
X74253Y-47435D01*
X74223Y-47420D01*
X74147Y-47420D01*
X74116Y-47435D01*
X74101Y-47450D01*
X74375Y-47740D02*
X74482Y-47420D01*
X74589Y-47740D01*
X76326Y-47725D02*
X76295Y-47740D01*
X76249Y-47740D01*
X76204Y-47725D01*
X76173Y-47694D01*
X76158Y-47664D01*
X76143Y-47603D01*
X76143Y-47557D01*
X76158Y-47496D01*
X76173Y-47466D01*
X76204Y-47435D01*
X76249Y-47420D01*
X76280Y-47420D01*
X76326Y-47435D01*
X76341Y-47450D01*
X76341Y-47557D01*
X76280Y-47557D01*
X76478Y-47420D02*
X76478Y-47740D01*
X76661Y-47420D01*
X76661Y-47740D01*
X76813Y-47420D02*
X76813Y-47740D01*
X76890Y-47740D01*
X76935Y-47725D01*
X76966Y-47694D01*
X76981Y-47664D01*
X76996Y-47603D01*
X76996Y-47557D01*
X76981Y-47496D01*
X76966Y-47466D01*
X76935Y-47435D01*
X76890Y-47420D01*
X76813Y-47420D01*
X72431Y-58820D02*
X72431Y-59140D01*
X72553Y-59140D01*
X72583Y-59125D01*
X72599Y-59110D01*
X72614Y-59079D01*
X72614Y-59033D01*
X72599Y-59003D01*
X72583Y-58988D01*
X72553Y-58972D01*
X72431Y-58972D01*
X72858Y-58988D02*
X72903Y-58972D01*
X72919Y-58957D01*
X72934Y-58927D01*
X72934Y-58881D01*
X72919Y-58850D01*
X72903Y-58835D01*
X72873Y-58820D01*
X72751Y-58820D01*
X72751Y-59140D01*
X72858Y-59140D01*
X72888Y-59125D01*
X72903Y-59110D01*
X72919Y-59079D01*
X72919Y-59049D01*
X72903Y-59018D01*
X72888Y-59003D01*
X72858Y-58988D01*
X72751Y-58988D01*
X73117Y-59003D02*
X73086Y-59018D01*
X73071Y-59033D01*
X73056Y-59064D01*
X73056Y-59079D01*
X73071Y-59110D01*
X73086Y-59125D01*
X73117Y-59140D01*
X73178Y-59140D01*
X73208Y-59125D01*
X73223Y-59110D01*
X73239Y-59079D01*
X73239Y-59064D01*
X73223Y-59033D01*
X73208Y-59018D01*
X73178Y-59003D01*
X73117Y-59003D01*
X73086Y-58988D01*
X73071Y-58972D01*
X73056Y-58942D01*
X73056Y-58881D01*
X73071Y-58850D01*
X73086Y-58835D01*
X73117Y-58820D01*
X73178Y-58820D01*
X73208Y-58835D01*
X73223Y-58850D01*
X73239Y-58881D01*
X73239Y-58942D01*
X73223Y-58972D01*
X73208Y-58988D01*
X73178Y-59003D01*
X72461Y-57824D02*
X72461Y-58144D01*
X72583Y-58144D01*
X72614Y-58129D01*
X72629Y-58114D01*
X72644Y-58083D01*
X72644Y-58037D01*
X72629Y-58007D01*
X72614Y-57992D01*
X72583Y-57976D01*
X72461Y-57976D01*
X72781Y-57992D02*
X72888Y-57992D01*
X72934Y-57824D02*
X72781Y-57824D01*
X72781Y-58144D01*
X72934Y-58144D01*
X73132Y-58144D02*
X73162Y-58144D01*
X73193Y-58129D01*
X73208Y-58114D01*
X73223Y-58083D01*
X73239Y-58022D01*
X73239Y-57946D01*
X73223Y-57885D01*
X73208Y-57854D01*
X73193Y-57839D01*
X73162Y-57824D01*
X73132Y-57824D01*
X73101Y-57839D01*
X73086Y-57854D01*
X73071Y-57885D01*
X73056Y-57946D01*
X73056Y-58022D01*
X73071Y-58083D01*
X73086Y-58114D01*
X73101Y-58129D01*
X73132Y-58144D01*
X72461Y-56828D02*
X72461Y-57148D01*
X72583Y-57148D01*
X72614Y-57133D01*
X72629Y-57118D01*
X72644Y-57087D01*
X72644Y-57041D01*
X72629Y-57011D01*
X72614Y-56996D01*
X72583Y-56980D01*
X72461Y-56980D01*
X72781Y-56996D02*
X72888Y-56996D01*
X72934Y-56828D02*
X72781Y-56828D01*
X72781Y-57148D01*
X72934Y-57148D01*
X73056Y-57118D02*
X73071Y-57133D01*
X73101Y-57148D01*
X73178Y-57148D01*
X73208Y-57133D01*
X73223Y-57118D01*
X73239Y-57087D01*
X73239Y-57057D01*
X73223Y-57011D01*
X73040Y-56828D01*
X73239Y-56828D01*
X72461Y-55832D02*
X72461Y-56152D01*
X72583Y-56152D01*
X72614Y-56137D01*
X72629Y-56122D01*
X72644Y-56091D01*
X72644Y-56045D01*
X72629Y-56015D01*
X72614Y-56000D01*
X72583Y-55984D01*
X72461Y-55984D01*
X72781Y-56000D02*
X72888Y-56000D01*
X72934Y-55832D02*
X72781Y-55832D01*
X72781Y-56152D01*
X72934Y-56152D01*
X73208Y-56045D02*
X73208Y-55832D01*
X73132Y-56167D02*
X73056Y-55939D01*
X73254Y-55939D01*
X72461Y-54836D02*
X72461Y-55156D01*
X72583Y-55156D01*
X72614Y-55141D01*
X72629Y-55126D01*
X72644Y-55095D01*
X72644Y-55049D01*
X72629Y-55019D01*
X72614Y-55004D01*
X72583Y-54988D01*
X72461Y-54988D01*
X72781Y-55004D02*
X72888Y-55004D01*
X72934Y-54836D02*
X72781Y-54836D01*
X72781Y-55156D01*
X72934Y-55156D01*
X73208Y-55156D02*
X73147Y-55156D01*
X73117Y-55141D01*
X73101Y-55126D01*
X73071Y-55080D01*
X73056Y-55019D01*
X73056Y-54897D01*
X73071Y-54866D01*
X73086Y-54851D01*
X73117Y-54836D01*
X73178Y-54836D01*
X73208Y-54851D01*
X73223Y-54866D01*
X73239Y-54897D01*
X73239Y-54973D01*
X73223Y-55004D01*
X73208Y-55019D01*
X73178Y-55034D01*
X73117Y-55034D01*
X73086Y-55019D01*
X73071Y-55004D01*
X73056Y-54973D01*
X72126Y-53840D02*
X72126Y-54160D01*
X72248Y-54160D01*
X72279Y-54145D01*
X72294Y-54130D01*
X72309Y-54099D01*
X72309Y-54053D01*
X72294Y-54023D01*
X72279Y-54008D01*
X72248Y-53992D01*
X72126Y-53992D01*
X72629Y-53870D02*
X72614Y-53855D01*
X72568Y-53840D01*
X72538Y-53840D01*
X72492Y-53855D01*
X72461Y-53886D01*
X72446Y-53916D01*
X72431Y-53977D01*
X72431Y-54023D01*
X72446Y-54084D01*
X72461Y-54114D01*
X72492Y-54145D01*
X72538Y-54160D01*
X72568Y-54160D01*
X72614Y-54145D01*
X72629Y-54130D01*
X72934Y-53840D02*
X72751Y-53840D01*
X72842Y-53840D02*
X72842Y-54160D01*
X72812Y-54114D01*
X72781Y-54084D01*
X72751Y-54069D01*
X73208Y-54053D02*
X73208Y-53840D01*
X73132Y-54175D02*
X73056Y-53947D01*
X73254Y-53947D01*
X72416Y-52844D02*
X72416Y-53164D01*
X72538Y-53164D01*
X72568Y-53149D01*
X72583Y-53134D01*
X72599Y-53103D01*
X72599Y-53057D01*
X72583Y-53027D01*
X72568Y-53012D01*
X72538Y-52996D01*
X72416Y-52996D01*
X72736Y-52844D02*
X72736Y-53164D01*
X72736Y-53012D02*
X72919Y-53012D01*
X72919Y-52844D02*
X72919Y-53164D01*
X73132Y-53164D02*
X73162Y-53164D01*
X73193Y-53149D01*
X73208Y-53134D01*
X73223Y-53103D01*
X73239Y-53042D01*
X73239Y-52966D01*
X73223Y-52905D01*
X73208Y-52874D01*
X73193Y-52859D01*
X73162Y-52844D01*
X73132Y-52844D01*
X73101Y-52859D01*
X73086Y-52874D01*
X73071Y-52905D01*
X73056Y-52966D01*
X73056Y-53042D01*
X73071Y-53103D01*
X73086Y-53134D01*
X73101Y-53149D01*
X73132Y-53164D01*
X72766Y-52168D02*
X72964Y-52168D01*
X72858Y-52046D01*
X72903Y-52046D01*
X72934Y-52031D01*
X72949Y-52016D01*
X72964Y-51985D01*
X72964Y-51909D01*
X72949Y-51878D01*
X72934Y-51863D01*
X72903Y-51848D01*
X72812Y-51848D01*
X72781Y-51863D01*
X72766Y-51878D01*
X73056Y-52168D02*
X73162Y-51848D01*
X73269Y-52168D01*
X72949Y-51172D02*
X72797Y-51172D01*
X72781Y-51020D01*
X72797Y-51035D01*
X72827Y-51050D01*
X72903Y-51050D01*
X72934Y-51035D01*
X72949Y-51020D01*
X72964Y-50989D01*
X72964Y-50913D01*
X72949Y-50882D01*
X72934Y-50867D01*
X72903Y-50852D01*
X72827Y-50852D01*
X72797Y-50867D01*
X72781Y-50882D01*
X73056Y-51172D02*
X73162Y-50852D01*
X73269Y-51172D01*
X72568Y-50161D02*
X72538Y-50176D01*
X72492Y-50176D01*
X72446Y-50161D01*
X72416Y-50130D01*
X72400Y-50100D01*
X72385Y-50039D01*
X72385Y-49993D01*
X72400Y-49932D01*
X72416Y-49902D01*
X72446Y-49871D01*
X72492Y-49856D01*
X72522Y-49856D01*
X72568Y-49871D01*
X72583Y-49886D01*
X72583Y-49993D01*
X72522Y-49993D01*
X72720Y-49856D02*
X72720Y-50176D01*
X72903Y-49856D01*
X72903Y-50176D01*
X73056Y-49856D02*
X73056Y-50176D01*
X73132Y-50176D01*
X73178Y-50161D01*
X73208Y-50130D01*
X73223Y-50100D01*
X73239Y-50039D01*
X73239Y-49993D01*
X73223Y-49932D01*
X73208Y-49902D01*
X73178Y-49871D01*
X73132Y-49856D01*
X73056Y-49856D01*
X75476Y-58820D02*
X75476Y-59140D01*
X75598Y-59140D01*
X75628Y-59125D01*
X75643Y-59110D01*
X75659Y-59079D01*
X75659Y-59033D01*
X75643Y-59003D01*
X75628Y-58988D01*
X75598Y-58972D01*
X75476Y-58972D01*
X75902Y-58988D02*
X75948Y-58972D01*
X75963Y-58957D01*
X75979Y-58927D01*
X75979Y-58881D01*
X75963Y-58850D01*
X75948Y-58835D01*
X75918Y-58820D01*
X75796Y-58820D01*
X75796Y-59140D01*
X75902Y-59140D01*
X75933Y-59125D01*
X75948Y-59110D01*
X75963Y-59079D01*
X75963Y-59049D01*
X75948Y-59018D01*
X75933Y-59003D01*
X75902Y-58988D01*
X75796Y-58988D01*
X76131Y-58820D02*
X76192Y-58820D01*
X76222Y-58835D01*
X76238Y-58850D01*
X76268Y-58896D01*
X76283Y-58957D01*
X76283Y-59079D01*
X76268Y-59110D01*
X76253Y-59125D01*
X76222Y-59140D01*
X76161Y-59140D01*
X76131Y-59125D01*
X76116Y-59110D01*
X76100Y-59079D01*
X76100Y-59003D01*
X76116Y-58972D01*
X76131Y-58957D01*
X76161Y-58942D01*
X76222Y-58942D01*
X76253Y-58957D01*
X76268Y-58972D01*
X76283Y-59003D01*
X75476Y-57824D02*
X75476Y-58144D01*
X75598Y-58144D01*
X75628Y-58129D01*
X75643Y-58114D01*
X75659Y-58083D01*
X75659Y-58037D01*
X75643Y-58007D01*
X75628Y-57992D01*
X75598Y-57976D01*
X75476Y-57976D01*
X75796Y-57992D02*
X75902Y-57992D01*
X75948Y-57824D02*
X75796Y-57824D01*
X75796Y-58144D01*
X75948Y-58144D01*
X76253Y-57824D02*
X76070Y-57824D01*
X76161Y-57824D02*
X76161Y-58144D01*
X76131Y-58098D01*
X76100Y-58068D01*
X76070Y-58053D01*
X75476Y-56828D02*
X75476Y-57148D01*
X75598Y-57148D01*
X75628Y-57133D01*
X75643Y-57118D01*
X75659Y-57087D01*
X75659Y-57041D01*
X75643Y-57011D01*
X75628Y-56996D01*
X75598Y-56980D01*
X75476Y-56980D01*
X75796Y-56996D02*
X75902Y-56996D01*
X75948Y-56828D02*
X75796Y-56828D01*
X75796Y-57148D01*
X75948Y-57148D01*
X76055Y-57148D02*
X76253Y-57148D01*
X76146Y-57026D01*
X76192Y-57026D01*
X76222Y-57011D01*
X76238Y-56996D01*
X76253Y-56965D01*
X76253Y-56889D01*
X76238Y-56858D01*
X76222Y-56843D01*
X76192Y-56828D01*
X76100Y-56828D01*
X76070Y-56843D01*
X76055Y-56858D01*
X75476Y-55832D02*
X75476Y-56152D01*
X75598Y-56152D01*
X75628Y-56137D01*
X75643Y-56122D01*
X75659Y-56091D01*
X75659Y-56045D01*
X75643Y-56015D01*
X75628Y-56000D01*
X75598Y-55984D01*
X75476Y-55984D01*
X75796Y-56000D02*
X75902Y-56000D01*
X75948Y-55832D02*
X75796Y-55832D01*
X75796Y-56152D01*
X75948Y-56152D01*
X76238Y-56152D02*
X76085Y-56152D01*
X76070Y-56000D01*
X76085Y-56015D01*
X76116Y-56030D01*
X76192Y-56030D01*
X76222Y-56015D01*
X76238Y-56000D01*
X76253Y-55969D01*
X76253Y-55893D01*
X76238Y-55862D01*
X76222Y-55847D01*
X76192Y-55832D01*
X76116Y-55832D01*
X76085Y-55847D01*
X76070Y-55862D01*
X75476Y-54836D02*
X75476Y-55156D01*
X75598Y-55156D01*
X75628Y-55141D01*
X75643Y-55126D01*
X75659Y-55095D01*
X75659Y-55049D01*
X75643Y-55019D01*
X75628Y-55004D01*
X75598Y-54988D01*
X75476Y-54988D01*
X75796Y-55004D02*
X75902Y-55004D01*
X75948Y-54836D02*
X75796Y-54836D01*
X75796Y-55156D01*
X75948Y-55156D01*
X76253Y-54836D02*
X76070Y-54836D01*
X76161Y-54836D02*
X76161Y-55156D01*
X76131Y-55110D01*
X76100Y-55080D01*
X76070Y-55065D01*
X76359Y-55156D02*
X76558Y-55156D01*
X76451Y-55034D01*
X76497Y-55034D01*
X76527Y-55019D01*
X76542Y-55004D01*
X76558Y-54973D01*
X76558Y-54897D01*
X76542Y-54866D01*
X76527Y-54851D01*
X76497Y-54836D01*
X76405Y-54836D01*
X76375Y-54851D01*
X76359Y-54866D01*
X75476Y-53840D02*
X75476Y-54160D01*
X75598Y-54160D01*
X75628Y-54145D01*
X75643Y-54130D01*
X75659Y-54099D01*
X75659Y-54053D01*
X75643Y-54023D01*
X75628Y-54008D01*
X75598Y-53992D01*
X75476Y-53992D01*
X75979Y-53870D02*
X75963Y-53855D01*
X75918Y-53840D01*
X75887Y-53840D01*
X75841Y-53855D01*
X75811Y-53886D01*
X75796Y-53916D01*
X75780Y-53977D01*
X75780Y-54023D01*
X75796Y-54084D01*
X75811Y-54114D01*
X75841Y-54145D01*
X75887Y-54160D01*
X75918Y-54160D01*
X75963Y-54145D01*
X75979Y-54130D01*
X76283Y-53840D02*
X76100Y-53840D01*
X76192Y-53840D02*
X76192Y-54160D01*
X76161Y-54114D01*
X76131Y-54084D01*
X76100Y-54069D01*
X76573Y-54160D02*
X76420Y-54160D01*
X76405Y-54008D01*
X76420Y-54023D01*
X76451Y-54038D01*
X76527Y-54038D01*
X76558Y-54023D01*
X76573Y-54008D01*
X76588Y-53977D01*
X76588Y-53901D01*
X76573Y-53870D01*
X76558Y-53855D01*
X76527Y-53840D01*
X76451Y-53840D01*
X76420Y-53855D01*
X76405Y-53870D01*
X75476Y-52844D02*
X75476Y-53164D01*
X75598Y-53164D01*
X75628Y-53149D01*
X75643Y-53134D01*
X75659Y-53103D01*
X75659Y-53057D01*
X75643Y-53027D01*
X75628Y-53012D01*
X75598Y-52996D01*
X75476Y-52996D01*
X75796Y-52844D02*
X75796Y-53164D01*
X75796Y-53012D02*
X75979Y-53012D01*
X75979Y-52844D02*
X75979Y-53164D01*
X76299Y-52844D02*
X76116Y-52844D01*
X76207Y-52844D02*
X76207Y-53164D01*
X76177Y-53118D01*
X76146Y-53088D01*
X76116Y-53073D01*
X75445Y-52168D02*
X75643Y-52168D01*
X75537Y-52046D01*
X75582Y-52046D01*
X75613Y-52031D01*
X75628Y-52016D01*
X75643Y-51985D01*
X75643Y-51909D01*
X75628Y-51878D01*
X75613Y-51863D01*
X75582Y-51848D01*
X75491Y-51848D01*
X75460Y-51863D01*
X75445Y-51878D01*
X75735Y-52168D02*
X75841Y-51848D01*
X75948Y-52168D01*
X75628Y-51172D02*
X75476Y-51172D01*
X75460Y-51020D01*
X75476Y-51035D01*
X75506Y-51050D01*
X75582Y-51050D01*
X75613Y-51035D01*
X75628Y-51020D01*
X75643Y-50989D01*
X75643Y-50913D01*
X75628Y-50882D01*
X75613Y-50867D01*
X75582Y-50852D01*
X75506Y-50852D01*
X75476Y-50867D01*
X75460Y-50882D01*
X75735Y-51172D02*
X75841Y-50852D01*
X75948Y-51172D01*
X75643Y-50161D02*
X75613Y-50176D01*
X75567Y-50176D01*
X75521Y-50161D01*
X75491Y-50130D01*
X75476Y-50100D01*
X75460Y-50039D01*
X75460Y-49993D01*
X75476Y-49932D01*
X75491Y-49902D01*
X75521Y-49871D01*
X75567Y-49856D01*
X75598Y-49856D01*
X75643Y-49871D01*
X75659Y-49886D01*
X75659Y-49993D01*
X75598Y-49993D01*
X75796Y-49856D02*
X75796Y-50176D01*
X75979Y-49856D01*
X75979Y-50176D01*
X76131Y-49856D02*
X76131Y-50176D01*
X76207Y-50176D01*
X76253Y-50161D01*
X76283Y-50130D01*
X76299Y-50100D01*
X76314Y-50039D01*
X76314Y-49993D01*
X76299Y-49932D01*
X76283Y-49902D01*
X76253Y-49871D01*
X76207Y-49856D01*
X76131Y-49856D01*
G54D12*
X81216Y-50547D02*
X81216Y-51047D01*
X81335Y-51047D01*
X81407Y-51023D01*
X81454Y-50976D01*
X81478Y-50928D01*
X81502Y-50833D01*
X81502Y-50761D01*
X81478Y-50666D01*
X81454Y-50619D01*
X81407Y-50571D01*
X81335Y-50547D01*
X81216Y-50547D01*
X81692Y-50690D02*
X81930Y-50690D01*
X81645Y-50547D02*
X81811Y-51047D01*
X81978Y-50547D01*
X82145Y-50809D02*
X82311Y-50809D01*
X82383Y-50547D02*
X82145Y-50547D01*
X82145Y-51047D01*
X82383Y-51047D01*
X82883Y-50595D02*
X82859Y-50571D01*
X82788Y-50547D01*
X82740Y-50547D01*
X82669Y-50571D01*
X82621Y-50619D01*
X82597Y-50666D01*
X82573Y-50761D01*
X82573Y-50833D01*
X82597Y-50928D01*
X82621Y-50976D01*
X82669Y-51023D01*
X82740Y-51047D01*
X82788Y-51047D01*
X82859Y-51023D01*
X82883Y-51000D01*
X83097Y-51047D02*
X83097Y-50642D01*
X83121Y-50595D01*
X83145Y-50571D01*
X83192Y-50547D01*
X83288Y-50547D01*
X83335Y-50571D01*
X83359Y-50595D01*
X83383Y-50642D01*
X83383Y-51047D01*
X80859Y-49747D02*
X80859Y-50080D01*
X80859Y-49985D02*
X80883Y-50033D01*
X80907Y-50057D01*
X80954Y-50080D01*
X81002Y-50080D01*
X81359Y-49771D02*
X81311Y-49747D01*
X81216Y-49747D01*
X81169Y-49771D01*
X81145Y-49819D01*
X81145Y-50009D01*
X81169Y-50057D01*
X81216Y-50080D01*
X81311Y-50080D01*
X81359Y-50057D01*
X81383Y-50009D01*
X81383Y-49961D01*
X81145Y-49914D01*
X81550Y-50080D02*
X81669Y-49747D01*
X81788Y-50080D01*
X82335Y-49890D02*
X82573Y-49890D01*
X82288Y-49747D02*
X82454Y-50247D01*
X82621Y-49747D01*
X82788Y-49795D02*
X82811Y-49771D01*
X82788Y-49747D01*
X82764Y-49771D01*
X82788Y-49795D01*
X82788Y-49747D01*
X83121Y-50247D02*
X83169Y-50247D01*
X83216Y-50223D01*
X83240Y-50200D01*
X83264Y-50152D01*
X83288Y-50057D01*
X83288Y-49938D01*
X83264Y-49842D01*
X83240Y-49795D01*
X83216Y-49771D01*
X83169Y-49747D01*
X83121Y-49747D01*
X83073Y-49771D01*
X83049Y-49795D01*
X83026Y-49842D01*
X83002Y-49938D01*
X83002Y-50057D01*
X83026Y-50152D01*
X83049Y-50200D01*
X83073Y-50223D01*
X83121Y-50247D01*
X83478Y-50200D02*
X83502Y-50223D01*
X83549Y-50247D01*
X83669Y-50247D01*
X83716Y-50223D01*
X83740Y-50200D01*
X83764Y-50152D01*
X83764Y-50104D01*
X83740Y-50033D01*
X83454Y-49747D01*
X83764Y-49747D01*
X77661Y-47569D02*
X77261Y-47569D01*
X77661Y-47740D02*
X77452Y-47740D01*
X77414Y-47721D01*
X77395Y-47683D01*
X77395Y-47626D01*
X77414Y-47588D01*
X77433Y-47569D01*
X77395Y-47873D02*
X77395Y-48026D01*
X77261Y-47930D02*
X77604Y-47930D01*
X77642Y-47950D01*
X77661Y-47988D01*
X77661Y-48026D01*
X77395Y-48102D02*
X77395Y-48254D01*
X77261Y-48159D02*
X77604Y-48159D01*
X77642Y-48178D01*
X77661Y-48216D01*
X77661Y-48254D01*
X77395Y-48388D02*
X77795Y-48388D01*
X77414Y-48388D02*
X77395Y-48426D01*
X77395Y-48502D01*
X77414Y-48540D01*
X77433Y-48559D01*
X77471Y-48578D01*
X77585Y-48578D01*
X77623Y-48559D01*
X77642Y-48540D01*
X77661Y-48502D01*
X77661Y-48426D01*
X77642Y-48388D01*
X77642Y-48730D02*
X77661Y-48769D01*
X77661Y-48845D01*
X77642Y-48883D01*
X77604Y-48902D01*
X77585Y-48902D01*
X77547Y-48883D01*
X77528Y-48845D01*
X77528Y-48788D01*
X77509Y-48750D01*
X77471Y-48730D01*
X77452Y-48730D01*
X77414Y-48750D01*
X77395Y-48788D01*
X77395Y-48845D01*
X77414Y-48883D01*
X77623Y-49073D02*
X77642Y-49092D01*
X77661Y-49073D01*
X77642Y-49054D01*
X77623Y-49073D01*
X77661Y-49073D01*
X77414Y-49073D02*
X77433Y-49092D01*
X77452Y-49073D01*
X77433Y-49054D01*
X77414Y-49073D01*
X77452Y-49073D01*
X77242Y-49550D02*
X77757Y-49207D01*
X77242Y-49969D02*
X77757Y-49626D01*
X77642Y-50273D02*
X77661Y-50235D01*
X77661Y-50159D01*
X77642Y-50121D01*
X77623Y-50102D01*
X77585Y-50083D01*
X77471Y-50083D01*
X77433Y-50102D01*
X77414Y-50121D01*
X77395Y-50159D01*
X77395Y-50235D01*
X77414Y-50273D01*
X77661Y-50502D02*
X77642Y-50464D01*
X77623Y-50445D01*
X77585Y-50426D01*
X77471Y-50426D01*
X77433Y-50445D01*
X77414Y-50464D01*
X77395Y-50502D01*
X77395Y-50559D01*
X77414Y-50597D01*
X77433Y-50616D01*
X77471Y-50635D01*
X77585Y-50635D01*
X77623Y-50616D01*
X77642Y-50597D01*
X77661Y-50559D01*
X77661Y-50502D01*
X77661Y-50978D02*
X77261Y-50978D01*
X77642Y-50978D02*
X77661Y-50940D01*
X77661Y-50864D01*
X77642Y-50826D01*
X77623Y-50807D01*
X77585Y-50788D01*
X77471Y-50788D01*
X77433Y-50807D01*
X77414Y-50826D01*
X77395Y-50864D01*
X77395Y-50940D01*
X77414Y-50978D01*
X77642Y-51321D02*
X77661Y-51283D01*
X77661Y-51207D01*
X77642Y-51169D01*
X77604Y-51150D01*
X77452Y-51150D01*
X77414Y-51169D01*
X77395Y-51207D01*
X77395Y-51283D01*
X77414Y-51321D01*
X77452Y-51340D01*
X77490Y-51340D01*
X77528Y-51150D01*
X77623Y-51511D02*
X77642Y-51530D01*
X77661Y-51511D01*
X77642Y-51492D01*
X77623Y-51511D01*
X77661Y-51511D01*
X77395Y-51873D02*
X77719Y-51873D01*
X77757Y-51854D01*
X77776Y-51835D01*
X77795Y-51797D01*
X77795Y-51740D01*
X77776Y-51702D01*
X77642Y-51873D02*
X77661Y-51835D01*
X77661Y-51759D01*
X77642Y-51721D01*
X77623Y-51702D01*
X77585Y-51683D01*
X77471Y-51683D01*
X77433Y-51702D01*
X77414Y-51721D01*
X77395Y-51759D01*
X77395Y-51835D01*
X77414Y-51873D01*
X77661Y-52121D02*
X77642Y-52083D01*
X77623Y-52064D01*
X77585Y-52045D01*
X77471Y-52045D01*
X77433Y-52064D01*
X77414Y-52083D01*
X77395Y-52121D01*
X77395Y-52178D01*
X77414Y-52216D01*
X77433Y-52235D01*
X77471Y-52254D01*
X77585Y-52254D01*
X77623Y-52235D01*
X77642Y-52216D01*
X77661Y-52178D01*
X77661Y-52121D01*
X77661Y-52483D02*
X77642Y-52445D01*
X77623Y-52426D01*
X77585Y-52407D01*
X77471Y-52407D01*
X77433Y-52426D01*
X77414Y-52445D01*
X77395Y-52483D01*
X77395Y-52540D01*
X77414Y-52578D01*
X77433Y-52597D01*
X77471Y-52616D01*
X77585Y-52616D01*
X77623Y-52597D01*
X77642Y-52578D01*
X77661Y-52540D01*
X77661Y-52483D01*
X77395Y-52959D02*
X77719Y-52959D01*
X77757Y-52940D01*
X77776Y-52921D01*
X77795Y-52883D01*
X77795Y-52826D01*
X77776Y-52788D01*
X77642Y-52959D02*
X77661Y-52921D01*
X77661Y-52845D01*
X77642Y-52807D01*
X77623Y-52788D01*
X77585Y-52769D01*
X77471Y-52769D01*
X77433Y-52788D01*
X77414Y-52807D01*
X77395Y-52845D01*
X77395Y-52921D01*
X77414Y-52959D01*
X77661Y-53207D02*
X77642Y-53169D01*
X77604Y-53150D01*
X77261Y-53150D01*
X77642Y-53511D02*
X77661Y-53473D01*
X77661Y-53397D01*
X77642Y-53359D01*
X77604Y-53340D01*
X77452Y-53340D01*
X77414Y-53359D01*
X77395Y-53397D01*
X77395Y-53473D01*
X77414Y-53511D01*
X77452Y-53530D01*
X77490Y-53530D01*
X77528Y-53340D01*
X77623Y-53702D02*
X77642Y-53721D01*
X77661Y-53702D01*
X77642Y-53683D01*
X77623Y-53702D01*
X77661Y-53702D01*
X77642Y-54064D02*
X77661Y-54026D01*
X77661Y-53950D01*
X77642Y-53911D01*
X77623Y-53892D01*
X77585Y-53873D01*
X77471Y-53873D01*
X77433Y-53892D01*
X77414Y-53911D01*
X77395Y-53950D01*
X77395Y-54026D01*
X77414Y-54064D01*
X77661Y-54292D02*
X77642Y-54254D01*
X77623Y-54235D01*
X77585Y-54216D01*
X77471Y-54216D01*
X77433Y-54235D01*
X77414Y-54254D01*
X77395Y-54292D01*
X77395Y-54349D01*
X77414Y-54388D01*
X77433Y-54407D01*
X77471Y-54426D01*
X77585Y-54426D01*
X77623Y-54407D01*
X77642Y-54388D01*
X77661Y-54349D01*
X77661Y-54292D01*
X77661Y-54597D02*
X77395Y-54597D01*
X77433Y-54597D02*
X77414Y-54616D01*
X77395Y-54654D01*
X77395Y-54711D01*
X77414Y-54749D01*
X77452Y-54769D01*
X77661Y-54769D01*
X77452Y-54769D02*
X77414Y-54788D01*
X77395Y-54826D01*
X77395Y-54883D01*
X77414Y-54921D01*
X77452Y-54940D01*
X77661Y-54940D01*
X77242Y-55416D02*
X77757Y-55073D01*
X77395Y-55550D02*
X77795Y-55550D01*
X77414Y-55550D02*
X77395Y-55588D01*
X77395Y-55664D01*
X77414Y-55702D01*
X77433Y-55721D01*
X77471Y-55740D01*
X77585Y-55740D01*
X77623Y-55721D01*
X77642Y-55702D01*
X77661Y-55664D01*
X77661Y-55588D01*
X77642Y-55550D01*
X77242Y-56197D02*
X77757Y-55854D01*
X77661Y-56502D02*
X77261Y-56502D01*
X77642Y-56502D02*
X77661Y-56464D01*
X77661Y-56388D01*
X77642Y-56350D01*
X77623Y-56330D01*
X77585Y-56311D01*
X77471Y-56311D01*
X77433Y-56330D01*
X77414Y-56350D01*
X77395Y-56388D01*
X77395Y-56464D01*
X77414Y-56502D01*
X77661Y-56864D02*
X77452Y-56864D01*
X77414Y-56845D01*
X77395Y-56807D01*
X77395Y-56730D01*
X77414Y-56692D01*
X77642Y-56864D02*
X77661Y-56826D01*
X77661Y-56730D01*
X77642Y-56692D01*
X77604Y-56673D01*
X77566Y-56673D01*
X77528Y-56692D01*
X77509Y-56730D01*
X77509Y-56826D01*
X77490Y-56864D01*
X77642Y-57207D02*
X77661Y-57169D01*
X77661Y-57092D01*
X77642Y-57054D01*
X77604Y-57035D01*
X77452Y-57035D01*
X77414Y-57054D01*
X77395Y-57092D01*
X77395Y-57169D01*
X77414Y-57207D01*
X77452Y-57226D01*
X77490Y-57226D01*
X77528Y-57035D01*
X77642Y-57569D02*
X77661Y-57530D01*
X77661Y-57454D01*
X77642Y-57416D01*
X77623Y-57397D01*
X77585Y-57378D01*
X77471Y-57378D01*
X77433Y-57397D01*
X77414Y-57416D01*
X77395Y-57454D01*
X77395Y-57530D01*
X77414Y-57569D01*
X77395Y-57911D02*
X77661Y-57911D01*
X77395Y-57740D02*
X77604Y-57740D01*
X77642Y-57759D01*
X77661Y-57797D01*
X77661Y-57854D01*
X77642Y-57892D01*
X77623Y-57911D01*
X77242Y-58388D02*
X77757Y-58045D01*
X78055Y-49473D02*
X78055Y-49626D01*
X78321Y-49530D02*
X77979Y-49530D01*
X77940Y-49550D01*
X77921Y-49588D01*
X77921Y-49626D01*
X78321Y-49816D02*
X78302Y-49778D01*
X78283Y-49759D01*
X78245Y-49740D01*
X78131Y-49740D01*
X78093Y-49759D01*
X78074Y-49778D01*
X78055Y-49816D01*
X78055Y-49873D01*
X78074Y-49911D01*
X78093Y-49930D01*
X78131Y-49950D01*
X78245Y-49950D01*
X78283Y-49930D01*
X78302Y-49911D01*
X78321Y-49873D01*
X78321Y-49816D01*
X78321Y-50121D02*
X78055Y-50121D01*
X78131Y-50121D02*
X78093Y-50140D01*
X78074Y-50159D01*
X78055Y-50197D01*
X78055Y-50235D01*
X78321Y-50673D02*
X78055Y-50673D01*
X78131Y-50673D02*
X78093Y-50692D01*
X78074Y-50711D01*
X78055Y-50750D01*
X78055Y-50788D01*
X78055Y-51092D02*
X78321Y-51092D01*
X78055Y-50921D02*
X78264Y-50921D01*
X78302Y-50940D01*
X78321Y-50978D01*
X78321Y-51035D01*
X78302Y-51073D01*
X78283Y-51092D01*
X78302Y-51264D02*
X78321Y-51302D01*
X78321Y-51378D01*
X78302Y-51416D01*
X78264Y-51435D01*
X78245Y-51435D01*
X78207Y-51416D01*
X78188Y-51378D01*
X78188Y-51321D01*
X78169Y-51283D01*
X78131Y-51264D01*
X78112Y-51264D01*
X78074Y-51283D01*
X78055Y-51321D01*
X78055Y-51378D01*
X78074Y-51416D01*
X78302Y-51759D02*
X78321Y-51721D01*
X78321Y-51645D01*
X78302Y-51607D01*
X78264Y-51588D01*
X78112Y-51588D01*
X78074Y-51607D01*
X78055Y-51645D01*
X78055Y-51721D01*
X78074Y-51759D01*
X78112Y-51778D01*
X78150Y-51778D01*
X78188Y-51588D01*
X78055Y-51892D02*
X78055Y-52045D01*
X78321Y-51950D02*
X77979Y-51950D01*
X77940Y-51969D01*
X77921Y-52007D01*
X77921Y-52045D01*
X78321Y-52178D02*
X78055Y-52178D01*
X77921Y-52178D02*
X77940Y-52159D01*
X77960Y-52178D01*
X77940Y-52197D01*
X77921Y-52178D01*
X77960Y-52178D01*
X78283Y-52369D02*
X78302Y-52388D01*
X78321Y-52369D01*
X78302Y-52350D01*
X78283Y-52369D01*
X78321Y-52369D01*
X78302Y-52730D02*
X78321Y-52692D01*
X78321Y-52616D01*
X78302Y-52578D01*
X78283Y-52559D01*
X78245Y-52540D01*
X78131Y-52540D01*
X78093Y-52559D01*
X78074Y-52578D01*
X78055Y-52616D01*
X78055Y-52692D01*
X78074Y-52730D01*
X78321Y-52959D02*
X78302Y-52921D01*
X78283Y-52902D01*
X78245Y-52883D01*
X78131Y-52883D01*
X78093Y-52902D01*
X78074Y-52921D01*
X78055Y-52959D01*
X78055Y-53016D01*
X78074Y-53054D01*
X78093Y-53073D01*
X78131Y-53092D01*
X78245Y-53092D01*
X78283Y-53073D01*
X78302Y-53054D01*
X78321Y-53016D01*
X78321Y-52959D01*
X78321Y-53264D02*
X78055Y-53264D01*
X78093Y-53264D02*
X78074Y-53283D01*
X78055Y-53321D01*
X78055Y-53378D01*
X78074Y-53416D01*
X78112Y-53435D01*
X78321Y-53435D01*
X78112Y-53435D02*
X78074Y-53454D01*
X78055Y-53492D01*
X78055Y-53550D01*
X78074Y-53588D01*
X78112Y-53607D01*
X78321Y-53607D01*
X78321Y-54407D02*
X78055Y-54407D01*
X78131Y-54407D02*
X78093Y-54426D01*
X78074Y-54445D01*
X78055Y-54483D01*
X78055Y-54521D01*
X78302Y-54807D02*
X78321Y-54769D01*
X78321Y-54692D01*
X78302Y-54654D01*
X78264Y-54635D01*
X78112Y-54635D01*
X78074Y-54654D01*
X78055Y-54692D01*
X78055Y-54769D01*
X78074Y-54807D01*
X78112Y-54826D01*
X78150Y-54826D01*
X78188Y-54635D01*
X78055Y-54959D02*
X78321Y-55054D01*
X78055Y-55149D01*
X77921Y-55683D02*
X77921Y-55721D01*
X77940Y-55759D01*
X77960Y-55778D01*
X77998Y-55797D01*
X78074Y-55816D01*
X78169Y-55816D01*
X78245Y-55797D01*
X78283Y-55778D01*
X78302Y-55759D01*
X78321Y-55721D01*
X78321Y-55683D01*
X78302Y-55645D01*
X78283Y-55626D01*
X78245Y-55607D01*
X78169Y-55588D01*
X78074Y-55588D01*
X77998Y-55607D01*
X77960Y-55626D01*
X77940Y-55645D01*
X77921Y-55683D01*
X78283Y-55988D02*
X78302Y-56007D01*
X78321Y-55988D01*
X78302Y-55969D01*
X78283Y-55988D01*
X78321Y-55988D01*
X78321Y-56388D02*
X78321Y-56159D01*
X78321Y-56273D02*
X77921Y-56273D01*
X77979Y-56235D01*
X78017Y-56197D01*
X78036Y-56159D01*
G54D13*
X86059Y-51038D02*
X86059Y-51438D01*
X86250Y-51038D02*
X86250Y-51438D01*
X86478Y-51038D01*
X86478Y-51438D01*
X86783Y-51438D02*
X86783Y-51152D01*
X86764Y-51095D01*
X86726Y-51057D01*
X86669Y-51038D01*
X86630Y-51038D01*
X86973Y-51190D02*
X87278Y-51190D01*
X87545Y-51438D02*
X87583Y-51438D01*
X87621Y-51419D01*
X87640Y-51400D01*
X87659Y-51361D01*
X87678Y-51285D01*
X87678Y-51190D01*
X87659Y-51114D01*
X87640Y-51076D01*
X87621Y-51057D01*
X87583Y-51038D01*
X87545Y-51038D01*
X87507Y-51057D01*
X87488Y-51076D01*
X87469Y-51114D01*
X87450Y-51190D01*
X87450Y-51285D01*
X87469Y-51361D01*
X87488Y-51400D01*
X87507Y-51419D01*
X87545Y-51438D01*
X88021Y-51304D02*
X88021Y-51038D01*
X87926Y-51457D02*
X87830Y-51171D01*
X88078Y-51171D01*
X86059Y-49038D02*
X86059Y-49438D01*
X86250Y-49038D02*
X86250Y-49438D01*
X86478Y-49038D01*
X86478Y-49438D01*
X86783Y-49438D02*
X86783Y-49152D01*
X86764Y-49095D01*
X86726Y-49057D01*
X86669Y-49038D01*
X86630Y-49038D01*
X86973Y-49190D02*
X87278Y-49190D01*
X87545Y-49438D02*
X87583Y-49438D01*
X87621Y-49419D01*
X87640Y-49400D01*
X87659Y-49361D01*
X87678Y-49285D01*
X87678Y-49190D01*
X87659Y-49114D01*
X87640Y-49076D01*
X87621Y-49057D01*
X87583Y-49038D01*
X87545Y-49038D01*
X87507Y-49057D01*
X87488Y-49076D01*
X87469Y-49114D01*
X87450Y-49190D01*
X87450Y-49285D01*
X87469Y-49361D01*
X87488Y-49400D01*
X87507Y-49419D01*
X87545Y-49438D01*
X88040Y-49438D02*
X87850Y-49438D01*
X87830Y-49247D01*
X87850Y-49266D01*
X87888Y-49285D01*
X87983Y-49285D01*
X88021Y-49266D01*
X88040Y-49247D01*
X88059Y-49209D01*
X88059Y-49114D01*
X88040Y-49076D01*
X88021Y-49057D01*
X87983Y-49038D01*
X87888Y-49038D01*
X87850Y-49057D01*
X87830Y-49076D01*
X86059Y-47038D02*
X86059Y-47438D01*
X86250Y-47038D02*
X86250Y-47438D01*
X86478Y-47038D01*
X86478Y-47438D01*
X86783Y-47438D02*
X86783Y-47152D01*
X86764Y-47095D01*
X86726Y-47057D01*
X86669Y-47038D01*
X86630Y-47038D01*
X86973Y-47190D02*
X87278Y-47190D01*
X87545Y-47438D02*
X87583Y-47438D01*
X87621Y-47419D01*
X87640Y-47400D01*
X87659Y-47361D01*
X87678Y-47285D01*
X87678Y-47190D01*
X87659Y-47114D01*
X87640Y-47076D01*
X87621Y-47057D01*
X87583Y-47038D01*
X87545Y-47038D01*
X87507Y-47057D01*
X87488Y-47076D01*
X87469Y-47114D01*
X87450Y-47190D01*
X87450Y-47285D01*
X87469Y-47361D01*
X87488Y-47400D01*
X87507Y-47419D01*
X87545Y-47438D01*
X88021Y-47438D02*
X87945Y-47438D01*
X87907Y-47419D01*
X87888Y-47400D01*
X87850Y-47342D01*
X87830Y-47266D01*
X87830Y-47114D01*
X87850Y-47076D01*
X87869Y-47057D01*
X87907Y-47038D01*
X87983Y-47038D01*
X88021Y-47057D01*
X88040Y-47076D01*
X88059Y-47114D01*
X88059Y-47209D01*
X88040Y-47247D01*
X88021Y-47266D01*
X87983Y-47285D01*
X87907Y-47285D01*
X87869Y-47266D01*
X87850Y-47247D01*
X87830Y-47209D01*
X86059Y-55038D02*
X86059Y-55438D01*
X86250Y-55038D02*
X86250Y-55438D01*
X86478Y-55038D01*
X86478Y-55438D01*
X86783Y-55438D02*
X86783Y-55152D01*
X86764Y-55095D01*
X86726Y-55057D01*
X86669Y-55038D01*
X86630Y-55038D01*
X86973Y-55190D02*
X87278Y-55190D01*
X87545Y-55438D02*
X87583Y-55438D01*
X87621Y-55419D01*
X87640Y-55400D01*
X87659Y-55361D01*
X87678Y-55285D01*
X87678Y-55190D01*
X87659Y-55114D01*
X87640Y-55076D01*
X87621Y-55057D01*
X87583Y-55038D01*
X87545Y-55038D01*
X87507Y-55057D01*
X87488Y-55076D01*
X87469Y-55114D01*
X87450Y-55190D01*
X87450Y-55285D01*
X87469Y-55361D01*
X87488Y-55400D01*
X87507Y-55419D01*
X87545Y-55438D01*
X87811Y-55438D02*
X88059Y-55438D01*
X87926Y-55285D01*
X87983Y-55285D01*
X88021Y-55266D01*
X88040Y-55247D01*
X88059Y-55209D01*
X88059Y-55114D01*
X88040Y-55076D01*
X88021Y-55057D01*
X87983Y-55038D01*
X87869Y-55038D01*
X87830Y-55057D01*
X87811Y-55076D01*
X86500Y-53038D02*
X86500Y-53304D01*
X86500Y-53438D02*
X86480Y-53419D01*
X86500Y-53400D01*
X86519Y-53419D01*
X86500Y-53438D01*
X86500Y-53400D01*
X86900Y-53419D02*
X86861Y-53438D01*
X86804Y-53438D01*
X86747Y-53419D01*
X86709Y-53380D01*
X86690Y-53342D01*
X86671Y-53266D01*
X86671Y-53209D01*
X86690Y-53133D01*
X86709Y-53095D01*
X86747Y-53057D01*
X86804Y-53038D01*
X86842Y-53038D01*
X86900Y-53057D01*
X86919Y-53076D01*
X86919Y-53209D01*
X86842Y-53209D01*
X87090Y-53038D02*
X87090Y-53438D01*
X87319Y-53038D01*
X87319Y-53438D01*
X87509Y-53038D02*
X87509Y-53438D01*
X87604Y-53438D01*
X87661Y-53419D01*
X87700Y-53380D01*
X87719Y-53342D01*
X87738Y-53266D01*
X87738Y-53209D01*
X87719Y-53133D01*
X87700Y-53095D01*
X87661Y-53057D01*
X87604Y-53038D01*
X87509Y-53038D01*
X88119Y-53038D02*
X87890Y-53038D01*
X88004Y-53038D02*
X88004Y-53438D01*
X87966Y-53380D01*
X87928Y-53342D01*
X87890Y-53323D01*
X85009Y-55738D02*
X85009Y-56138D01*
X85200Y-55738D02*
X85200Y-56138D01*
X85428Y-55738D01*
X85428Y-56138D01*
X85733Y-56138D02*
X85733Y-55852D01*
X85714Y-55795D01*
X85676Y-55757D01*
X85619Y-55738D01*
X85580Y-55738D01*
X85923Y-55890D02*
X86228Y-55890D01*
X86495Y-56138D02*
X86533Y-56138D01*
X86571Y-56119D01*
X86590Y-56100D01*
X86609Y-56061D01*
X86628Y-55985D01*
X86628Y-55890D01*
X86609Y-55814D01*
X86590Y-55776D01*
X86571Y-55757D01*
X86533Y-55738D01*
X86495Y-55738D01*
X86457Y-55757D01*
X86438Y-55776D01*
X86419Y-55814D01*
X86400Y-55890D01*
X86400Y-55985D01*
X86419Y-56061D01*
X86438Y-56100D01*
X86457Y-56119D01*
X86495Y-56138D01*
X86780Y-56100D02*
X86800Y-56119D01*
X86838Y-56138D01*
X86933Y-56138D01*
X86971Y-56119D01*
X86990Y-56100D01*
X87009Y-56061D01*
X87009Y-56023D01*
X86990Y-55966D01*
X86761Y-55738D01*
X87009Y-55738D01*
X85659Y-57438D02*
X85659Y-57838D01*
X85850Y-57438D02*
X85850Y-57838D01*
X86078Y-57438D01*
X86078Y-57838D01*
X86383Y-57838D02*
X86383Y-57552D01*
X86364Y-57495D01*
X86326Y-57457D01*
X86269Y-57438D01*
X86230Y-57438D01*
X86573Y-57590D02*
X86878Y-57590D01*
X87145Y-57838D02*
X87183Y-57838D01*
X87221Y-57819D01*
X87240Y-57800D01*
X87259Y-57761D01*
X87278Y-57685D01*
X87278Y-57590D01*
X87259Y-57514D01*
X87240Y-57476D01*
X87221Y-57457D01*
X87183Y-57438D01*
X87145Y-57438D01*
X87107Y-57457D01*
X87088Y-57476D01*
X87069Y-57514D01*
X87050Y-57590D01*
X87050Y-57685D01*
X87069Y-57761D01*
X87088Y-57800D01*
X87107Y-57819D01*
X87145Y-57838D01*
X87659Y-57438D02*
X87430Y-57438D01*
X87545Y-57438D02*
X87545Y-57838D01*
X87507Y-57780D01*
X87469Y-57742D01*
X87430Y-57723D01*
G54D14*
X84100Y-48450D02*
X85100Y-48450D01*
X85100Y-48450D02*
X85100Y-46450D01*
X85100Y-46450D02*
X84100Y-46450D01*
X84100Y-46450D02*
X84100Y-48450D01*
X84250Y-50450D02*
X85250Y-50450D01*
X85250Y-50450D02*
X85250Y-48450D01*
X85250Y-48450D02*
X84250Y-48450D01*
X84250Y-48450D02*
X84250Y-50450D01*
X83850Y-52450D02*
X84850Y-52450D01*
X84850Y-52450D02*
X84850Y-50450D01*
X84850Y-50450D02*
X83850Y-50450D01*
X83850Y-50450D02*
X83850Y-52450D01*
X84850Y-52450D02*
X83850Y-52450D01*
X83850Y-52450D02*
X83850Y-54450D01*
X83850Y-54450D02*
X84850Y-54450D01*
X84850Y-54450D02*
X84850Y-52450D01*
X84850Y-54450D02*
X83850Y-54450D01*
X83850Y-54450D02*
X83850Y-56450D01*
X83850Y-56450D02*
X84850Y-56450D01*
X84850Y-56450D02*
X84850Y-54450D01*
X85500Y-56450D02*
X84500Y-56450D01*
X84500Y-56450D02*
X84500Y-58450D01*
X84500Y-58450D02*
X85500Y-58450D01*
X85500Y-58450D02*
X85500Y-56450D01*
X80050Y-46450D02*
X80050Y-45450D01*
X80050Y-45450D02*
X78050Y-45450D01*
X78050Y-45450D02*
X78050Y-46450D01*
X78050Y-46450D02*
X80050Y-46450D01*
X84300Y-46450D02*
X83300Y-46450D01*
X83300Y-46450D02*
X83300Y-48450D01*
X83300Y-48450D02*
X84300Y-48450D01*
X84300Y-48450D02*
X84300Y-46450D01*
G54D11*
X85471Y-47228D02*
X85171Y-47228D01*
X85171Y-47300D01*
X85185Y-47342D01*
X85214Y-47371D01*
X85242Y-47385D01*
X85300Y-47400D01*
X85342Y-47400D01*
X85400Y-47385D01*
X85428Y-47371D01*
X85457Y-47342D01*
X85471Y-47300D01*
X85471Y-47228D01*
X85171Y-47500D02*
X85171Y-47685D01*
X85285Y-47585D01*
X85285Y-47628D01*
X85300Y-47657D01*
X85314Y-47671D01*
X85342Y-47685D01*
X85414Y-47685D01*
X85442Y-47671D01*
X85457Y-47657D01*
X85471Y-47628D01*
X85471Y-47542D01*
X85457Y-47514D01*
X85442Y-47500D01*
X85621Y-49228D02*
X85321Y-49228D01*
X85321Y-49300D01*
X85335Y-49342D01*
X85364Y-49371D01*
X85392Y-49385D01*
X85450Y-49400D01*
X85492Y-49400D01*
X85550Y-49385D01*
X85578Y-49371D01*
X85607Y-49342D01*
X85621Y-49300D01*
X85621Y-49228D01*
X85321Y-49657D02*
X85321Y-49600D01*
X85335Y-49571D01*
X85350Y-49557D01*
X85392Y-49528D01*
X85450Y-49514D01*
X85564Y-49514D01*
X85592Y-49528D01*
X85607Y-49542D01*
X85621Y-49571D01*
X85621Y-49628D01*
X85607Y-49657D01*
X85592Y-49671D01*
X85564Y-49685D01*
X85492Y-49685D01*
X85464Y-49671D01*
X85450Y-49657D01*
X85435Y-49628D01*
X85435Y-49571D01*
X85450Y-49542D01*
X85464Y-49528D01*
X85492Y-49514D01*
X85321Y-51128D02*
X85021Y-51128D01*
X85021Y-51200D01*
X85035Y-51242D01*
X85064Y-51271D01*
X85092Y-51285D01*
X85150Y-51300D01*
X85192Y-51300D01*
X85250Y-51285D01*
X85278Y-51271D01*
X85307Y-51242D01*
X85321Y-51200D01*
X85321Y-51128D01*
X85121Y-51557D02*
X85321Y-51557D01*
X85007Y-51485D02*
X85221Y-51414D01*
X85221Y-51600D01*
X85321Y-53478D02*
X85021Y-53478D01*
X85021Y-53550D01*
X85035Y-53592D01*
X85064Y-53621D01*
X85092Y-53635D01*
X85150Y-53650D01*
X85192Y-53650D01*
X85250Y-53635D01*
X85278Y-53621D01*
X85307Y-53592D01*
X85321Y-53550D01*
X85321Y-53478D01*
X85021Y-53750D02*
X85021Y-53950D01*
X85321Y-53821D01*
X85221Y-55228D02*
X84921Y-55228D01*
X84921Y-55300D01*
X84935Y-55342D01*
X84964Y-55371D01*
X84992Y-55385D01*
X85050Y-55400D01*
X85092Y-55400D01*
X85150Y-55385D01*
X85178Y-55371D01*
X85207Y-55342D01*
X85221Y-55300D01*
X85221Y-55228D01*
X84921Y-55671D02*
X84921Y-55528D01*
X85064Y-55514D01*
X85050Y-55528D01*
X85035Y-55557D01*
X85035Y-55628D01*
X85050Y-55657D01*
X85064Y-55671D01*
X85092Y-55685D01*
X85164Y-55685D01*
X85192Y-55671D01*
X85207Y-55657D01*
X85221Y-55628D01*
X85221Y-55557D01*
X85207Y-55528D01*
X85192Y-55514D01*
X85871Y-57228D02*
X85571Y-57228D01*
X85571Y-57300D01*
X85585Y-57342D01*
X85614Y-57371D01*
X85642Y-57385D01*
X85700Y-57400D01*
X85742Y-57400D01*
X85800Y-57385D01*
X85828Y-57371D01*
X85857Y-57342D01*
X85871Y-57300D01*
X85871Y-57228D01*
X85700Y-57571D02*
X85685Y-57542D01*
X85671Y-57528D01*
X85642Y-57514D01*
X85628Y-57514D01*
X85600Y-57528D01*
X85585Y-57542D01*
X85571Y-57571D01*
X85571Y-57628D01*
X85585Y-57657D01*
X85600Y-57671D01*
X85628Y-57685D01*
X85642Y-57685D01*
X85671Y-57671D01*
X85685Y-57657D01*
X85700Y-57628D01*
X85700Y-57571D01*
X85714Y-57542D01*
X85728Y-57528D01*
X85757Y-57514D01*
X85814Y-57514D01*
X85842Y-57528D01*
X85857Y-57542D01*
X85871Y-57571D01*
X85871Y-57628D01*
X85857Y-57657D01*
X85842Y-57671D01*
X85814Y-57685D01*
X85757Y-57685D01*
X85728Y-57671D01*
X85714Y-57657D01*
X85700Y-57628D01*
X80600Y-45821D02*
X80700Y-45678D01*
X80771Y-45821D02*
X80771Y-45521D01*
X80657Y-45521D01*
X80628Y-45535D01*
X80614Y-45550D01*
X80600Y-45578D01*
X80600Y-45621D01*
X80614Y-45650D01*
X80628Y-45664D01*
X80657Y-45678D01*
X80771Y-45678D01*
X80485Y-45550D02*
X80471Y-45535D01*
X80442Y-45521D01*
X80371Y-45521D01*
X80342Y-45535D01*
X80328Y-45550D01*
X80314Y-45578D01*
X80314Y-45607D01*
X80328Y-45650D01*
X80500Y-45821D01*
X80314Y-45821D01*
X82771Y-47400D02*
X82628Y-47300D01*
X82771Y-47228D02*
X82471Y-47228D01*
X82471Y-47342D01*
X82485Y-47371D01*
X82500Y-47385D01*
X82528Y-47400D01*
X82571Y-47400D01*
X82600Y-47385D01*
X82614Y-47371D01*
X82628Y-47342D01*
X82628Y-47228D01*
X82471Y-47500D02*
X82471Y-47685D01*
X82585Y-47585D01*
X82585Y-47628D01*
X82600Y-47657D01*
X82614Y-47671D01*
X82642Y-47685D01*
X82714Y-47685D01*
X82742Y-47671D01*
X82757Y-47657D01*
X82771Y-47628D01*
X82771Y-47542D01*
X82757Y-47514D01*
X82742Y-47500D01*
M02*
