M48
;DRILL file {Pcbnew (2013-07-07 BZR 4022)-stable} date 16/12/2013 14:51:35
;FORMAT={-:-/ absolute / inch / decimal}
FMAT,2
INCH,TZ
T1C0.020
T2C0.032
T3C0.040
T4C0.045
T5C0.060
%
G90
G05
M72
T1
X7.005Y-4.745
X7.005Y-4.845
X7.055Y-4.795
X7.105Y-4.745
X7.155Y-4.695
X7.155Y-4.87
X7.18Y-4.92
X7.18Y-5.02
X7.205Y-4.82
X7.205Y-4.97
X7.206Y-5.881
X7.23Y-4.57
X7.255Y-4.795
X7.305Y-4.57
X7.355Y-4.62
X7.355Y-4.695
X7.405Y-4.57
X7.405Y-4.895
X7.445Y-5.758
X7.455Y-4.845
X7.455Y-4.92
X7.48Y-4.57
X7.505Y-4.795
X7.505Y-4.895
X7.555Y-4.745
X7.555Y-4.845
X7.555Y-4.945
X7.585Y-5.445
X7.585Y-5.545
X7.605Y-4.795
X7.605Y-4.895
X7.61Y-5.245
X7.645Y-5.605
X7.645Y-5.73
X7.655Y-4.845
X7.69Y-5.82
X7.705Y-4.795
X7.705Y-5.895
X7.7875Y-5.0175
X7.8275Y-5.3075
X7.8775Y-5.1175
X7.8925Y-4.8225
X7.8925Y-5.4075
X7.9475Y-5.1525
X7.9575Y-5.4525
X7.9625Y-4.8475
X8.0375Y-4.8425
X8.0375Y-5.1125
X8.0375Y-5.4175
X8.085Y-4.75
X8.1425Y-4.9025
X8.1425Y-5.2075
X8.1475Y-5.5025
X8.2175Y-5.2075
X8.2225Y-4.9025
X8.2275Y-5.5075
X8.29Y-4.885
X8.3Y-5.21
X8.3075Y-5.5025
X8.505Y-5.22
X8.505Y-5.32
X8.505Y-5.47
X8.505Y-5.895
X8.53Y-4.82
X8.555Y-5.02
X8.555Y-5.17
X8.555Y-5.27
X8.555Y-5.52
X8.555Y-5.87
X8.58Y-4.77
X8.58Y-5.67
X8.605Y-4.97
X8.605Y-5.22
X8.605Y-5.32
X8.605Y-5.47
X8.605Y-5.895
X8.63Y-4.82
X8.63Y-5.72
X8.655Y-5.17
X8.655Y-5.27
X8.655Y-5.52
X8.655Y-5.67
X8.655Y-5.87
X8.68Y-5.32
X8.68Y-5.72
X8.755Y-5.145
X8.755Y-5.345
X8.78Y-5.745
T2
X7.Y-4.9984
X7.385Y-4.9984
X7.855Y-4.595
X7.955Y-4.595
X8.38Y-4.695
X8.38Y-4.795
X8.435Y-5.095
X8.435Y-5.195
X8.435Y-5.295
X8.435Y-5.395
X8.435Y-5.495
X8.435Y-5.595
X8.46Y-4.695
X8.46Y-4.795
X8.475Y-4.895
X8.475Y-4.995
X8.5Y-5.695
X8.5Y-5.795
T3
X7.Y-5.0984
X7.Y-5.1984
X7.Y-5.2984
X7.Y-5.3984
X7.Y-5.4984
X7.Y-5.5984
X7.Y-5.6984
X7.Y-5.7984
X7.Y-5.8984
X7.1Y-4.9984
X7.1Y-5.0984
X7.1Y-5.1984
X7.1Y-5.2984
X7.1Y-5.3984
X7.1Y-5.4984
X7.1Y-5.5984
X7.1Y-5.6984
X7.1Y-5.7984
X7.1Y-5.8984
X7.385Y-5.0984
X7.385Y-5.1984
X7.385Y-5.2984
X7.385Y-5.3984
X7.385Y-5.4984
X7.385Y-5.5984
X7.385Y-5.6984
X7.385Y-5.7984
X7.385Y-5.8984
X7.485Y-4.9984
X7.485Y-5.0984
X7.485Y-5.1984
X7.485Y-5.2984
X7.485Y-5.3984
X7.485Y-5.4984
X7.485Y-5.5984
X7.485Y-5.6984
X7.485Y-5.7984
X7.485Y-5.8984
T4
X7.805Y-4.67
X7.855Y-5.695
X7.88Y-5.62
X7.93Y-5.695
X7.955Y-4.67
X7.955Y-5.62
X8.005Y-5.895
X8.03Y-4.67
X8.055Y-5.845
X8.105Y-5.745
X8.18Y-5.72
X8.255Y-5.72
X8.305Y-4.695
X8.305Y-4.795
X8.33Y-5.745
X8.355Y-4.62
X8.355Y-5.82
X8.355Y-5.895
X8.405Y-4.57
X8.43Y-5.895
X8.455Y-4.62
X8.505Y-4.57
X8.555Y-4.62
X8.605Y-4.57
X8.655Y-4.62
X8.68Y-4.57
T5
X7.255Y-4.67
X7.455Y-4.67
X7.655Y-4.67
X8.755Y-4.645
X8.755Y-4.845
X8.755Y-5.045
X8.755Y-5.245
X8.755Y-5.445
X8.755Y-5.645
X8.755Y-5.845
T0
M30
