G04 (created by PCBNEW (2013-07-07 BZR 4022)-stable) date 16/12/2013 14:51:33*
%MOIN*%
G04 Gerber Fmt 3.4, Leading zero omitted, Abs format*
%FSLAX34Y34*%
G01*
G70*
G90*
G04 APERTURE LIST*
%ADD10C,0.00590551*%
%ADD11R,0.02X0.045*%
%ADD12R,0.055X0.035*%
%ADD13R,0.05X0.038*%
%ADD14R,0.035X0.055*%
%ADD15R,0.0472X0.0472*%
G04 APERTURE END LIST*
G54D10*
G54D11*
X80225Y-52425D03*
X80225Y-50325D03*
X79725Y-52425D03*
X79225Y-52425D03*
X78725Y-52425D03*
X79725Y-50325D03*
X79225Y-50325D03*
X78725Y-50325D03*
X82725Y-56425D03*
X82725Y-54325D03*
X82225Y-56425D03*
X81725Y-56425D03*
X81225Y-56425D03*
X82225Y-54325D03*
X81725Y-54325D03*
X81225Y-54325D03*
X80225Y-55425D03*
X80225Y-53325D03*
X79725Y-55425D03*
X79225Y-55425D03*
X78725Y-55425D03*
X79725Y-53325D03*
X79225Y-53325D03*
X78725Y-53325D03*
X82725Y-53425D03*
X82725Y-51325D03*
X82225Y-53425D03*
X81725Y-53425D03*
X81225Y-53425D03*
X82225Y-51325D03*
X81725Y-51325D03*
X81225Y-51325D03*
X80225Y-49425D03*
X80225Y-47325D03*
X79725Y-49425D03*
X79225Y-49425D03*
X78725Y-49425D03*
X79725Y-47325D03*
X79225Y-47325D03*
X78725Y-47325D03*
X82725Y-50425D03*
X82725Y-48325D03*
X82225Y-50425D03*
X81725Y-50425D03*
X81225Y-50425D03*
X82225Y-48325D03*
X81725Y-48325D03*
X81225Y-48325D03*
G54D12*
X77975Y-56250D03*
X77975Y-55500D03*
X77975Y-54750D03*
X77975Y-54000D03*
X77975Y-51500D03*
X77975Y-50750D03*
X77975Y-53250D03*
X77975Y-52500D03*
X78025Y-48300D03*
X78025Y-47550D03*
X77975Y-49750D03*
X77975Y-49000D03*
G54D13*
X80290Y-57790D03*
X80290Y-56500D03*
G54D14*
X77425Y-58450D03*
X78175Y-58450D03*
G54D15*
X79300Y-58713D03*
X79300Y-57887D03*
G54D12*
X76600Y-50225D03*
X76600Y-50975D03*
X76700Y-51775D03*
X76700Y-52525D03*
X76900Y-53075D03*
X76900Y-53825D03*
X77050Y-54375D03*
X77050Y-55125D03*
X77100Y-55725D03*
X77100Y-56475D03*
X77350Y-57025D03*
X77350Y-57775D03*
M02*
