G04 (created by PCBNEW (2013-07-07 BZR 4022)-stable) date 10/06/2014 08:12:37*
%MOIN*%
G04 Gerber Fmt 3.4, Leading zero omitted, Abs format*
%FSLAX34Y34*%
G01*
G70*
G90*
G04 APERTURE LIST*
%ADD10C,0.00590551*%
%ADD11C,0.015*%
%ADD12C,0.00984252*%
G04 APERTURE END LIST*
G54D10*
G54D11*
X51000Y-31500D02*
X51000Y-33500D01*
X50000Y-33500D02*
X50000Y-31500D01*
X49000Y-31500D02*
X49000Y-33500D01*
X48000Y-33500D02*
X48000Y-31500D01*
X47000Y-31500D02*
X47000Y-33500D01*
X46000Y-33500D02*
X46000Y-31500D01*
X45000Y-31500D02*
X45000Y-33500D01*
X44000Y-33500D02*
X44000Y-31500D01*
X43000Y-31500D02*
X43000Y-33500D01*
X42000Y-33500D02*
X42000Y-31500D01*
X41000Y-31500D02*
X41000Y-33500D01*
X40000Y-33500D02*
X40000Y-31500D01*
X39000Y-31500D02*
X39000Y-33500D01*
X38000Y-33500D02*
X38000Y-31500D01*
X37000Y-31500D02*
X37000Y-33500D01*
X36000Y-33500D02*
X36000Y-31500D01*
X35000Y-31500D02*
X35000Y-33500D01*
X34000Y-33500D02*
X34000Y-31500D01*
X34000Y-29250D02*
X34000Y-31250D01*
X35000Y-31250D02*
X35000Y-29250D01*
X36000Y-29250D02*
X36000Y-31250D01*
X37000Y-31250D02*
X37000Y-29250D01*
X38000Y-29250D02*
X38000Y-31250D01*
X39000Y-31250D02*
X39000Y-29250D01*
X40000Y-29250D02*
X40000Y-31250D01*
X41000Y-31250D02*
X41000Y-29250D01*
X42000Y-29250D02*
X42000Y-31250D01*
X43000Y-31250D02*
X43000Y-29250D01*
X44000Y-31250D02*
X44000Y-29250D01*
X44000Y-29500D02*
X44000Y-31250D01*
X45000Y-31250D02*
X45000Y-29250D01*
X46000Y-29250D02*
X46000Y-31250D01*
X47000Y-31250D02*
X47000Y-29250D01*
X48000Y-29250D02*
X48000Y-31250D01*
X49000Y-31250D02*
X49000Y-29250D01*
X50000Y-29250D02*
X50000Y-31250D01*
X51000Y-31250D02*
X51000Y-29250D01*
X51000Y-27000D02*
X51000Y-29000D01*
X50000Y-29000D02*
X50000Y-27000D01*
X49000Y-27000D02*
X49000Y-29000D01*
X48000Y-29000D02*
X48000Y-27000D01*
X47000Y-27000D02*
X47000Y-29000D01*
X46000Y-29000D02*
X46000Y-27000D01*
X45000Y-27000D02*
X45000Y-29000D01*
X44000Y-27000D02*
X44000Y-29000D01*
X43000Y-29000D02*
X43000Y-27000D01*
X42000Y-27000D02*
X42000Y-29000D01*
X41000Y-27000D02*
X41000Y-27250D01*
X41000Y-29000D02*
X41000Y-27000D01*
X41000Y-27250D02*
X41000Y-29000D01*
X40000Y-29000D02*
X40000Y-27000D01*
X39000Y-27000D02*
X39000Y-29000D01*
X38000Y-29000D02*
X38000Y-27000D01*
X37000Y-27000D02*
X37000Y-29000D01*
X36000Y-29000D02*
X36000Y-27000D01*
X35000Y-27000D02*
X35000Y-29000D01*
X34000Y-29000D02*
X34000Y-27000D01*
X34000Y-24750D02*
X34000Y-26750D01*
X35000Y-26750D02*
X35000Y-24750D01*
X36000Y-24750D02*
X36000Y-26750D01*
X37000Y-26750D02*
X37000Y-24750D01*
X38000Y-24750D02*
X38000Y-26750D01*
X39000Y-26750D02*
X39000Y-24750D01*
X40000Y-24750D02*
X40000Y-26750D01*
X41000Y-26750D02*
X41000Y-24750D01*
X42000Y-24750D02*
X42000Y-26750D01*
X43000Y-26750D02*
X43000Y-24750D01*
X44000Y-24750D02*
X44000Y-26750D01*
X45000Y-26750D02*
X45000Y-24750D01*
X46000Y-24750D02*
X46000Y-26750D01*
X47000Y-26750D02*
X47000Y-24750D01*
X48000Y-24750D02*
X48000Y-26750D01*
X49000Y-26750D02*
X49000Y-24750D01*
X50000Y-24750D02*
X50000Y-26750D01*
X51000Y-26750D02*
X51000Y-24750D01*
X64250Y-33500D02*
X64250Y-31500D01*
X63250Y-31500D02*
X63250Y-33500D01*
X62250Y-33500D02*
X62250Y-31500D01*
X61250Y-31500D02*
X61250Y-33500D01*
X60250Y-33500D02*
X60250Y-31500D01*
X59250Y-31500D02*
X59250Y-33500D01*
X58250Y-33500D02*
X58250Y-31500D01*
X58250Y-29250D02*
X58250Y-31250D01*
X59250Y-31250D02*
X59250Y-29250D01*
X60250Y-29250D02*
X60250Y-31250D01*
X61250Y-31250D02*
X61250Y-29250D01*
X62250Y-29250D02*
X62250Y-31250D01*
X63250Y-31250D02*
X63250Y-29250D01*
X64250Y-29250D02*
X64250Y-31250D01*
X64250Y-29000D02*
X64250Y-27000D01*
X63250Y-27000D02*
X63250Y-29000D01*
X62250Y-29000D02*
X62250Y-27000D01*
X61250Y-27000D02*
X61250Y-29000D01*
X60250Y-29000D02*
X60250Y-27000D01*
X59250Y-27000D02*
X59250Y-29000D01*
X58250Y-29000D02*
X58250Y-27000D01*
X64250Y-26750D02*
X64250Y-24750D01*
X63250Y-24750D02*
X63250Y-26750D01*
X62250Y-26750D02*
X62250Y-24750D01*
X61250Y-24750D02*
X61250Y-26750D01*
X60250Y-26750D02*
X60250Y-24750D01*
X59250Y-24750D02*
X59250Y-26750D01*
X58250Y-26750D02*
X58250Y-24750D01*
X69000Y-25000D02*
X69000Y-33500D01*
X73000Y-33500D02*
X73000Y-25000D01*
X71000Y-25000D02*
X71000Y-33500D01*
X67000Y-29250D02*
X75000Y-29250D01*
X67000Y-33500D02*
X67000Y-25000D01*
X75000Y-33500D02*
X67000Y-33500D01*
X75000Y-25000D02*
X75000Y-33500D01*
X67000Y-25000D02*
X75000Y-25000D01*
X29500Y-33500D02*
X29500Y-25000D01*
X27500Y-33500D02*
X27500Y-25000D01*
X25500Y-29250D02*
X31500Y-29250D01*
X31500Y-33500D02*
X25500Y-33500D01*
X31500Y-25000D02*
X31500Y-33500D01*
X25500Y-25000D02*
X31500Y-25000D01*
X25500Y-33500D02*
X25500Y-25000D01*
G54D12*
X32368Y-25300D02*
X32331Y-25225D01*
X32293Y-25187D01*
X32218Y-25150D01*
X32181Y-25150D01*
X32106Y-25187D01*
X32068Y-25225D01*
X32031Y-25300D01*
X32031Y-25450D01*
X32068Y-25525D01*
X32106Y-25562D01*
X32181Y-25600D01*
X32218Y-25600D01*
X32293Y-25562D01*
X32331Y-25525D01*
X32368Y-25450D01*
X32368Y-25300D01*
X32406Y-25225D01*
X32443Y-25187D01*
X32518Y-25150D01*
X32668Y-25150D01*
X32743Y-25187D01*
X32781Y-25225D01*
X32818Y-25300D01*
X32818Y-25450D01*
X32781Y-25525D01*
X32743Y-25562D01*
X32668Y-25600D01*
X32518Y-25600D01*
X32443Y-25562D01*
X32406Y-25525D01*
X32368Y-25450D01*
X32818Y-26349D02*
X32818Y-25899D01*
X32818Y-26124D02*
X32031Y-26124D01*
X32143Y-26049D01*
X32218Y-25974D01*
X32256Y-25899D01*
X32031Y-27775D02*
X32031Y-27625D01*
X32068Y-27550D01*
X32106Y-27512D01*
X32218Y-27437D01*
X32368Y-27400D01*
X32668Y-27400D01*
X32743Y-27437D01*
X32781Y-27475D01*
X32818Y-27550D01*
X32818Y-27700D01*
X32781Y-27775D01*
X32743Y-27812D01*
X32668Y-27850D01*
X32481Y-27850D01*
X32406Y-27812D01*
X32368Y-27775D01*
X32331Y-27700D01*
X32331Y-27550D01*
X32368Y-27475D01*
X32406Y-27437D01*
X32481Y-27400D01*
X32106Y-28149D02*
X32068Y-28187D01*
X32031Y-28262D01*
X32031Y-28449D01*
X32068Y-28524D01*
X32106Y-28562D01*
X32181Y-28599D01*
X32256Y-28599D01*
X32368Y-28562D01*
X32818Y-28112D01*
X32818Y-28599D01*
X32293Y-30275D02*
X32818Y-30275D01*
X31993Y-30087D02*
X32556Y-29900D01*
X32556Y-30387D01*
X32031Y-30612D02*
X32031Y-31099D01*
X32331Y-30837D01*
X32331Y-30949D01*
X32368Y-31024D01*
X32406Y-31062D01*
X32481Y-31099D01*
X32668Y-31099D01*
X32743Y-31062D01*
X32781Y-31024D01*
X32818Y-30949D01*
X32818Y-30724D01*
X32781Y-30649D01*
X32743Y-30612D01*
X32106Y-31900D02*
X32068Y-31937D01*
X32031Y-32012D01*
X32031Y-32200D01*
X32068Y-32275D01*
X32106Y-32312D01*
X32181Y-32350D01*
X32256Y-32350D01*
X32368Y-32312D01*
X32818Y-31862D01*
X32818Y-32350D01*
X32293Y-33024D02*
X32818Y-33024D01*
X31993Y-32837D02*
X32556Y-32649D01*
X32556Y-33137D01*
X54568Y-29900D02*
X54531Y-29825D01*
X54531Y-29712D01*
X54568Y-29600D01*
X54643Y-29525D01*
X54718Y-29487D01*
X54868Y-29450D01*
X54981Y-29450D01*
X55131Y-29487D01*
X55206Y-29525D01*
X55281Y-29600D01*
X55318Y-29712D01*
X55318Y-29787D01*
X55281Y-29900D01*
X55243Y-29937D01*
X54981Y-29937D01*
X54981Y-29787D01*
X55318Y-30275D02*
X54531Y-30275D01*
X55318Y-30724D01*
X54531Y-30724D01*
X55318Y-31099D02*
X54531Y-31099D01*
X54531Y-31287D01*
X54568Y-31399D01*
X54643Y-31474D01*
X54718Y-31512D01*
X54868Y-31549D01*
X54981Y-31549D01*
X55131Y-31512D01*
X55206Y-31474D01*
X55281Y-31399D01*
X55318Y-31287D01*
X55318Y-31099D01*
X52281Y-25525D02*
X52281Y-25375D01*
X52318Y-25300D01*
X52356Y-25262D01*
X52468Y-25187D01*
X52618Y-25150D01*
X52918Y-25150D01*
X52993Y-25187D01*
X53031Y-25225D01*
X53068Y-25300D01*
X53068Y-25450D01*
X53031Y-25525D01*
X52993Y-25562D01*
X52918Y-25600D01*
X52731Y-25600D01*
X52656Y-25562D01*
X52618Y-25525D01*
X52581Y-25450D01*
X52581Y-25300D01*
X52618Y-25225D01*
X52656Y-25187D01*
X52731Y-25150D01*
X52281Y-25862D02*
X52281Y-26349D01*
X52581Y-26087D01*
X52581Y-26199D01*
X52618Y-26274D01*
X52656Y-26312D01*
X52731Y-26349D01*
X52918Y-26349D01*
X52993Y-26312D01*
X53031Y-26274D01*
X53068Y-26199D01*
X53068Y-25974D01*
X53031Y-25899D01*
X52993Y-25862D01*
X52543Y-27775D02*
X53068Y-27775D01*
X52243Y-27587D02*
X52806Y-27400D01*
X52806Y-27887D01*
X52543Y-28524D02*
X53068Y-28524D01*
X52243Y-28337D02*
X52806Y-28149D01*
X52806Y-28637D01*
X52356Y-29650D02*
X52318Y-29687D01*
X52281Y-29762D01*
X52281Y-29950D01*
X52318Y-30025D01*
X52356Y-30062D01*
X52431Y-30100D01*
X52506Y-30100D01*
X52618Y-30062D01*
X53068Y-29612D01*
X53068Y-30100D01*
X52281Y-30812D02*
X52281Y-30437D01*
X52656Y-30399D01*
X52618Y-30437D01*
X52581Y-30512D01*
X52581Y-30699D01*
X52618Y-30774D01*
X52656Y-30812D01*
X52731Y-30849D01*
X52918Y-30849D01*
X52993Y-30812D01*
X53031Y-30774D01*
X53068Y-30699D01*
X53068Y-30512D01*
X53031Y-30437D01*
X52993Y-30399D01*
X52281Y-32649D02*
X52281Y-32500D01*
X52318Y-32425D01*
X52356Y-32387D01*
X52468Y-32312D01*
X52618Y-32275D01*
X52918Y-32275D01*
X52993Y-32312D01*
X53031Y-32350D01*
X53068Y-32425D01*
X53068Y-32574D01*
X53031Y-32649D01*
X52993Y-32687D01*
X52918Y-32724D01*
X52731Y-32724D01*
X52656Y-32687D01*
X52618Y-32649D01*
X52581Y-32574D01*
X52581Y-32425D01*
X52618Y-32350D01*
X52656Y-32312D01*
X52731Y-32275D01*
X56618Y-25300D02*
X56581Y-25225D01*
X56543Y-25187D01*
X56468Y-25150D01*
X56431Y-25150D01*
X56356Y-25187D01*
X56318Y-25225D01*
X56281Y-25300D01*
X56281Y-25450D01*
X56318Y-25525D01*
X56356Y-25562D01*
X56431Y-25600D01*
X56468Y-25600D01*
X56543Y-25562D01*
X56581Y-25525D01*
X56618Y-25450D01*
X56618Y-25300D01*
X56656Y-25225D01*
X56693Y-25187D01*
X56768Y-25150D01*
X56918Y-25150D01*
X56993Y-25187D01*
X57031Y-25225D01*
X57068Y-25300D01*
X57068Y-25450D01*
X57031Y-25525D01*
X56993Y-25562D01*
X56918Y-25600D01*
X56768Y-25600D01*
X56693Y-25562D01*
X56656Y-25525D01*
X56618Y-25450D01*
X56356Y-25899D02*
X56318Y-25937D01*
X56281Y-26012D01*
X56281Y-26199D01*
X56318Y-26274D01*
X56356Y-26312D01*
X56431Y-26349D01*
X56506Y-26349D01*
X56618Y-26312D01*
X57068Y-25862D01*
X57068Y-26349D01*
X57068Y-29725D02*
X57068Y-29875D01*
X57031Y-29950D01*
X56993Y-29987D01*
X56881Y-30062D01*
X56731Y-30100D01*
X56431Y-30100D01*
X56356Y-30062D01*
X56318Y-30025D01*
X56281Y-29950D01*
X56281Y-29800D01*
X56318Y-29725D01*
X56356Y-29687D01*
X56431Y-29650D01*
X56618Y-29650D01*
X56693Y-29687D01*
X56731Y-29725D01*
X56768Y-29800D01*
X56768Y-29950D01*
X56731Y-30025D01*
X56693Y-30062D01*
X56618Y-30100D01*
X56618Y-30549D02*
X56581Y-30474D01*
X56543Y-30437D01*
X56468Y-30399D01*
X56431Y-30399D01*
X56356Y-30437D01*
X56318Y-30474D01*
X56281Y-30549D01*
X56281Y-30699D01*
X56318Y-30774D01*
X56356Y-30812D01*
X56431Y-30849D01*
X56468Y-30849D01*
X56543Y-30812D01*
X56581Y-30774D01*
X56618Y-30699D01*
X56618Y-30549D01*
X56656Y-30474D01*
X56693Y-30437D01*
X56768Y-30399D01*
X56918Y-30399D01*
X56993Y-30437D01*
X57031Y-30474D01*
X57068Y-30549D01*
X57068Y-30699D01*
X57031Y-30774D01*
X56993Y-30812D01*
X56918Y-30849D01*
X56768Y-30849D01*
X56693Y-30812D01*
X56656Y-30774D01*
X56618Y-30699D01*
X57068Y-27475D02*
X57068Y-27625D01*
X57031Y-27700D01*
X56993Y-27737D01*
X56881Y-27812D01*
X56731Y-27850D01*
X56431Y-27850D01*
X56356Y-27812D01*
X56318Y-27775D01*
X56281Y-27700D01*
X56281Y-27550D01*
X56318Y-27475D01*
X56356Y-27437D01*
X56431Y-27400D01*
X56618Y-27400D01*
X56693Y-27437D01*
X56731Y-27475D01*
X56768Y-27550D01*
X56768Y-27700D01*
X56731Y-27775D01*
X56693Y-27812D01*
X56618Y-27850D01*
X56281Y-28337D02*
X56281Y-28412D01*
X56318Y-28487D01*
X56356Y-28524D01*
X56431Y-28562D01*
X56581Y-28599D01*
X56768Y-28599D01*
X56918Y-28562D01*
X56993Y-28524D01*
X57031Y-28487D01*
X57068Y-28412D01*
X57068Y-28337D01*
X57031Y-28262D01*
X56993Y-28224D01*
X56918Y-28187D01*
X56768Y-28149D01*
X56581Y-28149D01*
X56431Y-28187D01*
X56356Y-28224D01*
X56318Y-28262D01*
X56281Y-28337D01*
X57068Y-31975D02*
X57068Y-31525D01*
X57068Y-31750D02*
X56281Y-31750D01*
X56393Y-31675D01*
X56468Y-31600D01*
X56506Y-31525D01*
X56281Y-32462D02*
X56281Y-32537D01*
X56318Y-32612D01*
X56356Y-32649D01*
X56431Y-32687D01*
X56581Y-32724D01*
X56768Y-32724D01*
X56918Y-32687D01*
X56993Y-32649D01*
X57031Y-32612D01*
X57068Y-32537D01*
X57068Y-32462D01*
X57031Y-32387D01*
X56993Y-32350D01*
X56918Y-32312D01*
X56768Y-32275D01*
X56581Y-32275D01*
X56431Y-32312D01*
X56356Y-32350D01*
X56318Y-32387D01*
X56281Y-32462D01*
X56281Y-33399D02*
X56281Y-33249D01*
X56318Y-33174D01*
X56356Y-33137D01*
X56468Y-33062D01*
X56618Y-33024D01*
X56918Y-33024D01*
X56993Y-33062D01*
X57031Y-33099D01*
X57068Y-33174D01*
X57068Y-33324D01*
X57031Y-33399D01*
X56993Y-33437D01*
X56918Y-33474D01*
X56731Y-33474D01*
X56656Y-33437D01*
X56618Y-33399D01*
X56581Y-33324D01*
X56581Y-33174D01*
X56618Y-33099D01*
X56656Y-33062D01*
X56731Y-33024D01*
X65868Y-25300D02*
X65831Y-25225D01*
X65793Y-25187D01*
X65718Y-25150D01*
X65681Y-25150D01*
X65606Y-25187D01*
X65568Y-25225D01*
X65531Y-25300D01*
X65531Y-25450D01*
X65568Y-25525D01*
X65606Y-25562D01*
X65681Y-25600D01*
X65718Y-25600D01*
X65793Y-25562D01*
X65831Y-25525D01*
X65868Y-25450D01*
X65868Y-25300D01*
X65906Y-25225D01*
X65943Y-25187D01*
X66018Y-25150D01*
X66168Y-25150D01*
X66243Y-25187D01*
X66281Y-25225D01*
X66318Y-25300D01*
X66318Y-25450D01*
X66281Y-25525D01*
X66243Y-25562D01*
X66168Y-25600D01*
X66018Y-25600D01*
X65943Y-25562D01*
X65906Y-25525D01*
X65868Y-25450D01*
X66318Y-25974D02*
X66318Y-26124D01*
X66281Y-26199D01*
X66243Y-26237D01*
X66131Y-26312D01*
X65981Y-26349D01*
X65681Y-26349D01*
X65606Y-26312D01*
X65568Y-26274D01*
X65531Y-26199D01*
X65531Y-26049D01*
X65568Y-25974D01*
X65606Y-25937D01*
X65681Y-25899D01*
X65868Y-25899D01*
X65943Y-25937D01*
X65981Y-25974D01*
X66018Y-26049D01*
X66018Y-26199D01*
X65981Y-26274D01*
X65943Y-26312D01*
X65868Y-26349D01*
X66318Y-27475D02*
X66318Y-27625D01*
X66281Y-27700D01*
X66243Y-27737D01*
X66131Y-27812D01*
X65981Y-27850D01*
X65681Y-27850D01*
X65606Y-27812D01*
X65568Y-27775D01*
X65531Y-27700D01*
X65531Y-27550D01*
X65568Y-27475D01*
X65606Y-27437D01*
X65681Y-27400D01*
X65868Y-27400D01*
X65943Y-27437D01*
X65981Y-27475D01*
X66018Y-27550D01*
X66018Y-27700D01*
X65981Y-27775D01*
X65943Y-27812D01*
X65868Y-27850D01*
X65531Y-28112D02*
X65531Y-28637D01*
X66318Y-28299D01*
X66318Y-29575D02*
X66318Y-29125D01*
X66318Y-29350D02*
X65531Y-29350D01*
X65643Y-29275D01*
X65718Y-29200D01*
X65756Y-29125D01*
X65531Y-30062D02*
X65531Y-30137D01*
X65568Y-30212D01*
X65606Y-30249D01*
X65681Y-30287D01*
X65831Y-30324D01*
X66018Y-30324D01*
X66168Y-30287D01*
X66243Y-30249D01*
X66281Y-30212D01*
X66318Y-30137D01*
X66318Y-30062D01*
X66281Y-29987D01*
X66243Y-29950D01*
X66168Y-29912D01*
X66018Y-29875D01*
X65831Y-29875D01*
X65681Y-29912D01*
X65606Y-29950D01*
X65568Y-29987D01*
X65531Y-30062D01*
X65531Y-31037D02*
X65531Y-30662D01*
X65906Y-30624D01*
X65868Y-30662D01*
X65831Y-30737D01*
X65831Y-30924D01*
X65868Y-30999D01*
X65906Y-31037D01*
X65981Y-31074D01*
X66168Y-31074D01*
X66243Y-31037D01*
X66281Y-30999D01*
X66318Y-30924D01*
X66318Y-30737D01*
X66281Y-30662D01*
X66243Y-30624D01*
X66318Y-32175D02*
X66318Y-31725D01*
X66318Y-31950D02*
X65531Y-31950D01*
X65643Y-31875D01*
X65718Y-31800D01*
X65756Y-31725D01*
X66318Y-32924D02*
X66318Y-32475D01*
X66318Y-32700D02*
X65531Y-32700D01*
X65643Y-32625D01*
X65718Y-32550D01*
X65756Y-32475D01*
X65531Y-33187D02*
X65531Y-33674D01*
X65831Y-33412D01*
X65831Y-33524D01*
X65868Y-33599D01*
X65906Y-33637D01*
X65981Y-33674D01*
X66168Y-33674D01*
X66243Y-33637D01*
X66281Y-33599D01*
X66318Y-33524D01*
X66318Y-33299D01*
X66281Y-33224D01*
X66243Y-33187D01*
G54D11*
X57250Y-33500D02*
X57250Y-31500D01*
X65250Y-33500D02*
X57250Y-33500D01*
X65250Y-31500D02*
X65250Y-33500D01*
X57250Y-31500D02*
X65250Y-31500D01*
X65250Y-31250D02*
X65250Y-29250D01*
X57250Y-31250D02*
X65250Y-31250D01*
X57250Y-29250D02*
X57250Y-31250D01*
X65250Y-29250D02*
X57250Y-29250D01*
X57250Y-29000D02*
X65250Y-29000D01*
X57250Y-27000D02*
X57250Y-29000D01*
X65250Y-27000D02*
X57250Y-27000D01*
X65250Y-29000D02*
X65250Y-27000D01*
X57250Y-24750D02*
X65250Y-24750D01*
X57250Y-26750D02*
X57250Y-24750D01*
X65250Y-26750D02*
X57250Y-26750D01*
X65250Y-24750D02*
X65250Y-26750D01*
X57250Y-24750D02*
X65250Y-24750D01*
X33000Y-26750D02*
X52000Y-26750D01*
X33000Y-24750D02*
X33000Y-26750D01*
X52000Y-24750D02*
X33000Y-24750D01*
X52000Y-26750D02*
X52000Y-24750D01*
X33000Y-29000D02*
X52000Y-29000D01*
X33000Y-27000D02*
X33000Y-29000D01*
X52000Y-27000D02*
X33000Y-27000D01*
X52000Y-29000D02*
X52000Y-27000D01*
X33000Y-31250D02*
X52000Y-31250D01*
X33000Y-29250D02*
X33000Y-31250D01*
X52000Y-29250D02*
X33000Y-29250D01*
X52000Y-31250D02*
X52000Y-29250D01*
X33000Y-31500D02*
X52000Y-31500D01*
X33000Y-33500D02*
X33000Y-31500D01*
X52000Y-33500D02*
X33000Y-33500D01*
X52000Y-31500D02*
X52000Y-33500D01*
G54D12*
X24531Y-31687D02*
X24531Y-31312D01*
X24906Y-31275D01*
X24868Y-31312D01*
X24831Y-31387D01*
X24831Y-31574D01*
X24868Y-31649D01*
X24906Y-31687D01*
X24981Y-31724D01*
X25168Y-31724D01*
X25243Y-31687D01*
X25281Y-31649D01*
X25318Y-31574D01*
X25318Y-31387D01*
X25281Y-31312D01*
X25243Y-31275D01*
X23531Y-31237D02*
X23531Y-31724D01*
X23831Y-31462D01*
X23831Y-31574D01*
X23868Y-31649D01*
X23906Y-31687D01*
X23981Y-31724D01*
X24168Y-31724D01*
X24243Y-31687D01*
X24281Y-31649D01*
X24318Y-31574D01*
X24318Y-31350D01*
X24281Y-31275D01*
X24243Y-31237D01*
X22793Y-31649D02*
X23318Y-31649D01*
X22493Y-31462D02*
X23056Y-31275D01*
X23056Y-31762D01*
X24606Y-26775D02*
X24568Y-26812D01*
X24531Y-26887D01*
X24531Y-27074D01*
X24568Y-27149D01*
X24606Y-27187D01*
X24681Y-27224D01*
X24756Y-27224D01*
X24868Y-27187D01*
X25318Y-26737D01*
X25318Y-27224D01*
X23318Y-27224D02*
X23318Y-26775D01*
X23318Y-27000D02*
X22531Y-27000D01*
X22643Y-26925D01*
X22718Y-26850D01*
X22756Y-26775D01*
X75739Y-31106D02*
X75739Y-30768D01*
X75739Y-30937D02*
X75148Y-30937D01*
X75232Y-30881D01*
X75289Y-30825D01*
X75317Y-30768D01*
X75739Y-31668D02*
X75739Y-31331D01*
X75739Y-31500D02*
X75148Y-31500D01*
X75232Y-31443D01*
X75289Y-31387D01*
X75317Y-31331D01*
X75739Y-31949D02*
X75739Y-32062D01*
X75710Y-32118D01*
X75682Y-32146D01*
X75598Y-32203D01*
X75485Y-32231D01*
X75260Y-32231D01*
X75204Y-32203D01*
X75176Y-32174D01*
X75148Y-32118D01*
X75148Y-32006D01*
X75176Y-31949D01*
X75204Y-31921D01*
X75260Y-31893D01*
X75401Y-31893D01*
X75457Y-31921D01*
X75485Y-31949D01*
X75514Y-32006D01*
X75514Y-32118D01*
X75485Y-32174D01*
X75457Y-32203D01*
X75401Y-32231D01*
X76589Y-31106D02*
X76589Y-30768D01*
X76589Y-30937D02*
X75998Y-30937D01*
X76082Y-30881D01*
X76139Y-30825D01*
X76167Y-30768D01*
X76589Y-31668D02*
X76589Y-31331D01*
X76589Y-31500D02*
X75998Y-31500D01*
X76082Y-31443D01*
X76139Y-31387D01*
X76167Y-31331D01*
X75998Y-31865D02*
X75998Y-32259D01*
X76589Y-32006D01*
X77489Y-31106D02*
X77489Y-30768D01*
X77489Y-30937D02*
X76898Y-30937D01*
X76982Y-30881D01*
X77039Y-30825D01*
X77067Y-30768D01*
X76954Y-31331D02*
X76926Y-31359D01*
X76898Y-31415D01*
X76898Y-31556D01*
X76926Y-31612D01*
X76954Y-31640D01*
X77010Y-31668D01*
X77067Y-31668D01*
X77151Y-31640D01*
X77489Y-31303D01*
X77489Y-31668D01*
X76898Y-32034D02*
X76898Y-32090D01*
X76926Y-32146D01*
X76954Y-32174D01*
X77010Y-32203D01*
X77123Y-32231D01*
X77264Y-32231D01*
X77376Y-32203D01*
X77432Y-32174D01*
X77460Y-32146D01*
X77489Y-32090D01*
X77489Y-32034D01*
X77460Y-31978D01*
X77432Y-31949D01*
X77376Y-31921D01*
X77264Y-31893D01*
X77123Y-31893D01*
X77010Y-31921D01*
X76954Y-31949D01*
X76926Y-31978D01*
X76898Y-32034D01*
X78289Y-31106D02*
X78289Y-30768D01*
X78289Y-30937D02*
X77698Y-30937D01*
X77782Y-30881D01*
X77839Y-30825D01*
X77867Y-30768D01*
X78289Y-31668D02*
X78289Y-31331D01*
X78289Y-31500D02*
X77698Y-31500D01*
X77782Y-31443D01*
X77839Y-31387D01*
X77867Y-31331D01*
X77951Y-32006D02*
X77923Y-31949D01*
X77895Y-31921D01*
X77839Y-31893D01*
X77810Y-31893D01*
X77754Y-31921D01*
X77726Y-31949D01*
X77698Y-32006D01*
X77698Y-32118D01*
X77726Y-32174D01*
X77754Y-32203D01*
X77810Y-32231D01*
X77839Y-32231D01*
X77895Y-32203D01*
X77923Y-32174D01*
X77951Y-32118D01*
X77951Y-32006D01*
X77979Y-31949D01*
X78007Y-31921D01*
X78064Y-31893D01*
X78176Y-31893D01*
X78232Y-31921D01*
X78260Y-31949D01*
X78289Y-32006D01*
X78289Y-32118D01*
X78260Y-32174D01*
X78232Y-32203D01*
X78176Y-32231D01*
X78064Y-32231D01*
X78007Y-32203D01*
X77979Y-32174D01*
X77951Y-32118D01*
X78289Y-26606D02*
X78289Y-26268D01*
X78289Y-26437D02*
X77698Y-26437D01*
X77782Y-26381D01*
X77839Y-26325D01*
X77867Y-26268D01*
X77754Y-26831D02*
X77726Y-26859D01*
X77698Y-26915D01*
X77698Y-27056D01*
X77726Y-27112D01*
X77754Y-27140D01*
X77810Y-27168D01*
X77867Y-27168D01*
X77951Y-27140D01*
X78289Y-26803D01*
X78289Y-27168D01*
X78289Y-27731D02*
X78289Y-27393D01*
X78289Y-27562D02*
X77698Y-27562D01*
X77782Y-27506D01*
X77839Y-27449D01*
X77867Y-27393D01*
X77389Y-26606D02*
X77389Y-26268D01*
X77389Y-26437D02*
X76798Y-26437D01*
X76882Y-26381D01*
X76939Y-26325D01*
X76967Y-26268D01*
X77389Y-27168D02*
X77389Y-26831D01*
X77389Y-27000D02*
X76798Y-27000D01*
X76882Y-26943D01*
X76939Y-26887D01*
X76967Y-26831D01*
X76798Y-27674D02*
X76798Y-27562D01*
X76826Y-27506D01*
X76854Y-27478D01*
X76939Y-27421D01*
X77051Y-27393D01*
X77276Y-27393D01*
X77332Y-27421D01*
X77360Y-27449D01*
X77389Y-27506D01*
X77389Y-27618D01*
X77360Y-27674D01*
X77332Y-27703D01*
X77276Y-27731D01*
X77135Y-27731D01*
X77079Y-27703D01*
X77051Y-27674D01*
X77023Y-27618D01*
X77023Y-27506D01*
X77051Y-27449D01*
X77079Y-27421D01*
X77135Y-27393D01*
X76589Y-26606D02*
X76589Y-26268D01*
X76589Y-26437D02*
X75998Y-26437D01*
X76082Y-26381D01*
X76139Y-26325D01*
X76167Y-26268D01*
X76589Y-27168D02*
X76589Y-26831D01*
X76589Y-27000D02*
X75998Y-27000D01*
X76082Y-26943D01*
X76139Y-26887D01*
X76167Y-26831D01*
X75998Y-27703D02*
X75998Y-27421D01*
X76279Y-27393D01*
X76251Y-27421D01*
X76223Y-27478D01*
X76223Y-27618D01*
X76251Y-27674D01*
X76279Y-27703D01*
X76335Y-27731D01*
X76476Y-27731D01*
X76532Y-27703D01*
X76560Y-27674D01*
X76589Y-27618D01*
X76589Y-27478D01*
X76560Y-27421D01*
X76532Y-27393D01*
X75739Y-26606D02*
X75739Y-26268D01*
X75739Y-26437D02*
X75148Y-26437D01*
X75232Y-26381D01*
X75289Y-26325D01*
X75317Y-26268D01*
X75739Y-27168D02*
X75739Y-26831D01*
X75739Y-27000D02*
X75148Y-27000D01*
X75232Y-26943D01*
X75289Y-26887D01*
X75317Y-26831D01*
X75345Y-27674D02*
X75739Y-27674D01*
X75120Y-27534D02*
X75542Y-27393D01*
X75542Y-27759D01*
M02*
