G04 (created by PCBNEW (2013-07-07 BZR 4022)-stable) date 25/01/2014 14:10:22*
%MOIN*%
G04 Gerber Fmt 3.4, Leading zero omitted, Abs format*
%FSLAX34Y34*%
G01*
G70*
G90*
G04 APERTURE LIST*
%ADD10C,0.00590551*%
%ADD11R,0.055X0.035*%
%ADD12R,0.0472X0.0472*%
%ADD13R,0.035X0.055*%
%ADD14R,0.06X0.06*%
%ADD15C,0.06*%
%ADD16R,0.0551X0.0236*%
%ADD17R,0.055X0.055*%
%ADD18C,0.055*%
%ADD19C,0.035*%
%ADD20C,0.01*%
%ADD21C,0.00984252*%
G04 APERTURE END LIST*
G54D10*
G54D11*
X57275Y-70525D03*
X57275Y-71275D03*
X56450Y-71250D03*
X56450Y-70500D03*
G54D12*
X58863Y-70550D03*
X58037Y-70550D03*
G54D13*
X58775Y-71300D03*
X58025Y-71300D03*
G54D11*
X59675Y-71325D03*
X59675Y-70575D03*
G54D14*
X53750Y-70675D03*
G54D15*
X53750Y-71675D03*
X53750Y-72675D03*
X53750Y-73675D03*
G54D14*
X61625Y-71850D03*
G54D15*
X61625Y-72850D03*
G54D16*
X58625Y-72150D03*
X56525Y-72150D03*
X58625Y-72650D03*
X58625Y-73150D03*
X58625Y-73650D03*
X56525Y-72650D03*
X56525Y-73150D03*
X56525Y-73650D03*
G54D17*
X60650Y-70675D03*
G54D18*
X61650Y-70675D03*
G54D11*
X60750Y-71925D03*
X60750Y-72675D03*
G54D19*
X59700Y-72825D03*
X60550Y-71300D03*
X54900Y-73675D03*
X55900Y-72650D03*
X55250Y-72100D03*
X55825Y-71300D03*
G54D20*
X56525Y-73150D02*
X55900Y-73150D01*
X55775Y-72250D02*
X55775Y-71700D01*
X55575Y-72450D02*
X55775Y-72250D01*
X55575Y-72825D02*
X55575Y-72450D01*
X55900Y-73150D02*
X55575Y-72825D01*
X53750Y-70675D02*
X53750Y-70825D01*
X56000Y-71700D02*
X56450Y-71250D01*
X54625Y-71700D02*
X55775Y-71700D01*
X55775Y-71700D02*
X56000Y-71700D01*
X53750Y-70825D02*
X54625Y-71700D01*
X57275Y-71275D02*
X56475Y-71275D01*
X56475Y-71275D02*
X56450Y-71250D01*
X58025Y-71300D02*
X57300Y-71300D01*
X57300Y-71300D02*
X57275Y-71275D01*
X59325Y-72600D02*
X59330Y-72600D01*
X58100Y-72850D02*
X58100Y-73875D01*
X58100Y-73875D02*
X58225Y-74000D01*
X58225Y-74000D02*
X59025Y-74000D01*
X59025Y-74000D02*
X59150Y-73875D01*
X59150Y-73875D02*
X59150Y-73200D01*
X59150Y-73200D02*
X59325Y-73025D01*
X59325Y-73025D02*
X59325Y-72600D01*
X58300Y-72650D02*
X58100Y-72850D01*
X58625Y-72650D02*
X58300Y-72650D01*
X60530Y-72455D02*
X60750Y-72675D01*
X59475Y-72455D02*
X60530Y-72455D01*
X59330Y-72600D02*
X59475Y-72455D01*
X60750Y-72675D02*
X61450Y-72675D01*
X61450Y-72675D02*
X61625Y-72850D01*
X61625Y-71850D02*
X61200Y-72275D01*
X58925Y-73150D02*
X59125Y-72950D01*
X59125Y-72950D02*
X59150Y-72400D01*
X58925Y-73150D02*
X58625Y-73150D01*
X59329Y-72275D02*
X59150Y-72400D01*
X61200Y-72275D02*
X59329Y-72275D01*
X61650Y-70675D02*
X61650Y-71825D01*
X61650Y-71825D02*
X61625Y-71850D01*
X53750Y-72675D02*
X55125Y-72675D01*
X56100Y-73650D02*
X56525Y-73650D01*
X55125Y-72675D02*
X56100Y-73650D01*
X56525Y-72150D02*
X56900Y-72150D01*
X54525Y-72900D02*
X53750Y-73675D01*
X55025Y-72900D02*
X54525Y-72900D01*
X56125Y-74000D02*
X55025Y-72900D01*
X56975Y-74000D02*
X56125Y-74000D01*
X57125Y-73850D02*
X56975Y-74000D01*
X57125Y-72375D02*
X57125Y-73850D01*
X56900Y-72150D02*
X57125Y-72375D01*
X59675Y-70575D02*
X60050Y-70575D01*
X60350Y-71300D02*
X60550Y-71300D01*
X60175Y-71125D02*
X60350Y-71300D01*
X60175Y-70700D02*
X60175Y-71125D01*
X60050Y-70575D02*
X60175Y-70700D01*
X56525Y-72650D02*
X55900Y-72650D01*
X53750Y-71675D02*
X53925Y-71675D01*
X53925Y-71675D02*
X54350Y-72100D01*
X54350Y-72100D02*
X55250Y-72100D01*
X56525Y-72650D02*
X56325Y-72650D01*
X55250Y-72250D02*
X55250Y-72100D01*
X56475Y-70500D02*
X56450Y-70500D01*
X56075Y-70900D02*
X56475Y-70500D01*
X56025Y-70900D02*
X56075Y-70900D01*
X56025Y-71100D02*
X56025Y-70900D01*
X55825Y-71300D02*
X56025Y-71100D01*
X56450Y-70500D02*
X57225Y-70500D01*
X57225Y-70500D02*
X57275Y-70550D01*
X57275Y-70550D02*
X57275Y-70525D01*
X57275Y-70525D02*
X57275Y-70550D01*
X57275Y-70550D02*
X58037Y-70550D01*
X58775Y-71300D02*
X58775Y-70638D01*
X58775Y-70638D02*
X58863Y-70550D01*
X58625Y-72150D02*
X59050Y-72150D01*
X59875Y-71325D02*
X59875Y-71325D01*
X59050Y-72150D02*
X59875Y-71325D01*
X59675Y-71350D02*
X59650Y-71350D01*
X60650Y-70675D02*
X60675Y-70675D01*
X61025Y-71650D02*
X60750Y-71925D01*
X61025Y-71025D02*
X61025Y-71650D01*
X60675Y-70675D02*
X61025Y-71025D01*
G54D10*
G36*
X55557Y-72159D02*
X55421Y-72296D01*
X55374Y-72366D01*
X55357Y-72450D01*
X55357Y-72600D01*
X55278Y-72521D01*
X55208Y-72474D01*
X55125Y-72457D01*
X54165Y-72457D01*
X54146Y-72410D01*
X54050Y-72314D01*
X54050Y-71989D01*
X53750Y-71688D01*
X53736Y-71702D01*
X53736Y-71675D01*
X53435Y-71374D01*
X53358Y-71402D01*
X53284Y-71573D01*
X53281Y-71759D01*
X53348Y-71932D01*
X53358Y-71947D01*
X53435Y-71975D01*
X53736Y-71675D01*
X53736Y-71702D01*
X53449Y-71989D01*
X53477Y-72066D01*
X53648Y-72140D01*
X53834Y-72143D01*
X54007Y-72076D01*
X54022Y-72066D01*
X54050Y-71989D01*
X54050Y-72314D01*
X54015Y-72279D01*
X53843Y-72207D01*
X53657Y-72207D01*
X53485Y-72278D01*
X53354Y-72409D01*
X53282Y-72581D01*
X53282Y-72767D01*
X53353Y-72939D01*
X53484Y-73070D01*
X53656Y-73142D01*
X53842Y-73142D01*
X54014Y-73071D01*
X54145Y-72940D01*
X54165Y-72892D01*
X54225Y-72892D01*
X53890Y-73227D01*
X53843Y-73207D01*
X53657Y-73207D01*
X53485Y-73278D01*
X53354Y-73409D01*
X53282Y-73581D01*
X53282Y-73767D01*
X53353Y-73939D01*
X53484Y-74070D01*
X53622Y-74128D01*
X53246Y-74128D01*
X53246Y-70221D01*
X53382Y-70221D01*
X53355Y-70233D01*
X53308Y-70280D01*
X53282Y-70341D01*
X53282Y-70408D01*
X53282Y-71008D01*
X53308Y-71069D01*
X53355Y-71116D01*
X53416Y-71142D01*
X53483Y-71142D01*
X53760Y-71142D01*
X53826Y-71209D01*
X53665Y-71206D01*
X53492Y-71273D01*
X53477Y-71283D01*
X53449Y-71360D01*
X53750Y-71661D01*
X53755Y-71655D01*
X53769Y-71669D01*
X53763Y-71675D01*
X54064Y-71975D01*
X54141Y-71947D01*
X54215Y-71776D01*
X54218Y-71601D01*
X54471Y-71853D01*
X54471Y-71853D01*
X54541Y-71900D01*
X54541Y-71900D01*
X54625Y-71917D01*
X55557Y-71917D01*
X55557Y-72159D01*
X55557Y-72159D01*
G37*
G54D21*
X55557Y-72159D02*
X55421Y-72296D01*
X55374Y-72366D01*
X55357Y-72450D01*
X55357Y-72600D01*
X55278Y-72521D01*
X55208Y-72474D01*
X55125Y-72457D01*
X54165Y-72457D01*
X54146Y-72410D01*
X54050Y-72314D01*
X54050Y-71989D01*
X53750Y-71688D01*
X53736Y-71702D01*
X53736Y-71675D01*
X53435Y-71374D01*
X53358Y-71402D01*
X53284Y-71573D01*
X53281Y-71759D01*
X53348Y-71932D01*
X53358Y-71947D01*
X53435Y-71975D01*
X53736Y-71675D01*
X53736Y-71702D01*
X53449Y-71989D01*
X53477Y-72066D01*
X53648Y-72140D01*
X53834Y-72143D01*
X54007Y-72076D01*
X54022Y-72066D01*
X54050Y-71989D01*
X54050Y-72314D01*
X54015Y-72279D01*
X53843Y-72207D01*
X53657Y-72207D01*
X53485Y-72278D01*
X53354Y-72409D01*
X53282Y-72581D01*
X53282Y-72767D01*
X53353Y-72939D01*
X53484Y-73070D01*
X53656Y-73142D01*
X53842Y-73142D01*
X54014Y-73071D01*
X54145Y-72940D01*
X54165Y-72892D01*
X54225Y-72892D01*
X53890Y-73227D01*
X53843Y-73207D01*
X53657Y-73207D01*
X53485Y-73278D01*
X53354Y-73409D01*
X53282Y-73581D01*
X53282Y-73767D01*
X53353Y-73939D01*
X53484Y-74070D01*
X53622Y-74128D01*
X53246Y-74128D01*
X53246Y-70221D01*
X53382Y-70221D01*
X53355Y-70233D01*
X53308Y-70280D01*
X53282Y-70341D01*
X53282Y-70408D01*
X53282Y-71008D01*
X53308Y-71069D01*
X53355Y-71116D01*
X53416Y-71142D01*
X53483Y-71142D01*
X53760Y-71142D01*
X53826Y-71209D01*
X53665Y-71206D01*
X53492Y-71273D01*
X53477Y-71283D01*
X53449Y-71360D01*
X53750Y-71661D01*
X53755Y-71655D01*
X53769Y-71669D01*
X53763Y-71675D01*
X54064Y-71975D01*
X54141Y-71947D01*
X54215Y-71776D01*
X54218Y-71601D01*
X54471Y-71853D01*
X54471Y-71853D01*
X54541Y-71900D01*
X54541Y-71900D01*
X54625Y-71917D01*
X55557Y-71917D01*
X55557Y-72159D01*
G54D10*
G36*
X55945Y-74128D02*
X53877Y-74128D01*
X54014Y-74071D01*
X54145Y-73940D01*
X54217Y-73768D01*
X54217Y-73582D01*
X54197Y-73534D01*
X54615Y-73117D01*
X54934Y-73117D01*
X55945Y-74128D01*
X55945Y-74128D01*
G37*
G54D21*
X55945Y-74128D02*
X53877Y-74128D01*
X54014Y-74071D01*
X54145Y-73940D01*
X54217Y-73768D01*
X54217Y-73582D01*
X54197Y-73534D01*
X54615Y-73117D01*
X54934Y-73117D01*
X55945Y-74128D01*
G54D10*
G36*
X57709Y-70929D02*
X57708Y-70930D01*
X57682Y-70991D01*
X57682Y-70996D01*
X57644Y-70958D01*
X57583Y-70932D01*
X57516Y-70932D01*
X57265Y-70932D01*
X56966Y-70932D01*
X56905Y-70958D01*
X56871Y-70991D01*
X56866Y-70980D01*
X56819Y-70933D01*
X56758Y-70907D01*
X56691Y-70907D01*
X56440Y-70907D01*
X56440Y-70800D01*
X56440Y-70509D01*
X56049Y-70509D01*
X56007Y-70551D01*
X56007Y-70708D01*
X56033Y-70769D01*
X56080Y-70816D01*
X56141Y-70842D01*
X56208Y-70842D01*
X56398Y-70842D01*
X56440Y-70800D01*
X56440Y-70907D01*
X56141Y-70907D01*
X56080Y-70933D01*
X56033Y-70980D01*
X56007Y-71041D01*
X56007Y-71108D01*
X56007Y-71385D01*
X55909Y-71482D01*
X55775Y-71482D01*
X54715Y-71482D01*
X54217Y-70984D01*
X54217Y-70941D01*
X54217Y-70341D01*
X54191Y-70280D01*
X54144Y-70233D01*
X54117Y-70221D01*
X54697Y-70221D01*
X54682Y-70237D01*
X54574Y-70398D01*
X54574Y-70399D01*
X54544Y-70470D01*
X54506Y-70661D01*
X54506Y-70700D01*
X54506Y-70738D01*
X54544Y-70929D01*
X54574Y-71000D01*
X54574Y-71001D01*
X54682Y-71162D01*
X54736Y-71217D01*
X54737Y-71217D01*
X54898Y-71325D01*
X54899Y-71325D01*
X54970Y-71355D01*
X55160Y-71392D01*
X55161Y-71393D01*
X55238Y-71393D01*
X55429Y-71355D01*
X55500Y-71325D01*
X55501Y-71325D01*
X55662Y-71217D01*
X55717Y-71163D01*
X55717Y-71162D01*
X55825Y-71001D01*
X55825Y-71000D01*
X55855Y-70929D01*
X55892Y-70738D01*
X55892Y-70738D01*
X55892Y-70738D01*
X55892Y-70738D01*
X55892Y-70700D01*
X55892Y-70661D01*
X55892Y-70661D01*
X55892Y-70661D01*
X55892Y-70661D01*
X55855Y-70470D01*
X55825Y-70399D01*
X55825Y-70398D01*
X55717Y-70237D01*
X55717Y-70236D01*
X55702Y-70221D01*
X56041Y-70221D01*
X56033Y-70230D01*
X56007Y-70291D01*
X56007Y-70448D01*
X56049Y-70490D01*
X56440Y-70490D01*
X56440Y-70482D01*
X56459Y-70482D01*
X56459Y-70490D01*
X56467Y-70490D01*
X56467Y-70509D01*
X56459Y-70509D01*
X56459Y-70800D01*
X56501Y-70842D01*
X56691Y-70842D01*
X56758Y-70842D01*
X56819Y-70816D01*
X56853Y-70783D01*
X56858Y-70794D01*
X56905Y-70841D01*
X56966Y-70867D01*
X57033Y-70867D01*
X57223Y-70867D01*
X57265Y-70825D01*
X57265Y-70534D01*
X57257Y-70534D01*
X57257Y-70515D01*
X57265Y-70515D01*
X57265Y-70507D01*
X57284Y-70507D01*
X57284Y-70515D01*
X57292Y-70515D01*
X57292Y-70534D01*
X57284Y-70534D01*
X57284Y-70825D01*
X57326Y-70867D01*
X57516Y-70867D01*
X57583Y-70867D01*
X57643Y-70842D01*
X57659Y-70880D01*
X57706Y-70927D01*
X57709Y-70929D01*
X57709Y-70929D01*
G37*
G54D21*
X57709Y-70929D02*
X57708Y-70930D01*
X57682Y-70991D01*
X57682Y-70996D01*
X57644Y-70958D01*
X57583Y-70932D01*
X57516Y-70932D01*
X57265Y-70932D01*
X56966Y-70932D01*
X56905Y-70958D01*
X56871Y-70991D01*
X56866Y-70980D01*
X56819Y-70933D01*
X56758Y-70907D01*
X56691Y-70907D01*
X56440Y-70907D01*
X56440Y-70800D01*
X56440Y-70509D01*
X56049Y-70509D01*
X56007Y-70551D01*
X56007Y-70708D01*
X56033Y-70769D01*
X56080Y-70816D01*
X56141Y-70842D01*
X56208Y-70842D01*
X56398Y-70842D01*
X56440Y-70800D01*
X56440Y-70907D01*
X56141Y-70907D01*
X56080Y-70933D01*
X56033Y-70980D01*
X56007Y-71041D01*
X56007Y-71108D01*
X56007Y-71385D01*
X55909Y-71482D01*
X55775Y-71482D01*
X54715Y-71482D01*
X54217Y-70984D01*
X54217Y-70941D01*
X54217Y-70341D01*
X54191Y-70280D01*
X54144Y-70233D01*
X54117Y-70221D01*
X54697Y-70221D01*
X54682Y-70237D01*
X54574Y-70398D01*
X54574Y-70399D01*
X54544Y-70470D01*
X54506Y-70661D01*
X54506Y-70700D01*
X54506Y-70738D01*
X54544Y-70929D01*
X54574Y-71000D01*
X54574Y-71001D01*
X54682Y-71162D01*
X54736Y-71217D01*
X54737Y-71217D01*
X54898Y-71325D01*
X54899Y-71325D01*
X54970Y-71355D01*
X55160Y-71392D01*
X55161Y-71393D01*
X55238Y-71393D01*
X55429Y-71355D01*
X55500Y-71325D01*
X55501Y-71325D01*
X55662Y-71217D01*
X55717Y-71163D01*
X55717Y-71162D01*
X55825Y-71001D01*
X55825Y-71000D01*
X55855Y-70929D01*
X55892Y-70738D01*
X55892Y-70738D01*
X55892Y-70738D01*
X55892Y-70738D01*
X55892Y-70700D01*
X55892Y-70661D01*
X55892Y-70661D01*
X55892Y-70661D01*
X55892Y-70661D01*
X55855Y-70470D01*
X55825Y-70399D01*
X55825Y-70398D01*
X55717Y-70237D01*
X55717Y-70236D01*
X55702Y-70221D01*
X56041Y-70221D01*
X56033Y-70230D01*
X56007Y-70291D01*
X56007Y-70448D01*
X56049Y-70490D01*
X56440Y-70490D01*
X56440Y-70482D01*
X56459Y-70482D01*
X56459Y-70490D01*
X56467Y-70490D01*
X56467Y-70509D01*
X56459Y-70509D01*
X56459Y-70800D01*
X56501Y-70842D01*
X56691Y-70842D01*
X56758Y-70842D01*
X56819Y-70816D01*
X56853Y-70783D01*
X56858Y-70794D01*
X56905Y-70841D01*
X56966Y-70867D01*
X57033Y-70867D01*
X57223Y-70867D01*
X57265Y-70825D01*
X57265Y-70534D01*
X57257Y-70534D01*
X57257Y-70515D01*
X57265Y-70515D01*
X57265Y-70507D01*
X57284Y-70507D01*
X57284Y-70515D01*
X57292Y-70515D01*
X57292Y-70534D01*
X57284Y-70534D01*
X57284Y-70825D01*
X57326Y-70867D01*
X57516Y-70867D01*
X57583Y-70867D01*
X57643Y-70842D01*
X57659Y-70880D01*
X57706Y-70927D01*
X57709Y-70929D01*
G54D10*
G36*
X62028Y-70431D02*
X62025Y-70424D01*
X61900Y-70300D01*
X61738Y-70232D01*
X61562Y-70232D01*
X61399Y-70299D01*
X61275Y-70424D01*
X61207Y-70586D01*
X61207Y-70762D01*
X61274Y-70925D01*
X61399Y-71049D01*
X61432Y-71063D01*
X61432Y-71382D01*
X61291Y-71382D01*
X61242Y-71403D01*
X61242Y-71025D01*
X61242Y-71024D01*
X61225Y-70941D01*
X61225Y-70941D01*
X61178Y-70871D01*
X61178Y-70871D01*
X61092Y-70785D01*
X61092Y-70366D01*
X61066Y-70305D01*
X61019Y-70258D01*
X60958Y-70232D01*
X60891Y-70232D01*
X60341Y-70232D01*
X60280Y-70258D01*
X60233Y-70305D01*
X60207Y-70366D01*
X60207Y-70433D01*
X60207Y-70983D01*
X60233Y-71044D01*
X60280Y-71091D01*
X60341Y-71117D01*
X60408Y-71117D01*
X60807Y-71117D01*
X60807Y-71559D01*
X60785Y-71582D01*
X60441Y-71582D01*
X60380Y-71608D01*
X60333Y-71655D01*
X60307Y-71716D01*
X60307Y-71783D01*
X60307Y-72057D01*
X59449Y-72057D01*
X59839Y-71667D01*
X59983Y-71667D01*
X60044Y-71641D01*
X60091Y-71594D01*
X60117Y-71533D01*
X60117Y-71466D01*
X60117Y-71116D01*
X60117Y-70783D01*
X60117Y-70366D01*
X60091Y-70305D01*
X60044Y-70258D01*
X59983Y-70232D01*
X59916Y-70232D01*
X59726Y-70232D01*
X59684Y-70274D01*
X59684Y-70565D01*
X60075Y-70565D01*
X60117Y-70523D01*
X60117Y-70366D01*
X60117Y-70783D01*
X60117Y-70626D01*
X60075Y-70584D01*
X59684Y-70584D01*
X59684Y-70875D01*
X59726Y-70917D01*
X59916Y-70917D01*
X59983Y-70917D01*
X60044Y-70891D01*
X60091Y-70844D01*
X60117Y-70783D01*
X60117Y-71116D01*
X60091Y-71055D01*
X60044Y-71008D01*
X59983Y-70982D01*
X59916Y-70982D01*
X59366Y-70982D01*
X59305Y-71008D01*
X59258Y-71055D01*
X59232Y-71116D01*
X59232Y-71183D01*
X59232Y-71533D01*
X59258Y-71594D01*
X59278Y-71614D01*
X58998Y-71893D01*
X58995Y-71890D01*
X58933Y-71864D01*
X58867Y-71864D01*
X58316Y-71864D01*
X58254Y-71890D01*
X58207Y-71937D01*
X58182Y-71998D01*
X58182Y-72065D01*
X58182Y-72301D01*
X58207Y-72362D01*
X58244Y-72400D01*
X58207Y-72437D01*
X58197Y-72462D01*
X58197Y-72462D01*
X58146Y-72496D01*
X57946Y-72696D01*
X57899Y-72766D01*
X57882Y-72850D01*
X57882Y-73875D01*
X57899Y-73958D01*
X57946Y-74028D01*
X58045Y-74128D01*
X57154Y-74128D01*
X57278Y-74003D01*
X57325Y-73933D01*
X57325Y-73933D01*
X57342Y-73850D01*
X57342Y-72375D01*
X57325Y-72291D01*
X57325Y-72291D01*
X57278Y-72221D01*
X57053Y-71996D01*
X56983Y-71949D01*
X56944Y-71941D01*
X56942Y-71937D01*
X56895Y-71890D01*
X56833Y-71864D01*
X56767Y-71864D01*
X56216Y-71864D01*
X56154Y-71890D01*
X56107Y-71937D01*
X56082Y-71998D01*
X56082Y-72065D01*
X56082Y-72301D01*
X56107Y-72362D01*
X56144Y-72400D01*
X56107Y-72437D01*
X56082Y-72498D01*
X56082Y-72598D01*
X56124Y-72640D01*
X56515Y-72640D01*
X56515Y-72632D01*
X56534Y-72632D01*
X56534Y-72640D01*
X56542Y-72640D01*
X56542Y-72659D01*
X56534Y-72659D01*
X56534Y-72667D01*
X56515Y-72667D01*
X56515Y-72659D01*
X56124Y-72659D01*
X56082Y-72701D01*
X56082Y-72801D01*
X56107Y-72862D01*
X56144Y-72900D01*
X56112Y-72932D01*
X55990Y-72932D01*
X55792Y-72734D01*
X55792Y-72540D01*
X55928Y-72403D01*
X55975Y-72333D01*
X55975Y-72333D01*
X55992Y-72250D01*
X55992Y-71917D01*
X56000Y-71917D01*
X56083Y-71900D01*
X56083Y-71900D01*
X56153Y-71853D01*
X56414Y-71592D01*
X56758Y-71592D01*
X56819Y-71566D01*
X56853Y-71533D01*
X56858Y-71544D01*
X56905Y-71591D01*
X56966Y-71617D01*
X57033Y-71617D01*
X57583Y-71617D01*
X57644Y-71591D01*
X57682Y-71554D01*
X57682Y-71608D01*
X57708Y-71669D01*
X57755Y-71716D01*
X57816Y-71742D01*
X57883Y-71742D01*
X58233Y-71742D01*
X58294Y-71716D01*
X58341Y-71669D01*
X58367Y-71608D01*
X58367Y-71541D01*
X58367Y-70991D01*
X58344Y-70937D01*
X58367Y-70927D01*
X58414Y-70880D01*
X58440Y-70819D01*
X58440Y-70752D01*
X58440Y-70601D01*
X58398Y-70559D01*
X58046Y-70559D01*
X58046Y-70567D01*
X58027Y-70567D01*
X58027Y-70559D01*
X58019Y-70559D01*
X58019Y-70540D01*
X58027Y-70540D01*
X58027Y-70532D01*
X58046Y-70532D01*
X58046Y-70540D01*
X58398Y-70540D01*
X58440Y-70498D01*
X58440Y-70347D01*
X58440Y-70280D01*
X58415Y-70221D01*
X58484Y-70221D01*
X58459Y-70280D01*
X58459Y-70347D01*
X58459Y-70819D01*
X58485Y-70880D01*
X58496Y-70892D01*
X58458Y-70930D01*
X58432Y-70991D01*
X58432Y-71058D01*
X58432Y-71608D01*
X58458Y-71669D01*
X58505Y-71716D01*
X58566Y-71742D01*
X58633Y-71742D01*
X58983Y-71742D01*
X59044Y-71716D01*
X59091Y-71669D01*
X59117Y-71608D01*
X59117Y-71541D01*
X59117Y-70991D01*
X59101Y-70953D01*
X59132Y-70953D01*
X59193Y-70927D01*
X59240Y-70880D01*
X59256Y-70841D01*
X59258Y-70844D01*
X59305Y-70891D01*
X59366Y-70917D01*
X59433Y-70917D01*
X59623Y-70917D01*
X59665Y-70875D01*
X59665Y-70584D01*
X59657Y-70584D01*
X59657Y-70565D01*
X59665Y-70565D01*
X59665Y-70274D01*
X59623Y-70232D01*
X59433Y-70232D01*
X59366Y-70232D01*
X59305Y-70258D01*
X59266Y-70297D01*
X59266Y-70280D01*
X59241Y-70221D01*
X62028Y-70221D01*
X62028Y-70431D01*
X62028Y-70431D01*
G37*
G54D21*
X62028Y-70431D02*
X62025Y-70424D01*
X61900Y-70300D01*
X61738Y-70232D01*
X61562Y-70232D01*
X61399Y-70299D01*
X61275Y-70424D01*
X61207Y-70586D01*
X61207Y-70762D01*
X61274Y-70925D01*
X61399Y-71049D01*
X61432Y-71063D01*
X61432Y-71382D01*
X61291Y-71382D01*
X61242Y-71403D01*
X61242Y-71025D01*
X61242Y-71024D01*
X61225Y-70941D01*
X61225Y-70941D01*
X61178Y-70871D01*
X61178Y-70871D01*
X61092Y-70785D01*
X61092Y-70366D01*
X61066Y-70305D01*
X61019Y-70258D01*
X60958Y-70232D01*
X60891Y-70232D01*
X60341Y-70232D01*
X60280Y-70258D01*
X60233Y-70305D01*
X60207Y-70366D01*
X60207Y-70433D01*
X60207Y-70983D01*
X60233Y-71044D01*
X60280Y-71091D01*
X60341Y-71117D01*
X60408Y-71117D01*
X60807Y-71117D01*
X60807Y-71559D01*
X60785Y-71582D01*
X60441Y-71582D01*
X60380Y-71608D01*
X60333Y-71655D01*
X60307Y-71716D01*
X60307Y-71783D01*
X60307Y-72057D01*
X59449Y-72057D01*
X59839Y-71667D01*
X59983Y-71667D01*
X60044Y-71641D01*
X60091Y-71594D01*
X60117Y-71533D01*
X60117Y-71466D01*
X60117Y-71116D01*
X60117Y-70783D01*
X60117Y-70366D01*
X60091Y-70305D01*
X60044Y-70258D01*
X59983Y-70232D01*
X59916Y-70232D01*
X59726Y-70232D01*
X59684Y-70274D01*
X59684Y-70565D01*
X60075Y-70565D01*
X60117Y-70523D01*
X60117Y-70366D01*
X60117Y-70783D01*
X60117Y-70626D01*
X60075Y-70584D01*
X59684Y-70584D01*
X59684Y-70875D01*
X59726Y-70917D01*
X59916Y-70917D01*
X59983Y-70917D01*
X60044Y-70891D01*
X60091Y-70844D01*
X60117Y-70783D01*
X60117Y-71116D01*
X60091Y-71055D01*
X60044Y-71008D01*
X59983Y-70982D01*
X59916Y-70982D01*
X59366Y-70982D01*
X59305Y-71008D01*
X59258Y-71055D01*
X59232Y-71116D01*
X59232Y-71183D01*
X59232Y-71533D01*
X59258Y-71594D01*
X59278Y-71614D01*
X58998Y-71893D01*
X58995Y-71890D01*
X58933Y-71864D01*
X58867Y-71864D01*
X58316Y-71864D01*
X58254Y-71890D01*
X58207Y-71937D01*
X58182Y-71998D01*
X58182Y-72065D01*
X58182Y-72301D01*
X58207Y-72362D01*
X58244Y-72400D01*
X58207Y-72437D01*
X58197Y-72462D01*
X58197Y-72462D01*
X58146Y-72496D01*
X57946Y-72696D01*
X57899Y-72766D01*
X57882Y-72850D01*
X57882Y-73875D01*
X57899Y-73958D01*
X57946Y-74028D01*
X58045Y-74128D01*
X57154Y-74128D01*
X57278Y-74003D01*
X57325Y-73933D01*
X57325Y-73933D01*
X57342Y-73850D01*
X57342Y-72375D01*
X57325Y-72291D01*
X57325Y-72291D01*
X57278Y-72221D01*
X57053Y-71996D01*
X56983Y-71949D01*
X56944Y-71941D01*
X56942Y-71937D01*
X56895Y-71890D01*
X56833Y-71864D01*
X56767Y-71864D01*
X56216Y-71864D01*
X56154Y-71890D01*
X56107Y-71937D01*
X56082Y-71998D01*
X56082Y-72065D01*
X56082Y-72301D01*
X56107Y-72362D01*
X56144Y-72400D01*
X56107Y-72437D01*
X56082Y-72498D01*
X56082Y-72598D01*
X56124Y-72640D01*
X56515Y-72640D01*
X56515Y-72632D01*
X56534Y-72632D01*
X56534Y-72640D01*
X56542Y-72640D01*
X56542Y-72659D01*
X56534Y-72659D01*
X56534Y-72667D01*
X56515Y-72667D01*
X56515Y-72659D01*
X56124Y-72659D01*
X56082Y-72701D01*
X56082Y-72801D01*
X56107Y-72862D01*
X56144Y-72900D01*
X56112Y-72932D01*
X55990Y-72932D01*
X55792Y-72734D01*
X55792Y-72540D01*
X55928Y-72403D01*
X55975Y-72333D01*
X55975Y-72333D01*
X55992Y-72250D01*
X55992Y-71917D01*
X56000Y-71917D01*
X56083Y-71900D01*
X56083Y-71900D01*
X56153Y-71853D01*
X56414Y-71592D01*
X56758Y-71592D01*
X56819Y-71566D01*
X56853Y-71533D01*
X56858Y-71544D01*
X56905Y-71591D01*
X56966Y-71617D01*
X57033Y-71617D01*
X57583Y-71617D01*
X57644Y-71591D01*
X57682Y-71554D01*
X57682Y-71608D01*
X57708Y-71669D01*
X57755Y-71716D01*
X57816Y-71742D01*
X57883Y-71742D01*
X58233Y-71742D01*
X58294Y-71716D01*
X58341Y-71669D01*
X58367Y-71608D01*
X58367Y-71541D01*
X58367Y-70991D01*
X58344Y-70937D01*
X58367Y-70927D01*
X58414Y-70880D01*
X58440Y-70819D01*
X58440Y-70752D01*
X58440Y-70601D01*
X58398Y-70559D01*
X58046Y-70559D01*
X58046Y-70567D01*
X58027Y-70567D01*
X58027Y-70559D01*
X58019Y-70559D01*
X58019Y-70540D01*
X58027Y-70540D01*
X58027Y-70532D01*
X58046Y-70532D01*
X58046Y-70540D01*
X58398Y-70540D01*
X58440Y-70498D01*
X58440Y-70347D01*
X58440Y-70280D01*
X58415Y-70221D01*
X58484Y-70221D01*
X58459Y-70280D01*
X58459Y-70347D01*
X58459Y-70819D01*
X58485Y-70880D01*
X58496Y-70892D01*
X58458Y-70930D01*
X58432Y-70991D01*
X58432Y-71058D01*
X58432Y-71608D01*
X58458Y-71669D01*
X58505Y-71716D01*
X58566Y-71742D01*
X58633Y-71742D01*
X58983Y-71742D01*
X59044Y-71716D01*
X59091Y-71669D01*
X59117Y-71608D01*
X59117Y-71541D01*
X59117Y-70991D01*
X59101Y-70953D01*
X59132Y-70953D01*
X59193Y-70927D01*
X59240Y-70880D01*
X59256Y-70841D01*
X59258Y-70844D01*
X59305Y-70891D01*
X59366Y-70917D01*
X59433Y-70917D01*
X59623Y-70917D01*
X59665Y-70875D01*
X59665Y-70584D01*
X59657Y-70584D01*
X59657Y-70565D01*
X59665Y-70565D01*
X59665Y-70274D01*
X59623Y-70232D01*
X59433Y-70232D01*
X59366Y-70232D01*
X59305Y-70258D01*
X59266Y-70297D01*
X59266Y-70280D01*
X59241Y-70221D01*
X62028Y-70221D01*
X62028Y-70431D01*
G54D10*
G36*
X62028Y-74128D02*
X60627Y-74128D01*
X60642Y-74113D01*
X60642Y-74112D01*
X60750Y-73951D01*
X60750Y-73950D01*
X60780Y-73879D01*
X60817Y-73688D01*
X60817Y-73688D01*
X60817Y-73688D01*
X60817Y-73688D01*
X60817Y-73650D01*
X60817Y-73611D01*
X60817Y-73611D01*
X60817Y-73611D01*
X60817Y-73611D01*
X60780Y-73420D01*
X60750Y-73349D01*
X60750Y-73348D01*
X60642Y-73187D01*
X60642Y-73186D01*
X60587Y-73132D01*
X60426Y-73024D01*
X60425Y-73024D01*
X60354Y-72994D01*
X60163Y-72956D01*
X60086Y-72956D01*
X60085Y-72957D01*
X59895Y-72994D01*
X59824Y-73024D01*
X59823Y-73024D01*
X59662Y-73132D01*
X59661Y-73132D01*
X59607Y-73187D01*
X59499Y-73348D01*
X59499Y-73349D01*
X59469Y-73420D01*
X59431Y-73611D01*
X59431Y-73650D01*
X59431Y-73688D01*
X59469Y-73879D01*
X59499Y-73950D01*
X59499Y-73951D01*
X59607Y-74112D01*
X59622Y-74128D01*
X59204Y-74128D01*
X59303Y-74028D01*
X59303Y-74028D01*
X59303Y-74028D01*
X59350Y-73958D01*
X59350Y-73958D01*
X59364Y-73891D01*
X59367Y-73875D01*
X59367Y-73875D01*
X59367Y-73875D01*
X59367Y-73290D01*
X59478Y-73178D01*
X59478Y-73178D01*
X59478Y-73178D01*
X59525Y-73108D01*
X59525Y-73108D01*
X59542Y-73025D01*
X59542Y-73025D01*
X59542Y-72695D01*
X59565Y-72672D01*
X60307Y-72672D01*
X60307Y-72883D01*
X60333Y-72944D01*
X60380Y-72991D01*
X60441Y-73017D01*
X60508Y-73017D01*
X61058Y-73017D01*
X61119Y-72991D01*
X61160Y-72950D01*
X61228Y-73114D01*
X61359Y-73245D01*
X61531Y-73317D01*
X61717Y-73317D01*
X61889Y-73246D01*
X62020Y-73115D01*
X62028Y-73097D01*
X62028Y-74128D01*
X62028Y-74128D01*
G37*
G54D21*
X62028Y-74128D02*
X60627Y-74128D01*
X60642Y-74113D01*
X60642Y-74112D01*
X60750Y-73951D01*
X60750Y-73950D01*
X60780Y-73879D01*
X60817Y-73688D01*
X60817Y-73688D01*
X60817Y-73688D01*
X60817Y-73688D01*
X60817Y-73650D01*
X60817Y-73611D01*
X60817Y-73611D01*
X60817Y-73611D01*
X60817Y-73611D01*
X60780Y-73420D01*
X60750Y-73349D01*
X60750Y-73348D01*
X60642Y-73187D01*
X60642Y-73186D01*
X60587Y-73132D01*
X60426Y-73024D01*
X60425Y-73024D01*
X60354Y-72994D01*
X60163Y-72956D01*
X60086Y-72956D01*
X60085Y-72957D01*
X59895Y-72994D01*
X59824Y-73024D01*
X59823Y-73024D01*
X59662Y-73132D01*
X59661Y-73132D01*
X59607Y-73187D01*
X59499Y-73348D01*
X59499Y-73349D01*
X59469Y-73420D01*
X59431Y-73611D01*
X59431Y-73650D01*
X59431Y-73688D01*
X59469Y-73879D01*
X59499Y-73950D01*
X59499Y-73951D01*
X59607Y-74112D01*
X59622Y-74128D01*
X59204Y-74128D01*
X59303Y-74028D01*
X59303Y-74028D01*
X59303Y-74028D01*
X59350Y-73958D01*
X59350Y-73958D01*
X59364Y-73891D01*
X59367Y-73875D01*
X59367Y-73875D01*
X59367Y-73875D01*
X59367Y-73290D01*
X59478Y-73178D01*
X59478Y-73178D01*
X59478Y-73178D01*
X59525Y-73108D01*
X59525Y-73108D01*
X59542Y-73025D01*
X59542Y-73025D01*
X59542Y-72695D01*
X59565Y-72672D01*
X60307Y-72672D01*
X60307Y-72883D01*
X60333Y-72944D01*
X60380Y-72991D01*
X60441Y-73017D01*
X60508Y-73017D01*
X61058Y-73017D01*
X61119Y-72991D01*
X61160Y-72950D01*
X61228Y-73114D01*
X61359Y-73245D01*
X61531Y-73317D01*
X61717Y-73317D01*
X61889Y-73246D01*
X62020Y-73115D01*
X62028Y-73097D01*
X62028Y-74128D01*
M02*
