G04 (created by PCBNEW (2013-07-07 BZR 4022)-stable) date 25/01/2014 14:10:22*
%MOIN*%
G04 Gerber Fmt 3.4, Leading zero omitted, Abs format*
%FSLAX34Y34*%
G01*
G70*
G90*
G04 APERTURE LIST*
%ADD10C,0.00590551*%
%ADD11C,0.00295276*%
%ADD12C,0.0001*%
G04 APERTURE END LIST*
G54D10*
G54D11*
X58895Y-73870D02*
X58895Y-73713D01*
X58895Y-73758D02*
X58884Y-73735D01*
X58872Y-73724D01*
X58850Y-73713D01*
X58827Y-73713D01*
X58647Y-73713D02*
X58647Y-73870D01*
X58749Y-73713D02*
X58749Y-73836D01*
X58737Y-73859D01*
X58715Y-73870D01*
X58681Y-73870D01*
X58659Y-73859D01*
X58647Y-73848D01*
X58546Y-73859D02*
X58524Y-73870D01*
X58479Y-73870D01*
X58456Y-73859D01*
X58445Y-73836D01*
X58445Y-73825D01*
X58456Y-73803D01*
X58479Y-73791D01*
X58512Y-73791D01*
X58535Y-73780D01*
X58546Y-73758D01*
X58546Y-73746D01*
X58535Y-73724D01*
X58512Y-73713D01*
X58479Y-73713D01*
X58456Y-73724D01*
X58254Y-73859D02*
X58276Y-73870D01*
X58321Y-73870D01*
X58344Y-73859D01*
X58355Y-73836D01*
X58355Y-73746D01*
X58344Y-73724D01*
X58321Y-73713D01*
X58276Y-73713D01*
X58254Y-73724D01*
X58242Y-73746D01*
X58242Y-73769D01*
X58355Y-73791D01*
X58175Y-73713D02*
X58085Y-73713D01*
X58141Y-73870D02*
X58141Y-73668D01*
X58130Y-73645D01*
X58108Y-73634D01*
X58085Y-73634D01*
X58006Y-73870D02*
X58006Y-73713D01*
X58006Y-73634D02*
X58018Y-73645D01*
X58006Y-73656D01*
X57995Y-73645D01*
X58006Y-73634D01*
X58006Y-73656D01*
X57894Y-73848D02*
X57883Y-73859D01*
X57894Y-73870D01*
X57905Y-73859D01*
X57894Y-73848D01*
X57894Y-73870D01*
X57680Y-73859D02*
X57703Y-73870D01*
X57748Y-73870D01*
X57770Y-73859D01*
X57781Y-73848D01*
X57793Y-73825D01*
X57793Y-73758D01*
X57781Y-73735D01*
X57770Y-73724D01*
X57748Y-73713D01*
X57703Y-73713D01*
X57680Y-73724D01*
X57545Y-73870D02*
X57568Y-73859D01*
X57579Y-73848D01*
X57590Y-73825D01*
X57590Y-73758D01*
X57579Y-73735D01*
X57568Y-73724D01*
X57545Y-73713D01*
X57511Y-73713D01*
X57489Y-73724D01*
X57478Y-73735D01*
X57466Y-73758D01*
X57466Y-73825D01*
X57478Y-73848D01*
X57489Y-73859D01*
X57511Y-73870D01*
X57545Y-73870D01*
X57365Y-73870D02*
X57365Y-73713D01*
X57365Y-73735D02*
X57354Y-73724D01*
X57331Y-73713D01*
X57298Y-73713D01*
X57275Y-73724D01*
X57264Y-73746D01*
X57264Y-73870D01*
X57264Y-73746D02*
X57253Y-73724D01*
X57230Y-73713D01*
X57196Y-73713D01*
X57174Y-73724D01*
X57163Y-73746D01*
X57163Y-73870D01*
X56735Y-73848D02*
X56746Y-73859D01*
X56780Y-73870D01*
X56803Y-73870D01*
X56836Y-73859D01*
X56859Y-73836D01*
X56870Y-73814D01*
X56881Y-73769D01*
X56881Y-73735D01*
X56870Y-73690D01*
X56859Y-73668D01*
X56836Y-73645D01*
X56803Y-73634D01*
X56780Y-73634D01*
X56746Y-73645D01*
X56735Y-73656D01*
X56645Y-73803D02*
X56533Y-73803D01*
X56668Y-73870D02*
X56589Y-73634D01*
X56510Y-73870D01*
X56431Y-73870D02*
X56431Y-73634D01*
X56296Y-73870D01*
X56296Y-73634D01*
X55959Y-73634D02*
X55937Y-73634D01*
X55914Y-73645D01*
X55903Y-73656D01*
X55892Y-73679D01*
X55880Y-73724D01*
X55880Y-73780D01*
X55892Y-73825D01*
X55903Y-73848D01*
X55914Y-73859D01*
X55937Y-73870D01*
X55959Y-73870D01*
X55982Y-73859D01*
X55993Y-73848D01*
X56004Y-73825D01*
X56015Y-73780D01*
X56015Y-73724D01*
X56004Y-73679D01*
X55993Y-73656D01*
X55982Y-73645D01*
X55959Y-73634D01*
X55779Y-73848D02*
X55768Y-73859D01*
X55779Y-73870D01*
X55790Y-73859D01*
X55779Y-73848D01*
X55779Y-73870D01*
X55543Y-73870D02*
X55678Y-73870D01*
X55610Y-73870D02*
X55610Y-73634D01*
X55633Y-73668D01*
X55655Y-73690D01*
X55678Y-73701D01*
G54D12*
G36*
X58717Y-72233D02*
X58715Y-72400D01*
X58709Y-72519D01*
X58694Y-72608D01*
X58669Y-72685D01*
X58629Y-72770D01*
X58624Y-72780D01*
X58550Y-72896D01*
X58550Y-72717D01*
X58501Y-72685D01*
X58486Y-72683D01*
X58458Y-72650D01*
X58424Y-72552D01*
X58385Y-72388D01*
X58369Y-72308D01*
X58338Y-72153D01*
X58311Y-72018D01*
X58290Y-71919D01*
X58279Y-71875D01*
X58285Y-71826D01*
X58314Y-71817D01*
X58360Y-71791D01*
X58367Y-71767D01*
X58356Y-71744D01*
X58318Y-71730D01*
X58242Y-71721D01*
X58118Y-71717D01*
X57989Y-71717D01*
X57611Y-71717D01*
X57626Y-71817D01*
X57649Y-71887D01*
X57685Y-71916D01*
X57686Y-71917D01*
X57716Y-71893D01*
X57712Y-71866D01*
X57712Y-71838D01*
X57750Y-71823D01*
X57836Y-71817D01*
X57891Y-71817D01*
X58089Y-71817D01*
X58122Y-72000D01*
X58155Y-72183D01*
X58027Y-72183D01*
X57946Y-72175D01*
X57902Y-72156D01*
X57900Y-72150D01*
X57873Y-72120D01*
X57854Y-72117D01*
X57825Y-72135D01*
X57826Y-72200D01*
X57830Y-72222D01*
X57855Y-72290D01*
X57889Y-72338D01*
X57920Y-72352D01*
X57933Y-72320D01*
X57933Y-72319D01*
X57963Y-72296D01*
X58036Y-72284D01*
X58064Y-72283D01*
X58195Y-72283D01*
X58218Y-72468D01*
X58228Y-72572D01*
X58228Y-72648D01*
X58223Y-72671D01*
X58175Y-72683D01*
X58093Y-72677D01*
X57999Y-72659D01*
X57917Y-72634D01*
X57870Y-72606D01*
X57867Y-72597D01*
X57840Y-72555D01*
X57817Y-72550D01*
X57777Y-72580D01*
X57767Y-72650D01*
X57767Y-72750D01*
X58168Y-72750D01*
X58353Y-72747D01*
X58479Y-72740D01*
X58543Y-72727D01*
X58550Y-72717D01*
X58550Y-72896D01*
X58454Y-73048D01*
X58249Y-73260D01*
X58010Y-73415D01*
X57802Y-73496D01*
X57633Y-73529D01*
X57633Y-72717D01*
X57606Y-72687D01*
X57583Y-72683D01*
X57539Y-72677D01*
X57533Y-72671D01*
X57527Y-72636D01*
X57510Y-72548D01*
X57484Y-72420D01*
X57453Y-72266D01*
X57450Y-72250D01*
X57414Y-72073D01*
X57389Y-71952D01*
X57376Y-71876D01*
X57373Y-71835D01*
X57379Y-71818D01*
X57394Y-71815D01*
X57417Y-71817D01*
X57461Y-71790D01*
X57467Y-71767D01*
X57456Y-71744D01*
X57418Y-71730D01*
X57342Y-71721D01*
X57218Y-71717D01*
X57089Y-71717D01*
X56711Y-71717D01*
X56726Y-71817D01*
X56749Y-71887D01*
X56785Y-71916D01*
X56786Y-71917D01*
X56816Y-71893D01*
X56812Y-71867D01*
X56813Y-71837D01*
X56851Y-71822D01*
X56940Y-71817D01*
X56978Y-71817D01*
X57082Y-71821D01*
X57156Y-71833D01*
X57179Y-71843D01*
X57193Y-71890D01*
X57209Y-71978D01*
X57219Y-72043D01*
X57242Y-72217D01*
X57127Y-72217D01*
X57038Y-72206D01*
X56976Y-72179D01*
X56974Y-72177D01*
X56930Y-72150D01*
X56915Y-72183D01*
X56923Y-72258D01*
X56950Y-72317D01*
X56989Y-72350D01*
X57023Y-72348D01*
X57033Y-72317D01*
X57061Y-72292D01*
X57126Y-72283D01*
X57201Y-72290D01*
X57261Y-72311D01*
X57277Y-72329D01*
X57292Y-72388D01*
X57310Y-72484D01*
X57318Y-72529D01*
X57328Y-72624D01*
X57321Y-72670D01*
X57291Y-72683D01*
X57287Y-72683D01*
X57240Y-72700D01*
X57233Y-72717D01*
X57264Y-72734D01*
X57343Y-72746D01*
X57433Y-72750D01*
X57540Y-72745D01*
X57612Y-72732D01*
X57633Y-72717D01*
X57633Y-73529D01*
X57625Y-73531D01*
X57420Y-73545D01*
X57215Y-73538D01*
X57039Y-73510D01*
X57009Y-73501D01*
X56774Y-73397D01*
X56552Y-73243D01*
X56362Y-73052D01*
X56219Y-72839D01*
X56207Y-72814D01*
X56131Y-72608D01*
X56085Y-72377D01*
X56075Y-72155D01*
X56080Y-72094D01*
X56101Y-71960D01*
X56128Y-71852D01*
X56157Y-71782D01*
X56185Y-71763D01*
X56193Y-71771D01*
X56244Y-71813D01*
X56264Y-71822D01*
X56294Y-71863D01*
X56330Y-71969D01*
X56370Y-72135D01*
X56387Y-72218D01*
X56423Y-72401D01*
X56446Y-72528D01*
X56458Y-72610D01*
X56459Y-72656D01*
X56449Y-72677D01*
X56430Y-72683D01*
X56417Y-72683D01*
X56372Y-72701D01*
X56367Y-72717D01*
X56397Y-72734D01*
X56476Y-72746D01*
X56567Y-72750D01*
X56680Y-72744D01*
X56750Y-72728D01*
X56769Y-72706D01*
X56730Y-72682D01*
X56706Y-72675D01*
X56675Y-72653D01*
X56648Y-72599D01*
X56621Y-72501D01*
X56591Y-72349D01*
X56588Y-72330D01*
X56561Y-72178D01*
X56536Y-72043D01*
X56517Y-71942D01*
X56511Y-71908D01*
X56506Y-71840D01*
X56537Y-71817D01*
X56545Y-71816D01*
X56582Y-71796D01*
X56579Y-71766D01*
X56545Y-71736D01*
X56468Y-71720D01*
X56360Y-71716D01*
X56161Y-71717D01*
X56236Y-71592D01*
X56385Y-71391D01*
X56576Y-71208D01*
X56787Y-71064D01*
X56833Y-71040D01*
X56933Y-70992D01*
X57016Y-70962D01*
X57102Y-70944D01*
X57209Y-70936D01*
X57358Y-70934D01*
X57416Y-70934D01*
X57583Y-70936D01*
X57703Y-70942D01*
X57794Y-70957D01*
X57875Y-70984D01*
X57966Y-71025D01*
X57981Y-71032D01*
X58191Y-71165D01*
X58386Y-71343D01*
X58548Y-71546D01*
X58621Y-71672D01*
X58664Y-71765D01*
X58692Y-71846D01*
X58707Y-71935D01*
X58715Y-72051D01*
X58716Y-72213D01*
X58717Y-72233D01*
X58717Y-72233D01*
X58717Y-72233D01*
G37*
M02*
