G04 (created by PCBNEW (2013-07-07 BZR 4022)-stable) date 25/01/2014 14:10:22*
%MOIN*%
G04 Gerber Fmt 3.4, Leading zero omitted, Abs format*
%FSLAX34Y34*%
G01*
G70*
G90*
G04 APERTURE LIST*
%ADD10C,0.00590551*%
%ADD11R,0.06X0.06*%
%ADD12C,0.06*%
%ADD13R,0.055X0.055*%
%ADD14C,0.055*%
%ADD15C,0.035*%
%ADD16C,0.01*%
%ADD17C,0.00984252*%
G04 APERTURE END LIST*
G54D10*
G54D11*
X53750Y-70675D03*
G54D12*
X53750Y-71675D03*
X53750Y-72675D03*
X53750Y-73675D03*
G54D11*
X61625Y-71850D03*
G54D12*
X61625Y-72850D03*
G54D13*
X60650Y-70675D03*
G54D14*
X61650Y-70675D03*
G54D15*
X59700Y-72825D03*
X60550Y-71300D03*
X54900Y-73675D03*
X55900Y-72650D03*
X55250Y-72100D03*
X55825Y-71300D03*
G54D16*
X59700Y-72150D02*
X59700Y-72825D01*
X60550Y-71300D02*
X59700Y-72150D01*
X55250Y-72100D02*
X55250Y-73325D01*
X55250Y-73325D02*
X54900Y-73675D01*
X55350Y-72100D02*
X55250Y-72100D01*
X55900Y-72650D02*
X55350Y-72100D01*
X55250Y-72100D02*
X55925Y-71400D01*
X55925Y-71400D02*
X55825Y-71300D01*
G54D10*
G36*
X62028Y-74128D02*
X61092Y-74128D01*
X61092Y-70916D01*
X61092Y-70366D01*
X61066Y-70305D01*
X61019Y-70258D01*
X60958Y-70232D01*
X60891Y-70232D01*
X60341Y-70232D01*
X60280Y-70258D01*
X60233Y-70305D01*
X60207Y-70366D01*
X60207Y-70433D01*
X60207Y-70983D01*
X60233Y-71044D01*
X60280Y-71091D01*
X60341Y-71117D01*
X60408Y-71117D01*
X60958Y-71117D01*
X61019Y-71091D01*
X61066Y-71044D01*
X61092Y-70983D01*
X61092Y-70916D01*
X61092Y-74128D01*
X60627Y-74128D01*
X60642Y-74113D01*
X60642Y-74112D01*
X60750Y-73951D01*
X60750Y-73950D01*
X60780Y-73879D01*
X60817Y-73688D01*
X60817Y-73688D01*
X60817Y-73688D01*
X60817Y-73688D01*
X60817Y-73650D01*
X60817Y-73611D01*
X60817Y-73611D01*
X60817Y-73611D01*
X60817Y-73611D01*
X60780Y-73420D01*
X60750Y-73349D01*
X60750Y-73348D01*
X60642Y-73187D01*
X60642Y-73186D01*
X60587Y-73132D01*
X60426Y-73024D01*
X60425Y-73024D01*
X60354Y-72994D01*
X60163Y-72956D01*
X60086Y-72956D01*
X60085Y-72957D01*
X59895Y-72994D01*
X59824Y-73024D01*
X59823Y-73024D01*
X59662Y-73132D01*
X59661Y-73132D01*
X59607Y-73187D01*
X59499Y-73348D01*
X59499Y-73349D01*
X59469Y-73420D01*
X59431Y-73611D01*
X59431Y-73650D01*
X59431Y-73688D01*
X59469Y-73879D01*
X59499Y-73950D01*
X59499Y-73951D01*
X59607Y-74112D01*
X59622Y-74128D01*
X54218Y-74128D01*
X54218Y-71590D01*
X54151Y-71417D01*
X54141Y-71402D01*
X54064Y-71374D01*
X54050Y-71388D01*
X54050Y-71360D01*
X54022Y-71283D01*
X53851Y-71209D01*
X53665Y-71206D01*
X53492Y-71273D01*
X53477Y-71283D01*
X53449Y-71360D01*
X53750Y-71661D01*
X54050Y-71360D01*
X54050Y-71388D01*
X53763Y-71675D01*
X54064Y-71975D01*
X54141Y-71947D01*
X54215Y-71776D01*
X54218Y-71590D01*
X54218Y-74128D01*
X53877Y-74128D01*
X54014Y-74071D01*
X54145Y-73940D01*
X54217Y-73768D01*
X54217Y-73582D01*
X54217Y-72582D01*
X54146Y-72410D01*
X54050Y-72314D01*
X54050Y-71989D01*
X53750Y-71688D01*
X53736Y-71702D01*
X53736Y-71675D01*
X53435Y-71374D01*
X53358Y-71402D01*
X53284Y-71573D01*
X53281Y-71759D01*
X53348Y-71932D01*
X53358Y-71947D01*
X53435Y-71975D01*
X53736Y-71675D01*
X53736Y-71702D01*
X53449Y-71989D01*
X53477Y-72066D01*
X53648Y-72140D01*
X53834Y-72143D01*
X54007Y-72076D01*
X54022Y-72066D01*
X54050Y-71989D01*
X54050Y-72314D01*
X54015Y-72279D01*
X53843Y-72207D01*
X53657Y-72207D01*
X53485Y-72278D01*
X53354Y-72409D01*
X53282Y-72581D01*
X53282Y-72767D01*
X53353Y-72939D01*
X53484Y-73070D01*
X53656Y-73142D01*
X53842Y-73142D01*
X54014Y-73071D01*
X54145Y-72940D01*
X54217Y-72768D01*
X54217Y-72582D01*
X54217Y-73582D01*
X54146Y-73410D01*
X54015Y-73279D01*
X53843Y-73207D01*
X53657Y-73207D01*
X53485Y-73278D01*
X53354Y-73409D01*
X53282Y-73581D01*
X53282Y-73767D01*
X53353Y-73939D01*
X53484Y-74070D01*
X53622Y-74128D01*
X53246Y-74128D01*
X53246Y-70221D01*
X53382Y-70221D01*
X53355Y-70233D01*
X53308Y-70280D01*
X53282Y-70341D01*
X53282Y-70408D01*
X53282Y-71008D01*
X53308Y-71069D01*
X53355Y-71116D01*
X53416Y-71142D01*
X53483Y-71142D01*
X54083Y-71142D01*
X54144Y-71116D01*
X54191Y-71069D01*
X54217Y-71008D01*
X54217Y-70941D01*
X54217Y-70341D01*
X54191Y-70280D01*
X54144Y-70233D01*
X54117Y-70221D01*
X54697Y-70221D01*
X54682Y-70237D01*
X54574Y-70398D01*
X54574Y-70399D01*
X54544Y-70470D01*
X54506Y-70661D01*
X54506Y-70700D01*
X54506Y-70738D01*
X54544Y-70929D01*
X54574Y-71000D01*
X54574Y-71001D01*
X54682Y-71162D01*
X54736Y-71217D01*
X54737Y-71217D01*
X54898Y-71325D01*
X54899Y-71325D01*
X54970Y-71355D01*
X55160Y-71392D01*
X55161Y-71393D01*
X55238Y-71393D01*
X55429Y-71355D01*
X55500Y-71325D01*
X55501Y-71325D01*
X55662Y-71217D01*
X55717Y-71163D01*
X55717Y-71162D01*
X55825Y-71001D01*
X55825Y-71000D01*
X55855Y-70929D01*
X55892Y-70738D01*
X55892Y-70738D01*
X55892Y-70738D01*
X55892Y-70738D01*
X55892Y-70700D01*
X55892Y-70661D01*
X55892Y-70661D01*
X55892Y-70661D01*
X55892Y-70661D01*
X55855Y-70470D01*
X55825Y-70399D01*
X55825Y-70398D01*
X55717Y-70237D01*
X55717Y-70236D01*
X55702Y-70221D01*
X62028Y-70221D01*
X62028Y-70431D01*
X62025Y-70424D01*
X61900Y-70300D01*
X61738Y-70232D01*
X61562Y-70232D01*
X61399Y-70299D01*
X61275Y-70424D01*
X61207Y-70586D01*
X61207Y-70762D01*
X61274Y-70925D01*
X61399Y-71049D01*
X61561Y-71117D01*
X61737Y-71117D01*
X61900Y-71050D01*
X62024Y-70925D01*
X62028Y-70917D01*
X62028Y-71416D01*
X62019Y-71408D01*
X61958Y-71382D01*
X61891Y-71382D01*
X61291Y-71382D01*
X61230Y-71408D01*
X61183Y-71455D01*
X61157Y-71516D01*
X61157Y-71583D01*
X61157Y-72183D01*
X61183Y-72244D01*
X61230Y-72291D01*
X61291Y-72317D01*
X61358Y-72317D01*
X61958Y-72317D01*
X62019Y-72291D01*
X62028Y-72283D01*
X62028Y-72601D01*
X62021Y-72585D01*
X61890Y-72454D01*
X61718Y-72382D01*
X61532Y-72382D01*
X61360Y-72453D01*
X61229Y-72584D01*
X61157Y-72756D01*
X61157Y-72942D01*
X61228Y-73114D01*
X61359Y-73245D01*
X61531Y-73317D01*
X61717Y-73317D01*
X61889Y-73246D01*
X62020Y-73115D01*
X62028Y-73097D01*
X62028Y-74128D01*
X62028Y-74128D01*
G37*
G54D17*
X62028Y-74128D02*
X61092Y-74128D01*
X61092Y-70916D01*
X61092Y-70366D01*
X61066Y-70305D01*
X61019Y-70258D01*
X60958Y-70232D01*
X60891Y-70232D01*
X60341Y-70232D01*
X60280Y-70258D01*
X60233Y-70305D01*
X60207Y-70366D01*
X60207Y-70433D01*
X60207Y-70983D01*
X60233Y-71044D01*
X60280Y-71091D01*
X60341Y-71117D01*
X60408Y-71117D01*
X60958Y-71117D01*
X61019Y-71091D01*
X61066Y-71044D01*
X61092Y-70983D01*
X61092Y-70916D01*
X61092Y-74128D01*
X60627Y-74128D01*
X60642Y-74113D01*
X60642Y-74112D01*
X60750Y-73951D01*
X60750Y-73950D01*
X60780Y-73879D01*
X60817Y-73688D01*
X60817Y-73688D01*
X60817Y-73688D01*
X60817Y-73688D01*
X60817Y-73650D01*
X60817Y-73611D01*
X60817Y-73611D01*
X60817Y-73611D01*
X60817Y-73611D01*
X60780Y-73420D01*
X60750Y-73349D01*
X60750Y-73348D01*
X60642Y-73187D01*
X60642Y-73186D01*
X60587Y-73132D01*
X60426Y-73024D01*
X60425Y-73024D01*
X60354Y-72994D01*
X60163Y-72956D01*
X60086Y-72956D01*
X60085Y-72957D01*
X59895Y-72994D01*
X59824Y-73024D01*
X59823Y-73024D01*
X59662Y-73132D01*
X59661Y-73132D01*
X59607Y-73187D01*
X59499Y-73348D01*
X59499Y-73349D01*
X59469Y-73420D01*
X59431Y-73611D01*
X59431Y-73650D01*
X59431Y-73688D01*
X59469Y-73879D01*
X59499Y-73950D01*
X59499Y-73951D01*
X59607Y-74112D01*
X59622Y-74128D01*
X54218Y-74128D01*
X54218Y-71590D01*
X54151Y-71417D01*
X54141Y-71402D01*
X54064Y-71374D01*
X54050Y-71388D01*
X54050Y-71360D01*
X54022Y-71283D01*
X53851Y-71209D01*
X53665Y-71206D01*
X53492Y-71273D01*
X53477Y-71283D01*
X53449Y-71360D01*
X53750Y-71661D01*
X54050Y-71360D01*
X54050Y-71388D01*
X53763Y-71675D01*
X54064Y-71975D01*
X54141Y-71947D01*
X54215Y-71776D01*
X54218Y-71590D01*
X54218Y-74128D01*
X53877Y-74128D01*
X54014Y-74071D01*
X54145Y-73940D01*
X54217Y-73768D01*
X54217Y-73582D01*
X54217Y-72582D01*
X54146Y-72410D01*
X54050Y-72314D01*
X54050Y-71989D01*
X53750Y-71688D01*
X53736Y-71702D01*
X53736Y-71675D01*
X53435Y-71374D01*
X53358Y-71402D01*
X53284Y-71573D01*
X53281Y-71759D01*
X53348Y-71932D01*
X53358Y-71947D01*
X53435Y-71975D01*
X53736Y-71675D01*
X53736Y-71702D01*
X53449Y-71989D01*
X53477Y-72066D01*
X53648Y-72140D01*
X53834Y-72143D01*
X54007Y-72076D01*
X54022Y-72066D01*
X54050Y-71989D01*
X54050Y-72314D01*
X54015Y-72279D01*
X53843Y-72207D01*
X53657Y-72207D01*
X53485Y-72278D01*
X53354Y-72409D01*
X53282Y-72581D01*
X53282Y-72767D01*
X53353Y-72939D01*
X53484Y-73070D01*
X53656Y-73142D01*
X53842Y-73142D01*
X54014Y-73071D01*
X54145Y-72940D01*
X54217Y-72768D01*
X54217Y-72582D01*
X54217Y-73582D01*
X54146Y-73410D01*
X54015Y-73279D01*
X53843Y-73207D01*
X53657Y-73207D01*
X53485Y-73278D01*
X53354Y-73409D01*
X53282Y-73581D01*
X53282Y-73767D01*
X53353Y-73939D01*
X53484Y-74070D01*
X53622Y-74128D01*
X53246Y-74128D01*
X53246Y-70221D01*
X53382Y-70221D01*
X53355Y-70233D01*
X53308Y-70280D01*
X53282Y-70341D01*
X53282Y-70408D01*
X53282Y-71008D01*
X53308Y-71069D01*
X53355Y-71116D01*
X53416Y-71142D01*
X53483Y-71142D01*
X54083Y-71142D01*
X54144Y-71116D01*
X54191Y-71069D01*
X54217Y-71008D01*
X54217Y-70941D01*
X54217Y-70341D01*
X54191Y-70280D01*
X54144Y-70233D01*
X54117Y-70221D01*
X54697Y-70221D01*
X54682Y-70237D01*
X54574Y-70398D01*
X54574Y-70399D01*
X54544Y-70470D01*
X54506Y-70661D01*
X54506Y-70700D01*
X54506Y-70738D01*
X54544Y-70929D01*
X54574Y-71000D01*
X54574Y-71001D01*
X54682Y-71162D01*
X54736Y-71217D01*
X54737Y-71217D01*
X54898Y-71325D01*
X54899Y-71325D01*
X54970Y-71355D01*
X55160Y-71392D01*
X55161Y-71393D01*
X55238Y-71393D01*
X55429Y-71355D01*
X55500Y-71325D01*
X55501Y-71325D01*
X55662Y-71217D01*
X55717Y-71163D01*
X55717Y-71162D01*
X55825Y-71001D01*
X55825Y-71000D01*
X55855Y-70929D01*
X55892Y-70738D01*
X55892Y-70738D01*
X55892Y-70738D01*
X55892Y-70738D01*
X55892Y-70700D01*
X55892Y-70661D01*
X55892Y-70661D01*
X55892Y-70661D01*
X55892Y-70661D01*
X55855Y-70470D01*
X55825Y-70399D01*
X55825Y-70398D01*
X55717Y-70237D01*
X55717Y-70236D01*
X55702Y-70221D01*
X62028Y-70221D01*
X62028Y-70431D01*
X62025Y-70424D01*
X61900Y-70300D01*
X61738Y-70232D01*
X61562Y-70232D01*
X61399Y-70299D01*
X61275Y-70424D01*
X61207Y-70586D01*
X61207Y-70762D01*
X61274Y-70925D01*
X61399Y-71049D01*
X61561Y-71117D01*
X61737Y-71117D01*
X61900Y-71050D01*
X62024Y-70925D01*
X62028Y-70917D01*
X62028Y-71416D01*
X62019Y-71408D01*
X61958Y-71382D01*
X61891Y-71382D01*
X61291Y-71382D01*
X61230Y-71408D01*
X61183Y-71455D01*
X61157Y-71516D01*
X61157Y-71583D01*
X61157Y-72183D01*
X61183Y-72244D01*
X61230Y-72291D01*
X61291Y-72317D01*
X61358Y-72317D01*
X61958Y-72317D01*
X62019Y-72291D01*
X62028Y-72283D01*
X62028Y-72601D01*
X62021Y-72585D01*
X61890Y-72454D01*
X61718Y-72382D01*
X61532Y-72382D01*
X61360Y-72453D01*
X61229Y-72584D01*
X61157Y-72756D01*
X61157Y-72942D01*
X61228Y-73114D01*
X61359Y-73245D01*
X61531Y-73317D01*
X61717Y-73317D01*
X61889Y-73246D01*
X62020Y-73115D01*
X62028Y-73097D01*
X62028Y-74128D01*
M02*
