%TF.GenerationSoftware,KiCad,Pcbnew,(5.0.2)-1*%
%TF.CreationDate,2019-01-19T15:18:41+08:00*%
%TF.ProjectId,TLF35584 breakout,544c4633-3535-4383-9420-627265616b6f,rev?*%
%TF.SameCoordinates,Original*%
%TF.FileFunction,Legend,Top*%
%TF.FilePolarity,Positive*%
%FSLAX46Y46*%
G04 Gerber Fmt 4.6, Leading zero omitted, Abs format (unit mm)*
G04 Created by KiCad (PCBNEW (5.0.2)-1) date 19/01/2019 15:18:41*
%MOMM*%
%LPD*%
G01*
G04 APERTURE LIST*
%ADD10C,0.150000*%
%ADD11C,0.120000*%
G04 APERTURE END LIST*
D10*
X178000000Y-83733333D02*
X177952380Y-83800000D01*
X177952380Y-83900000D01*
X178000000Y-84000000D01*
X178095238Y-84066666D01*
X178190476Y-84100000D01*
X178380952Y-84133333D01*
X178523809Y-84133333D01*
X178714285Y-84100000D01*
X178809523Y-84066666D01*
X178904761Y-84000000D01*
X178952380Y-83900000D01*
X178952380Y-83833333D01*
X178904761Y-83733333D01*
X178857142Y-83700000D01*
X178523809Y-83700000D01*
X178523809Y-83833333D01*
X178952380Y-83400000D02*
X177952380Y-83400000D01*
X178952380Y-83000000D01*
X177952380Y-83000000D01*
X178952380Y-82666666D02*
X177952380Y-82666666D01*
X177952380Y-82500000D01*
X178000000Y-82400000D01*
X178095238Y-82333333D01*
X178190476Y-82300000D01*
X178380952Y-82266666D01*
X178523809Y-82266666D01*
X178714285Y-82300000D01*
X178809523Y-82333333D01*
X178904761Y-82400000D01*
X178952380Y-82500000D01*
X178952380Y-82666666D01*
X175400000Y-83733333D02*
X175352380Y-83800000D01*
X175352380Y-83900000D01*
X175400000Y-84000000D01*
X175495238Y-84066666D01*
X175590476Y-84100000D01*
X175780952Y-84133333D01*
X175923809Y-84133333D01*
X176114285Y-84100000D01*
X176209523Y-84066666D01*
X176304761Y-84000000D01*
X176352380Y-83900000D01*
X176352380Y-83833333D01*
X176304761Y-83733333D01*
X176257142Y-83700000D01*
X175923809Y-83700000D01*
X175923809Y-83833333D01*
X176352380Y-83400000D02*
X175352380Y-83400000D01*
X176352380Y-83000000D01*
X175352380Y-83000000D01*
X176352380Y-82666666D02*
X175352380Y-82666666D01*
X175352380Y-82500000D01*
X175400000Y-82400000D01*
X175495238Y-82333333D01*
X175590476Y-82300000D01*
X175780952Y-82266666D01*
X175923809Y-82266666D01*
X176114285Y-82300000D01*
X176209523Y-82333333D01*
X176304761Y-82400000D01*
X176352380Y-82500000D01*
X176352380Y-82666666D01*
X181552380Y-83428571D02*
X180552380Y-83428571D01*
X180552380Y-83123809D01*
X180600000Y-83047619D01*
X180647619Y-83009523D01*
X180742857Y-82971428D01*
X180885714Y-82971428D01*
X180980952Y-83009523D01*
X181028571Y-83047619D01*
X181076190Y-83123809D01*
X181076190Y-83428571D01*
X181552380Y-82171428D02*
X181076190Y-82438095D01*
X181552380Y-82628571D02*
X180552380Y-82628571D01*
X180552380Y-82323809D01*
X180600000Y-82247619D01*
X180647619Y-82209523D01*
X180742857Y-82171428D01*
X180885714Y-82171428D01*
X180980952Y-82209523D01*
X181028571Y-82247619D01*
X181076190Y-82323809D01*
X181076190Y-82628571D01*
X180552380Y-81676190D02*
X180552380Y-81523809D01*
X180600000Y-81447619D01*
X180695238Y-81371428D01*
X180885714Y-81333333D01*
X181219047Y-81333333D01*
X181409523Y-81371428D01*
X181504761Y-81447619D01*
X181552380Y-81523809D01*
X181552380Y-81676190D01*
X181504761Y-81752380D01*
X181409523Y-81828571D01*
X181219047Y-81866666D01*
X180885714Y-81866666D01*
X180695238Y-81828571D01*
X180600000Y-81752380D01*
X180552380Y-81676190D01*
X180600000Y-80571428D02*
X180552380Y-80647619D01*
X180552380Y-80761904D01*
X180600000Y-80876190D01*
X180695238Y-80952380D01*
X180790476Y-80990476D01*
X180980952Y-81028571D01*
X181123809Y-81028571D01*
X181314285Y-80990476D01*
X181409523Y-80952380D01*
X181504761Y-80876190D01*
X181552380Y-80761904D01*
X181552380Y-80685714D01*
X181504761Y-80571428D01*
X181457142Y-80533333D01*
X181123809Y-80533333D01*
X181123809Y-80685714D01*
X175952380Y-90657142D02*
X175952380Y-91038095D01*
X174952380Y-91038095D01*
X174952380Y-90238095D02*
X174952380Y-90085714D01*
X175000000Y-90009523D01*
X175095238Y-89933333D01*
X175285714Y-89895238D01*
X175619047Y-89895238D01*
X175809523Y-89933333D01*
X175904761Y-90009523D01*
X175952380Y-90085714D01*
X175952380Y-90238095D01*
X175904761Y-90314285D01*
X175809523Y-90390476D01*
X175619047Y-90428571D01*
X175285714Y-90428571D01*
X175095238Y-90390476D01*
X175000000Y-90314285D01*
X174952380Y-90238095D01*
X174952380Y-89628571D02*
X175952380Y-89438095D01*
X175238095Y-89285714D01*
X175952380Y-89133333D01*
X174952380Y-88942857D01*
X175428571Y-87761904D02*
X175428571Y-88028571D01*
X175952380Y-88028571D02*
X174952380Y-88028571D01*
X174952380Y-87647619D01*
X175952380Y-86885714D02*
X175476190Y-87152380D01*
X175952380Y-87342857D02*
X174952380Y-87342857D01*
X174952380Y-87038095D01*
X175000000Y-86961904D01*
X175047619Y-86923809D01*
X175142857Y-86885714D01*
X175285714Y-86885714D01*
X175380952Y-86923809D01*
X175428571Y-86961904D01*
X175476190Y-87038095D01*
X175476190Y-87342857D01*
X175428571Y-86542857D02*
X175428571Y-86276190D01*
X175952380Y-86161904D02*
X175952380Y-86542857D01*
X174952380Y-86542857D01*
X174952380Y-86161904D01*
X176047619Y-85285714D02*
X176000000Y-85361904D01*
X175904761Y-85438095D01*
X175761904Y-85552380D01*
X175714285Y-85628571D01*
X175714285Y-85704761D01*
X175952380Y-85666666D02*
X175904761Y-85742857D01*
X175809523Y-85819047D01*
X175619047Y-85857142D01*
X175285714Y-85857142D01*
X175095238Y-85819047D01*
X175000000Y-85742857D01*
X174952380Y-85666666D01*
X174952380Y-85514285D01*
X175000000Y-85438095D01*
X175095238Y-85361904D01*
X175285714Y-85323809D01*
X175619047Y-85323809D01*
X175809523Y-85361904D01*
X175904761Y-85438095D01*
X175952380Y-85514285D01*
X175952380Y-85666666D01*
X132490476Y-87400000D02*
X132414285Y-87361904D01*
X132300000Y-87361904D01*
X132185714Y-87400000D01*
X132109523Y-87476190D01*
X132071428Y-87552380D01*
X132033333Y-87704761D01*
X132033333Y-87819047D01*
X132071428Y-87971428D01*
X132109523Y-88047619D01*
X132185714Y-88123809D01*
X132300000Y-88161904D01*
X132376190Y-88161904D01*
X132490476Y-88123809D01*
X132528571Y-88085714D01*
X132528571Y-87819047D01*
X132376190Y-87819047D01*
X132871428Y-88161904D02*
X132871428Y-87361904D01*
X133328571Y-88161904D01*
X133328571Y-87361904D01*
X133709523Y-88161904D02*
X133709523Y-87361904D01*
X133900000Y-87361904D01*
X134014285Y-87400000D01*
X134090476Y-87476190D01*
X134128571Y-87552380D01*
X134166666Y-87704761D01*
X134166666Y-87819047D01*
X134128571Y-87971428D01*
X134090476Y-88047619D01*
X134014285Y-88123809D01*
X133900000Y-88161904D01*
X133709523Y-88161904D01*
X124890476Y-87361904D02*
X124509523Y-87361904D01*
X124471428Y-87742857D01*
X124509523Y-87704761D01*
X124585714Y-87666666D01*
X124776190Y-87666666D01*
X124852380Y-87704761D01*
X124890476Y-87742857D01*
X124928571Y-87819047D01*
X124928571Y-88009523D01*
X124890476Y-88085714D01*
X124852380Y-88123809D01*
X124776190Y-88161904D01*
X124585714Y-88161904D01*
X124509523Y-88123809D01*
X124471428Y-88085714D01*
X125271428Y-87857142D02*
X125880952Y-87857142D01*
X126680952Y-88161904D02*
X126223809Y-88161904D01*
X126452380Y-88161904D02*
X126452380Y-87361904D01*
X126376190Y-87476190D01*
X126300000Y-87552380D01*
X126223809Y-87590476D01*
X127138095Y-87704761D02*
X127061904Y-87666666D01*
X127023809Y-87628571D01*
X126985714Y-87552380D01*
X126985714Y-87514285D01*
X127023809Y-87438095D01*
X127061904Y-87400000D01*
X127138095Y-87361904D01*
X127290476Y-87361904D01*
X127366666Y-87400000D01*
X127404761Y-87438095D01*
X127442857Y-87514285D01*
X127442857Y-87552380D01*
X127404761Y-87628571D01*
X127366666Y-87666666D01*
X127290476Y-87704761D01*
X127138095Y-87704761D01*
X127061904Y-87742857D01*
X127023809Y-87780952D01*
X126985714Y-87857142D01*
X126985714Y-88009523D01*
X127023809Y-88085714D01*
X127061904Y-88123809D01*
X127138095Y-88161904D01*
X127290476Y-88161904D01*
X127366666Y-88123809D01*
X127404761Y-88085714D01*
X127442857Y-88009523D01*
X127442857Y-87857142D01*
X127404761Y-87780952D01*
X127366666Y-87742857D01*
X127290476Y-87704761D01*
X127671428Y-87361904D02*
X127938095Y-88161904D01*
X128204761Y-87361904D01*
X128471428Y-88161904D02*
X128471428Y-87361904D01*
X128661904Y-87361904D01*
X128776190Y-87400000D01*
X128852380Y-87476190D01*
X128890476Y-87552380D01*
X128928571Y-87704761D01*
X128928571Y-87819047D01*
X128890476Y-87971428D01*
X128852380Y-88047619D01*
X128776190Y-88123809D01*
X128661904Y-88161904D01*
X128471428Y-88161904D01*
X129728571Y-88085714D02*
X129690476Y-88123809D01*
X129576190Y-88161904D01*
X129500000Y-88161904D01*
X129385714Y-88123809D01*
X129309523Y-88047619D01*
X129271428Y-87971428D01*
X129233333Y-87819047D01*
X129233333Y-87704761D01*
X129271428Y-87552380D01*
X129309523Y-87476190D01*
X129385714Y-87400000D01*
X129500000Y-87361904D01*
X129576190Y-87361904D01*
X129690476Y-87400000D01*
X129728571Y-87438095D01*
X181223809Y-89252380D02*
X180957142Y-88776190D01*
X180766666Y-89252380D02*
X180766666Y-88252380D01*
X181071428Y-88252380D01*
X181147619Y-88300000D01*
X181185714Y-88347619D01*
X181223809Y-88442857D01*
X181223809Y-88585714D01*
X181185714Y-88680952D01*
X181147619Y-88728571D01*
X181071428Y-88776190D01*
X180766666Y-88776190D01*
X181719047Y-88252380D02*
X181871428Y-88252380D01*
X181947619Y-88300000D01*
X182023809Y-88395238D01*
X182061904Y-88585714D01*
X182061904Y-88919047D01*
X182023809Y-89109523D01*
X181947619Y-89204761D01*
X181871428Y-89252380D01*
X181719047Y-89252380D01*
X181642857Y-89204761D01*
X181566666Y-89109523D01*
X181528571Y-88919047D01*
X181528571Y-88585714D01*
X181566666Y-88395238D01*
X181642857Y-88300000D01*
X181719047Y-88252380D01*
X182290476Y-88252380D02*
X182747619Y-88252380D01*
X182519047Y-89252380D02*
X182519047Y-88252380D01*
X180666666Y-91128571D02*
X180933333Y-91128571D01*
X181047619Y-91652380D02*
X180666666Y-91652380D01*
X180666666Y-90652380D01*
X181047619Y-90652380D01*
X181390476Y-91652380D02*
X181390476Y-90652380D01*
X181847619Y-91652380D01*
X181847619Y-90652380D01*
X182190476Y-91366666D02*
X182571428Y-91366666D01*
X182114285Y-91652380D02*
X182380952Y-90652380D01*
X182647619Y-91652380D01*
X180614285Y-93152380D02*
X180804761Y-94152380D01*
X180957142Y-93438095D01*
X181109523Y-94152380D01*
X181300000Y-93152380D01*
X181566666Y-93866666D02*
X181947619Y-93866666D01*
X181490476Y-94152380D02*
X181757142Y-93152380D01*
X182023809Y-94152380D01*
X182290476Y-94152380D02*
X182290476Y-93152380D01*
X182747619Y-94152380D02*
X182404761Y-93580952D01*
X182747619Y-93152380D02*
X182290476Y-93723809D01*
X180728571Y-96228571D02*
X180995238Y-96228571D01*
X181109523Y-96752380D02*
X180728571Y-96752380D01*
X180728571Y-95752380D01*
X181109523Y-95752380D01*
X181909523Y-96752380D02*
X181642857Y-96276190D01*
X181452380Y-96752380D02*
X181452380Y-95752380D01*
X181757142Y-95752380D01*
X181833333Y-95800000D01*
X181871428Y-95847619D01*
X181909523Y-95942857D01*
X181909523Y-96085714D01*
X181871428Y-96180952D01*
X181833333Y-96228571D01*
X181757142Y-96276190D01*
X181452380Y-96276190D01*
X182709523Y-96752380D02*
X182442857Y-96276190D01*
X182252380Y-96752380D02*
X182252380Y-95752380D01*
X182557142Y-95752380D01*
X182633333Y-95800000D01*
X182671428Y-95847619D01*
X182709523Y-95942857D01*
X182709523Y-96085714D01*
X182671428Y-96180952D01*
X182633333Y-96228571D01*
X182557142Y-96276190D01*
X182252380Y-96276190D01*
X181076190Y-99252380D02*
X181076190Y-98252380D01*
X181457142Y-99252380D02*
X181457142Y-98252380D01*
X181914285Y-99252380D01*
X181914285Y-98252380D01*
X182180952Y-98252380D02*
X182638095Y-98252380D01*
X182409523Y-99252380D02*
X182409523Y-98252380D01*
X180866666Y-100852380D02*
X181057142Y-101852380D01*
X181209523Y-101138095D01*
X181361904Y-101852380D01*
X181552380Y-100852380D01*
X181857142Y-101852380D02*
X181857142Y-100852380D01*
X182047619Y-100852380D01*
X182161904Y-100900000D01*
X182238095Y-100995238D01*
X182276190Y-101090476D01*
X182314285Y-101280952D01*
X182314285Y-101423809D01*
X182276190Y-101614285D01*
X182238095Y-101709523D01*
X182161904Y-101804761D01*
X182047619Y-101852380D01*
X181857142Y-101852380D01*
X182657142Y-101852380D02*
X182657142Y-100852380D01*
X181966666Y-104257142D02*
X181928571Y-104304761D01*
X181814285Y-104352380D01*
X181738095Y-104352380D01*
X181623809Y-104304761D01*
X181547619Y-104209523D01*
X181509523Y-104114285D01*
X181471428Y-103923809D01*
X181471428Y-103780952D01*
X181509523Y-103590476D01*
X181547619Y-103495238D01*
X181623809Y-103400000D01*
X181738095Y-103352380D01*
X181814285Y-103352380D01*
X181928571Y-103400000D01*
X181966666Y-103447619D01*
X182271428Y-104304761D02*
X182385714Y-104352380D01*
X182576190Y-104352380D01*
X182652380Y-104304761D01*
X182690476Y-104257142D01*
X182728571Y-104161904D01*
X182728571Y-104066666D01*
X182690476Y-103971428D01*
X182652380Y-103923809D01*
X182576190Y-103876190D01*
X182423809Y-103828571D01*
X182347619Y-103780952D01*
X182309523Y-103733333D01*
X182271428Y-103638095D01*
X182271428Y-103542857D01*
X182309523Y-103447619D01*
X182347619Y-103400000D01*
X182423809Y-103352380D01*
X182614285Y-103352380D01*
X182728571Y-103400000D01*
X180671428Y-106904761D02*
X180785714Y-106952380D01*
X180976190Y-106952380D01*
X181052380Y-106904761D01*
X181090476Y-106857142D01*
X181128571Y-106761904D01*
X181128571Y-106666666D01*
X181090476Y-106571428D01*
X181052380Y-106523809D01*
X180976190Y-106476190D01*
X180823809Y-106428571D01*
X180747619Y-106380952D01*
X180709523Y-106333333D01*
X180671428Y-106238095D01*
X180671428Y-106142857D01*
X180709523Y-106047619D01*
X180747619Y-106000000D01*
X180823809Y-105952380D01*
X181014285Y-105952380D01*
X181128571Y-106000000D01*
X181928571Y-106857142D02*
X181890476Y-106904761D01*
X181776190Y-106952380D01*
X181700000Y-106952380D01*
X181585714Y-106904761D01*
X181509523Y-106809523D01*
X181471428Y-106714285D01*
X181433333Y-106523809D01*
X181433333Y-106380952D01*
X181471428Y-106190476D01*
X181509523Y-106095238D01*
X181585714Y-106000000D01*
X181700000Y-105952380D01*
X181776190Y-105952380D01*
X181890476Y-106000000D01*
X181928571Y-106047619D01*
X182271428Y-106952380D02*
X182271428Y-105952380D01*
X182728571Y-106952380D02*
X182385714Y-106380952D01*
X182728571Y-105952380D02*
X182271428Y-106523809D01*
X180042857Y-109452380D02*
X180042857Y-108452380D01*
X180309523Y-109166666D01*
X180576190Y-108452380D01*
X180576190Y-109452380D01*
X180957142Y-109452380D02*
X180957142Y-108452380D01*
X181300000Y-109404761D02*
X181414285Y-109452380D01*
X181604761Y-109452380D01*
X181680952Y-109404761D01*
X181719047Y-109357142D01*
X181757142Y-109261904D01*
X181757142Y-109166666D01*
X181719047Y-109071428D01*
X181680952Y-109023809D01*
X181604761Y-108976190D01*
X181452380Y-108928571D01*
X181376190Y-108880952D01*
X181338095Y-108833333D01*
X181300000Y-108738095D01*
X181300000Y-108642857D01*
X181338095Y-108547619D01*
X181376190Y-108500000D01*
X181452380Y-108452380D01*
X181642857Y-108452380D01*
X181757142Y-108500000D01*
X182252380Y-108452380D02*
X182404761Y-108452380D01*
X182480952Y-108500000D01*
X182557142Y-108595238D01*
X182595238Y-108785714D01*
X182595238Y-109119047D01*
X182557142Y-109309523D01*
X182480952Y-109404761D01*
X182404761Y-109452380D01*
X182252380Y-109452380D01*
X182176190Y-109404761D01*
X182100000Y-109309523D01*
X182061904Y-109119047D01*
X182061904Y-108785714D01*
X182100000Y-108595238D01*
X182176190Y-108500000D01*
X182252380Y-108452380D01*
X179942857Y-111952380D02*
X179942857Y-110952380D01*
X180209523Y-111666666D01*
X180476190Y-110952380D01*
X180476190Y-111952380D01*
X181009523Y-110952380D02*
X181161904Y-110952380D01*
X181238095Y-111000000D01*
X181314285Y-111095238D01*
X181352380Y-111285714D01*
X181352380Y-111619047D01*
X181314285Y-111809523D01*
X181238095Y-111904761D01*
X181161904Y-111952380D01*
X181009523Y-111952380D01*
X180933333Y-111904761D01*
X180857142Y-111809523D01*
X180819047Y-111619047D01*
X180819047Y-111285714D01*
X180857142Y-111095238D01*
X180933333Y-111000000D01*
X181009523Y-110952380D01*
X181657142Y-111904761D02*
X181771428Y-111952380D01*
X181961904Y-111952380D01*
X182038095Y-111904761D01*
X182076190Y-111857142D01*
X182114285Y-111761904D01*
X182114285Y-111666666D01*
X182076190Y-111571428D01*
X182038095Y-111523809D01*
X181961904Y-111476190D01*
X181809523Y-111428571D01*
X181733333Y-111380952D01*
X181695238Y-111333333D01*
X181657142Y-111238095D01*
X181657142Y-111142857D01*
X181695238Y-111047619D01*
X181733333Y-111000000D01*
X181809523Y-110952380D01*
X182000000Y-110952380D01*
X182114285Y-111000000D01*
X182457142Y-111952380D02*
X182457142Y-110952380D01*
X155052380Y-86250000D02*
X155052380Y-85816666D01*
X155433333Y-86050000D01*
X155433333Y-85950000D01*
X155480952Y-85883333D01*
X155528571Y-85850000D01*
X155623809Y-85816666D01*
X155861904Y-85816666D01*
X155957142Y-85850000D01*
X156004761Y-85883333D01*
X156052380Y-85950000D01*
X156052380Y-86150000D01*
X156004761Y-86216666D01*
X155957142Y-86250000D01*
X155052380Y-85616666D02*
X156052380Y-85383333D01*
X155052380Y-85150000D01*
X156004761Y-84416666D02*
X156052380Y-84316666D01*
X156052380Y-84150000D01*
X156004761Y-84083333D01*
X155957142Y-84050000D01*
X155861904Y-84016666D01*
X155766666Y-84016666D01*
X155671428Y-84050000D01*
X155623809Y-84083333D01*
X155576190Y-84150000D01*
X155528571Y-84283333D01*
X155480952Y-84350000D01*
X155433333Y-84383333D01*
X155338095Y-84416666D01*
X155242857Y-84416666D01*
X155147619Y-84383333D01*
X155100000Y-84350000D01*
X155052380Y-84283333D01*
X155052380Y-84116666D01*
X155100000Y-84016666D01*
X155052380Y-83816666D02*
X155052380Y-83416666D01*
X156052380Y-83616666D02*
X155052380Y-83616666D01*
X155528571Y-82950000D02*
X155576190Y-82850000D01*
X155623809Y-82816666D01*
X155719047Y-82783333D01*
X155861904Y-82783333D01*
X155957142Y-82816666D01*
X156004761Y-82850000D01*
X156052380Y-82916666D01*
X156052380Y-83183333D01*
X155052380Y-83183333D01*
X155052380Y-82950000D01*
X155100000Y-82883333D01*
X155147619Y-82850000D01*
X155242857Y-82816666D01*
X155338095Y-82816666D01*
X155433333Y-82850000D01*
X155480952Y-82883333D01*
X155528571Y-82950000D01*
X155528571Y-83183333D01*
X155576190Y-82350000D02*
X156052380Y-82350000D01*
X155052380Y-82583333D02*
X155576190Y-82350000D01*
X155052380Y-82116666D01*
X158552380Y-85071428D02*
X157552380Y-85071428D01*
X157552380Y-84766666D01*
X157600000Y-84690476D01*
X157647619Y-84652380D01*
X157742857Y-84614285D01*
X157885714Y-84614285D01*
X157980952Y-84652380D01*
X158028571Y-84690476D01*
X158076190Y-84766666D01*
X158076190Y-85071428D01*
X158552380Y-83814285D02*
X158076190Y-84080952D01*
X158552380Y-84271428D02*
X157552380Y-84271428D01*
X157552380Y-83966666D01*
X157600000Y-83890476D01*
X157647619Y-83852380D01*
X157742857Y-83814285D01*
X157885714Y-83814285D01*
X157980952Y-83852380D01*
X158028571Y-83890476D01*
X158076190Y-83966666D01*
X158076190Y-84271428D01*
X158028571Y-83471428D02*
X158028571Y-83204761D01*
X158552380Y-83090476D02*
X158552380Y-83471428D01*
X157552380Y-83471428D01*
X157552380Y-83090476D01*
X157600000Y-82328571D02*
X157552380Y-82404761D01*
X157552380Y-82519047D01*
X157600000Y-82633333D01*
X157695238Y-82709523D01*
X157790476Y-82747619D01*
X157980952Y-82785714D01*
X158123809Y-82785714D01*
X158314285Y-82747619D01*
X158409523Y-82709523D01*
X158504761Y-82633333D01*
X158552380Y-82519047D01*
X158552380Y-82442857D01*
X158504761Y-82328571D01*
X158457142Y-82290476D01*
X158123809Y-82290476D01*
X158123809Y-82442857D01*
X160052380Y-84700000D02*
X160052380Y-85033333D01*
X160528571Y-85066666D01*
X160480952Y-85033333D01*
X160433333Y-84966666D01*
X160433333Y-84800000D01*
X160480952Y-84733333D01*
X160528571Y-84700000D01*
X160623809Y-84666666D01*
X160861904Y-84666666D01*
X160957142Y-84700000D01*
X161004761Y-84733333D01*
X161052380Y-84800000D01*
X161052380Y-84966666D01*
X161004761Y-85033333D01*
X160957142Y-85066666D01*
X160052380Y-84466666D02*
X161052380Y-84233333D01*
X160052380Y-84000000D01*
X160052380Y-83333333D02*
X160052380Y-82933333D01*
X161052380Y-83133333D02*
X160052380Y-83133333D01*
X160147619Y-82733333D02*
X160100000Y-82700000D01*
X160052380Y-82633333D01*
X160052380Y-82466666D01*
X160100000Y-82400000D01*
X160147619Y-82366666D01*
X160242857Y-82333333D01*
X160338095Y-82333333D01*
X160480952Y-82366666D01*
X161052380Y-82766666D01*
X161052380Y-82333333D01*
X162552380Y-84600000D02*
X162552380Y-84933333D01*
X163028571Y-84966666D01*
X162980952Y-84933333D01*
X162933333Y-84866666D01*
X162933333Y-84700000D01*
X162980952Y-84633333D01*
X163028571Y-84600000D01*
X163123809Y-84566666D01*
X163361904Y-84566666D01*
X163457142Y-84600000D01*
X163504761Y-84633333D01*
X163552380Y-84700000D01*
X163552380Y-84866666D01*
X163504761Y-84933333D01*
X163457142Y-84966666D01*
X162552380Y-84366666D02*
X163552380Y-84133333D01*
X162552380Y-83900000D01*
X162552380Y-83233333D02*
X162552380Y-82833333D01*
X163552380Y-83033333D02*
X162552380Y-83033333D01*
X163552380Y-82233333D02*
X163552380Y-82633333D01*
X163552380Y-82433333D02*
X162552380Y-82433333D01*
X162695238Y-82500000D01*
X162790476Y-82566666D01*
X162838095Y-82633333D01*
X167652380Y-83509523D02*
X167652380Y-83014285D01*
X168033333Y-83280952D01*
X168033333Y-83166666D01*
X168080952Y-83090476D01*
X168128571Y-83052380D01*
X168223809Y-83014285D01*
X168461904Y-83014285D01*
X168557142Y-83052380D01*
X168604761Y-83090476D01*
X168652380Y-83166666D01*
X168652380Y-83395238D01*
X168604761Y-83471428D01*
X168557142Y-83509523D01*
X167652380Y-82785714D02*
X168652380Y-82519047D01*
X167652380Y-82252380D01*
X165052380Y-84150000D02*
X165052380Y-84483333D01*
X165528571Y-84516666D01*
X165480952Y-84483333D01*
X165433333Y-84416666D01*
X165433333Y-84250000D01*
X165480952Y-84183333D01*
X165528571Y-84150000D01*
X165623809Y-84116666D01*
X165861904Y-84116666D01*
X165957142Y-84150000D01*
X166004761Y-84183333D01*
X166052380Y-84250000D01*
X166052380Y-84416666D01*
X166004761Y-84483333D01*
X165957142Y-84516666D01*
X165052380Y-83916666D02*
X166052380Y-83683333D01*
X165052380Y-83450000D01*
X165957142Y-82283333D02*
X166004761Y-82316666D01*
X166052380Y-82416666D01*
X166052380Y-82483333D01*
X166004761Y-82583333D01*
X165909523Y-82650000D01*
X165814285Y-82683333D01*
X165623809Y-82716666D01*
X165480952Y-82716666D01*
X165290476Y-82683333D01*
X165195238Y-82650000D01*
X165100000Y-82583333D01*
X165052380Y-82483333D01*
X165052380Y-82416666D01*
X165100000Y-82316666D01*
X165147619Y-82283333D01*
X170152380Y-84150000D02*
X170152380Y-84483333D01*
X170628571Y-84516666D01*
X170580952Y-84483333D01*
X170533333Y-84416666D01*
X170533333Y-84250000D01*
X170580952Y-84183333D01*
X170628571Y-84150000D01*
X170723809Y-84116666D01*
X170961904Y-84116666D01*
X171057142Y-84150000D01*
X171104761Y-84183333D01*
X171152380Y-84250000D01*
X171152380Y-84416666D01*
X171104761Y-84483333D01*
X171057142Y-84516666D01*
X170152380Y-83916666D02*
X171152380Y-83683333D01*
X170152380Y-83450000D01*
X171152380Y-82283333D02*
X170676190Y-82516666D01*
X171152380Y-82683333D02*
X170152380Y-82683333D01*
X170152380Y-82416666D01*
X170200000Y-82350000D01*
X170247619Y-82316666D01*
X170342857Y-82283333D01*
X170485714Y-82283333D01*
X170580952Y-82316666D01*
X170628571Y-82350000D01*
X170676190Y-82416666D01*
X170676190Y-82683333D01*
X172800000Y-83733333D02*
X172752380Y-83800000D01*
X172752380Y-83900000D01*
X172800000Y-84000000D01*
X172895238Y-84066666D01*
X172990476Y-84100000D01*
X173180952Y-84133333D01*
X173323809Y-84133333D01*
X173514285Y-84100000D01*
X173609523Y-84066666D01*
X173704761Y-84000000D01*
X173752380Y-83900000D01*
X173752380Y-83833333D01*
X173704761Y-83733333D01*
X173657142Y-83700000D01*
X173323809Y-83700000D01*
X173323809Y-83833333D01*
X173752380Y-83400000D02*
X172752380Y-83400000D01*
X173752380Y-83000000D01*
X172752380Y-83000000D01*
X173752380Y-82666666D02*
X172752380Y-82666666D01*
X172752380Y-82500000D01*
X172800000Y-82400000D01*
X172895238Y-82333333D01*
X172990476Y-82300000D01*
X173180952Y-82266666D01*
X173323809Y-82266666D01*
X173514285Y-82300000D01*
X173609523Y-82333333D01*
X173704761Y-82400000D01*
X173752380Y-82500000D01*
X173752380Y-82666666D01*
D11*
X125150000Y-94645000D02*
X125150000Y-96145000D01*
X125150000Y-96145000D02*
X125420000Y-96145000D01*
X125420000Y-96145000D02*
X125420000Y-98975000D01*
X132050000Y-94645000D02*
X132050000Y-96145000D01*
X132050000Y-96145000D02*
X131780000Y-96145000D01*
X131780000Y-96145000D02*
X131780000Y-97245000D01*
X154630000Y-111540000D02*
X152710000Y-111540000D01*
X147770000Y-111540000D02*
X149690000Y-111540000D01*
X155390000Y-103160000D02*
X152710000Y-103160000D01*
X147010000Y-103160000D02*
X149690000Y-103160000D01*
X155390000Y-103160000D02*
X155390000Y-110780000D01*
X155390000Y-110780000D02*
X154630000Y-111540000D01*
X147770000Y-111540000D02*
X147010000Y-110780000D01*
X147010000Y-110780000D02*
X147010000Y-103160000D01*
X162950000Y-89300000D02*
X162950000Y-88300000D01*
X161250000Y-88300000D02*
X161250000Y-89300000D01*
X163550000Y-88300000D02*
X163550000Y-89300000D01*
X165250000Y-89300000D02*
X165250000Y-88300000D01*
X165850000Y-88300000D02*
X165850000Y-89300000D01*
X167550000Y-89300000D02*
X167550000Y-88300000D01*
X168050000Y-88300000D02*
X168050000Y-89300000D01*
X169750000Y-89300000D02*
X169750000Y-88300000D01*
X163950000Y-110800000D02*
X163950000Y-109800000D01*
X162250000Y-109800000D02*
X162250000Y-110800000D01*
X170250000Y-88300000D02*
X170250000Y-89300000D01*
X171950000Y-89300000D02*
X171950000Y-88300000D01*
X172450000Y-88300000D02*
X172450000Y-89300000D01*
X174150000Y-89300000D02*
X174150000Y-88300000D01*
X122000000Y-104600000D02*
X122000000Y-102600000D01*
X122000000Y-102600000D02*
X118100000Y-102600000D01*
X122000000Y-104600000D02*
X118100000Y-104600000D01*
X149200000Y-79400000D02*
X147200000Y-79400000D01*
X147200000Y-79400000D02*
X147200000Y-83300000D01*
X149200000Y-79400000D02*
X149200000Y-83300000D01*
X117550000Y-112700000D02*
X121850000Y-112700000D01*
X121850000Y-112700000D02*
X121850000Y-107000000D01*
X117550000Y-112700000D02*
X117550000Y-107000000D01*
X183270000Y-112790000D02*
X185930000Y-112790000D01*
X183270000Y-89870000D02*
X183270000Y-112790000D01*
X185930000Y-89870000D02*
X185930000Y-112790000D01*
X183270000Y-89870000D02*
X185930000Y-89870000D01*
X183270000Y-88600000D02*
X183270000Y-87270000D01*
X183270000Y-87270000D02*
X184600000Y-87270000D01*
X179130000Y-85430000D02*
X176470000Y-85430000D01*
X179130000Y-88030000D02*
X179130000Y-85430000D01*
X176470000Y-88030000D02*
X176470000Y-85430000D01*
X179130000Y-88030000D02*
X176470000Y-88030000D01*
X179130000Y-89300000D02*
X179130000Y-90630000D01*
X179130000Y-90630000D02*
X177800000Y-90630000D01*
X145610000Y-79840000D02*
X145610000Y-89630000D01*
X145610000Y-92570000D02*
X145610000Y-102360000D01*
X135290000Y-79840000D02*
X135290000Y-89630000D01*
X135290000Y-92570000D02*
X135290000Y-102360000D01*
X145610000Y-79840000D02*
X135290000Y-79840000D01*
X145610000Y-102360000D02*
X135290000Y-102360000D01*
X123350000Y-106770000D02*
X123350000Y-108270000D01*
X123350000Y-108270000D02*
X123620000Y-108270000D01*
X123620000Y-108270000D02*
X123620000Y-111100000D01*
X130250000Y-106770000D02*
X130250000Y-108270000D01*
X130250000Y-108270000D02*
X129980000Y-108270000D01*
X129980000Y-108270000D02*
X129980000Y-109370000D01*
X146950000Y-91370000D02*
X146950000Y-92870000D01*
X146950000Y-92870000D02*
X147220000Y-92870000D01*
X147220000Y-92870000D02*
X147220000Y-95700000D01*
X153850000Y-91370000D02*
X153850000Y-92870000D01*
X153850000Y-92870000D02*
X153580000Y-92870000D01*
X153580000Y-92870000D02*
X153580000Y-93970000D01*
X119550000Y-101680000D02*
X118350000Y-101680000D01*
X118350000Y-99920000D02*
X119550000Y-99920000D01*
X152180000Y-80250000D02*
X152180000Y-81450000D01*
X150420000Y-81450000D02*
X150420000Y-80250000D01*
X159380000Y-109550000D02*
X159380000Y-110750000D01*
X157620000Y-110750000D02*
X157620000Y-109550000D01*
X161680000Y-109550000D02*
X161680000Y-110750000D01*
X159920000Y-110750000D02*
X159920000Y-109550000D01*
X178550000Y-96280000D02*
X177350000Y-96280000D01*
X177350000Y-94520000D02*
X178550000Y-94520000D01*
X178550000Y-101080000D02*
X177350000Y-101080000D01*
X177350000Y-99320000D02*
X178550000Y-99320000D01*
X178550000Y-98680000D02*
X177350000Y-98680000D01*
X177350000Y-96920000D02*
X178550000Y-96920000D01*
X178550000Y-103480000D02*
X177350000Y-103480000D01*
X177350000Y-101720000D02*
X178550000Y-101720000D01*
X178550000Y-105780000D02*
X177350000Y-105780000D01*
X177350000Y-104020000D02*
X178550000Y-104020000D01*
X178550000Y-108080000D02*
X177350000Y-108080000D01*
X177350000Y-106320000D02*
X178550000Y-106320000D01*
X178550000Y-110380000D02*
X177350000Y-110380000D01*
X177350000Y-108620000D02*
X178550000Y-108620000D01*
X178550000Y-112680000D02*
X177350000Y-112680000D01*
X177350000Y-110920000D02*
X178550000Y-110920000D01*
X178550000Y-93980000D02*
X177350000Y-93980000D01*
X177350000Y-92220000D02*
X178550000Y-92220000D01*
D10*
X159125000Y-104675000D02*
X160200000Y-104675000D01*
X159125000Y-94325000D02*
X160200000Y-94325000D01*
X169475000Y-94325000D02*
X168400000Y-94325000D01*
X169475000Y-104675000D02*
X168400000Y-104675000D01*
X159125000Y-104675000D02*
X159125000Y-103600000D01*
X169475000Y-104675000D02*
X169475000Y-103600000D01*
X169475000Y-94325000D02*
X169475000Y-95400000D01*
X159125000Y-94325000D02*
X159125000Y-95400000D01*
X160200000Y-104675000D02*
X160200000Y-105700000D01*
D11*
X137225000Y-111600000D02*
X137225000Y-111200000D01*
X138725000Y-111600000D02*
X137225000Y-111600000D01*
X137225000Y-109800000D02*
X137225000Y-106600000D01*
X137225000Y-104800000D02*
X138725000Y-104800000D01*
X137225000Y-105150000D02*
X137225000Y-104800000D01*
X181970000Y-84470000D02*
X184630000Y-84470000D01*
X181970000Y-81870000D02*
X181970000Y-84470000D01*
X184630000Y-81870000D02*
X184630000Y-84470000D01*
X181970000Y-81870000D02*
X184630000Y-81870000D01*
X181970000Y-80600000D02*
X181970000Y-79270000D01*
X181970000Y-79270000D02*
X183300000Y-79270000D01*
X154100000Y-101620000D02*
X148900000Y-101620000D01*
X148900000Y-97980000D02*
X154100000Y-97980000D01*
X123600000Y-97400000D02*
X123600000Y-99100000D01*
X116600000Y-97400000D02*
X116600000Y-99100000D01*
X123600000Y-80800000D02*
X123600000Y-79100000D01*
X116600000Y-79100000D02*
X116600000Y-80800000D01*
X123600000Y-94800000D02*
X123600000Y-83500000D01*
X116600000Y-94800000D02*
X116600000Y-83500000D01*
X116600000Y-79100000D02*
X123600000Y-79100000D01*
X116600000Y-99100000D02*
X123600000Y-99100000D01*
X126730000Y-79170000D02*
X126730000Y-81830000D01*
X129330000Y-79170000D02*
X126730000Y-79170000D01*
X129330000Y-81830000D02*
X126730000Y-81830000D01*
X129330000Y-79170000D02*
X129330000Y-81830000D01*
X130600000Y-79170000D02*
X131930000Y-79170000D01*
X131930000Y-79170000D02*
X131930000Y-80500000D01*
X179690000Y-81930000D02*
X179690000Y-79270000D01*
X156770000Y-81930000D02*
X179690000Y-81930000D01*
X156770000Y-79270000D02*
X179690000Y-79270000D01*
X156770000Y-81930000D02*
X156770000Y-79270000D01*
X155500000Y-81930000D02*
X154170000Y-81930000D01*
X154170000Y-81930000D02*
X154170000Y-80600000D01*
X124260000Y-80260000D02*
X134420000Y-80260000D01*
X124260000Y-78990000D02*
X124260000Y-86610000D01*
X124260000Y-86610000D02*
X134420000Y-86610000D01*
X134420000Y-86610000D02*
X134420000Y-78990000D01*
X134420000Y-78990000D02*
X124260000Y-78990000D01*
X181050000Y-85020000D02*
X182250000Y-85020000D01*
X182250000Y-86780000D02*
X181050000Y-86780000D01*
X154950000Y-92650000D02*
X160050000Y-92650000D01*
X154950000Y-86650000D02*
X160050000Y-86650000D01*
D10*
X133247619Y-97395238D02*
X133200000Y-97490476D01*
X133104761Y-97585714D01*
X132961904Y-97728571D01*
X132914285Y-97823809D01*
X132914285Y-97919047D01*
X133152380Y-97871428D02*
X133104761Y-97966666D01*
X133009523Y-98061904D01*
X132819047Y-98109523D01*
X132485714Y-98109523D01*
X132295238Y-98061904D01*
X132200000Y-97966666D01*
X132152380Y-97871428D01*
X132152380Y-97680952D01*
X132200000Y-97585714D01*
X132295238Y-97490476D01*
X132485714Y-97442857D01*
X132819047Y-97442857D01*
X133009523Y-97490476D01*
X133104761Y-97585714D01*
X133152380Y-97680952D01*
X133152380Y-97871428D01*
X133152380Y-96490476D02*
X133152380Y-97061904D01*
X133152380Y-96776190D02*
X132152380Y-96776190D01*
X132295238Y-96871428D01*
X132390476Y-96966666D01*
X132438095Y-97061904D01*
X156557142Y-110166666D02*
X156604761Y-110214285D01*
X156652380Y-110357142D01*
X156652380Y-110452380D01*
X156604761Y-110595238D01*
X156509523Y-110690476D01*
X156414285Y-110738095D01*
X156223809Y-110785714D01*
X156080952Y-110785714D01*
X155890476Y-110738095D01*
X155795238Y-110690476D01*
X155700000Y-110595238D01*
X155652380Y-110452380D01*
X155652380Y-110357142D01*
X155700000Y-110214285D01*
X155747619Y-110166666D01*
X156652380Y-109214285D02*
X156652380Y-109785714D01*
X156652380Y-109500000D02*
X155652380Y-109500000D01*
X155795238Y-109595238D01*
X155890476Y-109690476D01*
X155938095Y-109785714D01*
X155181428Y-112510952D02*
X155181428Y-111749047D01*
X155562380Y-112130000D02*
X154800476Y-112130000D01*
X162457142Y-91766666D02*
X162504761Y-91814285D01*
X162552380Y-91957142D01*
X162552380Y-92052380D01*
X162504761Y-92195238D01*
X162409523Y-92290476D01*
X162314285Y-92338095D01*
X162123809Y-92385714D01*
X161980952Y-92385714D01*
X161790476Y-92338095D01*
X161695238Y-92290476D01*
X161600000Y-92195238D01*
X161552380Y-92052380D01*
X161552380Y-91957142D01*
X161600000Y-91814285D01*
X161647619Y-91766666D01*
X161647619Y-91385714D02*
X161600000Y-91338095D01*
X161552380Y-91242857D01*
X161552380Y-91004761D01*
X161600000Y-90909523D01*
X161647619Y-90861904D01*
X161742857Y-90814285D01*
X161838095Y-90814285D01*
X161980952Y-90861904D01*
X162552380Y-91433333D01*
X162552380Y-90814285D01*
X164757142Y-91766666D02*
X164804761Y-91814285D01*
X164852380Y-91957142D01*
X164852380Y-92052380D01*
X164804761Y-92195238D01*
X164709523Y-92290476D01*
X164614285Y-92338095D01*
X164423809Y-92385714D01*
X164280952Y-92385714D01*
X164090476Y-92338095D01*
X163995238Y-92290476D01*
X163900000Y-92195238D01*
X163852380Y-92052380D01*
X163852380Y-91957142D01*
X163900000Y-91814285D01*
X163947619Y-91766666D01*
X163852380Y-91433333D02*
X163852380Y-90814285D01*
X164233333Y-91147619D01*
X164233333Y-91004761D01*
X164280952Y-90909523D01*
X164328571Y-90861904D01*
X164423809Y-90814285D01*
X164661904Y-90814285D01*
X164757142Y-90861904D01*
X164804761Y-90909523D01*
X164852380Y-91004761D01*
X164852380Y-91290476D01*
X164804761Y-91385714D01*
X164757142Y-91433333D01*
X167057142Y-91766666D02*
X167104761Y-91814285D01*
X167152380Y-91957142D01*
X167152380Y-92052380D01*
X167104761Y-92195238D01*
X167009523Y-92290476D01*
X166914285Y-92338095D01*
X166723809Y-92385714D01*
X166580952Y-92385714D01*
X166390476Y-92338095D01*
X166295238Y-92290476D01*
X166200000Y-92195238D01*
X166152380Y-92052380D01*
X166152380Y-91957142D01*
X166200000Y-91814285D01*
X166247619Y-91766666D01*
X166485714Y-90909523D02*
X167152380Y-90909523D01*
X166104761Y-91147619D02*
X166819047Y-91385714D01*
X166819047Y-90766666D01*
X169357142Y-91766666D02*
X169404761Y-91814285D01*
X169452380Y-91957142D01*
X169452380Y-92052380D01*
X169404761Y-92195238D01*
X169309523Y-92290476D01*
X169214285Y-92338095D01*
X169023809Y-92385714D01*
X168880952Y-92385714D01*
X168690476Y-92338095D01*
X168595238Y-92290476D01*
X168500000Y-92195238D01*
X168452380Y-92052380D01*
X168452380Y-91957142D01*
X168500000Y-91814285D01*
X168547619Y-91766666D01*
X168452380Y-90861904D02*
X168452380Y-91338095D01*
X168928571Y-91385714D01*
X168880952Y-91338095D01*
X168833333Y-91242857D01*
X168833333Y-91004761D01*
X168880952Y-90909523D01*
X168928571Y-90861904D01*
X169023809Y-90814285D01*
X169261904Y-90814285D01*
X169357142Y-90861904D01*
X169404761Y-90909523D01*
X169452380Y-91004761D01*
X169452380Y-91242857D01*
X169404761Y-91338095D01*
X169357142Y-91385714D01*
X163557142Y-107666666D02*
X163604761Y-107714285D01*
X163652380Y-107857142D01*
X163652380Y-107952380D01*
X163604761Y-108095238D01*
X163509523Y-108190476D01*
X163414285Y-108238095D01*
X163223809Y-108285714D01*
X163080952Y-108285714D01*
X162890476Y-108238095D01*
X162795238Y-108190476D01*
X162700000Y-108095238D01*
X162652380Y-107952380D01*
X162652380Y-107857142D01*
X162700000Y-107714285D01*
X162747619Y-107666666D01*
X162652380Y-106809523D02*
X162652380Y-107000000D01*
X162700000Y-107095238D01*
X162747619Y-107142857D01*
X162890476Y-107238095D01*
X163080952Y-107285714D01*
X163461904Y-107285714D01*
X163557142Y-107238095D01*
X163604761Y-107190476D01*
X163652380Y-107095238D01*
X163652380Y-106904761D01*
X163604761Y-106809523D01*
X163557142Y-106761904D01*
X163461904Y-106714285D01*
X163223809Y-106714285D01*
X163128571Y-106761904D01*
X163080952Y-106809523D01*
X163033333Y-106904761D01*
X163033333Y-107095238D01*
X163080952Y-107190476D01*
X163128571Y-107238095D01*
X163223809Y-107285714D01*
X171457142Y-91766666D02*
X171504761Y-91814285D01*
X171552380Y-91957142D01*
X171552380Y-92052380D01*
X171504761Y-92195238D01*
X171409523Y-92290476D01*
X171314285Y-92338095D01*
X171123809Y-92385714D01*
X170980952Y-92385714D01*
X170790476Y-92338095D01*
X170695238Y-92290476D01*
X170600000Y-92195238D01*
X170552380Y-92052380D01*
X170552380Y-91957142D01*
X170600000Y-91814285D01*
X170647619Y-91766666D01*
X170552380Y-91433333D02*
X170552380Y-90766666D01*
X171552380Y-91195238D01*
X173657142Y-91766666D02*
X173704761Y-91814285D01*
X173752380Y-91957142D01*
X173752380Y-92052380D01*
X173704761Y-92195238D01*
X173609523Y-92290476D01*
X173514285Y-92338095D01*
X173323809Y-92385714D01*
X173180952Y-92385714D01*
X172990476Y-92338095D01*
X172895238Y-92290476D01*
X172800000Y-92195238D01*
X172752380Y-92052380D01*
X172752380Y-91957142D01*
X172800000Y-91814285D01*
X172847619Y-91766666D01*
X173180952Y-91195238D02*
X173133333Y-91290476D01*
X173085714Y-91338095D01*
X172990476Y-91385714D01*
X172942857Y-91385714D01*
X172847619Y-91338095D01*
X172800000Y-91290476D01*
X172752380Y-91195238D01*
X172752380Y-91004761D01*
X172800000Y-90909523D01*
X172847619Y-90861904D01*
X172942857Y-90814285D01*
X172990476Y-90814285D01*
X173085714Y-90861904D01*
X173133333Y-90909523D01*
X173180952Y-91004761D01*
X173180952Y-91195238D01*
X173228571Y-91290476D01*
X173276190Y-91338095D01*
X173371428Y-91385714D01*
X173561904Y-91385714D01*
X173657142Y-91338095D01*
X173704761Y-91290476D01*
X173752380Y-91195238D01*
X173752380Y-91004761D01*
X173704761Y-90909523D01*
X173657142Y-90861904D01*
X173561904Y-90814285D01*
X173371428Y-90814285D01*
X173276190Y-90861904D01*
X173228571Y-90909523D01*
X173180952Y-91004761D01*
X123252380Y-104238095D02*
X122252380Y-104238095D01*
X122252380Y-104000000D01*
X122300000Y-103857142D01*
X122395238Y-103761904D01*
X122490476Y-103714285D01*
X122680952Y-103666666D01*
X122823809Y-103666666D01*
X123014285Y-103714285D01*
X123109523Y-103761904D01*
X123204761Y-103857142D01*
X123252380Y-104000000D01*
X123252380Y-104238095D01*
X123252380Y-102714285D02*
X123252380Y-103285714D01*
X123252380Y-103000000D02*
X122252380Y-103000000D01*
X122395238Y-103095238D01*
X122490476Y-103190476D01*
X122538095Y-103285714D01*
X146852380Y-82438095D02*
X145852380Y-82438095D01*
X145852380Y-82200000D01*
X145900000Y-82057142D01*
X145995238Y-81961904D01*
X146090476Y-81914285D01*
X146280952Y-81866666D01*
X146423809Y-81866666D01*
X146614285Y-81914285D01*
X146709523Y-81961904D01*
X146804761Y-82057142D01*
X146852380Y-82200000D01*
X146852380Y-82438095D01*
X145947619Y-81485714D02*
X145900000Y-81438095D01*
X145852380Y-81342857D01*
X145852380Y-81104761D01*
X145900000Y-81009523D01*
X145947619Y-80961904D01*
X146042857Y-80914285D01*
X146138095Y-80914285D01*
X146280952Y-80961904D01*
X146852380Y-81533333D01*
X146852380Y-80914285D01*
X116661904Y-106752380D02*
X116661904Y-105752380D01*
X116900000Y-105752380D01*
X117042857Y-105800000D01*
X117138095Y-105895238D01*
X117185714Y-105990476D01*
X117233333Y-106180952D01*
X117233333Y-106323809D01*
X117185714Y-106514285D01*
X117138095Y-106609523D01*
X117042857Y-106704761D01*
X116900000Y-106752380D01*
X116661904Y-106752380D01*
X117566666Y-105752380D02*
X118185714Y-105752380D01*
X117852380Y-106133333D01*
X117995238Y-106133333D01*
X118090476Y-106180952D01*
X118138095Y-106228571D01*
X118185714Y-106323809D01*
X118185714Y-106561904D01*
X118138095Y-106657142D01*
X118090476Y-106704761D01*
X117995238Y-106752380D01*
X117709523Y-106752380D01*
X117614285Y-106704761D01*
X117566666Y-106657142D01*
X176966666Y-90852380D02*
X176966666Y-91566666D01*
X176919047Y-91709523D01*
X176823809Y-91804761D01*
X176680952Y-91852380D01*
X176585714Y-91852380D01*
X177442857Y-91852380D02*
X177442857Y-90852380D01*
X177823809Y-90852380D01*
X177919047Y-90900000D01*
X177966666Y-90947619D01*
X178014285Y-91042857D01*
X178014285Y-91185714D01*
X177966666Y-91280952D01*
X177919047Y-91328571D01*
X177823809Y-91376190D01*
X177442857Y-91376190D01*
X178966666Y-91852380D02*
X178395238Y-91852380D01*
X178680952Y-91852380D02*
X178680952Y-90852380D01*
X178585714Y-90995238D01*
X178490476Y-91090476D01*
X178395238Y-91138095D01*
X144233333Y-101852380D02*
X143757142Y-101852380D01*
X143757142Y-100852380D01*
X145090476Y-101852380D02*
X144519047Y-101852380D01*
X144804761Y-101852380D02*
X144804761Y-100852380D01*
X144709523Y-100995238D01*
X144614285Y-101090476D01*
X144519047Y-101138095D01*
X131447619Y-109495238D02*
X131400000Y-109590476D01*
X131304761Y-109685714D01*
X131161904Y-109828571D01*
X131114285Y-109923809D01*
X131114285Y-110019047D01*
X131352380Y-109971428D02*
X131304761Y-110066666D01*
X131209523Y-110161904D01*
X131019047Y-110209523D01*
X130685714Y-110209523D01*
X130495238Y-110161904D01*
X130400000Y-110066666D01*
X130352380Y-109971428D01*
X130352380Y-109780952D01*
X130400000Y-109685714D01*
X130495238Y-109590476D01*
X130685714Y-109542857D01*
X131019047Y-109542857D01*
X131209523Y-109590476D01*
X131304761Y-109685714D01*
X131352380Y-109780952D01*
X131352380Y-109971428D01*
X130447619Y-109161904D02*
X130400000Y-109114285D01*
X130352380Y-109019047D01*
X130352380Y-108780952D01*
X130400000Y-108685714D01*
X130447619Y-108638095D01*
X130542857Y-108590476D01*
X130638095Y-108590476D01*
X130780952Y-108638095D01*
X131352380Y-109209523D01*
X131352380Y-108590476D01*
X155047619Y-94395238D02*
X155000000Y-94490476D01*
X154904761Y-94585714D01*
X154761904Y-94728571D01*
X154714285Y-94823809D01*
X154714285Y-94919047D01*
X154952380Y-94871428D02*
X154904761Y-94966666D01*
X154809523Y-95061904D01*
X154619047Y-95109523D01*
X154285714Y-95109523D01*
X154095238Y-95061904D01*
X154000000Y-94966666D01*
X153952380Y-94871428D01*
X153952380Y-94680952D01*
X154000000Y-94585714D01*
X154095238Y-94490476D01*
X154285714Y-94442857D01*
X154619047Y-94442857D01*
X154809523Y-94490476D01*
X154904761Y-94585714D01*
X154952380Y-94680952D01*
X154952380Y-94871428D01*
X153952380Y-94109523D02*
X153952380Y-93490476D01*
X154333333Y-93823809D01*
X154333333Y-93680952D01*
X154380952Y-93585714D01*
X154428571Y-93538095D01*
X154523809Y-93490476D01*
X154761904Y-93490476D01*
X154857142Y-93538095D01*
X154904761Y-93585714D01*
X154952380Y-93680952D01*
X154952380Y-93966666D01*
X154904761Y-94061904D01*
X154857142Y-94109523D01*
X121452380Y-100966666D02*
X120976190Y-101300000D01*
X121452380Y-101538095D02*
X120452380Y-101538095D01*
X120452380Y-101157142D01*
X120500000Y-101061904D01*
X120547619Y-101014285D01*
X120642857Y-100966666D01*
X120785714Y-100966666D01*
X120880952Y-101014285D01*
X120928571Y-101061904D01*
X120976190Y-101157142D01*
X120976190Y-101538095D01*
X121452380Y-100014285D02*
X121452380Y-100585714D01*
X121452380Y-100300000D02*
X120452380Y-100300000D01*
X120595238Y-100395238D01*
X120690476Y-100490476D01*
X120738095Y-100585714D01*
X151752380Y-83566666D02*
X151276190Y-83900000D01*
X151752380Y-84138095D02*
X150752380Y-84138095D01*
X150752380Y-83757142D01*
X150800000Y-83661904D01*
X150847619Y-83614285D01*
X150942857Y-83566666D01*
X151085714Y-83566666D01*
X151180952Y-83614285D01*
X151228571Y-83661904D01*
X151276190Y-83757142D01*
X151276190Y-84138095D01*
X150847619Y-83185714D02*
X150800000Y-83138095D01*
X150752380Y-83042857D01*
X150752380Y-82804761D01*
X150800000Y-82709523D01*
X150847619Y-82661904D01*
X150942857Y-82614285D01*
X151038095Y-82614285D01*
X151180952Y-82661904D01*
X151752380Y-83233333D01*
X151752380Y-82614285D01*
X159052380Y-107666666D02*
X158576190Y-108000000D01*
X159052380Y-108238095D02*
X158052380Y-108238095D01*
X158052380Y-107857142D01*
X158100000Y-107761904D01*
X158147619Y-107714285D01*
X158242857Y-107666666D01*
X158385714Y-107666666D01*
X158480952Y-107714285D01*
X158528571Y-107761904D01*
X158576190Y-107857142D01*
X158576190Y-108238095D01*
X158052380Y-106761904D02*
X158052380Y-107238095D01*
X158528571Y-107285714D01*
X158480952Y-107238095D01*
X158433333Y-107142857D01*
X158433333Y-106904761D01*
X158480952Y-106809523D01*
X158528571Y-106761904D01*
X158623809Y-106714285D01*
X158861904Y-106714285D01*
X158957142Y-106761904D01*
X159004761Y-106809523D01*
X159052380Y-106904761D01*
X159052380Y-107142857D01*
X159004761Y-107238095D01*
X158957142Y-107285714D01*
X161352380Y-107666666D02*
X160876190Y-108000000D01*
X161352380Y-108238095D02*
X160352380Y-108238095D01*
X160352380Y-107857142D01*
X160400000Y-107761904D01*
X160447619Y-107714285D01*
X160542857Y-107666666D01*
X160685714Y-107666666D01*
X160780952Y-107714285D01*
X160828571Y-107761904D01*
X160876190Y-107857142D01*
X160876190Y-108238095D01*
X160352380Y-106809523D02*
X160352380Y-107000000D01*
X160400000Y-107095238D01*
X160447619Y-107142857D01*
X160590476Y-107238095D01*
X160780952Y-107285714D01*
X161161904Y-107285714D01*
X161257142Y-107238095D01*
X161304761Y-107190476D01*
X161352380Y-107095238D01*
X161352380Y-106904761D01*
X161304761Y-106809523D01*
X161257142Y-106761904D01*
X161161904Y-106714285D01*
X160923809Y-106714285D01*
X160828571Y-106761904D01*
X160780952Y-106809523D01*
X160733333Y-106904761D01*
X160733333Y-107095238D01*
X160780952Y-107190476D01*
X160828571Y-107238095D01*
X160923809Y-107285714D01*
X175133333Y-95852380D02*
X174800000Y-95376190D01*
X174561904Y-95852380D02*
X174561904Y-94852380D01*
X174942857Y-94852380D01*
X175038095Y-94900000D01*
X175085714Y-94947619D01*
X175133333Y-95042857D01*
X175133333Y-95185714D01*
X175085714Y-95280952D01*
X175038095Y-95328571D01*
X174942857Y-95376190D01*
X174561904Y-95376190D01*
X175466666Y-94852380D02*
X176133333Y-94852380D01*
X175704761Y-95852380D01*
X175133333Y-100652380D02*
X174800000Y-100176190D01*
X174561904Y-100652380D02*
X174561904Y-99652380D01*
X174942857Y-99652380D01*
X175038095Y-99700000D01*
X175085714Y-99747619D01*
X175133333Y-99842857D01*
X175133333Y-99985714D01*
X175085714Y-100080952D01*
X175038095Y-100128571D01*
X174942857Y-100176190D01*
X174561904Y-100176190D01*
X175704761Y-100080952D02*
X175609523Y-100033333D01*
X175561904Y-99985714D01*
X175514285Y-99890476D01*
X175514285Y-99842857D01*
X175561904Y-99747619D01*
X175609523Y-99700000D01*
X175704761Y-99652380D01*
X175895238Y-99652380D01*
X175990476Y-99700000D01*
X176038095Y-99747619D01*
X176085714Y-99842857D01*
X176085714Y-99890476D01*
X176038095Y-99985714D01*
X175990476Y-100033333D01*
X175895238Y-100080952D01*
X175704761Y-100080952D01*
X175609523Y-100128571D01*
X175561904Y-100176190D01*
X175514285Y-100271428D01*
X175514285Y-100461904D01*
X175561904Y-100557142D01*
X175609523Y-100604761D01*
X175704761Y-100652380D01*
X175895238Y-100652380D01*
X175990476Y-100604761D01*
X176038095Y-100557142D01*
X176085714Y-100461904D01*
X176085714Y-100271428D01*
X176038095Y-100176190D01*
X175990476Y-100128571D01*
X175895238Y-100080952D01*
X175133333Y-98252380D02*
X174800000Y-97776190D01*
X174561904Y-98252380D02*
X174561904Y-97252380D01*
X174942857Y-97252380D01*
X175038095Y-97300000D01*
X175085714Y-97347619D01*
X175133333Y-97442857D01*
X175133333Y-97585714D01*
X175085714Y-97680952D01*
X175038095Y-97728571D01*
X174942857Y-97776190D01*
X174561904Y-97776190D01*
X175609523Y-98252380D02*
X175800000Y-98252380D01*
X175895238Y-98204761D01*
X175942857Y-98157142D01*
X176038095Y-98014285D01*
X176085714Y-97823809D01*
X176085714Y-97442857D01*
X176038095Y-97347619D01*
X175990476Y-97300000D01*
X175895238Y-97252380D01*
X175704761Y-97252380D01*
X175609523Y-97300000D01*
X175561904Y-97347619D01*
X175514285Y-97442857D01*
X175514285Y-97680952D01*
X175561904Y-97776190D01*
X175609523Y-97823809D01*
X175704761Y-97871428D01*
X175895238Y-97871428D01*
X175990476Y-97823809D01*
X176038095Y-97776190D01*
X176085714Y-97680952D01*
X174157142Y-103052380D02*
X173823809Y-102576190D01*
X173585714Y-103052380D02*
X173585714Y-102052380D01*
X173966666Y-102052380D01*
X174061904Y-102100000D01*
X174109523Y-102147619D01*
X174157142Y-102242857D01*
X174157142Y-102385714D01*
X174109523Y-102480952D01*
X174061904Y-102528571D01*
X173966666Y-102576190D01*
X173585714Y-102576190D01*
X175109523Y-103052380D02*
X174538095Y-103052380D01*
X174823809Y-103052380D02*
X174823809Y-102052380D01*
X174728571Y-102195238D01*
X174633333Y-102290476D01*
X174538095Y-102338095D01*
X175728571Y-102052380D02*
X175823809Y-102052380D01*
X175919047Y-102100000D01*
X175966666Y-102147619D01*
X176014285Y-102242857D01*
X176061904Y-102433333D01*
X176061904Y-102671428D01*
X176014285Y-102861904D01*
X175966666Y-102957142D01*
X175919047Y-103004761D01*
X175823809Y-103052380D01*
X175728571Y-103052380D01*
X175633333Y-103004761D01*
X175585714Y-102957142D01*
X175538095Y-102861904D01*
X175490476Y-102671428D01*
X175490476Y-102433333D01*
X175538095Y-102242857D01*
X175585714Y-102147619D01*
X175633333Y-102100000D01*
X175728571Y-102052380D01*
X174257142Y-105252380D02*
X173923809Y-104776190D01*
X173685714Y-105252380D02*
X173685714Y-104252380D01*
X174066666Y-104252380D01*
X174161904Y-104300000D01*
X174209523Y-104347619D01*
X174257142Y-104442857D01*
X174257142Y-104585714D01*
X174209523Y-104680952D01*
X174161904Y-104728571D01*
X174066666Y-104776190D01*
X173685714Y-104776190D01*
X175209523Y-105252380D02*
X174638095Y-105252380D01*
X174923809Y-105252380D02*
X174923809Y-104252380D01*
X174828571Y-104395238D01*
X174733333Y-104490476D01*
X174638095Y-104538095D01*
X176161904Y-105252380D02*
X175590476Y-105252380D01*
X175876190Y-105252380D02*
X175876190Y-104252380D01*
X175780952Y-104395238D01*
X175685714Y-104490476D01*
X175590476Y-104538095D01*
X174157142Y-107652380D02*
X173823809Y-107176190D01*
X173585714Y-107652380D02*
X173585714Y-106652380D01*
X173966666Y-106652380D01*
X174061904Y-106700000D01*
X174109523Y-106747619D01*
X174157142Y-106842857D01*
X174157142Y-106985714D01*
X174109523Y-107080952D01*
X174061904Y-107128571D01*
X173966666Y-107176190D01*
X173585714Y-107176190D01*
X175109523Y-107652380D02*
X174538095Y-107652380D01*
X174823809Y-107652380D02*
X174823809Y-106652380D01*
X174728571Y-106795238D01*
X174633333Y-106890476D01*
X174538095Y-106938095D01*
X175490476Y-106747619D02*
X175538095Y-106700000D01*
X175633333Y-106652380D01*
X175871428Y-106652380D01*
X175966666Y-106700000D01*
X176014285Y-106747619D01*
X176061904Y-106842857D01*
X176061904Y-106938095D01*
X176014285Y-107080952D01*
X175442857Y-107652380D01*
X176061904Y-107652380D01*
X174157142Y-110052380D02*
X173823809Y-109576190D01*
X173585714Y-110052380D02*
X173585714Y-109052380D01*
X173966666Y-109052380D01*
X174061904Y-109100000D01*
X174109523Y-109147619D01*
X174157142Y-109242857D01*
X174157142Y-109385714D01*
X174109523Y-109480952D01*
X174061904Y-109528571D01*
X173966666Y-109576190D01*
X173585714Y-109576190D01*
X175109523Y-110052380D02*
X174538095Y-110052380D01*
X174823809Y-110052380D02*
X174823809Y-109052380D01*
X174728571Y-109195238D01*
X174633333Y-109290476D01*
X174538095Y-109338095D01*
X175442857Y-109052380D02*
X176061904Y-109052380D01*
X175728571Y-109433333D01*
X175871428Y-109433333D01*
X175966666Y-109480952D01*
X176014285Y-109528571D01*
X176061904Y-109623809D01*
X176061904Y-109861904D01*
X176014285Y-109957142D01*
X175966666Y-110004761D01*
X175871428Y-110052380D01*
X175585714Y-110052380D01*
X175490476Y-110004761D01*
X175442857Y-109957142D01*
X174157142Y-112252380D02*
X173823809Y-111776190D01*
X173585714Y-112252380D02*
X173585714Y-111252380D01*
X173966666Y-111252380D01*
X174061904Y-111300000D01*
X174109523Y-111347619D01*
X174157142Y-111442857D01*
X174157142Y-111585714D01*
X174109523Y-111680952D01*
X174061904Y-111728571D01*
X173966666Y-111776190D01*
X173585714Y-111776190D01*
X175109523Y-112252380D02*
X174538095Y-112252380D01*
X174823809Y-112252380D02*
X174823809Y-111252380D01*
X174728571Y-111395238D01*
X174633333Y-111490476D01*
X174538095Y-111538095D01*
X175966666Y-111585714D02*
X175966666Y-112252380D01*
X175728571Y-111204761D02*
X175490476Y-111919047D01*
X176109523Y-111919047D01*
X174257142Y-93552380D02*
X173923809Y-93076190D01*
X173685714Y-93552380D02*
X173685714Y-92552380D01*
X174066666Y-92552380D01*
X174161904Y-92600000D01*
X174209523Y-92647619D01*
X174257142Y-92742857D01*
X174257142Y-92885714D01*
X174209523Y-92980952D01*
X174161904Y-93028571D01*
X174066666Y-93076190D01*
X173685714Y-93076190D01*
X175209523Y-93552380D02*
X174638095Y-93552380D01*
X174923809Y-93552380D02*
X174923809Y-92552380D01*
X174828571Y-92695238D01*
X174733333Y-92790476D01*
X174638095Y-92838095D01*
X176114285Y-92552380D02*
X175638095Y-92552380D01*
X175590476Y-93028571D01*
X175638095Y-92980952D01*
X175733333Y-92933333D01*
X175971428Y-92933333D01*
X176066666Y-92980952D01*
X176114285Y-93028571D01*
X176161904Y-93123809D01*
X176161904Y-93361904D01*
X176114285Y-93457142D01*
X176066666Y-93504761D01*
X175971428Y-93552380D01*
X175733333Y-93552380D01*
X175638095Y-93504761D01*
X175590476Y-93457142D01*
X158238095Y-105052380D02*
X158238095Y-105861904D01*
X158285714Y-105957142D01*
X158333333Y-106004761D01*
X158428571Y-106052380D01*
X158619047Y-106052380D01*
X158714285Y-106004761D01*
X158761904Y-105957142D01*
X158809523Y-105861904D01*
X158809523Y-105052380D01*
X159809523Y-106052380D02*
X159238095Y-106052380D01*
X159523809Y-106052380D02*
X159523809Y-105052380D01*
X159428571Y-105195238D01*
X159333333Y-105290476D01*
X159238095Y-105338095D01*
X135161904Y-104552380D02*
X135161904Y-103552380D01*
X135400000Y-103552380D01*
X135542857Y-103600000D01*
X135638095Y-103695238D01*
X135685714Y-103790476D01*
X135733333Y-103980952D01*
X135733333Y-104123809D01*
X135685714Y-104314285D01*
X135638095Y-104409523D01*
X135542857Y-104504761D01*
X135400000Y-104552380D01*
X135161904Y-104552380D01*
X136590476Y-103885714D02*
X136590476Y-104552380D01*
X136352380Y-103504761D02*
X136114285Y-104219047D01*
X136733333Y-104219047D01*
X184852380Y-81573333D02*
X185566666Y-81573333D01*
X185709523Y-81620952D01*
X185804761Y-81716190D01*
X185852380Y-81859047D01*
X185852380Y-81954285D01*
X185852380Y-81097142D02*
X184852380Y-81097142D01*
X184852380Y-80716190D01*
X184900000Y-80620952D01*
X184947619Y-80573333D01*
X185042857Y-80525714D01*
X185185714Y-80525714D01*
X185280952Y-80573333D01*
X185328571Y-80620952D01*
X185376190Y-80716190D01*
X185376190Y-81097142D01*
X184947619Y-80144761D02*
X184900000Y-80097142D01*
X184852380Y-80001904D01*
X184852380Y-79763809D01*
X184900000Y-79668571D01*
X184947619Y-79620952D01*
X185042857Y-79573333D01*
X185138095Y-79573333D01*
X185280952Y-79620952D01*
X185852380Y-80192380D01*
X185852380Y-79573333D01*
X156452380Y-99966666D02*
X155976190Y-100300000D01*
X156452380Y-100538095D02*
X155452380Y-100538095D01*
X155452380Y-100157142D01*
X155500000Y-100061904D01*
X155547619Y-100014285D01*
X155642857Y-99966666D01*
X155785714Y-99966666D01*
X155880952Y-100014285D01*
X155928571Y-100061904D01*
X155976190Y-100157142D01*
X155976190Y-100538095D01*
X155785714Y-99109523D02*
X156452380Y-99109523D01*
X155404761Y-99347619D02*
X156119047Y-99585714D01*
X156119047Y-98966666D01*
X122628571Y-89433333D02*
X122628571Y-89766666D01*
X123152380Y-89766666D02*
X122152380Y-89766666D01*
X122152380Y-89290476D01*
X123152380Y-88385714D02*
X123152380Y-88957142D01*
X123152380Y-88671428D02*
X122152380Y-88671428D01*
X122295238Y-88766666D01*
X122390476Y-88861904D01*
X122438095Y-88957142D01*
X128966666Y-82152380D02*
X128966666Y-82866666D01*
X128919047Y-83009523D01*
X128823809Y-83104761D01*
X128680952Y-83152380D01*
X128585714Y-83152380D01*
X129347619Y-82152380D02*
X129966666Y-82152380D01*
X129633333Y-82533333D01*
X129776190Y-82533333D01*
X129871428Y-82580952D01*
X129919047Y-82628571D01*
X129966666Y-82723809D01*
X129966666Y-82961904D01*
X129919047Y-83057142D01*
X129871428Y-83104761D01*
X129776190Y-83152380D01*
X129490476Y-83152380D01*
X129395238Y-83104761D01*
X129347619Y-83057142D01*
X133066666Y-85252380D02*
X133066666Y-85966666D01*
X133019047Y-86109523D01*
X132923809Y-86204761D01*
X132780952Y-86252380D01*
X132685714Y-86252380D01*
X134066666Y-86252380D02*
X133495238Y-86252380D01*
X133780952Y-86252380D02*
X133780952Y-85252380D01*
X133685714Y-85395238D01*
X133590476Y-85490476D01*
X133495238Y-85538095D01*
X183957142Y-86352380D02*
X183623809Y-85876190D01*
X183385714Y-86352380D02*
X183385714Y-85352380D01*
X183766666Y-85352380D01*
X183861904Y-85400000D01*
X183909523Y-85447619D01*
X183957142Y-85542857D01*
X183957142Y-85685714D01*
X183909523Y-85780952D01*
X183861904Y-85828571D01*
X183766666Y-85876190D01*
X183385714Y-85876190D01*
X184909523Y-86352380D02*
X184338095Y-86352380D01*
X184623809Y-86352380D02*
X184623809Y-85352380D01*
X184528571Y-85495238D01*
X184433333Y-85590476D01*
X184338095Y-85638095D01*
X185766666Y-85352380D02*
X185576190Y-85352380D01*
X185480952Y-85400000D01*
X185433333Y-85447619D01*
X185338095Y-85590476D01*
X185290476Y-85780952D01*
X185290476Y-86161904D01*
X185338095Y-86257142D01*
X185385714Y-86304761D01*
X185480952Y-86352380D01*
X185671428Y-86352380D01*
X185766666Y-86304761D01*
X185814285Y-86257142D01*
X185861904Y-86161904D01*
X185861904Y-85923809D01*
X185814285Y-85828571D01*
X185766666Y-85780952D01*
X185671428Y-85733333D01*
X185480952Y-85733333D01*
X185385714Y-85780952D01*
X185338095Y-85828571D01*
X185290476Y-85923809D01*
X157333333Y-94152380D02*
X156857142Y-94152380D01*
X156857142Y-93152380D01*
X157619047Y-93247619D02*
X157666666Y-93200000D01*
X157761904Y-93152380D01*
X158000000Y-93152380D01*
X158095238Y-93200000D01*
X158142857Y-93247619D01*
X158190476Y-93342857D01*
X158190476Y-93438095D01*
X158142857Y-93580952D01*
X157571428Y-94152380D01*
X158190476Y-94152380D01*
M02*
