%TF.GenerationSoftware,KiCad,Pcbnew,(5.0.2)-1*%
%TF.CreationDate,2019-01-19T15:18:41+08:00*%
%TF.ProjectId,TLF35584 breakout,544c4633-3535-4383-9420-627265616b6f,rev?*%
%TF.SameCoordinates,Original*%
%TF.FileFunction,Copper,L1,Top*%
%TF.FilePolarity,Positive*%
%FSLAX46Y46*%
G04 Gerber Fmt 4.6, Leading zero omitted, Abs format (unit mm)*
G04 Created by KiCad (PCBNEW (5.0.2)-1) date 19/01/2019 15:18:41*
%MOMM*%
%LPD*%
G01*
G04 APERTURE LIST*
%ADD10R,1.200000X2.200000*%
%ADD11R,5.800000X6.400000*%
%ADD12R,2.750000X3.050000*%
%ADD13R,2.500000X4.000000*%
%ADD14R,1.250000X1.000000*%
%ADD15R,0.900000X1.200000*%
%ADD16R,1.200000X0.900000*%
%ADD17R,2.300000X2.500000*%
%ADD18R,1.700000X1.700000*%
%ADD19O,1.700000X1.700000*%
%ADD20C,3.000000*%
%ADD21R,0.700000X1.300000*%
%ADD22R,1.300000X0.700000*%
%ADD23R,0.250000X1.000000*%
%ADD24R,1.000000X0.250000*%
%ADD25R,1.300000X1.300000*%
%ADD26R,6.700000X6.700000*%
%ADD27R,3.000000X1.600000*%
%ADD28R,1.000000X3.200000*%
%ADD29C,3.400000*%
%ADD30R,3.000000X3.000000*%
%ADD31R,1.700000X5.700000*%
%ADD32C,0.800000*%
%ADD33C,0.600000*%
%ADD34C,0.250000*%
%ADD35C,1.100000*%
%ADD36C,3.000000*%
%ADD37C,0.800000*%
%ADD38C,1.600000*%
%ADD39C,0.300000*%
%ADD40C,4.000000*%
%ADD41C,0.254000*%
G04 APERTURE END LIST*
D10*
X126320000Y-97875000D03*
X130880000Y-97875000D03*
D11*
X128600000Y-91575000D03*
D12*
X130125000Y-89900000D03*
X127075000Y-93250000D03*
X127075000Y-89900000D03*
X130125000Y-93250000D03*
D13*
X151200000Y-110400000D03*
X151200000Y-104300000D03*
D14*
X162100000Y-87800000D03*
X162100000Y-89800000D03*
X164400000Y-89800000D03*
X164400000Y-87800000D03*
X166700000Y-89800000D03*
X166700000Y-87800000D03*
X168900000Y-89800000D03*
X168900000Y-87800000D03*
X163100000Y-109300000D03*
X163100000Y-111300000D03*
X171100000Y-89800000D03*
X171100000Y-87800000D03*
X173300000Y-89800000D03*
X173300000Y-87800000D03*
D15*
X121400000Y-103600000D03*
X118100000Y-103600000D03*
D16*
X148200000Y-80000000D03*
X148200000Y-83300000D03*
D17*
X119700000Y-111300000D03*
X119700000Y-107000000D03*
D18*
X184600000Y-88600000D03*
D19*
X184600000Y-91140000D03*
X184600000Y-93680000D03*
X184600000Y-96220000D03*
X184600000Y-98760000D03*
X184600000Y-101300000D03*
X184600000Y-103840000D03*
X184600000Y-106380000D03*
X184600000Y-108920000D03*
X184600000Y-111460000D03*
D18*
X177800000Y-89300000D03*
D19*
X177800000Y-86760000D03*
D20*
X144400000Y-91100000D03*
X136500000Y-91100000D03*
D10*
X124520000Y-110000000D03*
X126800000Y-110000000D03*
X129080000Y-110000000D03*
D11*
X126800000Y-103700000D03*
D12*
X128325000Y-102025000D03*
X125275000Y-105375000D03*
X125275000Y-102025000D03*
X128325000Y-105375000D03*
D10*
X148120000Y-94600000D03*
X150400000Y-94600000D03*
X152680000Y-94600000D03*
D11*
X150400000Y-88300000D03*
D12*
X151925000Y-86625000D03*
X148875000Y-89975000D03*
X148875000Y-86625000D03*
X151925000Y-89975000D03*
D21*
X118000000Y-100800000D03*
X119900000Y-100800000D03*
D22*
X151300000Y-81800000D03*
X151300000Y-79900000D03*
X158500000Y-111100000D03*
X158500000Y-109200000D03*
X160800000Y-111100000D03*
X160800000Y-109200000D03*
D21*
X177000000Y-95400000D03*
X178900000Y-95400000D03*
X177000000Y-100200000D03*
X178900000Y-100200000D03*
X177000000Y-97800000D03*
X178900000Y-97800000D03*
X177000000Y-102600000D03*
X178900000Y-102600000D03*
X177000000Y-104900000D03*
X178900000Y-104900000D03*
X177000000Y-107200000D03*
X178900000Y-107200000D03*
X177000000Y-109500000D03*
X178900000Y-109500000D03*
X177000000Y-111800000D03*
X178900000Y-111800000D03*
X177000000Y-93100000D03*
X178900000Y-93100000D03*
D23*
X160550000Y-105200000D03*
X161050000Y-105200000D03*
X161550000Y-105200000D03*
X162050000Y-105200000D03*
X162550000Y-105200000D03*
X163050000Y-105200000D03*
X163550000Y-105200000D03*
X164050000Y-105200000D03*
X164550000Y-105200000D03*
X165050000Y-105200000D03*
X165550000Y-105200000D03*
X166050000Y-105200000D03*
X166550000Y-105200000D03*
X167050000Y-105200000D03*
X167550000Y-105200000D03*
X168050000Y-105200000D03*
D24*
X170000000Y-103250000D03*
X170000000Y-102750000D03*
X170000000Y-102250000D03*
X170000000Y-101750000D03*
X170000000Y-101250000D03*
X170000000Y-100750000D03*
X170000000Y-100250000D03*
X170000000Y-99750000D03*
X170000000Y-99250000D03*
X170000000Y-98750000D03*
X170000000Y-98250000D03*
X170000000Y-97750000D03*
X170000000Y-97250000D03*
X170000000Y-96750000D03*
X170000000Y-96250000D03*
X170000000Y-95750000D03*
D23*
X168050000Y-93800000D03*
X167550000Y-93800000D03*
X167050000Y-93800000D03*
X166550000Y-93800000D03*
X166050000Y-93800000D03*
X165550000Y-93800000D03*
X165050000Y-93800000D03*
X164550000Y-93800000D03*
X164050000Y-93800000D03*
X163550000Y-93800000D03*
X163050000Y-93800000D03*
X162550000Y-93800000D03*
X162050000Y-93800000D03*
X161550000Y-93800000D03*
X161050000Y-93800000D03*
X160550000Y-93800000D03*
D24*
X158600000Y-95750000D03*
X158600000Y-96250000D03*
X158600000Y-96750000D03*
X158600000Y-97250000D03*
X158600000Y-97750000D03*
X158600000Y-98250000D03*
X158600000Y-98750000D03*
X158600000Y-99250000D03*
X158600000Y-99750000D03*
X158600000Y-100250000D03*
X158600000Y-100750000D03*
X158600000Y-101250000D03*
X158600000Y-101750000D03*
X158600000Y-102250000D03*
X158600000Y-102750000D03*
X158600000Y-103250000D03*
D25*
X161700000Y-102100000D03*
X161700000Y-100800000D03*
X161700000Y-99500000D03*
X161700000Y-98200000D03*
X161700000Y-96900000D03*
X163000000Y-102100000D03*
X163000000Y-100800000D03*
X163000000Y-99500000D03*
X163000000Y-98200000D03*
X163000000Y-96900000D03*
X164300000Y-102100000D03*
X164300000Y-100800000D03*
X164300000Y-99500000D03*
X164300000Y-98200000D03*
X164300000Y-96900000D03*
X165600000Y-102100000D03*
X165600000Y-100800000D03*
X165600000Y-99500000D03*
X165600000Y-98200000D03*
X165600000Y-96900000D03*
X166900000Y-102100000D03*
X166900000Y-100800000D03*
X166900000Y-99500000D03*
X166900000Y-98200000D03*
X166900000Y-96900000D03*
D26*
X142650000Y-108200000D03*
D27*
X134800000Y-110480000D03*
X134800000Y-105900000D03*
D18*
X183300000Y-80600000D03*
D19*
X183300000Y-83140000D03*
D28*
X148400000Y-99800000D03*
X154600000Y-99800000D03*
D29*
X118200000Y-82100000D03*
X122000000Y-82100000D03*
X118200000Y-96100000D03*
X122000000Y-96100000D03*
D18*
X130600000Y-80500000D03*
D19*
X128060000Y-80500000D03*
D18*
X155500000Y-80600000D03*
D19*
X158040000Y-80600000D03*
X160580000Y-80600000D03*
X163120000Y-80600000D03*
X165660000Y-80600000D03*
X168200000Y-80600000D03*
X170740000Y-80600000D03*
X173280000Y-80600000D03*
X175820000Y-80600000D03*
X178360000Y-80600000D03*
D30*
X131880000Y-82800000D03*
D20*
X126800000Y-82800000D03*
D21*
X182600000Y-85900000D03*
X180700000Y-85900000D03*
D31*
X159750000Y-89650000D03*
X155250000Y-89650000D03*
D32*
X168100000Y-107300000D03*
X169200000Y-107300000D03*
X172200000Y-96400000D03*
X172145182Y-95312909D03*
X174400000Y-98800000D03*
X173387056Y-100030074D03*
D33*
X164200000Y-101700000D03*
X166200000Y-101700000D03*
X166200000Y-99700000D03*
X164200000Y-99700000D03*
X162200000Y-99700000D03*
X166200000Y-97700000D03*
X162200000Y-97700000D03*
X164200000Y-97700000D03*
D32*
X162100000Y-86400000D03*
X164400000Y-86400000D03*
X166700000Y-86400000D03*
X168900000Y-86400000D03*
X171100000Y-86300000D03*
X170700000Y-110500000D03*
X156900000Y-84400000D03*
X122700000Y-100600000D03*
X122600000Y-107500000D03*
X150400000Y-97000000D03*
X156600000Y-107400000D03*
X171400000Y-94100000D03*
X153500000Y-83800000D03*
X173421509Y-97421509D03*
D33*
X162200000Y-101700000D03*
D32*
X146500000Y-99800000D03*
X148400000Y-102800000D03*
X164200000Y-108000000D03*
X155500000Y-84900000D03*
X175800000Y-94200000D03*
X171100000Y-91200000D03*
X133000000Y-101900000D03*
X122800000Y-110700000D03*
X160800000Y-112200000D03*
X158500000Y-112200000D03*
X156200000Y-105300000D03*
X148100000Y-96800000D03*
X157000000Y-104100000D03*
X153800000Y-102300000D03*
X180100000Y-100200000D03*
X180100000Y-94300000D03*
D34*
X167550000Y-105200000D02*
X167550000Y-106750000D01*
X167550000Y-106750000D02*
X168100000Y-107300000D01*
X168050000Y-105200000D02*
X168050000Y-106150000D01*
X168050000Y-106150000D02*
X169200000Y-107300000D01*
X170000000Y-96750000D02*
X171850000Y-96750000D01*
X171850000Y-96750000D02*
X172200000Y-96400000D01*
X170000000Y-99750000D02*
X171195878Y-99750000D01*
X171195878Y-99750000D02*
X172242880Y-99750000D01*
X170000000Y-96250000D02*
X171208091Y-96250000D01*
X171208091Y-96250000D02*
X172145182Y-95312909D01*
X173125000Y-98750000D02*
X173542880Y-98750000D01*
X170000000Y-98750000D02*
X173125000Y-98750000D01*
X173542880Y-98750000D02*
X174150000Y-98750000D01*
X174150000Y-98750000D02*
X174200000Y-98800000D01*
X174150000Y-98750000D02*
X174350000Y-98750000D01*
X174350000Y-98750000D02*
X174400000Y-98800000D01*
X172242880Y-99750000D02*
X173106982Y-99750000D01*
X173106982Y-99750000D02*
X173387056Y-100030074D01*
X163300000Y-111100000D02*
X163100000Y-111300000D01*
X161750000Y-102050000D02*
X162200000Y-102050000D01*
X162100000Y-87800000D02*
X162100000Y-86400000D01*
X164400000Y-87800000D02*
X164400000Y-86400000D01*
X166700000Y-87800000D02*
X166700000Y-86400000D01*
X168900000Y-87800000D02*
X168900000Y-86400000D01*
X171100000Y-87800000D02*
X171100000Y-86300000D01*
X158600000Y-96750000D02*
X159650000Y-96750000D01*
X158600000Y-97250000D02*
X159550000Y-97250000D01*
X161050000Y-105200000D02*
X160550000Y-105200000D01*
X170000000Y-95750000D02*
X170750000Y-95750000D01*
X171400000Y-95100000D02*
X171400000Y-94100000D01*
X170750000Y-95750000D02*
X171400000Y-95100000D01*
X170000000Y-97750000D02*
X173093018Y-97750000D01*
X173093018Y-97750000D02*
X173421509Y-97421509D01*
X165550000Y-105200000D02*
X165550000Y-104050000D01*
X166050000Y-105200000D02*
X166050000Y-104150000D01*
X166550000Y-105200000D02*
X166550000Y-104150000D01*
X167050000Y-93800000D02*
X167050000Y-94950000D01*
X166550000Y-93800000D02*
X166550000Y-94850000D01*
X162200000Y-102050000D02*
X162500000Y-102050000D01*
X158600000Y-96250000D02*
X159650000Y-96250000D01*
X157549999Y-100750000D02*
X157299999Y-101000000D01*
X158600000Y-100750000D02*
X157549999Y-100750000D01*
X157549999Y-101250000D02*
X157299999Y-101000000D01*
X158600000Y-101250000D02*
X157549999Y-101250000D01*
D35*
X156400000Y-101899999D02*
X157299999Y-101000000D01*
X153550000Y-110400000D02*
X154600000Y-109350000D01*
X151200000Y-110400000D02*
X153550000Y-110400000D01*
X154600000Y-103699999D02*
X156400000Y-101899999D01*
X154600000Y-109350000D02*
X154600000Y-103699999D01*
D34*
X162550000Y-105200000D02*
X162550000Y-104350000D01*
X162550000Y-104350000D02*
X162100000Y-103900000D01*
X162100000Y-103900000D02*
X160900000Y-103900000D01*
X160900000Y-103900000D02*
X159900000Y-102900000D01*
X159900000Y-102900000D02*
X159900000Y-101700000D01*
X159450000Y-101250000D02*
X158600000Y-101250000D01*
X159900000Y-101700000D02*
X159450000Y-101250000D01*
D36*
X144850000Y-110400000D02*
X142650000Y-108200000D01*
X151200000Y-110400000D02*
X144850000Y-110400000D01*
D35*
X160400000Y-92500000D02*
X161100000Y-92500000D01*
D34*
X161050000Y-92550000D02*
X161100000Y-92500000D01*
X161050000Y-93800000D02*
X161050000Y-92550000D01*
X161550000Y-93050000D02*
X161050000Y-92550000D01*
X161550000Y-93800000D02*
X161550000Y-93050000D01*
X160550000Y-92650000D02*
X160400000Y-92500000D01*
X160550000Y-93800000D02*
X160550000Y-92650000D01*
D35*
X158600000Y-92200000D02*
X158600000Y-94800000D01*
D34*
X158600000Y-95750000D02*
X158600000Y-94800000D01*
D35*
X160125000Y-89800000D02*
X159975000Y-89650000D01*
X162100000Y-89800000D02*
X160125000Y-89800000D01*
X159500000Y-91300000D02*
X159500000Y-89650000D01*
X158600000Y-92200000D02*
X159500000Y-91300000D01*
X159500000Y-91600000D02*
X159500000Y-89650000D01*
X160400000Y-92500000D02*
X159500000Y-91600000D01*
X158040000Y-84990000D02*
X158040000Y-80600000D01*
X159500000Y-89650000D02*
X159500000Y-86450000D01*
X159500000Y-86450000D02*
X158040000Y-84990000D01*
D34*
X162050000Y-93800000D02*
X162050000Y-93050000D01*
X164400000Y-90700000D02*
X164400000Y-89800000D01*
X162550000Y-93050000D02*
X162300000Y-92800000D01*
X162550000Y-93800000D02*
X162550000Y-93050000D01*
X162050000Y-93050000D02*
X162300000Y-92800000D01*
X162300000Y-92800000D02*
X164400000Y-90700000D01*
X161429999Y-81449999D02*
X160580000Y-80600000D01*
X163100001Y-83120001D02*
X161429999Y-81449999D01*
X163100001Y-88625001D02*
X163100001Y-83120001D01*
X164275000Y-89800000D02*
X163100001Y-88625001D01*
X164400000Y-89800000D02*
X164275000Y-89800000D01*
X165825000Y-90550000D02*
X166575000Y-89800000D01*
X165450002Y-90550000D02*
X165825000Y-90550000D01*
X163050000Y-93800000D02*
X163050000Y-92950002D01*
X163300000Y-92800000D02*
X163200002Y-92800000D01*
X163550000Y-93050000D02*
X163300000Y-92800000D01*
X163550000Y-93800000D02*
X163550000Y-93050000D01*
X163050000Y-92950002D02*
X163200002Y-92800000D01*
X163200002Y-92800000D02*
X165450002Y-90550000D01*
X163969999Y-81449999D02*
X163120000Y-80600000D01*
X165400001Y-82880001D02*
X163969999Y-81449999D01*
X165400001Y-88625001D02*
X165400001Y-82880001D01*
X166575000Y-89800000D02*
X165400001Y-88625001D01*
X166700000Y-89800000D02*
X166575000Y-89800000D01*
X167399989Y-91175011D02*
X168775000Y-89800000D01*
X164050000Y-93800000D02*
X164050000Y-92750000D01*
X165624989Y-91175011D02*
X167399989Y-91175011D01*
X164050000Y-92750000D02*
X165624989Y-91175011D01*
X166509999Y-81449999D02*
X165660000Y-80600000D01*
X167700001Y-82640001D02*
X166509999Y-81449999D01*
X167700001Y-88725001D02*
X167700001Y-82640001D01*
X168775000Y-89800000D02*
X167700001Y-88725001D01*
X168900000Y-89800000D02*
X168775000Y-89800000D01*
X165050000Y-105200000D02*
X165050000Y-105950000D01*
X163100000Y-107900000D02*
X163100000Y-109300000D01*
X163600000Y-107400000D02*
X164200000Y-108000000D01*
X163600000Y-107400000D02*
X163100000Y-107900000D01*
X165050000Y-105950000D02*
X163600000Y-107400000D01*
X155500000Y-84334315D02*
X155500000Y-80600000D01*
X155500000Y-84900000D02*
X155500000Y-84334315D01*
X169099979Y-91675021D02*
X170975000Y-89800000D01*
X165924979Y-91675021D02*
X169099979Y-91675021D01*
X164550000Y-93800000D02*
X164550000Y-93050000D01*
X165050000Y-93050000D02*
X164800000Y-92800000D01*
X165050000Y-93800000D02*
X165050000Y-93050000D01*
X164550000Y-93050000D02*
X164800000Y-92800000D01*
X164800000Y-92800000D02*
X165924979Y-91675021D01*
X169049999Y-81449999D02*
X168200000Y-80600000D01*
X169900001Y-82300001D02*
X169049999Y-81449999D01*
X169900001Y-88725001D02*
X169900001Y-82300001D01*
X170975000Y-89800000D02*
X169900001Y-88725001D01*
X171100000Y-89800000D02*
X170975000Y-89800000D01*
X177000000Y-93100000D02*
X176900000Y-93100000D01*
X176900000Y-93100000D02*
X175800000Y-94200000D01*
X171100000Y-91200000D02*
X171100000Y-89800000D01*
X173175000Y-89800000D02*
X173300000Y-89800000D01*
X173300000Y-89800000D02*
X174175000Y-89800000D01*
X170740000Y-80600000D02*
X170740000Y-82240000D01*
X170740000Y-82240000D02*
X174800000Y-86300000D01*
X173300000Y-91400000D02*
X173300000Y-89800000D01*
X172524969Y-92175031D02*
X173300000Y-91400000D01*
X166424969Y-92175031D02*
X172524969Y-92175031D01*
X165550000Y-93800000D02*
X165550000Y-93050000D01*
X165550000Y-93050000D02*
X166424969Y-92175031D01*
X174175000Y-89800000D02*
X175200000Y-88775000D01*
X175200000Y-86000000D02*
X176325001Y-84874999D01*
X181565001Y-84874999D02*
X183300000Y-83140000D01*
X176325001Y-84874999D02*
X181565001Y-84874999D01*
X174800000Y-86300000D02*
X175200000Y-86300000D01*
X175200000Y-88775000D02*
X175200000Y-86300000D01*
X175200000Y-86300000D02*
X175200000Y-86000000D01*
X120500000Y-100800000D02*
X119900000Y-100800000D01*
X121400000Y-102750000D02*
X121400000Y-100800000D01*
X121400000Y-103600000D02*
X121400000Y-102750000D01*
X121400000Y-100800000D02*
X120500000Y-100800000D01*
X124325000Y-97875000D02*
X126320000Y-97875000D01*
X121400000Y-100800000D02*
X124325000Y-97875000D01*
X151300000Y-81800000D02*
X151000000Y-81800000D01*
X149500000Y-83300000D02*
X148200000Y-83300000D01*
X151000000Y-81800000D02*
X149500000Y-83300000D01*
X147350000Y-83300000D02*
X140600000Y-90050000D01*
X148200000Y-83300000D02*
X147350000Y-83300000D01*
X140600000Y-90050000D02*
X140600000Y-94280000D01*
X140600000Y-94280000D02*
X133000000Y-101880000D01*
X133000000Y-101880000D02*
X133000000Y-101900000D01*
X122800000Y-110700000D02*
X123500000Y-110000000D01*
X123500000Y-110000000D02*
X124520000Y-110000000D01*
D37*
X129080000Y-111900000D02*
X129080000Y-110000000D01*
X128580000Y-112400000D02*
X129080000Y-111900000D01*
X122750000Y-112400000D02*
X128580000Y-112400000D01*
X121650000Y-111300000D02*
X122750000Y-112400000D01*
X119700000Y-111300000D02*
X121650000Y-111300000D01*
D38*
X136500000Y-96200000D02*
X136500000Y-91100000D01*
X131280000Y-101420000D02*
X136500000Y-96200000D01*
X131280000Y-107300000D02*
X131280000Y-101420000D01*
X129080000Y-110000000D02*
X129080000Y-109500000D01*
X129080000Y-109500000D02*
X131280000Y-107300000D01*
D39*
X148200000Y-80000000D02*
X145200000Y-80000000D01*
X136500000Y-88700000D02*
X136500000Y-91100000D01*
X145200000Y-80000000D02*
X136500000Y-88700000D01*
D34*
X150400000Y-93250000D02*
X150400000Y-88300000D01*
X150400000Y-94600000D02*
X150400000Y-93250000D01*
D40*
X144400000Y-91100000D02*
X147300000Y-88200000D01*
X150300000Y-88200000D02*
X150400000Y-88300000D01*
X147300000Y-88200000D02*
X150300000Y-88200000D01*
X134800000Y-104200000D02*
X134800000Y-110480000D01*
X144400000Y-91100000D02*
X144400000Y-94600000D01*
X144400000Y-94600000D02*
X134800000Y-104200000D01*
D38*
X119300000Y-82600000D02*
X120300000Y-81600000D01*
X118200000Y-82100000D02*
X122000000Y-82100000D01*
X126100000Y-82100000D02*
X126800000Y-82800000D01*
X122000000Y-82100000D02*
X126100000Y-82100000D01*
X126800000Y-81760000D02*
X128060000Y-80500000D01*
X126800000Y-82800000D02*
X126800000Y-81760000D01*
D34*
X120300000Y-96000000D02*
X120300000Y-97000000D01*
X121125000Y-95175000D02*
X120300000Y-96000000D01*
X118400000Y-97000000D02*
X118400000Y-95400000D01*
D38*
X122000000Y-96100000D02*
X118200000Y-96100000D01*
D34*
X118000000Y-96300000D02*
X118200000Y-96100000D01*
X118000000Y-100800000D02*
X118000000Y-96300000D01*
D38*
X124100000Y-91575000D02*
X128600000Y-91575000D01*
X122425000Y-91575000D02*
X124100000Y-91575000D01*
X122000000Y-92000000D02*
X122425000Y-91575000D01*
X122000000Y-96100000D02*
X122000000Y-92000000D01*
D34*
X184260000Y-111800000D02*
X184600000Y-111460000D01*
X178900000Y-111800000D02*
X184260000Y-111800000D01*
X184020000Y-109500000D02*
X184600000Y-108920000D01*
X178900000Y-109500000D02*
X184020000Y-109500000D01*
X183780000Y-107200000D02*
X184600000Y-106380000D01*
X178900000Y-107200000D02*
X183780000Y-107200000D01*
X183540000Y-104900000D02*
X184600000Y-103840000D01*
X178900000Y-104900000D02*
X183540000Y-104900000D01*
X183640000Y-97800000D02*
X184600000Y-98760000D01*
X178900000Y-97800000D02*
X183640000Y-97800000D01*
X180320000Y-96220000D02*
X184600000Y-96220000D01*
X178900000Y-95400000D02*
X179500000Y-95400000D01*
X179500000Y-95400000D02*
X180320000Y-96220000D01*
X160800000Y-111100000D02*
X160800000Y-112200000D01*
X158500000Y-111100000D02*
X158500000Y-112200000D01*
X170000000Y-97250000D02*
X170750000Y-97250000D01*
X177800000Y-90400000D02*
X177800000Y-89300000D01*
X172497002Y-97250000D02*
X173000000Y-96747002D01*
X170000000Y-97250000D02*
X172497002Y-97250000D01*
X173000000Y-96747002D02*
X173000000Y-94500000D01*
X173000000Y-94500000D02*
X176500000Y-91000000D01*
X176500000Y-91000000D02*
X177200000Y-91000000D01*
X177200000Y-91000000D02*
X177800000Y-90400000D01*
X157850000Y-98750000D02*
X158600000Y-98750000D01*
X157450001Y-98750001D02*
X157850000Y-98750000D01*
X157299999Y-98599999D02*
X157450001Y-98750001D01*
X157350000Y-99250000D02*
X157299999Y-99199999D01*
X158600000Y-99250000D02*
X157350000Y-99250000D01*
D35*
X157299999Y-98599999D02*
X157299999Y-99199999D01*
X155250000Y-96550000D02*
X155250000Y-89650000D01*
X157299999Y-98599999D02*
X155250000Y-96550000D01*
D38*
X128325000Y-98900000D02*
X128325000Y-102025000D01*
X129350000Y-97875000D02*
X128325000Y-98900000D01*
X130880000Y-97875000D02*
X129350000Y-97875000D01*
D39*
X126800000Y-110000000D02*
X126800000Y-103700000D01*
D34*
X158600000Y-102750000D02*
X157150000Y-102750000D01*
X157150000Y-102750000D02*
X156200000Y-103700000D01*
X156200000Y-103700000D02*
X156200000Y-105300000D01*
X148100000Y-94620000D02*
X148120000Y-94600000D01*
X148100000Y-96800000D02*
X148100000Y-94620000D01*
D38*
X152680000Y-97880000D02*
X154600000Y-99800000D01*
X152680000Y-94600000D02*
X152680000Y-97880000D01*
D34*
X158600000Y-103250000D02*
X157850000Y-103250000D01*
X157850000Y-103250000D02*
X157000000Y-104100000D01*
X154600000Y-101500000D02*
X154600000Y-99800000D01*
X153800000Y-102300000D02*
X154600000Y-101500000D01*
X163550000Y-105200000D02*
X163550000Y-105950000D01*
X163550000Y-105950000D02*
X163100000Y-106400000D01*
X163100000Y-106400000D02*
X160400000Y-106400000D01*
X158500000Y-108300000D02*
X158500000Y-109200000D01*
X160400000Y-106400000D02*
X158500000Y-108300000D01*
X160800000Y-109200000D02*
X160800000Y-108807120D01*
X164050000Y-106157120D02*
X163307110Y-106900010D01*
X164050000Y-105200000D02*
X164050000Y-106157120D01*
X163307110Y-106900010D02*
X161699990Y-106900010D01*
X160800000Y-107800000D02*
X160800000Y-109200000D01*
X161699990Y-106900010D02*
X160800000Y-107800000D01*
X176200000Y-95400000D02*
X177000000Y-95400000D01*
X175747002Y-95400000D02*
X176200000Y-95400000D01*
X170000000Y-99250000D02*
X173702998Y-99250000D01*
X173702998Y-99250000D02*
X174052998Y-99600000D01*
X174052998Y-99600000D02*
X174747002Y-99600000D01*
X174747002Y-99600000D02*
X175200000Y-99147002D01*
X175200000Y-99147002D02*
X175200000Y-95947002D01*
X175200000Y-95947002D02*
X175747002Y-95400000D01*
X172242880Y-100750000D02*
X172892880Y-101400000D01*
X170000000Y-100750000D02*
X172242880Y-100750000D01*
X176400000Y-100200000D02*
X177000000Y-100200000D01*
X175200000Y-101400000D02*
X176400000Y-100200000D01*
X172892880Y-101400000D02*
X175200000Y-101400000D01*
X177000000Y-98100000D02*
X177000000Y-97800000D01*
X174294925Y-100805075D02*
X177000000Y-98100000D01*
X173005075Y-100805075D02*
X174294925Y-100805075D01*
X172450000Y-100250000D02*
X173005075Y-100805075D01*
X170000000Y-100250000D02*
X172450000Y-100250000D01*
X175800000Y-102600000D02*
X177000000Y-102600000D01*
X175100000Y-101900000D02*
X175800000Y-102600000D01*
X172685760Y-101900000D02*
X175100000Y-101900000D01*
X170000000Y-101250000D02*
X172035760Y-101250000D01*
X172035760Y-101250000D02*
X172685760Y-101900000D01*
X176400000Y-104900000D02*
X177000000Y-104900000D01*
X174978640Y-104900000D02*
X176400000Y-104900000D01*
X171828640Y-101750000D02*
X174978640Y-104900000D01*
X170000000Y-101750000D02*
X171828640Y-101750000D01*
X176000000Y-107200000D02*
X177000000Y-107200000D01*
X175871520Y-107200000D02*
X176000000Y-107200000D01*
X174900000Y-106228480D02*
X175871520Y-107200000D01*
X174900000Y-105528480D02*
X174900000Y-106228480D01*
X170000000Y-102250000D02*
X171621520Y-102250000D01*
X171621520Y-102250000D02*
X174900000Y-105528480D01*
X170750000Y-102750000D02*
X174300000Y-106300000D01*
X170000000Y-102750000D02*
X170750000Y-102750000D01*
X174300000Y-106300000D02*
X174300000Y-107900000D01*
X175900000Y-109500000D02*
X177000000Y-109500000D01*
X174300000Y-107900000D02*
X175900000Y-109500000D01*
X176400000Y-111800000D02*
X177000000Y-111800000D01*
X170000000Y-105400000D02*
X176400000Y-111800000D01*
X170000000Y-103250000D02*
X170000000Y-105400000D01*
X183300000Y-102600000D02*
X184600000Y-101300000D01*
X178900000Y-102600000D02*
X183300000Y-102600000D01*
X180100000Y-93100000D02*
X184600000Y-88600000D01*
X178900000Y-93100000D02*
X180100000Y-93100000D01*
X178900000Y-100200000D02*
X180100000Y-100200000D01*
X180100000Y-94300000D02*
X180100000Y-93100000D01*
X183300000Y-80760000D02*
X184400000Y-80760000D01*
X184400000Y-80760000D02*
X185000000Y-81360000D01*
X185000000Y-81360000D02*
X185000000Y-84800000D01*
X183500000Y-86200000D02*
X183500000Y-86300000D01*
X183200000Y-85900000D02*
X183500000Y-86200000D01*
X182600000Y-85900000D02*
X183200000Y-85900000D01*
X185000000Y-84800000D02*
X183500000Y-86300000D01*
X182400000Y-88800000D02*
X182400000Y-87400000D01*
X170000000Y-98250000D02*
X173750000Y-98250000D01*
X173750000Y-98250000D02*
X174196510Y-97803490D01*
X174196510Y-97803490D02*
X174196510Y-94103490D01*
X174196510Y-94103490D02*
X176800000Y-91500000D01*
X182400000Y-87400000D02*
X183500000Y-86300000D01*
X176800000Y-91500000D02*
X179700000Y-91500000D01*
X179700000Y-91500000D02*
X182400000Y-88800000D01*
D41*
G36*
X160080554Y-104155355D02*
X160065301Y-104161673D01*
X159886673Y-104340302D01*
X159790000Y-104573691D01*
X159790000Y-104914250D01*
X159948750Y-105073000D01*
X160675000Y-105073000D01*
X160675000Y-105327000D01*
X159948750Y-105327000D01*
X159790000Y-105485750D01*
X159790000Y-105826309D01*
X159820341Y-105899558D01*
X159809671Y-105915527D01*
X158015530Y-107709669D01*
X157952071Y-107752071D01*
X157784096Y-108003464D01*
X157740147Y-108224411D01*
X157602235Y-108251843D01*
X157392191Y-108392191D01*
X157251843Y-108602235D01*
X157202560Y-108850000D01*
X157202560Y-109550000D01*
X157251843Y-109797765D01*
X157392191Y-110007809D01*
X157602235Y-110148157D01*
X157611500Y-110150000D01*
X157602235Y-110151843D01*
X157392191Y-110292191D01*
X157251843Y-110502235D01*
X157202560Y-110750000D01*
X157202560Y-111450000D01*
X157251843Y-111697765D01*
X157392191Y-111907809D01*
X157477220Y-111964624D01*
X157465000Y-111994126D01*
X157465000Y-112405874D01*
X157622569Y-112786280D01*
X157851289Y-113015000D01*
X152613089Y-113015000D01*
X152697765Y-112998157D01*
X152907809Y-112857809D01*
X153048157Y-112647765D01*
X153097440Y-112400000D01*
X153097440Y-111585000D01*
X153433294Y-111585000D01*
X153550000Y-111608214D01*
X153666706Y-111585000D01*
X153666710Y-111585000D01*
X154012364Y-111516245D01*
X154404337Y-111254337D01*
X154470450Y-111155393D01*
X155355395Y-110270448D01*
X155454337Y-110204337D01*
X155716245Y-109812364D01*
X155785000Y-109466710D01*
X155785000Y-109466705D01*
X155808214Y-109350001D01*
X155785000Y-109233296D01*
X155785000Y-106248377D01*
X155994126Y-106335000D01*
X156405874Y-106335000D01*
X156786280Y-106177431D01*
X157077431Y-105886280D01*
X157235000Y-105505874D01*
X157235000Y-105122936D01*
X157586280Y-104977431D01*
X157877431Y-104686280D01*
X158035000Y-104305874D01*
X158035000Y-104139802D01*
X158152362Y-104022440D01*
X159100000Y-104022440D01*
X159347765Y-103973157D01*
X159557809Y-103832809D01*
X159637998Y-103712799D01*
X160080554Y-104155355D01*
X160080554Y-104155355D01*
G37*
X160080554Y-104155355D02*
X160065301Y-104161673D01*
X159886673Y-104340302D01*
X159790000Y-104573691D01*
X159790000Y-104914250D01*
X159948750Y-105073000D01*
X160675000Y-105073000D01*
X160675000Y-105327000D01*
X159948750Y-105327000D01*
X159790000Y-105485750D01*
X159790000Y-105826309D01*
X159820341Y-105899558D01*
X159809671Y-105915527D01*
X158015530Y-107709669D01*
X157952071Y-107752071D01*
X157784096Y-108003464D01*
X157740147Y-108224411D01*
X157602235Y-108251843D01*
X157392191Y-108392191D01*
X157251843Y-108602235D01*
X157202560Y-108850000D01*
X157202560Y-109550000D01*
X157251843Y-109797765D01*
X157392191Y-110007809D01*
X157602235Y-110148157D01*
X157611500Y-110150000D01*
X157602235Y-110151843D01*
X157392191Y-110292191D01*
X157251843Y-110502235D01*
X157202560Y-110750000D01*
X157202560Y-111450000D01*
X157251843Y-111697765D01*
X157392191Y-111907809D01*
X157477220Y-111964624D01*
X157465000Y-111994126D01*
X157465000Y-112405874D01*
X157622569Y-112786280D01*
X157851289Y-113015000D01*
X152613089Y-113015000D01*
X152697765Y-112998157D01*
X152907809Y-112857809D01*
X153048157Y-112647765D01*
X153097440Y-112400000D01*
X153097440Y-111585000D01*
X153433294Y-111585000D01*
X153550000Y-111608214D01*
X153666706Y-111585000D01*
X153666710Y-111585000D01*
X154012364Y-111516245D01*
X154404337Y-111254337D01*
X154470450Y-111155393D01*
X155355395Y-110270448D01*
X155454337Y-110204337D01*
X155716245Y-109812364D01*
X155785000Y-109466710D01*
X155785000Y-109466705D01*
X155808214Y-109350001D01*
X155785000Y-109233296D01*
X155785000Y-106248377D01*
X155994126Y-106335000D01*
X156405874Y-106335000D01*
X156786280Y-106177431D01*
X157077431Y-105886280D01*
X157235000Y-105505874D01*
X157235000Y-105122936D01*
X157586280Y-104977431D01*
X157877431Y-104686280D01*
X158035000Y-104305874D01*
X158035000Y-104139802D01*
X158152362Y-104022440D01*
X159100000Y-104022440D01*
X159347765Y-103973157D01*
X159557809Y-103832809D01*
X159637998Y-103712799D01*
X160080554Y-104155355D01*
G36*
X176528355Y-85993076D02*
X176358524Y-86403110D01*
X176479845Y-86633000D01*
X177673000Y-86633000D01*
X177673000Y-86613000D01*
X177927000Y-86613000D01*
X177927000Y-86633000D01*
X179120155Y-86633000D01*
X179241476Y-86403110D01*
X179151449Y-86185750D01*
X179715000Y-86185750D01*
X179715000Y-86676310D01*
X179811673Y-86909699D01*
X179990302Y-87088327D01*
X180223691Y-87185000D01*
X180414250Y-87185000D01*
X180573000Y-87026250D01*
X180573000Y-86027000D01*
X179873750Y-86027000D01*
X179715000Y-86185750D01*
X179151449Y-86185750D01*
X179071645Y-85993076D01*
X178745317Y-85634999D01*
X179735749Y-85634999D01*
X179873750Y-85773000D01*
X180573000Y-85773000D01*
X180573000Y-85753000D01*
X180827000Y-85753000D01*
X180827000Y-85773000D01*
X180847000Y-85773000D01*
X180847000Y-86027000D01*
X180827000Y-86027000D01*
X180827000Y-87026250D01*
X180985750Y-87185000D01*
X181176309Y-87185000D01*
X181409698Y-87088327D01*
X181588327Y-86909699D01*
X181646279Y-86769791D01*
X181651843Y-86797765D01*
X181770101Y-86974749D01*
X181684097Y-87103463D01*
X181625112Y-87400000D01*
X181640001Y-87474851D01*
X181640000Y-88485198D01*
X179385199Y-90740000D01*
X178909973Y-90740000D01*
X179107809Y-90607809D01*
X179248157Y-90397765D01*
X179297440Y-90150000D01*
X179297440Y-88450000D01*
X179248157Y-88202235D01*
X179107809Y-87992191D01*
X178897765Y-87851843D01*
X178794292Y-87831261D01*
X179071645Y-87526924D01*
X179241476Y-87116890D01*
X179120155Y-86887000D01*
X177927000Y-86887000D01*
X177927000Y-86907000D01*
X177673000Y-86907000D01*
X177673000Y-86887000D01*
X176479845Y-86887000D01*
X176358524Y-87116890D01*
X176528355Y-87526924D01*
X176805708Y-87831261D01*
X176702235Y-87851843D01*
X176492191Y-87992191D01*
X176351843Y-88202235D01*
X176302560Y-88450000D01*
X176302560Y-90150000D01*
X176324446Y-90260031D01*
X176203463Y-90284096D01*
X176203461Y-90284097D01*
X176203462Y-90284097D01*
X176015526Y-90409671D01*
X176015524Y-90409673D01*
X175952071Y-90452071D01*
X175909673Y-90515524D01*
X172515528Y-93909671D01*
X172452072Y-93952071D01*
X172409672Y-94015527D01*
X172409671Y-94015528D01*
X172284097Y-94203463D01*
X172269289Y-94277909D01*
X171939308Y-94277909D01*
X171558902Y-94435478D01*
X171267751Y-94726629D01*
X171110182Y-95107035D01*
X171110182Y-95273108D01*
X171061659Y-95321630D01*
X171038327Y-95265301D01*
X170859698Y-95086673D01*
X170626309Y-94990000D01*
X170285750Y-94990000D01*
X170127000Y-95148750D01*
X170127000Y-95477560D01*
X169873000Y-95477560D01*
X169873000Y-95148750D01*
X169714250Y-94990000D01*
X169373691Y-94990000D01*
X169140302Y-95086673D01*
X168961673Y-95265301D01*
X168865000Y-95498690D01*
X168865000Y-95528750D01*
X169023750Y-95687500D01*
X169028621Y-95687500D01*
X168901843Y-95877235D01*
X168887647Y-95948603D01*
X168865000Y-95971250D01*
X168865000Y-96001310D01*
X168873217Y-96021148D01*
X168852560Y-96125000D01*
X168852560Y-96375000D01*
X168877424Y-96500000D01*
X168852560Y-96625000D01*
X168852560Y-96875000D01*
X168877424Y-97000000D01*
X168852560Y-97125000D01*
X168852560Y-97375000D01*
X168873217Y-97478852D01*
X168865000Y-97498690D01*
X168865000Y-97528750D01*
X168887647Y-97551397D01*
X168901843Y-97622765D01*
X168986859Y-97750000D01*
X168901843Y-97877235D01*
X168887647Y-97948603D01*
X168865000Y-97971250D01*
X168865000Y-98001310D01*
X168873217Y-98021148D01*
X168852560Y-98125000D01*
X168852560Y-98375000D01*
X168877424Y-98500000D01*
X168852560Y-98625000D01*
X168852560Y-98875000D01*
X168877424Y-99000000D01*
X168852560Y-99125000D01*
X168852560Y-99375000D01*
X168877424Y-99500000D01*
X168852560Y-99625000D01*
X168852560Y-99875000D01*
X168877424Y-100000000D01*
X168852560Y-100125000D01*
X168852560Y-100375000D01*
X168877424Y-100500000D01*
X168852560Y-100625000D01*
X168852560Y-100875000D01*
X168877424Y-101000000D01*
X168852560Y-101125000D01*
X168852560Y-101375000D01*
X168877424Y-101500000D01*
X168852560Y-101625000D01*
X168852560Y-101875000D01*
X168877424Y-102000000D01*
X168852560Y-102125000D01*
X168852560Y-102375000D01*
X168877424Y-102500000D01*
X168852560Y-102625000D01*
X168852560Y-102875000D01*
X168877424Y-103000000D01*
X168852560Y-103125000D01*
X168852560Y-103375000D01*
X168901843Y-103622765D01*
X169042191Y-103832809D01*
X169240000Y-103964982D01*
X169240001Y-105325148D01*
X169225112Y-105400000D01*
X169240001Y-105474852D01*
X169265911Y-105605112D01*
X169284097Y-105696537D01*
X169388952Y-105853463D01*
X169452072Y-105947929D01*
X169515528Y-105990329D01*
X175809671Y-112284473D01*
X175852071Y-112347929D01*
X175915527Y-112390329D01*
X176002560Y-112448483D01*
X176002560Y-112450000D01*
X176051843Y-112697765D01*
X176192191Y-112907809D01*
X176352612Y-113015000D01*
X161448711Y-113015000D01*
X161677431Y-112786280D01*
X161835000Y-112405874D01*
X161835000Y-111994126D01*
X161822780Y-111964624D01*
X161848697Y-111947306D01*
X161936673Y-112159698D01*
X162115301Y-112338327D01*
X162348690Y-112435000D01*
X162814250Y-112435000D01*
X162973000Y-112276250D01*
X162973000Y-111427000D01*
X163227000Y-111427000D01*
X163227000Y-112276250D01*
X163385750Y-112435000D01*
X163851310Y-112435000D01*
X164084699Y-112338327D01*
X164263327Y-112159698D01*
X164360000Y-111926309D01*
X164360000Y-111585750D01*
X164201250Y-111427000D01*
X163227000Y-111427000D01*
X162973000Y-111427000D01*
X162953000Y-111427000D01*
X162953000Y-111173000D01*
X162973000Y-111173000D01*
X162973000Y-111153000D01*
X163227000Y-111153000D01*
X163227000Y-111173000D01*
X164201250Y-111173000D01*
X164360000Y-111014250D01*
X164360000Y-110673691D01*
X164263327Y-110440302D01*
X164121680Y-110298654D01*
X164182809Y-110257809D01*
X164323157Y-110047765D01*
X164372440Y-109800000D01*
X164372440Y-109035000D01*
X164405874Y-109035000D01*
X164786280Y-108877431D01*
X165077431Y-108586280D01*
X165235000Y-108205874D01*
X165235000Y-107794126D01*
X165077431Y-107413720D01*
X164869256Y-107205545D01*
X165534473Y-106540329D01*
X165597929Y-106497929D01*
X165706795Y-106335000D01*
X165726716Y-106305187D01*
X165751847Y-106315597D01*
X165771250Y-106335000D01*
X165828750Y-106335000D01*
X165848153Y-106315597D01*
X166034699Y-106238327D01*
X166050000Y-106223026D01*
X166065301Y-106238327D01*
X166251847Y-106315597D01*
X166271250Y-106335000D01*
X166328750Y-106335000D01*
X166348153Y-106315597D01*
X166534699Y-106238327D01*
X166555926Y-106217100D01*
X166677235Y-106298157D01*
X166748603Y-106312353D01*
X166771250Y-106335000D01*
X166790001Y-106335000D01*
X166790001Y-106675149D01*
X166775112Y-106750000D01*
X166834097Y-107046537D01*
X166934331Y-107196547D01*
X167002072Y-107297929D01*
X167065000Y-107339976D01*
X167065000Y-107505874D01*
X167222569Y-107886280D01*
X167513720Y-108177431D01*
X167894126Y-108335000D01*
X168305874Y-108335000D01*
X168650000Y-108192459D01*
X168994126Y-108335000D01*
X169405874Y-108335000D01*
X169786280Y-108177431D01*
X170077431Y-107886280D01*
X170235000Y-107505874D01*
X170235000Y-107094126D01*
X170077431Y-106713720D01*
X169786280Y-106422569D01*
X169405874Y-106265000D01*
X169239802Y-106265000D01*
X168810000Y-105835199D01*
X168810000Y-105762541D01*
X168822440Y-105700000D01*
X168822440Y-104700000D01*
X168773157Y-104452235D01*
X168632809Y-104242191D01*
X168422765Y-104101843D01*
X168175000Y-104052560D01*
X167925000Y-104052560D01*
X167800000Y-104077424D01*
X167675000Y-104052560D01*
X167425000Y-104052560D01*
X167300000Y-104077424D01*
X167175000Y-104052560D01*
X166925000Y-104052560D01*
X166821148Y-104073217D01*
X166801310Y-104065000D01*
X166771250Y-104065000D01*
X166748603Y-104087647D01*
X166677235Y-104101843D01*
X166555926Y-104182900D01*
X166534699Y-104161673D01*
X166348153Y-104084403D01*
X166328750Y-104065000D01*
X166271250Y-104065000D01*
X166251847Y-104084403D01*
X166065301Y-104161673D01*
X166050000Y-104176974D01*
X166034699Y-104161673D01*
X165848153Y-104084403D01*
X165828750Y-104065000D01*
X165771250Y-104065000D01*
X165751847Y-104084403D01*
X165565301Y-104161673D01*
X165544074Y-104182900D01*
X165422765Y-104101843D01*
X165351397Y-104087647D01*
X165328750Y-104065000D01*
X165298690Y-104065000D01*
X165278852Y-104073217D01*
X165175000Y-104052560D01*
X164925000Y-104052560D01*
X164800000Y-104077424D01*
X164675000Y-104052560D01*
X164425000Y-104052560D01*
X164300000Y-104077424D01*
X164175000Y-104052560D01*
X163925000Y-104052560D01*
X163800000Y-104077424D01*
X163675000Y-104052560D01*
X163425000Y-104052560D01*
X163300000Y-104077424D01*
X163269462Y-104071349D01*
X163265904Y-104053463D01*
X163097929Y-103802071D01*
X163034470Y-103759669D01*
X162690331Y-103415530D01*
X162669931Y-103385000D01*
X162714250Y-103385000D01*
X162873000Y-103226250D01*
X162873000Y-103125025D01*
X162888327Y-103109698D01*
X162985000Y-102876309D01*
X162985000Y-102385750D01*
X163015000Y-102385750D01*
X163015000Y-102876309D01*
X163111673Y-103109698D01*
X163127000Y-103125025D01*
X163127000Y-103226250D01*
X163285750Y-103385000D01*
X164014250Y-103385000D01*
X164173000Y-103226250D01*
X164173000Y-103125025D01*
X164188327Y-103109698D01*
X164285000Y-102876309D01*
X164285000Y-102385750D01*
X164315000Y-102385750D01*
X164315000Y-102876309D01*
X164411673Y-103109698D01*
X164427000Y-103125025D01*
X164427000Y-103226250D01*
X164585750Y-103385000D01*
X165314250Y-103385000D01*
X165473000Y-103226250D01*
X165473000Y-103125025D01*
X165488327Y-103109698D01*
X165585000Y-102876309D01*
X165585000Y-102385750D01*
X165615000Y-102385750D01*
X165615000Y-102876309D01*
X165711673Y-103109698D01*
X165727000Y-103125025D01*
X165727000Y-103226250D01*
X165885750Y-103385000D01*
X166614250Y-103385000D01*
X166773000Y-103226250D01*
X166773000Y-103125025D01*
X166788327Y-103109698D01*
X166885000Y-102876309D01*
X166885000Y-102385750D01*
X166773000Y-102273750D01*
X166773000Y-102227000D01*
X167027000Y-102227000D01*
X167027000Y-103226250D01*
X167185750Y-103385000D01*
X167676310Y-103385000D01*
X167909699Y-103288327D01*
X168088327Y-103109698D01*
X168185000Y-102876309D01*
X168185000Y-102385750D01*
X168026250Y-102227000D01*
X167027000Y-102227000D01*
X166773000Y-102227000D01*
X165727000Y-102227000D01*
X165727000Y-102273750D01*
X165615000Y-102385750D01*
X165585000Y-102385750D01*
X165473000Y-102273750D01*
X165473000Y-102227000D01*
X164427000Y-102227000D01*
X164427000Y-102273750D01*
X164315000Y-102385750D01*
X164285000Y-102385750D01*
X164173000Y-102273750D01*
X164173000Y-102227000D01*
X163127000Y-102227000D01*
X163127000Y-102273750D01*
X163015000Y-102385750D01*
X162985000Y-102385750D01*
X162873000Y-102273750D01*
X162873000Y-102227000D01*
X161827000Y-102227000D01*
X161827000Y-102247000D01*
X161573000Y-102247000D01*
X161573000Y-102227000D01*
X161553000Y-102227000D01*
X161553000Y-101973000D01*
X161573000Y-101973000D01*
X161573000Y-101085750D01*
X161715000Y-101085750D01*
X161715000Y-101814250D01*
X161827000Y-101926250D01*
X161827000Y-101973000D01*
X161873750Y-101973000D01*
X161985750Y-102085000D01*
X162714250Y-102085000D01*
X162826250Y-101973000D01*
X162873000Y-101973000D01*
X162873000Y-101926250D01*
X162985000Y-101814250D01*
X162985000Y-101085750D01*
X163015000Y-101085750D01*
X163015000Y-101814250D01*
X163127000Y-101926250D01*
X163127000Y-101973000D01*
X163173750Y-101973000D01*
X163285750Y-102085000D01*
X164014250Y-102085000D01*
X164126250Y-101973000D01*
X164173000Y-101973000D01*
X164173000Y-101926250D01*
X164285000Y-101814250D01*
X164285000Y-101085750D01*
X164315000Y-101085750D01*
X164315000Y-101814250D01*
X164427000Y-101926250D01*
X164427000Y-101973000D01*
X164473750Y-101973000D01*
X164585750Y-102085000D01*
X165314250Y-102085000D01*
X165426250Y-101973000D01*
X165473000Y-101973000D01*
X165473000Y-101926250D01*
X165585000Y-101814250D01*
X165585000Y-101085750D01*
X165615000Y-101085750D01*
X165615000Y-101814250D01*
X165727000Y-101926250D01*
X165727000Y-101973000D01*
X165773750Y-101973000D01*
X165885750Y-102085000D01*
X166614250Y-102085000D01*
X166726250Y-101973000D01*
X166773000Y-101973000D01*
X166773000Y-101926250D01*
X166885000Y-101814250D01*
X166885000Y-101085750D01*
X166773000Y-100973750D01*
X166773000Y-100927000D01*
X167027000Y-100927000D01*
X167027000Y-101973000D01*
X167073750Y-101973000D01*
X167185750Y-102085000D01*
X167676310Y-102085000D01*
X167909699Y-101988327D01*
X167925026Y-101973000D01*
X168026250Y-101973000D01*
X168185000Y-101814250D01*
X168185000Y-101085750D01*
X168026250Y-100927000D01*
X167925026Y-100927000D01*
X167909699Y-100911673D01*
X167676310Y-100815000D01*
X167185750Y-100815000D01*
X167073750Y-100927000D01*
X167027000Y-100927000D01*
X166773000Y-100927000D01*
X166726250Y-100927000D01*
X166614250Y-100815000D01*
X165885750Y-100815000D01*
X165773750Y-100927000D01*
X165727000Y-100927000D01*
X165727000Y-100973750D01*
X165615000Y-101085750D01*
X165585000Y-101085750D01*
X165473000Y-100973750D01*
X165473000Y-100927000D01*
X165426250Y-100927000D01*
X165314250Y-100815000D01*
X164585750Y-100815000D01*
X164473750Y-100927000D01*
X164427000Y-100927000D01*
X164427000Y-100973750D01*
X164315000Y-101085750D01*
X164285000Y-101085750D01*
X164173000Y-100973750D01*
X164173000Y-100927000D01*
X164126250Y-100927000D01*
X164014250Y-100815000D01*
X163285750Y-100815000D01*
X163173750Y-100927000D01*
X163127000Y-100927000D01*
X163127000Y-100973750D01*
X163015000Y-101085750D01*
X162985000Y-101085750D01*
X162873000Y-100973750D01*
X162873000Y-100927000D01*
X162826250Y-100927000D01*
X162714250Y-100815000D01*
X161985750Y-100815000D01*
X161873750Y-100927000D01*
X161827000Y-100927000D01*
X161827000Y-100973750D01*
X161715000Y-101085750D01*
X161573000Y-101085750D01*
X161573000Y-100927000D01*
X161526250Y-100927000D01*
X161414250Y-100815000D01*
X160923690Y-100815000D01*
X160690301Y-100911673D01*
X160674974Y-100927000D01*
X160573750Y-100927000D01*
X160415000Y-101085750D01*
X160415000Y-101130069D01*
X160384470Y-101109669D01*
X160040331Y-100765530D01*
X159997929Y-100702071D01*
X159746537Y-100534096D01*
X159728651Y-100530538D01*
X159722576Y-100500000D01*
X159747440Y-100375000D01*
X159747440Y-100125000D01*
X159722576Y-100000000D01*
X159747440Y-99875000D01*
X159747440Y-99785750D01*
X160415000Y-99785750D01*
X160415000Y-100514250D01*
X160573750Y-100673000D01*
X160674974Y-100673000D01*
X160690301Y-100688327D01*
X160923690Y-100785000D01*
X161414250Y-100785000D01*
X161526250Y-100673000D01*
X161573000Y-100673000D01*
X161573000Y-99785750D01*
X161715000Y-99785750D01*
X161715000Y-100514250D01*
X161827000Y-100626250D01*
X161827000Y-100673000D01*
X161873750Y-100673000D01*
X161985750Y-100785000D01*
X162714250Y-100785000D01*
X162826250Y-100673000D01*
X162873000Y-100673000D01*
X162873000Y-100626250D01*
X162985000Y-100514250D01*
X162985000Y-99785750D01*
X163015000Y-99785750D01*
X163015000Y-100514250D01*
X163127000Y-100626250D01*
X163127000Y-100673000D01*
X163173750Y-100673000D01*
X163285750Y-100785000D01*
X164014250Y-100785000D01*
X164126250Y-100673000D01*
X164173000Y-100673000D01*
X164173000Y-100626250D01*
X164285000Y-100514250D01*
X164285000Y-99785750D01*
X164315000Y-99785750D01*
X164315000Y-100514250D01*
X164427000Y-100626250D01*
X164427000Y-100673000D01*
X164473750Y-100673000D01*
X164585750Y-100785000D01*
X165314250Y-100785000D01*
X165426250Y-100673000D01*
X165473000Y-100673000D01*
X165473000Y-100626250D01*
X165585000Y-100514250D01*
X165585000Y-99785750D01*
X165615000Y-99785750D01*
X165615000Y-100514250D01*
X165727000Y-100626250D01*
X165727000Y-100673000D01*
X165773750Y-100673000D01*
X165885750Y-100785000D01*
X166614250Y-100785000D01*
X166726250Y-100673000D01*
X166773000Y-100673000D01*
X166773000Y-100626250D01*
X166885000Y-100514250D01*
X166885000Y-99785750D01*
X166773000Y-99673750D01*
X166773000Y-99627000D01*
X167027000Y-99627000D01*
X167027000Y-100673000D01*
X167073750Y-100673000D01*
X167185750Y-100785000D01*
X167676310Y-100785000D01*
X167909699Y-100688327D01*
X167925026Y-100673000D01*
X168026250Y-100673000D01*
X168185000Y-100514250D01*
X168185000Y-99785750D01*
X168026250Y-99627000D01*
X167925026Y-99627000D01*
X167909699Y-99611673D01*
X167676310Y-99515000D01*
X167185750Y-99515000D01*
X167073750Y-99627000D01*
X167027000Y-99627000D01*
X166773000Y-99627000D01*
X166726250Y-99627000D01*
X166614250Y-99515000D01*
X165885750Y-99515000D01*
X165773750Y-99627000D01*
X165727000Y-99627000D01*
X165727000Y-99673750D01*
X165615000Y-99785750D01*
X165585000Y-99785750D01*
X165473000Y-99673750D01*
X165473000Y-99627000D01*
X165426250Y-99627000D01*
X165314250Y-99515000D01*
X164585750Y-99515000D01*
X164473750Y-99627000D01*
X164427000Y-99627000D01*
X164427000Y-99673750D01*
X164315000Y-99785750D01*
X164285000Y-99785750D01*
X164173000Y-99673750D01*
X164173000Y-99627000D01*
X164126250Y-99627000D01*
X164014250Y-99515000D01*
X163285750Y-99515000D01*
X163173750Y-99627000D01*
X163127000Y-99627000D01*
X163127000Y-99673750D01*
X163015000Y-99785750D01*
X162985000Y-99785750D01*
X162873000Y-99673750D01*
X162873000Y-99627000D01*
X162826250Y-99627000D01*
X162714250Y-99515000D01*
X161985750Y-99515000D01*
X161873750Y-99627000D01*
X161827000Y-99627000D01*
X161827000Y-99673750D01*
X161715000Y-99785750D01*
X161573000Y-99785750D01*
X161573000Y-99627000D01*
X161526250Y-99627000D01*
X161414250Y-99515000D01*
X160923690Y-99515000D01*
X160690301Y-99611673D01*
X160674974Y-99627000D01*
X160573750Y-99627000D01*
X160415000Y-99785750D01*
X159747440Y-99785750D01*
X159747440Y-99625000D01*
X159722576Y-99500000D01*
X159747440Y-99375000D01*
X159747440Y-99125000D01*
X159722576Y-99000000D01*
X159747440Y-98875000D01*
X159747440Y-98625000D01*
X159722576Y-98500000D01*
X159725410Y-98485750D01*
X160415000Y-98485750D01*
X160415000Y-99214250D01*
X160573750Y-99373000D01*
X160674974Y-99373000D01*
X160690301Y-99388327D01*
X160923690Y-99485000D01*
X161414250Y-99485000D01*
X161526250Y-99373000D01*
X161573000Y-99373000D01*
X161573000Y-98485750D01*
X161715000Y-98485750D01*
X161715000Y-99214250D01*
X161827000Y-99326250D01*
X161827000Y-99373000D01*
X161873750Y-99373000D01*
X161985750Y-99485000D01*
X162714250Y-99485000D01*
X162826250Y-99373000D01*
X162873000Y-99373000D01*
X162873000Y-99326250D01*
X162985000Y-99214250D01*
X162985000Y-98485750D01*
X163015000Y-98485750D01*
X163015000Y-99214250D01*
X163127000Y-99326250D01*
X163127000Y-99373000D01*
X163173750Y-99373000D01*
X163285750Y-99485000D01*
X164014250Y-99485000D01*
X164126250Y-99373000D01*
X164173000Y-99373000D01*
X164173000Y-99326250D01*
X164285000Y-99214250D01*
X164285000Y-98485750D01*
X164315000Y-98485750D01*
X164315000Y-99214250D01*
X164427000Y-99326250D01*
X164427000Y-99373000D01*
X164473750Y-99373000D01*
X164585750Y-99485000D01*
X165314250Y-99485000D01*
X165426250Y-99373000D01*
X165473000Y-99373000D01*
X165473000Y-99326250D01*
X165585000Y-99214250D01*
X165585000Y-98485750D01*
X165615000Y-98485750D01*
X165615000Y-99214250D01*
X165727000Y-99326250D01*
X165727000Y-99373000D01*
X165773750Y-99373000D01*
X165885750Y-99485000D01*
X166614250Y-99485000D01*
X166726250Y-99373000D01*
X166773000Y-99373000D01*
X166773000Y-99326250D01*
X166885000Y-99214250D01*
X166885000Y-98485750D01*
X166773000Y-98373750D01*
X166773000Y-98327000D01*
X167027000Y-98327000D01*
X167027000Y-99373000D01*
X167073750Y-99373000D01*
X167185750Y-99485000D01*
X167676310Y-99485000D01*
X167909699Y-99388327D01*
X167925026Y-99373000D01*
X168026250Y-99373000D01*
X168185000Y-99214250D01*
X168185000Y-98485750D01*
X168026250Y-98327000D01*
X167925026Y-98327000D01*
X167909699Y-98311673D01*
X167676310Y-98215000D01*
X167185750Y-98215000D01*
X167073750Y-98327000D01*
X167027000Y-98327000D01*
X166773000Y-98327000D01*
X166726250Y-98327000D01*
X166614250Y-98215000D01*
X165885750Y-98215000D01*
X165773750Y-98327000D01*
X165727000Y-98327000D01*
X165727000Y-98373750D01*
X165615000Y-98485750D01*
X165585000Y-98485750D01*
X165473000Y-98373750D01*
X165473000Y-98327000D01*
X165426250Y-98327000D01*
X165314250Y-98215000D01*
X164585750Y-98215000D01*
X164473750Y-98327000D01*
X164427000Y-98327000D01*
X164427000Y-98373750D01*
X164315000Y-98485750D01*
X164285000Y-98485750D01*
X164173000Y-98373750D01*
X164173000Y-98327000D01*
X164126250Y-98327000D01*
X164014250Y-98215000D01*
X163285750Y-98215000D01*
X163173750Y-98327000D01*
X163127000Y-98327000D01*
X163127000Y-98373750D01*
X163015000Y-98485750D01*
X162985000Y-98485750D01*
X162873000Y-98373750D01*
X162873000Y-98327000D01*
X162826250Y-98327000D01*
X162714250Y-98215000D01*
X161985750Y-98215000D01*
X161873750Y-98327000D01*
X161827000Y-98327000D01*
X161827000Y-98373750D01*
X161715000Y-98485750D01*
X161573000Y-98485750D01*
X161573000Y-98327000D01*
X161526250Y-98327000D01*
X161414250Y-98215000D01*
X160923690Y-98215000D01*
X160690301Y-98311673D01*
X160674974Y-98327000D01*
X160573750Y-98327000D01*
X160415000Y-98485750D01*
X159725410Y-98485750D01*
X159747440Y-98375000D01*
X159747440Y-98125000D01*
X159722576Y-98000000D01*
X159747440Y-97875000D01*
X159747440Y-97625000D01*
X159726783Y-97521148D01*
X159735000Y-97501310D01*
X159735000Y-97471250D01*
X159712353Y-97448603D01*
X159698157Y-97377235D01*
X159617100Y-97255926D01*
X159638327Y-97234699D01*
X159658602Y-97185750D01*
X160415000Y-97185750D01*
X160415000Y-97914250D01*
X160573750Y-98073000D01*
X160674974Y-98073000D01*
X160690301Y-98088327D01*
X160923690Y-98185000D01*
X161414250Y-98185000D01*
X161526250Y-98073000D01*
X161573000Y-98073000D01*
X161573000Y-97185750D01*
X161715000Y-97185750D01*
X161715000Y-97914250D01*
X161827000Y-98026250D01*
X161827000Y-98073000D01*
X161873750Y-98073000D01*
X161985750Y-98185000D01*
X162714250Y-98185000D01*
X162826250Y-98073000D01*
X162873000Y-98073000D01*
X162873000Y-98026250D01*
X162985000Y-97914250D01*
X162985000Y-97185750D01*
X163015000Y-97185750D01*
X163015000Y-97914250D01*
X163127000Y-98026250D01*
X163127000Y-98073000D01*
X163173750Y-98073000D01*
X163285750Y-98185000D01*
X164014250Y-98185000D01*
X164126250Y-98073000D01*
X164173000Y-98073000D01*
X164173000Y-98026250D01*
X164285000Y-97914250D01*
X164285000Y-97185750D01*
X164315000Y-97185750D01*
X164315000Y-97914250D01*
X164427000Y-98026250D01*
X164427000Y-98073000D01*
X164473750Y-98073000D01*
X164585750Y-98185000D01*
X165314250Y-98185000D01*
X165426250Y-98073000D01*
X165473000Y-98073000D01*
X165473000Y-98026250D01*
X165585000Y-97914250D01*
X165585000Y-97185750D01*
X165615000Y-97185750D01*
X165615000Y-97914250D01*
X165727000Y-98026250D01*
X165727000Y-98073000D01*
X165773750Y-98073000D01*
X165885750Y-98185000D01*
X166614250Y-98185000D01*
X166726250Y-98073000D01*
X166773000Y-98073000D01*
X166773000Y-98026250D01*
X166885000Y-97914250D01*
X166885000Y-97185750D01*
X166773000Y-97073750D01*
X166773000Y-97027000D01*
X167027000Y-97027000D01*
X167027000Y-98073000D01*
X167073750Y-98073000D01*
X167185750Y-98185000D01*
X167676310Y-98185000D01*
X167909699Y-98088327D01*
X167925026Y-98073000D01*
X168026250Y-98073000D01*
X168185000Y-97914250D01*
X168185000Y-97185750D01*
X168026250Y-97027000D01*
X167925026Y-97027000D01*
X167909699Y-97011673D01*
X167676310Y-96915000D01*
X167185750Y-96915000D01*
X167073750Y-97027000D01*
X167027000Y-97027000D01*
X166773000Y-97027000D01*
X166726250Y-97027000D01*
X166614250Y-96915000D01*
X165885750Y-96915000D01*
X165773750Y-97027000D01*
X165727000Y-97027000D01*
X165727000Y-97073750D01*
X165615000Y-97185750D01*
X165585000Y-97185750D01*
X165473000Y-97073750D01*
X165473000Y-97027000D01*
X165426250Y-97027000D01*
X165314250Y-96915000D01*
X164585750Y-96915000D01*
X164473750Y-97027000D01*
X164427000Y-97027000D01*
X164427000Y-97073750D01*
X164315000Y-97185750D01*
X164285000Y-97185750D01*
X164173000Y-97073750D01*
X164173000Y-97027000D01*
X164126250Y-97027000D01*
X164014250Y-96915000D01*
X163285750Y-96915000D01*
X163173750Y-97027000D01*
X163127000Y-97027000D01*
X163127000Y-97073750D01*
X163015000Y-97185750D01*
X162985000Y-97185750D01*
X162873000Y-97073750D01*
X162873000Y-97027000D01*
X162826250Y-97027000D01*
X162714250Y-96915000D01*
X161985750Y-96915000D01*
X161873750Y-97027000D01*
X161827000Y-97027000D01*
X161827000Y-97073750D01*
X161715000Y-97185750D01*
X161573000Y-97185750D01*
X161573000Y-97027000D01*
X161526250Y-97027000D01*
X161414250Y-96915000D01*
X160923690Y-96915000D01*
X160690301Y-97011673D01*
X160674974Y-97027000D01*
X160573750Y-97027000D01*
X160415000Y-97185750D01*
X159658602Y-97185750D01*
X159715597Y-97048153D01*
X159735000Y-97028750D01*
X159735000Y-96971250D01*
X159715597Y-96951847D01*
X159638327Y-96765301D01*
X159623026Y-96750000D01*
X159638327Y-96734699D01*
X159715597Y-96548153D01*
X159735000Y-96528750D01*
X159735000Y-96471250D01*
X159715597Y-96451847D01*
X159638327Y-96265301D01*
X159617100Y-96244074D01*
X159697538Y-96123691D01*
X160415000Y-96123691D01*
X160415000Y-96614250D01*
X160573750Y-96773000D01*
X161573000Y-96773000D01*
X161573000Y-96123691D01*
X161715000Y-96123691D01*
X161715000Y-96614250D01*
X161827000Y-96726250D01*
X161827000Y-96773000D01*
X162873000Y-96773000D01*
X162873000Y-96726250D01*
X162985000Y-96614250D01*
X162985000Y-96123691D01*
X163015000Y-96123691D01*
X163015000Y-96614250D01*
X163127000Y-96726250D01*
X163127000Y-96773000D01*
X164173000Y-96773000D01*
X164173000Y-96726250D01*
X164285000Y-96614250D01*
X164285000Y-96123691D01*
X164315000Y-96123691D01*
X164315000Y-96614250D01*
X164427000Y-96726250D01*
X164427000Y-96773000D01*
X165473000Y-96773000D01*
X165473000Y-96726250D01*
X165585000Y-96614250D01*
X165585000Y-96123691D01*
X165615000Y-96123691D01*
X165615000Y-96614250D01*
X165727000Y-96726250D01*
X165727000Y-96773000D01*
X166773000Y-96773000D01*
X166773000Y-96726250D01*
X166885000Y-96614250D01*
X166885000Y-96123691D01*
X166788327Y-95890302D01*
X166773000Y-95874975D01*
X166773000Y-95773750D01*
X167027000Y-95773750D01*
X167027000Y-96773000D01*
X168026250Y-96773000D01*
X168185000Y-96614250D01*
X168185000Y-96123691D01*
X168088327Y-95890302D01*
X167909699Y-95711673D01*
X167676310Y-95615000D01*
X167185750Y-95615000D01*
X167027000Y-95773750D01*
X166773000Y-95773750D01*
X166614250Y-95615000D01*
X165885750Y-95615000D01*
X165727000Y-95773750D01*
X165727000Y-95874975D01*
X165711673Y-95890302D01*
X165615000Y-96123691D01*
X165585000Y-96123691D01*
X165488327Y-95890302D01*
X165473000Y-95874975D01*
X165473000Y-95773750D01*
X165314250Y-95615000D01*
X164585750Y-95615000D01*
X164427000Y-95773750D01*
X164427000Y-95874975D01*
X164411673Y-95890302D01*
X164315000Y-96123691D01*
X164285000Y-96123691D01*
X164188327Y-95890302D01*
X164173000Y-95874975D01*
X164173000Y-95773750D01*
X164014250Y-95615000D01*
X163285750Y-95615000D01*
X163127000Y-95773750D01*
X163127000Y-95874975D01*
X163111673Y-95890302D01*
X163015000Y-96123691D01*
X162985000Y-96123691D01*
X162888327Y-95890302D01*
X162873000Y-95874975D01*
X162873000Y-95773750D01*
X162714250Y-95615000D01*
X161985750Y-95615000D01*
X161827000Y-95773750D01*
X161827000Y-95874975D01*
X161811673Y-95890302D01*
X161715000Y-96123691D01*
X161573000Y-96123691D01*
X161573000Y-95773750D01*
X161414250Y-95615000D01*
X160923690Y-95615000D01*
X160690301Y-95711673D01*
X160511673Y-95890302D01*
X160415000Y-96123691D01*
X159697538Y-96123691D01*
X159698157Y-96122765D01*
X159712353Y-96051397D01*
X159735000Y-96028750D01*
X159735000Y-95998690D01*
X159726783Y-95978852D01*
X159747440Y-95875000D01*
X159747440Y-95625000D01*
X159698157Y-95377235D01*
X159668824Y-95333335D01*
X159716245Y-95262364D01*
X159785000Y-94916710D01*
X159785000Y-94337404D01*
X159826843Y-94547765D01*
X159967191Y-94757809D01*
X160177235Y-94898157D01*
X160425000Y-94947440D01*
X160675000Y-94947440D01*
X160800000Y-94922576D01*
X160925000Y-94947440D01*
X161175000Y-94947440D01*
X161300000Y-94922576D01*
X161425000Y-94947440D01*
X161675000Y-94947440D01*
X161800000Y-94922576D01*
X161925000Y-94947440D01*
X162175000Y-94947440D01*
X162300000Y-94922576D01*
X162425000Y-94947440D01*
X162675000Y-94947440D01*
X162800000Y-94922576D01*
X162925000Y-94947440D01*
X163175000Y-94947440D01*
X163300000Y-94922576D01*
X163425000Y-94947440D01*
X163675000Y-94947440D01*
X163800000Y-94922576D01*
X163925000Y-94947440D01*
X164175000Y-94947440D01*
X164300000Y-94922576D01*
X164425000Y-94947440D01*
X164675000Y-94947440D01*
X164800000Y-94922576D01*
X164925000Y-94947440D01*
X165175000Y-94947440D01*
X165300000Y-94922576D01*
X165425000Y-94947440D01*
X165675000Y-94947440D01*
X165800000Y-94922576D01*
X165925000Y-94947440D01*
X166175000Y-94947440D01*
X166278852Y-94926783D01*
X166298690Y-94935000D01*
X166328750Y-94935000D01*
X166351397Y-94912353D01*
X166422765Y-94898157D01*
X166544074Y-94817100D01*
X166565301Y-94838327D01*
X166751847Y-94915597D01*
X166771250Y-94935000D01*
X166828750Y-94935000D01*
X166848153Y-94915597D01*
X167034699Y-94838327D01*
X167055926Y-94817100D01*
X167177235Y-94898157D01*
X167248603Y-94912353D01*
X167271250Y-94935000D01*
X167301310Y-94935000D01*
X167321148Y-94926783D01*
X167425000Y-94947440D01*
X167675000Y-94947440D01*
X167800000Y-94922576D01*
X167925000Y-94947440D01*
X168175000Y-94947440D01*
X168422765Y-94898157D01*
X168632809Y-94757809D01*
X168773157Y-94547765D01*
X168822440Y-94300000D01*
X168822440Y-93300000D01*
X168773157Y-93052235D01*
X168694843Y-92935031D01*
X172450122Y-92935031D01*
X172524969Y-92949919D01*
X172599816Y-92935031D01*
X172599821Y-92935031D01*
X172821506Y-92890935D01*
X173072898Y-92722960D01*
X173115300Y-92659502D01*
X173784476Y-91990327D01*
X173847929Y-91947929D01*
X173890327Y-91884476D01*
X173890329Y-91884474D01*
X173996811Y-91725112D01*
X174015904Y-91696537D01*
X174060000Y-91474852D01*
X174060000Y-91474848D01*
X174074888Y-91400001D01*
X174060000Y-91325154D01*
X174060000Y-90920587D01*
X174172765Y-90898157D01*
X174382809Y-90757809D01*
X174523157Y-90547765D01*
X174538378Y-90471242D01*
X174722929Y-90347929D01*
X174765331Y-90284470D01*
X175684473Y-89365329D01*
X175747929Y-89322929D01*
X175915904Y-89071537D01*
X175960000Y-88849852D01*
X175960000Y-88849847D01*
X175974888Y-88775000D01*
X175960000Y-88700153D01*
X175960000Y-86374851D01*
X175974889Y-86300000D01*
X175974874Y-86299927D01*
X176639803Y-85634999D01*
X176854683Y-85634999D01*
X176528355Y-85993076D01*
X176528355Y-85993076D01*
G37*
X176528355Y-85993076D02*
X176358524Y-86403110D01*
X176479845Y-86633000D01*
X177673000Y-86633000D01*
X177673000Y-86613000D01*
X177927000Y-86613000D01*
X177927000Y-86633000D01*
X179120155Y-86633000D01*
X179241476Y-86403110D01*
X179151449Y-86185750D01*
X179715000Y-86185750D01*
X179715000Y-86676310D01*
X179811673Y-86909699D01*
X179990302Y-87088327D01*
X180223691Y-87185000D01*
X180414250Y-87185000D01*
X180573000Y-87026250D01*
X180573000Y-86027000D01*
X179873750Y-86027000D01*
X179715000Y-86185750D01*
X179151449Y-86185750D01*
X179071645Y-85993076D01*
X178745317Y-85634999D01*
X179735749Y-85634999D01*
X179873750Y-85773000D01*
X180573000Y-85773000D01*
X180573000Y-85753000D01*
X180827000Y-85753000D01*
X180827000Y-85773000D01*
X180847000Y-85773000D01*
X180847000Y-86027000D01*
X180827000Y-86027000D01*
X180827000Y-87026250D01*
X180985750Y-87185000D01*
X181176309Y-87185000D01*
X181409698Y-87088327D01*
X181588327Y-86909699D01*
X181646279Y-86769791D01*
X181651843Y-86797765D01*
X181770101Y-86974749D01*
X181684097Y-87103463D01*
X181625112Y-87400000D01*
X181640001Y-87474851D01*
X181640000Y-88485198D01*
X179385199Y-90740000D01*
X178909973Y-90740000D01*
X179107809Y-90607809D01*
X179248157Y-90397765D01*
X179297440Y-90150000D01*
X179297440Y-88450000D01*
X179248157Y-88202235D01*
X179107809Y-87992191D01*
X178897765Y-87851843D01*
X178794292Y-87831261D01*
X179071645Y-87526924D01*
X179241476Y-87116890D01*
X179120155Y-86887000D01*
X177927000Y-86887000D01*
X177927000Y-86907000D01*
X177673000Y-86907000D01*
X177673000Y-86887000D01*
X176479845Y-86887000D01*
X176358524Y-87116890D01*
X176528355Y-87526924D01*
X176805708Y-87831261D01*
X176702235Y-87851843D01*
X176492191Y-87992191D01*
X176351843Y-88202235D01*
X176302560Y-88450000D01*
X176302560Y-90150000D01*
X176324446Y-90260031D01*
X176203463Y-90284096D01*
X176203461Y-90284097D01*
X176203462Y-90284097D01*
X176015526Y-90409671D01*
X176015524Y-90409673D01*
X175952071Y-90452071D01*
X175909673Y-90515524D01*
X172515528Y-93909671D01*
X172452072Y-93952071D01*
X172409672Y-94015527D01*
X172409671Y-94015528D01*
X172284097Y-94203463D01*
X172269289Y-94277909D01*
X171939308Y-94277909D01*
X171558902Y-94435478D01*
X171267751Y-94726629D01*
X171110182Y-95107035D01*
X171110182Y-95273108D01*
X171061659Y-95321630D01*
X171038327Y-95265301D01*
X170859698Y-95086673D01*
X170626309Y-94990000D01*
X170285750Y-94990000D01*
X170127000Y-95148750D01*
X170127000Y-95477560D01*
X169873000Y-95477560D01*
X169873000Y-95148750D01*
X169714250Y-94990000D01*
X169373691Y-94990000D01*
X169140302Y-95086673D01*
X168961673Y-95265301D01*
X168865000Y-95498690D01*
X168865000Y-95528750D01*
X169023750Y-95687500D01*
X169028621Y-95687500D01*
X168901843Y-95877235D01*
X168887647Y-95948603D01*
X168865000Y-95971250D01*
X168865000Y-96001310D01*
X168873217Y-96021148D01*
X168852560Y-96125000D01*
X168852560Y-96375000D01*
X168877424Y-96500000D01*
X168852560Y-96625000D01*
X168852560Y-96875000D01*
X168877424Y-97000000D01*
X168852560Y-97125000D01*
X168852560Y-97375000D01*
X168873217Y-97478852D01*
X168865000Y-97498690D01*
X168865000Y-97528750D01*
X168887647Y-97551397D01*
X168901843Y-97622765D01*
X168986859Y-97750000D01*
X168901843Y-97877235D01*
X168887647Y-97948603D01*
X168865000Y-97971250D01*
X168865000Y-98001310D01*
X168873217Y-98021148D01*
X168852560Y-98125000D01*
X168852560Y-98375000D01*
X168877424Y-98500000D01*
X168852560Y-98625000D01*
X168852560Y-98875000D01*
X168877424Y-99000000D01*
X168852560Y-99125000D01*
X168852560Y-99375000D01*
X168877424Y-99500000D01*
X168852560Y-99625000D01*
X168852560Y-99875000D01*
X168877424Y-100000000D01*
X168852560Y-100125000D01*
X168852560Y-100375000D01*
X168877424Y-100500000D01*
X168852560Y-100625000D01*
X168852560Y-100875000D01*
X168877424Y-101000000D01*
X168852560Y-101125000D01*
X168852560Y-101375000D01*
X168877424Y-101500000D01*
X168852560Y-101625000D01*
X168852560Y-101875000D01*
X168877424Y-102000000D01*
X168852560Y-102125000D01*
X168852560Y-102375000D01*
X168877424Y-102500000D01*
X168852560Y-102625000D01*
X168852560Y-102875000D01*
X168877424Y-103000000D01*
X168852560Y-103125000D01*
X168852560Y-103375000D01*
X168901843Y-103622765D01*
X169042191Y-103832809D01*
X169240000Y-103964982D01*
X169240001Y-105325148D01*
X169225112Y-105400000D01*
X169240001Y-105474852D01*
X169265911Y-105605112D01*
X169284097Y-105696537D01*
X169388952Y-105853463D01*
X169452072Y-105947929D01*
X169515528Y-105990329D01*
X175809671Y-112284473D01*
X175852071Y-112347929D01*
X175915527Y-112390329D01*
X176002560Y-112448483D01*
X176002560Y-112450000D01*
X176051843Y-112697765D01*
X176192191Y-112907809D01*
X176352612Y-113015000D01*
X161448711Y-113015000D01*
X161677431Y-112786280D01*
X161835000Y-112405874D01*
X161835000Y-111994126D01*
X161822780Y-111964624D01*
X161848697Y-111947306D01*
X161936673Y-112159698D01*
X162115301Y-112338327D01*
X162348690Y-112435000D01*
X162814250Y-112435000D01*
X162973000Y-112276250D01*
X162973000Y-111427000D01*
X163227000Y-111427000D01*
X163227000Y-112276250D01*
X163385750Y-112435000D01*
X163851310Y-112435000D01*
X164084699Y-112338327D01*
X164263327Y-112159698D01*
X164360000Y-111926309D01*
X164360000Y-111585750D01*
X164201250Y-111427000D01*
X163227000Y-111427000D01*
X162973000Y-111427000D01*
X162953000Y-111427000D01*
X162953000Y-111173000D01*
X162973000Y-111173000D01*
X162973000Y-111153000D01*
X163227000Y-111153000D01*
X163227000Y-111173000D01*
X164201250Y-111173000D01*
X164360000Y-111014250D01*
X164360000Y-110673691D01*
X164263327Y-110440302D01*
X164121680Y-110298654D01*
X164182809Y-110257809D01*
X164323157Y-110047765D01*
X164372440Y-109800000D01*
X164372440Y-109035000D01*
X164405874Y-109035000D01*
X164786280Y-108877431D01*
X165077431Y-108586280D01*
X165235000Y-108205874D01*
X165235000Y-107794126D01*
X165077431Y-107413720D01*
X164869256Y-107205545D01*
X165534473Y-106540329D01*
X165597929Y-106497929D01*
X165706795Y-106335000D01*
X165726716Y-106305187D01*
X165751847Y-106315597D01*
X165771250Y-106335000D01*
X165828750Y-106335000D01*
X165848153Y-106315597D01*
X166034699Y-106238327D01*
X166050000Y-106223026D01*
X166065301Y-106238327D01*
X166251847Y-106315597D01*
X166271250Y-106335000D01*
X166328750Y-106335000D01*
X166348153Y-106315597D01*
X166534699Y-106238327D01*
X166555926Y-106217100D01*
X166677235Y-106298157D01*
X166748603Y-106312353D01*
X166771250Y-106335000D01*
X166790001Y-106335000D01*
X166790001Y-106675149D01*
X166775112Y-106750000D01*
X166834097Y-107046537D01*
X166934331Y-107196547D01*
X167002072Y-107297929D01*
X167065000Y-107339976D01*
X167065000Y-107505874D01*
X167222569Y-107886280D01*
X167513720Y-108177431D01*
X167894126Y-108335000D01*
X168305874Y-108335000D01*
X168650000Y-108192459D01*
X168994126Y-108335000D01*
X169405874Y-108335000D01*
X169786280Y-108177431D01*
X170077431Y-107886280D01*
X170235000Y-107505874D01*
X170235000Y-107094126D01*
X170077431Y-106713720D01*
X169786280Y-106422569D01*
X169405874Y-106265000D01*
X169239802Y-106265000D01*
X168810000Y-105835199D01*
X168810000Y-105762541D01*
X168822440Y-105700000D01*
X168822440Y-104700000D01*
X168773157Y-104452235D01*
X168632809Y-104242191D01*
X168422765Y-104101843D01*
X168175000Y-104052560D01*
X167925000Y-104052560D01*
X167800000Y-104077424D01*
X167675000Y-104052560D01*
X167425000Y-104052560D01*
X167300000Y-104077424D01*
X167175000Y-104052560D01*
X166925000Y-104052560D01*
X166821148Y-104073217D01*
X166801310Y-104065000D01*
X166771250Y-104065000D01*
X166748603Y-104087647D01*
X166677235Y-104101843D01*
X166555926Y-104182900D01*
X166534699Y-104161673D01*
X166348153Y-104084403D01*
X166328750Y-104065000D01*
X166271250Y-104065000D01*
X166251847Y-104084403D01*
X166065301Y-104161673D01*
X166050000Y-104176974D01*
X166034699Y-104161673D01*
X165848153Y-104084403D01*
X165828750Y-104065000D01*
X165771250Y-104065000D01*
X165751847Y-104084403D01*
X165565301Y-104161673D01*
X165544074Y-104182900D01*
X165422765Y-104101843D01*
X165351397Y-104087647D01*
X165328750Y-104065000D01*
X165298690Y-104065000D01*
X165278852Y-104073217D01*
X165175000Y-104052560D01*
X164925000Y-104052560D01*
X164800000Y-104077424D01*
X164675000Y-104052560D01*
X164425000Y-104052560D01*
X164300000Y-104077424D01*
X164175000Y-104052560D01*
X163925000Y-104052560D01*
X163800000Y-104077424D01*
X163675000Y-104052560D01*
X163425000Y-104052560D01*
X163300000Y-104077424D01*
X163269462Y-104071349D01*
X163265904Y-104053463D01*
X163097929Y-103802071D01*
X163034470Y-103759669D01*
X162690331Y-103415530D01*
X162669931Y-103385000D01*
X162714250Y-103385000D01*
X162873000Y-103226250D01*
X162873000Y-103125025D01*
X162888327Y-103109698D01*
X162985000Y-102876309D01*
X162985000Y-102385750D01*
X163015000Y-102385750D01*
X163015000Y-102876309D01*
X163111673Y-103109698D01*
X163127000Y-103125025D01*
X163127000Y-103226250D01*
X163285750Y-103385000D01*
X164014250Y-103385000D01*
X164173000Y-103226250D01*
X164173000Y-103125025D01*
X164188327Y-103109698D01*
X164285000Y-102876309D01*
X164285000Y-102385750D01*
X164315000Y-102385750D01*
X164315000Y-102876309D01*
X164411673Y-103109698D01*
X164427000Y-103125025D01*
X164427000Y-103226250D01*
X164585750Y-103385000D01*
X165314250Y-103385000D01*
X165473000Y-103226250D01*
X165473000Y-103125025D01*
X165488327Y-103109698D01*
X165585000Y-102876309D01*
X165585000Y-102385750D01*
X165615000Y-102385750D01*
X165615000Y-102876309D01*
X165711673Y-103109698D01*
X165727000Y-103125025D01*
X165727000Y-103226250D01*
X165885750Y-103385000D01*
X166614250Y-103385000D01*
X166773000Y-103226250D01*
X166773000Y-103125025D01*
X166788327Y-103109698D01*
X166885000Y-102876309D01*
X166885000Y-102385750D01*
X166773000Y-102273750D01*
X166773000Y-102227000D01*
X167027000Y-102227000D01*
X167027000Y-103226250D01*
X167185750Y-103385000D01*
X167676310Y-103385000D01*
X167909699Y-103288327D01*
X168088327Y-103109698D01*
X168185000Y-102876309D01*
X168185000Y-102385750D01*
X168026250Y-102227000D01*
X167027000Y-102227000D01*
X166773000Y-102227000D01*
X165727000Y-102227000D01*
X165727000Y-102273750D01*
X165615000Y-102385750D01*
X165585000Y-102385750D01*
X165473000Y-102273750D01*
X165473000Y-102227000D01*
X164427000Y-102227000D01*
X164427000Y-102273750D01*
X164315000Y-102385750D01*
X164285000Y-102385750D01*
X164173000Y-102273750D01*
X164173000Y-102227000D01*
X163127000Y-102227000D01*
X163127000Y-102273750D01*
X163015000Y-102385750D01*
X162985000Y-102385750D01*
X162873000Y-102273750D01*
X162873000Y-102227000D01*
X161827000Y-102227000D01*
X161827000Y-102247000D01*
X161573000Y-102247000D01*
X161573000Y-102227000D01*
X161553000Y-102227000D01*
X161553000Y-101973000D01*
X161573000Y-101973000D01*
X161573000Y-101085750D01*
X161715000Y-101085750D01*
X161715000Y-101814250D01*
X161827000Y-101926250D01*
X161827000Y-101973000D01*
X161873750Y-101973000D01*
X161985750Y-102085000D01*
X162714250Y-102085000D01*
X162826250Y-101973000D01*
X162873000Y-101973000D01*
X162873000Y-101926250D01*
X162985000Y-101814250D01*
X162985000Y-101085750D01*
X163015000Y-101085750D01*
X163015000Y-101814250D01*
X163127000Y-101926250D01*
X163127000Y-101973000D01*
X163173750Y-101973000D01*
X163285750Y-102085000D01*
X164014250Y-102085000D01*
X164126250Y-101973000D01*
X164173000Y-101973000D01*
X164173000Y-101926250D01*
X164285000Y-101814250D01*
X164285000Y-101085750D01*
X164315000Y-101085750D01*
X164315000Y-101814250D01*
X164427000Y-101926250D01*
X164427000Y-101973000D01*
X164473750Y-101973000D01*
X164585750Y-102085000D01*
X165314250Y-102085000D01*
X165426250Y-101973000D01*
X165473000Y-101973000D01*
X165473000Y-101926250D01*
X165585000Y-101814250D01*
X165585000Y-101085750D01*
X165615000Y-101085750D01*
X165615000Y-101814250D01*
X165727000Y-101926250D01*
X165727000Y-101973000D01*
X165773750Y-101973000D01*
X165885750Y-102085000D01*
X166614250Y-102085000D01*
X166726250Y-101973000D01*
X166773000Y-101973000D01*
X166773000Y-101926250D01*
X166885000Y-101814250D01*
X166885000Y-101085750D01*
X166773000Y-100973750D01*
X166773000Y-100927000D01*
X167027000Y-100927000D01*
X167027000Y-101973000D01*
X167073750Y-101973000D01*
X167185750Y-102085000D01*
X167676310Y-102085000D01*
X167909699Y-101988327D01*
X167925026Y-101973000D01*
X168026250Y-101973000D01*
X168185000Y-101814250D01*
X168185000Y-101085750D01*
X168026250Y-100927000D01*
X167925026Y-100927000D01*
X167909699Y-100911673D01*
X167676310Y-100815000D01*
X167185750Y-100815000D01*
X167073750Y-100927000D01*
X167027000Y-100927000D01*
X166773000Y-100927000D01*
X166726250Y-100927000D01*
X166614250Y-100815000D01*
X165885750Y-100815000D01*
X165773750Y-100927000D01*
X165727000Y-100927000D01*
X165727000Y-100973750D01*
X165615000Y-101085750D01*
X165585000Y-101085750D01*
X165473000Y-100973750D01*
X165473000Y-100927000D01*
X165426250Y-100927000D01*
X165314250Y-100815000D01*
X164585750Y-100815000D01*
X164473750Y-100927000D01*
X164427000Y-100927000D01*
X164427000Y-100973750D01*
X164315000Y-101085750D01*
X164285000Y-101085750D01*
X164173000Y-100973750D01*
X164173000Y-100927000D01*
X164126250Y-100927000D01*
X164014250Y-100815000D01*
X163285750Y-100815000D01*
X163173750Y-100927000D01*
X163127000Y-100927000D01*
X163127000Y-100973750D01*
X163015000Y-101085750D01*
X162985000Y-101085750D01*
X162873000Y-100973750D01*
X162873000Y-100927000D01*
X162826250Y-100927000D01*
X162714250Y-100815000D01*
X161985750Y-100815000D01*
X161873750Y-100927000D01*
X161827000Y-100927000D01*
X161827000Y-100973750D01*
X161715000Y-101085750D01*
X161573000Y-101085750D01*
X161573000Y-100927000D01*
X161526250Y-100927000D01*
X161414250Y-100815000D01*
X160923690Y-100815000D01*
X160690301Y-100911673D01*
X160674974Y-100927000D01*
X160573750Y-100927000D01*
X160415000Y-101085750D01*
X160415000Y-101130069D01*
X160384470Y-101109669D01*
X160040331Y-100765530D01*
X159997929Y-100702071D01*
X159746537Y-100534096D01*
X159728651Y-100530538D01*
X159722576Y-100500000D01*
X159747440Y-100375000D01*
X159747440Y-100125000D01*
X159722576Y-100000000D01*
X159747440Y-99875000D01*
X159747440Y-99785750D01*
X160415000Y-99785750D01*
X160415000Y-100514250D01*
X160573750Y-100673000D01*
X160674974Y-100673000D01*
X160690301Y-100688327D01*
X160923690Y-100785000D01*
X161414250Y-100785000D01*
X161526250Y-100673000D01*
X161573000Y-100673000D01*
X161573000Y-99785750D01*
X161715000Y-99785750D01*
X161715000Y-100514250D01*
X161827000Y-100626250D01*
X161827000Y-100673000D01*
X161873750Y-100673000D01*
X161985750Y-100785000D01*
X162714250Y-100785000D01*
X162826250Y-100673000D01*
X162873000Y-100673000D01*
X162873000Y-100626250D01*
X162985000Y-100514250D01*
X162985000Y-99785750D01*
X163015000Y-99785750D01*
X163015000Y-100514250D01*
X163127000Y-100626250D01*
X163127000Y-100673000D01*
X163173750Y-100673000D01*
X163285750Y-100785000D01*
X164014250Y-100785000D01*
X164126250Y-100673000D01*
X164173000Y-100673000D01*
X164173000Y-100626250D01*
X164285000Y-100514250D01*
X164285000Y-99785750D01*
X164315000Y-99785750D01*
X164315000Y-100514250D01*
X164427000Y-100626250D01*
X164427000Y-100673000D01*
X164473750Y-100673000D01*
X164585750Y-100785000D01*
X165314250Y-100785000D01*
X165426250Y-100673000D01*
X165473000Y-100673000D01*
X165473000Y-100626250D01*
X165585000Y-100514250D01*
X165585000Y-99785750D01*
X165615000Y-99785750D01*
X165615000Y-100514250D01*
X165727000Y-100626250D01*
X165727000Y-100673000D01*
X165773750Y-100673000D01*
X165885750Y-100785000D01*
X166614250Y-100785000D01*
X166726250Y-100673000D01*
X166773000Y-100673000D01*
X166773000Y-100626250D01*
X166885000Y-100514250D01*
X166885000Y-99785750D01*
X166773000Y-99673750D01*
X166773000Y-99627000D01*
X167027000Y-99627000D01*
X167027000Y-100673000D01*
X167073750Y-100673000D01*
X167185750Y-100785000D01*
X167676310Y-100785000D01*
X167909699Y-100688327D01*
X167925026Y-100673000D01*
X168026250Y-100673000D01*
X168185000Y-100514250D01*
X168185000Y-99785750D01*
X168026250Y-99627000D01*
X167925026Y-99627000D01*
X167909699Y-99611673D01*
X167676310Y-99515000D01*
X167185750Y-99515000D01*
X167073750Y-99627000D01*
X167027000Y-99627000D01*
X166773000Y-99627000D01*
X166726250Y-99627000D01*
X166614250Y-99515000D01*
X165885750Y-99515000D01*
X165773750Y-99627000D01*
X165727000Y-99627000D01*
X165727000Y-99673750D01*
X165615000Y-99785750D01*
X165585000Y-99785750D01*
X165473000Y-99673750D01*
X165473000Y-99627000D01*
X165426250Y-99627000D01*
X165314250Y-99515000D01*
X164585750Y-99515000D01*
X164473750Y-99627000D01*
X164427000Y-99627000D01*
X164427000Y-99673750D01*
X164315000Y-99785750D01*
X164285000Y-99785750D01*
X164173000Y-99673750D01*
X164173000Y-99627000D01*
X164126250Y-99627000D01*
X164014250Y-99515000D01*
X163285750Y-99515000D01*
X163173750Y-99627000D01*
X163127000Y-99627000D01*
X163127000Y-99673750D01*
X163015000Y-99785750D01*
X162985000Y-99785750D01*
X162873000Y-99673750D01*
X162873000Y-99627000D01*
X162826250Y-99627000D01*
X162714250Y-99515000D01*
X161985750Y-99515000D01*
X161873750Y-99627000D01*
X161827000Y-99627000D01*
X161827000Y-99673750D01*
X161715000Y-99785750D01*
X161573000Y-99785750D01*
X161573000Y-99627000D01*
X161526250Y-99627000D01*
X161414250Y-99515000D01*
X160923690Y-99515000D01*
X160690301Y-99611673D01*
X160674974Y-99627000D01*
X160573750Y-99627000D01*
X160415000Y-99785750D01*
X159747440Y-99785750D01*
X159747440Y-99625000D01*
X159722576Y-99500000D01*
X159747440Y-99375000D01*
X159747440Y-99125000D01*
X159722576Y-99000000D01*
X159747440Y-98875000D01*
X159747440Y-98625000D01*
X159722576Y-98500000D01*
X159725410Y-98485750D01*
X160415000Y-98485750D01*
X160415000Y-99214250D01*
X160573750Y-99373000D01*
X160674974Y-99373000D01*
X160690301Y-99388327D01*
X160923690Y-99485000D01*
X161414250Y-99485000D01*
X161526250Y-99373000D01*
X161573000Y-99373000D01*
X161573000Y-98485750D01*
X161715000Y-98485750D01*
X161715000Y-99214250D01*
X161827000Y-99326250D01*
X161827000Y-99373000D01*
X161873750Y-99373000D01*
X161985750Y-99485000D01*
X162714250Y-99485000D01*
X162826250Y-99373000D01*
X162873000Y-99373000D01*
X162873000Y-99326250D01*
X162985000Y-99214250D01*
X162985000Y-98485750D01*
X163015000Y-98485750D01*
X163015000Y-99214250D01*
X163127000Y-99326250D01*
X163127000Y-99373000D01*
X163173750Y-99373000D01*
X163285750Y-99485000D01*
X164014250Y-99485000D01*
X164126250Y-99373000D01*
X164173000Y-99373000D01*
X164173000Y-99326250D01*
X164285000Y-99214250D01*
X164285000Y-98485750D01*
X164315000Y-98485750D01*
X164315000Y-99214250D01*
X164427000Y-99326250D01*
X164427000Y-99373000D01*
X164473750Y-99373000D01*
X164585750Y-99485000D01*
X165314250Y-99485000D01*
X165426250Y-99373000D01*
X165473000Y-99373000D01*
X165473000Y-99326250D01*
X165585000Y-99214250D01*
X165585000Y-98485750D01*
X165615000Y-98485750D01*
X165615000Y-99214250D01*
X165727000Y-99326250D01*
X165727000Y-99373000D01*
X165773750Y-99373000D01*
X165885750Y-99485000D01*
X166614250Y-99485000D01*
X166726250Y-99373000D01*
X166773000Y-99373000D01*
X166773000Y-99326250D01*
X166885000Y-99214250D01*
X166885000Y-98485750D01*
X166773000Y-98373750D01*
X166773000Y-98327000D01*
X167027000Y-98327000D01*
X167027000Y-99373000D01*
X167073750Y-99373000D01*
X167185750Y-99485000D01*
X167676310Y-99485000D01*
X167909699Y-99388327D01*
X167925026Y-99373000D01*
X168026250Y-99373000D01*
X168185000Y-99214250D01*
X168185000Y-98485750D01*
X168026250Y-98327000D01*
X167925026Y-98327000D01*
X167909699Y-98311673D01*
X167676310Y-98215000D01*
X167185750Y-98215000D01*
X167073750Y-98327000D01*
X167027000Y-98327000D01*
X166773000Y-98327000D01*
X166726250Y-98327000D01*
X166614250Y-98215000D01*
X165885750Y-98215000D01*
X165773750Y-98327000D01*
X165727000Y-98327000D01*
X165727000Y-98373750D01*
X165615000Y-98485750D01*
X165585000Y-98485750D01*
X165473000Y-98373750D01*
X165473000Y-98327000D01*
X165426250Y-98327000D01*
X165314250Y-98215000D01*
X164585750Y-98215000D01*
X164473750Y-98327000D01*
X164427000Y-98327000D01*
X164427000Y-98373750D01*
X164315000Y-98485750D01*
X164285000Y-98485750D01*
X164173000Y-98373750D01*
X164173000Y-98327000D01*
X164126250Y-98327000D01*
X164014250Y-98215000D01*
X163285750Y-98215000D01*
X163173750Y-98327000D01*
X163127000Y-98327000D01*
X163127000Y-98373750D01*
X163015000Y-98485750D01*
X162985000Y-98485750D01*
X162873000Y-98373750D01*
X162873000Y-98327000D01*
X162826250Y-98327000D01*
X162714250Y-98215000D01*
X161985750Y-98215000D01*
X161873750Y-98327000D01*
X161827000Y-98327000D01*
X161827000Y-98373750D01*
X161715000Y-98485750D01*
X161573000Y-98485750D01*
X161573000Y-98327000D01*
X161526250Y-98327000D01*
X161414250Y-98215000D01*
X160923690Y-98215000D01*
X160690301Y-98311673D01*
X160674974Y-98327000D01*
X160573750Y-98327000D01*
X160415000Y-98485750D01*
X159725410Y-98485750D01*
X159747440Y-98375000D01*
X159747440Y-98125000D01*
X159722576Y-98000000D01*
X159747440Y-97875000D01*
X159747440Y-97625000D01*
X159726783Y-97521148D01*
X159735000Y-97501310D01*
X159735000Y-97471250D01*
X159712353Y-97448603D01*
X159698157Y-97377235D01*
X159617100Y-97255926D01*
X159638327Y-97234699D01*
X159658602Y-97185750D01*
X160415000Y-97185750D01*
X160415000Y-97914250D01*
X160573750Y-98073000D01*
X160674974Y-98073000D01*
X160690301Y-98088327D01*
X160923690Y-98185000D01*
X161414250Y-98185000D01*
X161526250Y-98073000D01*
X161573000Y-98073000D01*
X161573000Y-97185750D01*
X161715000Y-97185750D01*
X161715000Y-97914250D01*
X161827000Y-98026250D01*
X161827000Y-98073000D01*
X161873750Y-98073000D01*
X161985750Y-98185000D01*
X162714250Y-98185000D01*
X162826250Y-98073000D01*
X162873000Y-98073000D01*
X162873000Y-98026250D01*
X162985000Y-97914250D01*
X162985000Y-97185750D01*
X163015000Y-97185750D01*
X163015000Y-97914250D01*
X163127000Y-98026250D01*
X163127000Y-98073000D01*
X163173750Y-98073000D01*
X163285750Y-98185000D01*
X164014250Y-98185000D01*
X164126250Y-98073000D01*
X164173000Y-98073000D01*
X164173000Y-98026250D01*
X164285000Y-97914250D01*
X164285000Y-97185750D01*
X164315000Y-97185750D01*
X164315000Y-97914250D01*
X164427000Y-98026250D01*
X164427000Y-98073000D01*
X164473750Y-98073000D01*
X164585750Y-98185000D01*
X165314250Y-98185000D01*
X165426250Y-98073000D01*
X165473000Y-98073000D01*
X165473000Y-98026250D01*
X165585000Y-97914250D01*
X165585000Y-97185750D01*
X165615000Y-97185750D01*
X165615000Y-97914250D01*
X165727000Y-98026250D01*
X165727000Y-98073000D01*
X165773750Y-98073000D01*
X165885750Y-98185000D01*
X166614250Y-98185000D01*
X166726250Y-98073000D01*
X166773000Y-98073000D01*
X166773000Y-98026250D01*
X166885000Y-97914250D01*
X166885000Y-97185750D01*
X166773000Y-97073750D01*
X166773000Y-97027000D01*
X167027000Y-97027000D01*
X167027000Y-98073000D01*
X167073750Y-98073000D01*
X167185750Y-98185000D01*
X167676310Y-98185000D01*
X167909699Y-98088327D01*
X167925026Y-98073000D01*
X168026250Y-98073000D01*
X168185000Y-97914250D01*
X168185000Y-97185750D01*
X168026250Y-97027000D01*
X167925026Y-97027000D01*
X167909699Y-97011673D01*
X167676310Y-96915000D01*
X167185750Y-96915000D01*
X167073750Y-97027000D01*
X167027000Y-97027000D01*
X166773000Y-97027000D01*
X166726250Y-97027000D01*
X166614250Y-96915000D01*
X165885750Y-96915000D01*
X165773750Y-97027000D01*
X165727000Y-97027000D01*
X165727000Y-97073750D01*
X165615000Y-97185750D01*
X165585000Y-97185750D01*
X165473000Y-97073750D01*
X165473000Y-97027000D01*
X165426250Y-97027000D01*
X165314250Y-96915000D01*
X164585750Y-96915000D01*
X164473750Y-97027000D01*
X164427000Y-97027000D01*
X164427000Y-97073750D01*
X164315000Y-97185750D01*
X164285000Y-97185750D01*
X164173000Y-97073750D01*
X164173000Y-97027000D01*
X164126250Y-97027000D01*
X164014250Y-96915000D01*
X163285750Y-96915000D01*
X163173750Y-97027000D01*
X163127000Y-97027000D01*
X163127000Y-97073750D01*
X163015000Y-97185750D01*
X162985000Y-97185750D01*
X162873000Y-97073750D01*
X162873000Y-97027000D01*
X162826250Y-97027000D01*
X162714250Y-96915000D01*
X161985750Y-96915000D01*
X161873750Y-97027000D01*
X161827000Y-97027000D01*
X161827000Y-97073750D01*
X161715000Y-97185750D01*
X161573000Y-97185750D01*
X161573000Y-97027000D01*
X161526250Y-97027000D01*
X161414250Y-96915000D01*
X160923690Y-96915000D01*
X160690301Y-97011673D01*
X160674974Y-97027000D01*
X160573750Y-97027000D01*
X160415000Y-97185750D01*
X159658602Y-97185750D01*
X159715597Y-97048153D01*
X159735000Y-97028750D01*
X159735000Y-96971250D01*
X159715597Y-96951847D01*
X159638327Y-96765301D01*
X159623026Y-96750000D01*
X159638327Y-96734699D01*
X159715597Y-96548153D01*
X159735000Y-96528750D01*
X159735000Y-96471250D01*
X159715597Y-96451847D01*
X159638327Y-96265301D01*
X159617100Y-96244074D01*
X159697538Y-96123691D01*
X160415000Y-96123691D01*
X160415000Y-96614250D01*
X160573750Y-96773000D01*
X161573000Y-96773000D01*
X161573000Y-96123691D01*
X161715000Y-96123691D01*
X161715000Y-96614250D01*
X161827000Y-96726250D01*
X161827000Y-96773000D01*
X162873000Y-96773000D01*
X162873000Y-96726250D01*
X162985000Y-96614250D01*
X162985000Y-96123691D01*
X163015000Y-96123691D01*
X163015000Y-96614250D01*
X163127000Y-96726250D01*
X163127000Y-96773000D01*
X164173000Y-96773000D01*
X164173000Y-96726250D01*
X164285000Y-96614250D01*
X164285000Y-96123691D01*
X164315000Y-96123691D01*
X164315000Y-96614250D01*
X164427000Y-96726250D01*
X164427000Y-96773000D01*
X165473000Y-96773000D01*
X165473000Y-96726250D01*
X165585000Y-96614250D01*
X165585000Y-96123691D01*
X165615000Y-96123691D01*
X165615000Y-96614250D01*
X165727000Y-96726250D01*
X165727000Y-96773000D01*
X166773000Y-96773000D01*
X166773000Y-96726250D01*
X166885000Y-96614250D01*
X166885000Y-96123691D01*
X166788327Y-95890302D01*
X166773000Y-95874975D01*
X166773000Y-95773750D01*
X167027000Y-95773750D01*
X167027000Y-96773000D01*
X168026250Y-96773000D01*
X168185000Y-96614250D01*
X168185000Y-96123691D01*
X168088327Y-95890302D01*
X167909699Y-95711673D01*
X167676310Y-95615000D01*
X167185750Y-95615000D01*
X167027000Y-95773750D01*
X166773000Y-95773750D01*
X166614250Y-95615000D01*
X165885750Y-95615000D01*
X165727000Y-95773750D01*
X165727000Y-95874975D01*
X165711673Y-95890302D01*
X165615000Y-96123691D01*
X165585000Y-96123691D01*
X165488327Y-95890302D01*
X165473000Y-95874975D01*
X165473000Y-95773750D01*
X165314250Y-95615000D01*
X164585750Y-95615000D01*
X164427000Y-95773750D01*
X164427000Y-95874975D01*
X164411673Y-95890302D01*
X164315000Y-96123691D01*
X164285000Y-96123691D01*
X164188327Y-95890302D01*
X164173000Y-95874975D01*
X164173000Y-95773750D01*
X164014250Y-95615000D01*
X163285750Y-95615000D01*
X163127000Y-95773750D01*
X163127000Y-95874975D01*
X163111673Y-95890302D01*
X163015000Y-96123691D01*
X162985000Y-96123691D01*
X162888327Y-95890302D01*
X162873000Y-95874975D01*
X162873000Y-95773750D01*
X162714250Y-95615000D01*
X161985750Y-95615000D01*
X161827000Y-95773750D01*
X161827000Y-95874975D01*
X161811673Y-95890302D01*
X161715000Y-96123691D01*
X161573000Y-96123691D01*
X161573000Y-95773750D01*
X161414250Y-95615000D01*
X160923690Y-95615000D01*
X160690301Y-95711673D01*
X160511673Y-95890302D01*
X160415000Y-96123691D01*
X159697538Y-96123691D01*
X159698157Y-96122765D01*
X159712353Y-96051397D01*
X159735000Y-96028750D01*
X159735000Y-95998690D01*
X159726783Y-95978852D01*
X159747440Y-95875000D01*
X159747440Y-95625000D01*
X159698157Y-95377235D01*
X159668824Y-95333335D01*
X159716245Y-95262364D01*
X159785000Y-94916710D01*
X159785000Y-94337404D01*
X159826843Y-94547765D01*
X159967191Y-94757809D01*
X160177235Y-94898157D01*
X160425000Y-94947440D01*
X160675000Y-94947440D01*
X160800000Y-94922576D01*
X160925000Y-94947440D01*
X161175000Y-94947440D01*
X161300000Y-94922576D01*
X161425000Y-94947440D01*
X161675000Y-94947440D01*
X161800000Y-94922576D01*
X161925000Y-94947440D01*
X162175000Y-94947440D01*
X162300000Y-94922576D01*
X162425000Y-94947440D01*
X162675000Y-94947440D01*
X162800000Y-94922576D01*
X162925000Y-94947440D01*
X163175000Y-94947440D01*
X163300000Y-94922576D01*
X163425000Y-94947440D01*
X163675000Y-94947440D01*
X163800000Y-94922576D01*
X163925000Y-94947440D01*
X164175000Y-94947440D01*
X164300000Y-94922576D01*
X164425000Y-94947440D01*
X164675000Y-94947440D01*
X164800000Y-94922576D01*
X164925000Y-94947440D01*
X165175000Y-94947440D01*
X165300000Y-94922576D01*
X165425000Y-94947440D01*
X165675000Y-94947440D01*
X165800000Y-94922576D01*
X165925000Y-94947440D01*
X166175000Y-94947440D01*
X166278852Y-94926783D01*
X166298690Y-94935000D01*
X166328750Y-94935000D01*
X166351397Y-94912353D01*
X166422765Y-94898157D01*
X166544074Y-94817100D01*
X166565301Y-94838327D01*
X166751847Y-94915597D01*
X166771250Y-94935000D01*
X166828750Y-94935000D01*
X166848153Y-94915597D01*
X167034699Y-94838327D01*
X167055926Y-94817100D01*
X167177235Y-94898157D01*
X167248603Y-94912353D01*
X167271250Y-94935000D01*
X167301310Y-94935000D01*
X167321148Y-94926783D01*
X167425000Y-94947440D01*
X167675000Y-94947440D01*
X167800000Y-94922576D01*
X167925000Y-94947440D01*
X168175000Y-94947440D01*
X168422765Y-94898157D01*
X168632809Y-94757809D01*
X168773157Y-94547765D01*
X168822440Y-94300000D01*
X168822440Y-93300000D01*
X168773157Y-93052235D01*
X168694843Y-92935031D01*
X172450122Y-92935031D01*
X172524969Y-92949919D01*
X172599816Y-92935031D01*
X172599821Y-92935031D01*
X172821506Y-92890935D01*
X173072898Y-92722960D01*
X173115300Y-92659502D01*
X173784476Y-91990327D01*
X173847929Y-91947929D01*
X173890327Y-91884476D01*
X173890329Y-91884474D01*
X173996811Y-91725112D01*
X174015904Y-91696537D01*
X174060000Y-91474852D01*
X174060000Y-91474848D01*
X174074888Y-91400001D01*
X174060000Y-91325154D01*
X174060000Y-90920587D01*
X174172765Y-90898157D01*
X174382809Y-90757809D01*
X174523157Y-90547765D01*
X174538378Y-90471242D01*
X174722929Y-90347929D01*
X174765331Y-90284470D01*
X175684473Y-89365329D01*
X175747929Y-89322929D01*
X175915904Y-89071537D01*
X175960000Y-88849852D01*
X175960000Y-88849847D01*
X175974888Y-88775000D01*
X175960000Y-88700153D01*
X175960000Y-86374851D01*
X175974889Y-86300000D01*
X175974874Y-86299927D01*
X176639803Y-85634999D01*
X176854683Y-85634999D01*
X176528355Y-85993076D01*
G36*
X117240001Y-98229741D02*
X117240000Y-99660246D01*
X117192191Y-99692191D01*
X117051843Y-99902235D01*
X117002560Y-100150000D01*
X117002560Y-101450000D01*
X117051843Y-101697765D01*
X117192191Y-101907809D01*
X117402235Y-102048157D01*
X117650000Y-102097440D01*
X118350000Y-102097440D01*
X118597765Y-102048157D01*
X118807809Y-101907809D01*
X118948157Y-101697765D01*
X118950000Y-101688500D01*
X118951843Y-101697765D01*
X119092191Y-101907809D01*
X119302235Y-102048157D01*
X119550000Y-102097440D01*
X120250000Y-102097440D01*
X120497765Y-102048157D01*
X120640000Y-101953118D01*
X120640000Y-102443427D01*
X120492191Y-102542191D01*
X120351843Y-102752235D01*
X120302560Y-103000000D01*
X120302560Y-104200000D01*
X120351843Y-104447765D01*
X120492191Y-104657809D01*
X120702235Y-104798157D01*
X120950000Y-104847440D01*
X121850000Y-104847440D01*
X122097765Y-104798157D01*
X122307809Y-104657809D01*
X122448157Y-104447765D01*
X122497440Y-104200000D01*
X122497440Y-103000000D01*
X122448157Y-102752235D01*
X122307809Y-102542191D01*
X122160000Y-102443427D01*
X122160000Y-101114801D01*
X124639802Y-98635000D01*
X125072560Y-98635000D01*
X125072560Y-98975000D01*
X125121843Y-99222765D01*
X125262191Y-99432809D01*
X125472235Y-99573157D01*
X125720000Y-99622440D01*
X126890000Y-99622440D01*
X126890000Y-99852560D01*
X123900000Y-99852560D01*
X123652235Y-99901843D01*
X123442191Y-100042191D01*
X123301843Y-100252235D01*
X123252560Y-100500000D01*
X123252560Y-106900000D01*
X123301843Y-107147765D01*
X123442191Y-107357809D01*
X123652235Y-107498157D01*
X123900000Y-107547440D01*
X126015000Y-107547440D01*
X126015000Y-108289358D01*
X125952235Y-108301843D01*
X125742191Y-108442191D01*
X125660000Y-108565198D01*
X125577809Y-108442191D01*
X125367765Y-108301843D01*
X125120000Y-108252560D01*
X123920000Y-108252560D01*
X123672235Y-108301843D01*
X123462191Y-108442191D01*
X123321843Y-108652235D01*
X123272560Y-108900000D01*
X123272560Y-109270352D01*
X123203463Y-109284096D01*
X123203461Y-109284097D01*
X123203462Y-109284097D01*
X123015526Y-109409671D01*
X123015524Y-109409673D01*
X122952071Y-109452071D01*
X122909672Y-109515525D01*
X122760198Y-109665000D01*
X122594126Y-109665000D01*
X122213720Y-109822569D01*
X121922569Y-110113720D01*
X121851688Y-110284842D01*
X121751935Y-110265000D01*
X121751934Y-110265000D01*
X121650000Y-110244724D01*
X121548066Y-110265000D01*
X121497440Y-110265000D01*
X121497440Y-110050000D01*
X121448157Y-109802235D01*
X121307809Y-109592191D01*
X121097765Y-109451843D01*
X120850000Y-109402560D01*
X118550000Y-109402560D01*
X118302235Y-109451843D01*
X118092191Y-109592191D01*
X117951843Y-109802235D01*
X117902560Y-110050000D01*
X117902560Y-112550000D01*
X117951843Y-112797765D01*
X118092191Y-113007809D01*
X118102953Y-113015000D01*
X116885000Y-113015000D01*
X116885000Y-107285750D01*
X117915000Y-107285750D01*
X117915000Y-108376309D01*
X118011673Y-108609698D01*
X118190301Y-108788327D01*
X118423690Y-108885000D01*
X119414250Y-108885000D01*
X119573000Y-108726250D01*
X119573000Y-107127000D01*
X119827000Y-107127000D01*
X119827000Y-108726250D01*
X119985750Y-108885000D01*
X120976310Y-108885000D01*
X121209699Y-108788327D01*
X121388327Y-108609698D01*
X121485000Y-108376309D01*
X121485000Y-107285750D01*
X121326250Y-107127000D01*
X119827000Y-107127000D01*
X119573000Y-107127000D01*
X118073750Y-107127000D01*
X117915000Y-107285750D01*
X116885000Y-107285750D01*
X116885000Y-105623691D01*
X117915000Y-105623691D01*
X117915000Y-106714250D01*
X118073750Y-106873000D01*
X119573000Y-106873000D01*
X119573000Y-105273750D01*
X119827000Y-105273750D01*
X119827000Y-106873000D01*
X121326250Y-106873000D01*
X121485000Y-106714250D01*
X121485000Y-105623691D01*
X121388327Y-105390302D01*
X121209699Y-105211673D01*
X120976310Y-105115000D01*
X119985750Y-105115000D01*
X119827000Y-105273750D01*
X119573000Y-105273750D01*
X119414250Y-105115000D01*
X118423690Y-105115000D01*
X118190301Y-105211673D01*
X118011673Y-105390302D01*
X117915000Y-105623691D01*
X116885000Y-105623691D01*
X116885000Y-103885750D01*
X117015000Y-103885750D01*
X117015000Y-104326310D01*
X117111673Y-104559699D01*
X117290302Y-104738327D01*
X117523691Y-104835000D01*
X117814250Y-104835000D01*
X117973000Y-104676250D01*
X117973000Y-103727000D01*
X118227000Y-103727000D01*
X118227000Y-104676250D01*
X118385750Y-104835000D01*
X118676309Y-104835000D01*
X118909698Y-104738327D01*
X119088327Y-104559699D01*
X119185000Y-104326310D01*
X119185000Y-103885750D01*
X119026250Y-103727000D01*
X118227000Y-103727000D01*
X117973000Y-103727000D01*
X117173750Y-103727000D01*
X117015000Y-103885750D01*
X116885000Y-103885750D01*
X116885000Y-102873690D01*
X117015000Y-102873690D01*
X117015000Y-103314250D01*
X117173750Y-103473000D01*
X117973000Y-103473000D01*
X117973000Y-102523750D01*
X118227000Y-102523750D01*
X118227000Y-103473000D01*
X119026250Y-103473000D01*
X119185000Y-103314250D01*
X119185000Y-102873690D01*
X119088327Y-102640301D01*
X118909698Y-102461673D01*
X118676309Y-102365000D01*
X118385750Y-102365000D01*
X118227000Y-102523750D01*
X117973000Y-102523750D01*
X117814250Y-102365000D01*
X117523691Y-102365000D01*
X117290302Y-102461673D01*
X117111673Y-102640301D01*
X117015000Y-102873690D01*
X116885000Y-102873690D01*
X116885000Y-98082694D01*
X117240001Y-98229741D01*
X117240001Y-98229741D01*
G37*
X117240001Y-98229741D02*
X117240000Y-99660246D01*
X117192191Y-99692191D01*
X117051843Y-99902235D01*
X117002560Y-100150000D01*
X117002560Y-101450000D01*
X117051843Y-101697765D01*
X117192191Y-101907809D01*
X117402235Y-102048157D01*
X117650000Y-102097440D01*
X118350000Y-102097440D01*
X118597765Y-102048157D01*
X118807809Y-101907809D01*
X118948157Y-101697765D01*
X118950000Y-101688500D01*
X118951843Y-101697765D01*
X119092191Y-101907809D01*
X119302235Y-102048157D01*
X119550000Y-102097440D01*
X120250000Y-102097440D01*
X120497765Y-102048157D01*
X120640000Y-101953118D01*
X120640000Y-102443427D01*
X120492191Y-102542191D01*
X120351843Y-102752235D01*
X120302560Y-103000000D01*
X120302560Y-104200000D01*
X120351843Y-104447765D01*
X120492191Y-104657809D01*
X120702235Y-104798157D01*
X120950000Y-104847440D01*
X121850000Y-104847440D01*
X122097765Y-104798157D01*
X122307809Y-104657809D01*
X122448157Y-104447765D01*
X122497440Y-104200000D01*
X122497440Y-103000000D01*
X122448157Y-102752235D01*
X122307809Y-102542191D01*
X122160000Y-102443427D01*
X122160000Y-101114801D01*
X124639802Y-98635000D01*
X125072560Y-98635000D01*
X125072560Y-98975000D01*
X125121843Y-99222765D01*
X125262191Y-99432809D01*
X125472235Y-99573157D01*
X125720000Y-99622440D01*
X126890000Y-99622440D01*
X126890000Y-99852560D01*
X123900000Y-99852560D01*
X123652235Y-99901843D01*
X123442191Y-100042191D01*
X123301843Y-100252235D01*
X123252560Y-100500000D01*
X123252560Y-106900000D01*
X123301843Y-107147765D01*
X123442191Y-107357809D01*
X123652235Y-107498157D01*
X123900000Y-107547440D01*
X126015000Y-107547440D01*
X126015000Y-108289358D01*
X125952235Y-108301843D01*
X125742191Y-108442191D01*
X125660000Y-108565198D01*
X125577809Y-108442191D01*
X125367765Y-108301843D01*
X125120000Y-108252560D01*
X123920000Y-108252560D01*
X123672235Y-108301843D01*
X123462191Y-108442191D01*
X123321843Y-108652235D01*
X123272560Y-108900000D01*
X123272560Y-109270352D01*
X123203463Y-109284096D01*
X123203461Y-109284097D01*
X123203462Y-109284097D01*
X123015526Y-109409671D01*
X123015524Y-109409673D01*
X122952071Y-109452071D01*
X122909672Y-109515525D01*
X122760198Y-109665000D01*
X122594126Y-109665000D01*
X122213720Y-109822569D01*
X121922569Y-110113720D01*
X121851688Y-110284842D01*
X121751935Y-110265000D01*
X121751934Y-110265000D01*
X121650000Y-110244724D01*
X121548066Y-110265000D01*
X121497440Y-110265000D01*
X121497440Y-110050000D01*
X121448157Y-109802235D01*
X121307809Y-109592191D01*
X121097765Y-109451843D01*
X120850000Y-109402560D01*
X118550000Y-109402560D01*
X118302235Y-109451843D01*
X118092191Y-109592191D01*
X117951843Y-109802235D01*
X117902560Y-110050000D01*
X117902560Y-112550000D01*
X117951843Y-112797765D01*
X118092191Y-113007809D01*
X118102953Y-113015000D01*
X116885000Y-113015000D01*
X116885000Y-107285750D01*
X117915000Y-107285750D01*
X117915000Y-108376309D01*
X118011673Y-108609698D01*
X118190301Y-108788327D01*
X118423690Y-108885000D01*
X119414250Y-108885000D01*
X119573000Y-108726250D01*
X119573000Y-107127000D01*
X119827000Y-107127000D01*
X119827000Y-108726250D01*
X119985750Y-108885000D01*
X120976310Y-108885000D01*
X121209699Y-108788327D01*
X121388327Y-108609698D01*
X121485000Y-108376309D01*
X121485000Y-107285750D01*
X121326250Y-107127000D01*
X119827000Y-107127000D01*
X119573000Y-107127000D01*
X118073750Y-107127000D01*
X117915000Y-107285750D01*
X116885000Y-107285750D01*
X116885000Y-105623691D01*
X117915000Y-105623691D01*
X117915000Y-106714250D01*
X118073750Y-106873000D01*
X119573000Y-106873000D01*
X119573000Y-105273750D01*
X119827000Y-105273750D01*
X119827000Y-106873000D01*
X121326250Y-106873000D01*
X121485000Y-106714250D01*
X121485000Y-105623691D01*
X121388327Y-105390302D01*
X121209699Y-105211673D01*
X120976310Y-105115000D01*
X119985750Y-105115000D01*
X119827000Y-105273750D01*
X119573000Y-105273750D01*
X119414250Y-105115000D01*
X118423690Y-105115000D01*
X118190301Y-105211673D01*
X118011673Y-105390302D01*
X117915000Y-105623691D01*
X116885000Y-105623691D01*
X116885000Y-103885750D01*
X117015000Y-103885750D01*
X117015000Y-104326310D01*
X117111673Y-104559699D01*
X117290302Y-104738327D01*
X117523691Y-104835000D01*
X117814250Y-104835000D01*
X117973000Y-104676250D01*
X117973000Y-103727000D01*
X118227000Y-103727000D01*
X118227000Y-104676250D01*
X118385750Y-104835000D01*
X118676309Y-104835000D01*
X118909698Y-104738327D01*
X119088327Y-104559699D01*
X119185000Y-104326310D01*
X119185000Y-103885750D01*
X119026250Y-103727000D01*
X118227000Y-103727000D01*
X117973000Y-103727000D01*
X117173750Y-103727000D01*
X117015000Y-103885750D01*
X116885000Y-103885750D01*
X116885000Y-102873690D01*
X117015000Y-102873690D01*
X117015000Y-103314250D01*
X117173750Y-103473000D01*
X117973000Y-103473000D01*
X117973000Y-102523750D01*
X118227000Y-102523750D01*
X118227000Y-103473000D01*
X119026250Y-103473000D01*
X119185000Y-103314250D01*
X119185000Y-102873690D01*
X119088327Y-102640301D01*
X118909698Y-102461673D01*
X118676309Y-102365000D01*
X118385750Y-102365000D01*
X118227000Y-102523750D01*
X117973000Y-102523750D01*
X117814250Y-102365000D01*
X117523691Y-102365000D01*
X117290302Y-102461673D01*
X117111673Y-102640301D01*
X117015000Y-102873690D01*
X116885000Y-102873690D01*
X116885000Y-98082694D01*
X117240001Y-98229741D01*
G36*
X146872560Y-95700000D02*
X146921843Y-95947765D01*
X147062191Y-96157809D01*
X147205942Y-96253861D01*
X147065000Y-96594126D01*
X147065000Y-97005874D01*
X147222569Y-97386280D01*
X147513720Y-97677431D01*
X147521374Y-97680601D01*
X147361673Y-97840301D01*
X147265000Y-98073690D01*
X147265000Y-99514250D01*
X147423750Y-99673000D01*
X148273000Y-99673000D01*
X148273000Y-99653000D01*
X148527000Y-99653000D01*
X148527000Y-99673000D01*
X149376250Y-99673000D01*
X149535000Y-99514250D01*
X149535000Y-98073690D01*
X149438327Y-97840301D01*
X149259698Y-97661673D01*
X149026309Y-97565000D01*
X148798711Y-97565000D01*
X148977431Y-97386280D01*
X149135000Y-97005874D01*
X149135000Y-96594126D01*
X149002729Y-96274795D01*
X149177809Y-96157809D01*
X149260000Y-96034802D01*
X149342191Y-96157809D01*
X149552235Y-96298157D01*
X149800000Y-96347440D01*
X151000000Y-96347440D01*
X151245001Y-96298707D01*
X151245001Y-97738667D01*
X151216888Y-97880000D01*
X151258327Y-98088327D01*
X151328261Y-98439909D01*
X151645424Y-98914577D01*
X151765241Y-98994636D01*
X153452560Y-100681956D01*
X153452560Y-101323638D01*
X153213720Y-101422569D01*
X152922569Y-101713720D01*
X152875465Y-101827439D01*
X152809699Y-101761673D01*
X152576310Y-101665000D01*
X151485750Y-101665000D01*
X151327000Y-101823750D01*
X151327000Y-104173000D01*
X152926250Y-104173000D01*
X153085000Y-104014250D01*
X153085000Y-103048711D01*
X153213720Y-103177431D01*
X153474264Y-103285352D01*
X153391786Y-103699999D01*
X153415001Y-103816709D01*
X153415000Y-108859157D01*
X153097440Y-109176718D01*
X153097440Y-108400000D01*
X153048157Y-108152235D01*
X152907809Y-107942191D01*
X152697765Y-107801843D01*
X152450000Y-107752560D01*
X149950000Y-107752560D01*
X149702235Y-107801843D01*
X149492191Y-107942191D01*
X149351843Y-108152235D01*
X149329413Y-108265000D01*
X146647440Y-108265000D01*
X146647440Y-104850000D01*
X146598157Y-104602235D01*
X146587142Y-104585750D01*
X149315000Y-104585750D01*
X149315000Y-106426309D01*
X149411673Y-106659698D01*
X149590301Y-106838327D01*
X149823690Y-106935000D01*
X150914250Y-106935000D01*
X151073000Y-106776250D01*
X151073000Y-104427000D01*
X151327000Y-104427000D01*
X151327000Y-106776250D01*
X151485750Y-106935000D01*
X152576310Y-106935000D01*
X152809699Y-106838327D01*
X152988327Y-106659698D01*
X153085000Y-106426309D01*
X153085000Y-104585750D01*
X152926250Y-104427000D01*
X151327000Y-104427000D01*
X151073000Y-104427000D01*
X149473750Y-104427000D01*
X149315000Y-104585750D01*
X146587142Y-104585750D01*
X146457809Y-104392191D01*
X146247765Y-104251843D01*
X146000000Y-104202560D01*
X139300000Y-104202560D01*
X139052235Y-104251843D01*
X138842191Y-104392191D01*
X138701843Y-104602235D01*
X138652560Y-104850000D01*
X138652560Y-111550000D01*
X138701843Y-111797765D01*
X138842191Y-112007809D01*
X139052235Y-112148157D01*
X139300000Y-112197440D01*
X143697161Y-112197440D01*
X144016964Y-112411126D01*
X144639721Y-112535000D01*
X144639725Y-112535000D01*
X144850000Y-112576826D01*
X145060275Y-112535000D01*
X149329413Y-112535000D01*
X149351843Y-112647765D01*
X149492191Y-112857809D01*
X149702235Y-112998157D01*
X149786911Y-113015000D01*
X135562255Y-113015000D01*
X135828126Y-112962115D01*
X136699729Y-112379729D01*
X137282115Y-111508126D01*
X137435000Y-110739521D01*
X137435000Y-105291452D01*
X140552761Y-102173691D01*
X149315000Y-102173691D01*
X149315000Y-104014250D01*
X149473750Y-104173000D01*
X151073000Y-104173000D01*
X151073000Y-101823750D01*
X150914250Y-101665000D01*
X149823690Y-101665000D01*
X149590301Y-101761673D01*
X149411673Y-101940302D01*
X149315000Y-102173691D01*
X140552761Y-102173691D01*
X142640702Y-100085750D01*
X147265000Y-100085750D01*
X147265000Y-101526310D01*
X147361673Y-101759699D01*
X147540302Y-101938327D01*
X147773691Y-102035000D01*
X148114250Y-102035000D01*
X148273000Y-101876250D01*
X148273000Y-99927000D01*
X148527000Y-99927000D01*
X148527000Y-101876250D01*
X148685750Y-102035000D01*
X149026309Y-102035000D01*
X149259698Y-101938327D01*
X149438327Y-101759699D01*
X149535000Y-101526310D01*
X149535000Y-100085750D01*
X149376250Y-99927000D01*
X148527000Y-99927000D01*
X148273000Y-99927000D01*
X147423750Y-99927000D01*
X147265000Y-100085750D01*
X142640702Y-100085750D01*
X146079716Y-96646737D01*
X146299729Y-96499729D01*
X146872560Y-95642426D01*
X146872560Y-95700000D01*
X146872560Y-95700000D01*
G37*
X146872560Y-95700000D02*
X146921843Y-95947765D01*
X147062191Y-96157809D01*
X147205942Y-96253861D01*
X147065000Y-96594126D01*
X147065000Y-97005874D01*
X147222569Y-97386280D01*
X147513720Y-97677431D01*
X147521374Y-97680601D01*
X147361673Y-97840301D01*
X147265000Y-98073690D01*
X147265000Y-99514250D01*
X147423750Y-99673000D01*
X148273000Y-99673000D01*
X148273000Y-99653000D01*
X148527000Y-99653000D01*
X148527000Y-99673000D01*
X149376250Y-99673000D01*
X149535000Y-99514250D01*
X149535000Y-98073690D01*
X149438327Y-97840301D01*
X149259698Y-97661673D01*
X149026309Y-97565000D01*
X148798711Y-97565000D01*
X148977431Y-97386280D01*
X149135000Y-97005874D01*
X149135000Y-96594126D01*
X149002729Y-96274795D01*
X149177809Y-96157809D01*
X149260000Y-96034802D01*
X149342191Y-96157809D01*
X149552235Y-96298157D01*
X149800000Y-96347440D01*
X151000000Y-96347440D01*
X151245001Y-96298707D01*
X151245001Y-97738667D01*
X151216888Y-97880000D01*
X151258327Y-98088327D01*
X151328261Y-98439909D01*
X151645424Y-98914577D01*
X151765241Y-98994636D01*
X153452560Y-100681956D01*
X153452560Y-101323638D01*
X153213720Y-101422569D01*
X152922569Y-101713720D01*
X152875465Y-101827439D01*
X152809699Y-101761673D01*
X152576310Y-101665000D01*
X151485750Y-101665000D01*
X151327000Y-101823750D01*
X151327000Y-104173000D01*
X152926250Y-104173000D01*
X153085000Y-104014250D01*
X153085000Y-103048711D01*
X153213720Y-103177431D01*
X153474264Y-103285352D01*
X153391786Y-103699999D01*
X153415001Y-103816709D01*
X153415000Y-108859157D01*
X153097440Y-109176718D01*
X153097440Y-108400000D01*
X153048157Y-108152235D01*
X152907809Y-107942191D01*
X152697765Y-107801843D01*
X152450000Y-107752560D01*
X149950000Y-107752560D01*
X149702235Y-107801843D01*
X149492191Y-107942191D01*
X149351843Y-108152235D01*
X149329413Y-108265000D01*
X146647440Y-108265000D01*
X146647440Y-104850000D01*
X146598157Y-104602235D01*
X146587142Y-104585750D01*
X149315000Y-104585750D01*
X149315000Y-106426309D01*
X149411673Y-106659698D01*
X149590301Y-106838327D01*
X149823690Y-106935000D01*
X150914250Y-106935000D01*
X151073000Y-106776250D01*
X151073000Y-104427000D01*
X151327000Y-104427000D01*
X151327000Y-106776250D01*
X151485750Y-106935000D01*
X152576310Y-106935000D01*
X152809699Y-106838327D01*
X152988327Y-106659698D01*
X153085000Y-106426309D01*
X153085000Y-104585750D01*
X152926250Y-104427000D01*
X151327000Y-104427000D01*
X151073000Y-104427000D01*
X149473750Y-104427000D01*
X149315000Y-104585750D01*
X146587142Y-104585750D01*
X146457809Y-104392191D01*
X146247765Y-104251843D01*
X146000000Y-104202560D01*
X139300000Y-104202560D01*
X139052235Y-104251843D01*
X138842191Y-104392191D01*
X138701843Y-104602235D01*
X138652560Y-104850000D01*
X138652560Y-111550000D01*
X138701843Y-111797765D01*
X138842191Y-112007809D01*
X139052235Y-112148157D01*
X139300000Y-112197440D01*
X143697161Y-112197440D01*
X144016964Y-112411126D01*
X144639721Y-112535000D01*
X144639725Y-112535000D01*
X144850000Y-112576826D01*
X145060275Y-112535000D01*
X149329413Y-112535000D01*
X149351843Y-112647765D01*
X149492191Y-112857809D01*
X149702235Y-112998157D01*
X149786911Y-113015000D01*
X135562255Y-113015000D01*
X135828126Y-112962115D01*
X136699729Y-112379729D01*
X137282115Y-111508126D01*
X137435000Y-110739521D01*
X137435000Y-105291452D01*
X140552761Y-102173691D01*
X149315000Y-102173691D01*
X149315000Y-104014250D01*
X149473750Y-104173000D01*
X151073000Y-104173000D01*
X151073000Y-101823750D01*
X150914250Y-101665000D01*
X149823690Y-101665000D01*
X149590301Y-101761673D01*
X149411673Y-101940302D01*
X149315000Y-102173691D01*
X140552761Y-102173691D01*
X142640702Y-100085750D01*
X147265000Y-100085750D01*
X147265000Y-101526310D01*
X147361673Y-101759699D01*
X147540302Y-101938327D01*
X147773691Y-102035000D01*
X148114250Y-102035000D01*
X148273000Y-101876250D01*
X148273000Y-99927000D01*
X148527000Y-99927000D01*
X148527000Y-101876250D01*
X148685750Y-102035000D01*
X149026309Y-102035000D01*
X149259698Y-101938327D01*
X149438327Y-101759699D01*
X149535000Y-101526310D01*
X149535000Y-100085750D01*
X149376250Y-99927000D01*
X148527000Y-99927000D01*
X148273000Y-99927000D01*
X147423750Y-99927000D01*
X147265000Y-100085750D01*
X142640702Y-100085750D01*
X146079716Y-96646737D01*
X146299729Y-96499729D01*
X146872560Y-95642426D01*
X146872560Y-95700000D01*
G36*
X144699591Y-79390251D02*
X144699589Y-79390253D01*
X144634047Y-79434047D01*
X144590253Y-79499589D01*
X135999592Y-88090251D01*
X135934047Y-88134047D01*
X135890251Y-88199592D01*
X135873175Y-88225148D01*
X135760546Y-88393709D01*
X135715000Y-88622685D01*
X135715000Y-88622688D01*
X135699622Y-88700000D01*
X135715000Y-88777312D01*
X135715000Y-89114250D01*
X135290620Y-89290034D01*
X134690034Y-89890620D01*
X134365000Y-90675322D01*
X134365000Y-91524678D01*
X134690034Y-92309380D01*
X135065001Y-92684347D01*
X135065000Y-95605604D01*
X132223775Y-98446830D01*
X132231740Y-98434909D01*
X132343113Y-97875000D01*
X132231740Y-97315091D01*
X132127440Y-97158995D01*
X132127440Y-96775000D01*
X132078157Y-96527235D01*
X131937809Y-96317191D01*
X131727765Y-96176843D01*
X131480000Y-96127560D01*
X130280000Y-96127560D01*
X130032235Y-96176843D01*
X129822191Y-96317191D01*
X129740132Y-96440000D01*
X129491330Y-96440000D01*
X129350000Y-96411888D01*
X129208670Y-96440000D01*
X129208667Y-96440000D01*
X128790091Y-96523260D01*
X128315423Y-96840423D01*
X128235363Y-96960241D01*
X127567440Y-97628165D01*
X127567440Y-96775000D01*
X127518157Y-96527235D01*
X127377809Y-96317191D01*
X127167765Y-96176843D01*
X126920000Y-96127560D01*
X125720000Y-96127560D01*
X125472235Y-96176843D01*
X125262191Y-96317191D01*
X125121843Y-96527235D01*
X125072560Y-96775000D01*
X125072560Y-97115000D01*
X124399848Y-97115000D01*
X124325000Y-97100112D01*
X124250152Y-97115000D01*
X124250148Y-97115000D01*
X124094102Y-97146040D01*
X124335000Y-96564460D01*
X124335000Y-95635540D01*
X123979517Y-94777329D01*
X123435000Y-94232812D01*
X123435000Y-93010000D01*
X125052560Y-93010000D01*
X125052560Y-94775000D01*
X125101843Y-95022765D01*
X125242191Y-95232809D01*
X125452235Y-95373157D01*
X125700000Y-95422440D01*
X131500000Y-95422440D01*
X131747765Y-95373157D01*
X131957809Y-95232809D01*
X132098157Y-95022765D01*
X132147440Y-94775000D01*
X132147440Y-88375000D01*
X132098157Y-88127235D01*
X131957809Y-87917191D01*
X131747765Y-87776843D01*
X131500000Y-87727560D01*
X125700000Y-87727560D01*
X125452235Y-87776843D01*
X125242191Y-87917191D01*
X125101843Y-88127235D01*
X125052560Y-88375000D01*
X125052560Y-90140000D01*
X122566330Y-90140000D01*
X122425000Y-90111888D01*
X122283671Y-90140000D01*
X122283667Y-90140000D01*
X121865091Y-90223260D01*
X121390423Y-90540423D01*
X121310362Y-90660243D01*
X121085241Y-90885364D01*
X120965424Y-90965423D01*
X120685904Y-91383755D01*
X120648261Y-91440091D01*
X120536888Y-92000000D01*
X120565001Y-92141333D01*
X120565000Y-94232812D01*
X120132812Y-94665000D01*
X120067188Y-94665000D01*
X119522671Y-94120483D01*
X118664460Y-93765000D01*
X117735540Y-93765000D01*
X116885000Y-94117306D01*
X116885000Y-84082694D01*
X117735540Y-84435000D01*
X118664460Y-84435000D01*
X119522671Y-84079517D01*
X119598439Y-84003749D01*
X119859909Y-83951739D01*
X120214760Y-83714635D01*
X120263604Y-83665792D01*
X120677329Y-84079517D01*
X121535540Y-84435000D01*
X122464460Y-84435000D01*
X123322671Y-84079517D01*
X123867188Y-83535000D01*
X124793539Y-83535000D01*
X124990034Y-84009380D01*
X125590620Y-84609966D01*
X126375322Y-84935000D01*
X127224678Y-84935000D01*
X128009380Y-84609966D01*
X128609966Y-84009380D01*
X128935000Y-83224678D01*
X128935000Y-83085750D01*
X129745000Y-83085750D01*
X129745000Y-84426310D01*
X129841673Y-84659699D01*
X130020302Y-84838327D01*
X130253691Y-84935000D01*
X131594250Y-84935000D01*
X131753000Y-84776250D01*
X131753000Y-82927000D01*
X132007000Y-82927000D01*
X132007000Y-84776250D01*
X132165750Y-84935000D01*
X133506309Y-84935000D01*
X133739698Y-84838327D01*
X133918327Y-84659699D01*
X134015000Y-84426310D01*
X134015000Y-83085750D01*
X133856250Y-82927000D01*
X132007000Y-82927000D01*
X131753000Y-82927000D01*
X129903750Y-82927000D01*
X129745000Y-83085750D01*
X128935000Y-83085750D01*
X128935000Y-82375322D01*
X128723846Y-81865550D01*
X128793533Y-81795862D01*
X129130625Y-81570625D01*
X129145096Y-81548967D01*
X129211673Y-81709698D01*
X129390301Y-81888327D01*
X129623690Y-81985000D01*
X129745000Y-81985000D01*
X129745000Y-82514250D01*
X129903750Y-82673000D01*
X131753000Y-82673000D01*
X131753000Y-82653000D01*
X132007000Y-82653000D01*
X132007000Y-82673000D01*
X133856250Y-82673000D01*
X134015000Y-82514250D01*
X134015000Y-81173690D01*
X133918327Y-80940301D01*
X133739698Y-80761673D01*
X133506309Y-80665000D01*
X132165750Y-80665000D01*
X132065000Y-80765750D01*
X132007002Y-80707752D01*
X132007002Y-80665000D01*
X131964250Y-80665000D01*
X131926250Y-80627000D01*
X130727000Y-80627000D01*
X130727000Y-80647000D01*
X130473000Y-80647000D01*
X130473000Y-80627000D01*
X130453000Y-80627000D01*
X130453000Y-80373000D01*
X130473000Y-80373000D01*
X130473000Y-80353000D01*
X130727000Y-80353000D01*
X130727000Y-80373000D01*
X131926250Y-80373000D01*
X132085000Y-80214250D01*
X132085000Y-79523691D01*
X132027552Y-79385000D01*
X144707450Y-79385000D01*
X144699591Y-79390251D01*
X144699591Y-79390251D01*
G37*
X144699591Y-79390251D02*
X144699589Y-79390253D01*
X144634047Y-79434047D01*
X144590253Y-79499589D01*
X135999592Y-88090251D01*
X135934047Y-88134047D01*
X135890251Y-88199592D01*
X135873175Y-88225148D01*
X135760546Y-88393709D01*
X135715000Y-88622685D01*
X135715000Y-88622688D01*
X135699622Y-88700000D01*
X135715000Y-88777312D01*
X135715000Y-89114250D01*
X135290620Y-89290034D01*
X134690034Y-89890620D01*
X134365000Y-90675322D01*
X134365000Y-91524678D01*
X134690034Y-92309380D01*
X135065001Y-92684347D01*
X135065000Y-95605604D01*
X132223775Y-98446830D01*
X132231740Y-98434909D01*
X132343113Y-97875000D01*
X132231740Y-97315091D01*
X132127440Y-97158995D01*
X132127440Y-96775000D01*
X132078157Y-96527235D01*
X131937809Y-96317191D01*
X131727765Y-96176843D01*
X131480000Y-96127560D01*
X130280000Y-96127560D01*
X130032235Y-96176843D01*
X129822191Y-96317191D01*
X129740132Y-96440000D01*
X129491330Y-96440000D01*
X129350000Y-96411888D01*
X129208670Y-96440000D01*
X129208667Y-96440000D01*
X128790091Y-96523260D01*
X128315423Y-96840423D01*
X128235363Y-96960241D01*
X127567440Y-97628165D01*
X127567440Y-96775000D01*
X127518157Y-96527235D01*
X127377809Y-96317191D01*
X127167765Y-96176843D01*
X126920000Y-96127560D01*
X125720000Y-96127560D01*
X125472235Y-96176843D01*
X125262191Y-96317191D01*
X125121843Y-96527235D01*
X125072560Y-96775000D01*
X125072560Y-97115000D01*
X124399848Y-97115000D01*
X124325000Y-97100112D01*
X124250152Y-97115000D01*
X124250148Y-97115000D01*
X124094102Y-97146040D01*
X124335000Y-96564460D01*
X124335000Y-95635540D01*
X123979517Y-94777329D01*
X123435000Y-94232812D01*
X123435000Y-93010000D01*
X125052560Y-93010000D01*
X125052560Y-94775000D01*
X125101843Y-95022765D01*
X125242191Y-95232809D01*
X125452235Y-95373157D01*
X125700000Y-95422440D01*
X131500000Y-95422440D01*
X131747765Y-95373157D01*
X131957809Y-95232809D01*
X132098157Y-95022765D01*
X132147440Y-94775000D01*
X132147440Y-88375000D01*
X132098157Y-88127235D01*
X131957809Y-87917191D01*
X131747765Y-87776843D01*
X131500000Y-87727560D01*
X125700000Y-87727560D01*
X125452235Y-87776843D01*
X125242191Y-87917191D01*
X125101843Y-88127235D01*
X125052560Y-88375000D01*
X125052560Y-90140000D01*
X122566330Y-90140000D01*
X122425000Y-90111888D01*
X122283671Y-90140000D01*
X122283667Y-90140000D01*
X121865091Y-90223260D01*
X121390423Y-90540423D01*
X121310362Y-90660243D01*
X121085241Y-90885364D01*
X120965424Y-90965423D01*
X120685904Y-91383755D01*
X120648261Y-91440091D01*
X120536888Y-92000000D01*
X120565001Y-92141333D01*
X120565000Y-94232812D01*
X120132812Y-94665000D01*
X120067188Y-94665000D01*
X119522671Y-94120483D01*
X118664460Y-93765000D01*
X117735540Y-93765000D01*
X116885000Y-94117306D01*
X116885000Y-84082694D01*
X117735540Y-84435000D01*
X118664460Y-84435000D01*
X119522671Y-84079517D01*
X119598439Y-84003749D01*
X119859909Y-83951739D01*
X120214760Y-83714635D01*
X120263604Y-83665792D01*
X120677329Y-84079517D01*
X121535540Y-84435000D01*
X122464460Y-84435000D01*
X123322671Y-84079517D01*
X123867188Y-83535000D01*
X124793539Y-83535000D01*
X124990034Y-84009380D01*
X125590620Y-84609966D01*
X126375322Y-84935000D01*
X127224678Y-84935000D01*
X128009380Y-84609966D01*
X128609966Y-84009380D01*
X128935000Y-83224678D01*
X128935000Y-83085750D01*
X129745000Y-83085750D01*
X129745000Y-84426310D01*
X129841673Y-84659699D01*
X130020302Y-84838327D01*
X130253691Y-84935000D01*
X131594250Y-84935000D01*
X131753000Y-84776250D01*
X131753000Y-82927000D01*
X132007000Y-82927000D01*
X132007000Y-84776250D01*
X132165750Y-84935000D01*
X133506309Y-84935000D01*
X133739698Y-84838327D01*
X133918327Y-84659699D01*
X134015000Y-84426310D01*
X134015000Y-83085750D01*
X133856250Y-82927000D01*
X132007000Y-82927000D01*
X131753000Y-82927000D01*
X129903750Y-82927000D01*
X129745000Y-83085750D01*
X128935000Y-83085750D01*
X128935000Y-82375322D01*
X128723846Y-81865550D01*
X128793533Y-81795862D01*
X129130625Y-81570625D01*
X129145096Y-81548967D01*
X129211673Y-81709698D01*
X129390301Y-81888327D01*
X129623690Y-81985000D01*
X129745000Y-81985000D01*
X129745000Y-82514250D01*
X129903750Y-82673000D01*
X131753000Y-82673000D01*
X131753000Y-82653000D01*
X132007000Y-82653000D01*
X132007000Y-82673000D01*
X133856250Y-82673000D01*
X134015000Y-82514250D01*
X134015000Y-81173690D01*
X133918327Y-80940301D01*
X133739698Y-80761673D01*
X133506309Y-80665000D01*
X132165750Y-80665000D01*
X132065000Y-80765750D01*
X132007002Y-80707752D01*
X132007002Y-80665000D01*
X131964250Y-80665000D01*
X131926250Y-80627000D01*
X130727000Y-80627000D01*
X130727000Y-80647000D01*
X130473000Y-80647000D01*
X130473000Y-80627000D01*
X130453000Y-80627000D01*
X130453000Y-80373000D01*
X130473000Y-80373000D01*
X130473000Y-80353000D01*
X130727000Y-80353000D01*
X130727000Y-80373000D01*
X131926250Y-80373000D01*
X132085000Y-80214250D01*
X132085000Y-79523691D01*
X132027552Y-79385000D01*
X144707450Y-79385000D01*
X144699591Y-79390251D01*
G36*
X173436510Y-97488688D02*
X173435199Y-97490000D01*
X173331804Y-97490000D01*
X173436510Y-97385294D01*
X173436510Y-97488688D01*
X173436510Y-97488688D01*
G37*
X173436510Y-97488688D02*
X173435199Y-97490000D01*
X173331804Y-97490000D01*
X173436510Y-97385294D01*
X173436510Y-97488688D01*
G36*
X150015000Y-79423691D02*
X150015000Y-79614250D01*
X150173750Y-79773000D01*
X151173000Y-79773000D01*
X151173000Y-79753000D01*
X151427000Y-79753000D01*
X151427000Y-79773000D01*
X152426250Y-79773000D01*
X152585000Y-79614250D01*
X152585000Y-79423691D01*
X152568974Y-79385000D01*
X154130178Y-79385000D01*
X154051843Y-79502235D01*
X154002560Y-79750000D01*
X154002560Y-81450000D01*
X154051843Y-81697765D01*
X154192191Y-81907809D01*
X154402235Y-82048157D01*
X154650000Y-82097440D01*
X154740001Y-82097440D01*
X154740000Y-84196289D01*
X154622569Y-84313720D01*
X154465000Y-84694126D01*
X154465000Y-85105874D01*
X154622569Y-85486280D01*
X154913720Y-85777431D01*
X155294126Y-85935000D01*
X155705874Y-85935000D01*
X156086280Y-85777431D01*
X156377431Y-85486280D01*
X156535000Y-85105874D01*
X156535000Y-84694126D01*
X156377431Y-84313720D01*
X156260000Y-84196289D01*
X156260000Y-82097440D01*
X156350000Y-82097440D01*
X156597765Y-82048157D01*
X156807809Y-81907809D01*
X156855001Y-81837182D01*
X156855000Y-84873294D01*
X156831786Y-84990000D01*
X156855000Y-85106706D01*
X156855000Y-85106709D01*
X156923755Y-85452363D01*
X157185663Y-85844337D01*
X157284608Y-85910450D01*
X158252560Y-86878403D01*
X158252560Y-90871597D01*
X157844607Y-91279550D01*
X157745663Y-91345663D01*
X157483755Y-91737637D01*
X157415000Y-92083291D01*
X157415000Y-92083294D01*
X157391786Y-92200000D01*
X157415000Y-92316706D01*
X157415001Y-94916710D01*
X157483756Y-95262364D01*
X157531177Y-95333334D01*
X157501843Y-95377235D01*
X157452560Y-95625000D01*
X157452560Y-95875000D01*
X157473217Y-95978852D01*
X157465000Y-95998690D01*
X157465000Y-96028750D01*
X157487647Y-96051397D01*
X157501843Y-96122765D01*
X157582900Y-96244074D01*
X157561673Y-96265301D01*
X157484403Y-96451847D01*
X157465000Y-96471250D01*
X157465000Y-96528750D01*
X157484403Y-96548153D01*
X157561673Y-96734699D01*
X157576974Y-96750000D01*
X157561673Y-96765301D01*
X157484403Y-96951847D01*
X157465000Y-96971250D01*
X157465000Y-97028750D01*
X157484403Y-97048153D01*
X157515405Y-97122998D01*
X157498841Y-97122998D01*
X156435000Y-96059158D01*
X156435000Y-93039868D01*
X156557809Y-92957809D01*
X156698157Y-92747765D01*
X156747440Y-92500000D01*
X156747440Y-86800000D01*
X156698157Y-86552235D01*
X156557809Y-86342191D01*
X156347765Y-86201843D01*
X156100000Y-86152560D01*
X154400000Y-86152560D01*
X154152235Y-86201843D01*
X153947440Y-86338684D01*
X153947440Y-85100000D01*
X153898157Y-84852235D01*
X153757809Y-84642191D01*
X153547765Y-84501843D01*
X153300000Y-84452560D01*
X147500000Y-84452560D01*
X147252235Y-84501843D01*
X147164005Y-84560797D01*
X147372595Y-84352207D01*
X147600000Y-84397440D01*
X148800000Y-84397440D01*
X149047765Y-84348157D01*
X149257809Y-84207809D01*
X149356573Y-84060000D01*
X149425153Y-84060000D01*
X149500000Y-84074888D01*
X149574847Y-84060000D01*
X149574852Y-84060000D01*
X149796537Y-84015904D01*
X150047929Y-83847929D01*
X150090331Y-83784470D01*
X151077362Y-82797440D01*
X151950000Y-82797440D01*
X152197765Y-82748157D01*
X152407809Y-82607809D01*
X152548157Y-82397765D01*
X152597440Y-82150000D01*
X152597440Y-81450000D01*
X152548157Y-81202235D01*
X152407809Y-80992191D01*
X152197765Y-80851843D01*
X152169791Y-80846279D01*
X152309699Y-80788327D01*
X152488327Y-80609698D01*
X152585000Y-80376309D01*
X152585000Y-80185750D01*
X152426250Y-80027000D01*
X151427000Y-80027000D01*
X151427000Y-80047000D01*
X151173000Y-80047000D01*
X151173000Y-80027000D01*
X150173750Y-80027000D01*
X150015000Y-80185750D01*
X150015000Y-80376309D01*
X150111673Y-80609698D01*
X150290301Y-80788327D01*
X150430209Y-80846279D01*
X150402235Y-80851843D01*
X150192191Y-80992191D01*
X150051843Y-81202235D01*
X150002560Y-81450000D01*
X150002560Y-81722638D01*
X149287929Y-82437269D01*
X149257809Y-82392191D01*
X149047765Y-82251843D01*
X148800000Y-82202560D01*
X147600000Y-82202560D01*
X147352235Y-82251843D01*
X147142191Y-82392191D01*
X147001843Y-82602235D01*
X146998092Y-82621094D01*
X146802071Y-82752071D01*
X146759671Y-82815527D01*
X140115530Y-89459669D01*
X140052071Y-89502071D01*
X139884096Y-89753464D01*
X139840000Y-89975149D01*
X139840000Y-89975153D01*
X139825112Y-90050000D01*
X139840000Y-90124847D01*
X139840001Y-93965197D01*
X137935000Y-95870198D01*
X137935000Y-92684346D01*
X138309966Y-92309380D01*
X138635000Y-91524678D01*
X138635000Y-90675322D01*
X138309966Y-89890620D01*
X137709380Y-89290034D01*
X137285000Y-89114250D01*
X137285000Y-89025157D01*
X145525158Y-80785000D01*
X147060132Y-80785000D01*
X147142191Y-80907809D01*
X147352235Y-81048157D01*
X147600000Y-81097440D01*
X148800000Y-81097440D01*
X149047765Y-81048157D01*
X149257809Y-80907809D01*
X149398157Y-80697765D01*
X149447440Y-80450000D01*
X149447440Y-79550000D01*
X149414620Y-79385000D01*
X150031026Y-79385000D01*
X150015000Y-79423691D01*
X150015000Y-79423691D01*
G37*
X150015000Y-79423691D02*
X150015000Y-79614250D01*
X150173750Y-79773000D01*
X151173000Y-79773000D01*
X151173000Y-79753000D01*
X151427000Y-79753000D01*
X151427000Y-79773000D01*
X152426250Y-79773000D01*
X152585000Y-79614250D01*
X152585000Y-79423691D01*
X152568974Y-79385000D01*
X154130178Y-79385000D01*
X154051843Y-79502235D01*
X154002560Y-79750000D01*
X154002560Y-81450000D01*
X154051843Y-81697765D01*
X154192191Y-81907809D01*
X154402235Y-82048157D01*
X154650000Y-82097440D01*
X154740001Y-82097440D01*
X154740000Y-84196289D01*
X154622569Y-84313720D01*
X154465000Y-84694126D01*
X154465000Y-85105874D01*
X154622569Y-85486280D01*
X154913720Y-85777431D01*
X155294126Y-85935000D01*
X155705874Y-85935000D01*
X156086280Y-85777431D01*
X156377431Y-85486280D01*
X156535000Y-85105874D01*
X156535000Y-84694126D01*
X156377431Y-84313720D01*
X156260000Y-84196289D01*
X156260000Y-82097440D01*
X156350000Y-82097440D01*
X156597765Y-82048157D01*
X156807809Y-81907809D01*
X156855001Y-81837182D01*
X156855000Y-84873294D01*
X156831786Y-84990000D01*
X156855000Y-85106706D01*
X156855000Y-85106709D01*
X156923755Y-85452363D01*
X157185663Y-85844337D01*
X157284608Y-85910450D01*
X158252560Y-86878403D01*
X158252560Y-90871597D01*
X157844607Y-91279550D01*
X157745663Y-91345663D01*
X157483755Y-91737637D01*
X157415000Y-92083291D01*
X157415000Y-92083294D01*
X157391786Y-92200000D01*
X157415000Y-92316706D01*
X157415001Y-94916710D01*
X157483756Y-95262364D01*
X157531177Y-95333334D01*
X157501843Y-95377235D01*
X157452560Y-95625000D01*
X157452560Y-95875000D01*
X157473217Y-95978852D01*
X157465000Y-95998690D01*
X157465000Y-96028750D01*
X157487647Y-96051397D01*
X157501843Y-96122765D01*
X157582900Y-96244074D01*
X157561673Y-96265301D01*
X157484403Y-96451847D01*
X157465000Y-96471250D01*
X157465000Y-96528750D01*
X157484403Y-96548153D01*
X157561673Y-96734699D01*
X157576974Y-96750000D01*
X157561673Y-96765301D01*
X157484403Y-96951847D01*
X157465000Y-96971250D01*
X157465000Y-97028750D01*
X157484403Y-97048153D01*
X157515405Y-97122998D01*
X157498841Y-97122998D01*
X156435000Y-96059158D01*
X156435000Y-93039868D01*
X156557809Y-92957809D01*
X156698157Y-92747765D01*
X156747440Y-92500000D01*
X156747440Y-86800000D01*
X156698157Y-86552235D01*
X156557809Y-86342191D01*
X156347765Y-86201843D01*
X156100000Y-86152560D01*
X154400000Y-86152560D01*
X154152235Y-86201843D01*
X153947440Y-86338684D01*
X153947440Y-85100000D01*
X153898157Y-84852235D01*
X153757809Y-84642191D01*
X153547765Y-84501843D01*
X153300000Y-84452560D01*
X147500000Y-84452560D01*
X147252235Y-84501843D01*
X147164005Y-84560797D01*
X147372595Y-84352207D01*
X147600000Y-84397440D01*
X148800000Y-84397440D01*
X149047765Y-84348157D01*
X149257809Y-84207809D01*
X149356573Y-84060000D01*
X149425153Y-84060000D01*
X149500000Y-84074888D01*
X149574847Y-84060000D01*
X149574852Y-84060000D01*
X149796537Y-84015904D01*
X150047929Y-83847929D01*
X150090331Y-83784470D01*
X151077362Y-82797440D01*
X151950000Y-82797440D01*
X152197765Y-82748157D01*
X152407809Y-82607809D01*
X152548157Y-82397765D01*
X152597440Y-82150000D01*
X152597440Y-81450000D01*
X152548157Y-81202235D01*
X152407809Y-80992191D01*
X152197765Y-80851843D01*
X152169791Y-80846279D01*
X152309699Y-80788327D01*
X152488327Y-80609698D01*
X152585000Y-80376309D01*
X152585000Y-80185750D01*
X152426250Y-80027000D01*
X151427000Y-80027000D01*
X151427000Y-80047000D01*
X151173000Y-80047000D01*
X151173000Y-80027000D01*
X150173750Y-80027000D01*
X150015000Y-80185750D01*
X150015000Y-80376309D01*
X150111673Y-80609698D01*
X150290301Y-80788327D01*
X150430209Y-80846279D01*
X150402235Y-80851843D01*
X150192191Y-80992191D01*
X150051843Y-81202235D01*
X150002560Y-81450000D01*
X150002560Y-81722638D01*
X149287929Y-82437269D01*
X149257809Y-82392191D01*
X149047765Y-82251843D01*
X148800000Y-82202560D01*
X147600000Y-82202560D01*
X147352235Y-82251843D01*
X147142191Y-82392191D01*
X147001843Y-82602235D01*
X146998092Y-82621094D01*
X146802071Y-82752071D01*
X146759671Y-82815527D01*
X140115530Y-89459669D01*
X140052071Y-89502071D01*
X139884096Y-89753464D01*
X139840000Y-89975149D01*
X139840000Y-89975153D01*
X139825112Y-90050000D01*
X139840000Y-90124847D01*
X139840001Y-93965197D01*
X137935000Y-95870198D01*
X137935000Y-92684346D01*
X138309966Y-92309380D01*
X138635000Y-91524678D01*
X138635000Y-90675322D01*
X138309966Y-89890620D01*
X137709380Y-89290034D01*
X137285000Y-89114250D01*
X137285000Y-89025157D01*
X145525158Y-80785000D01*
X147060132Y-80785000D01*
X147142191Y-80907809D01*
X147352235Y-81048157D01*
X147600000Y-81097440D01*
X148800000Y-81097440D01*
X149047765Y-81048157D01*
X149257809Y-80907809D01*
X149398157Y-80697765D01*
X149447440Y-80450000D01*
X149447440Y-79550000D01*
X149414620Y-79385000D01*
X150031026Y-79385000D01*
X150015000Y-79423691D01*
G36*
X174117696Y-86692498D02*
X174051310Y-86665000D01*
X173585750Y-86665000D01*
X173427000Y-86823750D01*
X173427000Y-87673000D01*
X173447000Y-87673000D01*
X173447000Y-87927000D01*
X173427000Y-87927000D01*
X173427000Y-87947000D01*
X173173000Y-87947000D01*
X173173000Y-87927000D01*
X171227000Y-87927000D01*
X171227000Y-87947000D01*
X170973000Y-87947000D01*
X170973000Y-87927000D01*
X170953000Y-87927000D01*
X170953000Y-87673000D01*
X170973000Y-87673000D01*
X170973000Y-86823750D01*
X171227000Y-86823750D01*
X171227000Y-87673000D01*
X173173000Y-87673000D01*
X173173000Y-86823750D01*
X173014250Y-86665000D01*
X172548690Y-86665000D01*
X172315301Y-86761673D01*
X172200000Y-86876975D01*
X172084699Y-86761673D01*
X171851310Y-86665000D01*
X171385750Y-86665000D01*
X171227000Y-86823750D01*
X170973000Y-86823750D01*
X170814250Y-86665000D01*
X170660001Y-86665000D01*
X170660001Y-83234802D01*
X174117696Y-86692498D01*
X174117696Y-86692498D01*
G37*
X174117696Y-86692498D02*
X174051310Y-86665000D01*
X173585750Y-86665000D01*
X173427000Y-86823750D01*
X173427000Y-87673000D01*
X173447000Y-87673000D01*
X173447000Y-87927000D01*
X173427000Y-87927000D01*
X173427000Y-87947000D01*
X173173000Y-87947000D01*
X173173000Y-87927000D01*
X171227000Y-87927000D01*
X171227000Y-87947000D01*
X170973000Y-87947000D01*
X170973000Y-87927000D01*
X170953000Y-87927000D01*
X170953000Y-87673000D01*
X170973000Y-87673000D01*
X170973000Y-86823750D01*
X171227000Y-86823750D01*
X171227000Y-87673000D01*
X173173000Y-87673000D01*
X173173000Y-86823750D01*
X173014250Y-86665000D01*
X172548690Y-86665000D01*
X172315301Y-86761673D01*
X172200000Y-86876975D01*
X172084699Y-86761673D01*
X171851310Y-86665000D01*
X171385750Y-86665000D01*
X171227000Y-86823750D01*
X170973000Y-86823750D01*
X170814250Y-86665000D01*
X170660001Y-86665000D01*
X170660001Y-83234802D01*
X174117696Y-86692498D01*
G36*
X169140002Y-82614804D02*
X169140001Y-86710749D01*
X169027000Y-86823750D01*
X169027000Y-87673000D01*
X169047000Y-87673000D01*
X169047000Y-87927000D01*
X169027000Y-87927000D01*
X169027000Y-87947000D01*
X168773000Y-87947000D01*
X168773000Y-87927000D01*
X168753000Y-87927000D01*
X168753000Y-87673000D01*
X168773000Y-87673000D01*
X168773000Y-86823750D01*
X168614250Y-86665000D01*
X168460001Y-86665000D01*
X168460001Y-82714848D01*
X168474889Y-82640001D01*
X168460001Y-82565154D01*
X168460001Y-82565149D01*
X168415905Y-82343464D01*
X168247930Y-82092072D01*
X168237346Y-82085000D01*
X168346256Y-82085000D01*
X168566408Y-82041209D01*
X169140002Y-82614804D01*
X169140002Y-82614804D01*
G37*
X169140002Y-82614804D02*
X169140001Y-86710749D01*
X169027000Y-86823750D01*
X169027000Y-87673000D01*
X169047000Y-87673000D01*
X169047000Y-87927000D01*
X169027000Y-87927000D01*
X169027000Y-87947000D01*
X168773000Y-87947000D01*
X168773000Y-87927000D01*
X168753000Y-87927000D01*
X168753000Y-87673000D01*
X168773000Y-87673000D01*
X168773000Y-86823750D01*
X168614250Y-86665000D01*
X168460001Y-86665000D01*
X168460001Y-82714848D01*
X168474889Y-82640001D01*
X168460001Y-82565154D01*
X168460001Y-82565149D01*
X168415905Y-82343464D01*
X168247930Y-82092072D01*
X168237346Y-82085000D01*
X168346256Y-82085000D01*
X168566408Y-82041209D01*
X169140002Y-82614804D01*
G36*
X166940002Y-82954804D02*
X166940001Y-86710749D01*
X166827000Y-86823750D01*
X166827000Y-87673000D01*
X166847000Y-87673000D01*
X166847000Y-87927000D01*
X166827000Y-87927000D01*
X166827000Y-87947000D01*
X166573000Y-87947000D01*
X166573000Y-87927000D01*
X166553000Y-87927000D01*
X166553000Y-87673000D01*
X166573000Y-87673000D01*
X166573000Y-86823750D01*
X166414250Y-86665000D01*
X166160001Y-86665000D01*
X166160001Y-82954847D01*
X166174889Y-82880000D01*
X166160001Y-82805153D01*
X166160001Y-82805149D01*
X166115905Y-82583464D01*
X165947930Y-82332072D01*
X165884474Y-82289672D01*
X165679802Y-82085000D01*
X165806256Y-82085000D01*
X166026408Y-82041209D01*
X166940002Y-82954804D01*
X166940002Y-82954804D01*
G37*
X166940002Y-82954804D02*
X166940001Y-86710749D01*
X166827000Y-86823750D01*
X166827000Y-87673000D01*
X166847000Y-87673000D01*
X166847000Y-87927000D01*
X166827000Y-87927000D01*
X166827000Y-87947000D01*
X166573000Y-87947000D01*
X166573000Y-87927000D01*
X166553000Y-87927000D01*
X166553000Y-87673000D01*
X166573000Y-87673000D01*
X166573000Y-86823750D01*
X166414250Y-86665000D01*
X166160001Y-86665000D01*
X166160001Y-82954847D01*
X166174889Y-82880000D01*
X166160001Y-82805153D01*
X166160001Y-82805149D01*
X166115905Y-82583464D01*
X165947930Y-82332072D01*
X165884474Y-82289672D01*
X165679802Y-82085000D01*
X165806256Y-82085000D01*
X166026408Y-82041209D01*
X166940002Y-82954804D01*
G36*
X164640002Y-83194804D02*
X164640001Y-86710749D01*
X164527000Y-86823750D01*
X164527000Y-87673000D01*
X164547000Y-87673000D01*
X164547000Y-87927000D01*
X164527000Y-87927000D01*
X164527000Y-87947000D01*
X164273000Y-87947000D01*
X164273000Y-87927000D01*
X164253000Y-87927000D01*
X164253000Y-87673000D01*
X164273000Y-87673000D01*
X164273000Y-86823750D01*
X164114250Y-86665000D01*
X163860001Y-86665000D01*
X163860001Y-83194847D01*
X163874889Y-83120000D01*
X163860001Y-83045153D01*
X163860001Y-83045149D01*
X163815905Y-82823464D01*
X163693319Y-82640001D01*
X163690330Y-82635527D01*
X163690328Y-82635525D01*
X163647930Y-82572072D01*
X163584477Y-82529674D01*
X163139802Y-82085000D01*
X163266256Y-82085000D01*
X163486408Y-82041209D01*
X164640002Y-83194804D01*
X164640002Y-83194804D01*
G37*
X164640002Y-83194804D02*
X164640001Y-86710749D01*
X164527000Y-86823750D01*
X164527000Y-87673000D01*
X164547000Y-87673000D01*
X164547000Y-87927000D01*
X164527000Y-87927000D01*
X164527000Y-87947000D01*
X164273000Y-87947000D01*
X164273000Y-87927000D01*
X164253000Y-87927000D01*
X164253000Y-87673000D01*
X164273000Y-87673000D01*
X164273000Y-86823750D01*
X164114250Y-86665000D01*
X163860001Y-86665000D01*
X163860001Y-83194847D01*
X163874889Y-83120000D01*
X163860001Y-83045153D01*
X163860001Y-83045149D01*
X163815905Y-82823464D01*
X163693319Y-82640001D01*
X163690330Y-82635527D01*
X163690328Y-82635525D01*
X163647930Y-82572072D01*
X163584477Y-82529674D01*
X163139802Y-82085000D01*
X163266256Y-82085000D01*
X163486408Y-82041209D01*
X164640002Y-83194804D01*
G36*
X159509375Y-81670625D02*
X160000582Y-81998839D01*
X160433744Y-82085000D01*
X160726256Y-82085000D01*
X160946408Y-82041209D01*
X162340002Y-83434805D01*
X162340001Y-86710749D01*
X162227000Y-86823750D01*
X162227000Y-87673000D01*
X162247000Y-87673000D01*
X162247000Y-87927000D01*
X162227000Y-87927000D01*
X162227000Y-87947000D01*
X161973000Y-87947000D01*
X161973000Y-87927000D01*
X161953000Y-87927000D01*
X161953000Y-87673000D01*
X161973000Y-87673000D01*
X161973000Y-86823750D01*
X161814250Y-86665000D01*
X161348690Y-86665000D01*
X161230338Y-86714023D01*
X161198157Y-86552235D01*
X161057809Y-86342191D01*
X160847765Y-86201843D01*
X160651071Y-86162719D01*
X160616245Y-85987636D01*
X160560002Y-85903462D01*
X160420448Y-85694605D01*
X160354337Y-85595663D01*
X160255395Y-85529552D01*
X159225000Y-84499158D01*
X159225000Y-81499451D01*
X159310000Y-81372239D01*
X159509375Y-81670625D01*
X159509375Y-81670625D01*
G37*
X159509375Y-81670625D02*
X160000582Y-81998839D01*
X160433744Y-82085000D01*
X160726256Y-82085000D01*
X160946408Y-82041209D01*
X162340002Y-83434805D01*
X162340001Y-86710749D01*
X162227000Y-86823750D01*
X162227000Y-87673000D01*
X162247000Y-87673000D01*
X162247000Y-87927000D01*
X162227000Y-87927000D01*
X162227000Y-87947000D01*
X161973000Y-87947000D01*
X161973000Y-87927000D01*
X161953000Y-87927000D01*
X161953000Y-87673000D01*
X161973000Y-87673000D01*
X161973000Y-86823750D01*
X161814250Y-86665000D01*
X161348690Y-86665000D01*
X161230338Y-86714023D01*
X161198157Y-86552235D01*
X161057809Y-86342191D01*
X160847765Y-86201843D01*
X160651071Y-86162719D01*
X160616245Y-85987636D01*
X160560002Y-85903462D01*
X160420448Y-85694605D01*
X160354337Y-85595663D01*
X160255395Y-85529552D01*
X159225000Y-84499158D01*
X159225000Y-81499451D01*
X159310000Y-81372239D01*
X159509375Y-81670625D01*
G36*
X181851843Y-79502235D02*
X181802560Y-79750000D01*
X181802560Y-81450000D01*
X181851843Y-81697765D01*
X181992191Y-81907809D01*
X182202235Y-82048157D01*
X182247619Y-82057184D01*
X182229375Y-82069375D01*
X181901161Y-82560582D01*
X181785908Y-83140000D01*
X181858791Y-83506408D01*
X181250200Y-84114999D01*
X176399849Y-84114999D01*
X176325001Y-84100111D01*
X176250153Y-84114999D01*
X176250149Y-84114999D01*
X176076606Y-84149519D01*
X176028463Y-84159095D01*
X175889316Y-84252071D01*
X175777072Y-84327070D01*
X175734672Y-84390526D01*
X174850000Y-85275198D01*
X171500000Y-81925199D01*
X171500000Y-81878178D01*
X171810625Y-81670625D01*
X172023843Y-81351522D01*
X172084817Y-81481358D01*
X172513076Y-81871645D01*
X172923110Y-82041476D01*
X173153000Y-81920155D01*
X173153000Y-80727000D01*
X173407000Y-80727000D01*
X173407000Y-81920155D01*
X173636890Y-82041476D01*
X174046924Y-81871645D01*
X174475183Y-81481358D01*
X174550000Y-81322046D01*
X174624817Y-81481358D01*
X175053076Y-81871645D01*
X175463110Y-82041476D01*
X175693000Y-81920155D01*
X175693000Y-80727000D01*
X175947000Y-80727000D01*
X175947000Y-81920155D01*
X176176890Y-82041476D01*
X176586924Y-81871645D01*
X177015183Y-81481358D01*
X177090000Y-81322046D01*
X177164817Y-81481358D01*
X177593076Y-81871645D01*
X178003110Y-82041476D01*
X178233000Y-81920155D01*
X178233000Y-80727000D01*
X178487000Y-80727000D01*
X178487000Y-81920155D01*
X178716890Y-82041476D01*
X179126924Y-81871645D01*
X179555183Y-81481358D01*
X179801486Y-80956892D01*
X179680819Y-80727000D01*
X178487000Y-80727000D01*
X178233000Y-80727000D01*
X175947000Y-80727000D01*
X175693000Y-80727000D01*
X173407000Y-80727000D01*
X173153000Y-80727000D01*
X173133000Y-80727000D01*
X173133000Y-80473000D01*
X173153000Y-80473000D01*
X173153000Y-80453000D01*
X173407000Y-80453000D01*
X173407000Y-80473000D01*
X175693000Y-80473000D01*
X175693000Y-80453000D01*
X175947000Y-80453000D01*
X175947000Y-80473000D01*
X178233000Y-80473000D01*
X178233000Y-80453000D01*
X178487000Y-80453000D01*
X178487000Y-80473000D01*
X179680819Y-80473000D01*
X179801486Y-80243108D01*
X179555183Y-79718642D01*
X179189080Y-79385000D01*
X181930178Y-79385000D01*
X181851843Y-79502235D01*
X181851843Y-79502235D01*
G37*
X181851843Y-79502235D02*
X181802560Y-79750000D01*
X181802560Y-81450000D01*
X181851843Y-81697765D01*
X181992191Y-81907809D01*
X182202235Y-82048157D01*
X182247619Y-82057184D01*
X182229375Y-82069375D01*
X181901161Y-82560582D01*
X181785908Y-83140000D01*
X181858791Y-83506408D01*
X181250200Y-84114999D01*
X176399849Y-84114999D01*
X176325001Y-84100111D01*
X176250153Y-84114999D01*
X176250149Y-84114999D01*
X176076606Y-84149519D01*
X176028463Y-84159095D01*
X175889316Y-84252071D01*
X175777072Y-84327070D01*
X175734672Y-84390526D01*
X174850000Y-85275198D01*
X171500000Y-81925199D01*
X171500000Y-81878178D01*
X171810625Y-81670625D01*
X172023843Y-81351522D01*
X172084817Y-81481358D01*
X172513076Y-81871645D01*
X172923110Y-82041476D01*
X173153000Y-81920155D01*
X173153000Y-80727000D01*
X173407000Y-80727000D01*
X173407000Y-81920155D01*
X173636890Y-82041476D01*
X174046924Y-81871645D01*
X174475183Y-81481358D01*
X174550000Y-81322046D01*
X174624817Y-81481358D01*
X175053076Y-81871645D01*
X175463110Y-82041476D01*
X175693000Y-81920155D01*
X175693000Y-80727000D01*
X175947000Y-80727000D01*
X175947000Y-81920155D01*
X176176890Y-82041476D01*
X176586924Y-81871645D01*
X177015183Y-81481358D01*
X177090000Y-81322046D01*
X177164817Y-81481358D01*
X177593076Y-81871645D01*
X178003110Y-82041476D01*
X178233000Y-81920155D01*
X178233000Y-80727000D01*
X178487000Y-80727000D01*
X178487000Y-81920155D01*
X178716890Y-82041476D01*
X179126924Y-81871645D01*
X179555183Y-81481358D01*
X179801486Y-80956892D01*
X179680819Y-80727000D01*
X178487000Y-80727000D01*
X178233000Y-80727000D01*
X175947000Y-80727000D01*
X175693000Y-80727000D01*
X173407000Y-80727000D01*
X173153000Y-80727000D01*
X173133000Y-80727000D01*
X173133000Y-80473000D01*
X173153000Y-80473000D01*
X173153000Y-80453000D01*
X173407000Y-80453000D01*
X173407000Y-80473000D01*
X175693000Y-80473000D01*
X175693000Y-80453000D01*
X175947000Y-80453000D01*
X175947000Y-80473000D01*
X178233000Y-80473000D01*
X178233000Y-80453000D01*
X178487000Y-80453000D01*
X178487000Y-80473000D01*
X179680819Y-80473000D01*
X179801486Y-80243108D01*
X179555183Y-79718642D01*
X179189080Y-79385000D01*
X181930178Y-79385000D01*
X181851843Y-79502235D01*
M02*
