%TF.GenerationSoftware,KiCad,Pcbnew,(5.0.2)-1*%
%TF.CreationDate,2019-01-19T15:18:41+08:00*%
%TF.ProjectId,TLF35584 breakout,544c4633-3535-4383-9420-627265616b6f,rev?*%
%TF.SameCoordinates,Original*%
%TF.FileFunction,Soldermask,Top*%
%TF.FilePolarity,Negative*%
%FSLAX46Y46*%
G04 Gerber Fmt 4.6, Leading zero omitted, Abs format (unit mm)*
G04 Created by KiCad (PCBNEW (5.0.2)-1) date 19/01/2019 15:18:41*
%MOMM*%
%LPD*%
G01*
G04 APERTURE LIST*
%ADD10C,0.500000*%
G04 APERTURE END LIST*
D10*
G36*
X120850000Y-112550000D02*
X118550000Y-112550000D01*
X118550000Y-110050000D01*
X120850000Y-110050000D01*
X120850000Y-112550000D01*
X120850000Y-112550000D01*
G37*
G36*
X179250000Y-112450000D02*
X178550000Y-112450000D01*
X178550000Y-111150000D01*
X179250000Y-111150000D01*
X179250000Y-112450000D01*
X179250000Y-112450000D01*
G37*
G36*
X177350000Y-112450000D02*
X176650000Y-112450000D01*
X176650000Y-111150000D01*
X177350000Y-111150000D01*
X177350000Y-112450000D01*
X177350000Y-112450000D01*
G37*
G36*
X152450000Y-112400000D02*
X149950000Y-112400000D01*
X149950000Y-108400000D01*
X152450000Y-108400000D01*
X152450000Y-112400000D01*
X152450000Y-112400000D01*
G37*
G36*
X184766630Y-110622299D02*
X184926855Y-110670903D01*
X185074520Y-110749831D01*
X185203949Y-110856051D01*
X185310169Y-110985480D01*
X185389097Y-111133145D01*
X185437701Y-111293370D01*
X185454112Y-111460000D01*
X185437701Y-111626630D01*
X185389097Y-111786855D01*
X185310169Y-111934520D01*
X185203949Y-112063949D01*
X185074520Y-112170169D01*
X184926855Y-112249097D01*
X184766630Y-112297701D01*
X184641752Y-112310000D01*
X184558248Y-112310000D01*
X184433370Y-112297701D01*
X184273145Y-112249097D01*
X184125480Y-112170169D01*
X183996051Y-112063949D01*
X183889831Y-111934520D01*
X183810903Y-111786855D01*
X183762299Y-111626630D01*
X183745888Y-111460000D01*
X183762299Y-111293370D01*
X183810903Y-111133145D01*
X183889831Y-110985480D01*
X183996051Y-110856051D01*
X184125480Y-110749831D01*
X184273145Y-110670903D01*
X184433370Y-110622299D01*
X184558248Y-110610000D01*
X184641752Y-110610000D01*
X184766630Y-110622299D01*
X184766630Y-110622299D01*
G37*
G36*
X163725000Y-111800000D02*
X162475000Y-111800000D01*
X162475000Y-110800000D01*
X163725000Y-110800000D01*
X163725000Y-111800000D01*
X163725000Y-111800000D01*
G37*
G36*
X146000000Y-111550000D02*
X139300000Y-111550000D01*
X139300000Y-104850000D01*
X146000000Y-104850000D01*
X146000000Y-111550000D01*
X146000000Y-111550000D01*
G37*
G36*
X159150000Y-111450000D02*
X157850000Y-111450000D01*
X157850000Y-110750000D01*
X159150000Y-110750000D01*
X159150000Y-111450000D01*
X159150000Y-111450000D01*
G37*
G36*
X161450000Y-111450000D02*
X160150000Y-111450000D01*
X160150000Y-110750000D01*
X161450000Y-110750000D01*
X161450000Y-111450000D01*
X161450000Y-111450000D01*
G37*
G36*
X136300000Y-111280000D02*
X133300000Y-111280000D01*
X133300000Y-109680000D01*
X136300000Y-109680000D01*
X136300000Y-111280000D01*
X136300000Y-111280000D01*
G37*
G36*
X129680000Y-111100000D02*
X128480000Y-111100000D01*
X128480000Y-108900000D01*
X129680000Y-108900000D01*
X129680000Y-111100000D01*
X129680000Y-111100000D01*
G37*
G36*
X127400000Y-111100000D02*
X126200000Y-111100000D01*
X126200000Y-108900000D01*
X127400000Y-108900000D01*
X127400000Y-111100000D01*
X127400000Y-111100000D01*
G37*
G36*
X125120000Y-111100000D02*
X123920000Y-111100000D01*
X123920000Y-108900000D01*
X125120000Y-108900000D01*
X125120000Y-111100000D01*
X125120000Y-111100000D01*
G37*
G36*
X177350000Y-110150000D02*
X176650000Y-110150000D01*
X176650000Y-108850000D01*
X177350000Y-108850000D01*
X177350000Y-110150000D01*
X177350000Y-110150000D01*
G37*
G36*
X179250000Y-110150000D02*
X178550000Y-110150000D01*
X178550000Y-108850000D01*
X179250000Y-108850000D01*
X179250000Y-110150000D01*
X179250000Y-110150000D01*
G37*
G36*
X163725000Y-109800000D02*
X162475000Y-109800000D01*
X162475000Y-108800000D01*
X163725000Y-108800000D01*
X163725000Y-109800000D01*
X163725000Y-109800000D01*
G37*
G36*
X184766630Y-108082299D02*
X184926855Y-108130903D01*
X185074520Y-108209831D01*
X185203949Y-108316051D01*
X185310169Y-108445480D01*
X185389097Y-108593145D01*
X185437701Y-108753370D01*
X185454112Y-108920000D01*
X185437701Y-109086630D01*
X185389097Y-109246855D01*
X185310169Y-109394520D01*
X185203949Y-109523949D01*
X185074520Y-109630169D01*
X184926855Y-109709097D01*
X184766630Y-109757701D01*
X184641752Y-109770000D01*
X184558248Y-109770000D01*
X184433370Y-109757701D01*
X184273145Y-109709097D01*
X184125480Y-109630169D01*
X183996051Y-109523949D01*
X183889831Y-109394520D01*
X183810903Y-109246855D01*
X183762299Y-109086630D01*
X183745888Y-108920000D01*
X183762299Y-108753370D01*
X183810903Y-108593145D01*
X183889831Y-108445480D01*
X183996051Y-108316051D01*
X184125480Y-108209831D01*
X184273145Y-108130903D01*
X184433370Y-108082299D01*
X184558248Y-108070000D01*
X184641752Y-108070000D01*
X184766630Y-108082299D01*
X184766630Y-108082299D01*
G37*
G36*
X161450000Y-109550000D02*
X160150000Y-109550000D01*
X160150000Y-108850000D01*
X161450000Y-108850000D01*
X161450000Y-109550000D01*
X161450000Y-109550000D01*
G37*
G36*
X159150000Y-109550000D02*
X157850000Y-109550000D01*
X157850000Y-108850000D01*
X159150000Y-108850000D01*
X159150000Y-109550000D01*
X159150000Y-109550000D01*
G37*
G36*
X120850000Y-108250000D02*
X118550000Y-108250000D01*
X118550000Y-105750000D01*
X120850000Y-105750000D01*
X120850000Y-108250000D01*
X120850000Y-108250000D01*
G37*
G36*
X179250000Y-107850000D02*
X178550000Y-107850000D01*
X178550000Y-106550000D01*
X179250000Y-106550000D01*
X179250000Y-107850000D01*
X179250000Y-107850000D01*
G37*
G36*
X177350000Y-107850000D02*
X176650000Y-107850000D01*
X176650000Y-106550000D01*
X177350000Y-106550000D01*
X177350000Y-107850000D01*
X177350000Y-107850000D01*
G37*
G36*
X184766630Y-105542299D02*
X184926855Y-105590903D01*
X185074520Y-105669831D01*
X185203949Y-105776051D01*
X185310169Y-105905480D01*
X185389097Y-106053145D01*
X185437701Y-106213370D01*
X185454112Y-106380000D01*
X185437701Y-106546630D01*
X185389097Y-106706855D01*
X185310169Y-106854520D01*
X185203949Y-106983949D01*
X185074520Y-107090169D01*
X184926855Y-107169097D01*
X184766630Y-107217701D01*
X184641752Y-107230000D01*
X184558248Y-107230000D01*
X184433370Y-107217701D01*
X184273145Y-107169097D01*
X184125480Y-107090169D01*
X183996051Y-106983949D01*
X183889831Y-106854520D01*
X183810903Y-106706855D01*
X183762299Y-106546630D01*
X183745888Y-106380000D01*
X183762299Y-106213370D01*
X183810903Y-106053145D01*
X183889831Y-105905480D01*
X183996051Y-105776051D01*
X184125480Y-105669831D01*
X184273145Y-105590903D01*
X184433370Y-105542299D01*
X184558248Y-105530000D01*
X184641752Y-105530000D01*
X184766630Y-105542299D01*
X184766630Y-105542299D01*
G37*
G36*
X129700000Y-106900000D02*
X123900000Y-106900000D01*
X123900000Y-100500000D01*
X129700000Y-100500000D01*
X129700000Y-106900000D01*
X129700000Y-106900000D01*
G37*
G36*
X136300000Y-106700000D02*
X133300000Y-106700000D01*
X133300000Y-105100000D01*
X136300000Y-105100000D01*
X136300000Y-106700000D01*
X136300000Y-106700000D01*
G37*
G36*
X152450000Y-106300000D02*
X149950000Y-106300000D01*
X149950000Y-102300000D01*
X152450000Y-102300000D01*
X152450000Y-106300000D01*
X152450000Y-106300000D01*
G37*
G36*
X168175000Y-105700000D02*
X160425000Y-105700000D01*
X160425000Y-104700000D01*
X168175000Y-104700000D01*
X168175000Y-105700000D01*
X168175000Y-105700000D01*
G37*
G36*
X179250000Y-105550000D02*
X178550000Y-105550000D01*
X178550000Y-104250000D01*
X179250000Y-104250000D01*
X179250000Y-105550000D01*
X179250000Y-105550000D01*
G37*
G36*
X177350000Y-105550000D02*
X176650000Y-105550000D01*
X176650000Y-104250000D01*
X177350000Y-104250000D01*
X177350000Y-105550000D01*
X177350000Y-105550000D01*
G37*
G36*
X184766630Y-103002299D02*
X184926855Y-103050903D01*
X185074520Y-103129831D01*
X185203949Y-103236051D01*
X185310169Y-103365480D01*
X185389097Y-103513145D01*
X185437701Y-103673370D01*
X185454112Y-103840000D01*
X185437701Y-104006630D01*
X185389097Y-104166855D01*
X185310169Y-104314520D01*
X185203949Y-104443949D01*
X185074520Y-104550169D01*
X184926855Y-104629097D01*
X184766630Y-104677701D01*
X184641752Y-104690000D01*
X184558248Y-104690000D01*
X184433370Y-104677701D01*
X184273145Y-104629097D01*
X184125480Y-104550169D01*
X183996051Y-104443949D01*
X183889831Y-104314520D01*
X183810903Y-104166855D01*
X183762299Y-104006630D01*
X183745888Y-103840000D01*
X183762299Y-103673370D01*
X183810903Y-103513145D01*
X183889831Y-103365480D01*
X183996051Y-103236051D01*
X184125480Y-103129831D01*
X184273145Y-103050903D01*
X184433370Y-103002299D01*
X184558248Y-102990000D01*
X184641752Y-102990000D01*
X184766630Y-103002299D01*
X184766630Y-103002299D01*
G37*
G36*
X121850000Y-104200000D02*
X120950000Y-104200000D01*
X120950000Y-103000000D01*
X121850000Y-103000000D01*
X121850000Y-104200000D01*
X121850000Y-104200000D01*
G37*
G36*
X118550000Y-104200000D02*
X117650000Y-104200000D01*
X117650000Y-103000000D01*
X118550000Y-103000000D01*
X118550000Y-104200000D01*
X118550000Y-104200000D01*
G37*
G36*
X170500000Y-103375000D02*
X169500000Y-103375000D01*
X169500000Y-95625000D01*
X170500000Y-95625000D01*
X170500000Y-103375000D01*
X170500000Y-103375000D01*
G37*
G36*
X159100000Y-103375000D02*
X158100000Y-103375000D01*
X158100000Y-95625000D01*
X159100000Y-95625000D01*
X159100000Y-103375000D01*
X159100000Y-103375000D01*
G37*
G36*
X179250000Y-103250000D02*
X178550000Y-103250000D01*
X178550000Y-101950000D01*
X179250000Y-101950000D01*
X179250000Y-103250000D01*
X179250000Y-103250000D01*
G37*
G36*
X177350000Y-103250000D02*
X176650000Y-103250000D01*
X176650000Y-101950000D01*
X177350000Y-101950000D01*
X177350000Y-103250000D01*
X177350000Y-103250000D01*
G37*
G36*
X167550000Y-102750000D02*
X161050000Y-102750000D01*
X161050000Y-96250000D01*
X167550000Y-96250000D01*
X167550000Y-102750000D01*
X167550000Y-102750000D01*
G37*
G36*
X184766630Y-100462299D02*
X184926855Y-100510903D01*
X185074520Y-100589831D01*
X185203949Y-100696051D01*
X185310169Y-100825480D01*
X185389097Y-100973145D01*
X185437701Y-101133370D01*
X185454112Y-101300000D01*
X185437701Y-101466630D01*
X185389097Y-101626855D01*
X185310169Y-101774520D01*
X185203949Y-101903949D01*
X185074520Y-102010169D01*
X184926855Y-102089097D01*
X184766630Y-102137701D01*
X184641752Y-102150000D01*
X184558248Y-102150000D01*
X184433370Y-102137701D01*
X184273145Y-102089097D01*
X184125480Y-102010169D01*
X183996051Y-101903949D01*
X183889831Y-101774520D01*
X183810903Y-101626855D01*
X183762299Y-101466630D01*
X183745888Y-101300000D01*
X183762299Y-101133370D01*
X183810903Y-100973145D01*
X183889831Y-100825480D01*
X183996051Y-100696051D01*
X184125480Y-100589831D01*
X184273145Y-100510903D01*
X184433370Y-100462299D01*
X184558248Y-100450000D01*
X184641752Y-100450000D01*
X184766630Y-100462299D01*
X184766630Y-100462299D01*
G37*
G36*
X120250000Y-101450000D02*
X119550000Y-101450000D01*
X119550000Y-100150000D01*
X120250000Y-100150000D01*
X120250000Y-101450000D01*
X120250000Y-101450000D01*
G37*
G36*
X118350000Y-101450000D02*
X117650000Y-101450000D01*
X117650000Y-100150000D01*
X118350000Y-100150000D01*
X118350000Y-101450000D01*
X118350000Y-101450000D01*
G37*
G36*
X148900000Y-101400000D02*
X147900000Y-101400000D01*
X147900000Y-98200000D01*
X148900000Y-98200000D01*
X148900000Y-101400000D01*
X148900000Y-101400000D01*
G37*
G36*
X155100000Y-101400000D02*
X154100000Y-101400000D01*
X154100000Y-98200000D01*
X155100000Y-98200000D01*
X155100000Y-101400000D01*
X155100000Y-101400000D01*
G37*
G36*
X177350000Y-100850000D02*
X176650000Y-100850000D01*
X176650000Y-99550000D01*
X177350000Y-99550000D01*
X177350000Y-100850000D01*
X177350000Y-100850000D01*
G37*
G36*
X179250000Y-100850000D02*
X178550000Y-100850000D01*
X178550000Y-99550000D01*
X179250000Y-99550000D01*
X179250000Y-100850000D01*
X179250000Y-100850000D01*
G37*
G36*
X184766630Y-97922299D02*
X184926855Y-97970903D01*
X185074520Y-98049831D01*
X185203949Y-98156051D01*
X185310169Y-98285480D01*
X185389097Y-98433145D01*
X185437701Y-98593370D01*
X185454112Y-98760000D01*
X185437701Y-98926630D01*
X185389097Y-99086855D01*
X185310169Y-99234520D01*
X185203949Y-99363949D01*
X185074520Y-99470169D01*
X184926855Y-99549097D01*
X184766630Y-99597701D01*
X184641752Y-99610000D01*
X184558248Y-99610000D01*
X184433370Y-99597701D01*
X184273145Y-99549097D01*
X184125480Y-99470169D01*
X183996051Y-99363949D01*
X183889831Y-99234520D01*
X183810903Y-99086855D01*
X183762299Y-98926630D01*
X183745888Y-98760000D01*
X183762299Y-98593370D01*
X183810903Y-98433145D01*
X183889831Y-98285480D01*
X183996051Y-98156051D01*
X184125480Y-98049831D01*
X184273145Y-97970903D01*
X184433370Y-97922299D01*
X184558248Y-97910000D01*
X184641752Y-97910000D01*
X184766630Y-97922299D01*
X184766630Y-97922299D01*
G37*
G36*
X131480000Y-98975000D02*
X130280000Y-98975000D01*
X130280000Y-96775000D01*
X131480000Y-96775000D01*
X131480000Y-98975000D01*
X131480000Y-98975000D01*
G37*
G36*
X126920000Y-98975000D02*
X125720000Y-98975000D01*
X125720000Y-96775000D01*
X126920000Y-96775000D01*
X126920000Y-98975000D01*
X126920000Y-98975000D01*
G37*
G36*
X177350000Y-98450000D02*
X176650000Y-98450000D01*
X176650000Y-97150000D01*
X177350000Y-97150000D01*
X177350000Y-98450000D01*
X177350000Y-98450000D01*
G37*
G36*
X179250000Y-98450000D02*
X178550000Y-98450000D01*
X178550000Y-97150000D01*
X179250000Y-97150000D01*
X179250000Y-98450000D01*
X179250000Y-98450000D01*
G37*
G36*
X122386393Y-94443553D02*
X122495872Y-94465330D01*
X122805252Y-94593479D01*
X123083687Y-94779523D01*
X123320477Y-95016313D01*
X123506521Y-95294748D01*
X123634670Y-95604128D01*
X123700000Y-95932565D01*
X123700000Y-96267435D01*
X123634670Y-96595872D01*
X123506521Y-96905252D01*
X123320477Y-97183687D01*
X123083687Y-97420477D01*
X122805252Y-97606521D01*
X122495872Y-97734670D01*
X122386393Y-97756447D01*
X122167437Y-97800000D01*
X121832563Y-97800000D01*
X121613607Y-97756447D01*
X121504128Y-97734670D01*
X121194748Y-97606521D01*
X120916313Y-97420477D01*
X120679523Y-97183687D01*
X120493479Y-96905252D01*
X120365330Y-96595872D01*
X120300000Y-96267435D01*
X120300000Y-95932565D01*
X120365330Y-95604128D01*
X120493479Y-95294748D01*
X120679523Y-95016313D01*
X120916313Y-94779523D01*
X121194748Y-94593479D01*
X121504128Y-94465330D01*
X121613607Y-94443553D01*
X121832563Y-94400000D01*
X122167437Y-94400000D01*
X122386393Y-94443553D01*
X122386393Y-94443553D01*
G37*
G36*
X118586393Y-94443553D02*
X118695872Y-94465330D01*
X119005252Y-94593479D01*
X119283687Y-94779523D01*
X119520477Y-95016313D01*
X119706521Y-95294748D01*
X119834670Y-95604128D01*
X119900000Y-95932565D01*
X119900000Y-96267435D01*
X119834670Y-96595872D01*
X119706521Y-96905252D01*
X119520477Y-97183687D01*
X119283687Y-97420477D01*
X119005252Y-97606521D01*
X118695872Y-97734670D01*
X118586393Y-97756447D01*
X118367437Y-97800000D01*
X118032563Y-97800000D01*
X117813607Y-97756447D01*
X117704128Y-97734670D01*
X117394748Y-97606521D01*
X117116313Y-97420477D01*
X116879523Y-97183687D01*
X116693479Y-96905252D01*
X116565330Y-96595872D01*
X116500000Y-96267435D01*
X116500000Y-95932565D01*
X116565330Y-95604128D01*
X116693479Y-95294748D01*
X116879523Y-95016313D01*
X117116313Y-94779523D01*
X117394748Y-94593479D01*
X117704128Y-94465330D01*
X117813607Y-94443553D01*
X118032563Y-94400000D01*
X118367437Y-94400000D01*
X118586393Y-94443553D01*
X118586393Y-94443553D01*
G37*
G36*
X184766630Y-95382299D02*
X184926855Y-95430903D01*
X185074520Y-95509831D01*
X185203949Y-95616051D01*
X185310169Y-95745480D01*
X185389097Y-95893145D01*
X185437701Y-96053370D01*
X185454112Y-96220000D01*
X185437701Y-96386630D01*
X185389097Y-96546855D01*
X185310169Y-96694520D01*
X185203949Y-96823949D01*
X185074520Y-96930169D01*
X184926855Y-97009097D01*
X184766630Y-97057701D01*
X184641752Y-97070000D01*
X184558248Y-97070000D01*
X184433370Y-97057701D01*
X184273145Y-97009097D01*
X184125480Y-96930169D01*
X183996051Y-96823949D01*
X183889831Y-96694520D01*
X183810903Y-96546855D01*
X183762299Y-96386630D01*
X183745888Y-96220000D01*
X183762299Y-96053370D01*
X183810903Y-95893145D01*
X183889831Y-95745480D01*
X183996051Y-95616051D01*
X184125480Y-95509831D01*
X184273145Y-95430903D01*
X184433370Y-95382299D01*
X184558248Y-95370000D01*
X184641752Y-95370000D01*
X184766630Y-95382299D01*
X184766630Y-95382299D01*
G37*
G36*
X179250000Y-96050000D02*
X178550000Y-96050000D01*
X178550000Y-94750000D01*
X179250000Y-94750000D01*
X179250000Y-96050000D01*
X179250000Y-96050000D01*
G37*
G36*
X177350000Y-96050000D02*
X176650000Y-96050000D01*
X176650000Y-94750000D01*
X177350000Y-94750000D01*
X177350000Y-96050000D01*
X177350000Y-96050000D01*
G37*
G36*
X151000000Y-95700000D02*
X149800000Y-95700000D01*
X149800000Y-93500000D01*
X151000000Y-93500000D01*
X151000000Y-95700000D01*
X151000000Y-95700000D01*
G37*
G36*
X153280000Y-95700000D02*
X152080000Y-95700000D01*
X152080000Y-93500000D01*
X153280000Y-93500000D01*
X153280000Y-95700000D01*
X153280000Y-95700000D01*
G37*
G36*
X148720000Y-95700000D02*
X147520000Y-95700000D01*
X147520000Y-93500000D01*
X148720000Y-93500000D01*
X148720000Y-95700000D01*
X148720000Y-95700000D01*
G37*
G36*
X131500000Y-94775000D02*
X125700000Y-94775000D01*
X125700000Y-88375000D01*
X131500000Y-88375000D01*
X131500000Y-94775000D01*
X131500000Y-94775000D01*
G37*
G36*
X184766630Y-92842299D02*
X184926855Y-92890903D01*
X185074520Y-92969831D01*
X185203949Y-93076051D01*
X185310169Y-93205480D01*
X185389097Y-93353145D01*
X185437701Y-93513370D01*
X185454112Y-93680000D01*
X185437701Y-93846630D01*
X185389097Y-94006855D01*
X185310169Y-94154520D01*
X185203949Y-94283949D01*
X185074520Y-94390169D01*
X184926855Y-94469097D01*
X184766630Y-94517701D01*
X184641752Y-94530000D01*
X184558248Y-94530000D01*
X184433370Y-94517701D01*
X184273145Y-94469097D01*
X184125480Y-94390169D01*
X183996051Y-94283949D01*
X183889831Y-94154520D01*
X183810903Y-94006855D01*
X183762299Y-93846630D01*
X183745888Y-93680000D01*
X183762299Y-93513370D01*
X183810903Y-93353145D01*
X183889831Y-93205480D01*
X183996051Y-93076051D01*
X184125480Y-92969831D01*
X184273145Y-92890903D01*
X184433370Y-92842299D01*
X184558248Y-92830000D01*
X184641752Y-92830000D01*
X184766630Y-92842299D01*
X184766630Y-92842299D01*
G37*
G36*
X168175000Y-94300000D02*
X160425000Y-94300000D01*
X160425000Y-93300000D01*
X168175000Y-93300000D01*
X168175000Y-94300000D01*
X168175000Y-94300000D01*
G37*
G36*
X179250000Y-93750000D02*
X178550000Y-93750000D01*
X178550000Y-92450000D01*
X179250000Y-92450000D01*
X179250000Y-93750000D01*
X179250000Y-93750000D01*
G37*
G36*
X177350000Y-93750000D02*
X176650000Y-93750000D01*
X176650000Y-92450000D01*
X177350000Y-92450000D01*
X177350000Y-93750000D01*
X177350000Y-93750000D01*
G37*
G36*
X136840935Y-89638429D02*
X136937534Y-89657644D01*
X137210517Y-89770717D01*
X137452920Y-89932687D01*
X137456197Y-89934876D01*
X137665124Y-90143803D01*
X137665126Y-90143806D01*
X137829283Y-90389483D01*
X137942356Y-90662466D01*
X137942956Y-90665481D01*
X138000000Y-90952261D01*
X138000000Y-91247739D01*
X137942356Y-91537533D01*
X137829284Y-91810515D01*
X137665124Y-92056197D01*
X137456197Y-92265124D01*
X137456194Y-92265126D01*
X137210517Y-92429283D01*
X136937534Y-92542356D01*
X136840935Y-92561571D01*
X136647739Y-92600000D01*
X136352261Y-92600000D01*
X136159065Y-92561571D01*
X136062466Y-92542356D01*
X135789483Y-92429283D01*
X135543806Y-92265126D01*
X135543803Y-92265124D01*
X135334876Y-92056197D01*
X135170716Y-91810515D01*
X135057644Y-91537533D01*
X135000000Y-91247739D01*
X135000000Y-90952261D01*
X135057044Y-90665481D01*
X135057644Y-90662466D01*
X135170717Y-90389483D01*
X135334874Y-90143806D01*
X135334876Y-90143803D01*
X135543803Y-89934876D01*
X135547080Y-89932687D01*
X135789483Y-89770717D01*
X136062466Y-89657644D01*
X136159065Y-89638429D01*
X136352261Y-89600000D01*
X136647739Y-89600000D01*
X136840935Y-89638429D01*
X136840935Y-89638429D01*
G37*
G36*
X144740935Y-89638429D02*
X144837534Y-89657644D01*
X145110517Y-89770717D01*
X145352920Y-89932687D01*
X145356197Y-89934876D01*
X145565124Y-90143803D01*
X145565126Y-90143806D01*
X145729283Y-90389483D01*
X145842356Y-90662466D01*
X145842956Y-90665481D01*
X145900000Y-90952261D01*
X145900000Y-91247739D01*
X145842356Y-91537533D01*
X145729284Y-91810515D01*
X145565124Y-92056197D01*
X145356197Y-92265124D01*
X145356194Y-92265126D01*
X145110517Y-92429283D01*
X144837534Y-92542356D01*
X144740935Y-92561571D01*
X144547739Y-92600000D01*
X144252261Y-92600000D01*
X144059065Y-92561571D01*
X143962466Y-92542356D01*
X143689483Y-92429283D01*
X143443806Y-92265126D01*
X143443803Y-92265124D01*
X143234876Y-92056197D01*
X143070716Y-91810515D01*
X142957644Y-91537533D01*
X142900000Y-91247739D01*
X142900000Y-90952261D01*
X142957044Y-90665481D01*
X142957644Y-90662466D01*
X143070717Y-90389483D01*
X143234874Y-90143806D01*
X143234876Y-90143803D01*
X143443803Y-89934876D01*
X143447080Y-89932687D01*
X143689483Y-89770717D01*
X143962466Y-89657644D01*
X144059065Y-89638429D01*
X144252261Y-89600000D01*
X144547739Y-89600000D01*
X144740935Y-89638429D01*
X144740935Y-89638429D01*
G37*
G36*
X156100000Y-92500000D02*
X154400000Y-92500000D01*
X154400000Y-86800000D01*
X156100000Y-86800000D01*
X156100000Y-92500000D01*
X156100000Y-92500000D01*
G37*
G36*
X160600000Y-92500000D02*
X158900000Y-92500000D01*
X158900000Y-86800000D01*
X160600000Y-86800000D01*
X160600000Y-92500000D01*
X160600000Y-92500000D01*
G37*
G36*
X184766630Y-90302299D02*
X184926855Y-90350903D01*
X185074520Y-90429831D01*
X185203949Y-90536051D01*
X185310169Y-90665480D01*
X185389097Y-90813145D01*
X185437701Y-90973370D01*
X185454112Y-91140000D01*
X185437701Y-91306630D01*
X185389097Y-91466855D01*
X185310169Y-91614520D01*
X185203949Y-91743949D01*
X185074520Y-91850169D01*
X184926855Y-91929097D01*
X184766630Y-91977701D01*
X184641752Y-91990000D01*
X184558248Y-91990000D01*
X184433370Y-91977701D01*
X184273145Y-91929097D01*
X184125480Y-91850169D01*
X183996051Y-91743949D01*
X183889831Y-91614520D01*
X183810903Y-91466855D01*
X183762299Y-91306630D01*
X183745888Y-91140000D01*
X183762299Y-90973370D01*
X183810903Y-90813145D01*
X183889831Y-90665480D01*
X183996051Y-90536051D01*
X184125480Y-90429831D01*
X184273145Y-90350903D01*
X184433370Y-90302299D01*
X184558248Y-90290000D01*
X184641752Y-90290000D01*
X184766630Y-90302299D01*
X184766630Y-90302299D01*
G37*
G36*
X153300000Y-91500000D02*
X147500000Y-91500000D01*
X147500000Y-85100000D01*
X153300000Y-85100000D01*
X153300000Y-91500000D01*
X153300000Y-91500000D01*
G37*
G36*
X173925000Y-90300000D02*
X172675000Y-90300000D01*
X172675000Y-89300000D01*
X173925000Y-89300000D01*
X173925000Y-90300000D01*
X173925000Y-90300000D01*
G37*
G36*
X167325000Y-90300000D02*
X166075000Y-90300000D01*
X166075000Y-89300000D01*
X167325000Y-89300000D01*
X167325000Y-90300000D01*
X167325000Y-90300000D01*
G37*
G36*
X169525000Y-90300000D02*
X168275000Y-90300000D01*
X168275000Y-89300000D01*
X169525000Y-89300000D01*
X169525000Y-90300000D01*
X169525000Y-90300000D01*
G37*
G36*
X171725000Y-90300000D02*
X170475000Y-90300000D01*
X170475000Y-89300000D01*
X171725000Y-89300000D01*
X171725000Y-90300000D01*
X171725000Y-90300000D01*
G37*
G36*
X165025000Y-90300000D02*
X163775000Y-90300000D01*
X163775000Y-89300000D01*
X165025000Y-89300000D01*
X165025000Y-90300000D01*
X165025000Y-90300000D01*
G37*
G36*
X162725000Y-90300000D02*
X161475000Y-90300000D01*
X161475000Y-89300000D01*
X162725000Y-89300000D01*
X162725000Y-90300000D01*
X162725000Y-90300000D01*
G37*
G36*
X178650000Y-90150000D02*
X176950000Y-90150000D01*
X176950000Y-88450000D01*
X178650000Y-88450000D01*
X178650000Y-90150000D01*
X178650000Y-90150000D01*
G37*
G36*
X185450000Y-89450000D02*
X183750000Y-89450000D01*
X183750000Y-87750000D01*
X185450000Y-87750000D01*
X185450000Y-89450000D01*
X185450000Y-89450000D01*
G37*
G36*
X162725000Y-88300000D02*
X161475000Y-88300000D01*
X161475000Y-87300000D01*
X162725000Y-87300000D01*
X162725000Y-88300000D01*
X162725000Y-88300000D01*
G37*
G36*
X171725000Y-88300000D02*
X170475000Y-88300000D01*
X170475000Y-87300000D01*
X171725000Y-87300000D01*
X171725000Y-88300000D01*
X171725000Y-88300000D01*
G37*
G36*
X173925000Y-88300000D02*
X172675000Y-88300000D01*
X172675000Y-87300000D01*
X173925000Y-87300000D01*
X173925000Y-88300000D01*
X173925000Y-88300000D01*
G37*
G36*
X167325000Y-88300000D02*
X166075000Y-88300000D01*
X166075000Y-87300000D01*
X167325000Y-87300000D01*
X167325000Y-88300000D01*
X167325000Y-88300000D01*
G37*
G36*
X169525000Y-88300000D02*
X168275000Y-88300000D01*
X168275000Y-87300000D01*
X169525000Y-87300000D01*
X169525000Y-88300000D01*
X169525000Y-88300000D01*
G37*
G36*
X165025000Y-88300000D02*
X163775000Y-88300000D01*
X163775000Y-87300000D01*
X165025000Y-87300000D01*
X165025000Y-88300000D01*
X165025000Y-88300000D01*
G37*
G36*
X177966630Y-85922299D02*
X178126855Y-85970903D01*
X178274520Y-86049831D01*
X178403949Y-86156051D01*
X178510169Y-86285480D01*
X178589097Y-86433145D01*
X178637701Y-86593370D01*
X178654112Y-86760000D01*
X178637701Y-86926630D01*
X178589097Y-87086855D01*
X178510169Y-87234520D01*
X178403949Y-87363949D01*
X178274520Y-87470169D01*
X178126855Y-87549097D01*
X177966630Y-87597701D01*
X177841752Y-87610000D01*
X177758248Y-87610000D01*
X177633370Y-87597701D01*
X177473145Y-87549097D01*
X177325480Y-87470169D01*
X177196051Y-87363949D01*
X177089831Y-87234520D01*
X177010903Y-87086855D01*
X176962299Y-86926630D01*
X176945888Y-86760000D01*
X176962299Y-86593370D01*
X177010903Y-86433145D01*
X177089831Y-86285480D01*
X177196051Y-86156051D01*
X177325480Y-86049831D01*
X177473145Y-85970903D01*
X177633370Y-85922299D01*
X177758248Y-85910000D01*
X177841752Y-85910000D01*
X177966630Y-85922299D01*
X177966630Y-85922299D01*
G37*
G36*
X181050000Y-86550000D02*
X180350000Y-86550000D01*
X180350000Y-85250000D01*
X181050000Y-85250000D01*
X181050000Y-86550000D01*
X181050000Y-86550000D01*
G37*
G36*
X182950000Y-86550000D02*
X182250000Y-86550000D01*
X182250000Y-85250000D01*
X182950000Y-85250000D01*
X182950000Y-86550000D01*
X182950000Y-86550000D01*
G37*
G36*
X127137268Y-81337700D02*
X127237534Y-81357644D01*
X127510517Y-81470717D01*
X127710180Y-81604128D01*
X127756197Y-81634876D01*
X127965124Y-81843803D01*
X127965126Y-81843806D01*
X128129283Y-82089483D01*
X128212340Y-82290000D01*
X128242356Y-82362467D01*
X128300000Y-82652261D01*
X128300000Y-82947739D01*
X128294901Y-82973371D01*
X128242356Y-83237534D01*
X128166580Y-83420474D01*
X128129284Y-83510515D01*
X127965124Y-83756197D01*
X127756197Y-83965124D01*
X127756194Y-83965126D01*
X127510517Y-84129283D01*
X127237534Y-84242356D01*
X127140935Y-84261571D01*
X126947739Y-84300000D01*
X126652261Y-84300000D01*
X126459065Y-84261571D01*
X126362466Y-84242356D01*
X126089483Y-84129283D01*
X125843806Y-83965126D01*
X125843803Y-83965124D01*
X125634876Y-83756197D01*
X125470716Y-83510515D01*
X125433420Y-83420474D01*
X125357644Y-83237534D01*
X125305099Y-82973371D01*
X125300000Y-82947739D01*
X125300000Y-82652261D01*
X125357644Y-82362467D01*
X125387661Y-82290000D01*
X125470717Y-82089483D01*
X125634874Y-81843806D01*
X125634876Y-81843803D01*
X125843803Y-81634876D01*
X125889820Y-81604128D01*
X126089483Y-81470717D01*
X126362466Y-81357644D01*
X126462732Y-81337700D01*
X126652261Y-81300000D01*
X126947739Y-81300000D01*
X127137268Y-81337700D01*
X127137268Y-81337700D01*
G37*
G36*
X131450000Y-81175000D02*
X131452402Y-81199386D01*
X131459515Y-81222835D01*
X131471066Y-81244446D01*
X131486612Y-81263388D01*
X131505554Y-81278934D01*
X131527165Y-81290485D01*
X131550614Y-81297598D01*
X131575000Y-81300000D01*
X133380000Y-81300000D01*
X133380000Y-84300000D01*
X130380000Y-84300000D01*
X130380000Y-81475000D01*
X130377598Y-81450614D01*
X130370485Y-81427165D01*
X130358934Y-81405554D01*
X130343388Y-81386612D01*
X130324446Y-81371066D01*
X130302835Y-81359515D01*
X130279386Y-81352402D01*
X130255000Y-81350000D01*
X129750000Y-81350000D01*
X129750000Y-79650000D01*
X131450000Y-79650000D01*
X131450000Y-81175000D01*
X131450000Y-81175000D01*
G37*
G36*
X183466630Y-82302299D02*
X183626855Y-82350903D01*
X183774520Y-82429831D01*
X183903949Y-82536051D01*
X184010169Y-82665480D01*
X184089097Y-82813145D01*
X184137701Y-82973370D01*
X184154112Y-83140000D01*
X184137701Y-83306630D01*
X184089097Y-83466855D01*
X184010169Y-83614520D01*
X183903949Y-83743949D01*
X183774520Y-83850169D01*
X183626855Y-83929097D01*
X183466630Y-83977701D01*
X183341752Y-83990000D01*
X183258248Y-83990000D01*
X183133370Y-83977701D01*
X182973145Y-83929097D01*
X182825480Y-83850169D01*
X182696051Y-83743949D01*
X182589831Y-83614520D01*
X182510903Y-83466855D01*
X182462299Y-83306630D01*
X182445888Y-83140000D01*
X182462299Y-82973370D01*
X182510903Y-82813145D01*
X182589831Y-82665480D01*
X182696051Y-82536051D01*
X182825480Y-82429831D01*
X182973145Y-82350903D01*
X183133370Y-82302299D01*
X183258248Y-82290000D01*
X183341752Y-82290000D01*
X183466630Y-82302299D01*
X183466630Y-82302299D01*
G37*
G36*
X118535198Y-80433370D02*
X118695872Y-80465330D01*
X119005252Y-80593479D01*
X119283687Y-80779523D01*
X119520477Y-81016313D01*
X119706521Y-81294748D01*
X119834670Y-81604128D01*
X119900000Y-81932565D01*
X119900000Y-82267435D01*
X119834670Y-82595872D01*
X119706521Y-82905252D01*
X119520477Y-83183687D01*
X119283687Y-83420477D01*
X119005252Y-83606521D01*
X118695872Y-83734670D01*
X118587663Y-83756194D01*
X118367437Y-83800000D01*
X118032563Y-83800000D01*
X117812337Y-83756194D01*
X117704128Y-83734670D01*
X117394748Y-83606521D01*
X117116313Y-83420477D01*
X116879523Y-83183687D01*
X116693479Y-82905252D01*
X116565330Y-82595872D01*
X116500000Y-82267435D01*
X116500000Y-81932565D01*
X116565330Y-81604128D01*
X116693479Y-81294748D01*
X116879523Y-81016313D01*
X117116313Y-80779523D01*
X117394748Y-80593479D01*
X117704128Y-80465330D01*
X117864802Y-80433370D01*
X118032563Y-80400000D01*
X118367437Y-80400000D01*
X118535198Y-80433370D01*
X118535198Y-80433370D01*
G37*
G36*
X122335198Y-80433370D02*
X122495872Y-80465330D01*
X122805252Y-80593479D01*
X123083687Y-80779523D01*
X123320477Y-81016313D01*
X123506521Y-81294748D01*
X123634670Y-81604128D01*
X123700000Y-81932565D01*
X123700000Y-82267435D01*
X123634670Y-82595872D01*
X123506521Y-82905252D01*
X123320477Y-83183687D01*
X123083687Y-83420477D01*
X122805252Y-83606521D01*
X122495872Y-83734670D01*
X122387663Y-83756194D01*
X122167437Y-83800000D01*
X121832563Y-83800000D01*
X121612337Y-83756194D01*
X121504128Y-83734670D01*
X121194748Y-83606521D01*
X120916313Y-83420477D01*
X120679523Y-83183687D01*
X120493479Y-82905252D01*
X120365330Y-82595872D01*
X120300000Y-82267435D01*
X120300000Y-81932565D01*
X120365330Y-81604128D01*
X120493479Y-81294748D01*
X120679523Y-81016313D01*
X120916313Y-80779523D01*
X121194748Y-80593479D01*
X121504128Y-80465330D01*
X121664802Y-80433370D01*
X121832563Y-80400000D01*
X122167437Y-80400000D01*
X122335198Y-80433370D01*
X122335198Y-80433370D01*
G37*
G36*
X148800000Y-83750000D02*
X147600000Y-83750000D01*
X147600000Y-82850000D01*
X148800000Y-82850000D01*
X148800000Y-83750000D01*
X148800000Y-83750000D01*
G37*
G36*
X151950000Y-82150000D02*
X150650000Y-82150000D01*
X150650000Y-81450000D01*
X151950000Y-81450000D01*
X151950000Y-82150000D01*
X151950000Y-82150000D01*
G37*
G36*
X160746630Y-79762299D02*
X160906855Y-79810903D01*
X161054520Y-79889831D01*
X161183949Y-79996051D01*
X161290169Y-80125480D01*
X161369097Y-80273145D01*
X161417701Y-80433370D01*
X161434112Y-80600000D01*
X161417701Y-80766630D01*
X161369097Y-80926855D01*
X161290169Y-81074520D01*
X161183949Y-81203949D01*
X161054520Y-81310169D01*
X160906855Y-81389097D01*
X160746630Y-81437701D01*
X160621752Y-81450000D01*
X160538248Y-81450000D01*
X160413370Y-81437701D01*
X160253145Y-81389097D01*
X160105480Y-81310169D01*
X159976051Y-81203949D01*
X159869831Y-81074520D01*
X159790903Y-80926855D01*
X159742299Y-80766630D01*
X159725888Y-80600000D01*
X159742299Y-80433370D01*
X159790903Y-80273145D01*
X159869831Y-80125480D01*
X159976051Y-79996051D01*
X160105480Y-79889831D01*
X160253145Y-79810903D01*
X160413370Y-79762299D01*
X160538248Y-79750000D01*
X160621752Y-79750000D01*
X160746630Y-79762299D01*
X160746630Y-79762299D01*
G37*
G36*
X184150000Y-81450000D02*
X182450000Y-81450000D01*
X182450000Y-79750000D01*
X184150000Y-79750000D01*
X184150000Y-81450000D01*
X184150000Y-81450000D01*
G37*
G36*
X156350000Y-81450000D02*
X154650000Y-81450000D01*
X154650000Y-79750000D01*
X156350000Y-79750000D01*
X156350000Y-81450000D01*
X156350000Y-81450000D01*
G37*
G36*
X178526630Y-79762299D02*
X178686855Y-79810903D01*
X178834520Y-79889831D01*
X178963949Y-79996051D01*
X179070169Y-80125480D01*
X179149097Y-80273145D01*
X179197701Y-80433370D01*
X179214112Y-80600000D01*
X179197701Y-80766630D01*
X179149097Y-80926855D01*
X179070169Y-81074520D01*
X178963949Y-81203949D01*
X178834520Y-81310169D01*
X178686855Y-81389097D01*
X178526630Y-81437701D01*
X178401752Y-81450000D01*
X178318248Y-81450000D01*
X178193370Y-81437701D01*
X178033145Y-81389097D01*
X177885480Y-81310169D01*
X177756051Y-81203949D01*
X177649831Y-81074520D01*
X177570903Y-80926855D01*
X177522299Y-80766630D01*
X177505888Y-80600000D01*
X177522299Y-80433370D01*
X177570903Y-80273145D01*
X177649831Y-80125480D01*
X177756051Y-79996051D01*
X177885480Y-79889831D01*
X178033145Y-79810903D01*
X178193370Y-79762299D01*
X178318248Y-79750000D01*
X178401752Y-79750000D01*
X178526630Y-79762299D01*
X178526630Y-79762299D01*
G37*
G36*
X175986630Y-79762299D02*
X176146855Y-79810903D01*
X176294520Y-79889831D01*
X176423949Y-79996051D01*
X176530169Y-80125480D01*
X176609097Y-80273145D01*
X176657701Y-80433370D01*
X176674112Y-80600000D01*
X176657701Y-80766630D01*
X176609097Y-80926855D01*
X176530169Y-81074520D01*
X176423949Y-81203949D01*
X176294520Y-81310169D01*
X176146855Y-81389097D01*
X175986630Y-81437701D01*
X175861752Y-81450000D01*
X175778248Y-81450000D01*
X175653370Y-81437701D01*
X175493145Y-81389097D01*
X175345480Y-81310169D01*
X175216051Y-81203949D01*
X175109831Y-81074520D01*
X175030903Y-80926855D01*
X174982299Y-80766630D01*
X174965888Y-80600000D01*
X174982299Y-80433370D01*
X175030903Y-80273145D01*
X175109831Y-80125480D01*
X175216051Y-79996051D01*
X175345480Y-79889831D01*
X175493145Y-79810903D01*
X175653370Y-79762299D01*
X175778248Y-79750000D01*
X175861752Y-79750000D01*
X175986630Y-79762299D01*
X175986630Y-79762299D01*
G37*
G36*
X173446630Y-79762299D02*
X173606855Y-79810903D01*
X173754520Y-79889831D01*
X173883949Y-79996051D01*
X173990169Y-80125480D01*
X174069097Y-80273145D01*
X174117701Y-80433370D01*
X174134112Y-80600000D01*
X174117701Y-80766630D01*
X174069097Y-80926855D01*
X173990169Y-81074520D01*
X173883949Y-81203949D01*
X173754520Y-81310169D01*
X173606855Y-81389097D01*
X173446630Y-81437701D01*
X173321752Y-81450000D01*
X173238248Y-81450000D01*
X173113370Y-81437701D01*
X172953145Y-81389097D01*
X172805480Y-81310169D01*
X172676051Y-81203949D01*
X172569831Y-81074520D01*
X172490903Y-80926855D01*
X172442299Y-80766630D01*
X172425888Y-80600000D01*
X172442299Y-80433370D01*
X172490903Y-80273145D01*
X172569831Y-80125480D01*
X172676051Y-79996051D01*
X172805480Y-79889831D01*
X172953145Y-79810903D01*
X173113370Y-79762299D01*
X173238248Y-79750000D01*
X173321752Y-79750000D01*
X173446630Y-79762299D01*
X173446630Y-79762299D01*
G37*
G36*
X170906630Y-79762299D02*
X171066855Y-79810903D01*
X171214520Y-79889831D01*
X171343949Y-79996051D01*
X171450169Y-80125480D01*
X171529097Y-80273145D01*
X171577701Y-80433370D01*
X171594112Y-80600000D01*
X171577701Y-80766630D01*
X171529097Y-80926855D01*
X171450169Y-81074520D01*
X171343949Y-81203949D01*
X171214520Y-81310169D01*
X171066855Y-81389097D01*
X170906630Y-81437701D01*
X170781752Y-81450000D01*
X170698248Y-81450000D01*
X170573370Y-81437701D01*
X170413145Y-81389097D01*
X170265480Y-81310169D01*
X170136051Y-81203949D01*
X170029831Y-81074520D01*
X169950903Y-80926855D01*
X169902299Y-80766630D01*
X169885888Y-80600000D01*
X169902299Y-80433370D01*
X169950903Y-80273145D01*
X170029831Y-80125480D01*
X170136051Y-79996051D01*
X170265480Y-79889831D01*
X170413145Y-79810903D01*
X170573370Y-79762299D01*
X170698248Y-79750000D01*
X170781752Y-79750000D01*
X170906630Y-79762299D01*
X170906630Y-79762299D01*
G37*
G36*
X165826630Y-79762299D02*
X165986855Y-79810903D01*
X166134520Y-79889831D01*
X166263949Y-79996051D01*
X166370169Y-80125480D01*
X166449097Y-80273145D01*
X166497701Y-80433370D01*
X166514112Y-80600000D01*
X166497701Y-80766630D01*
X166449097Y-80926855D01*
X166370169Y-81074520D01*
X166263949Y-81203949D01*
X166134520Y-81310169D01*
X165986855Y-81389097D01*
X165826630Y-81437701D01*
X165701752Y-81450000D01*
X165618248Y-81450000D01*
X165493370Y-81437701D01*
X165333145Y-81389097D01*
X165185480Y-81310169D01*
X165056051Y-81203949D01*
X164949831Y-81074520D01*
X164870903Y-80926855D01*
X164822299Y-80766630D01*
X164805888Y-80600000D01*
X164822299Y-80433370D01*
X164870903Y-80273145D01*
X164949831Y-80125480D01*
X165056051Y-79996051D01*
X165185480Y-79889831D01*
X165333145Y-79810903D01*
X165493370Y-79762299D01*
X165618248Y-79750000D01*
X165701752Y-79750000D01*
X165826630Y-79762299D01*
X165826630Y-79762299D01*
G37*
G36*
X158206630Y-79762299D02*
X158366855Y-79810903D01*
X158514520Y-79889831D01*
X158643949Y-79996051D01*
X158750169Y-80125480D01*
X158829097Y-80273145D01*
X158877701Y-80433370D01*
X158894112Y-80600000D01*
X158877701Y-80766630D01*
X158829097Y-80926855D01*
X158750169Y-81074520D01*
X158643949Y-81203949D01*
X158514520Y-81310169D01*
X158366855Y-81389097D01*
X158206630Y-81437701D01*
X158081752Y-81450000D01*
X157998248Y-81450000D01*
X157873370Y-81437701D01*
X157713145Y-81389097D01*
X157565480Y-81310169D01*
X157436051Y-81203949D01*
X157329831Y-81074520D01*
X157250903Y-80926855D01*
X157202299Y-80766630D01*
X157185888Y-80600000D01*
X157202299Y-80433370D01*
X157250903Y-80273145D01*
X157329831Y-80125480D01*
X157436051Y-79996051D01*
X157565480Y-79889831D01*
X157713145Y-79810903D01*
X157873370Y-79762299D01*
X157998248Y-79750000D01*
X158081752Y-79750000D01*
X158206630Y-79762299D01*
X158206630Y-79762299D01*
G37*
G36*
X168366630Y-79762299D02*
X168526855Y-79810903D01*
X168674520Y-79889831D01*
X168803949Y-79996051D01*
X168910169Y-80125480D01*
X168989097Y-80273145D01*
X169037701Y-80433370D01*
X169054112Y-80600000D01*
X169037701Y-80766630D01*
X168989097Y-80926855D01*
X168910169Y-81074520D01*
X168803949Y-81203949D01*
X168674520Y-81310169D01*
X168526855Y-81389097D01*
X168366630Y-81437701D01*
X168241752Y-81450000D01*
X168158248Y-81450000D01*
X168033370Y-81437701D01*
X167873145Y-81389097D01*
X167725480Y-81310169D01*
X167596051Y-81203949D01*
X167489831Y-81074520D01*
X167410903Y-80926855D01*
X167362299Y-80766630D01*
X167345888Y-80600000D01*
X167362299Y-80433370D01*
X167410903Y-80273145D01*
X167489831Y-80125480D01*
X167596051Y-79996051D01*
X167725480Y-79889831D01*
X167873145Y-79810903D01*
X168033370Y-79762299D01*
X168158248Y-79750000D01*
X168241752Y-79750000D01*
X168366630Y-79762299D01*
X168366630Y-79762299D01*
G37*
G36*
X163286630Y-79762299D02*
X163446855Y-79810903D01*
X163594520Y-79889831D01*
X163723949Y-79996051D01*
X163830169Y-80125480D01*
X163909097Y-80273145D01*
X163957701Y-80433370D01*
X163974112Y-80600000D01*
X163957701Y-80766630D01*
X163909097Y-80926855D01*
X163830169Y-81074520D01*
X163723949Y-81203949D01*
X163594520Y-81310169D01*
X163446855Y-81389097D01*
X163286630Y-81437701D01*
X163161752Y-81450000D01*
X163078248Y-81450000D01*
X162953370Y-81437701D01*
X162793145Y-81389097D01*
X162645480Y-81310169D01*
X162516051Y-81203949D01*
X162409831Y-81074520D01*
X162330903Y-80926855D01*
X162282299Y-80766630D01*
X162265888Y-80600000D01*
X162282299Y-80433370D01*
X162330903Y-80273145D01*
X162409831Y-80125480D01*
X162516051Y-79996051D01*
X162645480Y-79889831D01*
X162793145Y-79810903D01*
X162953370Y-79762299D01*
X163078248Y-79750000D01*
X163161752Y-79750000D01*
X163286630Y-79762299D01*
X163286630Y-79762299D01*
G37*
G36*
X128226630Y-79662299D02*
X128386855Y-79710903D01*
X128534520Y-79789831D01*
X128663949Y-79896051D01*
X128770169Y-80025480D01*
X128849097Y-80173145D01*
X128897701Y-80333370D01*
X128914112Y-80500000D01*
X128897701Y-80666630D01*
X128849097Y-80826855D01*
X128770169Y-80974520D01*
X128663949Y-81103949D01*
X128534520Y-81210169D01*
X128386855Y-81289097D01*
X128226630Y-81337701D01*
X128101752Y-81350000D01*
X128018248Y-81350000D01*
X127893370Y-81337701D01*
X127733145Y-81289097D01*
X127585480Y-81210169D01*
X127456051Y-81103949D01*
X127349831Y-80974520D01*
X127270903Y-80826855D01*
X127222299Y-80666630D01*
X127205888Y-80500000D01*
X127222299Y-80333370D01*
X127270903Y-80173145D01*
X127349831Y-80025480D01*
X127456051Y-79896051D01*
X127585480Y-79789831D01*
X127733145Y-79710903D01*
X127893370Y-79662299D01*
X128018248Y-79650000D01*
X128101752Y-79650000D01*
X128226630Y-79662299D01*
X128226630Y-79662299D01*
G37*
G36*
X148800000Y-80450000D02*
X147600000Y-80450000D01*
X147600000Y-79550000D01*
X148800000Y-79550000D01*
X148800000Y-80450000D01*
X148800000Y-80450000D01*
G37*
G36*
X151950000Y-80250000D02*
X150650000Y-80250000D01*
X150650000Y-79550000D01*
X151950000Y-79550000D01*
X151950000Y-80250000D01*
X151950000Y-80250000D01*
G37*
M02*
