M48
;DRILL file {KiCad (5.0.2)-1} date 18/01/2019 18:03:35
;FORMAT={-:-/ absolute / inch / decimal}
FMAT,2
INCH,TZ
T1C0.0118
T2C0.0157
T3C0.0394
T4C0.0591
T5C0.0598
T6C0.0709
%
G90
G05
T1
X6.3858Y-3.8465
X6.3858Y-3.9252
X6.3858Y-4.0039
X6.4646Y-3.8465
X6.4646Y-3.9252
X6.4646Y-4.0039
X6.5433Y-3.8465
X6.5433Y-3.9252
X6.5433Y-4.0039
T2
X4.8543Y-4.2953
X4.8622Y-3.9843
X5.5551Y-4.0748
X5.7165Y-4.0748
X5.8307Y-3.811
X5.9213Y-3.8189
X6.0433Y-3.2992
X6.0551Y-4.0276
X6.122Y-3.3858
X6.1496Y-4.1457
X6.1654Y-4.2283
X6.1811Y-3.3937
X6.1811Y-4.0984
X6.2402Y-4.4173
X6.3307Y-4.4173
X6.3819Y-3.4016
X6.4646Y-4.252
X6.4724Y-3.4016
X6.563Y-3.4016
X6.6181Y-4.2244
X6.6496Y-3.4016
X6.6614Y-4.2244
X6.7205Y-4.3504
X6.7362Y-3.3976
X6.7362Y-3.5906
X6.748Y-3.7047
X6.7774Y-3.7525
X6.7795Y-3.7953
X6.8263Y-3.9382
X6.8276Y-3.8355
X6.8661Y-3.8898
X6.9213Y-3.7087
X7.0906Y-3.7126
X7.0906Y-3.9449
T3
X6.122Y-3.1732
X6.222Y-3.1732
X6.322Y-3.1732
X6.422Y-3.1732
X6.522Y-3.1732
X6.622Y-3.1732
X6.722Y-3.1732
X6.822Y-3.1732
X6.922Y-3.1732
X7.022Y-3.1732
X7.2677Y-3.4882
X7.2677Y-3.5882
X7.2677Y-3.6882
X7.2677Y-3.7882
X7.2677Y-3.8882
X7.2677Y-3.9882
X7.2677Y-4.0882
X7.2677Y-4.1882
X7.2677Y-4.2882
X7.2677Y-4.3882
X5.0417Y-3.1693
X5.1417Y-3.1693
X7.Y-3.4157
X7.Y-3.5157
X7.2165Y-3.1732
X7.2165Y-3.2732
T4
X5.374Y-3.5866
X5.685Y-3.5866
T5
X4.9921Y-3.2598
X5.1921Y-3.2598
T6
X4.6535Y-3.2323
X4.6535Y-3.7835
X4.8031Y-3.2323
X4.8031Y-3.7835
T0
M30
