%TF.GenerationSoftware,KiCad,Pcbnew,(5.0.2)-1*%
%TF.CreationDate,2019-01-18T18:03:32+08:00*%
%TF.ProjectId,TLF35584 breakout,544c4633-3535-4383-9420-627265616b6f,rev?*%
%TF.SameCoordinates,Original*%
%TF.FileFunction,Legend,Bot*%
%TF.FilePolarity,Positive*%
%FSLAX46Y46*%
G04 Gerber Fmt 4.6, Leading zero omitted, Abs format (unit mm)*
G04 Created by KiCad (PCBNEW (5.0.2)-1) date 18/01/2019 18:03:32*
%MOMM*%
%LPD*%
G01*
G04 APERTURE LIST*
%ADD10C,0.150000*%
%ADD11C,0.300000*%
%ADD12C,0.010000*%
G04 APERTURE END LIST*
D10*
X182757142Y-111952380D02*
X182757142Y-110952380D01*
X182490476Y-111666666D01*
X182223809Y-110952380D01*
X182223809Y-111952380D01*
X181690476Y-110952380D02*
X181538095Y-110952380D01*
X181461904Y-111000000D01*
X181385714Y-111095238D01*
X181347619Y-111285714D01*
X181347619Y-111619047D01*
X181385714Y-111809523D01*
X181461904Y-111904761D01*
X181538095Y-111952380D01*
X181690476Y-111952380D01*
X181766666Y-111904761D01*
X181842857Y-111809523D01*
X181880952Y-111619047D01*
X181880952Y-111285714D01*
X181842857Y-111095238D01*
X181766666Y-111000000D01*
X181690476Y-110952380D01*
X181042857Y-111904761D02*
X180928571Y-111952380D01*
X180738095Y-111952380D01*
X180661904Y-111904761D01*
X180623809Y-111857142D01*
X180585714Y-111761904D01*
X180585714Y-111666666D01*
X180623809Y-111571428D01*
X180661904Y-111523809D01*
X180738095Y-111476190D01*
X180890476Y-111428571D01*
X180966666Y-111380952D01*
X181004761Y-111333333D01*
X181042857Y-111238095D01*
X181042857Y-111142857D01*
X181004761Y-111047619D01*
X180966666Y-111000000D01*
X180890476Y-110952380D01*
X180700000Y-110952380D01*
X180585714Y-111000000D01*
X180242857Y-111952380D02*
X180242857Y-110952380D01*
X182757142Y-109452380D02*
X182757142Y-108452380D01*
X182490476Y-109166666D01*
X182223809Y-108452380D01*
X182223809Y-109452380D01*
X181842857Y-109452380D02*
X181842857Y-108452380D01*
X181500000Y-109404761D02*
X181385714Y-109452380D01*
X181195238Y-109452380D01*
X181119047Y-109404761D01*
X181080952Y-109357142D01*
X181042857Y-109261904D01*
X181042857Y-109166666D01*
X181080952Y-109071428D01*
X181119047Y-109023809D01*
X181195238Y-108976190D01*
X181347619Y-108928571D01*
X181423809Y-108880952D01*
X181461904Y-108833333D01*
X181500000Y-108738095D01*
X181500000Y-108642857D01*
X181461904Y-108547619D01*
X181423809Y-108500000D01*
X181347619Y-108452380D01*
X181157142Y-108452380D01*
X181042857Y-108500000D01*
X180547619Y-108452380D02*
X180395238Y-108452380D01*
X180319047Y-108500000D01*
X180242857Y-108595238D01*
X180204761Y-108785714D01*
X180204761Y-109119047D01*
X180242857Y-109309523D01*
X180319047Y-109404761D01*
X180395238Y-109452380D01*
X180547619Y-109452380D01*
X180623809Y-109404761D01*
X180700000Y-109309523D01*
X180738095Y-109119047D01*
X180738095Y-108785714D01*
X180700000Y-108595238D01*
X180623809Y-108500000D01*
X180547619Y-108452380D01*
X182728571Y-106904761D02*
X182614285Y-106952380D01*
X182423809Y-106952380D01*
X182347619Y-106904761D01*
X182309523Y-106857142D01*
X182271428Y-106761904D01*
X182271428Y-106666666D01*
X182309523Y-106571428D01*
X182347619Y-106523809D01*
X182423809Y-106476190D01*
X182576190Y-106428571D01*
X182652380Y-106380952D01*
X182690476Y-106333333D01*
X182728571Y-106238095D01*
X182728571Y-106142857D01*
X182690476Y-106047619D01*
X182652380Y-106000000D01*
X182576190Y-105952380D01*
X182385714Y-105952380D01*
X182271428Y-106000000D01*
X181471428Y-106857142D02*
X181509523Y-106904761D01*
X181623809Y-106952380D01*
X181700000Y-106952380D01*
X181814285Y-106904761D01*
X181890476Y-106809523D01*
X181928571Y-106714285D01*
X181966666Y-106523809D01*
X181966666Y-106380952D01*
X181928571Y-106190476D01*
X181890476Y-106095238D01*
X181814285Y-106000000D01*
X181700000Y-105952380D01*
X181623809Y-105952380D01*
X181509523Y-106000000D01*
X181471428Y-106047619D01*
X181128571Y-106952380D02*
X181128571Y-105952380D01*
X180671428Y-106952380D02*
X181014285Y-106380952D01*
X180671428Y-105952380D02*
X181128571Y-106523809D01*
X182233333Y-104357142D02*
X182271428Y-104404761D01*
X182385714Y-104452380D01*
X182461904Y-104452380D01*
X182576190Y-104404761D01*
X182652380Y-104309523D01*
X182690476Y-104214285D01*
X182728571Y-104023809D01*
X182728571Y-103880952D01*
X182690476Y-103690476D01*
X182652380Y-103595238D01*
X182576190Y-103500000D01*
X182461904Y-103452380D01*
X182385714Y-103452380D01*
X182271428Y-103500000D01*
X182233333Y-103547619D01*
X181928571Y-104404761D02*
X181814285Y-104452380D01*
X181623809Y-104452380D01*
X181547619Y-104404761D01*
X181509523Y-104357142D01*
X181471428Y-104261904D01*
X181471428Y-104166666D01*
X181509523Y-104071428D01*
X181547619Y-104023809D01*
X181623809Y-103976190D01*
X181776190Y-103928571D01*
X181852380Y-103880952D01*
X181890476Y-103833333D01*
X181928571Y-103738095D01*
X181928571Y-103642857D01*
X181890476Y-103547619D01*
X181852380Y-103500000D01*
X181776190Y-103452380D01*
X181585714Y-103452380D01*
X181471428Y-103500000D01*
X182733333Y-100852380D02*
X182542857Y-101852380D01*
X182390476Y-101138095D01*
X182238095Y-101852380D01*
X182047619Y-100852380D01*
X181742857Y-101852380D02*
X181742857Y-100852380D01*
X181552380Y-100852380D01*
X181438095Y-100900000D01*
X181361904Y-100995238D01*
X181323809Y-101090476D01*
X181285714Y-101280952D01*
X181285714Y-101423809D01*
X181323809Y-101614285D01*
X181361904Y-101709523D01*
X181438095Y-101804761D01*
X181552380Y-101852380D01*
X181742857Y-101852380D01*
X180942857Y-101852380D02*
X180942857Y-100852380D01*
X182723809Y-99252380D02*
X182723809Y-98252380D01*
X182342857Y-99252380D02*
X182342857Y-98252380D01*
X181885714Y-99252380D01*
X181885714Y-98252380D01*
X181619047Y-98252380D02*
X181161904Y-98252380D01*
X181390476Y-99252380D02*
X181390476Y-98252380D01*
X182771428Y-96228571D02*
X182504761Y-96228571D01*
X182390476Y-96752380D02*
X182771428Y-96752380D01*
X182771428Y-95752380D01*
X182390476Y-95752380D01*
X181590476Y-96752380D02*
X181857142Y-96276190D01*
X182047619Y-96752380D02*
X182047619Y-95752380D01*
X181742857Y-95752380D01*
X181666666Y-95800000D01*
X181628571Y-95847619D01*
X181590476Y-95942857D01*
X181590476Y-96085714D01*
X181628571Y-96180952D01*
X181666666Y-96228571D01*
X181742857Y-96276190D01*
X182047619Y-96276190D01*
X180790476Y-96752380D02*
X181057142Y-96276190D01*
X181247619Y-96752380D02*
X181247619Y-95752380D01*
X180942857Y-95752380D01*
X180866666Y-95800000D01*
X180828571Y-95847619D01*
X180790476Y-95942857D01*
X180790476Y-96085714D01*
X180828571Y-96180952D01*
X180866666Y-96228571D01*
X180942857Y-96276190D01*
X181247619Y-96276190D01*
X182785714Y-93152380D02*
X182595238Y-94152380D01*
X182442857Y-93438095D01*
X182290476Y-94152380D01*
X182100000Y-93152380D01*
X181833333Y-93866666D02*
X181452380Y-93866666D01*
X181909523Y-94152380D02*
X181642857Y-93152380D01*
X181376190Y-94152380D01*
X181109523Y-94152380D02*
X181109523Y-93152380D01*
X180652380Y-94152380D02*
X180995238Y-93580952D01*
X180652380Y-93152380D02*
X181109523Y-93723809D01*
X182733333Y-91128571D02*
X182466666Y-91128571D01*
X182352380Y-91652380D02*
X182733333Y-91652380D01*
X182733333Y-90652380D01*
X182352380Y-90652380D01*
X182009523Y-91652380D02*
X182009523Y-90652380D01*
X181552380Y-91652380D01*
X181552380Y-90652380D01*
X181209523Y-91366666D02*
X180828571Y-91366666D01*
X181285714Y-91652380D02*
X181019047Y-90652380D01*
X180752380Y-91652380D01*
X182276190Y-89252380D02*
X182542857Y-88776190D01*
X182733333Y-89252380D02*
X182733333Y-88252380D01*
X182428571Y-88252380D01*
X182352380Y-88300000D01*
X182314285Y-88347619D01*
X182276190Y-88442857D01*
X182276190Y-88585714D01*
X182314285Y-88680952D01*
X182352380Y-88728571D01*
X182428571Y-88776190D01*
X182733333Y-88776190D01*
X181780952Y-88252380D02*
X181628571Y-88252380D01*
X181552380Y-88300000D01*
X181476190Y-88395238D01*
X181438095Y-88585714D01*
X181438095Y-88919047D01*
X181476190Y-89109523D01*
X181552380Y-89204761D01*
X181628571Y-89252380D01*
X181780952Y-89252380D01*
X181857142Y-89204761D01*
X181933333Y-89109523D01*
X181971428Y-88919047D01*
X181971428Y-88585714D01*
X181933333Y-88395238D01*
X181857142Y-88300000D01*
X181780952Y-88252380D01*
X181209523Y-88252380D02*
X180752380Y-88252380D01*
X180980952Y-89252380D02*
X180980952Y-88252380D01*
X155052380Y-82150000D02*
X155052380Y-82583333D01*
X155433333Y-82350000D01*
X155433333Y-82450000D01*
X155480952Y-82516666D01*
X155528571Y-82550000D01*
X155623809Y-82583333D01*
X155861904Y-82583333D01*
X155957142Y-82550000D01*
X156004761Y-82516666D01*
X156052380Y-82450000D01*
X156052380Y-82250000D01*
X156004761Y-82183333D01*
X155957142Y-82150000D01*
X155052380Y-82783333D02*
X156052380Y-83016666D01*
X155052380Y-83250000D01*
X156004761Y-83983333D02*
X156052380Y-84083333D01*
X156052380Y-84250000D01*
X156004761Y-84316666D01*
X155957142Y-84350000D01*
X155861904Y-84383333D01*
X155766666Y-84383333D01*
X155671428Y-84350000D01*
X155623809Y-84316666D01*
X155576190Y-84250000D01*
X155528571Y-84116666D01*
X155480952Y-84050000D01*
X155433333Y-84016666D01*
X155338095Y-83983333D01*
X155242857Y-83983333D01*
X155147619Y-84016666D01*
X155100000Y-84050000D01*
X155052380Y-84116666D01*
X155052380Y-84283333D01*
X155100000Y-84383333D01*
X155052380Y-84583333D02*
X155052380Y-84983333D01*
X156052380Y-84783333D02*
X155052380Y-84783333D01*
X155528571Y-85450000D02*
X155576190Y-85550000D01*
X155623809Y-85583333D01*
X155719047Y-85616666D01*
X155861904Y-85616666D01*
X155957142Y-85583333D01*
X156004761Y-85550000D01*
X156052380Y-85483333D01*
X156052380Y-85216666D01*
X155052380Y-85216666D01*
X155052380Y-85450000D01*
X155100000Y-85516666D01*
X155147619Y-85550000D01*
X155242857Y-85583333D01*
X155338095Y-85583333D01*
X155433333Y-85550000D01*
X155480952Y-85516666D01*
X155528571Y-85450000D01*
X155528571Y-85216666D01*
X155576190Y-86050000D02*
X156052380Y-86050000D01*
X155052380Y-85816666D02*
X155576190Y-86050000D01*
X155052380Y-86283333D01*
X158552380Y-82300000D02*
X157552380Y-82300000D01*
X157552380Y-82566666D01*
X157600000Y-82633333D01*
X157647619Y-82666666D01*
X157742857Y-82700000D01*
X157885714Y-82700000D01*
X157980952Y-82666666D01*
X158028571Y-82633333D01*
X158076190Y-82566666D01*
X158076190Y-82300000D01*
X158552380Y-83400000D02*
X158076190Y-83166666D01*
X158552380Y-83000000D02*
X157552380Y-83000000D01*
X157552380Y-83266666D01*
X157600000Y-83333333D01*
X157647619Y-83366666D01*
X157742857Y-83400000D01*
X157885714Y-83400000D01*
X157980952Y-83366666D01*
X158028571Y-83333333D01*
X158076190Y-83266666D01*
X158076190Y-83000000D01*
X158028571Y-83700000D02*
X158028571Y-83933333D01*
X158552380Y-84033333D02*
X158552380Y-83700000D01*
X157552380Y-83700000D01*
X157552380Y-84033333D01*
X157600000Y-84700000D02*
X157552380Y-84633333D01*
X157552380Y-84533333D01*
X157600000Y-84433333D01*
X157695238Y-84366666D01*
X157790476Y-84333333D01*
X157980952Y-84300000D01*
X158123809Y-84300000D01*
X158314285Y-84333333D01*
X158409523Y-84366666D01*
X158504761Y-84433333D01*
X158552380Y-84533333D01*
X158552380Y-84600000D01*
X158504761Y-84700000D01*
X158457142Y-84733333D01*
X158123809Y-84733333D01*
X158123809Y-84600000D01*
X160052380Y-82700000D02*
X160052380Y-82366666D01*
X160528571Y-82333333D01*
X160480952Y-82366666D01*
X160433333Y-82433333D01*
X160433333Y-82600000D01*
X160480952Y-82666666D01*
X160528571Y-82700000D01*
X160623809Y-82733333D01*
X160861904Y-82733333D01*
X160957142Y-82700000D01*
X161004761Y-82666666D01*
X161052380Y-82600000D01*
X161052380Y-82433333D01*
X161004761Y-82366666D01*
X160957142Y-82333333D01*
X160052380Y-82933333D02*
X161052380Y-83166666D01*
X160052380Y-83400000D01*
X160052380Y-84066666D02*
X160052380Y-84466666D01*
X161052380Y-84266666D02*
X160052380Y-84266666D01*
X160147619Y-84666666D02*
X160100000Y-84700000D01*
X160052380Y-84766666D01*
X160052380Y-84933333D01*
X160100000Y-85000000D01*
X160147619Y-85033333D01*
X160242857Y-85066666D01*
X160338095Y-85066666D01*
X160480952Y-85033333D01*
X161052380Y-84633333D01*
X161052380Y-85066666D01*
X162552380Y-82600000D02*
X162552380Y-82266666D01*
X163028571Y-82233333D01*
X162980952Y-82266666D01*
X162933333Y-82333333D01*
X162933333Y-82500000D01*
X162980952Y-82566666D01*
X163028571Y-82600000D01*
X163123809Y-82633333D01*
X163361904Y-82633333D01*
X163457142Y-82600000D01*
X163504761Y-82566666D01*
X163552380Y-82500000D01*
X163552380Y-82333333D01*
X163504761Y-82266666D01*
X163457142Y-82233333D01*
X162552380Y-82833333D02*
X163552380Y-83066666D01*
X162552380Y-83300000D01*
X162552380Y-83966666D02*
X162552380Y-84366666D01*
X163552380Y-84166666D02*
X162552380Y-84166666D01*
X163552380Y-84966666D02*
X163552380Y-84566666D01*
X163552380Y-84766666D02*
X162552380Y-84766666D01*
X162695238Y-84700000D01*
X162790476Y-84633333D01*
X162838095Y-84566666D01*
X165052380Y-82650000D02*
X165052380Y-82316666D01*
X165528571Y-82283333D01*
X165480952Y-82316666D01*
X165433333Y-82383333D01*
X165433333Y-82550000D01*
X165480952Y-82616666D01*
X165528571Y-82650000D01*
X165623809Y-82683333D01*
X165861904Y-82683333D01*
X165957142Y-82650000D01*
X166004761Y-82616666D01*
X166052380Y-82550000D01*
X166052380Y-82383333D01*
X166004761Y-82316666D01*
X165957142Y-82283333D01*
X165052380Y-82883333D02*
X166052380Y-83116666D01*
X165052380Y-83350000D01*
X165957142Y-84516666D02*
X166004761Y-84483333D01*
X166052380Y-84383333D01*
X166052380Y-84316666D01*
X166004761Y-84216666D01*
X165909523Y-84150000D01*
X165814285Y-84116666D01*
X165623809Y-84083333D01*
X165480952Y-84083333D01*
X165290476Y-84116666D01*
X165195238Y-84150000D01*
X165100000Y-84216666D01*
X165052380Y-84316666D01*
X165052380Y-84383333D01*
X165100000Y-84483333D01*
X165147619Y-84516666D01*
X167652380Y-82266666D02*
X167652380Y-82700000D01*
X168033333Y-82466666D01*
X168033333Y-82566666D01*
X168080952Y-82633333D01*
X168128571Y-82666666D01*
X168223809Y-82700000D01*
X168461904Y-82700000D01*
X168557142Y-82666666D01*
X168604761Y-82633333D01*
X168652380Y-82566666D01*
X168652380Y-82366666D01*
X168604761Y-82300000D01*
X168557142Y-82266666D01*
X167652380Y-82900000D02*
X168652380Y-83133333D01*
X167652380Y-83366666D01*
X170152380Y-82650000D02*
X170152380Y-82316666D01*
X170628571Y-82283333D01*
X170580952Y-82316666D01*
X170533333Y-82383333D01*
X170533333Y-82550000D01*
X170580952Y-82616666D01*
X170628571Y-82650000D01*
X170723809Y-82683333D01*
X170961904Y-82683333D01*
X171057142Y-82650000D01*
X171104761Y-82616666D01*
X171152380Y-82550000D01*
X171152380Y-82383333D01*
X171104761Y-82316666D01*
X171057142Y-82283333D01*
X170152380Y-82883333D02*
X171152380Y-83116666D01*
X170152380Y-83350000D01*
X171152380Y-84516666D02*
X170676190Y-84283333D01*
X171152380Y-84116666D02*
X170152380Y-84116666D01*
X170152380Y-84383333D01*
X170200000Y-84450000D01*
X170247619Y-84483333D01*
X170342857Y-84516666D01*
X170485714Y-84516666D01*
X170580952Y-84483333D01*
X170628571Y-84450000D01*
X170676190Y-84383333D01*
X170676190Y-84116666D01*
X172800000Y-82666666D02*
X172752380Y-82600000D01*
X172752380Y-82500000D01*
X172800000Y-82400000D01*
X172895238Y-82333333D01*
X172990476Y-82300000D01*
X173180952Y-82266666D01*
X173323809Y-82266666D01*
X173514285Y-82300000D01*
X173609523Y-82333333D01*
X173704761Y-82400000D01*
X173752380Y-82500000D01*
X173752380Y-82566666D01*
X173704761Y-82666666D01*
X173657142Y-82700000D01*
X173323809Y-82700000D01*
X173323809Y-82566666D01*
X173752380Y-83000000D02*
X172752380Y-83000000D01*
X173752380Y-83400000D01*
X172752380Y-83400000D01*
X173752380Y-83733333D02*
X172752380Y-83733333D01*
X172752380Y-83900000D01*
X172800000Y-84000000D01*
X172895238Y-84066666D01*
X172990476Y-84100000D01*
X173180952Y-84133333D01*
X173323809Y-84133333D01*
X173514285Y-84100000D01*
X173609523Y-84066666D01*
X173704761Y-84000000D01*
X173752380Y-83900000D01*
X173752380Y-83733333D01*
X175400000Y-82666666D02*
X175352380Y-82600000D01*
X175352380Y-82500000D01*
X175400000Y-82400000D01*
X175495238Y-82333333D01*
X175590476Y-82300000D01*
X175780952Y-82266666D01*
X175923809Y-82266666D01*
X176114285Y-82300000D01*
X176209523Y-82333333D01*
X176304761Y-82400000D01*
X176352380Y-82500000D01*
X176352380Y-82566666D01*
X176304761Y-82666666D01*
X176257142Y-82700000D01*
X175923809Y-82700000D01*
X175923809Y-82566666D01*
X176352380Y-83000000D02*
X175352380Y-83000000D01*
X176352380Y-83400000D01*
X175352380Y-83400000D01*
X176352380Y-83733333D02*
X175352380Y-83733333D01*
X175352380Y-83900000D01*
X175400000Y-84000000D01*
X175495238Y-84066666D01*
X175590476Y-84100000D01*
X175780952Y-84133333D01*
X175923809Y-84133333D01*
X176114285Y-84100000D01*
X176209523Y-84066666D01*
X176304761Y-84000000D01*
X176352380Y-83900000D01*
X176352380Y-83733333D01*
X178000000Y-82666666D02*
X177952380Y-82600000D01*
X177952380Y-82500000D01*
X178000000Y-82400000D01*
X178095238Y-82333333D01*
X178190476Y-82300000D01*
X178380952Y-82266666D01*
X178523809Y-82266666D01*
X178714285Y-82300000D01*
X178809523Y-82333333D01*
X178904761Y-82400000D01*
X178952380Y-82500000D01*
X178952380Y-82566666D01*
X178904761Y-82666666D01*
X178857142Y-82700000D01*
X178523809Y-82700000D01*
X178523809Y-82566666D01*
X178952380Y-83000000D02*
X177952380Y-83000000D01*
X178952380Y-83400000D01*
X177952380Y-83400000D01*
X178952380Y-83733333D02*
X177952380Y-83733333D01*
X177952380Y-83900000D01*
X178000000Y-84000000D01*
X178095238Y-84066666D01*
X178190476Y-84100000D01*
X178380952Y-84133333D01*
X178523809Y-84133333D01*
X178714285Y-84100000D01*
X178809523Y-84066666D01*
X178904761Y-84000000D01*
X178952380Y-83900000D01*
X178952380Y-83733333D01*
X124361904Y-79690476D02*
X124361904Y-79309523D01*
X124742857Y-79271428D01*
X124704761Y-79309523D01*
X124666666Y-79385714D01*
X124666666Y-79576190D01*
X124704761Y-79652380D01*
X124742857Y-79690476D01*
X124819047Y-79728571D01*
X125009523Y-79728571D01*
X125085714Y-79690476D01*
X125123809Y-79652380D01*
X125161904Y-79576190D01*
X125161904Y-79385714D01*
X125123809Y-79309523D01*
X125085714Y-79271428D01*
X124857142Y-80071428D02*
X124857142Y-80680952D01*
X125161904Y-81480952D02*
X125161904Y-81023809D01*
X125161904Y-81252380D02*
X124361904Y-81252380D01*
X124476190Y-81176190D01*
X124552380Y-81100000D01*
X124590476Y-81023809D01*
X124704761Y-81938095D02*
X124666666Y-81861904D01*
X124628571Y-81823809D01*
X124552380Y-81785714D01*
X124514285Y-81785714D01*
X124438095Y-81823809D01*
X124400000Y-81861904D01*
X124361904Y-81938095D01*
X124361904Y-82090476D01*
X124400000Y-82166666D01*
X124438095Y-82204761D01*
X124514285Y-82242857D01*
X124552380Y-82242857D01*
X124628571Y-82204761D01*
X124666666Y-82166666D01*
X124704761Y-82090476D01*
X124704761Y-81938095D01*
X124742857Y-81861904D01*
X124780952Y-81823809D01*
X124857142Y-81785714D01*
X125009523Y-81785714D01*
X125085714Y-81823809D01*
X125123809Y-81861904D01*
X125161904Y-81938095D01*
X125161904Y-82090476D01*
X125123809Y-82166666D01*
X125085714Y-82204761D01*
X125009523Y-82242857D01*
X124857142Y-82242857D01*
X124780952Y-82204761D01*
X124742857Y-82166666D01*
X124704761Y-82090476D01*
X124361904Y-82471428D02*
X125161904Y-82738095D01*
X124361904Y-83004761D01*
X125161904Y-83271428D02*
X124361904Y-83271428D01*
X124361904Y-83461904D01*
X124400000Y-83576190D01*
X124476190Y-83652380D01*
X124552380Y-83690476D01*
X124704761Y-83728571D01*
X124819047Y-83728571D01*
X124971428Y-83690476D01*
X125047619Y-83652380D01*
X125123809Y-83576190D01*
X125161904Y-83461904D01*
X125161904Y-83271428D01*
X125085714Y-84528571D02*
X125123809Y-84490476D01*
X125161904Y-84376190D01*
X125161904Y-84300000D01*
X125123809Y-84185714D01*
X125047619Y-84109523D01*
X124971428Y-84071428D01*
X124819047Y-84033333D01*
X124704761Y-84033333D01*
X124552380Y-84071428D01*
X124476190Y-84109523D01*
X124400000Y-84185714D01*
X124361904Y-84300000D01*
X124361904Y-84376190D01*
X124400000Y-84490476D01*
X124438095Y-84528571D01*
X133600000Y-79690476D02*
X133561904Y-79614285D01*
X133561904Y-79500000D01*
X133600000Y-79385714D01*
X133676190Y-79309523D01*
X133752380Y-79271428D01*
X133904761Y-79233333D01*
X134019047Y-79233333D01*
X134171428Y-79271428D01*
X134247619Y-79309523D01*
X134323809Y-79385714D01*
X134361904Y-79500000D01*
X134361904Y-79576190D01*
X134323809Y-79690476D01*
X134285714Y-79728571D01*
X134019047Y-79728571D01*
X134019047Y-79576190D01*
X134361904Y-80071428D02*
X133561904Y-80071428D01*
X134361904Y-80528571D01*
X133561904Y-80528571D01*
X134361904Y-80909523D02*
X133561904Y-80909523D01*
X133561904Y-81100000D01*
X133600000Y-81214285D01*
X133676190Y-81290476D01*
X133752380Y-81328571D01*
X133904761Y-81366666D01*
X134019047Y-81366666D01*
X134171428Y-81328571D01*
X134247619Y-81290476D01*
X134323809Y-81214285D01*
X134361904Y-81100000D01*
X134361904Y-80909523D01*
D11*
X151485714Y-106203571D02*
X150628571Y-106203571D01*
X151057142Y-107703571D02*
X151057142Y-106203571D01*
X149414285Y-107703571D02*
X150128571Y-107703571D01*
X150128571Y-106203571D01*
X148414285Y-106917857D02*
X148914285Y-106917857D01*
X148914285Y-107703571D02*
X148914285Y-106203571D01*
X148200000Y-106203571D01*
X147771428Y-106203571D02*
X146842857Y-106203571D01*
X147342857Y-106775000D01*
X147128571Y-106775000D01*
X146985714Y-106846428D01*
X146914285Y-106917857D01*
X146842857Y-107060714D01*
X146842857Y-107417857D01*
X146914285Y-107560714D01*
X146985714Y-107632142D01*
X147128571Y-107703571D01*
X147557142Y-107703571D01*
X147700000Y-107632142D01*
X147771428Y-107560714D01*
X145485714Y-106203571D02*
X146200000Y-106203571D01*
X146271428Y-106917857D01*
X146200000Y-106846428D01*
X146057142Y-106775000D01*
X145700000Y-106775000D01*
X145557142Y-106846428D01*
X145485714Y-106917857D01*
X145414285Y-107060714D01*
X145414285Y-107417857D01*
X145485714Y-107560714D01*
X145557142Y-107632142D01*
X145700000Y-107703571D01*
X146057142Y-107703571D01*
X146200000Y-107632142D01*
X146271428Y-107560714D01*
X144057142Y-106203571D02*
X144771428Y-106203571D01*
X144842857Y-106917857D01*
X144771428Y-106846428D01*
X144628571Y-106775000D01*
X144271428Y-106775000D01*
X144128571Y-106846428D01*
X144057142Y-106917857D01*
X143985714Y-107060714D01*
X143985714Y-107417857D01*
X144057142Y-107560714D01*
X144128571Y-107632142D01*
X144271428Y-107703571D01*
X144628571Y-107703571D01*
X144771428Y-107632142D01*
X144842857Y-107560714D01*
X143128571Y-106846428D02*
X143271428Y-106775000D01*
X143342857Y-106703571D01*
X143414285Y-106560714D01*
X143414285Y-106489285D01*
X143342857Y-106346428D01*
X143271428Y-106275000D01*
X143128571Y-106203571D01*
X142842857Y-106203571D01*
X142700000Y-106275000D01*
X142628571Y-106346428D01*
X142557142Y-106489285D01*
X142557142Y-106560714D01*
X142628571Y-106703571D01*
X142700000Y-106775000D01*
X142842857Y-106846428D01*
X143128571Y-106846428D01*
X143271428Y-106917857D01*
X143342857Y-106989285D01*
X143414285Y-107132142D01*
X143414285Y-107417857D01*
X143342857Y-107560714D01*
X143271428Y-107632142D01*
X143128571Y-107703571D01*
X142842857Y-107703571D01*
X142700000Y-107632142D01*
X142628571Y-107560714D01*
X142557142Y-107417857D01*
X142557142Y-107132142D01*
X142628571Y-106989285D01*
X142700000Y-106917857D01*
X142842857Y-106846428D01*
X141271428Y-106703571D02*
X141271428Y-107703571D01*
X141628571Y-106132142D02*
X141985714Y-107203571D01*
X141057142Y-107203571D01*
X138842857Y-106917857D02*
X138628571Y-106989285D01*
X138557142Y-107060714D01*
X138485714Y-107203571D01*
X138485714Y-107417857D01*
X138557142Y-107560714D01*
X138628571Y-107632142D01*
X138771428Y-107703571D01*
X139342857Y-107703571D01*
X139342857Y-106203571D01*
X138842857Y-106203571D01*
X138700000Y-106275000D01*
X138628571Y-106346428D01*
X138557142Y-106489285D01*
X138557142Y-106632142D01*
X138628571Y-106775000D01*
X138700000Y-106846428D01*
X138842857Y-106917857D01*
X139342857Y-106917857D01*
X136985714Y-107703571D02*
X137485714Y-106989285D01*
X137842857Y-107703571D02*
X137842857Y-106203571D01*
X137271428Y-106203571D01*
X137128571Y-106275000D01*
X137057142Y-106346428D01*
X136985714Y-106489285D01*
X136985714Y-106703571D01*
X137057142Y-106846428D01*
X137128571Y-106917857D01*
X137271428Y-106989285D01*
X137842857Y-106989285D01*
X136342857Y-106917857D02*
X135842857Y-106917857D01*
X135628571Y-107703571D02*
X136342857Y-107703571D01*
X136342857Y-106203571D01*
X135628571Y-106203571D01*
X135057142Y-107275000D02*
X134342857Y-107275000D01*
X135200000Y-107703571D02*
X134700000Y-106203571D01*
X134200000Y-107703571D01*
X133700000Y-107703571D02*
X133700000Y-106203571D01*
X132842857Y-107703571D02*
X133485714Y-106846428D01*
X132842857Y-106203571D02*
X133700000Y-107060714D01*
X131914285Y-106203571D02*
X131628571Y-106203571D01*
X131485714Y-106275000D01*
X131342857Y-106417857D01*
X131271428Y-106703571D01*
X131271428Y-107203571D01*
X131342857Y-107489285D01*
X131485714Y-107632142D01*
X131628571Y-107703571D01*
X131914285Y-107703571D01*
X132057142Y-107632142D01*
X132200000Y-107489285D01*
X132271428Y-107203571D01*
X132271428Y-106703571D01*
X132200000Y-106417857D01*
X132057142Y-106275000D01*
X131914285Y-106203571D01*
X130628571Y-106203571D02*
X130628571Y-107417857D01*
X130557142Y-107560714D01*
X130485714Y-107632142D01*
X130342857Y-107703571D01*
X130057142Y-107703571D01*
X129914285Y-107632142D01*
X129842857Y-107560714D01*
X129771428Y-107417857D01*
X129771428Y-106203571D01*
X129271428Y-106203571D02*
X128414285Y-106203571D01*
X128842857Y-107703571D02*
X128842857Y-106203571D01*
X126271428Y-106917857D02*
X126057142Y-106989285D01*
X125985714Y-107060714D01*
X125914285Y-107203571D01*
X125914285Y-107417857D01*
X125985714Y-107560714D01*
X126057142Y-107632142D01*
X126200000Y-107703571D01*
X126771428Y-107703571D01*
X126771428Y-106203571D01*
X126271428Y-106203571D01*
X126128571Y-106275000D01*
X126057142Y-106346428D01*
X125985714Y-106489285D01*
X125985714Y-106632142D01*
X126057142Y-106775000D01*
X126128571Y-106846428D01*
X126271428Y-106917857D01*
X126771428Y-106917857D01*
X124985714Y-106203571D02*
X124700000Y-106203571D01*
X124557142Y-106275000D01*
X124414285Y-106417857D01*
X124342857Y-106703571D01*
X124342857Y-107203571D01*
X124414285Y-107489285D01*
X124557142Y-107632142D01*
X124700000Y-107703571D01*
X124985714Y-107703571D01*
X125128571Y-107632142D01*
X125271428Y-107489285D01*
X125342857Y-107203571D01*
X125342857Y-106703571D01*
X125271428Y-106417857D01*
X125128571Y-106275000D01*
X124985714Y-106203571D01*
X123771428Y-107275000D02*
X123057142Y-107275000D01*
X123914285Y-107703571D02*
X123414285Y-106203571D01*
X122914285Y-107703571D01*
X121557142Y-107703571D02*
X122057142Y-106989285D01*
X122414285Y-107703571D02*
X122414285Y-106203571D01*
X121842857Y-106203571D01*
X121700000Y-106275000D01*
X121628571Y-106346428D01*
X121557142Y-106489285D01*
X121557142Y-106703571D01*
X121628571Y-106846428D01*
X121700000Y-106917857D01*
X121842857Y-106989285D01*
X122414285Y-106989285D01*
X120914285Y-107703571D02*
X120914285Y-106203571D01*
X120557142Y-106203571D01*
X120342857Y-106275000D01*
X120200000Y-106417857D01*
X120128571Y-106560714D01*
X120057142Y-106846428D01*
X120057142Y-107060714D01*
X120128571Y-107346428D01*
X120200000Y-107489285D01*
X120342857Y-107632142D01*
X120557142Y-107703571D01*
X120914285Y-107703571D01*
X137985714Y-108753571D02*
X137485714Y-110253571D01*
X136985714Y-108753571D01*
X136200000Y-108753571D02*
X136057142Y-108753571D01*
X135914285Y-108825000D01*
X135842857Y-108896428D01*
X135771428Y-109039285D01*
X135700000Y-109325000D01*
X135700000Y-109682142D01*
X135771428Y-109967857D01*
X135842857Y-110110714D01*
X135914285Y-110182142D01*
X136057142Y-110253571D01*
X136200000Y-110253571D01*
X136342857Y-110182142D01*
X136414285Y-110110714D01*
X136485714Y-109967857D01*
X136557142Y-109682142D01*
X136557142Y-109325000D01*
X136485714Y-109039285D01*
X136414285Y-108896428D01*
X136342857Y-108825000D01*
X136200000Y-108753571D01*
X135057142Y-110110714D02*
X134985714Y-110182142D01*
X135057142Y-110253571D01*
X135128571Y-110182142D01*
X135057142Y-110110714D01*
X135057142Y-110253571D01*
X133557142Y-110253571D02*
X134414285Y-110253571D01*
X133985714Y-110253571D02*
X133985714Y-108753571D01*
X134128571Y-108967857D01*
X134271428Y-109110714D01*
X134414285Y-109182142D01*
D12*
G36*
X160221224Y-97637190D02*
X159898725Y-97668365D01*
X159533143Y-97721669D01*
X159123787Y-97793090D01*
X158731838Y-97874628D01*
X158417726Y-97953188D01*
X158310667Y-97986581D01*
X157367371Y-98400646D01*
X156500547Y-98946720D01*
X155731515Y-99607289D01*
X155081590Y-100364835D01*
X154706097Y-100948470D01*
X154561871Y-101212452D01*
X154458005Y-101416630D01*
X154416085Y-101518483D01*
X154416000Y-101519970D01*
X154494839Y-101542665D01*
X154708071Y-101560856D01*
X155020775Y-101572375D01*
X155307729Y-101575333D01*
X155706126Y-101577417D01*
X155967806Y-101587967D01*
X156125373Y-101613432D01*
X156211430Y-101660262D01*
X156258580Y-101734905D01*
X156270820Y-101765833D01*
X156298154Y-101910353D01*
X156206788Y-101980166D01*
X156119925Y-102001343D01*
X155963060Y-102061003D01*
X155918032Y-102189596D01*
X155924535Y-102297677D01*
X155947050Y-102440888D01*
X155996651Y-102719188D01*
X156067374Y-103101591D01*
X156153258Y-103557108D01*
X156248341Y-104054751D01*
X156346659Y-104563533D01*
X156442251Y-105052467D01*
X156529155Y-105490564D01*
X156601408Y-105846837D01*
X156653048Y-106090298D01*
X156661172Y-106126167D01*
X156740880Y-106269620D01*
X156920391Y-106316032D01*
X156957614Y-106316667D01*
X157135287Y-106339327D01*
X157209995Y-106393872D01*
X157210000Y-106394408D01*
X157237928Y-106536298D01*
X157261392Y-106606075D01*
X157265112Y-106662729D01*
X157207869Y-106700938D01*
X157064242Y-106724200D01*
X156808809Y-106736011D01*
X156416147Y-106739868D01*
X156287726Y-106740000D01*
X155891781Y-106733986D01*
X155567514Y-106717574D01*
X155347111Y-106693203D01*
X155262760Y-106663315D01*
X155262667Y-106662258D01*
X155234739Y-106520368D01*
X155211275Y-106450591D01*
X155209886Y-106361185D01*
X155320459Y-106322580D01*
X155474454Y-106316667D01*
X155678212Y-106307488D01*
X155753373Y-106255603D01*
X155740561Y-106124490D01*
X155731111Y-106085922D01*
X155682881Y-105869761D01*
X155623184Y-105570571D01*
X155589189Y-105387422D01*
X155544657Y-105147722D01*
X155476526Y-104790860D01*
X155392126Y-104354244D01*
X155298786Y-103875280D01*
X155203836Y-103391375D01*
X155114605Y-102939936D01*
X155038421Y-102558368D01*
X154982616Y-102284080D01*
X154962534Y-102189166D01*
X154885528Y-102046096D01*
X154708946Y-101999416D01*
X154668387Y-101998666D01*
X154490793Y-101970996D01*
X154416008Y-101904378D01*
X154416000Y-101903633D01*
X154383149Y-101851781D01*
X154301588Y-101903553D01*
X154163964Y-102105398D01*
X154047825Y-102450247D01*
X153957822Y-102912607D01*
X153898605Y-103466987D01*
X153874825Y-104087896D01*
X153874895Y-104242333D01*
X153919598Y-105103712D01*
X154046179Y-105859506D01*
X154265259Y-106557738D01*
X154503891Y-107086814D01*
X155038593Y-107958518D01*
X155708063Y-108748516D01*
X156487634Y-109432142D01*
X157352636Y-109984729D01*
X157455853Y-110038445D01*
X158116299Y-110308916D01*
X158881476Y-110514929D01*
X159696340Y-110648102D01*
X160505843Y-110700056D01*
X161254939Y-110662408D01*
X161410551Y-110640570D01*
X162361265Y-110404512D01*
X163282197Y-110010516D01*
X164153090Y-109469709D01*
X164953685Y-108793218D01*
X165164906Y-108578450D01*
X165424012Y-108296449D01*
X165634187Y-108043225D01*
X165816134Y-107785077D01*
X165990555Y-107488303D01*
X166178154Y-107119202D01*
X166354917Y-106740000D01*
X165991852Y-106740000D01*
X162232137Y-106740000D01*
X162199050Y-106629562D01*
X161518511Y-106629562D01*
X161490648Y-106683308D01*
X161401754Y-106715982D01*
X161224449Y-106732827D01*
X160931354Y-106739085D01*
X160517889Y-106740000D01*
X160122748Y-106733969D01*
X159799218Y-106717512D01*
X159579568Y-106693085D01*
X159496065Y-106663142D01*
X159496000Y-106662258D01*
X159468073Y-106520368D01*
X159444609Y-106450591D01*
X159443495Y-106360256D01*
X159556094Y-106321962D01*
X159698609Y-106316667D01*
X159904187Y-106300743D01*
X159989754Y-106232992D01*
X160004000Y-106125608D01*
X159978996Y-105912895D01*
X159918291Y-105655807D01*
X159913153Y-105638774D01*
X159845581Y-105369068D01*
X159783190Y-105040956D01*
X159764987Y-104919667D01*
X159707667Y-104496333D01*
X159044625Y-104471481D01*
X158714160Y-104461608D01*
X158521128Y-104467853D01*
X158433837Y-104497938D01*
X158420595Y-104559583D01*
X158436498Y-104619648D01*
X158448126Y-104749188D01*
X158340359Y-104791097D01*
X158283302Y-104792667D01*
X158131219Y-104760067D01*
X158055783Y-104630140D01*
X158033729Y-104517500D01*
X157974903Y-104227943D01*
X157903376Y-103967167D01*
X157853375Y-103781946D01*
X157883953Y-103706597D01*
X158017380Y-103692015D01*
X158028171Y-103692000D01*
X158221270Y-103751031D01*
X158287048Y-103864825D01*
X158326524Y-103954598D01*
X158411798Y-104003668D01*
X158581863Y-104020948D01*
X158875713Y-104015352D01*
X158935288Y-104012991D01*
X159249133Y-103995717D01*
X159428206Y-103968348D01*
X159507066Y-103919389D01*
X159520268Y-103837345D01*
X159518436Y-103819000D01*
X159454803Y-103337007D01*
X159383149Y-102891126D01*
X159310862Y-102522142D01*
X159245325Y-102270845D01*
X159230988Y-102231500D01*
X159136790Y-101998667D01*
X157360489Y-101998667D01*
X157416081Y-102295000D01*
X157440828Y-102493404D01*
X157400864Y-102576311D01*
X157301767Y-102591333D01*
X157176687Y-102545940D01*
X157085433Y-102386364D01*
X157038891Y-102231500D01*
X156970805Y-101972134D01*
X156914240Y-101763589D01*
X156902393Y-101721831D01*
X156897557Y-101672897D01*
X156928859Y-101636392D01*
X157016531Y-101610893D01*
X157180807Y-101594975D01*
X157441919Y-101587213D01*
X157820102Y-101586185D01*
X158335588Y-101590464D01*
X158706599Y-101594831D01*
X159310537Y-101602672D01*
X159766386Y-101610874D01*
X160095380Y-101621851D01*
X160318750Y-101638022D01*
X160457729Y-101661800D01*
X160533550Y-101695603D01*
X160567445Y-101741847D01*
X160580646Y-101802948D01*
X160581389Y-101808167D01*
X160570033Y-101950460D01*
X160449213Y-101996958D01*
X160390889Y-101998667D01*
X160270492Y-102017226D01*
X160199306Y-102088827D01*
X160176215Y-102237352D01*
X160200102Y-102486686D01*
X160269853Y-102860713D01*
X160336243Y-103168420D01*
X160423733Y-103572696D01*
X160508460Y-103980025D01*
X160574696Y-104314461D01*
X160584970Y-104369333D01*
X160655498Y-104746208D01*
X160733040Y-105152275D01*
X160761849Y-105300667D01*
X160822437Y-105618703D01*
X160876035Y-105913718D01*
X160896993Y-106036350D01*
X160954795Y-106229756D01*
X161082192Y-106312401D01*
X161213371Y-106332683D01*
X161418010Y-106384061D01*
X161504503Y-106506889D01*
X161512722Y-106549500D01*
X161518511Y-106629562D01*
X162199050Y-106629562D01*
X162134069Y-106412677D01*
X162048523Y-106069975D01*
X162042886Y-105856096D01*
X162121008Y-105748571D01*
X162252071Y-105724000D01*
X162434783Y-105773644D01*
X162546486Y-105949185D01*
X162552341Y-105965531D01*
X162596782Y-106075395D01*
X162660632Y-106148074D01*
X162777778Y-106194356D01*
X162982107Y-106225027D01*
X163307506Y-106250876D01*
X163485958Y-106262727D01*
X163850395Y-106282452D01*
X164150423Y-106290910D01*
X164346703Y-106287428D01*
X164400143Y-106278366D01*
X164411425Y-106184629D01*
X164391586Y-105967098D01*
X164348225Y-105666827D01*
X164288941Y-105324867D01*
X164221333Y-104982271D01*
X164153002Y-104680094D01*
X164091545Y-104459387D01*
X164045359Y-104361735D01*
X163910096Y-104324580D01*
X163672399Y-104302205D01*
X163398684Y-104296604D01*
X163155366Y-104309772D01*
X163037863Y-104331487D01*
X162908204Y-104446621D01*
X162882667Y-104544372D01*
X162819446Y-104682985D01*
X162727215Y-104708000D01*
X162623538Y-104663754D01*
X162532409Y-104511596D01*
X162436791Y-104222391D01*
X162430882Y-104201278D01*
X162346087Y-103894531D01*
X162307016Y-103716777D01*
X162317261Y-103633000D01*
X162380412Y-103608185D01*
X162491792Y-103607333D01*
X162678000Y-103671160D01*
X162737866Y-103776667D01*
X162783119Y-103869069D01*
X162884743Y-103920434D01*
X163083113Y-103942204D01*
X163335411Y-103946000D01*
X163626661Y-103933837D01*
X163845867Y-103902056D01*
X163941435Y-103860630D01*
X163949164Y-103743491D01*
X163925324Y-103507378D01*
X163878063Y-103197923D01*
X163815530Y-102860763D01*
X163745871Y-102541530D01*
X163677236Y-102285861D01*
X163642999Y-102189167D01*
X163596184Y-102102397D01*
X163520431Y-102046919D01*
X163381870Y-102015779D01*
X163146630Y-102002023D01*
X162780841Y-101998696D01*
X162715149Y-101998667D01*
X161866667Y-101998667D01*
X161866667Y-102295000D01*
X161846374Y-102501285D01*
X161770516Y-102583551D01*
X161708337Y-102591333D01*
X161586496Y-102536148D01*
X161487954Y-102352224D01*
X161444154Y-102213264D01*
X161388119Y-102009007D01*
X161361749Y-101853756D01*
X161383623Y-101740796D01*
X161472319Y-101663411D01*
X161646414Y-101614883D01*
X161924488Y-101588498D01*
X162325117Y-101577539D01*
X162866880Y-101575290D01*
X163208806Y-101575333D01*
X164979593Y-101575333D01*
X165020056Y-101787000D01*
X165027019Y-101938286D01*
X164936379Y-101992994D01*
X164818260Y-101998667D01*
X164641106Y-102030961D01*
X164579833Y-102104500D01*
X164596779Y-102214071D01*
X164642356Y-102465633D01*
X164711993Y-102835134D01*
X164801118Y-103298519D01*
X164905159Y-103831734D01*
X164986135Y-104242333D01*
X165388604Y-106274333D01*
X165650663Y-106300195D01*
X165853058Y-106355749D01*
X165943601Y-106494689D01*
X165952287Y-106533028D01*
X165991852Y-106740000D01*
X166354917Y-106740000D01*
X166399633Y-106644073D01*
X166528298Y-106359000D01*
X166635858Y-106042818D01*
X166736246Y-105612386D01*
X166819993Y-105122770D01*
X166877626Y-104629038D01*
X166899612Y-104200000D01*
X166865064Y-103480352D01*
X166742987Y-102786485D01*
X166520588Y-102051448D01*
X166454707Y-101871667D01*
X166022270Y-100936958D01*
X165465714Y-100110637D01*
X164771448Y-99372807D01*
X164710430Y-99317790D01*
X164398476Y-99063632D01*
X164025734Y-98795746D01*
X163635372Y-98541640D01*
X163270557Y-98328823D01*
X162974456Y-98184802D01*
X162879393Y-98150985D01*
X162646316Y-98071238D01*
X162417000Y-97978751D01*
X162227068Y-97918929D01*
X161918052Y-97847007D01*
X161538676Y-97773595D01*
X161268809Y-97728766D01*
X160840680Y-97667122D01*
X160513347Y-97636686D01*
X160221224Y-97637190D01*
X160221224Y-97637190D01*
G37*
X160221224Y-97637190D02*
X159898725Y-97668365D01*
X159533143Y-97721669D01*
X159123787Y-97793090D01*
X158731838Y-97874628D01*
X158417726Y-97953188D01*
X158310667Y-97986581D01*
X157367371Y-98400646D01*
X156500547Y-98946720D01*
X155731515Y-99607289D01*
X155081590Y-100364835D01*
X154706097Y-100948470D01*
X154561871Y-101212452D01*
X154458005Y-101416630D01*
X154416085Y-101518483D01*
X154416000Y-101519970D01*
X154494839Y-101542665D01*
X154708071Y-101560856D01*
X155020775Y-101572375D01*
X155307729Y-101575333D01*
X155706126Y-101577417D01*
X155967806Y-101587967D01*
X156125373Y-101613432D01*
X156211430Y-101660262D01*
X156258580Y-101734905D01*
X156270820Y-101765833D01*
X156298154Y-101910353D01*
X156206788Y-101980166D01*
X156119925Y-102001343D01*
X155963060Y-102061003D01*
X155918032Y-102189596D01*
X155924535Y-102297677D01*
X155947050Y-102440888D01*
X155996651Y-102719188D01*
X156067374Y-103101591D01*
X156153258Y-103557108D01*
X156248341Y-104054751D01*
X156346659Y-104563533D01*
X156442251Y-105052467D01*
X156529155Y-105490564D01*
X156601408Y-105846837D01*
X156653048Y-106090298D01*
X156661172Y-106126167D01*
X156740880Y-106269620D01*
X156920391Y-106316032D01*
X156957614Y-106316667D01*
X157135287Y-106339327D01*
X157209995Y-106393872D01*
X157210000Y-106394408D01*
X157237928Y-106536298D01*
X157261392Y-106606075D01*
X157265112Y-106662729D01*
X157207869Y-106700938D01*
X157064242Y-106724200D01*
X156808809Y-106736011D01*
X156416147Y-106739868D01*
X156287726Y-106740000D01*
X155891781Y-106733986D01*
X155567514Y-106717574D01*
X155347111Y-106693203D01*
X155262760Y-106663315D01*
X155262667Y-106662258D01*
X155234739Y-106520368D01*
X155211275Y-106450591D01*
X155209886Y-106361185D01*
X155320459Y-106322580D01*
X155474454Y-106316667D01*
X155678212Y-106307488D01*
X155753373Y-106255603D01*
X155740561Y-106124490D01*
X155731111Y-106085922D01*
X155682881Y-105869761D01*
X155623184Y-105570571D01*
X155589189Y-105387422D01*
X155544657Y-105147722D01*
X155476526Y-104790860D01*
X155392126Y-104354244D01*
X155298786Y-103875280D01*
X155203836Y-103391375D01*
X155114605Y-102939936D01*
X155038421Y-102558368D01*
X154982616Y-102284080D01*
X154962534Y-102189166D01*
X154885528Y-102046096D01*
X154708946Y-101999416D01*
X154668387Y-101998666D01*
X154490793Y-101970996D01*
X154416008Y-101904378D01*
X154416000Y-101903633D01*
X154383149Y-101851781D01*
X154301588Y-101903553D01*
X154163964Y-102105398D01*
X154047825Y-102450247D01*
X153957822Y-102912607D01*
X153898605Y-103466987D01*
X153874825Y-104087896D01*
X153874895Y-104242333D01*
X153919598Y-105103712D01*
X154046179Y-105859506D01*
X154265259Y-106557738D01*
X154503891Y-107086814D01*
X155038593Y-107958518D01*
X155708063Y-108748516D01*
X156487634Y-109432142D01*
X157352636Y-109984729D01*
X157455853Y-110038445D01*
X158116299Y-110308916D01*
X158881476Y-110514929D01*
X159696340Y-110648102D01*
X160505843Y-110700056D01*
X161254939Y-110662408D01*
X161410551Y-110640570D01*
X162361265Y-110404512D01*
X163282197Y-110010516D01*
X164153090Y-109469709D01*
X164953685Y-108793218D01*
X165164906Y-108578450D01*
X165424012Y-108296449D01*
X165634187Y-108043225D01*
X165816134Y-107785077D01*
X165990555Y-107488303D01*
X166178154Y-107119202D01*
X166354917Y-106740000D01*
X165991852Y-106740000D01*
X162232137Y-106740000D01*
X162199050Y-106629562D01*
X161518511Y-106629562D01*
X161490648Y-106683308D01*
X161401754Y-106715982D01*
X161224449Y-106732827D01*
X160931354Y-106739085D01*
X160517889Y-106740000D01*
X160122748Y-106733969D01*
X159799218Y-106717512D01*
X159579568Y-106693085D01*
X159496065Y-106663142D01*
X159496000Y-106662258D01*
X159468073Y-106520368D01*
X159444609Y-106450591D01*
X159443495Y-106360256D01*
X159556094Y-106321962D01*
X159698609Y-106316667D01*
X159904187Y-106300743D01*
X159989754Y-106232992D01*
X160004000Y-106125608D01*
X159978996Y-105912895D01*
X159918291Y-105655807D01*
X159913153Y-105638774D01*
X159845581Y-105369068D01*
X159783190Y-105040956D01*
X159764987Y-104919667D01*
X159707667Y-104496333D01*
X159044625Y-104471481D01*
X158714160Y-104461608D01*
X158521128Y-104467853D01*
X158433837Y-104497938D01*
X158420595Y-104559583D01*
X158436498Y-104619648D01*
X158448126Y-104749188D01*
X158340359Y-104791097D01*
X158283302Y-104792667D01*
X158131219Y-104760067D01*
X158055783Y-104630140D01*
X158033729Y-104517500D01*
X157974903Y-104227943D01*
X157903376Y-103967167D01*
X157853375Y-103781946D01*
X157883953Y-103706597D01*
X158017380Y-103692015D01*
X158028171Y-103692000D01*
X158221270Y-103751031D01*
X158287048Y-103864825D01*
X158326524Y-103954598D01*
X158411798Y-104003668D01*
X158581863Y-104020948D01*
X158875713Y-104015352D01*
X158935288Y-104012991D01*
X159249133Y-103995717D01*
X159428206Y-103968348D01*
X159507066Y-103919389D01*
X159520268Y-103837345D01*
X159518436Y-103819000D01*
X159454803Y-103337007D01*
X159383149Y-102891126D01*
X159310862Y-102522142D01*
X159245325Y-102270845D01*
X159230988Y-102231500D01*
X159136790Y-101998667D01*
X157360489Y-101998667D01*
X157416081Y-102295000D01*
X157440828Y-102493404D01*
X157400864Y-102576311D01*
X157301767Y-102591333D01*
X157176687Y-102545940D01*
X157085433Y-102386364D01*
X157038891Y-102231500D01*
X156970805Y-101972134D01*
X156914240Y-101763589D01*
X156902393Y-101721831D01*
X156897557Y-101672897D01*
X156928859Y-101636392D01*
X157016531Y-101610893D01*
X157180807Y-101594975D01*
X157441919Y-101587213D01*
X157820102Y-101586185D01*
X158335588Y-101590464D01*
X158706599Y-101594831D01*
X159310537Y-101602672D01*
X159766386Y-101610874D01*
X160095380Y-101621851D01*
X160318750Y-101638022D01*
X160457729Y-101661800D01*
X160533550Y-101695603D01*
X160567445Y-101741847D01*
X160580646Y-101802948D01*
X160581389Y-101808167D01*
X160570033Y-101950460D01*
X160449213Y-101996958D01*
X160390889Y-101998667D01*
X160270492Y-102017226D01*
X160199306Y-102088827D01*
X160176215Y-102237352D01*
X160200102Y-102486686D01*
X160269853Y-102860713D01*
X160336243Y-103168420D01*
X160423733Y-103572696D01*
X160508460Y-103980025D01*
X160574696Y-104314461D01*
X160584970Y-104369333D01*
X160655498Y-104746208D01*
X160733040Y-105152275D01*
X160761849Y-105300667D01*
X160822437Y-105618703D01*
X160876035Y-105913718D01*
X160896993Y-106036350D01*
X160954795Y-106229756D01*
X161082192Y-106312401D01*
X161213371Y-106332683D01*
X161418010Y-106384061D01*
X161504503Y-106506889D01*
X161512722Y-106549500D01*
X161518511Y-106629562D01*
X162199050Y-106629562D01*
X162134069Y-106412677D01*
X162048523Y-106069975D01*
X162042886Y-105856096D01*
X162121008Y-105748571D01*
X162252071Y-105724000D01*
X162434783Y-105773644D01*
X162546486Y-105949185D01*
X162552341Y-105965531D01*
X162596782Y-106075395D01*
X162660632Y-106148074D01*
X162777778Y-106194356D01*
X162982107Y-106225027D01*
X163307506Y-106250876D01*
X163485958Y-106262727D01*
X163850395Y-106282452D01*
X164150423Y-106290910D01*
X164346703Y-106287428D01*
X164400143Y-106278366D01*
X164411425Y-106184629D01*
X164391586Y-105967098D01*
X164348225Y-105666827D01*
X164288941Y-105324867D01*
X164221333Y-104982271D01*
X164153002Y-104680094D01*
X164091545Y-104459387D01*
X164045359Y-104361735D01*
X163910096Y-104324580D01*
X163672399Y-104302205D01*
X163398684Y-104296604D01*
X163155366Y-104309772D01*
X163037863Y-104331487D01*
X162908204Y-104446621D01*
X162882667Y-104544372D01*
X162819446Y-104682985D01*
X162727215Y-104708000D01*
X162623538Y-104663754D01*
X162532409Y-104511596D01*
X162436791Y-104222391D01*
X162430882Y-104201278D01*
X162346087Y-103894531D01*
X162307016Y-103716777D01*
X162317261Y-103633000D01*
X162380412Y-103608185D01*
X162491792Y-103607333D01*
X162678000Y-103671160D01*
X162737866Y-103776667D01*
X162783119Y-103869069D01*
X162884743Y-103920434D01*
X163083113Y-103942204D01*
X163335411Y-103946000D01*
X163626661Y-103933837D01*
X163845867Y-103902056D01*
X163941435Y-103860630D01*
X163949164Y-103743491D01*
X163925324Y-103507378D01*
X163878063Y-103197923D01*
X163815530Y-102860763D01*
X163745871Y-102541530D01*
X163677236Y-102285861D01*
X163642999Y-102189167D01*
X163596184Y-102102397D01*
X163520431Y-102046919D01*
X163381870Y-102015779D01*
X163146630Y-102002023D01*
X162780841Y-101998696D01*
X162715149Y-101998667D01*
X161866667Y-101998667D01*
X161866667Y-102295000D01*
X161846374Y-102501285D01*
X161770516Y-102583551D01*
X161708337Y-102591333D01*
X161586496Y-102536148D01*
X161487954Y-102352224D01*
X161444154Y-102213264D01*
X161388119Y-102009007D01*
X161361749Y-101853756D01*
X161383623Y-101740796D01*
X161472319Y-101663411D01*
X161646414Y-101614883D01*
X161924488Y-101588498D01*
X162325117Y-101577539D01*
X162866880Y-101575290D01*
X163208806Y-101575333D01*
X164979593Y-101575333D01*
X165020056Y-101787000D01*
X165027019Y-101938286D01*
X164936379Y-101992994D01*
X164818260Y-101998667D01*
X164641106Y-102030961D01*
X164579833Y-102104500D01*
X164596779Y-102214071D01*
X164642356Y-102465633D01*
X164711993Y-102835134D01*
X164801118Y-103298519D01*
X164905159Y-103831734D01*
X164986135Y-104242333D01*
X165388604Y-106274333D01*
X165650663Y-106300195D01*
X165853058Y-106355749D01*
X165943601Y-106494689D01*
X165952287Y-106533028D01*
X165991852Y-106740000D01*
X166354917Y-106740000D01*
X166399633Y-106644073D01*
X166528298Y-106359000D01*
X166635858Y-106042818D01*
X166736246Y-105612386D01*
X166819993Y-105122770D01*
X166877626Y-104629038D01*
X166899612Y-104200000D01*
X166865064Y-103480352D01*
X166742987Y-102786485D01*
X166520588Y-102051448D01*
X166454707Y-101871667D01*
X166022270Y-100936958D01*
X165465714Y-100110637D01*
X164771448Y-99372807D01*
X164710430Y-99317790D01*
X164398476Y-99063632D01*
X164025734Y-98795746D01*
X163635372Y-98541640D01*
X163270557Y-98328823D01*
X162974456Y-98184802D01*
X162879393Y-98150985D01*
X162646316Y-98071238D01*
X162417000Y-97978751D01*
X162227068Y-97918929D01*
X161918052Y-97847007D01*
X161538676Y-97773595D01*
X161268809Y-97728766D01*
X160840680Y-97667122D01*
X160513347Y-97636686D01*
X160221224Y-97637190D01*
G36*
X171518667Y-106147333D02*
X171222334Y-106147333D01*
X171021936Y-106163147D01*
X170939896Y-106234313D01*
X170926000Y-106359000D01*
X170932608Y-106461499D01*
X170974781Y-106524054D01*
X171086046Y-106556527D01*
X171299926Y-106568778D01*
X171645667Y-106570667D01*
X172365334Y-106570667D01*
X172365334Y-106117816D01*
X172558244Y-106299046D01*
X172749515Y-106431247D01*
X173020995Y-106566922D01*
X173305180Y-106677295D01*
X173534560Y-106733590D01*
X173582479Y-106735637D01*
X173718135Y-106702246D01*
X173931351Y-106625413D01*
X173978284Y-106606316D01*
X174189038Y-106501142D01*
X174347945Y-106368405D01*
X174462603Y-106183976D01*
X174540610Y-105923728D01*
X174589566Y-105563533D01*
X174617067Y-105079264D01*
X174629449Y-104538667D01*
X174649897Y-103141667D01*
X174904616Y-103115135D01*
X175088963Y-103068802D01*
X175154987Y-102953408D01*
X175159334Y-102878878D01*
X175153055Y-102776372D01*
X175111553Y-102715706D01*
X175000828Y-102687867D01*
X174786881Y-102683845D01*
X174460834Y-102693742D01*
X173762334Y-102718333D01*
X173739200Y-104278362D01*
X173725167Y-104882041D01*
X173703277Y-105365240D01*
X173674515Y-105713775D01*
X173639866Y-105913462D01*
X173622999Y-105950529D01*
X173440660Y-106048231D01*
X173174612Y-106045040D01*
X172872733Y-105946639D01*
X172687385Y-105839485D01*
X172365334Y-105616304D01*
X172365334Y-103099333D01*
X172577000Y-103099333D01*
X172738122Y-103064364D01*
X172787773Y-102926673D01*
X172788667Y-102887667D01*
X172780753Y-102780004D01*
X172733233Y-102716895D01*
X172610439Y-102686449D01*
X172376701Y-102676778D01*
X172153667Y-102676000D01*
X171518667Y-102676000D01*
X171518667Y-106147333D01*
X171518667Y-106147333D01*
G37*
X171518667Y-106147333D02*
X171222334Y-106147333D01*
X171021936Y-106163147D01*
X170939896Y-106234313D01*
X170926000Y-106359000D01*
X170932608Y-106461499D01*
X170974781Y-106524054D01*
X171086046Y-106556527D01*
X171299926Y-106568778D01*
X171645667Y-106570667D01*
X172365334Y-106570667D01*
X172365334Y-106117816D01*
X172558244Y-106299046D01*
X172749515Y-106431247D01*
X173020995Y-106566922D01*
X173305180Y-106677295D01*
X173534560Y-106733590D01*
X173582479Y-106735637D01*
X173718135Y-106702246D01*
X173931351Y-106625413D01*
X173978284Y-106606316D01*
X174189038Y-106501142D01*
X174347945Y-106368405D01*
X174462603Y-106183976D01*
X174540610Y-105923728D01*
X174589566Y-105563533D01*
X174617067Y-105079264D01*
X174629449Y-104538667D01*
X174649897Y-103141667D01*
X174904616Y-103115135D01*
X175088963Y-103068802D01*
X175154987Y-102953408D01*
X175159334Y-102878878D01*
X175153055Y-102776372D01*
X175111553Y-102715706D01*
X175000828Y-102687867D01*
X174786881Y-102683845D01*
X174460834Y-102693742D01*
X173762334Y-102718333D01*
X173739200Y-104278362D01*
X173725167Y-104882041D01*
X173703277Y-105365240D01*
X173674515Y-105713775D01*
X173639866Y-105913462D01*
X173622999Y-105950529D01*
X173440660Y-106048231D01*
X173174612Y-106045040D01*
X172872733Y-105946639D01*
X172687385Y-105839485D01*
X172365334Y-105616304D01*
X172365334Y-103099333D01*
X172577000Y-103099333D01*
X172738122Y-103064364D01*
X172787773Y-102926673D01*
X172788667Y-102887667D01*
X172780753Y-102780004D01*
X172733233Y-102716895D01*
X172610439Y-102686449D01*
X172376701Y-102676778D01*
X172153667Y-102676000D01*
X171518667Y-102676000D01*
X171518667Y-106147333D01*
G36*
X168388964Y-102613610D02*
X167999999Y-102662026D01*
X167750465Y-102738697D01*
X167610496Y-102868242D01*
X167550230Y-103075277D01*
X167539334Y-103313979D01*
X167543814Y-103579135D01*
X167572230Y-103716767D01*
X167647046Y-103768677D01*
X167787969Y-103776667D01*
X167962590Y-103754499D01*
X168039239Y-103653150D01*
X168063136Y-103501500D01*
X168102375Y-103319071D01*
X168207247Y-103205300D01*
X168426008Y-103110124D01*
X168447645Y-103102583D01*
X168679984Y-103031958D01*
X168830306Y-103030699D01*
X168973805Y-103105255D01*
X169040311Y-103153411D01*
X169242186Y-103375463D01*
X169304434Y-103616830D01*
X169218000Y-103838169D01*
X169092942Y-103935386D01*
X168856374Y-104076534D01*
X168551439Y-104236582D01*
X168428334Y-104296332D01*
X167974410Y-104523069D01*
X167656771Y-104717025D01*
X167452360Y-104902729D01*
X167338122Y-105104709D01*
X167291000Y-105347494D01*
X167285334Y-105512333D01*
X167359769Y-105926308D01*
X167581986Y-106258793D01*
X167950352Y-106507980D01*
X168296704Y-106632533D01*
X168617899Y-106706143D01*
X168882903Y-106723290D01*
X169178997Y-106685179D01*
X169359667Y-106647191D01*
X169704464Y-106570824D01*
X169917553Y-106510717D01*
X170030327Y-106437611D01*
X170074178Y-106322245D01*
X170080498Y-106135357D01*
X170079334Y-105976387D01*
X170075977Y-105695751D01*
X170052538Y-105544473D01*
X169988966Y-105482577D01*
X169865210Y-105470087D01*
X169825334Y-105470000D01*
X169646141Y-105490603D01*
X169579512Y-105588327D01*
X169571334Y-105727009D01*
X169551641Y-105889836D01*
X169465703Y-106003282D01*
X169273230Y-106110568D01*
X169172294Y-106155066D01*
X168926908Y-106252626D01*
X168761383Y-106281696D01*
X168602099Y-106245322D01*
X168459338Y-106184558D01*
X168199647Y-105997730D01*
X168085330Y-105761074D01*
X168115649Y-105510352D01*
X168289869Y-105281328D01*
X168480403Y-105160813D01*
X169021530Y-104897653D01*
X169425974Y-104682202D01*
X169713202Y-104496669D01*
X169902684Y-104323260D01*
X170013887Y-104144186D01*
X170066281Y-103941654D01*
X170079334Y-103699615D01*
X170061843Y-103433433D01*
X169986335Y-103238920D01*
X169818259Y-103036490D01*
X169770353Y-102987908D01*
X169496496Y-102765741D01*
X169192522Y-102638541D01*
X168813778Y-102594209D01*
X168388964Y-102613610D01*
X168388964Y-102613610D01*
G37*
X168388964Y-102613610D02*
X167999999Y-102662026D01*
X167750465Y-102738697D01*
X167610496Y-102868242D01*
X167550230Y-103075277D01*
X167539334Y-103313979D01*
X167543814Y-103579135D01*
X167572230Y-103716767D01*
X167647046Y-103768677D01*
X167787969Y-103776667D01*
X167962590Y-103754499D01*
X168039239Y-103653150D01*
X168063136Y-103501500D01*
X168102375Y-103319071D01*
X168207247Y-103205300D01*
X168426008Y-103110124D01*
X168447645Y-103102583D01*
X168679984Y-103031958D01*
X168830306Y-103030699D01*
X168973805Y-103105255D01*
X169040311Y-103153411D01*
X169242186Y-103375463D01*
X169304434Y-103616830D01*
X169218000Y-103838169D01*
X169092942Y-103935386D01*
X168856374Y-104076534D01*
X168551439Y-104236582D01*
X168428334Y-104296332D01*
X167974410Y-104523069D01*
X167656771Y-104717025D01*
X167452360Y-104902729D01*
X167338122Y-105104709D01*
X167291000Y-105347494D01*
X167285334Y-105512333D01*
X167359769Y-105926308D01*
X167581986Y-106258793D01*
X167950352Y-106507980D01*
X168296704Y-106632533D01*
X168617899Y-106706143D01*
X168882903Y-106723290D01*
X169178997Y-106685179D01*
X169359667Y-106647191D01*
X169704464Y-106570824D01*
X169917553Y-106510717D01*
X170030327Y-106437611D01*
X170074178Y-106322245D01*
X170080498Y-106135357D01*
X170079334Y-105976387D01*
X170075977Y-105695751D01*
X170052538Y-105544473D01*
X169988966Y-105482577D01*
X169865210Y-105470087D01*
X169825334Y-105470000D01*
X169646141Y-105490603D01*
X169579512Y-105588327D01*
X169571334Y-105727009D01*
X169551641Y-105889836D01*
X169465703Y-106003282D01*
X169273230Y-106110568D01*
X169172294Y-106155066D01*
X168926908Y-106252626D01*
X168761383Y-106281696D01*
X168602099Y-106245322D01*
X168459338Y-106184558D01*
X168199647Y-105997730D01*
X168085330Y-105761074D01*
X168115649Y-105510352D01*
X168289869Y-105281328D01*
X168480403Y-105160813D01*
X169021530Y-104897653D01*
X169425974Y-104682202D01*
X169713202Y-104496669D01*
X169902684Y-104323260D01*
X170013887Y-104144186D01*
X170066281Y-103941654D01*
X170079334Y-103699615D01*
X170061843Y-103433433D01*
X169986335Y-103238920D01*
X169818259Y-103036490D01*
X169770353Y-102987908D01*
X169496496Y-102765741D01*
X169192522Y-102638541D01*
X168813778Y-102594209D01*
X168388964Y-102613610D01*
G36*
X175582667Y-103776667D02*
X175836667Y-103776667D01*
X176017880Y-103754204D01*
X176084292Y-103657248D01*
X176090667Y-103559294D01*
X176112364Y-103405772D01*
X176207963Y-103380835D01*
X176281167Y-103399473D01*
X176471825Y-103496241D01*
X176683451Y-103655770D01*
X176704500Y-103675019D01*
X176798701Y-103768260D01*
X176863295Y-103861810D01*
X176903867Y-103987806D01*
X176926004Y-104178386D01*
X176935290Y-104465687D01*
X176937310Y-104881847D01*
X176937334Y-105014809D01*
X176937334Y-106136604D01*
X176662167Y-106163135D01*
X176456506Y-106213748D01*
X176369038Y-106334139D01*
X176359945Y-106380167D01*
X176354226Y-106461434D01*
X176383103Y-106515513D01*
X176474426Y-106547940D01*
X176656043Y-106564251D01*
X176955804Y-106569981D01*
X177318334Y-106570667D01*
X177738563Y-106569541D01*
X178017309Y-106562474D01*
X178182419Y-106543930D01*
X178261744Y-106508373D01*
X178283131Y-106450267D01*
X178276722Y-106380167D01*
X178195486Y-106222330D01*
X178016834Y-106162876D01*
X177784000Y-106136086D01*
X177784000Y-103099333D01*
X178043889Y-103099333D01*
X178224292Y-103080463D01*
X178281987Y-102999477D01*
X178276722Y-102908833D01*
X178249804Y-102812191D01*
X178178643Y-102752869D01*
X178026880Y-102719413D01*
X177758154Y-102700369D01*
X177593500Y-102693605D01*
X176937334Y-102668877D01*
X176937017Y-103032272D01*
X176936701Y-103395667D01*
X176771428Y-103124610D01*
X176498388Y-102824401D01*
X176138481Y-102637792D01*
X175840872Y-102591333D01*
X175582667Y-102591333D01*
X175582667Y-103776667D01*
X175582667Y-103776667D01*
G37*
X175582667Y-103776667D02*
X175836667Y-103776667D01*
X176017880Y-103754204D01*
X176084292Y-103657248D01*
X176090667Y-103559294D01*
X176112364Y-103405772D01*
X176207963Y-103380835D01*
X176281167Y-103399473D01*
X176471825Y-103496241D01*
X176683451Y-103655770D01*
X176704500Y-103675019D01*
X176798701Y-103768260D01*
X176863295Y-103861810D01*
X176903867Y-103987806D01*
X176926004Y-104178386D01*
X176935290Y-104465687D01*
X176937310Y-104881847D01*
X176937334Y-105014809D01*
X176937334Y-106136604D01*
X176662167Y-106163135D01*
X176456506Y-106213748D01*
X176369038Y-106334139D01*
X176359945Y-106380167D01*
X176354226Y-106461434D01*
X176383103Y-106515513D01*
X176474426Y-106547940D01*
X176656043Y-106564251D01*
X176955804Y-106569981D01*
X177318334Y-106570667D01*
X177738563Y-106569541D01*
X178017309Y-106562474D01*
X178182419Y-106543930D01*
X178261744Y-106508373D01*
X178283131Y-106450267D01*
X178276722Y-106380167D01*
X178195486Y-106222330D01*
X178016834Y-106162876D01*
X177784000Y-106136086D01*
X177784000Y-103099333D01*
X178043889Y-103099333D01*
X178224292Y-103080463D01*
X178281987Y-102999477D01*
X178276722Y-102908833D01*
X178249804Y-102812191D01*
X178178643Y-102752869D01*
X178026880Y-102719413D01*
X177758154Y-102700369D01*
X177593500Y-102693605D01*
X176937334Y-102668877D01*
X176937017Y-103032272D01*
X176936701Y-103395667D01*
X176771428Y-103124610D01*
X176498388Y-102824401D01*
X176138481Y-102637792D01*
X175840872Y-102591333D01*
X175582667Y-102591333D01*
X175582667Y-103776667D01*
M02*
