G04 (created by PCBNEW (2013-07-07 BZR 4022)-stable) date 08/01/2015 19:31:04*
%MOIN*%
G04 Gerber Fmt 3.4, Leading zero omitted, Abs format*
%FSLAX34Y34*%
G01*
G70*
G90*
G04 APERTURE LIST*
%ADD10C,0.00590551*%
%ADD11R,0.06X0.06*%
%ADD12C,0.06*%
%ADD13R,0.035X0.055*%
%ADD14R,0.055X0.035*%
%ADD15C,0.056*%
%ADD16R,0.08X0.144*%
%ADD17R,0.08X0.04*%
%ADD18R,0.0393701X0.0275591*%
%ADD19R,0.1X0.02*%
%ADD20R,0.11X0.0787402*%
%ADD21C,0.04*%
%ADD22R,0.0472X0.0472*%
%ADD23R,0.063X0.1024*%
%ADD24R,0.0551X0.0236*%
%ADD25R,0.055X0.055*%
%ADD26C,0.055*%
G04 APERTURE END LIST*
G54D10*
G54D11*
X44200Y-38000D03*
G54D12*
X49200Y-38000D03*
X50200Y-38000D03*
X51200Y-38000D03*
X52200Y-38000D03*
X53200Y-38000D03*
X54200Y-38000D03*
X55200Y-38000D03*
X56200Y-38000D03*
X57200Y-38000D03*
X58200Y-38000D03*
X59200Y-38000D03*
X60200Y-38000D03*
X61200Y-38000D03*
X62200Y-38000D03*
X45200Y-38000D03*
X46200Y-38000D03*
X47200Y-38000D03*
X48200Y-38000D03*
X63200Y-38000D03*
G54D11*
X44200Y-32000D03*
G54D12*
X49200Y-32000D03*
X50200Y-32000D03*
X51200Y-32000D03*
X52200Y-32000D03*
X53200Y-32000D03*
X54200Y-32000D03*
X55200Y-32000D03*
X56200Y-32000D03*
X57200Y-32000D03*
X58200Y-32000D03*
X59200Y-32000D03*
X60200Y-32000D03*
X61200Y-32000D03*
X62200Y-32000D03*
X45200Y-32000D03*
X46200Y-32000D03*
X47200Y-32000D03*
X48200Y-32000D03*
X63200Y-32000D03*
G54D13*
X72525Y-32200D03*
X73275Y-32200D03*
X46525Y-36150D03*
X47275Y-36150D03*
X44475Y-33000D03*
X43725Y-33000D03*
X47625Y-33200D03*
X48375Y-33200D03*
X46075Y-33000D03*
X45325Y-33000D03*
G54D14*
X51000Y-34425D03*
X51000Y-35175D03*
G54D15*
X47250Y-34700D03*
X49250Y-34700D03*
G54D16*
X64950Y-36000D03*
G54D17*
X67550Y-36000D03*
X67550Y-35100D03*
X67550Y-36900D03*
G54D18*
X68727Y-34675D03*
X68727Y-35050D03*
X68727Y-35424D03*
X69672Y-35424D03*
X69672Y-35050D03*
X69672Y-34675D03*
G54D13*
X69675Y-37900D03*
X68925Y-37900D03*
X64325Y-38000D03*
X65075Y-38000D03*
X70625Y-37900D03*
X71375Y-37900D03*
G54D14*
X68800Y-37075D03*
X68800Y-36325D03*
G54D13*
X49675Y-36800D03*
X48925Y-36800D03*
X70925Y-32200D03*
X71675Y-32200D03*
X44875Y-34000D03*
X45625Y-34000D03*
G54D14*
X50836Y-37069D03*
X50836Y-36319D03*
G54D13*
X66325Y-33850D03*
X65575Y-33850D03*
X61775Y-36950D03*
X62525Y-36950D03*
G54D19*
X70850Y-35729D03*
X70850Y-35414D03*
X70850Y-35100D03*
X70850Y-34785D03*
X70850Y-34470D03*
G54D20*
X73131Y-36871D03*
X73131Y-33328D03*
X70965Y-36871D03*
X70965Y-33328D03*
G54D21*
X71950Y-35950D03*
X71950Y-34250D03*
G54D22*
X47863Y-36900D03*
X47037Y-36900D03*
X72187Y-37900D03*
X73013Y-37900D03*
G54D23*
X63264Y-35233D03*
X63264Y-33815D03*
G54D10*
G36*
X51988Y-35932D02*
X52350Y-35570D01*
X52433Y-35654D01*
X52071Y-36016D01*
X51988Y-35932D01*
X51988Y-35932D01*
G37*
G36*
X52127Y-36071D02*
X52489Y-35709D01*
X52572Y-35793D01*
X52210Y-36155D01*
X52127Y-36071D01*
X52127Y-36071D01*
G37*
G36*
X52266Y-36211D02*
X52628Y-35849D01*
X52712Y-35932D01*
X52350Y-36294D01*
X52266Y-36211D01*
X52266Y-36211D01*
G37*
G36*
X52405Y-36349D02*
X52767Y-35987D01*
X52850Y-36071D01*
X52488Y-36433D01*
X52405Y-36349D01*
X52405Y-36349D01*
G37*
G36*
X52544Y-36489D02*
X52906Y-36127D01*
X52990Y-36210D01*
X52628Y-36572D01*
X52544Y-36489D01*
X52544Y-36489D01*
G37*
G36*
X51570Y-35514D02*
X51932Y-35152D01*
X52015Y-35236D01*
X51653Y-35598D01*
X51570Y-35514D01*
X51570Y-35514D01*
G37*
G36*
X51709Y-35654D02*
X52071Y-35292D01*
X52154Y-35375D01*
X51792Y-35737D01*
X51709Y-35654D01*
X51709Y-35654D01*
G37*
G36*
X51848Y-35793D02*
X52210Y-35431D01*
X52294Y-35514D01*
X51932Y-35876D01*
X51848Y-35793D01*
X51848Y-35793D01*
G37*
G36*
X53852Y-36767D02*
X53936Y-36684D01*
X54298Y-37046D01*
X54214Y-37129D01*
X53852Y-36767D01*
X53852Y-36767D01*
G37*
G36*
X53992Y-36628D02*
X54075Y-36545D01*
X54437Y-36907D01*
X54354Y-36990D01*
X53992Y-36628D01*
X53992Y-36628D01*
G37*
G36*
X54131Y-36489D02*
X54214Y-36405D01*
X54576Y-36767D01*
X54493Y-36851D01*
X54131Y-36489D01*
X54131Y-36489D01*
G37*
G36*
X54270Y-36349D02*
X54354Y-36266D01*
X54716Y-36628D01*
X54632Y-36711D01*
X54270Y-36349D01*
X54270Y-36349D01*
G37*
G36*
X54409Y-36210D02*
X54493Y-36127D01*
X54855Y-36489D01*
X54771Y-36572D01*
X54409Y-36210D01*
X54409Y-36210D01*
G37*
G36*
X54549Y-36071D02*
X54632Y-35987D01*
X54994Y-36349D01*
X54911Y-36433D01*
X54549Y-36071D01*
X54549Y-36071D01*
G37*
G36*
X54687Y-35932D02*
X54771Y-35849D01*
X55133Y-36211D01*
X55049Y-36294D01*
X54687Y-35932D01*
X54687Y-35932D01*
G37*
G36*
X54827Y-35793D02*
X54910Y-35709D01*
X55272Y-36071D01*
X55189Y-36155D01*
X54827Y-35793D01*
X54827Y-35793D01*
G37*
G36*
X55384Y-34763D02*
X55746Y-34401D01*
X55829Y-34485D01*
X55467Y-34847D01*
X55384Y-34763D01*
X55384Y-34763D01*
G37*
G36*
X55245Y-34624D02*
X55607Y-34262D01*
X55690Y-34345D01*
X55328Y-34707D01*
X55245Y-34624D01*
X55245Y-34624D01*
G37*
G36*
X55105Y-34485D02*
X55467Y-34123D01*
X55551Y-34206D01*
X55189Y-34568D01*
X55105Y-34485D01*
X55105Y-34485D01*
G37*
G36*
X54966Y-34345D02*
X55328Y-33983D01*
X55411Y-34067D01*
X55049Y-34429D01*
X54966Y-34345D01*
X54966Y-34345D01*
G37*
G36*
X54827Y-34206D02*
X55189Y-33844D01*
X55272Y-33928D01*
X54910Y-34290D01*
X54827Y-34206D01*
X54827Y-34206D01*
G37*
G36*
X54687Y-34067D02*
X55049Y-33705D01*
X55133Y-33788D01*
X54771Y-34150D01*
X54687Y-34067D01*
X54687Y-34067D01*
G37*
G36*
X54549Y-33928D02*
X54911Y-33566D01*
X54994Y-33650D01*
X54632Y-34012D01*
X54549Y-33928D01*
X54549Y-33928D01*
G37*
G36*
X54409Y-33789D02*
X54771Y-33427D01*
X54855Y-33510D01*
X54493Y-33872D01*
X54409Y-33789D01*
X54409Y-33789D01*
G37*
G36*
X53101Y-32953D02*
X53185Y-32870D01*
X53547Y-33232D01*
X53463Y-33315D01*
X53101Y-32953D01*
X53101Y-32953D01*
G37*
G36*
X52962Y-33092D02*
X53045Y-33009D01*
X53407Y-33371D01*
X53324Y-33454D01*
X52962Y-33092D01*
X52962Y-33092D01*
G37*
G36*
X52823Y-33232D02*
X52906Y-33148D01*
X53268Y-33510D01*
X53185Y-33594D01*
X52823Y-33232D01*
X52823Y-33232D01*
G37*
G36*
X52683Y-33371D02*
X52767Y-33288D01*
X53129Y-33650D01*
X53045Y-33733D01*
X52683Y-33371D01*
X52683Y-33371D01*
G37*
G36*
X52544Y-33510D02*
X52628Y-33427D01*
X52990Y-33789D01*
X52906Y-33872D01*
X52544Y-33510D01*
X52544Y-33510D01*
G37*
G36*
X52405Y-33650D02*
X52488Y-33566D01*
X52850Y-33928D01*
X52767Y-34012D01*
X52405Y-33650D01*
X52405Y-33650D01*
G37*
G36*
X52266Y-33788D02*
X52350Y-33705D01*
X52712Y-34067D01*
X52628Y-34150D01*
X52266Y-33788D01*
X52266Y-33788D01*
G37*
G36*
X52127Y-33928D02*
X52210Y-33844D01*
X52572Y-34206D01*
X52489Y-34290D01*
X52127Y-33928D01*
X52127Y-33928D01*
G37*
G36*
X52683Y-36628D02*
X53045Y-36266D01*
X53129Y-36349D01*
X52767Y-36711D01*
X52683Y-36628D01*
X52683Y-36628D01*
G37*
G36*
X52823Y-36767D02*
X53185Y-36405D01*
X53268Y-36489D01*
X52906Y-36851D01*
X52823Y-36767D01*
X52823Y-36767D01*
G37*
G36*
X52962Y-36907D02*
X53324Y-36545D01*
X53407Y-36628D01*
X53045Y-36990D01*
X52962Y-36907D01*
X52962Y-36907D01*
G37*
G36*
X53101Y-37046D02*
X53463Y-36684D01*
X53547Y-36767D01*
X53185Y-37129D01*
X53101Y-37046D01*
X53101Y-37046D01*
G37*
G36*
X54966Y-35654D02*
X55049Y-35570D01*
X55411Y-35932D01*
X55328Y-36016D01*
X54966Y-35654D01*
X54966Y-35654D01*
G37*
G36*
X55105Y-35514D02*
X55189Y-35431D01*
X55551Y-35793D01*
X55467Y-35876D01*
X55105Y-35514D01*
X55105Y-35514D01*
G37*
G36*
X55245Y-35375D02*
X55328Y-35292D01*
X55690Y-35654D01*
X55607Y-35737D01*
X55245Y-35375D01*
X55245Y-35375D01*
G37*
G36*
X55384Y-35236D02*
X55467Y-35152D01*
X55829Y-35514D01*
X55746Y-35598D01*
X55384Y-35236D01*
X55384Y-35236D01*
G37*
G36*
X54270Y-33650D02*
X54632Y-33288D01*
X54716Y-33371D01*
X54354Y-33733D01*
X54270Y-33650D01*
X54270Y-33650D01*
G37*
G36*
X54131Y-33510D02*
X54493Y-33148D01*
X54576Y-33232D01*
X54214Y-33594D01*
X54131Y-33510D01*
X54131Y-33510D01*
G37*
G36*
X53992Y-33371D02*
X54354Y-33009D01*
X54437Y-33092D01*
X54075Y-33454D01*
X53992Y-33371D01*
X53992Y-33371D01*
G37*
G36*
X53852Y-33232D02*
X54214Y-32870D01*
X54298Y-32953D01*
X53936Y-33315D01*
X53852Y-33232D01*
X53852Y-33232D01*
G37*
G36*
X51988Y-34067D02*
X52071Y-33983D01*
X52433Y-34345D01*
X52350Y-34429D01*
X51988Y-34067D01*
X51988Y-34067D01*
G37*
G36*
X51848Y-34206D02*
X51932Y-34123D01*
X52294Y-34485D01*
X52210Y-34568D01*
X51848Y-34206D01*
X51848Y-34206D01*
G37*
G36*
X51709Y-34345D02*
X51792Y-34262D01*
X52154Y-34624D01*
X52071Y-34707D01*
X51709Y-34345D01*
X51709Y-34345D01*
G37*
G36*
X51570Y-34485D02*
X51653Y-34401D01*
X52015Y-34763D01*
X51932Y-34847D01*
X51570Y-34485D01*
X51570Y-34485D01*
G37*
G54D24*
X69300Y-32000D03*
X67200Y-32000D03*
X69300Y-32500D03*
X69300Y-33000D03*
X69300Y-33500D03*
X67200Y-32500D03*
X67200Y-33000D03*
X67200Y-33500D03*
G54D14*
X65350Y-32975D03*
X65350Y-32225D03*
X66400Y-32225D03*
X66400Y-32975D03*
G54D13*
X69425Y-31450D03*
X68675Y-31450D03*
G54D14*
X70150Y-31725D03*
X70150Y-32475D03*
G54D25*
X70750Y-38550D03*
G54D26*
X71750Y-38550D03*
X72750Y-38550D03*
X73750Y-38550D03*
G54D25*
X70850Y-31450D03*
G54D26*
X71850Y-31450D03*
M02*
