G04 (created by PCBNEW (2013-07-07 BZR 4022)-stable) date 06/07/2014 12:08:29*
%MOIN*%
G04 Gerber Fmt 3.4, Leading zero omitted, Abs format*
%FSLAX34Y34*%
G01*
G70*
G90*
G04 APERTURE LIST*
%ADD10C,0.00393701*%
%ADD11C,0.173248*%
%ADD12O,0.100748X0.080748*%
%ADD13R,0.100748X0.080748*%
%ADD14O,0.173228X0.251968*%
%ADD15R,0.055748X0.025748*%
%ADD16R,0.025748X0.055748*%
%ADD17C,0.035748*%
%ADD18R,0.033448X0.074748*%
%ADD19C,0.032*%
%ADD20R,0.070748X0.050748*%
%ADD21C,0.075748*%
%ADD22R,0.023748X0.075748*%
%ADD23C,0.061048*%
%ADD24C,0.153548*%
%ADD25R,0.050748X0.070748*%
%ADD26R,0.070748X0.070748*%
%ADD27C,0.070748*%
%ADD28R,0.062948X0.062948*%
%ADD29R,0.075748X0.075748*%
%ADD30R,0.095748X0.159748*%
%ADD31R,0.095748X0.055748*%
%ADD32C,0.071748*%
%ADD33R,0.0433071X0.0551181*%
%ADD34R,0.0944882X0.0748031*%
%ADD35R,0.175748X0.175748*%
%ADD36R,0.133848X0.094448*%
%ADD37R,0.232248X0.167348*%
%ADD38R,0.105748X0.057748*%
%ADD39R,0.365748X0.435748*%
%ADD40R,0.080748X0.135748*%
%ADD41R,0.255748X0.255748*%
%ADD42R,0.090548X0.188948*%
%ADD43R,0.095748X0.075748*%
%ADD44R,0.055148X0.047248*%
%ADD45C,0.085748*%
%ADD46R,0.085748X0.085748*%
%ADD47R,0.075748X0.095748*%
%ADD48R,0.232248X0.094448*%
%ADD49R,0.035748X0.065748*%
%ADD50R,0.045748X0.075748*%
%ADD51R,0.055748X0.075748*%
%ADD52C,0.050748*%
%ADD53R,0.060748X0.035748*%
%ADD54R,0.035748X0.060748*%
%ADD55R,0.053748X0.065748*%
%ADD56R,0.039348X0.070848*%
%ADD57R,0.190748X0.115748*%
%ADD58C,0.037748*%
%ADD59O,0.065748X0.125748*%
%ADD60R,0.035748X0.115748*%
%ADD61R,0.0944882X0.125748*%
%ADD62C,0.055748*%
%ADD63O,0.094448X0.078748*%
%ADD64O,0.114148X0.086648*%
%ADD65R,0.082648X0.062948*%
%ADD66R,0.062948X0.078648*%
%ADD67R,0.062948X0.082648*%
G04 APERTURE END LIST*
G54D10*
G54D11*
X57295Y-43084D03*
X57295Y-72612D03*
X69500Y-72612D03*
G54D12*
X69500Y-59250D03*
X69500Y-60250D03*
G54D13*
X69500Y-45250D03*
G54D12*
X69500Y-46250D03*
X69500Y-47250D03*
X69500Y-48250D03*
X69500Y-49250D03*
X69500Y-50250D03*
X69500Y-51250D03*
X69500Y-52250D03*
X69500Y-53250D03*
X69500Y-54250D03*
X69500Y-55250D03*
X69500Y-56250D03*
X69500Y-57250D03*
X69500Y-58250D03*
G54D14*
X69500Y-42667D03*
G54D11*
X69500Y-78864D03*
X47845Y-42250D03*
X47846Y-78864D03*
G54D15*
X87750Y-54274D03*
X87750Y-58994D03*
X87750Y-58794D03*
X87750Y-58604D03*
X87750Y-58404D03*
X87750Y-58204D03*
X87750Y-58014D03*
X87750Y-57814D03*
X87750Y-57614D03*
X87750Y-57424D03*
X87750Y-57224D03*
X87750Y-57024D03*
X87750Y-56824D03*
X87750Y-56634D03*
X87750Y-56434D03*
X87750Y-56234D03*
X87750Y-56044D03*
X87750Y-55844D03*
X87750Y-55644D03*
X87750Y-55454D03*
X87750Y-55254D03*
X87750Y-55054D03*
X87750Y-54864D03*
X87750Y-54664D03*
X87750Y-54464D03*
G54D16*
X87060Y-59684D03*
X82340Y-59684D03*
X82540Y-59684D03*
X82730Y-59684D03*
X82930Y-59684D03*
X83130Y-59684D03*
X83320Y-59684D03*
X83520Y-59684D03*
X83720Y-59684D03*
X83910Y-59684D03*
X84110Y-59684D03*
X84310Y-59684D03*
X84510Y-59684D03*
X84700Y-59684D03*
X84900Y-59684D03*
X85100Y-59684D03*
X85290Y-59684D03*
X85490Y-59684D03*
X85690Y-59684D03*
X85880Y-59684D03*
X86080Y-59684D03*
X86280Y-59684D03*
X86470Y-59684D03*
X86670Y-59684D03*
X86870Y-59684D03*
X87060Y-53584D03*
X86860Y-53584D03*
X86670Y-53584D03*
X86470Y-53584D03*
X86270Y-53584D03*
X86080Y-53584D03*
X85880Y-53584D03*
X85680Y-53584D03*
X85490Y-53584D03*
X85290Y-53584D03*
X85090Y-53584D03*
X84890Y-53584D03*
X84700Y-53584D03*
X84500Y-53584D03*
X84300Y-53584D03*
X84110Y-53584D03*
X83910Y-53584D03*
X83710Y-53584D03*
X83520Y-53584D03*
X83320Y-53584D03*
X83120Y-53584D03*
X82930Y-53584D03*
X82730Y-53584D03*
X82530Y-53584D03*
X82340Y-53584D03*
G54D15*
X81650Y-54274D03*
X81650Y-54474D03*
X81650Y-54664D03*
X81650Y-54864D03*
X81650Y-55064D03*
X81650Y-55254D03*
X81650Y-55454D03*
X81650Y-55654D03*
X81650Y-55844D03*
X81650Y-56044D03*
X81650Y-56244D03*
X81650Y-56444D03*
X81650Y-56634D03*
X81650Y-56834D03*
X81650Y-57034D03*
X81650Y-57224D03*
X81650Y-57424D03*
X81650Y-57624D03*
X81650Y-57814D03*
X81650Y-58014D03*
X81650Y-58214D03*
X81650Y-58404D03*
X81650Y-58604D03*
X81650Y-58804D03*
X81650Y-58994D03*
G54D17*
X87700Y-53634D03*
G54D18*
X69125Y-29059D03*
X69375Y-29059D03*
X69625Y-29059D03*
X69875Y-29059D03*
X70125Y-29059D03*
X70375Y-29059D03*
X70625Y-29059D03*
X70875Y-29059D03*
X70875Y-26941D03*
X70625Y-26941D03*
X70375Y-26941D03*
X70125Y-26941D03*
X69875Y-26941D03*
X69625Y-26941D03*
X69375Y-26941D03*
X69125Y-26941D03*
G54D19*
X68800Y-27400D03*
G54D20*
X78000Y-25875D03*
X78000Y-25125D03*
G54D21*
X78000Y-24750D03*
X78000Y-26250D03*
G54D22*
X78000Y-25000D03*
X78000Y-26000D03*
G54D20*
X61000Y-25875D03*
X61000Y-25125D03*
G54D21*
X61000Y-24750D03*
X61000Y-26250D03*
G54D22*
X61000Y-25000D03*
X61000Y-26000D03*
G54D20*
X59750Y-25875D03*
X59750Y-25125D03*
G54D21*
X59750Y-24750D03*
X59750Y-26250D03*
G54D22*
X59750Y-25000D03*
X59750Y-26000D03*
G54D20*
X58500Y-25875D03*
X58500Y-25125D03*
G54D21*
X58500Y-24750D03*
X58500Y-26250D03*
G54D22*
X58500Y-25000D03*
X58500Y-26000D03*
G54D20*
X57250Y-25875D03*
X57250Y-25125D03*
G54D21*
X57250Y-24750D03*
X57250Y-26250D03*
G54D22*
X57250Y-25000D03*
X57250Y-26000D03*
G54D20*
X54750Y-25875D03*
X54750Y-25125D03*
G54D21*
X54750Y-24750D03*
X54750Y-26250D03*
G54D22*
X54750Y-26000D03*
X54750Y-25000D03*
G54D20*
X56000Y-25875D03*
X56000Y-25125D03*
G54D21*
X56000Y-24750D03*
X56000Y-26250D03*
G54D22*
X56000Y-26000D03*
X56000Y-25000D03*
G54D21*
X66250Y-46250D03*
X67750Y-46250D03*
G54D20*
X87000Y-28375D03*
X87000Y-27625D03*
G54D21*
X87000Y-27250D03*
X87000Y-28750D03*
G54D22*
X87000Y-28500D03*
X87000Y-27500D03*
G54D23*
X55621Y-21628D03*
X55621Y-23400D03*
X56998Y-23400D03*
X56998Y-21628D03*
X61762Y-21628D03*
X61762Y-23400D03*
X60581Y-23400D03*
X60581Y-21628D03*
X58219Y-21628D03*
X58219Y-23400D03*
X59400Y-23400D03*
X59400Y-21628D03*
X64124Y-21628D03*
X64124Y-23400D03*
X62943Y-23400D03*
X62943Y-21628D03*
X65305Y-21628D03*
X65305Y-23400D03*
X66486Y-23400D03*
X66486Y-21628D03*
X73592Y-21628D03*
X73592Y-23400D03*
X72411Y-23400D03*
X72411Y-21628D03*
X70049Y-21628D03*
X70049Y-23400D03*
X71230Y-23400D03*
X71230Y-21628D03*
X75955Y-21628D03*
X75955Y-23400D03*
X74774Y-23400D03*
X74774Y-21628D03*
X77136Y-21628D03*
X77136Y-23400D03*
X67707Y-21628D03*
X67707Y-23400D03*
X78317Y-23400D03*
X78317Y-21628D03*
X82036Y-23400D03*
X82036Y-21628D03*
X80658Y-23400D03*
X80658Y-21628D03*
X86801Y-23400D03*
X86801Y-21628D03*
X85620Y-23400D03*
X85620Y-21628D03*
X83258Y-23400D03*
X83258Y-21628D03*
X84439Y-23400D03*
X84439Y-21628D03*
X89163Y-23400D03*
X89163Y-21628D03*
X87982Y-23400D03*
X87982Y-21628D03*
X90344Y-23400D03*
X90344Y-21628D03*
X91525Y-23400D03*
X91525Y-21628D03*
X92746Y-23400D03*
X92746Y-21628D03*
X94124Y-23400D03*
X94124Y-21628D03*
G54D24*
X53632Y-19384D03*
X68927Y-19384D03*
X79439Y-19384D03*
G54D23*
X95502Y-23400D03*
X95502Y-21628D03*
G54D24*
X97490Y-19384D03*
G54D20*
X75500Y-25875D03*
X75500Y-25125D03*
G54D21*
X75500Y-24750D03*
X75500Y-26250D03*
G54D20*
X77500Y-28375D03*
X77500Y-27625D03*
G54D21*
X77500Y-27250D03*
X77500Y-28750D03*
G54D20*
X76750Y-25875D03*
X76750Y-25125D03*
G54D21*
X76750Y-24750D03*
X76750Y-26250D03*
G54D20*
X78750Y-28375D03*
X78750Y-27625D03*
G54D21*
X78750Y-27250D03*
X78750Y-28750D03*
G54D20*
X80750Y-28375D03*
X80750Y-27625D03*
G54D21*
X80750Y-27250D03*
X80750Y-28750D03*
G54D20*
X80000Y-25875D03*
X80000Y-25125D03*
G54D21*
X80000Y-24750D03*
X80000Y-26250D03*
G54D20*
X82000Y-28375D03*
X82000Y-27625D03*
G54D21*
X82000Y-27250D03*
X82000Y-28750D03*
G54D20*
X81250Y-25875D03*
X81250Y-25125D03*
G54D21*
X81250Y-24750D03*
X81250Y-26250D03*
G54D20*
X83250Y-28375D03*
X83250Y-27625D03*
G54D21*
X83250Y-27250D03*
X83250Y-28750D03*
G54D20*
X82500Y-25875D03*
X82500Y-25125D03*
G54D21*
X82500Y-24750D03*
X82500Y-26250D03*
G54D20*
X84500Y-28375D03*
X84500Y-27625D03*
G54D21*
X84500Y-27250D03*
X84500Y-28750D03*
G54D20*
X83750Y-25875D03*
X83750Y-25125D03*
G54D21*
X83750Y-24750D03*
X83750Y-26250D03*
G54D20*
X85750Y-28375D03*
X85750Y-27625D03*
G54D21*
X85750Y-27250D03*
X85750Y-28750D03*
G54D20*
X85000Y-25875D03*
X85000Y-25125D03*
G54D21*
X85000Y-24750D03*
X85000Y-26250D03*
G54D20*
X76250Y-28375D03*
X76250Y-27625D03*
G54D21*
X76250Y-27250D03*
X76250Y-28750D03*
G54D20*
X86250Y-25875D03*
X86250Y-25125D03*
G54D21*
X86250Y-24750D03*
X86250Y-26250D03*
G54D20*
X88250Y-28375D03*
X88250Y-27625D03*
G54D21*
X88250Y-27250D03*
X88250Y-28750D03*
G54D20*
X87500Y-25875D03*
X87500Y-25125D03*
G54D21*
X87500Y-24750D03*
X87500Y-26250D03*
G54D20*
X89500Y-28375D03*
X89500Y-27625D03*
G54D21*
X89500Y-27250D03*
X89500Y-28750D03*
G54D20*
X88750Y-25875D03*
X88750Y-25125D03*
G54D21*
X88750Y-24750D03*
X88750Y-26250D03*
G54D20*
X90500Y-28375D03*
X90500Y-27625D03*
G54D21*
X90500Y-27250D03*
X90500Y-28750D03*
G54D20*
X90000Y-25875D03*
X90000Y-25125D03*
G54D21*
X90000Y-24750D03*
X90000Y-26250D03*
G54D20*
X92000Y-28375D03*
X92000Y-27625D03*
G54D21*
X92000Y-27250D03*
X92000Y-28750D03*
G54D20*
X91250Y-25875D03*
X91250Y-25125D03*
G54D21*
X91250Y-24750D03*
X91250Y-26250D03*
G54D20*
X93500Y-25875D03*
X93500Y-25125D03*
G54D21*
X93500Y-24750D03*
X93500Y-26250D03*
G54D20*
X92500Y-25875D03*
X92500Y-25125D03*
G54D21*
X92500Y-24750D03*
X92500Y-26250D03*
G54D20*
X95750Y-25375D03*
X95750Y-24625D03*
G54D21*
X95750Y-24250D03*
X95750Y-25750D03*
G54D20*
X94500Y-25875D03*
X94500Y-25125D03*
G54D21*
X94500Y-24750D03*
X94500Y-26250D03*
G54D20*
X96750Y-24375D03*
X96750Y-23625D03*
G54D21*
X96750Y-23250D03*
X96750Y-24750D03*
G54D25*
X97625Y-21500D03*
X96875Y-21500D03*
G54D21*
X96500Y-21500D03*
X98000Y-21500D03*
G54D20*
X65500Y-28375D03*
X65500Y-27625D03*
G54D21*
X65500Y-27250D03*
X65500Y-28750D03*
G54D20*
X56750Y-28375D03*
X56750Y-27625D03*
G54D21*
X56750Y-27250D03*
X56750Y-28750D03*
G54D20*
X58000Y-28375D03*
X58000Y-27625D03*
G54D21*
X58000Y-27250D03*
X58000Y-28750D03*
G54D20*
X59250Y-28375D03*
X59250Y-27625D03*
G54D21*
X59250Y-27250D03*
X59250Y-28750D03*
G54D20*
X60500Y-28375D03*
X60500Y-27625D03*
G54D21*
X60500Y-27250D03*
X60500Y-28750D03*
G54D20*
X61750Y-28375D03*
X61750Y-27625D03*
G54D21*
X61750Y-27250D03*
X61750Y-28750D03*
G54D20*
X63000Y-28375D03*
X63000Y-27625D03*
G54D21*
X63000Y-27250D03*
X63000Y-28750D03*
G54D20*
X62250Y-25875D03*
X62250Y-25125D03*
G54D21*
X62250Y-24750D03*
X62250Y-26250D03*
G54D20*
X64250Y-28375D03*
X64250Y-27625D03*
G54D21*
X64250Y-27250D03*
X64250Y-28750D03*
G54D20*
X63500Y-25875D03*
X63500Y-25125D03*
G54D21*
X63500Y-24750D03*
X63500Y-26250D03*
G54D20*
X55500Y-28375D03*
X55500Y-27625D03*
G54D21*
X55500Y-27250D03*
X55500Y-28750D03*
G54D20*
X64750Y-25875D03*
X64750Y-25125D03*
G54D21*
X64750Y-24750D03*
X64750Y-26250D03*
G54D20*
X66750Y-28375D03*
X66750Y-27625D03*
G54D21*
X66750Y-27250D03*
X66750Y-28750D03*
G54D20*
X66000Y-25875D03*
X66000Y-25125D03*
G54D21*
X66000Y-24750D03*
X66000Y-26250D03*
G54D20*
X68000Y-28375D03*
X68000Y-27625D03*
G54D21*
X68000Y-27250D03*
X68000Y-28750D03*
G54D20*
X67250Y-25875D03*
X67250Y-25125D03*
G54D21*
X67250Y-24750D03*
X67250Y-26250D03*
G54D20*
X72500Y-28375D03*
X72500Y-27625D03*
G54D21*
X72500Y-27250D03*
X72500Y-28750D03*
G54D20*
X72500Y-26075D03*
X72500Y-25325D03*
G54D21*
X72500Y-24950D03*
X72500Y-26450D03*
G54D26*
X74250Y-38500D03*
G54D27*
X74250Y-37500D03*
G54D26*
X95250Y-38500D03*
G54D27*
X95250Y-37500D03*
G54D26*
X70500Y-31250D03*
G54D27*
X69500Y-31250D03*
G54D20*
X90350Y-63934D03*
X90350Y-63184D03*
G54D25*
X84975Y-51734D03*
X85725Y-51734D03*
X84375Y-51734D03*
X83625Y-51734D03*
G54D20*
X84425Y-64984D03*
X84425Y-64234D03*
G54D25*
X77875Y-53534D03*
X78625Y-53534D03*
X77875Y-54184D03*
X78625Y-54184D03*
G54D20*
X79200Y-52109D03*
X79200Y-52859D03*
X79900Y-52109D03*
X79900Y-52859D03*
X87650Y-49759D03*
X87650Y-49009D03*
G54D25*
X78475Y-50084D03*
X77725Y-50084D03*
X83725Y-48184D03*
X84475Y-48184D03*
G54D20*
X81100Y-60459D03*
X81100Y-59709D03*
G54D25*
X88525Y-59934D03*
X87775Y-59934D03*
X90175Y-54284D03*
X89425Y-54284D03*
G54D20*
X80350Y-60259D03*
X80350Y-61009D03*
X93100Y-53059D03*
X93100Y-52309D03*
G54D25*
X88400Y-60959D03*
X89150Y-60959D03*
X86775Y-48384D03*
X87525Y-48384D03*
X87525Y-47534D03*
X86775Y-47534D03*
G54D28*
X85137Y-48184D03*
X85963Y-48184D03*
G54D25*
X78425Y-50834D03*
X77675Y-50834D03*
G54D26*
X78200Y-69584D03*
G54D27*
X78200Y-70584D03*
G54D26*
X79400Y-69584D03*
G54D27*
X79400Y-70584D03*
G54D26*
X80600Y-69584D03*
G54D27*
X80600Y-70584D03*
G54D26*
X81800Y-69584D03*
G54D27*
X81800Y-70584D03*
G54D26*
X90750Y-52284D03*
G54D27*
X89750Y-52284D03*
X88750Y-52284D03*
G54D29*
X74250Y-49484D03*
G54D21*
X75250Y-49484D03*
X74250Y-50484D03*
X75250Y-50484D03*
X74250Y-51484D03*
X75250Y-51484D03*
X74250Y-52484D03*
X75250Y-52484D03*
X74250Y-53484D03*
X75250Y-53484D03*
X74250Y-54484D03*
X75250Y-54484D03*
X74250Y-55484D03*
X75250Y-55484D03*
X74250Y-56484D03*
X75250Y-56484D03*
X74250Y-57484D03*
X75250Y-57484D03*
X74250Y-58484D03*
X75250Y-58484D03*
X74250Y-59484D03*
X75250Y-59484D03*
X74250Y-60484D03*
X75250Y-60484D03*
X74250Y-61484D03*
X75250Y-61484D03*
X74250Y-62484D03*
X75250Y-62484D03*
X74250Y-63484D03*
X75250Y-63484D03*
X74250Y-64484D03*
X75250Y-64484D03*
X74250Y-65484D03*
X75250Y-65484D03*
X74250Y-66484D03*
X75250Y-66484D03*
X74250Y-67484D03*
X75250Y-67484D03*
X74250Y-68484D03*
X75250Y-68484D03*
X74250Y-69484D03*
X75250Y-69484D03*
X74250Y-70484D03*
X75250Y-70484D03*
X74250Y-71484D03*
X75250Y-71484D03*
X74250Y-72484D03*
X75250Y-72484D03*
X74250Y-73484D03*
X75250Y-73484D03*
G54D29*
X94250Y-49484D03*
G54D21*
X95250Y-49484D03*
X94250Y-50484D03*
X95250Y-50484D03*
X94250Y-51484D03*
X95250Y-51484D03*
X94250Y-52484D03*
X95250Y-52484D03*
X94250Y-53484D03*
X95250Y-53484D03*
X94250Y-54484D03*
X95250Y-54484D03*
X94250Y-55484D03*
X95250Y-55484D03*
X94250Y-56484D03*
X95250Y-56484D03*
X94250Y-57484D03*
X95250Y-57484D03*
X94250Y-58484D03*
X95250Y-58484D03*
X94250Y-59484D03*
X95250Y-59484D03*
X94250Y-60484D03*
X95250Y-60484D03*
X94250Y-61484D03*
X95250Y-61484D03*
X94250Y-62484D03*
X95250Y-62484D03*
X94250Y-63484D03*
X95250Y-63484D03*
X94250Y-64484D03*
X95250Y-64484D03*
X94250Y-65484D03*
X95250Y-65484D03*
X94250Y-66484D03*
X95250Y-66484D03*
X94250Y-67484D03*
X95250Y-67484D03*
X94250Y-68484D03*
X95250Y-68484D03*
X94250Y-69484D03*
X95250Y-69484D03*
X94250Y-70484D03*
X95250Y-70484D03*
X94250Y-71484D03*
X95250Y-71484D03*
X94250Y-72484D03*
X95250Y-72484D03*
X94250Y-73484D03*
X95250Y-73484D03*
G54D29*
X84750Y-46884D03*
G54D21*
X83750Y-46884D03*
G54D29*
X74250Y-46884D03*
G54D21*
X75250Y-46884D03*
X76250Y-46884D03*
X77250Y-46884D03*
X78250Y-46884D03*
X79250Y-46884D03*
G54D25*
X85100Y-62759D03*
X85850Y-62759D03*
G54D20*
X85200Y-64209D03*
X85200Y-63459D03*
G54D25*
X85175Y-64934D03*
X85925Y-64934D03*
G54D20*
X92125Y-55759D03*
X92125Y-56509D03*
X76450Y-54525D03*
X76450Y-55275D03*
X78200Y-72259D03*
X78200Y-71509D03*
X79400Y-72259D03*
X79400Y-71509D03*
X80600Y-72259D03*
X80600Y-71509D03*
X81800Y-72259D03*
X81800Y-71509D03*
G54D25*
X79925Y-53534D03*
X79175Y-53534D03*
G54D20*
X85800Y-47359D03*
X85800Y-46609D03*
G54D25*
X81125Y-75250D03*
X81875Y-75250D03*
X93125Y-49184D03*
X92375Y-49184D03*
G54D30*
X91300Y-47584D03*
G54D31*
X88700Y-47584D03*
X88700Y-48484D03*
X88700Y-46684D03*
G54D32*
X82700Y-50234D03*
X84700Y-50234D03*
G54D20*
X77500Y-77125D03*
X77500Y-76375D03*
X77500Y-77875D03*
X77500Y-78625D03*
X91700Y-52759D03*
X91700Y-52009D03*
X88200Y-51359D03*
X88200Y-50609D03*
G54D33*
X86949Y-67261D03*
X86575Y-67261D03*
X86200Y-67261D03*
X86200Y-68206D03*
X86575Y-68206D03*
X86949Y-68206D03*
G54D34*
X86920Y-63148D03*
X89479Y-63148D03*
X89518Y-64919D03*
X86920Y-64919D03*
X79920Y-63148D03*
X82479Y-63148D03*
X82518Y-64919D03*
X79920Y-64919D03*
G54D35*
X95710Y-46704D03*
G54D28*
X80590Y-72871D03*
X80590Y-73697D03*
X78190Y-72871D03*
X78190Y-73697D03*
X79390Y-72871D03*
X79390Y-73697D03*
X81810Y-72871D03*
X81810Y-73697D03*
X80413Y-75250D03*
X79587Y-75250D03*
X93377Y-48324D03*
X94203Y-48324D03*
G54D20*
X88000Y-67875D03*
X88000Y-68625D03*
G54D25*
X86775Y-46624D03*
X87525Y-46624D03*
X92515Y-51324D03*
X93265Y-51324D03*
X92375Y-50504D03*
X93125Y-50504D03*
X69625Y-26000D03*
X68875Y-26000D03*
X71125Y-26000D03*
X70375Y-26000D03*
X69625Y-25250D03*
X68875Y-25250D03*
X71125Y-25250D03*
X70375Y-25250D03*
X68875Y-30250D03*
X69625Y-30250D03*
X70375Y-30250D03*
X71125Y-30250D03*
G54D36*
X50056Y-36491D03*
X50056Y-34129D03*
G54D10*
G36*
X49360Y-40702D02*
X48413Y-39755D01*
X49081Y-39087D01*
X50028Y-40034D01*
X49360Y-40702D01*
X49360Y-40702D01*
G37*
G36*
X51030Y-39032D02*
X50084Y-38085D01*
X50751Y-37417D01*
X51698Y-38364D01*
X51030Y-39032D01*
X51030Y-39032D01*
G37*
G54D37*
X46556Y-29851D03*
X46556Y-33769D03*
G54D10*
G36*
X47211Y-35262D02*
X48854Y-36904D01*
X47670Y-38087D01*
X46028Y-36445D01*
X47211Y-35262D01*
X47211Y-35262D01*
G37*
G36*
X44441Y-38032D02*
X46083Y-39674D01*
X44900Y-40858D01*
X43258Y-39215D01*
X44441Y-38032D01*
X44441Y-38032D01*
G37*
G54D25*
X50681Y-40310D03*
X51431Y-40310D03*
G54D28*
X52143Y-40310D03*
X52969Y-40310D03*
G54D38*
X50056Y-30470D03*
G54D39*
X53506Y-31810D03*
G54D38*
X50056Y-31810D03*
X50056Y-31140D03*
X50056Y-32480D03*
X50056Y-33150D03*
G54D40*
X52406Y-38560D03*
G54D41*
X53306Y-36060D03*
G54D40*
X54206Y-38560D03*
G54D42*
X51750Y-25732D03*
X51750Y-22307D03*
G54D25*
X49681Y-29560D03*
X50431Y-29560D03*
G54D26*
X51556Y-34560D03*
G54D43*
X49556Y-28210D03*
X49556Y-26910D03*
G54D44*
X46873Y-28060D03*
X47739Y-27685D03*
X47739Y-28435D03*
G54D45*
X55056Y-39310D03*
G54D46*
X55056Y-35310D03*
G54D10*
G36*
X46744Y-27646D02*
X46445Y-27005D01*
X47086Y-26706D01*
X47385Y-27347D01*
X46744Y-27646D01*
X46744Y-27646D01*
G37*
G54D27*
X44196Y-28443D03*
G54D26*
X45306Y-26310D03*
G54D27*
X48306Y-26310D03*
G54D26*
X53500Y-28000D03*
G54D27*
X52500Y-28000D03*
G54D43*
X68750Y-37900D03*
X68750Y-36600D03*
X67750Y-33850D03*
X67750Y-35150D03*
G54D47*
X63350Y-42000D03*
X64650Y-42000D03*
G54D43*
X62000Y-42900D03*
X62000Y-41600D03*
X69000Y-33850D03*
X69000Y-35150D03*
X62000Y-38150D03*
X62000Y-36850D03*
G54D47*
X68150Y-41250D03*
X66850Y-41250D03*
G54D43*
X62000Y-40650D03*
X62000Y-39350D03*
G54D47*
X65350Y-35000D03*
X66650Y-35000D03*
X64150Y-35000D03*
X62850Y-35000D03*
X65350Y-33500D03*
X66650Y-33500D03*
X62850Y-32000D03*
X64150Y-32000D03*
X62850Y-30500D03*
X64150Y-30500D03*
X66650Y-30500D03*
X65350Y-30500D03*
X66650Y-32000D03*
X65350Y-32000D03*
G54D25*
X67875Y-42250D03*
X67125Y-42250D03*
X65625Y-42250D03*
X66375Y-42250D03*
G54D48*
X64150Y-44250D03*
X67850Y-44250D03*
G54D47*
X62400Y-44000D03*
X61100Y-44000D03*
X60900Y-42750D03*
X59600Y-42750D03*
G54D49*
X67750Y-36350D03*
X67250Y-36350D03*
X66750Y-36350D03*
X66250Y-36350D03*
X65750Y-36350D03*
X65250Y-36350D03*
X64750Y-36350D03*
X64250Y-36350D03*
X63750Y-36350D03*
X63250Y-36350D03*
X63250Y-40150D03*
X63750Y-40150D03*
X64250Y-40150D03*
X64750Y-40150D03*
X65250Y-40150D03*
X65750Y-40150D03*
X66250Y-40150D03*
X66750Y-40150D03*
X67250Y-40150D03*
X67750Y-40150D03*
G54D29*
X59750Y-41500D03*
G54D21*
X60750Y-41500D03*
G54D26*
X71000Y-41750D03*
G54D27*
X71000Y-40750D03*
G54D26*
X71000Y-39500D03*
G54D27*
X71000Y-38500D03*
G54D20*
X86000Y-76375D03*
X86000Y-77125D03*
G54D25*
X88625Y-72500D03*
X89375Y-72500D03*
X89375Y-73250D03*
X88625Y-73250D03*
G54D20*
X90250Y-72625D03*
X90250Y-73375D03*
X86000Y-77875D03*
X86000Y-78625D03*
G54D25*
X90125Y-75250D03*
X89375Y-75250D03*
G54D28*
X88663Y-75250D03*
X87837Y-75250D03*
G54D50*
X98917Y-62450D03*
X99350Y-62450D03*
X99783Y-62450D03*
X100216Y-62450D03*
X100650Y-62450D03*
X101083Y-62450D03*
X101516Y-62450D03*
X101949Y-62450D03*
X102382Y-62450D03*
G54D51*
X102912Y-62213D03*
G54D47*
X102775Y-58366D03*
X96712Y-58366D03*
G54D29*
X97035Y-62295D03*
G54D52*
X101673Y-58158D03*
X98524Y-58158D03*
G54D20*
X83000Y-33125D03*
X83000Y-33875D03*
G54D25*
X83625Y-32500D03*
X84375Y-32500D03*
G54D20*
X73500Y-32375D03*
X73500Y-33125D03*
X74500Y-34875D03*
X74500Y-35625D03*
G54D25*
X95625Y-34000D03*
X96375Y-34000D03*
X92375Y-34250D03*
X91625Y-34250D03*
X96375Y-33250D03*
X95625Y-33250D03*
X93875Y-34250D03*
X93125Y-34250D03*
G54D20*
X73500Y-30875D03*
X73500Y-31625D03*
X74500Y-33375D03*
X74500Y-34125D03*
G54D25*
X82125Y-32500D03*
X82875Y-32500D03*
G54D20*
X82250Y-33875D03*
X82250Y-33125D03*
G54D53*
X92450Y-33500D03*
X94550Y-33500D03*
X92450Y-33000D03*
X92450Y-32500D03*
X92450Y-32000D03*
X94550Y-33000D03*
X94550Y-32500D03*
X94550Y-32000D03*
X91450Y-31000D03*
X93550Y-31000D03*
X91450Y-30500D03*
X91450Y-30000D03*
X91450Y-29500D03*
X93550Y-30500D03*
X93550Y-30000D03*
X93550Y-29500D03*
X77000Y-30050D03*
X74900Y-30050D03*
X77000Y-30550D03*
X77000Y-31050D03*
X77000Y-31550D03*
X74900Y-30550D03*
X74900Y-31050D03*
X74900Y-31550D03*
X78150Y-31550D03*
X80250Y-31550D03*
X78150Y-31050D03*
X78150Y-30550D03*
X78150Y-30050D03*
X80250Y-31050D03*
X80250Y-30550D03*
X80250Y-30050D03*
X78750Y-33950D03*
X80850Y-33950D03*
X78750Y-33450D03*
X78750Y-32950D03*
X78750Y-32450D03*
X80850Y-33450D03*
X80850Y-32950D03*
X80850Y-32450D03*
X77850Y-32450D03*
X75750Y-32450D03*
X77850Y-32950D03*
X77850Y-33450D03*
X77850Y-33950D03*
X75750Y-32950D03*
X75750Y-33450D03*
X75750Y-33950D03*
G54D54*
X97000Y-25450D03*
X97000Y-27550D03*
X97500Y-25450D03*
X98000Y-25450D03*
X98500Y-25450D03*
X97500Y-27550D03*
X98000Y-27550D03*
X98500Y-27550D03*
G54D53*
X97700Y-23750D03*
X99800Y-23750D03*
X97700Y-23250D03*
X97700Y-22750D03*
X97700Y-22250D03*
X99800Y-23250D03*
X99800Y-22750D03*
X99800Y-22250D03*
X99450Y-27250D03*
X101550Y-27250D03*
X99450Y-26750D03*
X99450Y-26250D03*
X99450Y-25750D03*
X101550Y-26750D03*
X101550Y-26250D03*
X101550Y-25750D03*
G54D54*
X97750Y-28450D03*
X97750Y-30550D03*
X98250Y-28450D03*
X98750Y-28450D03*
X99250Y-28450D03*
X98250Y-30550D03*
X98750Y-30550D03*
X99250Y-30550D03*
G54D53*
X94450Y-31000D03*
X96550Y-31000D03*
X94450Y-30500D03*
X94450Y-30000D03*
X94450Y-29500D03*
X96550Y-30500D03*
X96550Y-30000D03*
X96550Y-29500D03*
X93200Y-28750D03*
X95300Y-28750D03*
X93200Y-28250D03*
X93200Y-27750D03*
X93200Y-27250D03*
X95300Y-28250D03*
X95300Y-27750D03*
X95300Y-27250D03*
G54D25*
X101125Y-21000D03*
X100375Y-21000D03*
X101875Y-28250D03*
X102625Y-28250D03*
X101125Y-28250D03*
X100375Y-28250D03*
X100875Y-30000D03*
X100125Y-30000D03*
X98125Y-31500D03*
X97375Y-31500D03*
X96375Y-31750D03*
X95625Y-31750D03*
G54D55*
X82640Y-30610D03*
X81350Y-30610D03*
G54D20*
X83600Y-29625D03*
X83600Y-30375D03*
G54D26*
X81500Y-29625D03*
G54D27*
X82500Y-29600D03*
G54D26*
X79800Y-27500D03*
G54D27*
X79800Y-28500D03*
G54D25*
X97375Y-32250D03*
X98125Y-32250D03*
X95625Y-32500D03*
X96375Y-32500D03*
X100375Y-29000D03*
X101125Y-29000D03*
X100125Y-30750D03*
X100875Y-30750D03*
X102625Y-29000D03*
X101875Y-29000D03*
X100375Y-21750D03*
X101125Y-21750D03*
G54D28*
X83613Y-31400D03*
X82787Y-31400D03*
G54D25*
X100625Y-46600D03*
X101375Y-46600D03*
X101375Y-45850D03*
X100625Y-45850D03*
G54D20*
X99500Y-44375D03*
X99500Y-45125D03*
G54D56*
X100250Y-42950D03*
X100250Y-45050D03*
X100750Y-42950D03*
X101250Y-42950D03*
X101750Y-42950D03*
X100750Y-45050D03*
X101250Y-45050D03*
X101750Y-45050D03*
G54D20*
X100000Y-41125D03*
X100000Y-41875D03*
G54D26*
X101000Y-41500D03*
G54D27*
X102000Y-41500D03*
G54D57*
X59000Y-38755D03*
G54D50*
X59750Y-37780D03*
X59250Y-37780D03*
X58750Y-37780D03*
X58250Y-37780D03*
X59750Y-39730D03*
X59250Y-39730D03*
X58750Y-39730D03*
X58250Y-39730D03*
G54D57*
X60850Y-33605D03*
G54D50*
X61600Y-32630D03*
X61100Y-32630D03*
X60600Y-32630D03*
X60100Y-32630D03*
X61600Y-34580D03*
X61100Y-34580D03*
X60600Y-34580D03*
X60100Y-34580D03*
G54D57*
X57150Y-33605D03*
G54D50*
X57900Y-32630D03*
X57400Y-32630D03*
X56900Y-32630D03*
X56400Y-32630D03*
X57900Y-34580D03*
X57400Y-34580D03*
X56900Y-34580D03*
X56400Y-34580D03*
G54D25*
X60875Y-36555D03*
X60125Y-36555D03*
G54D20*
X59400Y-35880D03*
X59400Y-36630D03*
G54D25*
X59400Y-31505D03*
X60150Y-31505D03*
X57850Y-31530D03*
X58600Y-31530D03*
G54D20*
X58500Y-30055D03*
X58500Y-30805D03*
X59500Y-33980D03*
X59500Y-33230D03*
X57150Y-30030D03*
X57150Y-30780D03*
G54D25*
X56475Y-31505D03*
X57225Y-31505D03*
G54D20*
X58600Y-35880D03*
X58600Y-36630D03*
G54D25*
X57125Y-36505D03*
X57875Y-36505D03*
G54D20*
X58500Y-33980D03*
X58500Y-33230D03*
X60150Y-30030D03*
X60150Y-30780D03*
X60400Y-39130D03*
X60400Y-38380D03*
X61500Y-30030D03*
X61500Y-30780D03*
G54D25*
X60825Y-31505D03*
X61575Y-31505D03*
G54D28*
X60913Y-35805D03*
X60087Y-35805D03*
X59475Y-30768D03*
X59475Y-29942D03*
X57825Y-30818D03*
X57825Y-29992D03*
X56500Y-30818D03*
X56500Y-29992D03*
X60850Y-30818D03*
X60850Y-29992D03*
X57087Y-35805D03*
X57913Y-35805D03*
G54D26*
X57000Y-38500D03*
G54D27*
X57000Y-37500D03*
G54D47*
X64150Y-33500D03*
X62850Y-33500D03*
G54D26*
X57000Y-40500D03*
G54D27*
X57000Y-39500D03*
G54D29*
X68750Y-39000D03*
G54D21*
X68750Y-40000D03*
G54D20*
X74500Y-25875D03*
X74500Y-25125D03*
G54D21*
X74500Y-24750D03*
X74500Y-26250D03*
G54D20*
X75000Y-28375D03*
X75000Y-27625D03*
G54D21*
X75000Y-27250D03*
X75000Y-28750D03*
G54D20*
X73500Y-25875D03*
X73500Y-25125D03*
G54D21*
X73500Y-24750D03*
X73500Y-26250D03*
G54D20*
X73750Y-28375D03*
X73750Y-27625D03*
G54D21*
X73750Y-27250D03*
X73750Y-28750D03*
G54D58*
X79446Y-76870D03*
X79053Y-77185D03*
X79446Y-77500D03*
X79053Y-77814D03*
X79446Y-78129D03*
G54D59*
X78561Y-77500D03*
X79938Y-76751D03*
X79938Y-78444D03*
G54D60*
X82120Y-76350D03*
X82435Y-76350D03*
X82750Y-76350D03*
X83064Y-76350D03*
X83379Y-76350D03*
G54D61*
X80978Y-78631D03*
X84521Y-78631D03*
X80978Y-76465D03*
X84521Y-76465D03*
G54D62*
X81900Y-77450D03*
X83600Y-77450D03*
G54D60*
X90370Y-76350D03*
X90685Y-76350D03*
X91000Y-76350D03*
X91314Y-76350D03*
X91629Y-76350D03*
G54D61*
X89228Y-78631D03*
X92771Y-78631D03*
X89228Y-76465D03*
X92771Y-76465D03*
G54D62*
X90150Y-77450D03*
X91850Y-77450D03*
G54D58*
X87696Y-76870D03*
X87303Y-77185D03*
X87696Y-77500D03*
X87303Y-77814D03*
X87696Y-78129D03*
G54D59*
X86811Y-77500D03*
X88188Y-76751D03*
X88188Y-78444D03*
G54D26*
X71500Y-20750D03*
G54D27*
X71500Y-19750D03*
G54D26*
X70000Y-20750D03*
G54D27*
X70000Y-19750D03*
G54D63*
X72222Y-77072D03*
X76278Y-77072D03*
G54D64*
X76278Y-75970D03*
X72222Y-75970D03*
X76278Y-78530D03*
X72222Y-78530D03*
G54D65*
X102309Y-65957D03*
X102309Y-65366D03*
X102309Y-64776D03*
X102309Y-66547D03*
X102309Y-67138D03*
X102309Y-67728D03*
X102309Y-68319D03*
X102309Y-68909D03*
X102309Y-69500D03*
X102309Y-70091D03*
X102309Y-70681D03*
X102309Y-71272D03*
X102309Y-71862D03*
G54D66*
X101817Y-64108D03*
G54D67*
X101225Y-64126D03*
X100635Y-64126D03*
X100045Y-64126D03*
X99455Y-64126D03*
X98865Y-64126D03*
X98275Y-64126D03*
G54D66*
X97685Y-64107D03*
G54D65*
X97191Y-64776D03*
X97191Y-65366D03*
X97191Y-65958D03*
X97191Y-66547D03*
X97191Y-67138D03*
X97191Y-67728D03*
X97191Y-68319D03*
X97191Y-68909D03*
X97191Y-69500D03*
X97191Y-70091D03*
X97191Y-70681D03*
X97191Y-71272D03*
X97191Y-71862D03*
M02*
