G04 (created by PCBNEW (2013-07-07 BZR 4022)-stable) date 03/11/2014 14:59:00*
%MOIN*%
G04 Gerber Fmt 3.4, Leading zero omitted, Abs format*
%FSLAX34Y34*%
G01*
G70*
G90*
G04 APERTURE LIST*
%ADD10C,0.00393701*%
%ADD11C,0.015*%
G04 APERTURE END LIST*
G54D10*
G54D11*
X98878Y-77122D02*
G75*
G02X101242Y-74758I2364J0D01*
G74*
G01*
X102621Y-23940D02*
G75*
G03X102621Y-23940I-985J0D01*
G74*
G01*
X45097Y-23940D02*
G75*
G03X45097Y-23940I-985J0D01*
G74*
G01*
X96908Y-16213D02*
G75*
G02X98090Y-17395I0J-1181D01*
G74*
G01*
X97499Y-77914D02*
G75*
G03X97499Y-77914I-1181J0D01*
G74*
G01*
X47658Y-17395D02*
G75*
G02X48840Y-16213I1182J0D01*
G74*
G01*
X97696Y-79882D02*
X48053Y-79882D01*
X51416Y-17959D02*
G75*
G03X51416Y-17959I-985J0D01*
G74*
G01*
X102621Y-49309D02*
G75*
G03X102621Y-49309I-985J0D01*
G74*
G01*
X45097Y-49334D02*
G75*
G03X45097Y-49334I-985J0D01*
G74*
G01*
X45097Y-72520D02*
G75*
G03X45097Y-72520I-985J0D01*
G74*
G01*
X47658Y-17395D02*
X47658Y-17789D01*
X45294Y-20153D02*
X43718Y-20153D01*
X47658Y-17789D02*
G75*
G02X45294Y-20153I-2363J0D01*
G74*
G01*
X48840Y-16213D02*
X96908Y-16213D01*
X98090Y-17395D02*
X98090Y-17789D01*
X100454Y-20153D02*
X102030Y-20153D01*
X100454Y-20153D02*
G75*
G02X98090Y-17789I0J2364D01*
G74*
G01*
X96908Y-16213D02*
G75*
G02X98090Y-17395I0J-1181D01*
G74*
G01*
X47658Y-17395D02*
G75*
G02X48840Y-16213I1182J0D01*
G74*
G01*
X98878Y-78700D02*
X98878Y-77122D01*
X101242Y-74758D02*
X102030Y-74758D01*
X44507Y-74785D02*
X43718Y-74785D01*
X44507Y-74785D02*
G75*
G02X46871Y-77149I0J-2364D01*
G74*
G01*
X46871Y-77149D02*
X46871Y-78700D01*
X42536Y-21335D02*
X42536Y-73603D01*
X103212Y-21335D02*
X103212Y-73576D01*
X102032Y-20153D02*
G75*
G02X103212Y-21335I-2J-1181D01*
G74*
G01*
X103212Y-73576D02*
G75*
G02X102030Y-74758I-1182J0D01*
G74*
G01*
X98878Y-78700D02*
G75*
G02X97696Y-79882I-1182J0D01*
G74*
G01*
X48053Y-79882D02*
G75*
G02X46871Y-78700I0J1182D01*
G74*
G01*
X43716Y-74785D02*
G75*
G02X42536Y-73603I2J1181D01*
G74*
G01*
X42536Y-21335D02*
G75*
G02X43718Y-20153I1182J0D01*
G74*
G01*
M02*
