M48
;DRILL file {Pcbnew (2013-07-07 BZR 4022)-stable} date 06/07/2014 12:08:31
;FORMAT={-:-/ absolute / inch / decimal}
FMAT,2
INCH,TZ
T1C0.012
T2C0.013
T3C0.027
T4C0.030
T5C0.032
T6C0.039
T7C0.039
T8C0.040
T9C0.043
T10C0.047
T11C0.098
T12C0.114
T13C0.138
%
G90
G05
M72
T1
X7.9053Y-7.7185
X7.9053Y-7.7815
X7.9447Y-7.687
X7.9447Y-7.75
X7.9447Y-7.813
X8.7303Y-7.7185
X8.7303Y-7.7815
X8.7697Y-7.687
X8.7697Y-7.75
X8.7697Y-7.813
T2
X4.475Y-3.825
X4.5Y-3.85
X4.525Y-3.875
X4.55Y-3.9
X4.575Y-3.925
X4.6Y-3.95
X4.9056Y-3.181
X4.9056Y-3.356
X5.0306Y-2.881
X5.1556Y-3.906
X5.2056Y-2.981
X5.2056Y-3.131
X5.2056Y-3.281
X5.25Y-2.15
X5.2806Y-3.056
X5.2806Y-3.206
X5.2806Y-3.356
X5.3556Y-2.981
X5.3556Y-3.131
X5.3556Y-3.281
X5.4306Y-3.056
X5.4306Y-3.206
X5.4306Y-3.356
X5.5056Y-3.131
X5.5056Y-3.281
X5.5056Y-3.431
X5.65Y-2.9556
X5.66Y-3.33
X5.66Y-3.385
X5.68Y-3.3556
X5.695Y-3.33
X5.695Y-3.385
X5.72Y-3.355
X5.735Y-3.33
X5.735Y-3.385
X5.74Y-3.2106
X5.74Y-3.5056
X5.755Y-3.355
X5.78Y-2.9506
X5.78Y-3.33
X5.78Y-3.385
X5.805Y-3.5306
X5.8375Y-3.9006
X5.84Y-3.2756
X5.84Y-3.4406
X5.865Y-3.225
X5.865Y-3.8506
X5.89Y-3.9006
X5.915Y-3.8506
X5.925Y-3.7306
X5.925Y-4.0256
X5.94Y-3.9006
X5.9475Y-2.9456
X5.95Y-3.5
X5.955Y-3.22
X5.96Y-3.4406
X5.965Y-3.2756
X5.965Y-3.8506
X5.995Y-3.5356
X6.025Y-3.8006
X6.0275Y-3.3856
X6.03Y-3.9506
X6.0525Y-3.3356
X6.0775Y-3.3856
X6.085Y-2.9506
X6.1025Y-3.3356
X6.11Y-3.2156
X6.11Y-3.5056
X6.1275Y-3.3856
X6.1525Y-3.3356
X6.2Y-3.635
X6.275Y-4.21
X6.275Y-4.345
X6.28Y-4.055
X6.32Y-3.945
X6.325Y-2.975
X6.36Y-3.77
X6.475Y-3.05
X6.475Y-4.06
X6.675Y-4.225
X6.72Y-2.985
X6.81Y-3.785
X6.84Y-3.34
X6.85Y-3.025
X6.86Y-2.445
X6.875Y-2.9
X6.96Y-2.745
X6.975Y-2.635
X7.Y-3.225
X7.025Y-2.635
X7.04Y-1.76
X7.04Y-3.605
X7.05Y-2.825
X7.05Y-3.695
X7.11Y-2.645
X7.125Y-2.9
X7.145Y-6.195
X7.145Y-6.3
X7.145Y-6.4
X7.145Y-6.505
X7.145Y-6.67
X7.145Y-6.785
X7.15Y-3.025
X7.175Y-6.565
X7.18Y-1.76
X7.21Y-6.52
X7.23Y-6.33
X7.23Y-6.43
X7.25Y-3.25
X7.25Y-6.1
X7.25Y-6.225
X7.255Y-6.555
X7.29Y-6.64
X7.29Y-6.71
X7.31Y-3.4858
X7.335Y-3.04
X7.36Y-3.005
X7.37Y-2.955
X7.395Y-2.985
X7.395Y-3.025
X7.41Y-3.165
X7.415Y-2.955
X7.43Y-3.1008
X7.435Y-2.985
X7.435Y-3.025
X7.445Y-3.135
X7.455Y-3.305
X7.46Y-2.955
X7.46Y-3.235
X7.495Y-2.955
X7.5Y-3.31
X7.51Y-3.395
X7.51Y-3.4858
X7.53Y-2.955
X7.535Y-3.33
X7.545Y-3.005
X7.55Y-3.16
X7.565Y-2.955
X7.58Y-3.145
X7.58Y-4.1
X7.585Y-2.985
X7.595Y-3.17
X7.5975Y-5.2984
X7.605Y-2.955
X7.615Y-3.145
X7.617Y-5.9004
X7.62Y-2.985
X7.62Y-3.44
X7.625Y-3.34
X7.63Y-3.17
X7.63Y-3.37
X7.635Y-2.955
X7.64Y-3.41
X7.64Y-3.475
X7.65Y-3.145
X7.65Y-3.5
X7.655Y-2.985
X7.655Y-3.31
X7.66Y-3.34
X7.66Y-3.375
X7.66Y-3.44
X7.675Y-3.475
X7.6875Y-3.9133
X7.69Y-3.31
X7.695Y-3.395
X7.697Y-6.5384
X7.6994Y-5.535
X7.7Y-7.9
X7.71Y-3.4858
X7.7175Y-5.0459
X7.7235Y-5.3529
X7.725Y-3.31
X7.725Y-4.1
X7.73Y-3.395
X7.731Y-5.2344
X7.735Y-6.8809
X7.78Y-5.5259
X7.785Y-5.2564
X7.8Y-7.625
X7.83Y-4.8884
X7.88Y-6.5384
X7.88Y-6.7984
X7.885Y-4.7884
X7.89Y-3.8758
X7.8914Y-4.9892
X7.91Y-3.4858
X7.9151Y-5.4115
X7.97Y-7.575
X7.975Y-2.995
X7.975Y-3.15
X7.9962Y-5.6816
X8.Y-7.375
X8.0074Y-5.4068
X8.02Y-3.355
X8.02Y-3.45
X8.035Y-3.485
X8.04Y-3.335
X8.04Y-3.38
X8.04Y-3.415
X8.055Y-3.45
X8.065Y-3.09
X8.065Y-3.14
X8.065Y-4.8334
X8.07Y-3.485
X8.11Y-3.4858
X8.1107Y-5.2277
X8.1185Y-5.4385
X8.145Y-4.7534
X8.16Y-3.345
X8.17Y-5.9559
X8.215Y-6.8084
X8.225Y-3.1008
X8.24Y-3.8758
X8.2689Y-5.4868
X8.275Y-5.1234
X8.31Y-3.4858
X8.3523Y-5.4423
X8.3866Y-5.4158
X8.4Y-4.1
X8.415Y-6.5784
X8.425Y-3.1008
X8.425Y-6.2784
X8.475Y-3.1
X8.475Y-3.15
X8.475Y-3.2
X8.5095Y-5.8581
X8.5125Y-3.9133
X8.54Y-5.7821
X8.545Y-6.175
X8.55Y-4.1
X8.56Y-3.4858
X8.6Y-7.6
X8.6Y-7.9
X8.62Y-6.6434
X8.6225Y-5.4634
X8.6351Y-5.6243
X8.65Y-6.775
X8.655Y-3.1008
X8.655Y-6.685
X8.6576Y-5.5038
X8.6969Y-5.5896
X8.7059Y-5.8451
X8.7125Y-6.6634
X8.715Y-3.8758
X8.715Y-5.0184
X8.715Y-5.2384
X8.7284Y-5.6253
X8.7289Y-5.7143
X8.729Y-5.802
X8.73Y-7.635
X8.76Y-3.4858
X8.81Y-7.38
X8.83Y-7.22
X8.88Y-3.1008
X8.885Y-5.3934
X8.89Y-6.5959
X8.89Y-7.365
X8.8975Y-6.1609
X8.91Y-7.105
X8.915Y-6.9
X8.935Y-7.39
X8.94Y-6.5609
X8.96Y-3.4858
X8.97Y-5.1434
X8.975Y-7.3
X8.99Y-6.7
X8.99Y-7.38
X8.999Y-6.7584
X9.035Y-6.2334
X9.035Y-7.38
X9.055Y-7.505
X9.065Y-3.8758
X9.08Y-3.1058
X9.1Y-7.505
X9.16Y-3.4858
X9.19Y-7.69
X9.225Y-7.275
X9.225Y-7.475
X9.237Y-6.4884
X9.24Y-4.7584
X9.24Y-5.2984
X9.265Y-2.885
X9.275Y-2.975
X9.275Y-3.03
X9.28Y-3.1008
X9.2825Y-5.6584
X9.29Y-3.005
X9.29Y-5.4409
X9.295Y-2.95
X9.295Y-3.14
X9.295Y-3.17
X9.3Y-3.3633
X9.3Y-4.025
X9.31Y-3.03
X9.315Y-2.98
X9.315Y-3.12
X9.335Y-3.31
X9.3375Y-3.9158
X9.35Y-7.3
X9.36Y-3.4858
X9.365Y-3.325
X9.375Y-4.1
X9.4Y-3.29
X9.4Y-3.325
X9.4Y-3.475
X9.405Y-3.365
X9.41Y-3.155
X9.445Y-3.165
X9.465Y-2.8
X9.465Y-2.85
X9.47Y-5.005
X9.475Y-2.7
X9.475Y-2.75
X9.475Y-3.15
X9.475Y-3.445
X9.475Y-3.485
X9.475Y-4.575
X9.475Y-7.295
X9.485Y-3.385
X9.485Y-3.415
X9.485Y-6.695
X9.49Y-2.775
X9.49Y-2.825
X9.49Y-2.875
X9.495Y-3.17
X9.5Y-2.91
X9.5Y-3.315
X9.5Y-3.35
X9.505Y-3.495
X9.51Y-3.43
X9.515Y-3.39
X9.52Y-3.465
X9.524Y-2.995
X9.5347Y-3.0253
X9.55Y-2.97
X9.56Y-3.
X9.56Y-3.04
X9.56Y-3.4858
X9.5714Y-2.9464
X9.585Y-2.975
X9.585Y-3.025
X9.6Y-2.95
X9.605Y-2.91
X9.605Y-7.49
X9.61Y-2.865
X9.61Y-3.
X9.61Y-3.05
X9.625Y-6.1
X9.63Y-2.89
X9.64Y-7.52
X9.645Y-2.915
X9.665Y-2.9
X9.675Y-6.475
X9.68Y-2.915
X9.68Y-3.34
X9.685Y-3.125
X9.685Y-3.16
X9.7Y-2.65
X9.7Y-2.7
X9.7Y-2.9
X9.705Y-6.18
X9.71Y-2.9838
X9.71Y-3.015
X9.71Y-3.045
X9.71Y-3.075
X9.715Y-2.92
X9.725Y-2.625
X9.725Y-2.675
X9.725Y-3.875
X9.735Y-5.835
X9.74Y-2.9
X9.745Y-2.93
X9.75Y-2.65
X9.75Y-2.7
X9.75Y-3.825
X9.75Y-6.35
X9.77Y-2.905
X9.775Y-2.625
X9.775Y-2.675
X9.775Y-2.965
X9.78Y-3.01
X9.78Y-3.1
X9.795Y-2.945
X9.795Y-2.99
X9.8Y-2.65
X9.8Y-2.7
X9.81Y-2.965
X9.815Y-2.92
X9.815Y-3.01
X9.815Y-3.1
X9.82Y-2.09
X9.82Y-5.985
X9.825Y-2.625
X9.825Y-2.675
X9.83Y-2.945
X9.83Y-2.99
X9.84Y-5.145
X9.845Y-2.92
X9.845Y-2.965
X9.845Y-3.01
X9.85Y-2.2
X9.85Y-2.25
X9.85Y-2.3
X9.85Y-2.35
X9.85Y-2.4
X9.85Y-2.65
X9.85Y-2.7
X9.85Y-3.1
X9.86Y-2.125
X9.86Y-2.945
X9.86Y-2.99
X9.865Y-3.21
X9.87Y-2.085
X9.87Y-3.135
X9.875Y-2.165
X9.875Y-2.225
X9.875Y-2.275
X9.875Y-2.325
X9.875Y-2.375
X9.875Y-2.625
X9.875Y-2.675
X9.875Y-2.92
X9.875Y-2.965
X9.875Y-3.01
X9.875Y-6.3
X9.875Y-6.35
X9.88Y-5.705
X9.885Y-3.1
X9.89Y-2.05
X9.89Y-2.945
X9.89Y-2.99
X9.89Y-3.175
X9.9Y-2.2
X9.9Y-2.25
X9.9Y-2.3
X9.9Y-2.35
X9.9Y-2.4
X9.9Y-3.01
X9.905Y-2.125
X9.905Y-2.92
X9.905Y-2.965
X9.905Y-3.135
X9.905Y-3.21
X9.91Y-2.02
X9.91Y-2.08
X9.915Y-2.165
X9.92Y-2.945
X9.925Y-2.225
X9.925Y-2.275
X9.925Y-2.325
X9.925Y-2.375
X9.925Y-2.99
X9.925Y-3.17
X9.93Y-3.105
X9.935Y-2.055
X9.935Y-2.92
X9.94Y-2.965
X9.945Y-2.11
X9.945Y-2.18
X9.945Y-3.135
X9.945Y-3.205
X9.95Y-2.425
X9.95Y-3.01
X9.95Y-6.3
X9.96Y-2.945
X9.965Y-2.15
X9.965Y-2.89
X9.965Y-2.985
X9.965Y-3.025
X9.965Y-3.085
X9.965Y-3.175
X9.97Y-2.065
X9.97Y-2.805
X9.975Y-2.45
X9.975Y-4.225
X9.975Y-4.575
X9.975Y-6.2
X9.98Y-2.85
X9.98Y-2.92
X9.985Y-2.18
X9.985Y-3.215
X9.99Y-2.11
X9.99Y-2.82
X9.99Y-2.88
X9.99Y-3.14
X10.Y-2.425
X10.Y-2.475
X10.025Y-2.45
X10.025Y-2.55
X10.025Y-2.6
X10.025Y-2.65
X10.025Y-2.7
X10.025Y-2.75
X10.025Y-4.625
X10.025Y-6.2
X10.04Y-2.235
X10.05Y-2.575
X10.05Y-2.625
X10.05Y-2.675
X10.05Y-2.725
X10.075Y-2.55
X10.075Y-2.6
X10.075Y-2.65
X10.075Y-2.7
X10.075Y-2.75
X10.1Y-2.575
X10.1Y-2.625
X10.1Y-2.675
X10.1Y-2.725
X10.1Y-6.2
X10.13Y-3.
X10.175Y-2.1
X10.175Y-2.145
X10.175Y-6.55
X10.2Y-2.75
X10.205Y-2.125
X10.215Y-2.075
X10.22Y-4.555
X10.225Y-2.625
X10.225Y-2.675
X10.225Y-2.725
X10.225Y-5.875
X10.235Y-2.155
X10.245Y-2.1
X10.265Y-2.135
X10.275Y-6.175
X10.275Y-6.425
T3
X4.675Y-2.85
T4
X8.19Y-7.745
X8.27Y-5.0234
X8.36Y-7.745
X8.47Y-5.0234
X9.015Y-7.745
X9.185Y-7.745
X9.8524Y-5.8159
X10.1674Y-5.8159
T5
X4.4197Y-2.8444
X4.5306Y-2.631
X4.6916Y-2.7176
X4.8306Y-2.631
X5.1556Y-3.456
X5.25Y-2.8
X5.35Y-2.8
X5.475Y-2.475
X5.475Y-2.625
X5.55Y-2.725
X5.55Y-2.875
X5.6Y-2.475
X5.6Y-2.625
X5.675Y-2.725
X5.675Y-2.875
X5.7Y-3.75
X5.7Y-3.85
X5.7Y-3.95
X5.7Y-4.05
X5.725Y-2.475
X5.725Y-2.625
X5.8Y-2.725
X5.8Y-2.875
X5.85Y-2.475
X5.85Y-2.625
X5.925Y-2.725
X5.925Y-2.875
X5.975Y-2.475
X5.975Y-2.625
X6.05Y-2.725
X6.05Y-2.875
X6.1Y-2.475
X6.1Y-2.625
X6.175Y-2.725
X6.175Y-2.875
X6.225Y-2.475
X6.225Y-2.625
X6.3Y-2.725
X6.3Y-2.875
X6.35Y-2.475
X6.35Y-2.625
X6.425Y-2.725
X6.425Y-2.875
X6.475Y-2.475
X6.475Y-2.625
X6.55Y-2.725
X6.55Y-2.875
X6.6Y-2.475
X6.6Y-2.625
X6.625Y-4.625
X6.675Y-2.725
X6.675Y-2.875
X6.725Y-2.475
X6.725Y-2.625
X6.775Y-4.625
X6.8Y-2.725
X6.8Y-2.875
X6.95Y-3.125
X7.Y-1.975
X7.Y-2.075
X7.05Y-3.125
X7.1Y-3.85
X7.1Y-3.95
X7.1Y-4.075
X7.1Y-4.175
X7.15Y-1.975
X7.15Y-2.075
X7.25Y-2.495
X7.25Y-2.645
X7.25Y-2.725
X7.25Y-2.875
X7.35Y-2.475
X7.35Y-2.625
X7.375Y-2.725
X7.375Y-2.875
X7.425Y-3.75
X7.425Y-3.85
X7.45Y-2.475
X7.45Y-2.625
X7.5Y-2.725
X7.5Y-2.875
X7.55Y-2.475
X7.55Y-2.625
X7.625Y-2.725
X7.625Y-2.875
X7.675Y-2.475
X7.675Y-2.625
X7.75Y-2.725
X7.75Y-2.875
X7.8Y-2.475
X7.8Y-2.625
X7.82Y-6.9584
X7.82Y-7.0584
X7.875Y-2.725
X7.875Y-2.875
X7.94Y-6.9584
X7.94Y-7.0584
X7.98Y-2.75
X7.98Y-2.85
X8.Y-2.475
X8.Y-2.625
X8.06Y-6.9584
X8.06Y-7.0584
X8.075Y-2.725
X8.075Y-2.875
X8.125Y-2.475
X8.125Y-2.625
X8.15Y-2.9625
X8.18Y-6.9584
X8.18Y-7.0584
X8.2Y-2.725
X8.2Y-2.875
X8.25Y-2.475
X8.25Y-2.625
X8.25Y-2.96
X8.325Y-2.725
X8.325Y-2.875
X8.375Y-2.475
X8.375Y-2.625
X8.45Y-2.725
X8.45Y-2.875
X8.5Y-2.475
X8.5Y-2.625
X8.575Y-2.725
X8.575Y-2.875
X8.625Y-2.475
X8.625Y-2.625
X8.7Y-2.725
X8.7Y-2.875
X8.75Y-2.475
X8.75Y-2.625
X8.825Y-2.725
X8.825Y-2.875
X8.875Y-2.475
X8.875Y-2.625
X8.875Y-5.2284
X8.95Y-2.725
X8.95Y-2.875
X8.975Y-5.2284
X9.Y-2.475
X9.Y-2.625
X9.05Y-2.725
X9.05Y-2.875
X9.075Y-5.2284
X9.125Y-2.475
X9.125Y-2.625
X9.2Y-2.725
X9.2Y-2.875
X9.25Y-2.475
X9.25Y-2.625
X9.35Y-2.475
X9.35Y-2.625
X9.45Y-2.475
X9.45Y-2.625
X9.525Y-3.75
X9.525Y-3.85
X9.575Y-2.425
X9.575Y-2.575
X9.65Y-2.15
X9.675Y-2.325
X9.675Y-2.475
X9.8Y-2.15
X10.1Y-4.15
X10.2Y-4.15
T6
X7.992Y-6.3148
X7.992Y-6.492
X8.248Y-6.3148
X8.2519Y-6.492
X8.692Y-6.3148
X8.692Y-6.492
X8.948Y-6.3148
X8.9519Y-6.492
T7
X7.2222Y-7.7073
X7.6278Y-7.7073
T8
X5.5056Y-3.531
X5.5056Y-3.931
X5.975Y-4.15
X6.075Y-4.15
X6.875Y-3.9
X6.875Y-4.
X6.95Y-4.525
X6.95Y-4.625
X6.95Y-4.725
X6.95Y-4.825
X6.95Y-4.925
X6.95Y-5.025
X6.95Y-5.125
X6.95Y-5.225
X6.95Y-5.325
X6.95Y-5.425
X6.95Y-5.525
X6.95Y-5.625
X6.95Y-5.725
X6.95Y-5.825
X6.95Y-5.925
X6.95Y-6.025
X7.425Y-4.6884
X7.425Y-4.9484
X7.425Y-5.0484
X7.425Y-5.1484
X7.425Y-5.2484
X7.425Y-5.3484
X7.425Y-5.4484
X7.425Y-5.5484
X7.425Y-5.6484
X7.425Y-5.7484
X7.425Y-5.8484
X7.425Y-5.9484
X7.425Y-6.0484
X7.425Y-6.1484
X7.425Y-6.2484
X7.425Y-6.3484
X7.425Y-6.4484
X7.425Y-6.5484
X7.425Y-6.6484
X7.425Y-6.7484
X7.425Y-6.8484
X7.425Y-6.9484
X7.425Y-7.0484
X7.425Y-7.1484
X7.425Y-7.2484
X7.425Y-7.3484
X7.525Y-4.6884
X7.525Y-4.9484
X7.525Y-5.0484
X7.525Y-5.1484
X7.525Y-5.2484
X7.525Y-5.3484
X7.525Y-5.4484
X7.525Y-5.5484
X7.525Y-5.6484
X7.525Y-5.7484
X7.525Y-5.8484
X7.525Y-5.9484
X7.525Y-6.0484
X7.525Y-6.1484
X7.525Y-6.2484
X7.525Y-6.3484
X7.525Y-6.4484
X7.525Y-6.5484
X7.525Y-6.6484
X7.525Y-6.7484
X7.525Y-6.8484
X7.525Y-6.9484
X7.525Y-7.0484
X7.525Y-7.1484
X7.525Y-7.2484
X7.525Y-7.3484
X7.625Y-4.6884
X7.725Y-4.6884
X7.825Y-4.6884
X7.925Y-4.6884
X8.375Y-4.6884
X8.475Y-4.6884
X9.425Y-4.9484
X9.425Y-5.0484
X9.425Y-5.1484
X9.425Y-5.2484
X9.425Y-5.3484
X9.425Y-5.4484
X9.425Y-5.5484
X9.425Y-5.6484
X9.425Y-5.7484
X9.425Y-5.8484
X9.425Y-5.9484
X9.425Y-6.0484
X9.425Y-6.1484
X9.425Y-6.2484
X9.425Y-6.3484
X9.425Y-6.4484
X9.425Y-6.5484
X9.425Y-6.6484
X9.425Y-6.7484
X9.425Y-6.8484
X9.425Y-6.9484
X9.425Y-7.0484
X9.425Y-7.1484
X9.425Y-7.2484
X9.425Y-7.3484
X9.525Y-4.9484
X9.525Y-5.0484
X9.525Y-5.1484
X9.525Y-5.2484
X9.525Y-5.3484
X9.525Y-5.4484
X9.525Y-5.5484
X9.525Y-5.6484
X9.525Y-5.7484
X9.525Y-5.8484
X9.525Y-5.9484
X9.525Y-6.0484
X9.525Y-6.1484
X9.525Y-6.2484
X9.525Y-6.3484
X9.525Y-6.4484
X9.525Y-6.5484
X9.525Y-6.6484
X9.525Y-6.7484
X9.525Y-6.8484
X9.525Y-6.9484
X9.525Y-7.0484
X9.525Y-7.1484
X9.525Y-7.2484
X9.525Y-7.3484
T9
X5.5621Y-2.1628
X5.5621Y-2.34
X5.6998Y-2.1628
X5.6998Y-2.34
X5.8219Y-2.1628
X5.8219Y-2.34
X5.94Y-2.1628
X5.94Y-2.34
X6.0581Y-2.1628
X6.0581Y-2.34
X6.1762Y-2.1628
X6.1762Y-2.34
X6.2943Y-2.1628
X6.2943Y-2.34
X6.4124Y-2.1628
X6.4124Y-2.34
X6.5305Y-2.1628
X6.5305Y-2.34
X6.6486Y-2.1628
X6.6486Y-2.34
X6.7707Y-2.1628
X6.7707Y-2.34
X7.0049Y-2.1628
X7.0049Y-2.34
X7.123Y-2.1628
X7.123Y-2.34
X7.2411Y-2.1628
X7.2411Y-2.34
X7.3592Y-2.1628
X7.3592Y-2.34
X7.4774Y-2.1628
X7.4774Y-2.34
X7.5955Y-2.1628
X7.5955Y-2.34
X7.7136Y-2.1628
X7.7136Y-2.34
X7.8317Y-2.1628
X7.8317Y-2.34
X8.0658Y-2.1628
X8.0658Y-2.34
X8.2036Y-2.1628
X8.2036Y-2.34
X8.3258Y-2.1628
X8.3258Y-2.34
X8.4439Y-2.1628
X8.4439Y-2.34
X8.562Y-2.1628
X8.562Y-2.34
X8.6801Y-2.1628
X8.6801Y-2.34
X8.7982Y-2.1628
X8.7982Y-2.34
X8.9163Y-2.1628
X8.9163Y-2.34
X9.0344Y-2.1628
X9.0344Y-2.34
X9.1525Y-2.1628
X9.1525Y-2.34
X9.2746Y-2.1628
X9.2746Y-2.34
X9.4124Y-2.1628
X9.4124Y-2.34
X9.5502Y-2.1628
X9.5502Y-2.34
T10
X7.2222Y-7.597
X7.2222Y-7.853
X7.6278Y-7.597
X7.6278Y-7.853
T11
X4.7845Y-4.225
X4.7846Y-7.8864
X6.95Y-7.8864
T12
X5.7295Y-4.3085
X5.7295Y-7.2612
X6.95Y-7.2612
T13
X5.3632Y-1.9384
X6.8927Y-1.9384
X7.9439Y-1.9384
X9.749Y-1.9384
T4
X7.8561Y-7.7235G85X7.8561Y-7.7765
G05
X7.9939Y-7.6487G85X7.9939Y-7.7017
G05
X7.9939Y-7.818G85X7.9939Y-7.871
G05
X8.6811Y-7.7235G85X8.6811Y-7.7765
G05
X8.8189Y-7.6487G85X8.8189Y-7.7017
G05
X8.8189Y-7.818G85X8.8189Y-7.871
G05
T12
X6.95Y-4.225G85X6.95Y-4.3085
G05
T0
M30
