G04 (created by PCBNEW (2013-07-07 BZR 4022)-stable) date 10/7/2013 2:25:56 PM*
%MOIN*%
G04 Gerber Fmt 3.4, Leading zero omitted, Abs format*
%FSLAX34Y34*%
G01*
G70*
G90*
G04 APERTURE LIST*
%ADD10C,0.00590551*%
%ADD11R,0.06X0.08*%
%ADD12R,0.06X0.06*%
%ADD13C,0.06*%
%ADD14R,0.08X0.06*%
%ADD15R,0.025X0.05*%
%ADD16R,0.0709X0.0629*%
%ADD17R,0.0394X0.0236*%
%ADD18R,0.055X0.035*%
%ADD19R,0.035X0.055*%
%ADD20C,0.11811*%
G04 APERTURE END LIST*
G54D10*
G54D11*
X52650Y-40500D03*
X51350Y-40500D03*
X51350Y-42000D03*
X52650Y-42000D03*
G54D12*
X54500Y-45500D03*
G54D13*
X54500Y-44500D03*
X54500Y-43500D03*
X54500Y-42500D03*
G54D12*
X49500Y-69000D03*
G54D13*
X49500Y-70000D03*
X48500Y-69000D03*
X48500Y-70000D03*
X47500Y-69000D03*
X47500Y-70000D03*
X46500Y-69000D03*
X46500Y-70000D03*
X45500Y-69000D03*
X45500Y-70000D03*
X44500Y-69000D03*
X44500Y-70000D03*
X43500Y-69000D03*
X43500Y-70000D03*
X42500Y-69000D03*
X42500Y-70000D03*
X41500Y-69000D03*
X41500Y-70000D03*
X40500Y-69000D03*
X40500Y-70000D03*
G54D14*
X47000Y-40350D03*
X47000Y-41650D03*
G54D11*
X52650Y-45000D03*
X51350Y-45000D03*
X51350Y-43500D03*
X52650Y-43500D03*
G54D14*
X44000Y-44650D03*
X44000Y-43350D03*
G54D11*
X52650Y-46500D03*
X51350Y-46500D03*
X51350Y-48000D03*
X52650Y-48000D03*
G54D14*
X44000Y-46350D03*
X44000Y-47650D03*
X44000Y-51150D03*
X44000Y-49850D03*
G54D11*
X51350Y-49500D03*
X52650Y-49500D03*
X52650Y-51000D03*
X51350Y-51000D03*
G54D14*
X42500Y-40350D03*
X42500Y-41650D03*
X45500Y-40350D03*
X45500Y-41650D03*
X47000Y-44650D03*
X47000Y-43350D03*
X44000Y-40350D03*
X44000Y-41650D03*
X45500Y-44650D03*
X45500Y-43350D03*
G54D11*
X50150Y-44000D03*
X48850Y-44000D03*
G54D14*
X42500Y-44650D03*
X42500Y-43350D03*
X45500Y-46350D03*
X45500Y-47650D03*
X42500Y-46350D03*
X42500Y-47650D03*
X45500Y-51150D03*
X45500Y-49850D03*
X42500Y-51150D03*
X42500Y-49850D03*
G54D15*
X50250Y-47400D03*
X49750Y-47400D03*
X49250Y-47400D03*
X48750Y-47400D03*
X48750Y-49600D03*
X49250Y-49600D03*
X49750Y-49600D03*
X50250Y-49600D03*
X50250Y-40400D03*
X49750Y-40400D03*
X49250Y-40400D03*
X48750Y-40400D03*
X48750Y-42600D03*
X49250Y-42600D03*
X49750Y-42600D03*
X50250Y-42600D03*
X49750Y-57900D03*
X49250Y-57900D03*
X48750Y-57900D03*
X48250Y-57900D03*
X48250Y-60100D03*
X48750Y-60100D03*
X49250Y-60100D03*
X49750Y-60100D03*
X49750Y-52900D03*
X49250Y-52900D03*
X48750Y-52900D03*
X48250Y-52900D03*
X48250Y-55100D03*
X48750Y-55100D03*
X49250Y-55100D03*
X49750Y-55100D03*
G54D11*
X52650Y-53000D03*
X51350Y-53000D03*
G54D14*
X42000Y-57150D03*
X42000Y-55850D03*
X45000Y-57150D03*
X45000Y-55850D03*
X42000Y-52850D03*
X42000Y-54150D03*
X45000Y-52850D03*
X45000Y-54150D03*
X40500Y-48650D03*
X40500Y-47350D03*
X54500Y-46850D03*
X54500Y-48150D03*
X43500Y-52850D03*
X43500Y-54150D03*
G54D11*
X51350Y-54500D03*
X52650Y-54500D03*
G54D14*
X54000Y-53650D03*
X54000Y-52350D03*
G54D12*
X54500Y-57000D03*
G54D13*
X54500Y-56000D03*
X54500Y-55000D03*
G54D16*
X54500Y-49441D03*
X54500Y-50559D03*
G54D17*
X40084Y-50125D03*
X40916Y-50500D03*
X40084Y-50875D03*
X40084Y-66125D03*
X40916Y-66500D03*
X40084Y-66875D03*
X40084Y-63125D03*
X40916Y-63500D03*
X40084Y-63875D03*
X40084Y-45125D03*
X40916Y-45500D03*
X40084Y-45875D03*
X40084Y-53625D03*
X40916Y-54000D03*
X40084Y-54375D03*
G54D15*
X49750Y-62900D03*
X49250Y-62900D03*
X48750Y-62900D03*
X48250Y-62900D03*
X48250Y-65100D03*
X48750Y-65100D03*
X49250Y-65100D03*
X49750Y-65100D03*
G54D11*
X52650Y-63500D03*
X51350Y-63500D03*
X51350Y-65000D03*
X52650Y-65000D03*
G54D14*
X43500Y-64150D03*
X43500Y-62850D03*
X43500Y-67150D03*
X43500Y-65850D03*
G54D11*
X51350Y-66500D03*
X52650Y-66500D03*
X51350Y-68000D03*
X52650Y-68000D03*
G54D14*
X45000Y-64150D03*
X45000Y-62850D03*
X46500Y-64150D03*
X46500Y-62850D03*
X42000Y-64150D03*
X42000Y-62850D03*
X45000Y-67150D03*
X45000Y-65850D03*
X46500Y-67150D03*
X46500Y-65850D03*
X42000Y-67150D03*
X42000Y-65850D03*
G54D17*
X40084Y-43125D03*
X40916Y-43500D03*
X40084Y-43875D03*
G54D12*
X54500Y-65000D03*
G54D13*
X54500Y-64000D03*
X54500Y-63000D03*
X54500Y-62000D03*
X54500Y-61000D03*
X54500Y-60000D03*
G54D18*
X46500Y-61375D03*
X46500Y-60625D03*
G54D14*
X47000Y-46350D03*
X47000Y-47650D03*
X47000Y-51150D03*
X47000Y-49850D03*
G54D11*
X48350Y-66500D03*
X49650Y-66500D03*
G54D14*
X47000Y-52850D03*
X47000Y-54150D03*
X47000Y-57150D03*
X47000Y-55850D03*
G54D11*
X50150Y-51000D03*
X48850Y-51000D03*
G54D19*
X51625Y-59000D03*
X52375Y-59000D03*
X52375Y-60000D03*
X51625Y-60000D03*
G54D18*
X42000Y-61375D03*
X42000Y-60625D03*
X45000Y-61375D03*
X45000Y-60625D03*
X42000Y-58625D03*
X42000Y-59375D03*
X46500Y-58625D03*
X46500Y-59375D03*
X45000Y-58625D03*
X45000Y-59375D03*
G54D19*
X52375Y-62000D03*
X51625Y-62000D03*
X52375Y-61000D03*
X51625Y-61000D03*
G54D18*
X43500Y-61375D03*
X43500Y-60625D03*
X43500Y-58625D03*
X43500Y-59375D03*
G54D19*
X49375Y-56500D03*
X48625Y-56500D03*
X49375Y-61500D03*
X48625Y-61500D03*
G54D14*
X43500Y-57150D03*
X43500Y-55850D03*
G54D19*
X51625Y-56000D03*
X52375Y-56000D03*
X52375Y-57000D03*
X51625Y-57000D03*
G54D20*
X40500Y-41000D03*
X54000Y-69500D03*
M02*
