G04 (created by PCBNEW (2013-07-07 BZR 4022)-stable) date 10/7/2013 2:25:56 PM*
%MOIN*%
G04 Gerber Fmt 3.4, Leading zero omitted, Abs format*
%FSLAX34Y34*%
G01*
G70*
G90*
G04 APERTURE LIST*
%ADD10C,0.00590551*%
%ADD11R,0.06X0.06*%
%ADD12C,0.06*%
%ADD13C,0.11811*%
%ADD14C,0.035*%
%ADD15C,0.01*%
G04 APERTURE END LIST*
G54D10*
G54D11*
X54500Y-45500D03*
G54D12*
X54500Y-44500D03*
X54500Y-43500D03*
X54500Y-42500D03*
G54D11*
X49500Y-69000D03*
G54D12*
X49500Y-70000D03*
X48500Y-69000D03*
X48500Y-70000D03*
X47500Y-69000D03*
X47500Y-70000D03*
X46500Y-69000D03*
X46500Y-70000D03*
X45500Y-69000D03*
X45500Y-70000D03*
X44500Y-69000D03*
X44500Y-70000D03*
X43500Y-69000D03*
X43500Y-70000D03*
X42500Y-69000D03*
X42500Y-70000D03*
X41500Y-69000D03*
X41500Y-70000D03*
X40500Y-69000D03*
X40500Y-70000D03*
G54D11*
X54500Y-57000D03*
G54D12*
X54500Y-56000D03*
X54500Y-55000D03*
G54D11*
X54500Y-65000D03*
G54D12*
X54500Y-64000D03*
X54500Y-63000D03*
X54500Y-62000D03*
X54500Y-61000D03*
X54500Y-60000D03*
G54D13*
X40500Y-41000D03*
X54000Y-69500D03*
G54D14*
X47938Y-40317D03*
X45691Y-67665D03*
X49079Y-45839D03*
X48272Y-50827D03*
X47982Y-58786D03*
X51821Y-42877D03*
X53212Y-45585D03*
X52629Y-48750D03*
X52783Y-51899D03*
X52783Y-53750D03*
X50867Y-58398D03*
X51173Y-59587D03*
X40573Y-43018D03*
X40084Y-53228D03*
X40084Y-62718D03*
X40084Y-65727D03*
X53860Y-49772D03*
X47000Y-51728D03*
X43349Y-53562D03*
X43312Y-49775D03*
X43708Y-48231D03*
X43323Y-43401D03*
X48493Y-47918D03*
X51174Y-62000D03*
X51162Y-56941D03*
X46322Y-46342D03*
X46318Y-44632D03*
X49425Y-51125D03*
X49428Y-43895D03*
X50767Y-46481D03*
X50769Y-53012D03*
X51350Y-39811D03*
X53225Y-68005D03*
X40233Y-44722D03*
X43349Y-56437D03*
X51169Y-60078D03*
X46323Y-41726D03*
X46637Y-58168D03*
X50773Y-44987D03*
X46637Y-64737D03*
X48361Y-63429D03*
X40246Y-49730D03*
X47782Y-52617D03*
X48422Y-57058D03*
X43500Y-65274D03*
X47770Y-66520D03*
X50770Y-63628D03*
X43500Y-59830D03*
X51491Y-51687D03*
X47175Y-67165D03*
X42822Y-62994D03*
X45939Y-61445D03*
X48162Y-61597D03*
X48524Y-39865D03*
X43321Y-40454D03*
G54D15*
X48021Y-40400D02*
X47938Y-40317D01*
X52400Y-40400D02*
X48021Y-40400D01*
X54500Y-42500D02*
X52400Y-40400D01*
X51384Y-67665D02*
X45691Y-67665D01*
X54049Y-65000D02*
X51384Y-67665D01*
X54500Y-65000D02*
X54049Y-65000D01*
X50418Y-44500D02*
X49079Y-45839D01*
X54500Y-44500D02*
X50418Y-44500D01*
X48722Y-50827D02*
X54049Y-45500D01*
X48272Y-50827D02*
X48722Y-50827D01*
X54500Y-45500D02*
X54049Y-45500D01*
X53950Y-61450D02*
X54500Y-62000D01*
X53950Y-61450D02*
X53950Y-61450D01*
X53950Y-61021D02*
X53950Y-61450D01*
X50998Y-58070D02*
X53950Y-61021D01*
X48699Y-58070D02*
X50998Y-58070D01*
X47982Y-58786D02*
X48699Y-58070D01*
X40500Y-53959D02*
X40500Y-69000D01*
X51582Y-42877D02*
X40500Y-53959D01*
X51821Y-42877D02*
X51582Y-42877D01*
X40964Y-69535D02*
X40500Y-70000D01*
X40964Y-59282D02*
X40964Y-69535D01*
X47365Y-52881D02*
X40964Y-59282D01*
X47365Y-51274D02*
X47365Y-52881D01*
X53054Y-45585D02*
X47365Y-51274D01*
X53212Y-45585D02*
X53054Y-45585D01*
X41500Y-59879D02*
X52629Y-48750D01*
X41500Y-69000D02*
X41500Y-59879D01*
X52445Y-51899D02*
X52783Y-51899D01*
X41958Y-62386D02*
X52445Y-51899D01*
X41958Y-69541D02*
X41958Y-62386D01*
X41500Y-70000D02*
X41958Y-69541D01*
X42500Y-63810D02*
X42500Y-69000D01*
X52560Y-53750D02*
X42500Y-63810D01*
X52783Y-53750D02*
X52560Y-53750D01*
X43000Y-69500D02*
X42500Y-70000D01*
X43000Y-66265D02*
X43000Y-69500D01*
X50867Y-58398D02*
X43000Y-66265D01*
X43500Y-67261D02*
X43500Y-69000D01*
X51173Y-59587D02*
X43500Y-67261D01*
G54D10*
G36*
X50442Y-58370D02*
X50442Y-58399D01*
X42800Y-66041D01*
X42800Y-63934D01*
X47664Y-59069D01*
X47741Y-59147D01*
X47898Y-59211D01*
X48067Y-59212D01*
X48223Y-59147D01*
X48343Y-59027D01*
X48407Y-58871D01*
X48407Y-58786D01*
X48824Y-58370D01*
X50442Y-58370D01*
X50442Y-58370D01*
G37*
G54D15*
X50442Y-58370D02*
X50442Y-58399D01*
X42800Y-66041D01*
X42800Y-63934D01*
X47664Y-59069D01*
X47741Y-59147D01*
X47898Y-59211D01*
X48067Y-59212D01*
X48223Y-59147D01*
X48343Y-59027D01*
X48407Y-58871D01*
X48407Y-58786D01*
X48824Y-58370D01*
X50442Y-58370D01*
G54D10*
G36*
X54172Y-44949D02*
X54150Y-44949D01*
X54058Y-44987D01*
X53988Y-45058D01*
X53950Y-45150D01*
X53949Y-45219D01*
X53949Y-45219D01*
X53935Y-45222D01*
X53837Y-45287D01*
X53633Y-45492D01*
X53572Y-45344D01*
X53453Y-45225D01*
X53297Y-45160D01*
X53128Y-45160D01*
X52971Y-45224D01*
X52852Y-45344D01*
X52838Y-45377D01*
X47153Y-51062D01*
X47088Y-51159D01*
X47065Y-51274D01*
X47065Y-52757D01*
X40800Y-59022D01*
X40800Y-54083D01*
X48761Y-46122D01*
X48838Y-46199D01*
X48994Y-46264D01*
X49163Y-46264D01*
X49319Y-46200D01*
X49439Y-46080D01*
X49504Y-45924D01*
X49504Y-45838D01*
X50543Y-44800D01*
X54028Y-44800D01*
X54033Y-44811D01*
X54172Y-44949D01*
X54172Y-44949D01*
G37*
G54D15*
X54172Y-44949D02*
X54150Y-44949D01*
X54058Y-44987D01*
X53988Y-45058D01*
X53950Y-45150D01*
X53949Y-45219D01*
X53949Y-45219D01*
X53935Y-45222D01*
X53837Y-45287D01*
X53633Y-45492D01*
X53572Y-45344D01*
X53453Y-45225D01*
X53297Y-45160D01*
X53128Y-45160D01*
X52971Y-45224D01*
X52852Y-45344D01*
X52838Y-45377D01*
X47153Y-51062D01*
X47088Y-51159D01*
X47065Y-51274D01*
X47065Y-52757D01*
X40800Y-59022D01*
X40800Y-54083D01*
X48761Y-46122D01*
X48838Y-46199D01*
X48994Y-46264D01*
X49163Y-46264D01*
X49319Y-46200D01*
X49439Y-46080D01*
X49504Y-45924D01*
X49504Y-45838D01*
X50543Y-44800D01*
X54028Y-44800D01*
X54033Y-44811D01*
X54172Y-44949D01*
G54D10*
G36*
X54848Y-59570D02*
X54811Y-59534D01*
X54609Y-59450D01*
X54391Y-59449D01*
X54188Y-59533D01*
X54034Y-59688D01*
X53950Y-59890D01*
X53949Y-60108D01*
X54033Y-60311D01*
X54188Y-60465D01*
X54269Y-60499D01*
X54188Y-60533D01*
X54037Y-60684D01*
X51210Y-57857D01*
X51113Y-57792D01*
X50998Y-57770D01*
X48964Y-57770D01*
X52600Y-54134D01*
X52698Y-54174D01*
X52867Y-54175D01*
X53023Y-54110D01*
X53143Y-53991D01*
X53208Y-53834D01*
X53208Y-53665D01*
X53143Y-53509D01*
X53024Y-53389D01*
X52868Y-53325D01*
X52699Y-53324D01*
X52543Y-53389D01*
X52463Y-53469D01*
X52463Y-53469D01*
X52445Y-53472D01*
X52348Y-53537D01*
X42287Y-63598D01*
X42258Y-63641D01*
X42258Y-62511D01*
X52526Y-52243D01*
X52542Y-52260D01*
X52698Y-52324D01*
X52867Y-52324D01*
X53023Y-52260D01*
X53143Y-52140D01*
X53208Y-51984D01*
X53208Y-51815D01*
X53143Y-51659D01*
X53024Y-51539D01*
X52868Y-51474D01*
X52699Y-51474D01*
X52543Y-51539D01*
X52482Y-51599D01*
X52445Y-51599D01*
X52330Y-51622D01*
X52233Y-51687D01*
X41800Y-62121D01*
X41800Y-60003D01*
X52628Y-49174D01*
X52713Y-49175D01*
X52870Y-49110D01*
X52989Y-48991D01*
X53054Y-48834D01*
X53054Y-48665D01*
X52990Y-48509D01*
X52870Y-48389D01*
X52714Y-48325D01*
X52545Y-48324D01*
X52389Y-48389D01*
X52269Y-48508D01*
X52204Y-48665D01*
X52204Y-48750D01*
X41287Y-59667D01*
X41264Y-59702D01*
X41264Y-59406D01*
X47577Y-53093D01*
X47642Y-52996D01*
X47665Y-52881D01*
X47665Y-52881D01*
X47665Y-51398D01*
X47954Y-51109D01*
X48031Y-51187D01*
X48187Y-51251D01*
X48356Y-51252D01*
X48513Y-51187D01*
X48573Y-51127D01*
X48722Y-51127D01*
X48722Y-51127D01*
X48837Y-51104D01*
X48837Y-51104D01*
X48934Y-51039D01*
X54010Y-45963D01*
X54058Y-46011D01*
X54150Y-46049D01*
X54249Y-46050D01*
X54848Y-46050D01*
X54848Y-54570D01*
X54811Y-54534D01*
X54609Y-54450D01*
X54391Y-54449D01*
X54188Y-54533D01*
X54034Y-54688D01*
X53950Y-54890D01*
X53949Y-55108D01*
X54033Y-55311D01*
X54188Y-55465D01*
X54269Y-55499D01*
X54188Y-55533D01*
X54034Y-55688D01*
X53950Y-55890D01*
X53949Y-56108D01*
X54033Y-56311D01*
X54172Y-56449D01*
X54150Y-56449D01*
X54058Y-56487D01*
X53988Y-56558D01*
X53950Y-56650D01*
X53949Y-56749D01*
X53949Y-57349D01*
X53987Y-57441D01*
X54058Y-57511D01*
X54150Y-57549D01*
X54249Y-57550D01*
X54848Y-57550D01*
X54848Y-59570D01*
X54848Y-59570D01*
G37*
G54D15*
X54848Y-59570D02*
X54811Y-59534D01*
X54609Y-59450D01*
X54391Y-59449D01*
X54188Y-59533D01*
X54034Y-59688D01*
X53950Y-59890D01*
X53949Y-60108D01*
X54033Y-60311D01*
X54188Y-60465D01*
X54269Y-60499D01*
X54188Y-60533D01*
X54037Y-60684D01*
X51210Y-57857D01*
X51113Y-57792D01*
X50998Y-57770D01*
X48964Y-57770D01*
X52600Y-54134D01*
X52698Y-54174D01*
X52867Y-54175D01*
X53023Y-54110D01*
X53143Y-53991D01*
X53208Y-53834D01*
X53208Y-53665D01*
X53143Y-53509D01*
X53024Y-53389D01*
X52868Y-53325D01*
X52699Y-53324D01*
X52543Y-53389D01*
X52463Y-53469D01*
X52463Y-53469D01*
X52445Y-53472D01*
X52348Y-53537D01*
X42287Y-63598D01*
X42258Y-63641D01*
X42258Y-62511D01*
X52526Y-52243D01*
X52542Y-52260D01*
X52698Y-52324D01*
X52867Y-52324D01*
X53023Y-52260D01*
X53143Y-52140D01*
X53208Y-51984D01*
X53208Y-51815D01*
X53143Y-51659D01*
X53024Y-51539D01*
X52868Y-51474D01*
X52699Y-51474D01*
X52543Y-51539D01*
X52482Y-51599D01*
X52445Y-51599D01*
X52330Y-51622D01*
X52233Y-51687D01*
X41800Y-62121D01*
X41800Y-60003D01*
X52628Y-49174D01*
X52713Y-49175D01*
X52870Y-49110D01*
X52989Y-48991D01*
X53054Y-48834D01*
X53054Y-48665D01*
X52990Y-48509D01*
X52870Y-48389D01*
X52714Y-48325D01*
X52545Y-48324D01*
X52389Y-48389D01*
X52269Y-48508D01*
X52204Y-48665D01*
X52204Y-48750D01*
X41287Y-59667D01*
X41264Y-59702D01*
X41264Y-59406D01*
X47577Y-53093D01*
X47642Y-52996D01*
X47665Y-52881D01*
X47665Y-52881D01*
X47665Y-51398D01*
X47954Y-51109D01*
X48031Y-51187D01*
X48187Y-51251D01*
X48356Y-51252D01*
X48513Y-51187D01*
X48573Y-51127D01*
X48722Y-51127D01*
X48722Y-51127D01*
X48837Y-51104D01*
X48837Y-51104D01*
X48934Y-51039D01*
X54010Y-45963D01*
X54058Y-46011D01*
X54150Y-46049D01*
X54249Y-46050D01*
X54848Y-46050D01*
X54848Y-54570D01*
X54811Y-54534D01*
X54609Y-54450D01*
X54391Y-54449D01*
X54188Y-54533D01*
X54034Y-54688D01*
X53950Y-54890D01*
X53949Y-55108D01*
X54033Y-55311D01*
X54188Y-55465D01*
X54269Y-55499D01*
X54188Y-55533D01*
X54034Y-55688D01*
X53950Y-55890D01*
X53949Y-56108D01*
X54033Y-56311D01*
X54172Y-56449D01*
X54150Y-56449D01*
X54058Y-56487D01*
X53988Y-56558D01*
X53950Y-56650D01*
X53949Y-56749D01*
X53949Y-57349D01*
X53987Y-57441D01*
X54058Y-57511D01*
X54150Y-57549D01*
X54249Y-57550D01*
X54848Y-57550D01*
X54848Y-59570D01*
G54D10*
G36*
X54848Y-70596D02*
X54840Y-70596D01*
X54840Y-69333D01*
X54713Y-69024D01*
X54476Y-68787D01*
X54167Y-68659D01*
X53833Y-68659D01*
X53524Y-68787D01*
X53287Y-69023D01*
X53159Y-69332D01*
X53159Y-69666D01*
X53287Y-69975D01*
X53523Y-70212D01*
X53832Y-70340D01*
X54166Y-70340D01*
X54475Y-70213D01*
X54712Y-69976D01*
X54840Y-69667D01*
X54840Y-69333D01*
X54840Y-70596D01*
X39639Y-70596D01*
X39639Y-39639D01*
X54848Y-39639D01*
X54848Y-42070D01*
X54811Y-42034D01*
X54609Y-41950D01*
X54391Y-41949D01*
X54379Y-41954D01*
X52612Y-40187D01*
X52514Y-40122D01*
X52400Y-40100D01*
X48308Y-40100D01*
X48298Y-40076D01*
X48179Y-39957D01*
X48023Y-39892D01*
X47854Y-39892D01*
X47697Y-39956D01*
X47578Y-40076D01*
X47513Y-40232D01*
X47513Y-40401D01*
X47577Y-40557D01*
X47697Y-40677D01*
X47853Y-40742D01*
X48022Y-40742D01*
X48124Y-40700D01*
X52275Y-40700D01*
X53954Y-42378D01*
X53950Y-42390D01*
X53949Y-42608D01*
X54033Y-42811D01*
X54188Y-42965D01*
X54269Y-42999D01*
X54188Y-43033D01*
X54034Y-43188D01*
X53950Y-43390D01*
X53949Y-43608D01*
X54033Y-43811D01*
X54188Y-43965D01*
X54269Y-43999D01*
X54188Y-44033D01*
X54034Y-44188D01*
X54029Y-44200D01*
X50683Y-44200D01*
X51626Y-43256D01*
X51736Y-43301D01*
X51905Y-43302D01*
X52061Y-43237D01*
X52181Y-43118D01*
X52245Y-42961D01*
X52246Y-42792D01*
X52181Y-42636D01*
X52062Y-42516D01*
X51905Y-42452D01*
X51736Y-42451D01*
X51580Y-42516D01*
X51504Y-42592D01*
X51504Y-42592D01*
X51467Y-42599D01*
X51370Y-42664D01*
X41340Y-52694D01*
X41340Y-40833D01*
X41213Y-40524D01*
X40976Y-40287D01*
X40667Y-40159D01*
X40333Y-40159D01*
X40024Y-40287D01*
X39787Y-40523D01*
X39659Y-40832D01*
X39659Y-41166D01*
X39787Y-41475D01*
X40023Y-41712D01*
X40332Y-41840D01*
X40666Y-41840D01*
X40975Y-41713D01*
X41212Y-41476D01*
X41340Y-41167D01*
X41340Y-40833D01*
X41340Y-52694D01*
X40287Y-53747D01*
X40222Y-53844D01*
X40200Y-53959D01*
X40200Y-68528D01*
X40188Y-68533D01*
X40034Y-68688D01*
X39950Y-68890D01*
X39949Y-69108D01*
X40033Y-69311D01*
X40188Y-69465D01*
X40269Y-69499D01*
X40188Y-69533D01*
X40034Y-69688D01*
X39950Y-69890D01*
X39949Y-70108D01*
X40033Y-70311D01*
X40188Y-70465D01*
X40390Y-70549D01*
X40608Y-70550D01*
X40811Y-70466D01*
X40965Y-70311D01*
X40999Y-70230D01*
X41033Y-70311D01*
X41188Y-70465D01*
X41390Y-70549D01*
X41608Y-70550D01*
X41811Y-70466D01*
X41965Y-70311D01*
X41999Y-70230D01*
X42033Y-70311D01*
X42188Y-70465D01*
X42390Y-70549D01*
X42608Y-70550D01*
X42811Y-70466D01*
X42965Y-70311D01*
X42999Y-70230D01*
X43033Y-70311D01*
X43188Y-70465D01*
X43390Y-70549D01*
X43608Y-70550D01*
X43811Y-70466D01*
X43965Y-70311D01*
X43999Y-70230D01*
X44033Y-70311D01*
X44188Y-70465D01*
X44390Y-70549D01*
X44608Y-70550D01*
X44811Y-70466D01*
X44965Y-70311D01*
X44999Y-70230D01*
X45033Y-70311D01*
X45188Y-70465D01*
X45390Y-70549D01*
X45608Y-70550D01*
X45811Y-70466D01*
X45965Y-70311D01*
X45999Y-70230D01*
X46033Y-70311D01*
X46188Y-70465D01*
X46390Y-70549D01*
X46608Y-70550D01*
X46811Y-70466D01*
X46965Y-70311D01*
X46999Y-70230D01*
X47033Y-70311D01*
X47188Y-70465D01*
X47390Y-70549D01*
X47608Y-70550D01*
X47811Y-70466D01*
X47965Y-70311D01*
X47999Y-70230D01*
X48033Y-70311D01*
X48188Y-70465D01*
X48390Y-70549D01*
X48608Y-70550D01*
X48811Y-70466D01*
X48965Y-70311D01*
X48999Y-70230D01*
X49033Y-70311D01*
X49188Y-70465D01*
X49390Y-70549D01*
X49608Y-70550D01*
X49811Y-70466D01*
X49965Y-70311D01*
X50049Y-70109D01*
X50050Y-69891D01*
X49966Y-69688D01*
X49827Y-69550D01*
X49849Y-69550D01*
X49941Y-69512D01*
X50011Y-69441D01*
X50049Y-69349D01*
X50050Y-69250D01*
X50050Y-68749D01*
X50049Y-68650D01*
X50011Y-68558D01*
X49941Y-68487D01*
X49849Y-68449D01*
X49612Y-68450D01*
X49550Y-68512D01*
X49550Y-68950D01*
X49987Y-68950D01*
X50050Y-68887D01*
X50050Y-68749D01*
X50050Y-69250D01*
X50050Y-69112D01*
X49987Y-69050D01*
X49550Y-69050D01*
X49550Y-69057D01*
X49450Y-69057D01*
X49450Y-69050D01*
X49442Y-69050D01*
X49442Y-68950D01*
X49450Y-68950D01*
X49450Y-68512D01*
X49387Y-68450D01*
X49150Y-68449D01*
X49058Y-68487D01*
X48988Y-68558D01*
X48950Y-68650D01*
X48950Y-68672D01*
X48811Y-68534D01*
X48609Y-68450D01*
X48391Y-68449D01*
X48188Y-68533D01*
X48034Y-68688D01*
X48002Y-68763D01*
X47981Y-68712D01*
X47885Y-68684D01*
X47815Y-68755D01*
X47815Y-68614D01*
X47787Y-68518D01*
X47581Y-68445D01*
X47363Y-68456D01*
X47212Y-68518D01*
X47184Y-68614D01*
X47500Y-68929D01*
X47815Y-68614D01*
X47815Y-68755D01*
X47570Y-69000D01*
X47885Y-69315D01*
X47981Y-69287D01*
X48000Y-69232D01*
X48033Y-69311D01*
X48188Y-69465D01*
X48269Y-69499D01*
X48188Y-69533D01*
X48034Y-69688D01*
X48000Y-69769D01*
X47966Y-69688D01*
X47811Y-69534D01*
X47736Y-69502D01*
X47787Y-69481D01*
X47815Y-69385D01*
X47500Y-69070D01*
X47184Y-69385D01*
X47212Y-69481D01*
X47267Y-69500D01*
X47188Y-69533D01*
X47034Y-69688D01*
X47000Y-69769D01*
X46966Y-69688D01*
X46811Y-69534D01*
X46730Y-69500D01*
X46811Y-69466D01*
X46965Y-69311D01*
X46997Y-69236D01*
X47018Y-69287D01*
X47114Y-69315D01*
X47429Y-69000D01*
X47114Y-68684D01*
X47018Y-68712D01*
X46999Y-68767D01*
X46966Y-68688D01*
X46811Y-68534D01*
X46609Y-68450D01*
X46391Y-68449D01*
X46188Y-68533D01*
X46034Y-68688D01*
X46000Y-68769D01*
X45966Y-68688D01*
X45811Y-68534D01*
X45609Y-68450D01*
X45391Y-68449D01*
X45188Y-68533D01*
X45034Y-68688D01*
X45000Y-68769D01*
X44966Y-68688D01*
X44811Y-68534D01*
X44609Y-68450D01*
X44391Y-68449D01*
X44188Y-68533D01*
X44034Y-68688D01*
X44000Y-68769D01*
X43966Y-68688D01*
X43811Y-68534D01*
X43800Y-68529D01*
X43800Y-67385D01*
X51172Y-60012D01*
X51257Y-60012D01*
X51413Y-59948D01*
X51533Y-59828D01*
X51598Y-59672D01*
X51598Y-59503D01*
X51533Y-59347D01*
X51414Y-59227D01*
X51258Y-59162D01*
X51089Y-59162D01*
X50932Y-59227D01*
X50813Y-59346D01*
X50748Y-59502D01*
X50748Y-59588D01*
X43300Y-67036D01*
X43300Y-66389D01*
X50866Y-58823D01*
X50951Y-58823D01*
X51107Y-58758D01*
X51185Y-58681D01*
X53650Y-61145D01*
X53650Y-61450D01*
X53672Y-61564D01*
X53737Y-61662D01*
X53738Y-61662D01*
X53954Y-61878D01*
X53950Y-61890D01*
X53949Y-62108D01*
X54033Y-62311D01*
X54188Y-62465D01*
X54269Y-62499D01*
X54188Y-62533D01*
X54034Y-62688D01*
X53950Y-62890D01*
X53949Y-63108D01*
X54033Y-63311D01*
X54188Y-63465D01*
X54269Y-63499D01*
X54188Y-63533D01*
X54034Y-63688D01*
X53950Y-63890D01*
X53949Y-64108D01*
X54033Y-64311D01*
X54172Y-64449D01*
X54150Y-64449D01*
X54058Y-64487D01*
X53988Y-64558D01*
X53950Y-64650D01*
X53949Y-64719D01*
X53949Y-64719D01*
X53935Y-64722D01*
X53837Y-64787D01*
X51259Y-67365D01*
X45992Y-67365D01*
X45932Y-67305D01*
X45776Y-67240D01*
X45606Y-67240D01*
X45450Y-67305D01*
X45331Y-67424D01*
X45266Y-67580D01*
X45266Y-67749D01*
X45330Y-67906D01*
X45450Y-68025D01*
X45606Y-68090D01*
X45775Y-68090D01*
X45931Y-68026D01*
X45992Y-67965D01*
X51384Y-67965D01*
X51384Y-67965D01*
X51498Y-67942D01*
X51498Y-67942D01*
X51596Y-67877D01*
X54010Y-65463D01*
X54058Y-65511D01*
X54150Y-65549D01*
X54249Y-65550D01*
X54848Y-65550D01*
X54848Y-70596D01*
X54848Y-70596D01*
G37*
G54D15*
X54848Y-70596D02*
X54840Y-70596D01*
X54840Y-69333D01*
X54713Y-69024D01*
X54476Y-68787D01*
X54167Y-68659D01*
X53833Y-68659D01*
X53524Y-68787D01*
X53287Y-69023D01*
X53159Y-69332D01*
X53159Y-69666D01*
X53287Y-69975D01*
X53523Y-70212D01*
X53832Y-70340D01*
X54166Y-70340D01*
X54475Y-70213D01*
X54712Y-69976D01*
X54840Y-69667D01*
X54840Y-69333D01*
X54840Y-70596D01*
X39639Y-70596D01*
X39639Y-39639D01*
X54848Y-39639D01*
X54848Y-42070D01*
X54811Y-42034D01*
X54609Y-41950D01*
X54391Y-41949D01*
X54379Y-41954D01*
X52612Y-40187D01*
X52514Y-40122D01*
X52400Y-40100D01*
X48308Y-40100D01*
X48298Y-40076D01*
X48179Y-39957D01*
X48023Y-39892D01*
X47854Y-39892D01*
X47697Y-39956D01*
X47578Y-40076D01*
X47513Y-40232D01*
X47513Y-40401D01*
X47577Y-40557D01*
X47697Y-40677D01*
X47853Y-40742D01*
X48022Y-40742D01*
X48124Y-40700D01*
X52275Y-40700D01*
X53954Y-42378D01*
X53950Y-42390D01*
X53949Y-42608D01*
X54033Y-42811D01*
X54188Y-42965D01*
X54269Y-42999D01*
X54188Y-43033D01*
X54034Y-43188D01*
X53950Y-43390D01*
X53949Y-43608D01*
X54033Y-43811D01*
X54188Y-43965D01*
X54269Y-43999D01*
X54188Y-44033D01*
X54034Y-44188D01*
X54029Y-44200D01*
X50683Y-44200D01*
X51626Y-43256D01*
X51736Y-43301D01*
X51905Y-43302D01*
X52061Y-43237D01*
X52181Y-43118D01*
X52245Y-42961D01*
X52246Y-42792D01*
X52181Y-42636D01*
X52062Y-42516D01*
X51905Y-42452D01*
X51736Y-42451D01*
X51580Y-42516D01*
X51504Y-42592D01*
X51504Y-42592D01*
X51467Y-42599D01*
X51370Y-42664D01*
X41340Y-52694D01*
X41340Y-40833D01*
X41213Y-40524D01*
X40976Y-40287D01*
X40667Y-40159D01*
X40333Y-40159D01*
X40024Y-40287D01*
X39787Y-40523D01*
X39659Y-40832D01*
X39659Y-41166D01*
X39787Y-41475D01*
X40023Y-41712D01*
X40332Y-41840D01*
X40666Y-41840D01*
X40975Y-41713D01*
X41212Y-41476D01*
X41340Y-41167D01*
X41340Y-40833D01*
X41340Y-52694D01*
X40287Y-53747D01*
X40222Y-53844D01*
X40200Y-53959D01*
X40200Y-68528D01*
X40188Y-68533D01*
X40034Y-68688D01*
X39950Y-68890D01*
X39949Y-69108D01*
X40033Y-69311D01*
X40188Y-69465D01*
X40269Y-69499D01*
X40188Y-69533D01*
X40034Y-69688D01*
X39950Y-69890D01*
X39949Y-70108D01*
X40033Y-70311D01*
X40188Y-70465D01*
X40390Y-70549D01*
X40608Y-70550D01*
X40811Y-70466D01*
X40965Y-70311D01*
X40999Y-70230D01*
X41033Y-70311D01*
X41188Y-70465D01*
X41390Y-70549D01*
X41608Y-70550D01*
X41811Y-70466D01*
X41965Y-70311D01*
X41999Y-70230D01*
X42033Y-70311D01*
X42188Y-70465D01*
X42390Y-70549D01*
X42608Y-70550D01*
X42811Y-70466D01*
X42965Y-70311D01*
X42999Y-70230D01*
X43033Y-70311D01*
X43188Y-70465D01*
X43390Y-70549D01*
X43608Y-70550D01*
X43811Y-70466D01*
X43965Y-70311D01*
X43999Y-70230D01*
X44033Y-70311D01*
X44188Y-70465D01*
X44390Y-70549D01*
X44608Y-70550D01*
X44811Y-70466D01*
X44965Y-70311D01*
X44999Y-70230D01*
X45033Y-70311D01*
X45188Y-70465D01*
X45390Y-70549D01*
X45608Y-70550D01*
X45811Y-70466D01*
X45965Y-70311D01*
X45999Y-70230D01*
X46033Y-70311D01*
X46188Y-70465D01*
X46390Y-70549D01*
X46608Y-70550D01*
X46811Y-70466D01*
X46965Y-70311D01*
X46999Y-70230D01*
X47033Y-70311D01*
X47188Y-70465D01*
X47390Y-70549D01*
X47608Y-70550D01*
X47811Y-70466D01*
X47965Y-70311D01*
X47999Y-70230D01*
X48033Y-70311D01*
X48188Y-70465D01*
X48390Y-70549D01*
X48608Y-70550D01*
X48811Y-70466D01*
X48965Y-70311D01*
X48999Y-70230D01*
X49033Y-70311D01*
X49188Y-70465D01*
X49390Y-70549D01*
X49608Y-70550D01*
X49811Y-70466D01*
X49965Y-70311D01*
X50049Y-70109D01*
X50050Y-69891D01*
X49966Y-69688D01*
X49827Y-69550D01*
X49849Y-69550D01*
X49941Y-69512D01*
X50011Y-69441D01*
X50049Y-69349D01*
X50050Y-69250D01*
X50050Y-68749D01*
X50049Y-68650D01*
X50011Y-68558D01*
X49941Y-68487D01*
X49849Y-68449D01*
X49612Y-68450D01*
X49550Y-68512D01*
X49550Y-68950D01*
X49987Y-68950D01*
X50050Y-68887D01*
X50050Y-68749D01*
X50050Y-69250D01*
X50050Y-69112D01*
X49987Y-69050D01*
X49550Y-69050D01*
X49550Y-69057D01*
X49450Y-69057D01*
X49450Y-69050D01*
X49442Y-69050D01*
X49442Y-68950D01*
X49450Y-68950D01*
X49450Y-68512D01*
X49387Y-68450D01*
X49150Y-68449D01*
X49058Y-68487D01*
X48988Y-68558D01*
X48950Y-68650D01*
X48950Y-68672D01*
X48811Y-68534D01*
X48609Y-68450D01*
X48391Y-68449D01*
X48188Y-68533D01*
X48034Y-68688D01*
X48002Y-68763D01*
X47981Y-68712D01*
X47885Y-68684D01*
X47815Y-68755D01*
X47815Y-68614D01*
X47787Y-68518D01*
X47581Y-68445D01*
X47363Y-68456D01*
X47212Y-68518D01*
X47184Y-68614D01*
X47500Y-68929D01*
X47815Y-68614D01*
X47815Y-68755D01*
X47570Y-69000D01*
X47885Y-69315D01*
X47981Y-69287D01*
X48000Y-69232D01*
X48033Y-69311D01*
X48188Y-69465D01*
X48269Y-69499D01*
X48188Y-69533D01*
X48034Y-69688D01*
X48000Y-69769D01*
X47966Y-69688D01*
X47811Y-69534D01*
X47736Y-69502D01*
X47787Y-69481D01*
X47815Y-69385D01*
X47500Y-69070D01*
X47184Y-69385D01*
X47212Y-69481D01*
X47267Y-69500D01*
X47188Y-69533D01*
X47034Y-69688D01*
X47000Y-69769D01*
X46966Y-69688D01*
X46811Y-69534D01*
X46730Y-69500D01*
X46811Y-69466D01*
X46965Y-69311D01*
X46997Y-69236D01*
X47018Y-69287D01*
X47114Y-69315D01*
X47429Y-69000D01*
X47114Y-68684D01*
X47018Y-68712D01*
X46999Y-68767D01*
X46966Y-68688D01*
X46811Y-68534D01*
X46609Y-68450D01*
X46391Y-68449D01*
X46188Y-68533D01*
X46034Y-68688D01*
X46000Y-68769D01*
X45966Y-68688D01*
X45811Y-68534D01*
X45609Y-68450D01*
X45391Y-68449D01*
X45188Y-68533D01*
X45034Y-68688D01*
X45000Y-68769D01*
X44966Y-68688D01*
X44811Y-68534D01*
X44609Y-68450D01*
X44391Y-68449D01*
X44188Y-68533D01*
X44034Y-68688D01*
X44000Y-68769D01*
X43966Y-68688D01*
X43811Y-68534D01*
X43800Y-68529D01*
X43800Y-67385D01*
X51172Y-60012D01*
X51257Y-60012D01*
X51413Y-59948D01*
X51533Y-59828D01*
X51598Y-59672D01*
X51598Y-59503D01*
X51533Y-59347D01*
X51414Y-59227D01*
X51258Y-59162D01*
X51089Y-59162D01*
X50932Y-59227D01*
X50813Y-59346D01*
X50748Y-59502D01*
X50748Y-59588D01*
X43300Y-67036D01*
X43300Y-66389D01*
X50866Y-58823D01*
X50951Y-58823D01*
X51107Y-58758D01*
X51185Y-58681D01*
X53650Y-61145D01*
X53650Y-61450D01*
X53672Y-61564D01*
X53737Y-61662D01*
X53738Y-61662D01*
X53954Y-61878D01*
X53950Y-61890D01*
X53949Y-62108D01*
X54033Y-62311D01*
X54188Y-62465D01*
X54269Y-62499D01*
X54188Y-62533D01*
X54034Y-62688D01*
X53950Y-62890D01*
X53949Y-63108D01*
X54033Y-63311D01*
X54188Y-63465D01*
X54269Y-63499D01*
X54188Y-63533D01*
X54034Y-63688D01*
X53950Y-63890D01*
X53949Y-64108D01*
X54033Y-64311D01*
X54172Y-64449D01*
X54150Y-64449D01*
X54058Y-64487D01*
X53988Y-64558D01*
X53950Y-64650D01*
X53949Y-64719D01*
X53949Y-64719D01*
X53935Y-64722D01*
X53837Y-64787D01*
X51259Y-67365D01*
X45992Y-67365D01*
X45932Y-67305D01*
X45776Y-67240D01*
X45606Y-67240D01*
X45450Y-67305D01*
X45331Y-67424D01*
X45266Y-67580D01*
X45266Y-67749D01*
X45330Y-67906D01*
X45450Y-68025D01*
X45606Y-68090D01*
X45775Y-68090D01*
X45931Y-68026D01*
X45992Y-67965D01*
X51384Y-67965D01*
X51384Y-67965D01*
X51498Y-67942D01*
X51498Y-67942D01*
X51596Y-67877D01*
X54010Y-65463D01*
X54058Y-65511D01*
X54150Y-65549D01*
X54249Y-65550D01*
X54848Y-65550D01*
X54848Y-70596D01*
M02*
