G04 (created by PCBNEW (2013-07-07 BZR 4022)-stable) date 28/05/2014 08:13:03*
%MOIN*%
G04 Gerber Fmt 3.4, Leading zero omitted, Abs format*
%FSLAX34Y34*%
G01*
G70*
G90*
G04 APERTURE LIST*
%ADD10C,0.00590551*%
%ADD11C,0.005*%
%ADD12C,0.012*%
%ADD13C,0.015*%
%ADD14C,0.0125*%
%ADD15C,0.0039*%
%ADD16C,0.006*%
%ADD17C,0.0043*%
G04 APERTURE END LIST*
G54D10*
G54D11*
X38640Y-32121D02*
X38640Y-31821D01*
X38726Y-32121D02*
X38726Y-31964D01*
X38716Y-31935D01*
X38697Y-31921D01*
X38669Y-31921D01*
X38650Y-31935D01*
X38640Y-31950D01*
X38792Y-31921D02*
X38869Y-31921D01*
X38821Y-31821D02*
X38821Y-32078D01*
X38830Y-32107D01*
X38850Y-32121D01*
X38869Y-32121D01*
X38907Y-31921D02*
X38983Y-31921D01*
X38935Y-31821D02*
X38935Y-32078D01*
X38945Y-32107D01*
X38964Y-32121D01*
X38983Y-32121D01*
X39050Y-31921D02*
X39050Y-32221D01*
X39050Y-31935D02*
X39069Y-31921D01*
X39107Y-31921D01*
X39126Y-31935D01*
X39135Y-31950D01*
X39145Y-31978D01*
X39145Y-32064D01*
X39135Y-32092D01*
X39126Y-32107D01*
X39107Y-32121D01*
X39069Y-32121D01*
X39050Y-32107D01*
X39230Y-32092D02*
X39240Y-32107D01*
X39230Y-32121D01*
X39221Y-32107D01*
X39230Y-32092D01*
X39230Y-32121D01*
X39230Y-31935D02*
X39240Y-31950D01*
X39230Y-31964D01*
X39221Y-31950D01*
X39230Y-31935D01*
X39230Y-31964D01*
X39469Y-31807D02*
X39297Y-32192D01*
X39678Y-31807D02*
X39507Y-32192D01*
X39830Y-32107D02*
X39811Y-32121D01*
X39773Y-32121D01*
X39754Y-32107D01*
X39745Y-32092D01*
X39735Y-32064D01*
X39735Y-31978D01*
X39745Y-31950D01*
X39754Y-31935D01*
X39773Y-31921D01*
X39811Y-31921D01*
X39830Y-31935D01*
X39945Y-32121D02*
X39926Y-32107D01*
X39916Y-32092D01*
X39907Y-32064D01*
X39907Y-31978D01*
X39916Y-31950D01*
X39926Y-31935D01*
X39945Y-31921D01*
X39973Y-31921D01*
X39992Y-31935D01*
X40002Y-31950D01*
X40011Y-31978D01*
X40011Y-32064D01*
X40002Y-32092D01*
X39992Y-32107D01*
X39973Y-32121D01*
X39945Y-32121D01*
X40183Y-32121D02*
X40183Y-31821D01*
X40183Y-32107D02*
X40164Y-32121D01*
X40126Y-32121D01*
X40107Y-32107D01*
X40097Y-32092D01*
X40088Y-32064D01*
X40088Y-31978D01*
X40097Y-31950D01*
X40107Y-31935D01*
X40126Y-31921D01*
X40164Y-31921D01*
X40183Y-31935D01*
X40354Y-32107D02*
X40335Y-32121D01*
X40297Y-32121D01*
X40278Y-32107D01*
X40269Y-32078D01*
X40269Y-31964D01*
X40278Y-31935D01*
X40297Y-31921D01*
X40335Y-31921D01*
X40354Y-31935D01*
X40364Y-31964D01*
X40364Y-31992D01*
X40269Y-32021D01*
X40450Y-32092D02*
X40459Y-32107D01*
X40450Y-32121D01*
X40440Y-32107D01*
X40450Y-32092D01*
X40450Y-32121D01*
X40630Y-31921D02*
X40630Y-32164D01*
X40621Y-32192D01*
X40611Y-32207D01*
X40592Y-32221D01*
X40564Y-32221D01*
X40545Y-32207D01*
X40630Y-32107D02*
X40611Y-32121D01*
X40573Y-32121D01*
X40554Y-32107D01*
X40545Y-32092D01*
X40535Y-32064D01*
X40535Y-31978D01*
X40545Y-31950D01*
X40554Y-31935D01*
X40573Y-31921D01*
X40611Y-31921D01*
X40630Y-31935D01*
X40754Y-32121D02*
X40735Y-32107D01*
X40726Y-32092D01*
X40716Y-32064D01*
X40716Y-31978D01*
X40726Y-31950D01*
X40735Y-31935D01*
X40754Y-31921D01*
X40783Y-31921D01*
X40802Y-31935D01*
X40811Y-31950D01*
X40821Y-31978D01*
X40821Y-32064D01*
X40811Y-32092D01*
X40802Y-32107D01*
X40783Y-32121D01*
X40754Y-32121D01*
X40935Y-32121D02*
X40916Y-32107D01*
X40907Y-32092D01*
X40897Y-32064D01*
X40897Y-31978D01*
X40907Y-31950D01*
X40916Y-31935D01*
X40935Y-31921D01*
X40964Y-31921D01*
X40983Y-31935D01*
X40992Y-31950D01*
X41002Y-31978D01*
X41002Y-32064D01*
X40992Y-32092D01*
X40983Y-32107D01*
X40964Y-32121D01*
X40935Y-32121D01*
X41173Y-31921D02*
X41173Y-32164D01*
X41164Y-32192D01*
X41154Y-32207D01*
X41135Y-32221D01*
X41107Y-32221D01*
X41088Y-32207D01*
X41173Y-32107D02*
X41154Y-32121D01*
X41116Y-32121D01*
X41097Y-32107D01*
X41088Y-32092D01*
X41078Y-32064D01*
X41078Y-31978D01*
X41088Y-31950D01*
X41097Y-31935D01*
X41116Y-31921D01*
X41154Y-31921D01*
X41173Y-31935D01*
X41297Y-32121D02*
X41278Y-32107D01*
X41269Y-32078D01*
X41269Y-31821D01*
X41450Y-32107D02*
X41430Y-32121D01*
X41392Y-32121D01*
X41373Y-32107D01*
X41364Y-32078D01*
X41364Y-31964D01*
X41373Y-31935D01*
X41392Y-31921D01*
X41430Y-31921D01*
X41450Y-31935D01*
X41459Y-31964D01*
X41459Y-31992D01*
X41364Y-32021D01*
X41545Y-32092D02*
X41554Y-32107D01*
X41545Y-32121D01*
X41535Y-32107D01*
X41545Y-32092D01*
X41545Y-32121D01*
X41726Y-32107D02*
X41707Y-32121D01*
X41669Y-32121D01*
X41650Y-32107D01*
X41640Y-32092D01*
X41630Y-32064D01*
X41630Y-31978D01*
X41640Y-31950D01*
X41650Y-31935D01*
X41669Y-31921D01*
X41707Y-31921D01*
X41726Y-31935D01*
X41840Y-32121D02*
X41821Y-32107D01*
X41811Y-32092D01*
X41802Y-32064D01*
X41802Y-31978D01*
X41811Y-31950D01*
X41821Y-31935D01*
X41840Y-31921D01*
X41869Y-31921D01*
X41888Y-31935D01*
X41897Y-31950D01*
X41907Y-31978D01*
X41907Y-32064D01*
X41897Y-32092D01*
X41888Y-32107D01*
X41869Y-32121D01*
X41840Y-32121D01*
X41992Y-32121D02*
X41992Y-31921D01*
X41992Y-31950D02*
X42002Y-31935D01*
X42021Y-31921D01*
X42050Y-31921D01*
X42069Y-31935D01*
X42078Y-31964D01*
X42078Y-32121D01*
X42078Y-31964D02*
X42088Y-31935D01*
X42107Y-31921D01*
X42135Y-31921D01*
X42154Y-31935D01*
X42164Y-31964D01*
X42164Y-32121D01*
X42402Y-31807D02*
X42230Y-32192D01*
X42469Y-31921D02*
X42469Y-32221D01*
X42469Y-31935D02*
X42488Y-31921D01*
X42526Y-31921D01*
X42545Y-31935D01*
X42554Y-31950D01*
X42564Y-31978D01*
X42564Y-32064D01*
X42554Y-32092D01*
X42545Y-32107D01*
X42526Y-32121D01*
X42488Y-32121D01*
X42469Y-32107D01*
X42792Y-31807D02*
X42621Y-32192D01*
X42945Y-32121D02*
X42945Y-31821D01*
X42945Y-32107D02*
X42926Y-32121D01*
X42888Y-32121D01*
X42869Y-32107D01*
X42859Y-32092D01*
X42850Y-32064D01*
X42850Y-31978D01*
X42859Y-31950D01*
X42869Y-31935D01*
X42888Y-31921D01*
X42926Y-31921D01*
X42945Y-31935D01*
X43126Y-32121D02*
X43126Y-31964D01*
X43116Y-31935D01*
X43097Y-31921D01*
X43059Y-31921D01*
X43040Y-31935D01*
X43126Y-32107D02*
X43107Y-32121D01*
X43059Y-32121D01*
X43040Y-32107D01*
X43030Y-32078D01*
X43030Y-32050D01*
X43040Y-32021D01*
X43059Y-32007D01*
X43107Y-32007D01*
X43126Y-31992D01*
X43297Y-32107D02*
X43278Y-32121D01*
X43240Y-32121D01*
X43221Y-32107D01*
X43211Y-32078D01*
X43211Y-31964D01*
X43221Y-31935D01*
X43240Y-31921D01*
X43278Y-31921D01*
X43297Y-31935D01*
X43307Y-31964D01*
X43307Y-31992D01*
X43211Y-32021D01*
X43478Y-32107D02*
X43459Y-32121D01*
X43421Y-32121D01*
X43402Y-32107D01*
X43392Y-32092D01*
X43383Y-32064D01*
X43383Y-31978D01*
X43392Y-31950D01*
X43402Y-31935D01*
X43421Y-31921D01*
X43459Y-31921D01*
X43478Y-31935D01*
X43650Y-31921D02*
X43650Y-32121D01*
X43564Y-31921D02*
X43564Y-32078D01*
X43573Y-32107D01*
X43592Y-32121D01*
X43621Y-32121D01*
X43640Y-32107D01*
X43650Y-32092D01*
X43888Y-31807D02*
X43716Y-32192D01*
X39807Y-32391D02*
X39883Y-32391D01*
X39835Y-32591D02*
X39835Y-32334D01*
X39845Y-32305D01*
X39864Y-32291D01*
X39883Y-32291D01*
X39978Y-32591D02*
X39959Y-32577D01*
X39949Y-32562D01*
X39940Y-32534D01*
X39940Y-32448D01*
X39949Y-32420D01*
X39959Y-32405D01*
X39978Y-32391D01*
X40007Y-32391D01*
X40026Y-32405D01*
X40035Y-32420D01*
X40045Y-32448D01*
X40045Y-32534D01*
X40035Y-32562D01*
X40026Y-32577D01*
X40007Y-32591D01*
X39978Y-32591D01*
X40130Y-32591D02*
X40130Y-32391D01*
X40130Y-32448D02*
X40140Y-32420D01*
X40149Y-32405D01*
X40169Y-32391D01*
X40188Y-32391D01*
X40407Y-32591D02*
X40407Y-32391D01*
X40407Y-32448D02*
X40416Y-32420D01*
X40426Y-32405D01*
X40445Y-32391D01*
X40464Y-32391D01*
X40616Y-32391D02*
X40616Y-32591D01*
X40530Y-32391D02*
X40530Y-32548D01*
X40540Y-32577D01*
X40559Y-32591D01*
X40588Y-32591D01*
X40607Y-32577D01*
X40616Y-32562D01*
X40702Y-32577D02*
X40721Y-32591D01*
X40759Y-32591D01*
X40778Y-32577D01*
X40788Y-32548D01*
X40788Y-32534D01*
X40778Y-32505D01*
X40759Y-32491D01*
X40730Y-32491D01*
X40711Y-32477D01*
X40702Y-32448D01*
X40702Y-32434D01*
X40711Y-32405D01*
X40730Y-32391D01*
X40759Y-32391D01*
X40778Y-32405D01*
X40873Y-32434D02*
X40940Y-32434D01*
X40969Y-32591D02*
X40873Y-32591D01*
X40873Y-32291D01*
X40969Y-32291D01*
X41121Y-32434D02*
X41054Y-32434D01*
X41054Y-32591D02*
X41054Y-32291D01*
X41149Y-32291D01*
X41226Y-32591D02*
X41226Y-32291D01*
X42045Y-32591D02*
X41978Y-32448D01*
X41930Y-32591D02*
X41930Y-32291D01*
X42007Y-32291D01*
X42026Y-32305D01*
X42035Y-32320D01*
X42045Y-32348D01*
X42045Y-32391D01*
X42035Y-32420D01*
X42026Y-32434D01*
X42007Y-32448D01*
X41930Y-32448D01*
X42321Y-32291D02*
X42340Y-32291D01*
X42359Y-32305D01*
X42369Y-32320D01*
X42378Y-32348D01*
X42388Y-32405D01*
X42388Y-32477D01*
X42378Y-32534D01*
X42369Y-32562D01*
X42359Y-32577D01*
X42340Y-32591D01*
X42321Y-32591D01*
X42302Y-32577D01*
X42292Y-32562D01*
X42283Y-32534D01*
X42273Y-32477D01*
X42273Y-32405D01*
X42283Y-32348D01*
X42292Y-32320D01*
X42302Y-32305D01*
X42321Y-32291D01*
X42473Y-32562D02*
X42483Y-32577D01*
X42473Y-32591D01*
X42464Y-32577D01*
X42473Y-32562D01*
X42473Y-32591D01*
X42673Y-32591D02*
X42559Y-32591D01*
X42616Y-32591D02*
X42616Y-32291D01*
X42597Y-32334D01*
X42578Y-32362D01*
X42559Y-32377D01*
G54D12*
X40064Y-33167D02*
X40521Y-33167D01*
G54D11*
X40241Y-26565D02*
X40241Y-26615D01*
X40241Y-26615D02*
X42341Y-26615D01*
X42341Y-25115D02*
X40241Y-25115D01*
X40241Y-25115D02*
X40241Y-26565D01*
X40241Y-25665D02*
X40441Y-25665D01*
X40441Y-25665D02*
X40441Y-26065D01*
X40441Y-26065D02*
X40241Y-26065D01*
X42341Y-25115D02*
X42341Y-26615D01*
G54D13*
X38199Y-29630D02*
X38199Y-27208D01*
X38199Y-27208D02*
X40167Y-27208D01*
X40167Y-27208D02*
X40167Y-29610D01*
X42333Y-29610D02*
X42352Y-27208D01*
X42352Y-27208D02*
X44301Y-27208D01*
X44301Y-27208D02*
X44301Y-29610D01*
X38199Y-33193D02*
X44301Y-33193D01*
X44301Y-33822D02*
X38199Y-33822D01*
X44301Y-29610D02*
X44301Y-35397D01*
X38199Y-29610D02*
X44301Y-29610D01*
X38199Y-35397D02*
X38199Y-29610D01*
X44301Y-35397D02*
X38199Y-35397D01*
G54D12*
X40250Y-23250D02*
X40250Y-23250D01*
X40250Y-24250D02*
X40250Y-23250D01*
X40250Y-23250D02*
X40250Y-23250D01*
X40250Y-23250D02*
X44250Y-23250D01*
X44250Y-23250D02*
X44250Y-24250D01*
X44250Y-24250D02*
X40250Y-24250D01*
X41250Y-24250D02*
X41250Y-23250D01*
G54D14*
X39000Y-23500D02*
X38000Y-23500D01*
X39000Y-24500D02*
X38000Y-24500D01*
G54D12*
X39000Y-23500D02*
X39000Y-24500D01*
X38000Y-24500D02*
X38000Y-23500D01*
X42250Y-28500D02*
X42250Y-29500D01*
X42250Y-29500D02*
X40250Y-29500D01*
X40250Y-29500D02*
X40250Y-28500D01*
X40250Y-28500D02*
X42250Y-28500D01*
G54D15*
X40691Y-28054D02*
G75*
G03X40691Y-28054I-50J0D01*
G74*
G01*
X41091Y-28054D02*
X40691Y-28054D01*
X40691Y-28054D02*
X40691Y-27454D01*
X40691Y-27454D02*
X41091Y-27454D01*
X41491Y-27454D02*
X41891Y-27454D01*
X41891Y-27454D02*
X41891Y-28054D01*
X41891Y-28054D02*
X41491Y-28054D01*
G54D16*
X40948Y-25247D02*
X40948Y-25611D01*
X40969Y-25654D01*
X40991Y-25675D01*
X41033Y-25697D01*
X41119Y-25697D01*
X41162Y-25675D01*
X41183Y-25654D01*
X41205Y-25611D01*
X41205Y-25247D01*
X41633Y-25247D02*
X41419Y-25247D01*
X41398Y-25461D01*
X41419Y-25440D01*
X41462Y-25418D01*
X41569Y-25418D01*
X41612Y-25440D01*
X41633Y-25461D01*
X41655Y-25504D01*
X41655Y-25611D01*
X41633Y-25654D01*
X41612Y-25675D01*
X41569Y-25697D01*
X41462Y-25697D01*
X41419Y-25675D01*
X41398Y-25654D01*
G54D11*
X44352Y-23580D02*
X44352Y-23380D01*
X44428Y-23380D01*
X44447Y-23390D01*
X44457Y-23400D01*
X44466Y-23419D01*
X44466Y-23447D01*
X44457Y-23466D01*
X44447Y-23476D01*
X44428Y-23485D01*
X44352Y-23485D01*
X44533Y-23380D02*
X44657Y-23380D01*
X44590Y-23457D01*
X44619Y-23457D01*
X44638Y-23466D01*
X44647Y-23476D01*
X44657Y-23495D01*
X44657Y-23542D01*
X44647Y-23561D01*
X44638Y-23571D01*
X44619Y-23580D01*
X44561Y-23580D01*
X44542Y-23571D01*
X44533Y-23561D01*
X37852Y-24830D02*
X37852Y-24630D01*
X37928Y-24630D01*
X37947Y-24640D01*
X37957Y-24650D01*
X37966Y-24669D01*
X37966Y-24697D01*
X37957Y-24716D01*
X37947Y-24726D01*
X37928Y-24735D01*
X37852Y-24735D01*
X38042Y-24650D02*
X38052Y-24640D01*
X38071Y-24630D01*
X38119Y-24630D01*
X38138Y-24640D01*
X38147Y-24650D01*
X38157Y-24669D01*
X38157Y-24688D01*
X38147Y-24716D01*
X38033Y-24830D01*
X38157Y-24830D01*
X40352Y-28330D02*
X40352Y-28130D01*
X40428Y-28130D01*
X40447Y-28140D01*
X40457Y-28150D01*
X40466Y-28169D01*
X40466Y-28197D01*
X40457Y-28216D01*
X40447Y-28226D01*
X40428Y-28235D01*
X40352Y-28235D01*
X40638Y-28197D02*
X40638Y-28330D01*
X40590Y-28121D02*
X40542Y-28264D01*
X40666Y-28264D01*
G54D17*
X41351Y-27755D02*
X41361Y-27765D01*
X41370Y-27793D01*
X41370Y-27811D01*
X41361Y-27840D01*
X41342Y-27858D01*
X41323Y-27868D01*
X41286Y-27877D01*
X41258Y-27877D01*
X41220Y-27868D01*
X41201Y-27858D01*
X41183Y-27840D01*
X41173Y-27811D01*
X41173Y-27793D01*
X41183Y-27765D01*
X41192Y-27755D01*
X41192Y-27680D02*
X41183Y-27671D01*
X41173Y-27652D01*
X41173Y-27605D01*
X41183Y-27586D01*
X41192Y-27577D01*
X41211Y-27568D01*
X41230Y-27568D01*
X41258Y-27577D01*
X41370Y-27689D01*
X41370Y-27568D01*
X41370Y-27380D02*
X41370Y-27492D01*
X41370Y-27436D02*
X41173Y-27436D01*
X41201Y-27455D01*
X41220Y-27474D01*
X41230Y-27492D01*
M02*
