G04 (created by PCBNEW (2013-07-07 BZR 4022)-stable) date 28/05/2014 08:13:03*
%MOIN*%
G04 Gerber Fmt 3.4, Leading zero omitted, Abs format*
%FSLAX34Y34*%
G01*
G70*
G90*
G04 APERTURE LIST*
%ADD10C,0.00590551*%
%ADD11C,0.16*%
%ADD12R,0.02X0.045*%
%ADD13C,0.1181*%
%ADD14R,0.055X0.055*%
%ADD15C,0.055*%
%ADD16R,0.035X0.055*%
%ADD17R,0.025X0.045*%
%ADD18C,0.02*%
%ADD19C,0.012*%
%ADD20C,0.008*%
%ADD21C,0.02*%
%ADD22C,0.01*%
G04 APERTURE END LIST*
G54D10*
G54D11*
X38928Y-25707D03*
X43650Y-25650D03*
G54D12*
X40541Y-24815D03*
X40541Y-26915D03*
X41041Y-24815D03*
X41541Y-24815D03*
X42041Y-24815D03*
X41041Y-26915D03*
X41541Y-26915D03*
X42041Y-26915D03*
G54D13*
X44360Y-33507D03*
X38140Y-33507D03*
X43927Y-28193D03*
X38573Y-28193D03*
G54D14*
X40750Y-23750D03*
G54D15*
X41750Y-23750D03*
X42750Y-23750D03*
X43750Y-23750D03*
G54D14*
X38500Y-24000D03*
X41750Y-29000D03*
G54D15*
X40750Y-29000D03*
G54D16*
X40916Y-27754D03*
X41666Y-27754D03*
G54D17*
X40991Y-27754D03*
X41591Y-27754D03*
G54D18*
X42150Y-26000D03*
X42590Y-26160D03*
X41250Y-30750D03*
G54D19*
X41541Y-24815D02*
X41541Y-23959D01*
X41541Y-23959D02*
X41750Y-23750D01*
X41041Y-24815D02*
X41041Y-24041D01*
X41041Y-24041D02*
X40750Y-23750D01*
G54D20*
X41041Y-24659D02*
X41041Y-24815D01*
G54D19*
X42750Y-23750D02*
X42750Y-24106D01*
X42750Y-24106D02*
X42041Y-24815D01*
G54D20*
X41541Y-26915D02*
X41541Y-28791D01*
X41541Y-28791D02*
X41750Y-29000D01*
G54D21*
X41541Y-26915D02*
X41541Y-27704D01*
X41541Y-27704D02*
X41591Y-27754D01*
X41591Y-27754D02*
X43488Y-27754D01*
X43488Y-27754D02*
X43927Y-28193D01*
X39012Y-27754D02*
X38573Y-28193D01*
X40991Y-27754D02*
X39012Y-27754D01*
X41041Y-27704D02*
X40991Y-27754D01*
X41041Y-26915D02*
X41041Y-27704D01*
G54D20*
X41041Y-26915D02*
X41041Y-28709D01*
X41041Y-28709D02*
X40750Y-29000D01*
G54D19*
X42150Y-26000D02*
X42150Y-25400D01*
X43750Y-23800D02*
X43750Y-23750D01*
X42150Y-25400D02*
X43750Y-23800D01*
X42041Y-26915D02*
X42041Y-26109D01*
X42041Y-26109D02*
X42150Y-26000D01*
X42560Y-26130D02*
X42590Y-26160D01*
X40541Y-26915D02*
X40541Y-25641D01*
X38900Y-24000D02*
X38500Y-24000D01*
X40541Y-25641D02*
X38900Y-24000D01*
G54D10*
G36*
X44587Y-29439D02*
X44574Y-29501D01*
X44542Y-29549D01*
X44494Y-29581D01*
X44432Y-29594D01*
X41573Y-29594D01*
X41511Y-29581D01*
X41463Y-29549D01*
X41431Y-29501D01*
X41419Y-29439D01*
X41419Y-26738D01*
X41431Y-26676D01*
X41463Y-26628D01*
X41511Y-26596D01*
X41573Y-26584D01*
X41806Y-26584D01*
X41796Y-26593D01*
X41771Y-26656D01*
X41770Y-26723D01*
X41770Y-27173D01*
X41796Y-27236D01*
X41844Y-27284D01*
X41907Y-27309D01*
X41974Y-27310D01*
X42174Y-27310D01*
X42237Y-27284D01*
X42285Y-27236D01*
X42310Y-27173D01*
X42311Y-27106D01*
X42311Y-26656D01*
X42285Y-26593D01*
X42275Y-26584D01*
X43369Y-26584D01*
X43456Y-26619D01*
X43842Y-26620D01*
X43929Y-26584D01*
X44432Y-26584D01*
X44494Y-26596D01*
X44542Y-26628D01*
X44574Y-26676D01*
X44587Y-26738D01*
X44587Y-29439D01*
X44587Y-29439D01*
G37*
G54D22*
X44587Y-29439D02*
X44574Y-29501D01*
X44542Y-29549D01*
X44494Y-29581D01*
X44432Y-29594D01*
X41573Y-29594D01*
X41511Y-29581D01*
X41463Y-29549D01*
X41431Y-29501D01*
X41419Y-29439D01*
X41419Y-26738D01*
X41431Y-26676D01*
X41463Y-26628D01*
X41511Y-26596D01*
X41573Y-26584D01*
X41806Y-26584D01*
X41796Y-26593D01*
X41771Y-26656D01*
X41770Y-26723D01*
X41770Y-27173D01*
X41796Y-27236D01*
X41844Y-27284D01*
X41907Y-27309D01*
X41974Y-27310D01*
X42174Y-27310D01*
X42237Y-27284D01*
X42285Y-27236D01*
X42310Y-27173D01*
X42311Y-27106D01*
X42311Y-26656D01*
X42285Y-26593D01*
X42275Y-26584D01*
X43369Y-26584D01*
X43456Y-26619D01*
X43842Y-26620D01*
X43929Y-26584D01*
X44432Y-26584D01*
X44494Y-26596D01*
X44542Y-26628D01*
X44574Y-26676D01*
X44587Y-26738D01*
X44587Y-29439D01*
G54D10*
G36*
X41162Y-29439D02*
X41149Y-29501D01*
X41117Y-29549D01*
X41069Y-29581D01*
X41007Y-29594D01*
X38069Y-29594D01*
X38007Y-29581D01*
X37959Y-29549D01*
X37927Y-29501D01*
X37915Y-29439D01*
X37915Y-26738D01*
X37927Y-26676D01*
X37959Y-26628D01*
X38007Y-26596D01*
X38069Y-26584D01*
X38510Y-26584D01*
X38734Y-26676D01*
X39120Y-26677D01*
X39345Y-26584D01*
X40306Y-26584D01*
X40296Y-26593D01*
X40271Y-26656D01*
X40270Y-26723D01*
X40270Y-27173D01*
X40296Y-27236D01*
X40344Y-27284D01*
X40407Y-27309D01*
X40474Y-27310D01*
X40674Y-27310D01*
X40737Y-27284D01*
X40785Y-27236D01*
X40810Y-27173D01*
X40811Y-27106D01*
X40811Y-26656D01*
X40785Y-26593D01*
X40775Y-26584D01*
X41007Y-26584D01*
X41069Y-26596D01*
X41117Y-26628D01*
X41149Y-26676D01*
X41162Y-26738D01*
X41162Y-29439D01*
X41162Y-29439D01*
G37*
G54D22*
X41162Y-29439D02*
X41149Y-29501D01*
X41117Y-29549D01*
X41069Y-29581D01*
X41007Y-29594D01*
X38069Y-29594D01*
X38007Y-29581D01*
X37959Y-29549D01*
X37927Y-29501D01*
X37915Y-29439D01*
X37915Y-26738D01*
X37927Y-26676D01*
X37959Y-26628D01*
X38007Y-26596D01*
X38069Y-26584D01*
X38510Y-26584D01*
X38734Y-26676D01*
X39120Y-26677D01*
X39345Y-26584D01*
X40306Y-26584D01*
X40296Y-26593D01*
X40271Y-26656D01*
X40270Y-26723D01*
X40270Y-27173D01*
X40296Y-27236D01*
X40344Y-27284D01*
X40407Y-27309D01*
X40474Y-27310D01*
X40674Y-27310D01*
X40737Y-27284D01*
X40785Y-27236D01*
X40810Y-27173D01*
X40811Y-27106D01*
X40811Y-26656D01*
X40785Y-26593D01*
X40775Y-26584D01*
X41007Y-26584D01*
X41069Y-26596D01*
X41117Y-26628D01*
X41149Y-26676D01*
X41162Y-26738D01*
X41162Y-29439D01*
G54D10*
G36*
X41990Y-25220D02*
X41980Y-25230D01*
X41928Y-25308D01*
X41910Y-25400D01*
X41910Y-25847D01*
X41872Y-25938D01*
X41871Y-25939D01*
X41819Y-26017D01*
X41801Y-26109D01*
X41801Y-26290D01*
X39731Y-26290D01*
X39758Y-26262D01*
X39907Y-25902D01*
X39908Y-25512D01*
X39759Y-25152D01*
X39483Y-24876D01*
X39123Y-24727D01*
X38953Y-24727D01*
X38953Y-24239D01*
X38953Y-23760D01*
X38953Y-23689D01*
X38925Y-23623D01*
X38875Y-23573D01*
X38810Y-23546D01*
X38682Y-23546D01*
X38637Y-23591D01*
X38637Y-23862D01*
X38908Y-23862D01*
X38953Y-23817D01*
X38953Y-23760D01*
X38953Y-24239D01*
X38953Y-24182D01*
X38908Y-24137D01*
X38637Y-24137D01*
X38637Y-24408D01*
X38682Y-24453D01*
X38810Y-24453D01*
X38875Y-24426D01*
X38925Y-24376D01*
X38953Y-24310D01*
X38953Y-24239D01*
X38953Y-24727D01*
X38733Y-24726D01*
X38373Y-24875D01*
X38362Y-24886D01*
X38362Y-24408D01*
X38362Y-24137D01*
X38362Y-23862D01*
X38362Y-23591D01*
X38317Y-23546D01*
X38189Y-23546D01*
X38124Y-23573D01*
X38074Y-23623D01*
X38046Y-23689D01*
X38046Y-23760D01*
X38046Y-23817D01*
X38091Y-23862D01*
X38362Y-23862D01*
X38362Y-24137D01*
X38091Y-24137D01*
X38046Y-24182D01*
X38046Y-24239D01*
X38046Y-24310D01*
X38074Y-24376D01*
X38124Y-24426D01*
X38189Y-24453D01*
X38317Y-24453D01*
X38362Y-24408D01*
X38362Y-24886D01*
X38097Y-25151D01*
X37948Y-25511D01*
X37947Y-25901D01*
X38096Y-26261D01*
X38125Y-26290D01*
X37894Y-26290D01*
X37800Y-26308D01*
X37755Y-26338D01*
X37755Y-23505D01*
X40294Y-23505D01*
X40294Y-23510D01*
X40294Y-24060D01*
X40322Y-24126D01*
X40372Y-24177D01*
X40439Y-24204D01*
X40510Y-24205D01*
X40801Y-24205D01*
X40801Y-24475D01*
X40790Y-24485D01*
X40743Y-24437D01*
X40676Y-24410D01*
X40605Y-24409D01*
X40405Y-24409D01*
X40339Y-24437D01*
X40288Y-24487D01*
X40261Y-24554D01*
X40260Y-24625D01*
X40260Y-25075D01*
X40288Y-25141D01*
X40338Y-25192D01*
X40405Y-25219D01*
X40476Y-25220D01*
X40676Y-25220D01*
X40742Y-25192D01*
X40791Y-25144D01*
X40838Y-25192D01*
X40905Y-25219D01*
X40976Y-25220D01*
X41176Y-25220D01*
X41242Y-25192D01*
X41291Y-25144D01*
X41338Y-25192D01*
X41405Y-25219D01*
X41476Y-25220D01*
X41676Y-25220D01*
X41742Y-25192D01*
X41791Y-25144D01*
X41838Y-25192D01*
X41905Y-25219D01*
X41976Y-25220D01*
X41990Y-25220D01*
X41990Y-25220D01*
G37*
G54D19*
X41990Y-25220D02*
X41980Y-25230D01*
X41928Y-25308D01*
X41910Y-25400D01*
X41910Y-25847D01*
X41872Y-25938D01*
X41871Y-25939D01*
X41819Y-26017D01*
X41801Y-26109D01*
X41801Y-26290D01*
X39731Y-26290D01*
X39758Y-26262D01*
X39907Y-25902D01*
X39908Y-25512D01*
X39759Y-25152D01*
X39483Y-24876D01*
X39123Y-24727D01*
X38953Y-24727D01*
X38953Y-24239D01*
X38953Y-23760D01*
X38953Y-23689D01*
X38925Y-23623D01*
X38875Y-23573D01*
X38810Y-23546D01*
X38682Y-23546D01*
X38637Y-23591D01*
X38637Y-23862D01*
X38908Y-23862D01*
X38953Y-23817D01*
X38953Y-23760D01*
X38953Y-24239D01*
X38953Y-24182D01*
X38908Y-24137D01*
X38637Y-24137D01*
X38637Y-24408D01*
X38682Y-24453D01*
X38810Y-24453D01*
X38875Y-24426D01*
X38925Y-24376D01*
X38953Y-24310D01*
X38953Y-24239D01*
X38953Y-24727D01*
X38733Y-24726D01*
X38373Y-24875D01*
X38362Y-24886D01*
X38362Y-24408D01*
X38362Y-24137D01*
X38362Y-23862D01*
X38362Y-23591D01*
X38317Y-23546D01*
X38189Y-23546D01*
X38124Y-23573D01*
X38074Y-23623D01*
X38046Y-23689D01*
X38046Y-23760D01*
X38046Y-23817D01*
X38091Y-23862D01*
X38362Y-23862D01*
X38362Y-24137D01*
X38091Y-24137D01*
X38046Y-24182D01*
X38046Y-24239D01*
X38046Y-24310D01*
X38074Y-24376D01*
X38124Y-24426D01*
X38189Y-24453D01*
X38317Y-24453D01*
X38362Y-24408D01*
X38362Y-24886D01*
X38097Y-25151D01*
X37948Y-25511D01*
X37947Y-25901D01*
X38096Y-26261D01*
X38125Y-26290D01*
X37894Y-26290D01*
X37800Y-26308D01*
X37755Y-26338D01*
X37755Y-23505D01*
X40294Y-23505D01*
X40294Y-23510D01*
X40294Y-24060D01*
X40322Y-24126D01*
X40372Y-24177D01*
X40439Y-24204D01*
X40510Y-24205D01*
X40801Y-24205D01*
X40801Y-24475D01*
X40790Y-24485D01*
X40743Y-24437D01*
X40676Y-24410D01*
X40605Y-24409D01*
X40405Y-24409D01*
X40339Y-24437D01*
X40288Y-24487D01*
X40261Y-24554D01*
X40260Y-24625D01*
X40260Y-25075D01*
X40288Y-25141D01*
X40338Y-25192D01*
X40405Y-25219D01*
X40476Y-25220D01*
X40676Y-25220D01*
X40742Y-25192D01*
X40791Y-25144D01*
X40838Y-25192D01*
X40905Y-25219D01*
X40976Y-25220D01*
X41176Y-25220D01*
X41242Y-25192D01*
X41291Y-25144D01*
X41338Y-25192D01*
X41405Y-25219D01*
X41476Y-25220D01*
X41676Y-25220D01*
X41742Y-25192D01*
X41791Y-25144D01*
X41838Y-25192D01*
X41905Y-25219D01*
X41976Y-25220D01*
X41990Y-25220D01*
G54D10*
G36*
X44745Y-26338D02*
X44699Y-26308D01*
X44605Y-26290D01*
X44396Y-26290D01*
X44480Y-26205D01*
X44629Y-25845D01*
X44630Y-25455D01*
X44481Y-25095D01*
X44205Y-24819D01*
X43845Y-24670D01*
X43455Y-24669D01*
X43095Y-24818D01*
X42819Y-25094D01*
X42670Y-25454D01*
X42669Y-25844D01*
X42818Y-26204D01*
X42904Y-26290D01*
X42281Y-26290D01*
X42281Y-26248D01*
X42308Y-26237D01*
X42387Y-26158D01*
X42429Y-26055D01*
X42430Y-25944D01*
X42390Y-25847D01*
X42390Y-25499D01*
X43684Y-24204D01*
X43840Y-24205D01*
X44007Y-24135D01*
X44135Y-24008D01*
X44204Y-23840D01*
X44205Y-23659D01*
X44141Y-23505D01*
X44745Y-23505D01*
X44745Y-26338D01*
X44745Y-26338D01*
G37*
G54D19*
X44745Y-26338D02*
X44699Y-26308D01*
X44605Y-26290D01*
X44396Y-26290D01*
X44480Y-26205D01*
X44629Y-25845D01*
X44630Y-25455D01*
X44481Y-25095D01*
X44205Y-24819D01*
X43845Y-24670D01*
X43455Y-24669D01*
X43095Y-24818D01*
X42819Y-25094D01*
X42670Y-25454D01*
X42669Y-25844D01*
X42818Y-26204D01*
X42904Y-26290D01*
X42281Y-26290D01*
X42281Y-26248D01*
X42308Y-26237D01*
X42387Y-26158D01*
X42429Y-26055D01*
X42430Y-25944D01*
X42390Y-25847D01*
X42390Y-25499D01*
X43684Y-24204D01*
X43840Y-24205D01*
X44007Y-24135D01*
X44135Y-24008D01*
X44204Y-23840D01*
X44205Y-23659D01*
X44141Y-23505D01*
X44745Y-23505D01*
X44745Y-26338D01*
G54D10*
G36*
X44745Y-32832D02*
X44513Y-32736D01*
X44207Y-32736D01*
X43924Y-32853D01*
X43707Y-33069D01*
X43589Y-33353D01*
X43589Y-33659D01*
X43706Y-33942D01*
X43758Y-33995D01*
X38741Y-33995D01*
X38792Y-33944D01*
X38910Y-33660D01*
X38910Y-33354D01*
X38793Y-33071D01*
X38577Y-32854D01*
X38293Y-32736D01*
X37987Y-32736D01*
X37755Y-32832D01*
X37755Y-29811D01*
X37800Y-29841D01*
X37894Y-29860D01*
X44605Y-29860D01*
X44699Y-29841D01*
X44745Y-29811D01*
X44745Y-32832D01*
X44745Y-32832D01*
G37*
G54D19*
X44745Y-32832D02*
X44513Y-32736D01*
X44207Y-32736D01*
X43924Y-32853D01*
X43707Y-33069D01*
X43589Y-33353D01*
X43589Y-33659D01*
X43706Y-33942D01*
X43758Y-33995D01*
X38741Y-33995D01*
X38792Y-33944D01*
X38910Y-33660D01*
X38910Y-33354D01*
X38793Y-33071D01*
X38577Y-32854D01*
X38293Y-32736D01*
X37987Y-32736D01*
X37755Y-32832D01*
X37755Y-29811D01*
X37800Y-29841D01*
X37894Y-29860D01*
X44605Y-29860D01*
X44699Y-29841D01*
X44745Y-29811D01*
X44745Y-32832D01*
M02*
