M48
;DRILL file {Pcbnew (2013-07-07 BZR 4022)-stable} date 25/06/2014 08:25:48
;FORMAT={-:-/ absolute / inch / decimal}
FMAT,2
INCH,TZ
T1C0.025
T2C0.040
%
G90
G05
M72
T1
X5.2167Y-2.6778
X5.27Y-3.3
X5.32Y-3.09
X5.48Y-3.09
X5.55Y-2.75
X5.55Y-3.
X5.57Y-2.82
X5.57Y-2.87
X5.6Y-3.25
X5.73Y-2.9
X5.75Y-3.03
X5.88Y-3.08
X5.9095Y-2.7993
X6.1Y-3.3
X6.15Y-2.9
X6.28Y-3.09
X6.35Y-2.75
X6.35Y-3.
X6.37Y-2.81
X6.37Y-2.86
X6.38Y-2.92
X6.4Y-3.25
X6.55Y-3.03
X6.68Y-3.09
X6.6832Y-2.6868
T2
X4.9Y-2.45
X4.9Y-2.55
X4.9Y-2.65
X4.9Y-2.75
X4.9Y-2.85
X4.9Y-2.95
X4.9Y-3.05
X4.9Y-3.15
X4.9Y-3.25
X4.9Y-3.35
X5.Y-2.45
X5.Y-2.55
X5.Y-2.65
X5.Y-2.75
X5.Y-2.85
X5.Y-2.95
X5.Y-3.05
X5.Y-3.15
X5.Y-3.25
X5.Y-3.35
X5.1Y-3.35
X5.1Y-3.45
X5.15Y-2.4
X5.15Y-2.5
X5.15Y-2.95
X5.25Y-2.85
X5.25Y-2.95
X5.3Y-3.45
X5.35Y-2.4
X5.35Y-2.5
X5.4Y-3.35
X5.4Y-3.45
X5.45Y-2.4
X5.45Y-2.5
X5.5Y-3.35
X5.5Y-3.45
X5.6Y-3.45
X5.65Y-2.4
X5.65Y-2.5
X5.7Y-3.45
X5.75Y-2.4
X5.75Y-2.5
X5.8Y-3.35
X5.8Y-3.45
X5.85Y-2.85
X5.85Y-2.95
X5.9Y-2.4
X5.9Y-2.5
X5.9Y-3.35
X5.9Y-3.45
X5.95Y-2.95
X6.Y-2.4
X6.Y-2.5
X6.05Y-2.85
X6.1Y-3.45
X6.15Y-2.4
X6.15Y-2.5
X6.2Y-3.35
X6.2Y-3.45
X6.25Y-2.4
X6.25Y-2.5
X6.3Y-3.35
X6.3Y-3.45
X6.4Y-3.45
X6.45Y-2.4
X6.45Y-2.5
X6.5Y-3.45
X6.55Y-2.4
X6.55Y-2.5
X6.6Y-3.45
X6.65Y-2.85
X6.7Y-3.35
X6.7Y-3.45
X6.75Y-2.4
X6.75Y-2.5
X6.9Y-2.55
X6.9Y-2.65
X6.9Y-2.75
X6.9Y-2.85
X6.9Y-2.95
X6.9Y-3.05
X6.9Y-3.15
X6.9Y-3.25
X6.9Y-3.35
X6.9Y-3.45
X7.Y-2.55
X7.Y-2.65
X7.Y-2.75
X7.Y-2.85
X7.Y-2.95
X7.Y-3.05
X7.Y-3.15
X7.Y-3.25
X7.Y-3.35
X7.Y-3.45
T0
M30
