G04 (created by PCBNEW (2013-07-07 BZR 4022)-stable) date 25/06/2014 08:25:45*
%MOIN*%
G04 Gerber Fmt 3.4, Leading zero omitted, Abs format*
%FSLAX34Y34*%
G01*
G70*
G90*
G04 APERTURE LIST*
%ADD10C,0.00393701*%
%ADD11R,0.035X0.055*%
%ADD12R,0.0590551X0.023622*%
G04 APERTURE END LIST*
G54D10*
G54D11*
X64875Y-30000D03*
X64125Y-30000D03*
X60625Y-27000D03*
X61375Y-27000D03*
X60625Y-26000D03*
X61375Y-26000D03*
X65625Y-27000D03*
X66375Y-27000D03*
X65625Y-26000D03*
X66375Y-26000D03*
G54D12*
X62437Y-29000D03*
X62437Y-28500D03*
X62437Y-28000D03*
X62437Y-27500D03*
X62437Y-27000D03*
X62437Y-26500D03*
X62437Y-26000D03*
X64562Y-26000D03*
X64562Y-26500D03*
X64562Y-27000D03*
X64562Y-27500D03*
X64562Y-28000D03*
X64562Y-28500D03*
X64562Y-29000D03*
G54D11*
X56875Y-30000D03*
X56125Y-30000D03*
X52625Y-27000D03*
X53375Y-27000D03*
X52625Y-26000D03*
X53375Y-26000D03*
X57625Y-27000D03*
X58375Y-27000D03*
X57625Y-26000D03*
X58375Y-26000D03*
G54D12*
X54437Y-29000D03*
X54437Y-28500D03*
X54437Y-28000D03*
X54437Y-27500D03*
X54437Y-27000D03*
X54437Y-26500D03*
X54437Y-26000D03*
X56562Y-26000D03*
X56562Y-26500D03*
X56562Y-27000D03*
X56562Y-27500D03*
X56562Y-28000D03*
X56562Y-28500D03*
X56562Y-29000D03*
M02*
