G04 (created by PCBNEW (2013-07-07 BZR 4022)-stable) date 25/06/2014 08:25:45*
%MOIN*%
G04 Gerber Fmt 3.4, Leading zero omitted, Abs format*
%FSLAX34Y34*%
G01*
G70*
G90*
G04 APERTURE LIST*
%ADD10C,0.00393701*%
%ADD11C,0.011811*%
%ADD12C,0.0039*%
%ADD13C,0.00787402*%
%ADD14C,0.0043*%
%ADD15C,0.00590551*%
G04 APERTURE END LIST*
G54D10*
G54D11*
X66358Y-31939D02*
X66358Y-31348D01*
X66217Y-31348D01*
X66133Y-31376D01*
X66077Y-31432D01*
X66049Y-31489D01*
X66021Y-31601D01*
X66021Y-31685D01*
X66049Y-31798D01*
X66077Y-31854D01*
X66133Y-31910D01*
X66217Y-31939D01*
X66358Y-31939D01*
X65514Y-31939D02*
X65514Y-31629D01*
X65542Y-31573D01*
X65599Y-31545D01*
X65711Y-31545D01*
X65767Y-31573D01*
X65514Y-31910D02*
X65571Y-31939D01*
X65711Y-31939D01*
X65767Y-31910D01*
X65796Y-31854D01*
X65796Y-31798D01*
X65767Y-31742D01*
X65711Y-31714D01*
X65571Y-31714D01*
X65514Y-31685D01*
X65233Y-31545D02*
X65233Y-31939D01*
X65233Y-31601D02*
X65205Y-31573D01*
X65149Y-31545D01*
X65064Y-31545D01*
X65008Y-31573D01*
X64980Y-31629D01*
X64980Y-31939D01*
X64699Y-31939D02*
X64699Y-31348D01*
X64502Y-31770D01*
X64305Y-31348D01*
X64305Y-31939D01*
X63940Y-31939D02*
X63996Y-31910D01*
X64024Y-31882D01*
X64052Y-31826D01*
X64052Y-31657D01*
X64024Y-31601D01*
X63996Y-31573D01*
X63940Y-31545D01*
X63855Y-31545D01*
X63799Y-31573D01*
X63771Y-31601D01*
X63743Y-31657D01*
X63743Y-31826D01*
X63771Y-31882D01*
X63799Y-31910D01*
X63855Y-31939D01*
X63940Y-31939D01*
X63574Y-31545D02*
X63349Y-31545D01*
X63490Y-31348D02*
X63490Y-31854D01*
X63462Y-31910D01*
X63405Y-31939D01*
X63349Y-31939D01*
X63068Y-31939D02*
X63124Y-31910D01*
X63152Y-31882D01*
X63180Y-31826D01*
X63180Y-31657D01*
X63152Y-31601D01*
X63124Y-31573D01*
X63068Y-31545D01*
X62983Y-31545D01*
X62927Y-31573D01*
X62899Y-31601D01*
X62871Y-31657D01*
X62871Y-31826D01*
X62899Y-31882D01*
X62927Y-31910D01*
X62983Y-31939D01*
X63068Y-31939D01*
X62196Y-31910D02*
X62112Y-31939D01*
X61971Y-31939D01*
X61915Y-31910D01*
X61887Y-31882D01*
X61859Y-31826D01*
X61859Y-31770D01*
X61887Y-31714D01*
X61915Y-31685D01*
X61971Y-31657D01*
X62084Y-31629D01*
X62140Y-31601D01*
X62168Y-31573D01*
X62196Y-31517D01*
X62196Y-31460D01*
X62168Y-31404D01*
X62140Y-31376D01*
X62084Y-31348D01*
X61943Y-31348D01*
X61859Y-31376D01*
X61690Y-31545D02*
X61465Y-31545D01*
X61605Y-31348D02*
X61605Y-31854D01*
X61577Y-31910D01*
X61521Y-31939D01*
X61465Y-31939D01*
X61268Y-31939D02*
X61268Y-31545D01*
X61268Y-31348D02*
X61296Y-31376D01*
X61268Y-31404D01*
X61240Y-31376D01*
X61268Y-31348D01*
X61268Y-31404D01*
X60987Y-31939D02*
X60987Y-31545D01*
X60987Y-31601D02*
X60959Y-31573D01*
X60902Y-31545D01*
X60818Y-31545D01*
X60762Y-31573D01*
X60734Y-31629D01*
X60734Y-31939D01*
X60734Y-31629D02*
X60706Y-31573D01*
X60649Y-31545D01*
X60565Y-31545D01*
X60509Y-31573D01*
X60481Y-31629D01*
X60481Y-31939D01*
X59946Y-31545D02*
X59946Y-31939D01*
X60199Y-31545D02*
X60199Y-31854D01*
X60171Y-31910D01*
X60115Y-31939D01*
X60031Y-31939D01*
X59974Y-31910D01*
X59946Y-31882D01*
X59581Y-31939D02*
X59637Y-31910D01*
X59665Y-31854D01*
X59665Y-31348D01*
X59103Y-31939D02*
X59103Y-31629D01*
X59131Y-31573D01*
X59187Y-31545D01*
X59300Y-31545D01*
X59356Y-31573D01*
X59103Y-31910D02*
X59159Y-31939D01*
X59300Y-31939D01*
X59356Y-31910D01*
X59384Y-31854D01*
X59384Y-31798D01*
X59356Y-31742D01*
X59300Y-31714D01*
X59159Y-31714D01*
X59103Y-31685D01*
X58906Y-31545D02*
X58681Y-31545D01*
X58821Y-31348D02*
X58821Y-31854D01*
X58793Y-31910D01*
X58737Y-31939D01*
X58681Y-31939D01*
X58400Y-31939D02*
X58456Y-31910D01*
X58484Y-31882D01*
X58512Y-31826D01*
X58512Y-31657D01*
X58484Y-31601D01*
X58456Y-31573D01*
X58400Y-31545D01*
X58315Y-31545D01*
X58259Y-31573D01*
X58231Y-31601D01*
X58203Y-31657D01*
X58203Y-31826D01*
X58231Y-31882D01*
X58259Y-31910D01*
X58315Y-31939D01*
X58400Y-31939D01*
X57950Y-31939D02*
X57950Y-31545D01*
X57950Y-31657D02*
X57922Y-31601D01*
X57893Y-31573D01*
X57837Y-31545D01*
X57781Y-31545D01*
X56965Y-31348D02*
X56965Y-31770D01*
X56994Y-31854D01*
X57050Y-31910D01*
X57134Y-31939D01*
X57190Y-31939D01*
X56431Y-31545D02*
X56431Y-31939D01*
X56684Y-31545D02*
X56684Y-31854D01*
X56656Y-31910D01*
X56600Y-31939D01*
X56516Y-31939D01*
X56459Y-31910D01*
X56431Y-31882D01*
X56150Y-31545D02*
X56150Y-31939D01*
X56150Y-31601D02*
X56122Y-31573D01*
X56066Y-31545D01*
X55981Y-31545D01*
X55925Y-31573D01*
X55897Y-31629D01*
X55897Y-31939D01*
X55391Y-31910D02*
X55447Y-31939D01*
X55559Y-31939D01*
X55616Y-31910D01*
X55644Y-31854D01*
X55644Y-31629D01*
X55616Y-31573D01*
X55559Y-31545D01*
X55447Y-31545D01*
X55391Y-31573D01*
X55363Y-31629D01*
X55363Y-31685D01*
X55644Y-31742D01*
X54688Y-31404D02*
X54659Y-31376D01*
X54603Y-31348D01*
X54463Y-31348D01*
X54406Y-31376D01*
X54378Y-31404D01*
X54350Y-31460D01*
X54350Y-31517D01*
X54378Y-31601D01*
X54716Y-31939D01*
X54350Y-31939D01*
X53985Y-31348D02*
X53928Y-31348D01*
X53872Y-31376D01*
X53844Y-31404D01*
X53816Y-31460D01*
X53788Y-31573D01*
X53788Y-31714D01*
X53816Y-31826D01*
X53844Y-31882D01*
X53872Y-31910D01*
X53928Y-31939D01*
X53985Y-31939D01*
X54041Y-31910D01*
X54069Y-31882D01*
X54097Y-31826D01*
X54125Y-31714D01*
X54125Y-31573D01*
X54097Y-31460D01*
X54069Y-31404D01*
X54041Y-31376D01*
X53985Y-31348D01*
X53225Y-31939D02*
X53563Y-31939D01*
X53394Y-31939D02*
X53394Y-31348D01*
X53450Y-31432D01*
X53507Y-31489D01*
X53563Y-31517D01*
X52719Y-31545D02*
X52719Y-31939D01*
X52860Y-31320D02*
X53000Y-31742D01*
X52635Y-31742D01*
G54D12*
X65200Y-30300D02*
G75*
G03X65200Y-30300I-50J0D01*
G74*
G01*
X64700Y-30300D02*
X65100Y-30300D01*
X65100Y-30300D02*
X65100Y-29700D01*
X65100Y-29700D02*
X64700Y-29700D01*
X64300Y-29700D02*
X63900Y-29700D01*
X63900Y-29700D02*
X63900Y-30300D01*
X63900Y-30300D02*
X64300Y-30300D01*
X60400Y-26700D02*
G75*
G03X60400Y-26700I-50J0D01*
G74*
G01*
X60800Y-26700D02*
X60400Y-26700D01*
X60400Y-26700D02*
X60400Y-27300D01*
X60400Y-27300D02*
X60800Y-27300D01*
X61200Y-27300D02*
X61600Y-27300D01*
X61600Y-27300D02*
X61600Y-26700D01*
X61600Y-26700D02*
X61200Y-26700D01*
X60400Y-25700D02*
G75*
G03X60400Y-25700I-50J0D01*
G74*
G01*
X60800Y-25700D02*
X60400Y-25700D01*
X60400Y-25700D02*
X60400Y-26300D01*
X60400Y-26300D02*
X60800Y-26300D01*
X61200Y-26300D02*
X61600Y-26300D01*
X61600Y-26300D02*
X61600Y-25700D01*
X61600Y-25700D02*
X61200Y-25700D01*
X65400Y-26700D02*
G75*
G03X65400Y-26700I-50J0D01*
G74*
G01*
X65800Y-26700D02*
X65400Y-26700D01*
X65400Y-26700D02*
X65400Y-27300D01*
X65400Y-27300D02*
X65800Y-27300D01*
X66200Y-27300D02*
X66600Y-27300D01*
X66600Y-27300D02*
X66600Y-26700D01*
X66600Y-26700D02*
X66200Y-26700D01*
X65400Y-25700D02*
G75*
G03X65400Y-25700I-50J0D01*
G74*
G01*
X65800Y-25700D02*
X65400Y-25700D01*
X65400Y-25700D02*
X65400Y-26300D01*
X65400Y-26300D02*
X65800Y-26300D01*
X66200Y-26300D02*
X66600Y-26300D01*
X66600Y-26300D02*
X66600Y-25700D01*
X66600Y-25700D02*
X66200Y-25700D01*
G54D13*
X63263Y-29311D02*
X62791Y-29311D01*
X64208Y-29311D02*
X63736Y-29311D01*
X63263Y-29311D02*
G75*
G02X63500Y-29074I236J0D01*
G74*
G01*
X63500Y-29074D02*
G75*
G02X63736Y-29311I0J-236D01*
G74*
G01*
X64208Y-29311D02*
X64208Y-25688D01*
X64208Y-25688D02*
X62791Y-25688D01*
X62791Y-25688D02*
X62791Y-29311D01*
G54D12*
X57200Y-30300D02*
G75*
G03X57200Y-30300I-50J0D01*
G74*
G01*
X56700Y-30300D02*
X57100Y-30300D01*
X57100Y-30300D02*
X57100Y-29700D01*
X57100Y-29700D02*
X56700Y-29700D01*
X56300Y-29700D02*
X55900Y-29700D01*
X55900Y-29700D02*
X55900Y-30300D01*
X55900Y-30300D02*
X56300Y-30300D01*
X52400Y-26700D02*
G75*
G03X52400Y-26700I-50J0D01*
G74*
G01*
X52800Y-26700D02*
X52400Y-26700D01*
X52400Y-26700D02*
X52400Y-27300D01*
X52400Y-27300D02*
X52800Y-27300D01*
X53200Y-27300D02*
X53600Y-27300D01*
X53600Y-27300D02*
X53600Y-26700D01*
X53600Y-26700D02*
X53200Y-26700D01*
X52400Y-25700D02*
G75*
G03X52400Y-25700I-50J0D01*
G74*
G01*
X52800Y-25700D02*
X52400Y-25700D01*
X52400Y-25700D02*
X52400Y-26300D01*
X52400Y-26300D02*
X52800Y-26300D01*
X53200Y-26300D02*
X53600Y-26300D01*
X53600Y-26300D02*
X53600Y-25700D01*
X53600Y-25700D02*
X53200Y-25700D01*
X57400Y-26700D02*
G75*
G03X57400Y-26700I-50J0D01*
G74*
G01*
X57800Y-26700D02*
X57400Y-26700D01*
X57400Y-26700D02*
X57400Y-27300D01*
X57400Y-27300D02*
X57800Y-27300D01*
X58200Y-27300D02*
X58600Y-27300D01*
X58600Y-27300D02*
X58600Y-26700D01*
X58600Y-26700D02*
X58200Y-26700D01*
X57400Y-25700D02*
G75*
G03X57400Y-25700I-50J0D01*
G74*
G01*
X57800Y-25700D02*
X57400Y-25700D01*
X57400Y-25700D02*
X57400Y-26300D01*
X57400Y-26300D02*
X57800Y-26300D01*
X58200Y-26300D02*
X58600Y-26300D01*
X58600Y-26300D02*
X58600Y-25700D01*
X58600Y-25700D02*
X58200Y-25700D01*
G54D13*
X55263Y-29311D02*
X54791Y-29311D01*
X56208Y-29311D02*
X55736Y-29311D01*
X55263Y-29311D02*
G75*
G02X55500Y-29074I236J0D01*
G74*
G01*
X55500Y-29074D02*
G75*
G02X55736Y-29311I0J-236D01*
G74*
G01*
X56208Y-29311D02*
X56208Y-25688D01*
X56208Y-25688D02*
X54791Y-25688D01*
X54791Y-25688D02*
X54791Y-29311D01*
G54D14*
X65532Y-29960D02*
X65542Y-29970D01*
X65570Y-29979D01*
X65589Y-29979D01*
X65617Y-29970D01*
X65636Y-29951D01*
X65645Y-29932D01*
X65654Y-29895D01*
X65654Y-29867D01*
X65645Y-29829D01*
X65636Y-29810D01*
X65617Y-29792D01*
X65589Y-29782D01*
X65570Y-29782D01*
X65542Y-29792D01*
X65532Y-29801D01*
X65457Y-29801D02*
X65448Y-29792D01*
X65429Y-29782D01*
X65382Y-29782D01*
X65363Y-29792D01*
X65354Y-29801D01*
X65345Y-29820D01*
X65345Y-29839D01*
X65354Y-29867D01*
X65467Y-29979D01*
X65345Y-29979D01*
X60132Y-27079D02*
X60198Y-26985D01*
X60245Y-27079D02*
X60245Y-26882D01*
X60170Y-26882D01*
X60151Y-26892D01*
X60142Y-26901D01*
X60132Y-26920D01*
X60132Y-26948D01*
X60142Y-26967D01*
X60151Y-26976D01*
X60170Y-26985D01*
X60245Y-26985D01*
X60067Y-26882D02*
X59945Y-26882D01*
X60010Y-26957D01*
X59982Y-26957D01*
X59963Y-26967D01*
X59954Y-26976D01*
X59945Y-26995D01*
X59945Y-27042D01*
X59954Y-27060D01*
X59963Y-27070D01*
X59982Y-27079D01*
X60039Y-27079D01*
X60057Y-27070D01*
X60067Y-27060D01*
X60132Y-26279D02*
X60198Y-26185D01*
X60245Y-26279D02*
X60245Y-26082D01*
X60170Y-26082D01*
X60151Y-26092D01*
X60142Y-26101D01*
X60132Y-26120D01*
X60132Y-26148D01*
X60142Y-26167D01*
X60151Y-26176D01*
X60170Y-26185D01*
X60245Y-26185D01*
X59963Y-26148D02*
X59963Y-26279D01*
X60010Y-26073D02*
X60057Y-26214D01*
X59935Y-26214D01*
X66932Y-27279D02*
X66998Y-27185D01*
X67045Y-27279D02*
X67045Y-27082D01*
X66970Y-27082D01*
X66951Y-27092D01*
X66942Y-27101D01*
X66932Y-27120D01*
X66932Y-27148D01*
X66942Y-27167D01*
X66951Y-27176D01*
X66970Y-27185D01*
X67045Y-27185D01*
X66839Y-27279D02*
X66801Y-27279D01*
X66782Y-27270D01*
X66773Y-27260D01*
X66754Y-27232D01*
X66745Y-27195D01*
X66745Y-27120D01*
X66754Y-27101D01*
X66763Y-27092D01*
X66782Y-27082D01*
X66820Y-27082D01*
X66839Y-27092D01*
X66848Y-27101D01*
X66857Y-27120D01*
X66857Y-27167D01*
X66848Y-27185D01*
X66839Y-27195D01*
X66820Y-27204D01*
X66782Y-27204D01*
X66763Y-27195D01*
X66754Y-27185D01*
X66745Y-27167D01*
X67126Y-26279D02*
X67192Y-26185D01*
X67239Y-26279D02*
X67239Y-26082D01*
X67164Y-26082D01*
X67145Y-26092D01*
X67136Y-26101D01*
X67126Y-26120D01*
X67126Y-26148D01*
X67136Y-26167D01*
X67145Y-26176D01*
X67164Y-26185D01*
X67239Y-26185D01*
X66939Y-26279D02*
X67051Y-26279D01*
X66995Y-26279D02*
X66995Y-26082D01*
X67014Y-26110D01*
X67032Y-26129D01*
X67051Y-26139D01*
X66817Y-26082D02*
X66798Y-26082D01*
X66779Y-26092D01*
X66770Y-26101D01*
X66760Y-26120D01*
X66751Y-26157D01*
X66751Y-26204D01*
X66760Y-26242D01*
X66770Y-26260D01*
X66779Y-26270D01*
X66798Y-26279D01*
X66817Y-26279D01*
X66835Y-26270D01*
X66845Y-26260D01*
X66854Y-26242D01*
X66863Y-26204D01*
X66863Y-26157D01*
X66854Y-26120D01*
X66845Y-26101D01*
X66835Y-26092D01*
X66817Y-26082D01*
G54D15*
X63799Y-25165D02*
X63799Y-25484D01*
X63781Y-25521D01*
X63762Y-25540D01*
X63724Y-25559D01*
X63649Y-25559D01*
X63612Y-25540D01*
X63593Y-25521D01*
X63574Y-25484D01*
X63574Y-25165D01*
X63406Y-25203D02*
X63387Y-25184D01*
X63350Y-25165D01*
X63256Y-25165D01*
X63218Y-25184D01*
X63200Y-25203D01*
X63181Y-25240D01*
X63181Y-25278D01*
X63200Y-25334D01*
X63425Y-25559D01*
X63181Y-25559D01*
G54D14*
X57432Y-29960D02*
X57442Y-29970D01*
X57470Y-29979D01*
X57489Y-29979D01*
X57517Y-29970D01*
X57536Y-29951D01*
X57545Y-29932D01*
X57554Y-29895D01*
X57554Y-29867D01*
X57545Y-29829D01*
X57536Y-29810D01*
X57517Y-29792D01*
X57489Y-29782D01*
X57470Y-29782D01*
X57442Y-29792D01*
X57432Y-29801D01*
X57320Y-29867D02*
X57339Y-29857D01*
X57348Y-29848D01*
X57357Y-29829D01*
X57357Y-29820D01*
X57348Y-29801D01*
X57339Y-29792D01*
X57320Y-29782D01*
X57282Y-29782D01*
X57263Y-29792D01*
X57254Y-29801D01*
X57245Y-29820D01*
X57245Y-29829D01*
X57254Y-29848D01*
X57263Y-29857D01*
X57282Y-29867D01*
X57320Y-29867D01*
X57339Y-29876D01*
X57348Y-29885D01*
X57357Y-29904D01*
X57357Y-29942D01*
X57348Y-29960D01*
X57339Y-29970D01*
X57320Y-29979D01*
X57282Y-29979D01*
X57263Y-29970D01*
X57254Y-29960D01*
X57245Y-29942D01*
X57245Y-29904D01*
X57254Y-29885D01*
X57263Y-29876D01*
X57282Y-29867D01*
X52126Y-27079D02*
X52192Y-26985D01*
X52239Y-27079D02*
X52239Y-26882D01*
X52164Y-26882D01*
X52145Y-26892D01*
X52136Y-26901D01*
X52126Y-26920D01*
X52126Y-26948D01*
X52136Y-26967D01*
X52145Y-26976D01*
X52164Y-26985D01*
X52239Y-26985D01*
X52051Y-26901D02*
X52042Y-26892D01*
X52023Y-26882D01*
X51976Y-26882D01*
X51957Y-26892D01*
X51948Y-26901D01*
X51939Y-26920D01*
X51939Y-26939D01*
X51948Y-26967D01*
X52060Y-27079D01*
X51939Y-27079D01*
X51760Y-26882D02*
X51854Y-26882D01*
X51863Y-26976D01*
X51854Y-26967D01*
X51835Y-26957D01*
X51788Y-26957D01*
X51770Y-26967D01*
X51760Y-26976D01*
X51751Y-26995D01*
X51751Y-27042D01*
X51760Y-27060D01*
X51770Y-27070D01*
X51788Y-27079D01*
X51835Y-27079D01*
X51854Y-27070D01*
X51863Y-27060D01*
X52126Y-26079D02*
X52192Y-25985D01*
X52239Y-26079D02*
X52239Y-25882D01*
X52164Y-25882D01*
X52145Y-25892D01*
X52136Y-25901D01*
X52126Y-25920D01*
X52126Y-25948D01*
X52136Y-25967D01*
X52145Y-25976D01*
X52164Y-25985D01*
X52239Y-25985D01*
X52051Y-25901D02*
X52042Y-25892D01*
X52023Y-25882D01*
X51976Y-25882D01*
X51957Y-25892D01*
X51948Y-25901D01*
X51939Y-25920D01*
X51939Y-25939D01*
X51948Y-25967D01*
X52060Y-26079D01*
X51939Y-26079D01*
X51770Y-25882D02*
X51807Y-25882D01*
X51826Y-25892D01*
X51835Y-25901D01*
X51854Y-25929D01*
X51863Y-25967D01*
X51863Y-26042D01*
X51854Y-26060D01*
X51845Y-26070D01*
X51826Y-26079D01*
X51788Y-26079D01*
X51770Y-26070D01*
X51760Y-26060D01*
X51751Y-26042D01*
X51751Y-25995D01*
X51760Y-25976D01*
X51770Y-25967D01*
X51788Y-25957D01*
X51826Y-25957D01*
X51845Y-25967D01*
X51854Y-25976D01*
X51863Y-25995D01*
X59126Y-27079D02*
X59192Y-26985D01*
X59239Y-27079D02*
X59239Y-26882D01*
X59164Y-26882D01*
X59145Y-26892D01*
X59136Y-26901D01*
X59126Y-26920D01*
X59126Y-26948D01*
X59136Y-26967D01*
X59145Y-26976D01*
X59164Y-26985D01*
X59239Y-26985D01*
X59051Y-26901D02*
X59042Y-26892D01*
X59023Y-26882D01*
X58976Y-26882D01*
X58957Y-26892D01*
X58948Y-26901D01*
X58939Y-26920D01*
X58939Y-26939D01*
X58948Y-26967D01*
X59060Y-27079D01*
X58939Y-27079D01*
X58873Y-26882D02*
X58742Y-26882D01*
X58826Y-27079D01*
X59126Y-26279D02*
X59192Y-26185D01*
X59239Y-26279D02*
X59239Y-26082D01*
X59164Y-26082D01*
X59145Y-26092D01*
X59136Y-26101D01*
X59126Y-26120D01*
X59126Y-26148D01*
X59136Y-26167D01*
X59145Y-26176D01*
X59164Y-26185D01*
X59239Y-26185D01*
X59051Y-26101D02*
X59042Y-26092D01*
X59023Y-26082D01*
X58976Y-26082D01*
X58957Y-26092D01*
X58948Y-26101D01*
X58939Y-26120D01*
X58939Y-26139D01*
X58948Y-26167D01*
X59060Y-26279D01*
X58939Y-26279D01*
X58826Y-26167D02*
X58845Y-26157D01*
X58854Y-26148D01*
X58863Y-26129D01*
X58863Y-26120D01*
X58854Y-26101D01*
X58845Y-26092D01*
X58826Y-26082D01*
X58788Y-26082D01*
X58770Y-26092D01*
X58760Y-26101D01*
X58751Y-26120D01*
X58751Y-26129D01*
X58760Y-26148D01*
X58770Y-26157D01*
X58788Y-26167D01*
X58826Y-26167D01*
X58845Y-26176D01*
X58854Y-26185D01*
X58863Y-26204D01*
X58863Y-26242D01*
X58854Y-26260D01*
X58845Y-26270D01*
X58826Y-26279D01*
X58788Y-26279D01*
X58770Y-26270D01*
X58760Y-26260D01*
X58751Y-26242D01*
X58751Y-26204D01*
X58760Y-26185D01*
X58770Y-26176D01*
X58788Y-26167D01*
G54D15*
X55799Y-25165D02*
X55799Y-25484D01*
X55781Y-25521D01*
X55762Y-25540D01*
X55724Y-25559D01*
X55649Y-25559D01*
X55612Y-25540D01*
X55593Y-25521D01*
X55574Y-25484D01*
X55574Y-25165D01*
X55218Y-25296D02*
X55218Y-25559D01*
X55312Y-25146D02*
X55406Y-25428D01*
X55162Y-25428D01*
M02*
